{"asset":{"version":"2.0","generator":"babylon.js glTF exporter for 3dsmax 2026 v20251111.2"},"extensionsUsed":["KHR_materials_ior","KHR_materials_transmission","KHR_materials_volume","KHR_texture_transform","KHR_materials_specular"],"extensionsRequired":["KHR_texture_transform"],"scene":0,"scenes":[{"nodes":[0,1,2,3,4,5,6,7,8,9,10,11,12,13,14,15,16,17,18,19,20,21,22,23,24,25,26,27,28,29,30,31,32,33,34,35,36,37,38,39,40,41,42,43,44,45,46,47,48,49,50,51,52,53,54,55,56,57,58,59,60,61,62,63,64,65,66,67,68,69,70,71,72,73,74,75,76,77,78,79,80,81,82,83,84,85,86,87,88,89,90,91,92,93,94,95,96,97,98,99,100,101,102,103,104,105,106,107,108,109,110,111,112,113,114,115,116,117,118,119,120,121,122,123,124,125,126,127,128,129,130,131,132,133,134,135,136,137,138,139,140,141,142,143,144,145,146,147,148,149,150,151,152,153,154,155,156,157,158,159,160,161,162,163,164,165,166,167,168,169,170,171,172,173,174,175,176,177,178,179,180,181,182,183,184,185,186,187,188,189,190,191,192,193,194,195,196,197,198,199,200,201,202,203,204,205,206,207,208,209,210,211,212,213]}],"nodes":[{"mesh":0,"translation":[-0.18280497,2.1652887,-0.076767445],"name":"Infill_Glass_Raked & Horizontal Generic [8199751]"},{"mesh":1,"translation":[1.416044,3.26257,-0.076767445],"name":"Infill_Glass_Raked & Horizontal Generic [8200579]"},{"mesh":2,"translation":[-0.42627653,2.19456,0.054914895],"rotation":[0.5,-0.5,0.5,0.5],"name":"Infill_Glass_Transition Generic [8202170]"},{"mesh":3,"translation":[-0.42627653,0.92937434,1.2408333],"rotation":[-0.0,0.7071068,0.0,0.7071068],"name":"Infill_Glass_Raked & Horizontal Generic [8202939]"},{"mesh":4,"translation":[-27.512323,0.0,29.240168],"rotation":[-0.0,-0.7071068,0.0,0.7071067],"name":"Generic Models 1 Generic Models 1 [8568048]"},{"mesh":5,"translation":[-1.3739885,0.9293959,1.2408333],"rotation":[-0.0,0.7071068,0.0,0.7071068],"name":"Infill_Glass_Raked & Horizontal Generic [8735940]"},{"mesh":6,"translation":[-27.512323,0.0,29.240168],"rotation":[-0.0,-0.7071068,0.0,0.7071067],"name":"Generic Models 10 Generic Models 1 [8735975]"},{"mesh":7,"translation":[1.416044,3.2625408,-1.0244794],"rotation":[-0.0,3.133859E-15,0.0,1.0],"name":"Infill_Glass_Raked & Horizontal Generic [8736296]"},{"mesh":8,"translation":[-0.9978901,1.8699833,-1.0244794],"rotation":[-0.0,3.133859E-15,0.0,1.0],"name":"Infill_Glass_Raked & Horizontal Generic [8737682]"},{"mesh":9,"translation":[28.89472,0.0,27.28077],"name":"Casework 1 Casework 1 [8738332]"},{"mesh":10,"translation":[-1.3739858,1.8699833,-0.64838374],"rotation":[-0.0,-0.7071068,0.0,0.7071067],"name":"Infill_Glass_Raked & Horizontal Generic [8738822]"},{"mesh":11,"translation":[-1.3739885,1.4780358,0.44231918],"rotation":[-0.0,0.7071068,0.0,0.7071068],"name":"Infill_Glass_Raked & Horizontal Generic [8739593]"},{"mesh":12,"translation":[-0.21865472,1.4630404,-0.020391779],"rotation":[0.5000001,0.49999997,0.49999985,0.50000006],"name":"LS201 & LS202 - Konic Post Material LS Material [9048531]001"},{"mesh":13,"translation":[0.36284298,1.8288,-0.020391779],"rotation":[0.5000001,0.49999997,0.49999985,0.50000006],"name":"LS201 & LS202 - Konic Post Material LS Material [9048551]001"},{"mesh":14,"translation":[0.6293151,2.01168,-0.020391779],"rotation":[0.5000001,0.49999997,0.49999985,0.50000006],"name":"LS201 & LS202 - Konic Post Material LS Material [9048569]001"},{"mesh":15,"translation":[1.4287454,2.56032,-0.020391779],"rotation":[0.5000001,0.49999997,0.49999985,0.50000006],"name":"LS201 & LS202 - Konic Post Material LS Material [9048587]001"},{"mesh":16,"translation":[-0.36990324,0.7315199,0.70801455],"rotation":[-0.7071067,-0.7071068,-1.1520233E-07,-1.1520231E-07],"name":"LS201 & LS202 - Konic Post Material LS Material [9048616]001"},{"mesh":17,"translation":[-0.36990324,0.5486401,0.9735472],"rotation":[-0.7071067,-0.7071068,-1.1520233E-07,-1.1520231E-07],"name":"LS201 & LS202 - Konic Post Material LS Material [9048634]001"},{"mesh":18,"translation":[-0.36990324,0.18288012,1.5058869],"rotation":[-0.7071067,-0.7071068,-1.1520233E-07,-1.1520231E-07],"name":"LS201 & LS202 - Konic Post Material LS Material [9048652]001"},{"mesh":19,"translation":[-1.4303641,1.0972801,0.17503314],"rotation":[6.322028E-08,6.322026E-08,0.70710665,0.7071069],"name":"LS201 & LS202 - Konic Post Material LS Material [9048819]001"},{"mesh":19,"translation":[-0.36990324,1.0972801,0.17503314],"rotation":[-0.7071069,-0.70710665,1.3627573E-07,1.3627576E-07],"name":"LS201 & LS202 - Konic Post Material LS Material [9048819]002"},{"mesh":20,"translation":[-1.4303641,0.7315199,0.70801455],"rotation":[6.322028E-08,6.322026E-08,0.70710665,0.7071069],"name":"LS201 & LS202 - Konic Post Material LS Material [9048824]001"},{"mesh":21,"translation":[-1.4303641,0.5486401,0.9735472],"rotation":[6.322028E-08,6.322026E-08,0.70710665,0.7071069],"name":"LS201 & LS202 - Konic Post Material LS Material [9048829]001"},{"mesh":22,"translation":[-1.4303641,0.18288012,1.5058869],"rotation":[6.322028E-08,6.322026E-08,0.70710665,0.7071069],"name":"LS201 & LS202 - Konic Post Material LS Material [9048834]001"},{"mesh":23,"translation":[0.36284298,1.8288,-1.0808526],"rotation":[-0.5,-0.50000006,0.5,0.49999994],"name":"LS201 & LS202 - Konic Post Material LS Material [9048880]001"},{"mesh":24,"translation":[0.6293151,2.01168,-1.0808526],"rotation":[-0.5,-0.50000006,0.5,0.49999994],"name":"LS201 & LS202 - Konic Post Material LS Material [9048885]001"},{"mesh":25,"translation":[1.4287454,2.56032,-1.0808526],"rotation":[-0.5,-0.50000006,0.5,0.49999994],"name":"LS201 & LS202 - Konic Post Material LS Material [9048890]001"},{"mesh":26,"translation":[-0.44932607,1.2801597,-1.0808526],"rotation":[-0.5,-0.50000006,0.5,0.49999994],"name":"LS201 & LS202 - Konic Post Material LS Material [9048914]001"},{"mesh":27,"translation":[-0.71602607,1.2801597,-1.0808526],"rotation":[-0.5,-0.50000006,0.5,0.49999994],"name":"LS201 & LS202 - Konic Post Material LS Material [9048949]001"},{"mesh":28,"translation":[-1.2308598,1.2801597,-1.0808526],"rotation":[-0.5,-0.50000006,0.5,0.49999994],"name":"LS201 & LS202 - Konic Post Material LS Material [9048969]001"},{"mesh":29,"translation":[-1.4303639,1.2801597,-0.88134855],"rotation":[5.533139E-22,-5.533139E-22,0.7071068,0.7071067],"name":"LS201 & LS202 - Konic Post Material LS Material [9048987]001"},{"mesh":30,"translation":[-1.4303641,1.2801597,-0.07843975],"rotation":[6.322028E-08,6.322026E-08,0.70710665,0.7071069],"name":"LS201 & LS202 - Konic Post Material LS Material [9049081]001"},{"mesh":31,"translation":[-0.21865472,2.2915118,-0.08391813],"rotation":[-0.0,4.524159E-15,0.0,1.0],"name":"KON021 - Konic Washer Part [9193945]053"},{"mesh":31,"translation":[-0.21865472,1.7327118,-0.08391813],"rotation":[-0.0,4.524159E-15,0.0,1.0],"name":"KON021 - Konic Washer Part [9193945]054"},{"mesh":31,"translation":[0.36284298,2.657272,-0.08391813],"rotation":[-0.0,4.524159E-15,0.0,1.0],"name":"KON021 - Konic Washer Part [9193945]055"},{"mesh":31,"translation":[0.36284298,2.0984719,-0.08391813],"rotation":[-0.0,4.524159E-15,0.0,1.0],"name":"KON021 - Konic Washer Part [9193945]056"},{"mesh":31,"translation":[0.6293151,2.8401518,-0.08391813],"rotation":[-0.0,4.524159E-15,0.0,1.0],"name":"KON021 - Konic Washer Part [9193945]057"},{"mesh":31,"translation":[0.6293151,2.281352,-0.08391813],"rotation":[-0.0,4.524159E-15,0.0,1.0],"name":"KON021 - Konic Washer Part [9193945]058"},{"mesh":31,"translation":[1.4287454,3.3887916,-0.08391813],"rotation":[-0.0,4.524159E-15,0.0,1.0],"name":"KON021 - Konic Washer Part [9193945]059"},{"mesh":31,"translation":[1.4287454,2.8299918,-0.08391813],"rotation":[-0.0,4.524159E-15,0.0,1.0],"name":"KON021 - Konic Washer Part [9193945]060"},{"mesh":31,"translation":[-0.43342492,1.559992,0.70801455],"rotation":[-0.0,0.7071068,0.0,0.7071067],"name":"KON021 - Konic Washer Part [9193945]063"},{"mesh":31,"translation":[-0.43342492,1.0011919,0.70801455],"rotation":[-0.0,0.7071068,0.0,0.7071067],"name":"KON021 - Konic Washer Part [9193945]064"},{"mesh":31,"translation":[-0.43342492,1.3771119,0.9735472],"rotation":[-0.0,0.7071068,0.0,0.7071067],"name":"KON021 - Konic Washer Part [9193945]065"},{"mesh":31,"translation":[-0.43342492,0.8183117,0.9735472],"rotation":[-0.0,0.7071068,0.0,0.7071067],"name":"KON021 - Konic Washer Part [9193945]066"},{"mesh":31,"translation":[-0.43342492,1.0113517,1.5058869],"rotation":[-0.0,0.7071068,0.0,0.7071067],"name":"KON021 - Konic Washer Part [9193945]067"},{"mesh":31,"translation":[-0.43342492,0.45255175,1.5058869],"rotation":[-0.0,0.7071068,0.0,0.7071067],"name":"KON021 - Konic Washer Part [9193945]068"},{"mesh":31,"translation":[-1.3668379,1.9257518,0.17503314],"rotation":[-0.0,-0.7071068,0.0,0.7071067],"name":"KON021 - Konic Washer Part [9193945]069"},{"mesh":31,"translation":[-1.3668379,1.3669521,0.17503314],"rotation":[-0.0,-0.7071068,0.0,0.7071067],"name":"KON021 - Konic Washer Part [9193945]070"},{"mesh":31,"translation":[-1.3668379,1.559992,0.70801455],"rotation":[-0.0,-0.7071068,0.0,0.7071067],"name":"KON021 - Konic Washer Part [9193945]071"},{"mesh":31,"translation":[-1.3668379,1.0011919,0.70801455],"rotation":[-0.0,-0.7071068,0.0,0.7071067],"name":"KON021 - Konic Washer Part [9193945]072"},{"mesh":31,"translation":[-1.3668379,1.3771119,0.9735472],"rotation":[-0.0,-0.7071068,0.0,0.7071067],"name":"KON021 - Konic Washer Part [9193945]073"},{"mesh":31,"translation":[-1.3668379,0.8183117,0.9735472],"rotation":[-0.0,-0.7071068,0.0,0.7071067],"name":"KON021 - Konic Washer Part [9193945]074"},{"mesh":31,"translation":[-1.3668379,1.0113517,1.5058869],"rotation":[-0.0,-0.7071068,0.0,0.7071067],"name":"KON021 - Konic Washer Part [9193945]075"},{"mesh":31,"translation":[-1.3668379,0.45255175,1.5058869],"rotation":[-0.0,-0.7071068,0.0,0.7071067],"name":"KON021 - Konic Washer Part [9193945]076"},{"mesh":31,"translation":[0.36284298,2.657272,-1.0173309],"rotation":[-0.0,-1.0,0.0,4.371139E-08],"name":"KON021 - Konic Washer Part [9193945]077"},{"mesh":31,"translation":[0.36284298,2.0984719,-1.0173309],"rotation":[-0.0,-1.0,0.0,4.371139E-08],"name":"KON021 - Konic Washer Part [9193945]078"},{"mesh":31,"translation":[0.6293151,2.8401518,-1.0173309],"rotation":[-0.0,-1.0,0.0,4.371139E-08],"name":"KON021 - Konic Washer Part [9193945]079"},{"mesh":31,"translation":[0.6293151,2.281352,-1.0173309],"rotation":[-0.0,-1.0,0.0,4.371139E-08],"name":"KON021 - Konic Washer Part [9193945]080"},{"mesh":31,"translation":[1.4287454,3.3887916,-1.0173309],"rotation":[-0.0,-1.0,0.0,4.371139E-08],"name":"KON021 - Konic Washer Part [9193945]081"},{"mesh":31,"translation":[1.4287454,2.8299918,-1.0173309],"rotation":[-0.0,-1.0,0.0,4.371139E-08],"name":"KON021 - Konic Washer Part [9193945]082"},{"mesh":31,"translation":[-0.44932607,2.1086318,-1.0173309],"rotation":[-0.0,-1.0,0.0,4.371139E-08],"name":"KON021 - Konic Washer Part [9193945]083"},{"mesh":31,"translation":[-0.44932607,1.5498316,-1.0173309],"rotation":[-0.0,-1.0,0.0,4.371139E-08],"name":"KON021 - Konic Washer Part [9193945]084"},{"mesh":31,"translation":[-0.71602607,2.0262852,-1.0173309],"rotation":[-0.0,-1.0,0.0,4.371139E-08],"name":"KON021 - Konic Washer Part [9193945]085"},{"mesh":31,"translation":[-0.71602607,1.4674848,-1.0173309],"rotation":[-0.0,-1.0,0.0,4.371139E-08],"name":"KON021 - Konic Washer Part [9193945]086"},{"mesh":31,"translation":[-1.2308598,2.0262852,-1.0173309],"rotation":[-0.0,-1.0,0.0,-2.8212997E-07],"name":"KON021 - Konic Washer Part [9193945]087"},{"mesh":31,"translation":[-1.2308598,1.4674848,-1.0173309],"rotation":[-0.0,-1.0,0.0,-2.8212997E-07],"name":"KON021 - Konic Washer Part [9193945]088"},{"mesh":31,"translation":[-1.3668422,2.0262852,-0.88134855],"rotation":[-0.0,-0.7071068,0.0,0.7071068],"name":"KON021 - Konic Washer Part [9193945]089"},{"mesh":31,"translation":[-1.3668422,1.4674848,-0.88134855],"rotation":[-0.0,-0.7071068,0.0,0.7071068],"name":"KON021 - Konic Washer Part [9193945]090"},{"mesh":31,"translation":[-1.3668379,2.0262852,-0.07843975],"rotation":[-0.0,-0.7071066,0.0,0.70710695],"name":"KON021 - Konic Washer Part [9193945]099"},{"mesh":31,"translation":[-1.3668379,1.4674848,-0.07843975],"rotation":[-0.0,-0.7071066,0.0,0.70710695],"name":"KON021 - Konic Washer Part [9193945]100"},{"mesh":31,"translation":[-0.21865472,2.2915118,-0.06961668],"rotation":[-0.0,-1.0,0.0,2.8212997E-07],"name":"KON021A - Adhesive Konic Washer Part [9193800]053"},{"mesh":31,"translation":[-0.21865472,1.7327118,-0.06961668],"rotation":[-0.0,-1.0,0.0,2.8212997E-07],"name":"KON021A - Adhesive Konic Washer Part [9193800]054"},{"mesh":31,"translation":[0.36284298,2.657272,-0.06961668],"rotation":[-0.0,-1.0,0.0,2.8212997E-07],"name":"KON021A - Adhesive Konic Washer Part [9193800]055"},{"mesh":31,"translation":[0.36284298,2.0984719,-0.06961668],"rotation":[-0.0,-1.0,0.0,2.8212997E-07],"name":"KON021A - Adhesive Konic Washer Part [9193800]056"},{"mesh":31,"translation":[0.6293151,2.8401518,-0.06961668],"rotation":[-0.0,-1.0,0.0,2.8212997E-07],"name":"KON021A - Adhesive Konic Washer Part [9193800]057"},{"mesh":31,"translation":[0.6293151,2.281352,-0.06961668],"rotation":[-0.0,-1.0,0.0,2.8212997E-07],"name":"KON021A - Adhesive Konic Washer Part [9193800]058"},{"mesh":31,"translation":[1.4287454,3.3887916,-0.06961668],"rotation":[-0.0,-1.0,0.0,2.8212997E-07],"name":"KON021A - Adhesive Konic Washer Part [9193800]059"},{"mesh":31,"translation":[1.4287454,2.8299918,-0.06961668],"rotation":[-0.0,-1.0,0.0,2.8212997E-07],"name":"KON021A - Adhesive Konic Washer Part [9193800]060"},{"mesh":31,"translation":[-0.41912812,1.559992,0.70801455],"rotation":[-0.0,-0.70710695,0.0,0.7071066],"name":"KON021A - Adhesive Konic Washer Part [9193800]063"},{"mesh":31,"translation":[-0.41912812,1.0011919,0.70801455],"rotation":[-0.0,-0.70710695,0.0,0.7071066],"name":"KON021A - Adhesive Konic Washer Part [9193800]064"},{"mesh":31,"translation":[-0.41912812,1.3771119,0.9735472],"rotation":[-0.0,-0.70710695,0.0,0.7071066],"name":"KON021A - Adhesive Konic Washer Part [9193800]065"},{"mesh":31,"translation":[-0.41912812,0.8183117,0.9735472],"rotation":[-0.0,-0.70710695,0.0,0.7071066],"name":"KON021A - Adhesive Konic Washer Part [9193800]066"},{"mesh":31,"translation":[-0.41912812,1.0113517,1.5058869],"rotation":[-0.0,-0.70710695,0.0,0.7071066],"name":"KON021A - Adhesive Konic Washer Part [9193800]067"},{"mesh":31,"translation":[-0.41912812,0.45255175,1.5058869],"rotation":[-0.0,-0.70710695,0.0,0.7071066],"name":"KON021A - Adhesive Konic Washer Part [9193800]068"},{"mesh":31,"translation":[-1.3811393,1.9257518,0.17503314],"rotation":[-0.0,0.7071066,0.0,0.70710695],"name":"KON021A - Adhesive Konic Washer Part [9193800]069"},{"mesh":31,"translation":[-1.3811393,1.3669521,0.17503314],"rotation":[-0.0,0.7071066,0.0,0.70710695],"name":"KON021A - Adhesive Konic Washer Part [9193800]070"},{"mesh":31,"translation":[-1.3811393,1.559992,0.70801455],"rotation":[-0.0,0.7071066,0.0,0.70710695],"name":"KON021A - Adhesive Konic Washer Part [9193800]071"},{"mesh":31,"translation":[-1.3811393,1.0011919,0.70801455],"rotation":[-0.0,0.7071066,0.0,0.70710695],"name":"KON021A - Adhesive Konic Washer Part [9193800]072"},{"mesh":31,"translation":[-1.3811393,1.3771119,0.9735472],"rotation":[-0.0,0.7071066,0.0,0.70710695],"name":"KON021A - Adhesive Konic Washer Part [9193800]073"},{"mesh":31,"translation":[-1.3811393,0.8183117,0.9735472],"rotation":[-0.0,0.7071066,0.0,0.70710695],"name":"KON021A - Adhesive Konic Washer Part [9193800]074"},{"mesh":31,"translation":[-1.3811393,1.0113517,1.5058869],"rotation":[-0.0,0.7071066,0.0,0.70710695],"name":"KON021A - Adhesive Konic Washer Part [9193800]075"},{"mesh":31,"translation":[-1.3811393,0.45255175,1.5058869],"rotation":[-0.0,0.7071066,0.0,0.70710695],"name":"KON021A - Adhesive Konic Washer Part [9193800]076"},{"mesh":31,"translation":[0.36284298,2.657272,-1.0316278],"rotation":[-0.0,-2.3841858E-07,0.0,1.0],"name":"KON021A - Adhesive Konic Washer Part [9193800]077"},{"mesh":31,"translation":[0.36284298,2.0984719,-1.0316278],"rotation":[-0.0,-2.3841858E-07,0.0,1.0],"name":"KON021A - Adhesive Konic Washer Part [9193800]078"},{"mesh":31,"translation":[0.6293151,2.8401518,-1.0316278],"rotation":[-0.0,-2.3841858E-07,0.0,1.0],"name":"KON021A - Adhesive Konic Washer Part [9193800]079"},{"mesh":31,"translation":[0.6293151,2.281352,-1.0316278],"rotation":[-0.0,-2.3841858E-07,0.0,1.0],"name":"KON021A - Adhesive Konic Washer Part [9193800]080"},{"mesh":31,"translation":[1.4287454,3.3887916,-1.0316278],"rotation":[-0.0,-2.3841858E-07,0.0,1.0],"name":"KON021A - Adhesive Konic Washer Part [9193800]081"},{"mesh":31,"translation":[1.4287454,2.8299918,-1.0316278],"rotation":[-0.0,-2.3841858E-07,0.0,1.0],"name":"KON021A - Adhesive Konic Washer Part [9193800]082"},{"mesh":31,"translation":[-0.44932607,2.1086318,-1.0316278],"rotation":[-0.0,-2.3841858E-07,0.0,1.0],"name":"KON021A - Adhesive Konic Washer Part [9193800]083"},{"mesh":31,"translation":[-0.44932607,1.5498316,-1.0316278],"rotation":[-0.0,-2.3841858E-07,0.0,1.0],"name":"KON021A - Adhesive Konic Washer Part [9193800]084"},{"mesh":31,"translation":[-0.71602607,2.0262852,-1.0316278],"rotation":[-0.0,-2.3841858E-07,0.0,1.0],"name":"KON021A - Adhesive Konic Washer Part [9193800]085"},{"mesh":31,"translation":[-0.71602607,1.4674848,-1.0316278],"rotation":[-0.0,-2.3841858E-07,0.0,1.0],"name":"KON021A - Adhesive Konic Washer Part [9193800]086"},{"mesh":31,"translation":[-1.2308598,2.0262852,-1.0316278],"name":"KON021A - Adhesive Konic Washer Part [9193800]087"},{"mesh":31,"translation":[-1.2308598,1.4674848,-1.0316278],"name":"KON021A - Adhesive Konic Washer Part [9193800]088"},{"mesh":31,"translation":[-1.3811389,2.0262852,-0.88134855],"rotation":[-0.0,0.7071067,0.0,0.7071068],"name":"KON021A - Adhesive Konic Washer Part [9193800]089"},{"mesh":31,"translation":[-1.3811389,1.4674848,-0.88134855],"rotation":[-0.0,0.7071067,0.0,0.7071068],"name":"KON021A - Adhesive Konic Washer Part [9193800]090"},{"mesh":31,"translation":[-1.3811393,2.0262852,-0.07843975],"rotation":[-0.0,0.7071068,0.0,0.7071067],"name":"KON021A - Adhesive Konic Washer Part [9193800]099"},{"mesh":31,"translation":[-1.3811393,1.4674848,-0.07843975],"rotation":[-0.0,0.7071068,0.0,0.7071067],"name":"KON021A - Adhesive Konic Washer Part [9193800]100"},{"mesh":31,"translation":[-0.43342957,1.9257518,0.17503314],"rotation":[-0.0,0.7071068,0.0,0.7071067],"name":"KON021 - Konic Washer Part [9193945]101"},{"mesh":31,"translation":[-0.43342957,1.3669521,0.17503314],"rotation":[-0.0,0.7071068,0.0,0.7071067],"name":"KON021 - Konic Washer Part [9193945]102"},{"mesh":31,"translation":[-0.41912812,1.9257518,0.17503314],"rotation":[-0.0,-0.70710695,0.0,0.7071066],"name":"KON021A - Adhesive Konic Washer Part [9193800]101"},{"mesh":31,"translation":[-0.41912812,1.3669521,0.17503314],"rotation":[-0.0,-0.70710695,0.0,0.7071066],"name":"KON021A - Adhesive Konic Washer Part [9193800]102"},{"mesh":32,"translation":[-0.21865472,2.2915118,-0.08549013],"rotation":[-0.0,0.7071068,0.0,0.7071067],"name":"KON006 - Lower Panel Clamp Part [8739162]102"},{"mesh":32,"translation":[-0.21865472,1.7327118,-0.08549013],"rotation":[-0.0,0.7071068,0.0,0.7071067],"name":"KON006 - Lower Panel Clamp Part [8739162]103"},{"mesh":32,"translation":[0.36284298,2.657272,-0.08549013],"rotation":[-0.0,0.7071068,0.0,0.7071067],"name":"KON006 - Lower Panel Clamp Part [8739162]104"},{"mesh":32,"translation":[0.36284298,2.0984719,-0.08549013],"rotation":[-0.0,0.7071068,0.0,0.7071067],"name":"KON006 - Lower Panel Clamp Part [8739162]105"},{"mesh":32,"translation":[0.6293151,2.8401518,-0.08549013],"rotation":[-0.0,0.7071068,0.0,0.7071067],"name":"KON006 - Lower Panel Clamp Part [8739162]106"},{"mesh":32,"translation":[0.6293151,2.281352,-0.08549013],"rotation":[-0.0,0.7071068,0.0,0.7071067],"name":"KON006 - Lower Panel Clamp Part [8739162]107"},{"mesh":32,"translation":[1.4287454,3.3887916,-0.08549013],"rotation":[-0.0,0.7071068,0.0,0.7071067],"name":"KON006 - Lower Panel Clamp Part [8739162]108"},{"mesh":32,"translation":[1.4287454,2.8299918,-0.08549013],"rotation":[-0.0,0.7071068,0.0,0.7071067],"name":"KON006 - Lower Panel Clamp Part [8739162]109"},{"mesh":32,"translation":[-0.43500158,1.559992,0.70801455],"rotation":[-0.0,-1.0,0.0,-1.6292068E-07],"name":"KON006 - Lower Panel Clamp Part [8739162]112"},{"mesh":32,"translation":[-0.43500158,1.0011919,0.70801455],"rotation":[-0.0,-1.0,0.0,-1.6292068E-07],"name":"KON006 - Lower Panel Clamp Part [8739162]113"},{"mesh":32,"translation":[-0.43500158,1.3771119,0.9735472],"rotation":[-0.0,-1.0,0.0,-1.6292068E-07],"name":"KON006 - Lower Panel Clamp Part [8739162]114"},{"mesh":32,"translation":[-0.43500158,0.8183117,0.9735472],"rotation":[-0.0,-1.0,0.0,-1.6292068E-07],"name":"KON006 - Lower Panel Clamp Part [8739162]115"},{"mesh":32,"translation":[-0.43500158,1.0113517,1.5058869],"rotation":[-0.0,-1.0,0.0,-1.6292068E-07],"name":"KON006 - Lower Panel Clamp Part [8739162]116"},{"mesh":32,"translation":[-0.43500158,0.45255175,1.5058869],"rotation":[-0.0,-1.0,0.0,-1.6292068E-07],"name":"KON006 - Lower Panel Clamp Part [8739162]117"},{"mesh":32,"translation":[-1.3652658,1.9257518,0.17503314],"name":"KON006 - Lower Panel Clamp Part [8739162]118"},{"mesh":32,"translation":[-1.3652658,1.3669521,0.17503314],"name":"KON006 - Lower Panel Clamp Part [8739162]119"},{"mesh":32,"translation":[-1.3652658,1.559992,0.70801455],"name":"KON006 - Lower Panel Clamp Part [8739162]120"},{"mesh":32,"translation":[-1.3652658,1.0011919,0.70801455],"name":"KON006 - Lower Panel Clamp Part [8739162]121"},{"mesh":32,"translation":[-1.3652658,1.3771119,0.9735472],"name":"KON006 - Lower Panel Clamp Part [8739162]122"},{"mesh":32,"translation":[-1.3652658,0.8183117,0.9735472],"name":"KON006 - Lower Panel Clamp Part [8739162]123"},{"mesh":32,"translation":[-1.3652658,1.0113517,1.5058869],"name":"KON006 - Lower Panel Clamp Part [8739162]124"},{"mesh":32,"translation":[-1.3652658,0.45255175,1.5058869],"name":"KON006 - Lower Panel Clamp Part [8739162]125"},{"mesh":32,"translation":[0.36284298,2.657272,-1.0157543],"rotation":[-0.0,-0.7071068,0.0,0.7071067],"name":"KON006 - Lower Panel Clamp Part [8739162]126"},{"mesh":32,"translation":[0.36284298,2.0984719,-1.0157543],"rotation":[-0.0,-0.7071068,0.0,0.7071067],"name":"KON006 - Lower Panel Clamp Part [8739162]127"},{"mesh":32,"translation":[0.6293151,2.8401518,-1.0157543],"rotation":[-0.0,-0.7071068,0.0,0.7071067],"name":"KON006 - Lower Panel Clamp Part [8739162]128"},{"mesh":32,"translation":[0.6293151,2.281352,-1.0157543],"rotation":[-0.0,-0.7071068,0.0,0.7071067],"name":"KON006 - Lower Panel Clamp Part [8739162]129"},{"mesh":32,"translation":[1.4287454,3.3887916,-1.0157543],"rotation":[-0.0,-0.7071068,0.0,0.7071067],"name":"KON006 - Lower Panel Clamp Part [8739162]130"},{"mesh":32,"translation":[1.4287454,2.8299918,-1.0157543],"rotation":[-0.0,-0.7071068,0.0,0.7071067],"name":"KON006 - Lower Panel Clamp Part [8739162]131"},{"mesh":32,"translation":[-0.44932607,2.1086318,-1.0157543],"rotation":[-0.0,-0.7071068,0.0,0.7071067],"name":"KON006 - Lower Panel Clamp Part [8739162]132"},{"mesh":32,"translation":[-0.44932607,1.5498316,-1.0157543],"rotation":[-0.0,-0.7071068,0.0,0.7071067],"name":"KON006 - Lower Panel Clamp Part [8739162]133"},{"mesh":32,"translation":[-0.71602607,2.0262852,-1.0157543],"rotation":[-0.0,-0.7071068,0.0,0.7071067],"name":"KON006 - Lower Panel Clamp Part [8739162]134"},{"mesh":32,"translation":[-0.71602607,1.4674848,-1.0157543],"rotation":[-0.0,-0.7071068,0.0,0.7071067],"name":"KON006 - Lower Panel Clamp Part [8739162]135"},{"mesh":32,"translation":[-1.2308598,2.0262852,-1.0157543],"rotation":[-0.0,-0.7071068,0.0,0.7071067],"name":"KON006 - Lower Panel Clamp Part [8739162]136"},{"mesh":32,"translation":[-1.2308598,1.4674848,-1.0157543],"rotation":[-0.0,-0.7071068,0.0,0.7071067],"name":"KON006 - Lower Panel Clamp Part [8739162]137"},{"mesh":32,"translation":[-1.3652608,2.0262852,-0.88134855],"name":"KON006 - Lower Panel Clamp Part [8739162]138"},{"mesh":32,"translation":[-1.3652608,1.4674848,-0.88134855],"name":"KON006 - Lower Panel Clamp Part [8739162]139"},{"mesh":32,"translation":[-1.3652658,2.0262852,-0.07843975],"name":"KON006 - Lower Panel Clamp Part [8739162]148"},{"mesh":32,"translation":[-1.3652658,1.4674848,-0.07843975],"name":"KON006 - Lower Panel Clamp Part [8739162]149"},{"mesh":32,"translation":[-0.43500158,1.9257518,0.17503314],"rotation":[-0.0,-1.0,0.0,4.371139E-08],"name":"KON006 - Lower Panel Clamp Part [8739162]200"},{"mesh":32,"translation":[-0.43500158,1.3669521,0.17503314],"rotation":[-0.0,-1.0,0.0,4.371139E-08],"name":"KON006 - Lower Panel Clamp Part [8739162]201"},{"mesh":33,"translation":[-0.21865472,1.4630404,-0.020391779],"rotation":[-0.0,-0.7071068,0.0,0.7071067],"name":"KON018 - Surface Mount Weldment Part [9049080]027"},{"mesh":33,"translation":[0.36284298,1.8288,-0.020391779],"rotation":[-0.0,-0.7071068,0.0,0.7071067],"name":"KON018 - Surface Mount Weldment Part [9049080]028"},{"mesh":33,"translation":[0.6293151,2.01168,-0.020391779],"rotation":[-0.0,-0.7071068,0.0,0.7071067],"name":"KON018 - Surface Mount Weldment Part [9049080]029"},{"mesh":33,"translation":[1.4287454,2.56032,-0.020391779],"rotation":[-0.0,-0.7071068,0.0,0.7071067],"name":"KON018 - Surface Mount Weldment Part [9049080]030"},{"mesh":33,"translation":[-0.36990324,0.7315199,0.70801455],"name":"KON018 - Surface Mount Weldment Part [9049080]032"},{"mesh":33,"translation":[-0.36990324,0.5486401,0.9735472],"name":"KON018 - Surface Mount Weldment Part [9049080]033"},{"mesh":33,"translation":[-0.36990324,0.18288012,1.5058869],"name":"KON018 - Surface Mount Weldment Part [9049080]034"},{"mesh":33,"translation":[-1.4303641,1.0972801,0.17503314],"rotation":[-0.0,-1.0,0.0,-1.6292068E-07],"name":"KON018 - Surface Mount Weldment Part [9049080]035"},{"mesh":33,"translation":[-1.4303641,0.7315199,0.70801455],"rotation":[-0.0,-1.0,0.0,-1.6292068E-07],"name":"KON018 - Surface Mount Weldment Part [9049080]036"},{"mesh":33,"translation":[-1.4303641,0.5486401,0.9735472],"rotation":[-0.0,-1.0,0.0,-1.6292068E-07],"name":"KON018 - Surface Mount Weldment Part [9049080]037"},{"mesh":33,"translation":[-1.4303641,0.18288012,1.5058869],"rotation":[-0.0,-1.0,0.0,-1.6292068E-07],"name":"KON018 - Surface Mount Weldment Part [9049080]038"},{"mesh":33,"translation":[0.36284298,1.8288,-1.0808526],"rotation":[-0.0,0.7071068,0.0,0.7071067],"name":"KON018 - Surface Mount Weldment Part [9049080]039"},{"mesh":33,"translation":[0.6293151,2.01168,-1.0808526],"rotation":[-0.0,0.7071068,0.0,0.7071067],"name":"KON018 - Surface Mount Weldment Part [9049080]040"},{"mesh":33,"translation":[1.4287454,2.56032,-1.0808526],"rotation":[-0.0,0.7071068,0.0,0.7071067],"name":"KON018 - Surface Mount Weldment Part [9049080]041"},{"mesh":33,"translation":[-0.44932607,1.2801597,-1.0808526],"rotation":[-0.0,0.7071068,0.0,0.7071067],"name":"KON018 - Surface Mount Weldment Part [9049080]042"},{"mesh":33,"translation":[-0.71602607,1.2801597,-1.0808526],"rotation":[-0.0,0.7071068,0.0,0.7071067],"name":"KON018 - Surface Mount Weldment Part [9049080]043"},{"mesh":33,"translation":[-1.2308598,1.2801597,-1.0808526],"rotation":[-0.0,0.7071068,0.0,0.7071067],"name":"KON018 - Surface Mount Weldment Part [9049080]044"},{"mesh":33,"translation":[-1.4303639,1.2801597,-0.88134855],"rotation":[-0.0,-1.0,0.0,2.8212997E-07],"name":"KON018 - Surface Mount Weldment Part [9049080]045"},{"mesh":33,"translation":[-1.4303641,1.2801597,-0.07843975],"rotation":[-0.0,-1.0,0.0,-1.6292068E-07],"name":"KON018 - Surface Mount Weldment Part [9049080]050"},{"mesh":33,"translation":[-0.36990324,1.0972801,0.17503314],"rotation":[-0.0,-1.1920929E-07,0.0,1.0],"name":"KON018 - Surface Mount Weldment Part [9049080]051"},{"mesh":34,"translation":[-0.21865472,2.2915118,-0.020391779],"rotation":[-0.0,0.7071068,0.0,0.7071067],"name":"KON002 - Barrel Mount Part [9048960]052"},{"mesh":34,"translation":[0.36284298,2.657272,-0.020391779],"rotation":[-0.0,0.7071068,0.0,0.7071067],"name":"KON002 - Barrel Mount Part [9048960]053"},{"mesh":34,"translation":[0.6293151,2.8401518,-0.020391779],"rotation":[-0.0,0.7071068,0.0,0.7071067],"name":"KON002 - Barrel Mount Part [9048960]054"},{"mesh":34,"translation":[1.4287454,3.3887916,-0.020391779],"rotation":[-0.0,0.7071068,0.0,0.7071067],"name":"KON002 - Barrel Mount Part [9048960]055"},{"mesh":34,"translation":[-0.36990324,1.559992,0.70801455],"rotation":[-0.0,-1.0,0.0,-1.6292068E-07],"name":"KON002 - Barrel Mount Part [9048960]057"},{"mesh":34,"translation":[-0.36990324,1.3771119,0.9735472],"rotation":[-0.0,-1.0,0.0,-1.6292068E-07],"name":"KON002 - Barrel Mount Part [9048960]058"},{"mesh":34,"translation":[-0.36990324,1.0113517,1.5058869],"rotation":[-0.0,-1.0,0.0,-1.6292068E-07],"name":"KON002 - Barrel Mount Part [9048960]059"},{"mesh":34,"translation":[-1.4303641,1.9257518,0.17503314],"name":"KON002 - Barrel Mount Part [9048960]060"},{"mesh":34,"translation":[-1.4303641,1.559992,0.70801455],"name":"KON002 - Barrel Mount Part [9048960]061"},{"mesh":34,"translation":[-1.4303641,1.3771119,0.9735472],"name":"KON002 - Barrel Mount Part [9048960]062"},{"mesh":34,"translation":[-1.4303641,1.0113517,1.5058869],"name":"KON002 - Barrel Mount Part [9048960]063"},{"mesh":34,"translation":[0.36284298,2.657272,-1.0808526],"rotation":[-0.0,-0.7071068,0.0,0.7071067],"name":"KON002 - Barrel Mount Part [9048960]064"},{"mesh":34,"translation":[0.6293151,2.8401518,-1.0808526],"rotation":[-0.0,-0.7071068,0.0,0.7071067],"name":"KON002 - Barrel Mount Part [9048960]065"},{"mesh":34,"translation":[1.4287454,3.3887916,-1.0808526],"rotation":[-0.0,-0.7071068,0.0,0.7071067],"name":"KON002 - Barrel Mount Part [9048960]066"},{"mesh":34,"translation":[-0.44932607,2.1086318,-1.0808526],"rotation":[-0.0,-0.7071068,0.0,0.7071067],"name":"KON002 - Barrel Mount Part [9048960]067"},{"mesh":34,"translation":[-0.71602607,2.0262852,-1.0808526],"rotation":[-0.0,-0.7071068,0.0,0.7071067],"name":"KON002 - Barrel Mount Part [9048960]068"},{"mesh":34,"translation":[-1.2308598,2.0262852,-1.0808526],"rotation":[-0.0,-0.7071068,0.0,0.7071067],"name":"KON002 - Barrel Mount Part [9048960]069"},{"mesh":34,"translation":[-1.4303639,2.0262852,-0.88134855],"name":"KON002 - Barrel Mount Part [9048960]070"},{"mesh":34,"translation":[-1.4303641,2.0262852,-0.07843975],"name":"KON002 - Barrel Mount Part [9048960]075"},{"mesh":34,"translation":[-0.21865472,1.7327118,-0.020391779],"rotation":[-0.0,0.7071068,0.0,0.7071067],"name":"KON002 - Barrel Mount Part [9048960]077"},{"mesh":34,"translation":[0.36284298,2.0984719,-0.020391779],"rotation":[-0.0,0.7071068,0.0,0.7071067],"name":"KON002 - Barrel Mount Part [9048960]078"},{"mesh":34,"translation":[0.6293151,2.281352,-0.020391779],"rotation":[-0.0,0.7071068,0.0,0.7071067],"name":"KON002 - Barrel Mount Part [9048960]079"},{"mesh":34,"translation":[1.4287454,2.8299918,-0.020391779],"rotation":[-0.0,0.7071068,0.0,0.7071067],"name":"KON002 - Barrel Mount Part [9048960]080"},{"mesh":34,"translation":[-0.36990324,1.0011919,0.70801455],"rotation":[-0.0,-1.0,0.0,-1.6292068E-07],"name":"KON002 - Barrel Mount Part [9048960]082"},{"mesh":34,"translation":[-0.36990324,0.8183117,0.9735472],"rotation":[-0.0,-1.0,0.0,-1.6292068E-07],"name":"KON002 - Barrel Mount Part [9048960]083"},{"mesh":34,"translation":[-0.36990324,0.45255175,1.5058869],"rotation":[-0.0,-1.0,0.0,-1.6292068E-07],"name":"KON002 - Barrel Mount Part [9048960]084"},{"mesh":34,"translation":[-1.4303641,1.3669521,0.17503314],"name":"KON002 - Barrel Mount Part [9048960]085"},{"mesh":34,"translation":[-1.4303641,1.0011919,0.70801455],"name":"KON002 - Barrel Mount Part [9048960]086"},{"mesh":34,"translation":[-1.4303641,0.8183117,0.9735472],"name":"KON002 - Barrel Mount Part [9048960]087"},{"mesh":34,"translation":[-1.4303641,0.45255175,1.5058869],"name":"KON002 - Barrel Mount Part [9048960]088"},{"mesh":34,"translation":[0.36284298,2.0984719,-1.0808526],"rotation":[-0.0,-0.7071068,0.0,0.7071067],"name":"KON002 - Barrel Mount Part [9048960]089"},{"mesh":34,"translation":[0.6293151,2.281352,-1.0808526],"rotation":[-0.0,-0.7071068,0.0,0.7071067],"name":"KON002 - Barrel Mount Part [9048960]090"},{"mesh":34,"translation":[1.4287454,2.8299918,-1.0808526],"rotation":[-0.0,-0.7071068,0.0,0.7071067],"name":"KON002 - Barrel Mount Part [9048960]091"},{"mesh":34,"translation":[-0.44932607,1.5498316,-1.0808526],"rotation":[-0.0,-0.7071068,0.0,0.7071067],"name":"KON002 - Barrel Mount Part [9048960]092"},{"mesh":34,"translation":[-0.71602607,1.4674848,-1.0808526],"rotation":[-0.0,-0.7071068,0.0,0.7071067],"name":"KON002 - Barrel Mount Part [9048960]093"},{"mesh":34,"translation":[-1.2308598,1.4674848,-1.0808526],"rotation":[-0.0,-0.7071068,0.0,0.7071067],"name":"KON002 - Barrel Mount Part [9048960]094"},{"mesh":34,"translation":[-1.4303639,1.4674848,-0.88134855],"name":"KON002 - Barrel Mount Part [9048960]095"},{"mesh":34,"translation":[-1.4303641,1.4674848,-0.07843975],"name":"KON002 - Barrel Mount Part [9048960]100"},{"mesh":34,"translation":[-0.36990324,1.9257518,0.17503314],"rotation":[-0.0,-1.0,0.0,4.371139E-08],"name":"KON002 - Barrel Mount Part [9048960]101"},{"mesh":34,"translation":[-0.36990324,1.3669521,0.17503314],"rotation":[-0.0,-1.0,0.0,4.371139E-08],"name":"KON002 - Barrel Mount Part [9048960]102"},{"mesh":35,"translation":[28.89472,0.0,27.28077],"name":"Object"},{"mesh":36,"translation":[0.6784653,3.0497246,-0.07691128],"name":"Generic Models 11 Generic Models 11 [8762451]005"}],"meshes":[{"primitives":[{"attributes":{"POSITION":1,"TANGENT":2,"NORMAL":3,"TEXCOORD_0":4},"indices":0,"material":0}],"name":"Infill_Glass_Raked & Horizontal Generic [8199751]"},{"primitives":[{"attributes":{"POSITION":6,"TANGENT":7,"NORMAL":8,"TEXCOORD_0":9},"indices":5,"material":0}],"name":"Infill_Glass_Raked & Horizontal Generic [8200579]"},{"primitives":[{"attributes":{"POSITION":11,"TANGENT":12,"NORMAL":13,"TEXCOORD_0":14},"indices":10,"material":0}],"name":"Infill_Glass_Transition Generic [8202170]"},{"primitives":[{"attributes":{"POSITION":16,"TANGENT":17,"NORMAL":18,"TEXCOORD_0":19},"indices":15,"material":0}],"name":"Infill_Glass_Raked & Horizontal Generic [8202939]"},{"primitives":[{"attributes":{"POSITION":21,"TANGENT":22,"NORMAL":23,"TEXCOORD_0":24},"indices":20,"material":1},{"attributes":{"POSITION":26,"TANGENT":27,"NORMAL":28,"TEXCOORD_0":29},"indices":25,"material":2}],"name":"Generic Models 1 Generic Models 1 [8568048]"},{"primitives":[{"attributes":{"POSITION":31,"TANGENT":32,"NORMAL":33,"TEXCOORD_0":34},"indices":30,"material":0}],"name":"Infill_Glass_Raked & Horizontal Generic [8735940]"},{"primitives":[{"attributes":{"POSITION":36,"TANGENT":37,"NORMAL":38,"TEXCOORD_0":39},"indices":35,"material":1},{"attributes":{"POSITION":41,"TANGENT":42,"NORMAL":43,"TEXCOORD_0":44},"indices":40,"material":2}],"name":"Generic Models 10 Generic Models 1 [8735975]"},{"primitives":[{"attributes":{"POSITION":46,"TANGENT":47,"NORMAL":48,"TEXCOORD_0":49},"indices":45,"material":0}],"name":"Infill_Glass_Raked & Horizontal Generic [8736296]"},{"primitives":[{"attributes":{"POSITION":51,"TANGENT":52,"NORMAL":53,"TEXCOORD_0":54},"indices":50,"material":0}],"name":"Infill_Glass_Raked & Horizontal Generic [8737682]"},{"primitives":[{"attributes":{"POSITION":56,"TANGENT":57,"NORMAL":58,"TEXCOORD_0":59},"indices":55,"material":0}],"name":"Casework 1 Casework 1 [8738332]"},{"primitives":[{"attributes":{"POSITION":61,"TANGENT":62,"NORMAL":63,"TEXCOORD_0":64},"indices":60,"material":0}],"name":"Infill_Glass_Raked & Horizontal Generic [8738822]"},{"primitives":[{"attributes":{"POSITION":66,"TANGENT":67,"NORMAL":68,"TEXCOORD_0":69},"indices":65,"material":0}],"name":"Infill_Glass_Raked & Horizontal Generic [8739593]"},{"primitives":[{"attributes":{"POSITION":71,"TANGENT":72,"NORMAL":73,"TEXCOORD_0":74},"indices":70,"material":1}],"name":"LS201 & LS202 - Konic Post Material LS Material [9048531]001"},{"primitives":[{"attributes":{"POSITION":76,"TANGENT":77,"NORMAL":78,"TEXCOORD_0":79},"indices":75,"material":1}],"name":"LS201 & LS202 - Konic Post Material LS Material [9048551]001"},{"primitives":[{"attributes":{"POSITION":81,"TANGENT":82,"NORMAL":83,"TEXCOORD_0":84},"indices":80,"material":1}],"name":"LS201 & LS202 - Konic Post Material LS Material [9048569]001"},{"primitives":[{"attributes":{"POSITION":86,"TANGENT":87,"NORMAL":88,"TEXCOORD_0":89},"indices":85,"material":1}],"name":"LS201 & LS202 - Konic Post Material LS Material [9048587]001"},{"primitives":[{"attributes":{"POSITION":91,"TANGENT":92,"NORMAL":93,"TEXCOORD_0":94},"indices":90,"material":1}],"name":"LS201 & LS202 - Konic Post Material LS Material [9048616]001"},{"primitives":[{"attributes":{"POSITION":96,"TANGENT":97,"NORMAL":98,"TEXCOORD_0":99},"indices":95,"material":1}],"name":"LS201 & LS202 - Konic Post Material LS Material [9048634]001"},{"primitives":[{"attributes":{"POSITION":101,"TANGENT":102,"NORMAL":103,"TEXCOORD_0":104},"indices":100,"material":1}],"name":"LS201 & LS202 - Konic Post Material LS Material [9048652]001"},{"primitives":[{"attributes":{"POSITION":106,"TANGENT":107,"NORMAL":108,"TEXCOORD_0":109},"indices":105,"material":1}],"name":"LS201 & LS202 - Konic Post Material LS Material [9048819]001"},{"primitives":[{"attributes":{"POSITION":111,"TANGENT":112,"NORMAL":113,"TEXCOORD_0":114},"indices":110,"material":1}],"name":"LS201 & LS202 - Konic Post Material LS Material [9048824]001"},{"primitives":[{"attributes":{"POSITION":116,"TANGENT":117,"NORMAL":118,"TEXCOORD_0":119},"indices":115,"material":1}],"name":"LS201 & LS202 - Konic Post Material LS Material [9048829]001"},{"primitives":[{"attributes":{"POSITION":121,"TANGENT":122,"NORMAL":123,"TEXCOORD_0":124},"indices":120,"material":1}],"name":"LS201 & LS202 - Konic Post Material LS Material [9048834]001"},{"primitives":[{"attributes":{"POSITION":126,"TANGENT":127,"NORMAL":128,"TEXCOORD_0":129},"indices":125,"material":1}],"name":"LS201 & LS202 - Konic Post Material LS Material [9048880]001"},{"primitives":[{"attributes":{"POSITION":131,"TANGENT":132,"NORMAL":133,"TEXCOORD_0":134},"indices":130,"material":1}],"name":"LS201 & LS202 - Konic Post Material LS Material [9048885]001"},{"primitives":[{"attributes":{"POSITION":136,"TANGENT":137,"NORMAL":138,"TEXCOORD_0":139},"indices":135,"material":1}],"name":"LS201 & LS202 - Konic Post Material LS Material [9048890]001"},{"primitives":[{"attributes":{"POSITION":141,"TANGENT":142,"NORMAL":143,"TEXCOORD_0":144},"indices":140,"material":1}],"name":"LS201 & LS202 - Konic Post Material LS Material [9048914]001"},{"primitives":[{"attributes":{"POSITION":146,"TANGENT":147,"NORMAL":148,"TEXCOORD_0":149},"indices":145,"material":1}],"name":"LS201 & LS202 - Konic Post Material LS Material [9048949]001"},{"primitives":[{"attributes":{"POSITION":151,"TANGENT":152,"NORMAL":153,"TEXCOORD_0":154},"indices":150,"material":1}],"name":"LS201 & LS202 - Konic Post Material LS Material [9048969]001"},{"primitives":[{"attributes":{"POSITION":156,"TANGENT":157,"NORMAL":158,"TEXCOORD_0":159},"indices":155,"material":1}],"name":"LS201 & LS202 - Konic Post Material LS Material [9048987]001"},{"primitives":[{"attributes":{"POSITION":161,"TANGENT":162,"NORMAL":163,"TEXCOORD_0":164},"indices":160,"material":1}],"name":"LS201 & LS202 - Konic Post Material LS Material [9049081]001"},{"primitives":[{"attributes":{"POSITION":166,"TANGENT":167,"NORMAL":168,"TEXCOORD_0":169},"indices":165,"material":3}],"name":"KON021 - Konic Washer Part [9193945]053"},{"primitives":[{"attributes":{"POSITION":171,"TANGENT":172,"NORMAL":173,"TEXCOORD_0":174},"indices":170,"material":1},{"attributes":{"POSITION":176,"TANGENT":177,"NORMAL":178,"TEXCOORD_0":179},"indices":175,"material":2}],"name":"KON006 - Lower Panel Clamp Part [8739162]102"},{"primitives":[{"attributes":{"POSITION":181,"TANGENT":182,"NORMAL":183,"TEXCOORD_0":184},"indices":180,"material":1},{"attributes":{"POSITION":186,"TANGENT":187,"NORMAL":188,"TEXCOORD_0":189},"indices":185,"material":2}],"name":"KON018 - Surface Mount Weldment Part [9049080]027"},{"primitives":[{"attributes":{"POSITION":191,"TANGENT":192,"NORMAL":193,"TEXCOORD_0":194},"indices":190,"material":1},{"attributes":{"POSITION":196,"TANGENT":197,"NORMAL":198,"TEXCOORD_0":199},"indices":195,"material":2}],"name":"KON002 - Barrel Mount Part [9048960]052"},{"primitives":[{"attributes":{"POSITION":201,"TANGENT":202,"NORMAL":203,"TEXCOORD_0":204},"indices":200,"material":1},{"attributes":{"POSITION":206,"TANGENT":207,"NORMAL":208,"TEXCOORD_0":209},"indices":205,"material":2}],"name":"Object"},{"primitives":[{"attributes":{"POSITION":211,"TANGENT":212,"NORMAL":213,"TEXCOORD_0":214},"indices":210,"material":1},{"attributes":{"POSITION":216,"TANGENT":217,"NORMAL":218,"TEXCOORD_0":219},"indices":215,"material":2}],"name":"Generic Models 11 Generic Models 11 [8762451]005"}],"accessors":[{"bufferView":0,"componentType":5123,"count":132,"type":"SCALAR","name":"accessorIndices"},{"bufferView":1,"componentType":5126,"count":82,"max":[0.67253757,0.76435065,0.0071501],"min":[-0.1888937,-0.7240815,-0.0071501],"type":"VEC3","name":"accessorPositions"},{"bufferView":2,"componentType":5126,"count":82,"type":"VEC4","name":"accessorTangents"},{"bufferView":1,"byteOffset":984,"componentType":5126,"count":82,"type":"VEC3","name":"accessorNormals"},{"bufferView":3,"componentType":5126,"count":82,"type":"VEC2","name":"accessorUVs"},{"bufferView":0,"byteOffset":264,"componentType":5123,"count":132,"type":"SCALAR","name":"accessorIndices"},{"bufferView":1,"byteOffset":1968,"componentType":5126,"count":82,"max":[0.16510001,0.41611978,0.0071501],"min":[-0.9136126,-1.2214502,-0.0071501],"type":"VEC3","name":"accessorPositions"},{"bufferView":2,"byteOffset":1312,"componentType":5126,"count":82,"type":"VEC4","name":"accessorTangents"},{"bufferView":1,"byteOffset":2952,"componentType":5126,"count":82,"type":"VEC3","name":"accessorNormals"},{"bufferView":3,"byteOffset":656,"componentType":5126,"count":82,"type":"VEC2","name":"accessorUVs"},{"bufferView":0,"byteOffset":528,"componentType":5123,"count":168,"type":"SCALAR","name":"accessorIndices"},{"bufferView":1,"byteOffset":3936,"componentType":5126,"count":109,"max":[0.77951753,0.0071501,1.4337071],"min":[-0.068804964,-0.0071501024,-0.0],"type":"VEC3","name":"accessorPositions"},{"bufferView":2,"byteOffset":2624,"componentType":5126,"count":109,"type":"VEC4","name":"accessorTangents"},{"bufferView":1,"byteOffset":5244,"componentType":5126,"count":109,"type":"VEC3","name":"accessorNormals"},{"bufferView":3,"byteOffset":1312,"componentType":5126,"count":109,"type":"VEC2","name":"accessorUVs"},{"bufferView":0,"byteOffset":864,"componentType":5123,"count":132,"type":"SCALAR","name":"accessorIndices"},{"bufferView":1,"byteOffset":6552,"componentType":5126,"count":82,"max":[0.3937,0.71999997,0.0071501],"min":[-0.4111075,-0.730215,-0.0071501],"type":"VEC3","name":"accessorPositions"},{"bufferView":2,"byteOffset":4368,"componentType":5126,"count":82,"type":"VEC4","name":"accessorTangents"},{"bufferView":1,"byteOffset":7536,"componentType":5126,"count":82,"type":"VEC3","name":"accessorNormals"},{"bufferView":3,"byteOffset":2184,"componentType":5126,"count":82,"type":"VEC2","name":"accessorUVs"},{"bufferView":0,"byteOffset":1128,"componentType":5123,"count":49806,"type":"SCALAR","name":"accessorIndices"},{"bufferView":1,"byteOffset":8520,"componentType":5126,"count":10012,"max":[-27.580276,2.2050376,-27.06699],"min":[-29.259083,1.0594896,-27.105263],"type":"VEC3","name":"accessorPositions"},{"bufferView":2,"byteOffset":5680,"componentType":5126,"count":10012,"type":"VEC4","name":"accessorTangents"},{"bufferView":1,"byteOffset":128664,"componentType":5126,"count":10012,"type":"VEC3","name":"accessorNormals"},{"bufferView":3,"byteOffset":2840,"componentType":5126,"count":10012,"type":"VEC2","name":"accessorUVs"},{"bufferView":0,"byteOffset":100740,"componentType":5123,"count":456,"type":"SCALAR","name":"accessorIndices"},{"bufferView":1,"byteOffset":248808,"componentType":5126,"count":156,"max":[-27.580276,2.2050376,-27.067],"min":[-29.259083,1.0594896,-27.105263],"type":"VEC3","name":"accessorPositions"},{"bufferView":2,"byteOffset":165872,"componentType":5126,"count":156,"type":"VEC4","name":"accessorTangents"},{"bufferView":1,"byteOffset":250680,"componentType":5126,"count":156,"type":"VEC3","name":"accessorNormals"},{"bufferView":3,"byteOffset":82936,"componentType":5126,"count":156,"type":"VEC2","name":"accessorUVs"},{"bufferView":0,"byteOffset":101652,"componentType":5123,"count":132,"type":"SCALAR","name":"accessorIndices"},{"bufferView":1,"byteOffset":252552,"componentType":5126,"count":82,"max":[0.3937,0.71999997,0.0071501],"min":[-0.4111075,-0.730215,-0.0071501],"type":"VEC3","name":"accessorPositions"},{"bufferView":2,"byteOffset":168368,"componentType":5126,"count":82,"type":"VEC4","name":"accessorTangents"},{"bufferView":1,"byteOffset":253536,"componentType":5126,"count":82,"type":"VEC3","name":"accessorNormals"},{"bufferView":3,"byteOffset":84184,"componentType":5126,"count":82,"type":"VEC2","name":"accessorUVs"},{"bufferView":0,"byteOffset":101916,"componentType":5123,"count":81387,"type":"SCALAR","name":"accessorIndices"},{"bufferView":1,"byteOffset":254520,"componentType":5126,"count":17413,"max":[-27.580276,2.2050376,-26.119287],"min":[-29.224365,1.0594137,-26.157398],"type":"VEC3","name":"accessorPositions"},{"bufferView":2,"byteOffset":169680,"componentType":5126,"count":17413,"type":"VEC4","name":"accessorTangents"},{"bufferView":1,"byteOffset":463476,"componentType":5126,"count":17413,"type":"VEC3","name":"accessorNormals"},{"bufferView":3,"byteOffset":84840,"componentType":5126,"count":17413,"type":"VEC2","name":"accessorUVs"},{"bufferView":0,"byteOffset":264692,"componentType":5123,"count":10326,"type":"SCALAR","name":"accessorIndices"},{"bufferView":1,"byteOffset":672432,"componentType":5126,"count":17742,"max":[-27.580276,2.2050288,-26.119287],"min":[-29.224365,1.0594137,-26.157398],"type":"VEC3","name":"accessorPositions"},{"bufferView":2,"byteOffset":448288,"componentType":5126,"count":17742,"type":"VEC4","name":"accessorTangents"},{"bufferView":1,"byteOffset":885336,"componentType":5126,"count":17742,"type":"VEC3","name":"accessorNormals"},{"bufferView":3,"byteOffset":224144,"componentType":5126,"count":17742,"type":"VEC2","name":"accessorUVs"},{"bufferView":0,"byteOffset":285344,"componentType":5123,"count":132,"type":"SCALAR","name":"accessorIndices"},{"bufferView":1,"byteOffset":1098240,"componentType":5126,"count":82,"max":[0.16510001,0.41611978,0.0071501],"min":[-0.9136126,-1.2214502,-0.0071501],"type":"VEC3","name":"accessorPositions"},{"bufferView":2,"byteOffset":732160,"componentType":5126,"count":82,"type":"VEC4","name":"accessorTangents"},{"bufferView":1,"byteOffset":1099224,"componentType":5126,"count":82,"type":"VEC3","name":"accessorNormals"},{"bufferView":3,"byteOffset":366080,"componentType":5126,"count":82,"type":"VEC2","name":"accessorUVs"},{"bufferView":0,"byteOffset":285608,"componentType":5123,"count":132,"type":"SCALAR","name":"accessorIndices"},{"bufferView":1,"byteOffset":1100208,"componentType":5126,"count":96,"max":[0.40886727,0.3245767,0.0071501],"min":[-0.35996616,-0.52949834,-0.0071501],"type":"VEC3","name":"accessorPositions"},{"bufferView":2,"byteOffset":733472,"componentType":5126,"count":96,"type":"VEC4","name":"accessorTangents"},{"bufferView":1,"byteOffset":1101360,"componentType":5126,"count":96,"type":"VEC3","name":"accessorNormals"},{"bufferView":3,"byteOffset":366736,"componentType":5126,"count":96,"type":"VEC2","name":"accessorUVs"},{"bufferView":0,"byteOffset":285872,"componentType":5123,"count":168,"type":"SCALAR","name":"accessorIndices"},{"bufferView":1,"byteOffset":1102512,"componentType":5126,"count":99,"max":[-28.40499,2.929653,-28.298086],"min":[-29.471046,1.3404851,-28.312412],"type":"VEC3","name":"accessorPositions"},{"bufferView":2,"byteOffset":735008,"componentType":5126,"count":99,"type":"VEC4","name":"accessorTangents"},{"bufferView":1,"byteOffset":1103700,"componentType":5126,"count":99,"type":"VEC3","name":"accessorNormals"},{"bufferView":3,"byteOffset":367504,"componentType":5126,"count":99,"type":"VEC2","name":"accessorUVs"},{"bufferView":0,"byteOffset":286208,"componentType":5123,"count":132,"type":"SCALAR","name":"accessorIndices"},{"bufferView":1,"byteOffset":1104888,"componentType":5126,"count":96,"max":[0.70101464,0.3245767,0.0071501],"min":[-0.35996616,-0.52949834,-0.0071501],"type":"VEC3","name":"accessorPositions"},{"bufferView":2,"byteOffset":736592,"componentType":5126,"count":96,"type":"VEC4","name":"accessorTangents"},{"bufferView":1,"byteOffset":1106040,"componentType":5126,"count":96,"type":"VEC3","name":"accessorNormals"},{"bufferView":3,"byteOffset":368296,"componentType":5126,"count":96,"type":"VEC2","name":"accessorUVs"},{"bufferView":0,"byteOffset":286472,"componentType":5123,"count":132,"type":"SCALAR","name":"accessorIndices"},{"bufferView":1,"byteOffset":1107192,"componentType":5126,"count":82,"max":[0.37704316,0.70856416,0.0071501],"min":[-0.39211252,-0.71716493,-0.0071501],"type":"VEC3","name":"accessorPositions"},{"bufferView":2,"byteOffset":738128,"componentType":5126,"count":82,"type":"VEC4","name":"accessorTangents"},{"bufferView":1,"byteOffset":1108176,"componentType":5126,"count":82,"type":"VEC3","name":"accessorNormals"},{"bufferView":3,"byteOffset":369064,"componentType":5126,"count":82,"type":"VEC2","name":"accessorUVs"},{"bufferView":0,"byteOffset":286736,"componentType":5123,"count":1428,"type":"SCALAR","name":"accessorIndices"},{"bufferView":1,"byteOffset":1109160,"componentType":5126,"count":488,"max":[0.8390128,0.028575,0.0079375],"min":[6.358873E-15,-0.028575,-0.007937596],"type":"VEC3","name":"accessorPositions"},{"bufferView":2,"byteOffset":739440,"componentType":5126,"count":488,"type":"VEC4","name":"accessorTangents"},{"bufferView":1,"byteOffset":1115016,"componentType":5126,"count":488,"type":"VEC3","name":"accessorNormals"},{"bufferView":3,"byteOffset":369720,"componentType":5126,"count":488,"type":"VEC2","name":"accessorUVs"},{"bufferView":0,"byteOffset":289592,"componentType":5123,"count":1428,"type":"SCALAR","name":"accessorIndices"},{"bufferView":1,"byteOffset":1120872,"componentType":5126,"count":488,"max":[0.8390128,0.028575,0.0079375],"min":[6.358873E-15,-0.028575,-0.007937597],"type":"VEC3","name":"accessorPositions"},{"bufferView":2,"byteOffset":747248,"componentType":5126,"count":488,"type":"VEC4","name":"accessorTangents"},{"bufferView":1,"byteOffset":1126728,"componentType":5126,"count":488,"type":"VEC3","name":"accessorNormals"},{"bufferView":3,"byteOffset":373624,"componentType":5126,"count":488,"type":"VEC2","name":"accessorUVs"},{"bufferView":0,"byteOffset":292448,"componentType":5123,"count":1428,"type":"SCALAR","name":"accessorIndices"},{"bufferView":1,"byteOffset":1132584,"componentType":5126,"count":488,"max":[0.83901274,0.028575,0.0079375],"min":[6.358873E-15,-0.028575,-0.0079375245],"type":"VEC3","name":"accessorPositions"},{"bufferView":2,"byteOffset":755056,"componentType":5126,"count":488,"type":"VEC4","name":"accessorTangents"},{"bufferView":1,"byteOffset":1138440,"componentType":5126,"count":488,"type":"VEC3","name":"accessorNormals"},{"bufferView":3,"byteOffset":377528,"componentType":5126,"count":488,"type":"VEC2","name":"accessorUVs"},{"bufferView":0,"byteOffset":295304,"componentType":5123,"count":1428,"type":"SCALAR","name":"accessorIndices"},{"bufferView":1,"byteOffset":1144296,"componentType":5126,"count":488,"max":[0.8390127,0.028575,0.0079375],"min":[6.358873E-15,-0.028575,-0.007937597],"type":"VEC3","name":"accessorPositions"},{"bufferView":2,"byteOffset":762864,"componentType":5126,"count":488,"type":"VEC4","name":"accessorTangents"},{"bufferView":1,"byteOffset":1150152,"componentType":5126,"count":488,"type":"VEC3","name":"accessorNormals"},{"bufferView":3,"byteOffset":381432,"componentType":5126,"count":488,"type":"VEC2","name":"accessorUVs"},{"bufferView":0,"byteOffset":298160,"componentType":5123,"count":1428,"type":"SCALAR","name":"accessorIndices"},{"bufferView":1,"byteOffset":1156008,"componentType":5126,"count":488,"max":[0.8390128,0.028575,0.0079375],"min":[6.358873E-15,-0.028575,-0.007937561],"type":"VEC3","name":"accessorPositions"},{"bufferView":2,"byteOffset":770672,"componentType":5126,"count":488,"type":"VEC4","name":"accessorTangents"},{"bufferView":1,"byteOffset":1161864,"componentType":5126,"count":488,"type":"VEC3","name":"accessorNormals"},{"bufferView":3,"byteOffset":385336,"componentType":5126,"count":488,"type":"VEC2","name":"accessorUVs"},{"bufferView":0,"byteOffset":301016,"componentType":5123,"count":1428,"type":"SCALAR","name":"accessorIndices"},{"bufferView":1,"byteOffset":1167720,"componentType":5126,"count":488,"max":[0.8390128,0.028575,0.0079375245],"min":[6.358873E-15,-0.028575,-0.0079375],"type":"VEC3","name":"accessorPositions"},{"bufferView":2,"byteOffset":778480,"componentType":5126,"count":488,"type":"VEC4","name":"accessorTangents"},{"bufferView":1,"byteOffset":1173576,"componentType":5126,"count":488,"type":"VEC3","name":"accessorNormals"},{"bufferView":3,"byteOffset":389240,"componentType":5126,"count":488,"type":"VEC2","name":"accessorUVs"},{"bufferView":0,"byteOffset":303872,"componentType":5123,"count":1428,"type":"SCALAR","name":"accessorIndices"},{"bufferView":1,"byteOffset":1179432,"componentType":5126,"count":488,"max":[0.83901274,0.028575,0.0079375],"min":[6.358873E-15,-0.028575,-0.007937597],"type":"VEC3","name":"accessorPositions"},{"bufferView":2,"byteOffset":786288,"componentType":5126,"count":488,"type":"VEC4","name":"accessorTangents"},{"bufferView":1,"byteOffset":1185288,"componentType":5126,"count":488,"type":"VEC3","name":"accessorNormals"},{"bufferView":3,"byteOffset":393144,"componentType":5126,"count":488,"type":"VEC2","name":"accessorUVs"},{"bufferView":0,"byteOffset":306728,"componentType":5123,"count":1428,"type":"SCALAR","name":"accessorIndices"},{"bufferView":1,"byteOffset":1191144,"componentType":5126,"count":488,"max":[0.8390128,0.028575,0.0079375],"min":[6.358873E-15,-0.028575,-0.007937596],"type":"VEC3","name":"accessorPositions"},{"bufferView":2,"byteOffset":794096,"componentType":5126,"count":488,"type":"VEC4","name":"accessorTangents"},{"bufferView":1,"byteOffset":1197000,"componentType":5126,"count":488,"type":"VEC3","name":"accessorNormals"},{"bufferView":3,"byteOffset":397048,"componentType":5126,"count":488,"type":"VEC2","name":"accessorUVs"},{"bufferView":0,"byteOffset":309584,"componentType":5123,"count":1428,"type":"SCALAR","name":"accessorIndices"},{"bufferView":1,"byteOffset":1202856,"componentType":5126,"count":488,"max":[0.8390128,0.028575,0.0079375],"min":[6.358873E-15,-0.028575,-0.007937597],"type":"VEC3","name":"accessorPositions"},{"bufferView":2,"byteOffset":801904,"componentType":5126,"count":488,"type":"VEC4","name":"accessorTangents"},{"bufferView":1,"byteOffset":1208712,"componentType":5126,"count":488,"type":"VEC3","name":"accessorNormals"},{"bufferView":3,"byteOffset":400952,"componentType":5126,"count":488,"type":"VEC2","name":"accessorUVs"},{"bufferView":0,"byteOffset":312440,"componentType":5123,"count":1428,"type":"SCALAR","name":"accessorIndices"},{"bufferView":1,"byteOffset":1214568,"componentType":5126,"count":488,"max":[0.8390129,0.028575,0.0079375],"min":[6.358873E-15,-0.028575,-0.007937597],"type":"VEC3","name":"accessorPositions"},{"bufferView":2,"byteOffset":809712,"componentType":5126,"count":488,"type":"VEC4","name":"accessorTangents"},{"bufferView":1,"byteOffset":1220424,"componentType":5126,"count":488,"type":"VEC3","name":"accessorNormals"},{"bufferView":3,"byteOffset":404856,"componentType":5126,"count":488,"type":"VEC2","name":"accessorUVs"},{"bufferView":0,"byteOffset":315296,"componentType":5123,"count":1428,"type":"SCALAR","name":"accessorIndices"},{"bufferView":1,"byteOffset":1226280,"componentType":5126,"count":488,"max":[0.8390128,0.028575,0.0079375],"min":[6.358873E-15,-0.028575,-0.007937597],"type":"VEC3","name":"accessorPositions"},{"bufferView":2,"byteOffset":817520,"componentType":5126,"count":488,"type":"VEC4","name":"accessorTangents"},{"bufferView":1,"byteOffset":1232136,"componentType":5126,"count":488,"type":"VEC3","name":"accessorNormals"},{"bufferView":3,"byteOffset":408760,"componentType":5126,"count":488,"type":"VEC2","name":"accessorUVs"},{"bufferView":0,"byteOffset":318152,"componentType":5123,"count":1428,"type":"SCALAR","name":"accessorIndices"},{"bufferView":1,"byteOffset":1237992,"componentType":5126,"count":488,"max":[0.8390128,0.028575,0.0079375],"min":[6.358873E-15,-0.028575074,-0.007937561],"type":"VEC3","name":"accessorPositions"},{"bufferView":2,"byteOffset":825328,"componentType":5126,"count":488,"type":"VEC4","name":"accessorTangents"},{"bufferView":1,"byteOffset":1243848,"componentType":5126,"count":488,"type":"VEC3","name":"accessorNormals"},{"bufferView":3,"byteOffset":412664,"componentType":5126,"count":488,"type":"VEC2","name":"accessorUVs"},{"bufferView":0,"byteOffset":321008,"componentType":5123,"count":1428,"type":"SCALAR","name":"accessorIndices"},{"bufferView":1,"byteOffset":1249704,"componentType":5126,"count":488,"max":[0.8390128,0.028575,0.0079375],"min":[6.358873E-15,-0.028575,-0.0079375245],"type":"VEC3","name":"accessorPositions"},{"bufferView":2,"byteOffset":833136,"componentType":5126,"count":488,"type":"VEC4","name":"accessorTangents"},{"bufferView":1,"byteOffset":1255560,"componentType":5126,"count":488,"type":"VEC3","name":"accessorNormals"},{"bufferView":3,"byteOffset":416568,"componentType":5126,"count":488,"type":"VEC2","name":"accessorUVs"},{"bufferView":0,"byteOffset":323864,"componentType":5123,"count":1428,"type":"SCALAR","name":"accessorIndices"},{"bufferView":1,"byteOffset":1261416,"componentType":5126,"count":488,"max":[0.83901274,0.028575,0.0079375],"min":[6.358873E-15,-0.028575,-0.007937597],"type":"VEC3","name":"accessorPositions"},{"bufferView":2,"byteOffset":840944,"componentType":5126,"count":488,"type":"VEC4","name":"accessorTangents"},{"bufferView":1,"byteOffset":1267272,"componentType":5126,"count":488,"type":"VEC3","name":"accessorNormals"},{"bufferView":3,"byteOffset":420472,"componentType":5126,"count":488,"type":"VEC2","name":"accessorUVs"},{"bufferView":0,"byteOffset":326720,"componentType":5123,"count":1428,"type":"SCALAR","name":"accessorIndices"},{"bufferView":1,"byteOffset":1273128,"componentType":5126,"count":488,"max":[0.8390128,0.028575074,0.0079375],"min":[6.358873E-15,-0.028575,-0.007937542],"type":"VEC3","name":"accessorPositions"},{"bufferView":2,"byteOffset":848752,"componentType":5126,"count":488,"type":"VEC4","name":"accessorTangents"},{"bufferView":1,"byteOffset":1278984,"componentType":5126,"count":488,"type":"VEC3","name":"accessorNormals"},{"bufferView":3,"byteOffset":424376,"componentType":5126,"count":488,"type":"VEC2","name":"accessorUVs"},{"bufferView":0,"byteOffset":329576,"componentType":5123,"count":1428,"type":"SCALAR","name":"accessorIndices"},{"bufferView":1,"byteOffset":1284840,"componentType":5126,"count":488,"max":[0.756666,0.028575,0.0079375],"min":[6.358873E-15,-0.028575,-0.007937561],"type":"VEC3","name":"accessorPositions"},{"bufferView":2,"byteOffset":856560,"componentType":5126,"count":488,"type":"VEC4","name":"accessorTangents"},{"bufferView":1,"byteOffset":1290696,"componentType":5126,"count":488,"type":"VEC3","name":"accessorNormals"},{"bufferView":3,"byteOffset":428280,"componentType":5126,"count":488,"type":"VEC2","name":"accessorUVs"},{"bufferView":0,"byteOffset":332432,"componentType":5123,"count":1428,"type":"SCALAR","name":"accessorIndices"},{"bufferView":1,"byteOffset":1296552,"componentType":5126,"count":488,"max":[0.756666,0.028575,0.0079375],"min":[6.358873E-15,-0.028575,-0.007937597],"type":"VEC3","name":"accessorPositions"},{"bufferView":2,"byteOffset":864368,"componentType":5126,"count":488,"type":"VEC4","name":"accessorTangents"},{"bufferView":1,"byteOffset":1302408,"componentType":5126,"count":488,"type":"VEC3","name":"accessorNormals"},{"bufferView":3,"byteOffset":432184,"componentType":5126,"count":488,"type":"VEC2","name":"accessorUVs"},{"bufferView":0,"byteOffset":335288,"componentType":5123,"count":1428,"type":"SCALAR","name":"accessorIndices"},{"bufferView":1,"byteOffset":1308264,"componentType":5126,"count":488,"max":[0.756666,0.028575,0.0079375245],"min":[6.358873E-15,-0.028575,-0.0079375245],"type":"VEC3","name":"accessorPositions"},{"bufferView":2,"byteOffset":872176,"componentType":5126,"count":488,"type":"VEC4","name":"accessorTangents"},{"bufferView":1,"byteOffset":1314120,"componentType":5126,"count":488,"type":"VEC3","name":"accessorNormals"},{"bufferView":3,"byteOffset":436088,"componentType":5126,"count":488,"type":"VEC2","name":"accessorUVs"},{"bufferView":0,"byteOffset":338144,"componentType":5123,"count":1428,"type":"SCALAR","name":"accessorIndices"},{"bufferView":1,"byteOffset":1319976,"componentType":5126,"count":488,"max":[0.756666,0.028575,0.0079375],"min":[6.358873E-15,-0.028575,-0.007937597],"type":"VEC3","name":"accessorPositions"},{"bufferView":2,"byteOffset":879984,"componentType":5126,"count":488,"type":"VEC4","name":"accessorTangents"},{"bufferView":1,"byteOffset":1325832,"componentType":5126,"count":488,"type":"VEC3","name":"accessorNormals"},{"bufferView":3,"byteOffset":439992,"componentType":5126,"count":488,"type":"VEC2","name":"accessorUVs"},{"bufferView":0,"byteOffset":341000,"componentType":5123,"count":1440,"type":"SCALAR","name":"accessorIndices"},{"bufferView":1,"byteOffset":1331688,"componentType":5126,"count":484,"max":[0.012700001,0.012700001,-8.253881E-15],"min":[-0.012700001,-0.012700001,-0.0015748],"type":"VEC3","name":"accessorPositions"},{"bufferView":2,"byteOffset":887792,"componentType":5126,"count":484,"type":"VEC4","name":"accessorTangents"},{"bufferView":1,"byteOffset":1337496,"componentType":5126,"count":484,"type":"VEC3","name":"accessorNormals"},{"bufferView":3,"byteOffset":443896,"componentType":5126,"count":484,"type":"VEC2","name":"accessorUVs"},{"bufferView":0,"byteOffset":343880,"componentType":5123,"count":864,"type":"SCALAR","name":"accessorIndices"},{"bufferView":1,"byteOffset":1343304,"componentType":5126,"count":292,"max":[0.006604,0.015875,0.015875],"min":[-0.022722581,-0.015875,-0.015875],"type":"VEC3","name":"accessorPositions"},{"bufferView":2,"byteOffset":895536,"componentType":5126,"count":292,"type":"VEC4","name":"accessorTangents"},{"bufferView":1,"byteOffset":1346808,"componentType":5126,"count":292,"type":"VEC3","name":"accessorNormals"},{"bufferView":3,"byteOffset":447768,"componentType":5126,"count":292,"type":"VEC2","name":"accessorUVs"},{"bufferView":0,"byteOffset":345608,"componentType":5123,"count":858,"type":"SCALAR","name":"accessorIndices"},{"bufferView":1,"byteOffset":1350312,"componentType":5126,"count":289,"max":[0.006604,0.015875,0.015875],"min":[-0.022722581,-0.015875,-0.015875],"type":"VEC3","name":"accessorPositions"},{"bufferView":2,"byteOffset":900208,"componentType":5126,"count":289,"type":"VEC4","name":"accessorTangents"},{"bufferView":1,"byteOffset":1353780,"componentType":5126,"count":289,"type":"VEC3","name":"accessorNormals"},{"bufferView":3,"byteOffset":450104,"componentType":5126,"count":289,"type":"VEC2","name":"accessorUVs"},{"bufferView":0,"byteOffset":347324,"componentType":5123,"count":4740,"type":"SCALAR","name":"accessorIndices"},{"bufferView":1,"byteOffset":1357248,"componentType":5126,"count":1096,"max":[0.05715,0.025400002,0.05715],"min":[-0.05715,-2.9471527E-15,-0.05715],"type":"VEC3","name":"accessorPositions"},{"bufferView":2,"byteOffset":904832,"componentType":5126,"count":1096,"type":"VEC4","name":"accessorTangents"},{"bufferView":1,"byteOffset":1370400,"componentType":5126,"count":1096,"type":"VEC3","name":"accessorNormals"},{"bufferView":3,"byteOffset":452416,"componentType":5126,"count":1096,"type":"VEC2","name":"accessorUVs"},{"bufferView":0,"byteOffset":356804,"componentType":5123,"count":576,"type":"SCALAR","name":"accessorIndices"},{"bufferView":1,"byteOffset":1383552,"componentType":5126,"count":192,"max":[0.0541528,0.025400002,0.0541528],"min":[-0.0541528,0.025400002,-0.0541528],"type":"VEC3","name":"accessorPositions"},{"bufferView":2,"byteOffset":922368,"componentType":5126,"count":192,"type":"VEC4","name":"accessorTangents"},{"bufferView":1,"byteOffset":1385856,"componentType":5126,"count":192,"type":"VEC3","name":"accessorNormals"},{"bufferView":3,"byteOffset":461184,"componentType":5126,"count":192,"type":"VEC2","name":"accessorUVs"},{"bufferView":0,"byteOffset":357956,"componentType":5123,"count":432,"type":"SCALAR","name":"accessorIndices"},{"bufferView":1,"byteOffset":1388160,"componentType":5126,"count":146,"max":[0.0476504,0.015875,0.015875],"min":[-0.0348996,-0.015875,-0.015875],"type":"VEC3","name":"accessorPositions"},{"bufferView":2,"byteOffset":925440,"componentType":5126,"count":146,"type":"VEC4","name":"accessorTangents"},{"bufferView":1,"byteOffset":1389912,"componentType":5126,"count":146,"type":"VEC3","name":"accessorNormals"},{"bufferView":3,"byteOffset":462720,"componentType":5126,"count":146,"type":"VEC2","name":"accessorUVs"},{"bufferView":0,"byteOffset":358820,"componentType":5123,"count":420,"type":"SCALAR","name":"accessorIndices"},{"bufferView":1,"byteOffset":1391664,"componentType":5126,"count":144,"max":[0.0476504,0.015875,0.015875],"min":[-0.0348996,-0.015875,-0.015875],"type":"VEC3","name":"accessorPositions"},{"bufferView":2,"byteOffset":927776,"componentType":5126,"count":144,"type":"VEC4","name":"accessorTangents"},{"bufferView":1,"byteOffset":1393392,"componentType":5126,"count":144,"type":"VEC3","name":"accessorNormals"},{"bufferView":3,"byteOffset":463888,"componentType":5126,"count":144,"type":"VEC2","name":"accessorUVs"},{"bufferView":0,"byteOffset":359660,"componentType":5123,"count":201306,"type":"SCALAR","name":"accessorIndices"},{"bufferView":1,"byteOffset":1395120,"componentType":5126,"count":38119,"max":[-27.30563,3.6965744,-27.264956],"min":[-30.287746,2.1714768,-28.324299],"type":"VEC3","name":"accessorPositions"},{"bufferView":2,"byteOffset":930080,"componentType":5126,"count":38119,"type":"VEC4","name":"accessorTangents"},{"bufferView":1,"byteOffset":1852548,"componentType":5126,"count":38119,"type":"VEC3","name":"accessorNormals"},{"bufferView":3,"byteOffset":465040,"componentType":5126,"count":38119,"type":"VEC2","name":"accessorUVs"},{"bufferView":0,"byteOffset":762272,"componentType":5123,"count":246,"type":"SCALAR","name":"accessorIndices"},{"bufferView":1,"byteOffset":2309976,"componentType":5126,"count":84,"max":[-27.30563,3.6965744,-28.2862],"min":[-27.30563,3.6503658,-28.324299],"type":"VEC3","name":"accessorPositions"},{"bufferView":2,"byteOffset":1539984,"componentType":5126,"count":84,"type":"VEC4","name":"accessorTangents"},{"bufferView":1,"byteOffset":2310984,"componentType":5126,"count":84,"type":"VEC3","name":"accessorNormals"},{"bufferView":3,"byteOffset":769992,"componentType":5126,"count":84,"type":"VEC2","name":"accessorUVs"},{"bufferView":0,"byteOffset":762764,"componentType":5123,"count":4080,"type":"SCALAR","name":"accessorIndices"},{"bufferView":1,"byteOffset":2311992,"componentType":5126,"count":1530,"max":[0.9106084,0.6469242,0.019062791],"min":[-1.0538441,-0.74506915,-0.019062791],"type":"VEC3","name":"accessorPositions"},{"bufferView":2,"byteOffset":1541328,"componentType":5126,"count":1530,"type":"VEC4","name":"accessorTangents"},{"bufferView":1,"byteOffset":2330352,"componentType":5126,"count":1530,"type":"VEC3","name":"accessorNormals"},{"bufferView":3,"byteOffset":770664,"componentType":5126,"count":1530,"type":"VEC2","name":"accessorUVs"},{"bufferView":0,"byteOffset":770924,"componentType":5123,"count":738,"type":"SCALAR","name":"accessorIndices"},{"bufferView":1,"byteOffset":2348712,"componentType":5126,"count":252,"max":[0.9106084,0.6469242,0.019062791],"min":[-1.0538441,-0.74506915,-0.019062791],"type":"VEC3","name":"accessorPositions"},{"bufferView":2,"byteOffset":1565808,"componentType":5126,"count":252,"type":"VEC4","name":"accessorTangents"},{"bufferView":1,"byteOffset":2351736,"componentType":5126,"count":252,"type":"VEC3","name":"accessorNormals"},{"bufferView":3,"byteOffset":782904,"componentType":5126,"count":252,"type":"VEC2","name":"accessorUVs"}],"bufferViews":[{"buffer":0,"byteLength":772400,"name":"bufferViewScalar"},{"buffer":0,"byteOffset":772400,"byteLength":2354760,"byteStride":12,"name":"bufferViewFloatVec3"},{"buffer":0,"byteOffset":3127160,"byteLength":1569840,"byteStride":16,"name":"bufferViewFloatVec4"},{"buffer":0,"byteOffset":4697000,"byteLength":784920,"byteStride":8,"name":"bufferViewFloatVec2"}],"buffers":[{"uri":"L-Shaped_Railing_Konic.bin","byteLength":5481920}],"materials":[{"pbrMetallicRoughness":{"baseColorFactor":[0.9999998,0.9999999,0.9999999,1.0],"metallicFactor":0.0,"roughnessFactor":0.1},"name":"Glass","extensions":{"KHR_materials_ior":{"ior":1.0},"KHR_materials_transmission":{"transmissionFactor":0.97},"KHR_materials_volume":{"thicknessFactor":0.56,"attenuationDistance":0.5,"attenuationColor":[0.49521634,0.56476736,0.5317566]}}},{"pbrMetallicRoughness":{"baseColorFactor":[0.9999998,0.9999999,0.9999999,1.0],"baseColorTexture":{"index":0,"extensions":{"KHR_texture_transform":{"offset":[0.19519997,0.8048],"rotation":1.5707964,"scale":[0.6096,0.6096],"texCoord":0}}},"roughnessFactor":0.2,"metallicRoughnessTexture":{"index":0,"extensions":{"KHR_texture_transform":{"offset":[0.19519997,0.8048],"rotation":1.5707964,"scale":[0.6096,0.6096],"texCoord":0}}}},"name":"Steel_Linear"},{"pbrMetallicRoughness":{"baseColorFactor":[0.9999998,0.9999999,0.9999999,1.0],"baseColorTexture":{"index":1},"roughnessFactor":0.2,"metallicRoughnessTexture":{"index":1}},"name":"Steel_Radial"},{"pbrMetallicRoughness":{"baseColorFactor":[0.10641303,0.10641304,0.10641304,1.0],"metallicFactor":0.0,"roughnessFactor":0.99,"metallicRoughnessTexture":{"index":2}},"name":"Rubber","extensions":{"KHR_materials_specular":{"specularFactor":0.1}}}],"textures":[{"sampler":0,"source":0,"name":"Metal_Brushed_Linear_4k.jpg"},{"sampler":0,"source":1,"name":"Metal_Brushed_Radial_4k.jpg"},{"sampler":0,"source":2,"name":"PowderCoat_Roughness_2k0.jpg"}],"images":[{"uri":"textures/Metal_Brushed_Linear_4k.jpg"},{"uri":"textures/Metal_Brushed_Radial_4k.jpg"},{"uri":"textures/PowderCoat_Roughness_2k0.jpg"}],"samplers":[{"magFilter":9729,"minFilter":9987}]}