{"asset":{"version":"2.0","generator":"babylon.js glTF exporter for 3dsmax 2026 v20251111.2"},"extensionsUsed":["KHR_materials_ior","KHR_materials_transmission","KHR_materials_volume","KHR_texture_transform","KHR_materials_specular"],"extensionsRequired":["KHR_texture_transform"],"scene":0,"scenes":[{"nodes":[0,1,2,3,4,5,6,7,8,9,10,11,12,13,14,15,16,17,18,19,20,21,22,23,24,25,26,27,28,29,30,31,32,33,34,35,36,37,38,39,40,41,42,43,44,45,46,47,48,49,50,51,52,53,54,55,56,57,58,59,60,61,62,63,64,65,66,67,68,69,70,71,72,73,74,75,76,77,78,79,80,81,82,83,84,85,86,87,88,89,90,91,92,93,94,95,96,97,98,99,100,101,102,103,104,105,106,107,108,109,110,111,112,113,114,115,116,117,118,119,120,121,122,123,124,125,126,127,128,129,130,131,132,133,134,135,136,137,138,139,140,141,142,143,144,145,146,147,148,149,150,151,152,153,154,155,156,157,158,159,160,161,162,163,164,165,166,167,168,169,170,171,172,173,174,175,176,177,178,179,180,181,182,183,184,185,186,187,188,189,190,191,192,193,194,195,196,197,198,199,200,201,202,203,204,205,206,207,208,209,210,211,212,213,214,215,216,217,218,219,220,221,222,223,224,225,226,227,228,229,230,231,232,233]}],"nodes":[{"mesh":0,"translation":[-0.18280497,2.1652887,-0.076767445],"name":"Infill_Glass_Raked & Horizontal Generic [8199751]"},{"mesh":1,"translation":[1.416044,3.26257,-0.076767445],"name":"Infill_Glass_Raked & Horizontal Generic [8200579]"},{"mesh":2,"translation":[-0.42627653,2.19456,0.054914895],"rotation":[0.5,-0.5,0.5,0.5],"name":"Infill_Glass_Transition Generic [8202170]"},{"mesh":3,"translation":[-0.42627653,0.92937434,1.2408333],"rotation":[-0.0,0.7071068,0.0,0.7071068],"name":"Infill_Glass_Raked & Horizontal Generic [8202939]"},{"mesh":4,"translation":[-27.512323,0.0,29.240168],"rotation":[-0.0,-0.7071068,0.0,0.7071067],"name":"Generic Models 1 Generic Models 1 [8568048]"},{"mesh":5,"translation":[-1.3739885,0.9293959,1.2408333],"rotation":[-0.0,0.7071068,0.0,0.7071068],"name":"Infill_Glass_Raked & Horizontal Generic [8735940]"},{"mesh":6,"translation":[-27.512323,0.0,29.240168],"rotation":[-0.0,-0.7071068,0.0,0.7071067],"name":"Generic Models 10 Generic Models 1 [8735975]"},{"mesh":7,"translation":[1.416044,3.2625408,-1.0244794],"rotation":[-0.0,3.133859E-15,0.0,1.0],"name":"Infill_Glass_Raked & Horizontal Generic [8736296]"},{"mesh":8,"translation":[-0.9978901,1.8699833,-1.0244794],"rotation":[-0.0,3.133859E-15,0.0,1.0],"name":"Infill_Glass_Raked & Horizontal Generic [8737682]"},{"mesh":9,"translation":[28.89472,0.0,27.28077],"name":"Casework 1 Casework 1 [8738332]"},{"mesh":10,"translation":[-1.3739858,1.8699833,-0.64838374],"rotation":[-0.0,-0.7071068,0.0,0.7071067],"name":"Infill_Glass_Raked & Horizontal Generic [8738822]"},{"mesh":11,"translation":[-1.3739885,1.4780358,0.44231918],"rotation":[-0.0,0.7071068,0.0,0.7071068],"name":"Infill_Glass_Raked & Horizontal Generic [8739593]"},{"mesh":12,"translation":[-0.21865472,2.0199099,-0.037563115],"rotation":[-0.0,-0.7071068,0.0,0.7071067],"name":"CIR006 - Post Cap Part [9209946]001"},{"mesh":12,"translation":[0.3628432,2.3856697,-0.037563115],"rotation":[-0.0,-0.7071068,0.0,0.7071067],"name":"CIR006 - Post Cap Part [9209946]002"},{"mesh":12,"translation":[0.6293153,2.5685496,-0.037563115],"rotation":[-0.0,-0.7071068,0.0,0.7071067],"name":"CIR006 - Post Cap Part [9209946]003"},{"mesh":12,"translation":[1.4287456,3.1171894,-0.037563115],"rotation":[-0.0,-0.7071068,0.0,0.7071067],"name":"CIR006 - Post Cap Part [9209946]004"},{"mesh":12,"translation":[-0.387074,1.2883894,0.70801485],"name":"CIR006 - Post Cap Part [9209946]006"},{"mesh":12,"translation":[-0.387074,1.1055093,0.9735475],"name":"CIR006 - Post Cap Part [9209946]007"},{"mesh":12,"translation":[-0.387074,0.7397496,1.5058872],"name":"CIR006 - Post Cap Part [9209946]008"},{"mesh":12,"translation":[-1.4131929,1.6541497,0.17503344],"rotation":[-0.0,-1.0,0.0,-1.6292068E-07],"name":"CIR006 - Post Cap Part [9209946]009"},{"mesh":12,"translation":[-1.4131929,1.2883894,0.70801485],"rotation":[-0.0,-1.0,0.0,-1.6292068E-07],"name":"CIR006 - Post Cap Part [9209946]010"},{"mesh":12,"translation":[-1.4131929,1.1055093,0.9735475],"rotation":[-0.0,-1.0,0.0,-1.6292068E-07],"name":"CIR006 - Post Cap Part [9209946]011"},{"mesh":12,"translation":[-1.4131929,0.7397496,1.5058872],"rotation":[-0.0,-1.0,0.0,-1.6292068E-07],"name":"CIR006 - Post Cap Part [9209946]012"},{"mesh":12,"translation":[0.3628432,2.3856697,-1.0636818],"rotation":[-0.0,0.7071068,0.0,0.7071067],"name":"CIR006 - Post Cap Part [9209946]013"},{"mesh":12,"translation":[0.6293153,2.5685496,-1.0636818],"rotation":[-0.0,0.7071068,0.0,0.7071067],"name":"CIR006 - Post Cap Part [9209946]014"},{"mesh":12,"translation":[1.4287456,3.1171894,-1.0636818],"rotation":[-0.0,0.7071068,0.0,0.7071067],"name":"CIR006 - Post Cap Part [9209946]015"},{"mesh":12,"translation":[-0.44932586,1.8370296,-1.0636818],"rotation":[-0.0,0.7071068,0.0,0.7071067],"name":"CIR006 - Post Cap Part [9209946]016"},{"mesh":12,"translation":[-0.7160258,1.7500601,-1.0636818],"rotation":[-0.0,0.7071068,0.0,0.7071067],"name":"CIR006 - Post Cap Part [9209946]017"},{"mesh":12,"translation":[-1.2308595,1.7500601,-1.0636818],"rotation":[-0.0,0.7071068,0.0,0.7071067],"name":"CIR006 - Post Cap Part [9209946]018"},{"mesh":12,"translation":[-1.4131925,1.7500601,-0.88134885],"rotation":[-0.0,-1.0,0.0,2.8212997E-07],"name":"CIR006 - Post Cap Part [9209946]019"},{"mesh":12,"translation":[-1.4131929,1.7500601,-0.07437427],"rotation":[-0.0,-1.0,0.0,-1.6292068E-07],"name":"CIR006 - Post Cap Part [9209946]024"},{"mesh":12,"translation":[-0.38682503,1.6541497,0.1385099],"rotation":[-0.0,-1.1920929E-07,0.0,1.0],"name":"CIR006 - Post Cap Part [9209946]025"},{"mesh":13,"translation":[-0.21865472,1.4630404,-0.037563115],"name":"LS103 & LS116 - Circum Round Post Material LS Material [9209234]"},{"mesh":14,"translation":[-0.21865472,1.9913349,-0.037563115],"rotation":[-0.0,0.7071068,0.0,0.7071067],"name":"CIR088 - Circum Round Lo-Post Cope Part [9209257]050"},{"mesh":14,"translation":[-0.21865472,1.7373347,-0.037563115],"rotation":[-0.0,0.7071068,0.0,0.7071067],"name":"CIR088 - Circum Round Lo-Post Cope Part [9209257]001"},{"mesh":14,"translation":[0.3628432,2.3570948,-0.037563115],"rotation":[-0.0,0.7071068,0.0,0.7071067],"name":"CIR088 - Circum Round Lo-Post Cope Part [9209257]002"},{"mesh":14,"translation":[0.3628432,2.1030943,-0.037563115],"rotation":[-0.0,0.7071068,0.0,0.7071067],"name":"CIR088 - Circum Round Lo-Post Cope Part [9209257]003"},{"mesh":14,"translation":[0.6293153,2.5399747,-0.037563115],"rotation":[-0.0,0.7071068,0.0,0.7071067],"name":"CIR088 - Circum Round Lo-Post Cope Part [9209257]004"},{"mesh":14,"translation":[0.6293153,2.2859745,-0.037563115],"rotation":[-0.0,0.7071068,0.0,0.7071067],"name":"CIR088 - Circum Round Lo-Post Cope Part [9209257]005"},{"mesh":14,"translation":[1.4287456,3.0886145,-0.037563115],"rotation":[-0.0,0.7071068,0.0,0.7071067],"name":"CIR088 - Circum Round Lo-Post Cope Part [9209257]006"},{"mesh":14,"translation":[1.4287456,2.8346148,-0.037563115],"rotation":[-0.0,0.7071068,0.0,0.7071067],"name":"CIR088 - Circum Round Lo-Post Cope Part [9209257]007"},{"mesh":14,"translation":[-0.387074,1.2598144,0.70801485],"rotation":[-0.0,-1.0,0.0,-1.6292068E-07],"name":"CIR088 - Circum Round Lo-Post Cope Part [9209257]010"},{"mesh":14,"translation":[-0.387074,1.0058148,0.70801485],"rotation":[-0.0,-1.0,0.0,-1.6292068E-07],"name":"CIR088 - Circum Round Lo-Post Cope Part [9209257]011"},{"mesh":14,"translation":[-0.387074,1.0769343,0.9735475],"rotation":[-0.0,-1.0,0.0,-1.6292068E-07],"name":"CIR088 - Circum Round Lo-Post Cope Part [9209257]012"},{"mesh":14,"translation":[-0.387074,0.8229347,0.9735475],"rotation":[-0.0,-1.0,0.0,-1.6292068E-07],"name":"CIR088 - Circum Round Lo-Post Cope Part [9209257]013"},{"mesh":14,"translation":[-0.387074,0.7111746,1.5058872],"rotation":[-0.0,-1.0,0.0,-1.6292068E-07],"name":"CIR088 - Circum Round Lo-Post Cope Part [9209257]014"},{"mesh":14,"translation":[-0.387074,0.45717472,1.5058872],"rotation":[-0.0,-1.0,0.0,-1.6292068E-07],"name":"CIR088 - Circum Round Lo-Post Cope Part [9209257]015"},{"mesh":14,"translation":[-1.4131929,1.6255746,0.17503344],"name":"CIR088 - Circum Round Lo-Post Cope Part [9209257]016"},{"mesh":14,"translation":[-1.4131929,1.3715744,0.17503344],"name":"CIR088 - Circum Round Lo-Post Cope Part [9209257]017"},{"mesh":14,"translation":[-1.4131929,1.2598144,0.70801485],"name":"CIR088 - Circum Round Lo-Post Cope Part [9209257]018"},{"mesh":14,"translation":[-1.4131929,1.0058148,0.70801485],"name":"CIR088 - Circum Round Lo-Post Cope Part [9209257]019"},{"mesh":14,"translation":[-1.4131929,1.0769343,0.9735475],"name":"CIR088 - Circum Round Lo-Post Cope Part [9209257]020"},{"mesh":14,"translation":[-1.4131929,0.8229347,0.9735475],"name":"CIR088 - Circum Round Lo-Post Cope Part [9209257]021"},{"mesh":14,"translation":[-1.4131929,0.7111746,1.5058872],"name":"CIR088 - Circum Round Lo-Post Cope Part [9209257]022"},{"mesh":14,"translation":[-1.4131929,0.45717472,1.5058872],"name":"CIR088 - Circum Round Lo-Post Cope Part [9209257]023"},{"mesh":14,"translation":[0.3628432,2.3570948,-1.0636818],"rotation":[-0.0,-0.7071068,0.0,0.7071067],"name":"CIR088 - Circum Round Lo-Post Cope Part [9209257]024"},{"mesh":14,"translation":[0.3628432,2.1030943,-1.0636818],"rotation":[-0.0,-0.7071068,0.0,0.7071067],"name":"CIR088 - Circum Round Lo-Post Cope Part [9209257]025"},{"mesh":14,"translation":[0.6293153,2.5399747,-1.0636818],"rotation":[-0.0,-0.7071068,0.0,0.7071067],"name":"CIR088 - Circum Round Lo-Post Cope Part [9209257]026"},{"mesh":14,"translation":[0.6293153,2.2859745,-1.0636818],"rotation":[-0.0,-0.7071068,0.0,0.7071067],"name":"CIR088 - Circum Round Lo-Post Cope Part [9209257]027"},{"mesh":14,"translation":[1.4287456,3.0886145,-1.0636818],"rotation":[-0.0,-0.7071068,0.0,0.7071067],"name":"CIR088 - Circum Round Lo-Post Cope Part [9209257]028"},{"mesh":14,"translation":[1.4287456,2.8346148,-1.0636818],"rotation":[-0.0,-0.7071068,0.0,0.7071067],"name":"CIR088 - Circum Round Lo-Post Cope Part [9209257]029"},{"mesh":14,"translation":[-0.44932586,1.8084546,-1.0636818],"rotation":[-0.0,-0.7071068,0.0,0.7071067],"name":"CIR088 - Circum Round Lo-Post Cope Part [9209257]030"},{"mesh":14,"translation":[-0.44932586,1.5544546,-1.0636818],"rotation":[-0.0,-0.7071068,0.0,0.7071067],"name":"CIR088 - Circum Round Lo-Post Cope Part [9209257]031"},{"mesh":14,"translation":[-0.7160258,1.721485,-1.0636818],"rotation":[-0.0,-0.7071068,0.0,0.7071067],"name":"CIR088 - Circum Round Lo-Post Cope Part [9209257]032"},{"mesh":14,"translation":[-0.7160258,1.4674848,-1.0636818],"rotation":[-0.0,-0.7071068,0.0,0.7071067],"name":"CIR088 - Circum Round Lo-Post Cope Part [9209257]033"},{"mesh":14,"translation":[-1.2308595,1.721485,-1.0636818],"rotation":[-0.0,-0.7071068,0.0,0.7071067],"name":"CIR088 - Circum Round Lo-Post Cope Part [9209257]034"},{"mesh":14,"translation":[-1.2308595,1.4674848,-1.0636818],"rotation":[-0.0,-0.7071068,0.0,0.7071067],"name":"CIR088 - Circum Round Lo-Post Cope Part [9209257]035"},{"mesh":14,"translation":[-1.4131925,1.721485,-0.88134885],"name":"CIR088 - Circum Round Lo-Post Cope Part [9209257]036"},{"mesh":14,"translation":[-1.4131925,1.4674848,-0.88134885],"name":"CIR088 - Circum Round Lo-Post Cope Part [9209257]037"},{"mesh":14,"translation":[-1.4131929,1.721485,-0.07437427],"name":"CIR088 - Circum Round Lo-Post Cope Part [9209257]046"},{"mesh":14,"translation":[-1.4131929,1.4674848,-0.07437427],"name":"CIR088 - Circum Round Lo-Post Cope Part [9209257]047"},{"mesh":14,"translation":[-0.38682503,1.6255746,0.1385099],"rotation":[-0.0,-1.0,0.0,4.371139E-08],"name":"CIR088 - Circum Round Lo-Post Cope Part [9209257]051"},{"mesh":14,"translation":[-0.38682503,1.3715744,0.1385099],"rotation":[-0.0,-1.0,0.0,4.371139E-08],"name":"CIR088 - Circum Round Lo-Post Cope Part [9209257]052"},{"mesh":15,"translation":[-0.21865472,1.9913349,-0.08391842],"rotation":[-0.0,0.7071068,0.0,0.7071067],"name":"OPT006A - Optik Glass Pad Part [9209250]"},{"mesh":15,"translation":[-0.21865472,1.7373347,-0.08391842],"rotation":[-0.0,0.7071068,0.0,0.7071067],"name":"OPT006A - Optik Glass Pad Part [9209259]"},{"mesh":15,"translation":[0.3628432,2.3570948,-0.08391842],"rotation":[-0.0,0.7071068,0.0,0.7071067],"name":"OPT006A - Optik Glass Pad Part [9209288]"},{"mesh":15,"translation":[0.3628432,2.1030943,-0.08391842],"rotation":[-0.0,0.7071068,0.0,0.7071067],"name":"OPT006A - Optik Glass Pad Part [9209294]"},{"mesh":15,"translation":[0.6293153,2.5399747,-0.08391842],"rotation":[-0.0,0.7071068,0.0,0.7071067],"name":"OPT006A - Optik Glass Pad Part [9209323]"},{"mesh":15,"translation":[0.6293153,2.2859745,-0.08391842],"rotation":[-0.0,0.7071068,0.0,0.7071067],"name":"OPT006A - Optik Glass Pad Part [9209329]"},{"mesh":15,"translation":[1.4287456,3.0886145,-0.08391842],"rotation":[-0.0,0.7071068,0.0,0.7071067],"name":"OPT006A - Optik Glass Pad Part [9209358]"},{"mesh":15,"translation":[1.4287456,2.8346148,-0.08391842],"rotation":[-0.0,0.7071068,0.0,0.7071067],"name":"OPT006A - Optik Glass Pad Part [9209364]"},{"mesh":15,"translation":[-1.3668375,1.6255746,0.17503344],"name":"OPT006A - Optik Glass Pad Part [9209533]"},{"mesh":15,"translation":[-1.3668375,1.3715744,0.17503344],"name":"OPT006A - Optik Glass Pad Part [9209539]"},{"mesh":15,"translation":[-1.3668375,1.2598144,0.70801485],"name":"OPT006A - Optik Glass Pad Part [9209568]"},{"mesh":15,"translation":[-1.3668375,1.0058148,0.70801485],"name":"OPT006A - Optik Glass Pad Part [9209574]"},{"mesh":15,"translation":[-1.3668375,1.0769343,0.9735475],"name":"OPT006A - Optik Glass Pad Part [9209603]"},{"mesh":15,"translation":[-1.3668375,0.8229347,0.9735475],"name":"OPT006A - Optik Glass Pad Part [9209609]"},{"mesh":15,"translation":[-1.3668375,0.7111746,1.5058872],"name":"OPT006A - Optik Glass Pad Part [9209638]"},{"mesh":15,"translation":[-1.3668375,0.45717472,1.5058872],"name":"OPT006A - Optik Glass Pad Part [9209644]"},{"mesh":15,"translation":[-1.2308595,1.721485,-1.0173312],"rotation":[-0.0,-0.7071068,0.0,0.7071067],"name":"OPT006A - Optik Glass Pad Part [9209848]"},{"mesh":15,"translation":[-1.2308595,1.4674848,-1.0173312],"rotation":[-0.0,-0.7071068,0.0,0.7071067],"name":"OPT006A - Optik Glass Pad Part [9209854]"},{"mesh":15,"translation":[-0.43318033,1.6255746,0.1385099],"rotation":[-0.0,-1.0,0.0,4.371139E-08],"name":"OPT006A - Optik Glass Pad Part [9209533]001"},{"mesh":15,"translation":[-0.43318033,1.3715744,0.1385099],"rotation":[-0.0,-1.0,0.0,4.371139E-08],"name":"OPT006A - Optik Glass Pad Part [9209539]001"},{"mesh":16,"translation":[-0.21865472,1.9913349,-0.068040326],"rotation":[-0.0,0.7071068,0.0,0.7071067],"name":"OPT006 - Optik Glass Pad Part [9209251]"},{"mesh":16,"translation":[-0.21865472,1.7373347,-0.068040326],"rotation":[-0.0,0.7071068,0.0,0.7071067],"name":"OPT006 - Optik Glass Pad Part [9209260]"},{"mesh":16,"translation":[0.3628432,2.3570948,-0.068040326],"rotation":[-0.0,0.7071068,0.0,0.7071067],"name":"OPT006 - Optik Glass Pad Part [9209289]"},{"mesh":16,"translation":[0.3628432,2.1030943,-0.068040326],"rotation":[-0.0,0.7071068,0.0,0.7071067],"name":"OPT006 - Optik Glass Pad Part [9209295]"},{"mesh":16,"translation":[0.6293153,2.5399747,-0.068040326],"rotation":[-0.0,0.7071068,0.0,0.7071067],"name":"OPT006 - Optik Glass Pad Part [9209324]"},{"mesh":16,"translation":[0.6293153,2.2859745,-0.068040326],"rotation":[-0.0,0.7071068,0.0,0.7071067],"name":"OPT006 - Optik Glass Pad Part [9209330]"},{"mesh":16,"translation":[1.4287456,3.0886145,-0.068040326],"rotation":[-0.0,0.7071068,0.0,0.7071067],"name":"OPT006 - Optik Glass Pad Part [9209359]"},{"mesh":16,"translation":[1.4287456,2.8346148,-0.068040326],"rotation":[-0.0,0.7071068,0.0,0.7071067],"name":"OPT006 - Optik Glass Pad Part [9209365]"},{"mesh":16,"translation":[-1.3827156,1.6255746,0.17503344],"name":"OPT006 - Optik Glass Pad Part [9209534]"},{"mesh":16,"translation":[-1.3827156,1.3715744,0.17503344],"name":"OPT006 - Optik Glass Pad Part [9209540]"},{"mesh":16,"translation":[-1.3827156,1.2598144,0.70801485],"name":"OPT006 - Optik Glass Pad Part [9209569]"},{"mesh":16,"translation":[-1.3827156,1.0058148,0.70801485],"name":"OPT006 - Optik Glass Pad Part [9209575]"},{"mesh":16,"translation":[-1.3827156,1.0769343,0.9735475],"name":"OPT006 - Optik Glass Pad Part [9209604]"},{"mesh":16,"translation":[-1.3827156,0.8229347,0.9735475],"name":"OPT006 - Optik Glass Pad Part [9209610]"},{"mesh":16,"translation":[-1.3827156,0.7111746,1.5058872],"name":"OPT006 - Optik Glass Pad Part [9209639]"},{"mesh":16,"translation":[-1.3827156,0.45717472,1.5058872],"name":"OPT006 - Optik Glass Pad Part [9209645]"},{"mesh":16,"translation":[-1.2308595,1.721485,-1.0332047],"rotation":[-0.0,-0.7071068,0.0,0.7071067],"name":"OPT006 - Optik Glass Pad Part [9209849]"},{"mesh":16,"translation":[-1.2308595,1.4674848,-1.0332047],"rotation":[-0.0,-0.7071068,0.0,0.7071067],"name":"OPT006 - Optik Glass Pad Part [9209855]"},{"mesh":16,"translation":[-0.41730222,1.6255746,0.1385099],"rotation":[-0.0,-1.0,0.0,4.371139E-08],"name":"OPT006 - Optik Glass Pad Part [9209534]001"},{"mesh":16,"translation":[-0.41730222,1.3715744,0.1385099],"rotation":[-0.0,-1.0,0.0,4.371139E-08],"name":"OPT006 - Optik Glass Pad Part [9209540]001"},{"mesh":17,"translation":[-0.21865472,1.9913349,-0.08549042],"rotation":[-0.0,-0.7071068,0.0,0.7071067],"name":"CIR087 - Circum Round Lo-Post Clamp Part [9209252]003"},{"mesh":17,"translation":[-0.21865472,1.7373347,-0.08549042],"rotation":[-0.0,-0.7071068,0.0,0.7071067],"name":"CIR087 - Circum Round Lo-Post Clamp Part [9209252]004"},{"mesh":17,"translation":[0.3628432,2.3570948,-0.08549042],"rotation":[-0.0,-0.7071068,0.0,0.7071067],"name":"CIR087 - Circum Round Lo-Post Clamp Part [9209252]005"},{"mesh":17,"translation":[0.3628432,2.1030943,-0.08549042],"rotation":[-0.0,-0.7071068,0.0,0.7071067],"name":"CIR087 - Circum Round Lo-Post Clamp Part [9209252]006"},{"mesh":17,"translation":[0.6293153,2.5399747,-0.08549042],"rotation":[-0.0,-0.7071068,0.0,0.7071067],"name":"CIR087 - Circum Round Lo-Post Clamp Part [9209252]007"},{"mesh":17,"translation":[0.6293153,2.2859745,-0.08549042],"rotation":[-0.0,-0.7071068,0.0,0.7071067],"name":"CIR087 - Circum Round Lo-Post Clamp Part [9209252]008"},{"mesh":17,"translation":[1.4287456,3.0886145,-0.08549042],"rotation":[-0.0,-0.7071068,0.0,0.7071067],"name":"CIR087 - Circum Round Lo-Post Clamp Part [9209252]009"},{"mesh":17,"translation":[1.4287456,2.8346148,-0.08549042],"rotation":[-0.0,-0.7071068,0.0,0.7071067],"name":"CIR087 - Circum Round Lo-Post Clamp Part [9209252]010"},{"mesh":17,"translation":[-0.43500128,1.2598144,0.70801485],"name":"CIR087 - Circum Round Lo-Post Clamp Part [9209252]013"},{"mesh":17,"translation":[-0.43500128,1.0058148,0.70801485],"name":"CIR087 - Circum Round Lo-Post Clamp Part [9209252]014"},{"mesh":17,"translation":[-0.43500128,1.0769343,0.9735475],"name":"CIR087 - Circum Round Lo-Post Clamp Part [9209252]015"},{"mesh":17,"translation":[-0.43500128,0.8229347,0.9735475],"name":"CIR087 - Circum Round Lo-Post Clamp Part [9209252]016"},{"mesh":17,"translation":[-0.43500128,0.7111746,1.5058872],"name":"CIR087 - Circum Round Lo-Post Clamp Part [9209252]017"},{"mesh":17,"translation":[-0.43500128,0.45717472,1.5058872],"name":"CIR087 - Circum Round Lo-Post Clamp Part [9209252]018"},{"mesh":17,"translation":[-1.3652655,1.6255746,0.17503344],"rotation":[-0.0,-1.0,0.0,-1.6292068E-07],"name":"CIR087 - Circum Round Lo-Post Clamp Part [9209252]019"},{"mesh":17,"translation":[-1.3652655,1.3715744,0.17503344],"rotation":[-0.0,-1.0,0.0,-1.6292068E-07],"name":"CIR087 - Circum Round Lo-Post Clamp Part [9209252]020"},{"mesh":17,"translation":[-1.3652655,1.2598144,0.70801485],"rotation":[-0.0,-1.0,0.0,-1.6292068E-07],"name":"CIR087 - Circum Round Lo-Post Clamp Part [9209252]021"},{"mesh":17,"translation":[-1.3652655,1.0058148,0.70801485],"rotation":[-0.0,-1.0,0.0,-1.6292068E-07],"name":"CIR087 - Circum Round Lo-Post Clamp Part [9209252]022"},{"mesh":17,"translation":[-1.3652655,1.0769343,0.9735475],"rotation":[-0.0,-1.0,0.0,-1.6292068E-07],"name":"CIR087 - Circum Round Lo-Post Clamp Part [9209252]023"},{"mesh":17,"translation":[-1.3652655,0.8229347,0.9735475],"rotation":[-0.0,-1.0,0.0,-1.6292068E-07],"name":"CIR087 - Circum Round Lo-Post Clamp Part [9209252]024"},{"mesh":17,"translation":[-1.3652655,0.7111746,1.5058872],"rotation":[-0.0,-1.0,0.0,-1.6292068E-07],"name":"CIR087 - Circum Round Lo-Post Clamp Part [9209252]025"},{"mesh":17,"translation":[-1.3652655,0.45717472,1.5058872],"rotation":[-0.0,-1.0,0.0,-1.6292068E-07],"name":"CIR087 - Circum Round Lo-Post Clamp Part [9209252]026"},{"mesh":17,"translation":[0.3628432,2.3570948,-1.0157546],"rotation":[-0.0,0.7071068,0.0,0.7071067],"name":"CIR087 - Circum Round Lo-Post Clamp Part [9209252]027"},{"mesh":17,"translation":[0.3628432,2.1030943,-1.0157546],"rotation":[-0.0,0.7071068,0.0,0.7071067],"name":"CIR087 - Circum Round Lo-Post Clamp Part [9209252]028"},{"mesh":17,"translation":[0.6293153,2.5399747,-1.0157546],"rotation":[-0.0,0.7071068,0.0,0.7071067],"name":"CIR087 - Circum Round Lo-Post Clamp Part [9209252]029"},{"mesh":17,"translation":[0.6293153,2.2859745,-1.0157546],"rotation":[-0.0,0.7071068,0.0,0.7071067],"name":"CIR087 - Circum Round Lo-Post Clamp Part [9209252]030"},{"mesh":17,"translation":[1.4287456,3.0886145,-1.0157546],"rotation":[-0.0,0.7071068,0.0,0.7071067],"name":"CIR087 - Circum Round Lo-Post Clamp Part [9209252]031"},{"mesh":17,"translation":[1.4287456,2.8346148,-1.0157546],"rotation":[-0.0,0.7071068,0.0,0.7071067],"name":"CIR087 - Circum Round Lo-Post Clamp Part [9209252]032"},{"mesh":17,"translation":[-0.44932586,1.8084546,-1.0157546],"rotation":[-0.0,0.7071068,0.0,0.7071067],"name":"CIR087 - Circum Round Lo-Post Clamp Part [9209252]033"},{"mesh":17,"translation":[-0.44932586,1.5544546,-1.0157546],"rotation":[-0.0,0.7071068,0.0,0.7071067],"name":"CIR087 - Circum Round Lo-Post Clamp Part [9209252]034"},{"mesh":17,"translation":[-0.7160258,1.721485,-1.0157546],"rotation":[-0.0,0.7071068,0.0,0.7071067],"name":"CIR087 - Circum Round Lo-Post Clamp Part [9209252]035"},{"mesh":17,"translation":[-0.7160258,1.4674848,-1.0157546],"rotation":[-0.0,0.7071068,0.0,0.7071067],"name":"CIR087 - Circum Round Lo-Post Clamp Part [9209252]036"},{"mesh":17,"translation":[-1.2308595,1.721485,-1.0157546],"rotation":[-0.0,0.7071068,0.0,0.7071067],"name":"CIR087 - Circum Round Lo-Post Clamp Part [9209252]037"},{"mesh":17,"translation":[-1.2308595,1.4674848,-1.0157546],"rotation":[-0.0,0.7071068,0.0,0.7071067],"name":"CIR087 - Circum Round Lo-Post Clamp Part [9209252]038"},{"mesh":17,"translation":[-1.3652606,1.721485,-0.88134885],"rotation":[-0.0,-1.0,0.0,2.8212997E-07],"name":"CIR087 - Circum Round Lo-Post Clamp Part [9209252]039"},{"mesh":17,"translation":[-1.3652606,1.4674848,-0.88134885],"rotation":[-0.0,-1.0,0.0,2.8212997E-07],"name":"CIR087 - Circum Round Lo-Post Clamp Part [9209252]040"},{"mesh":17,"translation":[-1.3652655,1.721485,-0.07437427],"rotation":[-0.0,-1.0,0.0,-1.6292068E-07],"name":"CIR087 - Circum Round Lo-Post Clamp Part [9209252]049"},{"mesh":17,"translation":[-1.3652655,1.4674848,-0.07437427],"rotation":[-0.0,-1.0,0.0,-1.6292068E-07],"name":"CIR087 - Circum Round Lo-Post Clamp Part [9209252]050"},{"mesh":17,"translation":[-0.43475232,1.6255746,0.1385099],"rotation":[-0.0,-1.1920929E-07,0.0,1.0],"name":"CIR087 - Circum Round Lo-Post Clamp Part [9209252]051"},{"mesh":17,"translation":[-0.43475232,1.3715744,0.1385099],"rotation":[-0.0,-1.1920929E-07,0.0,1.0],"name":"CIR087 - Circum Round Lo-Post Clamp Part [9209252]052"},{"mesh":18,"translation":[0.3628432,1.8288,-0.037563115],"name":"LS103 & LS116 - Circum Round Post Material LS Material [9209282]"},{"mesh":19,"translation":[0.6293153,2.01168,-0.037563115],"name":"LS103 & LS116 - Circum Round Post Material LS Material [9209317]"},{"mesh":20,"translation":[1.4287456,2.56032,-0.037563115],"name":"LS103 & LS116 - Circum Round Post Material LS Material [9209352]"},{"mesh":21,"translation":[-0.387074,0.7315199,0.70801485],"name":"LS103 & LS116 - Circum Round Post Material LS Material [9209422]"},{"mesh":22,"translation":[-0.43342465,1.2598144,0.70801485],"rotation":[-0.0,-1.0,0.0,-1.6292068E-07],"name":"OPT006A - Optik Glass Pad Part [9209428]"},{"mesh":22,"translation":[-0.43342465,1.0058148,0.70801485],"rotation":[-0.0,-1.0,0.0,-1.6292068E-07],"name":"OPT006A - Optik Glass Pad Part [9209434]"},{"mesh":22,"translation":[-0.43342465,1.0769343,0.9735475],"rotation":[-0.0,-1.0,0.0,-1.6292068E-07],"name":"OPT006A - Optik Glass Pad Part [9209463]"},{"mesh":22,"translation":[-0.43342465,0.8229347,0.9735475],"rotation":[-0.0,-1.0,0.0,-1.6292068E-07],"name":"OPT006A - Optik Glass Pad Part [9209469]"},{"mesh":22,"translation":[-0.43342465,0.7111746,1.5058872],"rotation":[-0.0,-1.0,0.0,-1.6292068E-07],"name":"OPT006A - Optik Glass Pad Part [9209498]"},{"mesh":22,"translation":[-0.43342465,0.45717472,1.5058872],"rotation":[-0.0,-1.0,0.0,-1.6292068E-07],"name":"OPT006A - Optik Glass Pad Part [9209504]"},{"mesh":22,"translation":[0.3628432,2.3570948,-1.0173312],"rotation":[-0.0,-0.7071068,0.0,0.7071067],"name":"OPT006A - Optik Glass Pad Part [9209673]"},{"mesh":22,"translation":[0.3628432,2.1030943,-1.0173312],"rotation":[-0.0,-0.7071068,0.0,0.7071067],"name":"OPT006A - Optik Glass Pad Part [9209679]"},{"mesh":22,"translation":[0.6293153,2.5399747,-1.0173312],"rotation":[-0.0,-0.7071068,0.0,0.7071067],"name":"OPT006A - Optik Glass Pad Part [9209708]"},{"mesh":22,"translation":[0.6293153,2.2859745,-1.0173312],"rotation":[-0.0,-0.7071068,0.0,0.7071067],"name":"OPT006A - Optik Glass Pad Part [9209714]"},{"mesh":22,"translation":[1.4287456,3.0886145,-1.0173312],"rotation":[-0.0,-0.7071068,0.0,0.7071067],"name":"OPT006A - Optik Glass Pad Part [9209743]"},{"mesh":22,"translation":[1.4287456,2.8346148,-1.0173312],"rotation":[-0.0,-0.7071068,0.0,0.7071067],"name":"OPT006A - Optik Glass Pad Part [9209749]"},{"mesh":22,"translation":[-0.44932586,1.8084546,-1.0173312],"rotation":[-0.0,-0.7071068,0.0,0.7071067],"name":"OPT006A - Optik Glass Pad Part [9209778]"},{"mesh":22,"translation":[-0.44932586,1.5544546,-1.0173312],"rotation":[-0.0,-0.7071068,0.0,0.7071067],"name":"OPT006A - Optik Glass Pad Part [9209784]"},{"mesh":22,"translation":[-0.7160258,1.721485,-1.0173312],"rotation":[-0.0,-0.7071068,0.0,0.7071067],"name":"OPT006A - Optik Glass Pad Part [9209813]"},{"mesh":22,"translation":[-0.7160258,1.4674848,-1.0173312],"rotation":[-0.0,-0.7071068,0.0,0.7071067],"name":"OPT006A - Optik Glass Pad Part [9209819]"},{"mesh":22,"translation":[-1.3668419,1.721485,-0.88134885],"name":"OPT006A - Optik Glass Pad Part [9209883]"},{"mesh":22,"translation":[-1.3668419,1.4674848,-0.88134885],"name":"OPT006A - Optik Glass Pad Part [9209889]"},{"mesh":22,"translation":[-1.3668375,1.721485,-0.07437427],"name":"OPT006A - Optik Glass Pad Part [9210058]"},{"mesh":22,"translation":[-1.3668375,1.4674848,-0.07437427],"name":"OPT006A - Optik Glass Pad Part [9210064]"},{"mesh":23,"translation":[-0.4175512,1.2598144,0.70801485],"rotation":[-0.0,-1.0,0.0,-1.6292068E-07],"name":"OPT006 - Optik Glass Pad Part [9209429]"},{"mesh":23,"translation":[-0.4175512,1.0058148,0.70801485],"rotation":[-0.0,-1.0,0.0,-1.6292068E-07],"name":"OPT006 - Optik Glass Pad Part [9209435]"},{"mesh":23,"translation":[-0.4175512,1.0769343,0.9735475],"rotation":[-0.0,-1.0,0.0,-1.6292068E-07],"name":"OPT006 - Optik Glass Pad Part [9209464]"},{"mesh":23,"translation":[-0.4175512,0.8229347,0.9735475],"rotation":[-0.0,-1.0,0.0,-1.6292068E-07],"name":"OPT006 - Optik Glass Pad Part [9209470]"},{"mesh":23,"translation":[-0.4175512,0.7111746,1.5058872],"rotation":[-0.0,-1.0,0.0,-1.6292068E-07],"name":"OPT006 - Optik Glass Pad Part [9209499]"},{"mesh":23,"translation":[-0.4175512,0.45717472,1.5058872],"rotation":[-0.0,-1.0,0.0,-1.6292068E-07],"name":"OPT006 - Optik Glass Pad Part [9209505]"},{"mesh":23,"translation":[0.3628432,2.3570948,-1.0332047],"rotation":[-0.0,-0.7071068,0.0,0.7071067],"name":"OPT006 - Optik Glass Pad Part [9209674]"},{"mesh":23,"translation":[0.3628432,2.1030943,-1.0332047],"rotation":[-0.0,-0.7071068,0.0,0.7071067],"name":"OPT006 - Optik Glass Pad Part [9209680]"},{"mesh":23,"translation":[0.6293153,2.5399747,-1.0332047],"rotation":[-0.0,-0.7071068,0.0,0.7071067],"name":"OPT006 - Optik Glass Pad Part [9209709]"},{"mesh":23,"translation":[0.6293153,2.2859745,-1.0332047],"rotation":[-0.0,-0.7071068,0.0,0.7071067],"name":"OPT006 - Optik Glass Pad Part [9209715]"},{"mesh":23,"translation":[1.4287456,3.0886145,-1.0332047],"rotation":[-0.0,-0.7071068,0.0,0.7071067],"name":"OPT006 - Optik Glass Pad Part [9209744]"},{"mesh":23,"translation":[1.4287456,2.8346148,-1.0332047],"rotation":[-0.0,-0.7071068,0.0,0.7071067],"name":"OPT006 - Optik Glass Pad Part [9209750]"},{"mesh":23,"translation":[-0.44932586,1.8084546,-1.0332047],"rotation":[-0.0,-0.7071068,0.0,0.7071067],"name":"OPT006 - Optik Glass Pad Part [9209779]"},{"mesh":23,"translation":[-0.44932586,1.5544546,-1.0332047],"rotation":[-0.0,-0.7071068,0.0,0.7071067],"name":"OPT006 - Optik Glass Pad Part [9209785]"},{"mesh":23,"translation":[-0.7160258,1.721485,-1.0332047],"rotation":[-0.0,-0.7071068,0.0,0.7071067],"name":"OPT006 - Optik Glass Pad Part [9209814]"},{"mesh":23,"translation":[-0.7160258,1.4674848,-1.0332047],"rotation":[-0.0,-0.7071068,0.0,0.7071067],"name":"OPT006 - Optik Glass Pad Part [9209820]"},{"mesh":23,"translation":[-1.3827107,1.721485,-0.88134885],"name":"OPT006 - Optik Glass Pad Part [9209884]"},{"mesh":23,"translation":[-1.3827107,1.4674848,-0.88134885],"name":"OPT006 - Optik Glass Pad Part [9209890]"},{"mesh":23,"translation":[-1.3827156,1.721485,-0.07437427],"name":"OPT006 - Optik Glass Pad Part [9210059]"},{"mesh":23,"translation":[-1.3827156,1.4674848,-0.07437427],"name":"OPT006 - Optik Glass Pad Part [9210065]"},{"mesh":24,"translation":[-0.387074,0.5486401,0.9735475],"name":"LS103 & LS116 - Circum Round Post Material LS Material [9209457]"},{"mesh":25,"translation":[-0.387074,0.18288012,1.5058872],"name":"LS103 & LS116 - Circum Round Post Material LS Material [9209492]"},{"mesh":26,"translation":[-1.4131929,1.0972801,0.17503344],"rotation":[-8.742278E-08,-0.0,0.0,1.0],"name":"LS103 & LS116 - Circum Round Post Material LS Material [9209527]"},{"mesh":27,"translation":[-1.4131929,0.7315199,0.70801485],"rotation":[-8.742278E-08,-0.0,0.0,1.0],"name":"LS103 & LS116 - Circum Round Post Material LS Material [9209562]"},{"mesh":28,"translation":[-1.4131929,0.5486401,0.9735475],"rotation":[-8.742278E-08,-0.0,0.0,1.0],"name":"LS103 & LS116 - Circum Round Post Material LS Material [9209597]"},{"mesh":29,"translation":[-1.4131929,0.18288012,1.5058872],"rotation":[-8.742278E-08,-0.0,0.0,1.0],"name":"LS103 & LS116 - Circum Round Post Material LS Material [9209632]"},{"mesh":30,"translation":[0.3628432,1.8288,-1.0636818],"name":"LS103 & LS116 - Circum Round Post Material LS Material [9209667]"},{"mesh":31,"translation":[0.6293153,2.01168,-1.0636818],"name":"LS103 & LS116 - Circum Round Post Material LS Material [9209702]"},{"mesh":32,"translation":[1.4287456,2.56032,-1.0636818],"name":"LS103 & LS116 - Circum Round Post Material LS Material [9209737]"},{"mesh":33,"translation":[-0.44932586,1.2801597,-1.0636818],"name":"LS103 & LS116 - Circum Round Post Material LS Material [9209772]"},{"mesh":34,"translation":[-0.7160258,1.2801597,-1.0636818],"name":"LS103 & LS116 - Circum Round Post Material LS Material [9209807]"},{"mesh":35,"translation":[-1.2308595,1.2801597,-1.0636818],"name":"LS103 & LS116 - Circum Round Post Material LS Material [9209842]"},{"mesh":36,"translation":[-1.4131925,1.2801597,-0.88134885],"rotation":[8.742278E-08,-0.0,0.0,1.0],"name":"LS103 & LS116 - Circum Round Post Material LS Material [9209877]"},{"mesh":37,"translation":[-1.4131929,1.2801597,-0.07437427],"rotation":[-8.742278E-08,-0.0,0.0,1.0],"name":"LS103 & LS116 - Circum Round Post Material LS Material [9210052]"},{"mesh":38,"translation":[-0.7160258,1.2801597,-1.0636818],"rotation":[-0.0,0.7071068,0.0,0.7071067],"name":"CIR080 - Cane Rail Surface Mount Part [8829721]021"},{"mesh":38,"translation":[-1.2308595,1.2801597,-1.0636818],"rotation":[-0.0,0.7071068,0.0,0.7071067],"name":"CIR080 - Cane Rail Surface Mount Part [8829721]022"},{"mesh":38,"translation":[-1.4131925,1.2801597,-0.88134885],"rotation":[-0.0,-1.0,0.0,2.8212997E-07],"name":"CIR080 - Cane Rail Surface Mount Part [8829721]023"},{"mesh":38,"translation":[-1.4131929,1.2801597,-0.07437427],"rotation":[-0.0,-1.0,0.0,-1.6292068E-07],"name":"CIR080 - Cane Rail Surface Mount Part [8829721]028"},{"mesh":38,"translation":[-0.21865472,1.4630404,-0.037563115],"rotation":[-0.0,-0.7071068,0.0,0.7071067],"name":"CIR080 - Cane Rail Surface Mount Part [8829721]030"},{"mesh":38,"translation":[0.3628432,1.8288,-0.037563115],"rotation":[-0.0,-0.7071068,0.0,0.7071067],"name":"CIR080 - Cane Rail Surface Mount Part [8829721]031"},{"mesh":38,"translation":[0.6293153,2.01168,-0.037563115],"rotation":[-0.0,-0.7071068,0.0,0.7071067],"name":"CIR080 - Cane Rail Surface Mount Part [8829721]032"},{"mesh":38,"translation":[1.4287456,2.56032,-0.037563115],"rotation":[-0.0,-0.7071068,0.0,0.7071067],"name":"CIR080 - Cane Rail Surface Mount Part [8829721]033"},{"mesh":38,"translation":[-0.387074,0.7315199,0.70801485],"name":"CIR080 - Cane Rail Surface Mount Part [8829721]034"},{"mesh":38,"translation":[-0.387074,0.5486401,0.9735475],"name":"CIR080 - Cane Rail Surface Mount Part [8829721]035"},{"mesh":38,"translation":[-0.387074,0.18288012,1.5058872],"name":"CIR080 - Cane Rail Surface Mount Part [8829721]036"},{"mesh":38,"translation":[-1.4131929,1.0972801,0.17503344],"rotation":[-0.0,-1.0,0.0,-1.6292068E-07],"name":"CIR080 - Cane Rail Surface Mount Part [8829721]037"},{"mesh":38,"translation":[-1.4131929,0.7315199,0.70801485],"rotation":[-0.0,-1.0,0.0,-1.6292068E-07],"name":"CIR080 - Cane Rail Surface Mount Part [8829721]038"},{"mesh":38,"translation":[-1.4131929,0.5486401,0.9735475],"rotation":[-0.0,-1.0,0.0,-1.6292068E-07],"name":"CIR080 - Cane Rail Surface Mount Part [8829721]039"},{"mesh":38,"translation":[-1.4131929,0.18288012,1.5058872],"rotation":[-0.0,-1.0,0.0,-1.6292068E-07],"name":"CIR080 - Cane Rail Surface Mount Part [8829721]040"},{"mesh":38,"translation":[0.3628432,1.8288,-1.0636818],"rotation":[-0.0,0.7071068,0.0,0.7071067],"name":"CIR080 - Cane Rail Surface Mount Part [8829721]041"},{"mesh":38,"translation":[0.6293153,2.01168,-1.0636818],"rotation":[-0.0,0.7071068,0.0,0.7071067],"name":"CIR080 - Cane Rail Surface Mount Part [8829721]042"},{"mesh":38,"translation":[1.4287456,2.56032,-1.0636818],"rotation":[-0.0,0.7071068,0.0,0.7071067],"name":"CIR080 - Cane Rail Surface Mount Part [8829721]043"},{"mesh":38,"translation":[-0.44932586,1.2801597,-1.0636818],"rotation":[-0.0,0.7071068,0.0,0.7071067],"name":"CIR080 - Cane Rail Surface Mount Part [8829721]044"},{"mesh":38,"translation":[-0.38682503,1.0972801,0.1385099],"rotation":[-0.0,-1.1920929E-07,0.0,1.0],"name":"CIR080 - Cane Rail Surface Mount Part [8829721]045"},{"mesh":39,"translation":[28.89472,0.0,27.28077],"name":"Object"},{"mesh":40,"translation":[-0.38682503,1.0972801,0.1385099],"name":"LS103 & LS116 - Circum Round Post Material LS Material [9209527]001"},{"mesh":41,"translation":[0.6784653,3.0497246,-0.07691128],"name":"Generic Models 11 Generic Models 11 [8762451]005"}],"meshes":[{"primitives":[{"attributes":{"POSITION":1,"TANGENT":2,"NORMAL":3,"TEXCOORD_0":4},"indices":0,"material":0}],"name":"Infill_Glass_Raked & Horizontal Generic [8199751]"},{"primitives":[{"attributes":{"POSITION":6,"TANGENT":7,"NORMAL":8,"TEXCOORD_0":9},"indices":5,"material":0}],"name":"Infill_Glass_Raked & Horizontal Generic [8200579]"},{"primitives":[{"attributes":{"POSITION":11,"TANGENT":12,"NORMAL":13,"TEXCOORD_0":14},"indices":10,"material":0}],"name":"Infill_Glass_Transition Generic [8202170]"},{"primitives":[{"attributes":{"POSITION":16,"TANGENT":17,"NORMAL":18,"TEXCOORD_0":19},"indices":15,"material":0}],"name":"Infill_Glass_Raked & Horizontal Generic [8202939]"},{"primitives":[{"attributes":{"POSITION":21,"TANGENT":22,"NORMAL":23,"TEXCOORD_0":24},"indices":20,"material":1},{"attributes":{"POSITION":26,"TANGENT":27,"NORMAL":28,"TEXCOORD_0":29},"indices":25,"material":2}],"name":"Generic Models 1 Generic Models 1 [8568048]"},{"primitives":[{"attributes":{"POSITION":31,"TANGENT":32,"NORMAL":33,"TEXCOORD_0":34},"indices":30,"material":0}],"name":"Infill_Glass_Raked & Horizontal Generic [8735940]"},{"primitives":[{"attributes":{"POSITION":36,"TANGENT":37,"NORMAL":38,"TEXCOORD_0":39},"indices":35,"material":1},{"attributes":{"POSITION":41,"TANGENT":42,"NORMAL":43,"TEXCOORD_0":44},"indices":40,"material":2}],"name":"Generic Models 10 Generic Models 1 [8735975]"},{"primitives":[{"attributes":{"POSITION":46,"TANGENT":47,"NORMAL":48,"TEXCOORD_0":49},"indices":45,"material":0}],"name":"Infill_Glass_Raked & Horizontal Generic [8736296]"},{"primitives":[{"attributes":{"POSITION":51,"TANGENT":52,"NORMAL":53,"TEXCOORD_0":54},"indices":50,"material":0}],"name":"Infill_Glass_Raked & Horizontal Generic [8737682]"},{"primitives":[{"attributes":{"POSITION":56,"TANGENT":57,"NORMAL":58,"TEXCOORD_0":59},"indices":55,"material":0}],"name":"Casework 1 Casework 1 [8738332]"},{"primitives":[{"attributes":{"POSITION":61,"TANGENT":62,"NORMAL":63,"TEXCOORD_0":64},"indices":60,"material":0}],"name":"Infill_Glass_Raked & Horizontal Generic [8738822]"},{"primitives":[{"attributes":{"POSITION":66,"TANGENT":67,"NORMAL":68,"TEXCOORD_0":69},"indices":65,"material":0}],"name":"Infill_Glass_Raked & Horizontal Generic [8739593]"},{"primitives":[{"attributes":{"POSITION":71,"TANGENT":72,"NORMAL":73,"TEXCOORD_0":74},"indices":70,"material":1},{"attributes":{"POSITION":76,"TANGENT":77,"NORMAL":78,"TEXCOORD_0":79},"indices":75,"material":2}],"name":"CIR006 - Post Cap Part [9209946]001"},{"primitives":[{"attributes":{"POSITION":81,"TANGENT":82,"NORMAL":83,"TEXCOORD_0":84},"indices":80,"material":1}],"name":"LS103 & LS116 - Circum Round Post Material LS Material [9209234]"},{"primitives":[{"attributes":{"POSITION":86,"TANGENT":87,"NORMAL":88,"TEXCOORD_0":89},"indices":85,"material":1},{"attributes":{"POSITION":91,"TANGENT":92,"NORMAL":93,"TEXCOORD_0":94},"indices":90,"material":2}],"name":"CIR088 - Circum Round Lo-Post Cope Part [9209257]050"},{"primitives":[{"attributes":{"POSITION":96,"TANGENT":97,"NORMAL":98,"TEXCOORD_0":99},"indices":95,"material":3}],"name":"OPT006A - Optik Glass Pad Part [9209250]"},{"primitives":[{"attributes":{"POSITION":101,"TANGENT":102,"NORMAL":103,"TEXCOORD_0":104},"indices":100,"material":3}],"name":"OPT006 - Optik Glass Pad Part [9209251]"},{"primitives":[{"attributes":{"POSITION":106,"TANGENT":107,"NORMAL":108,"TEXCOORD_0":109},"indices":105,"material":1},{"attributes":{"POSITION":111,"TANGENT":112,"NORMAL":113,"TEXCOORD_0":114},"indices":110,"material":2}],"name":"CIR087 - Circum Round Lo-Post Clamp Part [9209252]003"},{"primitives":[{"attributes":{"POSITION":116,"TANGENT":117,"NORMAL":118,"TEXCOORD_0":119},"indices":115,"material":1}],"name":"LS103 & LS116 - Circum Round Post Material LS Material [9209282]"},{"primitives":[{"attributes":{"POSITION":121,"TANGENT":122,"NORMAL":123,"TEXCOORD_0":124},"indices":120,"material":1}],"name":"LS103 & LS116 - Circum Round Post Material LS Material [9209317]"},{"primitives":[{"attributes":{"POSITION":126,"TANGENT":127,"NORMAL":128,"TEXCOORD_0":129},"indices":125,"material":1}],"name":"LS103 & LS116 - Circum Round Post Material LS Material [9209352]"},{"primitives":[{"attributes":{"POSITION":131,"TANGENT":132,"NORMAL":133,"TEXCOORD_0":134},"indices":130,"material":1}],"name":"LS103 & LS116 - Circum Round Post Material LS Material [9209422]"},{"primitives":[{"attributes":{"POSITION":136,"TANGENT":137,"NORMAL":138,"TEXCOORD_0":139},"indices":135,"material":3}],"name":"OPT006A - Optik Glass Pad Part [9209428]"},{"primitives":[{"attributes":{"POSITION":141,"TANGENT":142,"NORMAL":143,"TEXCOORD_0":144},"indices":140,"material":3}],"name":"OPT006 - Optik Glass Pad Part [9209429]"},{"primitives":[{"attributes":{"POSITION":146,"TANGENT":147,"NORMAL":148,"TEXCOORD_0":149},"indices":145,"material":1}],"name":"LS103 & LS116 - Circum Round Post Material LS Material [9209457]"},{"primitives":[{"attributes":{"POSITION":151,"TANGENT":152,"NORMAL":153,"TEXCOORD_0":154},"indices":150,"material":1}],"name":"LS103 & LS116 - Circum Round Post Material LS Material [9209492]"},{"primitives":[{"attributes":{"POSITION":156,"TANGENT":157,"NORMAL":158,"TEXCOORD_0":159},"indices":155,"material":1}],"name":"LS103 & LS116 - Circum Round Post Material LS Material [9209527]"},{"primitives":[{"attributes":{"POSITION":161,"TANGENT":162,"NORMAL":163,"TEXCOORD_0":164},"indices":160,"material":1}],"name":"LS103 & LS116 - Circum Round Post Material LS Material [9209562]"},{"primitives":[{"attributes":{"POSITION":166,"TANGENT":167,"NORMAL":168,"TEXCOORD_0":169},"indices":165,"material":1}],"name":"LS103 & LS116 - Circum Round Post Material LS Material [9209597]"},{"primitives":[{"attributes":{"POSITION":171,"TANGENT":172,"NORMAL":173,"TEXCOORD_0":174},"indices":170,"material":1}],"name":"LS103 & LS116 - Circum Round Post Material LS Material [9209632]"},{"primitives":[{"attributes":{"POSITION":176,"TANGENT":177,"NORMAL":178,"TEXCOORD_0":179},"indices":175,"material":1}],"name":"LS103 & LS116 - Circum Round Post Material LS Material [9209667]"},{"primitives":[{"attributes":{"POSITION":181,"TANGENT":182,"NORMAL":183,"TEXCOORD_0":184},"indices":180,"material":1}],"name":"LS103 & LS116 - Circum Round Post Material LS Material [9209702]"},{"primitives":[{"attributes":{"POSITION":186,"TANGENT":187,"NORMAL":188,"TEXCOORD_0":189},"indices":185,"material":1}],"name":"LS103 & LS116 - Circum Round Post Material LS Material [9209737]"},{"primitives":[{"attributes":{"POSITION":191,"TANGENT":192,"NORMAL":193,"TEXCOORD_0":194},"indices":190,"material":1}],"name":"LS103 & LS116 - Circum Round Post Material LS Material [9209772]"},{"primitives":[{"attributes":{"POSITION":196,"TANGENT":197,"NORMAL":198,"TEXCOORD_0":199},"indices":195,"material":1}],"name":"LS103 & LS116 - Circum Round Post Material LS Material [9209807]"},{"primitives":[{"attributes":{"POSITION":201,"TANGENT":202,"NORMAL":203,"TEXCOORD_0":204},"indices":200,"material":1}],"name":"LS103 & LS116 - Circum Round Post Material LS Material [9209842]"},{"primitives":[{"attributes":{"POSITION":206,"TANGENT":207,"NORMAL":208,"TEXCOORD_0":209},"indices":205,"material":1}],"name":"LS103 & LS116 - Circum Round Post Material LS Material [9209877]"},{"primitives":[{"attributes":{"POSITION":211,"TANGENT":212,"NORMAL":213,"TEXCOORD_0":214},"indices":210,"material":1}],"name":"LS103 & LS116 - Circum Round Post Material LS Material [9210052]"},{"primitives":[{"attributes":{"POSITION":216,"TANGENT":217,"NORMAL":218,"TEXCOORD_0":219},"indices":215,"material":1},{"attributes":{"POSITION":221,"TANGENT":222,"NORMAL":223,"TEXCOORD_0":224},"indices":220,"material":2}],"name":"CIR080 - Cane Rail Surface Mount Part [8829721]021"},{"primitives":[{"attributes":{"POSITION":226,"TANGENT":227,"NORMAL":228,"TEXCOORD_0":229},"indices":225,"material":1},{"attributes":{"POSITION":231,"TANGENT":232,"NORMAL":233,"TEXCOORD_0":234},"indices":230,"material":2}],"name":"Object"},{"primitives":[{"attributes":{"POSITION":236,"TANGENT":237,"NORMAL":238,"TEXCOORD_0":239},"indices":235,"material":1}],"name":"LS103 & LS116 - Circum Round Post Material LS Material [9209527]001"},{"primitives":[{"attributes":{"POSITION":241,"TANGENT":242,"NORMAL":243,"TEXCOORD_0":244},"indices":240,"material":1},{"attributes":{"POSITION":246,"TANGENT":247,"NORMAL":248,"TEXCOORD_0":249},"indices":245,"material":2}],"name":"Generic Models 11 Generic Models 11 [8762451]005"}],"accessors":[{"bufferView":0,"componentType":5123,"count":132,"type":"SCALAR","name":"accessorIndices"},{"bufferView":1,"componentType":5126,"count":82,"max":[0.67253757,0.76435065,0.0071501],"min":[-0.1888937,-0.7240815,-0.0071501],"type":"VEC3","name":"accessorPositions"},{"bufferView":2,"componentType":5126,"count":82,"type":"VEC4","name":"accessorTangents"},{"bufferView":1,"byteOffset":984,"componentType":5126,"count":82,"type":"VEC3","name":"accessorNormals"},{"bufferView":3,"componentType":5126,"count":82,"type":"VEC2","name":"accessorUVs"},{"bufferView":0,"byteOffset":264,"componentType":5123,"count":132,"type":"SCALAR","name":"accessorIndices"},{"bufferView":1,"byteOffset":1968,"componentType":5126,"count":82,"max":[0.16510001,0.41611978,0.0071501],"min":[-0.9136126,-1.2214502,-0.0071501],"type":"VEC3","name":"accessorPositions"},{"bufferView":2,"byteOffset":1312,"componentType":5126,"count":82,"type":"VEC4","name":"accessorTangents"},{"bufferView":1,"byteOffset":2952,"componentType":5126,"count":82,"type":"VEC3","name":"accessorNormals"},{"bufferView":3,"byteOffset":656,"componentType":5126,"count":82,"type":"VEC2","name":"accessorUVs"},{"bufferView":0,"byteOffset":528,"componentType":5123,"count":168,"type":"SCALAR","name":"accessorIndices"},{"bufferView":1,"byteOffset":3936,"componentType":5126,"count":109,"max":[0.77951753,0.0071501,1.4337071],"min":[-0.068804964,-0.0071501024,-0.0],"type":"VEC3","name":"accessorPositions"},{"bufferView":2,"byteOffset":2624,"componentType":5126,"count":109,"type":"VEC4","name":"accessorTangents"},{"bufferView":1,"byteOffset":5244,"componentType":5126,"count":109,"type":"VEC3","name":"accessorNormals"},{"bufferView":3,"byteOffset":1312,"componentType":5126,"count":109,"type":"VEC2","name":"accessorUVs"},{"bufferView":0,"byteOffset":864,"componentType":5123,"count":132,"type":"SCALAR","name":"accessorIndices"},{"bufferView":1,"byteOffset":6552,"componentType":5126,"count":82,"max":[0.3937,0.71999997,0.0071501],"min":[-0.4111075,-0.730215,-0.0071501],"type":"VEC3","name":"accessorPositions"},{"bufferView":2,"byteOffset":4368,"componentType":5126,"count":82,"type":"VEC4","name":"accessorTangents"},{"bufferView":1,"byteOffset":7536,"componentType":5126,"count":82,"type":"VEC3","name":"accessorNormals"},{"bufferView":3,"byteOffset":2184,"componentType":5126,"count":82,"type":"VEC2","name":"accessorUVs"},{"bufferView":0,"byteOffset":1128,"componentType":5123,"count":49806,"type":"SCALAR","name":"accessorIndices"},{"bufferView":1,"byteOffset":8520,"componentType":5126,"count":10012,"max":[-27.580276,2.2050376,-27.06699],"min":[-29.259083,1.0594896,-27.105263],"type":"VEC3","name":"accessorPositions"},{"bufferView":2,"byteOffset":5680,"componentType":5126,"count":10012,"type":"VEC4","name":"accessorTangents"},{"bufferView":1,"byteOffset":128664,"componentType":5126,"count":10012,"type":"VEC3","name":"accessorNormals"},{"bufferView":3,"byteOffset":2840,"componentType":5126,"count":10012,"type":"VEC2","name":"accessorUVs"},{"bufferView":0,"byteOffset":100740,"componentType":5123,"count":456,"type":"SCALAR","name":"accessorIndices"},{"bufferView":1,"byteOffset":248808,"componentType":5126,"count":156,"max":[-27.580276,2.2050376,-27.067],"min":[-29.259083,1.0594896,-27.105263],"type":"VEC3","name":"accessorPositions"},{"bufferView":2,"byteOffset":165872,"componentType":5126,"count":156,"type":"VEC4","name":"accessorTangents"},{"bufferView":1,"byteOffset":250680,"componentType":5126,"count":156,"type":"VEC3","name":"accessorNormals"},{"bufferView":3,"byteOffset":82936,"componentType":5126,"count":156,"type":"VEC2","name":"accessorUVs"},{"bufferView":0,"byteOffset":101652,"componentType":5123,"count":132,"type":"SCALAR","name":"accessorIndices"},{"bufferView":1,"byteOffset":252552,"componentType":5126,"count":82,"max":[0.3937,0.71999997,0.0071501],"min":[-0.4111075,-0.730215,-0.0071501],"type":"VEC3","name":"accessorPositions"},{"bufferView":2,"byteOffset":168368,"componentType":5126,"count":82,"type":"VEC4","name":"accessorTangents"},{"bufferView":1,"byteOffset":253536,"componentType":5126,"count":82,"type":"VEC3","name":"accessorNormals"},{"bufferView":3,"byteOffset":84184,"componentType":5126,"count":82,"type":"VEC2","name":"accessorUVs"},{"bufferView":0,"byteOffset":101916,"componentType":5123,"count":81387,"type":"SCALAR","name":"accessorIndices"},{"bufferView":1,"byteOffset":254520,"componentType":5126,"count":17413,"max":[-27.580276,2.2050376,-26.119287],"min":[-29.224365,1.0594137,-26.157398],"type":"VEC3","name":"accessorPositions"},{"bufferView":2,"byteOffset":169680,"componentType":5126,"count":17413,"type":"VEC4","name":"accessorTangents"},{"bufferView":1,"byteOffset":463476,"componentType":5126,"count":17413,"type":"VEC3","name":"accessorNormals"},{"bufferView":3,"byteOffset":84840,"componentType":5126,"count":17413,"type":"VEC2","name":"accessorUVs"},{"bufferView":0,"byteOffset":264692,"componentType":5123,"count":10326,"type":"SCALAR","name":"accessorIndices"},{"bufferView":1,"byteOffset":672432,"componentType":5126,"count":17742,"max":[-27.580276,2.2050288,-26.119287],"min":[-29.224365,1.0594137,-26.157398],"type":"VEC3","name":"accessorPositions"},{"bufferView":2,"byteOffset":448288,"componentType":5126,"count":17742,"type":"VEC4","name":"accessorTangents"},{"bufferView":1,"byteOffset":885336,"componentType":5126,"count":17742,"type":"VEC3","name":"accessorNormals"},{"bufferView":3,"byteOffset":224144,"componentType":5126,"count":17742,"type":"VEC2","name":"accessorUVs"},{"bufferView":0,"byteOffset":285344,"componentType":5123,"count":132,"type":"SCALAR","name":"accessorIndices"},{"bufferView":1,"byteOffset":1098240,"componentType":5126,"count":82,"max":[0.16510001,0.41611978,0.0071501],"min":[-0.9136126,-1.2214502,-0.0071501],"type":"VEC3","name":"accessorPositions"},{"bufferView":2,"byteOffset":732160,"componentType":5126,"count":82,"type":"VEC4","name":"accessorTangents"},{"bufferView":1,"byteOffset":1099224,"componentType":5126,"count":82,"type":"VEC3","name":"accessorNormals"},{"bufferView":3,"byteOffset":366080,"componentType":5126,"count":82,"type":"VEC2","name":"accessorUVs"},{"bufferView":0,"byteOffset":285608,"componentType":5123,"count":132,"type":"SCALAR","name":"accessorIndices"},{"bufferView":1,"byteOffset":1100208,"componentType":5126,"count":96,"max":[0.40886727,0.3245767,0.0071501],"min":[-0.35996616,-0.52949834,-0.0071501],"type":"VEC3","name":"accessorPositions"},{"bufferView":2,"byteOffset":733472,"componentType":5126,"count":96,"type":"VEC4","name":"accessorTangents"},{"bufferView":1,"byteOffset":1101360,"componentType":5126,"count":96,"type":"VEC3","name":"accessorNormals"},{"bufferView":3,"byteOffset":366736,"componentType":5126,"count":96,"type":"VEC2","name":"accessorUVs"},{"bufferView":0,"byteOffset":285872,"componentType":5123,"count":168,"type":"SCALAR","name":"accessorIndices"},{"bufferView":1,"byteOffset":1102512,"componentType":5126,"count":99,"max":[-28.40499,2.929653,-28.298086],"min":[-29.471046,1.3404851,-28.312412],"type":"VEC3","name":"accessorPositions"},{"bufferView":2,"byteOffset":735008,"componentType":5126,"count":99,"type":"VEC4","name":"accessorTangents"},{"bufferView":1,"byteOffset":1103700,"componentType":5126,"count":99,"type":"VEC3","name":"accessorNormals"},{"bufferView":3,"byteOffset":367504,"componentType":5126,"count":99,"type":"VEC2","name":"accessorUVs"},{"bufferView":0,"byteOffset":286208,"componentType":5123,"count":132,"type":"SCALAR","name":"accessorIndices"},{"bufferView":1,"byteOffset":1104888,"componentType":5126,"count":96,"max":[0.70101464,0.3245767,0.0071501],"min":[-0.35996616,-0.52949834,-0.0071501],"type":"VEC3","name":"accessorPositions"},{"bufferView":2,"byteOffset":736592,"componentType":5126,"count":96,"type":"VEC4","name":"accessorTangents"},{"bufferView":1,"byteOffset":1106040,"componentType":5126,"count":96,"type":"VEC3","name":"accessorNormals"},{"bufferView":3,"byteOffset":368296,"componentType":5126,"count":96,"type":"VEC2","name":"accessorUVs"},{"bufferView":0,"byteOffset":286472,"componentType":5123,"count":132,"type":"SCALAR","name":"accessorIndices"},{"bufferView":1,"byteOffset":1107192,"componentType":5126,"count":82,"max":[0.37704316,0.70856416,0.0071501],"min":[-0.39211252,-0.71716493,-0.0071501],"type":"VEC3","name":"accessorPositions"},{"bufferView":2,"byteOffset":738128,"componentType":5126,"count":82,"type":"VEC4","name":"accessorTangents"},{"bufferView":1,"byteOffset":1108176,"componentType":5126,"count":82,"type":"VEC3","name":"accessorNormals"},{"bufferView":3,"byteOffset":369064,"componentType":5126,"count":82,"type":"VEC2","name":"accessorUVs"},{"bufferView":0,"byteOffset":286736,"componentType":5123,"count":480,"type":"SCALAR","name":"accessorIndices"},{"bufferView":1,"byteOffset":1109160,"componentType":5126,"count":162,"max":[0.02413,0.0027432,0.02413],"min":[-0.02413,-3.3027448E-14,-0.02413],"type":"VEC3","name":"accessorPositions"},{"bufferView":2,"byteOffset":739440,"componentType":5126,"count":162,"type":"VEC4","name":"accessorTangents"},{"bufferView":1,"byteOffset":1111104,"componentType":5126,"count":162,"type":"VEC3","name":"accessorNormals"},{"bufferView":3,"byteOffset":369720,"componentType":5126,"count":162,"type":"VEC2","name":"accessorUVs"},{"bufferView":0,"byteOffset":287696,"componentType":5123,"count":1926,"type":"SCALAR","name":"accessorIndices"},{"bufferView":1,"byteOffset":1113048,"componentType":5126,"count":404,"max":[0.02413,0.008763,0.02413],"min":[-0.02413,-3.3027448E-14,-0.02413],"type":"VEC3","name":"accessorPositions"},{"bufferView":2,"byteOffset":742032,"componentType":5126,"count":404,"type":"VEC4","name":"accessorTangents"},{"bufferView":1,"byteOffset":1117896,"componentType":5126,"count":404,"type":"VEC3","name":"accessorNormals"},{"bufferView":3,"byteOffset":371016,"componentType":5126,"count":404,"type":"VEC2","name":"accessorUVs"},{"bufferView":0,"byteOffset":291548,"componentType":5123,"count":852,"type":"SCALAR","name":"accessorIndices"},{"bufferView":1,"byteOffset":1122744,"componentType":5126,"count":290,"max":[0.02413,0.5568696,0.02413],"min":[-0.024130063,-3.9312695E-09,-0.024130063],"type":"VEC3","name":"accessorPositions"},{"bufferView":2,"byteOffset":748496,"componentType":5126,"count":290,"type":"VEC4","name":"accessorTangents"},{"bufferView":1,"byteOffset":1126224,"componentType":5126,"count":290,"type":"VEC3","name":"accessorNormals"},{"bufferView":3,"byteOffset":374248,"componentType":5126,"count":290,"type":"VEC2","name":"accessorUVs"},{"bufferView":0,"byteOffset":293252,"componentType":5123,"count":882,"type":"SCALAR","name":"accessorIndices"},{"bufferView":1,"byteOffset":1129704,"componentType":5126,"count":300,"max":[0.030480001,0.01905,0.01905],"min":[0.014810618,-0.01905,-0.01905],"type":"VEC3","name":"accessorPositions"},{"bufferView":2,"byteOffset":753136,"componentType":5126,"count":300,"type":"VEC4","name":"accessorTangents"},{"bufferView":1,"byteOffset":1133304,"componentType":5126,"count":300,"type":"VEC3","name":"accessorNormals"},{"bufferView":3,"byteOffset":376568,"componentType":5126,"count":300,"type":"VEC2","name":"accessorUVs"},{"bufferView":0,"byteOffset":295016,"componentType":5123,"count":210,"type":"SCALAR","name":"accessorIndices"},{"bufferView":1,"byteOffset":1136904,"componentType":5126,"count":72,"max":[0.030480001,0.01905,0.01905],"min":[0.030480001,-0.01905,-0.01905],"type":"VEC3","name":"accessorPositions"},{"bufferView":2,"byteOffset":757936,"componentType":5126,"count":72,"type":"VEC4","name":"accessorTangents"},{"bufferView":1,"byteOffset":1137768,"componentType":5126,"count":72,"type":"VEC3","name":"accessorNormals"},{"bufferView":3,"byteOffset":378968,"componentType":5126,"count":72,"type":"VEC2","name":"accessorUVs"},{"bufferView":0,"byteOffset":295436,"componentType":5123,"count":1728,"type":"SCALAR","name":"accessorIndices"},{"bufferView":1,"byteOffset":1138632,"componentType":5126,"count":580,"max":[0.0015748,0.0142875,0.0142875],"min":[1.8652728E-14,-0.0142875,-0.0142875],"type":"VEC3","name":"accessorPositions"},{"bufferView":2,"byteOffset":759088,"componentType":5126,"count":580,"type":"VEC4","name":"accessorTangents"},{"bufferView":1,"byteOffset":1145592,"componentType":5126,"count":580,"type":"VEC3","name":"accessorNormals"},{"bufferView":3,"byteOffset":379544,"componentType":5126,"count":580,"type":"VEC2","name":"accessorUVs"},{"bufferView":0,"byteOffset":298892,"componentType":5123,"count":1728,"type":"SCALAR","name":"accessorIndices"},{"bufferView":1,"byteOffset":1152552,"componentType":5126,"count":580,"max":[0.0015748,0.0142875,0.0142875],"min":[1.8652728E-14,-0.0142875,-0.0142875],"type":"VEC3","name":"accessorPositions"},{"bufferView":2,"byteOffset":768368,"componentType":5126,"count":580,"type":"VEC4","name":"accessorTangents"},{"bufferView":1,"byteOffset":1159512,"componentType":5126,"count":580,"type":"VEC3","name":"accessorNormals"},{"bufferView":3,"byteOffset":384184,"componentType":5126,"count":580,"type":"VEC2","name":"accessorUVs"},{"bufferView":0,"byteOffset":302348,"componentType":5123,"count":864,"type":"SCALAR","name":"accessorIndices"},{"bufferView":1,"byteOffset":1166472,"componentType":5126,"count":386,"max":[0.020017384,0.01905,0.01905],"min":[-0.0063500004,-0.01905,-0.01905],"type":"VEC3","name":"accessorPositions"},{"bufferView":2,"byteOffset":777648,"componentType":5126,"count":386,"type":"VEC4","name":"accessorTangents"},{"bufferView":1,"byteOffset":1171104,"componentType":5126,"count":386,"type":"VEC3","name":"accessorNormals"},{"bufferView":3,"byteOffset":388824,"componentType":5126,"count":386,"type":"VEC2","name":"accessorUVs"},{"bufferView":0,"byteOffset":304076,"componentType":5123,"count":858,"type":"SCALAR","name":"accessorIndices"},{"bufferView":1,"byteOffset":1175736,"componentType":5126,"count":289,"max":[0.020017384,0.01905,0.01905],"min":[-0.0063500004,-0.01905,-0.01905],"type":"VEC3","name":"accessorPositions"},{"bufferView":2,"byteOffset":783824,"componentType":5126,"count":289,"type":"VEC4","name":"accessorTangents"},{"bufferView":1,"byteOffset":1179204,"componentType":5126,"count":289,"type":"VEC3","name":"accessorNormals"},{"bufferView":3,"byteOffset":391912,"componentType":5126,"count":289,"type":"VEC2","name":"accessorUVs"},{"bufferView":0,"byteOffset":305792,"componentType":5123,"count":852,"type":"SCALAR","name":"accessorIndices"},{"bufferView":1,"byteOffset":1182672,"componentType":5126,"count":290,"max":[0.02413,0.5568696,0.02413],"min":[-0.024130063,-3.9312695E-09,-0.024130063],"type":"VEC3","name":"accessorPositions"},{"bufferView":2,"byteOffset":788448,"componentType":5126,"count":290,"type":"VEC4","name":"accessorTangents"},{"bufferView":1,"byteOffset":1186152,"componentType":5126,"count":290,"type":"VEC3","name":"accessorNormals"},{"bufferView":3,"byteOffset":394224,"componentType":5126,"count":290,"type":"VEC2","name":"accessorUVs"},{"bufferView":0,"byteOffset":307496,"componentType":5123,"count":852,"type":"SCALAR","name":"accessorIndices"},{"bufferView":1,"byteOffset":1189632,"componentType":5126,"count":290,"max":[0.02413,0.5568696,0.02413],"min":[-0.024130063,-3.9312695E-09,-0.024130063],"type":"VEC3","name":"accessorPositions"},{"bufferView":2,"byteOffset":793088,"componentType":5126,"count":290,"type":"VEC4","name":"accessorTangents"},{"bufferView":1,"byteOffset":1193112,"componentType":5126,"count":290,"type":"VEC3","name":"accessorNormals"},{"bufferView":3,"byteOffset":396544,"componentType":5126,"count":290,"type":"VEC2","name":"accessorUVs"},{"bufferView":0,"byteOffset":309200,"componentType":5123,"count":852,"type":"SCALAR","name":"accessorIndices"},{"bufferView":1,"byteOffset":1196592,"componentType":5126,"count":290,"max":[0.02413,0.5568696,0.02413],"min":[-0.024130063,-3.9312695E-09,-0.024130063],"type":"VEC3","name":"accessorPositions"},{"bufferView":2,"byteOffset":797728,"componentType":5126,"count":290,"type":"VEC4","name":"accessorTangents"},{"bufferView":1,"byteOffset":1200072,"componentType":5126,"count":290,"type":"VEC3","name":"accessorNormals"},{"bufferView":3,"byteOffset":398864,"componentType":5126,"count":290,"type":"VEC2","name":"accessorUVs"},{"bufferView":0,"byteOffset":310904,"componentType":5123,"count":852,"type":"SCALAR","name":"accessorIndices"},{"bufferView":1,"byteOffset":1203552,"componentType":5126,"count":290,"max":[0.024130438,0.5568696,0.02413],"min":[-0.024129998,-1.9080877E-08,-0.02413],"type":"VEC3","name":"accessorPositions"},{"bufferView":2,"byteOffset":802368,"componentType":5126,"count":290,"type":"VEC4","name":"accessorTangents"},{"bufferView":1,"byteOffset":1207032,"componentType":5126,"count":290,"type":"VEC3","name":"accessorNormals"},{"bufferView":3,"byteOffset":401184,"componentType":5126,"count":290,"type":"VEC2","name":"accessorUVs"},{"bufferView":0,"byteOffset":312608,"componentType":5123,"count":1728,"type":"SCALAR","name":"accessorIndices"},{"bufferView":1,"byteOffset":1210512,"componentType":5126,"count":580,"max":[0.0015748,0.0142875,0.0142875],"min":[1.8652728E-14,-0.0142875,-0.0142875],"type":"VEC3","name":"accessorPositions"},{"bufferView":2,"byteOffset":807008,"componentType":5126,"count":580,"type":"VEC4","name":"accessorTangents"},{"bufferView":1,"byteOffset":1217472,"componentType":5126,"count":580,"type":"VEC3","name":"accessorNormals"},{"bufferView":3,"byteOffset":403504,"componentType":5126,"count":580,"type":"VEC2","name":"accessorUVs"},{"bufferView":0,"byteOffset":316064,"componentType":5123,"count":1728,"type":"SCALAR","name":"accessorIndices"},{"bufferView":1,"byteOffset":1224432,"componentType":5126,"count":580,"max":[0.0015748,0.0142875,0.0142875],"min":[1.8652728E-14,-0.0142875,-0.0142875],"type":"VEC3","name":"accessorPositions"},{"bufferView":2,"byteOffset":816288,"componentType":5126,"count":580,"type":"VEC4","name":"accessorTangents"},{"bufferView":1,"byteOffset":1231392,"componentType":5126,"count":580,"type":"VEC3","name":"accessorNormals"},{"bufferView":3,"byteOffset":408144,"componentType":5126,"count":580,"type":"VEC2","name":"accessorUVs"},{"bufferView":0,"byteOffset":319520,"componentType":5123,"count":852,"type":"SCALAR","name":"accessorIndices"},{"bufferView":1,"byteOffset":1238352,"componentType":5126,"count":290,"max":[0.024130438,0.5568696,0.02413],"min":[-0.024129998,-1.9080877E-08,-0.02413],"type":"VEC3","name":"accessorPositions"},{"bufferView":2,"byteOffset":825568,"componentType":5126,"count":290,"type":"VEC4","name":"accessorTangents"},{"bufferView":1,"byteOffset":1241832,"componentType":5126,"count":290,"type":"VEC3","name":"accessorNormals"},{"bufferView":3,"byteOffset":412784,"componentType":5126,"count":290,"type":"VEC2","name":"accessorUVs"},{"bufferView":0,"byteOffset":321224,"componentType":5123,"count":852,"type":"SCALAR","name":"accessorIndices"},{"bufferView":1,"byteOffset":1245312,"componentType":5126,"count":290,"max":[0.024130438,0.5568696,0.02413],"min":[-0.024129998,-1.9080877E-08,-0.02413],"type":"VEC3","name":"accessorPositions"},{"bufferView":2,"byteOffset":830208,"componentType":5126,"count":290,"type":"VEC4","name":"accessorTangents"},{"bufferView":1,"byteOffset":1248792,"componentType":5126,"count":290,"type":"VEC3","name":"accessorNormals"},{"bufferView":3,"byteOffset":415104,"componentType":5126,"count":290,"type":"VEC2","name":"accessorUVs"},{"bufferView":0,"byteOffset":322928,"componentType":5123,"count":852,"type":"SCALAR","name":"accessorIndices"},{"bufferView":1,"byteOffset":1252272,"componentType":5126,"count":290,"max":[0.024129998,0.55686957,0.024129998],"min":[-0.024130048,-9.092242E-09,-0.024130173],"type":"VEC3","name":"accessorPositions"},{"bufferView":2,"byteOffset":834848,"componentType":5126,"count":290,"type":"VEC4","name":"accessorTangents"},{"bufferView":1,"byteOffset":1255752,"componentType":5126,"count":290,"type":"VEC3","name":"accessorNormals"},{"bufferView":3,"byteOffset":417424,"componentType":5126,"count":290,"type":"VEC2","name":"accessorUVs"},{"bufferView":0,"byteOffset":324632,"componentType":5123,"count":852,"type":"SCALAR","name":"accessorIndices"},{"bufferView":1,"byteOffset":1259232,"componentType":5126,"count":290,"max":[0.024129998,0.55686957,0.024129998],"min":[-0.024130048,-9.092242E-09,-0.024130173],"type":"VEC3","name":"accessorPositions"},{"bufferView":2,"byteOffset":839488,"componentType":5126,"count":290,"type":"VEC4","name":"accessorTangents"},{"bufferView":1,"byteOffset":1262712,"componentType":5126,"count":290,"type":"VEC3","name":"accessorNormals"},{"bufferView":3,"byteOffset":419744,"componentType":5126,"count":290,"type":"VEC2","name":"accessorUVs"},{"bufferView":0,"byteOffset":326336,"componentType":5123,"count":852,"type":"SCALAR","name":"accessorIndices"},{"bufferView":1,"byteOffset":1266192,"componentType":5126,"count":290,"max":[0.024129998,0.55686957,0.024129998],"min":[-0.024130048,-9.092242E-09,-0.024130173],"type":"VEC3","name":"accessorPositions"},{"bufferView":2,"byteOffset":844128,"componentType":5126,"count":290,"type":"VEC4","name":"accessorTangents"},{"bufferView":1,"byteOffset":1269672,"componentType":5126,"count":290,"type":"VEC3","name":"accessorNormals"},{"bufferView":3,"byteOffset":422064,"componentType":5126,"count":290,"type":"VEC2","name":"accessorUVs"},{"bufferView":0,"byteOffset":328040,"componentType":5123,"count":852,"type":"SCALAR","name":"accessorIndices"},{"bufferView":1,"byteOffset":1273152,"componentType":5126,"count":290,"max":[0.024129998,0.55686957,0.024129998],"min":[-0.024130048,-9.092242E-09,-0.024130173],"type":"VEC3","name":"accessorPositions"},{"bufferView":2,"byteOffset":848768,"componentType":5126,"count":290,"type":"VEC4","name":"accessorTangents"},{"bufferView":1,"byteOffset":1276632,"componentType":5126,"count":290,"type":"VEC3","name":"accessorNormals"},{"bufferView":3,"byteOffset":424384,"componentType":5126,"count":290,"type":"VEC2","name":"accessorUVs"},{"bufferView":0,"byteOffset":329744,"componentType":5123,"count":852,"type":"SCALAR","name":"accessorIndices"},{"bufferView":1,"byteOffset":1280112,"componentType":5126,"count":290,"max":[0.02413,0.55686957,0.024130031],"min":[-0.0241301,-4.3279704E-09,-0.024129998],"type":"VEC3","name":"accessorPositions"},{"bufferView":2,"byteOffset":853408,"componentType":5126,"count":290,"type":"VEC4","name":"accessorTangents"},{"bufferView":1,"byteOffset":1283592,"componentType":5126,"count":290,"type":"VEC3","name":"accessorNormals"},{"bufferView":3,"byteOffset":426704,"componentType":5126,"count":290,"type":"VEC2","name":"accessorUVs"},{"bufferView":0,"byteOffset":331448,"componentType":5123,"count":852,"type":"SCALAR","name":"accessorIndices"},{"bufferView":1,"byteOffset":1287072,"componentType":5126,"count":290,"max":[0.02413,0.55686957,0.024130031],"min":[-0.0241301,-4.3279704E-09,-0.024129998],"type":"VEC3","name":"accessorPositions"},{"bufferView":2,"byteOffset":858048,"componentType":5126,"count":290,"type":"VEC4","name":"accessorTangents"},{"bufferView":1,"byteOffset":1290552,"componentType":5126,"count":290,"type":"VEC3","name":"accessorNormals"},{"bufferView":3,"byteOffset":429024,"componentType":5126,"count":290,"type":"VEC2","name":"accessorUVs"},{"bufferView":0,"byteOffset":333152,"componentType":5123,"count":852,"type":"SCALAR","name":"accessorIndices"},{"bufferView":1,"byteOffset":1294032,"componentType":5126,"count":290,"max":[0.02413,0.55686957,0.024130031],"min":[-0.0241301,-4.3279704E-09,-0.024129998],"type":"VEC3","name":"accessorPositions"},{"bufferView":2,"byteOffset":862688,"componentType":5126,"count":290,"type":"VEC4","name":"accessorTangents"},{"bufferView":1,"byteOffset":1297512,"componentType":5126,"count":290,"type":"VEC3","name":"accessorNormals"},{"bufferView":3,"byteOffset":431344,"componentType":5126,"count":290,"type":"VEC2","name":"accessorUVs"},{"bufferView":0,"byteOffset":334856,"componentType":5123,"count":852,"type":"SCALAR","name":"accessorIndices"},{"bufferView":1,"byteOffset":1300992,"componentType":5126,"count":290,"max":[0.02413,0.55686957,0.024130031],"min":[-0.0241301,-4.3279704E-09,-0.024129998],"type":"VEC3","name":"accessorPositions"},{"bufferView":2,"byteOffset":867328,"componentType":5126,"count":290,"type":"VEC4","name":"accessorTangents"},{"bufferView":1,"byteOffset":1304472,"componentType":5126,"count":290,"type":"VEC3","name":"accessorNormals"},{"bufferView":3,"byteOffset":433664,"componentType":5126,"count":290,"type":"VEC2","name":"accessorUVs"},{"bufferView":0,"byteOffset":336560,"componentType":5123,"count":852,"type":"SCALAR","name":"accessorIndices"},{"bufferView":1,"byteOffset":1307952,"componentType":5126,"count":290,"max":[0.02413,0.46989992,0.024130026],"min":[-0.024130084,-4.3279704E-09,-0.024129998],"type":"VEC3","name":"accessorPositions"},{"bufferView":2,"byteOffset":871968,"componentType":5126,"count":290,"type":"VEC4","name":"accessorTangents"},{"bufferView":1,"byteOffset":1311432,"componentType":5126,"count":290,"type":"VEC3","name":"accessorNormals"},{"bufferView":3,"byteOffset":435984,"componentType":5126,"count":290,"type":"VEC2","name":"accessorUVs"},{"bufferView":0,"byteOffset":338264,"componentType":5123,"count":852,"type":"SCALAR","name":"accessorIndices"},{"bufferView":1,"byteOffset":1314912,"componentType":5126,"count":290,"max":[0.02413,0.46989992,0.024130026],"min":[-0.024130084,-4.3279704E-09,-0.024129998],"type":"VEC3","name":"accessorPositions"},{"bufferView":2,"byteOffset":876608,"componentType":5126,"count":290,"type":"VEC4","name":"accessorTangents"},{"bufferView":1,"byteOffset":1318392,"componentType":5126,"count":290,"type":"VEC3","name":"accessorNormals"},{"bufferView":3,"byteOffset":438304,"componentType":5126,"count":290,"type":"VEC2","name":"accessorUVs"},{"bufferView":0,"byteOffset":339968,"componentType":5123,"count":852,"type":"SCALAR","name":"accessorIndices"},{"bufferView":1,"byteOffset":1321872,"componentType":5126,"count":290,"max":[0.024130058,0.46990004,0.02413037],"min":[-0.02413,-1.9080877E-08,-0.024129998],"type":"VEC3","name":"accessorPositions"},{"bufferView":2,"byteOffset":881248,"componentType":5126,"count":290,"type":"VEC4","name":"accessorTangents"},{"bufferView":1,"byteOffset":1325352,"componentType":5126,"count":290,"type":"VEC3","name":"accessorNormals"},{"bufferView":3,"byteOffset":440624,"componentType":5126,"count":290,"type":"VEC2","name":"accessorUVs"},{"bufferView":0,"byteOffset":341672,"componentType":5123,"count":852,"type":"SCALAR","name":"accessorIndices"},{"bufferView":1,"byteOffset":1328832,"componentType":5126,"count":290,"max":[0.024129998,0.46989992,0.024129998],"min":[-0.02413004,-9.092242E-09,-0.024130145],"type":"VEC3","name":"accessorPositions"},{"bufferView":2,"byteOffset":885888,"componentType":5126,"count":290,"type":"VEC4","name":"accessorTangents"},{"bufferView":1,"byteOffset":1332312,"componentType":5126,"count":290,"type":"VEC3","name":"accessorNormals"},{"bufferView":3,"byteOffset":442944,"componentType":5126,"count":290,"type":"VEC2","name":"accessorUVs"},{"bufferView":0,"byteOffset":343376,"componentType":5123,"count":4416,"type":"SCALAR","name":"accessorIndices"},{"bufferView":1,"byteOffset":1335792,"componentType":5126,"count":991,"max":[0.05715,0.025400002,0.05715],"min":[-0.05715,-2.9469845E-15,-0.05715],"type":"VEC3","name":"accessorPositions"},{"bufferView":2,"byteOffset":890528,"componentType":5126,"count":991,"type":"VEC4","name":"accessorTangents"},{"bufferView":1,"byteOffset":1347684,"componentType":5126,"count":991,"type":"VEC3","name":"accessorNormals"},{"bufferView":3,"byteOffset":445264,"componentType":5126,"count":991,"type":"VEC2","name":"accessorUVs"},{"bufferView":0,"byteOffset":352208,"componentType":5123,"count":468,"type":"SCALAR","name":"accessorIndices"},{"bufferView":1,"byteOffset":1359576,"componentType":5126,"count":156,"max":[0.0541528,0.025400002,0.0541528],"min":[-0.0541528,0.025400002,-0.0541528],"type":"VEC3","name":"accessorPositions"},{"bufferView":2,"byteOffset":906384,"componentType":5126,"count":156,"type":"VEC4","name":"accessorTangents"},{"bufferView":1,"byteOffset":1361448,"componentType":5126,"count":156,"type":"VEC3","name":"accessorNormals"},{"bufferView":3,"byteOffset":453192,"componentType":5126,"count":156,"type":"VEC2","name":"accessorUVs"},{"bufferView":0,"byteOffset":353144,"componentType":5123,"count":201306,"type":"SCALAR","name":"accessorIndices"},{"bufferView":1,"byteOffset":1363320,"componentType":5126,"count":38119,"max":[-27.30563,3.6965744,-27.264956],"min":[-30.287746,2.1714768,-28.324299],"type":"VEC3","name":"accessorPositions"},{"bufferView":2,"byteOffset":908880,"componentType":5126,"count":38119,"type":"VEC4","name":"accessorTangents"},{"bufferView":1,"byteOffset":1820748,"componentType":5126,"count":38119,"type":"VEC3","name":"accessorNormals"},{"bufferView":3,"byteOffset":454440,"componentType":5126,"count":38119,"type":"VEC2","name":"accessorUVs"},{"bufferView":0,"byteOffset":755756,"componentType":5123,"count":246,"type":"SCALAR","name":"accessorIndices"},{"bufferView":1,"byteOffset":2278176,"componentType":5126,"count":84,"max":[-27.30563,3.6965744,-28.2862],"min":[-27.30563,3.6503658,-28.324299],"type":"VEC3","name":"accessorPositions"},{"bufferView":2,"byteOffset":1518784,"componentType":5126,"count":84,"type":"VEC4","name":"accessorTangents"},{"bufferView":1,"byteOffset":2279184,"componentType":5126,"count":84,"type":"VEC3","name":"accessorNormals"},{"bufferView":3,"byteOffset":759392,"componentType":5126,"count":84,"type":"VEC2","name":"accessorUVs"},{"bufferView":0,"byteOffset":756248,"componentType":5123,"count":852,"type":"SCALAR","name":"accessorIndices"},{"bufferView":1,"byteOffset":2280192,"componentType":5126,"count":290,"max":[0.024130173,0.55686957,0.02413],"min":[-0.024129998,-7.574798E-09,-0.02413],"type":"VEC3","name":"accessorPositions"},{"bufferView":2,"byteOffset":1520128,"componentType":5126,"count":290,"type":"VEC4","name":"accessorTangents"},{"bufferView":1,"byteOffset":2283672,"componentType":5126,"count":290,"type":"VEC3","name":"accessorNormals"},{"bufferView":3,"byteOffset":760064,"componentType":5126,"count":290,"type":"VEC2","name":"accessorUVs"},{"bufferView":0,"byteOffset":757952,"componentType":5123,"count":4080,"type":"SCALAR","name":"accessorIndices"},{"bufferView":1,"byteOffset":2287152,"componentType":5126,"count":1530,"max":[0.9106084,0.6469242,0.019062791],"min":[-1.0538441,-0.74506915,-0.019062791],"type":"VEC3","name":"accessorPositions"},{"bufferView":2,"byteOffset":1524768,"componentType":5126,"count":1530,"type":"VEC4","name":"accessorTangents"},{"bufferView":1,"byteOffset":2305512,"componentType":5126,"count":1530,"type":"VEC3","name":"accessorNormals"},{"bufferView":3,"byteOffset":762384,"componentType":5126,"count":1530,"type":"VEC2","name":"accessorUVs"},{"bufferView":0,"byteOffset":766112,"componentType":5123,"count":738,"type":"SCALAR","name":"accessorIndices"},{"bufferView":1,"byteOffset":2323872,"componentType":5126,"count":252,"max":[0.9106084,0.6469242,0.019062791],"min":[-1.0538441,-0.74506915,-0.019062791],"type":"VEC3","name":"accessorPositions"},{"bufferView":2,"byteOffset":1549248,"componentType":5126,"count":252,"type":"VEC4","name":"accessorTangents"},{"bufferView":1,"byteOffset":2326896,"componentType":5126,"count":252,"type":"VEC3","name":"accessorNormals"},{"bufferView":3,"byteOffset":774624,"componentType":5126,"count":252,"type":"VEC2","name":"accessorUVs"}],"bufferViews":[{"buffer":0,"byteLength":767588,"name":"bufferViewScalar"},{"buffer":0,"byteOffset":767588,"byteLength":2329920,"byteStride":12,"name":"bufferViewFloatVec3"},{"buffer":0,"byteOffset":3097508,"byteLength":1553280,"byteStride":16,"name":"bufferViewFloatVec4"},{"buffer":0,"byteOffset":4650788,"byteLength":776640,"byteStride":8,"name":"bufferViewFloatVec2"}],"buffers":[{"uri":"L-Shaped_Railing_Lo-Post_Round.bin","byteLength":5427428}],"materials":[{"pbrMetallicRoughness":{"baseColorFactor":[0.9999998,0.9999999,0.9999999,1.0],"metallicFactor":0.0,"roughnessFactor":0.1},"name":"Glass","extensions":{"KHR_materials_ior":{"ior":1.0},"KHR_materials_transmission":{"transmissionFactor":0.97},"KHR_materials_volume":{"thicknessFactor":0.56,"attenuationDistance":0.5,"attenuationColor":[0.49521634,0.56476736,0.5317566]}}},{"pbrMetallicRoughness":{"baseColorFactor":[0.9999998,0.9999999,0.9999999,1.0],"baseColorTexture":{"index":0,"extensions":{"KHR_texture_transform":{"offset":[0.19519997,0.8048],"rotation":1.5707964,"scale":[0.6096,0.6096],"texCoord":0}}},"roughnessFactor":0.2,"metallicRoughnessTexture":{"index":0,"extensions":{"KHR_texture_transform":{"offset":[0.19519997,0.8048],"rotation":1.5707964,"scale":[0.6096,0.6096],"texCoord":0}}}},"name":"Steel_Linear"},{"pbrMetallicRoughness":{"baseColorFactor":[0.9999998,0.9999999,0.9999999,1.0],"baseColorTexture":{"index":1},"roughnessFactor":0.2,"metallicRoughnessTexture":{"index":1}},"name":"Steel_Radial"},{"pbrMetallicRoughness":{"baseColorFactor":[0.10641303,0.10641304,0.10641304,1.0],"metallicFactor":0.0,"roughnessFactor":0.99,"metallicRoughnessTexture":{"index":2}},"name":"Rubber","extensions":{"KHR_materials_specular":{"specularFactor":0.1}}}],"textures":[{"sampler":0,"source":0,"name":"Metal_Brushed_Linear_4k.jpg"},{"sampler":0,"source":1,"name":"Metal_Brushed_Radial_4k.jpg"},{"sampler":0,"source":2,"name":"PowderCoat_Roughness_2k0.jpg"}],"images":[{"uri":"textures/Metal_Brushed_Linear_4k.jpg"},{"uri":"textures/Metal_Brushed_Radial_4k.jpg"},{"uri":"textures/PowderCoat_Roughness_2k0.jpg"}],"samplers":[{"magFilter":9729,"minFilter":9987}]}