{"asset":{"version":"2.0","generator":"babylon.js glTF exporter for 3dsmax 2026 v20251111.2"},"extensionsUsed":["KHR_materials_ior","KHR_materials_transmission","KHR_materials_volume","KHR_texture_transform","KHR_materials_specular"],"extensionsRequired":["KHR_texture_transform"],"scene":0,"scenes":[{"nodes":[0,1,2,3,4,5,6,7,8,9,10,11,12,13,14,15,16,17,18,19,20,21,22,23,24,25,26,27,28,29,30,31,32,33,34,35,36,37,38,39,40,41,42,43,44,45,46,47,48,49,50,51,52,53,54,55,56,57,58,59,60,61,62,63,64,65,66,67,68,69,70,71,72,73,74,75,76,77,78,79,80,81,82,83,84,85,86,87,88,89,90,91,92,93,94,95,96,97,98,99,100,101,102,103,104,105,106,107,108,109,110,111,112,113,114,115,116,117,118,119,120,121,122,123,124,125,126,127,128,129,130,131,132,133,134,135,136,137,138,139,140,141,142,143,144,145,146,147,148,149,150,151,152,153,154,155,156,157,158,159,160,161,162,163,164,165,166,167,168,169,170,171,172,173,174,175,176,177,178,179,180,181,182,183,184,185,186,187,188,189,190,191,192,193,194,195,196,197,198,199,200,201,202,203,204,205,206,207,208,209,210,211,212,213]}],"nodes":[{"mesh":0,"translation":[-0.18280497,2.1652887,-0.076767445],"name":"Infill_Glass_Raked & Horizontal Generic [8199751]"},{"mesh":1,"translation":[1.416044,3.26257,-0.076767445],"name":"Infill_Glass_Raked & Horizontal Generic [8200579]"},{"mesh":2,"translation":[-0.42627653,2.19456,0.054914895],"rotation":[0.5,-0.5,0.5,0.5],"name":"Infill_Glass_Transition Generic [8202170]"},{"mesh":3,"translation":[-0.42627653,0.92937434,1.2408333],"rotation":[-0.0,0.7071068,0.0,0.7071068],"name":"Infill_Glass_Raked & Horizontal Generic [8202939]"},{"mesh":4,"translation":[-27.512323,0.0,29.240168],"rotation":[-0.0,-0.7071068,0.0,0.7071067],"name":"Generic Models 1 Generic Models 1 [8568048]"},{"mesh":5,"translation":[-1.3739885,0.9293959,1.2408333],"rotation":[-0.0,0.7071068,0.0,0.7071068],"name":"Infill_Glass_Raked & Horizontal Generic [8735940]"},{"mesh":6,"translation":[-27.512323,0.0,29.240168],"rotation":[-0.0,-0.7071068,0.0,0.7071067],"name":"Generic Models 10 Generic Models 1 [8735975]"},{"mesh":7,"translation":[1.416044,3.2625408,-1.0244794],"rotation":[-0.0,3.133859E-15,0.0,1.0],"name":"Infill_Glass_Raked & Horizontal Generic [8736296]"},{"mesh":8,"translation":[-0.9978901,1.8699833,-1.0244794],"rotation":[-0.0,3.133859E-15,0.0,1.0],"name":"Infill_Glass_Raked & Horizontal Generic [8737682]"},{"mesh":9,"translation":[28.89472,0.0,27.28077],"name":"Casework 1 Casework 1 [8738332]"},{"mesh":10,"translation":[-1.3739858,1.8699833,-0.64838374],"rotation":[-0.0,-0.7071068,0.0,0.7071067],"name":"Infill_Glass_Raked & Horizontal Generic [8738822]"},{"mesh":11,"translation":[-1.3739885,1.4780358,0.44231918],"rotation":[-0.0,0.7071068,0.0,0.7071068],"name":"Infill_Glass_Raked & Horizontal Generic [8739593]"},{"mesh":12,"translation":[-1.3668379,1.4674848,-0.074374564],"rotation":[-0.0,-0.7071066,0.0,0.70710695],"name":"KON021 - Konic Washer Part [9193945]050"},{"mesh":12,"translation":[-1.3811393,1.4674848,-0.074374564],"rotation":[-0.0,0.7071068,0.0,0.7071067],"name":"KON021A - Adhesive Konic Washer Part [9193800]050"},{"mesh":12,"translation":[-1.3668379,1.721485,-0.074374564],"rotation":[-0.0,-0.7071066,0.0,0.70710695],"name":"KON021 - Konic Washer Part [9193945]049"},{"mesh":12,"translation":[-1.3811393,1.721485,-0.074374564],"rotation":[-0.0,0.7071068,0.0,0.7071067],"name":"KON021A - Adhesive Konic Washer Part [9193800]049"},{"mesh":12,"translation":[-1.3668422,1.4674848,-0.88134855],"rotation":[-0.0,-0.7071068,0.0,0.7071068],"name":"KON021 - Konic Washer Part [9193945]040"},{"mesh":12,"translation":[-1.3811389,1.4674848,-0.88134855],"rotation":[-0.0,0.7071067,0.0,0.7071068],"name":"KON021A - Adhesive Konic Washer Part [9193800]040"},{"mesh":12,"translation":[-1.3668422,1.721485,-0.88134855],"rotation":[-0.0,-0.7071068,0.0,0.7071068],"name":"KON021 - Konic Washer Part [9193945]039"},{"mesh":12,"translation":[-1.3811389,1.721485,-0.88134855],"rotation":[-0.0,0.7071067,0.0,0.7071068],"name":"KON021A - Adhesive Konic Washer Part [9193800]039"},{"mesh":12,"translation":[-1.2308598,1.4674848,-1.0173309],"rotation":[-0.0,-1.0,0.0,-2.8212997E-07],"name":"KON021 - Konic Washer Part [9193945]038"},{"mesh":12,"translation":[-1.2308598,1.4674848,-1.0316278],"name":"KON021A - Adhesive Konic Washer Part [9193800]038"},{"mesh":12,"translation":[-1.2308598,1.721485,-1.0173309],"rotation":[-0.0,-1.0,0.0,-2.8212997E-07],"name":"KON021 - Konic Washer Part [9193945]037"},{"mesh":12,"translation":[-1.2308598,1.721485,-1.0316278],"name":"KON021A - Adhesive Konic Washer Part [9193800]037"},{"mesh":12,"translation":[-0.71602607,1.4674848,-1.0173309],"rotation":[-0.0,-1.0,0.0,4.371139E-08],"name":"KON021 - Konic Washer Part [9193945]036"},{"mesh":12,"translation":[-0.71602607,1.4674848,-1.0316278],"rotation":[-0.0,-2.3841858E-07,0.0,1.0],"name":"KON021A - Adhesive Konic Washer Part [9193800]036"},{"mesh":12,"translation":[-0.71602607,1.721485,-1.0173309],"rotation":[-0.0,-1.0,0.0,4.371139E-08],"name":"KON021 - Konic Washer Part [9193945]035"},{"mesh":12,"translation":[-0.71602607,1.721485,-1.0316278],"rotation":[-0.0,-2.3841858E-07,0.0,1.0],"name":"KON021A - Adhesive Konic Washer Part [9193800]035"},{"mesh":12,"translation":[-0.44932607,1.5498316,-1.0173309],"rotation":[-0.0,-1.0,0.0,4.371139E-08],"name":"KON021 - Konic Washer Part [9193945]034"},{"mesh":12,"translation":[-0.44932607,1.5498316,-1.0316278],"rotation":[-0.0,-2.3841858E-07,0.0,1.0],"name":"KON021A - Adhesive Konic Washer Part [9193800]034"},{"mesh":12,"translation":[-0.44932607,1.8038318,-1.0173309],"rotation":[-0.0,-1.0,0.0,4.371139E-08],"name":"KON021 - Konic Washer Part [9193945]033"},{"mesh":12,"translation":[-0.44932607,1.8038318,-1.0316278],"rotation":[-0.0,-2.3841858E-07,0.0,1.0],"name":"KON021A - Adhesive Konic Washer Part [9193800]033"},{"mesh":12,"translation":[1.4287454,2.8299918,-1.0173309],"rotation":[-0.0,-1.0,0.0,4.371139E-08],"name":"KON021 - Konic Washer Part [9193945]032"},{"mesh":12,"translation":[1.4287454,2.8299918,-1.0316278],"rotation":[-0.0,-2.3841858E-07,0.0,1.0],"name":"KON021A - Adhesive Konic Washer Part [9193800]032"},{"mesh":12,"translation":[1.4287454,3.0839915,-1.0173309],"rotation":[-0.0,-1.0,0.0,4.371139E-08],"name":"KON021 - Konic Washer Part [9193945]031"},{"mesh":12,"translation":[1.4287454,3.0839915,-1.0316278],"rotation":[-0.0,-2.3841858E-07,0.0,1.0],"name":"KON021A - Adhesive Konic Washer Part [9193800]031"},{"mesh":12,"translation":[0.6293151,2.281352,-1.0173309],"rotation":[-0.0,-1.0,0.0,4.371139E-08],"name":"KON021 - Konic Washer Part [9193945]030"},{"mesh":12,"translation":[0.6293151,2.281352,-1.0316278],"rotation":[-0.0,-2.3841858E-07,0.0,1.0],"name":"KON021A - Adhesive Konic Washer Part [9193800]030"},{"mesh":12,"translation":[0.6293151,2.5353518,-1.0173309],"rotation":[-0.0,-1.0,0.0,4.371139E-08],"name":"KON021 - Konic Washer Part [9193945]029"},{"mesh":12,"translation":[0.6293151,2.5353518,-1.0316278],"rotation":[-0.0,-2.3841858E-07,0.0,1.0],"name":"KON021A - Adhesive Konic Washer Part [9193800]029"},{"mesh":12,"translation":[0.36284298,2.0984719,-1.0173309],"rotation":[-0.0,-1.0,0.0,4.371139E-08],"name":"KON021 - Konic Washer Part [9193945]028"},{"mesh":12,"translation":[0.36284298,2.0984719,-1.0316278],"rotation":[-0.0,-2.3841858E-07,0.0,1.0],"name":"KON021A - Adhesive Konic Washer Part [9193800]028"},{"mesh":12,"translation":[0.36284298,2.352472,-1.0173309],"rotation":[-0.0,-1.0,0.0,4.371139E-08],"name":"KON021 - Konic Washer Part [9193945]027"},{"mesh":12,"translation":[0.36284298,2.352472,-1.0316278],"rotation":[-0.0,-2.3841858E-07,0.0,1.0],"name":"KON021A - Adhesive Konic Washer Part [9193800]027"},{"mesh":12,"translation":[-1.3668379,0.45255175,1.5058869],"rotation":[-0.0,-0.7071068,0.0,0.7071067],"name":"KON021 - Konic Washer Part [9193945]026"},{"mesh":12,"translation":[-1.3811393,0.45255175,1.5058869],"rotation":[-0.0,0.7071066,0.0,0.70710695],"name":"KON021A - Adhesive Konic Washer Part [9193800]026"},{"mesh":12,"translation":[-1.3668379,0.7065517,1.5058869],"rotation":[-0.0,-0.7071068,0.0,0.7071067],"name":"KON021 - Konic Washer Part [9193945]025"},{"mesh":12,"translation":[-1.3811393,0.7065517,1.5058869],"rotation":[-0.0,0.7071066,0.0,0.70710695],"name":"KON021A - Adhesive Konic Washer Part [9193800]025"},{"mesh":12,"translation":[-1.3668379,0.8183117,0.9735472],"rotation":[-0.0,-0.7071068,0.0,0.7071067],"name":"KON021 - Konic Washer Part [9193945]024"},{"mesh":12,"translation":[-1.3811393,0.8183117,0.9735472],"rotation":[-0.0,0.7071066,0.0,0.70710695],"name":"KON021A - Adhesive Konic Washer Part [9193800]024"},{"mesh":12,"translation":[-1.3668379,1.0723119,0.9735472],"rotation":[-0.0,-0.7071068,0.0,0.7071067],"name":"KON021 - Konic Washer Part [9193945]023"},{"mesh":12,"translation":[-1.3811393,1.0723119,0.9735472],"rotation":[-0.0,0.7071066,0.0,0.70710695],"name":"KON021A - Adhesive Konic Washer Part [9193800]023"},{"mesh":12,"translation":[-1.3668379,1.0011919,0.70801455],"rotation":[-0.0,-0.7071068,0.0,0.7071067],"name":"KON021 - Konic Washer Part [9193945]022"},{"mesh":12,"translation":[-1.3811393,1.0011919,0.70801455],"rotation":[-0.0,0.7071066,0.0,0.70710695],"name":"KON021A - Adhesive Konic Washer Part [9193800]022"},{"mesh":12,"translation":[-1.3668379,1.255192,0.70801455],"rotation":[-0.0,-0.7071068,0.0,0.7071067],"name":"KON021 - Konic Washer Part [9193945]021"},{"mesh":12,"translation":[-1.3811393,1.255192,0.70801455],"rotation":[-0.0,0.7071066,0.0,0.70710695],"name":"KON021A - Adhesive Konic Washer Part [9193800]021"},{"mesh":12,"translation":[-1.3668379,1.3669521,0.17503314],"rotation":[-0.0,-0.7071068,0.0,0.7071067],"name":"KON021 - Konic Washer Part [9193945]020"},{"mesh":12,"translation":[-1.3811393,1.3669521,0.17503314],"rotation":[-0.0,0.7071066,0.0,0.70710695],"name":"KON021A - Adhesive Konic Washer Part [9193800]020"},{"mesh":12,"translation":[-1.3668379,1.6209518,0.17503314],"rotation":[-0.0,-0.7071068,0.0,0.7071067],"name":"KON021 - Konic Washer Part [9193945]019"},{"mesh":12,"translation":[-1.3811393,1.6209518,0.17503314],"rotation":[-0.0,0.7071066,0.0,0.70710695],"name":"KON021A - Adhesive Konic Washer Part [9193800]019"},{"mesh":12,"translation":[-0.43342492,0.45255175,1.5058869],"rotation":[-0.0,0.7071068,0.0,0.7071067],"name":"KON021 - Konic Washer Part [9193945]018"},{"mesh":12,"translation":[-0.41912812,0.45255175,1.5058869],"rotation":[-0.0,-0.70710695,0.0,0.7071066],"name":"KON021A - Adhesive Konic Washer Part [9193800]018"},{"mesh":12,"translation":[-0.43342492,0.7065517,1.5058869],"rotation":[-0.0,0.7071068,0.0,0.7071067],"name":"KON021 - Konic Washer Part [9193945]017"},{"mesh":12,"translation":[-0.41912812,0.7065517,1.5058869],"rotation":[-0.0,-0.70710695,0.0,0.7071066],"name":"KON021A - Adhesive Konic Washer Part [9193800]017"},{"mesh":12,"translation":[-0.43342492,0.8183117,0.9735472],"rotation":[-0.0,0.7071068,0.0,0.7071067],"name":"KON021 - Konic Washer Part [9193945]016"},{"mesh":12,"translation":[-0.41912812,0.8183117,0.9735472],"rotation":[-0.0,-0.70710695,0.0,0.7071066],"name":"KON021A - Adhesive Konic Washer Part [9193800]016"},{"mesh":12,"translation":[-0.43342492,1.0723119,0.9735472],"rotation":[-0.0,0.7071068,0.0,0.7071067],"name":"KON021 - Konic Washer Part [9193945]015"},{"mesh":12,"translation":[-0.41912812,1.0723119,0.9735472],"rotation":[-0.0,-0.70710695,0.0,0.7071066],"name":"KON021A - Adhesive Konic Washer Part [9193800]015"},{"mesh":12,"translation":[-0.43342492,1.0011919,0.70801455],"rotation":[-0.0,0.7071068,0.0,0.7071067],"name":"KON021 - Konic Washer Part [9193945]014"},{"mesh":12,"translation":[-0.41912812,1.0011919,0.70801455],"rotation":[-0.0,-0.70710695,0.0,0.7071066],"name":"KON021A - Adhesive Konic Washer Part [9193800]014"},{"mesh":12,"translation":[-0.43342492,1.255192,0.70801455],"rotation":[-0.0,0.7071068,0.0,0.7071067],"name":"KON021 - Konic Washer Part [9193945]013"},{"mesh":12,"translation":[-0.41912812,1.255192,0.70801455],"rotation":[-0.0,-0.70710695,0.0,0.7071066],"name":"KON021A - Adhesive Konic Washer Part [9193800]013"},{"mesh":12,"translation":[1.4287454,2.8299918,-0.08391813],"rotation":[-0.0,4.524159E-15,0.0,1.0],"name":"KON021 - Konic Washer Part [9193945]010"},{"mesh":12,"translation":[1.4287454,2.8299918,-0.06961668],"rotation":[-0.0,-1.0,0.0,2.8212997E-07],"name":"KON021A - Adhesive Konic Washer Part [9193800]010"},{"mesh":12,"translation":[1.4287454,3.0839915,-0.08391813],"rotation":[-0.0,4.524159E-15,0.0,1.0],"name":"KON021 - Konic Washer Part [9193945]009"},{"mesh":12,"translation":[1.4287454,3.0839915,-0.06961668],"rotation":[-0.0,-1.0,0.0,2.8212997E-07],"name":"KON021A - Adhesive Konic Washer Part [9193800]009"},{"mesh":12,"translation":[0.6293151,2.281352,-0.08391813],"rotation":[-0.0,4.524159E-15,0.0,1.0],"name":"KON021 - Konic Washer Part [9193945]008"},{"mesh":12,"translation":[0.6293151,2.281352,-0.06961668],"rotation":[-0.0,-1.0,0.0,2.8212997E-07],"name":"KON021A - Adhesive Konic Washer Part [9193800]008"},{"mesh":12,"translation":[0.6293151,2.5353518,-0.08391813],"rotation":[-0.0,4.524159E-15,0.0,1.0],"name":"KON021 - Konic Washer Part [9193945]007"},{"mesh":12,"translation":[0.6293151,2.5353518,-0.06961668],"rotation":[-0.0,-1.0,0.0,2.8212997E-07],"name":"KON021A - Adhesive Konic Washer Part [9193800]007"},{"mesh":12,"translation":[0.36284298,2.0984719,-0.08391813],"rotation":[-0.0,4.524159E-15,0.0,1.0],"name":"KON021 - Konic Washer Part [9193945]006"},{"mesh":12,"translation":[0.36284298,2.0984719,-0.06961668],"rotation":[-0.0,-1.0,0.0,2.8212997E-07],"name":"KON021A - Adhesive Konic Washer Part [9193800]006"},{"mesh":12,"translation":[0.36284298,2.352472,-0.08391813],"rotation":[-0.0,4.524159E-15,0.0,1.0],"name":"KON021 - Konic Washer Part [9193945]005"},{"mesh":12,"translation":[0.36284298,2.352472,-0.06961668],"rotation":[-0.0,-1.0,0.0,2.8212997E-07],"name":"KON021A - Adhesive Konic Washer Part [9193800]005"},{"mesh":12,"translation":[-0.21865472,1.7327118,-0.08391813],"rotation":[-0.0,4.524159E-15,0.0,1.0],"name":"KON021 - Konic Washer Part [9193945]004"},{"mesh":12,"translation":[-0.21865472,1.7327118,-0.06961668],"rotation":[-0.0,-1.0,0.0,2.8212997E-07],"name":"KON021A - Adhesive Konic Washer Part [9193800]004"},{"mesh":12,"translation":[-0.21865472,1.9867117,-0.08391813],"rotation":[-0.0,4.524159E-15,0.0,1.0],"name":"KON021 - Konic Washer Part [9193945]003"},{"mesh":12,"translation":[-0.21865472,1.9867117,-0.06961668],"rotation":[-0.0,-1.0,0.0,2.8212997E-07],"name":"KON021A - Adhesive Konic Washer Part [9193800]003"},{"mesh":12,"translation":[-0.43343946,1.6209518,0.1385099],"rotation":[-0.0,0.7071068,0.0,0.7071068],"name":"KON021 - Konic Washer Part [9193945]103"},{"mesh":12,"translation":[-0.43343946,1.3669521,0.1385099],"rotation":[-0.0,0.7071068,0.0,0.7071068],"name":"KON021 - Konic Washer Part [9193945]104"},{"mesh":12,"translation":[-0.419138,1.6209518,0.1385099],"rotation":[-0.0,-0.7071069,0.0,0.70710665],"name":"KON021A - Adhesive Konic Washer Part [9193800]103"},{"mesh":12,"translation":[-0.419138,1.3669521,0.1385099],"rotation":[-0.0,-0.7071069,0.0,0.70710665],"name":"KON021A - Adhesive Konic Washer Part [9193800]104"},{"mesh":13,"translation":[-1.3652658,1.4674848,-0.074374564],"name":"KON006 - Lower Panel Clamp Part [8739162]099"},{"mesh":13,"translation":[-1.3652658,1.721485,-0.074374564],"name":"KON006 - Lower Panel Clamp Part [8739162]098"},{"mesh":13,"translation":[-1.3652608,1.4674848,-0.88134855],"name":"KON006 - Lower Panel Clamp Part [8739162]089"},{"mesh":13,"translation":[-1.3652608,1.721485,-0.88134855],"name":"KON006 - Lower Panel Clamp Part [8739162]088"},{"mesh":13,"translation":[-1.2308598,1.4674848,-1.0157543],"rotation":[-0.0,-0.7071068,0.0,0.7071067],"name":"KON006 - Lower Panel Clamp Part [8739162]087"},{"mesh":13,"translation":[-1.2308598,1.721485,-1.0157543],"rotation":[-0.0,-0.7071068,0.0,0.7071067],"name":"KON006 - Lower Panel Clamp Part [8739162]086"},{"mesh":13,"translation":[-0.71602607,1.4674848,-1.0157543],"rotation":[-0.0,-0.7071068,0.0,0.7071067],"name":"KON006 - Lower Panel Clamp Part [8739162]085"},{"mesh":13,"translation":[-0.71602607,1.721485,-1.0157543],"rotation":[-0.0,-0.7071068,0.0,0.7071067],"name":"KON006 - Lower Panel Clamp Part [8739162]084"},{"mesh":13,"translation":[-0.44932607,1.5498316,-1.0157543],"rotation":[-0.0,-0.7071068,0.0,0.7071067],"name":"KON006 - Lower Panel Clamp Part [8739162]083"},{"mesh":13,"translation":[-0.44932607,1.8038318,-1.0157543],"rotation":[-0.0,-0.7071068,0.0,0.7071067],"name":"KON006 - Lower Panel Clamp Part [8739162]082"},{"mesh":13,"translation":[1.4287454,2.8299918,-1.0157543],"rotation":[-0.0,-0.7071068,0.0,0.7071067],"name":"KON006 - Lower Panel Clamp Part [8739162]081"},{"mesh":13,"translation":[1.4287454,3.0839915,-1.0157543],"rotation":[-0.0,-0.7071068,0.0,0.7071067],"name":"KON006 - Lower Panel Clamp Part [8739162]080"},{"mesh":13,"translation":[0.6293151,2.281352,-1.0157543],"rotation":[-0.0,-0.7071068,0.0,0.7071067],"name":"KON006 - Lower Panel Clamp Part [8739162]079"},{"mesh":13,"translation":[0.6293151,2.5353518,-1.0157543],"rotation":[-0.0,-0.7071068,0.0,0.7071067],"name":"KON006 - Lower Panel Clamp Part [8739162]078"},{"mesh":13,"translation":[0.36284298,2.0984719,-1.0157543],"rotation":[-0.0,-0.7071068,0.0,0.7071067],"name":"KON006 - Lower Panel Clamp Part [8739162]077"},{"mesh":13,"translation":[0.36284298,2.352472,-1.0157543],"rotation":[-0.0,-0.7071068,0.0,0.7071067],"name":"KON006 - Lower Panel Clamp Part [8739162]076"},{"mesh":13,"translation":[-1.3652658,0.45255175,1.5058869],"name":"KON006 - Lower Panel Clamp Part [8739162]075"},{"mesh":13,"translation":[-1.3652658,0.7065517,1.5058869],"name":"KON006 - Lower Panel Clamp Part [8739162]074"},{"mesh":13,"translation":[-1.3652658,0.8183117,0.9735472],"name":"KON006 - Lower Panel Clamp Part [8739162]073"},{"mesh":13,"translation":[-1.3652658,1.0723119,0.9735472],"name":"KON006 - Lower Panel Clamp Part [8739162]072"},{"mesh":13,"translation":[-1.3652658,1.0011919,0.70801455],"name":"KON006 - Lower Panel Clamp Part [8739162]071"},{"mesh":13,"translation":[-1.3652658,1.255192,0.70801455],"name":"KON006 - Lower Panel Clamp Part [8739162]070"},{"mesh":13,"translation":[-1.3652658,1.3669521,0.17503314],"name":"KON006 - Lower Panel Clamp Part [8739162]069"},{"mesh":13,"translation":[-1.3652658,1.6209518,0.17503314],"name":"KON006 - Lower Panel Clamp Part [8739162]068"},{"mesh":13,"translation":[-0.43500158,0.45255175,1.5058869],"rotation":[-0.0,-1.0,0.0,-1.6292068E-07],"name":"KON006 - Lower Panel Clamp Part [8739162]067"},{"mesh":13,"translation":[-0.43500158,0.7065517,1.5058869],"rotation":[-0.0,-1.0,0.0,-1.6292068E-07],"name":"KON006 - Lower Panel Clamp Part [8739162]066"},{"mesh":13,"translation":[-0.43500158,0.8183117,0.9735472],"rotation":[-0.0,-1.0,0.0,-1.6292068E-07],"name":"KON006 - Lower Panel Clamp Part [8739162]065"},{"mesh":13,"translation":[-0.43500158,1.0723119,0.9735472],"rotation":[-0.0,-1.0,0.0,-1.6292068E-07],"name":"KON006 - Lower Panel Clamp Part [8739162]064"},{"mesh":13,"translation":[-0.43500158,1.0011919,0.70801455],"rotation":[-0.0,-1.0,0.0,-1.6292068E-07],"name":"KON006 - Lower Panel Clamp Part [8739162]063"},{"mesh":13,"translation":[-0.43500158,1.255192,0.70801455],"rotation":[-0.0,-1.0,0.0,-1.6292068E-07],"name":"KON006 - Lower Panel Clamp Part [8739162]062"},{"mesh":13,"translation":[1.4287454,2.8299918,-0.08549013],"rotation":[-0.0,0.7071068,0.0,0.7071067],"name":"KON006 - Lower Panel Clamp Part [8739162]059"},{"mesh":13,"translation":[1.4287454,3.0839915,-0.08549013],"rotation":[-0.0,0.7071068,0.0,0.7071067],"name":"KON006 - Lower Panel Clamp Part [8739162]058"},{"mesh":13,"translation":[0.6293151,2.281352,-0.08549013],"rotation":[-0.0,0.7071068,0.0,0.7071067],"name":"KON006 - Lower Panel Clamp Part [8739162]057"},{"mesh":13,"translation":[0.6293151,2.5353518,-0.08549013],"rotation":[-0.0,0.7071068,0.0,0.7071067],"name":"KON006 - Lower Panel Clamp Part [8739162]056"},{"mesh":13,"translation":[0.36284298,2.0984719,-0.08549013],"rotation":[-0.0,0.7071068,0.0,0.7071067],"name":"KON006 - Lower Panel Clamp Part [8739162]055"},{"mesh":13,"translation":[0.36284298,2.352472,-0.08549013],"rotation":[-0.0,0.7071068,0.0,0.7071067],"name":"KON006 - Lower Panel Clamp Part [8739162]054"},{"mesh":13,"translation":[-0.21865472,1.7327118,-0.08549013],"rotation":[-0.0,0.7071068,0.0,0.7071067],"name":"KON006 - Lower Panel Clamp Part [8739162]053"},{"mesh":13,"translation":[-0.21865472,1.9867117,-0.08549013],"rotation":[-0.0,0.7071068,0.0,0.7071067],"name":"KON006 - Lower Panel Clamp Part [8739162]052"},{"mesh":13,"translation":[-0.43501148,1.6209518,0.1385099],"rotation":[-0.0,-1.0,0.0,-4.371139E-08],"name":"KON006 - Lower Panel Clamp Part [8739162]204"},{"mesh":13,"translation":[-0.43501148,1.3669521,0.1385099],"rotation":[-0.0,-1.0,0.0,-4.371139E-08],"name":"KON006 - Lower Panel Clamp Part [8739162]205"},{"mesh":14,"translation":[-1.4303641,1.721485,-0.074374564],"name":"KON002 - Barrel Mount Part [9048960]025"},{"mesh":14,"translation":[-1.4303639,1.721485,-0.88134855],"name":"KON002 - Barrel Mount Part [9048960]020"},{"mesh":14,"translation":[-1.2308598,1.721485,-1.0808526],"rotation":[-0.0,-0.7071068,0.0,0.7071067],"name":"KON002 - Barrel Mount Part [9048960]019"},{"mesh":14,"translation":[-0.71602607,1.721485,-1.0808526],"rotation":[-0.0,-0.7071068,0.0,0.7071067],"name":"KON002 - Barrel Mount Part [9048960]018"},{"mesh":14,"translation":[-0.44932607,1.8038318,-1.0808526],"rotation":[-0.0,-0.7071068,0.0,0.7071067],"name":"KON002 - Barrel Mount Part [9048960]017"},{"mesh":14,"translation":[1.4287454,3.0839915,-1.0808526],"rotation":[-0.0,-0.7071068,0.0,0.7071067],"name":"KON002 - Barrel Mount Part [9048960]016"},{"mesh":14,"translation":[0.6293151,2.5353518,-1.0808526],"rotation":[-0.0,-0.7071068,0.0,0.7071067],"name":"KON002 - Barrel Mount Part [9048960]015"},{"mesh":14,"translation":[0.36284298,2.352472,-1.0808526],"rotation":[-0.0,-0.7071068,0.0,0.7071067],"name":"KON002 - Barrel Mount Part [9048960]014"},{"mesh":14,"translation":[-1.4303641,0.7065517,1.5058869],"name":"KON002 - Barrel Mount Part [9048960]013"},{"mesh":14,"translation":[-1.4303641,1.0723119,0.9735472],"name":"KON002 - Barrel Mount Part [9048960]012"},{"mesh":14,"translation":[-1.4303641,1.255192,0.70801455],"name":"KON002 - Barrel Mount Part [9048960]011"},{"mesh":14,"translation":[-1.4303641,1.6209518,0.17503314],"name":"KON002 - Barrel Mount Part [9048960]010"},{"mesh":14,"translation":[-0.36990324,0.7065517,1.5058869],"rotation":[-0.0,-1.0,0.0,-1.6292068E-07],"name":"KON002 - Barrel Mount Part [9048960]009"},{"mesh":14,"translation":[-0.36990324,1.0723119,0.9735472],"rotation":[-0.0,-1.0,0.0,-1.6292068E-07],"name":"KON002 - Barrel Mount Part [9048960]008"},{"mesh":14,"translation":[-0.36990324,1.255192,0.70801455],"rotation":[-0.0,-1.0,0.0,-1.6292068E-07],"name":"KON002 - Barrel Mount Part [9048960]007"},{"mesh":14,"translation":[1.4287454,3.0839915,-0.020391779],"rotation":[-0.0,0.7071068,0.0,0.7071067],"name":"KON002 - Barrel Mount Part [9048960]005"},{"mesh":14,"translation":[0.6293151,2.5353518,-0.020391779],"rotation":[-0.0,0.7071068,0.0,0.7071067],"name":"KON002 - Barrel Mount Part [9048960]004"},{"mesh":14,"translation":[0.36284298,2.352472,-0.020391779],"rotation":[-0.0,0.7071068,0.0,0.7071067],"name":"KON002 - Barrel Mount Part [9048960]003"},{"mesh":14,"translation":[-0.21865472,1.9867117,-0.020391779],"rotation":[-0.0,0.7071068,0.0,0.7071067],"name":"KON002 - Barrel Mount Part [9048960]002"},{"mesh":14,"translation":[-1.4303641,1.4674848,-0.074374564],"name":"KON002 - Barrel Mount Part [9048960]050"},{"mesh":14,"translation":[-1.4303639,1.4674848,-0.88134855],"name":"KON002 - Barrel Mount Part [9048960]045"},{"mesh":14,"translation":[-1.2308598,1.4674848,-1.0808526],"rotation":[-0.0,-0.7071068,0.0,0.7071067],"name":"KON002 - Barrel Mount Part [9048960]044"},{"mesh":14,"translation":[-0.71602607,1.4674848,-1.0808526],"rotation":[-0.0,-0.7071068,0.0,0.7071067],"name":"KON002 - Barrel Mount Part [9048960]043"},{"mesh":14,"translation":[-0.44932607,1.5498316,-1.0808526],"rotation":[-0.0,-0.7071068,0.0,0.7071067],"name":"KON002 - Barrel Mount Part [9048960]042"},{"mesh":14,"translation":[1.4287454,2.8299918,-1.0808526],"rotation":[-0.0,-0.7071068,0.0,0.7071067],"name":"KON002 - Barrel Mount Part [9048960]041"},{"mesh":14,"translation":[0.6293151,2.281352,-1.0808526],"rotation":[-0.0,-0.7071068,0.0,0.7071067],"name":"KON002 - Barrel Mount Part [9048960]040"},{"mesh":14,"translation":[0.36284298,2.0984719,-1.0808526],"rotation":[-0.0,-0.7071068,0.0,0.7071067],"name":"KON002 - Barrel Mount Part [9048960]039"},{"mesh":14,"translation":[-1.4303641,0.45255175,1.5058869],"name":"KON002 - Barrel Mount Part [9048960]038"},{"mesh":14,"translation":[-1.4303641,0.8183117,0.9735472],"name":"KON002 - Barrel Mount Part [9048960]037"},{"mesh":14,"translation":[-1.4303641,1.0011919,0.70801455],"name":"KON002 - Barrel Mount Part [9048960]036"},{"mesh":14,"translation":[-1.4303641,1.3669521,0.17503314],"name":"KON002 - Barrel Mount Part [9048960]035"},{"mesh":14,"translation":[-0.36990324,0.45255175,1.5058869],"rotation":[-0.0,-1.0,0.0,-1.6292068E-07],"name":"KON002 - Barrel Mount Part [9048960]034"},{"mesh":14,"translation":[-0.36990324,0.8183117,0.9735472],"rotation":[-0.0,-1.0,0.0,-1.6292068E-07],"name":"KON002 - Barrel Mount Part [9048960]033"},{"mesh":14,"translation":[-0.36990324,1.0011919,0.70801455],"rotation":[-0.0,-1.0,0.0,-1.6292068E-07],"name":"KON002 - Barrel Mount Part [9048960]032"},{"mesh":14,"translation":[1.4287454,2.8299918,-0.020391779],"rotation":[-0.0,0.7071068,0.0,0.7071067],"name":"KON002 - Barrel Mount Part [9048960]030"},{"mesh":14,"translation":[0.6293151,2.281352,-0.020391779],"rotation":[-0.0,0.7071068,0.0,0.7071067],"name":"KON002 - Barrel Mount Part [9048960]029"},{"mesh":14,"translation":[0.36284298,2.0984719,-0.020391779],"rotation":[-0.0,0.7071068,0.0,0.7071067],"name":"KON002 - Barrel Mount Part [9048960]028"},{"mesh":14,"translation":[-0.21865472,1.7327118,-0.020391779],"rotation":[-0.0,0.7071068,0.0,0.7071067],"name":"KON002 - Barrel Mount Part [9048960]027"},{"mesh":14,"translation":[-0.3699131,1.6209518,0.1385099],"rotation":[-0.0,-1.0,0.0,-4.371139E-08],"name":"KON002 - Barrel Mount Part [9048960]103"},{"mesh":14,"translation":[-0.3699131,1.3669521,0.1385099],"rotation":[-0.0,-1.0,0.0,-4.371139E-08],"name":"KON002 - Barrel Mount Part [9048960]104"},{"mesh":15,"translation":[-1.4303641,1.2801597,-0.074374564],"rotation":[6.322028E-08,6.322026E-08,0.70710665,0.7071069],"name":"LS201 & LS202 - Konic Post Material LS Material [9049081]"},{"mesh":16,"translation":[-1.4303641,1.2801597,-0.074374564],"rotation":[-0.0,-1.0,0.0,-1.6292068E-07],"name":"KON018 - Surface Mount Weldment Part [9049080]025"},{"mesh":16,"translation":[-1.4303639,1.2801597,-0.88134855],"rotation":[-0.0,-1.0,0.0,2.8212997E-07],"name":"KON018 - Surface Mount Weldment Part [9049080]020"},{"mesh":16,"translation":[-1.2308598,1.2801597,-1.0808526],"rotation":[-0.0,0.7071068,0.0,0.7071067],"name":"KON018 - Surface Mount Weldment Part [9049080]019"},{"mesh":16,"translation":[-0.71602607,1.2801597,-1.0808526],"rotation":[-0.0,0.7071068,0.0,0.7071067],"name":"KON018 - Surface Mount Weldment Part [9049080]018"},{"mesh":16,"translation":[-0.44932607,1.2801597,-1.0808526],"rotation":[-0.0,0.7071068,0.0,0.7071067],"name":"KON018 - Surface Mount Weldment Part [9049080]017"},{"mesh":16,"translation":[1.4287454,2.56032,-1.0808526],"rotation":[-0.0,0.7071068,0.0,0.7071067],"name":"KON018 - Surface Mount Weldment Part [9049080]016"},{"mesh":16,"translation":[0.6293151,2.01168,-1.0808526],"rotation":[-0.0,0.7071068,0.0,0.7071067],"name":"KON018 - Surface Mount Weldment Part [9049080]015"},{"mesh":16,"translation":[0.36284298,1.8288,-1.0808526],"rotation":[-0.0,0.7071068,0.0,0.7071067],"name":"KON018 - Surface Mount Weldment Part [9049080]014"},{"mesh":16,"translation":[-1.4303641,0.18288012,1.5058869],"rotation":[-0.0,-1.0,0.0,-1.6292068E-07],"name":"KON018 - Surface Mount Weldment Part [9049080]013"},{"mesh":16,"translation":[-1.4303641,0.5486401,0.9735472],"rotation":[-0.0,-1.0,0.0,-1.6292068E-07],"name":"KON018 - Surface Mount Weldment Part [9049080]012"},{"mesh":16,"translation":[-1.4303641,0.7315199,0.70801455],"rotation":[-0.0,-1.0,0.0,-1.6292068E-07],"name":"KON018 - Surface Mount Weldment Part [9049080]011"},{"mesh":16,"translation":[-1.4303641,1.0972801,0.17503314],"rotation":[-0.0,-1.0,0.0,-1.6292068E-07],"name":"KON018 - Surface Mount Weldment Part [9049080]010"},{"mesh":16,"translation":[-0.36990324,0.18288012,1.5058869],"name":"KON018 - Surface Mount Weldment Part [9049080]009"},{"mesh":16,"translation":[-0.36990324,0.5486401,0.9735472],"name":"KON018 - Surface Mount Weldment Part [9049080]008"},{"mesh":16,"translation":[-0.36990324,0.7315199,0.70801455],"name":"KON018 - Surface Mount Weldment Part [9049080]007"},{"mesh":16,"translation":[1.4287454,2.56032,-0.020391779],"rotation":[-0.0,-0.7071068,0.0,0.7071067],"name":"KON018 - Surface Mount Weldment Part [9049080]005"},{"mesh":16,"translation":[0.6293151,2.01168,-0.020391779],"rotation":[-0.0,-0.7071068,0.0,0.7071067],"name":"KON018 - Surface Mount Weldment Part [9049080]004"},{"mesh":16,"translation":[0.36284298,1.8288,-0.020391779],"rotation":[-0.0,-0.7071068,0.0,0.7071067],"name":"KON018 - Surface Mount Weldment Part [9049080]003"},{"mesh":16,"translation":[-0.21865472,1.4630404,-0.020391779],"rotation":[-0.0,-0.7071068,0.0,0.7071067],"name":"KON018 - Surface Mount Weldment Part [9049080]002"},{"mesh":16,"translation":[-0.3699131,1.0972801,0.1385099],"rotation":[-0.0,-3.2584137E-07,0.0,1.0],"name":"KON018 - Surface Mount Weldment Part [9049080]052"},{"mesh":17,"translation":[-1.4303639,1.2801597,-0.88134855],"rotation":[5.533139E-22,-5.533139E-22,0.7071068,0.7071067],"name":"LS201 & LS202 - Konic Post Material LS Material [9048987]"},{"mesh":18,"translation":[-1.2308598,1.2801597,-1.0808526],"rotation":[-0.5,-0.50000006,0.5,0.49999994],"name":"LS201 & LS202 - Konic Post Material LS Material [9048969]"},{"mesh":19,"translation":[-0.71602607,1.2801597,-1.0808526],"rotation":[-0.5,-0.50000006,0.5,0.49999994],"name":"LS201 & LS202 - Konic Post Material LS Material [9048949]"},{"mesh":20,"translation":[-0.44932607,1.2801597,-1.0808526],"rotation":[-0.5,-0.50000006,0.5,0.49999994],"name":"LS201 & LS202 - Konic Post Material LS Material [9048914]"},{"mesh":21,"translation":[1.4287454,2.56032,-1.0808526],"rotation":[-0.5,-0.50000006,0.5,0.49999994],"name":"LS201 & LS202 - Konic Post Material LS Material [9048890]"},{"mesh":22,"translation":[0.6293151,2.01168,-1.0808526],"rotation":[-0.5,-0.50000006,0.5,0.49999994],"name":"LS201 & LS202 - Konic Post Material LS Material [9048885]"},{"mesh":23,"translation":[0.36284298,1.8288,-1.0808526],"rotation":[-0.5,-0.50000006,0.5,0.49999994],"name":"LS201 & LS202 - Konic Post Material LS Material [9048880]"},{"mesh":24,"translation":[-1.4303641,0.18288012,1.5058869],"rotation":[6.322028E-08,6.322026E-08,0.70710665,0.7071069],"name":"LS201 & LS202 - Konic Post Material LS Material [9048834]"},{"mesh":25,"translation":[-1.4303641,0.5486401,0.9735472],"rotation":[6.322028E-08,6.322026E-08,0.70710665,0.7071069],"name":"LS201 & LS202 - Konic Post Material LS Material [9048829]"},{"mesh":26,"translation":[-1.4303641,0.7315199,0.70801455],"rotation":[6.322028E-08,6.322026E-08,0.70710665,0.7071069],"name":"LS201 & LS202 - Konic Post Material LS Material [9048824]"},{"mesh":27,"translation":[-1.4303641,1.0972801,0.17503314],"rotation":[6.322028E-08,6.322026E-08,0.70710665,0.7071069],"name":"LS201 & LS202 - Konic Post Material LS Material [9048819]"},{"mesh":27,"translation":[-0.3699131,1.0972801,0.1385099],"rotation":[-0.7071069,-0.70710665,7.44585E-08,7.4458505E-08],"name":"LS201 & LS202 - Konic Post Material LS Material [9048819]003"},{"mesh":28,"translation":[-0.36990324,0.18288012,1.5058869],"rotation":[-0.7071067,-0.7071068,-1.1520233E-07,-1.1520231E-07],"name":"LS201 & LS202 - Konic Post Material LS Material [9048652]"},{"mesh":29,"translation":[-0.36990324,0.5486401,0.9735472],"rotation":[-0.7071067,-0.7071068,-1.1520233E-07,-1.1520231E-07],"name":"LS201 & LS202 - Konic Post Material LS Material [9048634]"},{"mesh":30,"translation":[-0.36990324,0.7315199,0.70801455],"rotation":[-0.7071067,-0.7071068,-1.1520233E-07,-1.1520231E-07],"name":"LS201 & LS202 - Konic Post Material LS Material [9048616]"},{"mesh":31,"translation":[1.4287454,2.56032,-0.020391779],"rotation":[0.5000001,0.49999997,0.49999985,0.50000006],"name":"LS201 & LS202 - Konic Post Material LS Material [9048587]"},{"mesh":32,"translation":[0.6293151,2.01168,-0.020391779],"rotation":[0.5000001,0.49999997,0.49999985,0.50000006],"name":"LS201 & LS202 - Konic Post Material LS Material [9048569]"},{"mesh":33,"translation":[0.36284298,1.8288,-0.020391779],"rotation":[0.5000001,0.49999997,0.49999985,0.50000006],"name":"LS201 & LS202 - Konic Post Material LS Material [9048551]"},{"mesh":34,"translation":[-0.21865472,1.4630404,-0.020391779],"rotation":[0.5000001,0.49999997,0.49999985,0.50000006],"name":"LS201 & LS202 - Konic Post Material LS Material [9048531]"},{"mesh":35,"translation":[28.89472,0.0,27.28077],"name":"Object"},{"mesh":36,"translation":[0.6784653,3.0497246,-0.07691128],"name":"Generic Models 11 Generic Models 11 [8762451]005"}],"meshes":[{"primitives":[{"attributes":{"POSITION":1,"TANGENT":2,"NORMAL":3,"TEXCOORD_0":4},"indices":0,"material":0}],"name":"Infill_Glass_Raked & Horizontal Generic [8199751]"},{"primitives":[{"attributes":{"POSITION":6,"TANGENT":7,"NORMAL":8,"TEXCOORD_0":9},"indices":5,"material":0}],"name":"Infill_Glass_Raked & Horizontal Generic [8200579]"},{"primitives":[{"attributes":{"POSITION":11,"TANGENT":12,"NORMAL":13,"TEXCOORD_0":14},"indices":10,"material":0}],"name":"Infill_Glass_Transition Generic [8202170]"},{"primitives":[{"attributes":{"POSITION":16,"TANGENT":17,"NORMAL":18,"TEXCOORD_0":19},"indices":15,"material":0}],"name":"Infill_Glass_Raked & Horizontal Generic [8202939]"},{"primitives":[{"attributes":{"POSITION":21,"TANGENT":22,"NORMAL":23,"TEXCOORD_0":24},"indices":20,"material":1},{"attributes":{"POSITION":26,"TANGENT":27,"NORMAL":28,"TEXCOORD_0":29},"indices":25,"material":2}],"name":"Generic Models 1 Generic Models 1 [8568048]"},{"primitives":[{"attributes":{"POSITION":31,"TANGENT":32,"NORMAL":33,"TEXCOORD_0":34},"indices":30,"material":0}],"name":"Infill_Glass_Raked & Horizontal Generic [8735940]"},{"primitives":[{"attributes":{"POSITION":36,"TANGENT":37,"NORMAL":38,"TEXCOORD_0":39},"indices":35,"material":1},{"attributes":{"POSITION":41,"TANGENT":42,"NORMAL":43,"TEXCOORD_0":44},"indices":40,"material":2}],"name":"Generic Models 10 Generic Models 1 [8735975]"},{"primitives":[{"attributes":{"POSITION":46,"TANGENT":47,"NORMAL":48,"TEXCOORD_0":49},"indices":45,"material":0}],"name":"Infill_Glass_Raked & Horizontal Generic [8736296]"},{"primitives":[{"attributes":{"POSITION":51,"TANGENT":52,"NORMAL":53,"TEXCOORD_0":54},"indices":50,"material":0}],"name":"Infill_Glass_Raked & Horizontal Generic [8737682]"},{"primitives":[{"attributes":{"POSITION":56,"TANGENT":57,"NORMAL":58,"TEXCOORD_0":59},"indices":55,"material":0}],"name":"Casework 1 Casework 1 [8738332]"},{"primitives":[{"attributes":{"POSITION":61,"TANGENT":62,"NORMAL":63,"TEXCOORD_0":64},"indices":60,"material":0}],"name":"Infill_Glass_Raked & Horizontal Generic [8738822]"},{"primitives":[{"attributes":{"POSITION":66,"TANGENT":67,"NORMAL":68,"TEXCOORD_0":69},"indices":65,"material":0}],"name":"Infill_Glass_Raked & Horizontal Generic [8739593]"},{"primitives":[{"attributes":{"POSITION":71,"TANGENT":72,"NORMAL":73,"TEXCOORD_0":74},"indices":70,"material":3}],"name":"KON021 - Konic Washer Part [9193945]050"},{"primitives":[{"attributes":{"POSITION":76,"TANGENT":77,"NORMAL":78,"TEXCOORD_0":79},"indices":75,"material":1},{"attributes":{"POSITION":81,"TANGENT":82,"NORMAL":83,"TEXCOORD_0":84},"indices":80,"material":2}],"name":"KON006 - Lower Panel Clamp Part [8739162]099"},{"primitives":[{"attributes":{"POSITION":86,"TANGENT":87,"NORMAL":88,"TEXCOORD_0":89},"indices":85,"material":1},{"attributes":{"POSITION":91,"TANGENT":92,"NORMAL":93,"TEXCOORD_0":94},"indices":90,"material":2}],"name":"KON002 - Barrel Mount Part [9048960]025"},{"primitives":[{"attributes":{"POSITION":96,"TANGENT":97,"NORMAL":98,"TEXCOORD_0":99},"indices":95,"material":1}],"name":"LS201 & LS202 - Konic Post Material LS Material [9049081]"},{"primitives":[{"attributes":{"POSITION":101,"TANGENT":102,"NORMAL":103,"TEXCOORD_0":104},"indices":100,"material":1},{"attributes":{"POSITION":106,"TANGENT":107,"NORMAL":108,"TEXCOORD_0":109},"indices":105,"material":2}],"name":"KON018 - Surface Mount Weldment Part [9049080]025"},{"primitives":[{"attributes":{"POSITION":111,"TANGENT":112,"NORMAL":113,"TEXCOORD_0":114},"indices":110,"material":1}],"name":"LS201 & LS202 - Konic Post Material LS Material [9048987]"},{"primitives":[{"attributes":{"POSITION":116,"TANGENT":117,"NORMAL":118,"TEXCOORD_0":119},"indices":115,"material":1}],"name":"LS201 & LS202 - Konic Post Material LS Material [9048969]"},{"primitives":[{"attributes":{"POSITION":121,"TANGENT":122,"NORMAL":123,"TEXCOORD_0":124},"indices":120,"material":1}],"name":"LS201 & LS202 - Konic Post Material LS Material [9048949]"},{"primitives":[{"attributes":{"POSITION":126,"TANGENT":127,"NORMAL":128,"TEXCOORD_0":129},"indices":125,"material":1}],"name":"LS201 & LS202 - Konic Post Material LS Material [9048914]"},{"primitives":[{"attributes":{"POSITION":131,"TANGENT":132,"NORMAL":133,"TEXCOORD_0":134},"indices":130,"material":1}],"name":"LS201 & LS202 - Konic Post Material LS Material [9048890]"},{"primitives":[{"attributes":{"POSITION":136,"TANGENT":137,"NORMAL":138,"TEXCOORD_0":139},"indices":135,"material":1}],"name":"LS201 & LS202 - Konic Post Material LS Material [9048885]"},{"primitives":[{"attributes":{"POSITION":141,"TANGENT":142,"NORMAL":143,"TEXCOORD_0":144},"indices":140,"material":1}],"name":"LS201 & LS202 - Konic Post Material LS Material [9048880]"},{"primitives":[{"attributes":{"POSITION":146,"TANGENT":147,"NORMAL":148,"TEXCOORD_0":149},"indices":145,"material":1}],"name":"LS201 & LS202 - Konic Post Material LS Material [9048834]"},{"primitives":[{"attributes":{"POSITION":151,"TANGENT":152,"NORMAL":153,"TEXCOORD_0":154},"indices":150,"material":1}],"name":"LS201 & LS202 - Konic Post Material LS Material [9048829]"},{"primitives":[{"attributes":{"POSITION":156,"TANGENT":157,"NORMAL":158,"TEXCOORD_0":159},"indices":155,"material":1}],"name":"LS201 & LS202 - Konic Post Material LS Material [9048824]"},{"primitives":[{"attributes":{"POSITION":161,"TANGENT":162,"NORMAL":163,"TEXCOORD_0":164},"indices":160,"material":1}],"name":"LS201 & LS202 - Konic Post Material LS Material [9048819]"},{"primitives":[{"attributes":{"POSITION":166,"TANGENT":167,"NORMAL":168,"TEXCOORD_0":169},"indices":165,"material":1}],"name":"LS201 & LS202 - Konic Post Material LS Material [9048652]"},{"primitives":[{"attributes":{"POSITION":171,"TANGENT":172,"NORMAL":173,"TEXCOORD_0":174},"indices":170,"material":1}],"name":"LS201 & LS202 - Konic Post Material LS Material [9048634]"},{"primitives":[{"attributes":{"POSITION":176,"TANGENT":177,"NORMAL":178,"TEXCOORD_0":179},"indices":175,"material":1}],"name":"LS201 & LS202 - Konic Post Material LS Material [9048616]"},{"primitives":[{"attributes":{"POSITION":181,"TANGENT":182,"NORMAL":183,"TEXCOORD_0":184},"indices":180,"material":1}],"name":"LS201 & LS202 - Konic Post Material LS Material [9048587]"},{"primitives":[{"attributes":{"POSITION":186,"TANGENT":187,"NORMAL":188,"TEXCOORD_0":189},"indices":185,"material":1}],"name":"LS201 & LS202 - Konic Post Material LS Material [9048569]"},{"primitives":[{"attributes":{"POSITION":191,"TANGENT":192,"NORMAL":193,"TEXCOORD_0":194},"indices":190,"material":1}],"name":"LS201 & LS202 - Konic Post Material LS Material [9048551]"},{"primitives":[{"attributes":{"POSITION":196,"TANGENT":197,"NORMAL":198,"TEXCOORD_0":199},"indices":195,"material":1}],"name":"LS201 & LS202 - Konic Post Material LS Material [9048531]"},{"primitives":[{"attributes":{"POSITION":201,"TANGENT":202,"NORMAL":203,"TEXCOORD_0":204},"indices":200,"material":1},{"attributes":{"POSITION":206,"TANGENT":207,"NORMAL":208,"TEXCOORD_0":209},"indices":205,"material":2}],"name":"Object"},{"primitives":[{"attributes":{"POSITION":211,"TANGENT":212,"NORMAL":213,"TEXCOORD_0":214},"indices":210,"material":1},{"attributes":{"POSITION":216,"TANGENT":217,"NORMAL":218,"TEXCOORD_0":219},"indices":215,"material":2}],"name":"Generic Models 11 Generic Models 11 [8762451]005"}],"accessors":[{"bufferView":0,"componentType":5123,"count":132,"type":"SCALAR","name":"accessorIndices"},{"bufferView":1,"componentType":5126,"count":82,"max":[0.67253757,0.76435065,0.0071501],"min":[-0.1888937,-0.7240815,-0.0071501],"type":"VEC3","name":"accessorPositions"},{"bufferView":2,"componentType":5126,"count":82,"type":"VEC4","name":"accessorTangents"},{"bufferView":1,"byteOffset":984,"componentType":5126,"count":82,"type":"VEC3","name":"accessorNormals"},{"bufferView":3,"componentType":5126,"count":82,"type":"VEC2","name":"accessorUVs"},{"bufferView":0,"byteOffset":264,"componentType":5123,"count":132,"type":"SCALAR","name":"accessorIndices"},{"bufferView":1,"byteOffset":1968,"componentType":5126,"count":82,"max":[0.16510001,0.41611978,0.0071501],"min":[-0.9136126,-1.2214502,-0.0071501],"type":"VEC3","name":"accessorPositions"},{"bufferView":2,"byteOffset":1312,"componentType":5126,"count":82,"type":"VEC4","name":"accessorTangents"},{"bufferView":1,"byteOffset":2952,"componentType":5126,"count":82,"type":"VEC3","name":"accessorNormals"},{"bufferView":3,"byteOffset":656,"componentType":5126,"count":82,"type":"VEC2","name":"accessorUVs"},{"bufferView":0,"byteOffset":528,"componentType":5123,"count":168,"type":"SCALAR","name":"accessorIndices"},{"bufferView":1,"byteOffset":3936,"componentType":5126,"count":109,"max":[0.77951753,0.0071501,1.4337071],"min":[-0.068804964,-0.0071501024,-0.0],"type":"VEC3","name":"accessorPositions"},{"bufferView":2,"byteOffset":2624,"componentType":5126,"count":109,"type":"VEC4","name":"accessorTangents"},{"bufferView":1,"byteOffset":5244,"componentType":5126,"count":109,"type":"VEC3","name":"accessorNormals"},{"bufferView":3,"byteOffset":1312,"componentType":5126,"count":109,"type":"VEC2","name":"accessorUVs"},{"bufferView":0,"byteOffset":864,"componentType":5123,"count":132,"type":"SCALAR","name":"accessorIndices"},{"bufferView":1,"byteOffset":6552,"componentType":5126,"count":82,"max":[0.3937,0.71999997,0.0071501],"min":[-0.4111075,-0.730215,-0.0071501],"type":"VEC3","name":"accessorPositions"},{"bufferView":2,"byteOffset":4368,"componentType":5126,"count":82,"type":"VEC4","name":"accessorTangents"},{"bufferView":1,"byteOffset":7536,"componentType":5126,"count":82,"type":"VEC3","name":"accessorNormals"},{"bufferView":3,"byteOffset":2184,"componentType":5126,"count":82,"type":"VEC2","name":"accessorUVs"},{"bufferView":0,"byteOffset":1128,"componentType":5123,"count":49806,"type":"SCALAR","name":"accessorIndices"},{"bufferView":1,"byteOffset":8520,"componentType":5126,"count":10012,"max":[-27.580276,2.2050376,-27.06699],"min":[-29.259083,1.0594896,-27.105263],"type":"VEC3","name":"accessorPositions"},{"bufferView":2,"byteOffset":5680,"componentType":5126,"count":10012,"type":"VEC4","name":"accessorTangents"},{"bufferView":1,"byteOffset":128664,"componentType":5126,"count":10012,"type":"VEC3","name":"accessorNormals"},{"bufferView":3,"byteOffset":2840,"componentType":5126,"count":10012,"type":"VEC2","name":"accessorUVs"},{"bufferView":0,"byteOffset":100740,"componentType":5123,"count":456,"type":"SCALAR","name":"accessorIndices"},{"bufferView":1,"byteOffset":248808,"componentType":5126,"count":156,"max":[-27.580276,2.2050376,-27.067],"min":[-29.259083,1.0594896,-27.105263],"type":"VEC3","name":"accessorPositions"},{"bufferView":2,"byteOffset":165872,"componentType":5126,"count":156,"type":"VEC4","name":"accessorTangents"},{"bufferView":1,"byteOffset":250680,"componentType":5126,"count":156,"type":"VEC3","name":"accessorNormals"},{"bufferView":3,"byteOffset":82936,"componentType":5126,"count":156,"type":"VEC2","name":"accessorUVs"},{"bufferView":0,"byteOffset":101652,"componentType":5123,"count":132,"type":"SCALAR","name":"accessorIndices"},{"bufferView":1,"byteOffset":252552,"componentType":5126,"count":82,"max":[0.3937,0.71999997,0.0071501],"min":[-0.4111075,-0.730215,-0.0071501],"type":"VEC3","name":"accessorPositions"},{"bufferView":2,"byteOffset":168368,"componentType":5126,"count":82,"type":"VEC4","name":"accessorTangents"},{"bufferView":1,"byteOffset":253536,"componentType":5126,"count":82,"type":"VEC3","name":"accessorNormals"},{"bufferView":3,"byteOffset":84184,"componentType":5126,"count":82,"type":"VEC2","name":"accessorUVs"},{"bufferView":0,"byteOffset":101916,"componentType":5123,"count":81387,"type":"SCALAR","name":"accessorIndices"},{"bufferView":1,"byteOffset":254520,"componentType":5126,"count":17413,"max":[-27.580276,2.2050376,-26.119287],"min":[-29.224365,1.0594137,-26.157398],"type":"VEC3","name":"accessorPositions"},{"bufferView":2,"byteOffset":169680,"componentType":5126,"count":17413,"type":"VEC4","name":"accessorTangents"},{"bufferView":1,"byteOffset":463476,"componentType":5126,"count":17413,"type":"VEC3","name":"accessorNormals"},{"bufferView":3,"byteOffset":84840,"componentType":5126,"count":17413,"type":"VEC2","name":"accessorUVs"},{"bufferView":0,"byteOffset":264692,"componentType":5123,"count":10326,"type":"SCALAR","name":"accessorIndices"},{"bufferView":1,"byteOffset":672432,"componentType":5126,"count":17742,"max":[-27.580276,2.2050288,-26.119287],"min":[-29.224365,1.0594137,-26.157398],"type":"VEC3","name":"accessorPositions"},{"bufferView":2,"byteOffset":448288,"componentType":5126,"count":17742,"type":"VEC4","name":"accessorTangents"},{"bufferView":1,"byteOffset":885336,"componentType":5126,"count":17742,"type":"VEC3","name":"accessorNormals"},{"bufferView":3,"byteOffset":224144,"componentType":5126,"count":17742,"type":"VEC2","name":"accessorUVs"},{"bufferView":0,"byteOffset":285344,"componentType":5123,"count":132,"type":"SCALAR","name":"accessorIndices"},{"bufferView":1,"byteOffset":1098240,"componentType":5126,"count":82,"max":[0.16510001,0.41611978,0.0071501],"min":[-0.9136126,-1.2214502,-0.0071501],"type":"VEC3","name":"accessorPositions"},{"bufferView":2,"byteOffset":732160,"componentType":5126,"count":82,"type":"VEC4","name":"accessorTangents"},{"bufferView":1,"byteOffset":1099224,"componentType":5126,"count":82,"type":"VEC3","name":"accessorNormals"},{"bufferView":3,"byteOffset":366080,"componentType":5126,"count":82,"type":"VEC2","name":"accessorUVs"},{"bufferView":0,"byteOffset":285608,"componentType":5123,"count":132,"type":"SCALAR","name":"accessorIndices"},{"bufferView":1,"byteOffset":1100208,"componentType":5126,"count":96,"max":[0.40886727,0.3245767,0.0071501],"min":[-0.35996616,-0.52949834,-0.0071501],"type":"VEC3","name":"accessorPositions"},{"bufferView":2,"byteOffset":733472,"componentType":5126,"count":96,"type":"VEC4","name":"accessorTangents"},{"bufferView":1,"byteOffset":1101360,"componentType":5126,"count":96,"type":"VEC3","name":"accessorNormals"},{"bufferView":3,"byteOffset":366736,"componentType":5126,"count":96,"type":"VEC2","name":"accessorUVs"},{"bufferView":0,"byteOffset":285872,"componentType":5123,"count":168,"type":"SCALAR","name":"accessorIndices"},{"bufferView":1,"byteOffset":1102512,"componentType":5126,"count":99,"max":[-28.40499,2.929653,-28.298086],"min":[-29.471046,1.3404851,-28.312412],"type":"VEC3","name":"accessorPositions"},{"bufferView":2,"byteOffset":735008,"componentType":5126,"count":99,"type":"VEC4","name":"accessorTangents"},{"bufferView":1,"byteOffset":1103700,"componentType":5126,"count":99,"type":"VEC3","name":"accessorNormals"},{"bufferView":3,"byteOffset":367504,"componentType":5126,"count":99,"type":"VEC2","name":"accessorUVs"},{"bufferView":0,"byteOffset":286208,"componentType":5123,"count":132,"type":"SCALAR","name":"accessorIndices"},{"bufferView":1,"byteOffset":1104888,"componentType":5126,"count":96,"max":[0.70101464,0.3245767,0.0071501],"min":[-0.35996616,-0.52949834,-0.0071501],"type":"VEC3","name":"accessorPositions"},{"bufferView":2,"byteOffset":736592,"componentType":5126,"count":96,"type":"VEC4","name":"accessorTangents"},{"bufferView":1,"byteOffset":1106040,"componentType":5126,"count":96,"type":"VEC3","name":"accessorNormals"},{"bufferView":3,"byteOffset":368296,"componentType":5126,"count":96,"type":"VEC2","name":"accessorUVs"},{"bufferView":0,"byteOffset":286472,"componentType":5123,"count":132,"type":"SCALAR","name":"accessorIndices"},{"bufferView":1,"byteOffset":1107192,"componentType":5126,"count":82,"max":[0.37704316,0.70856416,0.0071501],"min":[-0.39211252,-0.71716493,-0.0071501],"type":"VEC3","name":"accessorPositions"},{"bufferView":2,"byteOffset":738128,"componentType":5126,"count":82,"type":"VEC4","name":"accessorTangents"},{"bufferView":1,"byteOffset":1108176,"componentType":5126,"count":82,"type":"VEC3","name":"accessorNormals"},{"bufferView":3,"byteOffset":369064,"componentType":5126,"count":82,"type":"VEC2","name":"accessorUVs"},{"bufferView":0,"byteOffset":286736,"componentType":5123,"count":1440,"type":"SCALAR","name":"accessorIndices"},{"bufferView":1,"byteOffset":1109160,"componentType":5126,"count":484,"max":[0.012700001,0.012700001,-8.253881E-15],"min":[-0.012700001,-0.012700001,-0.0015748],"type":"VEC3","name":"accessorPositions"},{"bufferView":2,"byteOffset":739440,"componentType":5126,"count":484,"type":"VEC4","name":"accessorTangents"},{"bufferView":1,"byteOffset":1114968,"componentType":5126,"count":484,"type":"VEC3","name":"accessorNormals"},{"bufferView":3,"byteOffset":369720,"componentType":5126,"count":484,"type":"VEC2","name":"accessorUVs"},{"bufferView":0,"byteOffset":289616,"componentType":5123,"count":864,"type":"SCALAR","name":"accessorIndices"},{"bufferView":1,"byteOffset":1120776,"componentType":5126,"count":292,"max":[0.006604,0.015875,0.015875],"min":[-0.022722581,-0.015875,-0.015875],"type":"VEC3","name":"accessorPositions"},{"bufferView":2,"byteOffset":747184,"componentType":5126,"count":292,"type":"VEC4","name":"accessorTangents"},{"bufferView":1,"byteOffset":1124280,"componentType":5126,"count":292,"type":"VEC3","name":"accessorNormals"},{"bufferView":3,"byteOffset":373592,"componentType":5126,"count":292,"type":"VEC2","name":"accessorUVs"},{"bufferView":0,"byteOffset":291344,"componentType":5123,"count":858,"type":"SCALAR","name":"accessorIndices"},{"bufferView":1,"byteOffset":1127784,"componentType":5126,"count":289,"max":[0.006604,0.015875,0.015875],"min":[-0.022722581,-0.015875,-0.015875],"type":"VEC3","name":"accessorPositions"},{"bufferView":2,"byteOffset":751856,"componentType":5126,"count":289,"type":"VEC4","name":"accessorTangents"},{"bufferView":1,"byteOffset":1131252,"componentType":5126,"count":289,"type":"VEC3","name":"accessorNormals"},{"bufferView":3,"byteOffset":375928,"componentType":5126,"count":289,"type":"VEC2","name":"accessorUVs"},{"bufferView":0,"byteOffset":293060,"componentType":5123,"count":432,"type":"SCALAR","name":"accessorIndices"},{"bufferView":1,"byteOffset":1134720,"componentType":5126,"count":146,"max":[0.0476504,0.015875,0.015875],"min":[-0.0348996,-0.015875,-0.015875],"type":"VEC3","name":"accessorPositions"},{"bufferView":2,"byteOffset":756480,"componentType":5126,"count":146,"type":"VEC4","name":"accessorTangents"},{"bufferView":1,"byteOffset":1136472,"componentType":5126,"count":146,"type":"VEC3","name":"accessorNormals"},{"bufferView":3,"byteOffset":378240,"componentType":5126,"count":146,"type":"VEC2","name":"accessorUVs"},{"bufferView":0,"byteOffset":293924,"componentType":5123,"count":420,"type":"SCALAR","name":"accessorIndices"},{"bufferView":1,"byteOffset":1138224,"componentType":5126,"count":144,"max":[0.0476504,0.015875,0.015875],"min":[-0.0348996,-0.015875,-0.015875],"type":"VEC3","name":"accessorPositions"},{"bufferView":2,"byteOffset":758816,"componentType":5126,"count":144,"type":"VEC4","name":"accessorTangents"},{"bufferView":1,"byteOffset":1139952,"componentType":5126,"count":144,"type":"VEC3","name":"accessorNormals"},{"bufferView":3,"byteOffset":379408,"componentType":5126,"count":144,"type":"VEC2","name":"accessorUVs"},{"bufferView":0,"byteOffset":294764,"componentType":5123,"count":1428,"type":"SCALAR","name":"accessorIndices"},{"bufferView":1,"byteOffset":1141680,"componentType":5126,"count":488,"max":[0.451866,0.028575,0.0079375],"min":[6.358873E-15,-0.028575,-0.0079375],"type":"VEC3","name":"accessorPositions"},{"bufferView":2,"byteOffset":761120,"componentType":5126,"count":488,"type":"VEC4","name":"accessorTangents"},{"bufferView":1,"byteOffset":1147536,"componentType":5126,"count":488,"type":"VEC3","name":"accessorNormals"},{"bufferView":3,"byteOffset":380560,"componentType":5126,"count":488,"type":"VEC2","name":"accessorUVs"},{"bufferView":0,"byteOffset":297620,"componentType":5123,"count":4740,"type":"SCALAR","name":"accessorIndices"},{"bufferView":1,"byteOffset":1153392,"componentType":5126,"count":1096,"max":[0.05715,0.025400002,0.05715],"min":[-0.05715,-2.9471527E-15,-0.05715],"type":"VEC3","name":"accessorPositions"},{"bufferView":2,"byteOffset":768928,"componentType":5126,"count":1096,"type":"VEC4","name":"accessorTangents"},{"bufferView":1,"byteOffset":1166544,"componentType":5126,"count":1096,"type":"VEC3","name":"accessorNormals"},{"bufferView":3,"byteOffset":384464,"componentType":5126,"count":1096,"type":"VEC2","name":"accessorUVs"},{"bufferView":0,"byteOffset":307100,"componentType":5123,"count":576,"type":"SCALAR","name":"accessorIndices"},{"bufferView":1,"byteOffset":1179696,"componentType":5126,"count":192,"max":[0.0541528,0.025400002,0.0541528],"min":[-0.0541528,0.025400002,-0.0541528],"type":"VEC3","name":"accessorPositions"},{"bufferView":2,"byteOffset":786464,"componentType":5126,"count":192,"type":"VEC4","name":"accessorTangents"},{"bufferView":1,"byteOffset":1182000,"componentType":5126,"count":192,"type":"VEC3","name":"accessorNormals"},{"bufferView":3,"byteOffset":393232,"componentType":5126,"count":192,"type":"VEC2","name":"accessorUVs"},{"bufferView":0,"byteOffset":308252,"componentType":5123,"count":1428,"type":"SCALAR","name":"accessorIndices"},{"bufferView":1,"byteOffset":1184304,"componentType":5126,"count":488,"max":[0.451866,0.028575,0.0079375],"min":[6.358873E-15,-0.028575,-0.0079375],"type":"VEC3","name":"accessorPositions"},{"bufferView":2,"byteOffset":789536,"componentType":5126,"count":488,"type":"VEC4","name":"accessorTangents"},{"bufferView":1,"byteOffset":1190160,"componentType":5126,"count":488,"type":"VEC3","name":"accessorNormals"},{"bufferView":3,"byteOffset":394768,"componentType":5126,"count":488,"type":"VEC2","name":"accessorUVs"},{"bufferView":0,"byteOffset":311108,"componentType":5123,"count":1428,"type":"SCALAR","name":"accessorIndices"},{"bufferView":1,"byteOffset":1196016,"componentType":5126,"count":488,"max":[0.451866,0.028575,0.0079375],"min":[6.358873E-15,-0.028575,-0.0079375],"type":"VEC3","name":"accessorPositions"},{"bufferView":2,"byteOffset":797344,"componentType":5126,"count":488,"type":"VEC4","name":"accessorTangents"},{"bufferView":1,"byteOffset":1201872,"componentType":5126,"count":488,"type":"VEC3","name":"accessorNormals"},{"bufferView":3,"byteOffset":398672,"componentType":5126,"count":488,"type":"VEC2","name":"accessorUVs"},{"bufferView":0,"byteOffset":313964,"componentType":5123,"count":1428,"type":"SCALAR","name":"accessorIndices"},{"bufferView":1,"byteOffset":1207728,"componentType":5126,"count":488,"max":[0.451866,0.028575,0.0079375],"min":[6.358873E-15,-0.028575,-0.0079375],"type":"VEC3","name":"accessorPositions"},{"bufferView":2,"byteOffset":805152,"componentType":5126,"count":488,"type":"VEC4","name":"accessorTangents"},{"bufferView":1,"byteOffset":1213584,"componentType":5126,"count":488,"type":"VEC3","name":"accessorNormals"},{"bufferView":3,"byteOffset":402576,"componentType":5126,"count":488,"type":"VEC2","name":"accessorUVs"},{"bufferView":0,"byteOffset":316820,"componentType":5123,"count":1428,"type":"SCALAR","name":"accessorIndices"},{"bufferView":1,"byteOffset":1219440,"componentType":5126,"count":488,"max":[0.5342128,0.028575,0.0079375],"min":[6.358873E-15,-0.028575,-0.0079375],"type":"VEC3","name":"accessorPositions"},{"bufferView":2,"byteOffset":812960,"componentType":5126,"count":488,"type":"VEC4","name":"accessorTangents"},{"bufferView":1,"byteOffset":1225296,"componentType":5126,"count":488,"type":"VEC3","name":"accessorNormals"},{"bufferView":3,"byteOffset":406480,"componentType":5126,"count":488,"type":"VEC2","name":"accessorUVs"},{"bufferView":0,"byteOffset":319676,"componentType":5123,"count":1428,"type":"SCALAR","name":"accessorIndices"},{"bufferView":1,"byteOffset":1231152,"componentType":5126,"count":488,"max":[0.5342128,0.028575,0.0079375],"min":[6.358873E-15,-0.028575,-0.0079375],"type":"VEC3","name":"accessorPositions"},{"bufferView":2,"byteOffset":820768,"componentType":5126,"count":488,"type":"VEC4","name":"accessorTangents"},{"bufferView":1,"byteOffset":1237008,"componentType":5126,"count":488,"type":"VEC3","name":"accessorNormals"},{"bufferView":3,"byteOffset":410384,"componentType":5126,"count":488,"type":"VEC2","name":"accessorUVs"},{"bufferView":0,"byteOffset":322532,"componentType":5123,"count":1428,"type":"SCALAR","name":"accessorIndices"},{"bufferView":1,"byteOffset":1242864,"componentType":5126,"count":488,"max":[0.5342128,0.028575,0.0079375],"min":[6.358873E-15,-0.028575,-0.0079375],"type":"VEC3","name":"accessorPositions"},{"bufferView":2,"byteOffset":828576,"componentType":5126,"count":488,"type":"VEC4","name":"accessorTangents"},{"bufferView":1,"byteOffset":1248720,"componentType":5126,"count":488,"type":"VEC3","name":"accessorNormals"},{"bufferView":3,"byteOffset":414288,"componentType":5126,"count":488,"type":"VEC2","name":"accessorUVs"},{"bufferView":0,"byteOffset":325388,"componentType":5123,"count":1428,"type":"SCALAR","name":"accessorIndices"},{"bufferView":1,"byteOffset":1254576,"componentType":5126,"count":488,"max":[0.5342128,0.028575,0.0079375],"min":[6.358873E-15,-0.028575,-0.0079375],"type":"VEC3","name":"accessorPositions"},{"bufferView":2,"byteOffset":836384,"componentType":5126,"count":488,"type":"VEC4","name":"accessorTangents"},{"bufferView":1,"byteOffset":1260432,"componentType":5126,"count":488,"type":"VEC3","name":"accessorNormals"},{"bufferView":3,"byteOffset":418192,"componentType":5126,"count":488,"type":"VEC2","name":"accessorUVs"},{"bufferView":0,"byteOffset":328244,"componentType":5123,"count":1428,"type":"SCALAR","name":"accessorIndices"},{"bufferView":1,"byteOffset":1266288,"componentType":5126,"count":488,"max":[0.5342128,0.028575,0.0079375],"min":[6.358873E-15,-0.028575,-0.0079375],"type":"VEC3","name":"accessorPositions"},{"bufferView":2,"byteOffset":844192,"componentType":5126,"count":488,"type":"VEC4","name":"accessorTangents"},{"bufferView":1,"byteOffset":1272144,"componentType":5126,"count":488,"type":"VEC3","name":"accessorNormals"},{"bufferView":3,"byteOffset":422096,"componentType":5126,"count":488,"type":"VEC2","name":"accessorUVs"},{"bufferView":0,"byteOffset":331100,"componentType":5123,"count":1428,"type":"SCALAR","name":"accessorIndices"},{"bufferView":1,"byteOffset":1278000,"componentType":5126,"count":488,"max":[0.5342128,0.028575,0.0079375],"min":[6.358873E-15,-0.028575,-0.0079375],"type":"VEC3","name":"accessorPositions"},{"bufferView":2,"byteOffset":852000,"componentType":5126,"count":488,"type":"VEC4","name":"accessorTangents"},{"bufferView":1,"byteOffset":1283856,"componentType":5126,"count":488,"type":"VEC3","name":"accessorNormals"},{"bufferView":3,"byteOffset":426000,"componentType":5126,"count":488,"type":"VEC2","name":"accessorUVs"},{"bufferView":0,"byteOffset":333956,"componentType":5123,"count":1428,"type":"SCALAR","name":"accessorIndices"},{"bufferView":1,"byteOffset":1289712,"componentType":5126,"count":488,"max":[0.5342128,0.028575,0.0079375],"min":[6.358873E-15,-0.028575,-0.0079375],"type":"VEC3","name":"accessorPositions"},{"bufferView":2,"byteOffset":859808,"componentType":5126,"count":488,"type":"VEC4","name":"accessorTangents"},{"bufferView":1,"byteOffset":1295568,"componentType":5126,"count":488,"type":"VEC3","name":"accessorNormals"},{"bufferView":3,"byteOffset":429904,"componentType":5126,"count":488,"type":"VEC2","name":"accessorUVs"},{"bufferView":0,"byteOffset":336812,"componentType":5123,"count":1428,"type":"SCALAR","name":"accessorIndices"},{"bufferView":1,"byteOffset":1301424,"componentType":5126,"count":488,"max":[0.5342128,0.028575,0.0079375],"min":[6.358873E-15,-0.028575,-0.0079375],"type":"VEC3","name":"accessorPositions"},{"bufferView":2,"byteOffset":867616,"componentType":5126,"count":488,"type":"VEC4","name":"accessorTangents"},{"bufferView":1,"byteOffset":1307280,"componentType":5126,"count":488,"type":"VEC3","name":"accessorNormals"},{"bufferView":3,"byteOffset":433808,"componentType":5126,"count":488,"type":"VEC2","name":"accessorUVs"},{"bufferView":0,"byteOffset":339668,"componentType":5123,"count":1428,"type":"SCALAR","name":"accessorIndices"},{"bufferView":1,"byteOffset":1313136,"componentType":5126,"count":488,"max":[0.5342128,0.028575,0.0079375],"min":[6.358873E-15,-0.028575,-0.0079375],"type":"VEC3","name":"accessorPositions"},{"bufferView":2,"byteOffset":875424,"componentType":5126,"count":488,"type":"VEC4","name":"accessorTangents"},{"bufferView":1,"byteOffset":1318992,"componentType":5126,"count":488,"type":"VEC3","name":"accessorNormals"},{"bufferView":3,"byteOffset":437712,"componentType":5126,"count":488,"type":"VEC2","name":"accessorUVs"},{"bufferView":0,"byteOffset":342524,"componentType":5123,"count":1428,"type":"SCALAR","name":"accessorIndices"},{"bufferView":1,"byteOffset":1324848,"componentType":5126,"count":488,"max":[0.5342128,0.028575,0.0079375],"min":[6.358873E-15,-0.028575,-0.0079375],"type":"VEC3","name":"accessorPositions"},{"bufferView":2,"byteOffset":883232,"componentType":5126,"count":488,"type":"VEC4","name":"accessorTangents"},{"bufferView":1,"byteOffset":1330704,"componentType":5126,"count":488,"type":"VEC3","name":"accessorNormals"},{"bufferView":3,"byteOffset":441616,"componentType":5126,"count":488,"type":"VEC2","name":"accessorUVs"},{"bufferView":0,"byteOffset":345380,"componentType":5123,"count":1428,"type":"SCALAR","name":"accessorIndices"},{"bufferView":1,"byteOffset":1336560,"componentType":5126,"count":488,"max":[0.5342128,0.028575,0.0079375],"min":[6.358873E-15,-0.028575,-0.0079375],"type":"VEC3","name":"accessorPositions"},{"bufferView":2,"byteOffset":891040,"componentType":5126,"count":488,"type":"VEC4","name":"accessorTangents"},{"bufferView":1,"byteOffset":1342416,"componentType":5126,"count":488,"type":"VEC3","name":"accessorNormals"},{"bufferView":3,"byteOffset":445520,"componentType":5126,"count":488,"type":"VEC2","name":"accessorUVs"},{"bufferView":0,"byteOffset":348236,"componentType":5123,"count":1428,"type":"SCALAR","name":"accessorIndices"},{"bufferView":1,"byteOffset":1348272,"componentType":5126,"count":488,"max":[0.5342128,0.028575,0.0079375],"min":[6.358873E-15,-0.028575,-0.0079375],"type":"VEC3","name":"accessorPositions"},{"bufferView":2,"byteOffset":898848,"componentType":5126,"count":488,"type":"VEC4","name":"accessorTangents"},{"bufferView":1,"byteOffset":1354128,"componentType":5126,"count":488,"type":"VEC3","name":"accessorNormals"},{"bufferView":3,"byteOffset":449424,"componentType":5126,"count":488,"type":"VEC2","name":"accessorUVs"},{"bufferView":0,"byteOffset":351092,"componentType":5123,"count":1428,"type":"SCALAR","name":"accessorIndices"},{"bufferView":1,"byteOffset":1359984,"componentType":5126,"count":488,"max":[0.5342128,0.028575,0.0079375],"min":[6.358873E-15,-0.028575,-0.0079375],"type":"VEC3","name":"accessorPositions"},{"bufferView":2,"byteOffset":906656,"componentType":5126,"count":488,"type":"VEC4","name":"accessorTangents"},{"bufferView":1,"byteOffset":1365840,"componentType":5126,"count":488,"type":"VEC3","name":"accessorNormals"},{"bufferView":3,"byteOffset":453328,"componentType":5126,"count":488,"type":"VEC2","name":"accessorUVs"},{"bufferView":0,"byteOffset":353948,"componentType":5123,"count":1428,"type":"SCALAR","name":"accessorIndices"},{"bufferView":1,"byteOffset":1371696,"componentType":5126,"count":488,"max":[0.5342128,0.028575,0.0079375],"min":[6.358873E-15,-0.028575,-0.0079375],"type":"VEC3","name":"accessorPositions"},{"bufferView":2,"byteOffset":914464,"componentType":5126,"count":488,"type":"VEC4","name":"accessorTangents"},{"bufferView":1,"byteOffset":1377552,"componentType":5126,"count":488,"type":"VEC3","name":"accessorNormals"},{"bufferView":3,"byteOffset":457232,"componentType":5126,"count":488,"type":"VEC2","name":"accessorUVs"},{"bufferView":0,"byteOffset":356804,"componentType":5123,"count":1428,"type":"SCALAR","name":"accessorIndices"},{"bufferView":1,"byteOffset":1383408,"componentType":5126,"count":488,"max":[0.5342128,0.028575,0.0079375],"min":[6.358873E-15,-0.028575,-0.0079375],"type":"VEC3","name":"accessorPositions"},{"bufferView":2,"byteOffset":922272,"componentType":5126,"count":488,"type":"VEC4","name":"accessorTangents"},{"bufferView":1,"byteOffset":1389264,"componentType":5126,"count":488,"type":"VEC3","name":"accessorNormals"},{"bufferView":3,"byteOffset":461136,"componentType":5126,"count":488,"type":"VEC2","name":"accessorUVs"},{"bufferView":0,"byteOffset":359660,"componentType":5123,"count":201306,"type":"SCALAR","name":"accessorIndices"},{"bufferView":1,"byteOffset":1395120,"componentType":5126,"count":38119,"max":[-27.30563,3.6965744,-27.264956],"min":[-30.287746,2.1714768,-28.324299],"type":"VEC3","name":"accessorPositions"},{"bufferView":2,"byteOffset":930080,"componentType":5126,"count":38119,"type":"VEC4","name":"accessorTangents"},{"bufferView":1,"byteOffset":1852548,"componentType":5126,"count":38119,"type":"VEC3","name":"accessorNormals"},{"bufferView":3,"byteOffset":465040,"componentType":5126,"count":38119,"type":"VEC2","name":"accessorUVs"},{"bufferView":0,"byteOffset":762272,"componentType":5123,"count":246,"type":"SCALAR","name":"accessorIndices"},{"bufferView":1,"byteOffset":2309976,"componentType":5126,"count":84,"max":[-27.30563,3.6965744,-28.2862],"min":[-27.30563,3.6503658,-28.324299],"type":"VEC3","name":"accessorPositions"},{"bufferView":2,"byteOffset":1539984,"componentType":5126,"count":84,"type":"VEC4","name":"accessorTangents"},{"bufferView":1,"byteOffset":2310984,"componentType":5126,"count":84,"type":"VEC3","name":"accessorNormals"},{"bufferView":3,"byteOffset":769992,"componentType":5126,"count":84,"type":"VEC2","name":"accessorUVs"},{"bufferView":0,"byteOffset":762764,"componentType":5123,"count":4080,"type":"SCALAR","name":"accessorIndices"},{"bufferView":1,"byteOffset":2311992,"componentType":5126,"count":1530,"max":[0.9106084,0.6469242,0.019062791],"min":[-1.0538441,-0.74506915,-0.019062791],"type":"VEC3","name":"accessorPositions"},{"bufferView":2,"byteOffset":1541328,"componentType":5126,"count":1530,"type":"VEC4","name":"accessorTangents"},{"bufferView":1,"byteOffset":2330352,"componentType":5126,"count":1530,"type":"VEC3","name":"accessorNormals"},{"bufferView":3,"byteOffset":770664,"componentType":5126,"count":1530,"type":"VEC2","name":"accessorUVs"},{"bufferView":0,"byteOffset":770924,"componentType":5123,"count":738,"type":"SCALAR","name":"accessorIndices"},{"bufferView":1,"byteOffset":2348712,"componentType":5126,"count":252,"max":[0.9106084,0.6469242,0.019062791],"min":[-1.0538441,-0.74506915,-0.019062791],"type":"VEC3","name":"accessorPositions"},{"bufferView":2,"byteOffset":1565808,"componentType":5126,"count":252,"type":"VEC4","name":"accessorTangents"},{"bufferView":1,"byteOffset":2351736,"componentType":5126,"count":252,"type":"VEC3","name":"accessorNormals"},{"bufferView":3,"byteOffset":782904,"componentType":5126,"count":252,"type":"VEC2","name":"accessorUVs"}],"bufferViews":[{"buffer":0,"byteLength":772400,"name":"bufferViewScalar"},{"buffer":0,"byteOffset":772400,"byteLength":2354760,"byteStride":12,"name":"bufferViewFloatVec3"},{"buffer":0,"byteOffset":3127160,"byteLength":1569840,"byteStride":16,"name":"bufferViewFloatVec4"},{"buffer":0,"byteOffset":4697000,"byteLength":784920,"byteStride":8,"name":"bufferViewFloatVec2"}],"buffers":[{"uri":"L-Shaped_Railing_Lo-Post_Elliptical.bin","byteLength":5481920}],"materials":[{"pbrMetallicRoughness":{"baseColorFactor":[0.9999998,0.9999999,0.9999999,1.0],"metallicFactor":0.0,"roughnessFactor":0.1},"name":"Glass","extensions":{"KHR_materials_ior":{"ior":1.0},"KHR_materials_transmission":{"transmissionFactor":0.97},"KHR_materials_volume":{"thicknessFactor":0.56,"attenuationDistance":0.5,"attenuationColor":[0.49521634,0.56476736,0.5317566]}}},{"pbrMetallicRoughness":{"baseColorFactor":[0.9999998,0.9999999,0.9999999,1.0],"baseColorTexture":{"index":0,"extensions":{"KHR_texture_transform":{"offset":[0.19519997,0.8048],"rotation":1.5707964,"scale":[0.6096,0.6096],"texCoord":0}}},"roughnessFactor":0.2,"metallicRoughnessTexture":{"index":0,"extensions":{"KHR_texture_transform":{"offset":[0.19519997,0.8048],"rotation":1.5707964,"scale":[0.6096,0.6096],"texCoord":0}}}},"name":"Steel_Linear"},{"pbrMetallicRoughness":{"baseColorFactor":[0.9999998,0.9999999,0.9999999,1.0],"baseColorTexture":{"index":1},"roughnessFactor":0.2,"metallicRoughnessTexture":{"index":1}},"name":"Steel_Radial"},{"pbrMetallicRoughness":{"baseColorFactor":[0.10641303,0.10641304,0.10641304,1.0],"metallicFactor":0.0,"roughnessFactor":0.99,"metallicRoughnessTexture":{"index":2}},"name":"Rubber","extensions":{"KHR_materials_specular":{"specularFactor":0.1}}}],"textures":[{"sampler":0,"source":0,"name":"Metal_Brushed_Linear_4k.jpg"},{"sampler":0,"source":1,"name":"Metal_Brushed_Radial_4k.jpg"},{"sampler":0,"source":2,"name":"PowderCoat_Roughness_2k0.jpg"}],"images":[{"uri":"textures/Metal_Brushed_Linear_4k.jpg"},{"uri":"textures/Metal_Brushed_Radial_4k.jpg"},{"uri":"textures/PowderCoat_Roughness_2k0.jpg"}],"samplers":[{"magFilter":9729,"minFilter":9987}]}