{"asset":{"version":"2.0","generator":"babylon.js glTF exporter for 3dsmax 2026 v20251111.2"},"extensionsUsed":["KHR_texture_transform"],"extensionsRequired":["KHR_texture_transform"],"scene":0,"scenes":[{"nodes":[0,1,2,3,4,5,6,7,8,9,10,11,12,13,14,15,16,17,18,19,20,21,22,23,24,25,26,27,28,29,30,31,32,33,34,35,36,37,38,39,40,41,42,43,44,45,46,47,48,49,50,51,52,53,54,55,56,57,58,59,60,61,62,63,64,65,66,67,68,69,70,71,72,73,74,75,76,77,78,79,80,81,82,83,84,85,86,87,88,89,90,91,92,93,94,95,96,97,98,99,100,101,102,103,104,105,106,107,108,109,110,111,112,113,114,115,116,117,118,119,120,121,122,123,124,125,126,127,128,129,130,131,132,133,134,135,136,137,138,139,140,141,142,143,144,145,146,147,148,149,150,151,152,153,154,155,156,157,158,159,160,161,162,163,164,165,166,167,168,169,170,171,172,173,174,175,176,177,178,179,180,181,182,183,184,185,186,187,188,189,190,191,192,193,194,195,196,197,198,199,200,201,202,203,204,205,206,207,208,209,210,211,212,213,214,215,216,217,218,219,220,221,222,223,224]}],"nodes":[{"mesh":0,"translation":[-0.43512926,2.2726853,-0.02357298],"rotation":[-0.67537147,-0.20946,0.20945996,0.6753714],"name":"Nested_Rail LS Material [8461322]"},{"mesh":1,"translation":[-0.43512926,2.2726853,-0.02357298],"rotation":[-0.6753743,-0.20945084,0.2094508,0.6753742],"scale":[0.99999994,1.0,0.99999994],"name":"CIR024 - Handrail End Cap Part [8482091]006"},{"mesh":1,"translation":[1.5596397,3.6416814,-0.02357298],"rotation":[0.20945992,-0.6753714,0.6753714,-0.20945998],"name":"CIR024 - Handrail End Cap Part [8482091]005"},{"mesh":1,"translation":[-0.3730821,1.0815789,1.6411531],"rotation":[-0.32928252,0.3292824,0.625758,0.625758],"name":"CIR024 - Handrail End Cap Part [8482091]003"},{"mesh":1,"translation":[1.5596397,3.6416814,-1.0776738],"rotation":[-0.20945993,0.67537135,0.67537147,-0.20945992],"name":"CIR024 - Handrail End Cap Part [8482091]002"},{"mesh":1,"translation":[-1.4271829,1.0815789,1.6411531],"rotation":[-0.625758,-0.625758,0.3292825,-0.32928246],"name":"CIR024 - Handrail End Cap Part [8482091]001"},{"mesh":2,"translation":[-0.2466454,2.402039,-1.0776738],"rotation":[0.67537147,0.20946,0.20946,0.6753714],"name":"Nested_Rail LS Material [8719226]"},{"mesh":3,"translation":[-1.4271829,1.0815789,1.6411531],"rotation":[-0.625758,-0.625758,0.3292825,-0.32928246],"name":"Nested_Rail LS Material [8719249]"},{"mesh":4,"translation":[-1.4271803,2.17551,-0.71981657],"rotation":[0.49999997,-0.50000006,0.5000001,0.49999997],"name":"CIR061 - 1 1l2 Rail-To-Rail Connector Part [8719260]001"},{"mesh":4,"translation":[-0.2518823,2.398446,-1.0776738],"rotation":[0.67537147,0.20946,0.20946,0.6753714],"name":"CIR061 - 1 1l2 Rail-To-Rail Connector Part [8719260]002"},{"mesh":4,"translation":[-1.0652304,2.17551,-1.0776738],"rotation":[0.7071068,2.470639E-13,-2.4706393E-13,0.7071067],"name":"CIR061 - 1 1l2 Rail-To-Rail Connector Part [8719260]003"},{"mesh":4,"translation":[-1.4271829,1.9928633,0.31483394],"rotation":[-0.32928246,-0.32928237,-0.625758,0.625758],"name":"CIR061 - 1 1l2 Rail-To-Rail Connector Part [8719260]004"},{"mesh":5,"translation":[-0.5944614,2.23266,-1.0776738],"rotation":[-3.0908623E-08,0.7071067,0.7071068,3.0908616E-08],"name":"Nested_Bend Bend [8719259]"},{"mesh":6,"translation":[-1.4271829,2.11836,0.031251222],"rotation":[-0.5,-0.5,0.5,-0.5],"name":"Nested_Bend Bend [8719267]"},{"mesh":7,"translation":[-0.3730821,1.2041348,0.7244647],"rotation":[-0.0,-0.7071068,0.0,0.7071067],"name":"Nested_Cable_Single Cable Assembly Generic [8580909]015"},{"mesh":7,"translation":[-0.3730821,1.0812678,0.7244647],"rotation":[-0.0,-0.7071068,0.0,0.7071067],"name":"Nested_Cable_Single Cable Assembly Generic [8580909]016"},{"mesh":7,"translation":[-0.3730821,0.9584009,0.7244647],"rotation":[-0.0,-0.7071068,0.0,0.7071067],"name":"Nested_Cable_Single Cable Assembly Generic [8580909]017"},{"mesh":7,"translation":[-0.3730821,0.8355339,0.7244647],"rotation":[-0.0,-0.7071068,0.0,0.7071067],"name":"Nested_Cable_Single Cable Assembly Generic [8580909]018"},{"mesh":7,"translation":[-0.3730821,1.5727357,0.7244647],"rotation":[-0.0,-0.7071068,0.0,0.7071067],"name":"Nested_Cable_Single Cable Assembly Generic [8580909]019"},{"mesh":7,"translation":[-0.3730821,1.4498687,0.7244647],"rotation":[-0.0,-0.7071068,0.0,0.7071067],"name":"Nested_Cable_Single Cable Assembly Generic [8580909]020"},{"mesh":7,"translation":[-0.3730821,1.3270017,0.7244647],"rotation":[-0.0,-0.7071068,0.0,0.7071067],"name":"Nested_Cable_Single Cable Assembly Generic [8580909]021"},{"mesh":7,"translation":[-1.4271829,1.2041348,0.7244647],"rotation":[-0.0,-0.7071068,0.0,0.7071067],"name":"Nested_Cable_Single Cable Assembly Generic [8580909]022"},{"mesh":7,"translation":[-1.4271829,1.0812678,0.7244647],"rotation":[-0.0,-0.7071068,0.0,0.7071067],"name":"Nested_Cable_Single Cable Assembly Generic [8580909]023"},{"mesh":7,"translation":[-1.4271829,0.9584009,0.7244647],"rotation":[-0.0,-0.7071068,0.0,0.7071067],"name":"Nested_Cable_Single Cable Assembly Generic [8580909]024"},{"mesh":7,"translation":[-1.4271829,0.8355339,0.7244647],"rotation":[-0.0,-0.7071068,0.0,0.7071067],"name":"Nested_Cable_Single Cable Assembly Generic [8580909]025"},{"mesh":7,"translation":[-1.4271829,1.5727357,0.7244647],"rotation":[-0.0,-0.7071068,0.0,0.7071067],"name":"Nested_Cable_Single Cable Assembly Generic [8580909]026"},{"mesh":7,"translation":[-1.4271829,1.4498687,0.7244647],"rotation":[-0.0,-0.7071068,0.0,0.7071067],"name":"Nested_Cable_Single Cable Assembly Generic [8580909]027"},{"mesh":7,"translation":[-1.4271829,1.3270017,0.7244647],"rotation":[-0.0,-0.7071068,0.0,0.7071067],"name":"Nested_Cable_Single Cable Assembly Generic [8580909]028"},{"mesh":8,"translation":[-0.3730818,1.6921167,0.0141793005],"rotation":[-0.62575203,-0.62575203,0.32929382,-0.32929382],"name":"KOT010 - Right-Hand Threaded End Stop Part [8137739]001"},{"mesh":8,"translation":[-0.3730818,1.5692497,0.0141793005],"rotation":[-0.62575203,-0.62575203,0.32929382,-0.32929382],"name":"KOT010 - Right-Hand Threaded End Stop Part [8137739]002"},{"mesh":8,"translation":[-0.3730818,1.4463828,0.0141793005],"rotation":[-0.62575203,-0.62575203,0.32929382,-0.32929382],"name":"KOT010 - Right-Hand Threaded End Stop Part [8137739]003"},{"mesh":8,"translation":[-0.3730818,1.3235159,0.0141793005],"rotation":[-0.62575203,-0.62575203,0.32929382,-0.32929382],"name":"KOT010 - Right-Hand Threaded End Stop Part [8137739]004"},{"mesh":8,"translation":[-0.3730818,2.0607176,0.0141793005],"rotation":[-0.62575203,-0.62575203,0.32929382,-0.32929382],"name":"KOT010 - Right-Hand Threaded End Stop Part [8137739]005"},{"mesh":8,"translation":[-0.3730818,1.9378506,0.0141793005],"rotation":[-0.62575203,-0.62575203,0.32929382,-0.32929382],"name":"KOT010 - Right-Hand Threaded End Stop Part [8137739]006"},{"mesh":8,"translation":[-0.3730818,1.8149837,0.0141793005],"rotation":[-0.62575203,-0.62575203,0.32929382,-0.32929382],"name":"KOT010 - Right-Hand Threaded End Stop Part [8137739]007"},{"mesh":8,"translation":[1.4247983,3.2875881,-0.023573343],"rotation":[0.67537427,0.20945083,0.20945083,0.67537427],"scale":[0.99999994,1.0,0.99999994],"name":"KOT010 - Right-Hand Threaded End Stop Part [8137739]008"},{"mesh":8,"translation":[1.4247983,3.1647103,-0.023573343],"rotation":[0.67537427,0.20945083,0.20945083,0.67537427],"scale":[0.99999994,1.0,0.99999994],"name":"KOT010 - Right-Hand Threaded End Stop Part [8137739]009"},{"mesh":8,"translation":[1.4247983,3.0418327,-0.023573343],"rotation":[0.67537427,0.20945083,0.20945083,0.67537427],"scale":[0.99999994,1.0,0.99999994],"name":"KOT010 - Right-Hand Threaded End Stop Part [8137739]010"},{"mesh":8,"translation":[1.4247983,2.918955,-0.023573343],"rotation":[0.67537427,0.20945083,0.20945083,0.67537427],"scale":[0.99999994,1.0,0.99999994],"name":"KOT010 - Right-Hand Threaded End Stop Part [8137739]011"},{"mesh":8,"translation":[1.4247983,2.7960773,-0.023573343],"rotation":[0.67537427,0.20945083,0.20945083,0.67537427],"scale":[0.99999994,1.0,0.99999994],"name":"KOT010 - Right-Hand Threaded End Stop Part [8137739]012"},{"mesh":8,"translation":[1.4247983,2.6731997,-0.023573343],"rotation":[0.67537427,0.20945083,0.20945083,0.67537427],"scale":[0.99999994,1.0,0.99999994],"name":"KOT010 - Right-Hand Threaded End Stop Part [8137739]013"},{"mesh":8,"translation":[1.4247983,3.4104657,-0.023573343],"rotation":[0.67537427,0.20945083,0.20945083,0.67537427],"scale":[0.99999994,1.0,0.99999994],"name":"KOT010 - Right-Hand Threaded End Stop Part [8137739]014"},{"mesh":8,"translation":[1.4247983,3.2875881,-1.077674],"rotation":[-0.6753743,-0.20945084,0.2094508,0.6753742],"scale":[0.99999994,1.0,0.99999994],"name":"KOT010 - Right-Hand Threaded End Stop Part [8137739]015"},{"mesh":8,"translation":[1.4247983,3.1647103,-1.077674],"rotation":[-0.6753743,-0.20945084,0.2094508,0.6753742],"scale":[0.99999994,1.0,0.99999994],"name":"KOT010 - Right-Hand Threaded End Stop Part [8137739]016"},{"mesh":8,"translation":[1.4247983,3.0418327,-1.077674],"rotation":[-0.6753743,-0.20945084,0.2094508,0.6753742],"scale":[0.99999994,1.0,0.99999994],"name":"KOT010 - Right-Hand Threaded End Stop Part [8137739]017"},{"mesh":8,"translation":[1.4247983,2.918955,-1.077674],"rotation":[-0.6753743,-0.20945084,0.2094508,0.6753742],"scale":[0.99999994,1.0,0.99999994],"name":"KOT010 - Right-Hand Threaded End Stop Part [8137739]018"},{"mesh":8,"translation":[1.4247983,2.7960773,-1.077674],"rotation":[-0.6753743,-0.20945084,0.2094508,0.6753742],"scale":[0.99999994,1.0,0.99999994],"name":"KOT010 - Right-Hand Threaded End Stop Part [8137739]019"},{"mesh":8,"translation":[1.4247983,2.6731997,-1.077674],"rotation":[-0.6753743,-0.20945084,0.2094508,0.6753742],"scale":[0.99999994,1.0,0.99999994],"name":"KOT010 - Right-Hand Threaded End Stop Part [8137739]020"},{"mesh":8,"translation":[1.4247983,3.4104657,-1.077674],"rotation":[-0.6753743,-0.20945084,0.2094508,0.6753742],"scale":[0.99999994,1.0,0.99999994],"name":"KOT010 - Right-Hand Threaded End Stop Part [8137739]021"},{"mesh":8,"translation":[-1.4271827,1.6921167,0.0141793005],"rotation":[-0.32929388,0.32929376,0.62575203,0.62575203],"name":"KOT010 - Right-Hand Threaded End Stop Part [8137739]022"},{"mesh":8,"translation":[-1.4271827,1.5692497,0.0141793005],"rotation":[-0.32929388,0.32929376,0.62575203,0.62575203],"name":"KOT010 - Right-Hand Threaded End Stop Part [8137739]023"},{"mesh":8,"translation":[-1.4271827,1.4463828,0.0141793005],"rotation":[-0.32929388,0.32929376,0.62575203,0.62575203],"name":"KOT010 - Right-Hand Threaded End Stop Part [8137739]024"},{"mesh":8,"translation":[-1.4271827,1.3235159,0.0141793005],"rotation":[-0.32929388,0.32929376,0.62575203,0.62575203],"name":"KOT010 - Right-Hand Threaded End Stop Part [8137739]025"},{"mesh":8,"translation":[-1.4271827,2.0607176,0.0141793005],"rotation":[-0.32929388,0.32929376,0.62575203,0.62575203],"name":"KOT010 - Right-Hand Threaded End Stop Part [8137739]026"},{"mesh":8,"translation":[-1.4271827,1.9378506,0.0141793005],"rotation":[-0.32929388,0.32929376,0.62575203,0.62575203],"name":"KOT010 - Right-Hand Threaded End Stop Part [8137739]027"},{"mesh":8,"translation":[-1.4271827,1.8149837,0.0141793005],"rotation":[-0.32929388,0.32929376,0.62575203,0.62575203],"name":"KOT010 - Right-Hand Threaded End Stop Part [8137739]028"},{"mesh":8,"translation":[-1.4271812,1.6684172,-0.93812674],"rotation":[-0.5,-0.5,0.5,-0.5],"name":"KOT010 - Right-Hand Threaded End Stop Part [8137739]029"},{"mesh":8,"translation":[-1.4271812,1.5686314,-0.93812674],"rotation":[-0.5,-0.5,0.5,-0.5],"name":"KOT010 - Right-Hand Threaded End Stop Part [8137739]030"},{"mesh":8,"translation":[-1.4271812,1.4688457,-0.93812674],"rotation":[-0.5,-0.5,0.5,-0.5],"name":"KOT010 - Right-Hand Threaded End Stop Part [8137739]031"},{"mesh":8,"translation":[-1.4271812,1.36906,-0.93812674],"rotation":[-0.5,-0.5,0.5,-0.5],"name":"KOT010 - Right-Hand Threaded End Stop Part [8137739]032"},{"mesh":8,"translation":[-1.4271812,2.06756,-0.93812674],"rotation":[-0.5,-0.5,0.5,-0.5],"name":"KOT010 - Right-Hand Threaded End Stop Part [8137739]033"},{"mesh":8,"translation":[-1.4271812,1.8679886,-0.93812674],"rotation":[-0.5,-0.5,0.5,-0.5],"name":"KOT010 - Right-Hand Threaded End Stop Part [8137739]034"},{"mesh":8,"translation":[-1.4271812,1.7682029,-0.93812674],"rotation":[-0.5,-0.5,0.5,-0.5],"name":"KOT010 - Right-Hand Threaded End Stop Part [8137739]035"},{"mesh":8,"translation":[-1.4271812,1.9677743,-0.93812674],"rotation":[-0.5,-0.5,0.5,-0.5],"name":"KOT010 - Right-Hand Threaded End Stop Part [8137739]036"},{"mesh":8,"translation":[-0.5189786,1.8679886,-1.077674],"rotation":[0.7071068,-0.0,0.0,0.7071067],"name":"KOT010 - Right-Hand Threaded End Stop Part [8137739]037"},{"mesh":8,"translation":[-0.5189786,1.7682029,-1.077674],"rotation":[0.7071068,-0.0,0.0,0.7071067],"name":"KOT010 - Right-Hand Threaded End Stop Part [8137739]038"},{"mesh":8,"translation":[-0.5189786,1.6684172,-1.077674],"rotation":[0.7071068,-0.0,0.0,0.7071067],"name":"KOT010 - Right-Hand Threaded End Stop Part [8137739]039"},{"mesh":8,"translation":[-0.5189786,1.5686314,-1.077674],"rotation":[0.7071068,-0.0,0.0,0.7071067],"name":"KOT010 - Right-Hand Threaded End Stop Part [8137739]040"},{"mesh":8,"translation":[-0.5189786,1.4688457,-1.077674],"rotation":[0.7071068,-0.0,0.0,0.7071067],"name":"KOT010 - Right-Hand Threaded End Stop Part [8137739]041"},{"mesh":8,"translation":[-0.5189786,1.36906,-1.077674],"rotation":[0.7071068,-0.0,0.0,0.7071067],"name":"KOT010 - Right-Hand Threaded End Stop Part [8137739]042"},{"mesh":8,"translation":[-0.5189786,2.06756,-1.077674],"rotation":[0.7071068,-0.0,0.0,0.7071067],"name":"KOT010 - Right-Hand Threaded End Stop Part [8137739]043"},{"mesh":8,"translation":[-0.5189786,1.9677743,-1.077674],"rotation":[0.7071068,-0.0,0.0,0.7071067],"name":"KOT010 - Right-Hand Threaded End Stop Part [8137739]044"},{"mesh":9,"translation":[-0.3730818,0.6792747,1.4884243],"rotation":[-0.32929385,-0.32929376,-0.62575203,0.62575203],"name":"KOT012 - Turnbuckle Part [8655227]002"},{"mesh":9,"translation":[-0.3730818,0.55640775,1.4884243],"rotation":[-0.32929385,-0.32929376,-0.62575203,0.62575203],"name":"KOT012 - Turnbuckle Part [8655227]003"},{"mesh":9,"translation":[-0.3730818,0.43354076,1.4884243],"rotation":[-0.32929385,-0.32929376,-0.62575203,0.62575203],"name":"KOT012 - Turnbuckle Part [8655227]004"},{"mesh":9,"translation":[-0.3730818,0.3106738,1.4884243],"rotation":[-0.32929385,-0.32929376,-0.62575203,0.62575203],"name":"KOT012 - Turnbuckle Part [8655227]005"},{"mesh":9,"translation":[-0.3730818,1.0478755,1.4884243],"rotation":[-0.32929385,-0.32929376,-0.62575203,0.62575203],"name":"KOT012 - Turnbuckle Part [8655227]006"},{"mesh":9,"translation":[-0.3730818,0.9250086,1.4884243],"rotation":[-0.32929385,-0.32929376,-0.62575203,0.62575203],"name":"KOT012 - Turnbuckle Part [8655227]007"},{"mesh":9,"translation":[-0.3730818,0.8021416,1.4884243],"rotation":[-0.32929385,-0.32929376,-0.62575203,0.62575203],"name":"KOT012 - Turnbuckle Part [8655227]008"},{"mesh":9,"translation":[-0.2920994,2.1093605,-0.023573343],"rotation":[-0.20945075,0.6753742,0.6753743,-0.20945089],"scale":[0.99999994,1.0,0.99999994],"name":"KOT012 - Turnbuckle Part [8655227]009"},{"mesh":9,"translation":[-0.2920994,1.9864827,-0.023573343],"rotation":[-0.20945075,0.6753742,0.6753743,-0.20945089],"scale":[0.99999994,1.0,0.99999994],"name":"KOT012 - Turnbuckle Part [8655227]010"},{"mesh":9,"translation":[-0.2920994,1.863605,-0.023573343],"rotation":[-0.20945075,0.6753742,0.6753743,-0.20945089],"scale":[0.99999994,1.0,0.99999994],"name":"KOT012 - Turnbuckle Part [8655227]011"},{"mesh":9,"translation":[-0.2920994,1.7407273,-0.023573343],"rotation":[-0.20945075,0.6753742,0.6753743,-0.20945089],"scale":[0.99999994,1.0,0.99999994],"name":"KOT012 - Turnbuckle Part [8655227]012"},{"mesh":9,"translation":[-0.2920994,1.6178497,-0.023573343],"rotation":[-0.20945075,0.6753742,0.6753743,-0.20945089],"scale":[0.99999994,1.0,0.99999994],"name":"KOT012 - Turnbuckle Part [8655227]013"},{"mesh":9,"translation":[-0.2920994,1.494972,-0.023573343],"rotation":[-0.20945075,0.6753742,0.6753743,-0.20945089],"scale":[0.99999994,1.0,0.99999994],"name":"KOT012 - Turnbuckle Part [8655227]014"},{"mesh":9,"translation":[-0.2920994,2.232238,-0.023573343],"rotation":[-0.20945075,0.6753742,0.6753743,-0.20945089],"scale":[0.99999994,1.0,0.99999994],"name":"KOT012 - Turnbuckle Part [8655227]015"},{"mesh":9,"translation":[-0.39370018,2.039637,-1.077674],"rotation":[0.20945086,-0.67537427,0.67537427,-0.2094508],"scale":[0.99999994,1.0,0.99999994],"name":"KOT012 - Turnbuckle Part [8655227]016"},{"mesh":9,"translation":[-0.39370018,1.9167594,-1.077674],"rotation":[0.20945086,-0.67537427,0.67537427,-0.2094508],"scale":[0.99999994,1.0,0.99999994],"name":"KOT012 - Turnbuckle Part [8655227]017"},{"mesh":9,"translation":[-0.39370018,1.7938817,-1.077674],"rotation":[0.20945086,-0.67537427,0.67537427,-0.2094508],"scale":[0.99999994,1.0,0.99999994],"name":"KOT012 - Turnbuckle Part [8655227]018"},{"mesh":9,"translation":[-0.39370018,1.6710039,-1.077674],"rotation":[0.20945086,-0.67537427,0.67537427,-0.2094508],"scale":[0.99999994,1.0,0.99999994],"name":"KOT012 - Turnbuckle Part [8655227]019"},{"mesh":9,"translation":[-0.39370018,1.5481263,-1.077674],"rotation":[0.20945086,-0.67537427,0.67537427,-0.2094508],"scale":[0.99999994,1.0,0.99999994],"name":"KOT012 - Turnbuckle Part [8655227]020"},{"mesh":9,"translation":[-0.39370018,1.4252486,-1.077674],"rotation":[0.20945086,-0.67537427,0.67537427,-0.2094508],"scale":[0.99999994,1.0,0.99999994],"name":"KOT012 - Turnbuckle Part [8655227]021"},{"mesh":9,"translation":[-0.39370018,2.1625147,-1.077674],"rotation":[0.20945086,-0.67537427,0.67537427,-0.2094508],"scale":[0.99999994,1.0,0.99999994],"name":"KOT012 - Turnbuckle Part [8655227]022"},{"mesh":9,"translation":[-1.4271827,0.6792747,1.4884243],"rotation":[0.62575203,-0.62575203,0.32929382,0.3292938],"name":"KOT012 - Turnbuckle Part [8655227]023"},{"mesh":9,"translation":[-1.4271827,0.55640775,1.4884243],"rotation":[0.62575203,-0.62575203,0.32929382,0.3292938],"name":"KOT012 - Turnbuckle Part [8655227]024"},{"mesh":9,"translation":[-1.4271827,0.43354076,1.4884243],"rotation":[0.62575203,-0.62575203,0.32929382,0.3292938],"name":"KOT012 - Turnbuckle Part [8655227]025"},{"mesh":9,"translation":[-1.4271827,0.3106738,1.4884243],"rotation":[0.62575203,-0.62575203,0.32929382,0.3292938],"name":"KOT012 - Turnbuckle Part [8655227]026"},{"mesh":9,"translation":[-1.4271827,1.0478755,1.4884243],"rotation":[0.62575203,-0.62575203,0.32929382,0.3292938],"name":"KOT012 - Turnbuckle Part [8655227]027"},{"mesh":9,"translation":[-1.4271827,0.9250086,1.4884243],"rotation":[0.62575203,-0.62575203,0.32929382,0.3292938],"name":"KOT012 - Turnbuckle Part [8655227]028"},{"mesh":9,"translation":[-1.4271827,0.8021416,1.4884243],"rotation":[0.62575203,-0.62575203,0.32929382,0.3292938],"name":"KOT012 - Turnbuckle Part [8655227]029"},{"mesh":9,"translation":[-1.2401369,1.8679886,-1.077674],"rotation":[-3.0908687E-08,0.7071067,0.7071068,3.0908552E-08],"name":"KOT012 - Turnbuckle Part [8655227]038"},{"mesh":9,"translation":[-1.2401369,1.7682029,-1.077674],"rotation":[-3.0908687E-08,0.7071067,0.7071068,3.0908552E-08],"name":"KOT012 - Turnbuckle Part [8655227]039"},{"mesh":9,"translation":[-1.2401369,1.6684172,-1.077674],"rotation":[-3.0908687E-08,0.7071067,0.7071068,3.0908552E-08],"name":"KOT012 - Turnbuckle Part [8655227]040"},{"mesh":9,"translation":[-1.2401369,1.5686314,-1.077674],"rotation":[-3.0908687E-08,0.7071067,0.7071068,3.0908552E-08],"name":"KOT012 - Turnbuckle Part [8655227]041"},{"mesh":9,"translation":[-1.2401369,1.4688457,-1.077674],"rotation":[-3.0908687E-08,0.7071067,0.7071068,3.0908552E-08],"name":"KOT012 - Turnbuckle Part [8655227]042"},{"mesh":9,"translation":[-1.2401369,1.36906,-1.077674],"rotation":[-3.0908687E-08,0.7071067,0.7071068,3.0908552E-08],"name":"KOT012 - Turnbuckle Part [8655227]043"},{"mesh":9,"translation":[-1.2401369,2.06756,-1.077674],"rotation":[-3.0908687E-08,0.7071067,0.7071068,3.0908552E-08],"name":"KOT012 - Turnbuckle Part [8655227]044"},{"mesh":9,"translation":[-1.2401369,1.9677743,-1.077674],"rotation":[-3.0908687E-08,0.7071067,0.7071068,3.0908552E-08],"name":"KOT012 - Turnbuckle Part [8655227]045"},{"mesh":9,"translation":[-1.4271827,1.8679886,-0.119431145],"rotation":[0.50000006,0.49999997,0.5000001,-0.49999997],"name":"KOT012 - Turnbuckle Part [8655227]046"},{"mesh":9,"translation":[-1.4271827,1.6684172,-0.119431145],"rotation":[0.50000006,0.49999997,0.5000001,-0.49999997],"name":"KOT012 - Turnbuckle Part [8655227]047"},{"mesh":9,"translation":[-1.4271827,1.5686314,-0.119431145],"rotation":[0.50000006,0.49999997,0.5000001,-0.49999997],"name":"KOT012 - Turnbuckle Part [8655227]048"},{"mesh":9,"translation":[-1.4271827,1.4688457,-0.119431145],"rotation":[0.50000006,0.49999997,0.5000001,-0.49999997],"name":"KOT012 - Turnbuckle Part [8655227]049"},{"mesh":9,"translation":[-1.4271827,1.36906,-0.119431145],"rotation":[0.50000006,0.49999997,0.5000001,-0.49999997],"name":"KOT012 - Turnbuckle Part [8655227]050"},{"mesh":9,"translation":[-1.4271827,2.06756,-0.119431145],"rotation":[0.50000006,0.49999997,0.5000001,-0.49999997],"name":"KOT012 - Turnbuckle Part [8655227]051"},{"mesh":9,"translation":[-1.4271827,1.7682029,-0.119431145],"rotation":[0.50000006,0.49999997,0.5000001,-0.49999997],"name":"KOT012 - Turnbuckle Part [8655227]052"},{"mesh":9,"translation":[-1.4271827,1.9677743,-0.119431145],"rotation":[0.50000006,0.49999997,0.5000001,-0.49999997],"name":"KOT012 - Turnbuckle Part [8655227]053"},{"mesh":10,"translation":[0.59319985,2.7168994,-0.02357298],"name":"Nested_Cable_Single Cable Assembly Generic [8145014]012"},{"mesh":10,"translation":[0.59319985,2.5940216,-0.02357298],"name":"Nested_Cable_Single Cable Assembly Generic [8145014]007"},{"mesh":10,"translation":[0.59319985,2.471144,-0.02357298],"name":"Nested_Cable_Single Cable Assembly Generic [8145014]008"},{"mesh":10,"translation":[0.59319985,2.3482664,-0.02357298],"name":"Nested_Cable_Single Cable Assembly Generic [8145014]009"},{"mesh":10,"translation":[0.59319985,2.2253885,-0.02357298],"name":"Nested_Cable_Single Cable Assembly Generic [8145014]010"},{"mesh":10,"translation":[0.59319985,2.102511,-0.02357298],"name":"Nested_Cable_Single Cable Assembly Generic [8145014]011"},{"mesh":10,"translation":[0.59319985,2.839777,-0.02357298],"name":"Nested_Cable_Single Cable Assembly Generic [8145014]"},{"mesh":11,"translation":[-0.3730818,1.6204607,0.70737654],"name":"CCR022 & CCR122 - Cable Center Toprail Post Cap Part [8467834]057"},{"mesh":11,"translation":[-0.3730818,1.0282598,1.5693891],"name":"CCR022 & CCR122 - Cable Center Toprail Post Cap Part [8467834]056"},{"mesh":11,"translation":[1.4666189,3.4752684,-0.023573343],"rotation":[-0.0,-0.7071068,0.0,0.7071067],"name":"CCR022 & CCR122 - Cable Center Toprail Post Cap Part [8467834]055"},{"mesh":11,"translation":[0.8957932,3.0835495,-0.023573343],"rotation":[-0.0,-0.7071068,0.0,0.7071067],"name":"CCR022 & CCR122 - Cable Center Toprail Post Cap Part [8467834]054"},{"mesh":11,"translation":[-0.37308282,2.212685,-0.023573343],"rotation":[-0.0,-0.7071068,0.0,0.7071067],"name":"CCR022 & CCR122 - Cable Center Toprail Post Cap Part [8467834]052"},{"mesh":11,"translation":[0.09636759,2.5349095,-0.023573343],"rotation":[-0.0,-0.7071068,0.0,0.7071067],"name":"CCR022 & CCR122 - Cable Center Toprail Post Cap Part [8467834]051"},{"mesh":11,"translation":[1.4666189,3.4752684,-1.077674],"rotation":[-0.0,0.7071068,0.0,0.7071067],"name":"CCR022 & CCR122 - Cable Center Toprail Post Cap Part [8467834]050"},{"mesh":11,"translation":[0.8957932,3.0835495,-1.077674],"rotation":[-0.0,0.7071068,0.0,0.7071067],"name":"CCR022 & CCR122 - Cable Center Toprail Post Cap Part [8467834]049"},{"mesh":11,"translation":[-0.4746813,2.143013,-1.077674],"rotation":[-0.0,0.7071068,0.0,0.7071067],"name":"CCR022 & CCR122 - Cable Center Toprail Post Cap Part [8467834]048"},{"mesh":11,"translation":[0.09636759,2.5349095,-1.077674],"rotation":[-0.0,0.7071068,0.0,0.7071067],"name":"CCR022 & CCR122 - Cable Center Toprail Post Cap Part [8467834]047"},{"mesh":11,"translation":[-1.3319312,2.1031456,-1.077674],"rotation":[-0.0,0.7071068,0.0,0.7071067],"name":"CCR022 & CCR122 - Cable Center Toprail Post Cap Part [8467834]046"},{"mesh":11,"translation":[-1.4271812,2.1031456,-0.9824241],"rotation":[-0.0,-1.0,0.0,-4.371139E-08],"name":"CCR022 & CCR122 - Cable Center Toprail Post Cap Part [8467834]045"},{"mesh":11,"translation":[-1.4271827,1.6204607,0.70737654],"rotation":[-0.0,-1.0,0.0,-1.6292068E-07],"name":"CCR022 & CCR122 - Cable Center Toprail Post Cap Part [8467834]041"},{"mesh":11,"translation":[-1.4271827,1.0282598,1.5693891],"rotation":[-0.0,-1.0,0.0,-1.6292068E-07],"name":"CCR022 & CCR122 - Cable Center Toprail Post Cap Part [8467834]040"},{"mesh":11,"translation":[-1.4271827,2.1031456,-0.023527203],"rotation":[-0.0,-1.0,0.0,-1.6292068E-07],"name":"CCR022 & CCR122 - Cable Center Toprail Post Cap Part [8467834]039"},{"mesh":12,"translation":[-0.3730821,1.1759903,0.7073774],"rotation":[-0.0,-0.7071068,0.0,0.7071067],"name":"Custom - Koto Round Post Material LS Material [8467835]001"},{"mesh":12,"translation":[-1.4271829,1.1759903,0.7073774],"rotation":[-0.0,-0.7071068,0.0,0.7071067],"name":"Custom - Koto Round Post Material LS Material [8467835]002"},{"mesh":13,"translation":[-0.3730821,0.6055699,1.5693899],"rotation":[-0.0,-0.7071068,0.0,0.7071067],"name":"Custom - Koto Round Post Material LS Material [8467844]"},{"mesh":14,"translation":[1.4666198,3.0177944,-0.02357298],"name":"Custom - Koto Round Post Material LS Material [8467853]"},{"mesh":14,"translation":[1.4666198,3.0177944,-1.0776738],"name":"Custom - Koto Round Post Material LS Material [8467853]001"},{"mesh":15,"translation":[0.89579415,2.6390545,-0.02357298],"name":"Custom - Koto Round Post Material LS Material [8579826]002"},{"mesh":15,"translation":[0.09636854,2.0904148,-0.02357298],"name":"Custom - Koto Round Post Material LS Material [8579826]003"},{"mesh":15,"translation":[0.89579415,2.6390545,-1.0776738],"name":"Custom - Koto Round Post Material LS Material [8579826]001"},{"mesh":15,"translation":[0.09636854,2.0904148,-1.0776738],"name":"Custom - Koto Round Post Material LS Material [8579826]"},{"mesh":16,"translation":[-0.3730819,1.7813362,-0.02357298],"name":"Custom - Koto Round Post Material LS Material [8467990]"},{"mesh":17,"translation":[-0.3730818,0.73152006,0.70737654],"name":"RCR002 - Lag Bolt Surface Mount - Res. Cable Part [8580994]039"},{"mesh":17,"translation":[-0.3730818,0.18288001,1.5693891],"name":"RCR002 - Lag Bolt Surface Mount - Res. Cable Part [8580994]040"},{"mesh":17,"translation":[1.4666189,2.56032,-0.023573343],"rotation":[-0.0,-0.7071068,0.0,0.7071067],"name":"RCR002 - Lag Bolt Surface Mount - Res. Cable Part [8580994]041"},{"mesh":17,"translation":[0.8957932,2.19456,-0.023573343],"rotation":[-0.0,-0.7071068,0.0,0.7071067],"name":"RCR002 - Lag Bolt Surface Mount - Res. Cable Part [8580994]042"},{"mesh":17,"translation":[-0.37308282,1.28016,-0.023573343],"rotation":[-0.0,-0.7071068,0.0,0.7071067],"name":"RCR002 - Lag Bolt Surface Mount - Res. Cable Part [8580994]044"},{"mesh":17,"translation":[0.09636759,1.64592,-0.023573343],"rotation":[-0.0,-0.7071068,0.0,0.7071067],"name":"RCR002 - Lag Bolt Surface Mount - Res. Cable Part [8580994]045"},{"mesh":17,"translation":[1.4666189,2.56032,-1.077674],"rotation":[-0.0,0.7071068,0.0,0.7071067],"name":"RCR002 - Lag Bolt Surface Mount - Res. Cable Part [8580994]046"},{"mesh":17,"translation":[0.8957932,2.19456,-1.077674],"rotation":[-0.0,0.7071068,0.0,0.7071067],"name":"RCR002 - Lag Bolt Surface Mount - Res. Cable Part [8580994]047"},{"mesh":17,"translation":[-0.4746813,1.28016,-1.077674],"rotation":[-0.0,0.7071068,0.0,0.7071067],"name":"RCR002 - Lag Bolt Surface Mount - Res. Cable Part [8580994]048"},{"mesh":17,"translation":[0.09636759,1.64592,-1.077674],"rotation":[-0.0,0.7071068,0.0,0.7071067],"name":"RCR002 - Lag Bolt Surface Mount - Res. Cable Part [8580994]049"},{"mesh":17,"translation":[-1.3319312,1.28016,-1.077674],"rotation":[-0.0,0.7071068,0.0,0.7071067],"name":"RCR002 - Lag Bolt Surface Mount - Res. Cable Part [8580994]050"},{"mesh":17,"translation":[-1.4271812,1.28016,-0.9824241],"rotation":[-0.0,-1.0,0.0,-4.371139E-08],"name":"RCR002 - Lag Bolt Surface Mount - Res. Cable Part [8580994]051"},{"mesh":17,"translation":[-1.4271827,0.73152006,0.70737654],"rotation":[-0.0,-1.0,0.0,-1.6292068E-07],"name":"RCR002 - Lag Bolt Surface Mount - Res. Cable Part [8580994]055"},{"mesh":17,"translation":[-1.4271827,0.18288001,1.5693891],"rotation":[-0.0,-1.0,0.0,-1.6292068E-07],"name":"RCR002 - Lag Bolt Surface Mount - Res. Cable Part [8580994]056"},{"mesh":17,"translation":[-1.4271827,1.28016,-0.023527203],"rotation":[-0.0,-1.0,0.0,-1.6292068E-07],"name":"RCR002 - Lag Bolt Surface Mount - Res. Cable Part [8580994]057"},{"mesh":18,"translation":[-0.3730818,1.6287459,0.70737654],"name":"Custom - Circum 5l8 Stem-Cable LS Material [8469848]001"},{"mesh":18,"translation":[-0.3730818,1.0365449,1.5693891],"name":"Custom - Circum 5l8 Stem-Cable LS Material [8469848]002"},{"mesh":18,"translation":[1.4666189,3.4835536,-0.023573343],"rotation":[-0.0,-0.7071068,0.0,0.7071067],"name":"Custom - Circum 5l8 Stem-Cable LS Material [8469848]010"},{"mesh":18,"translation":[0.8957932,3.0918348,-0.023573343],"rotation":[-0.0,-0.7071068,0.0,0.7071067],"name":"Custom - Circum 5l8 Stem-Cable LS Material [8469848]011"},{"mesh":18,"translation":[-0.3730818,2.1337996,-0.027636753],"name":"Custom - Circum 5l8 Stem-Cable LS Material [8469848]003"},{"mesh":18,"translation":[-0.37308282,2.2209704,-0.023573343],"rotation":[-0.0,-0.7071068,0.0,0.7071067],"name":"Custom - Circum 5l8 Stem-Cable LS Material [8469848]012"},{"mesh":18,"translation":[0.09636759,2.5431948,-0.023573343],"rotation":[-0.0,-0.7071068,0.0,0.7071067],"name":"Custom - Circum 5l8 Stem-Cable LS Material [8469848]007"},{"mesh":18,"translation":[1.4666189,3.4835536,-1.077674],"rotation":[-0.0,-0.7071068,0.0,0.7071068],"name":"Custom - Circum 5l8 Stem-Cable LS Material [8469848]009"},{"mesh":18,"translation":[0.8957932,3.0918348,-1.077674],"rotation":[-0.0,-0.7071068,0.0,0.7071068],"name":"Custom - Circum 5l8 Stem-Cable LS Material [8469848]008"},{"mesh":18,"translation":[-0.4746813,2.1512983,-1.077674],"rotation":[-0.0,-0.7071068,0.0,0.7071068],"name":"Custom - Circum 5l8 Stem-Cable LS Material [8469848]013"},{"mesh":18,"translation":[0.09636759,2.5431948,-1.077674],"rotation":[-0.0,-0.7071068,0.0,0.7071068],"name":"Custom - Circum 5l8 Stem-Cable LS Material [8469848]006"},{"mesh":18,"translation":[-1.4271827,1.6287459,0.70737654],"rotation":[-0.0,-5.9604645E-08,0.0,1.0],"name":"Custom - Circum 5l8 Stem-Cable LS Material [8469848]004"},{"mesh":18,"translation":[-1.4271827,1.0365449,1.5693891],"rotation":[-0.0,-5.9604645E-08,0.0,1.0],"name":"Custom - Circum 5l8 Stem-Cable LS Material [8469848]005"},{"mesh":19,"translation":[-0.3730818,1.7178591,0.7485601],"rotation":[-0.6753194,0.6753194,0.2096277,0.20962769],"scale":[0.99999994,1.0,0.99999994],"name":"CIR057 - 1 1l2 Rail Saddle Part [8723174]020"},{"mesh":19,"translation":[-0.3730818,1.125658,1.6105727],"rotation":[-0.6753194,0.6753194,0.2096277,0.20962769],"scale":[0.99999994,1.0,0.99999994],"name":"CIR057 - 1 1l2 Rail Saddle Part [8723174]021"},{"mesh":19,"translation":[1.4254702,3.572674,-0.023573343],"rotation":[-0.62566584,0.32945764,-0.32945758,0.6256658],"name":"CIR057 - 1 1l2 Rail Saddle Part [8723174]022"},{"mesh":19,"translation":[0.8546446,3.1809554,-0.023573343],"rotation":[-0.62566584,0.32945764,-0.32945758,0.6256658],"name":"CIR057 - 1 1l2 Rail Saddle Part [8723174]023"},{"mesh":19,"translation":[-0.3730818,2.2229128,0.013549106],"rotation":[-0.6753194,0.6753194,0.2096277,0.20962769],"scale":[0.99999994,1.0,0.99999994],"name":"CIR057 - 1 1l2 Rail Saddle Part [8723174]024"},{"mesh":19,"translation":[-0.41422915,2.310091,-0.023573343],"rotation":[-0.62566584,0.32945764,-0.32945758,0.6256658],"name":"CIR057 - 1 1l2 Rail Saddle Part [8723174]025"},{"mesh":19,"translation":[0.055221267,2.6323152,-0.023573343],"rotation":[-0.62566584,0.32945764,-0.32945758,0.6256658],"name":"CIR057 - 1 1l2 Rail Saddle Part [8723174]026"},{"mesh":19,"translation":[1.4254702,3.572674,-1.077674],"rotation":[0.6256658,-0.3294576,-0.32945758,0.6256658],"name":"CIR057 - 1 1l2 Rail Saddle Part [8723174]027"},{"mesh":19,"translation":[0.8546446,3.1809554,-1.077674],"rotation":[0.6256658,-0.3294576,-0.32945758,0.6256658],"name":"CIR057 - 1 1l2 Rail Saddle Part [8723174]028"},{"mesh":19,"translation":[-0.5158299,2.240419,-1.077674],"rotation":[0.6256658,-0.3294576,-0.32945758,0.6256658],"name":"CIR057 - 1 1l2 Rail Saddle Part [8723174]029"},{"mesh":19,"translation":[0.055221267,2.6323152,-1.077674],"rotation":[0.6256658,-0.3294576,-0.32945758,0.6256658],"name":"CIR057 - 1 1l2 Rail Saddle Part [8723174]030"},{"mesh":19,"translation":[-1.3319312,2.1945586,-1.077674],"rotation":[-0.5,0.5,0.5,-0.5],"scale":[1.0,0.99999994,0.99999994],"name":"CIR057 - 1 1l2 Rail Saddle Part [8723174]031"},{"mesh":19,"translation":[-1.4271812,2.1945586,-0.9824241],"rotation":[9.985135E-14,-9.985135E-14,-0.7071068,0.7071068],"name":"CIR057 - 1 1l2 Rail Saddle Part [8723174]032"},{"mesh":19,"translation":[-1.4271827,1.7178591,0.7485601],"rotation":[0.20962764,0.20962773,-0.6753193,0.6753194],"scale":[0.99999994,1.0,0.99999994],"name":"CIR057 - 1 1l2 Rail Saddle Part [8723174]036"},{"mesh":19,"translation":[-1.4271827,1.125658,1.6105727],"rotation":[0.20962764,0.20962773,-0.6753193,0.6753194],"scale":[0.99999994,1.0,0.99999994],"name":"CIR057 - 1 1l2 Rail Saddle Part [8723174]037"},{"mesh":19,"translation":[-1.4271827,2.1945586,-0.023527203],"rotation":[3.1219002E-08,-5.30747E-08,-0.7071068,0.7071068],"name":"CIR057 - 1 1l2 Rail Saddle Part [8723174]038"},{"mesh":20,"translation":[0.54239947,2.6820376,-1.0776738],"name":"Nested_Cable_Single Cable Assembly Generic [8579311]006"},{"mesh":20,"translation":[0.54239947,2.5591598,-1.0776738],"name":"Nested_Cable_Single Cable Assembly Generic [8579311]001"},{"mesh":20,"translation":[0.54239947,2.4362822,-1.0776738],"name":"Nested_Cable_Single Cable Assembly Generic [8579311]002"},{"mesh":20,"translation":[0.54239947,2.3134046,-1.0776738],"name":"Nested_Cable_Single Cable Assembly Generic [8579311]003"},{"mesh":20,"translation":[0.54239947,2.1905267,-1.0776738],"name":"Nested_Cable_Single Cable Assembly Generic [8579311]004"},{"mesh":20,"translation":[0.54239947,2.0676491,-1.0776738],"name":"Nested_Cable_Single Cable Assembly Generic [8579311]005"},{"mesh":20,"translation":[0.54239947,2.8049152,-1.0776738],"name":"Nested_Cable_Single Cable Assembly Generic [8579311]"},{"mesh":21,"translation":[-0.47468033,1.7115866,-1.0776738],"name":"Custom - Koto Round Post Material LS Material [8579823]"},{"mesh":22,"translation":[-1.3319304,1.6916528,-1.0776738],"name":"Custom - Koto Round Post Material LS Material [8580439]007"},{"mesh":22,"translation":[-1.4271803,1.6916528,-0.9824238],"rotation":[-0.0,-0.7071068,0.0,0.7071068],"name":"Custom - Koto Round Post Material LS Material [8580439]008"},{"mesh":23,"translation":[-1.3319312,2.1114306,-1.077674],"rotation":[-0.0,0.7071068,0.0,0.7071067],"name":"CCS139 - 5l8 Stem-Cable Part [8580409]006"},{"mesh":23,"translation":[-1.4271812,2.1114306,-0.9824241],"rotation":[-0.0,-1.0,0.0,-4.371139E-08],"name":"CCS139 - 5l8 Stem-Cable Part [8580409]005"},{"mesh":23,"translation":[-1.4271827,2.1114306,-0.023527203],"rotation":[-0.0,-1.0,0.0,-1.6292068E-07],"name":"CCS139 - 5l8 Stem-Cable Part [8580409]001"},{"mesh":24,"translation":[-1.4271829,0.6055699,1.5693899],"rotation":[-0.0,-0.7071068,0.0,0.7071067],"name":"Custom - Koto Round Post Material LS Material [8581377]"},{"mesh":25,"translation":[-1.4271829,1.6916528,-0.02352633],"rotation":[-0.0,-0.7071068,0.0,0.7071067],"name":"Custom - Koto Round Post Material LS Material [8581380]006"},{"mesh":26,"translation":[-1.4271803,1.6684171,0.0026649537],"name":"Nested_Cable_Single Cable Assembly Generic [8583315]008"},{"mesh":26,"translation":[-1.4271803,1.5686314,0.0026649537],"name":"Nested_Cable_Single Cable Assembly Generic [8583315]001"},{"mesh":26,"translation":[-1.4271803,1.4688458,0.0026649537],"name":"Nested_Cable_Single Cable Assembly Generic [8583315]002"},{"mesh":26,"translation":[-1.4271803,1.36906,0.0026649537],"name":"Nested_Cable_Single Cable Assembly Generic [8583315]003"},{"mesh":26,"translation":[-1.4271803,2.06756,0.0026649537],"name":"Nested_Cable_Single Cable Assembly Generic [8583315]004"},{"mesh":26,"translation":[-1.4271803,1.8679886,0.0026649537],"name":"Nested_Cable_Single Cable Assembly Generic [8583315]005"},{"mesh":26,"translation":[-1.4271803,1.7682029,0.0026649537],"name":"Nested_Cable_Single Cable Assembly Generic [8583315]006"},{"mesh":26,"translation":[-1.4271803,1.9677744,0.0026649537],"name":"Nested_Cable_Single Cable Assembly Generic [8583315]007"},{"mesh":27,"translation":[-0.8469925,1.8679886,-1.0776738],"name":"Nested_Cable_Single Cable Assembly Generic [8655163]"},{"mesh":27,"translation":[-0.8469925,1.7682029,-1.0776738],"name":"Nested_Cable_Single Cable Assembly Generic [8655163]005"},{"mesh":27,"translation":[-0.8469925,1.6684171,-1.0776738],"name":"Nested_Cable_Single Cable Assembly Generic [8655163]001"},{"mesh":27,"translation":[-0.8469925,1.5686314,-1.0776738],"name":"Nested_Cable_Single Cable Assembly Generic [8655163]002"},{"mesh":27,"translation":[-0.8469925,1.4688458,-1.0776738],"name":"Nested_Cable_Single Cable Assembly Generic [8655163]003"},{"mesh":27,"translation":[-0.8469925,1.36906,-1.0776738],"name":"Nested_Cable_Single Cable Assembly Generic [8655163]004"},{"mesh":27,"translation":[-0.8469925,2.06756,-1.0776738],"name":"Nested_Cable_Single Cable Assembly Generic [8655163]006"},{"mesh":27,"translation":[-0.8469925,1.9677744,-1.0776738],"name":"Nested_Cable_Single Cable Assembly Generic [8655163]007"},{"mesh":28,"translation":[-1.0652304,2.17551,-1.0776738],"rotation":[-0.7071068,0.7071068,3.5124707E-08,-2.6692542E-08],"name":"Nested_Bend Bend_1"},{"mesh":29,"translation":[-0.37308204,2.11836,0.031251222],"rotation":[-0.5,-0.5,0.5,-0.5],"name":"Nested_Bend Bend [8719267]001"}],"meshes":[{"primitives":[{"attributes":{"POSITION":1,"TANGENT":2,"NORMAL":3,"TEXCOORD_0":4},"indices":0,"material":0}],"name":"Nested_Rail LS Material [8461322]"},{"primitives":[{"attributes":{"POSITION":6,"TANGENT":7,"NORMAL":8,"TEXCOORD_0":9},"indices":5,"material":0},{"attributes":{"POSITION":11,"TANGENT":12,"NORMAL":13,"TEXCOORD_0":14},"indices":10,"material":1}],"name":"CIR024 - Handrail End Cap Part [8482091]006"},{"primitives":[{"attributes":{"POSITION":16,"TANGENT":17,"NORMAL":18,"TEXCOORD_0":19},"indices":15,"material":0}],"name":"Nested_Rail LS Material [8719226]"},{"primitives":[{"attributes":{"POSITION":21,"TANGENT":22,"NORMAL":23,"TEXCOORD_0":24},"indices":20,"material":0}],"name":"Nested_Rail LS Material [8719249]"},{"primitives":[{"attributes":{"POSITION":26,"TANGENT":27,"NORMAL":28,"TEXCOORD_0":29},"indices":25,"material":0}],"name":"CIR061 - 1 1l2 Rail-To-Rail Connector Part [8719260]001"},{"primitives":[{"attributes":{"POSITION":31,"TANGENT":32,"NORMAL":33,"TEXCOORD_0":34},"indices":30,"material":0}],"name":"Nested_Bend Bend [8719259]"},{"primitives":[{"attributes":{"POSITION":36,"TANGENT":37,"NORMAL":38,"TEXCOORD_0":39},"indices":35,"material":0}],"name":"Nested_Bend Bend [8719267]"},{"primitives":[{"attributes":{"POSITION":41,"TANGENT":42,"NORMAL":43,"TEXCOORD_0":44},"indices":40,"material":2}],"name":"Nested_Cable_Single Cable Assembly Generic [8580909]015"},{"primitives":[{"attributes":{"POSITION":46,"TANGENT":47,"NORMAL":48,"TEXCOORD_0":49},"indices":45,"material":3}],"name":"KOT010 - Right-Hand Threaded End Stop Part [8137739]001"},{"primitives":[{"attributes":{"POSITION":51,"TANGENT":52,"NORMAL":53,"TEXCOORD_0":54},"indices":50,"material":3}],"name":"KOT012 - Turnbuckle Part [8655227]002"},{"primitives":[{"attributes":{"POSITION":56,"TANGENT":57,"NORMAL":58,"TEXCOORD_0":59},"indices":55,"material":2}],"name":"Nested_Cable_Single Cable Assembly Generic [8145014]012"},{"primitives":[{"attributes":{"POSITION":61,"TANGENT":62,"NORMAL":63,"TEXCOORD_0":64},"indices":60,"material":0},{"attributes":{"POSITION":66,"TANGENT":67,"NORMAL":68,"TEXCOORD_0":69},"indices":65,"material":1}],"name":"CCR022 & CCR122 - Cable Center Toprail Post Cap Part [8467834]057"},{"primitives":[{"attributes":{"POSITION":71,"TANGENT":72,"NORMAL":73,"TEXCOORD_0":74},"indices":70,"material":0}],"name":"Custom - Koto Round Post Material LS Material [8467835]001"},{"primitives":[{"attributes":{"POSITION":76,"TANGENT":77,"NORMAL":78,"TEXCOORD_0":79},"indices":75,"material":0}],"name":"Custom - Koto Round Post Material LS Material [8467844]"},{"primitives":[{"attributes":{"POSITION":81,"TANGENT":82,"NORMAL":83,"TEXCOORD_0":84},"indices":80,"material":0}],"name":"Custom - Koto Round Post Material LS Material [8467853]"},{"primitives":[{"attributes":{"POSITION":86,"TANGENT":87,"NORMAL":88,"TEXCOORD_0":89},"indices":85,"material":0}],"name":"Custom - Koto Round Post Material LS Material [8579826]002"},{"primitives":[{"attributes":{"POSITION":91,"TANGENT":92,"NORMAL":93,"TEXCOORD_0":94},"indices":90,"material":0}],"name":"Custom - Koto Round Post Material LS Material [8467990]"},{"primitives":[{"attributes":{"POSITION":96,"TANGENT":97,"NORMAL":98,"TEXCOORD_0":99},"indices":95,"material":0},{"attributes":{"POSITION":101,"TANGENT":102,"NORMAL":103,"TEXCOORD_0":104},"indices":100,"material":1}],"name":"RCR002 - Lag Bolt Surface Mount - Res. Cable Part [8580994]039"},{"primitives":[{"attributes":{"POSITION":106,"TANGENT":107,"NORMAL":108,"TEXCOORD_0":109},"indices":105,"material":0}],"name":"Custom - Circum 5l8 Stem-Cable LS Material [8469848]001"},{"primitives":[{"attributes":{"POSITION":111,"TANGENT":112,"NORMAL":113,"TEXCOORD_0":114},"indices":110,"material":0}],"name":"CIR057 - 1 1l2 Rail Saddle Part [8723174]020"},{"primitives":[{"attributes":{"POSITION":116,"TANGENT":117,"NORMAL":118,"TEXCOORD_0":119},"indices":115,"material":2}],"name":"Nested_Cable_Single Cable Assembly Generic [8579311]006"},{"primitives":[{"attributes":{"POSITION":121,"TANGENT":122,"NORMAL":123,"TEXCOORD_0":124},"indices":120,"material":0}],"name":"Custom - Koto Round Post Material LS Material [8579823]"},{"primitives":[{"attributes":{"POSITION":126,"TANGENT":127,"NORMAL":128,"TEXCOORD_0":129},"indices":125,"material":0}],"name":"Custom - Koto Round Post Material LS Material [8580439]007"},{"primitives":[{"attributes":{"POSITION":131,"TANGENT":132,"NORMAL":133,"TEXCOORD_0":134},"indices":130,"material":0}],"name":"CCS139 - 5l8 Stem-Cable Part [8580409]006"},{"primitives":[{"attributes":{"POSITION":136,"TANGENT":137,"NORMAL":138,"TEXCOORD_0":139},"indices":135,"material":0}],"name":"Custom - Koto Round Post Material LS Material [8581377]"},{"primitives":[{"attributes":{"POSITION":141,"TANGENT":142,"NORMAL":143,"TEXCOORD_0":144},"indices":140,"material":0}],"name":"Custom - Koto Round Post Material LS Material [8581380]006"},{"primitives":[{"attributes":{"POSITION":146,"TANGENT":147,"NORMAL":148,"TEXCOORD_0":149},"indices":145,"material":2}],"name":"Nested_Cable_Single Cable Assembly Generic [8583315]008"},{"primitives":[{"attributes":{"POSITION":151,"TANGENT":152,"NORMAL":153,"TEXCOORD_0":154},"indices":150,"material":2}],"name":"Nested_Cable_Single Cable Assembly Generic [8655163]"},{"primitives":[{"attributes":{"POSITION":156,"TANGENT":157,"NORMAL":158,"TEXCOORD_0":159},"indices":155,"material":0}],"name":"Nested_Bend Bend_1"},{"primitives":[{"attributes":{"POSITION":161,"TANGENT":162,"NORMAL":163,"TEXCOORD_0":164},"indices":160,"material":0}],"name":"Nested_Bend Bend [8719267]001"}],"accessors":[{"bufferView":0,"componentType":5123,"count":4704,"type":"SCALAR","name":"accessorIndices"},{"bufferView":1,"componentType":5126,"count":882,"max":[2.4193501,0.01905,0.01905],"min":[6.2264863E-15,-0.01905,-0.01905],"type":"VEC3","name":"accessorPositions"},{"bufferView":2,"componentType":5126,"count":882,"type":"VEC4","name":"accessorTangents"},{"bufferView":1,"byteOffset":10584,"componentType":5126,"count":882,"type":"VEC3","name":"accessorNormals"},{"bufferView":3,"componentType":5126,"count":882,"type":"VEC2","name":"accessorUVs"},{"bufferView":0,"byteOffset":9408,"componentType":5123,"count":192,"type":"SCALAR","name":"accessorIndices"},{"bufferView":1,"byteOffset":21168,"componentType":5126,"count":66,"max":[-0.00029542364,0.01905,0.01905],"min":[-0.002286,-0.01905,-0.01905],"type":"VEC3","name":"accessorPositions"},{"bufferView":2,"byteOffset":14112,"componentType":5126,"count":66,"type":"VEC4","name":"accessorTangents"},{"bufferView":1,"byteOffset":21960,"componentType":5126,"count":66,"type":"VEC3","name":"accessorNormals"},{"bufferView":3,"byteOffset":7056,"componentType":5126,"count":66,"type":"VEC2","name":"accessorUVs"},{"bufferView":0,"byteOffset":9792,"componentType":5123,"count":762,"type":"SCALAR","name":"accessorIndices"},{"bufferView":1,"byteOffset":22752,"componentType":5126,"count":161,"max":[-0.00029542364,0.01905,0.01905],"min":[-0.0068578967,-0.01905,-0.01905],"type":"VEC3","name":"accessorPositions"},{"bufferView":2,"byteOffset":15168,"componentType":5126,"count":161,"type":"VEC4","name":"accessorTangents"},{"bufferView":1,"byteOffset":24684,"componentType":5126,"count":161,"type":"VEC3","name":"accessorNormals"},{"bufferView":3,"byteOffset":7584,"componentType":5126,"count":161,"type":"VEC2","name":"accessorUVs"},{"bufferView":0,"byteOffset":11316,"componentType":5123,"count":4260,"type":"SCALAR","name":"accessorIndices"},{"bufferView":1,"byteOffset":26616,"componentType":5126,"count":798,"max":[2.1907501,0.01905,0.01905],"min":[0.0005,-0.01905,-0.01905],"type":"VEC3","name":"accessorPositions"},{"bufferView":2,"byteOffset":17744,"componentType":5126,"count":798,"type":"VEC4","name":"accessorTangents"},{"bufferView":1,"byteOffset":36192,"componentType":5126,"count":798,"type":"VEC3","name":"accessorNormals"},{"bufferView":3,"byteOffset":8872,"componentType":5126,"count":798,"type":"VEC2","name":"accessorUVs"},{"bufferView":0,"byteOffset":19836,"componentType":5123,"count":3180,"type":"SCALAR","name":"accessorIndices"},{"bufferView":1,"byteOffset":45768,"componentType":5126,"count":606,"max":[1.6023619,0.01905,0.01905],"min":[6.2264863E-15,-0.01905,-0.01905],"type":"VEC3","name":"accessorPositions"},{"bufferView":2,"byteOffset":30512,"componentType":5126,"count":606,"type":"VEC4","name":"accessorTangents"},{"bufferView":1,"byteOffset":53040,"componentType":5126,"count":606,"type":"VEC3","name":"accessorNormals"},{"bufferView":3,"byteOffset":15256,"componentType":5126,"count":606,"type":"VEC2","name":"accessorUVs"},{"bufferView":0,"byteOffset":26196,"componentType":5123,"count":360,"type":"SCALAR","name":"accessorIndices"},{"bufferView":1,"byteOffset":60312,"componentType":5126,"count":128,"max":[0.0063500004,0.01905,0.01905],"min":[6.2687854E-15,-0.01905,-0.01905],"type":"VEC3","name":"accessorPositions"},{"bufferView":2,"byteOffset":40208,"componentType":5126,"count":128,"type":"VEC4","name":"accessorTangents"},{"bufferView":1,"byteOffset":61848,"componentType":5126,"count":128,"type":"VEC3","name":"accessorNormals"},{"bufferView":3,"byteOffset":20104,"componentType":5126,"count":128,"type":"VEC2","name":"accessorUVs"},{"bufferView":0,"byteOffset":26916,"componentType":5123,"count":1968,"type":"SCALAR","name":"accessorIndices"},{"bufferView":1,"byteOffset":63384,"componentType":5126,"count":448,"max":[0.46392035,0.01905,0.18120809],"min":[-0.3529469,-0.01905,-0.0762],"type":"VEC3","name":"accessorPositions"},{"bufferView":2,"byteOffset":42256,"componentType":5126,"count":448,"type":"VEC4","name":"accessorTangents"},{"bufferView":1,"byteOffset":68760,"componentType":5126,"count":448,"type":"VEC3","name":"accessorNormals"},{"bufferView":3,"byteOffset":21128,"componentType":5126,"count":448,"type":"VEC2","name":"accessorUVs"},{"bufferView":0,"byteOffset":30852,"componentType":5123,"count":2430,"type":"SCALAR","name":"accessorIndices"},{"bufferView":1,"byteOffset":74136,"componentType":5126,"count":524,"max":[0.7441849,0.01905,0.14091066],"min":[-0.29396087,-0.01905,-0.0762],"type":"VEC3","name":"accessorPositions"},{"bufferView":2,"byteOffset":49424,"componentType":5126,"count":524,"type":"VEC4","name":"accessorTangents"},{"bufferView":1,"byteOffset":80424,"componentType":5126,"count":524,"type":"VEC3","name":"accessorNormals"},{"bufferView":3,"byteOffset":24712,"componentType":5126,"count":524,"type":"VEC2","name":"accessorUVs"},{"bufferView":0,"byteOffset":35712,"componentType":5123,"count":276,"type":"SCALAR","name":"accessorIndices"},{"bufferView":1,"byteOffset":86712,"componentType":5126,"count":98,"max":[0.7075429,0.48696956,0.0019998779],"min":[-0.7075429,-0.48696947,-0.0019998779],"type":"VEC3","name":"accessorPositions"},{"bufferView":2,"byteOffset":57808,"componentType":5126,"count":98,"type":"VEC4","name":"accessorTangents"},{"bufferView":1,"byteOffset":87888,"componentType":5126,"count":98,"type":"VEC3","name":"accessorNormals"},{"bufferView":3,"byteOffset":28904,"componentType":5126,"count":98,"type":"VEC2","name":"accessorUVs"},{"bufferView":0,"byteOffset":36264,"componentType":5123,"count":1140,"type":"SCALAR","name":"accessorIndices"},{"bufferView":1,"byteOffset":89064,"componentType":5126,"count":388,"max":[0.0299974,0.0035052001,0.0035052001],"min":[-0.032004,-0.0035052001,-0.0035052001],"type":"VEC3","name":"accessorPositions"},{"bufferView":2,"byteOffset":59376,"componentType":5126,"count":388,"type":"VEC4","name":"accessorTangents"},{"bufferView":1,"byteOffset":93720,"componentType":5126,"count":388,"type":"VEC3","name":"accessorNormals"},{"bufferView":3,"byteOffset":29688,"componentType":5126,"count":388,"type":"VEC2","name":"accessorUVs"},{"bufferView":0,"byteOffset":38544,"componentType":5123,"count":2952,"type":"SCALAR","name":"accessorIndices"},{"bufferView":1,"byteOffset":98376,"componentType":5126,"count":1012,"max":[0.077494115,0.005003873,0.0057778903],"min":[-0.097104676,-0.005003805,-0.0057778903],"type":"VEC3","name":"accessorPositions"},{"bufferView":2,"byteOffset":65584,"componentType":5126,"count":1012,"type":"VEC4","name":"accessorTangents"},{"bufferView":1,"byteOffset":110520,"componentType":5126,"count":1012,"type":"VEC3","name":"accessorNormals"},{"bufferView":3,"byteOffset":32792,"componentType":5126,"count":1012,"type":"VEC2","name":"accessorUVs"},{"bufferView":0,"byteOffset":44448,"componentType":5123,"count":276,"type":"SCALAR","name":"accessorIndices"},{"bufferView":1,"byteOffset":122664,"componentType":5126,"count":98,"max":[0.82885754,0.5696789,0.0019998779],"min":[-0.82885754,-0.569679,-0.0019998779],"type":"VEC3","name":"accessorPositions"},{"bufferView":2,"byteOffset":81776,"componentType":5126,"count":98,"type":"VEC4","name":"accessorTangents"},{"bufferView":1,"byteOffset":123840,"componentType":5126,"count":98,"type":"VEC3","name":"accessorNormals"},{"bufferView":3,"byteOffset":40888,"componentType":5126,"count":98,"type":"VEC2","name":"accessorUVs"},{"bufferView":0,"byteOffset":45000,"componentType":5123,"count":1182,"type":"SCALAR","name":"accessorIndices"},{"bufferView":1,"byteOffset":125016,"componentType":5126,"count":320,"max":[0.0301752,0.0027432,0.0301752],"min":[-0.0301752,-2.1796964E-15,-0.0301752],"type":"VEC3","name":"accessorPositions"},{"bufferView":2,"byteOffset":83344,"componentType":5126,"count":320,"type":"VEC4","name":"accessorTangents"},{"bufferView":1,"byteOffset":128856,"componentType":5126,"count":320,"type":"VEC3","name":"accessorNormals"},{"bufferView":3,"byteOffset":41672,"componentType":5126,"count":320,"type":"VEC2","name":"accessorUVs"},{"bufferView":0,"byteOffset":47364,"componentType":5123,"count":1776,"type":"SCALAR","name":"accessorIndices"},{"bufferView":1,"byteOffset":132696,"componentType":5126,"count":337,"max":[0.0301752,0.008285249,0.0301752],"min":[-0.0301752,0.0027432,-0.0301752],"type":"VEC3","name":"accessorPositions"},{"bufferView":2,"byteOffset":88464,"componentType":5126,"count":337,"type":"VEC4","name":"accessorTangents"},{"bufferView":1,"byteOffset":136740,"componentType":5126,"count":337,"type":"VEC3","name":"accessorNormals"},{"bufferView":3,"byteOffset":44232,"componentType":5126,"count":337,"type":"VEC2","name":"accessorUVs"},{"bufferView":0,"byteOffset":50916,"componentType":5123,"count":38727,"type":"SCALAR","name":"accessorIndices"},{"bufferView":1,"byteOffset":140784,"componentType":5126,"count":8854,"max":[0.030163275,0.44447035,0.030163275],"min":[-0.030163275,-0.44447035,-0.030163275],"type":"VEC3","name":"accessorPositions"},{"bufferView":2,"byteOffset":93856,"componentType":5126,"count":8854,"type":"VEC4","name":"accessorTangents"},{"bufferView":1,"byteOffset":247032,"componentType":5126,"count":8854,"type":"VEC3","name":"accessorNormals"},{"bufferView":3,"byteOffset":46928,"componentType":5126,"count":8854,"type":"VEC2","name":"accessorUVs"},{"bufferView":0,"byteOffset":128372,"componentType":5123,"count":30654,"type":"SCALAR","name":"accessorIndices"},{"bufferView":1,"byteOffset":353280,"componentType":5126,"count":6253,"max":[0.030163275,0.42268983,0.030163275],"min":[-0.030163275,-0.42268986,-0.030163275],"type":"VEC3","name":"accessorPositions"},{"bufferView":2,"byteOffset":235520,"componentType":5126,"count":6253,"type":"VEC4","name":"accessorTangents"},{"bufferView":1,"byteOffset":428316,"componentType":5126,"count":6253,"type":"VEC3","name":"accessorNormals"},{"bufferView":3,"byteOffset":117760,"componentType":5126,"count":6253,"type":"VEC2","name":"accessorUVs"},{"bufferView":0,"byteOffset":189680,"componentType":5123,"count":32514,"type":"SCALAR","name":"accessorIndices"},{"bufferView":1,"byteOffset":503352,"componentType":5126,"count":6576,"max":[0.030163275,0.4574741,0.03016095],"min":[-0.030163275,-0.4574744,-0.030163275],"type":"VEC3","name":"accessorPositions"},{"bufferView":2,"byteOffset":335568,"componentType":5126,"count":6576,"type":"VEC4","name":"accessorTangents"},{"bufferView":1,"byteOffset":582264,"componentType":5126,"count":6576,"type":"VEC3","name":"accessorNormals"},{"bufferView":3,"byteOffset":167784,"componentType":5126,"count":6576,"type":"VEC2","name":"accessorUVs"},{"bufferView":0,"byteOffset":254708,"componentType":5123,"count":38685,"type":"SCALAR","name":"accessorIndices"},{"bufferView":1,"byteOffset":661176,"componentType":5126,"count":8846,"max":[0.030163275,0.44449466,0.030163275],"min":[-0.03016095,-0.4444948,-0.030163275],"type":"VEC3","name":"accessorPositions"},{"bufferView":2,"byteOffset":440784,"componentType":5126,"count":8846,"type":"VEC4","name":"accessorTangents"},{"bufferView":1,"byteOffset":767328,"componentType":5126,"count":8846,"type":"VEC3","name":"accessorNormals"},{"bufferView":3,"byteOffset":220392,"componentType":5126,"count":8846,"type":"VEC2","name":"accessorUVs"},{"bufferView":0,"byteOffset":332080,"componentType":5123,"count":1728,"type":"SCALAR","name":"accessorIndices"},{"bufferView":1,"byteOffset":873480,"componentType":5126,"count":584,"max":[0.03016095,0.43142644,0.030163275],"min":[-0.030163275,-0.5011761,-0.030163275],"type":"VEC3","name":"accessorPositions"},{"bufferView":2,"byteOffset":582320,"componentType":5126,"count":584,"type":"VEC4","name":"accessorTangents"},{"bufferView":1,"byteOffset":880488,"componentType":5126,"count":584,"type":"VEC3","name":"accessorNormals"},{"bufferView":3,"byteOffset":291160,"componentType":5126,"count":584,"type":"VEC2","name":"accessorUVs"},{"bufferView":0,"byteOffset":335536,"componentType":5123,"count":3492,"type":"SCALAR","name":"accessorIndices"},{"bufferView":1,"byteOffset":887496,"componentType":5126,"count":765,"max":[0.05715,0.025400002,0.05715],"min":[-0.05715,-1.479894E-15,-0.05715],"type":"VEC3","name":"accessorPositions"},{"bufferView":2,"byteOffset":591664,"componentType":5126,"count":765,"type":"VEC4","name":"accessorTangents"},{"bufferView":1,"byteOffset":896676,"componentType":5126,"count":765,"type":"VEC3","name":"accessorNormals"},{"bufferView":3,"byteOffset":295832,"componentType":5126,"count":765,"type":"VEC2","name":"accessorUVs"},{"bufferView":0,"byteOffset":342520,"componentType":5123,"count":1368,"type":"SCALAR","name":"accessorIndices"},{"bufferView":1,"byteOffset":905856,"componentType":5126,"count":456,"max":[0.05715,0.025400002,0.05715],"min":[-0.05715,-1.479894E-15,-0.05715],"type":"VEC3","name":"accessorPositions"},{"bufferView":2,"byteOffset":603904,"componentType":5126,"count":456,"type":"VEC4","name":"accessorTangents"},{"bufferView":1,"byteOffset":911328,"componentType":5126,"count":456,"type":"VEC3","name":"accessorNormals"},{"bufferView":3,"byteOffset":301952,"componentType":5126,"count":456,"type":"VEC2","name":"accessorUVs"},{"bufferView":0,"byteOffset":345256,"componentType":5123,"count":2682,"type":"SCALAR","name":"accessorIndices"},{"bufferView":1,"byteOffset":916800,"componentType":5126,"count":750,"max":[0.0079375,0.06034161,0.024871314],"min":[-0.0079375,-0.013208,-0.0079375],"type":"VEC3","name":"accessorPositions"},{"bufferView":2,"byteOffset":611200,"componentType":5126,"count":750,"type":"VEC4","name":"accessorTangents"},{"bufferView":1,"byteOffset":925800,"componentType":5126,"count":750,"type":"VEC3","name":"accessorNormals"},{"bufferView":3,"byteOffset":305600,"componentType":5126,"count":750,"type":"VEC2","name":"accessorUVs"},{"bufferView":0,"byteOffset":350620,"componentType":5123,"count":348,"type":"SCALAR","name":"accessorIndices"},{"bufferView":1,"byteOffset":934800,"componentType":5126,"count":128,"max":[0.042062398,0.0120777,0.03175],"min":[0.033772144,-0.012090401,-0.03175],"type":"VEC3","name":"accessorPositions"},{"bufferView":2,"byteOffset":623200,"componentType":5126,"count":128,"type":"VEC4","name":"accessorTangents"},{"bufferView":1,"byteOffset":936336,"componentType":5126,"count":128,"type":"VEC3","name":"accessorNormals"},{"bufferView":3,"byteOffset":311600,"componentType":5126,"count":128,"type":"VEC2","name":"accessorUVs"},{"bufferView":0,"byteOffset":351316,"componentType":5123,"count":276,"type":"SCALAR","name":"accessorIndices"},{"bufferView":1,"byteOffset":937872,"componentType":5126,"count":98,"max":[0.8796579,0.6045407,0.0019998779],"min":[-0.8796579,-0.6045406,-0.0019998779],"type":"VEC3","name":"accessorPositions"},{"bufferView":2,"byteOffset":625248,"componentType":5126,"count":98,"type":"VEC4","name":"accessorTangents"},{"bufferView":1,"byteOffset":939048,"componentType":5126,"count":98,"type":"VEC3","name":"accessorNormals"},{"bufferView":3,"byteOffset":312624,"componentType":5126,"count":98,"type":"VEC2","name":"accessorUVs"},{"bufferView":0,"byteOffset":351868,"componentType":5123,"count":34689,"type":"SCALAR","name":"accessorIndices"},{"bufferView":1,"byteOffset":940224,"componentType":5126,"count":7490,"max":[0.03016095,0.43142644,0.030163275],"min":[-0.030163275,-0.43142658,-0.030163275],"type":"VEC3","name":"accessorPositions"},{"bufferView":2,"byteOffset":626816,"componentType":5126,"count":7490,"type":"VEC4","name":"accessorTangents"},{"bufferView":1,"byteOffset":1030104,"componentType":5126,"count":7490,"type":"VEC3","name":"accessorNormals"},{"bufferView":3,"byteOffset":313408,"componentType":5126,"count":7490,"type":"VEC2","name":"accessorUVs"},{"bufferView":0,"byteOffset":421248,"componentType":5123,"count":28869,"type":"SCALAR","name":"accessorIndices"},{"bufferView":1,"byteOffset":1119984,"componentType":5126,"count":5774,"max":[0.03016095,0.41149276,0.03016095],"min":[-0.030163275,-0.41149276,-0.030163275],"type":"VEC3","name":"accessorPositions"},{"bufferView":2,"byteOffset":746656,"componentType":5126,"count":5774,"type":"VEC4","name":"accessorTangents"},{"bufferView":1,"byteOffset":1189272,"componentType":5126,"count":5774,"type":"VEC3","name":"accessorNormals"},{"bufferView":3,"byteOffset":373328,"componentType":5126,"count":5774,"type":"VEC2","name":"accessorUVs"},{"bufferView":0,"byteOffset":478988,"componentType":5123,"count":852,"type":"SCALAR","name":"accessorIndices"},{"bufferView":1,"byteOffset":1258560,"componentType":5126,"count":432,"max":[0.0079375,0.0427736,0.0079375],"min":[-0.0079375,-0.01320801,-0.0079375],"type":"VEC3","name":"accessorPositions"},{"bufferView":2,"byteOffset":839040,"componentType":5126,"count":432,"type":"VEC4","name":"accessorTangents"},{"bufferView":1,"byteOffset":1263744,"componentType":5126,"count":432,"type":"VEC3","name":"accessorNormals"},{"bufferView":3,"byteOffset":419520,"componentType":5126,"count":432,"type":"VEC2","name":"accessorUVs"},{"bufferView":0,"byteOffset":480692,"componentType":5123,"count":30528,"type":"SCALAR","name":"accessorIndices"},{"bufferView":1,"byteOffset":1268928,"componentType":5126,"count":6231,"max":[0.030163275,0.42268983,0.03016095],"min":[-0.030163275,-0.42268986,-0.030163275],"type":"VEC3","name":"accessorPositions"},{"bufferView":2,"byteOffset":845952,"componentType":5126,"count":6231,"type":"VEC4","name":"accessorTangents"},{"bufferView":1,"byteOffset":1343700,"componentType":5126,"count":6231,"type":"VEC3","name":"accessorNormals"},{"bufferView":3,"byteOffset":422976,"componentType":5126,"count":6231,"type":"VEC2","name":"accessorUVs"},{"bufferView":0,"byteOffset":541748,"componentType":5123,"count":32973,"type":"SCALAR","name":"accessorIndices"},{"bufferView":1,"byteOffset":1418472,"componentType":5126,"count":7212,"max":[0.030163275,0.41149276,0.03016095],"min":[-0.03016095,-0.41149276,-0.030163275],"type":"VEC3","name":"accessorPositions"},{"bufferView":2,"byteOffset":945648,"componentType":5126,"count":7212,"type":"VEC4","name":"accessorTangents"},{"bufferView":1,"byteOffset":1505016,"componentType":5126,"count":7212,"type":"VEC3","name":"accessorNormals"},{"bufferView":3,"byteOffset":472824,"componentType":5126,"count":7212,"type":"VEC2","name":"accessorUVs"},{"bufferView":0,"byteOffset":607696,"componentType":5123,"count":276,"type":"SCALAR","name":"accessorIndices"},{"bufferView":1,"byteOffset":1591560,"componentType":5126,"count":98,"max":[0.0019998779,0.0020000234,-0.20870906],"min":[-0.0019998779,-0.0020000234,-0.9360917],"type":"VEC3","name":"accessorPositions"},{"bufferView":2,"byteOffset":1061040,"componentType":5126,"count":98,"type":"VEC4","name":"accessorTangents"},{"bufferView":1,"byteOffset":1592736,"componentType":5126,"count":98,"type":"VEC3","name":"accessorNormals"},{"bufferView":3,"byteOffset":530520,"componentType":5126,"count":98,"type":"VEC2","name":"accessorUVs"},{"bufferView":0,"byteOffset":608248,"componentType":5123,"count":276,"type":"SCALAR","name":"accessorIndices"},{"bufferView":1,"byteOffset":1593912,"componentType":5126,"count":98,"max":[0.32331514,0.0020000234,0.0019998779],"min":[-0.32331747,-0.0020000234,-0.0019998779],"type":"VEC3","name":"accessorPositions"},{"bufferView":2,"byteOffset":1062608,"componentType":5126,"count":98,"type":"VEC4","name":"accessorTangents"},{"bufferView":1,"byteOffset":1595088,"componentType":5126,"count":98,"type":"VEC3","name":"accessorNormals"},{"bufferView":3,"byteOffset":531304,"componentType":5126,"count":98,"type":"VEC2","name":"accessorUVs"},{"bufferView":0,"byteOffset":608800,"componentType":5123,"count":1788,"type":"SCALAR","name":"accessorIndices"},{"bufferView":1,"byteOffset":1596264,"componentType":5126,"count":823,"max":[0.01905,0.38131106,0.01905],"min":[-0.01905002,0.0004998547,-0.35748518],"type":"VEC3","name":"accessorPositions"},{"bufferView":2,"byteOffset":1064176,"componentType":5126,"count":823,"type":"VEC4","name":"accessorTangents"},{"bufferView":1,"byteOffset":1606140,"componentType":5126,"count":823,"type":"VEC3","name":"accessorNormals"},{"bufferView":3,"byteOffset":532088,"componentType":5126,"count":823,"type":"VEC2","name":"accessorUVs"},{"bufferView":0,"byteOffset":612376,"componentType":5123,"count":3732,"type":"SCALAR","name":"accessorIndices"},{"bufferView":1,"byteOffset":1616016,"componentType":5126,"count":832,"max":[0.05671776,0.018946385,1.052516],"min":[-1.6208407,-0.018946385,-0.07609182],"type":"VEC3","name":"accessorPositions"},{"bufferView":2,"byteOffset":1077344,"componentType":5126,"count":832,"type":"VEC4","name":"accessorTangents"},{"bufferView":1,"byteOffset":1626000,"componentType":5126,"count":832,"type":"VEC3","name":"accessorNormals"},{"bufferView":3,"byteOffset":538672,"componentType":5126,"count":832,"type":"VEC2","name":"accessorUVs"}],"bufferViews":[{"buffer":0,"byteLength":619840,"name":"bufferViewScalar"},{"buffer":0,"byteOffset":619840,"byteLength":1635984,"byteStride":12,"name":"bufferViewFloatVec3"},{"buffer":0,"byteOffset":2255824,"byteLength":1090656,"byteStride":16,"name":"bufferViewFloatVec4"},{"buffer":0,"byteOffset":3346480,"byteLength":545328,"byteStride":8,"name":"bufferViewFloatVec2"}],"buffers":[{"uri":"L-Shaped_Railing_Koto_Round.bin","byteLength":3891808}],"materials":[{"pbrMetallicRoughness":{"baseColorFactor":[0.9999998,0.9999999,0.9999999,1.0],"baseColorTexture":{"index":0,"extensions":{"KHR_texture_transform":{"offset":[0.19519997,0.8048],"rotation":1.5707964,"scale":[0.6096,0.6096],"texCoord":0}}},"roughnessFactor":0.2,"metallicRoughnessTexture":{"index":0,"extensions":{"KHR_texture_transform":{"offset":[0.19519997,0.8048],"rotation":1.5707964,"scale":[0.6096,0.6096],"texCoord":0}}}},"name":"Steel_Linear"},{"pbrMetallicRoughness":{"baseColorFactor":[0.9999998,0.9999999,0.9999999,1.0],"baseColorTexture":{"index":1},"roughnessFactor":0.2,"metallicRoughnessTexture":{"index":1}},"name":"Steel_Radial"},{"pbrMetallicRoughness":{"baseColorFactor":[0.9999998,0.9999999,0.9999999,1.0],"baseColorTexture":{"index":2,"extensions":{"KHR_texture_transform":{"offset":[0.21909332,-0.053646088],"rotation":-1.2217305,"scale":[25.83051,25.83051],"texCoord":0}}},"roughnessFactor":0.2,"metallicRoughnessTexture":{"index":2,"extensions":{"KHR_texture_transform":{"offset":[0.21909332,-0.053646088],"rotation":-1.2217305,"scale":[25.83051,25.83051],"texCoord":0}}}},"name":"Cable"},{"pbrMetallicRoughness":{"baseColorFactor":[0.9999998,0.9999999,0.9999999,1.0],"roughnessFactor":0.2},"name":"Steel_Polished"}],"textures":[{"sampler":0,"source":0,"name":"Metal_Brushed_Linear_4k.jpg"},{"sampler":0,"source":1,"name":"Metal_Brushed_Radial_4k.jpg"},{"sampler":0,"source":2,"name":"Metal_Cable.jpg"}],"images":[{"uri":"textures/Metal_Brushed_Linear_4k.jpg"},{"uri":"textures/Metal_Brushed_Radial_4k.jpg"},{"uri":"textures/Metal_Cable.jpg"}],"samplers":[{"magFilter":9729,"minFilter":9987}]}