{"asset":{"version":"2.0","generator":"babylon.js glTF exporter for 3dsmax 2026 v20251111.2"},"extensionsUsed":["KHR_texture_transform","KHR_materials_specular","KHR_materials_ior","KHR_materials_transmission","KHR_materials_volume"],"extensionsRequired":["KHR_texture_transform"],"scene":0,"scenes":[{"nodes":[0,1,2,3,4,5,6,7,8,9,10,11,12,13,14,15,16,17,18,19,20,21,22,23,24,25,26,27,28,29,30,31,32,33,34,35,36,37,38,39,40,41,42,43,44,45,46,47,48,49,50,51,52,53,54,55,56,57,58,59,60,61,62,63,64,65,66,67,68,69,70,71,72,73,74,75,76,77,78,79,80,81,82,83,84,85,86,87,88,89,90,91,92,93,94,95,96,97,98,99,100,101,102,103,104,105,106,107,108,109,110,111,112,113,114,115,116,117,118,119,120,121,122,123,124,125,126,127,128,129,130,131,132,133,134,135,136,137,138,139,140,141,142,143,144,145,146,147,148,149,150,151,152,153,154,155,156,157,158,159,160,161,162,163,164,165,166,167,168,169,170,171,172,173,174,175,176,177,178,179,180,181,182,183,184,185,186,187,188,189,190,191,192,193,194,195,196,197,198,199,200,201,202,203,204,205,206,207,208,209,210,211,212,213,214,215,216,217,218,219,220,221,222,223,224,225,226,227,228,229,230,231,232,233,234,235,236,237,238,239,240,241,242,243,244,245,246,247,248,249,250,251,252,253,254,255,256,257,258,259,260,261,262,263,264,265,266,267,268,269,270,271,272,273,274,275,276,277,278,279,280,281,282,283,284,285,286,287,288,289,290,291,292,293,294,295,296,297,298,299,300,301,302,303,304,305,306]}],"nodes":[{"mesh":0,"translation":[-0.2904977,1.0464801,0.24874151],"rotation":[-0.0,0.7071068,0.0,0.7071068],"name":"Boss_047"},{"mesh":0,"translation":[-0.09430268,1.41224,0.059086945],"name":"Boss_046"},{"mesh":0,"translation":[0.17217408,1.59512,0.059086945],"name":"Boss_045"},{"mesh":0,"translation":[0.019774083,1.59512,0.059086945],"name":"Boss_044"},{"mesh":0,"translation":[0.43864852,1.7780001,0.059086945],"name":"Boss_043"},{"mesh":0,"translation":[0.2862485,1.7780001,0.059086945],"name":"Boss_042"},{"mesh":0,"translation":[0.70512295,1.96088,0.059086945],"name":"Boss_041"},{"mesh":0,"translation":[0.55272293,1.96088,0.059086945],"name":"Boss_040"},{"mesh":0,"translation":[0.9715974,2.14376,0.059086945],"name":"Boss_039"},{"mesh":0,"translation":[0.8191974,2.14376,0.059086945],"name":"Boss_038"},{"mesh":0,"translation":[1.2380742,2.32664,0.059086945],"name":"Boss_037"},{"mesh":0,"translation":[1.0856742,2.32664,0.059086945],"name":"Boss_036"},{"mesh":0,"translation":[1.5045485,2.50952,0.059086945],"name":"Boss_035"},{"mesh":0,"translation":[1.3521485,2.50952,0.059086945],"name":"Boss_034"},{"mesh":0,"translation":[-0.09430268,1.41224,-1.1601131],"rotation":[-0.0,-1.0,0.0,-4.371139E-08],"name":"Boss_033"},{"mesh":0,"translation":[-0.24670267,1.41224,-1.1601131],"rotation":[-0.0,-1.0,0.0,4.371139E-08],"name":"OPT001 - Glass Mount Base Part [8745451]"},{"mesh":0,"translation":[0.17217408,1.59512,-1.1601131],"rotation":[-0.0,-1.0,0.0,-4.371139E-08],"name":"Boss_032"},{"mesh":0,"translation":[0.019774083,1.59512,-1.1601131],"rotation":[-0.0,-1.0,0.0,-4.371139E-08],"name":"Boss_031"},{"mesh":0,"translation":[0.43864852,1.7780001,-1.1601131],"rotation":[-0.0,-1.0,0.0,-4.371139E-08],"name":"Boss_030"},{"mesh":0,"translation":[0.2862485,1.7780001,-1.1601131],"rotation":[-0.0,-1.0,0.0,-4.371139E-08],"name":"Boss_029"},{"mesh":0,"translation":[0.70512295,1.96088,-1.1601131],"rotation":[-0.0,-1.0,0.0,-4.371139E-08],"name":"Boss_028"},{"mesh":0,"translation":[0.55272293,1.96088,-1.1601131],"rotation":[-0.0,-1.0,0.0,-4.371139E-08],"name":"Boss_027"},{"mesh":0,"translation":[0.9715974,2.14376,-1.1601131],"rotation":[-0.0,-1.0,0.0,-4.371139E-08],"name":"Boss_026"},{"mesh":0,"translation":[0.8191974,2.14376,-1.1601131],"rotation":[-0.0,-1.0,0.0,-4.371139E-08],"name":"Boss_025"},{"mesh":0,"translation":[1.2380742,2.32664,-1.1601131],"rotation":[-0.0,-1.0,0.0,-4.371139E-08],"name":"Boss_024"},{"mesh":0,"translation":[1.0856742,2.32664,-1.1601131],"rotation":[-0.0,-1.0,0.0,-4.371139E-08],"name":"Boss_023"},{"mesh":0,"translation":[1.5045485,2.50952,-1.1601131],"rotation":[-0.0,-1.0,0.0,-4.371139E-08],"name":"Boss_022"},{"mesh":0,"translation":[1.3521485,2.50952,-1.1601131],"rotation":[-0.0,-1.0,0.0,-4.371139E-08],"name":"Boss_021"},{"mesh":0,"translation":[-1.5096977,1.0464801,0.24874151],"rotation":[-0.0,-0.7071068,0.0,0.7071067],"name":"Boss_020"},{"mesh":0,"translation":[-1.5096977,0.8636,0.5149136],"rotation":[-0.0,-0.7071068,0.0,0.7071067],"name":"Boss_019"},{"mesh":0,"translation":[-1.5096977,0.8636,0.36251363],"rotation":[-0.0,-0.7071068,0.0,0.7071067],"name":"Boss_018"},{"mesh":0,"translation":[-1.5096977,0.68072003,0.78108346],"rotation":[-0.0,-0.7071068,0.0,0.7071067],"name":"Boss_017"},{"mesh":0,"translation":[-1.5096977,0.68072003,0.62868345],"rotation":[-0.0,-0.7071068,0.0,0.7071067],"name":"Boss_016"},{"mesh":0,"translation":[-1.5096977,0.49784002,1.0472555],"rotation":[-0.0,-0.7071068,0.0,0.7071067],"name":"Boss_015"},{"mesh":0,"translation":[-1.5096977,0.49784002,0.89485556],"rotation":[-0.0,-0.7071068,0.0,0.7071067],"name":"Boss_014"},{"mesh":0,"translation":[-1.5096977,0.31496,1.3134254],"rotation":[-0.0,-0.7071068,0.0,0.7071067],"name":"Boss_013"},{"mesh":0,"translation":[-1.5096977,0.31496,1.1610254],"rotation":[-0.0,-0.7071068,0.0,0.7071067],"name":"Boss_012"},{"mesh":0,"translation":[-1.5096977,0.13208,1.5795952],"rotation":[-0.0,-0.7071068,0.0,0.7071067],"name":"Boss_011"},{"mesh":0,"translation":[-1.5096977,0.13208,1.4271952],"rotation":[-0.0,-0.7071068,0.0,0.7071067],"name":"Boss_010"},{"mesh":0,"translation":[-0.29049775,0.8636,0.5149137],"rotation":[-0.0,0.7071068,0.0,0.7071068],"name":"Boss_009"},{"mesh":0,"translation":[-0.29049775,0.8636,0.3625137],"rotation":[-0.0,0.7071068,0.0,0.7071068],"name":"Boss_008"},{"mesh":0,"translation":[-0.2904977,0.68072003,0.78108346],"rotation":[-0.0,0.7071068,0.0,0.7071068],"name":"Boss_007"},{"mesh":0,"translation":[-0.2904977,0.68072003,0.62868345],"rotation":[-0.0,0.7071068,0.0,0.7071068],"name":"Boss_006"},{"mesh":0,"translation":[-0.29049775,0.49784002,1.0472558],"rotation":[-0.0,0.7071068,0.0,0.7071068],"name":"Boss_005"},{"mesh":0,"translation":[-0.2904977,0.49784002,0.89485556],"rotation":[-0.0,0.7071068,0.0,0.7071068],"name":"Boss_004"},{"mesh":0,"translation":[-0.29049775,0.31496,1.3134254],"rotation":[-0.0,0.7071068,0.0,0.7071068],"name":"Boss_003"},{"mesh":0,"translation":[-0.29049775,0.31496,1.1610255],"rotation":[-0.0,0.7071068,0.0,0.7071068],"name":"Boss_002"},{"mesh":0,"translation":[-0.29049775,0.13208,1.5795952],"rotation":[-0.0,0.7071068,0.0,0.7071068],"name":"Boss_001"},{"mesh":0,"translation":[-0.29049775,0.13208,1.4271952],"rotation":[-0.0,0.7071068,0.0,0.7071068],"name":"Boss_000"},{"mesh":1,"translation":[-0.22224836,1.0464801,0.24874151],"rotation":[-0.0,0.7071068,0.0,0.7071068],"name":"Glass Mount Clamp Part [8742498]026"},{"mesh":1,"translation":[-0.09430268,1.41224,0.12733859],"name":"Glass Mount Clamp Part [8742498]027"},{"mesh":1,"translation":[-0.4660079,1.22936,-1.2283624],"rotation":[-0.0,-1.0,0.0,4.371139E-08],"name":"Glass Mount Clamp Part [8742498]"},{"mesh":1,"translation":[-0.4660079,1.14681,-1.2283624],"rotation":[-0.0,-1.0,0.0,-4.371139E-08],"name":"Glass Mount Clamp Part [8742498]001"},{"mesh":1,"translation":[0.17217408,1.59512,0.12733859],"name":"Glass Mount Clamp Part [8742498]028"},{"mesh":1,"translation":[0.019774083,1.59512,0.12733859],"name":"Glass Mount Clamp Part [8742498]029"},{"mesh":1,"translation":[0.43864852,1.7780001,0.12733859],"name":"Glass Mount Clamp Part [8742498]030"},{"mesh":1,"translation":[0.2862485,1.7780001,0.12733859],"name":"Glass Mount Clamp Part [8742498]031"},{"mesh":1,"translation":[0.70512295,1.96088,0.12733859],"name":"Glass Mount Clamp Part [8742498]032"},{"mesh":1,"translation":[0.55272293,1.96088,0.12733859],"name":"Glass Mount Clamp Part [8742498]033"},{"mesh":1,"translation":[0.9715974,2.14376,0.12733859],"name":"Glass Mount Clamp Part [8742498]034"},{"mesh":1,"translation":[0.8191974,2.14376,0.12733859],"name":"Glass Mount Clamp Part [8742498]035"},{"mesh":1,"translation":[1.2380742,2.32664,0.12733859],"name":"Glass Mount Clamp Part [8742498]036"},{"mesh":1,"translation":[1.0856742,2.32664,0.12733859],"name":"Glass Mount Clamp Part [8742498]037"},{"mesh":1,"translation":[1.5045485,2.50952,0.12733859],"name":"Glass Mount Clamp Part [8742498]038"},{"mesh":1,"translation":[1.3521485,2.50952,0.12733859],"name":"Glass Mount Clamp Part [8742498]039"},{"mesh":1,"translation":[-0.09430268,1.41224,-1.2283624],"rotation":[-0.0,-1.0,0.0,-4.371139E-08],"name":"Glass Mount Clamp Part [8742498]040"},{"mesh":1,"translation":[-0.24670267,1.41224,-1.2283624],"rotation":[-0.0,-1.0,0.0,-4.371139E-08],"name":"Glass Mount Clamp Part [8742498]041"},{"mesh":1,"translation":[0.17217408,1.59512,-1.2283624],"rotation":[-0.0,-1.0,0.0,-4.371139E-08],"name":"Glass Mount Clamp Part [8742498]042"},{"mesh":1,"translation":[0.019774083,1.59512,-1.2283624],"rotation":[-0.0,-1.0,0.0,-4.371139E-08],"name":"Glass Mount Clamp Part [8742498]043"},{"mesh":1,"translation":[0.43864852,1.7780001,-1.2283624],"rotation":[-0.0,-1.0,0.0,-4.371139E-08],"name":"Glass Mount Clamp Part [8742498]044"},{"mesh":1,"translation":[0.2862485,1.7780001,-1.2283624],"rotation":[-0.0,-1.0,0.0,-4.371139E-08],"name":"Glass Mount Clamp Part [8742498]045"},{"mesh":1,"translation":[0.70512295,1.96088,-1.2283624],"rotation":[-0.0,-1.0,0.0,-4.371139E-08],"name":"Glass Mount Clamp Part [8742498]046"},{"mesh":1,"translation":[0.55272293,1.96088,-1.2283624],"rotation":[-0.0,-1.0,0.0,-4.371139E-08],"name":"Glass Mount Clamp Part [8742498]047"},{"mesh":1,"translation":[0.9715974,2.14376,-1.2283624],"rotation":[-0.0,-1.0,0.0,-4.371139E-08],"name":"Glass Mount Clamp Part [8742498]048"},{"mesh":1,"translation":[0.8191974,2.14376,-1.2283624],"rotation":[-0.0,-1.0,0.0,-4.371139E-08],"name":"Glass Mount Clamp Part [8742498]049"},{"mesh":1,"translation":[1.2380742,2.32664,-1.2283624],"rotation":[-0.0,-1.0,0.0,-4.371139E-08],"name":"Glass Mount Clamp Part [8742498]050"},{"mesh":1,"translation":[1.0856742,2.32664,-1.2283624],"rotation":[-0.0,-1.0,0.0,-4.371139E-08],"name":"Glass Mount Clamp Part [8742498]051"},{"mesh":1,"translation":[1.5045485,2.50952,-1.2283624],"rotation":[-0.0,-1.0,0.0,-4.371139E-08],"name":"Glass Mount Clamp Part [8742498]052"},{"mesh":1,"translation":[1.3521485,2.50952,-1.2283624],"rotation":[-0.0,-1.0,0.0,-4.371139E-08],"name":"Glass Mount Clamp Part [8742498]053"},{"mesh":1,"translation":[-0.6814389,1.22936,-1.2283624],"rotation":[-0.0,-1.0,0.0,4.371139E-08],"name":"Glass Mount Clamp Part [8742498]002"},{"mesh":1,"translation":[-0.6814389,1.14681,-1.2283624],"rotation":[-0.0,-1.0,0.0,4.371139E-08],"name":"Glass Mount Clamp Part [8742498]003"},{"mesh":1,"translation":[-1.3753973,1.22936,-1.2283624],"rotation":[-0.0,-1.0,0.0,4.371139E-08],"name":"Glass Mount Clamp Part [8742498]004"},{"mesh":1,"translation":[-1.3753973,1.14681,-1.2283624],"rotation":[-0.0,-1.0,0.0,4.371139E-08],"name":"Glass Mount Clamp Part [8742498]005"},{"mesh":1,"translation":[-1.0321307,1.22936,-1.2283624],"rotation":[-0.0,-1.0,0.0,4.371139E-08],"name":"Glass Mount Clamp Part [8742498]006"},{"mesh":1,"translation":[-1.0321307,1.14681,-1.2283624],"rotation":[-0.0,-1.0,0.0,4.371139E-08],"name":"Glass Mount Clamp Part [8742498]007"},{"mesh":1,"translation":[-1.5779493,1.22936,-0.10632985],"rotation":[-0.0,-0.7071068,0.0,0.7071067],"name":"Glass Mount Clamp Part [8742498]010"},{"mesh":1,"translation":[-1.5779493,1.14681,-0.10632985],"rotation":[-0.0,-0.7071068,0.0,0.7071067],"name":"Glass Mount Clamp Part [8742498]011"},{"mesh":1,"translation":[-1.5779493,1.22936,-1.0263249],"rotation":[-0.0,-0.7071068,0.0,0.7071067],"name":"Glass Mount Clamp Part [8742498]012"},{"mesh":1,"translation":[-1.5779493,1.14681,-1.0263249],"rotation":[-0.0,-0.7071068,0.0,0.7071067],"name":"Glass Mount Clamp Part [8742498]013"},{"mesh":1,"translation":[-1.5779493,1.22936,-0.5693402],"rotation":[-0.0,-0.7071068,0.0,0.7071067],"name":"Glass Mount Clamp Part [8742498]014"},{"mesh":1,"translation":[-1.5779493,1.14681,-0.5693402],"rotation":[-0.0,-0.7071068,0.0,0.7071067],"name":"Glass Mount Clamp Part [8742498]015"},{"mesh":1,"translation":[-1.5779493,1.0464801,0.24874151],"rotation":[-0.0,-0.7071068,0.0,0.7071067],"name":"Glass Mount Clamp Part [8742498]054"},{"mesh":1,"translation":[-1.5779493,0.8636,0.5149136],"rotation":[-0.0,-0.7071068,0.0,0.7071067],"name":"Glass Mount Clamp Part [8742498]055"},{"mesh":1,"translation":[-1.5779493,0.8636,0.36251363],"rotation":[-0.0,-0.7071068,0.0,0.7071067],"name":"Glass Mount Clamp Part [8742498]056"},{"mesh":1,"translation":[-1.5779493,0.68072003,0.78108346],"rotation":[-0.0,-0.7071068,0.0,0.7071067],"name":"Glass Mount Clamp Part [8742498]057"},{"mesh":1,"translation":[-1.5779493,0.68072003,0.62868345],"rotation":[-0.0,-0.7071068,0.0,0.7071067],"name":"Glass Mount Clamp Part [8742498]058"},{"mesh":1,"translation":[-1.5779493,0.49784002,1.0472555],"rotation":[-0.0,-0.7071068,0.0,0.7071067],"name":"Glass Mount Clamp Part [8742498]059"},{"mesh":1,"translation":[-1.5779493,0.49784002,0.89485556],"rotation":[-0.0,-0.7071068,0.0,0.7071067],"name":"Glass Mount Clamp Part [8742498]060"},{"mesh":1,"translation":[-1.5779493,0.31496,1.3134254],"rotation":[-0.0,-0.7071068,0.0,0.7071067],"name":"Glass Mount Clamp Part [8742498]061"},{"mesh":1,"translation":[-1.5779493,0.31496,1.1610254],"rotation":[-0.0,-0.7071068,0.0,0.7071067],"name":"Glass Mount Clamp Part [8742498]062"},{"mesh":1,"translation":[-1.5779493,0.13208,1.5795952],"rotation":[-0.0,-0.7071068,0.0,0.7071067],"name":"Glass Mount Clamp Part [8742498]063"},{"mesh":1,"translation":[-1.5779493,0.13208,1.4271952],"rotation":[-0.0,-0.7071068,0.0,0.7071067],"name":"Glass Mount Clamp Part [8742498]064"},{"mesh":1,"translation":[-0.22224844,0.8636,0.5149137],"rotation":[-0.0,0.7071068,0.0,0.7071068],"name":"Glass Mount Clamp Part [8742498]065"},{"mesh":1,"translation":[-0.22224844,0.8636,0.3625137],"rotation":[-0.0,0.7071068,0.0,0.7071068],"name":"Glass Mount Clamp Part [8742498]066"},{"mesh":1,"translation":[-0.22224836,0.68072003,0.78108346],"rotation":[-0.0,0.7071068,0.0,0.7071068],"name":"Glass Mount Clamp Part [8742498]067"},{"mesh":1,"translation":[-0.22224836,0.68072003,0.62868345],"rotation":[-0.0,0.7071068,0.0,0.7071068],"name":"Glass Mount Clamp Part [8742498]068"},{"mesh":1,"translation":[-0.22224844,0.49784002,1.0472558],"rotation":[-0.0,0.7071068,0.0,0.7071068],"name":"Glass Mount Clamp Part [8742498]069"},{"mesh":1,"translation":[-0.22224836,0.49784002,0.89485556],"rotation":[-0.0,0.7071068,0.0,0.7071068],"name":"Glass Mount Clamp Part [8742498]070"},{"mesh":1,"translation":[-0.22224844,0.31496,1.3134254],"rotation":[-0.0,0.7071068,0.0,0.7071068],"name":"Glass Mount Clamp Part [8742498]071"},{"mesh":1,"translation":[-0.22224844,0.31496,1.1610255],"rotation":[-0.0,0.7071068,0.0,0.7071068],"name":"Glass Mount Clamp Part [8742498]072"},{"mesh":1,"translation":[-0.22224844,0.13208,1.5795952],"rotation":[-0.0,0.7071068,0.0,0.7071068],"name":"Glass Mount Clamp Part [8742498]073"},{"mesh":1,"translation":[-0.22224844,0.13208,1.4271952],"rotation":[-0.0,0.7071068,0.0,0.7071068],"name":"Glass Mount Clamp Part [8742498]074"},{"mesh":2,"translation":[-0.22224836,1.0464801,0.24874151],"rotation":[-0.0,0.7071068,0.0,0.7071068],"name":"Glass Mount Pad_2 Part [8742501]052"},{"mesh":2,"translation":[-0.23812413,1.0464801,0.24874151],"rotation":[-0.0,0.7071068,0.0,0.7071068],"name":"Glass Mount Pad_2 Part [8742501]101"},{"mesh":2,"translation":[-0.09430268,1.41224,0.12733859],"rotation":[-4.371139E-08,4.371139E-08,1.0,1.9106855E-15],"name":"Glass Mount Pad_2 Part [8742501]053"},{"mesh":2,"translation":[-0.09430268,1.41224,0.11146282],"rotation":[-4.371139E-08,4.371139E-08,1.0,1.9106855E-15],"name":"Glass Mount Pad_2 Part [8742501]102"},{"mesh":2,"translation":[-0.4660079,1.22936,-1.2283624],"rotation":[-0.0,-1.0,0.0,-4.371139E-08],"name":"Glass Mount Pad_2 Part [8742501]001"},{"mesh":2,"translation":[-0.4660079,1.22936,-1.2124866],"rotation":[-0.0,-1.0,0.0,4.371139E-08],"name":"Glass Mount Pad_2 Part [8742501]"},{"mesh":2,"translation":[-0.4660079,1.14681,-1.2283624],"rotation":[-0.0,-1.0,0.0,-4.371139E-08],"name":"Glass Mount Pad_2 Part [8742501]002"},{"mesh":2,"translation":[-0.4660079,1.14681,-1.2124866],"rotation":[-0.0,-1.0,0.0,-4.371139E-08],"name":"Glass Mount Pad_2 Part [8742501]027"},{"mesh":2,"translation":[0.17217408,1.59512,0.12733859],"rotation":[-4.371139E-08,4.371139E-08,1.0,1.9106855E-15],"name":"Glass Mount Pad_2 Part [8742501]054"},{"mesh":2,"translation":[0.17217408,1.59512,0.11146282],"rotation":[-4.371139E-08,4.371139E-08,1.0,1.9106855E-15],"name":"Glass Mount Pad_2 Part [8742501]103"},{"mesh":2,"translation":[0.019774083,1.59512,0.12733859],"rotation":[-4.371139E-08,4.371139E-08,1.0,1.9106855E-15],"name":"Glass Mount Pad_2 Part [8742501]055"},{"mesh":2,"translation":[0.019774083,1.59512,0.11146282],"rotation":[-4.371139E-08,4.371139E-08,1.0,1.9106855E-15],"name":"Glass Mount Pad_2 Part [8742501]104"},{"mesh":2,"translation":[0.43864852,1.7780001,0.12733859],"rotation":[-4.371139E-08,4.371139E-08,1.0,1.9106855E-15],"name":"Glass Mount Pad_2 Part [8742501]056"},{"mesh":2,"translation":[0.43864852,1.7780001,0.11146282],"rotation":[-4.371139E-08,4.371139E-08,1.0,1.9106855E-15],"name":"Glass Mount Pad_2 Part [8742501]105"},{"mesh":2,"translation":[0.2862485,1.7780001,0.12733859],"rotation":[-4.371139E-08,4.371139E-08,1.0,1.9106855E-15],"name":"Glass Mount Pad_2 Part [8742501]057"},{"mesh":2,"translation":[0.2862485,1.7780001,0.11146282],"rotation":[-4.371139E-08,4.371139E-08,1.0,1.9106855E-15],"name":"Glass Mount Pad_2 Part [8742501]106"},{"mesh":2,"translation":[0.70512295,1.96088,0.12733859],"rotation":[-4.371139E-08,4.371139E-08,1.0,1.9106855E-15],"name":"Glass Mount Pad_2 Part [8742501]058"},{"mesh":2,"translation":[0.70512295,1.96088,0.11146282],"rotation":[-4.371139E-08,4.371139E-08,1.0,1.9106855E-15],"name":"Glass Mount Pad_2 Part [8742501]107"},{"mesh":2,"translation":[0.55272293,1.96088,0.12733859],"rotation":[-4.371139E-08,4.371139E-08,1.0,1.9106855E-15],"name":"Glass Mount Pad_2 Part [8742501]059"},{"mesh":2,"translation":[0.55272293,1.96088,0.11146282],"rotation":[-4.371139E-08,4.371139E-08,1.0,1.9106855E-15],"name":"Glass Mount Pad_2 Part [8742501]108"},{"mesh":2,"translation":[0.9715974,2.14376,0.12733859],"rotation":[-4.371139E-08,4.371139E-08,1.0,1.9106855E-15],"name":"Glass Mount Pad_2 Part [8742501]060"},{"mesh":2,"translation":[0.9715974,2.14376,0.11146282],"rotation":[-4.371139E-08,4.371139E-08,1.0,1.9106855E-15],"name":"Glass Mount Pad_2 Part [8742501]109"},{"mesh":2,"translation":[0.8191974,2.14376,0.12733859],"rotation":[-4.371139E-08,4.371139E-08,1.0,1.9106855E-15],"name":"Glass Mount Pad_2 Part [8742501]061"},{"mesh":2,"translation":[0.8191974,2.14376,0.11146282],"rotation":[-4.371139E-08,4.371139E-08,1.0,1.9106855E-15],"name":"Glass Mount Pad_2 Part [8742501]110"},{"mesh":2,"translation":[1.2380742,2.32664,0.12733859],"rotation":[-4.371139E-08,4.371139E-08,1.0,1.9106855E-15],"name":"Glass Mount Pad_2 Part [8742501]062"},{"mesh":2,"translation":[1.2380742,2.32664,0.11146282],"rotation":[-4.371139E-08,4.371139E-08,1.0,1.9106855E-15],"name":"Glass Mount Pad_2 Part [8742501]111"},{"mesh":2,"translation":[1.0856742,2.32664,0.12733859],"rotation":[-4.371139E-08,4.371139E-08,1.0,1.9106855E-15],"name":"Glass Mount Pad_2 Part [8742501]063"},{"mesh":2,"translation":[1.0856742,2.32664,0.11146282],"rotation":[-4.371139E-08,4.371139E-08,1.0,1.9106855E-15],"name":"Glass Mount Pad_2 Part [8742501]112"},{"mesh":2,"translation":[1.5045485,2.50952,0.12733859],"rotation":[-4.371139E-08,4.371139E-08,1.0,1.9106855E-15],"name":"Glass Mount Pad_2 Part [8742501]064"},{"mesh":2,"translation":[1.5045485,2.50952,0.11146282],"rotation":[-4.371139E-08,4.371139E-08,1.0,1.9106855E-15],"name":"Glass Mount Pad_2 Part [8742501]113"},{"mesh":2,"translation":[1.3521485,2.50952,0.12733859],"rotation":[-4.371139E-08,4.371139E-08,1.0,1.9106855E-15],"name":"Glass Mount Pad_2 Part [8742501]065"},{"mesh":2,"translation":[1.3521485,2.50952,0.11146282],"rotation":[-4.371139E-08,4.371139E-08,1.0,1.9106855E-15],"name":"Glass Mount Pad_2 Part [8742501]114"},{"mesh":2,"translation":[-0.09430268,1.41224,-1.2283624],"rotation":[-0.0,-1.0,0.0,-4.371139E-08],"name":"Glass Mount Pad_2 Part [8742501]066"},{"mesh":2,"translation":[-0.09430268,1.41224,-1.2124866],"rotation":[-0.0,-1.0,0.0,-4.371139E-08],"name":"Glass Mount Pad_2 Part [8742501]115"},{"mesh":2,"translation":[-0.24670267,1.41224,-1.2283624],"rotation":[-0.0,-1.0,0.0,-4.371139E-08],"name":"Glass Mount Pad_2 Part [8742501]067"},{"mesh":2,"translation":[-0.24670267,1.41224,-1.2124866],"rotation":[-0.0,-1.0,0.0,-4.371139E-08],"name":"Glass Mount Pad_2 Part [8742501]116"},{"mesh":2,"translation":[0.17217408,1.59512,-1.2283624],"rotation":[-0.0,-1.0,0.0,-4.371139E-08],"name":"Glass Mount Pad_2 Part [8742501]068"},{"mesh":2,"translation":[0.17217408,1.59512,-1.2124866],"rotation":[-0.0,-1.0,0.0,-4.371139E-08],"name":"Glass Mount Pad_2 Part [8742501]117"},{"mesh":2,"translation":[0.019774083,1.59512,-1.2283624],"rotation":[-0.0,-1.0,0.0,-4.371139E-08],"name":"Glass Mount Pad_2 Part [8742501]069"},{"mesh":2,"translation":[0.019774083,1.59512,-1.2124866],"rotation":[-0.0,-1.0,0.0,-4.371139E-08],"name":"Glass Mount Pad_2 Part [8742501]118"},{"mesh":2,"translation":[0.43864852,1.7780001,-1.2283624],"rotation":[-0.0,-1.0,0.0,-4.371139E-08],"name":"Glass Mount Pad_2 Part [8742501]070"},{"mesh":2,"translation":[0.43864852,1.7780001,-1.2124866],"rotation":[-0.0,-1.0,0.0,-4.371139E-08],"name":"Glass Mount Pad_2 Part [8742501]119"},{"mesh":2,"translation":[0.2862485,1.7780001,-1.2283624],"rotation":[-0.0,-1.0,0.0,-4.371139E-08],"name":"Glass Mount Pad_2 Part [8742501]071"},{"mesh":2,"translation":[0.2862485,1.7780001,-1.2124866],"rotation":[-0.0,-1.0,0.0,-4.371139E-08],"name":"Glass Mount Pad_2 Part [8742501]120"},{"mesh":2,"translation":[0.70512295,1.96088,-1.2283624],"rotation":[-0.0,-1.0,0.0,-4.371139E-08],"name":"Glass Mount Pad_2 Part [8742501]072"},{"mesh":2,"translation":[0.70512295,1.96088,-1.2124866],"rotation":[-0.0,-1.0,0.0,-4.371139E-08],"name":"Glass Mount Pad_2 Part [8742501]121"},{"mesh":2,"translation":[0.55272293,1.96088,-1.2283624],"rotation":[-0.0,-1.0,0.0,-4.371139E-08],"name":"Glass Mount Pad_2 Part [8742501]073"},{"mesh":2,"translation":[0.55272293,1.96088,-1.2124866],"rotation":[-0.0,-1.0,0.0,-4.371139E-08],"name":"Glass Mount Pad_2 Part [8742501]122"},{"mesh":2,"translation":[0.9715974,2.14376,-1.2283624],"rotation":[-0.0,-1.0,0.0,-4.371139E-08],"name":"Glass Mount Pad_2 Part [8742501]074"},{"mesh":2,"translation":[0.9715974,2.14376,-1.2124866],"rotation":[-0.0,-1.0,0.0,-4.371139E-08],"name":"Glass Mount Pad_2 Part [8742501]123"},{"mesh":2,"translation":[0.8191974,2.14376,-1.2283624],"rotation":[-0.0,-1.0,0.0,-4.371139E-08],"name":"Glass Mount Pad_2 Part [8742501]075"},{"mesh":2,"translation":[0.8191974,2.14376,-1.2124866],"rotation":[-0.0,-1.0,0.0,-4.371139E-08],"name":"Glass Mount Pad_2 Part [8742501]124"},{"mesh":2,"translation":[1.2380742,2.32664,-1.2283624],"rotation":[-0.0,-1.0,0.0,-4.371139E-08],"name":"Glass Mount Pad_2 Part [8742501]076"},{"mesh":2,"translation":[1.2380742,2.32664,-1.2124866],"rotation":[-0.0,-1.0,0.0,-4.371139E-08],"name":"Glass Mount Pad_2 Part [8742501]125"},{"mesh":2,"translation":[1.0856742,2.32664,-1.2283624],"rotation":[-0.0,-1.0,0.0,-4.371139E-08],"name":"Glass Mount Pad_2 Part [8742501]077"},{"mesh":2,"translation":[1.0856742,2.32664,-1.2124866],"rotation":[-0.0,-1.0,0.0,-4.371139E-08],"name":"Glass Mount Pad_2 Part [8742501]126"},{"mesh":2,"translation":[1.5045485,2.50952,-1.2283624],"rotation":[-0.0,-1.0,0.0,-4.371139E-08],"name":"Glass Mount Pad_2 Part [8742501]078"},{"mesh":2,"translation":[1.5045485,2.50952,-1.2124866],"rotation":[-0.0,-1.0,0.0,-4.371139E-08],"name":"Glass Mount Pad_2 Part [8742501]127"},{"mesh":2,"translation":[1.3521485,2.50952,-1.2283624],"rotation":[-0.0,-1.0,0.0,-4.371139E-08],"name":"Glass Mount Pad_2 Part [8742501]079"},{"mesh":2,"translation":[1.3521485,2.50952,-1.2124866],"rotation":[-0.0,-1.0,0.0,-4.371139E-08],"name":"Glass Mount Pad_2 Part [8742501]128"},{"mesh":2,"translation":[-0.6814389,1.22936,-1.2283624],"rotation":[-1.0,-1.4098531E-22,3.225368E-15,-4.371139E-08],"name":"Glass Mount Pad_2 Part [8742501]003"},{"mesh":2,"translation":[-0.6814389,1.22936,-1.2124866],"rotation":[-1.0,-1.4098531E-22,3.225368E-15,-4.371139E-08],"name":"Glass Mount Pad_2 Part [8742501]028"},{"mesh":2,"translation":[-0.6814389,1.14681,-1.2283624],"rotation":[-1.0,-1.4098531E-22,3.225368E-15,-4.371139E-08],"name":"Glass Mount Pad_2 Part [8742501]004"},{"mesh":2,"translation":[-0.6814389,1.14681,-1.2124866],"rotation":[-1.0,-1.4098531E-22,3.225368E-15,-4.371139E-08],"name":"Glass Mount Pad_2 Part [8742501]029"},{"mesh":2,"translation":[-1.3753973,1.22936,-1.2283624],"rotation":[-1.0,-1.4098531E-22,3.225368E-15,-4.371139E-08],"name":"Glass Mount Pad_2 Part [8742501]005"},{"mesh":2,"translation":[-1.3753973,1.22936,-1.2124866],"rotation":[-1.0,-1.4098531E-22,3.225368E-15,-4.371139E-08],"name":"Glass Mount Pad_2 Part [8742501]030"},{"mesh":2,"translation":[-1.3753973,1.14681,-1.2283624],"rotation":[-1.0,-1.4098531E-22,3.225368E-15,-4.371139E-08],"name":"Glass Mount Pad_2 Part [8742501]006"},{"mesh":2,"translation":[-1.3753973,1.14681,-1.2124866],"rotation":[-1.0,-1.4098531E-22,3.225368E-15,-4.371139E-08],"name":"Glass Mount Pad_2 Part [8742501]031"},{"mesh":2,"translation":[-1.0321307,1.22936,-1.2283624],"rotation":[-1.0,-1.4098531E-22,3.225368E-15,-4.371139E-08],"name":"Glass Mount Pad_2 Part [8742501]007"},{"mesh":2,"translation":[-1.0321307,1.22936,-1.2124866],"rotation":[-1.0,-1.4098531E-22,3.225368E-15,-4.371139E-08],"name":"Glass Mount Pad_2 Part [8742501]032"},{"mesh":2,"translation":[-1.0321307,1.14681,-1.2283624],"rotation":[-1.0,-1.4098531E-22,3.225368E-15,-4.371139E-08],"name":"Glass Mount Pad_2 Part [8742501]008"},{"mesh":2,"translation":[-1.0321307,1.14681,-1.2124866],"rotation":[-1.0,-1.4098531E-22,3.225368E-15,-4.371139E-08],"name":"Glass Mount Pad_2 Part [8742501]033"},{"mesh":2,"translation":[-1.5779493,1.22936,-0.10632985],"rotation":[-0.7071068,3.0908623E-08,0.7071068,3.0908623E-08],"name":"Glass Mount Pad_2 Part [8742501]011"},{"mesh":2,"translation":[-1.5620736,1.22936,-0.10632985],"rotation":[-0.7071068,3.0908623E-08,0.7071068,3.0908623E-08],"name":"Glass Mount Pad_2 Part [8742501]036"},{"mesh":2,"translation":[-1.5779493,1.14681,-0.10632985],"rotation":[-0.7071068,3.0908623E-08,0.7071068,3.0908623E-08],"name":"Glass Mount Pad_2 Part [8742501]012"},{"mesh":2,"translation":[-1.5620736,1.14681,-0.10632985],"rotation":[-0.7071068,3.0908623E-08,0.7071068,3.0908623E-08],"name":"Glass Mount Pad_2 Part [8742501]037"},{"mesh":2,"translation":[-1.5779493,1.22936,-1.0263249],"rotation":[-0.0,-0.7071068,0.0,0.7071067],"name":"Glass Mount Pad_2 Part [8742501]013"},{"mesh":2,"translation":[-1.5620736,1.22936,-1.0263249],"rotation":[-0.0,-0.7071068,0.0,0.7071067],"name":"Glass Mount Pad_2 Part [8742501]038"},{"mesh":2,"translation":[-1.5779493,1.14681,-1.0263249],"rotation":[-6.181724E-08,-0.7071068,-6.181724E-08,0.7071067],"name":"Glass Mount Pad_2 Part [8742501]014"},{"mesh":2,"translation":[-1.5620736,1.14681,-1.0263249],"rotation":[-0.0,-0.7071068,0.0,0.7071067],"name":"Glass Mount Pad_2 Part [8742501]039"},{"mesh":2,"translation":[-1.5779493,1.22936,-0.5693402],"rotation":[-0.0,-0.7071068,0.0,0.7071067],"name":"Glass Mount Pad_2 Part [8742501]015"},{"mesh":2,"translation":[-1.5620736,1.22936,-0.5693402],"rotation":[-0.0,-0.7071068,0.0,0.7071067],"name":"Glass Mount Pad_2 Part [8742501]040"},{"mesh":2,"translation":[-1.5779493,1.14681,-0.5693402],"rotation":[-6.181724E-08,-0.7071068,-6.181724E-08,0.7071067],"name":"Glass Mount Pad_2 Part [8742501]016"},{"mesh":2,"translation":[-1.5620736,1.14681,-0.5693402],"rotation":[-0.0,-0.7071068,0.0,0.7071067],"name":"Glass Mount Pad_2 Part [8742501]041"},{"mesh":2,"translation":[-1.5779493,1.0464801,0.24874151],"rotation":[-0.0,-0.7071068,0.0,0.7071067],"name":"Glass Mount Pad_2 Part [8742501]080"},{"mesh":2,"translation":[-1.5620736,1.0464801,0.24874151],"rotation":[-0.0,-0.7071068,0.0,0.7071067],"name":"Glass Mount Pad_2 Part [8742501]129"},{"mesh":2,"translation":[-1.5779493,0.8636,0.5149136],"rotation":[-0.0,-0.7071068,0.0,0.7071067],"name":"Glass Mount Pad_2 Part [8742501]081"},{"mesh":2,"translation":[-1.5620736,0.8636,0.5149136],"rotation":[-0.0,-0.7071068,0.0,0.7071067],"name":"Glass Mount Pad_2 Part [8742501]130"},{"mesh":2,"translation":[-1.5779493,0.8636,0.36251363],"rotation":[-0.0,-0.7071068,0.0,0.7071067],"name":"Glass Mount Pad_2 Part [8742501]082"},{"mesh":2,"translation":[-1.5620736,0.8636,0.36251363],"rotation":[-0.0,-0.7071068,0.0,0.7071067],"name":"Glass Mount Pad_2 Part [8742501]131"},{"mesh":2,"translation":[-1.5779493,0.68072003,0.78108346],"rotation":[-0.0,-0.7071068,0.0,0.7071067],"name":"Glass Mount Pad_2 Part [8742501]083"},{"mesh":2,"translation":[-1.5620736,0.68072003,0.78108346],"rotation":[-0.0,-0.7071068,0.0,0.7071067],"name":"Glass Mount Pad_2 Part [8742501]132"},{"mesh":2,"translation":[-1.5779493,0.68072003,0.62868345],"rotation":[-0.0,-0.7071068,0.0,0.7071067],"name":"Glass Mount Pad_2 Part [8742501]084"},{"mesh":2,"translation":[-1.5620736,0.68072003,0.62868345],"rotation":[-0.0,-0.7071068,0.0,0.7071067],"name":"Glass Mount Pad_2 Part [8742501]133"},{"mesh":2,"translation":[-1.5779493,0.49784002,1.0472555],"rotation":[-0.0,-0.7071068,0.0,0.7071067],"name":"Glass Mount Pad_2 Part [8742501]085"},{"mesh":2,"translation":[-1.5620736,0.49784002,1.0472555],"rotation":[-0.0,-0.7071068,0.0,0.7071067],"name":"Glass Mount Pad_2 Part [8742501]134"},{"mesh":2,"translation":[-1.5779493,0.49784002,0.89485556],"rotation":[-0.0,-0.7071068,0.0,0.7071067],"name":"Glass Mount Pad_2 Part [8742501]086"},{"mesh":2,"translation":[-1.5620736,0.49784002,0.89485556],"rotation":[-0.0,-0.7071068,0.0,0.7071067],"name":"Glass Mount Pad_2 Part [8742501]135"},{"mesh":2,"translation":[-1.5779493,0.31496,1.3134254],"rotation":[-0.0,-0.7071068,0.0,0.7071067],"name":"Glass Mount Pad_2 Part [8742501]087"},{"mesh":2,"translation":[-1.5620736,0.31496,1.3134254],"rotation":[-0.0,-0.7071068,0.0,0.7071067],"name":"Glass Mount Pad_2 Part [8742501]136"},{"mesh":2,"translation":[-1.5779493,0.31496,1.1610254],"rotation":[-0.0,-0.7071068,0.0,0.7071067],"name":"Glass Mount Pad_2 Part [8742501]088"},{"mesh":2,"translation":[-1.5620736,0.31496,1.1610254],"rotation":[-0.0,-0.7071068,0.0,0.7071067],"name":"Glass Mount Pad_2 Part [8742501]137"},{"mesh":2,"translation":[-1.5779493,0.13208,1.5795952],"rotation":[-0.0,-0.7071068,0.0,0.7071067],"name":"Glass Mount Pad_2 Part [8742501]089"},{"mesh":2,"translation":[-1.5620736,0.13208,1.5795952],"rotation":[-0.0,-0.7071068,0.0,0.7071067],"name":"Glass Mount Pad_2 Part [8742501]138"},{"mesh":2,"translation":[-1.5779493,0.13208,1.4271952],"rotation":[-0.0,-0.7071068,0.0,0.7071067],"name":"Glass Mount Pad_2 Part [8742501]090"},{"mesh":2,"translation":[-1.5620736,0.13208,1.4271952],"rotation":[-0.0,-0.7071068,0.0,0.7071067],"name":"Glass Mount Pad_2 Part [8742501]139"},{"mesh":2,"translation":[-0.22224844,0.8636,0.5149137],"rotation":[-0.0,0.7071068,0.0,0.7071068],"name":"Glass Mount Pad_2 Part [8742501]091"},{"mesh":2,"translation":[-0.2381242,0.8636,0.5149137],"rotation":[-0.0,0.7071068,0.0,0.7071068],"name":"Glass Mount Pad_2 Part [8742501]140"},{"mesh":2,"translation":[-0.22224844,0.8636,0.3625137],"rotation":[-0.0,0.7071068,0.0,0.7071068],"name":"Glass Mount Pad_2 Part [8742501]092"},{"mesh":2,"translation":[-0.2381242,0.8636,0.3625137],"rotation":[-0.0,0.7071068,0.0,0.7071068],"name":"Glass Mount Pad_2 Part [8742501]141"},{"mesh":2,"translation":[-0.22224836,0.68072003,0.78108346],"rotation":[-0.0,0.7071068,0.0,0.7071068],"name":"Glass Mount Pad_2 Part [8742501]093"},{"mesh":2,"translation":[-0.23812413,0.68072003,0.78108346],"rotation":[-0.0,0.7071068,0.0,0.7071068],"name":"Glass Mount Pad_2 Part [8742501]142"},{"mesh":2,"translation":[-0.22224836,0.68072003,0.62868345],"rotation":[-0.0,0.7071068,0.0,0.7071068],"name":"Glass Mount Pad_2 Part [8742501]094"},{"mesh":2,"translation":[-0.23812413,0.68072003,0.62868345],"rotation":[-0.0,0.7071068,0.0,0.7071068],"name":"Glass Mount Pad_2 Part [8742501]143"},{"mesh":2,"translation":[-0.22224844,0.49784002,1.0472558],"rotation":[-0.0,0.7071068,0.0,0.7071068],"name":"Glass Mount Pad_2 Part [8742501]095"},{"mesh":2,"translation":[-0.2381242,0.49784002,1.0472558],"rotation":[-0.0,0.7071068,0.0,0.7071068],"name":"Glass Mount Pad_2 Part [8742501]144"},{"mesh":2,"translation":[-0.22224836,0.49784002,0.89485556],"rotation":[-0.0,0.7071068,0.0,0.7071068],"name":"Glass Mount Pad_2 Part [8742501]096"},{"mesh":2,"translation":[-0.23812413,0.49784002,0.89485556],"rotation":[-0.0,0.7071068,0.0,0.7071068],"name":"Glass Mount Pad_2 Part [8742501]145"},{"mesh":2,"translation":[-0.22224844,0.31496,1.3134254],"rotation":[-0.0,0.7071068,0.0,0.7071068],"name":"Glass Mount Pad_2 Part [8742501]097"},{"mesh":2,"translation":[-0.2381242,0.31496,1.3134254],"rotation":[-0.0,0.7071068,0.0,0.7071068],"name":"Glass Mount Pad_2 Part [8742501]146"},{"mesh":2,"translation":[-0.22224844,0.31496,1.1610255],"rotation":[-0.0,0.7071068,0.0,0.7071068],"name":"Glass Mount Pad_2 Part [8742501]098"},{"mesh":2,"translation":[-0.2381242,0.31496,1.1610255],"rotation":[-0.0,0.7071068,0.0,0.7071068],"name":"Glass Mount Pad_2 Part [8742501]147"},{"mesh":2,"translation":[-0.22224844,0.13208,1.5795952],"rotation":[-0.0,0.7071068,0.0,0.7071068],"name":"Glass Mount Pad_2 Part [8742501]099"},{"mesh":2,"translation":[-0.2381242,0.13208,1.5795952],"rotation":[-0.0,0.7071068,0.0,0.7071068],"name":"Glass Mount Pad_2 Part [8742501]148"},{"mesh":2,"translation":[-0.22224844,0.13208,1.4271952],"rotation":[-0.0,0.7071068,0.0,0.7071068],"name":"Glass Mount Pad_2 Part [8742501]100"},{"mesh":2,"translation":[-0.2381242,0.13208,1.4271952],"rotation":[-0.0,0.7071068,0.0,0.7071068],"name":"Glass Mount Pad_2 Part [8742501]149"},{"mesh":3,"translation":[0.65780026,2.4346113,0.118548],"name":"Casework 5 Casework 1 [8445778]"},{"mesh":4,"translation":[-0.23098387,1.0982366,0.8572834],"rotation":[-0.0,-0.7071068,0.0,0.7071067],"name":"Casework 6 Casework 1 [8445804]"},{"mesh":5,"translation":[-27.512293,0.0,24.970474],"rotation":[-0.0,-0.7071068,0.0,0.7071067],"name":"Generic Models 7 Generic Models 1 [8445814]"},{"mesh":6,"translation":[-0.4660079,1.14681,-1.1601131],"rotation":[-0.5,-0.5,0.5,-0.5],"name":"HW73957 & HW0178224 - 1l2-13 x 3l4 FHSCS Hardware [8742491]"},{"mesh":6,"translation":[-0.6814389,1.14681,-1.1601131],"rotation":[-0.5,0.5,0.5,0.5],"name":"HW73957 & HW0178224 - 1l2-13 x 3l4 FHSCS Hardware [8742491]001"},{"mesh":6,"translation":[-1.3753973,1.14681,-1.1601131],"rotation":[-0.5,0.5,0.5,0.5],"name":"HW73957 & HW0178224 - 1l2-13 x 3l4 FHSCS Hardware [8742491]002"},{"mesh":6,"translation":[-1.0321306,1.14681,-1.1601131],"rotation":[-0.5,0.5,0.5,0.5],"name":"HW73957 & HW0178224 - 1l2-13 x 3l4 FHSCS Hardware [8742491]003"},{"mesh":6,"translation":[-1.5096977,1.14681,-0.10632985],"rotation":[-3.0908627E-08,0.7071068,0.7071068,3.0908623E-08],"name":"HW73957 & HW0178224 - 1l2-13 x 3l4 FHSCS Hardware [8742491]005"},{"mesh":6,"translation":[-1.5096977,1.14681,-1.0263249],"rotation":[-3.0908623E-08,-0.7071068,0.7071068,-3.0908623E-08],"name":"HW73957 & HW0178224 - 1l2-13 x 3l4 FHSCS Hardware [8742491]006"},{"mesh":6,"translation":[-1.5096977,1.14681,-0.5693401],"rotation":[-3.0908623E-08,-0.7071068,0.7071068,-3.0908623E-08],"name":"HW73957 & HW0178224 - 1l2-13 x 3l4 FHSCS Hardware [8742491]007"},{"mesh":6,"translation":[-1.5098233,1.14681,-0.099844925],"rotation":[3.0908627E-08,-0.7071068,0.7071068,3.0908623E-08],"name":"HW73957 & HW0178224 - 1l2-13 x 3l4 FHSCS Hardware [8742491]009"},{"mesh":7,"translation":[-0.45330867,1.17221,-1.0775623],"rotation":[-0.7071068,-0.7071068,-2.6692543E-08,8.850979E-08],"name":"HW135744 - #14-10 x 3 18-8 Wood Screw Hardware [8742495]001"},{"mesh":7,"translation":[-0.47870946,1.17221,-1.0775623],"rotation":[-0.7071068,-0.7071068,-2.6692543E-08,8.850979E-08],"name":"HW135744 - #14-10 x 3 18-8 Wood Screw Hardware [8742495]002"},{"mesh":7,"translation":[-0.45330867,1.17221,-1.1156623],"rotation":[-0.7071068,-0.7071068,-3.0908627E-08,-3.0908623E-08],"name":"HW135744 - #14-10 x 3 18-8 Wood Screw Hardware [8742495]"},{"mesh":7,"translation":[-0.47870946,1.17221,-1.1156623],"rotation":[-0.7071068,-0.7071068,-2.6692543E-08,8.850979E-08],"name":"HW135744 - #14-10 x 3 18-8 Wood Screw Hardware [8742495]003"},{"mesh":7,"translation":[-0.69413817,1.17221,-1.0775623],"rotation":[-0.0,-0.0,0.7071068,0.7071067],"name":"HW135744 - #14-10 x 3 18-8 Wood Screw Hardware [8742495]004"},{"mesh":7,"translation":[-0.66873974,1.17221,-1.0775623],"rotation":[-0.0,-0.0,0.7071068,0.7071067],"name":"HW135744 - #14-10 x 3 18-8 Wood Screw Hardware [8742495]005"},{"mesh":7,"translation":[-0.69413817,1.17221,-1.1156623],"rotation":[-0.0,-0.0,0.7071068,0.7071067],"name":"HW135744 - #14-10 x 3 18-8 Wood Screw Hardware [8742495]006"},{"mesh":7,"translation":[-0.66873974,1.17221,-1.1156623],"rotation":[-0.0,-0.0,0.7071068,0.7071067],"name":"HW135744 - #14-10 x 3 18-8 Wood Screw Hardware [8742495]007"},{"mesh":7,"translation":[-1.3880988,1.17221,-1.0775623],"rotation":[-0.0,-0.0,0.7071068,0.7071067],"name":"HW135744 - #14-10 x 3 18-8 Wood Screw Hardware [8742495]008"},{"mesh":7,"translation":[-1.3626981,1.17221,-1.0775623],"rotation":[-0.0,-0.0,0.7071068,0.7071067],"name":"HW135744 - #14-10 x 3 18-8 Wood Screw Hardware [8742495]009"},{"mesh":7,"translation":[-1.3880988,1.17221,-1.1156623],"rotation":[-0.0,-0.0,0.7071068,0.7071067],"name":"HW135744 - #14-10 x 3 18-8 Wood Screw Hardware [8742495]010"},{"mesh":7,"translation":[-1.3626981,1.17221,-1.1156623],"rotation":[-0.0,-0.0,0.7071068,0.7071067],"name":"HW135744 - #14-10 x 3 18-8 Wood Screw Hardware [8742495]011"},{"mesh":7,"translation":[-1.04483,1.17221,-1.0775623],"rotation":[-0.0,-0.0,0.7071068,0.7071067],"name":"HW135744 - #14-10 x 3 18-8 Wood Screw Hardware [8742495]012"},{"mesh":7,"translation":[-1.0194315,1.17221,-1.0775623],"rotation":[-0.0,-0.0,0.7071068,0.7071067],"name":"HW135744 - #14-10 x 3 18-8 Wood Screw Hardware [8742495]013"},{"mesh":7,"translation":[-1.04483,1.17221,-1.1156623],"rotation":[-0.0,-0.0,0.7071068,0.7071067],"name":"HW135744 - #14-10 x 3 18-8 Wood Screw Hardware [8742495]014"},{"mesh":7,"translation":[-1.0194315,1.17221,-1.1156623],"rotation":[-0.0,-0.0,0.7071068,0.7071067],"name":"HW135744 - #14-10 x 3 18-8 Wood Screw Hardware [8742495]015"},{"mesh":7,"translation":[-1.4271493,1.17221,-0.093628295],"rotation":[-0.5000001,-0.49999997,-0.50000006,-0.49999997],"name":"HW135744 - #14-10 x 3 18-8 Wood Screw Hardware [8742495]020"},{"mesh":7,"translation":[-1.4271493,1.17221,-0.119029075],"rotation":[-0.5000001,-0.49999997,-0.50000006,-0.49999997],"name":"HW135744 - #14-10 x 3 18-8 Wood Screw Hardware [8742495]021"},{"mesh":7,"translation":[-1.4652493,1.17221,-0.093628295],"rotation":[-0.5000001,-0.49999997,-0.50000006,-0.49999997],"name":"HW135744 - #14-10 x 3 18-8 Wood Screw Hardware [8742495]022"},{"mesh":7,"translation":[-1.4652493,1.17221,-0.119029075],"rotation":[-0.5000001,-0.49999997,-0.50000006,-0.49999997],"name":"HW135744 - #14-10 x 3 18-8 Wood Screw Hardware [8742495]023"},{"mesh":7,"translation":[-1.4271493,1.17221,-1.0390264],"rotation":[-0.49999997,-0.5000001,0.50000006,0.49999997],"name":"HW135744 - #14-10 x 3 18-8 Wood Screw Hardware [8742495]024"},{"mesh":7,"translation":[-1.4271493,1.17221,-1.0136256],"rotation":[-0.49999997,-0.5000001,0.50000006,0.49999997],"name":"HW135744 - #14-10 x 3 18-8 Wood Screw Hardware [8742495]025"},{"mesh":7,"translation":[-1.4652493,1.17221,-1.0390264],"rotation":[-0.49999997,-0.5000001,0.50000006,0.49999997],"name":"HW135744 - #14-10 x 3 18-8 Wood Screw Hardware [8742495]026"},{"mesh":7,"translation":[-1.4652493,1.17221,-1.0136256],"rotation":[-0.49999997,-0.5000001,0.50000006,0.49999997],"name":"HW135744 - #14-10 x 3 18-8 Wood Screw Hardware [8742495]027"},{"mesh":7,"translation":[-1.4271493,1.17221,-0.5820418],"rotation":[-0.49999997,-0.5000001,0.50000006,0.49999997],"name":"HW135744 - #14-10 x 3 18-8 Wood Screw Hardware [8742495]028"},{"mesh":7,"translation":[-1.4271493,1.17221,-0.55664104],"rotation":[-0.49999997,-0.5000001,0.50000006,0.49999997],"name":"HW135744 - #14-10 x 3 18-8 Wood Screw Hardware [8742495]029"},{"mesh":7,"translation":[-1.4652493,1.17221,-0.5820418],"rotation":[-0.49999997,-0.5000001,0.50000006,0.49999997],"name":"HW135744 - #14-10 x 3 18-8 Wood Screw Hardware [8742495]030"},{"mesh":7,"translation":[-1.4652493,1.17221,-0.55664104],"rotation":[-0.49999997,-0.5000001,0.50000006,0.49999997],"name":"HW135744 - #14-10 x 3 18-8 Wood Screw Hardware [8742495]031"},{"mesh":7,"translation":[-1.4272724,1.17221,-0.112546474],"rotation":[-0.5,-0.5,0.50000006,0.49999994],"name":"HW135744 - #14-10 x 3 18-8 Wood Screw Hardware [8742495]036"},{"mesh":7,"translation":[-1.4272724,1.17221,-0.0871457],"rotation":[-0.5,-0.5,0.50000006,0.49999994],"name":"HW135744 - #14-10 x 3 18-8 Wood Screw Hardware [8742495]037"},{"mesh":7,"translation":[-1.4653724,1.17221,-0.112546474],"rotation":[-0.5,-0.5,0.50000006,0.49999994],"name":"HW135744 - #14-10 x 3 18-8 Wood Screw Hardware [8742495]038"},{"mesh":7,"translation":[-1.4653724,1.17221,-0.0871457],"rotation":[-0.5,-0.5,0.50000006,0.49999994],"name":"HW135744 - #14-10 x 3 18-8 Wood Screw Hardware [8742495]039"},{"mesh":8,"translation":[-0.4660079,1.17856,-1.1601131],"rotation":[-0.0,0.7071068,0.0,0.7071067],"name":"Landing Bracket Part [8742494]"},{"mesh":8,"translation":[-0.6814389,1.17856,-1.1601131],"rotation":[-0.0,0.7071068,0.0,0.7071067],"name":"Landing Bracket Part [8742494]001"},{"mesh":8,"translation":[-1.3753973,1.17856,-1.1601131],"rotation":[-0.0,0.7071068,0.0,0.7071067],"name":"Landing Bracket Part [8742494]002"},{"mesh":8,"translation":[-1.0321307,1.17856,-1.1601131],"rotation":[-0.0,0.7071068,0.0,0.7071067],"name":"Landing Bracket Part [8742494]003"},{"mesh":8,"translation":[-1.5096977,1.17856,-0.10632985],"rotation":[-0.0,-1.0,0.0,-1.6292068E-07],"name":"Landing Bracket Part [8742494]005"},{"mesh":8,"translation":[-1.5096977,1.17856,-1.0263249],"rotation":[-0.0,-1.0,0.0,-1.6292068E-07],"name":"Landing Bracket Part [8742494]006"},{"mesh":8,"translation":[-1.5096977,1.17856,-0.5693402],"rotation":[-0.0,-1.0,0.0,-1.6292068E-07],"name":"Landing Bracket Part [8742494]007"},{"mesh":9,"translation":[-0.4660079,1.22936,-1.1664615],"rotation":[-0.0,-1.0,0.0,-4.371139E-08],"name":"Boss_073"},{"mesh":9,"translation":[-0.4660079,1.14681,-1.1664615],"rotation":[-0.0,-1.0,0.0,-4.371139E-08],"name":"Boss_070"},{"mesh":9,"translation":[-0.6814389,1.22936,-1.1664615],"rotation":[-0.0,-1.0,0.0,4.371139E-08],"name":"Boss_072"},{"mesh":9,"translation":[-0.6814389,1.14681,-1.1664615],"rotation":[-0.0,-1.0,0.0,4.371139E-08],"name":"Boss_068"},{"mesh":9,"translation":[-1.3753973,1.22936,-1.1664615],"rotation":[-0.0,-1.0,0.0,4.371139E-08],"name":"Boss_056"},{"mesh":9,"translation":[-1.3753973,1.14681,-1.1664615],"rotation":[-0.0,-1.0,0.0,4.371139E-08],"name":"Boss_066"},{"mesh":9,"translation":[-1.0321307,1.22936,-1.1664615],"rotation":[-0.0,-1.0,0.0,4.371139E-08],"name":"Boss_058"},{"mesh":9,"translation":[-1.0321307,1.14681,-1.1664615],"rotation":[-0.0,-1.0,0.0,4.371139E-08],"name":"Boss_064"},{"mesh":9,"translation":[-1.5160484,1.22936,-0.10632985],"rotation":[-0.0,-0.7071068,0.0,0.7071067],"name":"Boss_053"},{"mesh":9,"translation":[-1.5160484,1.14681,-0.10632985],"rotation":[-0.0,-0.7071068,0.0,0.7071067],"name":"Boss_048"},{"mesh":9,"translation":[-1.5160484,1.22936,-1.0263249],"rotation":[-0.0,-0.7071068,0.0,0.7071067],"name":"Boss_049"},{"mesh":9,"translation":[-1.5160484,1.14681,-1.0263249],"rotation":[-0.0,-0.7071068,0.0,0.7071067],"name":"Boss_050"},{"mesh":9,"translation":[-1.5160484,1.22936,-0.5693402],"rotation":[-0.0,-0.7071068,0.0,0.7071067],"name":"Boss_051"},{"mesh":9,"translation":[-1.5160484,1.14681,-0.5693402],"rotation":[-0.0,-0.7071068,0.0,0.7071067],"name":"Boss_052"},{"mesh":10,"translation":[0.020164758,2.3889701,-1.2196583],"name":"Casework 2 Casework 1 [8743341]"},{"mesh":11,"translation":[-1.5692539,1.1036301,0.2196456],"rotation":[-0.0,-0.7071068,0.0,0.7071067],"name":"Casework 4 Casework 1 [8744916]"},{"mesh":12,"translation":[0.006555414,2.9352365,-0.6193366],"name":"Generic Models 11 Generic Models 11 [8762451]"},{"mesh":13,"translation":[-27.512293,0.0,24.970474],"rotation":[-0.0,-0.7071068,0.0,0.7071067],"name":"Object001"},{"mesh":14,"translation":[0.6908683,3.0520713,0.118619725],"name":"Generic Models 11 Generic Models 11 [8762451]002"}],"meshes":[{"primitives":[{"attributes":{"POSITION":1,"TANGENT":2,"NORMAL":3,"TEXCOORD_0":4},"indices":0,"material":0},{"attributes":{"POSITION":6,"TANGENT":7,"NORMAL":8,"TEXCOORD_0":9},"indices":5,"material":1}],"name":"Boss_047"},{"primitives":[{"attributes":{"POSITION":11,"TANGENT":12,"NORMAL":13,"TEXCOORD_0":14},"indices":10,"material":0},{"attributes":{"POSITION":16,"TANGENT":17,"NORMAL":18,"TEXCOORD_0":19},"indices":15,"material":1}],"name":"Glass Mount Clamp Part [8742498]026"},{"primitives":[{"attributes":{"POSITION":21,"TANGENT":22,"NORMAL":23,"TEXCOORD_0":24},"indices":20,"material":2}],"name":"Glass Mount Pad_2 Part [8742501]052"},{"primitives":[{"attributes":{"POSITION":26,"TANGENT":27,"NORMAL":28,"TEXCOORD_0":29},"indices":25,"material":3}],"name":"Casework 5 Casework 1 [8445778]"},{"primitives":[{"attributes":{"POSITION":31,"TANGENT":32,"NORMAL":33,"TEXCOORD_0":34},"indices":30,"material":3}],"name":"Casework 6 Casework 1 [8445804]"},{"primitives":[{"attributes":{"POSITION":36,"TANGENT":37,"NORMAL":38,"TEXCOORD_0":39},"indices":35,"material":0},{"attributes":{"POSITION":41,"TANGENT":42,"NORMAL":43,"TEXCOORD_0":44},"indices":40,"material":1}],"name":"Generic Models 7 Generic Models 1 [8445814]"},{"primitives":[{"attributes":{"POSITION":46,"TANGENT":47,"NORMAL":48,"TEXCOORD_0":49},"indices":45,"material":0}],"name":"HW73957 & HW0178224 - 1l2-13 x 3l4 FHSCS Hardware [8742491]"},{"primitives":[{"attributes":{"POSITION":51,"TANGENT":52,"NORMAL":53,"TEXCOORD_0":54},"indices":50,"material":0}],"name":"HW135744 - #14-10 x 3 18-8 Wood Screw Hardware [8742495]001"},{"primitives":[{"attributes":{"POSITION":56,"TANGENT":57,"NORMAL":58,"TEXCOORD_0":59},"indices":55,"material":0}],"name":"Landing Bracket Part [8742494]"},{"primitives":[{"attributes":{"POSITION":61,"TANGENT":62,"NORMAL":63,"TEXCOORD_0":64},"indices":60,"material":0},{"attributes":{"POSITION":66,"TANGENT":67,"NORMAL":68,"TEXCOORD_0":69},"indices":65,"material":1}],"name":"Boss_073"},{"primitives":[{"attributes":{"POSITION":71,"TANGENT":72,"NORMAL":73,"TEXCOORD_0":74},"indices":70,"material":3}],"name":"Casework 2 Casework 1 [8743341]"},{"primitives":[{"attributes":{"POSITION":76,"TANGENT":77,"NORMAL":78,"TEXCOORD_0":79},"indices":75,"material":3}],"name":"Casework 4 Casework 1 [8744916]"},{"primitives":[{"attributes":{"POSITION":81,"TANGENT":82,"NORMAL":83,"TEXCOORD_0":84},"indices":80,"material":0},{"attributes":{"POSITION":86,"TANGENT":87,"NORMAL":88,"TEXCOORD_0":89},"indices":85,"material":1}],"name":"Generic Models 11 Generic Models 11 [8762451]"},{"primitives":[{"attributes":{"POSITION":91,"TANGENT":92,"NORMAL":93,"TEXCOORD_0":94},"indices":90,"material":0},{"attributes":{"POSITION":96,"TANGENT":97,"NORMAL":98,"TEXCOORD_0":99},"indices":95,"material":1}],"name":"Object001"},{"primitives":[{"attributes":{"POSITION":101,"TANGENT":102,"NORMAL":103,"TEXCOORD_0":104},"indices":100,"material":0},{"attributes":{"POSITION":106,"TANGENT":107,"NORMAL":108,"TEXCOORD_0":109},"indices":105,"material":1}],"name":"Generic Models 11 Generic Models 11 [8762451]002"}],"accessors":[{"bufferView":0,"componentType":5123,"count":480,"type":"SCALAR","name":"accessorIndices"},{"bufferView":1,"componentType":5126,"count":162,"max":[0.025400002,0.025400002,0.050800003],"min":[-0.025400002,-0.025400002,2.5017023E-14],"type":"VEC3","name":"accessorPositions"},{"bufferView":2,"componentType":5126,"count":162,"type":"VEC4","name":"accessorTangents"},{"bufferView":1,"byteOffset":1944,"componentType":5126,"count":162,"type":"VEC3","name":"accessorNormals"},{"bufferView":3,"componentType":5126,"count":162,"type":"VEC2","name":"accessorUVs"},{"bufferView":0,"byteOffset":960,"componentType":5123,"count":468,"type":"SCALAR","name":"accessorIndices"},{"bufferView":1,"byteOffset":3888,"componentType":5126,"count":160,"max":[0.025400002,0.025400002,0.050800003],"min":[-0.025400002,-0.025400002,2.5017023E-14],"type":"VEC3","name":"accessorPositions"},{"bufferView":2,"byteOffset":2592,"componentType":5126,"count":160,"type":"VEC4","name":"accessorTangents"},{"bufferView":1,"byteOffset":5808,"componentType":5126,"count":160,"type":"VEC3","name":"accessorNormals"},{"bufferView":3,"byteOffset":1296,"componentType":5126,"count":160,"type":"VEC2","name":"accessorUVs"},{"bufferView":0,"byteOffset":1896,"componentType":5123,"count":906,"type":"SCALAR","name":"accessorIndices"},{"bufferView":1,"byteOffset":7728,"componentType":5126,"count":308,"max":[0.025400002,0.025400002,0.009652],"min":[-0.025400002,-0.025400002,-0.04100215],"type":"VEC3","name":"accessorPositions"},{"bufferView":2,"byteOffset":5152,"componentType":5126,"count":308,"type":"VEC4","name":"accessorTangents"},{"bufferView":1,"byteOffset":11424,"componentType":5126,"count":308,"type":"VEC3","name":"accessorNormals"},{"bufferView":3,"byteOffset":2576,"componentType":5126,"count":308,"type":"VEC2","name":"accessorUVs"},{"bufferView":0,"byteOffset":3708,"componentType":5123,"count":624,"type":"SCALAR","name":"accessorIndices"},{"bufferView":1,"byteOffset":15120,"componentType":5126,"count":209,"max":[0.025400002,0.025400002,0.009652],"min":[-0.025400002,-0.025400002,2.514644E-14],"type":"VEC3","name":"accessorPositions"},{"bufferView":2,"byteOffset":10080,"componentType":5126,"count":209,"type":"VEC4","name":"accessorTangents"},{"bufferView":1,"byteOffset":17628,"componentType":5126,"count":209,"type":"VEC3","name":"accessorNormals"},{"bufferView":3,"byteOffset":5040,"componentType":5126,"count":209,"type":"VEC2","name":"accessorUVs"},{"bufferView":0,"byteOffset":4956,"componentType":5123,"count":2016,"type":"SCALAR","name":"accessorIndices"},{"bufferView":1,"byteOffset":20136,"componentType":5126,"count":680,"max":[0.0198374,0.0198374,2.5304686E-14],"min":[-0.0198374,-0.0198374,-0.0015748],"type":"VEC3","name":"accessorPositions"},{"bufferView":2,"byteOffset":13424,"componentType":5126,"count":680,"type":"VEC4","name":"accessorTangents"},{"bufferView":1,"byteOffset":28296,"componentType":5126,"count":680,"type":"VEC3","name":"accessorNormals"},{"bufferView":3,"byteOffset":6712,"componentType":5126,"count":680,"type":"VEC2","name":"accessorUVs"},{"bufferView":0,"byteOffset":8988,"componentType":5123,"count":264,"type":"SCALAR","name":"accessorIndices"},{"bufferView":1,"byteOffset":36456,"componentType":5126,"count":171,"max":[0.93572664,1.2459797,0.0071623535],"min":[-0.87316096,-1.2030444,-0.0071623535],"type":"VEC3","name":"accessorPositions"},{"bufferView":2,"byteOffset":24304,"componentType":5126,"count":171,"type":"VEC4","name":"accessorTangents"},{"bufferView":1,"byteOffset":38508,"componentType":5126,"count":171,"type":"VEC3","name":"accessorNormals"},{"bufferView":3,"byteOffset":12152,"componentType":5126,"count":171,"type":"VEC2","name":"accessorUVs"},{"bufferView":0,"byteOffset":9516,"componentType":5123,"count":300,"type":"SCALAR","name":"accessorIndices"},{"bufferView":1,"byteOffset":40560,"componentType":5126,"count":192,"max":[0.7921633,1.0336493,0.0071623535],"min":[-0.7185957,-1.0855365,-0.007162357],"type":"VEC3","name":"accessorPositions"},{"bufferView":2,"byteOffset":27040,"componentType":5126,"count":192,"type":"VEC4","name":"accessorTangents"},{"bufferView":1,"byteOffset":42864,"componentType":5126,"count":192,"type":"VEC3","name":"accessorNormals"},{"bufferView":3,"byteOffset":13520,"componentType":5126,"count":192,"type":"VEC2","name":"accessorUVs"},{"bufferView":0,"byteOffset":10116,"componentType":5123,"count":4641,"type":"SCALAR","name":"accessorIndices"},{"bufferView":1,"byteOffset":45168,"componentType":5126,"count":1906,"max":[-23.313078,2.1479537,-27.262262],"min":[-24.836197,1.057342,-27.300385],"type":"VEC3","name":"accessorPositions"},{"bufferView":2,"byteOffset":30112,"componentType":5126,"count":1906,"type":"VEC4","name":"accessorTangents"},{"bufferView":1,"byteOffset":68040,"componentType":5126,"count":1906,"type":"VEC3","name":"accessorNormals"},{"bufferView":3,"byteOffset":15056,"componentType":5126,"count":1906,"type":"VEC2","name":"accessorUVs"},{"bufferView":0,"byteOffset":19400,"componentType":5123,"count":1155,"type":"SCALAR","name":"accessorIndices"},{"bufferView":1,"byteOffset":90912,"componentType":5126,"count":391,"max":[-23.313078,2.1479537,-27.262262],"min":[-24.836197,1.057342,-27.300362],"type":"VEC3","name":"accessorPositions"},{"bufferView":2,"byteOffset":60608,"componentType":5126,"count":391,"type":"VEC4","name":"accessorTangents"},{"bufferView":1,"byteOffset":95604,"componentType":5126,"count":391,"type":"VEC3","name":"accessorNormals"},{"bufferView":3,"byteOffset":30304,"componentType":5126,"count":391,"type":"VEC2","name":"accessorUVs"},{"bufferView":0,"byteOffset":21712,"componentType":5123,"count":780,"type":"SCALAR","name":"accessorIndices"},{"bufferView":1,"byteOffset":100296,"componentType":5126,"count":276,"max":[0.0036115968,0.009961597,0.009961597],"min":[1.8683688E-14,-0.009961597,-0.009961597],"type":"VEC3","name":"accessorPositions"},{"bufferView":2,"byteOffset":66864,"componentType":5126,"count":276,"type":"VEC4","name":"accessorTangents"},{"bufferView":1,"byteOffset":103608,"componentType":5126,"count":276,"type":"VEC3","name":"accessorNormals"},{"bufferView":3,"byteOffset":33432,"componentType":5126,"count":276,"type":"VEC2","name":"accessorUVs"},{"bufferView":0,"byteOffset":23272,"componentType":5123,"count":912,"type":"SCALAR","name":"accessorIndices"},{"bufferView":1,"byteOffset":106920,"componentType":5126,"count":338,"max":[0.00401787,0.005775334,0.005775334],"min":[5.9999157E-09,-0.005775334,-0.005775334],"type":"VEC3","name":"accessorPositions"},{"bufferView":2,"byteOffset":71280,"componentType":5126,"count":338,"type":"VEC4","name":"accessorTangents"},{"bufferView":1,"byteOffset":110976,"componentType":5126,"count":338,"type":"VEC3","name":"accessorNormals"},{"bufferView":3,"byteOffset":35640,"componentType":5126,"count":338,"type":"VEC2","name":"accessorUVs"},{"bufferView":0,"byteOffset":25096,"componentType":5123,"count":4434,"type":"SCALAR","name":"accessorIndices"},{"bufferView":1,"byteOffset":115032,"componentType":5126,"count":1674,"max":[0.0063500004,0.0762,0.025400002],"min":[-0.09525,-0.05715,-0.025400002],"type":"VEC3","name":"accessorPositions"},{"bufferView":2,"byteOffset":76688,"componentType":5126,"count":1674,"type":"VEC4","name":"accessorTangents"},{"bufferView":1,"byteOffset":135120,"componentType":5126,"count":1674,"type":"VEC3","name":"accessorNormals"},{"bufferView":3,"byteOffset":38344,"componentType":5126,"count":1674,"type":"VEC2","name":"accessorUVs"},{"bufferView":0,"byteOffset":33964,"componentType":5123,"count":480,"type":"SCALAR","name":"accessorIndices"},{"bufferView":1,"byteOffset":155208,"componentType":5126,"count":162,"max":[0.025400002,0.025400002,0.044450004],"min":[-0.025400002,-0.025400002,2.5017023E-14],"type":"VEC3","name":"accessorPositions"},{"bufferView":2,"byteOffset":103472,"componentType":5126,"count":162,"type":"VEC4","name":"accessorTangents"},{"bufferView":1,"byteOffset":157152,"componentType":5126,"count":162,"type":"VEC3","name":"accessorNormals"},{"bufferView":3,"byteOffset":51736,"componentType":5126,"count":162,"type":"VEC2","name":"accessorUVs"},{"bufferView":0,"byteOffset":34924,"componentType":5123,"count":468,"type":"SCALAR","name":"accessorIndices"},{"bufferView":1,"byteOffset":159096,"componentType":5126,"count":160,"max":[0.025400002,0.025400002,0.044450004],"min":[-0.025400002,-0.025400002,2.5017023E-14],"type":"VEC3","name":"accessorPositions"},{"bufferView":2,"byteOffset":106064,"componentType":5126,"count":160,"type":"VEC4","name":"accessorTangents"},{"bufferView":1,"byteOffset":161016,"componentType":5126,"count":160,"type":"VEC3","name":"accessorNormals"},{"bufferView":3,"byteOffset":53032,"componentType":5126,"count":160,"type":"VEC2","name":"accessorUVs"},{"bufferView":0,"byteOffset":35860,"componentType":5123,"count":432,"type":"SCALAR","name":"accessorIndices"},{"bufferView":1,"byteOffset":162936,"componentType":5126,"count":292,"max":[1.5733621,1.2916126,0.0071623535],"min":[-1.5733621,-1.2929599,-0.0071623535],"type":"VEC3","name":"accessorPositions"},{"bufferView":2,"byteOffset":108624,"componentType":5126,"count":292,"type":"VEC4","name":"accessorTangents"},{"bufferView":1,"byteOffset":166440,"componentType":5126,"count":292,"type":"VEC3","name":"accessorNormals"},{"bufferView":3,"byteOffset":54312,"componentType":5126,"count":292,"type":"VEC2","name":"accessorUVs"},{"bufferView":0,"byteOffset":36724,"componentType":5123,"count":468,"type":"SCALAR","name":"accessorIndices"},{"bufferView":1,"byteOffset":169944,"componentType":5126,"count":312,"max":[1.4298011,1.09093,0.0071623535],"min":[-1.4231328,-1.09093,-0.007162354],"type":"VEC3","name":"accessorPositions"},{"bufferView":2,"byteOffset":113296,"componentType":5126,"count":312,"type":"VEC4","name":"accessorTangents"},{"bufferView":1,"byteOffset":173688,"componentType":5126,"count":312,"type":"VEC3","name":"accessorNormals"},{"bufferView":3,"byteOffset":56648,"componentType":5126,"count":312,"type":"VEC2","name":"accessorUVs"},{"bufferView":0,"byteOffset":37660,"componentType":5123,"count":3726,"type":"SCALAR","name":"accessorIndices"},{"bufferView":1,"byteOffset":177432,"componentType":5126,"count":1560,"max":[1.5949212,0.7637589,0.6193459],"min":[-1.5949236,-0.7637591,-0.6193436],"type":"VEC3","name":"accessorPositions"},{"bufferView":2,"byteOffset":118288,"componentType":5126,"count":1560,"type":"VEC4","name":"accessorTangents"},{"bufferView":1,"byteOffset":196152,"componentType":5126,"count":1560,"type":"VEC3","name":"accessorNormals"},{"bufferView":3,"byteOffset":59144,"componentType":5126,"count":1560,"type":"VEC2","name":"accessorUVs"},{"bufferView":0,"byteOffset":45112,"componentType":5123,"count":246,"type":"SCALAR","name":"accessorIndices"},{"bufferView":1,"byteOffset":214872,"componentType":5126,"count":84,"max":[1.5949212,0.7637589,-0.5812436],"min":[1.5949212,0.7175495,-0.6193436],"type":"VEC3","name":"accessorPositions"},{"bufferView":2,"byteOffset":143248,"componentType":5126,"count":84,"type":"VEC4","name":"accessorTangents"},{"bufferView":1,"byteOffset":215880,"componentType":5126,"count":84,"type":"VEC3","name":"accessorNormals"},{"bufferView":3,"byteOffset":71624,"componentType":5126,"count":84,"type":"VEC2","name":"accessorUVs"},{"bufferView":0,"byteOffset":45604,"componentType":5123,"count":46008,"type":"SCALAR","name":"accessorIndices"},{"bufferView":1,"byteOffset":216888,"componentType":5126,"count":8917,"max":[-23.313078,2.205021,-25.924025],"min":[-24.970493,1.059403,-25.96215],"type":"VEC3","name":"accessorPositions"},{"bufferView":2,"byteOffset":144592,"componentType":5126,"count":8917,"type":"VEC4","name":"accessorTangents"},{"bufferView":1,"byteOffset":323892,"componentType":5126,"count":8917,"type":"VEC3","name":"accessorNormals"},{"bufferView":3,"byteOffset":72296,"componentType":5126,"count":8917,"type":"VEC2","name":"accessorUVs"},{"bufferView":0,"byteOffset":137620,"componentType":5123,"count":246,"type":"SCALAR","name":"accessorIndices"},{"bufferView":1,"byteOffset":430896,"componentType":5126,"count":84,"max":[-23.313078,1.1056293,-25.924025],"min":[-23.313078,1.059403,-25.962126],"type":"VEC3","name":"accessorPositions"},{"bufferView":2,"byteOffset":287264,"componentType":5126,"count":84,"type":"VEC4","name":"accessorTangents"},{"bufferView":1,"byteOffset":431904,"componentType":5126,"count":84,"type":"VEC3","name":"accessorNormals"},{"bufferView":3,"byteOffset":143632,"componentType":5126,"count":84,"type":"VEC2","name":"accessorUVs"},{"bufferView":0,"byteOffset":138112,"componentType":5123,"count":4080,"type":"SCALAR","name":"accessorIndices"},{"bufferView":1,"byteOffset":432912,"componentType":5126,"count":1538,"max":[0.9106084,0.6469242,0.019062791],"min":[-0.9106084,-0.6469243,-0.019062791],"type":"VEC3","name":"accessorPositions"},{"bufferView":2,"byteOffset":288608,"componentType":5126,"count":1538,"type":"VEC4","name":"accessorTangents"},{"bufferView":1,"byteOffset":451368,"componentType":5126,"count":1538,"type":"VEC3","name":"accessorNormals"},{"bufferView":3,"byteOffset":144304,"componentType":5126,"count":1538,"type":"VEC2","name":"accessorUVs"},{"bufferView":0,"byteOffset":146272,"componentType":5123,"count":738,"type":"SCALAR","name":"accessorIndices"},{"bufferView":1,"byteOffset":469824,"componentType":5126,"count":252,"max":[0.9106084,0.6469242,0.019062791],"min":[-0.9106084,-0.6469243,-0.019062791],"type":"VEC3","name":"accessorPositions"},{"bufferView":2,"byteOffset":313216,"componentType":5126,"count":252,"type":"VEC4","name":"accessorTangents"},{"bufferView":1,"byteOffset":472848,"componentType":5126,"count":252,"type":"VEC3","name":"accessorNormals"},{"bufferView":3,"byteOffset":156608,"componentType":5126,"count":252,"type":"VEC2","name":"accessorUVs"}],"bufferViews":[{"buffer":0,"byteLength":147748,"name":"bufferViewScalar"},{"buffer":0,"byteOffset":147748,"byteLength":475872,"byteStride":12,"name":"bufferViewFloatVec3"},{"buffer":0,"byteOffset":623620,"byteLength":317248,"byteStride":16,"name":"bufferViewFloatVec4"},{"buffer":0,"byteOffset":940868,"byteLength":158624,"byteStride":8,"name":"bufferViewFloatVec2"}],"buffers":[{"uri":"L-Shaped_Railing_Optik-Boss.bin","byteLength":1099492}],"materials":[{"pbrMetallicRoughness":{"baseColorFactor":[0.9999998,0.9999999,0.9999999,1.0],"baseColorTexture":{"index":0,"extensions":{"KHR_texture_transform":{"offset":[0.19519997,0.8048],"rotation":1.5707964,"scale":[0.6096,0.6096],"texCoord":0}}},"roughnessFactor":0.2,"metallicRoughnessTexture":{"index":0,"extensions":{"KHR_texture_transform":{"offset":[0.19519997,0.8048],"rotation":1.5707964,"scale":[0.6096,0.6096],"texCoord":0}}}},"name":"Steel_Linear"},{"pbrMetallicRoughness":{"baseColorFactor":[0.9999998,0.9999999,0.9999999,1.0],"baseColorTexture":{"index":1},"roughnessFactor":0.2,"metallicRoughnessTexture":{"index":1}},"name":"Steel_Radial"},{"pbrMetallicRoughness":{"baseColorFactor":[0.10641303,0.10641304,0.10641304,1.0],"metallicFactor":0.0,"roughnessFactor":0.99,"metallicRoughnessTexture":{"index":2}},"name":"Rubber","extensions":{"KHR_materials_specular":{"specularFactor":0.1}}},{"pbrMetallicRoughness":{"baseColorFactor":[0.9999998,0.9999999,0.9999999,1.0],"metallicFactor":0.0,"roughnessFactor":0.1},"name":"Glass","extensions":{"KHR_materials_ior":{"ior":1.0},"KHR_materials_transmission":{"transmissionFactor":0.97},"KHR_materials_volume":{"thicknessFactor":0.56,"attenuationDistance":0.5,"attenuationColor":[0.49521634,0.56476736,0.5317566]}}}],"textures":[{"sampler":0,"source":0,"name":"Metal_Brushed_Linear_4k.jpg"},{"sampler":0,"source":1,"name":"Metal_Brushed_Radial_4k.jpg"},{"sampler":0,"source":2,"name":"PowderCoat_Roughness_2k0.jpg"}],"images":[{"uri":"textures/Metal_Brushed_Linear_4k.jpg"},{"uri":"textures/Metal_Brushed_Radial_4k.jpg"},{"uri":"textures/PowderCoat_Roughness_2k0.jpg"}],"samplers":[{"magFilter":9729,"minFilter":9987}]}