{"asset":{"version":"2.0","generator":"babylon.js glTF exporter for 3dsmax 2026 v20251111.2"},"extensionsUsed":["KHR_lights_punctual","KHR_texture_transform","KHR_materials_clearcoat"],"extensionsRequired":["KHR_texture_transform"],"scene":0,"scenes":[{"nodes":[0,1,2,3,4,5,6,7,8,9,10,11,12,13,14,15,16,17,18,19,20,21,22,23,24,25,26,27,28,29,30,31,32,33,34,35,36,37,38,39,40,41,42,43,44,45,46,47,48,49,50,51,52,53,54,55,56,57,58,59,60,61,62,63,64,65,66,67,68,69,70,71,72,73,74,75,76,77,78,79,80,81,82,83,84,85,86,87,88,89,90,91,92,93,94,95,96,97,98,99,100,101,102,103,104,105,106,107,108,109,110,111,112,113,114,115,116,117,118,119,120,121,122,123,124,125,126,127,128,129,130,131,132,133,134,135,136,137,138,139,140,141,142,143,144,145,146,147,148,149,150,151,152,153,154,155,156,157,158,159,160,161,162,163,164,165,166,167,168,169,170,171,172,173,174,175,176,177,178,179,180,181,182,183,184,185,186,187,188,189,190,191,192,193,194,195,196,197,198,199,200,201,202,203,204,205,206,207,208,209,210,211,212,213,214,215,216,217,218,219,220,221,222,223,224,225,226,227,228,229,230,231,232,233,234,235,236,237,238,239,240,241,242,243,244,245,246,247,248,249,250,251,252,253,254,255,256,257]}],"nodes":[{"mesh":0,"translation":[-0.9001311,1.1706098,-0.9006246],"rotation":[-0.0,-1.0,0.0,-4.371139E-08],"name":"Landing Attachment_001"},{"mesh":0,"translation":[-0.6461303,1.1706098,-0.55062455],"rotation":[-0.0,0.7071068,0.0,0.7071067],"name":"Landing Attachment_003"},{"mesh":0,"translation":[-0.90013134,1.1706098,-0.30068433],"rotation":[-0.0,-1.0,0.0,-1.6292068E-07],"name":"Landing Attachment_004"},{"mesh":1,"translation":[-1.0334811,1.1706098,-0.95142376],"rotation":[0.5,0.5,0.50000006,0.49999994],"scale":[1.0,0.99999994,0.99999994],"name":"1/2\" Lag Bolt_008"},{"mesh":1,"translation":[-1.0334811,1.1706098,-0.849823],"rotation":[0.5,0.5,0.50000006,0.49999994],"scale":[1.0,0.99999994,0.99999994],"name":"1/2\" Lag Bolt_009"},{"mesh":1,"translation":[-0.9953811,1.1706098,-0.849823],"rotation":[0.5,0.5,0.50000006,0.49999994],"scale":[1.0,0.99999994,0.99999994],"name":"1/2\" Lag Bolt_010"},{"mesh":1,"translation":[-0.9953811,1.1706098,-0.95142376],"rotation":[0.5,0.5,0.50000006,0.49999994],"scale":[1.0,0.99999994,0.99999994],"name":"1/2\" Lag Bolt_011"},{"mesh":1,"translation":[-0.8048811,1.1706098,-0.95142376],"rotation":[0.5,0.5,0.50000006,0.49999994],"scale":[1.0,0.99999994,0.99999994],"name":"1/2\" Lag Bolt_012"},{"mesh":1,"translation":[-0.7667811,1.1706098,-0.95142376],"rotation":[0.5,0.5,0.50000006,0.49999994],"scale":[1.0,0.99999994,0.99999994],"name":"1/2\" Lag Bolt_013"},{"mesh":1,"translation":[-0.8048811,1.1706098,-0.849823],"rotation":[0.5,0.5,0.50000006,0.49999994],"scale":[1.0,0.99999994,0.99999994],"name":"1/2\" Lag Bolt_014"},{"mesh":1,"translation":[-0.7667811,1.1706098,-0.849823],"rotation":[0.5,0.5,0.50000006,0.49999994],"scale":[1.0,0.99999994,0.99999994],"name":"1/2\" Lag Bolt_015"},{"mesh":1,"translation":[-0.59533113,1.1706098,-0.68397456],"rotation":[1.9037373E-15,1.9037373E-15,0.7071068,0.7071067],"name":"1/2\" Lag Bolt_024"},{"mesh":1,"translation":[-0.6969319,1.1706098,-0.68397456],"rotation":[1.9037373E-15,1.9037373E-15,0.7071068,0.7071067],"name":"1/2\" Lag Bolt_025"},{"mesh":1,"translation":[-0.6969319,1.1706098,-0.64587456],"rotation":[1.9037373E-15,1.9037373E-15,0.7071068,0.7071067],"name":"1/2\" Lag Bolt_026"},{"mesh":1,"translation":[-0.59533113,1.1706098,-0.64587456],"rotation":[1.9037373E-15,1.9037373E-15,0.7071068,0.7071067],"name":"1/2\" Lag Bolt_027"},{"mesh":1,"translation":[-0.59533113,1.1706098,-0.45537454],"rotation":[1.9037373E-15,1.9037373E-15,0.7071068,0.7071067],"name":"1/2\" Lag Bolt_028"},{"mesh":1,"translation":[-0.59533113,1.1706098,-0.41727453],"rotation":[1.9037373E-15,1.9037373E-15,0.7071068,0.7071067],"name":"1/2\" Lag Bolt_029"},{"mesh":1,"translation":[-0.6969319,1.1706098,-0.45537454],"rotation":[1.9037373E-15,1.9037373E-15,0.7071068,0.7071067],"name":"1/2\" Lag Bolt_030"},{"mesh":1,"translation":[-0.6969319,1.1706098,-0.41727453],"rotation":[1.9037373E-15,1.9037373E-15,0.7071068,0.7071067],"name":"1/2\" Lag Bolt_031"},{"mesh":1,"translation":[-1.0334814,1.1706098,-0.24988511],"rotation":[-0.49999997,-0.5000001,0.50000006,0.49999997],"name":"1/2\" Lag Bolt_032"},{"mesh":1,"translation":[-1.0334814,1.1706098,-0.35148585],"rotation":[-0.49999997,-0.5000001,0.50000006,0.49999997],"name":"1/2\" Lag Bolt_033"},{"mesh":1,"translation":[-0.99538136,1.1706098,-0.35148585],"rotation":[-0.49999997,-0.5000001,0.50000006,0.49999997],"name":"1/2\" Lag Bolt_034"},{"mesh":1,"translation":[-0.99538136,1.1706098,-0.24988511],"rotation":[-0.49999997,-0.5000001,0.50000006,0.49999997],"name":"1/2\" Lag Bolt_035"},{"mesh":1,"translation":[-0.80488133,1.1706098,-0.24988511],"rotation":[-0.49999997,-0.5000001,0.50000006,0.49999997],"name":"1/2\" Lag Bolt_036"},{"mesh":1,"translation":[-0.76678133,1.1706098,-0.24988511],"rotation":[-0.49999997,-0.5000001,0.50000006,0.49999997],"name":"1/2\" Lag Bolt_037"},{"mesh":1,"translation":[-0.80488133,1.1706098,-0.35148585],"rotation":[-0.49999997,-0.5000001,0.50000006,0.49999997],"name":"1/2\" Lag Bolt_038"},{"mesh":1,"translation":[-0.7667814,1.1706098,-0.35148585],"rotation":[-0.49999997,-0.5000001,0.50000006,0.49999997],"name":"1/2\" Lag Bolt_039"},{"mesh":2,"translation":[-0.81758034,1.0944098,-0.55062455],"rotation":[-0.0,-0.7071068,0.0,0.7071067],"name":"Stringer Attachment_001"},{"mesh":3,"translation":[-0.81758034,1.1452098,-0.44902375],"rotation":[3.3937974E-15,-1.0,6.2099294E-17,-4.371139E-08],"name":"3/8\" FHSCS_023"},{"mesh":3,"translation":[-0.81758034,1.0436097,-0.44902375],"rotation":[3.3937974E-15,-1.0,6.2099294E-17,-4.371139E-08],"name":"3/8\" FHSCS_022"},{"mesh":3,"translation":[-0.81758034,1.0436097,-0.652223],"rotation":[3.3937974E-15,-1.0,6.2099294E-17,-4.371139E-08],"name":"3/8\" FHSCS_024"},{"mesh":3,"translation":[-0.81758034,1.1452098,-0.652223],"rotation":[3.3937974E-15,-1.0,6.2099294E-17,-4.371139E-08],"name":"3/8\" FHSCS_025"},{"mesh":3,"translation":[1.6063206,2.4592133,-0.5141105],"rotation":[-3.0908623E-08,0.7071067,0.7071068,3.0908616E-08],"name":"3/8\" FHSCS_030"},{"mesh":3,"translation":[1.6063206,2.4592133,-0.58713627],"rotation":[-3.0908623E-08,0.7071067,0.7071068,3.0908616E-08],"name":"3/8\" FHSCS_031"},{"mesh":3,"translation":[1.6063206,2.3639634,-0.58713627],"rotation":[-3.0908623E-08,0.7071067,0.7071068,3.0908616E-08],"name":"3/8\" FHSCS_032"},{"mesh":3,"translation":[1.6063206,2.3639634,-0.55062455],"rotation":[-3.0908623E-08,0.7071067,0.7071068,3.0908616E-08],"name":"3/8\" FHSCS_033"},{"mesh":3,"translation":[1.6063206,2.3639634,-0.5141082],"rotation":[-3.0908623E-08,0.7071067,0.7071068,3.0908616E-08],"name":"3/8\" FHSCS_034"},{"mesh":3,"translation":[1.6063206,2.4592133,-0.55062455],"rotation":[-3.0908623E-08,0.7071067,0.7071068,3.0908616E-08],"name":"3/8\" FHSCS_035"},{"mesh":3,"translation":[-0.8493319,1.0102596,-0.44922608],"rotation":[-0.5,-0.5,0.50000006,0.49999994],"name":"3/8\" FHSCS_036"},{"mesh":3,"translation":[-0.8493319,1.0102596,-0.37282375],"rotation":[-0.5,-0.5,0.50000006,0.49999994],"name":"3/8\" FHSCS_037"},{"mesh":3,"translation":[-0.95093036,1.0102596,-0.37282375],"rotation":[-0.5,-0.5,0.50000006,0.49999994],"name":"3/8\" FHSCS_038"},{"mesh":3,"translation":[-0.95093036,1.0102596,-0.44922608],"rotation":[-0.5,-0.5,0.50000006,0.49999994],"name":"3/8\" FHSCS_039"},{"mesh":3,"translation":[-0.95093036,1.0102596,-0.6520207],"rotation":[-0.5,-0.5,0.50000006,0.49999994],"name":"3/8\" FHSCS_040"},{"mesh":3,"translation":[-0.95093036,1.0102596,-0.728423],"rotation":[-0.5,-0.5,0.50000006,0.49999994],"name":"3/8\" FHSCS_041"},{"mesh":3,"translation":[-0.8493319,1.0102596,-0.728423],"rotation":[-0.5,-0.5,0.50000006,0.49999994],"name":"3/8\" FHSCS_042"},{"mesh":3,"translation":[-0.8493319,1.0102596,-0.6520207],"rotation":[-0.5,-0.5,0.50000006,0.49999994],"name":"3/8\" FHSCS_043"},{"mesh":4,"translation":[-0.90013134,-3.1392606E-15,1.3249142],"name":"Stair Stringer_Lower"},{"mesh":5,"translation":[-0.90013134,0.9325879,0.17164497],"rotation":[4.8301995E-08,-0.95504045,-0.29647553,-1.5559584E-07],"name":"Tread Support_012"},{"mesh":5,"translation":[-0.90013134,0.018187935,1.5024987],"rotation":[4.8301995E-08,-0.95504045,-0.29647553,-1.5559584E-07],"name":"Tread Support_007"},{"mesh":5,"translation":[-0.90013134,0.20106794,1.2363266],"rotation":[4.8301995E-08,-0.95504045,-0.29647553,-1.5559584E-07],"name":"Tread Support_008"},{"mesh":5,"translation":[-0.90013134,0.38394794,0.9701567],"rotation":[4.8301995E-08,-0.95504045,-0.29647553,-1.5559584E-07],"name":"Tread Support_009"},{"mesh":5,"translation":[-0.90013134,0.74970794,0.4378148],"rotation":[4.8301995E-08,-0.95504045,-0.29647553,-1.5559584E-07],"name":"Tread Support_011"},{"mesh":5,"translation":[-0.90013134,0.56682795,0.70398456],"rotation":[4.8301995E-08,-0.95504045,-0.29647553,-1.5559584E-07],"name":"Tread Support_010"},{"mesh":6,"translation":[-0.90013134,-3.7031806E-15,1.3673],"rotation":[-0.0,-1.0,0.0,-1.6292068E-07],"name":"Footer Plate"},{"mesh":7,"translation":[-0.7731321,0.012700001,1.2539395],"rotation":[0.7071068,-0.7071068,-1.092785E-08,-1.0927848E-08],"scale":[1.0,0.99999994,0.99999994],"name":"3/8\" Lag Bolt_007"},{"mesh":7,"translation":[-0.7731321,0.012700001,1.3999887],"rotation":[0.7071068,-0.7071068,-1.092785E-08,-1.0927848E-08],"scale":[1.0,0.99999994,0.99999994],"name":"3/8\" Lag Bolt_006"},{"mesh":7,"translation":[-0.7731321,0.012700001,1.5460403],"rotation":[0.7071068,-0.7071068,-1.092785E-08,-1.0927848E-08],"scale":[1.0,0.99999994,0.99999994],"name":"3/8\" Lag Bolt_005"},{"mesh":7,"translation":[-0.90013134,0.012700001,1.5460403],"rotation":[0.7071068,-0.7071068,-1.092785E-08,-1.0927848E-08],"scale":[1.0,0.99999994,0.99999994],"name":"3/8\" Lag Bolt_004"},{"mesh":7,"translation":[-1.0271329,0.012700001,1.5460403],"rotation":[0.7071068,-0.7071068,-1.092785E-08,-1.0927848E-08],"scale":[1.0,0.99999994,0.99999994],"name":"3/8\" Lag Bolt_003"},{"mesh":7,"translation":[-1.0271329,0.012700001,1.3999887],"rotation":[0.7071068,-0.7071068,-1.092785E-08,-1.0927848E-08],"scale":[1.0,0.99999994,0.99999994],"name":"3/8\" Lag Bolt_002"},{"mesh":7,"translation":[-1.0271329,0.012700001,1.2539395],"rotation":[0.7071068,-0.7071068,-1.092785E-08,-1.0927848E-08],"scale":[1.0,0.99999994,0.99999994],"name":"3/8\" Lag Bolt_001"},{"mesh":7,"translation":[-0.75586104,1.0083863,0.19832242],"rotation":[-0.49999997,-0.5000001,0.50000006,0.49999997],"name":"3/8\" Lag Bolt_119"},{"mesh":7,"translation":[-1.0444039,1.0083863,0.19832242],"rotation":[-0.49999997,-0.5000001,0.50000006,0.49999997],"name":"3/8\" Lag Bolt_118"},{"mesh":7,"translation":[-1.0139314,1.0083863,0.19832242],"rotation":[-0.49999997,-0.5000001,0.50000006,0.49999997],"name":"3/8\" Lag Bolt_117"},{"mesh":7,"translation":[-0.7863336,1.0083863,0.19832242],"rotation":[-0.49999997,-0.5000001,0.50000006,0.49999997],"name":"3/8\" Lag Bolt_116"},{"mesh":7,"translation":[-0.75586104,1.0083863,0.09503571],"rotation":[-0.5000001,-0.49999997,-0.50000006,-0.49999997],"name":"3/8\" Lag Bolt_115"},{"mesh":7,"translation":[-1.0444039,1.0083863,0.09503571],"rotation":[-0.5000001,-0.49999997,-0.50000006,-0.49999997],"name":"3/8\" Lag Bolt_114"},{"mesh":7,"translation":[-0.9982579,1.0083863,0.09503571],"rotation":[-0.7071067,-0.7071068,1.9656746E-08,-6.18036E-08],"scale":[1.0,0.99999994,0.99999994],"name":"3/8\" Lag Bolt_113"},{"mesh":7,"translation":[-0.8020071,1.0083863,0.09503571],"rotation":[4.0730175E-08,-4.0730175E-08,0.7071068,0.7071067],"scale":[1.0,0.99999994,0.99999994],"name":"3/8\" Lag Bolt_112"},{"mesh":7,"translation":[-0.75586104,0.093986176,1.5291785],"rotation":[-0.49999997,-0.5000001,0.50000006,0.49999997],"name":"3/8\" Lag Bolt_111"},{"mesh":7,"translation":[-1.0444039,0.093986176,1.5291785],"rotation":[-0.49999997,-0.5000001,0.50000006,0.49999997],"name":"3/8\" Lag Bolt_110"},{"mesh":7,"translation":[-1.0139314,0.093986176,1.5291785],"rotation":[-0.49999997,-0.5000001,0.50000006,0.49999997],"name":"3/8\" Lag Bolt_109"},{"mesh":7,"translation":[-0.7863336,0.093986176,1.5291785],"rotation":[-0.49999997,-0.5000001,0.50000006,0.49999997],"name":"3/8\" Lag Bolt_108"},{"mesh":7,"translation":[-0.75586104,0.093986176,1.4258895],"rotation":[-0.5000001,-0.49999997,-0.50000006,-0.49999997],"name":"3/8\" Lag Bolt_107"},{"mesh":7,"translation":[-1.0444039,0.093986176,1.4258895],"rotation":[-0.5000001,-0.49999997,-0.50000006,-0.49999997],"name":"3/8\" Lag Bolt_106"},{"mesh":7,"translation":[-0.9982579,0.093986176,1.4258895],"rotation":[-0.7071067,-0.7071068,1.9656746E-08,-6.18036E-08],"scale":[1.0,0.99999994,0.99999994],"name":"3/8\" Lag Bolt_105"},{"mesh":7,"translation":[-0.8020071,0.093986176,1.4258895],"rotation":[4.0730175E-08,-4.0730175E-08,0.7071068,0.7071067],"scale":[1.0,0.99999994,0.99999994],"name":"3/8\" Lag Bolt_104"},{"mesh":7,"translation":[-0.75586104,0.2768662,1.2630063],"rotation":[-0.49999997,-0.5000001,0.50000006,0.49999997],"name":"3/8\" Lag Bolt_103"},{"mesh":7,"translation":[-1.0444039,0.2768662,1.2630063],"rotation":[-0.49999997,-0.5000001,0.50000006,0.49999997],"name":"3/8\" Lag Bolt_102"},{"mesh":7,"translation":[-1.0139314,0.2768662,1.2630063],"rotation":[-0.49999997,-0.5000001,0.50000006,0.49999997],"name":"3/8\" Lag Bolt_101"},{"mesh":7,"translation":[-0.7863336,0.2768662,1.2630063],"rotation":[-0.49999997,-0.5000001,0.50000006,0.49999997],"name":"3/8\" Lag Bolt_100"},{"mesh":7,"translation":[-0.75586104,0.2768662,1.1597196],"rotation":[-0.5000001,-0.49999997,-0.50000006,-0.49999997],"name":"3/8\" Lag Bolt_099"},{"mesh":7,"translation":[-1.0444039,0.2768662,1.1597196],"rotation":[-0.5000001,-0.49999997,-0.50000006,-0.49999997],"name":"3/8\" Lag Bolt_098"},{"mesh":7,"translation":[-0.9982579,0.2768662,1.1597196],"rotation":[-0.7071067,-0.7071068,1.9656746E-08,-6.18036E-08],"scale":[1.0,0.99999994,0.99999994],"name":"3/8\" Lag Bolt_097"},{"mesh":7,"translation":[-0.8020071,0.2768662,1.1597196],"rotation":[4.0730175E-08,-4.0730175E-08,0.7071068,0.7071067],"scale":[1.0,0.99999994,0.99999994],"name":"3/8\" Lag Bolt_096"},{"mesh":7,"translation":[1.40547,2.4714262,-0.6948948],"rotation":[-0.7071068,-0.7071068,-2.6692543E-08,8.850979E-08],"name":"3/8\" Lag Bolt_095"},{"mesh":7,"translation":[1.40547,2.4714262,-0.40635195],"rotation":[-0.7071068,-0.7071068,-2.6692543E-08,8.850979E-08],"name":"3/8\" Lag Bolt_094"},{"mesh":7,"translation":[1.40547,2.4714262,-0.43684542],"rotation":[-0.7071068,-0.7071068,-2.6692543E-08,8.850979E-08],"name":"3/8\" Lag Bolt_093"},{"mesh":7,"translation":[1.40547,2.4714262,-0.6644013],"rotation":[-0.7071068,-0.7071068,-2.6692543E-08,8.850979E-08],"name":"3/8\" Lag Bolt_092"},{"mesh":7,"translation":[1.508701,2.4714262,-0.6948948],"rotation":[1.7227078E-15,1.7227078E-15,0.7071068,0.7071067],"name":"3/8\" Lag Bolt_091"},{"mesh":7,"translation":[1.508701,2.4714262,-0.40635195],"rotation":[1.7227078E-15,1.7227078E-15,0.7071068,0.7071067],"name":"3/8\" Lag Bolt_090"},{"mesh":7,"translation":[1.508701,2.4714262,-0.45249796],"rotation":[-0.5,-0.5,0.50000006,0.49999994],"name":"3/8\" Lag Bolt_089"},{"mesh":7,"translation":[1.508701,2.4714262,-0.64874876],"rotation":[0.5,0.5,0.50000006,0.49999994],"scale":[1.0,0.99999994,0.99999994],"name":"3/8\" Lag Bolt_088"},{"mesh":7,"translation":[-0.1933789,1.3741462,-0.6948948],"rotation":[-0.7071068,-0.7071068,-2.6692543E-08,8.850979E-08],"name":"3/8\" Lag Bolt_087"},{"mesh":7,"translation":[-0.1933789,1.3741462,-0.40635195],"rotation":[-0.7071068,-0.7071068,-2.6692543E-08,8.850979E-08],"name":"3/8\" Lag Bolt_086"},{"mesh":7,"translation":[-0.1933789,1.3741462,-0.43684542],"rotation":[-0.7071068,-0.7071068,-2.6692543E-08,8.850979E-08],"name":"3/8\" Lag Bolt_085"},{"mesh":7,"translation":[-0.1933789,1.3741462,-0.6644013],"rotation":[-0.7071068,-0.7071068,-2.6692543E-08,8.850979E-08],"name":"3/8\" Lag Bolt_084"},{"mesh":7,"translation":[-0.09014799,1.3741462,-0.6948948],"rotation":[1.7227078E-15,1.7227078E-15,0.7071068,0.7071067],"name":"3/8\" Lag Bolt_083"},{"mesh":7,"translation":[-0.09014799,1.3741462,-0.40635195],"rotation":[1.7227078E-15,1.7227078E-15,0.7071068,0.7071067],"name":"3/8\" Lag Bolt_082"},{"mesh":7,"translation":[-0.09014799,1.3741462,-0.45249796],"rotation":[-0.5,-0.5,0.50000006,0.49999994],"name":"3/8\" Lag Bolt_081"},{"mesh":7,"translation":[-0.09014799,1.3741462,-0.64874876],"rotation":[0.5,0.5,0.50000006,0.49999994],"scale":[1.0,0.99999994,0.99999994],"name":"3/8\" Lag Bolt_080"},{"mesh":7,"translation":[0.07309554,1.5570261,-0.6948948],"rotation":[-0.7071068,-0.7071068,-2.6692543E-08,8.850979E-08],"name":"3/8\" Lag Bolt_079"},{"mesh":7,"translation":[0.07309554,1.5570261,-0.40635195],"rotation":[-0.7071068,-0.7071068,-2.6692543E-08,8.850979E-08],"name":"3/8\" Lag Bolt_078"},{"mesh":7,"translation":[0.07309554,1.5570261,-0.43684542],"rotation":[-0.7071068,-0.7071068,-2.6692543E-08,8.850979E-08],"name":"3/8\" Lag Bolt_077"},{"mesh":7,"translation":[0.07309554,1.5570261,-0.6644013],"rotation":[-0.7071068,-0.7071068,-2.6692543E-08,8.850979E-08],"name":"3/8\" Lag Bolt_076"},{"mesh":7,"translation":[0.17632645,1.5570261,-0.6948948],"rotation":[1.7227078E-15,1.7227078E-15,0.7071068,0.7071067],"name":"3/8\" Lag Bolt_075"},{"mesh":7,"translation":[0.17632645,1.5570261,-0.40635195],"rotation":[1.7227078E-15,1.7227078E-15,0.7071068,0.7071067],"name":"3/8\" Lag Bolt_074"},{"mesh":7,"translation":[0.17632645,1.5570261,-0.45249796],"rotation":[-0.5,-0.5,0.50000006,0.49999994],"name":"3/8\" Lag Bolt_073"},{"mesh":7,"translation":[0.17632645,1.5570261,-0.64874876],"rotation":[0.5,0.5,0.50000006,0.49999994],"scale":[1.0,0.99999994,0.99999994],"name":"3/8\" Lag Bolt_072"},{"mesh":7,"translation":[0.33957,1.7399062,-0.6948948],"rotation":[-0.7071068,-0.7071068,-2.6692543E-08,8.850979E-08],"name":"3/8\" Lag Bolt_071"},{"mesh":7,"translation":[0.33957,1.7399062,-0.40635195],"rotation":[-0.7071068,-0.7071068,-2.6692543E-08,8.850979E-08],"name":"3/8\" Lag Bolt_070"},{"mesh":7,"translation":[0.33957,1.7399062,-0.43684542],"rotation":[-0.7071068,-0.7071068,-2.6692543E-08,8.850979E-08],"name":"3/8\" Lag Bolt_069"},{"mesh":7,"translation":[0.33957,1.7399062,-0.6644013],"rotation":[-0.7071068,-0.7071068,-2.6692543E-08,8.850979E-08],"name":"3/8\" Lag Bolt_068"},{"mesh":7,"translation":[0.44280088,1.7399062,-0.6948948],"rotation":[1.7227078E-15,1.7227078E-15,0.7071068,0.7071067],"name":"3/8\" Lag Bolt_067"},{"mesh":7,"translation":[0.44280088,1.7399062,-0.40635195],"rotation":[1.7227078E-15,1.7227078E-15,0.7071068,0.7071067],"name":"3/8\" Lag Bolt_066"},{"mesh":7,"translation":[0.44280088,1.7399062,-0.45249796],"rotation":[-0.5,-0.5,0.50000006,0.49999994],"name":"3/8\" Lag Bolt_065"},{"mesh":7,"translation":[0.44280088,1.7399062,-0.64874876],"rotation":[0.5,0.5,0.50000006,0.49999994],"scale":[1.0,0.99999994,0.99999994],"name":"3/8\" Lag Bolt_064"},{"mesh":7,"translation":[-0.75586104,0.45974618,0.9968365],"rotation":[-0.49999997,-0.5000001,0.50000006,0.49999997],"name":"3/8\" Lag Bolt_063"},{"mesh":7,"translation":[-1.0444039,0.45974618,0.9968365],"rotation":[-0.49999997,-0.5000001,0.50000006,0.49999997],"name":"3/8\" Lag Bolt_062"},{"mesh":7,"translation":[-1.0139314,0.45974618,0.9968365],"rotation":[-0.49999997,-0.5000001,0.50000006,0.49999997],"name":"3/8\" Lag Bolt_061"},{"mesh":7,"translation":[-0.7863336,0.45974618,0.9968365],"rotation":[-0.49999997,-0.5000001,0.50000006,0.49999997],"name":"3/8\" Lag Bolt_060"},{"mesh":7,"translation":[-0.75586104,0.45974618,0.8935474],"rotation":[-0.5000001,-0.49999997,-0.50000006,-0.49999997],"name":"3/8\" Lag Bolt_059"},{"mesh":7,"translation":[-1.0444039,0.45974618,0.8935474],"rotation":[-0.5000001,-0.49999997,-0.50000006,-0.49999997],"name":"3/8\" Lag Bolt_058"},{"mesh":7,"translation":[-0.9982579,0.45974618,0.8935474],"rotation":[-0.7071067,-0.7071068,1.9656746E-08,-6.18036E-08],"scale":[1.0,0.99999994,0.99999994],"name":"3/8\" Lag Bolt_057"},{"mesh":7,"translation":[-0.8020071,0.45974618,0.8935474],"rotation":[4.0730175E-08,-4.0730175E-08,0.7071068,0.7071067],"scale":[1.0,0.99999994,0.99999994],"name":"3/8\" Lag Bolt_056"},{"mesh":7,"translation":[0.6060444,1.9227861,-0.6948948],"rotation":[-0.7071068,-0.7071068,-2.6692543E-08,8.850979E-08],"name":"3/8\" Lag Bolt_055"},{"mesh":7,"translation":[0.6060444,1.9227861,-0.40635195],"rotation":[-0.7071068,-0.7071068,-2.6692543E-08,8.850979E-08],"name":"3/8\" Lag Bolt_054"},{"mesh":7,"translation":[0.6060444,1.9227861,-0.43684542],"rotation":[-0.7071068,-0.7071068,-2.6692543E-08,8.850979E-08],"name":"3/8\" Lag Bolt_053"},{"mesh":7,"translation":[0.6060444,1.9227861,-0.6644013],"rotation":[-0.7071068,-0.7071068,-2.6692543E-08,8.850979E-08],"name":"3/8\" Lag Bolt_052"},{"mesh":7,"translation":[0.70927763,1.9227861,-0.6948948],"rotation":[1.7227078E-15,1.7227078E-15,0.7071068,0.7071067],"name":"3/8\" Lag Bolt_051"},{"mesh":7,"translation":[0.70927763,1.9227861,-0.40635195],"rotation":[1.7227078E-15,1.7227078E-15,0.7071068,0.7071067],"name":"3/8\" Lag Bolt_050"},{"mesh":7,"translation":[0.70927763,1.9227861,-0.45249796],"rotation":[-0.5,-0.5,0.50000006,0.49999994],"name":"3/8\" Lag Bolt_049"},{"mesh":7,"translation":[0.70927763,1.9227861,-0.64874876],"rotation":[0.5,0.5,0.50000006,0.49999994],"scale":[1.0,0.99999994,0.99999994],"name":"3/8\" Lag Bolt_048"},{"mesh":7,"translation":[0.87252116,2.1056662,-0.6948948],"rotation":[-0.7071068,-0.7071068,-2.6692543E-08,8.850979E-08],"name":"3/8\" Lag Bolt_047"},{"mesh":7,"translation":[0.87252116,2.1056662,-0.40635195],"rotation":[-0.7071068,-0.7071068,-2.6692543E-08,8.850979E-08],"name":"3/8\" Lag Bolt_046"},{"mesh":7,"translation":[0.87252116,2.1056662,-0.43684542],"rotation":[-0.7071068,-0.7071068,-2.6692543E-08,8.850979E-08],"name":"3/8\" Lag Bolt_045"},{"mesh":7,"translation":[0.87252116,2.1056662,-0.6644013],"rotation":[-0.7071068,-0.7071068,-2.6692543E-08,8.850979E-08],"name":"3/8\" Lag Bolt_044"},{"mesh":7,"translation":[0.97575206,2.1056662,-0.6948948],"rotation":[1.7227078E-15,1.7227078E-15,0.7071068,0.7071067],"name":"3/8\" Lag Bolt_043"},{"mesh":7,"translation":[0.97575206,2.1056662,-0.40635195],"rotation":[1.7227078E-15,1.7227078E-15,0.7071068,0.7071067],"name":"3/8\" Lag Bolt_042"},{"mesh":7,"translation":[0.97575206,2.1056662,-0.45249796],"rotation":[-0.5,-0.5,0.50000006,0.49999994],"name":"3/8\" Lag Bolt_041"},{"mesh":7,"translation":[0.97575206,2.1056662,-0.64874876],"rotation":[0.5,0.5,0.50000006,0.49999994],"scale":[1.0,0.99999994,0.99999994],"name":"3/8\" Lag Bolt_040"},{"mesh":7,"translation":[-0.75586104,0.82550615,0.4644946],"rotation":[-0.49999997,-0.5000001,0.50000006,0.49999997],"name":"3/8\" Lag Bolt_039"},{"mesh":7,"translation":[-1.0444039,0.82550615,0.4644946],"rotation":[-0.49999997,-0.5000001,0.50000006,0.49999997],"name":"3/8\" Lag Bolt_038"},{"mesh":7,"translation":[-1.0139314,0.82550615,0.4644946],"rotation":[-0.49999997,-0.5000001,0.50000006,0.49999997],"name":"3/8\" Lag Bolt_037"},{"mesh":7,"translation":[-0.7863336,0.82550615,0.4644946],"rotation":[-0.49999997,-0.5000001,0.50000006,0.49999997],"name":"3/8\" Lag Bolt_036"},{"mesh":7,"translation":[-0.75586104,0.82550615,0.36120555],"rotation":[-0.5000001,-0.49999997,-0.50000006,-0.49999997],"name":"3/8\" Lag Bolt_035"},{"mesh":7,"translation":[-1.0444039,0.82550615,0.36120555],"rotation":[-0.5000001,-0.49999997,-0.50000006,-0.49999997],"name":"3/8\" Lag Bolt_034"},{"mesh":7,"translation":[-0.9982579,0.82550615,0.36120555],"rotation":[-0.7071067,-0.7071068,1.9656746E-08,-6.18036E-08],"scale":[1.0,0.99999994,0.99999994],"name":"3/8\" Lag Bolt_033"},{"mesh":7,"translation":[-0.8020071,0.82550615,0.36120555],"rotation":[4.0730175E-08,-4.0730175E-08,0.7071068,0.7071067],"scale":[1.0,0.99999994,0.99999994],"name":"3/8\" Lag Bolt_032"},{"mesh":7,"translation":[-0.75586104,0.64262617,0.7306644],"rotation":[-0.49999997,-0.5000001,0.50000006,0.49999997],"name":"3/8\" Lag Bolt_031"},{"mesh":7,"translation":[-1.0444039,0.64262617,0.7306644],"rotation":[-0.49999997,-0.5000001,0.50000006,0.49999997],"name":"3/8\" Lag Bolt_030"},{"mesh":7,"translation":[-1.0139314,0.64262617,0.7306644],"rotation":[-0.49999997,-0.5000001,0.50000006,0.49999997],"name":"3/8\" Lag Bolt_029"},{"mesh":7,"translation":[-0.7863336,0.64262617,0.7306644],"rotation":[-0.49999997,-0.5000001,0.50000006,0.49999997],"name":"3/8\" Lag Bolt_028"},{"mesh":7,"translation":[-0.75586104,0.64262617,0.6273776],"rotation":[-0.5000001,-0.49999997,-0.50000006,-0.49999997],"name":"3/8\" Lag Bolt_027"},{"mesh":7,"translation":[-1.0444039,0.64262617,0.6273776],"rotation":[-0.5000001,-0.49999997,-0.50000006,-0.49999997],"name":"3/8\" Lag Bolt_026"},{"mesh":7,"translation":[-0.9982579,0.64262617,0.6273776],"rotation":[-0.7071067,-0.7071068,1.9656746E-08,-6.18036E-08],"scale":[1.0,0.99999994,0.99999994],"name":"3/8\" Lag Bolt_025"},{"mesh":7,"translation":[-0.8020071,0.64262617,0.6273776],"rotation":[4.0730175E-08,-4.0730175E-08,0.7071068,0.7071067],"scale":[1.0,0.99999994,0.99999994],"name":"3/8\" Lag Bolt_024"},{"mesh":7,"translation":[1.1389956,2.2885463,-0.6948948],"rotation":[-0.7071068,-0.7071068,-2.6692543E-08,8.850979E-08],"name":"3/8\" Lag Bolt_023"},{"mesh":7,"translation":[1.1389956,2.2885463,-0.40635195],"rotation":[-0.7071068,-0.7071068,-2.6692543E-08,8.850979E-08],"name":"3/8\" Lag Bolt_022"},{"mesh":7,"translation":[1.1389956,2.2885463,-0.43684542],"rotation":[-0.7071068,-0.7071068,-2.6692543E-08,8.850979E-08],"name":"3/8\" Lag Bolt_021"},{"mesh":7,"translation":[1.1389956,2.2885463,-0.6644013],"rotation":[-0.7071068,-0.7071068,-2.6692543E-08,8.850979E-08],"name":"3/8\" Lag Bolt_020"},{"mesh":7,"translation":[1.2422265,2.2885463,-0.6948948],"rotation":[1.7227078E-15,1.7227078E-15,0.7071068,0.7071067],"name":"3/8\" Lag Bolt_019"},{"mesh":7,"translation":[1.2422265,2.2885463,-0.40635195],"rotation":[1.7227078E-15,1.7227078E-15,0.7071068,0.7071067],"name":"3/8\" Lag Bolt_018"},{"mesh":7,"translation":[1.2422265,2.2885463,-0.45249796],"rotation":[-0.5,-0.5,0.50000006,0.49999994],"name":"3/8\" Lag Bolt_017"},{"mesh":7,"translation":[1.2422265,2.2885463,-0.64874876],"rotation":[0.5,0.5,0.50000006,0.49999994],"scale":[1.0,0.99999994,0.99999994],"name":"3/8\" Lag Bolt_016"},{"mesh":7,"translation":[-1.0271304,0.009525,-0.423623],"rotation":[-0.5,0.5,0.5,-0.5],"scale":[1.0,0.99999994,0.99999994],"name":"3/8\" Lag Bolt_015"},{"mesh":7,"translation":[-0.7731319,0.009525,-0.423623],"rotation":[-0.5,0.5,0.5,-0.5],"scale":[1.0,0.99999994,0.99999994],"name":"3/8\" Lag Bolt_014"},{"mesh":7,"translation":[-0.9001311,0.009525,-0.423623],"rotation":[-0.5,0.5,0.5,-0.5],"scale":[1.0,0.99999994,0.99999994],"name":"3/8\" Lag Bolt_013"},{"mesh":7,"translation":[-0.7731319,0.009525,-0.55062455],"rotation":[-0.5,0.5,0.5,-0.5],"scale":[1.0,0.99999994,0.99999994],"name":"3/8\" Lag Bolt_012"},{"mesh":7,"translation":[-1.0271304,0.009525,-0.55062455],"rotation":[-0.5,0.5,0.5,-0.5],"scale":[1.0,0.99999994,0.99999994],"name":"3/8\" Lag Bolt_011"},{"mesh":7,"translation":[-1.0271304,0.009525,-0.67762375],"rotation":[-0.5,0.5,0.5,-0.5],"scale":[1.0,0.99999994,0.99999994],"name":"3/8\" Lag Bolt_010"},{"mesh":7,"translation":[-0.9001311,0.009525,-0.67762375],"rotation":[-0.5,0.5,0.5,-0.5],"scale":[1.0,0.99999994,0.99999994],"name":"3/8\" Lag Bolt_009"},{"mesh":7,"translation":[-0.7731319,0.009525,-0.67762375],"rotation":[-0.5,0.5,0.5,-0.5],"scale":[1.0,0.99999994,0.99999994],"name":"3/8\" Lag Bolt_008"},{"mesh":8,"translation":[0.27916902,1.28016,-0.55062455],"rotation":[-0.0,0.7071068,0.0,0.7071067],"name":"Stair Stringer_Upper"},{"mesh":9,"translation":[1.4320521,2.3956823,-0.55062455],"rotation":[0.2094599,-0.67537147,0.20945995,0.67537135],"name":"Tread Support_006"},{"mesh":9,"translation":[-0.1667968,1.2984023,-0.55062455],"rotation":[0.2094599,-0.67537147,0.20945995,0.67537135],"name":"Tread Support_000"},{"mesh":9,"translation":[0.09967764,1.4812822,-0.55062455],"rotation":[0.2094599,-0.67537147,0.20945995,0.67537135],"name":"Tread Support_001"},{"mesh":9,"translation":[0.36615208,1.6641624,-0.55062455],"rotation":[0.2094599,-0.67537147,0.20945995,0.67537135],"name":"Tread Support_002"},{"mesh":9,"translation":[0.63262653,1.8470423,-0.55062455],"rotation":[0.2094599,-0.67537147,0.20945995,0.67537135],"name":"Tread Support_003"},{"mesh":9,"translation":[0.8991033,2.0299222,-0.55062455],"rotation":[0.2094599,-0.67537147,0.20945995,0.67537135],"name":"Tread Support_004"},{"mesh":9,"translation":[1.1655777,2.2128024,-0.55062455],"rotation":[0.2094599,-0.67537147,0.20945995,0.67537135],"name":"Tread Support_005"},{"mesh":10,"translation":[1.6063206,2.4115884,-0.55062455],"rotation":[-0.0,-0.7071068,0.0,0.7071067],"name":"Header Plate"},{"mesh":11,"translation":[1.6063206,2.4115884,-0.55062455],"rotation":[-0.0,-0.7071068,0.0,0.7071067],"name":"Header Plate Cover"},{"mesh":12,"translation":[-0.9001311,0.009525,-0.55062455],"rotation":[0.5,0.5,0.50000006,0.49999994],"scale":[1.0,0.99999994,0.99999994],"name":"Column Tube"},{"mesh":13,"translation":[-0.9001311,1.0944098,-0.98349047],"rotation":[-0.0,-1.0,0.0,-4.371139E-08],"name":"Stringer End Cap_000"},{"mesh":14,"translation":[-0.9001311,2.7343621E-15,-0.55062455],"rotation":[-0.0,-1.0,0.0,-4.371139E-08],"name":"Column Footer Plate"},{"mesh":15,"translation":[-0.9001311,1.0102596,-0.55062455],"rotation":[-0.0,0.7071068,0.0,0.7071067],"name":"Column to Stringer Plate"},{"mesh":16,"translation":[1.3057438,2.4665384,-0.55062425],"name":"Tread LED_000"},{"mesh":16,"translation":[1.0392704,2.283659,-0.55062425],"name":"Tread LED_001"},{"mesh":16,"translation":[0.77279705,2.100779,-0.55062425],"name":"Tread LED_002"},{"mesh":16,"translation":[0.50632364,1.9178993,-0.55062425],"name":"Tread LED_003"},{"mesh":16,"translation":[0.2398502,1.7350194,-0.55062425],"name":"Tread LED_004"},{"mesh":16,"translation":[-0.02662323,1.5521396,-0.55062425],"name":"Tread LED_005"},{"mesh":16,"translation":[-0.29309666,1.3692597,-0.55062425],"name":"Tread LED_006"},{"mesh":16,"translation":[-0.9001785,1.1863785,0.02541437],"rotation":[-0.0,-0.7071068,0.0,0.7071067],"name":"Tread LED_007"},{"mesh":16,"translation":[-0.90017843,1.0034983,0.29803583],"rotation":[-0.0,-0.7071068,0.0,0.7071067],"name":"Tread LED_008"},{"mesh":16,"translation":[-0.90017843,0.8206184,0.56420565],"rotation":[-0.0,-0.7071068,0.0,0.7071067],"name":"Tread LED_009"},{"mesh":16,"translation":[-0.90017843,0.6377384,0.83037543],"rotation":[-0.0,-0.7071068,0.0,0.7071067],"name":"Tread LED_010"},{"mesh":16,"translation":[-0.90017843,0.45485836,1.0965452],"rotation":[-0.0,-0.7071068,0.0,0.7071067],"name":"Tread LED_011"},{"mesh":16,"translation":[-0.90017843,0.27197835,1.3627151],"rotation":[-0.0,-0.7071068,0.0,0.7071067],"name":"Tread LED_012"},{"mesh":16,"translation":[-0.90017843,0.08909838,1.6288849],"rotation":[-0.0,-0.7071068,0.0,0.7071067],"name":"Tread LED_013"},{"mesh":17,"translation":[0.27916902,1.28016,-0.55062455],"rotation":[-0.0,0.7071068,0.0,0.7071067],"name":"Floor Nosing002"},{"mesh":18,"translation":[-0.9001311,1.22936,-0.550615],"name":"Landing001"},{"mesh":19,"translation":[0.09636931,1.5951201,-0.5506245],"rotation":[-0.0,1.7484555E-07,0.0,1.0],"name":"Tread Block_053"},{"mesh":20,"translation":[-0.17010513,1.4122401,-0.5506245],"rotation":[-0.0,1.7484555E-07,0.0,1.0],"name":"Tread Block_054"},{"mesh":21,"translation":[0.36284372,1.7780001,-0.5506245],"rotation":[-0.0,1.7484555E-07,0.0,1.0],"name":"Tread Block_055"},{"mesh":22,"translation":[0.62932056,1.96088,-0.5506245],"rotation":[-0.0,1.7484555E-07,0.0,1.0],"name":"Tread Block_056"},{"mesh":23,"translation":[0.895795,2.14376,-0.5506245],"rotation":[-0.0,1.7484555E-07,0.0,1.0],"name":"Tread Block_057"},{"mesh":24,"translation":[1.1622694,2.3266401,-0.5506245],"rotation":[-0.0,1.7484555E-07,0.0,1.0],"name":"Tread Block_058"},{"mesh":25,"translation":[1.4287437,2.5095198,-0.5506245],"rotation":[-0.0,2.3849761E-08,0.0,1.0],"name":"Tread Block_059"},{"mesh":26,"translation":[-0.90013134,1.04648,0.17503692],"rotation":[-0.0,0.7071068,0.0,0.7071067],"name":"Tread Block_077"},{"mesh":27,"translation":[-0.90013134,0.8636,0.44120675],"rotation":[-0.0,0.7071068,0.0,0.7071067],"name":"Tread Block_072"},{"mesh":28,"translation":[-0.90013134,0.68072003,0.70737654],"rotation":[-0.0,0.7071068,0.0,0.7071067],"name":"Tread Block_073"},{"mesh":29,"translation":[-0.90013134,0.49784002,0.97354865],"rotation":[-0.0,0.7071068,0.0,0.7071067],"name":"Tread Block_074"},{"mesh":30,"translation":[-0.90013134,0.31496003,1.2397186],"rotation":[-0.0,0.7071068,0.0,0.7071067],"name":"Tread Block_075"},{"mesh":31,"translation":[-0.90013134,0.13208,1.5058906],"rotation":[-0.0,0.7071068,0.0,0.7071067],"name":"Tread Block_076"},{"translation":[0.77279705,2.105661,-0.550623],"rotation":[-0.70710677,-0.0,0.0,0.70710677],"name":"Tread LED_Light_002","extensions":{"KHR_lights_punctual":{"light":0}}},{"translation":[0.50632364,1.9227812,-0.550623],"rotation":[-0.70710677,-0.0,0.0,0.70710677],"name":"Tread LED_Light_003","extensions":{"KHR_lights_punctual":{"light":1}}},{"translation":[0.2398502,1.7399014,-0.550623],"rotation":[-0.70710677,-0.0,0.0,0.70710677],"name":"Tread LED_Light_004","extensions":{"KHR_lights_punctual":{"light":2}}},{"translation":[-0.02662323,1.5570215,-0.55062425],"rotation":[-0.70710677,-0.0,0.0,0.70710677],"name":"Tread LED_Light_005","extensions":{"KHR_lights_punctual":{"light":3}}},{"translation":[-0.29309666,1.3741417,-0.55062425],"rotation":[-0.70710677,-0.0,0.0,0.70710677],"name":"Tread LED_Light_006","extensions":{"KHR_lights_punctual":{"light":4}}},{"translation":[-0.90013134,1.0083803,0.29803583],"rotation":[-0.49999994,-0.5,-0.5,0.49999994],"name":"Tread LED_Light_007","extensions":{"KHR_lights_punctual":{"light":5}}},{"translation":[-0.9001325,0.82550037,0.56420565],"rotation":[-0.49999994,-0.5,-0.5,0.49999994],"name":"Tread LED_Light_008","extensions":{"KHR_lights_punctual":{"light":6}}},{"translation":[-0.9001325,0.6426204,0.83037543],"rotation":[-0.49999994,-0.5,-0.5,0.49999994],"name":"Tread LED_Light_009","extensions":{"KHR_lights_punctual":{"light":7}}},{"translation":[-0.9001325,0.4597404,1.0965452],"rotation":[-0.49999994,-0.5,-0.5,0.49999994],"name":"Tread LED_Light_010","extensions":{"KHR_lights_punctual":{"light":8}}},{"translation":[-0.90013134,1.1912603,0.025403032],"rotation":[-0.49999994,-0.5,-0.5,0.49999994],"name":"Tread LED_Light_013","extensions":{"KHR_lights_punctual":{"light":9}}},{"translation":[-0.5953313,1.1912603,0.025403032],"rotation":[-0.49999994,-0.5,-0.5,0.49999994],"name":"Tread LED_Light_014","extensions":{"KHR_lights_punctual":{"light":10}}},{"translation":[-0.5953325,0.4597404,1.0965452],"rotation":[-0.49999994,-0.5,-0.5,0.49999994],"name":"Tread LED_Light_017","extensions":{"KHR_lights_punctual":{"light":11}}},{"translation":[-0.5953325,0.6426204,0.83037543],"rotation":[-0.49999994,-0.5,-0.5,0.49999994],"name":"Tread LED_Light_018","extensions":{"KHR_lights_punctual":{"light":12}}},{"translation":[-0.5953325,0.82550037,0.56420565],"rotation":[-0.49999994,-0.5,-0.5,0.49999994],"name":"Tread LED_Light_019","extensions":{"KHR_lights_punctual":{"light":13}}},{"translation":[-0.5953313,1.0083803,0.29803583],"rotation":[-0.49999994,-0.5,-0.5,0.49999994],"name":"Tread LED_Light_020","extensions":{"KHR_lights_punctual":{"light":14}}},{"translation":[-0.2931074,1.3741417,-0.8554242],"rotation":[-0.70710677,-0.0,0.0,0.70710677],"name":"Tread LED_Light_021","extensions":{"KHR_lights_punctual":{"light":15}}},{"translation":[-0.026633967,1.5570215,-0.8554242],"rotation":[-0.70710677,-0.0,0.0,0.70710677],"name":"Tread LED_Light_022","extensions":{"KHR_lights_punctual":{"light":16}}},{"translation":[0.23983945,1.7399014,-0.85542303],"rotation":[-0.70710677,-0.0,0.0,0.70710677],"name":"Tread LED_Light_023","extensions":{"KHR_lights_punctual":{"light":17}}},{"translation":[0.50631285,1.9227812,-0.85542303],"rotation":[-0.70710677,-0.0,0.0,0.70710677],"name":"Tread LED_Light_024","extensions":{"KHR_lights_punctual":{"light":18}}},{"translation":[0.77278626,2.105661,-0.85542303],"rotation":[-0.70710677,-0.0,0.0,0.70710677],"name":"Tread LED_Light_025","extensions":{"KHR_lights_punctual":{"light":19}}},{"translation":[-1.2049314,1.1912603,0.025403032],"rotation":[-0.49999994,-0.5,-0.5,0.49999994],"name":"Tread LED_Light_028","extensions":{"KHR_lights_punctual":{"light":20}}},{"translation":[-1.2049325,0.4597404,1.0965452],"rotation":[-0.49999994,-0.5,-0.5,0.49999994],"name":"Tread LED_Light_031","extensions":{"KHR_lights_punctual":{"light":21}}},{"translation":[-1.2049325,0.6426204,0.83037543],"rotation":[-0.49999994,-0.5,-0.5,0.49999994],"name":"Tread LED_Light_032","extensions":{"KHR_lights_punctual":{"light":22}}},{"translation":[-1.2049325,0.82550037,0.56420565],"rotation":[-0.49999994,-0.5,-0.5,0.49999994],"name":"Tread LED_Light_033","extensions":{"KHR_lights_punctual":{"light":23}}},{"translation":[-1.2049314,1.0083803,0.29803583],"rotation":[-0.49999994,-0.5,-0.5,0.49999994],"name":"Tread LED_Light_034","extensions":{"KHR_lights_punctual":{"light":24}}},{"translation":[-0.29309666,1.3741417,-0.24582425],"rotation":[-0.70710677,-0.0,0.0,0.70710677],"name":"Tread LED_Light_035","extensions":{"KHR_lights_punctual":{"light":25}}},{"translation":[-0.02662323,1.5570215,-0.24582425],"rotation":[-0.70710677,-0.0,0.0,0.70710677],"name":"Tread LED_Light_036","extensions":{"KHR_lights_punctual":{"light":26}}},{"translation":[0.2398502,1.7399014,-0.24582301],"rotation":[-0.70710677,-0.0,0.0,0.70710677],"name":"Tread LED_Light_037","extensions":{"KHR_lights_punctual":{"light":27}}},{"translation":[0.50632364,1.9227812,-0.24582301],"rotation":[-0.70710677,-0.0,0.0,0.70710677],"name":"Tread LED_Light_038","extensions":{"KHR_lights_punctual":{"light":28}}},{"translation":[0.77279705,2.105661,-0.24582301],"rotation":[-0.70710677,-0.0,0.0,0.70710677],"name":"Tread LED_Light_039","extensions":{"KHR_lights_punctual":{"light":29}}},{"translation":[1.0392704,2.2885408,-0.550623],"rotation":[-0.70710677,-0.0,0.0,0.70710677],"name":"Tread LED_Light_124","extensions":{"KHR_lights_punctual":{"light":30}}},{"translation":[1.0392597,2.2885408,-0.85542303],"rotation":[-0.70710677,-0.0,0.0,0.70710677],"name":"Tread LED_Light_125","extensions":{"KHR_lights_punctual":{"light":31}}},{"translation":[1.0392704,2.2885408,-0.24582301],"rotation":[-0.70710677,-0.0,0.0,0.70710677],"name":"Tread LED_Light_126","extensions":{"KHR_lights_punctual":{"light":32}}},{"translation":[1.3057438,2.4714208,-0.550623],"rotation":[-0.70710677,-0.0,0.0,0.70710677],"name":"Tread LED_Light_127","extensions":{"KHR_lights_punctual":{"light":33}}},{"translation":[1.3057331,2.4714208,-0.85542303],"rotation":[-0.70710677,-0.0,0.0,0.70710677],"name":"Tread LED_Light_128","extensions":{"KHR_lights_punctual":{"light":34}}},{"translation":[1.3057438,2.4714208,-0.24582301],"rotation":[-0.70710677,-0.0,0.0,0.70710677],"name":"Tread LED_Light_129","extensions":{"KHR_lights_punctual":{"light":35}}},{"translation":[-0.9001325,0.27686042,1.3627174],"rotation":[-0.49999994,-0.5,-0.5,0.49999994],"name":"Tread LED_Light_130","extensions":{"KHR_lights_punctual":{"light":36}}},{"translation":[-0.5953325,0.27686042,1.3627174],"rotation":[-0.49999994,-0.5,-0.5,0.49999994],"name":"Tread LED_Light_131","extensions":{"KHR_lights_punctual":{"light":37}}},{"translation":[-1.2049325,0.27686042,1.3627174],"rotation":[-0.49999994,-0.5,-0.5,0.49999994],"name":"Tread LED_Light_132","extensions":{"KHR_lights_punctual":{"light":38}}},{"translation":[-0.9001325,0.093980454,1.6288898],"rotation":[-0.49999994,-0.5,-0.5,0.49999994],"name":"Tread LED_Light_133","extensions":{"KHR_lights_punctual":{"light":39}}},{"translation":[-0.5953325,0.093980454,1.6288898],"rotation":[-0.49999994,-0.5,-0.5,0.49999994],"name":"Tread LED_Light_134","extensions":{"KHR_lights_punctual":{"light":40}}},{"translation":[-1.2049325,0.093980454,1.6288898],"rotation":[-0.49999994,-0.5,-0.5,0.49999994],"name":"Tread LED_Light_135","extensions":{"KHR_lights_punctual":{"light":41}}}],"meshes":[{"primitives":[{"attributes":{"POSITION":1,"TANGENT":2,"NORMAL":3,"TEXCOORD_0":4},"indices":0,"material":0}],"name":"Landing Attachment_001"},{"primitives":[{"attributes":{"POSITION":6,"TANGENT":7,"NORMAL":8,"TEXCOORD_0":9},"indices":5,"material":0}],"name":"1/2\" Lag Bolt_008"},{"primitives":[{"attributes":{"POSITION":11,"TANGENT":12,"NORMAL":13,"TEXCOORD_0":14},"indices":10,"material":0}],"name":"Stringer Attachment_001"},{"primitives":[{"attributes":{"POSITION":16,"TANGENT":17,"NORMAL":18,"TEXCOORD_0":19},"indices":15,"material":0}],"name":"3/8\" FHSCS_023"},{"primitives":[{"attributes":{"POSITION":21,"TANGENT":22,"NORMAL":23,"TEXCOORD_0":24},"indices":20,"material":0}],"name":"Stair Stringer_Lower"},{"primitives":[{"attributes":{"POSITION":26,"TANGENT":27,"NORMAL":28,"TEXCOORD_0":29},"indices":25,"material":0}],"name":"Tread Support_012"},{"primitives":[{"attributes":{"POSITION":31,"TANGENT":32,"NORMAL":33,"TEXCOORD_0":34},"indices":30,"material":0}],"name":"Footer Plate"},{"primitives":[{"attributes":{"POSITION":36,"TANGENT":37,"NORMAL":38,"TEXCOORD_0":39},"indices":35,"material":0}],"name":"3/8\" Lag Bolt_007"},{"primitives":[{"attributes":{"POSITION":41,"TANGENT":42,"NORMAL":43,"TEXCOORD_0":44},"indices":40,"material":0}],"name":"Stair Stringer_Upper"},{"primitives":[{"attributes":{"POSITION":46,"TANGENT":47,"NORMAL":48,"TEXCOORD_0":49},"indices":45,"material":0}],"name":"Tread Support_006"},{"primitives":[{"attributes":{"POSITION":51,"TANGENT":52,"NORMAL":53,"TEXCOORD_0":54},"indices":50,"material":0}],"name":"Header Plate"},{"primitives":[{"attributes":{"POSITION":56,"TANGENT":57,"NORMAL":58,"TEXCOORD_0":59},"indices":55,"material":0}],"name":"Header Plate Cover"},{"primitives":[{"attributes":{"POSITION":61,"TANGENT":62,"NORMAL":63,"TEXCOORD_0":64},"indices":60,"material":0}],"name":"Column Tube"},{"primitives":[{"attributes":{"POSITION":66,"TANGENT":67,"NORMAL":68,"TEXCOORD_0":69},"indices":65,"material":0}],"name":"Stringer End Cap_000"},{"primitives":[{"attributes":{"POSITION":71,"TANGENT":72,"NORMAL":73,"TEXCOORD_0":74},"indices":70,"material":0}],"name":"Column Footer Plate"},{"primitives":[{"attributes":{"POSITION":76,"TANGENT":77,"NORMAL":78,"TEXCOORD_0":79},"indices":75,"material":0}],"name":"Column to Stringer Plate"},{"primitives":[{"attributes":{"POSITION":81,"NORMAL":82},"indices":80,"material":1}],"name":"Tread LED_000"},{"primitives":[{"attributes":{"POSITION":84,"TANGENT":85,"NORMAL":86,"TEXCOORD_0":87},"indices":83,"material":2}],"name":"Floor Nosing002"},{"primitives":[{"attributes":{"POSITION":89,"TANGENT":90,"NORMAL":91,"TEXCOORD_0":92},"indices":88,"material":2}],"name":"Landing001"},{"primitives":[{"attributes":{"POSITION":94,"TANGENT":95,"NORMAL":96,"TEXCOORD_0":97},"indices":93,"material":2}],"name":"Tread Block_053"},{"primitives":[{"attributes":{"POSITION":99,"TANGENT":100,"NORMAL":101,"TEXCOORD_0":102},"indices":98,"material":2}],"name":"Tread Block_054"},{"primitives":[{"attributes":{"POSITION":104,"TANGENT":105,"NORMAL":106,"TEXCOORD_0":107},"indices":103,"material":2}],"name":"Tread Block_055"},{"primitives":[{"attributes":{"POSITION":109,"TANGENT":110,"NORMAL":111,"TEXCOORD_0":112},"indices":108,"material":2}],"name":"Tread Block_056"},{"primitives":[{"attributes":{"POSITION":114,"TANGENT":115,"NORMAL":116,"TEXCOORD_0":117},"indices":113,"material":2}],"name":"Tread Block_057"},{"primitives":[{"attributes":{"POSITION":119,"TANGENT":120,"NORMAL":121,"TEXCOORD_0":122},"indices":118,"material":2}],"name":"Tread Block_058"},{"primitives":[{"attributes":{"POSITION":124,"TANGENT":125,"NORMAL":126,"TEXCOORD_0":127},"indices":123,"material":2}],"name":"Tread Block_059"},{"primitives":[{"attributes":{"POSITION":129,"TANGENT":130,"NORMAL":131,"TEXCOORD_0":132},"indices":128,"material":2}],"name":"Tread Block_077"},{"primitives":[{"attributes":{"POSITION":134,"TANGENT":135,"NORMAL":136,"TEXCOORD_0":137},"indices":133,"material":2}],"name":"Tread Block_072"},{"primitives":[{"attributes":{"POSITION":139,"TANGENT":140,"NORMAL":141,"TEXCOORD_0":142},"indices":138,"material":2}],"name":"Tread Block_073"},{"primitives":[{"attributes":{"POSITION":144,"TANGENT":145,"NORMAL":146,"TEXCOORD_0":147},"indices":143,"material":2}],"name":"Tread Block_074"},{"primitives":[{"attributes":{"POSITION":149,"TANGENT":150,"NORMAL":151,"TEXCOORD_0":152},"indices":148,"material":2}],"name":"Tread Block_075"},{"primitives":[{"attributes":{"POSITION":154,"TANGENT":155,"NORMAL":156,"TEXCOORD_0":157},"indices":153,"material":2}],"name":"Tread Block_076"}],"accessors":[{"bufferView":0,"componentType":5123,"count":36,"type":"SCALAR","name":"accessorIndices"},{"bufferView":1,"componentType":5126,"count":24,"max":[0.1524,0.0079502,0.0762],"min":[-0.1524,-2.4068498E-15,-0.0762],"type":"VEC3","name":"accessorPositions"},{"bufferView":2,"componentType":5126,"count":24,"type":"VEC4","name":"accessorTangents"},{"bufferView":1,"byteOffset":288,"componentType":5126,"count":24,"type":"VEC3","name":"accessorNormals"},{"bufferView":3,"componentType":5126,"count":24,"type":"VEC2","name":"accessorUVs"},{"bufferView":0,"byteOffset":72,"componentType":5123,"count":60,"type":"SCALAR","name":"accessorIndices"},{"bufferView":1,"byteOffset":576,"componentType":5126,"count":36,"max":[6.2941655E-15,0.012978258,0.011177512],"min":[-0.010795,-0.012978258,-0.0112395],"type":"VEC3","name":"accessorPositions"},{"bufferView":2,"byteOffset":384,"componentType":5126,"count":36,"type":"VEC4","name":"accessorTangents"},{"bufferView":1,"byteOffset":1008,"componentType":5126,"count":36,"type":"VEC3","name":"accessorNormals"},{"bufferView":3,"byteOffset":192,"componentType":5126,"count":36,"type":"VEC2","name":"accessorUVs"},{"bufferView":0,"byteOffset":192,"componentType":5123,"count":660,"type":"SCALAR","name":"accessorIndices"},{"bufferView":1,"byteOffset":1440,"componentType":5126,"count":312,"max":[0.127,0.0762,0.006508755],"min":[-0.127,-0.0762,-0.00015875156],"type":"VEC3","name":"accessorPositions"},{"bufferView":2,"byteOffset":960,"componentType":5126,"count":312,"type":"VEC4","name":"accessorTangents"},{"bufferView":1,"byteOffset":5184,"componentType":5126,"count":312,"type":"VEC3","name":"accessorNormals"},{"bufferView":3,"byteOffset":480,"componentType":5126,"count":312,"type":"VEC2","name":"accessorUVs"},{"bufferView":0,"byteOffset":1512,"componentType":5123,"count":180,"type":"SCALAR","name":"accessorIndices"},{"bufferView":1,"byteOffset":8928,"componentType":5126,"count":76,"max":[0.004723497,0.009498697,0.009498697],"min":[1.8683688E-14,-0.009498697,-0.009498697],"type":"VEC3","name":"accessorPositions"},{"bufferView":2,"byteOffset":5952,"componentType":5126,"count":76,"type":"VEC4","name":"accessorTangents"},{"bufferView":1,"byteOffset":9840,"componentType":5126,"count":76,"type":"VEC3","name":"accessorNormals"},{"bufferView":3,"byteOffset":2976,"componentType":5126,"count":76,"type":"VEC2","name":"accessorUVs"},{"bufferView":0,"byteOffset":1872,"componentType":5123,"count":684,"type":"SCALAR","name":"accessorIndices"},{"bufferView":1,"byteOffset":10752,"componentType":5126,"count":212,"max":[0.0762,1.1706098,0.1855703],"min":[-0.0762,0.012700001,-2.3013847],"type":"VEC3","name":"accessorPositions"},{"bufferView":2,"byteOffset":7168,"componentType":5126,"count":212,"type":"VEC4","name":"accessorTangents"},{"bufferView":1,"byteOffset":13296,"componentType":5126,"count":212,"type":"VEC3","name":"accessorNormals"},{"bufferView":3,"byteOffset":3584,"componentType":5126,"count":212,"type":"VEC2","name":"accessorUVs"},{"bufferView":0,"byteOffset":3240,"componentType":5123,"count":138,"type":"SCALAR","name":"accessorIndices"},{"bufferView":1,"byteOffset":15840,"componentType":5126,"count":85,"max":[0.169672,0.097199045,0.13059595],"min":[-0.169672,-5.295887E-09,-0.0063500004],"type":"VEC3","name":"accessorPositions"},{"bufferView":2,"byteOffset":10560,"componentType":5126,"count":85,"type":"VEC4","name":"accessorTangents"},{"bufferView":1,"byteOffset":16860,"componentType":5126,"count":85,"type":"VEC3","name":"accessorNormals"},{"bufferView":3,"byteOffset":5280,"componentType":5126,"count":85,"type":"VEC2","name":"accessorUVs"},{"bufferView":0,"byteOffset":3516,"componentType":5123,"count":36,"type":"SCALAR","name":"accessorIndices"},{"bufferView":1,"byteOffset":17880,"componentType":5126,"count":24,"max":[0.1524,0.012700001,0.1387602],"min":[-0.1524,-1.8678233E-15,-0.2041398],"type":"VEC3","name":"accessorPositions"},{"bufferView":2,"byteOffset":11920,"componentType":5126,"count":24,"type":"VEC4","name":"accessorTangents"},{"bufferView":1,"byteOffset":18168,"componentType":5126,"count":24,"type":"VEC3","name":"accessorNormals"},{"bufferView":3,"byteOffset":5960,"componentType":5126,"count":24,"type":"VEC2","name":"accessorUVs"},{"bufferView":0,"byteOffset":3588,"componentType":5123,"count":138,"type":"SCALAR","name":"accessorIndices"},{"bufferView":1,"byteOffset":18456,"componentType":5126,"count":60,"max":[6.47623E-15,0.0082677,0.007160038],"min":[-0.008559801,-0.0082677,-0.007160038],"type":"VEC3","name":"accessorPositions"},{"bufferView":2,"byteOffset":12304,"componentType":5126,"count":60,"type":"VEC4","name":"accessorTangents"},{"bufferView":1,"byteOffset":19176,"componentType":5126,"count":60,"type":"VEC3","name":"accessorNormals"},{"bufferView":3,"byteOffset":6152,"componentType":5126,"count":60,"type":"VEC2","name":"accessorUVs"},{"bufferView":0,"byteOffset":3864,"componentType":5123,"count":684,"type":"SCALAR","name":"accessorIndices"},{"bufferView":1,"byteOffset":19896,"componentType":5126,"count":212,"max":[0.0762,1.2307625,1.3208001],"min":[-0.0762,-0.2619502,-1.0967493],"type":"VEC3","name":"accessorPositions"},{"bufferView":2,"byteOffset":13264,"componentType":5126,"count":212,"type":"VEC4","name":"accessorTangents"},{"bufferView":1,"byteOffset":22440,"componentType":5126,"count":212,"type":"VEC3","name":"accessorNormals"},{"bufferView":3,"byteOffset":6632,"componentType":5126,"count":212,"type":"VEC2","name":"accessorUVs"},{"bufferView":0,"byteOffset":5232,"componentType":5123,"count":156,"type":"SCALAR","name":"accessorIndices"},{"bufferView":1,"byteOffset":24984,"componentType":5126,"count":92,"max":[0.1696718,0.09710105,0.006349899],"min":[-0.1696718,0.0,-0.13059309],"type":"VEC3","name":"accessorPositions"},{"bufferView":2,"byteOffset":16656,"componentType":5126,"count":92,"type":"VEC4","name":"accessorTangents"},{"bufferView":1,"byteOffset":26088,"componentType":5126,"count":92,"type":"VEC3","name":"accessorNormals"},{"bufferView":3,"byteOffset":8328,"componentType":5126,"count":92,"type":"VEC2","name":"accessorUVs"},{"bufferView":0,"byteOffset":5544,"componentType":5123,"count":1860,"type":"SCALAR","name":"accessorIndices"},{"bufferView":1,"byteOffset":27192,"componentType":5126,"count":660,"max":[0.16510001,0.2205445,0.0063500004],"min":[-0.16510001,-0.09695551,-0.0],"type":"VEC3","name":"accessorPositions"},{"bufferView":2,"byteOffset":18128,"componentType":5126,"count":660,"type":"VEC4","name":"accessorTangents"},{"bufferView":1,"byteOffset":35112,"componentType":5126,"count":660,"type":"VEC3","name":"accessorNormals"},{"bufferView":3,"byteOffset":9064,"componentType":5126,"count":660,"type":"VEC2","name":"accessorUVs"},{"bufferView":0,"byteOffset":9264,"componentType":5123,"count":84,"type":"SCALAR","name":"accessorIndices"},{"bufferView":1,"byteOffset":43032,"componentType":5126,"count":48,"max":[0.1692656,0.2247101,0.026339801],"min":[-0.1692656,0.010105494,8.569285E-15],"type":"VEC3","name":"accessorPositions"},{"bufferView":2,"byteOffset":28688,"componentType":5126,"count":48,"type":"VEC4","name":"accessorTangents"},{"bufferView":1,"byteOffset":43608,"componentType":5126,"count":48,"type":"VEC3","name":"accessorNormals"},{"bufferView":3,"byteOffset":14344,"componentType":5126,"count":48,"type":"VEC2","name":"accessorUVs"},{"bufferView":0,"byteOffset":9432,"componentType":5123,"count":228,"type":"SCALAR","name":"accessorIndices"},{"bufferView":1,"byteOffset":44184,"componentType":5126,"count":104,"max":[1.0007347,0.0762,0.0762],"min":[6.2941655E-15,-0.0762,-0.0762],"type":"VEC3","name":"accessorPositions"},{"bufferView":2,"byteOffset":29456,"componentType":5126,"count":104,"type":"VEC4","name":"accessorTangents"},{"bufferView":1,"byteOffset":45432,"componentType":5126,"count":104,"type":"VEC3","name":"accessorNormals"},{"bufferView":3,"byteOffset":14728,"componentType":5126,"count":104,"type":"VEC2","name":"accessorUVs"},{"bufferView":0,"byteOffset":9888,"componentType":5123,"count":228,"type":"SCALAR","name":"accessorIndices"},{"bufferView":1,"byteOffset":46680,"componentType":5126,"count":104,"max":[0.0762,0.0762,-7.375853E-15],"min":[-0.0762,-0.0762,-0.0063500004],"type":"VEC3","name":"accessorPositions"},{"bufferView":2,"byteOffset":31120,"componentType":5126,"count":104,"type":"VEC4","name":"accessorTangents"},{"bufferView":1,"byteOffset":47928,"componentType":5126,"count":104,"type":"VEC3","name":"accessorNormals"},{"bufferView":3,"byteOffset":15560,"componentType":5126,"count":104,"type":"VEC2","name":"accessorUVs"},{"bufferView":0,"byteOffset":10344,"componentType":5123,"count":36,"type":"SCALAR","name":"accessorIndices"},{"bufferView":1,"byteOffset":49176,"componentType":5126,"count":24,"max":[0.1524,0.009525,0.1524],"min":[-0.1524,-2.9240647E-15,-0.1524],"type":"VEC3","name":"accessorPositions"},{"bufferView":2,"byteOffset":32784,"componentType":5126,"count":24,"type":"VEC4","name":"accessorTangents"},{"bufferView":1,"byteOffset":49464,"componentType":5126,"count":24,"type":"VEC3","name":"accessorNormals"},{"bufferView":3,"byteOffset":16392,"componentType":5126,"count":24,"type":"VEC2","name":"accessorUVs"},{"bufferView":0,"byteOffset":10416,"componentType":5123,"count":2508,"type":"SCALAR","name":"accessorIndices"},{"bufferView":1,"byteOffset":49752,"componentType":5126,"count":880,"max":[0.20320001,0.007950201,0.0762],"min":[-0.20320001,-2.4131592E-15,-0.0762],"type":"VEC3","name":"accessorPositions"},{"bufferView":2,"byteOffset":33168,"componentType":5126,"count":880,"type":"VEC4","name":"accessorTangents"},{"bufferView":1,"byteOffset":60312,"componentType":5126,"count":880,"type":"VEC3","name":"accessorNormals"},{"bufferView":3,"byteOffset":16584,"componentType":5126,"count":880,"type":"VEC2","name":"accessorUVs"},{"bufferView":0,"byteOffset":15432,"componentType":5123,"count":6,"type":"SCALAR","name":"accessorIndices"},{"bufferView":1,"byteOffset":70872,"componentType":5126,"count":4,"max":[0.0063500004,0.0,0.5715],"min":[-0.0063500004,0.0,-0.5715],"type":"VEC3","name":"accessorPositions"},{"bufferView":1,"byteOffset":70920,"componentType":5126,"count":4,"type":"VEC3","name":"accessorNormals"},{"bufferView":0,"byteOffset":15444,"componentType":5123,"count":1764,"type":"SCALAR","name":"accessorIndices"},{"bufferView":1,"byteOffset":70968,"componentType":5126,"count":384,"max":[0.6096,1.4630401,1.32715],"min":[-0.6096,1.41224,1.27],"type":"VEC3","name":"accessorPositions"},{"bufferView":2,"byteOffset":47248,"componentType":5126,"count":384,"type":"VEC4","name":"accessorTangents"},{"bufferView":1,"byteOffset":75576,"componentType":5126,"count":384,"type":"VEC3","name":"accessorNormals"},{"bufferView":3,"byteOffset":23624,"componentType":5126,"count":384,"type":"VEC2","name":"accessorUVs"},{"bufferView":0,"byteOffset":18972,"componentType":5123,"count":2046,"type":"SCALAR","name":"accessorIndices"},{"bufferView":1,"byteOffset":80184,"componentType":5126,"count":564,"max":[0.60960037,0.05079995,0.60960954],"min":[-0.6096004,-0.050799944,-0.6096097],"type":"VEC3","name":"accessorPositions"},{"bufferView":2,"byteOffset":53392,"componentType":5126,"count":564,"type":"VEC4","name":"accessorTangents"},{"bufferView":1,"byteOffset":86952,"componentType":5126,"count":564,"type":"VEC3","name":"accessorNormals"},{"bufferView":3,"byteOffset":26696,"componentType":5126,"count":564,"type":"VEC2","name":"accessorUVs"},{"bufferView":0,"byteOffset":23064,"componentType":5123,"count":3168,"type":"SCALAR","name":"accessorIndices"},{"bufferView":1,"byteOffset":93720,"componentType":5126,"count":968,"max":[0.15240052,0.050800525,0.6096003],"min":[-0.15240006,-0.050801016,-0.60959977],"type":"VEC3","name":"accessorPositions"},{"bufferView":2,"byteOffset":62416,"componentType":5126,"count":968,"type":"VEC4","name":"accessorTangents"},{"bufferView":1,"byteOffset":105336,"componentType":5126,"count":968,"type":"VEC3","name":"accessorNormals"},{"bufferView":3,"byteOffset":31208,"componentType":5126,"count":968,"type":"VEC2","name":"accessorUVs"},{"bufferView":0,"byteOffset":29400,"componentType":5123,"count":3168,"type":"SCALAR","name":"accessorIndices"},{"bufferView":1,"byteOffset":116952,"componentType":5126,"count":968,"max":[0.15240052,0.050800525,0.6096003],"min":[-0.15240006,-0.050801016,-0.60959977],"type":"VEC3","name":"accessorPositions"},{"bufferView":2,"byteOffset":77904,"componentType":5126,"count":968,"type":"VEC4","name":"accessorTangents"},{"bufferView":1,"byteOffset":128568,"componentType":5126,"count":968,"type":"VEC3","name":"accessorNormals"},{"bufferView":3,"byteOffset":38952,"componentType":5126,"count":968,"type":"VEC2","name":"accessorUVs"},{"bufferView":0,"byteOffset":35736,"componentType":5123,"count":3168,"type":"SCALAR","name":"accessorIndices"},{"bufferView":1,"byteOffset":140184,"componentType":5126,"count":968,"max":[0.15240052,0.050800525,0.6096003],"min":[-0.15240006,-0.050801016,-0.60959977],"type":"VEC3","name":"accessorPositions"},{"bufferView":2,"byteOffset":93392,"componentType":5126,"count":968,"type":"VEC4","name":"accessorTangents"},{"bufferView":1,"byteOffset":151800,"componentType":5126,"count":968,"type":"VEC3","name":"accessorNormals"},{"bufferView":3,"byteOffset":46696,"componentType":5126,"count":968,"type":"VEC2","name":"accessorUVs"},{"bufferView":0,"byteOffset":42072,"componentType":5123,"count":3168,"type":"SCALAR","name":"accessorIndices"},{"bufferView":1,"byteOffset":163416,"componentType":5126,"count":966,"max":[0.15240052,0.050800525,0.6096003],"min":[-0.15240006,-0.050801016,-0.60959977],"type":"VEC3","name":"accessorPositions"},{"bufferView":2,"byteOffset":108880,"componentType":5126,"count":966,"type":"VEC4","name":"accessorTangents"},{"bufferView":1,"byteOffset":175008,"componentType":5126,"count":966,"type":"VEC3","name":"accessorNormals"},{"bufferView":3,"byteOffset":54440,"componentType":5126,"count":966,"type":"VEC2","name":"accessorUVs"},{"bufferView":0,"byteOffset":48408,"componentType":5123,"count":3168,"type":"SCALAR","name":"accessorIndices"},{"bufferView":1,"byteOffset":186600,"componentType":5126,"count":968,"max":[0.15240052,0.050800525,0.6096003],"min":[-0.15240006,-0.050801016,-0.60959977],"type":"VEC3","name":"accessorPositions"},{"bufferView":2,"byteOffset":124336,"componentType":5126,"count":968,"type":"VEC4","name":"accessorTangents"},{"bufferView":1,"byteOffset":198216,"componentType":5126,"count":968,"type":"VEC3","name":"accessorNormals"},{"bufferView":3,"byteOffset":62168,"componentType":5126,"count":968,"type":"VEC2","name":"accessorUVs"},{"bufferView":0,"byteOffset":54744,"componentType":5123,"count":3168,"type":"SCALAR","name":"accessorIndices"},{"bufferView":1,"byteOffset":209832,"componentType":5126,"count":968,"max":[0.15240052,0.050800525,0.6096003],"min":[-0.15240006,-0.050801016,-0.60959977],"type":"VEC3","name":"accessorPositions"},{"bufferView":2,"byteOffset":139824,"componentType":5126,"count":968,"type":"VEC4","name":"accessorTangents"},{"bufferView":1,"byteOffset":221448,"componentType":5126,"count":968,"type":"VEC3","name":"accessorNormals"},{"bufferView":3,"byteOffset":69912,"componentType":5126,"count":968,"type":"VEC2","name":"accessorUVs"},{"bufferView":0,"byteOffset":61080,"componentType":5123,"count":3168,"type":"SCALAR","name":"accessorIndices"},{"bufferView":1,"byteOffset":233064,"componentType":5126,"count":968,"max":[0.15240078,0.050800525,0.60960037],"min":[-0.15240018,-0.050801016,-0.6095999],"type":"VEC3","name":"accessorPositions"},{"bufferView":2,"byteOffset":155312,"componentType":5126,"count":968,"type":"VEC4","name":"accessorTangents"},{"bufferView":1,"byteOffset":244680,"componentType":5126,"count":968,"type":"VEC3","name":"accessorNormals"},{"bufferView":3,"byteOffset":77656,"componentType":5126,"count":968,"type":"VEC2","name":"accessorUVs"},{"bufferView":0,"byteOffset":67416,"componentType":5123,"count":3168,"type":"SCALAR","name":"accessorIndices"},{"bufferView":1,"byteOffset":256296,"componentType":5126,"count":967,"max":[0.1524004,0.050800525,0.6096003],"min":[-0.15239981,-0.050801016,-0.60959977],"type":"VEC3","name":"accessorPositions"},{"bufferView":2,"byteOffset":170800,"componentType":5126,"count":967,"type":"VEC4","name":"accessorTangents"},{"bufferView":1,"byteOffset":267900,"componentType":5126,"count":967,"type":"VEC3","name":"accessorNormals"},{"bufferView":3,"byteOffset":85400,"componentType":5126,"count":967,"type":"VEC2","name":"accessorUVs"},{"bufferView":0,"byteOffset":73752,"componentType":5123,"count":3168,"type":"SCALAR","name":"accessorIndices"},{"bufferView":1,"byteOffset":279504,"componentType":5126,"count":968,"max":[0.1524004,0.050800525,0.6096003],"min":[-0.15239981,-0.050801016,-0.60959977],"type":"VEC3","name":"accessorPositions"},{"bufferView":2,"byteOffset":186272,"componentType":5126,"count":968,"type":"VEC4","name":"accessorTangents"},{"bufferView":1,"byteOffset":291120,"componentType":5126,"count":968,"type":"VEC3","name":"accessorNormals"},{"bufferView":3,"byteOffset":93136,"componentType":5126,"count":968,"type":"VEC2","name":"accessorUVs"},{"bufferView":0,"byteOffset":80088,"componentType":5123,"count":3168,"type":"SCALAR","name":"accessorIndices"},{"bufferView":1,"byteOffset":302736,"componentType":5126,"count":968,"max":[0.1524004,0.050800525,0.6096003],"min":[-0.15239981,-0.050801016,-0.60959977],"type":"VEC3","name":"accessorPositions"},{"bufferView":2,"byteOffset":201760,"componentType":5126,"count":968,"type":"VEC4","name":"accessorTangents"},{"bufferView":1,"byteOffset":314352,"componentType":5126,"count":968,"type":"VEC3","name":"accessorNormals"},{"bufferView":3,"byteOffset":100880,"componentType":5126,"count":968,"type":"VEC2","name":"accessorUVs"},{"bufferView":0,"byteOffset":86424,"componentType":5123,"count":3168,"type":"SCALAR","name":"accessorIndices"},{"bufferView":1,"byteOffset":325968,"componentType":5126,"count":968,"max":[0.1524004,0.050800525,0.6096003],"min":[-0.15239981,-0.050801016,-0.60959977],"type":"VEC3","name":"accessorPositions"},{"bufferView":2,"byteOffset":217248,"componentType":5126,"count":968,"type":"VEC4","name":"accessorTangents"},{"bufferView":1,"byteOffset":337584,"componentType":5126,"count":968,"type":"VEC3","name":"accessorNormals"},{"bufferView":3,"byteOffset":108624,"componentType":5126,"count":968,"type":"VEC2","name":"accessorUVs"},{"bufferView":0,"byteOffset":92760,"componentType":5123,"count":3168,"type":"SCALAR","name":"accessorIndices"},{"bufferView":1,"byteOffset":349200,"componentType":5126,"count":968,"max":[0.1524004,0.050800525,0.6096003],"min":[-0.15239981,-0.050801016,-0.60959977],"type":"VEC3","name":"accessorPositions"},{"bufferView":2,"byteOffset":232736,"componentType":5126,"count":968,"type":"VEC4","name":"accessorTangents"},{"bufferView":1,"byteOffset":360816,"componentType":5126,"count":968,"type":"VEC3","name":"accessorNormals"},{"bufferView":3,"byteOffset":116368,"componentType":5126,"count":968,"type":"VEC2","name":"accessorUVs"},{"bufferView":0,"byteOffset":99096,"componentType":5123,"count":3168,"type":"SCALAR","name":"accessorIndices"},{"bufferView":1,"byteOffset":372432,"componentType":5126,"count":968,"max":[0.1524004,0.050800525,0.6096003],"min":[-0.15239981,-0.050801016,-0.60959977],"type":"VEC3","name":"accessorPositions"},{"bufferView":2,"byteOffset":248224,"componentType":5126,"count":968,"type":"VEC4","name":"accessorTangents"},{"bufferView":1,"byteOffset":384048,"componentType":5126,"count":968,"type":"VEC3","name":"accessorNormals"},{"bufferView":3,"byteOffset":124112,"componentType":5126,"count":968,"type":"VEC2","name":"accessorUVs"}],"bufferViews":[{"buffer":0,"byteLength":105432,"name":"bufferViewScalar"},{"buffer":0,"byteOffset":105432,"byteLength":395664,"byteStride":12,"name":"bufferViewFloatVec3"},{"buffer":0,"byteOffset":501096,"byteLength":263712,"byteStride":16,"name":"bufferViewFloatVec4"},{"buffer":0,"byteOffset":764808,"byteLength":131856,"byteStride":8,"name":"bufferViewFloatVec2"}],"buffers":[{"uri":"L-Shaped_Stair_Boss-with-Tread-Cap.bin","byteLength":896664}],"materials":[{"pbrMetallicRoughness":{"baseColorFactor":[0.005005772,0.005005772,0.005005772,1.0],"metallicFactor":0.0,"metallicRoughnessTexture":{"index":0}},"name":"PowderCoat_Stair"},{"pbrMetallicRoughness":{"baseColorFactor":[0.9999998,0.9999999,0.9999999,1.0],"metallicFactor":0.0},"emissiveFactor":[0.9999998,0.9999999,0.9999999],"name":"LED"},{"pbrMetallicRoughness":{"baseColorTexture":{"index":2,"extensions":{"KHR_texture_transform":{"offset":[0.44444445,0.44444442],"scale":[0.11111111,0.11111111],"texCoord":0}}},"metallicFactor":0.0,"roughnessFactor":0.95},"normalTexture":{"index":1,"extensions":{"KHR_texture_transform":{"offset":[0.44444445,0.44444442],"scale":[0.11111111,0.11111111],"texCoord":0}}},"name":"Wood","extensions":{"KHR_materials_clearcoat":{"clearcoatFactor":1.0,"clearcoatTexture":{"index":3,"extensions":{"KHR_texture_transform":{"offset":[0.44444445,0.44444442],"scale":[0.11111111,0.11111111],"texCoord":0}}},"clearcoatRoughnessFactor":0.5}}}],"textures":[{"sampler":0,"source":0,"name":"PowderCoat_Roughness_2k0.jpg"},{"sampler":0,"source":1,"name":"Wood_American Cherry_Normal.jpg"},{"sampler":0,"source":2,"name":"Wood_American Cherry_diffuse.jpg"},{"sampler":0,"source":3,"name":"Wood_American Cherry_roughness.jpg"}],"images":[{"uri":"textures/PowderCoat_Roughness_2k0.jpg"},{"uri":"textures/Wood_American Cherry_Normal.jpg"},{"uri":"textures/Wood_American Cherry_diffuse.jpg"},{"uri":"textures/Wood_American Cherry_roughness.jpg"}],"samplers":[{"magFilter":9729,"minFilter":9987}],"extensions":{"KHR_lights_punctual":{"lights":[{"color":[0.99999994,0.99999994,1.0000001],"intensity":0.1,"type":"point"},{"color":[0.99999994,0.99999994,1.0000001],"intensity":0.1,"type":"point"},{"color":[0.99999994,0.99999994,1.0000001],"intensity":0.1,"type":"point"},{"color":[0.99999994,0.99999994,1.0000001],"intensity":0.1,"type":"point"},{"color":[0.99999994,0.99999994,1.0000001],"intensity":0.1,"type":"point"},{"color":[0.99999994,0.99999994,1.0000001],"intensity":0.1,"type":"point"},{"color":[0.99999994,0.99999994,1.0000001],"intensity":0.1,"type":"point"},{"color":[0.99999994,0.99999994,1.0000001],"intensity":0.1,"type":"point"},{"color":[0.99999994,0.99999994,1.0000001],"intensity":0.1,"type":"point"},{"color":[0.99999994,0.99999994,1.0000001],"intensity":0.1,"type":"point"},{"color":[0.99999994,0.99999994,1.0000001],"intensity":0.1,"type":"point"},{"color":[0.99999994,0.99999994,1.0000001],"intensity":0.1,"type":"point"},{"color":[0.99999994,0.99999994,1.0000001],"intensity":0.1,"type":"point"},{"color":[0.99999994,0.99999994,1.0000001],"intensity":0.1,"type":"point"},{"color":[0.99999994,0.99999994,1.0000001],"intensity":0.1,"type":"point"},{"color":[0.99999994,0.99999994,1.0000001],"intensity":0.1,"type":"point"},{"color":[0.99999994,0.99999994,1.0000001],"intensity":0.1,"type":"point"},{"color":[0.99999994,0.99999994,1.0000001],"intensity":0.1,"type":"point"},{"color":[0.99999994,0.99999994,1.0000001],"intensity":0.1,"type":"point"},{"color":[0.99999994,0.99999994,1.0000001],"intensity":0.1,"type":"point"},{"color":[0.99999994,0.99999994,1.0000001],"intensity":0.1,"type":"point"},{"color":[0.99999994,0.99999994,1.0000001],"intensity":0.1,"type":"point"},{"color":[0.99999994,0.99999994,1.0000001],"intensity":0.1,"type":"point"},{"color":[0.99999994,0.99999994,1.0000001],"intensity":0.1,"type":"point"},{"color":[0.99999994,0.99999994,1.0000001],"intensity":0.1,"type":"point"},{"color":[0.99999994,0.99999994,1.0000001],"intensity":0.1,"type":"point"},{"color":[0.99999994,0.99999994,1.0000001],"intensity":0.1,"type":"point"},{"color":[0.99999994,0.99999994,1.0000001],"intensity":0.1,"type":"point"},{"color":[0.99999994,0.99999994,1.0000001],"intensity":0.1,"type":"point"},{"color":[0.99999994,0.99999994,1.0000001],"intensity":0.1,"type":"point"},{"color":[0.99999994,0.99999994,1.0000001],"intensity":0.1,"type":"point"},{"color":[0.99999994,0.99999994,1.0000001],"intensity":0.1,"type":"point"},{"color":[0.99999994,0.99999994,1.0000001],"intensity":0.1,"type":"point"},{"color":[0.99999994,0.99999994,1.0000001],"intensity":0.1,"type":"point"},{"color":[0.99999994,0.99999994,1.0000001],"intensity":0.1,"type":"point"},{"color":[0.99999994,0.99999994,1.0000001],"intensity":0.1,"type":"point"},{"color":[0.99999994,0.99999994,1.0000001],"intensity":0.1,"type":"point"},{"color":[0.99999994,0.99999994,1.0000001],"intensity":0.1,"type":"point"},{"color":[0.99999994,0.99999994,1.0000001],"intensity":0.1,"type":"point"},{"color":[0.99999994,0.99999994,1.0000001],"intensity":0.1,"type":"point"},{"color":[0.99999994,0.99999994,1.0000001],"intensity":0.1,"type":"point"},{"color":[0.99999994,0.99999994,1.0000001],"intensity":0.1,"type":"point"}]}}}