{"asset":{"version":"2.0","generator":"babylon.js glTF exporter for 3dsmax 2026 v20251111.2"},"extensionsUsed":["KHR_materials_ior","KHR_materials_transmission","KHR_materials_volume","KHR_texture_transform","KHR_materials_specular"],"extensionsRequired":["KHR_texture_transform"],"scene":0,"scenes":[{"nodes":[0,1,2,3,4,5,6,7,8,9,10,11,12,13,14,15,16,17,18,19,20,21,22,23,24,25,26,27,28,29,30,31,32,33,34,35,36,37,38,39,40,41,42,43,44,45,46,47,48,49,50,51,52,53,54,55,56,57,58,59,60,61,62,63,64,65,66,67,68,69,70,71,72,73,74,75,76,77,78,79,80,81,82,83,84,85,86,87,88,89,90,91,92,93,94,95,96,97,98,99,100,101,102,103,104,105,106,107,108,109,110,111,112,113,114,115,116,117,118,119,120,121,122,123,124,125,126,127,128,129,130,131,132,133,134,135,136,137,138,139,140,141,142,143,144,145,146,147,148,149,150,151,152,153,154,155,156,157,158,159,160,161,162,163,164,165,166,167,168,169,170,171,172,173,174,175,176,177,178,179,180,181,182,183,184,185,186,187,188,189,190,191,192,193,194,195,196,197,198,199,200,201,202,203,204,205,206,207,208,209,210,211,212,213,214,215,216,217,218,219,220,221,222,223]}],"nodes":[{"mesh":0,"translation":[-0.18280497,2.1652887,-0.076767445],"name":"Infill_Glass_Raked & Horizontal Generic [8199751]"},{"mesh":1,"translation":[1.416044,3.26257,-0.076767445],"name":"Infill_Glass_Raked & Horizontal Generic [8200579]"},{"mesh":2,"translation":[-0.42627653,2.19456,0.054914895],"rotation":[0.5,-0.5,0.5,0.5],"name":"Infill_Glass_Transition Generic [8202170]"},{"mesh":3,"translation":[-0.42627653,0.92937434,1.2408333],"rotation":[-0.0,0.7071068,0.0,0.7071068],"name":"Infill_Glass_Raked & Horizontal Generic [8202939]"},{"mesh":4,"translation":[-27.512323,0.0,29.240168],"rotation":[-0.0,-0.7071068,0.0,0.7071067],"name":"Generic Models 1 Generic Models 1 [8568048]"},{"mesh":5,"translation":[-1.3739885,0.9293959,1.2408333],"rotation":[-0.0,0.7071068,0.0,0.7071068],"name":"Infill_Glass_Raked & Horizontal Generic [8735940]"},{"mesh":6,"translation":[-27.512323,0.0,29.240168],"rotation":[-0.0,-0.7071068,0.0,0.7071067],"name":"Generic Models 10 Generic Models 1 [8735975]"},{"mesh":7,"translation":[1.416044,3.2625408,-1.0244794],"rotation":[-0.0,3.133859E-15,0.0,1.0],"name":"Infill_Glass_Raked & Horizontal Generic [8736296]"},{"mesh":8,"translation":[-0.9978901,1.8699833,-1.0244794],"rotation":[-0.0,3.133859E-15,0.0,1.0],"name":"Infill_Glass_Raked & Horizontal Generic [8737682]"},{"mesh":9,"translation":[28.89472,0.0,27.28077],"name":"Casework 1 Casework 1 [8738332]"},{"mesh":10,"translation":[-1.3739858,1.8699833,-0.64838374],"rotation":[-0.0,-0.7071068,0.0,0.7071067],"name":"Infill_Glass_Raked & Horizontal Generic [8738822]"},{"mesh":11,"translation":[-1.3739885,1.4780358,0.44231918],"rotation":[-0.0,0.7071068,0.0,0.7071068],"name":"Infill_Glass_Raked & Horizontal Generic [8739593]"},{"mesh":12,"translation":[-0.3730821,1.3670026,0.17503546],"rotation":[-0.0,-1.0,0.0,-1.6292068E-07],"name":"KUB009 - Top Barrel Mount Part [8739165]050"},{"mesh":12,"translation":[-0.21865457,1.7327118,-0.023573017],"rotation":[-0.0,0.7071068,0.0,0.7071067],"name":"KUB009 - Top Barrel Mount Part [8739165]051"},{"mesh":12,"translation":[0.36284545,2.0984719,-0.023573017],"rotation":[-0.0,0.7071068,0.0,0.7071067],"name":"KUB009 - Top Barrel Mount Part [8739165]052"},{"mesh":12,"translation":[0.6293199,2.2813518,-0.023573017],"rotation":[-0.0,0.7071068,0.0,0.7071067],"name":"KUB009 - Top Barrel Mount Part [8739165]053"},{"mesh":12,"translation":[1.4287455,2.8299918,-0.023573017],"rotation":[-0.0,0.7071068,0.0,0.7071067],"name":"KUB009 - Top Barrel Mount Part [8739165]054"},{"mesh":12,"translation":[-0.3730821,1.0012426,0.7080169],"rotation":[-0.0,-1.0,0.0,-1.6292068E-07],"name":"KUB009 - Top Barrel Mount Part [8739165]056"},{"mesh":12,"translation":[-0.3730821,0.81836265,0.97354954],"rotation":[-0.0,-1.0,0.0,-1.6292068E-07],"name":"KUB009 - Top Barrel Mount Part [8739165]057"},{"mesh":12,"translation":[-0.3730821,0.45260262,1.5058892],"rotation":[-0.0,-1.0,0.0,-1.6292068E-07],"name":"KUB009 - Top Barrel Mount Part [8739165]058"},{"mesh":12,"translation":[-1.4271829,1.3670026,0.17503546],"name":"KUB009 - Top Barrel Mount Part [8739165]059"},{"mesh":12,"translation":[-1.4271829,1.0012426,0.7080169],"name":"KUB009 - Top Barrel Mount Part [8739165]060"},{"mesh":12,"translation":[-1.4271829,0.81836265,0.97354954],"name":"KUB009 - Top Barrel Mount Part [8739165]061"},{"mesh":12,"translation":[-1.4271828,0.45260262,1.5058892],"name":"KUB009 - Top Barrel Mount Part [8739165]062"},{"mesh":12,"translation":[0.36284545,2.0984719,-1.0776738],"rotation":[-0.0,-0.7071068,0.0,0.7071067],"name":"KUB009 - Top Barrel Mount Part [8739165]063"},{"mesh":12,"translation":[0.6293199,2.2813518,-1.0776738],"rotation":[-0.0,-0.7071068,0.0,0.7071067],"name":"KUB009 - Top Barrel Mount Part [8739165]064"},{"mesh":12,"translation":[1.4287455,2.8299918,-1.0776738],"rotation":[-0.0,-0.7071068,0.0,0.7071067],"name":"KUB009 - Top Barrel Mount Part [8739165]065"},{"mesh":12,"translation":[-0.4493236,1.5498319,-1.0776738],"rotation":[-0.0,-0.7071068,0.0,0.7071067],"name":"KUB009 - Top Barrel Mount Part [8739165]066"},{"mesh":12,"translation":[-0.7160236,1.4674852,-1.0776738],"rotation":[-0.0,-0.7071068,0.0,0.7071067],"name":"KUB009 - Top Barrel Mount Part [8739165]067"},{"mesh":12,"translation":[-1.2308573,1.4674852,-1.0776738],"rotation":[-0.0,-0.7071068,0.0,0.7071067],"name":"KUB009 - Top Barrel Mount Part [8739165]068"},{"mesh":12,"translation":[-1.4271802,1.4674852,-0.8813486],"name":"KUB009 - Top Barrel Mount Part [8739165]069"},{"mesh":12,"translation":[-1.4271802,1.4674852,-0.074374564],"name":"KUB009 - Top Barrel Mount Part [8739165]071"},{"mesh":12,"translation":[-1.4271829,1.4674852,-0.0784351],"name":"KUB009 - Top Barrel Mount Part [8739165]073"},{"mesh":12,"translation":[-0.3730821,1.9258027,0.17503546],"rotation":[-0.0,-1.0,0.0,-1.6292068E-07],"name":"KUB009 - Top Barrel Mount Part [8739165]074"},{"mesh":12,"translation":[-0.21865457,2.2915118,-0.023573017],"rotation":[-0.0,0.7071068,0.0,0.7071067],"name":"KUB009 - Top Barrel Mount Part [8739165]075"},{"mesh":12,"translation":[0.36284545,2.6572719,-0.023573017],"rotation":[-0.0,0.7071068,0.0,0.7071067],"name":"KUB009 - Top Barrel Mount Part [8739165]076"},{"mesh":12,"translation":[0.6293199,2.840152,-0.023573017],"rotation":[-0.0,0.7071068,0.0,0.7071067],"name":"KUB009 - Top Barrel Mount Part [8739165]077"},{"mesh":12,"translation":[1.4287455,3.3887918,-0.023573017],"rotation":[-0.0,0.7071068,0.0,0.7071067],"name":"KUB009 - Top Barrel Mount Part [8739165]078"},{"mesh":12,"translation":[-0.3730821,1.5600426,0.7080169],"rotation":[-0.0,-1.0,0.0,-1.6292068E-07],"name":"KUB009 - Top Barrel Mount Part [8739165]080"},{"mesh":12,"translation":[-0.3730821,1.3771626,0.97354954],"rotation":[-0.0,-1.0,0.0,-1.6292068E-07],"name":"KUB009 - Top Barrel Mount Part [8739165]081"},{"mesh":12,"translation":[-0.3730821,1.0114026,1.5058892],"rotation":[-0.0,-1.0,0.0,-1.6292068E-07],"name":"KUB009 - Top Barrel Mount Part [8739165]082"},{"mesh":12,"translation":[-1.4271829,1.9258027,0.17503546],"name":"KUB009 - Top Barrel Mount Part [8739165]083"},{"mesh":12,"translation":[-1.4271829,1.5600426,0.7080169],"name":"KUB009 - Top Barrel Mount Part [8739165]084"},{"mesh":12,"translation":[-1.4271829,1.3771626,0.97354954],"name":"KUB009 - Top Barrel Mount Part [8739165]085"},{"mesh":12,"translation":[-1.4271828,1.0114026,1.5058892],"name":"KUB009 - Top Barrel Mount Part [8739165]086"},{"mesh":12,"translation":[0.36284545,2.6572719,-1.0776738],"rotation":[-0.0,-0.7071068,0.0,0.7071067],"name":"KUB009 - Top Barrel Mount Part [8739165]087"},{"mesh":12,"translation":[0.6293199,2.840152,-1.0776738],"rotation":[-0.0,-0.7071068,0.0,0.7071067],"name":"KUB009 - Top Barrel Mount Part [8739165]088"},{"mesh":12,"translation":[1.4287455,3.3887918,-1.0776738],"rotation":[-0.0,-0.7071068,0.0,0.7071067],"name":"KUB009 - Top Barrel Mount Part [8739165]089"},{"mesh":12,"translation":[-0.4493236,2.1086318,-1.0776738],"rotation":[-0.0,-0.7071068,0.0,0.7071067],"name":"KUB009 - Top Barrel Mount Part [8739165]090"},{"mesh":12,"translation":[-0.7160236,2.0262852,-1.0776738],"rotation":[-0.0,-0.7071068,0.0,0.7071067],"name":"KUB009 - Top Barrel Mount Part [8739165]091"},{"mesh":12,"translation":[-1.2308573,2.0262852,-1.0776738],"rotation":[-0.0,-0.7071068,0.0,0.7071067],"name":"KUB009 - Top Barrel Mount Part [8739165]092"},{"mesh":12,"translation":[-1.4271802,2.0262852,-0.8813486],"name":"KUB009 - Top Barrel Mount Part [8739165]093"},{"mesh":12,"translation":[-1.4271802,2.0262852,-0.074374564],"name":"KUB009 - Top Barrel Mount Part [8739165]095"},{"mesh":12,"translation":[-1.4271829,2.0262852,-0.0784351],"name":"KUB009 - Top Barrel Mount Part [8739165]097"},{"mesh":13,"translation":[-0.3730821,1.09728,0.17503546],"name":"KUB007 - Surface Mount Weldment Part [8739169]025"},{"mesh":13,"translation":[-0.21865457,1.4630401,-0.023573017],"rotation":[-0.0,-0.7071068,0.0,0.7071067],"name":"KUB007 - Surface Mount Weldment Part [8739169]026"},{"mesh":13,"translation":[0.36284545,1.8288,-0.023573017],"rotation":[-0.0,-0.7071068,0.0,0.7071067],"name":"KUB007 - Surface Mount Weldment Part [8739169]027"},{"mesh":13,"translation":[0.6293199,2.01168,-0.023573017],"rotation":[-0.0,-0.7071068,0.0,0.7071067],"name":"KUB007 - Surface Mount Weldment Part [8739169]028"},{"mesh":13,"translation":[1.4287455,2.56032,-0.023573017],"rotation":[-0.0,-0.7071068,0.0,0.7071067],"name":"KUB007 - Surface Mount Weldment Part [8739169]029"},{"mesh":13,"translation":[-0.3730821,0.73152006,0.7080169],"name":"KUB007 - Surface Mount Weldment Part [8739169]031"},{"mesh":13,"translation":[-0.3730821,0.54864,0.97354954],"name":"KUB007 - Surface Mount Weldment Part [8739169]032"},{"mesh":13,"translation":[-0.3730821,0.18288001,1.5058892],"name":"KUB007 - Surface Mount Weldment Part [8739169]033"},{"mesh":13,"translation":[-1.4271829,1.09728,0.17503546],"rotation":[-0.0,-1.0,0.0,-1.6292068E-07],"name":"KUB007 - Surface Mount Weldment Part [8739169]034"},{"mesh":13,"translation":[-1.4271829,0.73152006,0.7080169],"rotation":[-0.0,-1.0,0.0,-1.6292068E-07],"name":"KUB007 - Surface Mount Weldment Part [8739169]035"},{"mesh":13,"translation":[-1.4271829,0.54864,0.97354954],"rotation":[-0.0,-1.0,0.0,-1.6292068E-07],"name":"KUB007 - Surface Mount Weldment Part [8739169]036"},{"mesh":13,"translation":[-1.4271828,0.18288001,1.5058892],"rotation":[-0.0,-1.0,0.0,-1.6292068E-07],"name":"KUB007 - Surface Mount Weldment Part [8739169]037"},{"mesh":13,"translation":[0.36284545,1.8288,-1.0776738],"rotation":[-0.0,0.7071068,0.0,0.7071067],"name":"KUB007 - Surface Mount Weldment Part [8739169]038"},{"mesh":13,"translation":[0.6293199,2.01168,-1.0776738],"rotation":[-0.0,0.7071068,0.0,0.7071067],"name":"KUB007 - Surface Mount Weldment Part [8739169]039"},{"mesh":13,"translation":[1.4287455,2.56032,-1.0776738],"rotation":[-0.0,0.7071068,0.0,0.7071067],"name":"KUB007 - Surface Mount Weldment Part [8739169]040"},{"mesh":13,"translation":[-0.4493236,1.28016,-1.0776738],"rotation":[-0.0,0.7071068,0.0,0.7071067],"name":"KUB007 - Surface Mount Weldment Part [8739169]041"},{"mesh":13,"translation":[-0.7160236,1.28016,-1.0776738],"rotation":[-0.0,0.7071068,0.0,0.7071067],"name":"KUB007 - Surface Mount Weldment Part [8739169]042"},{"mesh":13,"translation":[-1.2308573,1.28016,-1.0776738],"rotation":[-0.0,0.7071068,0.0,0.7071067],"name":"KUB007 - Surface Mount Weldment Part [8739169]043"},{"mesh":13,"translation":[-1.4271802,1.28016,-0.8813486],"rotation":[-0.0,-1.0,0.0,-4.371139E-08],"name":"KUB007 - Surface Mount Weldment Part [8739169]044"},{"mesh":13,"translation":[-1.4271802,1.28016,-0.074374564],"rotation":[-0.0,-1.0,0.0,-4.371139E-08],"name":"KUB007 - Surface Mount Weldment Part [8739169]046"},{"mesh":13,"translation":[-1.4271829,1.28016,-0.0784351],"rotation":[-0.0,-1.0,0.0,-1.6292068E-07],"name":"KUB007 - Surface Mount Weldment Part [8739169]048"},{"mesh":14,"translation":[-0.43500856,1.9258027,0.17503546],"rotation":[-0.0,-1.0,0.0,-1.6292068E-07],"name":"KON006 - Lower Panel Clamp Part [8739162]150"},{"mesh":14,"translation":[-0.43500856,1.3670026,0.17503546],"rotation":[-0.0,-1.0,0.0,-1.6292068E-07],"name":"KON006 - Lower Panel Clamp Part [8739162]151"},{"mesh":14,"translation":[-0.21865457,2.2915118,-0.08549947],"rotation":[-0.0,0.7071068,0.0,0.7071067],"name":"KON006 - Lower Panel Clamp Part [8739162]152"},{"mesh":14,"translation":[-0.21865457,1.7327118,-0.08549947],"rotation":[-0.0,0.7071068,0.0,0.7071067],"name":"KON006 - Lower Panel Clamp Part [8739162]153"},{"mesh":14,"translation":[0.36284545,2.6572719,-0.08549947],"rotation":[-0.0,0.7071068,0.0,0.7071067],"name":"KON006 - Lower Panel Clamp Part [8739162]154"},{"mesh":14,"translation":[0.36284545,2.0984719,-0.08549947],"rotation":[-0.0,0.7071068,0.0,0.7071067],"name":"KON006 - Lower Panel Clamp Part [8739162]155"},{"mesh":14,"translation":[0.6293199,2.840152,-0.08549947],"rotation":[-0.0,0.7071068,0.0,0.7071067],"name":"KON006 - Lower Panel Clamp Part [8739162]156"},{"mesh":14,"translation":[0.6293199,2.2813518,-0.08549947],"rotation":[-0.0,0.7071068,0.0,0.7071067],"name":"KON006 - Lower Panel Clamp Part [8739162]157"},{"mesh":14,"translation":[1.4287455,3.3887918,-0.08549947],"rotation":[-0.0,0.7071068,0.0,0.7071067],"name":"KON006 - Lower Panel Clamp Part [8739162]158"},{"mesh":14,"translation":[1.4287455,2.8299918,-0.08549947],"rotation":[-0.0,0.7071068,0.0,0.7071067],"name":"KON006 - Lower Panel Clamp Part [8739162]159"},{"mesh":14,"translation":[-0.43500856,1.5600426,0.7080169],"rotation":[-0.0,-1.0,0.0,-1.6292068E-07],"name":"KON006 - Lower Panel Clamp Part [8739162]162"},{"mesh":14,"translation":[-0.43500856,1.0012426,0.7080169],"rotation":[-0.0,-1.0,0.0,-1.6292068E-07],"name":"KON006 - Lower Panel Clamp Part [8739162]163"},{"mesh":14,"translation":[-0.43500856,1.3771626,0.97354954],"rotation":[-0.0,-1.0,0.0,-1.6292068E-07],"name":"KON006 - Lower Panel Clamp Part [8739162]164"},{"mesh":14,"translation":[-0.43500856,0.81836265,0.97354954],"rotation":[-0.0,-1.0,0.0,-1.6292068E-07],"name":"KON006 - Lower Panel Clamp Part [8739162]165"},{"mesh":14,"translation":[-0.43500856,1.0114026,1.5058892],"rotation":[-0.0,-1.0,0.0,-1.6292068E-07],"name":"KON006 - Lower Panel Clamp Part [8739162]166"},{"mesh":14,"translation":[-0.43500856,0.45260262,1.5058892],"rotation":[-0.0,-1.0,0.0,-1.6292068E-07],"name":"KON006 - Lower Panel Clamp Part [8739162]167"},{"mesh":14,"translation":[-1.3652565,1.9258027,0.17503546],"name":"KON006 - Lower Panel Clamp Part [8739162]168"},{"mesh":14,"translation":[-1.3652565,1.3670026,0.17503546],"name":"KON006 - Lower Panel Clamp Part [8739162]169"},{"mesh":14,"translation":[-1.3652565,1.5600426,0.7080169],"name":"KON006 - Lower Panel Clamp Part [8739162]170"},{"mesh":14,"translation":[-1.3652565,1.0012426,0.7080169],"name":"KON006 - Lower Panel Clamp Part [8739162]171"},{"mesh":14,"translation":[-1.3652565,1.3771626,0.97354954],"name":"KON006 - Lower Panel Clamp Part [8739162]172"},{"mesh":14,"translation":[-1.3652565,0.81836265,0.97354954],"name":"KON006 - Lower Panel Clamp Part [8739162]173"},{"mesh":14,"translation":[-1.3652563,1.0114026,1.5058892],"name":"KON006 - Lower Panel Clamp Part [8739162]174"},{"mesh":14,"translation":[-1.3652563,0.45260262,1.5058892],"name":"KON006 - Lower Panel Clamp Part [8739162]175"},{"mesh":14,"translation":[0.36284545,2.6572719,-1.0157473],"rotation":[-0.0,-0.7071068,0.0,0.7071067],"name":"KON006 - Lower Panel Clamp Part [8739162]176"},{"mesh":14,"translation":[0.36284545,2.0984719,-1.0157473],"rotation":[-0.0,-0.7071068,0.0,0.7071067],"name":"KON006 - Lower Panel Clamp Part [8739162]177"},{"mesh":14,"translation":[0.6293199,2.840152,-1.0157473],"rotation":[-0.0,-0.7071068,0.0,0.7071067],"name":"KON006 - Lower Panel Clamp Part [8739162]178"},{"mesh":14,"translation":[0.6293199,2.2813518,-1.0157473],"rotation":[-0.0,-0.7071068,0.0,0.7071067],"name":"KON006 - Lower Panel Clamp Part [8739162]179"},{"mesh":14,"translation":[1.4287455,3.3887918,-1.0157473],"rotation":[-0.0,-0.7071068,0.0,0.7071067],"name":"KON006 - Lower Panel Clamp Part [8739162]180"},{"mesh":14,"translation":[1.4287455,2.8299918,-1.0157473],"rotation":[-0.0,-0.7071068,0.0,0.7071067],"name":"KON006 - Lower Panel Clamp Part [8739162]181"},{"mesh":14,"translation":[-0.4493236,2.1086318,-1.0157473],"rotation":[-0.0,-0.7071068,0.0,0.7071067],"name":"KON006 - Lower Panel Clamp Part [8739162]182"},{"mesh":14,"translation":[-0.4493236,1.5498319,-1.0157473],"rotation":[-0.0,-0.7071068,0.0,0.7071067],"name":"KON006 - Lower Panel Clamp Part [8739162]183"},{"mesh":14,"translation":[-0.7160236,2.0262852,-1.0157473],"rotation":[-0.0,-0.7071068,0.0,0.7071067],"name":"KON006 - Lower Panel Clamp Part [8739162]184"},{"mesh":14,"translation":[-0.7160236,1.4674852,-1.0157473],"rotation":[-0.0,-0.7071068,0.0,0.7071067],"name":"KON006 - Lower Panel Clamp Part [8739162]185"},{"mesh":14,"translation":[-1.2308573,2.0262852,-1.0157473],"rotation":[-0.0,-0.7071068,0.0,0.7071067],"name":"KON006 - Lower Panel Clamp Part [8739162]186"},{"mesh":14,"translation":[-1.2308573,1.4674852,-1.0157473],"rotation":[-0.0,-0.7071068,0.0,0.7071067],"name":"KON006 - Lower Panel Clamp Part [8739162]187"},{"mesh":14,"translation":[-1.3652561,2.0262852,-0.8813486],"name":"KON006 - Lower Panel Clamp Part [8739162]188"},{"mesh":14,"translation":[-1.3652561,1.4674852,-0.8813486],"name":"KON006 - Lower Panel Clamp Part [8739162]189"},{"mesh":14,"translation":[-1.3652561,2.0262852,-0.074374564],"name":"KON006 - Lower Panel Clamp Part [8739162]193"},{"mesh":14,"translation":[-1.3652561,1.4674852,-0.074374564],"name":"KON006 - Lower Panel Clamp Part [8739162]194"},{"mesh":14,"translation":[-1.3652565,2.0262852,-0.0784351],"name":"KON006 - Lower Panel Clamp Part [8739162]197"},{"mesh":14,"translation":[-1.3652565,1.4674852,-0.0784351],"name":"KON006 - Lower Panel Clamp Part [8739162]198"},{"mesh":15,"translation":[-0.4334319,1.9258027,0.17503546],"rotation":[-0.0,-0.7071068,0.0,0.7071067],"name":"KON021 - Konic Washer Part [8739168]100"},{"mesh":15,"translation":[-0.4334319,1.3670026,0.17503546],"rotation":[-0.0,-0.7071068,0.0,0.7071067],"name":"KON021 - Konic Washer Part [8739168]101"},{"mesh":15,"translation":[-0.21865457,2.2915118,-0.08392282],"rotation":[-0.0,-1.0,0.0,4.371139E-08],"name":"KON021 - Konic Washer Part [8739168]102"},{"mesh":15,"translation":[-0.21865457,1.7327118,-0.08392282],"rotation":[-0.0,-1.0,0.0,4.371139E-08],"name":"KON021 - Konic Washer Part [8739168]103"},{"mesh":15,"translation":[0.36284545,2.6572719,-0.08392282],"rotation":[-0.0,-1.0,0.0,4.371139E-08],"name":"KON021 - Konic Washer Part [8739168]104"},{"mesh":15,"translation":[0.36284545,2.0984719,-0.08392282],"rotation":[-0.0,-1.0,0.0,4.371139E-08],"name":"KON021 - Konic Washer Part [8739168]105"},{"mesh":15,"translation":[0.6293199,2.840152,-0.08392282],"rotation":[-0.0,-1.0,0.0,4.371139E-08],"name":"KON021 - Konic Washer Part [8739168]106"},{"mesh":15,"translation":[0.6293199,2.2813518,-0.08392282],"rotation":[-0.0,-1.0,0.0,4.371139E-08],"name":"KON021 - Konic Washer Part [8739168]107"},{"mesh":15,"translation":[1.4287455,3.3887918,-0.08392282],"rotation":[-0.0,-1.0,0.0,4.371139E-08],"name":"KON021 - Konic Washer Part [8739168]108"},{"mesh":15,"translation":[1.4287455,2.8299918,-0.08392282],"rotation":[-0.0,-1.0,0.0,4.371139E-08],"name":"KON021 - Konic Washer Part [8739168]109"},{"mesh":15,"translation":[-0.4334319,1.5600426,0.7080169],"rotation":[-0.0,-0.7071068,0.0,0.7071067],"name":"KON021 - Konic Washer Part [8739168]112"},{"mesh":15,"translation":[-0.4334319,1.0012426,0.7080169],"rotation":[-0.0,-0.7071068,0.0,0.7071067],"name":"KON021 - Konic Washer Part [8739168]113"},{"mesh":15,"translation":[-0.4334319,1.3771626,0.97354954],"rotation":[-0.0,-0.7071068,0.0,0.7071067],"name":"KON021 - Konic Washer Part [8739168]114"},{"mesh":15,"translation":[-0.4334319,0.81836265,0.97354954],"rotation":[-0.0,-0.7071068,0.0,0.7071067],"name":"KON021 - Konic Washer Part [8739168]115"},{"mesh":15,"translation":[-0.4334319,1.0114026,1.5058892],"rotation":[-0.0,-0.7071068,0.0,0.7071067],"name":"KON021 - Konic Washer Part [8739168]116"},{"mesh":15,"translation":[-0.4334319,0.45260262,1.5058892],"rotation":[-0.0,-0.7071068,0.0,0.7071067],"name":"KON021 - Konic Washer Part [8739168]117"},{"mesh":15,"translation":[-1.3668332,1.9258027,0.17503546],"rotation":[-0.0,0.7071068,0.0,0.7071067],"name":"KON021 - Konic Washer Part [8739168]118"},{"mesh":15,"translation":[-1.3668332,1.3670026,0.17503546],"rotation":[-0.0,0.7071068,0.0,0.7071067],"name":"KON021 - Konic Washer Part [8739168]119"},{"mesh":15,"translation":[-1.3668332,1.5600426,0.7080169],"rotation":[-0.0,0.7071068,0.0,0.7071067],"name":"KON021 - Konic Washer Part [8739168]120"},{"mesh":15,"translation":[-1.3668332,1.0012426,0.7080169],"rotation":[-0.0,0.7071068,0.0,0.7071067],"name":"KON021 - Konic Washer Part [8739168]121"},{"mesh":15,"translation":[-1.3668332,1.3771626,0.97354954],"rotation":[-0.0,0.7071068,0.0,0.7071067],"name":"KON021 - Konic Washer Part [8739168]122"},{"mesh":15,"translation":[-1.3668332,0.81836265,0.97354954],"rotation":[-0.0,0.7071068,0.0,0.7071067],"name":"KON021 - Konic Washer Part [8739168]123"},{"mesh":15,"translation":[-1.366833,1.0114026,1.5058892],"rotation":[-0.0,0.7071068,0.0,0.7071067],"name":"KON021 - Konic Washer Part [8739168]124"},{"mesh":15,"translation":[-1.366833,0.45260262,1.5058892],"rotation":[-0.0,0.7071068,0.0,0.7071067],"name":"KON021 - Konic Washer Part [8739168]125"},{"mesh":15,"translation":[0.36284545,2.6572719,-1.017324],"name":"KON021 - Konic Washer Part [8739168]126"},{"mesh":15,"translation":[0.36284545,2.0984719,-1.017324],"name":"KON021 - Konic Washer Part [8739168]127"},{"mesh":15,"translation":[0.6293199,2.840152,-1.017324],"name":"KON021 - Konic Washer Part [8739168]128"},{"mesh":15,"translation":[0.6293199,2.2813518,-1.017324],"name":"KON021 - Konic Washer Part [8739168]129"},{"mesh":15,"translation":[1.4287455,3.3887918,-1.017324],"name":"KON021 - Konic Washer Part [8739168]130"},{"mesh":15,"translation":[1.4287455,2.8299918,-1.017324],"name":"KON021 - Konic Washer Part [8739168]131"},{"mesh":15,"translation":[-0.4493236,2.1086318,-1.017324],"name":"KON021 - Konic Washer Part [8739168]132"},{"mesh":15,"translation":[-0.4493236,1.5498319,-1.017324],"name":"KON021 - Konic Washer Part [8739168]133"},{"mesh":15,"translation":[-0.7160236,2.0262852,-1.017324],"name":"KON021 - Konic Washer Part [8739168]134"},{"mesh":15,"translation":[-0.7160236,1.4674852,-1.017324],"name":"KON021 - Konic Washer Part [8739168]135"},{"mesh":15,"translation":[-1.2308573,2.0262852,-1.017324],"name":"KON021 - Konic Washer Part [8739168]136"},{"mesh":15,"translation":[-1.2308573,1.4674852,-1.017324],"name":"KON021 - Konic Washer Part [8739168]137"},{"mesh":15,"translation":[-1.3668303,2.0262852,-0.8813486],"rotation":[-0.0,0.7071068,0.0,0.7071067],"name":"KON021 - Konic Washer Part [8739168]138"},{"mesh":15,"translation":[-1.3668303,1.4674852,-0.8813486],"rotation":[-0.0,0.7071068,0.0,0.7071067],"name":"KON021 - Konic Washer Part [8739168]139"},{"mesh":15,"translation":[-1.3668303,2.0262852,-0.074374564],"rotation":[-0.0,0.7071068,0.0,0.7071067],"name":"KON021 - Konic Washer Part [8739168]143"},{"mesh":15,"translation":[-1.3668303,1.4674852,-0.074374564],"rotation":[-0.0,0.7071068,0.0,0.7071067],"name":"KON021 - Konic Washer Part [8739168]144"},{"mesh":15,"translation":[-1.3668332,2.0262852,-0.0784351],"rotation":[-0.0,0.7071068,0.0,0.7071068],"name":"KON021 - Konic Washer Part [8739168]147"},{"mesh":15,"translation":[-1.3668332,1.4674852,-0.0784351],"rotation":[-0.0,0.7071068,0.0,0.7071068],"name":"KON021 - Konic Washer Part [8739168]148"},{"mesh":15,"translation":[-0.41913277,1.9258027,0.17503546],"rotation":[-0.0,0.7071068,0.0,0.7071068],"name":"KON021 - Konic Washer Part [8739168]149"},{"mesh":15,"translation":[-0.41913277,1.3670026,0.17503546],"rotation":[-0.0,0.7071068,0.0,0.7071068],"name":"KON021 - Konic Washer Part [8739168]150"},{"mesh":15,"translation":[-0.21865457,2.2915118,-0.069623694],"name":"KON021 - Konic Washer Part [8739168]151"},{"mesh":15,"translation":[-0.21865457,1.7327118,-0.069623694],"name":"KON021 - Konic Washer Part [8739168]152"},{"mesh":15,"translation":[0.36284545,2.6572719,-0.069623694],"name":"KON021 - Konic Washer Part [8739168]153"},{"mesh":15,"translation":[0.36284545,2.0984719,-0.069623694],"name":"KON021 - Konic Washer Part [8739168]154"},{"mesh":15,"translation":[0.6293199,2.840152,-0.069623694],"name":"KON021 - Konic Washer Part [8739168]155"},{"mesh":15,"translation":[0.6293199,2.2813518,-0.069623694],"name":"KON021 - Konic Washer Part [8739168]156"},{"mesh":15,"translation":[1.4287455,3.3887918,-0.069623694],"name":"KON021 - Konic Washer Part [8739168]157"},{"mesh":15,"translation":[1.4287455,2.8299918,-0.069623694],"name":"KON021 - Konic Washer Part [8739168]158"},{"mesh":15,"translation":[-0.41913277,1.5600426,0.7080169],"rotation":[-0.0,0.7071068,0.0,0.7071068],"name":"KON021 - Konic Washer Part [8739168]161"},{"mesh":15,"translation":[-0.41913277,1.0012426,0.7080169],"rotation":[-0.0,0.7071068,0.0,0.7071068],"name":"KON021 - Konic Washer Part [8739168]162"},{"mesh":15,"translation":[-0.41913277,1.3771626,0.97354954],"rotation":[-0.0,0.7071068,0.0,0.7071068],"name":"KON021 - Konic Washer Part [8739168]163"},{"mesh":15,"translation":[-0.41913277,0.81836265,0.97354954],"rotation":[-0.0,0.7071068,0.0,0.7071068],"name":"KON021 - Konic Washer Part [8739168]164"},{"mesh":15,"translation":[-0.41913277,1.0114026,1.5058892],"rotation":[-0.0,0.7071068,0.0,0.7071068],"name":"KON021 - Konic Washer Part [8739168]165"},{"mesh":15,"translation":[-0.41913277,0.45260262,1.5058892],"rotation":[-0.0,0.7071068,0.0,0.7071068],"name":"KON021 - Konic Washer Part [8739168]166"},{"mesh":15,"translation":[-1.3811322,1.9258027,0.17503546],"rotation":[-0.0,-0.7071068,0.0,0.7071067],"name":"KON021 - Konic Washer Part [8739168]167"},{"mesh":15,"translation":[-1.3811322,1.3670026,0.17503546],"rotation":[-0.0,-0.7071068,0.0,0.7071067],"name":"KON021 - Konic Washer Part [8739168]168"},{"mesh":15,"translation":[-1.3811322,1.5600426,0.7080169],"rotation":[-0.0,-0.7071068,0.0,0.7071067],"name":"KON021 - Konic Washer Part [8739168]169"},{"mesh":15,"translation":[-1.3811322,1.0012426,0.7080169],"rotation":[-0.0,-0.7071068,0.0,0.7071067],"name":"KON021 - Konic Washer Part [8739168]170"},{"mesh":15,"translation":[-1.3811322,1.3771626,0.97354954],"rotation":[-0.0,-0.7071068,0.0,0.7071067],"name":"KON021 - Konic Washer Part [8739168]171"},{"mesh":15,"translation":[-1.3811322,0.81836265,0.97354954],"rotation":[-0.0,-0.7071068,0.0,0.7071067],"name":"KON021 - Konic Washer Part [8739168]172"},{"mesh":15,"translation":[-1.3811321,1.0114026,1.5058892],"rotation":[-0.0,-0.7071068,0.0,0.7071067],"name":"KON021 - Konic Washer Part [8739168]173"},{"mesh":15,"translation":[-1.3811321,0.45260262,1.5058892],"rotation":[-0.0,-0.7071068,0.0,0.7071067],"name":"KON021 - Konic Washer Part [8739168]174"},{"mesh":15,"translation":[0.36284545,2.6572719,-1.0316231],"rotation":[-0.0,-1.0,0.0,-4.371139E-08],"name":"KON021 - Konic Washer Part [8739168]175"},{"mesh":15,"translation":[0.36284545,2.0984719,-1.0316231],"rotation":[-0.0,-1.0,0.0,-4.371139E-08],"name":"KON021 - Konic Washer Part [8739168]176"},{"mesh":15,"translation":[0.6293199,2.840152,-1.0316231],"rotation":[-0.0,-1.0,0.0,-4.371139E-08],"name":"KON021 - Konic Washer Part [8739168]177"},{"mesh":15,"translation":[0.6293199,2.2813518,-1.0316231],"rotation":[-0.0,-1.0,0.0,-4.371139E-08],"name":"KON021 - Konic Washer Part [8739168]178"},{"mesh":15,"translation":[1.4287455,3.3887918,-1.0316231],"rotation":[-0.0,-1.0,0.0,-4.371139E-08],"name":"KON021 - Konic Washer Part [8739168]179"},{"mesh":15,"translation":[1.4287455,2.8299918,-1.0316231],"rotation":[-0.0,-1.0,0.0,-4.371139E-08],"name":"KON021 - Konic Washer Part [8739168]180"},{"mesh":15,"translation":[-0.4493236,2.1086318,-1.0316231],"rotation":[-0.0,-1.0,0.0,-4.371139E-08],"name":"KON021 - Konic Washer Part [8739168]181"},{"mesh":15,"translation":[-0.4493236,1.5498319,-1.0316231],"rotation":[-0.0,-1.0,0.0,-4.371139E-08],"name":"KON021 - Konic Washer Part [8739168]182"},{"mesh":15,"translation":[-0.7160236,2.0262852,-1.0316231],"rotation":[-0.0,-1.0,0.0,-4.371139E-08],"name":"KON021 - Konic Washer Part [8739168]183"},{"mesh":15,"translation":[-0.7160236,1.4674852,-1.0316231],"rotation":[-0.0,-1.0,0.0,-4.371139E-08],"name":"KON021 - Konic Washer Part [8739168]184"},{"mesh":15,"translation":[-1.2308573,2.0262852,-1.0316231],"rotation":[-0.0,-1.0,0.0,4.371139E-08],"name":"KON021 - Konic Washer Part [8739168]185"},{"mesh":15,"translation":[-1.2308573,1.4674852,-1.0316231],"rotation":[-0.0,-1.0,0.0,4.371139E-08],"name":"KON021 - Konic Washer Part [8739168]186"},{"mesh":15,"translation":[-1.3811295,2.0262852,-0.8813486],"rotation":[-0.0,-0.7071068,0.0,0.7071067],"name":"KON021 - Konic Washer Part [8739168]187"},{"mesh":15,"translation":[-1.3811295,1.4674852,-0.8813486],"rotation":[-0.0,-0.7071068,0.0,0.7071067],"name":"KON021 - Konic Washer Part [8739168]188"},{"mesh":15,"translation":[-1.3811295,2.0262852,-0.074374564],"rotation":[-0.0,-0.7071068,0.0,0.7071067],"name":"KON021 - Konic Washer Part [8739168]193"},{"mesh":15,"translation":[-1.3811295,1.4674852,-0.074374564],"rotation":[-0.0,-0.7071068,0.0,0.7071067],"name":"KON021 - Konic Washer Part [8739168]194"},{"mesh":15,"translation":[-1.3811322,2.0262852,-0.0784351],"rotation":[-0.0,-0.7071068,0.0,0.7071067],"name":"KON021 - Konic Washer Part [8739168]197"},{"mesh":15,"translation":[-1.3811322,1.4674852,-0.0784351],"rotation":[-0.0,-0.7071068,0.0,0.7071067],"name":"KON021 - Konic Washer Part [8739168]198"},{"mesh":16,"translation":[-0.3730821,1.09728,0.17503546],"rotation":[-0.7071067,-0.7071068,1.9656746E-08,-6.18036E-08],"scale":[1.0,0.99999994,0.99999994],"name":"LS147 & LS148 - Kubit Post Material LS Material [8739192]025"},{"mesh":17,"translation":[-0.21865457,1.4630401,-0.023573017],"rotation":[0.5,0.5,0.50000006,0.49999994],"scale":[1.0,0.99999994,0.99999994],"name":"LS147 & LS148 - Kubit Post Material LS Material [8739192]026"},{"mesh":18,"translation":[0.36284545,1.8288,-0.023573017],"rotation":[0.5,0.5,0.50000006,0.49999994],"scale":[1.0,0.99999994,0.99999994],"name":"LS147 & LS148 - Kubit Post Material LS Material [8739192]027"},{"mesh":19,"translation":[0.6293199,2.01168,-0.023573017],"rotation":[0.5,0.5,0.50000006,0.49999994],"scale":[1.0,0.99999994,0.99999994],"name":"LS147 & LS148 - Kubit Post Material LS Material [8739192]028"},{"mesh":20,"translation":[1.4287455,2.56032,-0.023573017],"rotation":[0.5,0.5,0.50000006,0.49999994],"scale":[1.0,0.99999994,0.99999994],"name":"LS147 & LS148 - Kubit Post Material LS Material [8739192]029"},{"mesh":21,"translation":[-0.3730821,0.73152006,0.7080169],"rotation":[-0.7071067,-0.7071068,1.9656746E-08,-6.18036E-08],"scale":[1.0,0.99999994,0.99999994],"name":"LS147 & LS148 - Kubit Post Material LS Material [8739192]031"},{"mesh":22,"translation":[-0.3730821,0.54864,0.97354954],"rotation":[-0.7071067,-0.7071068,1.9656746E-08,-6.18036E-08],"scale":[1.0,0.99999994,0.99999994],"name":"LS147 & LS148 - Kubit Post Material LS Material [8739192]032"},{"mesh":23,"translation":[-0.3730821,0.18288001,1.5058892],"rotation":[-0.7071067,-0.7071068,1.9656746E-08,-6.18036E-08],"scale":[1.0,0.99999994,0.99999994],"name":"LS147 & LS148 - Kubit Post Material LS Material [8739192]033"},{"mesh":24,"translation":[-1.4271829,1.09728,0.17503546],"rotation":[4.0730175E-08,-4.0730175E-08,0.7071068,0.7071067],"scale":[1.0,0.99999994,0.99999994],"name":"LS147 & LS148 - Kubit Post Material LS Material [8739192]034"},{"mesh":25,"translation":[-1.4271829,0.73152006,0.7080169],"rotation":[4.0730175E-08,-4.0730175E-08,0.7071068,0.7071067],"scale":[1.0,0.99999994,0.99999994],"name":"LS147 & LS148 - Kubit Post Material LS Material [8739192]035"},{"mesh":26,"translation":[-1.4271829,0.54864,0.97354954],"rotation":[4.0730175E-08,-4.0730175E-08,0.7071068,0.7071067],"scale":[1.0,0.99999994,0.99999994],"name":"LS147 & LS148 - Kubit Post Material LS Material [8739192]036"},{"mesh":27,"translation":[-1.4271828,0.18288001,1.5058892],"rotation":[4.0730175E-08,-4.0730175E-08,0.7071068,0.7071067],"scale":[1.0,0.99999994,0.99999994],"name":"LS147 & LS148 - Kubit Post Material LS Material [8739192]037"},{"mesh":28,"translation":[0.36284545,1.8288,-1.0776738],"rotation":[-0.5,-0.5,0.50000006,0.49999994],"name":"LS147 & LS148 - Kubit Post Material LS Material [8739192]038"},{"mesh":29,"translation":[0.6293199,2.01168,-1.0776738],"rotation":[-0.5,-0.5,0.50000006,0.49999994],"name":"LS147 & LS148 - Kubit Post Material LS Material [8739192]039"},{"mesh":30,"translation":[1.4287455,2.56032,-1.0776738],"rotation":[-0.5,-0.5,0.50000006,0.49999994],"name":"LS147 & LS148 - Kubit Post Material LS Material [8739192]040"},{"mesh":31,"translation":[-0.4493236,1.28016,-1.0776738],"rotation":[-0.5,-0.5,0.50000006,0.49999994],"name":"LS147 & LS148 - Kubit Post Material LS Material [8739192]041"},{"mesh":32,"translation":[-0.7160236,1.28016,-1.0776738],"rotation":[-0.5,-0.5,0.50000006,0.49999994],"name":"LS147 & LS148 - Kubit Post Material LS Material [8739192]042"},{"mesh":33,"translation":[-1.2308573,1.28016,-1.0776738],"rotation":[-0.5,-0.5,0.50000006,0.49999994],"name":"LS147 & LS148 - Kubit Post Material LS Material [8739192]043"},{"mesh":34,"translation":[-1.4271802,1.28016,-0.8813486],"rotation":[-0.0,-0.0,0.7071068,0.7071067],"name":"LS147 & LS148 - Kubit Post Material LS Material [8739192]044"},{"mesh":35,"translation":[-1.4271802,1.28016,-0.074374564],"rotation":[-0.0,-0.0,0.7071068,0.7071067],"name":"LS147 & LS148 - Kubit Post Material LS Material [8739192]046"},{"mesh":36,"translation":[-1.4271829,1.28016,-0.0784351],"rotation":[4.0730175E-08,-4.0730175E-08,0.7071068,0.7071067],"scale":[1.0,0.99999994,0.99999994],"name":"LS147 & LS148 - Kubit Post Material LS Material [8739192]048"},{"mesh":37,"translation":[28.89472,0.0,27.28077],"name":"Object"},{"mesh":38,"translation":[0.6784653,3.0497246,-0.07691128],"name":"Generic Models 11 Generic Models 11 [8762451]005"}],"meshes":[{"primitives":[{"attributes":{"POSITION":1,"TANGENT":2,"NORMAL":3,"TEXCOORD_0":4},"indices":0,"material":0}],"name":"Infill_Glass_Raked & Horizontal Generic [8199751]"},{"primitives":[{"attributes":{"POSITION":6,"TANGENT":7,"NORMAL":8,"TEXCOORD_0":9},"indices":5,"material":0}],"name":"Infill_Glass_Raked & Horizontal Generic [8200579]"},{"primitives":[{"attributes":{"POSITION":11,"TANGENT":12,"NORMAL":13,"TEXCOORD_0":14},"indices":10,"material":0}],"name":"Infill_Glass_Transition Generic [8202170]"},{"primitives":[{"attributes":{"POSITION":16,"TANGENT":17,"NORMAL":18,"TEXCOORD_0":19},"indices":15,"material":0}],"name":"Infill_Glass_Raked & Horizontal Generic [8202939]"},{"primitives":[{"attributes":{"POSITION":21,"TANGENT":22,"NORMAL":23,"TEXCOORD_0":24},"indices":20,"material":1},{"attributes":{"POSITION":26,"TANGENT":27,"NORMAL":28,"TEXCOORD_0":29},"indices":25,"material":2}],"name":"Generic Models 1 Generic Models 1 [8568048]"},{"primitives":[{"attributes":{"POSITION":31,"TANGENT":32,"NORMAL":33,"TEXCOORD_0":34},"indices":30,"material":0}],"name":"Infill_Glass_Raked & Horizontal Generic [8735940]"},{"primitives":[{"attributes":{"POSITION":36,"TANGENT":37,"NORMAL":38,"TEXCOORD_0":39},"indices":35,"material":1},{"attributes":{"POSITION":41,"TANGENT":42,"NORMAL":43,"TEXCOORD_0":44},"indices":40,"material":2}],"name":"Generic Models 10 Generic Models 1 [8735975]"},{"primitives":[{"attributes":{"POSITION":46,"TANGENT":47,"NORMAL":48,"TEXCOORD_0":49},"indices":45,"material":0}],"name":"Infill_Glass_Raked & Horizontal Generic [8736296]"},{"primitives":[{"attributes":{"POSITION":51,"TANGENT":52,"NORMAL":53,"TEXCOORD_0":54},"indices":50,"material":0}],"name":"Infill_Glass_Raked & Horizontal Generic [8737682]"},{"primitives":[{"attributes":{"POSITION":56,"TANGENT":57,"NORMAL":58,"TEXCOORD_0":59},"indices":55,"material":0}],"name":"Casework 1 Casework 1 [8738332]"},{"primitives":[{"attributes":{"POSITION":61,"TANGENT":62,"NORMAL":63,"TEXCOORD_0":64},"indices":60,"material":0}],"name":"Infill_Glass_Raked & Horizontal Generic [8738822]"},{"primitives":[{"attributes":{"POSITION":66,"TANGENT":67,"NORMAL":68,"TEXCOORD_0":69},"indices":65,"material":0}],"name":"Infill_Glass_Raked & Horizontal Generic [8739593]"},{"primitives":[{"attributes":{"POSITION":71,"TANGENT":72,"NORMAL":73,"TEXCOORD_0":74},"indices":70,"material":1},{"attributes":{"POSITION":76,"TANGENT":77,"NORMAL":78,"TEXCOORD_0":79},"indices":75,"material":2}],"name":"KUB009 - Top Barrel Mount Part [8739165]050"},{"primitives":[{"attributes":{"POSITION":81,"TANGENT":82,"NORMAL":83,"TEXCOORD_0":84},"indices":80,"material":1},{"attributes":{"POSITION":86,"TANGENT":87,"NORMAL":88,"TEXCOORD_0":89},"indices":85,"material":2}],"name":"KUB007 - Surface Mount Weldment Part [8739169]025"},{"primitives":[{"attributes":{"POSITION":91,"TANGENT":92,"NORMAL":93,"TEXCOORD_0":94},"indices":90,"material":1},{"attributes":{"POSITION":96,"TANGENT":97,"NORMAL":98,"TEXCOORD_0":99},"indices":95,"material":2}],"name":"KON006 - Lower Panel Clamp Part [8739162]150"},{"primitives":[{"attributes":{"POSITION":101,"TANGENT":102,"NORMAL":103,"TEXCOORD_0":104},"indices":100,"material":3}],"name":"KON021 - Konic Washer Part [8739168]100"},{"primitives":[{"attributes":{"POSITION":106,"TANGENT":107,"NORMAL":108,"TEXCOORD_0":109},"indices":105,"material":1}],"name":"LS147 & LS148 - Kubit Post Material LS Material [8739192]025"},{"primitives":[{"attributes":{"POSITION":111,"TANGENT":112,"NORMAL":113,"TEXCOORD_0":114},"indices":110,"material":1}],"name":"LS147 & LS148 - Kubit Post Material LS Material [8739192]026"},{"primitives":[{"attributes":{"POSITION":116,"TANGENT":117,"NORMAL":118,"TEXCOORD_0":119},"indices":115,"material":1}],"name":"LS147 & LS148 - Kubit Post Material LS Material [8739192]027"},{"primitives":[{"attributes":{"POSITION":121,"TANGENT":122,"NORMAL":123,"TEXCOORD_0":124},"indices":120,"material":1}],"name":"LS147 & LS148 - Kubit Post Material LS Material [8739192]028"},{"primitives":[{"attributes":{"POSITION":126,"TANGENT":127,"NORMAL":128,"TEXCOORD_0":129},"indices":125,"material":1}],"name":"LS147 & LS148 - Kubit Post Material LS Material [8739192]029"},{"primitives":[{"attributes":{"POSITION":131,"TANGENT":132,"NORMAL":133,"TEXCOORD_0":134},"indices":130,"material":1}],"name":"LS147 & LS148 - Kubit Post Material LS Material [8739192]031"},{"primitives":[{"attributes":{"POSITION":136,"TANGENT":137,"NORMAL":138,"TEXCOORD_0":139},"indices":135,"material":1}],"name":"LS147 & LS148 - Kubit Post Material LS Material [8739192]032"},{"primitives":[{"attributes":{"POSITION":141,"TANGENT":142,"NORMAL":143,"TEXCOORD_0":144},"indices":140,"material":1}],"name":"LS147 & LS148 - Kubit Post Material LS Material [8739192]033"},{"primitives":[{"attributes":{"POSITION":146,"TANGENT":147,"NORMAL":148,"TEXCOORD_0":149},"indices":145,"material":1}],"name":"LS147 & LS148 - Kubit Post Material LS Material [8739192]034"},{"primitives":[{"attributes":{"POSITION":151,"TANGENT":152,"NORMAL":153,"TEXCOORD_0":154},"indices":150,"material":1}],"name":"LS147 & LS148 - Kubit Post Material LS Material [8739192]035"},{"primitives":[{"attributes":{"POSITION":156,"TANGENT":157,"NORMAL":158,"TEXCOORD_0":159},"indices":155,"material":1}],"name":"LS147 & LS148 - Kubit Post Material LS Material [8739192]036"},{"primitives":[{"attributes":{"POSITION":161,"TANGENT":162,"NORMAL":163,"TEXCOORD_0":164},"indices":160,"material":1}],"name":"LS147 & LS148 - Kubit Post Material LS Material [8739192]037"},{"primitives":[{"attributes":{"POSITION":166,"TANGENT":167,"NORMAL":168,"TEXCOORD_0":169},"indices":165,"material":1}],"name":"LS147 & LS148 - Kubit Post Material LS Material [8739192]038"},{"primitives":[{"attributes":{"POSITION":171,"TANGENT":172,"NORMAL":173,"TEXCOORD_0":174},"indices":170,"material":1}],"name":"LS147 & LS148 - Kubit Post Material LS Material [8739192]039"},{"primitives":[{"attributes":{"POSITION":176,"TANGENT":177,"NORMAL":178,"TEXCOORD_0":179},"indices":175,"material":1}],"name":"LS147 & LS148 - Kubit Post Material LS Material [8739192]040"},{"primitives":[{"attributes":{"POSITION":181,"TANGENT":182,"NORMAL":183,"TEXCOORD_0":184},"indices":180,"material":1}],"name":"LS147 & LS148 - Kubit Post Material LS Material [8739192]041"},{"primitives":[{"attributes":{"POSITION":186,"TANGENT":187,"NORMAL":188,"TEXCOORD_0":189},"indices":185,"material":1}],"name":"LS147 & LS148 - Kubit Post Material LS Material [8739192]042"},{"primitives":[{"attributes":{"POSITION":191,"TANGENT":192,"NORMAL":193,"TEXCOORD_0":194},"indices":190,"material":1}],"name":"LS147 & LS148 - Kubit Post Material LS Material [8739192]043"},{"primitives":[{"attributes":{"POSITION":196,"TANGENT":197,"NORMAL":198,"TEXCOORD_0":199},"indices":195,"material":1}],"name":"LS147 & LS148 - Kubit Post Material LS Material [8739192]044"},{"primitives":[{"attributes":{"POSITION":201,"TANGENT":202,"NORMAL":203,"TEXCOORD_0":204},"indices":200,"material":1}],"name":"LS147 & LS148 - Kubit Post Material LS Material [8739192]046"},{"primitives":[{"attributes":{"POSITION":206,"TANGENT":207,"NORMAL":208,"TEXCOORD_0":209},"indices":205,"material":1}],"name":"LS147 & LS148 - Kubit Post Material LS Material [8739192]048"},{"primitives":[{"attributes":{"POSITION":211,"TANGENT":212,"NORMAL":213,"TEXCOORD_0":214},"indices":210,"material":1},{"attributes":{"POSITION":216,"TANGENT":217,"NORMAL":218,"TEXCOORD_0":219},"indices":215,"material":2}],"name":"Object"},{"primitives":[{"attributes":{"POSITION":221,"TANGENT":222,"NORMAL":223,"TEXCOORD_0":224},"indices":220,"material":1},{"attributes":{"POSITION":226,"TANGENT":227,"NORMAL":228,"TEXCOORD_0":229},"indices":225,"material":2}],"name":"Generic Models 11 Generic Models 11 [8762451]005"}],"accessors":[{"bufferView":0,"componentType":5123,"count":132,"type":"SCALAR","name":"accessorIndices"},{"bufferView":1,"componentType":5126,"count":82,"max":[0.67253757,0.76435065,0.0071501],"min":[-0.1888937,-0.7240815,-0.0071501],"type":"VEC3","name":"accessorPositions"},{"bufferView":2,"componentType":5126,"count":82,"type":"VEC4","name":"accessorTangents"},{"bufferView":1,"byteOffset":984,"componentType":5126,"count":82,"type":"VEC3","name":"accessorNormals"},{"bufferView":3,"componentType":5126,"count":82,"type":"VEC2","name":"accessorUVs"},{"bufferView":0,"byteOffset":264,"componentType":5123,"count":132,"type":"SCALAR","name":"accessorIndices"},{"bufferView":1,"byteOffset":1968,"componentType":5126,"count":82,"max":[0.16510001,0.41611978,0.0071501],"min":[-0.9136126,-1.2214502,-0.0071501],"type":"VEC3","name":"accessorPositions"},{"bufferView":2,"byteOffset":1312,"componentType":5126,"count":82,"type":"VEC4","name":"accessorTangents"},{"bufferView":1,"byteOffset":2952,"componentType":5126,"count":82,"type":"VEC3","name":"accessorNormals"},{"bufferView":3,"byteOffset":656,"componentType":5126,"count":82,"type":"VEC2","name":"accessorUVs"},{"bufferView":0,"byteOffset":528,"componentType":5123,"count":168,"type":"SCALAR","name":"accessorIndices"},{"bufferView":1,"byteOffset":3936,"componentType":5126,"count":109,"max":[0.77951753,0.0071501,1.4337071],"min":[-0.068804964,-0.0071501024,-0.0],"type":"VEC3","name":"accessorPositions"},{"bufferView":2,"byteOffset":2624,"componentType":5126,"count":109,"type":"VEC4","name":"accessorTangents"},{"bufferView":1,"byteOffset":5244,"componentType":5126,"count":109,"type":"VEC3","name":"accessorNormals"},{"bufferView":3,"byteOffset":1312,"componentType":5126,"count":109,"type":"VEC2","name":"accessorUVs"},{"bufferView":0,"byteOffset":864,"componentType":5123,"count":132,"type":"SCALAR","name":"accessorIndices"},{"bufferView":1,"byteOffset":6552,"componentType":5126,"count":82,"max":[0.3937,0.71999997,0.0071501],"min":[-0.4111075,-0.730215,-0.0071501],"type":"VEC3","name":"accessorPositions"},{"bufferView":2,"byteOffset":4368,"componentType":5126,"count":82,"type":"VEC4","name":"accessorTangents"},{"bufferView":1,"byteOffset":7536,"componentType":5126,"count":82,"type":"VEC3","name":"accessorNormals"},{"bufferView":3,"byteOffset":2184,"componentType":5126,"count":82,"type":"VEC2","name":"accessorUVs"},{"bufferView":0,"byteOffset":1128,"componentType":5123,"count":49806,"type":"SCALAR","name":"accessorIndices"},{"bufferView":1,"byteOffset":8520,"componentType":5126,"count":10012,"max":[-27.580276,2.2050376,-27.06699],"min":[-29.259083,1.0594896,-27.105263],"type":"VEC3","name":"accessorPositions"},{"bufferView":2,"byteOffset":5680,"componentType":5126,"count":10012,"type":"VEC4","name":"accessorTangents"},{"bufferView":1,"byteOffset":128664,"componentType":5126,"count":10012,"type":"VEC3","name":"accessorNormals"},{"bufferView":3,"byteOffset":2840,"componentType":5126,"count":10012,"type":"VEC2","name":"accessorUVs"},{"bufferView":0,"byteOffset":100740,"componentType":5123,"count":456,"type":"SCALAR","name":"accessorIndices"},{"bufferView":1,"byteOffset":248808,"componentType":5126,"count":156,"max":[-27.580276,2.2050376,-27.067],"min":[-29.259083,1.0594896,-27.105263],"type":"VEC3","name":"accessorPositions"},{"bufferView":2,"byteOffset":165872,"componentType":5126,"count":156,"type":"VEC4","name":"accessorTangents"},{"bufferView":1,"byteOffset":250680,"componentType":5126,"count":156,"type":"VEC3","name":"accessorNormals"},{"bufferView":3,"byteOffset":82936,"componentType":5126,"count":156,"type":"VEC2","name":"accessorUVs"},{"bufferView":0,"byteOffset":101652,"componentType":5123,"count":132,"type":"SCALAR","name":"accessorIndices"},{"bufferView":1,"byteOffset":252552,"componentType":5126,"count":82,"max":[0.3937,0.71999997,0.0071501],"min":[-0.4111075,-0.730215,-0.0071501],"type":"VEC3","name":"accessorPositions"},{"bufferView":2,"byteOffset":168368,"componentType":5126,"count":82,"type":"VEC4","name":"accessorTangents"},{"bufferView":1,"byteOffset":253536,"componentType":5126,"count":82,"type":"VEC3","name":"accessorNormals"},{"bufferView":3,"byteOffset":84184,"componentType":5126,"count":82,"type":"VEC2","name":"accessorUVs"},{"bufferView":0,"byteOffset":101916,"componentType":5123,"count":81387,"type":"SCALAR","name":"accessorIndices"},{"bufferView":1,"byteOffset":254520,"componentType":5126,"count":17413,"max":[-27.580276,2.2050376,-26.119287],"min":[-29.224365,1.0594137,-26.157398],"type":"VEC3","name":"accessorPositions"},{"bufferView":2,"byteOffset":169680,"componentType":5126,"count":17413,"type":"VEC4","name":"accessorTangents"},{"bufferView":1,"byteOffset":463476,"componentType":5126,"count":17413,"type":"VEC3","name":"accessorNormals"},{"bufferView":3,"byteOffset":84840,"componentType":5126,"count":17413,"type":"VEC2","name":"accessorUVs"},{"bufferView":0,"byteOffset":264692,"componentType":5123,"count":10326,"type":"SCALAR","name":"accessorIndices"},{"bufferView":1,"byteOffset":672432,"componentType":5126,"count":17742,"max":[-27.580276,2.2050288,-26.119287],"min":[-29.224365,1.0594137,-26.157398],"type":"VEC3","name":"accessorPositions"},{"bufferView":2,"byteOffset":448288,"componentType":5126,"count":17742,"type":"VEC4","name":"accessorTangents"},{"bufferView":1,"byteOffset":885336,"componentType":5126,"count":17742,"type":"VEC3","name":"accessorNormals"},{"bufferView":3,"byteOffset":224144,"componentType":5126,"count":17742,"type":"VEC2","name":"accessorUVs"},{"bufferView":0,"byteOffset":285344,"componentType":5123,"count":132,"type":"SCALAR","name":"accessorIndices"},{"bufferView":1,"byteOffset":1098240,"componentType":5126,"count":82,"max":[0.16510001,0.41611978,0.0071501],"min":[-0.9136126,-1.2214502,-0.0071501],"type":"VEC3","name":"accessorPositions"},{"bufferView":2,"byteOffset":732160,"componentType":5126,"count":82,"type":"VEC4","name":"accessorTangents"},{"bufferView":1,"byteOffset":1099224,"componentType":5126,"count":82,"type":"VEC3","name":"accessorNormals"},{"bufferView":3,"byteOffset":366080,"componentType":5126,"count":82,"type":"VEC2","name":"accessorUVs"},{"bufferView":0,"byteOffset":285608,"componentType":5123,"count":132,"type":"SCALAR","name":"accessorIndices"},{"bufferView":1,"byteOffset":1100208,"componentType":5126,"count":96,"max":[0.40886727,0.3245767,0.0071501],"min":[-0.35996616,-0.52949834,-0.0071501],"type":"VEC3","name":"accessorPositions"},{"bufferView":2,"byteOffset":733472,"componentType":5126,"count":96,"type":"VEC4","name":"accessorTangents"},{"bufferView":1,"byteOffset":1101360,"componentType":5126,"count":96,"type":"VEC3","name":"accessorNormals"},{"bufferView":3,"byteOffset":366736,"componentType":5126,"count":96,"type":"VEC2","name":"accessorUVs"},{"bufferView":0,"byteOffset":285872,"componentType":5123,"count":168,"type":"SCALAR","name":"accessorIndices"},{"bufferView":1,"byteOffset":1102512,"componentType":5126,"count":99,"max":[-28.40499,2.929653,-28.298086],"min":[-29.471046,1.3404851,-28.312412],"type":"VEC3","name":"accessorPositions"},{"bufferView":2,"byteOffset":735008,"componentType":5126,"count":99,"type":"VEC4","name":"accessorTangents"},{"bufferView":1,"byteOffset":1103700,"componentType":5126,"count":99,"type":"VEC3","name":"accessorNormals"},{"bufferView":3,"byteOffset":367504,"componentType":5126,"count":99,"type":"VEC2","name":"accessorUVs"},{"bufferView":0,"byteOffset":286208,"componentType":5123,"count":132,"type":"SCALAR","name":"accessorIndices"},{"bufferView":1,"byteOffset":1104888,"componentType":5126,"count":96,"max":[0.70101464,0.3245767,0.0071501],"min":[-0.35996616,-0.52949834,-0.0071501],"type":"VEC3","name":"accessorPositions"},{"bufferView":2,"byteOffset":736592,"componentType":5126,"count":96,"type":"VEC4","name":"accessorTangents"},{"bufferView":1,"byteOffset":1106040,"componentType":5126,"count":96,"type":"VEC3","name":"accessorNormals"},{"bufferView":3,"byteOffset":368296,"componentType":5126,"count":96,"type":"VEC2","name":"accessorUVs"},{"bufferView":0,"byteOffset":286472,"componentType":5123,"count":132,"type":"SCALAR","name":"accessorIndices"},{"bufferView":1,"byteOffset":1107192,"componentType":5126,"count":82,"max":[0.37704316,0.70856416,0.0071501],"min":[-0.39211252,-0.71716493,-0.0071501],"type":"VEC3","name":"accessorPositions"},{"bufferView":2,"byteOffset":738128,"componentType":5126,"count":82,"type":"VEC4","name":"accessorTangents"},{"bufferView":1,"byteOffset":1108176,"componentType":5126,"count":82,"type":"VEC3","name":"accessorNormals"},{"bufferView":3,"byteOffset":369064,"componentType":5126,"count":82,"type":"VEC2","name":"accessorUVs"},{"bufferView":0,"byteOffset":286736,"componentType":5123,"count":1836,"type":"SCALAR","name":"accessorIndices"},{"bufferView":1,"byteOffset":1109160,"componentType":5126,"count":501,"max":[0.044475403,0.015875,0.015875],"min":[-0.031724602,-0.015875,-0.015875],"type":"VEC3","name":"accessorPositions"},{"bufferView":2,"byteOffset":739440,"componentType":5126,"count":501,"type":"VEC4","name":"accessorTangents"},{"bufferView":1,"byteOffset":1115172,"componentType":5126,"count":501,"type":"VEC3","name":"accessorNormals"},{"bufferView":3,"byteOffset":369720,"componentType":5126,"count":501,"type":"VEC2","name":"accessorUVs"},{"bufferView":0,"byteOffset":290408,"componentType":5123,"count":570,"type":"SCALAR","name":"accessorIndices"},{"bufferView":1,"byteOffset":1121184,"componentType":5126,"count":192,"max":[0.044475403,0.015875,0.015875],"min":[-0.031724602,-0.015875,-0.015875],"type":"VEC3","name":"accessorPositions"},{"bufferView":2,"byteOffset":747456,"componentType":5126,"count":192,"type":"VEC4","name":"accessorTangents"},{"bufferView":1,"byteOffset":1123488,"componentType":5126,"count":192,"type":"VEC3","name":"accessorNormals"},{"bufferView":3,"byteOffset":373728,"componentType":5126,"count":192,"type":"VEC2","name":"accessorUVs"},{"bufferView":0,"byteOffset":291548,"componentType":5123,"count":3822,"type":"SCALAR","name":"accessorIndices"},{"bufferView":1,"byteOffset":1125792,"componentType":5126,"count":879,"max":[0.05715,0.025400002,0.05715],"min":[-0.05715,-2.9463596E-15,-0.05715],"type":"VEC3","name":"accessorPositions"},{"bufferView":2,"byteOffset":750528,"componentType":5126,"count":879,"type":"VEC4","name":"accessorTangents"},{"bufferView":1,"byteOffset":1136340,"componentType":5126,"count":879,"type":"VEC3","name":"accessorNormals"},{"bufferView":3,"byteOffset":375264,"componentType":5126,"count":879,"type":"VEC2","name":"accessorUVs"},{"bufferView":0,"byteOffset":299192,"componentType":5123,"count":270,"type":"SCALAR","name":"accessorIndices"},{"bufferView":1,"byteOffset":1146888,"componentType":5126,"count":90,"max":[0.0541528,0.025400002,0.0541528],"min":[-0.0541528,0.025400002,-0.0541528],"type":"VEC3","name":"accessorPositions"},{"bufferView":2,"byteOffset":764592,"componentType":5126,"count":90,"type":"VEC4","name":"accessorTangents"},{"bufferView":1,"byteOffset":1147968,"componentType":5126,"count":90,"type":"VEC3","name":"accessorNormals"},{"bufferView":3,"byteOffset":382296,"componentType":5126,"count":90,"type":"VEC2","name":"accessorUVs"},{"bufferView":0,"byteOffset":299732,"componentType":5123,"count":864,"type":"SCALAR","name":"accessorIndices"},{"bufferView":1,"byteOffset":1149048,"componentType":5126,"count":292,"max":[0.006604,0.015875,0.015875],"min":[-0.022722581,-0.015875,-0.015875],"type":"VEC3","name":"accessorPositions"},{"bufferView":2,"byteOffset":766032,"componentType":5126,"count":292,"type":"VEC4","name":"accessorTangents"},{"bufferView":1,"byteOffset":1152552,"componentType":5126,"count":292,"type":"VEC3","name":"accessorNormals"},{"bufferView":3,"byteOffset":383016,"componentType":5126,"count":292,"type":"VEC2","name":"accessorUVs"},{"bufferView":0,"byteOffset":301460,"componentType":5123,"count":858,"type":"SCALAR","name":"accessorIndices"},{"bufferView":1,"byteOffset":1156056,"componentType":5126,"count":289,"max":[0.006604,0.015875,0.015875],"min":[-0.022722581,-0.015875,-0.015875],"type":"VEC3","name":"accessorPositions"},{"bufferView":2,"byteOffset":770704,"componentType":5126,"count":289,"type":"VEC4","name":"accessorTangents"},{"bufferView":1,"byteOffset":1159524,"componentType":5126,"count":289,"type":"VEC3","name":"accessorNormals"},{"bufferView":3,"byteOffset":385352,"componentType":5126,"count":289,"type":"VEC2","name":"accessorUVs"},{"bufferView":0,"byteOffset":303176,"componentType":5123,"count":1440,"type":"SCALAR","name":"accessorIndices"},{"bufferView":1,"byteOffset":1162992,"componentType":5126,"count":484,"max":[0.012700001,0.012700001,0.0015748],"min":[-0.012700001,-0.012700001,8.253881E-15],"type":"VEC3","name":"accessorPositions"},{"bufferView":2,"byteOffset":775328,"componentType":5126,"count":484,"type":"VEC4","name":"accessorTangents"},{"bufferView":1,"byteOffset":1168800,"componentType":5126,"count":484,"type":"VEC3","name":"accessorNormals"},{"bufferView":3,"byteOffset":387664,"componentType":5126,"count":484,"type":"VEC2","name":"accessorUVs"},{"bufferView":0,"byteOffset":306056,"componentType":5123,"count":36,"type":"SCALAR","name":"accessorIndices"},{"bufferView":1,"byteOffset":1174608,"componentType":5126,"count":24,"max":[0.83982563,0.025400002,0.0063500004],"min":[6.3589614E-15,-0.025400035,-0.0063500353],"type":"VEC3","name":"accessorPositions"},{"bufferView":2,"byteOffset":783072,"componentType":5126,"count":24,"type":"VEC4","name":"accessorTangents"},{"bufferView":1,"byteOffset":1174896,"componentType":5126,"count":24,"type":"VEC3","name":"accessorNormals"},{"bufferView":3,"byteOffset":391536,"componentType":5126,"count":24,"type":"VEC2","name":"accessorUVs"},{"bufferView":0,"byteOffset":306128,"componentType":5123,"count":36,"type":"SCALAR","name":"accessorIndices"},{"bufferView":1,"byteOffset":1175184,"componentType":5126,"count":24,"max":[0.83982563,0.025400002,0.006350034],"min":[6.3589614E-15,-0.025400031,-0.0063500004],"type":"VEC3","name":"accessorPositions"},{"bufferView":2,"byteOffset":783456,"componentType":5126,"count":24,"type":"VEC4","name":"accessorTangents"},{"bufferView":1,"byteOffset":1175472,"componentType":5126,"count":24,"type":"VEC3","name":"accessorNormals"},{"bufferView":3,"byteOffset":391728,"componentType":5126,"count":24,"type":"VEC2","name":"accessorUVs"},{"bufferView":0,"byteOffset":306200,"componentType":5123,"count":36,"type":"SCALAR","name":"accessorIndices"},{"bufferView":1,"byteOffset":1175760,"componentType":5126,"count":24,"max":[0.83982563,0.025400002,0.006350012],"min":[6.3589614E-15,-0.025400048,-0.0063500004],"type":"VEC3","name":"accessorPositions"},{"bufferView":2,"byteOffset":783840,"componentType":5126,"count":24,"type":"VEC4","name":"accessorTangents"},{"bufferView":1,"byteOffset":1176048,"componentType":5126,"count":24,"type":"VEC3","name":"accessorNormals"},{"bufferView":3,"byteOffset":391920,"componentType":5126,"count":24,"type":"VEC2","name":"accessorUVs"},{"bufferView":0,"byteOffset":306272,"componentType":5123,"count":36,"type":"SCALAR","name":"accessorIndices"},{"bufferView":1,"byteOffset":1176336,"componentType":5126,"count":24,"max":[0.83982563,0.025400002,0.0063500004],"min":[6.3589614E-15,-0.025400048,-0.0063500004],"type":"VEC3","name":"accessorPositions"},{"bufferView":2,"byteOffset":784224,"componentType":5126,"count":24,"type":"VEC4","name":"accessorTangents"},{"bufferView":1,"byteOffset":1176624,"componentType":5126,"count":24,"type":"VEC3","name":"accessorNormals"},{"bufferView":3,"byteOffset":392112,"componentType":5126,"count":24,"type":"VEC2","name":"accessorUVs"},{"bufferView":0,"byteOffset":306344,"componentType":5123,"count":36,"type":"SCALAR","name":"accessorIndices"},{"bufferView":1,"byteOffset":1176912,"componentType":5126,"count":24,"max":[0.8398257,0.025400002,0.0063500004],"min":[6.3589614E-15,-0.025400031,-0.0063500484],"type":"VEC3","name":"accessorPositions"},{"bufferView":2,"byteOffset":784608,"componentType":5126,"count":24,"type":"VEC4","name":"accessorTangents"},{"bufferView":1,"byteOffset":1177200,"componentType":5126,"count":24,"type":"VEC3","name":"accessorNormals"},{"bufferView":3,"byteOffset":392304,"componentType":5126,"count":24,"type":"VEC2","name":"accessorUVs"},{"bufferView":0,"byteOffset":306416,"componentType":5123,"count":36,"type":"SCALAR","name":"accessorIndices"},{"bufferView":1,"byteOffset":1177488,"componentType":5126,"count":24,"max":[0.83982563,0.025400002,0.0063500004],"min":[6.3589614E-15,-0.025400037,-0.0063500484],"type":"VEC3","name":"accessorPositions"},{"bufferView":2,"byteOffset":784992,"componentType":5126,"count":24,"type":"VEC4","name":"accessorTangents"},{"bufferView":1,"byteOffset":1177776,"componentType":5126,"count":24,"type":"VEC3","name":"accessorNormals"},{"bufferView":3,"byteOffset":392496,"componentType":5126,"count":24,"type":"VEC2","name":"accessorUVs"},{"bufferView":0,"byteOffset":306488,"componentType":5123,"count":36,"type":"SCALAR","name":"accessorIndices"},{"bufferView":1,"byteOffset":1178064,"componentType":5126,"count":24,"max":[0.8398256,0.025400002,0.0063500004],"min":[6.3589614E-15,-0.025400037,-0.006350121],"type":"VEC3","name":"accessorPositions"},{"bufferView":2,"byteOffset":785376,"componentType":5126,"count":24,"type":"VEC4","name":"accessorTangents"},{"bufferView":1,"byteOffset":1178352,"componentType":5126,"count":24,"type":"VEC3","name":"accessorNormals"},{"bufferView":3,"byteOffset":392688,"componentType":5126,"count":24,"type":"VEC2","name":"accessorUVs"},{"bufferView":0,"byteOffset":306560,"componentType":5123,"count":36,"type":"SCALAR","name":"accessorIndices"},{"bufferView":1,"byteOffset":1178640,"componentType":5126,"count":24,"max":[0.83982563,0.025400002,0.0063500004],"min":[6.3589614E-15,-0.025400037,-0.0063500484],"type":"VEC3","name":"accessorPositions"},{"bufferView":2,"byteOffset":785760,"componentType":5126,"count":24,"type":"VEC4","name":"accessorTangents"},{"bufferView":1,"byteOffset":1178928,"componentType":5126,"count":24,"type":"VEC3","name":"accessorNormals"},{"bufferView":3,"byteOffset":392880,"componentType":5126,"count":24,"type":"VEC2","name":"accessorUVs"},{"bufferView":0,"byteOffset":306632,"componentType":5123,"count":36,"type":"SCALAR","name":"accessorIndices"},{"bufferView":1,"byteOffset":1179216,"componentType":5126,"count":24,"max":[0.83982563,0.025400002,0.0063500344],"min":[6.3589614E-15,-0.025400002,-0.0063500004],"type":"VEC3","name":"accessorPositions"},{"bufferView":2,"byteOffset":786144,"componentType":5126,"count":24,"type":"VEC4","name":"accessorTangents"},{"bufferView":1,"byteOffset":1179504,"componentType":5126,"count":24,"type":"VEC3","name":"accessorNormals"},{"bufferView":3,"byteOffset":393072,"componentType":5126,"count":24,"type":"VEC2","name":"accessorUVs"},{"bufferView":0,"byteOffset":306704,"componentType":5123,"count":36,"type":"SCALAR","name":"accessorIndices"},{"bufferView":1,"byteOffset":1179792,"componentType":5126,"count":24,"max":[0.8398256,0.025400002,0.0063500484],"min":[6.3589614E-15,-0.025400002,-0.0063500004],"type":"VEC3","name":"accessorPositions"},{"bufferView":2,"byteOffset":786528,"componentType":5126,"count":24,"type":"VEC4","name":"accessorTangents"},{"bufferView":1,"byteOffset":1180080,"componentType":5126,"count":24,"type":"VEC3","name":"accessorNormals"},{"bufferView":3,"byteOffset":393264,"componentType":5126,"count":24,"type":"VEC2","name":"accessorUVs"},{"bufferView":0,"byteOffset":306776,"componentType":5123,"count":36,"type":"SCALAR","name":"accessorIndices"},{"bufferView":1,"byteOffset":1180368,"componentType":5126,"count":24,"max":[0.83982563,0.025400002,0.0063500484],"min":[6.3589614E-15,-0.025400048,-0.0063500004],"type":"VEC3","name":"accessorPositions"},{"bufferView":2,"byteOffset":786912,"componentType":5126,"count":24,"type":"VEC4","name":"accessorTangents"},{"bufferView":1,"byteOffset":1180656,"componentType":5126,"count":24,"type":"VEC3","name":"accessorNormals"},{"bufferView":3,"byteOffset":393456,"componentType":5126,"count":24,"type":"VEC2","name":"accessorUVs"},{"bufferView":0,"byteOffset":306848,"componentType":5123,"count":36,"type":"SCALAR","name":"accessorIndices"},{"bufferView":1,"byteOffset":1180944,"componentType":5126,"count":24,"max":[0.83982563,0.025400002,0.0063500484],"min":[6.3589614E-15,-0.025400002,-0.0063500004],"type":"VEC3","name":"accessorPositions"},{"bufferView":2,"byteOffset":787296,"componentType":5126,"count":24,"type":"VEC4","name":"accessorTangents"},{"bufferView":1,"byteOffset":1181232,"componentType":5126,"count":24,"type":"VEC3","name":"accessorNormals"},{"bufferView":3,"byteOffset":393648,"componentType":5126,"count":24,"type":"VEC2","name":"accessorUVs"},{"bufferView":0,"byteOffset":306920,"componentType":5123,"count":36,"type":"SCALAR","name":"accessorIndices"},{"bufferView":1,"byteOffset":1181520,"componentType":5126,"count":24,"max":[0.83982563,0.025400002,0.0063500004],"min":[6.3589614E-15,-0.02540012,-0.006350012],"type":"VEC3","name":"accessorPositions"},{"bufferView":2,"byteOffset":787680,"componentType":5126,"count":24,"type":"VEC4","name":"accessorTangents"},{"bufferView":1,"byteOffset":1181808,"componentType":5126,"count":24,"type":"VEC3","name":"accessorNormals"},{"bufferView":3,"byteOffset":393840,"componentType":5126,"count":24,"type":"VEC2","name":"accessorUVs"},{"bufferView":0,"byteOffset":306992,"componentType":5123,"count":36,"type":"SCALAR","name":"accessorIndices"},{"bufferView":1,"byteOffset":1182096,"componentType":5126,"count":24,"max":[0.83982563,0.02540012,0.0063500004],"min":[6.3589614E-15,-0.025400048,-0.0063500484],"type":"VEC3","name":"accessorPositions"},{"bufferView":2,"byteOffset":788064,"componentType":5126,"count":24,"type":"VEC4","name":"accessorTangents"},{"bufferView":1,"byteOffset":1182384,"componentType":5126,"count":24,"type":"VEC3","name":"accessorNormals"},{"bufferView":3,"byteOffset":394032,"componentType":5126,"count":24,"type":"VEC2","name":"accessorUVs"},{"bufferView":0,"byteOffset":307064,"componentType":5123,"count":36,"type":"SCALAR","name":"accessorIndices"},{"bufferView":1,"byteOffset":1182672,"componentType":5126,"count":24,"max":[0.8398257,0.025400002,0.0063500484],"min":[6.3589614E-15,-0.02540012,-0.0063500484],"type":"VEC3","name":"accessorPositions"},{"bufferView":2,"byteOffset":788448,"componentType":5126,"count":24,"type":"VEC4","name":"accessorTangents"},{"bufferView":1,"byteOffset":1182960,"componentType":5126,"count":24,"type":"VEC3","name":"accessorNormals"},{"bufferView":3,"byteOffset":394224,"componentType":5126,"count":24,"type":"VEC2","name":"accessorUVs"},{"bufferView":0,"byteOffset":307136,"componentType":5123,"count":36,"type":"SCALAR","name":"accessorIndices"},{"bufferView":1,"byteOffset":1183248,"componentType":5126,"count":24,"max":[0.83982563,0.025400048,0.0063500004],"min":[6.3589614E-15,-0.02540012,-0.00635003],"type":"VEC3","name":"accessorPositions"},{"bufferView":2,"byteOffset":788832,"componentType":5126,"count":24,"type":"VEC4","name":"accessorTangents"},{"bufferView":1,"byteOffset":1183536,"componentType":5126,"count":24,"type":"VEC3","name":"accessorNormals"},{"bufferView":3,"byteOffset":394416,"componentType":5126,"count":24,"type":"VEC2","name":"accessorUVs"},{"bufferView":0,"byteOffset":307208,"componentType":5123,"count":36,"type":"SCALAR","name":"accessorIndices"},{"bufferView":1,"byteOffset":1183824,"componentType":5126,"count":24,"max":[0.75752556,0.025400048,0.0063500004],"min":[6.3589614E-15,-0.025400048,-0.006350012],"type":"VEC3","name":"accessorPositions"},{"bufferView":2,"byteOffset":789216,"componentType":5126,"count":24,"type":"VEC4","name":"accessorTangents"},{"bufferView":1,"byteOffset":1184112,"componentType":5126,"count":24,"type":"VEC3","name":"accessorNormals"},{"bufferView":3,"byteOffset":394608,"componentType":5126,"count":24,"type":"VEC2","name":"accessorUVs"},{"bufferView":0,"byteOffset":307280,"componentType":5123,"count":36,"type":"SCALAR","name":"accessorIndices"},{"bufferView":1,"byteOffset":1184400,"componentType":5126,"count":24,"max":[0.75752556,0.025400048,0.0063500004],"min":[6.3589614E-15,-0.025400002,-0.006350121],"type":"VEC3","name":"accessorPositions"},{"bufferView":2,"byteOffset":789600,"componentType":5126,"count":24,"type":"VEC4","name":"accessorTangents"},{"bufferView":1,"byteOffset":1184688,"componentType":5126,"count":24,"type":"VEC3","name":"accessorNormals"},{"bufferView":3,"byteOffset":394800,"componentType":5126,"count":24,"type":"VEC2","name":"accessorUVs"},{"bufferView":0,"byteOffset":307352,"componentType":5123,"count":36,"type":"SCALAR","name":"accessorIndices"},{"bufferView":1,"byteOffset":1184976,"componentType":5126,"count":24,"max":[0.75752556,0.025400048,0.0063500004],"min":[6.3589614E-15,-0.025400002,-0.0063500004],"type":"VEC3","name":"accessorPositions"},{"bufferView":2,"byteOffset":789984,"componentType":5126,"count":24,"type":"VEC4","name":"accessorTangents"},{"bufferView":1,"byteOffset":1185264,"componentType":5126,"count":24,"type":"VEC3","name":"accessorNormals"},{"bufferView":3,"byteOffset":394992,"componentType":5126,"count":24,"type":"VEC2","name":"accessorUVs"},{"bufferView":0,"byteOffset":307424,"componentType":5123,"count":36,"type":"SCALAR","name":"accessorIndices"},{"bufferView":1,"byteOffset":1185552,"componentType":5126,"count":24,"max":[0.75752556,0.025400048,0.0063500004],"min":[6.3589614E-15,-0.025400002,-0.0063500004],"type":"VEC3","name":"accessorPositions"},{"bufferView":2,"byteOffset":790368,"componentType":5126,"count":24,"type":"VEC4","name":"accessorTangents"},{"bufferView":1,"byteOffset":1185840,"componentType":5126,"count":24,"type":"VEC3","name":"accessorNormals"},{"bufferView":3,"byteOffset":395184,"componentType":5126,"count":24,"type":"VEC2","name":"accessorUVs"},{"bufferView":0,"byteOffset":307496,"componentType":5123,"count":36,"type":"SCALAR","name":"accessorIndices"},{"bufferView":1,"byteOffset":1186128,"componentType":5126,"count":24,"max":[0.75752556,0.025400002,0.00635003],"min":[6.3589614E-15,-0.025400048,-0.0063500004],"type":"VEC3","name":"accessorPositions"},{"bufferView":2,"byteOffset":790752,"componentType":5126,"count":24,"type":"VEC4","name":"accessorTangents"},{"bufferView":1,"byteOffset":1186416,"componentType":5126,"count":24,"type":"VEC3","name":"accessorNormals"},{"bufferView":3,"byteOffset":395376,"componentType":5126,"count":24,"type":"VEC2","name":"accessorUVs"},{"bufferView":0,"byteOffset":307568,"componentType":5123,"count":201306,"type":"SCALAR","name":"accessorIndices"},{"bufferView":1,"byteOffset":1186704,"componentType":5126,"count":38119,"max":[-27.30563,3.6965744,-27.264956],"min":[-30.287746,2.1714768,-28.324299],"type":"VEC3","name":"accessorPositions"},{"bufferView":2,"byteOffset":791136,"componentType":5126,"count":38119,"type":"VEC4","name":"accessorTangents"},{"bufferView":1,"byteOffset":1644132,"componentType":5126,"count":38119,"type":"VEC3","name":"accessorNormals"},{"bufferView":3,"byteOffset":395568,"componentType":5126,"count":38119,"type":"VEC2","name":"accessorUVs"},{"bufferView":0,"byteOffset":710180,"componentType":5123,"count":246,"type":"SCALAR","name":"accessorIndices"},{"bufferView":1,"byteOffset":2101560,"componentType":5126,"count":84,"max":[-27.30563,3.6965744,-28.2862],"min":[-27.30563,3.6503658,-28.324299],"type":"VEC3","name":"accessorPositions"},{"bufferView":2,"byteOffset":1401040,"componentType":5126,"count":84,"type":"VEC4","name":"accessorTangents"},{"bufferView":1,"byteOffset":2102568,"componentType":5126,"count":84,"type":"VEC3","name":"accessorNormals"},{"bufferView":3,"byteOffset":700520,"componentType":5126,"count":84,"type":"VEC2","name":"accessorUVs"},{"bufferView":0,"byteOffset":710672,"componentType":5123,"count":4080,"type":"SCALAR","name":"accessorIndices"},{"bufferView":1,"byteOffset":2103576,"componentType":5126,"count":1530,"max":[0.9106084,0.6469242,0.019062791],"min":[-1.0538441,-0.74506915,-0.019062791],"type":"VEC3","name":"accessorPositions"},{"bufferView":2,"byteOffset":1402384,"componentType":5126,"count":1530,"type":"VEC4","name":"accessorTangents"},{"bufferView":1,"byteOffset":2121936,"componentType":5126,"count":1530,"type":"VEC3","name":"accessorNormals"},{"bufferView":3,"byteOffset":701192,"componentType":5126,"count":1530,"type":"VEC2","name":"accessorUVs"},{"bufferView":0,"byteOffset":718832,"componentType":5123,"count":738,"type":"SCALAR","name":"accessorIndices"},{"bufferView":1,"byteOffset":2140296,"componentType":5126,"count":252,"max":[0.9106084,0.6469242,0.019062791],"min":[-1.0538441,-0.74506915,-0.019062791],"type":"VEC3","name":"accessorPositions"},{"bufferView":2,"byteOffset":1426864,"componentType":5126,"count":252,"type":"VEC4","name":"accessorTangents"},{"bufferView":1,"byteOffset":2143320,"componentType":5126,"count":252,"type":"VEC3","name":"accessorNormals"},{"bufferView":3,"byteOffset":713432,"componentType":5126,"count":252,"type":"VEC2","name":"accessorUVs"}],"bufferViews":[{"buffer":0,"byteLength":720308,"name":"bufferViewScalar"},{"buffer":0,"byteOffset":720308,"byteLength":2146344,"byteStride":12,"name":"bufferViewFloatVec3"},{"buffer":0,"byteOffset":2866652,"byteLength":1430896,"byteStride":16,"name":"bufferViewFloatVec4"},{"buffer":0,"byteOffset":4297548,"byteLength":715448,"byteStride":8,"name":"bufferViewFloatVec2"}],"buffers":[{"uri":"L-Shaped_Railing_Kubit.bin","byteLength":5012996}],"materials":[{"pbrMetallicRoughness":{"baseColorFactor":[0.9999998,0.9999999,0.9999999,1.0],"metallicFactor":0.0,"roughnessFactor":0.1},"name":"Glass","extensions":{"KHR_materials_ior":{"ior":1.0},"KHR_materials_transmission":{"transmissionFactor":0.97},"KHR_materials_volume":{"thicknessFactor":0.56,"attenuationDistance":0.5,"attenuationColor":[0.49521634,0.56476736,0.5317566]}}},{"pbrMetallicRoughness":{"baseColorFactor":[0.9999998,0.9999999,0.9999999,1.0],"baseColorTexture":{"index":0,"extensions":{"KHR_texture_transform":{"offset":[0.19519997,0.8048],"rotation":1.5707964,"scale":[0.6096,0.6096],"texCoord":0}}},"roughnessFactor":0.2,"metallicRoughnessTexture":{"index":0,"extensions":{"KHR_texture_transform":{"offset":[0.19519997,0.8048],"rotation":1.5707964,"scale":[0.6096,0.6096],"texCoord":0}}}},"name":"Steel_Linear"},{"pbrMetallicRoughness":{"baseColorFactor":[0.9999998,0.9999999,0.9999999,1.0],"baseColorTexture":{"index":1},"roughnessFactor":0.2,"metallicRoughnessTexture":{"index":1}},"name":"Steel_Radial"},{"pbrMetallicRoughness":{"baseColorFactor":[0.10641303,0.10641304,0.10641304,1.0],"metallicFactor":0.0,"roughnessFactor":0.99,"metallicRoughnessTexture":{"index":2}},"name":"Rubber","extensions":{"KHR_materials_specular":{"specularFactor":0.1}}}],"textures":[{"sampler":0,"source":0,"name":"Metal_Brushed_Linear_4k.jpg"},{"sampler":0,"source":1,"name":"Metal_Brushed_Radial_4k.jpg"},{"sampler":0,"source":2,"name":"PowderCoat_Roughness_2k0.jpg"}],"images":[{"uri":"textures/Metal_Brushed_Linear_4k.jpg"},{"uri":"textures/Metal_Brushed_Radial_4k.jpg"},{"uri":"textures/PowderCoat_Roughness_2k0.jpg"}],"samplers":[{"magFilter":9729,"minFilter":9987}]}