{"asset":{"version":"2.0","generator":"babylon.js glTF exporter for 3dsmax 2026 v20251111.2"},"extensionsUsed":["KHR_materials_ior","KHR_materials_transmission","KHR_materials_volume","KHR_texture_transform","KHR_materials_specular"],"extensionsRequired":["KHR_texture_transform"],"scene":0,"scenes":[{"nodes":[0,1,2,3,4,5,6,7,8,9,10,11,12,13,14,15,16,17,18,19,20,21,22,23,24,25,26,27,28,29,30,31,32,33,34,35,36,37,38,39,40,41,42,43,44,45,46,47,48,49,50,51,52,53,54,55,56,57,58,59,60,61,62,63,64,65,66,67,68,69,70,71,72,73,74,75,76,77,78,79,80,81,82,83,84,85,86,87,88,89,90,91,92,93,94,95,96,97,98,99,100,101,102,103,104,105,106,107,108,109,110,111,112,113,114,115,116,117,118,119,120,121,122,123,124,125,126,127,128,129,130,131,132,133,134,135,136,137,138,139,140,141,142,143,144,145,146,147,148,149,150,151,152,153,154,155,156,157,158,159,160,161,162,163,164,165,166,167,168,169,170,171,172,173,174,175,176,177,178,179,180,181,182,183,184,185,186,187,188,189,190,191,192,193,194,195,196,197,198,199,200,201,202,203,204,205,206,207,208,209,210,211,212,213,214,215]}],"nodes":[{"mesh":0,"translation":[-0.18280497,2.1652887,-0.076767445],"name":"Infill_Glass_Raked & Horizontal Generic [8199751]"},{"mesh":1,"translation":[1.416044,3.26257,-0.076767445],"name":"Infill_Glass_Raked & Horizontal Generic [8200579]"},{"mesh":2,"translation":[-0.42627653,2.19456,0.054914895],"rotation":[0.5,-0.5,0.5,0.5],"name":"Infill_Glass_Transition Generic [8202170]"},{"mesh":3,"translation":[-0.42627653,0.92937434,1.2408333],"rotation":[-0.0,0.7071068,0.0,0.7071068],"name":"Infill_Glass_Raked & Horizontal Generic [8202939]"},{"mesh":4,"translation":[-27.512323,0.0,29.240168],"rotation":[-0.0,-0.7071068,0.0,0.7071067],"name":"Generic Models 1 Generic Models 1 [8568048]"},{"mesh":5,"translation":[-1.3739885,0.9293959,1.2408333],"rotation":[-0.0,0.7071068,0.0,0.7071068],"name":"Infill_Glass_Raked & Horizontal Generic [8735940]"},{"mesh":6,"translation":[-27.512323,0.0,29.240168],"rotation":[-0.0,-0.7071068,0.0,0.7071067],"name":"Generic Models 10 Generic Models 1 [8735975]"},{"mesh":7,"translation":[1.416044,3.2625408,-1.0244794],"rotation":[-0.0,3.133859E-15,0.0,1.0],"name":"Infill_Glass_Raked & Horizontal Generic [8736296]"},{"mesh":8,"translation":[-0.9978901,1.8699833,-1.0244794],"rotation":[-0.0,3.133859E-15,0.0,1.0],"name":"Infill_Glass_Raked & Horizontal Generic [8737682]"},{"mesh":9,"translation":[28.89472,0.0,27.28077],"name":"Casework 1 Casework 1 [8738332]"},{"mesh":10,"translation":[-1.3739858,1.8699833,-0.64838374],"rotation":[-0.0,-0.7071068,0.0,0.7071067],"name":"Infill_Glass_Raked & Horizontal Generic [8738822]"},{"mesh":11,"translation":[-1.3739885,1.4780358,0.44231918],"rotation":[-0.0,0.7071068,0.0,0.7071068],"name":"Infill_Glass_Raked & Horizontal Generic [8739593]"},{"mesh":12,"translation":[-1.382716,1.4674848,-0.074374564],"name":"OPT006 - Optik Glass Pad Part [9224006]"},{"mesh":12,"translation":[-1.382716,1.721485,-0.074374564],"name":"OPT006 - Optik Glass Pad Part [9224000]"},{"mesh":12,"translation":[-1.3827109,1.4674848,-0.07030935],"name":"OPT006 - Optik Glass Pad Part [9223930]"},{"mesh":12,"translation":[-1.3827109,1.721485,-0.07030935],"name":"OPT006 - Optik Glass Pad Part [9223924]"},{"mesh":12,"translation":[-1.3827109,1.4674848,-0.88134855],"name":"OPT006 - Optik Glass Pad Part [9223816]"},{"mesh":12,"translation":[-1.3827109,1.721485,-0.88134855],"name":"OPT006 - Optik Glass Pad Part [9223810]"},{"mesh":12,"translation":[-0.71602607,1.4674848,-1.0332044],"rotation":[-0.0,-0.7071068,0.0,0.7071067],"name":"OPT006 - Optik Glass Pad Part [9223740]"},{"mesh":12,"translation":[-0.71602607,1.721485,-1.0332044],"rotation":[-0.0,-0.7071068,0.0,0.7071067],"name":"OPT006 - Optik Glass Pad Part [9223734]"},{"mesh":12,"translation":[-0.44932607,1.5544546,-1.0332044],"rotation":[-0.0,-0.7071068,0.0,0.7071067],"name":"OPT006 - Optik Glass Pad Part [9223702]"},{"mesh":12,"translation":[-0.44932607,1.8084546,-1.0332044],"rotation":[-0.0,-0.7071068,0.0,0.7071067],"name":"OPT006 - Optik Glass Pad Part [9223696]"},{"mesh":12,"translation":[1.4287454,2.8346148,-1.0332044],"rotation":[-0.0,-0.7071068,0.0,0.7071067],"name":"OPT006 - Optik Glass Pad Part [9223664]"},{"mesh":12,"translation":[1.4287454,3.0886145,-1.0332044],"rotation":[-0.0,-0.7071068,0.0,0.7071067],"name":"OPT006 - Optik Glass Pad Part [9223658]"},{"mesh":12,"translation":[0.6293151,2.2859745,-1.0332044],"rotation":[-0.0,-0.7071068,0.0,0.7071067],"name":"OPT006 - Optik Glass Pad Part [9223626]"},{"mesh":12,"translation":[0.6293151,2.5399747,-1.0332044],"rotation":[-0.0,-0.7071068,0.0,0.7071067],"name":"OPT006 - Optik Glass Pad Part [9223620]"},{"mesh":12,"translation":[0.36284298,2.1030943,-1.0332044],"rotation":[-0.0,-0.7071068,0.0,0.7071067],"name":"OPT006 - Optik Glass Pad Part [9223588]"},{"mesh":12,"translation":[0.36284298,2.3570948,-1.0332044],"rotation":[-0.0,-0.7071068,0.0,0.7071067],"name":"OPT006 - Optik Glass Pad Part [9223582]"},{"mesh":12,"translation":[-0.4175515,0.45717472,1.5058869],"rotation":[-0.0,-1.0,0.0,-1.6292068E-07],"name":"OPT006 - Optik Glass Pad Part [9223398]"},{"mesh":12,"translation":[-0.4175515,0.7111746,1.5058869],"rotation":[-0.0,-1.0,0.0,-1.6292068E-07],"name":"OPT006 - Optik Glass Pad Part [9223392]"},{"mesh":12,"translation":[-0.4175515,0.8229347,0.9735472],"rotation":[-0.0,-1.0,0.0,-1.6292068E-07],"name":"OPT006 - Optik Glass Pad Part [9223360]"},{"mesh":12,"translation":[-0.4175515,1.0769343,0.9735472],"rotation":[-0.0,-1.0,0.0,-1.6292068E-07],"name":"OPT006 - Optik Glass Pad Part [9223354]"},{"mesh":12,"translation":[-0.4175515,1.0058148,0.70801455],"rotation":[-0.0,-1.0,0.0,-1.6292068E-07],"name":"OPT006 - Optik Glass Pad Part [9223322]"},{"mesh":12,"translation":[-0.4175515,1.2598144,0.70801455],"rotation":[-0.0,-1.0,0.0,-1.6292068E-07],"name":"OPT006 - Optik Glass Pad Part [9223316]"},{"mesh":13,"translation":[-1.3668379,1.4674848,-0.074374564],"name":"OPT006A - Optik Glass Pad Part [9224005]"},{"mesh":13,"translation":[-1.3668379,1.721485,-0.074374564],"name":"OPT006A - Optik Glass Pad Part [9223999]"},{"mesh":13,"translation":[-1.3668422,1.4674848,-0.88134855],"name":"OPT006A - Optik Glass Pad Part [9223815]"},{"mesh":13,"translation":[-1.3668422,1.721485,-0.88134855],"name":"OPT006A - Optik Glass Pad Part [9223809]"},{"mesh":13,"translation":[-0.71602607,1.4674848,-1.0173309],"rotation":[-0.0,-0.7071068,0.0,0.7071067],"name":"OPT006A - Optik Glass Pad Part [9223739]"},{"mesh":13,"translation":[-0.71602607,1.721485,-1.0173309],"rotation":[-0.0,-0.7071068,0.0,0.7071067],"name":"OPT006A - Optik Glass Pad Part [9223733]"},{"mesh":13,"translation":[-0.44932607,1.5544546,-1.0173309],"rotation":[-0.0,-0.7071068,0.0,0.7071067],"name":"OPT006A - Optik Glass Pad Part [9223701]"},{"mesh":13,"translation":[-0.44932607,1.8084546,-1.0173309],"rotation":[-0.0,-0.7071068,0.0,0.7071067],"name":"OPT006A - Optik Glass Pad Part [9223695]"},{"mesh":13,"translation":[1.4287454,2.8346148,-1.0173309],"rotation":[-0.0,-0.7071068,0.0,0.7071067],"name":"OPT006A - Optik Glass Pad Part [9223663]"},{"mesh":13,"translation":[1.4287454,3.0886145,-1.0173309],"rotation":[-0.0,-0.7071068,0.0,0.7071067],"name":"OPT006A - Optik Glass Pad Part [9223657]"},{"mesh":13,"translation":[0.6293151,2.2859745,-1.0173309],"rotation":[-0.0,-0.7071068,0.0,0.7071067],"name":"OPT006A - Optik Glass Pad Part [9223625]"},{"mesh":13,"translation":[0.6293151,2.5399747,-1.0173309],"rotation":[-0.0,-0.7071068,0.0,0.7071067],"name":"OPT006A - Optik Glass Pad Part [9223619]"},{"mesh":13,"translation":[0.36284298,2.1030943,-1.0173309],"rotation":[-0.0,-0.7071068,0.0,0.7071067],"name":"OPT006A - Optik Glass Pad Part [9223587]"},{"mesh":13,"translation":[0.36284298,2.3570948,-1.0173309],"rotation":[-0.0,-0.7071068,0.0,0.7071067],"name":"OPT006A - Optik Glass Pad Part [9223581]"},{"mesh":13,"translation":[-0.43342492,0.45717472,1.5058869],"rotation":[-0.0,-1.0,0.0,-1.6292068E-07],"name":"OPT006A - Optik Glass Pad Part [9223397]"},{"mesh":13,"translation":[-0.43342492,0.7111746,1.5058869],"rotation":[-0.0,-1.0,0.0,-1.6292068E-07],"name":"OPT006A - Optik Glass Pad Part [9223391]"},{"mesh":13,"translation":[-0.43342492,0.8229347,0.9735472],"rotation":[-0.0,-1.0,0.0,-1.6292068E-07],"name":"OPT006A - Optik Glass Pad Part [9223359]"},{"mesh":13,"translation":[-0.43342492,1.0769343,0.9735472],"rotation":[-0.0,-1.0,0.0,-1.6292068E-07],"name":"OPT006A - Optik Glass Pad Part [9223353]"},{"mesh":13,"translation":[-0.43342492,1.0058148,0.70801455],"rotation":[-0.0,-1.0,0.0,-1.6292068E-07],"name":"OPT006A - Optik Glass Pad Part [9223321]"},{"mesh":13,"translation":[-0.43342492,1.2598144,0.70801455],"rotation":[-0.0,-1.0,0.0,-1.6292068E-07],"name":"OPT006A - Optik Glass Pad Part [9223315]"},{"mesh":14,"translation":[-1.3890643,1.4674848,-0.074374564],"name":"CSQ088 - Circum Square Lo-Post Spacer Part [9223427]050"},{"mesh":14,"translation":[-1.3890643,1.721485,-0.074374564],"name":"CSQ088 - Circum Square Lo-Post Spacer Part [9223427]049"},{"mesh":14,"translation":[-1.3890641,1.4674848,-0.88134855],"name":"CSQ088 - Circum Square Lo-Post Spacer Part [9223427]040"},{"mesh":14,"translation":[-1.3890641,1.721485,-0.88134855],"name":"CSQ088 - Circum Square Lo-Post Spacer Part [9223427]039"},{"mesh":14,"translation":[-1.2308598,1.4674848,-1.0395528],"rotation":[-0.0,-0.7071068,0.0,0.7071067],"name":"CSQ088 - Circum Square Lo-Post Spacer Part [9223427]038"},{"mesh":14,"translation":[-1.2308598,1.721485,-1.0395528],"rotation":[-0.0,-0.7071068,0.0,0.7071067],"name":"CSQ088 - Circum Square Lo-Post Spacer Part [9223427]037"},{"mesh":14,"translation":[-0.71602607,1.4674848,-1.0395528],"rotation":[-0.0,-0.7071068,0.0,0.7071067],"name":"CSQ088 - Circum Square Lo-Post Spacer Part [9223427]036"},{"mesh":14,"translation":[-0.71602607,1.721485,-1.0395528],"rotation":[-0.0,-0.7071068,0.0,0.7071067],"name":"CSQ088 - Circum Square Lo-Post Spacer Part [9223427]035"},{"mesh":14,"translation":[-0.44932607,1.5544546,-1.0395528],"rotation":[-0.0,-0.7071068,0.0,0.7071067],"name":"CSQ088 - Circum Square Lo-Post Spacer Part [9223427]034"},{"mesh":14,"translation":[-0.44932607,1.8084546,-1.0395528],"rotation":[-0.0,-0.7071068,0.0,0.7071067],"name":"CSQ088 - Circum Square Lo-Post Spacer Part [9223427]033"},{"mesh":14,"translation":[1.4287454,2.8346148,-1.0395528],"rotation":[-0.0,-0.7071068,0.0,0.7071067],"name":"CSQ088 - Circum Square Lo-Post Spacer Part [9223427]032"},{"mesh":14,"translation":[1.4287454,3.0886145,-1.0395528],"rotation":[-0.0,-0.7071068,0.0,0.7071067],"name":"CSQ088 - Circum Square Lo-Post Spacer Part [9223427]031"},{"mesh":14,"translation":[0.6293151,2.2859745,-1.0395528],"rotation":[-0.0,-0.7071068,0.0,0.7071067],"name":"CSQ088 - Circum Square Lo-Post Spacer Part [9223427]030"},{"mesh":14,"translation":[0.6293151,2.5399747,-1.0395528],"rotation":[-0.0,-0.7071068,0.0,0.7071067],"name":"CSQ088 - Circum Square Lo-Post Spacer Part [9223427]029"},{"mesh":14,"translation":[0.36284298,2.1030943,-1.0395528],"rotation":[-0.0,-0.7071068,0.0,0.7071067],"name":"CSQ088 - Circum Square Lo-Post Spacer Part [9223427]028"},{"mesh":14,"translation":[0.36284298,2.3570948,-1.0395528],"rotation":[-0.0,-0.7071068,0.0,0.7071067],"name":"CSQ088 - Circum Square Lo-Post Spacer Part [9223427]027"},{"mesh":14,"translation":[-1.3890643,0.45717472,1.5058869],"name":"CSQ088 - Circum Square Lo-Post Spacer Part [9223427]026"},{"mesh":14,"translation":[-1.3890643,0.7111746,1.5058869],"name":"CSQ088 - Circum Square Lo-Post Spacer Part [9223427]025"},{"mesh":14,"translation":[-1.3890643,0.8229347,0.9735472],"name":"CSQ088 - Circum Square Lo-Post Spacer Part [9223427]024"},{"mesh":14,"translation":[-1.3890643,1.0769343,0.9735472],"name":"CSQ088 - Circum Square Lo-Post Spacer Part [9223427]023"},{"mesh":14,"translation":[-1.3890643,1.0058148,0.70801455],"name":"CSQ088 - Circum Square Lo-Post Spacer Part [9223427]022"},{"mesh":14,"translation":[-1.3890643,1.2598144,0.70801455],"name":"CSQ088 - Circum Square Lo-Post Spacer Part [9223427]021"},{"mesh":14,"translation":[-1.3890643,1.3715744,0.17503314],"name":"CSQ088 - Circum Square Lo-Post Spacer Part [9223427]020"},{"mesh":14,"translation":[-1.3890643,1.6255746,0.17503314],"name":"CSQ088 - Circum Square Lo-Post Spacer Part [9223427]019"},{"mesh":14,"translation":[-0.41120303,0.45717472,1.5058869],"rotation":[-0.0,-1.0,0.0,-1.6292068E-07],"name":"CSQ088 - Circum Square Lo-Post Spacer Part [9223427]018"},{"mesh":14,"translation":[-0.41120303,0.7111746,1.5058869],"rotation":[-0.0,-1.0,0.0,-1.6292068E-07],"name":"CSQ088 - Circum Square Lo-Post Spacer Part [9223427]017"},{"mesh":14,"translation":[-0.41120303,0.8229347,0.9735472],"rotation":[-0.0,-1.0,0.0,-1.6292068E-07],"name":"CSQ088 - Circum Square Lo-Post Spacer Part [9223427]016"},{"mesh":14,"translation":[-0.41120303,1.0769343,0.9735472],"rotation":[-0.0,-1.0,0.0,-1.6292068E-07],"name":"CSQ088 - Circum Square Lo-Post Spacer Part [9223427]015"},{"mesh":14,"translation":[-0.41120303,1.0058148,0.70801455],"rotation":[-0.0,-1.0,0.0,-1.6292068E-07],"name":"CSQ088 - Circum Square Lo-Post Spacer Part [9223427]014"},{"mesh":14,"translation":[-0.41120303,1.2598144,0.70801455],"rotation":[-0.0,-1.0,0.0,-1.6292068E-07],"name":"CSQ088 - Circum Square Lo-Post Spacer Part [9223427]013"},{"mesh":14,"translation":[1.4287454,2.8346148,-0.061691582],"rotation":[-0.0,0.7071068,0.0,0.7071067],"name":"CSQ088 - Circum Square Lo-Post Spacer Part [9223427]010"},{"mesh":14,"translation":[1.4287454,3.0886145,-0.061691582],"rotation":[-0.0,0.7071068,0.0,0.7071067],"name":"CSQ088 - Circum Square Lo-Post Spacer Part [9223427]009"},{"mesh":14,"translation":[0.6293151,2.2859745,-0.061691582],"rotation":[-0.0,0.7071068,0.0,0.7071067],"name":"CSQ088 - Circum Square Lo-Post Spacer Part [9223427]008"},{"mesh":14,"translation":[0.6293151,2.5399747,-0.061691582],"rotation":[-0.0,0.7071068,0.0,0.7071067],"name":"CSQ088 - Circum Square Lo-Post Spacer Part [9223427]007"},{"mesh":14,"translation":[0.36284298,2.1030943,-0.061691582],"rotation":[-0.0,0.7071068,0.0,0.7071067],"name":"CSQ088 - Circum Square Lo-Post Spacer Part [9223427]006"},{"mesh":14,"translation":[0.36284298,2.3570948,-0.061691582],"rotation":[-0.0,0.7071068,0.0,0.7071067],"name":"CSQ088 - Circum Square Lo-Post Spacer Part [9223427]005"},{"mesh":14,"translation":[-0.21865472,1.7373347,-0.061691582],"rotation":[-0.0,0.7071068,0.0,0.7071067],"name":"CSQ088 - Circum Square Lo-Post Spacer Part [9223427]004"},{"mesh":14,"translation":[-0.21865472,1.9913349,-0.061691582],"rotation":[-0.0,0.7071068,0.0,0.7071067],"name":"CSQ088 - Circum Square Lo-Post Spacer Part [9223427]003"},{"mesh":14,"translation":[-0.41121292,1.6255746,0.1385099],"rotation":[-0.0,-1.0,0.0,-4.371139E-08],"name":"CSQ088 - Circum Square Lo-Post Spacer Part [9223427]051"},{"mesh":14,"translation":[-0.41121292,1.3715744,0.1385099],"rotation":[-0.0,-1.0,0.0,-4.371139E-08],"name":"CSQ088 - Circum Square Lo-Post Spacer Part [9223427]052"},{"mesh":15,"translation":[-1.4144628,1.2801597,-0.074374564],"rotation":[-0.0,-1.0,0.0,-1.6292068E-07],"name":"CSQ001-US - Surface Mount Weldment Part [8723797]063"},{"mesh":15,"translation":[-1.4144672,1.2801597,-0.88134855],"rotation":[-0.0,-1.0,0.0,2.8212997E-07],"name":"CSQ001-US - Surface Mount Weldment Part [8723797]058"},{"mesh":15,"translation":[-1.2308598,1.2801597,-1.064956],"rotation":[-0.0,0.7071068,0.0,0.7071067],"name":"CSQ001-US - Surface Mount Weldment Part [8723797]057"},{"mesh":15,"translation":[-0.71602607,1.2801597,-1.064956],"rotation":[-0.0,0.7071068,0.0,0.7071067],"name":"CSQ001-US - Surface Mount Weldment Part [8723797]056"},{"mesh":15,"translation":[-0.44932607,1.2801597,-1.064956],"rotation":[-0.0,0.7071068,0.0,0.7071067],"name":"CSQ001-US - Surface Mount Weldment Part [8723797]055"},{"mesh":15,"translation":[1.4287454,2.56032,-1.064956],"rotation":[-0.0,0.7071068,0.0,0.7071067],"name":"CSQ001-US - Surface Mount Weldment Part [8723797]054"},{"mesh":15,"translation":[0.6293151,2.01168,-1.064956],"rotation":[-0.0,0.7071068,0.0,0.7071067],"name":"CSQ001-US - Surface Mount Weldment Part [8723797]053"},{"mesh":15,"translation":[0.36284298,1.8288,-1.064956],"rotation":[-0.0,0.7071068,0.0,0.7071067],"name":"CSQ001-US - Surface Mount Weldment Part [8723797]052"},{"mesh":15,"translation":[-1.4144628,0.18288012,1.5058869],"rotation":[-0.0,-1.0,0.0,-1.6292068E-07],"name":"CSQ001-US - Surface Mount Weldment Part [8723797]051"},{"mesh":15,"translation":[-1.4144628,0.5486401,0.9735472],"rotation":[-0.0,-1.0,0.0,-1.6292068E-07],"name":"CSQ001-US - Surface Mount Weldment Part [8723797]050"},{"mesh":15,"translation":[-1.4144628,0.7315199,0.70801455],"rotation":[-0.0,-1.0,0.0,-1.6292068E-07],"name":"CSQ001-US - Surface Mount Weldment Part [8723797]049"},{"mesh":15,"translation":[-1.4144628,1.0972801,0.17503314],"rotation":[-0.0,-1.0,0.0,-1.6292068E-07],"name":"CSQ001-US - Surface Mount Weldment Part [8723797]048"},{"mesh":15,"translation":[-0.38579994,0.18288012,1.5058869],"name":"CSQ001-US - Surface Mount Weldment Part [8723797]047"},{"mesh":15,"translation":[-0.38579994,0.5486401,0.9735472],"name":"CSQ001-US - Surface Mount Weldment Part [8723797]046"},{"mesh":15,"translation":[-0.38579994,0.7315199,0.70801455],"name":"CSQ001-US - Surface Mount Weldment Part [8723797]045"},{"mesh":15,"translation":[1.4287454,2.56032,-0.036293134],"rotation":[-0.0,-0.7071068,0.0,0.7071067],"name":"CSQ001-US - Surface Mount Weldment Part [8723797]043"},{"mesh":15,"translation":[0.6293151,2.01168,-0.036293134],"rotation":[-0.0,-0.7071068,0.0,0.7071067],"name":"CSQ001-US - Surface Mount Weldment Part [8723797]042"},{"mesh":15,"translation":[0.36284298,1.8288,-0.036293134],"rotation":[-0.0,-0.7071068,0.0,0.7071067],"name":"CSQ001-US - Surface Mount Weldment Part [8723797]041"},{"mesh":15,"translation":[-0.21865472,1.4630404,-0.036293134],"rotation":[-0.0,-0.7071068,0.0,0.7071067],"name":"CSQ001-US - Surface Mount Weldment Part [8723797]040"},{"mesh":15,"translation":[-0.38581446,1.0972801,0.1385099],"rotation":[-0.0,-3.2584137E-07,0.0,1.0],"name":"CSQ001-US - Surface Mount Weldment Part [8723797]064"},{"mesh":16,"translation":[-1.4144628,1.2801597,-0.074374564],"rotation":[-0.7071067,-0.7071068,-1.1520233E-07,-1.1520231E-07],"name":"LS208 & LS209 - Circum Square Post Material LS Material [9223995]"},{"mesh":17,"translation":[-1.4144628,1.7500601,-0.074374564],"rotation":[-0.0,-1.0,0.0,-1.6292068E-07],"name":"CSQ022 - Square Post Omaha Cap Part [8465283]063"},{"mesh":17,"translation":[-1.4144672,1.7500601,-0.88134855],"rotation":[-0.0,-1.0,0.0,2.8212997E-07],"name":"CSQ022 - Square Post Omaha Cap Part [8465283]058"},{"mesh":17,"translation":[-1.2308598,1.7500601,-1.064956],"rotation":[-0.0,0.7071068,0.0,0.7071067],"name":"CSQ022 - Square Post Omaha Cap Part [8465283]057"},{"mesh":17,"translation":[-0.71602607,1.7500601,-1.064956],"rotation":[-0.0,0.7071068,0.0,0.7071067],"name":"CSQ022 - Square Post Omaha Cap Part [8465283]056"},{"mesh":17,"translation":[-0.44932607,1.8370296,-1.064956],"rotation":[-0.0,0.7071068,0.0,0.7071067],"name":"CSQ022 - Square Post Omaha Cap Part [8465283]055"},{"mesh":17,"translation":[1.4287454,3.1171894,-1.064956],"rotation":[-0.0,0.7071068,0.0,0.7071067],"name":"CSQ022 - Square Post Omaha Cap Part [8465283]054"},{"mesh":17,"translation":[0.6293151,2.5685496,-1.064956],"rotation":[-0.0,0.7071068,0.0,0.7071067],"name":"CSQ022 - Square Post Omaha Cap Part [8465283]053"},{"mesh":17,"translation":[0.36284298,2.3856697,-1.064956],"rotation":[-0.0,0.7071068,0.0,0.7071067],"name":"CSQ022 - Square Post Omaha Cap Part [8465283]052"},{"mesh":17,"translation":[-1.4144628,0.7397496,1.5058869],"rotation":[-0.0,-1.0,0.0,-1.6292068E-07],"name":"CSQ022 - Square Post Omaha Cap Part [8465283]051"},{"mesh":17,"translation":[-1.4144628,1.1055093,0.9735472],"rotation":[-0.0,-1.0,0.0,-1.6292068E-07],"name":"CSQ022 - Square Post Omaha Cap Part [8465283]050"},{"mesh":17,"translation":[-1.4144628,1.2883894,0.70801455],"rotation":[-0.0,-1.0,0.0,-1.6292068E-07],"name":"CSQ022 - Square Post Omaha Cap Part [8465283]049"},{"mesh":17,"translation":[-1.4144628,1.6541497,0.17503314],"rotation":[-0.0,-1.0,0.0,-1.6292068E-07],"name":"CSQ022 - Square Post Omaha Cap Part [8465283]048"},{"mesh":17,"translation":[-0.38579994,0.7397496,1.5058869],"name":"CSQ022 - Square Post Omaha Cap Part [8465283]047"},{"mesh":17,"translation":[-0.38579994,1.1055093,0.9735472],"name":"CSQ022 - Square Post Omaha Cap Part [8465283]046"},{"mesh":17,"translation":[-0.38579994,1.2883894,0.70801455],"name":"CSQ022 - Square Post Omaha Cap Part [8465283]045"},{"mesh":17,"translation":[1.4287454,3.1171894,-0.036293134],"rotation":[-0.0,-0.7071068,0.0,0.7071067],"name":"CSQ022 - Square Post Omaha Cap Part [8465283]043"},{"mesh":17,"translation":[0.6293151,2.5685496,-0.036293134],"rotation":[-0.0,-0.7071068,0.0,0.7071067],"name":"CSQ022 - Square Post Omaha Cap Part [8465283]042"},{"mesh":17,"translation":[0.36284298,2.3856697,-0.036293134],"rotation":[-0.0,-0.7071068,0.0,0.7071067],"name":"CSQ022 - Square Post Omaha Cap Part [8465283]041"},{"mesh":17,"translation":[-0.21865472,2.0199099,-0.036293134],"rotation":[-0.0,-0.7071068,0.0,0.7071067],"name":"CSQ022 - Square Post Omaha Cap Part [8465283]040"},{"mesh":17,"translation":[-0.38581446,1.6541497,0.1385099],"rotation":[-0.0,-3.2584137E-07,0.0,1.0],"name":"CSQ022 - Square Post Omaha Cap Part [8465283]064"},{"mesh":18,"translation":[-1.3660518,1.721485,-0.074374564],"rotation":[-0.0,0.70710695,0.0,0.7071066],"name":"CSQ086 - Circum Lo-Post Cover Part [9223866]025"},{"mesh":18,"translation":[-1.3660516,1.721485,-0.88134855],"rotation":[-0.0,0.7071068,0.0,0.7071067],"name":"CSQ086 - Circum Lo-Post Cover Part [9223866]020"},{"mesh":18,"translation":[-1.2308598,1.721485,-1.0165403],"rotation":[-0.0,-2.3841858E-07,0.0,1.0],"name":"CSQ086 - Circum Lo-Post Cover Part [9223866]019"},{"mesh":18,"translation":[-0.71602607,1.721485,-1.0165403],"name":"CSQ086 - Circum Lo-Post Cover Part [9223866]018"},{"mesh":18,"translation":[-0.44932607,1.8084546,-1.0165403],"name":"CSQ086 - Circum Lo-Post Cover Part [9223866]017"},{"mesh":18,"translation":[1.4287454,3.0886145,-1.0165403],"name":"CSQ086 - Circum Lo-Post Cover Part [9223866]016"},{"mesh":18,"translation":[0.6293151,2.5399747,-1.0165403],"name":"CSQ086 - Circum Lo-Post Cover Part [9223866]015"},{"mesh":18,"translation":[0.36284298,2.3570948,-1.0165403],"name":"CSQ086 - Circum Lo-Post Cover Part [9223866]014"},{"mesh":18,"translation":[-1.3660518,0.7111746,1.5058869],"rotation":[-0.0,0.7071068,0.0,0.7071067],"name":"CSQ086 - Circum Lo-Post Cover Part [9223866]013"},{"mesh":18,"translation":[-1.3660518,1.0769343,0.9735472],"rotation":[-0.0,0.7071068,0.0,0.7071067],"name":"CSQ086 - Circum Lo-Post Cover Part [9223866]012"},{"mesh":18,"translation":[-1.3660518,1.2598144,0.70801455],"rotation":[-0.0,0.7071068,0.0,0.7071067],"name":"CSQ086 - Circum Lo-Post Cover Part [9223866]011"},{"mesh":18,"translation":[-1.3660518,1.6255746,0.17503314],"rotation":[-0.0,0.7071068,0.0,0.7071067],"name":"CSQ086 - Circum Lo-Post Cover Part [9223866]010"},{"mesh":18,"translation":[-0.43421558,0.7111746,1.5058869],"rotation":[-0.0,-0.7071068,0.0,0.7071067],"name":"CSQ086 - Circum Lo-Post Cover Part [9223866]009"},{"mesh":18,"translation":[-0.43421558,1.0769343,0.9735472],"rotation":[-0.0,-0.7071068,0.0,0.7071067],"name":"CSQ086 - Circum Lo-Post Cover Part [9223866]008"},{"mesh":18,"translation":[-0.43421558,1.2598144,0.70801455],"rotation":[-0.0,-0.7071068,0.0,0.7071067],"name":"CSQ086 - Circum Lo-Post Cover Part [9223866]007"},{"mesh":18,"translation":[1.4287454,3.0886145,-0.08470413],"rotation":[-0.0,-1.0,0.0,4.371139E-08],"name":"CSQ086 - Circum Lo-Post Cover Part [9223866]005"},{"mesh":18,"translation":[0.6293151,2.5399747,-0.08470413],"rotation":[-0.0,-1.0,0.0,4.371139E-08],"name":"CSQ086 - Circum Lo-Post Cover Part [9223866]004"},{"mesh":18,"translation":[0.36284298,2.3570948,-0.08470413],"rotation":[-0.0,-1.0,0.0,4.371139E-08],"name":"CSQ086 - Circum Lo-Post Cover Part [9223866]003"},{"mesh":18,"translation":[-0.21865472,1.9913349,-0.08470413],"rotation":[-0.0,-1.0,0.0,4.371139E-08],"name":"CSQ086 - Circum Lo-Post Cover Part [9223866]002"},{"mesh":18,"translation":[-0.43422547,1.6255746,0.1385099],"rotation":[-0.0,-0.7071068,0.0,0.7071067],"name":"CSQ086 - Circum Lo-Post Cover Part [9223866]026"},{"mesh":19,"translation":[-1.4144672,1.2801597,-0.88134855],"rotation":[-0.7071067,-0.7071068,1.784226E-07,1.784226E-07],"name":"LS208 & LS209 - Circum Square Post Material LS Material [9223805]"},{"mesh":20,"translation":[-1.2308598,1.4674848,-1.0332044],"rotation":[-0.0,-0.7071068,0.0,0.7071067],"name":"OPT006 - Optik Glass Pad Part [9223778]"},{"mesh":20,"translation":[-1.2308598,1.721485,-1.0332044],"rotation":[-0.0,-0.7071068,0.0,0.7071067],"name":"OPT006 - Optik Glass Pad Part [9223772]"},{"mesh":20,"translation":[-1.382716,0.45717472,1.5058869],"name":"OPT006 - Optik Glass Pad Part [9223550]"},{"mesh":20,"translation":[-1.382716,0.7111746,1.5058869],"name":"OPT006 - Optik Glass Pad Part [9223544]"},{"mesh":20,"translation":[-1.382716,0.8229347,0.9735472],"name":"OPT006 - Optik Glass Pad Part [9223512]"},{"mesh":20,"translation":[-1.382716,1.0769343,0.9735472],"name":"OPT006 - Optik Glass Pad Part [9223506]"},{"mesh":20,"translation":[-1.382716,1.0058148,0.70801455],"name":"OPT006 - Optik Glass Pad Part [9223474]"},{"mesh":20,"translation":[-1.382716,1.2598144,0.70801455],"name":"OPT006 - Optik Glass Pad Part [9223468]"},{"mesh":20,"translation":[-1.382716,1.3715744,0.17503314],"name":"OPT006 - Optik Glass Pad Part [9223436]"},{"mesh":20,"translation":[-1.382716,1.6255746,0.17503314],"name":"OPT006 - Optik Glass Pad Part [9223430]"},{"mesh":20,"translation":[1.4287454,2.8346148,-0.068040036],"rotation":[-0.0,0.7071068,0.0,0.7071067],"name":"OPT006 - Optik Glass Pad Part [9223246]"},{"mesh":20,"translation":[1.4287454,3.0886145,-0.068040036],"rotation":[-0.0,0.7071068,0.0,0.7071067],"name":"OPT006 - Optik Glass Pad Part [9223240]"},{"mesh":20,"translation":[0.6293151,2.2859745,-0.068040036],"rotation":[-0.0,0.7071068,0.0,0.7071067],"name":"OPT006 - Optik Glass Pad Part [9223208]"},{"mesh":20,"translation":[0.6293151,2.5399747,-0.068040036],"rotation":[-0.0,0.7071068,0.0,0.7071067],"name":"OPT006 - Optik Glass Pad Part [9223202]"},{"mesh":20,"translation":[0.36284298,2.1030943,-0.068040036],"rotation":[-0.0,0.7071068,0.0,0.7071067],"name":"OPT006 - Optik Glass Pad Part [9223170]"},{"mesh":20,"translation":[0.36284298,2.3570948,-0.068040036],"rotation":[-0.0,0.7071068,0.0,0.7071067],"name":"OPT006 - Optik Glass Pad Part [9223164]"},{"mesh":20,"translation":[-0.21865472,1.7373347,-0.068040036],"rotation":[-0.0,0.7071068,0.0,0.7071067],"name":"OPT006 - Optik Glass Pad Part [9223131]"},{"mesh":20,"translation":[-0.21865472,1.9913349,-0.068040036],"rotation":[-0.0,0.7071068,0.0,0.7071067],"name":"OPT006 - Optik Glass Pad Part [9223123]"},{"mesh":20,"translation":[-0.41756135,1.6255746,0.1385099],"rotation":[-0.0,-1.0,0.0,-4.371139E-08],"name":"OPT006 - Optik Glass Pad Part [9223430]001"},{"mesh":20,"translation":[-0.41756135,1.3715744,0.1385099],"rotation":[-0.0,-1.0,0.0,-4.371139E-08],"name":"OPT006 - Optik Glass Pad Part [9223436]001"},{"mesh":21,"translation":[-1.2308598,1.4674848,-1.0173309],"rotation":[-0.0,-0.7071068,0.0,0.7071067],"name":"OPT006A - Optik Glass Pad Part [9223777]"},{"mesh":21,"translation":[-1.2308598,1.721485,-1.0173309],"rotation":[-0.0,-0.7071068,0.0,0.7071067],"name":"OPT006A - Optik Glass Pad Part [9223771]"},{"mesh":21,"translation":[-1.3668379,0.45717472,1.5058869],"name":"OPT006A - Optik Glass Pad Part [9223549]"},{"mesh":21,"translation":[-1.3668379,0.7111746,1.5058869],"name":"OPT006A - Optik Glass Pad Part [9223543]"},{"mesh":21,"translation":[-1.3668379,0.8229347,0.9735472],"name":"OPT006A - Optik Glass Pad Part [9223511]"},{"mesh":21,"translation":[-1.3668379,1.0769343,0.9735472],"name":"OPT006A - Optik Glass Pad Part [9223505]"},{"mesh":21,"translation":[-1.3668379,1.0058148,0.70801455],"name":"OPT006A - Optik Glass Pad Part [9223473]"},{"mesh":21,"translation":[-1.3668379,1.2598144,0.70801455],"name":"OPT006A - Optik Glass Pad Part [9223467]"},{"mesh":21,"translation":[-1.3668379,1.3715744,0.17503314],"name":"OPT006A - Optik Glass Pad Part [9223435]"},{"mesh":21,"translation":[-1.3668379,1.6255746,0.17503314],"name":"OPT006A - Optik Glass Pad Part [9223429]"},{"mesh":21,"translation":[1.4287454,2.8346148,-0.08391813],"rotation":[-0.0,0.7071068,0.0,0.7071067],"name":"OPT006A - Optik Glass Pad Part [9223245]"},{"mesh":21,"translation":[1.4287454,3.0886145,-0.08391813],"rotation":[-0.0,0.7071068,0.0,0.7071067],"name":"OPT006A - Optik Glass Pad Part [9223239]"},{"mesh":21,"translation":[0.6293151,2.2859745,-0.08391813],"rotation":[-0.0,0.7071068,0.0,0.7071067],"name":"OPT006A - Optik Glass Pad Part [9223207]"},{"mesh":21,"translation":[0.6293151,2.5399747,-0.08391813],"rotation":[-0.0,0.7071068,0.0,0.7071067],"name":"OPT006A - Optik Glass Pad Part [9223201]"},{"mesh":21,"translation":[0.36284298,2.1030943,-0.08391813],"rotation":[-0.0,0.7071068,0.0,0.7071067],"name":"OPT006A - Optik Glass Pad Part [9223169]"},{"mesh":21,"translation":[0.36284298,2.3570948,-0.08391813],"rotation":[-0.0,0.7071068,0.0,0.7071067],"name":"OPT006A - Optik Glass Pad Part [9223163]"},{"mesh":21,"translation":[-0.21865472,1.7373347,-0.08391813],"rotation":[-0.0,0.7071068,0.0,0.7071067],"name":"OPT006A - Optik Glass Pad Part [9223130]"},{"mesh":21,"translation":[-0.21865472,1.9913349,-0.08391813],"rotation":[-0.0,0.7071068,0.0,0.7071067],"name":"OPT006A - Optik Glass Pad Part [9223122]"},{"mesh":21,"translation":[-0.43343946,1.6255746,0.1385099],"rotation":[-0.0,-1.0,0.0,-4.371139E-08],"name":"OPT006A - Optik Glass Pad Part [9223429]001"},{"mesh":21,"translation":[-0.43343946,1.3715744,0.1385099],"rotation":[-0.0,-1.0,0.0,-4.371139E-08],"name":"OPT006A - Optik Glass Pad Part [9223435]001"},{"mesh":22,"translation":[-1.2308598,1.2801597,-1.064956],"rotation":[0.5000001,0.49999997,0.49999985,0.50000006],"name":"LS208 & LS209 - Circum Square Post Material LS Material [9223767]"},{"mesh":23,"translation":[-0.71602607,1.2801597,-1.064956],"rotation":[0.5000001,0.49999997,0.49999985,0.50000006],"name":"LS208 & LS209 - Circum Square Post Material LS Material [9223729]"},{"mesh":24,"translation":[-0.44932607,1.2801597,-1.064956],"rotation":[0.5000001,0.49999997,0.49999985,0.50000006],"name":"LS208 & LS209 - Circum Square Post Material LS Material [9223691]"},{"mesh":25,"translation":[1.4287454,2.56032,-1.064956],"rotation":[0.5000001,0.49999997,0.49999985,0.50000006],"name":"LS208 & LS209 - Circum Square Post Material LS Material [9223653]"},{"mesh":26,"translation":[0.6293151,2.01168,-1.064956],"rotation":[0.5000001,0.49999997,0.49999985,0.50000006],"name":"LS208 & LS209 - Circum Square Post Material LS Material [9223615]"},{"mesh":27,"translation":[0.36284298,1.8288,-1.064956],"rotation":[0.5000001,0.49999997,0.49999985,0.50000006],"name":"LS208 & LS209 - Circum Square Post Material LS Material [9223577]"},{"mesh":28,"translation":[-1.4144628,0.18288012,1.5058869],"rotation":[-0.7071067,-0.7071068,-1.1520233E-07,-1.1520231E-07],"name":"LS208 & LS209 - Circum Square Post Material LS Material [9223539]"},{"mesh":29,"translation":[-1.4144628,0.5486401,0.9735472],"rotation":[-0.7071067,-0.7071068,-1.1520233E-07,-1.1520231E-07],"name":"LS208 & LS209 - Circum Square Post Material LS Material [9223501]"},{"mesh":30,"translation":[-1.4144628,0.7315199,0.70801455],"rotation":[-0.7071067,-0.7071068,-1.1520233E-07,-1.1520231E-07],"name":"LS208 & LS209 - Circum Square Post Material LS Material [9223463]"},{"mesh":31,"translation":[-1.4144628,1.0972801,0.17503314],"rotation":[-0.7071067,-0.7071068,-1.1520233E-07,-1.1520231E-07],"name":"LS208 & LS209 - Circum Square Post Material LS Material [9223425]"},{"mesh":31,"translation":[-0.38581446,1.0972801,0.1385099],"rotation":[-2.3040462E-07,-2.3040465E-07,0.7071068,0.7071067],"name":"LS208 & LS209 - Circum Square Post Material LS Material [9223425]001"},{"mesh":32,"translation":[-0.38579994,0.18288012,1.5058869],"rotation":[6.322028E-08,6.322026E-08,0.70710665,0.7071069],"name":"LS208 & LS209 - Circum Square Post Material LS Material [9223387]"},{"mesh":33,"translation":[-0.38579994,0.5486401,0.9735472],"rotation":[6.322028E-08,6.322026E-08,0.70710665,0.7071069],"name":"LS208 & LS209 - Circum Square Post Material LS Material [9223349]"},{"mesh":34,"translation":[-0.38579994,0.7315199,0.70801455],"rotation":[6.322028E-08,6.322026E-08,0.70710665,0.7071069],"name":"LS208 & LS209 - Circum Square Post Material LS Material [9223311]"},{"mesh":35,"translation":[1.4287454,2.56032,-0.036293134],"rotation":[-0.5,-0.50000006,0.5,0.49999994],"name":"LS208 & LS209 - Circum Square Post Material LS Material [9223235]"},{"mesh":36,"translation":[0.6293151,2.01168,-0.036293134],"rotation":[-0.5,-0.50000006,0.5,0.49999994],"name":"LS208 & LS209 - Circum Square Post Material LS Material [9223197]"},{"mesh":37,"translation":[0.36284298,1.8288,-0.036293134],"rotation":[-0.5,-0.50000006,0.5,0.49999994],"name":"LS208 & LS209 - Circum Square Post Material LS Material [9223159]"},{"mesh":38,"translation":[-0.21865472,1.4630404,-0.036293134],"rotation":[-0.5,-0.50000006,0.5,0.49999994],"name":"LS208 & LS209 - Circum Square Post Material LS Material [9223115]"},{"mesh":39,"translation":[28.89472,0.0,27.28077],"name":"Object"},{"mesh":40,"translation":[0.6784653,3.0497246,-0.07691128],"name":"Generic Models 11 Generic Models 11 [8762451]005"}],"meshes":[{"primitives":[{"attributes":{"POSITION":1,"TANGENT":2,"NORMAL":3,"TEXCOORD_0":4},"indices":0,"material":0}],"name":"Infill_Glass_Raked & Horizontal Generic [8199751]"},{"primitives":[{"attributes":{"POSITION":6,"TANGENT":7,"NORMAL":8,"TEXCOORD_0":9},"indices":5,"material":0}],"name":"Infill_Glass_Raked & Horizontal Generic [8200579]"},{"primitives":[{"attributes":{"POSITION":11,"TANGENT":12,"NORMAL":13,"TEXCOORD_0":14},"indices":10,"material":0}],"name":"Infill_Glass_Transition Generic [8202170]"},{"primitives":[{"attributes":{"POSITION":16,"TANGENT":17,"NORMAL":18,"TEXCOORD_0":19},"indices":15,"material":0}],"name":"Infill_Glass_Raked & Horizontal Generic [8202939]"},{"primitives":[{"attributes":{"POSITION":21,"TANGENT":22,"NORMAL":23,"TEXCOORD_0":24},"indices":20,"material":1},{"attributes":{"POSITION":26,"TANGENT":27,"NORMAL":28,"TEXCOORD_0":29},"indices":25,"material":2}],"name":"Generic Models 1 Generic Models 1 [8568048]"},{"primitives":[{"attributes":{"POSITION":31,"TANGENT":32,"NORMAL":33,"TEXCOORD_0":34},"indices":30,"material":0}],"name":"Infill_Glass_Raked & Horizontal Generic [8735940]"},{"primitives":[{"attributes":{"POSITION":36,"TANGENT":37,"NORMAL":38,"TEXCOORD_0":39},"indices":35,"material":1},{"attributes":{"POSITION":41,"TANGENT":42,"NORMAL":43,"TEXCOORD_0":44},"indices":40,"material":2}],"name":"Generic Models 10 Generic Models 1 [8735975]"},{"primitives":[{"attributes":{"POSITION":46,"TANGENT":47,"NORMAL":48,"TEXCOORD_0":49},"indices":45,"material":0}],"name":"Infill_Glass_Raked & Horizontal Generic [8736296]"},{"primitives":[{"attributes":{"POSITION":51,"TANGENT":52,"NORMAL":53,"TEXCOORD_0":54},"indices":50,"material":0}],"name":"Infill_Glass_Raked & Horizontal Generic [8737682]"},{"primitives":[{"attributes":{"POSITION":56,"TANGENT":57,"NORMAL":58,"TEXCOORD_0":59},"indices":55,"material":0}],"name":"Casework 1 Casework 1 [8738332]"},{"primitives":[{"attributes":{"POSITION":61,"TANGENT":62,"NORMAL":63,"TEXCOORD_0":64},"indices":60,"material":0}],"name":"Infill_Glass_Raked & Horizontal Generic [8738822]"},{"primitives":[{"attributes":{"POSITION":66,"TANGENT":67,"NORMAL":68,"TEXCOORD_0":69},"indices":65,"material":0}],"name":"Infill_Glass_Raked & Horizontal Generic [8739593]"},{"primitives":[{"attributes":{"POSITION":71,"TANGENT":72,"NORMAL":73,"TEXCOORD_0":74},"indices":70,"material":3}],"name":"OPT006 - Optik Glass Pad Part [9224006]"},{"primitives":[{"attributes":{"POSITION":76,"TANGENT":77,"NORMAL":78,"TEXCOORD_0":79},"indices":75,"material":3}],"name":"OPT006A - Optik Glass Pad Part [9224005]"},{"primitives":[{"attributes":{"POSITION":81,"TANGENT":82,"NORMAL":83,"TEXCOORD_0":84},"indices":80,"material":1},{"attributes":{"POSITION":86,"TANGENT":87,"NORMAL":88,"TEXCOORD_0":89},"indices":85,"material":2}],"name":"CSQ088 - Circum Square Lo-Post Spacer Part [9223427]050"},{"primitives":[{"attributes":{"POSITION":91,"TANGENT":92,"NORMAL":93,"TEXCOORD_0":94},"indices":90,"material":1}],"name":"CSQ001-US - Surface Mount Weldment Part [8723797]063"},{"primitives":[{"attributes":{"POSITION":96,"TANGENT":97,"NORMAL":98,"TEXCOORD_0":99},"indices":95,"material":1}],"name":"LS208 & LS209 - Circum Square Post Material LS Material [9223995]"},{"primitives":[{"attributes":{"POSITION":101,"TANGENT":102,"NORMAL":103,"TEXCOORD_0":104},"indices":100,"material":1}],"name":"CSQ022 - Square Post Omaha Cap Part [8465283]063"},{"primitives":[{"attributes":{"POSITION":106,"TANGENT":107,"NORMAL":108,"TEXCOORD_0":109},"indices":105,"material":1},{"attributes":{"POSITION":111,"TANGENT":112,"NORMAL":113,"TEXCOORD_0":114},"indices":110,"material":2}],"name":"CSQ086 - Circum Lo-Post Cover Part [9223866]025"},{"primitives":[{"attributes":{"POSITION":116,"TANGENT":117,"NORMAL":118,"TEXCOORD_0":119},"indices":115,"material":1}],"name":"LS208 & LS209 - Circum Square Post Material LS Material [9223805]"},{"primitives":[{"attributes":{"POSITION":121,"TANGENT":122,"NORMAL":123,"TEXCOORD_0":124},"indices":120,"material":3}],"name":"OPT006 - Optik Glass Pad Part [9223778]"},{"primitives":[{"attributes":{"POSITION":126,"TANGENT":127,"NORMAL":128,"TEXCOORD_0":129},"indices":125,"material":3}],"name":"OPT006A - Optik Glass Pad Part [9223777]"},{"primitives":[{"attributes":{"POSITION":131,"TANGENT":132,"NORMAL":133,"TEXCOORD_0":134},"indices":130,"material":1}],"name":"LS208 & LS209 - Circum Square Post Material LS Material [9223767]"},{"primitives":[{"attributes":{"POSITION":136,"TANGENT":137,"NORMAL":138,"TEXCOORD_0":139},"indices":135,"material":1}],"name":"LS208 & LS209 - Circum Square Post Material LS Material [9223729]"},{"primitives":[{"attributes":{"POSITION":141,"TANGENT":142,"NORMAL":143,"TEXCOORD_0":144},"indices":140,"material":1}],"name":"LS208 & LS209 - Circum Square Post Material LS Material [9223691]"},{"primitives":[{"attributes":{"POSITION":146,"TANGENT":147,"NORMAL":148,"TEXCOORD_0":149},"indices":145,"material":1}],"name":"LS208 & LS209 - Circum Square Post Material LS Material [9223653]"},{"primitives":[{"attributes":{"POSITION":151,"TANGENT":152,"NORMAL":153,"TEXCOORD_0":154},"indices":150,"material":1}],"name":"LS208 & LS209 - Circum Square Post Material LS Material [9223615]"},{"primitives":[{"attributes":{"POSITION":156,"TANGENT":157,"NORMAL":158,"TEXCOORD_0":159},"indices":155,"material":1}],"name":"LS208 & LS209 - Circum Square Post Material LS Material [9223577]"},{"primitives":[{"attributes":{"POSITION":161,"TANGENT":162,"NORMAL":163,"TEXCOORD_0":164},"indices":160,"material":1}],"name":"LS208 & LS209 - Circum Square Post Material LS Material [9223539]"},{"primitives":[{"attributes":{"POSITION":166,"TANGENT":167,"NORMAL":168,"TEXCOORD_0":169},"indices":165,"material":1}],"name":"LS208 & LS209 - Circum Square Post Material LS Material [9223501]"},{"primitives":[{"attributes":{"POSITION":171,"TANGENT":172,"NORMAL":173,"TEXCOORD_0":174},"indices":170,"material":1}],"name":"LS208 & LS209 - Circum Square Post Material LS Material [9223463]"},{"primitives":[{"attributes":{"POSITION":176,"TANGENT":177,"NORMAL":178,"TEXCOORD_0":179},"indices":175,"material":1}],"name":"LS208 & LS209 - Circum Square Post Material LS Material [9223425]"},{"primitives":[{"attributes":{"POSITION":181,"TANGENT":182,"NORMAL":183,"TEXCOORD_0":184},"indices":180,"material":1}],"name":"LS208 & LS209 - Circum Square Post Material LS Material [9223387]"},{"primitives":[{"attributes":{"POSITION":186,"TANGENT":187,"NORMAL":188,"TEXCOORD_0":189},"indices":185,"material":1}],"name":"LS208 & LS209 - Circum Square Post Material LS Material [9223349]"},{"primitives":[{"attributes":{"POSITION":191,"TANGENT":192,"NORMAL":193,"TEXCOORD_0":194},"indices":190,"material":1}],"name":"LS208 & LS209 - Circum Square Post Material LS Material [9223311]"},{"primitives":[{"attributes":{"POSITION":196,"TANGENT":197,"NORMAL":198,"TEXCOORD_0":199},"indices":195,"material":1}],"name":"LS208 & LS209 - Circum Square Post Material LS Material [9223235]"},{"primitives":[{"attributes":{"POSITION":201,"TANGENT":202,"NORMAL":203,"TEXCOORD_0":204},"indices":200,"material":1}],"name":"LS208 & LS209 - Circum Square Post Material LS Material [9223197]"},{"primitives":[{"attributes":{"POSITION":206,"TANGENT":207,"NORMAL":208,"TEXCOORD_0":209},"indices":205,"material":1}],"name":"LS208 & LS209 - Circum Square Post Material LS Material [9223159]"},{"primitives":[{"attributes":{"POSITION":211,"TANGENT":212,"NORMAL":213,"TEXCOORD_0":214},"indices":210,"material":1}],"name":"LS208 & LS209 - Circum Square Post Material LS Material [9223115]"},{"primitives":[{"attributes":{"POSITION":216,"TANGENT":217,"NORMAL":218,"TEXCOORD_0":219},"indices":215,"material":1},{"attributes":{"POSITION":221,"TANGENT":222,"NORMAL":223,"TEXCOORD_0":224},"indices":220,"material":2}],"name":"Object"},{"primitives":[{"attributes":{"POSITION":226,"TANGENT":227,"NORMAL":228,"TEXCOORD_0":229},"indices":225,"material":1},{"attributes":{"POSITION":231,"TANGENT":232,"NORMAL":233,"TEXCOORD_0":234},"indices":230,"material":2}],"name":"Generic Models 11 Generic Models 11 [8762451]005"}],"accessors":[{"bufferView":0,"componentType":5123,"count":132,"type":"SCALAR","name":"accessorIndices"},{"bufferView":1,"componentType":5126,"count":82,"max":[0.67253757,0.76435065,0.0071501],"min":[-0.1888937,-0.7240815,-0.0071501],"type":"VEC3","name":"accessorPositions"},{"bufferView":2,"componentType":5126,"count":82,"type":"VEC4","name":"accessorTangents"},{"bufferView":1,"byteOffset":984,"componentType":5126,"count":82,"type":"VEC3","name":"accessorNormals"},{"bufferView":3,"componentType":5126,"count":82,"type":"VEC2","name":"accessorUVs"},{"bufferView":0,"byteOffset":264,"componentType":5123,"count":132,"type":"SCALAR","name":"accessorIndices"},{"bufferView":1,"byteOffset":1968,"componentType":5126,"count":82,"max":[0.16510001,0.41611978,0.0071501],"min":[-0.9136126,-1.2214502,-0.0071501],"type":"VEC3","name":"accessorPositions"},{"bufferView":2,"byteOffset":1312,"componentType":5126,"count":82,"type":"VEC4","name":"accessorTangents"},{"bufferView":1,"byteOffset":2952,"componentType":5126,"count":82,"type":"VEC3","name":"accessorNormals"},{"bufferView":3,"byteOffset":656,"componentType":5126,"count":82,"type":"VEC2","name":"accessorUVs"},{"bufferView":0,"byteOffset":528,"componentType":5123,"count":168,"type":"SCALAR","name":"accessorIndices"},{"bufferView":1,"byteOffset":3936,"componentType":5126,"count":109,"max":[0.77951753,0.0071501,1.4337071],"min":[-0.068804964,-0.0071501024,-0.0],"type":"VEC3","name":"accessorPositions"},{"bufferView":2,"byteOffset":2624,"componentType":5126,"count":109,"type":"VEC4","name":"accessorTangents"},{"bufferView":1,"byteOffset":5244,"componentType":5126,"count":109,"type":"VEC3","name":"accessorNormals"},{"bufferView":3,"byteOffset":1312,"componentType":5126,"count":109,"type":"VEC2","name":"accessorUVs"},{"bufferView":0,"byteOffset":864,"componentType":5123,"count":132,"type":"SCALAR","name":"accessorIndices"},{"bufferView":1,"byteOffset":6552,"componentType":5126,"count":82,"max":[0.3937,0.71999997,0.0071501],"min":[-0.4111075,-0.730215,-0.0071501],"type":"VEC3","name":"accessorPositions"},{"bufferView":2,"byteOffset":4368,"componentType":5126,"count":82,"type":"VEC4","name":"accessorTangents"},{"bufferView":1,"byteOffset":7536,"componentType":5126,"count":82,"type":"VEC3","name":"accessorNormals"},{"bufferView":3,"byteOffset":2184,"componentType":5126,"count":82,"type":"VEC2","name":"accessorUVs"},{"bufferView":0,"byteOffset":1128,"componentType":5123,"count":49806,"type":"SCALAR","name":"accessorIndices"},{"bufferView":1,"byteOffset":8520,"componentType":5126,"count":10012,"max":[-27.580276,2.2050376,-27.06699],"min":[-29.259083,1.0594896,-27.105263],"type":"VEC3","name":"accessorPositions"},{"bufferView":2,"byteOffset":5680,"componentType":5126,"count":10012,"type":"VEC4","name":"accessorTangents"},{"bufferView":1,"byteOffset":128664,"componentType":5126,"count":10012,"type":"VEC3","name":"accessorNormals"},{"bufferView":3,"byteOffset":2840,"componentType":5126,"count":10012,"type":"VEC2","name":"accessorUVs"},{"bufferView":0,"byteOffset":100740,"componentType":5123,"count":456,"type":"SCALAR","name":"accessorIndices"},{"bufferView":1,"byteOffset":248808,"componentType":5126,"count":156,"max":[-27.580276,2.2050376,-27.067],"min":[-29.259083,1.0594896,-27.105263],"type":"VEC3","name":"accessorPositions"},{"bufferView":2,"byteOffset":165872,"componentType":5126,"count":156,"type":"VEC4","name":"accessorTangents"},{"bufferView":1,"byteOffset":250680,"componentType":5126,"count":156,"type":"VEC3","name":"accessorNormals"},{"bufferView":3,"byteOffset":82936,"componentType":5126,"count":156,"type":"VEC2","name":"accessorUVs"},{"bufferView":0,"byteOffset":101652,"componentType":5123,"count":132,"type":"SCALAR","name":"accessorIndices"},{"bufferView":1,"byteOffset":252552,"componentType":5126,"count":82,"max":[0.3937,0.71999997,0.0071501],"min":[-0.4111075,-0.730215,-0.0071501],"type":"VEC3","name":"accessorPositions"},{"bufferView":2,"byteOffset":168368,"componentType":5126,"count":82,"type":"VEC4","name":"accessorTangents"},{"bufferView":1,"byteOffset":253536,"componentType":5126,"count":82,"type":"VEC3","name":"accessorNormals"},{"bufferView":3,"byteOffset":84184,"componentType":5126,"count":82,"type":"VEC2","name":"accessorUVs"},{"bufferView":0,"byteOffset":101916,"componentType":5123,"count":81387,"type":"SCALAR","name":"accessorIndices"},{"bufferView":1,"byteOffset":254520,"componentType":5126,"count":17413,"max":[-27.580276,2.2050376,-26.119287],"min":[-29.224365,1.0594137,-26.157398],"type":"VEC3","name":"accessorPositions"},{"bufferView":2,"byteOffset":169680,"componentType":5126,"count":17413,"type":"VEC4","name":"accessorTangents"},{"bufferView":1,"byteOffset":463476,"componentType":5126,"count":17413,"type":"VEC3","name":"accessorNormals"},{"bufferView":3,"byteOffset":84840,"componentType":5126,"count":17413,"type":"VEC2","name":"accessorUVs"},{"bufferView":0,"byteOffset":264692,"componentType":5123,"count":10326,"type":"SCALAR","name":"accessorIndices"},{"bufferView":1,"byteOffset":672432,"componentType":5126,"count":17742,"max":[-27.580276,2.2050288,-26.119287],"min":[-29.224365,1.0594137,-26.157398],"type":"VEC3","name":"accessorPositions"},{"bufferView":2,"byteOffset":448288,"componentType":5126,"count":17742,"type":"VEC4","name":"accessorTangents"},{"bufferView":1,"byteOffset":885336,"componentType":5126,"count":17742,"type":"VEC3","name":"accessorNormals"},{"bufferView":3,"byteOffset":224144,"componentType":5126,"count":17742,"type":"VEC2","name":"accessorUVs"},{"bufferView":0,"byteOffset":285344,"componentType":5123,"count":132,"type":"SCALAR","name":"accessorIndices"},{"bufferView":1,"byteOffset":1098240,"componentType":5126,"count":82,"max":[0.16510001,0.41611978,0.0071501],"min":[-0.9136126,-1.2214502,-0.0071501],"type":"VEC3","name":"accessorPositions"},{"bufferView":2,"byteOffset":732160,"componentType":5126,"count":82,"type":"VEC4","name":"accessorTangents"},{"bufferView":1,"byteOffset":1099224,"componentType":5126,"count":82,"type":"VEC3","name":"accessorNormals"},{"bufferView":3,"byteOffset":366080,"componentType":5126,"count":82,"type":"VEC2","name":"accessorUVs"},{"bufferView":0,"byteOffset":285608,"componentType":5123,"count":132,"type":"SCALAR","name":"accessorIndices"},{"bufferView":1,"byteOffset":1100208,"componentType":5126,"count":96,"max":[0.40886727,0.3245767,0.0071501],"min":[-0.35996616,-0.52949834,-0.0071501],"type":"VEC3","name":"accessorPositions"},{"bufferView":2,"byteOffset":733472,"componentType":5126,"count":96,"type":"VEC4","name":"accessorTangents"},{"bufferView":1,"byteOffset":1101360,"componentType":5126,"count":96,"type":"VEC3","name":"accessorNormals"},{"bufferView":3,"byteOffset":366736,"componentType":5126,"count":96,"type":"VEC2","name":"accessorUVs"},{"bufferView":0,"byteOffset":285872,"componentType":5123,"count":168,"type":"SCALAR","name":"accessorIndices"},{"bufferView":1,"byteOffset":1102512,"componentType":5126,"count":99,"max":[-28.40499,2.929653,-28.298086],"min":[-29.471046,1.3404851,-28.312412],"type":"VEC3","name":"accessorPositions"},{"bufferView":2,"byteOffset":735008,"componentType":5126,"count":99,"type":"VEC4","name":"accessorTangents"},{"bufferView":1,"byteOffset":1103700,"componentType":5126,"count":99,"type":"VEC3","name":"accessorNormals"},{"bufferView":3,"byteOffset":367504,"componentType":5126,"count":99,"type":"VEC2","name":"accessorUVs"},{"bufferView":0,"byteOffset":286208,"componentType":5123,"count":132,"type":"SCALAR","name":"accessorIndices"},{"bufferView":1,"byteOffset":1104888,"componentType":5126,"count":96,"max":[0.70101464,0.3245767,0.0071501],"min":[-0.35996616,-0.52949834,-0.0071501],"type":"VEC3","name":"accessorPositions"},{"bufferView":2,"byteOffset":736592,"componentType":5126,"count":96,"type":"VEC4","name":"accessorTangents"},{"bufferView":1,"byteOffset":1106040,"componentType":5126,"count":96,"type":"VEC3","name":"accessorNormals"},{"bufferView":3,"byteOffset":368296,"componentType":5126,"count":96,"type":"VEC2","name":"accessorUVs"},{"bufferView":0,"byteOffset":286472,"componentType":5123,"count":132,"type":"SCALAR","name":"accessorIndices"},{"bufferView":1,"byteOffset":1107192,"componentType":5126,"count":82,"max":[0.37704316,0.70856416,0.0071501],"min":[-0.39211252,-0.71716493,-0.0071501],"type":"VEC3","name":"accessorPositions"},{"bufferView":2,"byteOffset":738128,"componentType":5126,"count":82,"type":"VEC4","name":"accessorTangents"},{"bufferView":1,"byteOffset":1108176,"componentType":5126,"count":82,"type":"VEC3","name":"accessorNormals"},{"bufferView":3,"byteOffset":369064,"componentType":5126,"count":82,"type":"VEC2","name":"accessorUVs"},{"bufferView":0,"byteOffset":286736,"componentType":5123,"count":1728,"type":"SCALAR","name":"accessorIndices"},{"bufferView":1,"byteOffset":1109160,"componentType":5126,"count":580,"max":[0.0015748,0.0142875,0.0142875],"min":[1.8652728E-14,-0.0142875,-0.0142875],"type":"VEC3","name":"accessorPositions"},{"bufferView":2,"byteOffset":739440,"componentType":5126,"count":580,"type":"VEC4","name":"accessorTangents"},{"bufferView":1,"byteOffset":1116120,"componentType":5126,"count":580,"type":"VEC3","name":"accessorNormals"},{"bufferView":3,"byteOffset":369720,"componentType":5126,"count":580,"type":"VEC2","name":"accessorUVs"},{"bufferView":0,"byteOffset":290192,"componentType":5123,"count":1728,"type":"SCALAR","name":"accessorIndices"},{"bufferView":1,"byteOffset":1123080,"componentType":5126,"count":580,"max":[0.0015748,0.0142875,0.0142875],"min":[1.8652728E-14,-0.0142875,-0.0142875],"type":"VEC3","name":"accessorPositions"},{"bufferView":2,"byteOffset":748720,"componentType":5126,"count":580,"type":"VEC4","name":"accessorTangents"},{"bufferView":1,"byteOffset":1130040,"componentType":5126,"count":580,"type":"VEC3","name":"accessorNormals"},{"bufferView":3,"byteOffset":374360,"componentType":5126,"count":580,"type":"VEC2","name":"accessorUVs"},{"bufferView":0,"byteOffset":293648,"componentType":5123,"count":432,"type":"SCALAR","name":"accessorIndices"},{"bufferView":1,"byteOffset":1137000,"componentType":5126,"count":146,"max":[0.0063500004,0.01905,0.01905],"min":[1.8592634E-14,-0.01905,-0.01905],"type":"VEC3","name":"accessorPositions"},{"bufferView":2,"byteOffset":758000,"componentType":5126,"count":146,"type":"VEC4","name":"accessorTangents"},{"bufferView":1,"byteOffset":1138752,"componentType":5126,"count":146,"type":"VEC3","name":"accessorNormals"},{"bufferView":3,"byteOffset":379000,"componentType":5126,"count":146,"type":"VEC2","name":"accessorUVs"},{"bufferView":0,"byteOffset":294512,"componentType":5123,"count":420,"type":"SCALAR","name":"accessorIndices"},{"bufferView":1,"byteOffset":1140504,"componentType":5126,"count":144,"max":[0.0063500004,0.01905,0.01905],"min":[1.8592634E-14,-0.01905,-0.01905],"type":"VEC3","name":"accessorPositions"},{"bufferView":2,"byteOffset":760336,"componentType":5126,"count":144,"type":"VEC4","name":"accessorTangents"},{"bufferView":1,"byteOffset":1142232,"componentType":5126,"count":144,"type":"VEC3","name":"accessorNormals"},{"bufferView":3,"byteOffset":380168,"componentType":5126,"count":144,"type":"VEC2","name":"accessorUVs"},{"bufferView":0,"byteOffset":295352,"componentType":5123,"count":918,"type":"SCALAR","name":"accessorIndices"},{"bufferView":1,"byteOffset":1143960,"componentType":5126,"count":309,"max":[0.053975,0.025400002,0.053975],"min":[-0.053975,-3.0953716E-15,-0.053975],"type":"VEC3","name":"accessorPositions"},{"bufferView":2,"byteOffset":762640,"componentType":5126,"count":309,"type":"VEC4","name":"accessorTangents"},{"bufferView":1,"byteOffset":1147668,"componentType":5126,"count":309,"type":"VEC3","name":"accessorNormals"},{"bufferView":3,"byteOffset":381320,"componentType":5126,"count":309,"type":"VEC2","name":"accessorUVs"},{"bufferView":0,"byteOffset":297188,"componentType":5123,"count":612,"type":"SCALAR","name":"accessorIndices"},{"bufferView":1,"byteOffset":1151376,"componentType":5126,"count":216,"max":[0.46989998,0.025400002,0.025539069],"min":[6.357896E-15,-0.025400002,-0.025539069],"type":"VEC3","name":"accessorPositions"},{"bufferView":2,"byteOffset":767584,"componentType":5126,"count":216,"type":"VEC4","name":"accessorTangents"},{"bufferView":1,"byteOffset":1153968,"componentType":5126,"count":216,"type":"VEC3","name":"accessorNormals"},{"bufferView":3,"byteOffset":383792,"componentType":5126,"count":216,"type":"VEC2","name":"accessorUVs"},{"bufferView":0,"byteOffset":298412,"componentType":5123,"count":324,"type":"SCALAR","name":"accessorIndices"},{"bufferView":1,"byteOffset":1156560,"componentType":5126,"count":120,"max":[0.025592525,0.0031551565,0.025590502],"min":[-0.025588477,-2.0427421E-15,-0.025590502],"type":"VEC3","name":"accessorPositions"},{"bufferView":2,"byteOffset":771040,"componentType":5126,"count":120,"type":"VEC4","name":"accessorTangents"},{"bufferView":1,"byteOffset":1158000,"componentType":5126,"count":120,"type":"VEC3","name":"accessorNormals"},{"bufferView":3,"byteOffset":385520,"componentType":5126,"count":120,"type":"VEC2","name":"accessorUVs"},{"bufferView":0,"byteOffset":299060,"componentType":5123,"count":912,"type":"SCALAR","name":"accessorIndices"},{"bufferView":1,"byteOffset":1159440,"componentType":5126,"count":504,"max":[0.025400002,0.025400002,0.009525],"min":[-0.025400002,-0.27940002,-0.019231388],"type":"VEC3","name":"accessorPositions"},{"bufferView":2,"byteOffset":772960,"componentType":5126,"count":504,"type":"VEC4","name":"accessorTangents"},{"bufferView":1,"byteOffset":1165488,"componentType":5126,"count":504,"type":"VEC3","name":"accessorNormals"},{"bufferView":3,"byteOffset":386480,"componentType":5126,"count":504,"type":"VEC2","name":"accessorUVs"},{"bufferView":0,"byteOffset":300884,"componentType":5123,"count":276,"type":"SCALAR","name":"accessorIndices"},{"bufferView":1,"byteOffset":1171536,"componentType":5126,"count":96,"max":[0.006545005,0.006544994,-0.01923138],"min":[-0.0065449835,-0.2605452,-0.019231388],"type":"VEC3","name":"accessorPositions"},{"bufferView":2,"byteOffset":781024,"componentType":5126,"count":96,"type":"VEC4","name":"accessorTangents"},{"bufferView":1,"byteOffset":1172688,"componentType":5126,"count":96,"type":"VEC3","name":"accessorNormals"},{"bufferView":3,"byteOffset":390512,"componentType":5126,"count":96,"type":"VEC2","name":"accessorUVs"},{"bufferView":0,"byteOffset":301436,"componentType":5123,"count":612,"type":"SCALAR","name":"accessorIndices"},{"bufferView":1,"byteOffset":1173840,"componentType":5126,"count":216,"max":[0.46989998,0.025400002,0.025539069],"min":[6.357896E-15,-0.025400002,-0.025539069],"type":"VEC3","name":"accessorPositions"},{"bufferView":2,"byteOffset":782560,"componentType":5126,"count":216,"type":"VEC4","name":"accessorTangents"},{"bufferView":1,"byteOffset":1176432,"componentType":5126,"count":216,"type":"VEC3","name":"accessorNormals"},{"bufferView":3,"byteOffset":391280,"componentType":5126,"count":216,"type":"VEC2","name":"accessorUVs"},{"bufferView":0,"byteOffset":302660,"componentType":5123,"count":1728,"type":"SCALAR","name":"accessorIndices"},{"bufferView":1,"byteOffset":1179024,"componentType":5126,"count":580,"max":[0.0015748,0.0142875,0.0142875],"min":[1.8652728E-14,-0.0142875,-0.0142875],"type":"VEC3","name":"accessorPositions"},{"bufferView":2,"byteOffset":786016,"componentType":5126,"count":580,"type":"VEC4","name":"accessorTangents"},{"bufferView":1,"byteOffset":1185984,"componentType":5126,"count":580,"type":"VEC3","name":"accessorNormals"},{"bufferView":3,"byteOffset":393008,"componentType":5126,"count":580,"type":"VEC2","name":"accessorUVs"},{"bufferView":0,"byteOffset":306116,"componentType":5123,"count":1728,"type":"SCALAR","name":"accessorIndices"},{"bufferView":1,"byteOffset":1192944,"componentType":5126,"count":580,"max":[0.0015748,0.0142875,0.0142875],"min":[1.8652728E-14,-0.0142875,-0.0142875],"type":"VEC3","name":"accessorPositions"},{"bufferView":2,"byteOffset":795296,"componentType":5126,"count":580,"type":"VEC4","name":"accessorTangents"},{"bufferView":1,"byteOffset":1199904,"componentType":5126,"count":580,"type":"VEC3","name":"accessorNormals"},{"bufferView":3,"byteOffset":397648,"componentType":5126,"count":580,"type":"VEC2","name":"accessorUVs"},{"bufferView":0,"byteOffset":309572,"componentType":5123,"count":612,"type":"SCALAR","name":"accessorIndices"},{"bufferView":1,"byteOffset":1206864,"componentType":5126,"count":216,"max":[0.46989998,0.025400002,0.025539069],"min":[6.357896E-15,-0.025400002,-0.025539069],"type":"VEC3","name":"accessorPositions"},{"bufferView":2,"byteOffset":804576,"componentType":5126,"count":216,"type":"VEC4","name":"accessorTangents"},{"bufferView":1,"byteOffset":1209456,"componentType":5126,"count":216,"type":"VEC3","name":"accessorNormals"},{"bufferView":3,"byteOffset":402288,"componentType":5126,"count":216,"type":"VEC2","name":"accessorUVs"},{"bufferView":0,"byteOffset":310796,"componentType":5123,"count":612,"type":"SCALAR","name":"accessorIndices"},{"bufferView":1,"byteOffset":1212048,"componentType":5126,"count":216,"max":[0.46989998,0.025400002,0.025539069],"min":[6.357896E-15,-0.025400002,-0.025539069],"type":"VEC3","name":"accessorPositions"},{"bufferView":2,"byteOffset":808032,"componentType":5126,"count":216,"type":"VEC4","name":"accessorTangents"},{"bufferView":1,"byteOffset":1214640,"componentType":5126,"count":216,"type":"VEC3","name":"accessorNormals"},{"bufferView":3,"byteOffset":404016,"componentType":5126,"count":216,"type":"VEC2","name":"accessorUVs"},{"bufferView":0,"byteOffset":312020,"componentType":5123,"count":612,"type":"SCALAR","name":"accessorIndices"},{"bufferView":1,"byteOffset":1217232,"componentType":5126,"count":216,"max":[0.5568696,0.025400002,0.025539069],"min":[6.357896E-15,-0.025400002,-0.025539069],"type":"VEC3","name":"accessorPositions"},{"bufferView":2,"byteOffset":811488,"componentType":5126,"count":216,"type":"VEC4","name":"accessorTangents"},{"bufferView":1,"byteOffset":1219824,"componentType":5126,"count":216,"type":"VEC3","name":"accessorNormals"},{"bufferView":3,"byteOffset":405744,"componentType":5126,"count":216,"type":"VEC2","name":"accessorUVs"},{"bufferView":0,"byteOffset":313244,"componentType":5123,"count":612,"type":"SCALAR","name":"accessorIndices"},{"bufferView":1,"byteOffset":1222416,"componentType":5126,"count":216,"max":[0.5568696,0.025400002,0.025539069],"min":[6.357896E-15,-0.025400002,-0.025539069],"type":"VEC3","name":"accessorPositions"},{"bufferView":2,"byteOffset":814944,"componentType":5126,"count":216,"type":"VEC4","name":"accessorTangents"},{"bufferView":1,"byteOffset":1225008,"componentType":5126,"count":216,"type":"VEC3","name":"accessorNormals"},{"bufferView":3,"byteOffset":407472,"componentType":5126,"count":216,"type":"VEC2","name":"accessorUVs"},{"bufferView":0,"byteOffset":314468,"componentType":5123,"count":612,"type":"SCALAR","name":"accessorIndices"},{"bufferView":1,"byteOffset":1227600,"componentType":5126,"count":216,"max":[0.5568696,0.025400002,0.025539069],"min":[6.357896E-15,-0.025400002,-0.025539069],"type":"VEC3","name":"accessorPositions"},{"bufferView":2,"byteOffset":818400,"componentType":5126,"count":216,"type":"VEC4","name":"accessorTangents"},{"bufferView":1,"byteOffset":1230192,"componentType":5126,"count":216,"type":"VEC3","name":"accessorNormals"},{"bufferView":3,"byteOffset":409200,"componentType":5126,"count":216,"type":"VEC2","name":"accessorUVs"},{"bufferView":0,"byteOffset":315692,"componentType":5123,"count":612,"type":"SCALAR","name":"accessorIndices"},{"bufferView":1,"byteOffset":1232784,"componentType":5126,"count":216,"max":[0.5568696,0.025400002,0.025539069],"min":[6.357896E-15,-0.025400002,-0.025539069],"type":"VEC3","name":"accessorPositions"},{"bufferView":2,"byteOffset":821856,"componentType":5126,"count":216,"type":"VEC4","name":"accessorTangents"},{"bufferView":1,"byteOffset":1235376,"componentType":5126,"count":216,"type":"VEC3","name":"accessorNormals"},{"bufferView":3,"byteOffset":410928,"componentType":5126,"count":216,"type":"VEC2","name":"accessorUVs"},{"bufferView":0,"byteOffset":316916,"componentType":5123,"count":612,"type":"SCALAR","name":"accessorIndices"},{"bufferView":1,"byteOffset":1237968,"componentType":5126,"count":216,"max":[0.5568696,0.025400002,0.025539069],"min":[6.357896E-15,-0.025400002,-0.025539069],"type":"VEC3","name":"accessorPositions"},{"bufferView":2,"byteOffset":825312,"componentType":5126,"count":216,"type":"VEC4","name":"accessorTangents"},{"bufferView":1,"byteOffset":1240560,"componentType":5126,"count":216,"type":"VEC3","name":"accessorNormals"},{"bufferView":3,"byteOffset":412656,"componentType":5126,"count":216,"type":"VEC2","name":"accessorUVs"},{"bufferView":0,"byteOffset":318140,"componentType":5123,"count":612,"type":"SCALAR","name":"accessorIndices"},{"bufferView":1,"byteOffset":1243152,"componentType":5126,"count":216,"max":[0.5568696,0.025400002,0.025539069],"min":[6.357896E-15,-0.025400002,-0.025539069],"type":"VEC3","name":"accessorPositions"},{"bufferView":2,"byteOffset":828768,"componentType":5126,"count":216,"type":"VEC4","name":"accessorTangents"},{"bufferView":1,"byteOffset":1245744,"componentType":5126,"count":216,"type":"VEC3","name":"accessorNormals"},{"bufferView":3,"byteOffset":414384,"componentType":5126,"count":216,"type":"VEC2","name":"accessorUVs"},{"bufferView":0,"byteOffset":319364,"componentType":5123,"count":612,"type":"SCALAR","name":"accessorIndices"},{"bufferView":1,"byteOffset":1248336,"componentType":5126,"count":216,"max":[0.5568696,0.025400002,0.025539069],"min":[6.357896E-15,-0.025400002,-0.025539069],"type":"VEC3","name":"accessorPositions"},{"bufferView":2,"byteOffset":832224,"componentType":5126,"count":216,"type":"VEC4","name":"accessorTangents"},{"bufferView":1,"byteOffset":1250928,"componentType":5126,"count":216,"type":"VEC3","name":"accessorNormals"},{"bufferView":3,"byteOffset":416112,"componentType":5126,"count":216,"type":"VEC2","name":"accessorUVs"},{"bufferView":0,"byteOffset":320588,"componentType":5123,"count":780,"type":"SCALAR","name":"accessorIndices"},{"bufferView":1,"byteOffset":1253520,"componentType":5126,"count":244,"max":[0.5568696,0.025400002,0.025539069],"min":[6.357896E-15,-0.025400002,-0.025539069],"type":"VEC3","name":"accessorPositions"},{"bufferView":2,"byteOffset":835680,"componentType":5126,"count":244,"type":"VEC4","name":"accessorTangents"},{"bufferView":1,"byteOffset":1256448,"componentType":5126,"count":244,"type":"VEC3","name":"accessorNormals"},{"bufferView":3,"byteOffset":417840,"componentType":5126,"count":244,"type":"VEC2","name":"accessorUVs"},{"bufferView":0,"byteOffset":322148,"componentType":5123,"count":612,"type":"SCALAR","name":"accessorIndices"},{"bufferView":1,"byteOffset":1259376,"componentType":5126,"count":216,"max":[0.5568696,0.025400002,0.025539069],"min":[6.357896E-15,-0.025400002,-0.025539069],"type":"VEC3","name":"accessorPositions"},{"bufferView":2,"byteOffset":839584,"componentType":5126,"count":216,"type":"VEC4","name":"accessorTangents"},{"bufferView":1,"byteOffset":1261968,"componentType":5126,"count":216,"type":"VEC3","name":"accessorNormals"},{"bufferView":3,"byteOffset":419792,"componentType":5126,"count":216,"type":"VEC2","name":"accessorUVs"},{"bufferView":0,"byteOffset":323372,"componentType":5123,"count":612,"type":"SCALAR","name":"accessorIndices"},{"bufferView":1,"byteOffset":1264560,"componentType":5126,"count":216,"max":[0.5568696,0.025400002,0.025539069],"min":[6.357896E-15,-0.025400002,-0.025539069],"type":"VEC3","name":"accessorPositions"},{"bufferView":2,"byteOffset":843040,"componentType":5126,"count":216,"type":"VEC4","name":"accessorTangents"},{"bufferView":1,"byteOffset":1267152,"componentType":5126,"count":216,"type":"VEC3","name":"accessorNormals"},{"bufferView":3,"byteOffset":421520,"componentType":5126,"count":216,"type":"VEC2","name":"accessorUVs"},{"bufferView":0,"byteOffset":324596,"componentType":5123,"count":612,"type":"SCALAR","name":"accessorIndices"},{"bufferView":1,"byteOffset":1269744,"componentType":5126,"count":216,"max":[0.5568696,0.025400002,0.025539069],"min":[6.357896E-15,-0.025400002,-0.025539069],"type":"VEC3","name":"accessorPositions"},{"bufferView":2,"byteOffset":846496,"componentType":5126,"count":216,"type":"VEC4","name":"accessorTangents"},{"bufferView":1,"byteOffset":1272336,"componentType":5126,"count":216,"type":"VEC3","name":"accessorNormals"},{"bufferView":3,"byteOffset":423248,"componentType":5126,"count":216,"type":"VEC2","name":"accessorUVs"},{"bufferView":0,"byteOffset":325820,"componentType":5123,"count":612,"type":"SCALAR","name":"accessorIndices"},{"bufferView":1,"byteOffset":1274928,"componentType":5126,"count":216,"max":[0.5568696,0.025400002,0.025539069],"min":[6.357896E-15,-0.025400002,-0.025539069],"type":"VEC3","name":"accessorPositions"},{"bufferView":2,"byteOffset":849952,"componentType":5126,"count":216,"type":"VEC4","name":"accessorTangents"},{"bufferView":1,"byteOffset":1277520,"componentType":5126,"count":216,"type":"VEC3","name":"accessorNormals"},{"bufferView":3,"byteOffset":424976,"componentType":5126,"count":216,"type":"VEC2","name":"accessorUVs"},{"bufferView":0,"byteOffset":327044,"componentType":5123,"count":612,"type":"SCALAR","name":"accessorIndices"},{"bufferView":1,"byteOffset":1280112,"componentType":5126,"count":216,"max":[0.5568696,0.025400002,0.025539069],"min":[6.357896E-15,-0.025400002,-0.025539069],"type":"VEC3","name":"accessorPositions"},{"bufferView":2,"byteOffset":853408,"componentType":5126,"count":216,"type":"VEC4","name":"accessorTangents"},{"bufferView":1,"byteOffset":1282704,"componentType":5126,"count":216,"type":"VEC3","name":"accessorNormals"},{"bufferView":3,"byteOffset":426704,"componentType":5126,"count":216,"type":"VEC2","name":"accessorUVs"},{"bufferView":0,"byteOffset":328268,"componentType":5123,"count":612,"type":"SCALAR","name":"accessorIndices"},{"bufferView":1,"byteOffset":1285296,"componentType":5126,"count":216,"max":[0.5568696,0.025400002,0.025539069],"min":[6.357896E-15,-0.025400002,-0.025539069],"type":"VEC3","name":"accessorPositions"},{"bufferView":2,"byteOffset":856864,"componentType":5126,"count":216,"type":"VEC4","name":"accessorTangents"},{"bufferView":1,"byteOffset":1287888,"componentType":5126,"count":216,"type":"VEC3","name":"accessorNormals"},{"bufferView":3,"byteOffset":428432,"componentType":5126,"count":216,"type":"VEC2","name":"accessorUVs"},{"bufferView":0,"byteOffset":329492,"componentType":5123,"count":780,"type":"SCALAR","name":"accessorIndices"},{"bufferView":1,"byteOffset":1290480,"componentType":5126,"count":244,"max":[0.5568696,0.025400002,0.025539069],"min":[6.357896E-15,-0.025400002,-0.025539069],"type":"VEC3","name":"accessorPositions"},{"bufferView":2,"byteOffset":860320,"componentType":5126,"count":244,"type":"VEC4","name":"accessorTangents"},{"bufferView":1,"byteOffset":1293408,"componentType":5126,"count":244,"type":"VEC3","name":"accessorNormals"},{"bufferView":3,"byteOffset":430160,"componentType":5126,"count":244,"type":"VEC2","name":"accessorUVs"},{"bufferView":0,"byteOffset":331052,"componentType":5123,"count":201306,"type":"SCALAR","name":"accessorIndices"},{"bufferView":1,"byteOffset":1296336,"componentType":5126,"count":38119,"max":[-27.30563,3.6965744,-27.264956],"min":[-30.287746,2.1714768,-28.324299],"type":"VEC3","name":"accessorPositions"},{"bufferView":2,"byteOffset":864224,"componentType":5126,"count":38119,"type":"VEC4","name":"accessorTangents"},{"bufferView":1,"byteOffset":1753764,"componentType":5126,"count":38119,"type":"VEC3","name":"accessorNormals"},{"bufferView":3,"byteOffset":432112,"componentType":5126,"count":38119,"type":"VEC2","name":"accessorUVs"},{"bufferView":0,"byteOffset":733664,"componentType":5123,"count":246,"type":"SCALAR","name":"accessorIndices"},{"bufferView":1,"byteOffset":2211192,"componentType":5126,"count":84,"max":[-27.30563,3.6965744,-28.2862],"min":[-27.30563,3.6503658,-28.324299],"type":"VEC3","name":"accessorPositions"},{"bufferView":2,"byteOffset":1474128,"componentType":5126,"count":84,"type":"VEC4","name":"accessorTangents"},{"bufferView":1,"byteOffset":2212200,"componentType":5126,"count":84,"type":"VEC3","name":"accessorNormals"},{"bufferView":3,"byteOffset":737064,"componentType":5126,"count":84,"type":"VEC2","name":"accessorUVs"},{"bufferView":0,"byteOffset":734156,"componentType":5123,"count":4080,"type":"SCALAR","name":"accessorIndices"},{"bufferView":1,"byteOffset":2213208,"componentType":5126,"count":1530,"max":[0.9106084,0.6469242,0.019062791],"min":[-1.0538441,-0.74506915,-0.019062791],"type":"VEC3","name":"accessorPositions"},{"bufferView":2,"byteOffset":1475472,"componentType":5126,"count":1530,"type":"VEC4","name":"accessorTangents"},{"bufferView":1,"byteOffset":2231568,"componentType":5126,"count":1530,"type":"VEC3","name":"accessorNormals"},{"bufferView":3,"byteOffset":737736,"componentType":5126,"count":1530,"type":"VEC2","name":"accessorUVs"},{"bufferView":0,"byteOffset":742316,"componentType":5123,"count":738,"type":"SCALAR","name":"accessorIndices"},{"bufferView":1,"byteOffset":2249928,"componentType":5126,"count":252,"max":[0.9106084,0.6469242,0.019062791],"min":[-1.0538441,-0.74506915,-0.019062791],"type":"VEC3","name":"accessorPositions"},{"bufferView":2,"byteOffset":1499952,"componentType":5126,"count":252,"type":"VEC4","name":"accessorTangents"},{"bufferView":1,"byteOffset":2252952,"componentType":5126,"count":252,"type":"VEC3","name":"accessorNormals"},{"bufferView":3,"byteOffset":749976,"componentType":5126,"count":252,"type":"VEC2","name":"accessorUVs"}],"bufferViews":[{"buffer":0,"byteLength":743792,"name":"bufferViewScalar"},{"buffer":0,"byteOffset":743792,"byteLength":2255976,"byteStride":12,"name":"bufferViewFloatVec3"},{"buffer":0,"byteOffset":2999768,"byteLength":1503984,"byteStride":16,"name":"bufferViewFloatVec4"},{"buffer":0,"byteOffset":4503752,"byteLength":751992,"byteStride":8,"name":"bufferViewFloatVec2"}],"buffers":[{"uri":"L-Shaped_Railing_Lo-Post_Square.bin","byteLength":5255744}],"materials":[{"pbrMetallicRoughness":{"baseColorFactor":[0.9999998,0.9999999,0.9999999,1.0],"metallicFactor":0.0,"roughnessFactor":0.1},"name":"Glass","extensions":{"KHR_materials_ior":{"ior":1.0},"KHR_materials_transmission":{"transmissionFactor":0.97},"KHR_materials_volume":{"thicknessFactor":0.56,"attenuationDistance":0.5,"attenuationColor":[0.49521634,0.56476736,0.5317566]}}},{"pbrMetallicRoughness":{"baseColorFactor":[0.9999998,0.9999999,0.9999999,1.0],"baseColorTexture":{"index":0,"extensions":{"KHR_texture_transform":{"offset":[0.19519997,0.8048],"rotation":1.5707964,"scale":[0.6096,0.6096],"texCoord":0}}},"roughnessFactor":0.2,"metallicRoughnessTexture":{"index":0,"extensions":{"KHR_texture_transform":{"offset":[0.19519997,0.8048],"rotation":1.5707964,"scale":[0.6096,0.6096],"texCoord":0}}}},"name":"Steel_Linear"},{"pbrMetallicRoughness":{"baseColorFactor":[0.9999998,0.9999999,0.9999999,1.0],"baseColorTexture":{"index":1},"roughnessFactor":0.2,"metallicRoughnessTexture":{"index":1}},"name":"Steel_Radial"},{"pbrMetallicRoughness":{"baseColorFactor":[0.10641303,0.10641304,0.10641304,1.0],"metallicFactor":0.0,"roughnessFactor":0.99,"metallicRoughnessTexture":{"index":2}},"name":"Rubber","extensions":{"KHR_materials_specular":{"specularFactor":0.1}}}],"textures":[{"sampler":0,"source":0,"name":"Metal_Brushed_Linear_4k.jpg"},{"sampler":0,"source":1,"name":"Metal_Brushed_Radial_4k.jpg"},{"sampler":0,"source":2,"name":"PowderCoat_Roughness_2k0.jpg"}],"images":[{"uri":"textures/Metal_Brushed_Linear_4k.jpg"},{"uri":"textures/Metal_Brushed_Radial_4k.jpg"},{"uri":"textures/PowderCoat_Roughness_2k0.jpg"}],"samplers":[{"magFilter":9729,"minFilter":9987}]}