{"asset":{"version":"2.0","generator":"babylon.js glTF exporter for 3dsmax 2026 v20251111.2"},"scene":0,"scenes":[{"nodes":[0,1,2,3,4,5,6,7,8,9,10,11,12,13,14,15,16,17,18,19,20,21,22,23,24,25,26,27,28,29,30,31,32,33,34,35,36,37,38,39,40,41,42,43,44,45,46,47,48,49,50,51,52,53,54,55,56,57,58,59,60,61,62,63,64,65,66,67,68,69,70,71,72,73,74,75,76,77,78,79,80,81,82,83,84,85,86,87,88,89,90,91,92,93,94,95,96,97,98,99,100,101,102,103,104,105,106,107,108,109,110,111,112,113,114,115,116,117,118,119,120,121,122,123,124,125,126,127,128,129,130,131,132,133,134,135,136,137,138,139,140,141,142,143,144,145,146,147,148,149,150,151,152,153,154,155,156,157,158,159,160,161,162,163,164,165,166,167,168,169,170,171,172,173,174,175,176,177,178,179,180,181,182,183,184,185,186,187,188,189,190,191,192,193,194,195,196,197,198,199,200,201,202,203,204,205,206,207,208,209,210,211,212,213,214,215,216,217,218,219,220,221,222,223,224,225,226,227,228,229,230,231,232,233,234,235,236,237,238,239,240,241,242,243,244,245,246,247,248,249,250,251,252,253,254,255,256,257,258,259,260,261,262,263,264,265,266,267,268,269,270,271,272,273,274,275,276,277,278,279,280,281,282,283,284,285,286,287,288,289,290,291,292,293,294,295,296,297,298,299,300,301,302,303,304,305]}],"nodes":[{"mesh":0,"translation":[-0.37297282,1.6445521,0.70737684],"name":"VSQ022 - Versa Square Post Omaha Cap Part [8420509]002"},{"mesh":0,"translation":[-0.37297282,1.0523511,1.5693893],"name":"VSQ022 - Versa Square Post Omaha Cap Part [8420509]003"},{"mesh":0,"translation":[1.4922433,3.5168624,-0.023682276],"rotation":[-0.0,-0.7071068,0.0,0.7071067],"name":"VSQ022 - Versa Square Post Omaha Cap Part [8420509]004"},{"mesh":0,"translation":[0.8957936,3.1075416,-0.023682276],"rotation":[-0.0,-0.7071068,0.0,0.7071067],"name":"VSQ022 - Versa Square Post Omaha Cap Part [8420509]005"},{"mesh":0,"translation":[-0.37308246,2.2367277,-0.023682276],"rotation":[-0.0,-0.7071068,0.0,0.7071067],"name":"VSQ022 - Versa Square Post Omaha Cap Part [8420509]006"},{"mesh":0,"translation":[0.096367955,2.5589013,-0.023682276],"rotation":[-0.0,-0.7071068,0.0,0.7071067],"name":"VSQ022 - Versa Square Post Omaha Cap Part [8420509]007"},{"mesh":0,"translation":[1.4922433,3.5168624,-1.0777831],"rotation":[-0.0,0.7071068,0.0,0.7071067],"name":"VSQ022 - Versa Square Post Omaha Cap Part [8420509]008"},{"mesh":0,"translation":[0.8957936,3.1075416,-1.0777831],"rotation":[-0.0,0.7071068,0.0,0.7071067],"name":"VSQ022 - Versa Square Post Omaha Cap Part [8420509]009"},{"mesh":0,"translation":[-0.47468093,2.1670046,-1.0777831],"rotation":[-0.0,0.7071068,0.0,0.7071067],"name":"VSQ022 - Versa Square Post Omaha Cap Part [8420509]010"},{"mesh":0,"translation":[0.096367955,2.5589013,-1.0777831],"rotation":[-0.0,0.7071068,0.0,0.7071067],"name":"VSQ022 - Versa Square Post Omaha Cap Part [8420509]011"},{"mesh":0,"translation":[-1.3065321,2.113839,-1.0777831],"rotation":[-0.0,0.7071068,0.0,0.7071067],"name":"VSQ022 - Versa Square Post Omaha Cap Part [8420509]012"},{"mesh":0,"translation":[-1.4271806,2.113839,-0.9571323],"rotation":[-0.0,-1.0,0.0,-4.371139E-08],"name":"VSQ022 - Versa Square Post Omaha Cap Part [8420509]013"},{"mesh":0,"translation":[-1.4270737,1.6445521,0.70737684],"rotation":[-0.0,-1.0,0.0,-1.6292068E-07],"name":"VSQ022 - Versa Square Post Omaha Cap Part [8420509]017"},{"mesh":0,"translation":[-1.4270737,1.0523511,1.5693893],"rotation":[-0.0,-1.0,0.0,-1.6292068E-07],"name":"VSQ022 - Versa Square Post Omaha Cap Part [8420509]018"},{"mesh":0,"translation":[-1.4270737,2.113839,-0.023682276],"rotation":[-0.0,-1.0,0.0,-1.6292068E-07],"name":"VSQ022 - Versa Square Post Omaha Cap Part [8420509]019"},{"mesh":1,"translation":[-0.37297282,0.73152006,0.70737684],"rotation":[4.0730175E-08,-4.0730175E-08,0.7071068,0.7071067],"scale":[1.0,0.99999994,0.99999994],"name":"LSXXX & LSXXX - Versa Square Post Material LS Material [8420510]"},{"mesh":2,"translation":[-0.37297282,0.18288001,1.5693893],"rotation":[4.0730175E-08,-4.0730175E-08,0.7071068,0.7071067],"scale":[1.0,0.99999994,0.99999994],"name":"LSXXX & LSXXX - Versa Square Post Material LS Material [8420521]"},{"mesh":3,"translation":[-0.37297288,1.28016,-0.027636463],"rotation":[-0.0,-1.0,0.0,-1.6292068E-07],"name":"CSQ001-US - Surface Mount Weldment Part [8729241]020"},{"mesh":3,"translation":[-0.37297282,0.73152006,0.70737684],"name":"CSQ001-US - Surface Mount Weldment Part [8729241]021"},{"mesh":3,"translation":[-0.37297282,0.18288001,1.5693893],"name":"CSQ001-US - Surface Mount Weldment Part [8729241]022"},{"mesh":3,"translation":[1.4922433,2.56032,-0.023682276],"rotation":[-0.0,-0.7071068,0.0,0.7071067],"name":"CSQ001-US - Surface Mount Weldment Part [8729241]023"},{"mesh":3,"translation":[0.8957936,2.19456,-0.023682276],"rotation":[-0.0,-0.7071068,0.0,0.7071067],"name":"CSQ001-US - Surface Mount Weldment Part [8729241]024"},{"mesh":3,"translation":[-0.37308246,1.28016,-0.023682276],"rotation":[-0.0,-0.7071068,0.0,0.7071067],"name":"CSQ001-US - Surface Mount Weldment Part [8729241]025"},{"mesh":3,"translation":[0.096367955,1.64592,-0.023682276],"rotation":[-0.0,-0.7071068,0.0,0.7071067],"name":"CSQ001-US - Surface Mount Weldment Part [8729241]026"},{"mesh":3,"translation":[1.4922433,2.56032,-1.0777831],"rotation":[-0.0,0.7071068,0.0,0.7071067],"name":"CSQ001-US - Surface Mount Weldment Part [8729241]027"},{"mesh":3,"translation":[0.8957936,2.19456,-1.0777831],"rotation":[-0.0,0.7071068,0.0,0.7071067],"name":"CSQ001-US - Surface Mount Weldment Part [8729241]028"},{"mesh":3,"translation":[0.096367955,1.64592,-1.0777831],"rotation":[-0.0,0.7071068,0.0,0.7071067],"name":"CSQ001-US - Surface Mount Weldment Part [8729241]029"},{"mesh":3,"translation":[-1.4270737,0.18288001,1.5693893],"rotation":[-0.0,-1.0,0.0,-1.6292068E-07],"name":"CSQ001-US - Surface Mount Weldment Part [8729241]030"},{"mesh":3,"translation":[-1.4270737,0.73152006,0.70737684],"rotation":[-0.0,-1.0,0.0,-1.6292068E-07],"name":"CSQ001-US - Surface Mount Weldment Part [8729241]031"},{"mesh":3,"translation":[-1.4270737,1.28016,-0.023682276],"rotation":[-0.0,-1.0,0.0,-1.6292068E-07],"name":"CSQ001-US - Surface Mount Weldment Part [8729241]032"},{"mesh":3,"translation":[-1.4271806,1.28016,-0.9571323],"rotation":[-0.0,-1.0,0.0,-4.371139E-08],"name":"CSQ001-US - Surface Mount Weldment Part [8729241]036"},{"mesh":3,"translation":[-1.3065321,1.28016,-1.0777831],"rotation":[-0.0,0.7071068,0.0,0.7071067],"name":"CSQ001-US - Surface Mount Weldment Part [8729241]037"},{"mesh":3,"translation":[-0.47468093,1.28016,-1.0777831],"rotation":[-0.0,0.7071068,0.0,0.7071067],"name":"CSQ001-US - Surface Mount Weldment Part [8729241]038"},{"mesh":4,"translation":[-0.37297282,1.6477017,0.70737684],"rotation":[-0.0,-1.0,0.0,-7.54979E-08],"name":"Bent Stem_026"},{"mesh":4,"translation":[-0.37297282,1.0555007,1.5693893],"rotation":[-0.0,-1.0,0.0,-7.54979E-08],"name":"Bent Stem_027"},{"mesh":4,"translation":[1.4922433,3.520012,-0.023682276],"rotation":[-0.0,0.7071067,0.0,0.7071068],"name":"Bent Stem_028"},{"mesh":4,"translation":[0.8957936,3.110691,-0.023682276],"rotation":[-0.0,0.7071067,0.0,0.7071068],"name":"Bent Stem_029"},{"mesh":4,"translation":[-0.37308246,2.2398775,-0.023682276],"rotation":[-0.0,0.7071067,0.0,0.7071068],"name":"Bent Stem_030"},{"mesh":4,"translation":[0.096367955,2.5620508,-0.023682276],"rotation":[-0.0,0.7071067,0.0,0.7071068],"name":"Bent Stem_031"},{"mesh":4,"translation":[1.4922433,3.520012,-1.0777831],"rotation":[-0.0,0.7071068,0.0,0.7071067],"name":"Bent Stem_032"},{"mesh":4,"translation":[0.8957936,3.110691,-1.0777831],"rotation":[-0.0,0.7071068,0.0,0.7071067],"name":"Bent Stem_033"},{"mesh":4,"translation":[-0.47468093,2.1701543,-1.0777831],"rotation":[-0.0,0.7071068,0.0,0.7071067],"name":"Bent Stem_034"},{"mesh":4,"translation":[0.096367955,2.5620508,-1.0777831],"rotation":[-0.0,0.7071068,0.0,0.7071067],"name":"Bent Stem_035"},{"mesh":4,"translation":[-1.4270737,1.6477017,0.70737684],"rotation":[-0.0,-1.0,0.0,-1.6292068E-07],"name":"Bent Stem_036"},{"mesh":4,"translation":[-1.4270737,1.0555007,1.5693893],"rotation":[-0.0,-1.0,0.0,-1.6292068E-07],"name":"Bent Stem_037"},{"mesh":5,"translation":[-0.37297282,1.7231654,0.74094224],"rotation":[-0.6753742,0.6753742,0.2094509,0.20945089],"name":"VSQ057 - Top Rail Saddle Part [8420939]001"},{"mesh":5,"translation":[-0.37297282,1.1309643,1.6029547],"rotation":[-0.6753742,0.6753742,0.2094509,0.20945089],"name":"VSQ057 - Top Rail Saddle Part [8420939]002"},{"mesh":5,"translation":[1.4586802,3.5954757,-0.023682276],"rotation":[-0.62566584,0.32945764,-0.32945758,0.6256658],"name":"VSQ057 - Top Rail Saddle Part [8420939]004"},{"mesh":5,"translation":[0.8622282,3.1861544,-0.023682276],"rotation":[-0.62566584,0.32945764,-0.32945758,0.6256658],"name":"VSQ057 - Top Rail Saddle Part [8420939]005"},{"mesh":5,"translation":[-0.40664554,2.3153408,-0.023682276],"rotation":[-0.62566584,0.32945764,-0.32945758,0.6256658],"name":"VSQ057 - Top Rail Saddle Part [8420939]006"},{"mesh":5,"translation":[0.062804885,2.6375146,-0.023682276],"rotation":[-0.62566584,0.32945764,-0.32945758,0.6256658],"name":"VSQ057 - Top Rail Saddle Part [8420939]007"},{"mesh":5,"translation":[1.4586802,3.5954757,-1.0777831],"rotation":[0.6256658,-0.3294576,-0.32945758,0.6256658],"name":"VSQ057 - Top Rail Saddle Part [8420939]008"},{"mesh":5,"translation":[0.8622282,3.1861544,-1.0777831],"rotation":[0.6256658,-0.3294576,-0.32945758,0.6256658],"name":"VSQ057 - Top Rail Saddle Part [8420939]009"},{"mesh":5,"translation":[-0.5082463,2.2456179,-1.0777831],"rotation":[0.6256658,-0.3294576,-0.32945758,0.6256658],"name":"VSQ057 - Top Rail Saddle Part [8420939]010"},{"mesh":5,"translation":[0.062804885,2.6375146,-1.0777831],"rotation":[0.6256658,-0.3294576,-0.32945758,0.6256658],"name":"VSQ057 - Top Rail Saddle Part [8420939]011"},{"mesh":5,"translation":[-1.4270737,1.7231654,0.74094224],"rotation":[0.20945083,0.20945092,-0.6753742,0.67537427],"name":"VSQ057 - Top Rail Saddle Part [8420939]012"},{"mesh":5,"translation":[-1.4270737,1.1309643,1.6029547],"rotation":[0.20945083,0.20945092,-0.6753742,0.67537427],"name":"VSQ057 - Top Rail Saddle Part [8420939]013"},{"mesh":5,"translation":[-1.4270737,2.19456,-0.023682276],"rotation":[3.1219002E-08,-5.30747E-08,-0.7071068,0.7071068],"name":"VSQ057 - Top Rail Saddle Part [8420939]014"},{"mesh":5,"translation":[-1.4271806,2.19456,-0.9571323],"rotation":[9.985135E-14,-9.985135E-14,-0.7071068,0.7071068],"name":"VSQ057 - Top Rail Saddle Part [8420939]018"},{"mesh":5,"translation":[-1.3065321,2.19456,-1.0777831],"rotation":[-0.5,0.5,0.5,-0.5],"scale":[1.0,0.99999994,0.99999994],"name":"VSQ057 - Top Rail Saddle Part [8420939]019"},{"mesh":6,"translation":[-0.37297282,1.7172393,0.69451714],"rotation":[0.20945075,-0.20945075,0.67537427,0.67537427],"name":"HW92485A634 - #10 x 1l2 Philips FH Thread Cutting Type F Hardware [8420940]001"},{"mesh":6,"translation":[-0.37297282,1.6777159,0.752109],"rotation":[0.20945075,-0.20945075,0.67537427,0.67537427],"name":"HW92485A634 - #10 x 1l2 Philips FH Thread Cutting Type F Hardware [8420940]002"},{"mesh":6,"translation":[-0.37297282,1.1250383,1.5565298],"rotation":[0.20945075,-0.20945075,0.67537427,0.67537427],"name":"HW92485A634 - #10 x 1l2 Philips FH Thread Cutting Type F Hardware [8420940]003"},{"mesh":6,"translation":[-0.37297282,1.0855149,1.6141216],"rotation":[0.20945075,-0.20945075,0.67537427,0.67537427],"name":"HW92485A634 - #10 x 1l2 Philips FH Thread Cutting Type F Hardware [8420940]004"},{"mesh":6,"translation":[0.12825671,1.8190463,-0.023682276],"rotation":[-3.0908634E-08,0.7071067,0.7071068,3.0908605E-08],"name":"HW92485A634 - #10 x 1l2 Philips FH Thread Cutting Type F Hardware [8420940]007"},{"mesh":6,"translation":[0.12825671,2.1713328,-0.023682276],"rotation":[-3.0908634E-08,0.7071067,0.7071068,3.0908605E-08],"name":"HW92485A634 - #10 x 1l2 Philips FH Thread Cutting Type F Hardware [8420940]008"},{"mesh":6,"translation":[0.12825671,2.5236192,-0.023682276],"rotation":[-3.0908634E-08,0.7071067,0.7071068,3.0908605E-08],"name":"HW92485A634 - #10 x 1l2 Philips FH Thread Cutting Type F Hardware [8420940]009"},{"mesh":6,"translation":[0.86525357,2.3248122,-0.023682276],"rotation":[-0.7071068,1.3122452E-14,-1.31224496E-14,0.7071067],"name":"HW92485A634 - #10 x 1l2 Philips FH Thread Cutting Type F Hardware [8420940]010"},{"mesh":6,"translation":[0.86525357,2.6770988,-0.023682276],"rotation":[-0.7071068,1.3132638E-14,-1.3132635E-14,0.7071067],"name":"HW92485A634 - #10 x 1l2 Philips FH Thread Cutting Type F Hardware [8420940]011"},{"mesh":6,"translation":[0.86525357,3.029385,-0.023682276],"rotation":[-0.7071068,1.3122638E-14,-1.3122635E-14,0.7071067],"name":"HW92485A634 - #10 x 1l2 Philips FH Thread Cutting Type F Hardware [8420940]012"},{"mesh":6,"translation":[0.92768234,2.367689,-0.023682276],"rotation":[-3.0908634E-08,0.7071067,0.7071068,3.0908605E-08],"name":"HW92485A634 - #10 x 1l2 Philips FH Thread Cutting Type F Hardware [8420940]013"},{"mesh":6,"translation":[0.92768234,2.7199752,-0.023682276],"rotation":[-3.0908634E-08,0.7071067,0.7071068,3.0908605E-08],"name":"HW92485A634 - #10 x 1l2 Philips FH Thread Cutting Type F Hardware [8420940]014"},{"mesh":6,"translation":[0.92768234,3.0722618,-0.023682276],"rotation":[-3.0908634E-08,0.7071067,0.7071068,3.0908605E-08],"name":"HW92485A634 - #10 x 1l2 Philips FH Thread Cutting Type F Hardware [8420940]015"},{"mesh":6,"translation":[1.4603544,2.7332368,-0.023682276],"rotation":[-0.7071068,1.3122452E-14,-1.31224496E-14,0.7071067],"name":"HW92485A634 - #10 x 1l2 Philips FH Thread Cutting Type F Hardware [8420940]016"},{"mesh":6,"translation":[1.4603544,3.0855234,-0.023682276],"rotation":[-0.7071068,1.3132638E-14,-1.3132635E-14,0.7071067],"name":"HW92485A634 - #10 x 1l2 Philips FH Thread Cutting Type F Hardware [8420940]017"},{"mesh":6,"translation":[1.4603544,3.43781,-0.023682276],"rotation":[-0.7071068,1.3122638E-14,-1.3122635E-14,0.7071067],"name":"HW92485A634 - #10 x 1l2 Philips FH Thread Cutting Type F Hardware [8420940]018"},{"mesh":6,"translation":[-0.37297282,0.90513074,0.67548805],"rotation":[0.50000006,0.49999997,0.5000001,-0.49999997],"name":"HW92485A634 - #10 x 1l2 Philips FH Thread Cutting Type F Hardware [8420940]019"},{"mesh":6,"translation":[-0.37297282,1.2574203,0.67548805],"rotation":[0.50000006,0.49999997,0.5000001,-0.49999997],"name":"HW92485A634 - #10 x 1l2 Philips FH Thread Cutting Type F Hardware [8420940]020"},{"mesh":6,"translation":[-0.37297282,1.6097099,0.67548805],"rotation":[0.50000006,0.49999997,0.5000001,-0.49999997],"name":"HW92485A634 - #10 x 1l2 Philips FH Thread Cutting Type F Hardware [8420940]021"},{"mesh":6,"translation":[-0.37297288,1.3657677,0.0042546154],"rotation":[-0.5000001,0.49999997,0.50000006,0.49999997],"name":"HW92485A634 - #10 x 1l2 Philips FH Thread Cutting Type F Hardware [8420940]022"},{"mesh":6,"translation":[-0.37297288,1.7180573,0.0042546154],"rotation":[-0.5000001,0.49999997,0.50000006,0.49999997],"name":"HW92485A634 - #10 x 1l2 Philips FH Thread Cutting Type F Hardware [8420940]023"},{"mesh":6,"translation":[-0.37297288,2.0703468,0.0042546154],"rotation":[-0.5000001,0.49999997,0.50000006,0.49999997],"name":"HW92485A634 - #10 x 1l2 Philips FH Thread Cutting Type F Hardware [8420940]024"},{"mesh":6,"translation":[-0.37297282,0.31286153,1.5375006],"rotation":[0.50000006,0.49999997,0.5000001,-0.49999997],"name":"HW92485A634 - #10 x 1l2 Philips FH Thread Cutting Type F Hardware [8420940]025"},{"mesh":6,"translation":[-0.37297282,0.6651511,1.5375006],"rotation":[0.50000006,0.49999997,0.5000001,-0.49999997],"name":"HW92485A634 - #10 x 1l2 Philips FH Thread Cutting Type F Hardware [8420940]026"},{"mesh":6,"translation":[-0.37297282,1.0174408,1.5375006],"rotation":[0.50000006,0.49999997,0.5000001,-0.49999997],"name":"HW92485A634 - #10 x 1l2 Philips FH Thread Cutting Type F Hardware [8420940]027"},{"mesh":6,"translation":[-0.37297282,0.8606527,0.73926556],"rotation":[-0.5000001,0.49999997,0.50000006,0.49999997],"name":"HW92485A634 - #10 x 1l2 Philips FH Thread Cutting Type F Hardware [8420940]028"},{"mesh":6,"translation":[-0.37297282,1.2129424,0.73926556],"rotation":[-0.5000001,0.49999997,0.50000006,0.49999997],"name":"HW92485A634 - #10 x 1l2 Philips FH Thread Cutting Type F Hardware [8420940]029"},{"mesh":6,"translation":[-0.37297282,1.5652319,0.73926556],"rotation":[-0.5000001,0.49999997,0.50000006,0.49999997],"name":"HW92485A634 - #10 x 1l2 Philips FH Thread Cutting Type F Hardware [8420940]030"},{"mesh":6,"translation":[1.5051029,3.5895495,-0.023682276],"rotation":[-0.32945758,-0.6256659,0.6256658,0.32945752],"name":"HW92485A634 - #10 x 1l2 Philips FH Thread Cutting Type F Hardware [8420940]031"},{"mesh":6,"translation":[1.4475111,3.5500262,-0.023682276],"rotation":[-0.32945758,-0.6256659,0.6256658,0.32945752],"name":"HW92485A634 - #10 x 1l2 Philips FH Thread Cutting Type F Hardware [8420940]032"},{"mesh":6,"translation":[0.90865326,3.1802282,-0.023682276],"rotation":[-0.32945758,-0.6256659,0.6256658,0.32945752],"name":"HW92485A634 - #10 x 1l2 Philips FH Thread Cutting Type F Hardware [8420940]033"},{"mesh":6,"translation":[0.85106146,3.140705,-0.023682276],"rotation":[-0.32945758,-0.6256659,0.6256658,0.32945752],"name":"HW92485A634 - #10 x 1l2 Philips FH Thread Cutting Type F Hardware [8420940]034"},{"mesh":6,"translation":[-0.36022046,2.3094149,-0.023682276],"rotation":[-0.32945758,-0.6256659,0.6256658,0.32945752],"name":"HW92485A634 - #10 x 1l2 Philips FH Thread Cutting Type F Hardware [8420940]035"},{"mesh":6,"translation":[-0.4178146,2.2698915,-0.023682276],"rotation":[-0.32945758,-0.6256659,0.6256658,0.32945752],"name":"HW92485A634 - #10 x 1l2 Philips FH Thread Cutting Type F Hardware [8420940]036"},{"mesh":6,"translation":[0.109227635,2.6315885,-0.023682276],"rotation":[-0.32945758,-0.6256659,0.6256658,0.32945752],"name":"HW92485A634 - #10 x 1l2 Philips FH Thread Cutting Type F Hardware [8420940]037"},{"mesh":6,"translation":[0.0516358,2.592065,-0.023682276],"rotation":[-0.32945758,-0.6256659,0.6256658,0.32945752],"name":"HW92485A634 - #10 x 1l2 Philips FH Thread Cutting Type F Hardware [8420940]038"},{"mesh":6,"translation":[-0.34119138,1.4968671,-0.023682276],"rotation":[-3.0908634E-08,0.7071067,0.7071068,3.0908605E-08],"name":"HW92485A634 - #10 x 1l2 Philips FH Thread Cutting Type F Hardware [8420940]039"},{"mesh":6,"translation":[-0.34119138,1.8491535,-0.023682276],"rotation":[-3.0908634E-08,0.7071067,0.7071068,3.0908605E-08],"name":"HW92485A634 - #10 x 1l2 Philips FH Thread Cutting Type F Hardware [8420940]040"},{"mesh":6,"translation":[-0.34119138,2.20144,-0.023682276],"rotation":[-3.0908634E-08,0.7071067,0.7071068,3.0908605E-08],"name":"HW92485A634 - #10 x 1l2 Philips FH Thread Cutting Type F Hardware [8420940]041"},{"mesh":6,"translation":[0.0644792,1.7752608,-0.023682276],"rotation":[-0.7071068,1.3122452E-14,-1.31224496E-14,0.7071067],"name":"HW92485A634 - #10 x 1l2 Philips FH Thread Cutting Type F Hardware [8420940]042"},{"mesh":6,"translation":[0.0644792,2.1275473,-0.023682276],"rotation":[-0.7071068,1.3132638E-14,-1.3132635E-14,0.7071067],"name":"HW92485A634 - #10 x 1l2 Philips FH Thread Cutting Type F Hardware [8420940]043"},{"mesh":6,"translation":[0.0644792,2.4798338,-0.023682276],"rotation":[-0.7071068,1.3122638E-14,-1.3122635E-14,0.7071067],"name":"HW92485A634 - #10 x 1l2 Philips FH Thread Cutting Type F Hardware [8420940]044"},{"mesh":6,"translation":[1.5051029,3.5895495,-1.0777831],"rotation":[0.32945755,0.62566584,0.62566584,0.32945758],"name":"HW92485A634 - #10 x 1l2 Philips FH Thread Cutting Type F Hardware [8420940]045"},{"mesh":6,"translation":[1.4475111,3.5500262,-1.0777831],"rotation":[0.32945755,0.62566584,0.62566584,0.32945758],"name":"HW92485A634 - #10 x 1l2 Philips FH Thread Cutting Type F Hardware [8420940]046"},{"mesh":6,"translation":[0.90865326,3.1802282,-1.0777831],"rotation":[0.32945755,0.62566584,0.62566584,0.32945758],"name":"HW92485A634 - #10 x 1l2 Philips FH Thread Cutting Type F Hardware [8420940]047"},{"mesh":6,"translation":[0.85106146,3.140705,-1.0777831],"rotation":[0.32945755,0.62566584,0.62566584,0.32945758],"name":"HW92485A634 - #10 x 1l2 Philips FH Thread Cutting Type F Hardware [8420940]048"},{"mesh":6,"translation":[0.109227635,2.6315885,-1.0777831],"rotation":[0.32945755,0.62566584,0.62566584,0.32945758],"name":"HW92485A634 - #10 x 1l2 Philips FH Thread Cutting Type F Hardware [8420940]049"},{"mesh":6,"translation":[0.0516358,2.592065,-1.0777831],"rotation":[0.32945755,0.62566584,0.62566584,0.32945758],"name":"HW92485A634 - #10 x 1l2 Philips FH Thread Cutting Type F Hardware [8420940]050"},{"mesh":6,"translation":[-1.4270737,1.1250383,1.5565298],"rotation":[-0.67537427,-0.67537427,-0.20945081,0.20945068],"name":"HW92485A634 - #10 x 1l2 Philips FH Thread Cutting Type F Hardware [8420940]051"},{"mesh":6,"translation":[-1.4270737,1.0855149,1.6141216],"rotation":[-0.67537427,-0.67537427,-0.20945081,0.20945068],"name":"HW92485A634 - #10 x 1l2 Philips FH Thread Cutting Type F Hardware [8420940]052"},{"mesh":6,"translation":[-1.4270737,1.7172393,0.69451714],"rotation":[-0.67537427,-0.67537427,-0.20945081,0.20945068],"name":"HW92485A634 - #10 x 1l2 Philips FH Thread Cutting Type F Hardware [8420940]053"},{"mesh":6,"translation":[-1.4270737,1.6777159,0.752109],"rotation":[-0.67537427,-0.67537427,-0.20945081,0.20945068],"name":"HW92485A634 - #10 x 1l2 Philips FH Thread Cutting Type F Hardware [8420940]054"},{"mesh":6,"translation":[-1.4270737,2.1634054,-0.058605727],"rotation":[-0.7071067,-0.7071068,1.9656746E-08,-6.18036E-08],"scale":[1.0,0.99999994,0.99999994],"name":"HW92485A634 - #10 x 1l2 Philips FH Thread Cutting Type F Hardware [8420940]055"},{"mesh":6,"translation":[-1.4270737,2.1634054,0.011243501],"rotation":[-0.7071067,-0.7071068,1.9656746E-08,-6.18036E-08],"scale":[1.0,0.99999994,0.99999994],"name":"HW92485A634 - #10 x 1l2 Philips FH Thread Cutting Type F Hardware [8420940]056"},{"mesh":6,"translation":[-1.4271806,2.1634054,-0.92220885],"rotation":[-0.7071068,-0.7071068,-2.6692543E-08,8.850979E-08],"name":"HW92485A634 - #10 x 1l2 Philips FH Thread Cutting Type F Hardware [8420940]063"},{"mesh":6,"translation":[-1.4271806,2.1634054,-0.99205804],"rotation":[-0.7071068,-0.7071068,-2.6692543E-08,8.850979E-08],"name":"HW92485A634 - #10 x 1l2 Philips FH Thread Cutting Type F Hardware [8420940]064"},{"mesh":6,"translation":[-1.2716064,2.1634054,-1.0777831],"rotation":[0.5,0.5,0.50000006,0.49999994],"scale":[1.0,0.99999994,0.99999994],"name":"HW92485A634 - #10 x 1l2 Philips FH Thread Cutting Type F Hardware [8420940]065"},{"mesh":6,"translation":[-1.3414556,2.1634054,-1.0777831],"rotation":[0.5,0.5,0.50000006,0.49999994],"scale":[1.0,0.99999994,0.99999994],"name":"HW92485A634 - #10 x 1l2 Philips FH Thread Cutting Type F Hardware [8420940]066"},{"mesh":6,"translation":[-0.46182123,2.2396917,-1.0777831],"rotation":[0.32945755,0.62566584,0.62566584,0.32945758],"name":"HW92485A634 - #10 x 1l2 Philips FH Thread Cutting Type F Hardware [8420940]067"},{"mesh":6,"translation":[-0.5194154,2.2001686,-1.0777831],"rotation":[0.32945755,0.62566584,0.62566584,0.32945758],"name":"HW92485A634 - #10 x 1l2 Philips FH Thread Cutting Type F Hardware [8420940]068"},{"mesh":6,"translation":[0.12825671,1.8190463,-1.0777831],"rotation":[-3.0908634E-08,0.7071067,0.7071068,3.0908605E-08],"name":"HW92485A634 - #10 x 1l2 Philips FH Thread Cutting Type F Hardware [8420940]069"},{"mesh":6,"translation":[0.12825671,2.1713328,-1.0777831],"rotation":[-3.0908634E-08,0.7071067,0.7071068,3.0908605E-08],"name":"HW92485A634 - #10 x 1l2 Philips FH Thread Cutting Type F Hardware [8420940]070"},{"mesh":6,"translation":[0.12825671,2.5236192,-1.0777831],"rotation":[-3.0908634E-08,0.7071067,0.7071068,3.0908605E-08],"name":"HW92485A634 - #10 x 1l2 Philips FH Thread Cutting Type F Hardware [8420940]071"},{"mesh":6,"translation":[0.86525357,2.3248122,-1.0777831],"rotation":[-0.7071068,1.3122452E-14,-1.31224496E-14,0.7071067],"name":"HW92485A634 - #10 x 1l2 Philips FH Thread Cutting Type F Hardware [8420940]072"},{"mesh":6,"translation":[0.86525357,2.6770988,-1.0777831],"rotation":[-0.7071068,1.3132638E-14,-1.3132635E-14,0.7071067],"name":"HW92485A634 - #10 x 1l2 Philips FH Thread Cutting Type F Hardware [8420940]073"},{"mesh":6,"translation":[0.86525357,3.029385,-1.0777831],"rotation":[-0.7071068,1.3122638E-14,-1.3122635E-14,0.7071067],"name":"HW92485A634 - #10 x 1l2 Philips FH Thread Cutting Type F Hardware [8420940]074"},{"mesh":6,"translation":[0.92768234,2.367689,-1.0777831],"rotation":[-3.0908634E-08,0.7071067,0.7071068,3.0908605E-08],"name":"HW92485A634 - #10 x 1l2 Philips FH Thread Cutting Type F Hardware [8420940]075"},{"mesh":6,"translation":[0.92768234,2.7199752,-1.0777831],"rotation":[-3.0908634E-08,0.7071067,0.7071068,3.0908605E-08],"name":"HW92485A634 - #10 x 1l2 Philips FH Thread Cutting Type F Hardware [8420940]076"},{"mesh":6,"translation":[0.92768234,3.0722618,-1.0777831],"rotation":[-3.0908634E-08,0.7071067,0.7071068,3.0908605E-08],"name":"HW92485A634 - #10 x 1l2 Philips FH Thread Cutting Type F Hardware [8420940]077"},{"mesh":6,"translation":[1.4603544,2.7332368,-1.0777831],"rotation":[-0.7071068,1.3122452E-14,-1.31224496E-14,0.7071067],"name":"HW92485A634 - #10 x 1l2 Philips FH Thread Cutting Type F Hardware [8420940]078"},{"mesh":6,"translation":[1.4603544,3.0855234,-1.0777831],"rotation":[-0.7071068,1.3132638E-14,-1.3132635E-14,0.7071067],"name":"HW92485A634 - #10 x 1l2 Philips FH Thread Cutting Type F Hardware [8420940]079"},{"mesh":6,"translation":[1.4603544,3.43781,-1.0777831],"rotation":[-0.7071068,1.3122638E-14,-1.3122635E-14,0.7071067],"name":"HW92485A634 - #10 x 1l2 Philips FH Thread Cutting Type F Hardware [8420940]080"},{"mesh":6,"translation":[-0.44279218,1.4271437,-1.0777831],"rotation":[-3.0908634E-08,0.7071067,0.7071068,3.0908605E-08],"name":"HW92485A634 - #10 x 1l2 Philips FH Thread Cutting Type F Hardware [8420940]081"},{"mesh":6,"translation":[-0.44279218,1.7794303,-1.0777831],"rotation":[-3.0908634E-08,0.7071067,0.7071068,3.0908605E-08],"name":"HW92485A634 - #10 x 1l2 Philips FH Thread Cutting Type F Hardware [8420940]082"},{"mesh":6,"translation":[-0.44279218,2.1317167,-1.0777831],"rotation":[-3.0908634E-08,0.7071067,0.7071068,3.0908605E-08],"name":"HW92485A634 - #10 x 1l2 Philips FH Thread Cutting Type F Hardware [8420940]083"},{"mesh":6,"translation":[0.0644792,1.7752608,-1.0777831],"rotation":[-0.7071068,1.3122452E-14,-1.31224496E-14,0.7071067],"name":"HW92485A634 - #10 x 1l2 Philips FH Thread Cutting Type F Hardware [8420940]084"},{"mesh":6,"translation":[0.0644792,2.1275473,-1.0777831],"rotation":[-0.7071068,1.3132638E-14,-1.3132635E-14,0.7071067],"name":"HW92485A634 - #10 x 1l2 Philips FH Thread Cutting Type F Hardware [8420940]085"},{"mesh":6,"translation":[0.0644792,2.4798338,-1.0777831],"rotation":[-0.7071068,1.3122638E-14,-1.3122635E-14,0.7071067],"name":"HW92485A634 - #10 x 1l2 Philips FH Thread Cutting Type F Hardware [8420940]086"},{"mesh":6,"translation":[-1.4270737,0.90513074,0.67548805],"rotation":[0.50000006,0.49999997,0.5000001,-0.49999997],"name":"HW92485A634 - #10 x 1l2 Philips FH Thread Cutting Type F Hardware [8420940]087"},{"mesh":6,"translation":[-1.4270737,1.2574203,0.67548805],"rotation":[0.50000006,0.49999997,0.5000001,-0.49999997],"name":"HW92485A634 - #10 x 1l2 Philips FH Thread Cutting Type F Hardware [8420940]088"},{"mesh":6,"translation":[-1.4270737,1.6097099,0.67548805],"rotation":[0.50000006,0.49999997,0.5000001,-0.49999997],"name":"HW92485A634 - #10 x 1l2 Philips FH Thread Cutting Type F Hardware [8420940]089"},{"mesh":6,"translation":[-1.4270737,1.3657677,0.0042546154],"rotation":[-0.5000001,0.49999997,0.50000006,0.49999997],"name":"HW92485A634 - #10 x 1l2 Philips FH Thread Cutting Type F Hardware [8420940]090"},{"mesh":6,"translation":[-1.4270737,1.7180573,0.0042546154],"rotation":[-0.5000001,0.49999997,0.50000006,0.49999997],"name":"HW92485A634 - #10 x 1l2 Philips FH Thread Cutting Type F Hardware [8420940]091"},{"mesh":6,"translation":[-1.4270737,2.0703468,0.0042546154],"rotation":[-0.5000001,0.49999997,0.50000006,0.49999997],"name":"HW92485A634 - #10 x 1l2 Philips FH Thread Cutting Type F Hardware [8420940]092"},{"mesh":6,"translation":[-1.4270737,0.31286153,1.5375006],"rotation":[0.50000006,0.49999997,0.5000001,-0.49999997],"name":"HW92485A634 - #10 x 1l2 Philips FH Thread Cutting Type F Hardware [8420940]093"},{"mesh":6,"translation":[-1.4270737,0.6651511,1.5375006],"rotation":[0.50000006,0.49999997,0.5000001,-0.49999997],"name":"HW92485A634 - #10 x 1l2 Philips FH Thread Cutting Type F Hardware [8420940]094"},{"mesh":6,"translation":[-1.4270737,1.0174408,1.5375006],"rotation":[0.50000006,0.49999997,0.5000001,-0.49999997],"name":"HW92485A634 - #10 x 1l2 Philips FH Thread Cutting Type F Hardware [8420940]095"},{"mesh":6,"translation":[-1.4270737,0.8606527,0.73926556],"rotation":[-0.5000001,0.49999997,0.50000006,0.49999997],"name":"HW92485A634 - #10 x 1l2 Philips FH Thread Cutting Type F Hardware [8420940]096"},{"mesh":6,"translation":[-1.4270737,1.2129424,0.73926556],"rotation":[-0.5000001,0.49999997,0.50000006,0.49999997],"name":"HW92485A634 - #10 x 1l2 Philips FH Thread Cutting Type F Hardware [8420940]097"},{"mesh":6,"translation":[-1.4270737,1.5652319,0.73926556],"rotation":[-0.5000001,0.49999997,0.50000006,0.49999997],"name":"HW92485A634 - #10 x 1l2 Philips FH Thread Cutting Type F Hardware [8420940]098"},{"mesh":6,"translation":[-1.4270737,1.3912851,-0.05556952],"rotation":[0.50000006,0.49999997,0.5000001,-0.49999997],"name":"HW92485A634 - #10 x 1l2 Philips FH Thread Cutting Type F Hardware [8420940]099"},{"mesh":6,"translation":[-1.4270737,1.72466,-0.05556952],"rotation":[0.50000006,0.49999997,0.5000001,-0.49999997],"name":"HW92485A634 - #10 x 1l2 Philips FH Thread Cutting Type F Hardware [8420940]100"},{"mesh":6,"translation":[-1.4270737,2.058035,-0.05556952],"rotation":[0.50000006,0.49999997,0.5000001,-0.49999997],"name":"HW92485A634 - #10 x 1l2 Philips FH Thread Cutting Type F Hardware [8420940]101"},{"mesh":6,"translation":[-1.4271806,1.3912851,0.008174283],"rotation":[-0.50000006,0.49999997,0.5000001,0.49999997],"name":"HW92485A634 - #10 x 1l2 Philips FH Thread Cutting Type F Hardware [8420940]108"},{"mesh":6,"translation":[-1.4271806,1.72466,0.008174283],"rotation":[-0.50000006,0.49999997,0.5000001,0.49999997],"name":"HW92485A634 - #10 x 1l2 Philips FH Thread Cutting Type F Hardware [8420940]109"},{"mesh":6,"translation":[-1.4271806,2.058035,0.008174283],"rotation":[-0.50000006,0.49999997,0.5000001,0.49999997],"name":"HW92485A634 - #10 x 1l2 Philips FH Thread Cutting Type F Hardware [8420940]110"},{"mesh":6,"translation":[-1.4271806,1.3912851,-0.92524356],"rotation":[-0.50000006,0.49999997,0.5000001,0.49999997],"name":"HW92485A634 - #10 x 1l2 Philips FH Thread Cutting Type F Hardware [8420940]114"},{"mesh":6,"translation":[-1.4271806,1.72466,-0.92524356],"rotation":[-0.50000006,0.49999997,0.5000001,0.49999997],"name":"HW92485A634 - #10 x 1l2 Philips FH Thread Cutting Type F Hardware [8420940]115"},{"mesh":6,"translation":[-1.4271806,2.058035,-0.92524356],"rotation":[-0.50000006,0.49999997,0.5000001,0.49999997],"name":"HW92485A634 - #10 x 1l2 Philips FH Thread Cutting Type F Hardware [8420940]116"},{"mesh":6,"translation":[-0.5065697,1.3912851,-1.0777831],"rotation":[-0.7071068,1.3122452E-14,-1.31224496E-14,0.7071067],"name":"HW92485A634 - #10 x 1l2 Philips FH Thread Cutting Type F Hardware [8420940]117"},{"mesh":6,"translation":[-0.5065697,1.72466,-1.0777831],"rotation":[-0.7071068,1.3132638E-14,-1.3132635E-14,0.7071067],"name":"HW92485A634 - #10 x 1l2 Philips FH Thread Cutting Type F Hardware [8420940]118"},{"mesh":6,"translation":[-0.5065697,2.058035,-1.0777831],"rotation":[-0.7071068,1.3122638E-14,-1.3122635E-14,0.7071067],"name":"HW92485A634 - #10 x 1l2 Philips FH Thread Cutting Type F Hardware [8420940]119"},{"mesh":6,"translation":[-1.2746412,1.3912851,-1.0777831],"rotation":[-3.0908634E-08,0.7071067,0.7071068,3.0908605E-08],"name":"HW92485A634 - #10 x 1l2 Philips FH Thread Cutting Type F Hardware [8420940]120"},{"mesh":6,"translation":[-1.2746412,1.72466,-1.0777831],"rotation":[-3.0908634E-08,0.7071067,0.7071068,3.0908605E-08],"name":"HW92485A634 - #10 x 1l2 Philips FH Thread Cutting Type F Hardware [8420940]121"},{"mesh":6,"translation":[-1.2746412,2.058035,-1.0777831],"rotation":[-3.0908634E-08,0.7071067,0.7071068,3.0908605E-08],"name":"HW92485A634 - #10 x 1l2 Philips FH Thread Cutting Type F Hardware [8420940]122"},{"mesh":7,"translation":[28.894718,0.0,27.28066],"name":"Generic Models 5 Generic Models 3 [8422645]"},{"mesh":8,"translation":[-27.512218,0.0,29.240162],"rotation":[-0.0,-0.7071068,0.0,0.7071067],"name":"Generic Models 6 Generic Models 6 [8423756]"},{"mesh":9,"translation":[0.21121909,2.0686288,-0.023682276],"name":"Versa_Midrail_Single Generic [8424667]"},{"mesh":9,"translation":[0.21121909,1.9622047,-0.023682276],"name":"Versa_Midrail_Single Generic [8424668]"},{"mesh":9,"translation":[0.21121909,1.8557805,-0.023682276],"name":"Versa_Midrail_Single Generic [8424669]"},{"mesh":9,"translation":[0.21121909,2.600749,-0.023682276],"name":"Versa_Midrail_Single Generic [8424670]"},{"mesh":9,"translation":[0.21121909,2.281477,-0.023682276],"name":"Versa_Midrail_Single Generic [8424671]"},{"mesh":9,"translation":[0.21121909,2.175053,-0.023682276],"name":"Versa_Midrail_Single Generic [8424672]"},{"mesh":9,"translation":[0.21121909,2.4943252,-0.023682276],"name":"Versa_Midrail_Single Generic [8424673]"},{"mesh":9,"translation":[0.21121909,2.387901,-0.023682276],"name":"Versa_Midrail_Single Generic [8425767]"},{"mesh":9,"translation":[0.21121909,2.0686288,-1.0777831],"name":"Versa_Midrail_Single Generic [8729829]"},{"mesh":9,"translation":[0.21121909,1.9622047,-1.0777831],"name":"Versa_Midrail_Single Generic [8729830]"},{"mesh":9,"translation":[0.21121909,1.8557805,-1.0777831],"name":"Versa_Midrail_Single Generic [8729831]"},{"mesh":9,"translation":[0.21121909,2.600749,-1.0777831],"name":"Versa_Midrail_Single Generic [8729832]"},{"mesh":9,"translation":[0.21121909,2.281477,-1.0777831],"name":"Versa_Midrail_Single Generic [8729833]"},{"mesh":9,"translation":[0.21121909,2.175053,-1.0777831],"name":"Versa_Midrail_Single Generic [8729834]"},{"mesh":9,"translation":[0.21121909,2.4943252,-1.0777831],"name":"Versa_Midrail_Single Generic [8729835]"},{"mesh":9,"translation":[0.21121909,2.387901,-1.0777831],"name":"Versa_Midrail_Single Generic [8729846]"},{"mesh":10,"translation":[0.12508248,1.7872963,-0.023682276],"rotation":[0.5,0.5,0.50000006,0.49999994],"scale":[1.0,0.99999994,0.99999994],"name":"Versa_Panel end bar Hardware [8424679]"},{"mesh":10,"translation":[0.8684278,2.2930622,-0.023682276],"rotation":[-0.5,-0.5,0.50000006,0.49999994],"name":"Versa_Panel end bar Hardware [8424684]"},{"mesh":10,"translation":[0.9245081,2.335939,-0.023682276],"rotation":[0.5,0.5,0.50000006,0.49999994],"scale":[1.0,0.99999994,0.99999994],"name":"Versa_Panel end bar Hardware [8426643]"},{"mesh":10,"translation":[1.4635288,2.7014868,-0.023682276],"rotation":[-0.5,-0.5,0.50000006,0.49999994],"name":"Versa_Panel end bar Hardware [8426648]"},{"mesh":10,"translation":[-0.34436795,1.4651171,-0.023682276],"rotation":[0.5,0.5,0.50000006,0.49999994],"scale":[1.0,0.99999994,0.99999994],"name":"Versa_Panel end bar Hardware [8477307]"},{"mesh":10,"translation":[0.06765576,1.7435108,-0.023682276],"rotation":[-0.5,-0.5,0.50000006,0.49999994],"name":"Versa_Panel end bar Hardware [8477312]"},{"mesh":10,"translation":[0.12508248,1.7872963,-1.0777831],"rotation":[0.5,0.5,0.50000006,0.49999994],"scale":[1.0,0.99999994,0.99999994],"name":"Versa_Panel end bar Hardware [8729840]"},{"mesh":10,"translation":[0.8684278,2.2930622,-1.0777831],"rotation":[-0.5,-0.5,0.50000006,0.49999994],"name":"Versa_Panel end bar Hardware [8729845]"},{"mesh":10,"translation":[0.9245081,2.335939,-1.0777831],"rotation":[0.5,0.5,0.50000006,0.49999994],"scale":[1.0,0.99999994,0.99999994],"name":"Versa_Panel end bar Hardware [8729861]"},{"mesh":10,"translation":[1.4635288,2.7014868,-1.0777831],"rotation":[-0.5,-0.5,0.50000006,0.49999994],"name":"Versa_Panel end bar Hardware [8729866]"},{"mesh":10,"translation":[-0.4459664,1.3953937,-1.0777831],"rotation":[0.5,0.5,0.50000006,0.49999994],"scale":[1.0,0.99999994,0.99999994],"name":"Versa_Panel end bar Hardware [8729882]"},{"mesh":10,"translation":[0.06765576,1.7435108,-1.0777831],"rotation":[-0.5,-0.5,0.50000006,0.49999994],"name":"Versa_Panel end bar Hardware [8729887]"},{"mesh":11,"translation":[1.0741432,2.6608484,-0.023682276],"name":"Versa_Midrail_Single Generic [8426632]"},{"mesh":11,"translation":[1.0741432,2.5544243,-0.023682276],"name":"Versa_Midrail_Single Generic [8426633]"},{"mesh":11,"translation":[1.0741432,2.4480004,-0.023682276],"name":"Versa_Midrail_Single Generic [8426634]"},{"mesh":11,"translation":[1.0741432,3.1929688,-0.023682276],"name":"Versa_Midrail_Single Generic [8426635]"},{"mesh":11,"translation":[1.0741432,2.8736968,-0.023682276],"name":"Versa_Midrail_Single Generic [8426636]"},{"mesh":11,"translation":[1.0741432,2.7672725,-0.023682276],"name":"Versa_Midrail_Single Generic [8426637]"},{"mesh":11,"translation":[1.0741432,3.0865448,-0.023682276],"name":"Versa_Midrail_Single Generic [8426638]"},{"mesh":11,"translation":[1.0741432,2.9801207,-0.023682276],"name":"Versa_Midrail_Single Generic [8426649]"},{"mesh":11,"translation":[1.0741432,2.6608484,-1.0777831],"name":"Versa_Midrail_Single Generic [8729850]"},{"mesh":11,"translation":[1.0741432,2.5544243,-1.0777831],"name":"Versa_Midrail_Single Generic [8729851]"},{"mesh":11,"translation":[1.0741432,2.4480004,-1.0777831],"name":"Versa_Midrail_Single Generic [8729852]"},{"mesh":11,"translation":[1.0741432,3.1929688,-1.0777831],"name":"Versa_Midrail_Single Generic [8729853]"},{"mesh":11,"translation":[1.0741432,2.8736968,-1.0777831],"name":"Versa_Midrail_Single Generic [8729854]"},{"mesh":11,"translation":[1.0741432,2.7672725,-1.0777831],"name":"Versa_Midrail_Single Generic [8729855]"},{"mesh":11,"translation":[1.0741432,3.0865448,-1.0777831],"name":"Versa_Midrail_Single Generic [8729856]"},{"mesh":11,"translation":[1.0741432,2.9801207,-1.0777831],"name":"Versa_Midrail_Single Generic [8729867]"},{"mesh":12,"translation":[-0.37297282,1.3731723,0.27419394],"rotation":[-0.0,0.7071068,0.0,0.7071068],"name":"Versa_Midrail_Single Generic [8426925]"},{"mesh":12,"translation":[-0.37297282,1.2667474,0.27419394],"rotation":[-0.0,0.7071068,0.0,0.7071068],"name":"Versa_Midrail_Single Generic [8426926]"},{"mesh":12,"translation":[-0.37297282,1.1603223,0.27419394],"rotation":[-0.0,0.7071068,0.0,0.7071068],"name":"Versa_Midrail_Single Generic [8426927]"},{"mesh":12,"translation":[-0.37297282,1.9052973,0.27419394],"rotation":[-0.0,0.7071068,0.0,0.7071068],"name":"Versa_Midrail_Single Generic [8426928]"},{"mesh":12,"translation":[-0.37297282,1.5860223,0.27419394],"rotation":[-0.0,0.7071068,0.0,0.7071068],"name":"Versa_Midrail_Single Generic [8426929]"},{"mesh":12,"translation":[-0.37297282,1.4795973,0.27419394],"rotation":[-0.0,0.7071068,0.0,0.7071068],"name":"Versa_Midrail_Single Generic [8426930]"},{"mesh":12,"translation":[-0.37297282,1.7988724,0.27419394],"rotation":[-0.0,0.7071068,0.0,0.7071068],"name":"Versa_Midrail_Single Generic [8426931]"},{"mesh":12,"translation":[-0.37297282,1.6924473,0.27419394],"rotation":[-0.0,0.7071068,0.0,0.7071068],"name":"Versa_Midrail_Single Generic [8427882]"},{"mesh":12,"translation":[-1.4270737,1.3731723,0.27419394],"rotation":[-0.0,0.7071068,0.0,0.7071068],"name":"Versa_Midrail_Single Generic [8731150]"},{"mesh":12,"translation":[-1.4270737,1.2667474,0.27419394],"rotation":[-0.0,0.7071068,0.0,0.7071068],"name":"Versa_Midrail_Single Generic [8731151]"},{"mesh":12,"translation":[-1.4270737,1.1603223,0.27419394],"rotation":[-0.0,0.7071068,0.0,0.7071068],"name":"Versa_Midrail_Single Generic [8731152]"},{"mesh":12,"translation":[-1.4270737,1.9052973,0.27419394],"rotation":[-0.0,0.7071068,0.0,0.7071068],"name":"Versa_Midrail_Single Generic [8731153]"},{"mesh":12,"translation":[-1.4270737,1.5860223,0.27419394],"rotation":[-0.0,0.7071068,0.0,0.7071068],"name":"Versa_Midrail_Single Generic [8731154]"},{"mesh":12,"translation":[-1.4270737,1.4795973,0.27419394],"rotation":[-0.0,0.7071068,0.0,0.7071068],"name":"Versa_Midrail_Single Generic [8731155]"},{"mesh":12,"translation":[-1.4270737,1.7988724,0.27419394],"rotation":[-0.0,0.7071068,0.0,0.7071068],"name":"Versa_Midrail_Single Generic [8731156]"},{"mesh":12,"translation":[-1.4270737,1.6924473,0.27419394],"rotation":[-0.0,0.7071068,0.0,0.7071068],"name":"Versa_Midrail_Single Generic [8731167]"},{"mesh":13,"translation":[-0.37297282,0.8733807,0.6786623],"rotation":[-0.7071067,-0.7071068,1.9656746E-08,-6.18036E-08],"scale":[1.0,0.99999994,0.99999994],"name":"Versa_Panel end bar Hardware [8426937]"},{"mesh":13,"translation":[-0.37297288,1.3313388,0.005032252],"rotation":[4.0730175E-08,-4.0730175E-08,0.7071068,0.7071067],"scale":[1.0,0.99999994,0.99999994],"name":"Versa_Panel end bar Hardware [8426942]"},{"mesh":13,"translation":[-0.37297282,0.28111154,1.5406749],"rotation":[-0.7071067,-0.7071068,1.9656746E-08,-6.18036E-08],"scale":[1.0,0.99999994,0.99999994],"name":"Versa_Panel end bar Hardware [8428841]"},{"mesh":13,"translation":[-0.37297282,0.82890266,0.7360913],"rotation":[4.0730175E-08,-4.0730175E-08,0.7071068,0.7071067],"scale":[1.0,0.99999994,0.99999994],"name":"Versa_Panel end bar Hardware [8428846]"},{"mesh":13,"translation":[-1.4270737,0.8733807,0.6786623],"rotation":[-0.7071067,-0.7071068,1.9656746E-08,-6.18036E-08],"scale":[1.0,0.99999994,0.99999994],"name":"Versa_Panel end bar Hardware [8731161]"},{"mesh":13,"translation":[-1.4270737,1.3313388,0.005032252],"rotation":[4.0730175E-08,-4.0730175E-08,0.7071068,0.7071067],"scale":[1.0,0.99999994,0.99999994],"name":"Versa_Panel end bar Hardware [8731166]"},{"mesh":13,"translation":[-1.4270737,0.28111154,1.5406749],"rotation":[-0.7071067,-0.7071068,1.9656746E-08,-6.18036E-08],"scale":[1.0,0.99999994,0.99999994],"name":"Versa_Panel end bar Hardware [8731182]"},{"mesh":13,"translation":[-1.4270737,0.82890266,0.7360913],"rotation":[4.0730175E-08,-4.0730175E-08,0.7071068,0.7071067],"scale":[1.0,0.99999994,0.99999994],"name":"Versa_Panel end bar Hardware [8731187]"},{"mesh":14,"translation":[-0.37297282,0.7811119,1.1359018],"rotation":[-0.0,0.7071068,0.0,0.7071068],"name":"Versa_Midrail_Single Generic [8428830]"},{"mesh":14,"translation":[-0.37297282,0.67468697,1.1359018],"rotation":[-0.0,0.7071068,0.0,0.7071068],"name":"Versa_Midrail_Single Generic [8428831]"},{"mesh":14,"translation":[-0.37297282,0.5682619,1.1359018],"rotation":[-0.0,0.7071068,0.0,0.7071068],"name":"Versa_Midrail_Single Generic [8428832]"},{"mesh":14,"translation":[-0.37297282,1.3132368,1.1359018],"rotation":[-0.0,0.7071068,0.0,0.7071068],"name":"Versa_Midrail_Single Generic [8428833]"},{"mesh":14,"translation":[-0.37297282,0.9939619,1.1359018],"rotation":[-0.0,0.7071068,0.0,0.7071068],"name":"Versa_Midrail_Single Generic [8428834]"},{"mesh":14,"translation":[-0.37297282,0.8875369,1.1359018],"rotation":[-0.0,0.7071068,0.0,0.7071068],"name":"Versa_Midrail_Single Generic [8428835]"},{"mesh":14,"translation":[-0.37297282,1.2068119,1.1359018],"rotation":[-0.0,0.7071068,0.0,0.7071068],"name":"Versa_Midrail_Single Generic [8428836]"},{"mesh":14,"translation":[-0.37297282,1.1003869,1.1359018],"rotation":[-0.0,0.7071068,0.0,0.7071068],"name":"Versa_Midrail_Single Generic [8428847]"},{"mesh":14,"translation":[-1.4270737,0.7811119,1.1359018],"rotation":[-0.0,0.7071068,0.0,0.7071068],"name":"Versa_Midrail_Single Generic [8731171]"},{"mesh":14,"translation":[-1.4270737,0.67468697,1.1359018],"rotation":[-0.0,0.7071068,0.0,0.7071068],"name":"Versa_Midrail_Single Generic [8731172]"},{"mesh":14,"translation":[-1.4270737,0.5682619,1.1359018],"rotation":[-0.0,0.7071068,0.0,0.7071068],"name":"Versa_Midrail_Single Generic [8731173]"},{"mesh":14,"translation":[-1.4270737,1.3132368,1.1359018],"rotation":[-0.0,0.7071068,0.0,0.7071068],"name":"Versa_Midrail_Single Generic [8731174]"},{"mesh":14,"translation":[-1.4270737,0.9939619,1.1359018],"rotation":[-0.0,0.7071068,0.0,0.7071068],"name":"Versa_Midrail_Single Generic [8731175]"},{"mesh":14,"translation":[-1.4270737,0.8875369,1.1359018],"rotation":[-0.0,0.7071068,0.0,0.7071068],"name":"Versa_Midrail_Single Generic [8731176]"},{"mesh":14,"translation":[-1.4270737,1.2068119,1.1359018],"rotation":[-0.0,0.7071068,0.0,0.7071068],"name":"Versa_Midrail_Single Generic [8731177]"},{"mesh":14,"translation":[-1.4270737,1.1003869,1.1359018],"rotation":[-0.0,0.7071068,0.0,0.7071068],"name":"Versa_Midrail_Single Generic [8731188]"},{"mesh":15,"translation":[1.4922433,2.56032,-0.023682276],"rotation":[-0.5,-0.5,0.50000006,0.49999994],"name":"LSXXX & LSXXX - Versa Square Post Material LS Material [8473579]"},{"mesh":16,"translation":[0.8957936,2.19456,-0.023682276],"rotation":[-0.5,-0.5,0.50000006,0.49999994],"name":"LSXXX & LSXXX - Versa Square Post Material LS Material [8473588]"},{"mesh":17,"translation":[-0.37308246,1.28016,-0.023682276],"rotation":[-0.5,-0.5,0.50000006,0.49999994],"name":"LSXXX & LSXXX - Versa Square Post Material LS Material [8473716]"},{"mesh":18,"translation":[0.096367955,1.64592,-0.023682276],"rotation":[-0.5,-0.5,0.50000006,0.49999994],"name":"LSXXX & LSXXX - Versa Square Post Material LS Material [8473783]"},{"mesh":19,"translation":[-0.22857268,1.7668028,-0.023682276],"name":"Versa_Midrail_Single Generic [8477296]"},{"mesh":19,"translation":[-0.22857268,1.6603786,-0.023682276],"name":"Versa_Midrail_Single Generic [8477297]"},{"mesh":19,"translation":[-0.22857268,1.5539546,-0.023682276],"name":"Versa_Midrail_Single Generic [8477298]"},{"mesh":19,"translation":[-0.22857268,2.2989233,-0.023682276],"name":"Versa_Midrail_Single Generic [8477299]"},{"mesh":19,"translation":[-0.22857268,1.979651,-0.023682276],"name":"Versa_Midrail_Single Generic [8477300]"},{"mesh":19,"translation":[-0.22857268,1.8732268,-0.023682276],"name":"Versa_Midrail_Single Generic [8477301]"},{"mesh":19,"translation":[-0.22857268,2.1924992,-0.023682276],"name":"Versa_Midrail_Single Generic [8477302]"},{"mesh":19,"translation":[-0.22857268,2.086075,-0.023682276],"name":"Versa_Midrail_Single Generic [8477313]"},{"mesh":20,"translation":[1.4922433,2.56032,-1.0777831],"rotation":[0.5,0.5,0.50000006,0.49999994],"scale":[1.0,0.99999994,0.99999994],"name":"LSXXX & LSXXX - Versa Square Post Material LS Material [8721348]"},{"mesh":21,"translation":[0.8957936,2.19456,-1.0777831],"rotation":[0.5,0.5,0.50000006,0.49999994],"scale":[1.0,0.99999994,0.99999994],"name":"LSXXX & LSXXX - Versa Square Post Material LS Material [8721357]"},{"mesh":22,"translation":[-0.47468093,1.28016,-1.0777831],"rotation":[0.5,0.5,0.50000006,0.49999994],"scale":[1.0,0.99999994,0.99999994],"name":"LSXXX & LSXXX - Versa Square Post Material LS Material [8721366]"},{"mesh":23,"translation":[0.096367955,1.64592,-1.0777831],"rotation":[0.5,0.5,0.50000006,0.49999994],"scale":[1.0,0.99999994,0.99999994],"name":"LSXXX & LSXXX - Versa Square Post Material LS Material [8721375]"},{"mesh":24,"translation":[-1.3065321,1.28016,-1.0777831],"rotation":[0.5,0.5,0.50000006,0.49999994],"scale":[1.0,0.99999994,0.99999994],"name":"LSXXX & LSXXX - Versa Square Post Material LS Material [8721402]007"},{"mesh":25,"translation":[-1.4271806,1.28016,-0.9571323],"rotation":[-0.7071068,-0.7071068,-2.6692543E-08,8.850979E-08],"name":"LSXXX & LSXXX - Versa Square Post Material LS Material [8721402]006"},{"mesh":26,"translation":[-1.4270737,0.73152006,0.70737684],"rotation":[-0.7071067,-0.7071068,1.9656746E-08,-6.18036E-08],"scale":[1.0,0.99999994,0.99999994],"name":"LSXXX & LSXXX - Versa Square Post Material LS Material [8721429]"},{"mesh":27,"translation":[-1.4270737,0.18288001,1.5693893],"rotation":[-0.7071067,-0.7071068,1.9656746E-08,-6.18036E-08],"scale":[1.0,0.99999994,0.99999994],"name":"LSXXX & LSXXX - Versa Square Post Material LS Material [8721438]"},{"mesh":28,"translation":[-1.4270737,1.28016,-0.023682276],"rotation":[-0.7071067,-0.7071068,1.9656746E-08,-6.18036E-08],"scale":[1.0,0.99999994,0.99999994],"name":"LSXXX & LSXXX - Versa Square Post Material LS Material [8721402]002"},{"mesh":29,"translation":[-1.4270737,2.1169884,-0.023682276],"rotation":[-0.0,-1.0,0.0,-1.6292068E-07],"name":"CIR139 - Wood Vertical Support (Centered) Part [8829792]014"},{"mesh":29,"translation":[-1.4271806,2.1169884,-0.9571323],"rotation":[-0.0,-1.0,0.0,-4.371139E-08],"name":"CIR139 - Wood Vertical Support (Centered) Part [8829792]018"},{"mesh":29,"translation":[-1.3065321,2.1169884,-1.0777831],"rotation":[-0.0,0.7071068,0.0,0.7071067],"name":"CIR139 - Wood Vertical Support (Centered) Part [8829792]019"},{"mesh":30,"translation":[-0.22857268,1.7668028,-1.0777831],"name":"Versa_Midrail_Single Generic [8729871]"},{"mesh":30,"translation":[-0.22857268,1.6603786,-1.0777831],"name":"Versa_Midrail_Single Generic [8729872]"},{"mesh":30,"translation":[-0.22857268,1.5539546,-1.0777831],"name":"Versa_Midrail_Single Generic [8729873]"},{"mesh":30,"translation":[-0.22857268,2.2989233,-1.0777831],"name":"Versa_Midrail_Single Generic [8729874]"},{"mesh":30,"translation":[-0.22857268,1.979651,-1.0777831],"name":"Versa_Midrail_Single Generic [8729875]"},{"mesh":30,"translation":[-0.22857268,1.8732268,-1.0777831],"name":"Versa_Midrail_Single Generic [8729876]"},{"mesh":30,"translation":[-0.22857268,2.1924992,-1.0777831],"name":"Versa_Midrail_Single Generic [8729877]"},{"mesh":30,"translation":[-0.22857268,2.086075,-1.0777831],"name":"Versa_Midrail_Single Generic [8729888]"},{"mesh":31,"translation":[28.894718,0.0,27.28066],"name":"Generic Models 4 Generic Models 3 [8730245]"},{"mesh":32,"translation":[-27.512218,0.0,29.240162],"rotation":[-0.0,-0.7071068,0.0,0.7071067],"name":"Generic Models 8 Generic Models 6 [8730498]"},{"mesh":33,"translation":[28.894718,0.0,27.28066],"name":"Generic Models 9 Generic Models 3 [8730804]"},{"mesh":34,"translation":[-1.4270737,1.3595351,-0.052394476],"rotation":[-0.7071067,-0.7071068,1.9656746E-08,-6.18036E-08],"scale":[1.0,0.99999994,0.99999994],"name":"Versa_Panel end bar Hardware [8731359]"},{"mesh":34,"translation":[-1.4271806,1.3595351,-0.92841774],"rotation":[-0.0,-0.0,0.7071068,0.7071067],"name":"Versa_Panel end bar Hardware [8734526]"},{"mesh":34,"translation":[-0.50339544,1.3595351,-1.0777831],"rotation":[-0.5,-0.5,0.50000006,0.49999994],"name":"Versa_Panel end bar Hardware [8734746]"},{"mesh":34,"translation":[-1.2778176,1.3595351,-1.0777831],"rotation":[0.5,0.5,0.50000006,0.49999994],"scale":[1.0,0.99999994,0.99999994],"name":"Versa_Panel end bar Hardware [8734751]"},{"mesh":35,"translation":[-1.4271806,1.57226,-0.4421335],"rotation":[-0.0,0.7071068,0.0,0.7071067],"name":"Versa_Midrail_Single Generic [8734509]"},{"mesh":35,"translation":[-1.4271806,1.47066,-0.4421335],"rotation":[-0.0,0.7071068,0.0,0.7071067],"name":"Versa_Midrail_Single Generic [8734510]"},{"mesh":35,"translation":[-1.4271806,1.36906,-0.4421335],"rotation":[-0.0,0.7071068,0.0,0.7071067],"name":"Versa_Midrail_Single Generic [8734511]"},{"mesh":35,"translation":[-1.4271806,2.08026,-0.4421335],"rotation":[-0.0,0.7071068,0.0,0.7071067],"name":"Versa_Midrail_Single Generic [8734512]"},{"mesh":35,"translation":[-1.4271806,1.77546,-0.4421335],"rotation":[-0.0,0.7071068,0.0,0.7071067],"name":"Versa_Midrail_Single Generic [8734513]"},{"mesh":35,"translation":[-1.4271806,1.6738601,-0.4421335],"rotation":[-0.0,0.7071068,0.0,0.7071067],"name":"Versa_Midrail_Single Generic [8734514]"},{"mesh":35,"translation":[-1.4271806,1.9786601,-0.4421335],"rotation":[-0.0,0.7071068,0.0,0.7071067],"name":"Versa_Midrail_Single Generic [8734515]"},{"mesh":35,"translation":[-1.4271806,1.87706,-0.4421335],"rotation":[-0.0,0.7071068,0.0,0.7071067],"name":"Versa_Midrail_Single Generic [8734516]"},{"mesh":36,"translation":[-0.85278344,1.57226,-1.0777831],"rotation":[-0.0,-1.0,0.0,-4.371139E-08],"name":"Versa_Midrail_Single Generic [8734735]"},{"mesh":36,"translation":[-0.85278344,1.47066,-1.0777831],"rotation":[-0.0,-1.0,0.0,-4.371139E-08],"name":"Versa_Midrail_Single Generic [8734736]"},{"mesh":36,"translation":[-0.85278344,1.36906,-1.0777831],"rotation":[-0.0,-1.0,0.0,-4.371139E-08],"name":"Versa_Midrail_Single Generic [8734737]"},{"mesh":36,"translation":[-0.85278344,2.08026,-1.0777831],"rotation":[-0.0,-1.0,0.0,-4.371139E-08],"name":"Versa_Midrail_Single Generic [8734738]"},{"mesh":36,"translation":[-0.85278344,1.77546,-1.0777831],"rotation":[-0.0,-1.0,0.0,-4.371139E-08],"name":"Versa_Midrail_Single Generic [8734739]"},{"mesh":36,"translation":[-0.85278344,1.6738601,-1.0777831],"rotation":[-0.0,-1.0,0.0,-4.371139E-08],"name":"Versa_Midrail_Single Generic [8734740]"},{"mesh":36,"translation":[-0.85278344,1.9786601,-1.0777831],"rotation":[-0.0,-1.0,0.0,-4.371139E-08],"name":"Versa_Midrail_Single Generic [8734741]"},{"mesh":36,"translation":[-0.85278344,1.87706,-1.0777831],"rotation":[-0.0,-1.0,0.0,-4.371139E-08],"name":"Versa_Midrail_Single Generic [8734752]"}],"meshes":[{"primitives":[{"attributes":{"POSITION":1,"TANGENT":2,"NORMAL":3,"TEXCOORD_0":4},"indices":0,"material":0}],"name":"VSQ022 - Versa Square Post Omaha Cap Part [8420509]002"},{"primitives":[{"attributes":{"POSITION":6,"TANGENT":7,"NORMAL":8,"TEXCOORD_0":9},"indices":5,"material":0}],"name":"LSXXX & LSXXX - Versa Square Post Material LS Material [8420510]"},{"primitives":[{"attributes":{"POSITION":11,"TANGENT":12,"NORMAL":13,"TEXCOORD_0":14},"indices":10,"material":0}],"name":"LSXXX & LSXXX - Versa Square Post Material LS Material [8420521]"},{"primitives":[{"attributes":{"POSITION":16,"TANGENT":17,"NORMAL":18,"TEXCOORD_0":19},"indices":15,"material":0}],"name":"CSQ001-US - Surface Mount Weldment Part [8729241]020"},{"primitives":[{"attributes":{"POSITION":21,"TANGENT":22,"NORMAL":23,"TEXCOORD_0":24},"indices":20,"material":0}],"name":"Bent Stem_026"},{"primitives":[{"attributes":{"POSITION":26,"TANGENT":27,"NORMAL":28,"TEXCOORD_0":29},"indices":25,"material":0}],"name":"VSQ057 - Top Rail Saddle Part [8420939]001"},{"primitives":[{"attributes":{"POSITION":31,"TANGENT":32,"NORMAL":33,"TEXCOORD_0":34},"indices":30,"material":0}],"name":"HW92485A634 - #10 x 1l2 Philips FH Thread Cutting Type F Hardware [8420940]001"},{"primitives":[{"attributes":{"POSITION":36,"TANGENT":37,"NORMAL":38,"TEXCOORD_0":39},"indices":35,"material":0}],"name":"Generic Models 5 Generic Models 3 [8422645]"},{"primitives":[{"attributes":{"POSITION":41,"TANGENT":42,"NORMAL":43,"TEXCOORD_0":44},"indices":40,"material":0}],"name":"Generic Models 6 Generic Models 6 [8423756]"},{"primitives":[{"attributes":{"POSITION":46,"TANGENT":47,"NORMAL":48,"TEXCOORD_0":49},"indices":45,"material":0}],"name":"Versa_Midrail_Single Generic [8424667]"},{"primitives":[{"attributes":{"POSITION":51,"TANGENT":52,"NORMAL":53,"TEXCOORD_0":54},"indices":50,"material":0}],"name":"Versa_Panel end bar Hardware [8424679]"},{"primitives":[{"attributes":{"POSITION":56,"TANGENT":57,"NORMAL":58,"TEXCOORD_0":59},"indices":55,"material":0}],"name":"Versa_Midrail_Single Generic [8426632]"},{"primitives":[{"attributes":{"POSITION":61,"TANGENT":62,"NORMAL":63,"TEXCOORD_0":64},"indices":60,"material":0}],"name":"Versa_Midrail_Single Generic [8426925]"},{"primitives":[{"attributes":{"POSITION":66,"TANGENT":67,"NORMAL":68,"TEXCOORD_0":69},"indices":65,"material":0}],"name":"Versa_Panel end bar Hardware [8426937]"},{"primitives":[{"attributes":{"POSITION":71,"TANGENT":72,"NORMAL":73,"TEXCOORD_0":74},"indices":70,"material":0}],"name":"Versa_Midrail_Single Generic [8428830]"},{"primitives":[{"attributes":{"POSITION":76,"TANGENT":77,"NORMAL":78,"TEXCOORD_0":79},"indices":75,"material":0}],"name":"LSXXX & LSXXX - Versa Square Post Material LS Material [8473579]"},{"primitives":[{"attributes":{"POSITION":81,"TANGENT":82,"NORMAL":83,"TEXCOORD_0":84},"indices":80,"material":0}],"name":"LSXXX & LSXXX - Versa Square Post Material LS Material [8473588]"},{"primitives":[{"attributes":{"POSITION":86,"TANGENT":87,"NORMAL":88,"TEXCOORD_0":89},"indices":85,"material":0}],"name":"LSXXX & LSXXX - Versa Square Post Material LS Material [8473716]"},{"primitives":[{"attributes":{"POSITION":91,"TANGENT":92,"NORMAL":93,"TEXCOORD_0":94},"indices":90,"material":0}],"name":"LSXXX & LSXXX - Versa Square Post Material LS Material [8473783]"},{"primitives":[{"attributes":{"POSITION":96,"TANGENT":97,"NORMAL":98,"TEXCOORD_0":99},"indices":95,"material":0}],"name":"Versa_Midrail_Single Generic [8477296]"},{"primitives":[{"attributes":{"POSITION":101,"TANGENT":102,"NORMAL":103,"TEXCOORD_0":104},"indices":100,"material":0}],"name":"LSXXX & LSXXX - Versa Square Post Material LS Material [8721348]"},{"primitives":[{"attributes":{"POSITION":106,"TANGENT":107,"NORMAL":108,"TEXCOORD_0":109},"indices":105,"material":0}],"name":"LSXXX & LSXXX - Versa Square Post Material LS Material [8721357]"},{"primitives":[{"attributes":{"POSITION":111,"TANGENT":112,"NORMAL":113,"TEXCOORD_0":114},"indices":110,"material":0}],"name":"LSXXX & LSXXX - Versa Square Post Material LS Material [8721366]"},{"primitives":[{"attributes":{"POSITION":116,"TANGENT":117,"NORMAL":118,"TEXCOORD_0":119},"indices":115,"material":0}],"name":"LSXXX & LSXXX - Versa Square Post Material LS Material [8721375]"},{"primitives":[{"attributes":{"POSITION":121,"TANGENT":122,"NORMAL":123,"TEXCOORD_0":124},"indices":120,"material":0}],"name":"LSXXX & LSXXX - Versa Square Post Material LS Material [8721402]007"},{"primitives":[{"attributes":{"POSITION":126,"TANGENT":127,"NORMAL":128,"TEXCOORD_0":129},"indices":125,"material":0}],"name":"LSXXX & LSXXX - Versa Square Post Material LS Material [8721402]006"},{"primitives":[{"attributes":{"POSITION":131,"TANGENT":132,"NORMAL":133,"TEXCOORD_0":134},"indices":130,"material":0}],"name":"LSXXX & LSXXX - Versa Square Post Material LS Material [8721429]"},{"primitives":[{"attributes":{"POSITION":136,"TANGENT":137,"NORMAL":138,"TEXCOORD_0":139},"indices":135,"material":0}],"name":"LSXXX & LSXXX - Versa Square Post Material LS Material [8721438]"},{"primitives":[{"attributes":{"POSITION":141,"TANGENT":142,"NORMAL":143,"TEXCOORD_0":144},"indices":140,"material":0}],"name":"LSXXX & LSXXX - Versa Square Post Material LS Material [8721402]002"},{"primitives":[{"attributes":{"POSITION":146,"TANGENT":147,"NORMAL":148,"TEXCOORD_0":149},"indices":145,"material":0}],"name":"CIR139 - Wood Vertical Support (Centered) Part [8829792]014"},{"primitives":[{"attributes":{"POSITION":151,"TANGENT":152,"NORMAL":153,"TEXCOORD_0":154},"indices":150,"material":0}],"name":"Versa_Midrail_Single Generic [8729871]"},{"primitives":[{"attributes":{"POSITION":156,"TANGENT":157,"NORMAL":158,"TEXCOORD_0":159},"indices":155,"material":0}],"name":"Generic Models 4 Generic Models 3 [8730245]"},{"primitives":[{"attributes":{"POSITION":161,"TANGENT":162,"NORMAL":163,"TEXCOORD_0":164},"indices":160,"material":0}],"name":"Generic Models 8 Generic Models 6 [8730498]"},{"primitives":[{"attributes":{"POSITION":166,"TANGENT":167,"NORMAL":168,"TEXCOORD_0":169},"indices":165,"material":0}],"name":"Generic Models 9 Generic Models 3 [8730804]"},{"primitives":[{"attributes":{"POSITION":171,"TANGENT":172,"NORMAL":173,"TEXCOORD_0":174},"indices":170,"material":0}],"name":"Versa_Panel end bar Hardware [8731359]"},{"primitives":[{"attributes":{"POSITION":176,"TANGENT":177,"NORMAL":178,"TEXCOORD_0":179},"indices":175,"material":0}],"name":"Versa_Midrail_Single Generic [8734509]"},{"primitives":[{"attributes":{"POSITION":181,"TANGENT":182,"NORMAL":183,"TEXCOORD_0":184},"indices":180,"material":0}],"name":"Versa_Midrail_Single Generic [8734735]"}],"accessors":[{"bufferView":0,"componentType":5123,"count":36,"type":"SCALAR","name":"accessorIndices"},{"bufferView":1,"componentType":5126,"count":24,"max":[0.025592525,0.0031750002,0.025590502],"min":[-0.025588477,-2.042859E-15,-0.025590502],"type":"VEC3","name":"accessorPositions"},{"bufferView":2,"componentType":5126,"count":24,"type":"VEC4","name":"accessorTangents"},{"bufferView":1,"byteOffset":288,"componentType":5126,"count":24,"type":"VEC3","name":"accessorNormals"},{"bufferView":3,"componentType":5126,"count":24,"type":"VEC2","name":"accessorUVs"},{"bufferView":0,"byteOffset":72,"componentType":5123,"count":36,"type":"SCALAR","name":"accessorIndices"},{"bufferView":1,"byteOffset":576,"componentType":5126,"count":24,"max":[0.9130321,0.025400002,0.025539069],"min":[6.291274E-15,-0.025400002,-0.025539069],"type":"VEC3","name":"accessorPositions"},{"bufferView":2,"byteOffset":384,"componentType":5126,"count":24,"type":"VEC4","name":"accessorTangents"},{"bufferView":1,"byteOffset":864,"componentType":5126,"count":24,"type":"VEC3","name":"accessorNormals"},{"bufferView":3,"byteOffset":192,"componentType":5126,"count":24,"type":"VEC2","name":"accessorUVs"},{"bufferView":0,"byteOffset":144,"componentType":5123,"count":36,"type":"SCALAR","name":"accessorIndices"},{"bufferView":1,"byteOffset":1152,"componentType":5126,"count":24,"max":[0.86947113,0.025400002,0.025539069],"min":[6.291274E-15,-0.025400002,-0.025539069],"type":"VEC3","name":"accessorPositions"},{"bufferView":2,"byteOffset":768,"componentType":5126,"count":24,"type":"VEC4","name":"accessorTangents"},{"bufferView":1,"byteOffset":1440,"componentType":5126,"count":24,"type":"VEC3","name":"accessorNormals"},{"bufferView":3,"byteOffset":384,"componentType":5126,"count":24,"type":"VEC2","name":"accessorUVs"},{"bufferView":0,"byteOffset":216,"componentType":5123,"count":642,"type":"SCALAR","name":"accessorIndices"},{"bufferView":1,"byteOffset":1728,"componentType":5126,"count":203,"max":[0.053975116,0.025400193,0.05397505],"min":[-0.053974975,-5.8135987E-07,-0.05397505],"type":"VEC3","name":"accessorPositions"},{"bufferView":2,"byteOffset":1152,"componentType":5126,"count":203,"type":"VEC4","name":"accessorTangents"},{"bufferView":1,"byteOffset":4164,"componentType":5126,"count":203,"type":"VEC3","name":"accessorNormals"},{"bufferView":3,"byteOffset":576,"componentType":5126,"count":203,"type":"VEC2","name":"accessorUVs"},{"bufferView":0,"byteOffset":1500,"componentType":5123,"count":2046,"type":"SCALAR","name":"accessorIndices"},{"bufferView":1,"byteOffset":6600,"componentType":5126,"count":480,"max":[0.006350001,0.053701945,0.0063499734],"min":[-0.006350001,-5.904436E-08,-0.02141023],"type":"VEC3","name":"accessorPositions"},{"bufferView":2,"byteOffset":4400,"componentType":5126,"count":480,"type":"VEC4","name":"accessorTangents"},{"bufferView":1,"byteOffset":12360,"componentType":5126,"count":480,"type":"VEC3","name":"accessorNormals"},{"bufferView":3,"byteOffset":2200,"componentType":5126,"count":480,"type":"VEC2","name":"accessorUVs"},{"bufferView":0,"byteOffset":5592,"componentType":5123,"count":1716,"type":"SCALAR","name":"accessorIndices"},{"bufferView":1,"byteOffset":18120,"componentType":5126,"count":628,"max":[0.03175,0.01905,0.04445],"min":[0.025400002,-0.01905,-0.04445],"type":"VEC3","name":"accessorPositions"},{"bufferView":2,"byteOffset":12080,"componentType":5126,"count":628,"type":"VEC4","name":"accessorTangents"},{"bufferView":1,"byteOffset":25656,"componentType":5126,"count":628,"type":"VEC3","name":"accessorNormals"},{"bufferView":3,"byteOffset":6040,"componentType":5126,"count":628,"type":"VEC2","name":"accessorUVs"},{"bufferView":0,"byteOffset":9024,"componentType":5123,"count":624,"type":"SCALAR","name":"accessorIndices"},{"bufferView":1,"byteOffset":33192,"componentType":5126,"count":238,"max":[0.0024260222,0.0045974003,0.0045974003],"min":[1.8701417E-14,-0.0045974003,-0.0045974003],"type":"VEC3","name":"accessorPositions"},{"bufferView":2,"byteOffset":22128,"componentType":5126,"count":238,"type":"VEC4","name":"accessorTangents"},{"bufferView":1,"byteOffset":36048,"componentType":5126,"count":238,"type":"VEC3","name":"accessorNormals"},{"bufferView":3,"byteOffset":11064,"componentType":5126,"count":238,"type":"VEC2","name":"accessorUVs"},{"bufferView":0,"byteOffset":10272,"componentType":5123,"count":108,"type":"SCALAR","name":"accessorIndices"},{"bufferView":1,"byteOffset":38904,"componentType":5126,"count":72,"max":[-27.32986,3.6585054,-27.278944],"min":[-29.339334,2.2683382,-27.329744],"type":"VEC3","name":"accessorPositions"},{"bufferView":2,"byteOffset":25936,"componentType":5126,"count":72,"type":"VEC4","name":"accessorTangents"},{"bufferView":1,"byteOffset":39768,"componentType":5126,"count":72,"type":"VEC3","name":"accessorNormals"},{"bufferView":3,"byteOffset":12968,"componentType":5126,"count":72,"type":"VEC2","name":"accessorUVs"},{"bufferView":0,"byteOffset":10488,"componentType":5123,"count":96,"type":"SCALAR","name":"accessorIndices"},{"bufferView":1,"byteOffset":40632,"componentType":5126,"count":70,"max":[-27.58691,2.19456,-27.113844],"min":[-29.238445,1.075439,-27.164644],"type":"VEC3","name":"accessorPositions"},{"bufferView":2,"byteOffset":27088,"componentType":5126,"count":70,"type":"VEC4","name":"accessorTangents"},{"bufferView":1,"byteOffset":41472,"componentType":5126,"count":70,"type":"VEC3","name":"accessorNormals"},{"bufferView":3,"byteOffset":13544,"componentType":5126,"count":70,"type":"VEC2","name":"accessorUVs"},{"bufferView":0,"byteOffset":10680,"componentType":5123,"count":36,"type":"SCALAR","name":"accessorIndices"},{"bufferView":1,"byteOffset":42312,"componentType":5126,"count":24,"max":[0.65403503,0.460386,0.01905],"min":[-0.08296073,-0.068484254,-0.01905],"type":"VEC3","name":"accessorPositions"},{"bufferView":2,"byteOffset":28208,"componentType":5126,"count":24,"type":"VEC4","name":"accessorTangents"},{"bufferView":1,"byteOffset":42600,"componentType":5126,"count":24,"type":"VEC3","name":"accessorNormals"},{"bufferView":3,"byteOffset":14104,"componentType":5126,"count":24,"type":"VEC2","name":"accessorUVs"},{"bufferView":0,"byteOffset":10752,"componentType":5123,"count":36,"type":"SCALAR","name":"accessorIndices"},{"bufferView":1,"byteOffset":42888,"componentType":5126,"count":24,"max":[0.768073,0.01905,0.0031750002],"min":[6.2941655E-15,-0.01905,-0.0031750002],"type":"VEC3","name":"accessorPositions"},{"bufferView":2,"byteOffset":28592,"componentType":5126,"count":24,"type":"VEC4","name":"accessorTangents"},{"bufferView":1,"byteOffset":43176,"componentType":5126,"count":24,"type":"VEC3","name":"accessorNormals"},{"bufferView":3,"byteOffset":14296,"componentType":5126,"count":24,"type":"VEC2","name":"accessorUVs"},{"bufferView":0,"byteOffset":10824,"componentType":5123,"count":36,"type":"SCALAR","name":"accessorIndices"},{"bufferView":1,"byteOffset":43464,"componentType":5126,"count":24,"max":[0.38621122,0.27659094,0.01905],"min":[-0.14646074,-0.11206136,-0.01905],"type":"VEC3","name":"accessorPositions"},{"bufferView":2,"byteOffset":28976,"componentType":5126,"count":24,"type":"VEC4","name":"accessorTangents"},{"bufferView":1,"byteOffset":43752,"componentType":5126,"count":24,"type":"VEC3","name":"accessorNormals"},{"bufferView":3,"byteOffset":14488,"componentType":5126,"count":24,"type":"VEC2","name":"accessorUVs"},{"bufferView":0,"byteOffset":10896,"componentType":5123,"count":36,"type":"SCALAR","name":"accessorIndices"},{"bufferView":1,"byteOffset":44040,"componentType":5126,"count":24,"max":[0.2659866,0.19417362,0.01905],"min":[-0.4012941,-0.28694168,-0.01905],"type":"VEC3","name":"accessorPositions"},{"bufferView":2,"byteOffset":29360,"componentType":5126,"count":24,"type":"VEC4","name":"accessorTangents"},{"bufferView":1,"byteOffset":44328,"componentType":5126,"count":24,"type":"VEC3","name":"accessorNormals"},{"bufferView":3,"byteOffset":14680,"componentType":5126,"count":24,"type":"VEC2","name":"accessorUVs"},{"bufferView":0,"byteOffset":10968,"componentType":5123,"count":36,"type":"SCALAR","name":"accessorIndices"},{"bufferView":1,"byteOffset":44616,"componentType":5126,"count":24,"max":[0.7680792,0.01905,0.0031750002],"min":[6.2941655E-15,-0.01905,-0.0031750002],"type":"VEC3","name":"accessorPositions"},{"bufferView":2,"byteOffset":29744,"componentType":5126,"count":24,"type":"VEC4","name":"accessorTangents"},{"bufferView":1,"byteOffset":44904,"componentType":5126,"count":24,"type":"VEC3","name":"accessorNormals"},{"bufferView":3,"byteOffset":14872,"componentType":5126,"count":24,"type":"VEC2","name":"accessorUVs"},{"bufferView":0,"byteOffset":11040,"componentType":5123,"count":36,"type":"SCALAR","name":"accessorIndices"},{"bufferView":1,"byteOffset":45192,"componentType":5126,"count":24,"max":[0.39663607,0.28374508,0.01905],"min":[-0.4015983,-0.2871504,-0.01905],"type":"VEC3","name":"accessorPositions"},{"bufferView":2,"byteOffset":30128,"componentType":5126,"count":24,"type":"VEC4","name":"accessorTangents"},{"bufferView":1,"byteOffset":45480,"componentType":5126,"count":24,"type":"VEC3","name":"accessorNormals"},{"bufferView":3,"byteOffset":15064,"componentType":5126,"count":24,"type":"VEC2","name":"accessorUVs"},{"bufferView":0,"byteOffset":11112,"componentType":5123,"count":36,"type":"SCALAR","name":"accessorIndices"},{"bufferView":1,"byteOffset":45768,"componentType":5126,"count":24,"max":[0.9565424,0.025400002,0.025539069],"min":[6.291274E-15,-0.025400002,-0.025539069],"type":"VEC3","name":"accessorPositions"},{"bufferView":2,"byteOffset":30512,"componentType":5126,"count":24,"type":"VEC4","name":"accessorTangents"},{"bufferView":1,"byteOffset":46056,"componentType":5126,"count":24,"type":"VEC3","name":"accessorNormals"},{"bufferView":3,"byteOffset":15256,"componentType":5126,"count":24,"type":"VEC2","name":"accessorUVs"},{"bufferView":0,"byteOffset":11184,"componentType":5123,"count":36,"type":"SCALAR","name":"accessorIndices"},{"bufferView":1,"byteOffset":46344,"componentType":5126,"count":24,"max":[0.91298133,0.025400002,0.025539069],"min":[6.291274E-15,-0.025400002,-0.025539069],"type":"VEC3","name":"accessorPositions"},{"bufferView":2,"byteOffset":30896,"componentType":5126,"count":24,"type":"VEC4","name":"accessorTangents"},{"bufferView":1,"byteOffset":46632,"componentType":5126,"count":24,"type":"VEC3","name":"accessorNormals"},{"bufferView":3,"byteOffset":15448,"componentType":5126,"count":24,"type":"VEC2","name":"accessorUVs"},{"bufferView":0,"byteOffset":11256,"componentType":5123,"count":36,"type":"SCALAR","name":"accessorIndices"},{"bufferView":1,"byteOffset":46920,"componentType":5126,"count":24,"max":[0.9565677,0.025400002,0.025539069],"min":[6.291274E-15,-0.025400002,-0.025539069],"type":"VEC3","name":"accessorPositions"},{"bufferView":2,"byteOffset":31280,"componentType":5126,"count":24,"type":"VEC4","name":"accessorTangents"},{"bufferView":1,"byteOffset":47208,"componentType":5126,"count":24,"type":"VEC3","name":"accessorNormals"},{"bufferView":3,"byteOffset":15640,"componentType":5126,"count":24,"type":"VEC2","name":"accessorUVs"},{"bufferView":0,"byteOffset":11328,"componentType":5123,"count":36,"type":"SCALAR","name":"accessorIndices"},{"bufferView":1,"byteOffset":47496,"componentType":5126,"count":24,"max":[0.91298133,0.025400002,0.025539069],"min":[6.291274E-15,-0.025400002,-0.025539069],"type":"VEC3","name":"accessorPositions"},{"bufferView":2,"byteOffset":31664,"componentType":5126,"count":24,"type":"VEC4","name":"accessorTangents"},{"bufferView":1,"byteOffset":47784,"componentType":5126,"count":24,"type":"VEC3","name":"accessorNormals"},{"bufferView":3,"byteOffset":15832,"componentType":5126,"count":24,"type":"VEC2","name":"accessorUVs"},{"bufferView":0,"byteOffset":11400,"componentType":5123,"count":36,"type":"SCALAR","name":"accessorIndices"},{"bufferView":1,"byteOffset":48072,"componentType":5126,"count":24,"max":[0.29305273,0.21266063,0.01905],"min":[-0.1126192,-0.08883748,-0.01905],"type":"VEC3","name":"accessorPositions"},{"bufferView":2,"byteOffset":32048,"componentType":5126,"count":24,"type":"VEC4","name":"accessorTangents"},{"bufferView":1,"byteOffset":48360,"componentType":5126,"count":24,"type":"VEC3","name":"accessorNormals"},{"bufferView":3,"byteOffset":16024,"componentType":5126,"count":24,"type":"VEC2","name":"accessorUVs"},{"bufferView":0,"byteOffset":11472,"componentType":5123,"count":36,"type":"SCALAR","name":"accessorIndices"},{"bufferView":1,"byteOffset":48648,"componentType":5126,"count":24,"max":[0.9565424,0.025400002,0.025539069],"min":[6.291274E-15,-0.025400002,-0.025539069],"type":"VEC3","name":"accessorPositions"},{"bufferView":2,"byteOffset":32432,"componentType":5126,"count":24,"type":"VEC4","name":"accessorTangents"},{"bufferView":1,"byteOffset":48936,"componentType":5126,"count":24,"type":"VEC3","name":"accessorNormals"},{"bufferView":3,"byteOffset":16216,"componentType":5126,"count":24,"type":"VEC2","name":"accessorUVs"},{"bufferView":0,"byteOffset":11544,"componentType":5123,"count":36,"type":"SCALAR","name":"accessorIndices"},{"bufferView":1,"byteOffset":49224,"componentType":5126,"count":24,"max":[0.9565424,0.025400002,0.025539069],"min":[6.291274E-15,-0.025400002,-0.025539069],"type":"VEC3","name":"accessorPositions"},{"bufferView":2,"byteOffset":32816,"componentType":5126,"count":24,"type":"VEC4","name":"accessorTangents"},{"bufferView":1,"byteOffset":49512,"componentType":5126,"count":24,"type":"VEC3","name":"accessorNormals"},{"bufferView":3,"byteOffset":16408,"componentType":5126,"count":24,"type":"VEC2","name":"accessorUVs"},{"bufferView":0,"byteOffset":11616,"componentType":5123,"count":36,"type":"SCALAR","name":"accessorIndices"},{"bufferView":1,"byteOffset":49800,"componentType":5126,"count":24,"max":[0.8868447,0.025400002,0.025539069],"min":[6.291274E-15,-0.025400002,-0.025539069],"type":"VEC3","name":"accessorPositions"},{"bufferView":2,"byteOffset":33200,"componentType":5126,"count":24,"type":"VEC4","name":"accessorTangents"},{"bufferView":1,"byteOffset":50088,"componentType":5126,"count":24,"type":"VEC3","name":"accessorNormals"},{"bufferView":3,"byteOffset":16600,"componentType":5126,"count":24,"type":"VEC2","name":"accessorUVs"},{"bufferView":0,"byteOffset":11688,"componentType":5123,"count":36,"type":"SCALAR","name":"accessorIndices"},{"bufferView":1,"byteOffset":50376,"componentType":5126,"count":24,"max":[0.91298133,0.025400002,0.025539069],"min":[6.291274E-15,-0.025400002,-0.025539069],"type":"VEC3","name":"accessorPositions"},{"bufferView":2,"byteOffset":33584,"componentType":5126,"count":24,"type":"VEC4","name":"accessorTangents"},{"bufferView":1,"byteOffset":50664,"componentType":5126,"count":24,"type":"VEC3","name":"accessorNormals"},{"bufferView":3,"byteOffset":16792,"componentType":5126,"count":24,"type":"VEC2","name":"accessorUVs"},{"bufferView":0,"byteOffset":11760,"componentType":5123,"count":36,"type":"SCALAR","name":"accessorIndices"},{"bufferView":1,"byteOffset":50952,"componentType":5126,"count":24,"max":[0.8336788,0.025400002,0.025539069],"min":[6.291274E-15,-0.025400002,-0.025539069],"type":"VEC3","name":"accessorPositions"},{"bufferView":2,"byteOffset":33968,"componentType":5126,"count":24,"type":"VEC4","name":"accessorTangents"},{"bufferView":1,"byteOffset":51240,"componentType":5126,"count":24,"type":"VEC3","name":"accessorNormals"},{"bufferView":3,"byteOffset":16984,"componentType":5126,"count":24,"type":"VEC2","name":"accessorUVs"},{"bufferView":0,"byteOffset":11832,"componentType":5123,"count":36,"type":"SCALAR","name":"accessorIndices"},{"bufferView":1,"byteOffset":51528,"componentType":5126,"count":24,"max":[0.8336788,0.025400002,0.025539069],"min":[6.291274E-15,-0.025400002,-0.025539069],"type":"VEC3","name":"accessorPositions"},{"bufferView":2,"byteOffset":34352,"componentType":5126,"count":24,"type":"VEC4","name":"accessorTangents"},{"bufferView":1,"byteOffset":51816,"componentType":5126,"count":24,"type":"VEC3","name":"accessorNormals"},{"bufferView":3,"byteOffset":17176,"componentType":5126,"count":24,"type":"VEC2","name":"accessorUVs"},{"bufferView":0,"byteOffset":11904,"componentType":5123,"count":36,"type":"SCALAR","name":"accessorIndices"},{"bufferView":1,"byteOffset":52104,"componentType":5126,"count":24,"max":[0.9130321,0.025400002,0.025539069],"min":[6.291274E-15,-0.025400002,-0.025539069],"type":"VEC3","name":"accessorPositions"},{"bufferView":2,"byteOffset":34736,"componentType":5126,"count":24,"type":"VEC4","name":"accessorTangents"},{"bufferView":1,"byteOffset":52392,"componentType":5126,"count":24,"type":"VEC3","name":"accessorNormals"},{"bufferView":3,"byteOffset":17368,"componentType":5126,"count":24,"type":"VEC2","name":"accessorUVs"},{"bufferView":0,"byteOffset":11976,"componentType":5123,"count":36,"type":"SCALAR","name":"accessorIndices"},{"bufferView":1,"byteOffset":52680,"componentType":5126,"count":24,"max":[0.86947113,0.025400002,0.025539069],"min":[6.291274E-15,-0.025400002,-0.025539069],"type":"VEC3","name":"accessorPositions"},{"bufferView":2,"byteOffset":35120,"componentType":5126,"count":24,"type":"VEC4","name":"accessorTangents"},{"bufferView":1,"byteOffset":52968,"componentType":5126,"count":24,"type":"VEC3","name":"accessorNormals"},{"bufferView":3,"byteOffset":17560,"componentType":5126,"count":24,"type":"VEC2","name":"accessorUVs"},{"bufferView":0,"byteOffset":12048,"componentType":5123,"count":36,"type":"SCALAR","name":"accessorIndices"},{"bufferView":1,"byteOffset":53256,"componentType":5126,"count":24,"max":[0.8336788,0.025400002,0.025539069],"min":[6.291274E-15,-0.025400002,-0.025539069],"type":"VEC3","name":"accessorPositions"},{"bufferView":2,"byteOffset":35504,"componentType":5126,"count":24,"type":"VEC4","name":"accessorTangents"},{"bufferView":1,"byteOffset":53544,"componentType":5126,"count":24,"type":"VEC3","name":"accessorNormals"},{"bufferView":3,"byteOffset":17752,"componentType":5126,"count":24,"type":"VEC2","name":"accessorUVs"},{"bufferView":0,"byteOffset":12120,"componentType":5123,"count":564,"type":"SCALAR","name":"accessorIndices"},{"bufferView":1,"byteOffset":53832,"componentType":5126,"count":194,"max":[0.0063500004,0.0468122,0.0063500004],"min":[-0.0063500004,-2.0049962E-15,-0.0063500004],"type":"VEC3","name":"accessorPositions"},{"bufferView":2,"byteOffset":35888,"componentType":5126,"count":194,"type":"VEC4","name":"accessorTangents"},{"bufferView":1,"byteOffset":56160,"componentType":5126,"count":194,"type":"VEC3","name":"accessorNormals"},{"bufferView":3,"byteOffset":17944,"componentType":5126,"count":194,"type":"VEC2","name":"accessorUVs"},{"bufferView":0,"byteOffset":13248,"componentType":5123,"count":36,"type":"SCALAR","name":"accessorIndices"},{"bufferView":1,"byteOffset":58488,"componentType":5126,"count":24,"max":[0.29305273,0.21266063,0.01905],"min":[-0.21421921,-0.15856086,-0.01905],"type":"VEC3","name":"accessorPositions"},{"bufferView":2,"byteOffset":38992,"componentType":5126,"count":24,"type":"VEC4","name":"accessorTangents"},{"bufferView":1,"byteOffset":58776,"componentType":5126,"count":24,"type":"VEC3","name":"accessorNormals"},{"bufferView":3,"byteOffset":19496,"componentType":5126,"count":24,"type":"VEC2","name":"accessorUVs"},{"bufferView":0,"byteOffset":13320,"componentType":5123,"count":96,"type":"SCALAR","name":"accessorIndices"},{"bufferView":1,"byteOffset":59064,"componentType":5126,"count":60,"max":[-27.32986,3.6585054,-28.333042],"min":[-29.953604,2.1691601,-28.383844],"type":"VEC3","name":"accessorPositions"},{"bufferView":2,"byteOffset":39376,"componentType":5126,"count":60,"type":"VEC4","name":"accessorTangents"},{"bufferView":1,"byteOffset":59784,"componentType":5126,"count":60,"type":"VEC3","name":"accessorNormals"},{"bufferView":3,"byteOffset":19688,"componentType":5126,"count":60,"type":"VEC2","name":"accessorUVs"},{"bufferView":0,"byteOffset":13512,"componentType":5123,"count":96,"type":"SCALAR","name":"accessorIndices"},{"bufferView":1,"byteOffset":60504,"componentType":5126,"count":60,"max":[-27.58691,2.19456,-26.059744],"min":[-29.953604,1.075439,-26.110544],"type":"VEC3","name":"accessorPositions"},{"bufferView":2,"byteOffset":40336,"componentType":5126,"count":60,"type":"VEC4","name":"accessorTangents"},{"bufferView":1,"byteOffset":61224,"componentType":5126,"count":60,"type":"VEC3","name":"accessorNormals"},{"bufferView":3,"byteOffset":20168,"componentType":5126,"count":60,"type":"VEC2","name":"accessorUVs"},{"bufferView":0,"byteOffset":13704,"componentType":5123,"count":54,"type":"SCALAR","name":"accessorIndices"},{"bufferView":1,"byteOffset":61944,"componentType":5126,"count":32,"max":[-29.953604,2.19456,-27.994102],"min":[-30.347303,2.1691601,-28.383844],"type":"VEC3","name":"accessorPositions"},{"bufferView":2,"byteOffset":41296,"componentType":5126,"count":32,"type":"VEC4","name":"accessorTangents"},{"bufferView":1,"byteOffset":62328,"componentType":5126,"count":32,"type":"VEC3","name":"accessorNormals"},{"bufferView":3,"byteOffset":20648,"componentType":5126,"count":32,"type":"VEC2","name":"accessorUVs"},{"bufferView":0,"byteOffset":13812,"componentType":5123,"count":36,"type":"SCALAR","name":"accessorIndices"},{"bufferView":1,"byteOffset":62712,"componentType":5126,"count":24,"max":[0.73025,0.01905,0.0031750002],"min":[6.2941655E-15,-0.01905,-0.0031750002],"type":"VEC3","name":"accessorPositions"},{"bufferView":2,"byteOffset":41808,"componentType":5126,"count":24,"type":"VEC4","name":"accessorTangents"},{"bufferView":1,"byteOffset":63000,"componentType":5126,"count":24,"type":"VEC3","name":"accessorNormals"},{"bufferView":3,"byteOffset":20904,"componentType":5126,"count":24,"type":"VEC2","name":"accessorUVs"},{"bufferView":0,"byteOffset":13884,"componentType":5123,"count":36,"type":"SCALAR","name":"accessorIndices"},{"bufferView":1,"byteOffset":63288,"componentType":5126,"count":24,"max":[0.48311087,0.009525,0.019050004],"min":[-0.38656387,-0.009525,-0.01905],"type":"VEC3","name":"accessorPositions"},{"bufferView":2,"byteOffset":42192,"componentType":5126,"count":24,"type":"VEC4","name":"accessorTangents"},{"bufferView":1,"byteOffset":63576,"componentType":5126,"count":24,"type":"VEC3","name":"accessorNormals"},{"bufferView":3,"byteOffset":21096,"componentType":5126,"count":24,"type":"VEC2","name":"accessorUVs"},{"bufferView":0,"byteOffset":13956,"componentType":5123,"count":36,"type":"SCALAR","name":"accessorIndices"},{"bufferView":1,"byteOffset":63864,"componentType":5126,"count":24,"max":[0.42185944,0.009525,0.01905],"min":[-0.34621245,-0.009525,-0.01905],"type":"VEC3","name":"accessorPositions"},{"bufferView":2,"byteOffset":42576,"componentType":5126,"count":24,"type":"VEC4","name":"accessorTangents"},{"bufferView":1,"byteOffset":64152,"componentType":5126,"count":24,"type":"VEC3","name":"accessorNormals"},{"bufferView":3,"byteOffset":21288,"componentType":5126,"count":24,"type":"VEC2","name":"accessorUVs"}],"bufferViews":[{"buffer":0,"byteLength":14028,"name":"bufferViewScalar"},{"buffer":0,"byteOffset":14028,"byteLength":64440,"byteStride":12,"name":"bufferViewFloatVec3"},{"buffer":0,"byteOffset":78468,"byteLength":42960,"byteStride":16,"name":"bufferViewFloatVec4"},{"buffer":0,"byteOffset":121428,"byteLength":21480,"byteStride":8,"name":"bufferViewFloatVec2"}],"buffers":[{"uri":"L-Shaped_Railing_Versa-Square_Midrail.bin","byteLength":142908}],"materials":[{"pbrMetallicRoughness":{"baseColorFactor":[0.004515516,0.004515516,0.004515516,1.0],"metallicFactor":0.0,"metallicRoughnessTexture":{"index":0}},"name":"PowderCoat_Linear"}],"textures":[{"sampler":0,"source":0,"name":"PowderCoat_Roughness_2k0.jpg"}],"images":[{"uri":"textures/PowderCoat_Roughness_2k0.jpg"}],"samplers":[{"magFilter":9729,"minFilter":9987}]}