{"asset":{"version":"2.0","generator":"babylon.js glTF exporter for 3dsmax 2026 v20251111.2"},"extensionsUsed":["KHR_materials_ior","KHR_materials_transmission","KHR_materials_volume","KHR_texture_transform"],"extensionsRequired":["KHR_texture_transform"],"scene":0,"scenes":[{"nodes":[0,1,2,3,4,5,6,7]}],"nodes":[{"mesh":0,"translation":[0.02016621,2.3882964,-1.130914],"name":"Casework 2 Casework 1 [8743341]001"},{"mesh":1,"translation":[0.6578017,2.434603,0.029523006],"name":"Casework 5 Casework 1 [8445778]001"},{"mesh":2,"translation":[-27.601046,0.0,24.970474],"rotation":[-0.0,-0.7071068,0.0,0.7071067],"name":"Generic Models 7 Generic Models 1 [8445814]002"},{"mesh":3,"translation":[0.006555414,2.9352365,-0.530601],"name":"Generic Models 11 Generic Models 11 [8762451]003"},{"mesh":4,"translation":[0.6908683,3.0520713,0.029593417],"name":"Generic Models 11 Generic Models 11 [8762451]004"},{"mesh":5,"translation":[-27.423489,0.0,24.970474],"rotation":[-0.0,-0.7071068,0.0,0.7071067],"name":"Object002"},{"mesh":6,"translation":[-1.48045,1.1036301,0.2196456],"rotation":[-0.0,-0.7071068,0.0,0.7071067],"name":"Casework 4 Casework 1 [8744916]002"},{"mesh":7,"translation":[-0.31973758,1.0982366,0.8572834],"rotation":[-0.0,-0.7071068,0.0,0.7071067],"name":"Casework 6 Casework 1 [8445804]002"}],"meshes":[{"primitives":[{"attributes":{"POSITION":1,"TANGENT":2,"NORMAL":3,"TEXCOORD_0":4},"indices":0,"material":0}],"name":"Casework 2 Casework 1 [8743341]001"},{"primitives":[{"attributes":{"POSITION":6,"TANGENT":7,"NORMAL":8,"TEXCOORD_0":9},"indices":5,"material":0}],"name":"Casework 5 Casework 1 [8445778]001"},{"primitives":[{"attributes":{"POSITION":11,"TANGENT":12,"NORMAL":13,"TEXCOORD_0":14},"indices":10,"material":1},{"attributes":{"POSITION":16,"TANGENT":17,"NORMAL":18,"TEXCOORD_0":19},"indices":15,"material":2}],"name":"Generic Models 7 Generic Models 1 [8445814]002"},{"primitives":[{"attributes":{"POSITION":21,"TANGENT":22,"NORMAL":23,"TEXCOORD_0":24},"indices":20,"material":1},{"attributes":{"POSITION":26,"TANGENT":27,"NORMAL":28,"TEXCOORD_0":29},"indices":25,"material":2}],"name":"Generic Models 11 Generic Models 11 [8762451]003"},{"primitives":[{"attributes":{"POSITION":31,"TANGENT":32,"NORMAL":33,"TEXCOORD_0":34},"indices":30,"material":1},{"attributes":{"POSITION":36,"TANGENT":37,"NORMAL":38,"TEXCOORD_0":39},"indices":35,"material":2}],"name":"Generic Models 11 Generic Models 11 [8762451]004"},{"primitives":[{"attributes":{"POSITION":41,"TANGENT":42,"NORMAL":43,"TEXCOORD_0":44},"indices":40,"material":1},{"attributes":{"POSITION":46,"TANGENT":47,"NORMAL":48,"TEXCOORD_0":49},"indices":45,"material":2}],"name":"Object002"},{"primitives":[{"attributes":{"POSITION":51,"TANGENT":52,"NORMAL":53,"TEXCOORD_0":54},"indices":50,"material":0}],"name":"Casework 4 Casework 1 [8744916]002"},{"primitives":[{"attributes":{"POSITION":56,"TANGENT":57,"NORMAL":58,"TEXCOORD_0":59},"indices":55,"material":0}],"name":"Casework 6 Casework 1 [8445804]002"}],"accessors":[{"bufferView":0,"componentType":5123,"count":1134,"type":"SCALAR","name":"accessorIndices"},{"bufferView":1,"componentType":5126,"count":480,"max":[1.5733621,1.2916126,0.0071623535],"min":[-1.484462,-1.2351322,-0.0071623535],"type":"VEC3","name":"accessorPositions"},{"bufferView":2,"componentType":5126,"count":480,"type":"VEC4","name":"accessorTangents"},{"bufferView":1,"byteOffset":5760,"componentType":5126,"count":480,"type":"VEC3","name":"accessorNormals"},{"bufferView":3,"componentType":5126,"count":480,"type":"VEC2","name":"accessorUVs"},{"bufferView":0,"byteOffset":2268,"componentType":5123,"count":696,"type":"SCALAR","name":"accessorIndices"},{"bufferView":1,"byteOffset":11520,"componentType":5126,"count":347,"max":[0.93572664,1.2459797,0.0071623535],"min":[-0.941714,-1.2627645,-0.0071623535],"type":"VEC3","name":"accessorPositions"},{"bufferView":2,"byteOffset":7680,"componentType":5126,"count":347,"type":"VEC4","name":"accessorTangents"},{"bufferView":1,"byteOffset":15684,"componentType":5126,"count":347,"type":"VEC3","name":"accessorNormals"},{"bufferView":3,"byteOffset":3840,"componentType":5126,"count":347,"type":"VEC2","name":"accessorUVs"},{"bufferView":0,"byteOffset":3660,"componentType":5123,"count":4641,"type":"SCALAR","name":"accessorIndices"},{"bufferView":1,"byteOffset":19848,"componentType":5126,"count":1906,"max":[-23.313078,2.200224,-27.262262],"min":[-24.909208,1.0594453,-27.300385],"type":"VEC3","name":"accessorPositions"},{"bufferView":2,"byteOffset":13232,"componentType":5126,"count":1906,"type":"VEC4","name":"accessorTangents"},{"bufferView":1,"byteOffset":42720,"componentType":5126,"count":1906,"type":"VEC3","name":"accessorNormals"},{"bufferView":3,"byteOffset":6616,"componentType":5126,"count":1906,"type":"VEC2","name":"accessorUVs"},{"bufferView":0,"byteOffset":12944,"componentType":5123,"count":1155,"type":"SCALAR","name":"accessorIndices"},{"bufferView":1,"byteOffset":65592,"componentType":5126,"count":391,"max":[-23.313078,2.200224,-27.262262],"min":[-24.909208,1.0594453,-27.300362],"type":"VEC3","name":"accessorPositions"},{"bufferView":2,"byteOffset":43728,"componentType":5126,"count":391,"type":"VEC4","name":"accessorTangents"},{"bufferView":1,"byteOffset":70284,"componentType":5126,"count":391,"type":"VEC3","name":"accessorNormals"},{"bufferView":3,"byteOffset":21864,"componentType":5126,"count":391,"type":"VEC2","name":"accessorUVs"},{"bufferView":0,"byteOffset":15256,"componentType":5123,"count":3726,"type":"SCALAR","name":"accessorIndices"},{"bufferView":1,"byteOffset":74976,"componentType":5126,"count":1558,"max":[1.5949212,0.7637589,0.5305816],"min":[-1.5059946,-0.7637591,-0.6193436],"type":"VEC3","name":"accessorPositions"},{"bufferView":2,"byteOffset":49984,"componentType":5126,"count":1558,"type":"VEC4","name":"accessorTangents"},{"bufferView":1,"byteOffset":93672,"componentType":5126,"count":1558,"type":"VEC3","name":"accessorNormals"},{"bufferView":3,"byteOffset":24992,"componentType":5126,"count":1558,"type":"VEC2","name":"accessorUVs"},{"bufferView":0,"byteOffset":22708,"componentType":5123,"count":246,"type":"SCALAR","name":"accessorIndices"},{"bufferView":1,"byteOffset":112368,"componentType":5126,"count":84,"max":[1.5949212,0.7637589,-0.5812436],"min":[1.5949212,0.7175495,-0.6193436],"type":"VEC3","name":"accessorPositions"},{"bufferView":2,"byteOffset":74912,"componentType":5126,"count":84,"type":"VEC4","name":"accessorTangents"},{"bufferView":1,"byteOffset":113376,"componentType":5126,"count":84,"type":"VEC3","name":"accessorNormals"},{"bufferView":3,"byteOffset":37456,"componentType":5126,"count":84,"type":"VEC2","name":"accessorUVs"},{"bufferView":0,"byteOffset":23200,"componentType":5123,"count":4080,"type":"SCALAR","name":"accessorIndices"},{"bufferView":1,"byteOffset":114384,"componentType":5126,"count":1538,"max":[0.9106084,0.6469242,0.019062791],"min":[-0.9790999,-0.6939682,-0.019062791],"type":"VEC3","name":"accessorPositions"},{"bufferView":2,"byteOffset":76256,"componentType":5126,"count":1538,"type":"VEC4","name":"accessorTangents"},{"bufferView":1,"byteOffset":132840,"componentType":5126,"count":1538,"type":"VEC3","name":"accessorNormals"},{"bufferView":3,"byteOffset":38128,"componentType":5126,"count":1538,"type":"VEC2","name":"accessorUVs"},{"bufferView":0,"byteOffset":31360,"componentType":5123,"count":738,"type":"SCALAR","name":"accessorIndices"},{"bufferView":1,"byteOffset":151296,"componentType":5126,"count":252,"max":[0.9106084,0.6469242,0.019062791],"min":[-0.9790999,-0.6939682,-0.019062791],"type":"VEC3","name":"accessorPositions"},{"bufferView":2,"byteOffset":100864,"componentType":5126,"count":252,"type":"VEC4","name":"accessorTangents"},{"bufferView":1,"byteOffset":154320,"componentType":5126,"count":252,"type":"VEC3","name":"accessorNormals"},{"bufferView":3,"byteOffset":50432,"componentType":5126,"count":252,"type":"VEC2","name":"accessorUVs"},{"bufferView":0,"byteOffset":32836,"componentType":5123,"count":46008,"type":"SCALAR","name":"accessorIndices"},{"bufferView":1,"byteOffset":157344,"componentType":5126,"count":8917,"max":[-23.313078,2.205021,-25.924025],"min":[-24.970493,1.059403,-25.96215],"type":"VEC3","name":"accessorPositions"},{"bufferView":2,"byteOffset":104896,"componentType":5126,"count":8917,"type":"VEC4","name":"accessorTangents"},{"bufferView":1,"byteOffset":264348,"componentType":5126,"count":8917,"type":"VEC3","name":"accessorNormals"},{"bufferView":3,"byteOffset":52448,"componentType":5126,"count":8917,"type":"VEC2","name":"accessorUVs"},{"bufferView":0,"byteOffset":124852,"componentType":5123,"count":246,"type":"SCALAR","name":"accessorIndices"},{"bufferView":1,"byteOffset":371352,"componentType":5126,"count":84,"max":[-23.313078,1.1056293,-25.924025],"min":[-23.313078,1.059403,-25.962126],"type":"VEC3","name":"accessorPositions"},{"bufferView":2,"byteOffset":247568,"componentType":5126,"count":84,"type":"VEC4","name":"accessorTangents"},{"bufferView":1,"byteOffset":372360,"componentType":5126,"count":84,"type":"VEC3","name":"accessorNormals"},{"bufferView":3,"byteOffset":123784,"componentType":5126,"count":84,"type":"VEC2","name":"accessorUVs"},{"bufferView":0,"byteOffset":125344,"componentType":5123,"count":468,"type":"SCALAR","name":"accessorIndices"},{"bufferView":1,"byteOffset":373368,"componentType":5126,"count":312,"max":[1.4298011,1.09093,0.0071623577],"min":[-1.3343991,-1.09093,-0.0071623577],"type":"VEC3","name":"accessorPositions"},{"bufferView":2,"byteOffset":248912,"componentType":5126,"count":312,"type":"VEC4","name":"accessorTangents"},{"bufferView":1,"byteOffset":377112,"componentType":5126,"count":312,"type":"VEC3","name":"accessorNormals"},{"bufferView":3,"byteOffset":124456,"componentType":5126,"count":312,"type":"VEC2","name":"accessorUVs"},{"bufferView":0,"byteOffset":126280,"componentType":5123,"count":300,"type":"SCALAR","name":"accessorIndices"},{"bufferView":1,"byteOffset":380856,"componentType":5126,"count":192,"max":[0.7921633,1.0837114,0.007162355],"min":[-0.7914124,-1.0855365,-0.0071623535],"type":"VEC3","name":"accessorPositions"},{"bufferView":2,"byteOffset":253904,"componentType":5126,"count":192,"type":"VEC4","name":"accessorTangents"},{"bufferView":1,"byteOffset":383160,"componentType":5126,"count":192,"type":"VEC3","name":"accessorNormals"},{"bufferView":3,"byteOffset":126952,"componentType":5126,"count":192,"type":"VEC2","name":"accessorUVs"}],"bufferViews":[{"buffer":0,"byteLength":126880,"name":"bufferViewScalar"},{"buffer":0,"byteOffset":126880,"byteLength":385464,"byteStride":12,"name":"bufferViewFloatVec3"},{"buffer":0,"byteOffset":512344,"byteLength":256976,"byteStride":16,"name":"bufferViewFloatVec4"},{"buffer":0,"byteOffset":769320,"byteLength":128488,"byteStride":8,"name":"bufferViewFloatVec2"}],"buffers":[{"uri":"L-Shaped_Railing_Optik-Boss_Wood-Cap.bin","byteLength":897808}],"materials":[{"pbrMetallicRoughness":{"baseColorFactor":[0.9999998,0.9999999,0.9999999,1.0],"metallicFactor":0.0,"roughnessFactor":0.1},"name":"Glass","extensions":{"KHR_materials_ior":{"ior":1.0},"KHR_materials_transmission":{"transmissionFactor":0.97},"KHR_materials_volume":{"thicknessFactor":0.56,"attenuationDistance":0.5,"attenuationColor":[0.49521634,0.56476736,0.5317566]}}},{"pbrMetallicRoughness":{"baseColorFactor":[0.9999998,0.9999999,0.9999999,1.0],"baseColorTexture":{"index":0,"extensions":{"KHR_texture_transform":{"offset":[0.19519997,0.8048],"rotation":1.5707964,"scale":[0.6096,0.6096],"texCoord":0}}},"roughnessFactor":0.2,"metallicRoughnessTexture":{"index":0,"extensions":{"KHR_texture_transform":{"offset":[0.19519997,0.8048],"rotation":1.5707964,"scale":[0.6096,0.6096],"texCoord":0}}}},"name":"Steel_Linear"},{"pbrMetallicRoughness":{"baseColorFactor":[0.9999998,0.9999999,0.9999999,1.0],"baseColorTexture":{"index":1},"roughnessFactor":0.2,"metallicRoughnessTexture":{"index":1}},"name":"Steel_Radial"}],"textures":[{"sampler":0,"source":0,"name":"Metal_Brushed_Linear_4k.jpg"},{"sampler":0,"source":1,"name":"Metal_Brushed_Radial_4k.jpg"}],"images":[{"uri":"textures/Metal_Brushed_Linear_4k.jpg"},{"uri":"textures/Metal_Brushed_Radial_4k.jpg"}],"samplers":[{"magFilter":9729,"minFilter":9987}]}