{"asset":{"version":"2.0","generator":"babylon.js glTF exporter for 3dsmax 2026 v20251111.2"},"extensionsUsed":["KHR_texture_transform","KHR_materials_specular","KHR_materials_ior","KHR_materials_transmission","KHR_materials_volume"],"extensionsRequired":["KHR_texture_transform"],"scene":0,"scenes":[{"nodes":[0,1,2,3,4,5,6,7,8,9,10,11,12,13,14,15,16,17,18,19,20,21,22,23,24,25,26,27,28,29,30,31,32,33,34,35,36,37,38,39,40,41,42,43,44,45,46,47,48,49,50,51,52,53,54,55,56,57,58,59,60,61,62,63,64,65,66,67,68,69,70,71,72,73,74,75,76,77,78,79,80,81,82,83,84,85,86,87,88,89,90,91,92,93,94,95,96,97,98,99,100,101,102,103,104,105,106,107,108,109,110,111,112,113,114,115,116,117,118,119,120,121,122,123,124,125,126,127,128,129,130,131,132,133,134,135,136,137,138,139,140,141,142,143,144,145,146,147,148,149,150,151,152,153,154,155,156,157,158,159,160,161,162,163,164,165,166,167,168,169,170,171,172,173,174,175,176,177,178,179,180,181,182,183,184,185,186,187,188,189,190,191,192,193,194,195,196,197,198,199,200,201,202,203,204,205,206,207,208,209,210,211,212,213]}],"nodes":[{"mesh":0,"translation":[-0.21865457,1.7327118,-0.023573017],"rotation":[-0.0,0.7071068,0.0,0.7071067],"name":"KUB009 - Top Barrel Mount Part [8739165]026"},{"mesh":0,"translation":[-0.21865457,1.9867117,-0.023573017],"rotation":[-0.0,0.7071068,0.0,0.7071067],"name":"KUB009 - Top Barrel Mount Part [8739165]002"},{"mesh":0,"translation":[0.36284545,2.0984719,-0.023573017],"rotation":[-0.0,0.7071068,0.0,0.7071067],"name":"KUB009 - Top Barrel Mount Part [8739165]027"},{"mesh":0,"translation":[0.36284545,2.3524718,-0.023573017],"rotation":[-0.0,0.7071068,0.0,0.7071067],"name":"KUB009 - Top Barrel Mount Part [8739165]003"},{"mesh":0,"translation":[0.6293199,2.2813518,-0.023573017],"rotation":[-0.0,0.7071068,0.0,0.7071067],"name":"KUB009 - Top Barrel Mount Part [8739165]028"},{"mesh":0,"translation":[0.6293199,2.535352,-0.023573017],"rotation":[-0.0,0.7071068,0.0,0.7071067],"name":"KUB009 - Top Barrel Mount Part [8739165]004"},{"mesh":0,"translation":[1.4287455,2.8299918,-0.023573017],"rotation":[-0.0,0.7071068,0.0,0.7071067],"name":"KUB009 - Top Barrel Mount Part [8739165]029"},{"mesh":0,"translation":[1.4287455,3.0839918,-0.023573017],"rotation":[-0.0,0.7071068,0.0,0.7071067],"name":"KUB009 - Top Barrel Mount Part [8739165]005"},{"mesh":0,"translation":[-0.3730821,1.0012426,0.7080169],"rotation":[-0.0,-1.0,0.0,-1.6292068E-07],"name":"KUB009 - Top Barrel Mount Part [8739165]031"},{"mesh":0,"translation":[-0.3730821,1.2552426,0.7080169],"rotation":[-0.0,-1.0,0.0,-1.6292068E-07],"name":"KUB009 - Top Barrel Mount Part [8739165]007"},{"mesh":0,"translation":[-0.3730821,0.81836265,0.97354954],"rotation":[-0.0,-1.0,0.0,-1.6292068E-07],"name":"KUB009 - Top Barrel Mount Part [8739165]032"},{"mesh":0,"translation":[-0.3730821,1.0723627,0.97354954],"rotation":[-0.0,-1.0,0.0,-1.6292068E-07],"name":"KUB009 - Top Barrel Mount Part [8739165]008"},{"mesh":0,"translation":[-0.3730821,0.45260262,1.5058892],"rotation":[-0.0,-1.0,0.0,-1.6292068E-07],"name":"KUB009 - Top Barrel Mount Part [8739165]033"},{"mesh":0,"translation":[-0.3730821,0.7066026,1.5058892],"rotation":[-0.0,-1.0,0.0,-1.6292068E-07],"name":"KUB009 - Top Barrel Mount Part [8739165]009"},{"mesh":0,"translation":[-1.4271829,1.3670026,0.17503546],"name":"KUB009 - Top Barrel Mount Part [8739165]034"},{"mesh":0,"translation":[-1.4271829,1.6210027,0.17503546],"name":"KUB009 - Top Barrel Mount Part [8739165]010"},{"mesh":0,"translation":[-1.4271829,1.0012426,0.7080169],"name":"KUB009 - Top Barrel Mount Part [8739165]035"},{"mesh":0,"translation":[-1.4271829,1.2552426,0.7080169],"name":"KUB009 - Top Barrel Mount Part [8739165]011"},{"mesh":0,"translation":[-1.4271829,0.81836265,0.97354954],"name":"KUB009 - Top Barrel Mount Part [8739165]036"},{"mesh":0,"translation":[-1.4271829,1.0723627,0.97354954],"name":"KUB009 - Top Barrel Mount Part [8739165]012"},{"mesh":0,"translation":[-1.4271828,0.45260262,1.5058892],"name":"KUB009 - Top Barrel Mount Part [8739165]037"},{"mesh":0,"translation":[-1.4271828,0.7066026,1.5058892],"name":"KUB009 - Top Barrel Mount Part [8739165]013"},{"mesh":0,"translation":[0.36284545,2.0984719,-1.0776738],"rotation":[-0.0,-0.7071068,0.0,0.7071067],"name":"KUB009 - Top Barrel Mount Part [8739165]038"},{"mesh":0,"translation":[0.36284545,2.3524718,-1.0776738],"rotation":[-0.0,-0.7071068,0.0,0.7071067],"name":"KUB009 - Top Barrel Mount Part [8739165]014"},{"mesh":0,"translation":[0.6293199,2.2813518,-1.0776738],"rotation":[-0.0,-0.7071068,0.0,0.7071067],"name":"KUB009 - Top Barrel Mount Part [8739165]039"},{"mesh":0,"translation":[0.6293199,2.535352,-1.0776738],"rotation":[-0.0,-0.7071068,0.0,0.7071067],"name":"KUB009 - Top Barrel Mount Part [8739165]015"},{"mesh":0,"translation":[1.4287455,2.8299918,-1.0776738],"rotation":[-0.0,-0.7071068,0.0,0.7071067],"name":"KUB009 - Top Barrel Mount Part [8739165]040"},{"mesh":0,"translation":[1.4287455,3.0839918,-1.0776738],"rotation":[-0.0,-0.7071068,0.0,0.7071067],"name":"KUB009 - Top Barrel Mount Part [8739165]016"},{"mesh":0,"translation":[-0.4493236,1.5498319,-1.0776738],"rotation":[-0.0,-0.7071068,0.0,0.7071067],"name":"KUB009 - Top Barrel Mount Part [8739165]041"},{"mesh":0,"translation":[-0.4493236,1.8038318,-1.0776738],"rotation":[-0.0,-0.7071068,0.0,0.7071067],"name":"KUB009 - Top Barrel Mount Part [8739165]017"},{"mesh":0,"translation":[-0.7160236,1.4674852,-1.0776738],"rotation":[-0.0,-0.7071068,0.0,0.7071067],"name":"KUB009 - Top Barrel Mount Part [8739165]042"},{"mesh":0,"translation":[-0.7160236,1.721485,-1.0776738],"rotation":[-0.0,-0.7071068,0.0,0.7071067],"name":"KUB009 - Top Barrel Mount Part [8739165]018"},{"mesh":0,"translation":[-1.2308573,1.4674852,-1.0776738],"rotation":[-0.0,-0.7071068,0.0,0.7071067],"name":"KUB009 - Top Barrel Mount Part [8739165]043"},{"mesh":0,"translation":[-1.2308573,1.721485,-1.0776738],"rotation":[-0.0,-0.7071068,0.0,0.7071067],"name":"KUB009 - Top Barrel Mount Part [8739165]019"},{"mesh":0,"translation":[-1.4271802,1.4674852,-0.8813486],"name":"KUB009 - Top Barrel Mount Part [8739165]044"},{"mesh":0,"translation":[-1.4271802,1.721485,-0.8813486],"name":"KUB009 - Top Barrel Mount Part [8739165]020"},{"mesh":0,"translation":[-1.4271802,1.4674852,-0.074374564],"name":"KUB009 - Top Barrel Mount Part [8739165]046"},{"mesh":0,"translation":[-1.4271802,1.721485,-0.074374564],"name":"KUB009 - Top Barrel Mount Part [8739165]022"},{"mesh":0,"translation":[-0.37309432,1.6210027,0.13850757],"rotation":[-0.0,-1.0,0.0,-4.371139E-08],"name":"KUB009 - Top Barrel Mount Part [8739165]098"},{"mesh":0,"translation":[-0.37309432,1.3670026,0.13850757],"rotation":[-0.0,-1.0,0.0,-4.371139E-08],"name":"KUB009 - Top Barrel Mount Part [8739165]099"},{"mesh":1,"translation":[-0.21865457,1.9867117,-0.08549947],"rotation":[-0.0,0.7071068,0.0,0.7071067],"name":"KON006 - Lower Panel Clamp Part [8739162]003"},{"mesh":1,"translation":[-0.21865457,1.7327118,-0.08549947],"rotation":[-0.0,0.7071068,0.0,0.7071067],"name":"KON006 - Lower Panel Clamp Part [8739162]004"},{"mesh":1,"translation":[0.36284545,2.3524718,-0.08549947],"rotation":[-0.0,0.7071068,0.0,0.7071067],"name":"KON006 - Lower Panel Clamp Part [8739162]005"},{"mesh":1,"translation":[0.36284545,2.0984719,-0.08549947],"rotation":[-0.0,0.7071068,0.0,0.7071067],"name":"KON006 - Lower Panel Clamp Part [8739162]006"},{"mesh":1,"translation":[0.6293199,2.535352,-0.08549947],"rotation":[-0.0,0.7071068,0.0,0.7071067],"name":"KON006 - Lower Panel Clamp Part [8739162]007"},{"mesh":1,"translation":[0.6293199,2.2813518,-0.08549947],"rotation":[-0.0,0.7071068,0.0,0.7071067],"name":"KON006 - Lower Panel Clamp Part [8739162]008"},{"mesh":1,"translation":[1.4287455,3.0839918,-0.08549947],"rotation":[-0.0,0.7071068,0.0,0.7071067],"name":"KON006 - Lower Panel Clamp Part [8739162]009"},{"mesh":1,"translation":[1.4287455,2.8299918,-0.08549947],"rotation":[-0.0,0.7071068,0.0,0.7071067],"name":"KON006 - Lower Panel Clamp Part [8739162]010"},{"mesh":1,"translation":[-0.43500856,1.2552426,0.7080169],"rotation":[-0.0,-1.0,0.0,-1.6292068E-07],"name":"KON006 - Lower Panel Clamp Part [8739162]013"},{"mesh":1,"translation":[-0.43500856,1.0012426,0.7080169],"rotation":[-0.0,-1.0,0.0,-1.6292068E-07],"name":"KON006 - Lower Panel Clamp Part [8739162]014"},{"mesh":1,"translation":[-0.43500856,1.0723627,0.97354954],"rotation":[-0.0,-1.0,0.0,-1.6292068E-07],"name":"KON006 - Lower Panel Clamp Part [8739162]015"},{"mesh":1,"translation":[-0.43500856,0.81836265,0.97354954],"rotation":[-0.0,-1.0,0.0,-1.6292068E-07],"name":"KON006 - Lower Panel Clamp Part [8739162]016"},{"mesh":1,"translation":[-0.43500856,0.7066026,1.5058892],"rotation":[-0.0,-1.0,0.0,-1.6292068E-07],"name":"KON006 - Lower Panel Clamp Part [8739162]017"},{"mesh":1,"translation":[-0.43500856,0.45260262,1.5058892],"rotation":[-0.0,-1.0,0.0,-1.6292068E-07],"name":"KON006 - Lower Panel Clamp Part [8739162]018"},{"mesh":1,"translation":[-1.3652565,1.6210027,0.17503546],"name":"KON006 - Lower Panel Clamp Part [8739162]019"},{"mesh":1,"translation":[-1.3652565,1.3670026,0.17503546],"name":"KON006 - Lower Panel Clamp Part [8739162]020"},{"mesh":1,"translation":[-1.3652565,1.2552426,0.7080169],"name":"KON006 - Lower Panel Clamp Part [8739162]021"},{"mesh":1,"translation":[-1.3652565,1.0012426,0.7080169],"name":"KON006 - Lower Panel Clamp Part [8739162]022"},{"mesh":1,"translation":[-1.3652565,1.0723627,0.97354954],"name":"KON006 - Lower Panel Clamp Part [8739162]023"},{"mesh":1,"translation":[-1.3652565,0.81836265,0.97354954],"name":"KON006 - Lower Panel Clamp Part [8739162]024"},{"mesh":1,"translation":[-1.3652563,0.7066026,1.5058892],"name":"KON006 - Lower Panel Clamp Part [8739162]025"},{"mesh":1,"translation":[-1.3652563,0.45260262,1.5058892],"name":"KON006 - Lower Panel Clamp Part [8739162]026"},{"mesh":1,"translation":[0.36284545,2.3524718,-1.0157473],"rotation":[-0.0,-0.7071068,0.0,0.7071067],"name":"KON006 - Lower Panel Clamp Part [8739162]027"},{"mesh":1,"translation":[0.36284545,2.0984719,-1.0157473],"rotation":[-0.0,-0.7071068,0.0,0.7071067],"name":"KON006 - Lower Panel Clamp Part [8739162]028"},{"mesh":1,"translation":[0.6293199,2.535352,-1.0157473],"rotation":[-0.0,-0.7071068,0.0,0.7071067],"name":"KON006 - Lower Panel Clamp Part [8739162]029"},{"mesh":1,"translation":[0.6293199,2.2813518,-1.0157473],"rotation":[-0.0,-0.7071068,0.0,0.7071067],"name":"KON006 - Lower Panel Clamp Part [8739162]030"},{"mesh":1,"translation":[1.4287455,3.0839918,-1.0157473],"rotation":[-0.0,-0.7071068,0.0,0.7071067],"name":"KON006 - Lower Panel Clamp Part [8739162]031"},{"mesh":1,"translation":[1.4287455,2.8299918,-1.0157473],"rotation":[-0.0,-0.7071068,0.0,0.7071067],"name":"KON006 - Lower Panel Clamp Part [8739162]032"},{"mesh":1,"translation":[-0.4493236,1.8038318,-1.0157473],"rotation":[-0.0,-0.7071068,0.0,0.7071067],"name":"KON006 - Lower Panel Clamp Part [8739162]033"},{"mesh":1,"translation":[-0.4493236,1.5498319,-1.0157473],"rotation":[-0.0,-0.7071068,0.0,0.7071067],"name":"KON006 - Lower Panel Clamp Part [8739162]034"},{"mesh":1,"translation":[-0.7160236,1.721485,-1.0157473],"rotation":[-0.0,-0.7071068,0.0,0.7071067],"name":"KON006 - Lower Panel Clamp Part [8739162]035"},{"mesh":1,"translation":[-0.7160236,1.4674852,-1.0157473],"rotation":[-0.0,-0.7071068,0.0,0.7071067],"name":"KON006 - Lower Panel Clamp Part [8739162]036"},{"mesh":1,"translation":[-1.2308573,1.721485,-1.0157473],"rotation":[-0.0,-0.7071068,0.0,0.7071067],"name":"KON006 - Lower Panel Clamp Part [8739162]037"},{"mesh":1,"translation":[-1.2308573,1.4674852,-1.0157473],"rotation":[-0.0,-0.7071068,0.0,0.7071067],"name":"KON006 - Lower Panel Clamp Part [8739162]038"},{"mesh":1,"translation":[-1.3652561,1.721485,-0.8813486],"name":"KON006 - Lower Panel Clamp Part [8739162]039"},{"mesh":1,"translation":[-1.3652561,1.4674852,-0.8813486],"name":"KON006 - Lower Panel Clamp Part [8739162]040"},{"mesh":1,"translation":[-1.3652561,1.721485,-0.074374564],"name":"KON006 - Lower Panel Clamp Part [8739162]044"},{"mesh":1,"translation":[-1.3652561,1.4674852,-0.074374564],"name":"KON006 - Lower Panel Clamp Part [8739162]045"},{"mesh":1,"translation":[-0.43502077,1.6210027,0.13850757],"rotation":[-0.0,-1.0,0.0,-4.371139E-08],"name":"KON006 - Lower Panel Clamp Part [8739162]202"},{"mesh":1,"translation":[-0.43502077,1.3670026,0.13850757],"rotation":[-0.0,-1.0,0.0,-4.371139E-08],"name":"KON006 - Lower Panel Clamp Part [8739162]203"},{"mesh":2,"translation":[-0.21865457,1.9867117,-0.069623694],"name":"KON021 - Konic Washer Part [8739168]052"},{"mesh":2,"translation":[-0.21865457,1.9867117,-0.08392282],"rotation":[-0.0,-1.0,0.0,4.371139E-08],"name":"KON021 - Konic Washer Part [8739168]003"},{"mesh":2,"translation":[-0.21865457,1.7327118,-0.069623694],"name":"KON021 - Konic Washer Part [8739168]053"},{"mesh":2,"translation":[-0.21865457,1.7327118,-0.08392282],"rotation":[-0.0,-1.0,0.0,4.371139E-08],"name":"KON021 - Konic Washer Part [8739168]004"},{"mesh":2,"translation":[0.36284545,2.3524718,-0.069623694],"name":"KON021 - Konic Washer Part [8739168]054"},{"mesh":2,"translation":[0.36284545,2.3524718,-0.08392282],"rotation":[-0.0,-1.0,0.0,4.371139E-08],"name":"KON021 - Konic Washer Part [8739168]005"},{"mesh":2,"translation":[0.36284545,2.0984719,-0.069623694],"name":"KON021 - Konic Washer Part [8739168]055"},{"mesh":2,"translation":[0.36284545,2.0984719,-0.08392282],"rotation":[-0.0,-1.0,0.0,4.371139E-08],"name":"KON021 - Konic Washer Part [8739168]006"},{"mesh":2,"translation":[0.6293199,2.535352,-0.069623694],"name":"KON021 - Konic Washer Part [8739168]056"},{"mesh":2,"translation":[0.6293199,2.535352,-0.08392282],"rotation":[-0.0,-1.0,0.0,4.371139E-08],"name":"KON021 - Konic Washer Part [8739168]007"},{"mesh":2,"translation":[0.6293199,2.2813518,-0.069623694],"name":"KON021 - Konic Washer Part [8739168]057"},{"mesh":2,"translation":[0.6293199,2.2813518,-0.08392282],"rotation":[-0.0,-1.0,0.0,4.371139E-08],"name":"KON021 - Konic Washer Part [8739168]008"},{"mesh":2,"translation":[1.4287455,3.0839918,-0.069623694],"name":"KON021 - Konic Washer Part [8739168]058"},{"mesh":2,"translation":[1.4287455,3.0839918,-0.08392282],"rotation":[-0.0,-1.0,0.0,4.371139E-08],"name":"KON021 - Konic Washer Part [8739168]009"},{"mesh":2,"translation":[1.4287455,2.8299918,-0.069623694],"name":"KON021 - Konic Washer Part [8739168]059"},{"mesh":2,"translation":[1.4287455,2.8299918,-0.08392282],"rotation":[-0.0,-1.0,0.0,4.371139E-08],"name":"KON021 - Konic Washer Part [8739168]010"},{"mesh":2,"translation":[-0.41913277,1.2552426,0.7080169],"rotation":[-0.0,0.7071068,0.0,0.7071068],"name":"KON021 - Konic Washer Part [8739168]062"},{"mesh":2,"translation":[-0.4334319,1.2552426,0.7080169],"rotation":[-0.0,-0.7071068,0.0,0.7071067],"name":"KON021 - Konic Washer Part [8739168]013"},{"mesh":2,"translation":[-0.41913277,1.0012426,0.7080169],"rotation":[-0.0,0.7071068,0.0,0.7071068],"name":"KON021 - Konic Washer Part [8739168]063"},{"mesh":2,"translation":[-0.4334319,1.0012426,0.7080169],"rotation":[-0.0,-0.7071068,0.0,0.7071067],"name":"KON021 - Konic Washer Part [8739168]014"},{"mesh":2,"translation":[-0.41913277,1.0723627,0.97354954],"rotation":[-0.0,0.7071068,0.0,0.7071068],"name":"KON021 - Konic Washer Part [8739168]064"},{"mesh":2,"translation":[-0.4334319,1.0723627,0.97354954],"rotation":[-0.0,-0.7071068,0.0,0.7071067],"name":"KON021 - Konic Washer Part [8739168]015"},{"mesh":2,"translation":[-0.41913277,0.81836265,0.97354954],"rotation":[-0.0,0.7071068,0.0,0.7071068],"name":"KON021 - Konic Washer Part [8739168]065"},{"mesh":2,"translation":[-0.4334319,0.81836265,0.97354954],"rotation":[-0.0,-0.7071068,0.0,0.7071067],"name":"KON021 - Konic Washer Part [8739168]016"},{"mesh":2,"translation":[-0.41913277,0.7066026,1.5058892],"rotation":[-0.0,0.7071068,0.0,0.7071068],"name":"KON021 - Konic Washer Part [8739168]066"},{"mesh":2,"translation":[-0.4334319,0.7066026,1.5058892],"rotation":[-0.0,-0.7071068,0.0,0.7071067],"name":"KON021 - Konic Washer Part [8739168]017"},{"mesh":2,"translation":[-0.41913277,0.45260262,1.5058892],"rotation":[-0.0,0.7071068,0.0,0.7071068],"name":"KON021 - Konic Washer Part [8739168]067"},{"mesh":2,"translation":[-0.4334319,0.45260262,1.5058892],"rotation":[-0.0,-0.7071068,0.0,0.7071067],"name":"KON021 - Konic Washer Part [8739168]018"},{"mesh":2,"translation":[-1.3811322,1.6210027,0.17503546],"rotation":[-0.0,-0.7071068,0.0,0.7071067],"name":"KON021 - Konic Washer Part [8739168]068"},{"mesh":2,"translation":[-1.3668332,1.6210027,0.17503546],"rotation":[-0.0,0.7071068,0.0,0.7071067],"name":"KON021 - Konic Washer Part [8739168]019"},{"mesh":2,"translation":[-1.3811322,1.3670026,0.17503546],"rotation":[-0.0,-0.7071068,0.0,0.7071067],"name":"KON021 - Konic Washer Part [8739168]069"},{"mesh":2,"translation":[-1.3668332,1.3670026,0.17503546],"rotation":[-0.0,0.7071068,0.0,0.7071067],"name":"KON021 - Konic Washer Part [8739168]020"},{"mesh":2,"translation":[-1.3811322,1.2552426,0.7080169],"rotation":[-0.0,-0.7071068,0.0,0.7071067],"name":"KON021 - Konic Washer Part [8739168]070"},{"mesh":2,"translation":[-1.3668332,1.2552426,0.7080169],"rotation":[-0.0,0.7071068,0.0,0.7071067],"name":"KON021 - Konic Washer Part [8739168]021"},{"mesh":2,"translation":[-1.3811322,1.0012426,0.7080169],"rotation":[-0.0,-0.7071068,0.0,0.7071067],"name":"KON021 - Konic Washer Part [8739168]071"},{"mesh":2,"translation":[-1.3668332,1.0012426,0.7080169],"rotation":[-0.0,0.7071068,0.0,0.7071067],"name":"KON021 - Konic Washer Part [8739168]022"},{"mesh":2,"translation":[-1.3811322,1.0723627,0.97354954],"rotation":[-0.0,-0.7071068,0.0,0.7071067],"name":"KON021 - Konic Washer Part [8739168]072"},{"mesh":2,"translation":[-1.3668332,1.0723627,0.97354954],"rotation":[-0.0,0.7071068,0.0,0.7071067],"name":"KON021 - Konic Washer Part [8739168]023"},{"mesh":2,"translation":[-1.3811322,0.81836265,0.97354954],"rotation":[-0.0,-0.7071068,0.0,0.7071067],"name":"KON021 - Konic Washer Part [8739168]073"},{"mesh":2,"translation":[-1.3668332,0.81836265,0.97354954],"rotation":[-0.0,0.7071068,0.0,0.7071067],"name":"KON021 - Konic Washer Part [8739168]024"},{"mesh":2,"translation":[-1.3811321,0.7066026,1.5058892],"rotation":[-0.0,-0.7071068,0.0,0.7071067],"name":"KON021 - Konic Washer Part [8739168]074"},{"mesh":2,"translation":[-1.366833,0.7066026,1.5058892],"rotation":[-0.0,0.7071068,0.0,0.7071067],"name":"KON021 - Konic Washer Part [8739168]025"},{"mesh":2,"translation":[-1.3811321,0.45260262,1.5058892],"rotation":[-0.0,-0.7071068,0.0,0.7071067],"name":"KON021 - Konic Washer Part [8739168]075"},{"mesh":2,"translation":[-1.366833,0.45260262,1.5058892],"rotation":[-0.0,0.7071068,0.0,0.7071067],"name":"KON021 - Konic Washer Part [8739168]026"},{"mesh":2,"translation":[0.36284545,2.3524718,-1.0316231],"rotation":[-0.0,-1.0,0.0,-4.371139E-08],"name":"KON021 - Konic Washer Part [8739168]076"},{"mesh":2,"translation":[0.36284545,2.3524718,-1.017324],"name":"KON021 - Konic Washer Part [8739168]027"},{"mesh":2,"translation":[0.36284545,2.0984719,-1.0316231],"rotation":[-0.0,-1.0,0.0,-4.371139E-08],"name":"KON021 - Konic Washer Part [8739168]077"},{"mesh":2,"translation":[0.36284545,2.0984719,-1.017324],"name":"KON021 - Konic Washer Part [8739168]028"},{"mesh":2,"translation":[0.6293199,2.535352,-1.0316231],"rotation":[-0.0,-1.0,0.0,-4.371139E-08],"name":"KON021 - Konic Washer Part [8739168]078"},{"mesh":2,"translation":[0.6293199,2.535352,-1.017324],"name":"KON021 - Konic Washer Part [8739168]029"},{"mesh":2,"translation":[0.6293199,2.2813518,-1.0316231],"rotation":[-0.0,-1.0,0.0,-4.371139E-08],"name":"KON021 - Konic Washer Part [8739168]079"},{"mesh":2,"translation":[0.6293199,2.2813518,-1.017324],"name":"KON021 - Konic Washer Part [8739168]030"},{"mesh":2,"translation":[1.4287455,3.0839918,-1.0316231],"rotation":[-0.0,-1.0,0.0,-4.371139E-08],"name":"KON021 - Konic Washer Part [8739168]080"},{"mesh":2,"translation":[1.4287455,3.0839918,-1.017324],"name":"KON021 - Konic Washer Part [8739168]031"},{"mesh":2,"translation":[1.4287455,2.8299918,-1.0316231],"rotation":[-0.0,-1.0,0.0,-4.371139E-08],"name":"KON021 - Konic Washer Part [8739168]081"},{"mesh":2,"translation":[1.4287455,2.8299918,-1.017324],"name":"KON021 - Konic Washer Part [8739168]032"},{"mesh":2,"translation":[-0.4493236,1.8038318,-1.0316231],"rotation":[-0.0,-1.0,0.0,-4.371139E-08],"name":"KON021 - Konic Washer Part [8739168]082"},{"mesh":2,"translation":[-0.4493236,1.8038318,-1.017324],"name":"KON021 - Konic Washer Part [8739168]033"},{"mesh":2,"translation":[-0.4493236,1.5498319,-1.0316231],"rotation":[-0.0,-1.0,0.0,-4.371139E-08],"name":"KON021 - Konic Washer Part [8739168]083"},{"mesh":2,"translation":[-0.4493236,1.5498319,-1.017324],"name":"KON021 - Konic Washer Part [8739168]034"},{"mesh":2,"translation":[-0.7160236,1.721485,-1.0316231],"rotation":[-0.0,-1.0,0.0,-4.371139E-08],"name":"KON021 - Konic Washer Part [8739168]084"},{"mesh":2,"translation":[-0.7160236,1.721485,-1.017324],"name":"KON021 - Konic Washer Part [8739168]035"},{"mesh":2,"translation":[-0.7160236,1.4674852,-1.0316231],"rotation":[-0.0,-1.0,0.0,-4.371139E-08],"name":"KON021 - Konic Washer Part [8739168]085"},{"mesh":2,"translation":[-0.7160236,1.4674852,-1.017324],"name":"KON021 - Konic Washer Part [8739168]036"},{"mesh":2,"translation":[-1.2308573,1.721485,-1.0316231],"rotation":[-0.0,-1.0,0.0,4.371139E-08],"name":"KON021 - Konic Washer Part [8739168]086"},{"mesh":2,"translation":[-1.2308573,1.721485,-1.017324],"name":"KON021 - Konic Washer Part [8739168]037"},{"mesh":2,"translation":[-1.2308573,1.4674852,-1.0316231],"rotation":[-0.0,-1.0,0.0,4.371139E-08],"name":"KON021 - Konic Washer Part [8739168]087"},{"mesh":2,"translation":[-1.2308573,1.4674852,-1.017324],"name":"KON021 - Konic Washer Part [8739168]038"},{"mesh":2,"translation":[-1.3811295,1.721485,-0.8813486],"rotation":[-0.0,-0.7071068,0.0,0.7071067],"name":"KON021 - Konic Washer Part [8739168]088"},{"mesh":2,"translation":[-1.3668303,1.721485,-0.8813486],"rotation":[-0.0,0.7071068,0.0,0.7071067],"name":"KON021 - Konic Washer Part [8739168]039"},{"mesh":2,"translation":[-1.3811295,1.4674852,-0.8813486],"rotation":[-0.0,-0.7071068,0.0,0.7071067],"name":"KON021 - Konic Washer Part [8739168]089"},{"mesh":2,"translation":[-1.3668303,1.4674852,-0.8813486],"rotation":[-0.0,0.7071068,0.0,0.7071067],"name":"KON021 - Konic Washer Part [8739168]040"},{"mesh":2,"translation":[-1.3811295,1.721485,-0.074374564],"rotation":[-0.0,-0.7071068,0.0,0.7071067],"name":"KON021 - Konic Washer Part [8739168]094"},{"mesh":2,"translation":[-1.3668303,1.721485,-0.074374564],"rotation":[-0.0,0.7071068,0.0,0.7071067],"name":"KON021 - Konic Washer Part [8739168]044"},{"mesh":2,"translation":[-1.3811295,1.4674852,-0.074374564],"rotation":[-0.0,-0.7071068,0.0,0.7071067],"name":"KON021 - Konic Washer Part [8739168]095"},{"mesh":2,"translation":[-1.3668303,1.4674852,-0.074374564],"rotation":[-0.0,0.7071068,0.0,0.7071067],"name":"KON021 - Konic Washer Part [8739168]045"},{"mesh":2,"translation":[-0.4334441,1.6210027,0.13850757],"rotation":[-0.0,-0.7071068,0.0,0.7071067],"name":"KON021 - Konic Washer Part [8739168]199"},{"mesh":2,"translation":[-0.4334441,1.3670026,0.13850757],"rotation":[-0.0,-0.7071068,0.0,0.7071067],"name":"KON021 - Konic Washer Part [8739168]200"},{"mesh":2,"translation":[-0.419145,1.6210027,0.13850757],"rotation":[-0.0,0.7071068,0.0,0.7071068],"name":"KON021 - Konic Washer Part [8739168]201"},{"mesh":2,"translation":[-0.419145,1.3670026,0.13850757],"rotation":[-0.0,0.7071068,0.0,0.7071068],"name":"KON021 - Konic Washer Part [8739168]202"},{"mesh":3,"translation":[-0.21865457,1.4630401,-0.023573017],"rotation":[-0.0,-0.7071068,0.0,0.7071067],"name":"KUB007 - Surface Mount Weldment Part [8739169]002"},{"mesh":3,"translation":[0.36284545,1.8288,-0.023573017],"rotation":[-0.0,-0.7071068,0.0,0.7071067],"name":"KUB007 - Surface Mount Weldment Part [8739169]003"},{"mesh":3,"translation":[0.6293199,2.01168,-0.023573017],"rotation":[-0.0,-0.7071068,0.0,0.7071067],"name":"KUB007 - Surface Mount Weldment Part [8739169]004"},{"mesh":3,"translation":[1.4287455,2.56032,-0.023573017],"rotation":[-0.0,-0.7071068,0.0,0.7071067],"name":"KUB007 - Surface Mount Weldment Part [8739169]005"},{"mesh":3,"translation":[-0.3730821,0.73152006,0.7080169],"name":"KUB007 - Surface Mount Weldment Part [8739169]007"},{"mesh":3,"translation":[-0.3730821,0.54864,0.97354954],"name":"KUB007 - Surface Mount Weldment Part [8739169]008"},{"mesh":3,"translation":[-0.3730821,0.18288001,1.5058892],"name":"KUB007 - Surface Mount Weldment Part [8739169]009"},{"mesh":3,"translation":[-1.4271829,1.09728,0.17503546],"rotation":[-0.0,-1.0,0.0,-1.6292068E-07],"name":"KUB007 - Surface Mount Weldment Part [8739169]010"},{"mesh":3,"translation":[-1.4271829,0.73152006,0.7080169],"rotation":[-0.0,-1.0,0.0,-1.6292068E-07],"name":"KUB007 - Surface Mount Weldment Part [8739169]011"},{"mesh":3,"translation":[-1.4271829,0.54864,0.97354954],"rotation":[-0.0,-1.0,0.0,-1.6292068E-07],"name":"KUB007 - Surface Mount Weldment Part [8739169]012"},{"mesh":3,"translation":[-1.4271828,0.18288001,1.5058892],"rotation":[-0.0,-1.0,0.0,-1.6292068E-07],"name":"KUB007 - Surface Mount Weldment Part [8739169]013"},{"mesh":3,"translation":[0.36284545,1.8288,-1.0776738],"rotation":[-0.0,0.7071068,0.0,0.7071067],"name":"KUB007 - Surface Mount Weldment Part [8739169]014"},{"mesh":3,"translation":[0.6293199,2.01168,-1.0776738],"rotation":[-0.0,0.7071068,0.0,0.7071067],"name":"KUB007 - Surface Mount Weldment Part [8739169]015"},{"mesh":3,"translation":[1.4287455,2.56032,-1.0776738],"rotation":[-0.0,0.7071068,0.0,0.7071067],"name":"KUB007 - Surface Mount Weldment Part [8739169]016"},{"mesh":3,"translation":[-0.4493236,1.28016,-1.0776738],"rotation":[-0.0,0.7071068,0.0,0.7071067],"name":"KUB007 - Surface Mount Weldment Part [8739169]017"},{"mesh":3,"translation":[-0.7160236,1.28016,-1.0776738],"rotation":[-0.0,0.7071068,0.0,0.7071067],"name":"KUB007 - Surface Mount Weldment Part [8739169]018"},{"mesh":3,"translation":[-1.2308573,1.28016,-1.0776738],"rotation":[-0.0,0.7071068,0.0,0.7071067],"name":"KUB007 - Surface Mount Weldment Part [8739169]019"},{"mesh":3,"translation":[-1.4271802,1.28016,-0.8813486],"rotation":[-0.0,-1.0,0.0,-4.371139E-08],"name":"KUB007 - Surface Mount Weldment Part [8739169]020"},{"mesh":3,"translation":[-1.4271802,1.28016,-0.074374564],"rotation":[-0.0,-1.0,0.0,-4.371139E-08],"name":"KUB007 - Surface Mount Weldment Part [8739169]022"},{"mesh":3,"translation":[-0.37309432,1.09728,0.13850757],"rotation":[-0.0,-3.2584137E-07,0.0,1.0],"name":"KUB007 - Surface Mount Weldment Part [8739169]049"},{"mesh":4,"translation":[-0.21865457,1.4630401,-0.023573017],"rotation":[0.5,0.5,0.50000006,0.49999994],"scale":[1.0,0.99999994,0.99999994],"name":"LS147 & LS148 - Kubit Post Material LS Material [8739192]002"},{"mesh":4,"translation":[0.36284545,1.8288,-0.023573017],"rotation":[0.5,0.5,0.50000006,0.49999994],"scale":[1.0,0.99999994,0.99999994],"name":"LS147 & LS148 - Kubit Post Material LS Material [8739192]003"},{"mesh":4,"translation":[0.6293199,2.01168,-0.023573017],"rotation":[0.5,0.5,0.50000006,0.49999994],"scale":[1.0,0.99999994,0.99999994],"name":"LS147 & LS148 - Kubit Post Material LS Material [8739192]004"},{"mesh":4,"translation":[1.4287455,2.56032,-0.023573017],"rotation":[0.5,0.5,0.50000006,0.49999994],"scale":[1.0,0.99999994,0.99999994],"name":"LS147 & LS148 - Kubit Post Material LS Material [8739192]005"},{"mesh":4,"translation":[-0.3730821,0.73152006,0.7080169],"rotation":[-0.7071067,-0.7071068,1.9656746E-08,-6.18036E-08],"scale":[1.0,0.99999994,0.99999994],"name":"LS147 & LS148 - Kubit Post Material LS Material [8739192]007"},{"mesh":4,"translation":[-0.3730821,0.54864,0.97354954],"rotation":[-0.7071067,-0.7071068,1.9656746E-08,-6.18036E-08],"scale":[1.0,0.99999994,0.99999994],"name":"LS147 & LS148 - Kubit Post Material LS Material [8739192]008"},{"mesh":4,"translation":[-0.3730821,0.18288001,1.5058892],"rotation":[-0.7071067,-0.7071068,1.9656746E-08,-6.18036E-08],"scale":[1.0,0.99999994,0.99999994],"name":"LS147 & LS148 - Kubit Post Material LS Material [8739192]009"},{"mesh":4,"translation":[-1.4271829,1.09728,0.17503546],"rotation":[4.0730175E-08,-4.0730175E-08,0.7071068,0.7071067],"scale":[1.0,0.99999994,0.99999994],"name":"LS147 & LS148 - Kubit Post Material LS Material [8739192]010"},{"mesh":4,"translation":[-1.4271829,0.73152006,0.7080169],"rotation":[4.0730175E-08,-4.0730175E-08,0.7071068,0.7071067],"scale":[1.0,0.99999994,0.99999994],"name":"LS147 & LS148 - Kubit Post Material LS Material [8739192]011"},{"mesh":4,"translation":[-1.4271829,0.54864,0.97354954],"rotation":[4.0730175E-08,-4.0730175E-08,0.7071068,0.7071067],"scale":[1.0,0.99999994,0.99999994],"name":"LS147 & LS148 - Kubit Post Material LS Material [8739192]012"},{"mesh":4,"translation":[-1.4271828,0.18288001,1.5058892],"rotation":[4.0730175E-08,-4.0730175E-08,0.7071068,0.7071067],"scale":[1.0,0.99999994,0.99999994],"name":"LS147 & LS148 - Kubit Post Material LS Material [8739192]013"},{"mesh":4,"translation":[0.36284545,1.8288,-1.0776738],"rotation":[-0.5,-0.5,0.50000006,0.49999994],"name":"LS147 & LS148 - Kubit Post Material LS Material [8739192]014"},{"mesh":4,"translation":[0.6293199,2.01168,-1.0776738],"rotation":[-0.5,-0.5,0.50000006,0.49999994],"name":"LS147 & LS148 - Kubit Post Material LS Material [8739192]015"},{"mesh":4,"translation":[1.4287455,2.56032,-1.0776738],"rotation":[-0.5,-0.5,0.50000006,0.49999994],"name":"LS147 & LS148 - Kubit Post Material LS Material [8739192]016"},{"mesh":4,"translation":[-0.4493236,1.28016,-1.0776738],"rotation":[-0.5,-0.5,0.50000006,0.49999994],"name":"LS147 & LS148 - Kubit Post Material LS Material [8739192]017"},{"mesh":4,"translation":[-0.37309432,1.09728,0.13850757],"rotation":[-0.7071067,-0.7071068,-9.341373E-08,-1.1953389E-08],"name":"LS147 & LS148 - Kubit Post Material LS Material [8739192]049"},{"mesh":5,"translation":[-0.18280497,2.1652887,-0.076767445],"name":"Infill_Glass_Raked & Horizontal Generic [8199751]"},{"mesh":6,"translation":[1.416044,3.26257,-0.076767445],"name":"Infill_Glass_Raked & Horizontal Generic [8200579]"},{"mesh":7,"translation":[-0.42627653,2.19456,0.054914895],"rotation":[0.5,-0.5,0.5,0.5],"name":"Infill_Glass_Transition Generic [8202170]"},{"mesh":8,"translation":[-0.42627653,0.92937434,1.2408333],"rotation":[-0.0,0.7071068,0.0,0.7071068],"name":"Infill_Glass_Raked & Horizontal Generic [8202939]"},{"mesh":9,"translation":[-27.512323,0.0,29.240168],"rotation":[-0.0,-0.7071068,0.0,0.7071067],"name":"Generic Models 1 Generic Models 1 [8568048]"},{"mesh":10,"translation":[-1.3739885,0.9293959,1.2408333],"rotation":[-0.0,0.7071068,0.0,0.7071068],"name":"Infill_Glass_Raked & Horizontal Generic [8735940]"},{"mesh":11,"translation":[-27.512323,0.0,29.240168],"rotation":[-0.0,-0.7071068,0.0,0.7071067],"name":"Generic Models 10 Generic Models 1 [8735975]"},{"mesh":12,"translation":[1.416044,3.2625408,-1.0244794],"rotation":[-0.0,3.133859E-15,0.0,1.0],"name":"Infill_Glass_Raked & Horizontal Generic [8736296]"},{"mesh":13,"translation":[-0.9978901,1.8699833,-1.0244794],"rotation":[-0.0,3.133859E-15,0.0,1.0],"name":"Infill_Glass_Raked & Horizontal Generic [8737682]"},{"mesh":14,"translation":[28.89472,0.0,27.28077],"name":"Casework 1 Casework 1 [8738332]"},{"mesh":15,"translation":[-0.7160236,1.28016,-1.0776738],"rotation":[-0.5,-0.5,0.50000006,0.49999994],"name":"LS147 & LS148 - Kubit Post Material LS Material [8739192]018"},{"mesh":15,"translation":[-1.2308573,1.28016,-1.0776738],"rotation":[-0.5,-0.5,0.50000006,0.49999994],"name":"LS147 & LS148 - Kubit Post Material LS Material [8739192]019"},{"mesh":15,"translation":[-1.4271802,1.28016,-0.8813486],"rotation":[-0.0,-0.0,0.7071068,0.7071067],"name":"LS147 & LS148 - Kubit Post Material LS Material [8739192]020"},{"mesh":15,"translation":[-1.4271802,1.28016,-0.074374564],"rotation":[-0.0,-0.0,0.7071068,0.7071067],"name":"LS147 & LS148 - Kubit Post Material LS Material [8739192]022"},{"mesh":16,"translation":[-1.3739858,1.8699833,-0.64838374],"rotation":[-0.0,-0.7071068,0.0,0.7071067],"name":"Infill_Glass_Raked & Horizontal Generic [8738822]"},{"mesh":17,"translation":[-1.3739885,1.4780358,0.44231918],"rotation":[-0.0,0.7071068,0.0,0.7071068],"name":"Infill_Glass_Raked & Horizontal Generic [8739593]"},{"mesh":18,"translation":[28.89472,0.0,27.28077],"name":"Object"},{"mesh":19,"translation":[0.6784653,3.0497246,-0.07691128],"name":"Generic Models 11 Generic Models 11 [8762451]005"}],"meshes":[{"primitives":[{"attributes":{"POSITION":1,"TANGENT":2,"NORMAL":3,"TEXCOORD_0":4},"indices":0,"material":0},{"attributes":{"POSITION":6,"TANGENT":7,"NORMAL":8,"TEXCOORD_0":9},"indices":5,"material":1}],"name":"KUB009 - Top Barrel Mount Part [8739165]026"},{"primitives":[{"attributes":{"POSITION":11,"TANGENT":12,"NORMAL":13,"TEXCOORD_0":14},"indices":10,"material":0},{"attributes":{"POSITION":16,"TANGENT":17,"NORMAL":18,"TEXCOORD_0":19},"indices":15,"material":1}],"name":"KON006 - Lower Panel Clamp Part [8739162]003"},{"primitives":[{"attributes":{"POSITION":21,"TANGENT":22,"NORMAL":23,"TEXCOORD_0":24},"indices":20,"material":2}],"name":"KON021 - Konic Washer Part [8739168]052"},{"primitives":[{"attributes":{"POSITION":26,"TANGENT":27,"NORMAL":28,"TEXCOORD_0":29},"indices":25,"material":0},{"attributes":{"POSITION":31,"TANGENT":32,"NORMAL":33,"TEXCOORD_0":34},"indices":30,"material":1}],"name":"KUB007 - Surface Mount Weldment Part [8739169]002"},{"primitives":[{"attributes":{"POSITION":36,"TANGENT":37,"NORMAL":38,"TEXCOORD_0":39},"indices":35,"material":0}],"name":"LS147 & LS148 - Kubit Post Material LS Material [8739192]002"},{"primitives":[{"attributes":{"POSITION":41,"TANGENT":42,"NORMAL":43,"TEXCOORD_0":44},"indices":40,"material":3}],"name":"Infill_Glass_Raked & Horizontal Generic [8199751]"},{"primitives":[{"attributes":{"POSITION":46,"TANGENT":47,"NORMAL":48,"TEXCOORD_0":49},"indices":45,"material":3}],"name":"Infill_Glass_Raked & Horizontal Generic [8200579]"},{"primitives":[{"attributes":{"POSITION":51,"TANGENT":52,"NORMAL":53,"TEXCOORD_0":54},"indices":50,"material":3}],"name":"Infill_Glass_Transition Generic [8202170]"},{"primitives":[{"attributes":{"POSITION":56,"TANGENT":57,"NORMAL":58,"TEXCOORD_0":59},"indices":55,"material":3}],"name":"Infill_Glass_Raked & Horizontal Generic [8202939]"},{"primitives":[{"attributes":{"POSITION":61,"TANGENT":62,"NORMAL":63,"TEXCOORD_0":64},"indices":60,"material":0},{"attributes":{"POSITION":66,"TANGENT":67,"NORMAL":68,"TEXCOORD_0":69},"indices":65,"material":1}],"name":"Generic Models 1 Generic Models 1 [8568048]"},{"primitives":[{"attributes":{"POSITION":71,"TANGENT":72,"NORMAL":73,"TEXCOORD_0":74},"indices":70,"material":3}],"name":"Infill_Glass_Raked & Horizontal Generic [8735940]"},{"primitives":[{"attributes":{"POSITION":76,"TANGENT":77,"NORMAL":78,"TEXCOORD_0":79},"indices":75,"material":0},{"attributes":{"POSITION":81,"TANGENT":82,"NORMAL":83,"TEXCOORD_0":84},"indices":80,"material":1}],"name":"Generic Models 10 Generic Models 1 [8735975]"},{"primitives":[{"attributes":{"POSITION":86,"TANGENT":87,"NORMAL":88,"TEXCOORD_0":89},"indices":85,"material":3}],"name":"Infill_Glass_Raked & Horizontal Generic [8736296]"},{"primitives":[{"attributes":{"POSITION":91,"TANGENT":92,"NORMAL":93,"TEXCOORD_0":94},"indices":90,"material":3}],"name":"Infill_Glass_Raked & Horizontal Generic [8737682]"},{"primitives":[{"attributes":{"POSITION":96,"TANGENT":97,"NORMAL":98,"TEXCOORD_0":99},"indices":95,"material":3}],"name":"Casework 1 Casework 1 [8738332]"},{"primitives":[{"attributes":{"POSITION":101,"TANGENT":102,"NORMAL":103,"TEXCOORD_0":104},"indices":100,"material":0}],"name":"LS147 & LS148 - Kubit Post Material LS Material [8739192]018"},{"primitives":[{"attributes":{"POSITION":106,"TANGENT":107,"NORMAL":108,"TEXCOORD_0":109},"indices":105,"material":3}],"name":"Infill_Glass_Raked & Horizontal Generic [8738822]"},{"primitives":[{"attributes":{"POSITION":111,"TANGENT":112,"NORMAL":113,"TEXCOORD_0":114},"indices":110,"material":3}],"name":"Infill_Glass_Raked & Horizontal Generic [8739593]"},{"primitives":[{"attributes":{"POSITION":116,"TANGENT":117,"NORMAL":118,"TEXCOORD_0":119},"indices":115,"material":0},{"attributes":{"POSITION":121,"TANGENT":122,"NORMAL":123,"TEXCOORD_0":124},"indices":120,"material":1}],"name":"Object"},{"primitives":[{"attributes":{"POSITION":126,"TANGENT":127,"NORMAL":128,"TEXCOORD_0":129},"indices":125,"material":0},{"attributes":{"POSITION":131,"TANGENT":132,"NORMAL":133,"TEXCOORD_0":134},"indices":130,"material":1}],"name":"Generic Models 11 Generic Models 11 [8762451]005"}],"accessors":[{"bufferView":0,"componentType":5123,"count":1836,"type":"SCALAR","name":"accessorIndices"},{"bufferView":1,"componentType":5126,"count":501,"max":[0.044475403,0.015875,0.015875],"min":[-0.031724602,-0.015875,-0.015875],"type":"VEC3","name":"accessorPositions"},{"bufferView":2,"componentType":5126,"count":501,"type":"VEC4","name":"accessorTangents"},{"bufferView":1,"byteOffset":6012,"componentType":5126,"count":501,"type":"VEC3","name":"accessorNormals"},{"bufferView":3,"componentType":5126,"count":501,"type":"VEC2","name":"accessorUVs"},{"bufferView":0,"byteOffset":3672,"componentType":5123,"count":570,"type":"SCALAR","name":"accessorIndices"},{"bufferView":1,"byteOffset":12024,"componentType":5126,"count":192,"max":[0.044475403,0.015875,0.015875],"min":[-0.031724602,-0.015875,-0.015875],"type":"VEC3","name":"accessorPositions"},{"bufferView":2,"byteOffset":8016,"componentType":5126,"count":192,"type":"VEC4","name":"accessorTangents"},{"bufferView":1,"byteOffset":14328,"componentType":5126,"count":192,"type":"VEC3","name":"accessorNormals"},{"bufferView":3,"byteOffset":4008,"componentType":5126,"count":192,"type":"VEC2","name":"accessorUVs"},{"bufferView":0,"byteOffset":4812,"componentType":5123,"count":864,"type":"SCALAR","name":"accessorIndices"},{"bufferView":1,"byteOffset":16632,"componentType":5126,"count":292,"max":[0.006604,0.015875,0.015875],"min":[-0.022722581,-0.015875,-0.015875],"type":"VEC3","name":"accessorPositions"},{"bufferView":2,"byteOffset":11088,"componentType":5126,"count":292,"type":"VEC4","name":"accessorTangents"},{"bufferView":1,"byteOffset":20136,"componentType":5126,"count":292,"type":"VEC3","name":"accessorNormals"},{"bufferView":3,"byteOffset":5544,"componentType":5126,"count":292,"type":"VEC2","name":"accessorUVs"},{"bufferView":0,"byteOffset":6540,"componentType":5123,"count":858,"type":"SCALAR","name":"accessorIndices"},{"bufferView":1,"byteOffset":23640,"componentType":5126,"count":289,"max":[0.006604,0.015875,0.015875],"min":[-0.022722581,-0.015875,-0.015875],"type":"VEC3","name":"accessorPositions"},{"bufferView":2,"byteOffset":15760,"componentType":5126,"count":289,"type":"VEC4","name":"accessorTangents"},{"bufferView":1,"byteOffset":27108,"componentType":5126,"count":289,"type":"VEC3","name":"accessorNormals"},{"bufferView":3,"byteOffset":7880,"componentType":5126,"count":289,"type":"VEC2","name":"accessorUVs"},{"bufferView":0,"byteOffset":8256,"componentType":5123,"count":1440,"type":"SCALAR","name":"accessorIndices"},{"bufferView":1,"byteOffset":30576,"componentType":5126,"count":484,"max":[0.012700001,0.012700001,0.0015748],"min":[-0.012700001,-0.012700001,8.253881E-15],"type":"VEC3","name":"accessorPositions"},{"bufferView":2,"byteOffset":20384,"componentType":5126,"count":484,"type":"VEC4","name":"accessorTangents"},{"bufferView":1,"byteOffset":36384,"componentType":5126,"count":484,"type":"VEC3","name":"accessorNormals"},{"bufferView":3,"byteOffset":10192,"componentType":5126,"count":484,"type":"VEC2","name":"accessorUVs"},{"bufferView":0,"byteOffset":11136,"componentType":5123,"count":3822,"type":"SCALAR","name":"accessorIndices"},{"bufferView":1,"byteOffset":42192,"componentType":5126,"count":879,"max":[0.05715,0.025400002,0.05715],"min":[-0.05715,-2.9463596E-15,-0.05715],"type":"VEC3","name":"accessorPositions"},{"bufferView":2,"byteOffset":28128,"componentType":5126,"count":879,"type":"VEC4","name":"accessorTangents"},{"bufferView":1,"byteOffset":52740,"componentType":5126,"count":879,"type":"VEC3","name":"accessorNormals"},{"bufferView":3,"byteOffset":14064,"componentType":5126,"count":879,"type":"VEC2","name":"accessorUVs"},{"bufferView":0,"byteOffset":18780,"componentType":5123,"count":270,"type":"SCALAR","name":"accessorIndices"},{"bufferView":1,"byteOffset":63288,"componentType":5126,"count":90,"max":[0.0541528,0.025400002,0.0541528],"min":[-0.0541528,0.025400002,-0.0541528],"type":"VEC3","name":"accessorPositions"},{"bufferView":2,"byteOffset":42192,"componentType":5126,"count":90,"type":"VEC4","name":"accessorTangents"},{"bufferView":1,"byteOffset":64368,"componentType":5126,"count":90,"type":"VEC3","name":"accessorNormals"},{"bufferView":3,"byteOffset":21096,"componentType":5126,"count":90,"type":"VEC2","name":"accessorUVs"},{"bufferView":0,"byteOffset":19320,"componentType":5123,"count":36,"type":"SCALAR","name":"accessorIndices"},{"bufferView":1,"byteOffset":65448,"componentType":5126,"count":24,"max":[0.5350256,0.025400002,0.0063500004],"min":[6.3589614E-15,-0.025400002,-0.0063500004],"type":"VEC3","name":"accessorPositions"},{"bufferView":2,"byteOffset":43632,"componentType":5126,"count":24,"type":"VEC4","name":"accessorTangents"},{"bufferView":1,"byteOffset":65736,"componentType":5126,"count":24,"type":"VEC3","name":"accessorNormals"},{"bufferView":3,"byteOffset":21816,"componentType":5126,"count":24,"type":"VEC2","name":"accessorUVs"},{"bufferView":0,"byteOffset":19392,"componentType":5123,"count":132,"type":"SCALAR","name":"accessorIndices"},{"bufferView":1,"byteOffset":66024,"componentType":5126,"count":82,"max":[0.67253757,0.76435065,0.0071501],"min":[-0.1888937,-0.7240815,-0.0071501],"type":"VEC3","name":"accessorPositions"},{"bufferView":2,"byteOffset":44016,"componentType":5126,"count":82,"type":"VEC4","name":"accessorTangents"},{"bufferView":1,"byteOffset":67008,"componentType":5126,"count":82,"type":"VEC3","name":"accessorNormals"},{"bufferView":3,"byteOffset":22008,"componentType":5126,"count":82,"type":"VEC2","name":"accessorUVs"},{"bufferView":0,"byteOffset":19656,"componentType":5123,"count":132,"type":"SCALAR","name":"accessorIndices"},{"bufferView":1,"byteOffset":67992,"componentType":5126,"count":82,"max":[0.16510001,0.41611978,0.0071501],"min":[-0.9136126,-1.2214502,-0.0071501],"type":"VEC3","name":"accessorPositions"},{"bufferView":2,"byteOffset":45328,"componentType":5126,"count":82,"type":"VEC4","name":"accessorTangents"},{"bufferView":1,"byteOffset":68976,"componentType":5126,"count":82,"type":"VEC3","name":"accessorNormals"},{"bufferView":3,"byteOffset":22664,"componentType":5126,"count":82,"type":"VEC2","name":"accessorUVs"},{"bufferView":0,"byteOffset":19920,"componentType":5123,"count":168,"type":"SCALAR","name":"accessorIndices"},{"bufferView":1,"byteOffset":69960,"componentType":5126,"count":109,"max":[0.77951753,0.0071501,1.4337071],"min":[-0.068804964,-0.0071501024,-0.0],"type":"VEC3","name":"accessorPositions"},{"bufferView":2,"byteOffset":46640,"componentType":5126,"count":109,"type":"VEC4","name":"accessorTangents"},{"bufferView":1,"byteOffset":71268,"componentType":5126,"count":109,"type":"VEC3","name":"accessorNormals"},{"bufferView":3,"byteOffset":23320,"componentType":5126,"count":109,"type":"VEC2","name":"accessorUVs"},{"bufferView":0,"byteOffset":20256,"componentType":5123,"count":132,"type":"SCALAR","name":"accessorIndices"},{"bufferView":1,"byteOffset":72576,"componentType":5126,"count":82,"max":[0.3937,0.71999997,0.0071501],"min":[-0.4111075,-0.730215,-0.0071501],"type":"VEC3","name":"accessorPositions"},{"bufferView":2,"byteOffset":48384,"componentType":5126,"count":82,"type":"VEC4","name":"accessorTangents"},{"bufferView":1,"byteOffset":73560,"componentType":5126,"count":82,"type":"VEC3","name":"accessorNormals"},{"bufferView":3,"byteOffset":24192,"componentType":5126,"count":82,"type":"VEC2","name":"accessorUVs"},{"bufferView":0,"byteOffset":20520,"componentType":5123,"count":49806,"type":"SCALAR","name":"accessorIndices"},{"bufferView":1,"byteOffset":74544,"componentType":5126,"count":10012,"max":[-27.580276,2.2050376,-27.06699],"min":[-29.259083,1.0594896,-27.105263],"type":"VEC3","name":"accessorPositions"},{"bufferView":2,"byteOffset":49696,"componentType":5126,"count":10012,"type":"VEC4","name":"accessorTangents"},{"bufferView":1,"byteOffset":194688,"componentType":5126,"count":10012,"type":"VEC3","name":"accessorNormals"},{"bufferView":3,"byteOffset":24848,"componentType":5126,"count":10012,"type":"VEC2","name":"accessorUVs"},{"bufferView":0,"byteOffset":120132,"componentType":5123,"count":456,"type":"SCALAR","name":"accessorIndices"},{"bufferView":1,"byteOffset":314832,"componentType":5126,"count":156,"max":[-27.580276,2.2050376,-27.067],"min":[-29.259083,1.0594896,-27.105263],"type":"VEC3","name":"accessorPositions"},{"bufferView":2,"byteOffset":209888,"componentType":5126,"count":156,"type":"VEC4","name":"accessorTangents"},{"bufferView":1,"byteOffset":316704,"componentType":5126,"count":156,"type":"VEC3","name":"accessorNormals"},{"bufferView":3,"byteOffset":104944,"componentType":5126,"count":156,"type":"VEC2","name":"accessorUVs"},{"bufferView":0,"byteOffset":121044,"componentType":5123,"count":132,"type":"SCALAR","name":"accessorIndices"},{"bufferView":1,"byteOffset":318576,"componentType":5126,"count":82,"max":[0.3937,0.71999997,0.0071501],"min":[-0.4111075,-0.730215,-0.0071501],"type":"VEC3","name":"accessorPositions"},{"bufferView":2,"byteOffset":212384,"componentType":5126,"count":82,"type":"VEC4","name":"accessorTangents"},{"bufferView":1,"byteOffset":319560,"componentType":5126,"count":82,"type":"VEC3","name":"accessorNormals"},{"bufferView":3,"byteOffset":106192,"componentType":5126,"count":82,"type":"VEC2","name":"accessorUVs"},{"bufferView":0,"byteOffset":121308,"componentType":5123,"count":81387,"type":"SCALAR","name":"accessorIndices"},{"bufferView":1,"byteOffset":320544,"componentType":5126,"count":17413,"max":[-27.580276,2.2050376,-26.119287],"min":[-29.224365,1.0594137,-26.157398],"type":"VEC3","name":"accessorPositions"},{"bufferView":2,"byteOffset":213696,"componentType":5126,"count":17413,"type":"VEC4","name":"accessorTangents"},{"bufferView":1,"byteOffset":529500,"componentType":5126,"count":17413,"type":"VEC3","name":"accessorNormals"},{"bufferView":3,"byteOffset":106848,"componentType":5126,"count":17413,"type":"VEC2","name":"accessorUVs"},{"bufferView":0,"byteOffset":284084,"componentType":5123,"count":10326,"type":"SCALAR","name":"accessorIndices"},{"bufferView":1,"byteOffset":738456,"componentType":5126,"count":17742,"max":[-27.580276,2.2050288,-26.119287],"min":[-29.224365,1.0594137,-26.157398],"type":"VEC3","name":"accessorPositions"},{"bufferView":2,"byteOffset":492304,"componentType":5126,"count":17742,"type":"VEC4","name":"accessorTangents"},{"bufferView":1,"byteOffset":951360,"componentType":5126,"count":17742,"type":"VEC3","name":"accessorNormals"},{"bufferView":3,"byteOffset":246152,"componentType":5126,"count":17742,"type":"VEC2","name":"accessorUVs"},{"bufferView":0,"byteOffset":304736,"componentType":5123,"count":132,"type":"SCALAR","name":"accessorIndices"},{"bufferView":1,"byteOffset":1164264,"componentType":5126,"count":82,"max":[0.16510001,0.41611978,0.0071501],"min":[-0.9136126,-1.2214502,-0.0071501],"type":"VEC3","name":"accessorPositions"},{"bufferView":2,"byteOffset":776176,"componentType":5126,"count":82,"type":"VEC4","name":"accessorTangents"},{"bufferView":1,"byteOffset":1165248,"componentType":5126,"count":82,"type":"VEC3","name":"accessorNormals"},{"bufferView":3,"byteOffset":388088,"componentType":5126,"count":82,"type":"VEC2","name":"accessorUVs"},{"bufferView":0,"byteOffset":305000,"componentType":5123,"count":132,"type":"SCALAR","name":"accessorIndices"},{"bufferView":1,"byteOffset":1166232,"componentType":5126,"count":96,"max":[0.40886727,0.3245767,0.0071501],"min":[-0.35996616,-0.52949834,-0.0071501],"type":"VEC3","name":"accessorPositions"},{"bufferView":2,"byteOffset":777488,"componentType":5126,"count":96,"type":"VEC4","name":"accessorTangents"},{"bufferView":1,"byteOffset":1167384,"componentType":5126,"count":96,"type":"VEC3","name":"accessorNormals"},{"bufferView":3,"byteOffset":388744,"componentType":5126,"count":96,"type":"VEC2","name":"accessorUVs"},{"bufferView":0,"byteOffset":305264,"componentType":5123,"count":168,"type":"SCALAR","name":"accessorIndices"},{"bufferView":1,"byteOffset":1168536,"componentType":5126,"count":99,"max":[-28.40499,2.929653,-28.298086],"min":[-29.471046,1.3404851,-28.312412],"type":"VEC3","name":"accessorPositions"},{"bufferView":2,"byteOffset":779024,"componentType":5126,"count":99,"type":"VEC4","name":"accessorTangents"},{"bufferView":1,"byteOffset":1169724,"componentType":5126,"count":99,"type":"VEC3","name":"accessorNormals"},{"bufferView":3,"byteOffset":389512,"componentType":5126,"count":99,"type":"VEC2","name":"accessorUVs"},{"bufferView":0,"byteOffset":305600,"componentType":5123,"count":36,"type":"SCALAR","name":"accessorIndices"},{"bufferView":1,"byteOffset":1170912,"componentType":5126,"count":24,"max":[0.45272562,0.025400015,0.0063500004],"min":[6.3589614E-15,-0.025400002,-0.0063500004],"type":"VEC3","name":"accessorPositions"},{"bufferView":2,"byteOffset":780608,"componentType":5126,"count":24,"type":"VEC4","name":"accessorTangents"},{"bufferView":1,"byteOffset":1171200,"componentType":5126,"count":24,"type":"VEC3","name":"accessorNormals"},{"bufferView":3,"byteOffset":390304,"componentType":5126,"count":24,"type":"VEC2","name":"accessorUVs"},{"bufferView":0,"byteOffset":305672,"componentType":5123,"count":132,"type":"SCALAR","name":"accessorIndices"},{"bufferView":1,"byteOffset":1171488,"componentType":5126,"count":96,"max":[0.70101464,0.3245767,0.0071501],"min":[-0.35996616,-0.52949834,-0.0071501],"type":"VEC3","name":"accessorPositions"},{"bufferView":2,"byteOffset":780992,"componentType":5126,"count":96,"type":"VEC4","name":"accessorTangents"},{"bufferView":1,"byteOffset":1172640,"componentType":5126,"count":96,"type":"VEC3","name":"accessorNormals"},{"bufferView":3,"byteOffset":390496,"componentType":5126,"count":96,"type":"VEC2","name":"accessorUVs"},{"bufferView":0,"byteOffset":305936,"componentType":5123,"count":132,"type":"SCALAR","name":"accessorIndices"},{"bufferView":1,"byteOffset":1173792,"componentType":5126,"count":82,"max":[0.37704316,0.70856416,0.0071501],"min":[-0.39211252,-0.71716493,-0.0071501],"type":"VEC3","name":"accessorPositions"},{"bufferView":2,"byteOffset":782528,"componentType":5126,"count":82,"type":"VEC4","name":"accessorTangents"},{"bufferView":1,"byteOffset":1174776,"componentType":5126,"count":82,"type":"VEC3","name":"accessorNormals"},{"bufferView":3,"byteOffset":391264,"componentType":5126,"count":82,"type":"VEC2","name":"accessorUVs"},{"bufferView":0,"byteOffset":306200,"componentType":5123,"count":201306,"type":"SCALAR","name":"accessorIndices"},{"bufferView":1,"byteOffset":1175760,"componentType":5126,"count":38119,"max":[-27.30563,3.6965744,-27.264956],"min":[-30.287746,2.1714768,-28.324299],"type":"VEC3","name":"accessorPositions"},{"bufferView":2,"byteOffset":783840,"componentType":5126,"count":38119,"type":"VEC4","name":"accessorTangents"},{"bufferView":1,"byteOffset":1633188,"componentType":5126,"count":38119,"type":"VEC3","name":"accessorNormals"},{"bufferView":3,"byteOffset":391920,"componentType":5126,"count":38119,"type":"VEC2","name":"accessorUVs"},{"bufferView":0,"byteOffset":708812,"componentType":5123,"count":246,"type":"SCALAR","name":"accessorIndices"},{"bufferView":1,"byteOffset":2090616,"componentType":5126,"count":84,"max":[-27.30563,3.6965744,-28.2862],"min":[-27.30563,3.6503658,-28.324299],"type":"VEC3","name":"accessorPositions"},{"bufferView":2,"byteOffset":1393744,"componentType":5126,"count":84,"type":"VEC4","name":"accessorTangents"},{"bufferView":1,"byteOffset":2091624,"componentType":5126,"count":84,"type":"VEC3","name":"accessorNormals"},{"bufferView":3,"byteOffset":696872,"componentType":5126,"count":84,"type":"VEC2","name":"accessorUVs"},{"bufferView":0,"byteOffset":709304,"componentType":5123,"count":4080,"type":"SCALAR","name":"accessorIndices"},{"bufferView":1,"byteOffset":2092632,"componentType":5126,"count":1530,"max":[0.9106084,0.6469242,0.019062791],"min":[-1.0538441,-0.74506915,-0.019062791],"type":"VEC3","name":"accessorPositions"},{"bufferView":2,"byteOffset":1395088,"componentType":5126,"count":1530,"type":"VEC4","name":"accessorTangents"},{"bufferView":1,"byteOffset":2110992,"componentType":5126,"count":1530,"type":"VEC3","name":"accessorNormals"},{"bufferView":3,"byteOffset":697544,"componentType":5126,"count":1530,"type":"VEC2","name":"accessorUVs"},{"bufferView":0,"byteOffset":717464,"componentType":5123,"count":738,"type":"SCALAR","name":"accessorIndices"},{"bufferView":1,"byteOffset":2129352,"componentType":5126,"count":252,"max":[0.9106084,0.6469242,0.019062791],"min":[-1.0538441,-0.74506915,-0.019062791],"type":"VEC3","name":"accessorPositions"},{"bufferView":2,"byteOffset":1419568,"componentType":5126,"count":252,"type":"VEC4","name":"accessorTangents"},{"bufferView":1,"byteOffset":2132376,"componentType":5126,"count":252,"type":"VEC3","name":"accessorNormals"},{"bufferView":3,"byteOffset":709784,"componentType":5126,"count":252,"type":"VEC2","name":"accessorUVs"}],"bufferViews":[{"buffer":0,"byteLength":718940,"name":"bufferViewScalar"},{"buffer":0,"byteOffset":718940,"byteLength":2135400,"byteStride":12,"name":"bufferViewFloatVec3"},{"buffer":0,"byteOffset":2854340,"byteLength":1423600,"byteStride":16,"name":"bufferViewFloatVec4"},{"buffer":0,"byteOffset":4277940,"byteLength":711800,"byteStride":8,"name":"bufferViewFloatVec2"}],"buffers":[{"uri":"L-Shaped_Railing_Lo-Post_Flatbar.bin","byteLength":4989740}],"materials":[{"pbrMetallicRoughness":{"baseColorFactor":[0.9999998,0.9999999,0.9999999,1.0],"baseColorTexture":{"index":0,"extensions":{"KHR_texture_transform":{"offset":[0.19519997,0.8048],"rotation":1.5707964,"scale":[0.6096,0.6096],"texCoord":0}}},"roughnessFactor":0.2,"metallicRoughnessTexture":{"index":0,"extensions":{"KHR_texture_transform":{"offset":[0.19519997,0.8048],"rotation":1.5707964,"scale":[0.6096,0.6096],"texCoord":0}}}},"name":"Steel_Linear"},{"pbrMetallicRoughness":{"baseColorFactor":[0.9999998,0.9999999,0.9999999,1.0],"baseColorTexture":{"index":1},"roughnessFactor":0.2,"metallicRoughnessTexture":{"index":1}},"name":"Steel_Radial"},{"pbrMetallicRoughness":{"baseColorFactor":[0.10641303,0.10641304,0.10641304,1.0],"metallicFactor":0.0,"roughnessFactor":0.99,"metallicRoughnessTexture":{"index":2}},"name":"Rubber","extensions":{"KHR_materials_specular":{"specularFactor":0.1}}},{"pbrMetallicRoughness":{"baseColorFactor":[0.9999998,0.9999999,0.9999999,1.0],"metallicFactor":0.0,"roughnessFactor":0.1},"name":"Glass","extensions":{"KHR_materials_ior":{"ior":1.0},"KHR_materials_transmission":{"transmissionFactor":0.97},"KHR_materials_volume":{"thicknessFactor":0.56,"attenuationDistance":0.5,"attenuationColor":[0.49521634,0.56476736,0.5317566]}}}],"textures":[{"sampler":0,"source":0,"name":"Metal_Brushed_Linear_4k.jpg"},{"sampler":0,"source":1,"name":"Metal_Brushed_Radial_4k.jpg"},{"sampler":0,"source":2,"name":"PowderCoat_Roughness_2k0.jpg"}],"images":[{"uri":"textures/Metal_Brushed_Linear_4k.jpg"},{"uri":"textures/Metal_Brushed_Radial_4k.jpg"},{"uri":"textures/PowderCoat_Roughness_2k0.jpg"}],"samplers":[{"magFilter":9729,"minFilter":9987}]}