{"asset":{"version":"2.0","generator":"babylon.js glTF exporter for 3dsmax 2026 v20251111.2"},"extensionsUsed":["KHR_texture_transform","KHR_materials_specular","KHR_materials_ior","KHR_materials_transmission","KHR_materials_volume"],"extensionsRequired":["KHR_texture_transform"],"scene":0,"scenes":[{"nodes":[0,1,2,3,4,5,6,7,8,9,10,11,12,13,14,15,16,17,18,19,20,21,22,23,24,25,26,27,28,29,30,31,32,33,34,35,36,37,38,39,40,41,42,43,44,45,46,47,48,49,50,51,52,53,54,55,56,57,58,59,60,61,62,63,64,65,66,67,68,69,70,71,72,73,74,75,76,77,78,79,80,81,82,83,84,85,86,87,88,89,90,91,92,93,94,95,96,97,98,99,100,101,102,103,104,105,106,107,108,109,110,111,112,113,114,115,116,117,118,119,120,121,122,123,124,125,126,127,128,129,130,131,132,133,134,135,136,137,138,139,140,141,142,143,144,145,146,147,148,149,150,151,152,153,154,155,156,157,158,159,160,161,162,163,164,165,166,167,168,169,170,171,172,173,174,175,176,177,178,179,180,181,182,183,184,185,186,187,188,189,190,191,192,193,194,195,196,197,198,199,200,201,202,203,204,205,206,207,208,209,210,211,212,213,214,215,216,217,218,219,220,221,222,223,224,225,226,227]}],"nodes":[{"mesh":0,"translation":[-0.09430268,1.41224,0.059086945],"name":"Boss_046"},{"mesh":0,"translation":[0.17217408,1.59512,0.059086945],"name":"Boss_045"},{"mesh":0,"translation":[0.019774083,1.59512,0.059086945],"name":"Boss_044"},{"mesh":0,"translation":[0.43864852,1.7780001,0.059086945],"name":"Boss_043"},{"mesh":0,"translation":[0.2862485,1.7780001,0.059086945],"name":"Boss_042"},{"mesh":0,"translation":[0.70512295,1.96088,0.059086945],"name":"Boss_041"},{"mesh":0,"translation":[0.55272293,1.96088,0.059086945],"name":"Boss_040"},{"mesh":0,"translation":[0.9715974,2.14376,0.059086945],"name":"Boss_039"},{"mesh":0,"translation":[0.8191974,2.14376,0.059086945],"name":"Boss_038"},{"mesh":0,"translation":[1.2380742,2.32664,0.059086945],"name":"Boss_037"},{"mesh":0,"translation":[1.0856742,2.32664,0.059086945],"name":"Boss_036"},{"mesh":0,"translation":[1.5045485,2.50952,0.059086945],"name":"Boss_035"},{"mesh":0,"translation":[1.3521485,2.50952,0.059086945],"name":"Boss_034"},{"mesh":0,"translation":[-0.09430268,1.41224,-1.1601131],"rotation":[-0.0,-1.0,0.0,-4.371139E-08],"name":"Boss_033"},{"mesh":0,"translation":[-0.24670267,1.41224,-1.1601131],"rotation":[-0.0,-1.0,0.0,4.371139E-08],"name":"OPT001 - Glass Mount Base Part [8745451]"},{"mesh":0,"translation":[0.17217408,1.59512,-1.1601131],"rotation":[-0.0,-1.0,0.0,-4.371139E-08],"name":"Boss_032"},{"mesh":0,"translation":[0.019774083,1.59512,-1.1601131],"rotation":[-0.0,-1.0,0.0,-4.371139E-08],"name":"Boss_031"},{"mesh":0,"translation":[0.43864852,1.7780001,-1.1601131],"rotation":[-0.0,-1.0,0.0,-4.371139E-08],"name":"Boss_030"},{"mesh":0,"translation":[0.2862485,1.7780001,-1.1601131],"rotation":[-0.0,-1.0,0.0,-4.371139E-08],"name":"Boss_029"},{"mesh":0,"translation":[0.70512295,1.96088,-1.1601131],"rotation":[-0.0,-1.0,0.0,-4.371139E-08],"name":"Boss_028"},{"mesh":0,"translation":[0.55272293,1.96088,-1.1601131],"rotation":[-0.0,-1.0,0.0,-4.371139E-08],"name":"Boss_027"},{"mesh":0,"translation":[0.9715974,2.14376,-1.1601131],"rotation":[-0.0,-1.0,0.0,-4.371139E-08],"name":"Boss_026"},{"mesh":0,"translation":[0.8191974,2.14376,-1.1601131],"rotation":[-0.0,-1.0,0.0,-4.371139E-08],"name":"Boss_025"},{"mesh":0,"translation":[1.2380742,2.32664,-1.1601131],"rotation":[-0.0,-1.0,0.0,-4.371139E-08],"name":"Boss_024"},{"mesh":0,"translation":[1.0856742,2.32664,-1.1601131],"rotation":[-0.0,-1.0,0.0,-4.371139E-08],"name":"Boss_023"},{"mesh":0,"translation":[1.5045485,2.50952,-1.1601131],"rotation":[-0.0,-1.0,0.0,-4.371139E-08],"name":"Boss_022"},{"mesh":0,"translation":[1.3521485,2.50952,-1.1601131],"rotation":[-0.0,-1.0,0.0,-4.371139E-08],"name":"Boss_021"},{"mesh":0,"translation":[-1.0428197,0.8636,-1.1601195],"rotation":[-0.0,-1.0,0.0,-4.371139E-08],"name":"Boss_019"},{"mesh":0,"translation":[-0.8904198,0.8636,-1.1601195],"rotation":[-0.0,-1.0,0.0,-4.371139E-08],"name":"Boss_018"},{"mesh":0,"translation":[-1.3089896,0.68072003,-1.1601195],"rotation":[-0.0,-1.0,0.0,-4.371139E-08],"name":"Boss_017"},{"mesh":0,"translation":[-1.1565896,0.68072003,-1.1601195],"rotation":[-0.0,-1.0,0.0,-4.371139E-08],"name":"Boss_016"},{"mesh":0,"translation":[-1.5751617,0.49784002,-1.1601195],"rotation":[-0.0,-1.0,0.0,-4.371139E-08],"name":"Boss_015"},{"mesh":0,"translation":[-1.4227617,0.49784002,-1.1601195],"rotation":[-0.0,-1.0,0.0,-4.371139E-08],"name":"Boss_014"},{"mesh":0,"translation":[-1.8413315,0.31496,-1.1601197],"rotation":[-0.0,-1.0,0.0,-4.371139E-08],"name":"Boss_013"},{"mesh":0,"translation":[-1.6889315,0.31496,-1.1601195],"rotation":[-0.0,-1.0,0.0,-4.371139E-08],"name":"Boss_012"},{"mesh":0,"translation":[-2.1075013,0.13208,-1.1601197],"rotation":[-0.0,-1.0,0.0,-4.371139E-08],"name":"Boss_011"},{"mesh":0,"translation":[-1.9551014,0.13208,-1.1601197],"rotation":[-0.0,-1.0,0.0,-4.371139E-08],"name":"Boss_010"},{"mesh":0,"translation":[-1.0428197,0.8636,0.059080414],"rotation":[-0.0,-8.742278E-08,0.0,1.0],"name":"Boss_009"},{"mesh":0,"translation":[-0.8904198,0.8636,0.059080414],"rotation":[-0.0,-8.742278E-08,0.0,1.0],"name":"Boss_008"},{"mesh":0,"translation":[-1.3089896,0.68072003,0.059080414],"rotation":[-0.0,-8.742278E-08,0.0,1.0],"name":"Boss_007"},{"mesh":0,"translation":[-1.1565896,0.68072003,0.059080414],"rotation":[-0.0,-8.742278E-08,0.0,1.0],"name":"Boss_006"},{"mesh":0,"translation":[-1.5751617,0.49784002,0.059080414],"rotation":[-0.0,-8.742278E-08,0.0,1.0],"name":"Boss_005"},{"mesh":0,"translation":[-1.4227617,0.49784002,0.059080414],"rotation":[-0.0,-8.742278E-08,0.0,1.0],"name":"Boss_004"},{"mesh":0,"translation":[-1.8413315,0.31496,0.059080414],"rotation":[-0.0,-8.742278E-08,0.0,1.0],"name":"Boss_003"},{"mesh":0,"translation":[-1.6889315,0.31496,0.059080414],"rotation":[-0.0,-8.742278E-08,0.0,1.0],"name":"Boss_002"},{"mesh":0,"translation":[-2.1075013,0.13208,0.059080414],"rotation":[-0.0,-8.742278E-08,0.0,1.0],"name":"Boss_001"},{"mesh":0,"translation":[-1.9551014,0.13208,0.059080414],"rotation":[-0.0,-8.742278E-08,0.0,1.0],"name":"Boss_000"},{"mesh":0,"translation":[-0.3580777,1.22936,0.059080534],"rotation":[-0.0,-8.742278E-08,0.0,1.0],"name":"Boss_074"},{"mesh":0,"translation":[-0.3580777,1.22936,-1.1601194],"rotation":[-0.0,-1.0,0.0,-4.371139E-08],"name":"Boss_075"},{"mesh":0,"translation":[-0.5104777,1.22936,-1.1601194],"rotation":[-0.0,-1.0,0.0,-4.371139E-08],"name":"Boss_076"},{"mesh":0,"translation":[-0.5104777,1.22936,0.059080534],"rotation":[-0.0,-8.742278E-08,0.0,1.0],"name":"Boss_077"},{"mesh":0,"translation":[-0.6267421,1.0464807,0.059080414],"rotation":[-0.0,-8.742278E-08,0.0,1.0],"name":"Boss_078"},{"mesh":0,"translation":[-0.77914214,1.0464807,0.059080414],"rotation":[-0.0,-8.742278E-08,0.0,1.0],"name":"Boss_079"},{"mesh":0,"translation":[-0.6267421,1.0464807,-1.1601195],"rotation":[-0.0,-1.0,0.0,-4.371139E-08],"name":"Boss_080"},{"mesh":0,"translation":[-0.77914214,1.0464807,-1.1601195],"rotation":[-0.0,-1.0,0.0,-4.371139E-08],"name":"Boss_081"},{"mesh":0,"translation":[-0.24670264,1.41224,0.059086945],"name":"Boss_082"},{"mesh":1,"translation":[-0.09430268,1.41224,0.12733859],"name":"Glass Mount Clamp Part [8742498]027"},{"mesh":1,"translation":[0.17217408,1.59512,0.12733859],"name":"Glass Mount Clamp Part [8742498]028"},{"mesh":1,"translation":[0.019774083,1.59512,0.12733859],"name":"Glass Mount Clamp Part [8742498]029"},{"mesh":1,"translation":[0.43864852,1.7780001,0.12733859],"name":"Glass Mount Clamp Part [8742498]030"},{"mesh":1,"translation":[0.2862485,1.7780001,0.12733859],"name":"Glass Mount Clamp Part [8742498]031"},{"mesh":1,"translation":[0.70512295,1.96088,0.12733859],"name":"Glass Mount Clamp Part [8742498]032"},{"mesh":1,"translation":[0.55272293,1.96088,0.12733859],"name":"Glass Mount Clamp Part [8742498]033"},{"mesh":1,"translation":[0.9715974,2.14376,0.12733859],"name":"Glass Mount Clamp Part [8742498]034"},{"mesh":1,"translation":[0.8191974,2.14376,0.12733859],"name":"Glass Mount Clamp Part [8742498]035"},{"mesh":1,"translation":[1.2380742,2.32664,0.12733859],"name":"Glass Mount Clamp Part [8742498]036"},{"mesh":1,"translation":[1.0856742,2.32664,0.12733859],"name":"Glass Mount Clamp Part [8742498]037"},{"mesh":1,"translation":[1.5045485,2.50952,0.12733859],"name":"Glass Mount Clamp Part [8742498]038"},{"mesh":1,"translation":[1.3521485,2.50952,0.12733859],"name":"Glass Mount Clamp Part [8742498]039"},{"mesh":1,"translation":[-0.09430268,1.41224,-1.2283624],"rotation":[-0.0,-1.0,0.0,-4.371139E-08],"name":"Glass Mount Clamp Part [8742498]040"},{"mesh":1,"translation":[-0.24670267,1.41224,-1.2283624],"rotation":[-0.0,-1.0,0.0,-4.371139E-08],"name":"Glass Mount Clamp Part [8742498]041"},{"mesh":1,"translation":[0.17217408,1.59512,-1.2283624],"rotation":[-0.0,-1.0,0.0,-4.371139E-08],"name":"Glass Mount Clamp Part [8742498]042"},{"mesh":1,"translation":[0.019774083,1.59512,-1.2283624],"rotation":[-0.0,-1.0,0.0,-4.371139E-08],"name":"Glass Mount Clamp Part [8742498]043"},{"mesh":1,"translation":[0.43864852,1.7780001,-1.2283624],"rotation":[-0.0,-1.0,0.0,-4.371139E-08],"name":"Glass Mount Clamp Part [8742498]044"},{"mesh":1,"translation":[0.2862485,1.7780001,-1.2283624],"rotation":[-0.0,-1.0,0.0,-4.371139E-08],"name":"Glass Mount Clamp Part [8742498]045"},{"mesh":1,"translation":[0.70512295,1.96088,-1.2283624],"rotation":[-0.0,-1.0,0.0,-4.371139E-08],"name":"Glass Mount Clamp Part [8742498]046"},{"mesh":1,"translation":[0.55272293,1.96088,-1.2283624],"rotation":[-0.0,-1.0,0.0,-4.371139E-08],"name":"Glass Mount Clamp Part [8742498]047"},{"mesh":1,"translation":[0.9715974,2.14376,-1.2283624],"rotation":[-0.0,-1.0,0.0,-4.371139E-08],"name":"Glass Mount Clamp Part [8742498]048"},{"mesh":1,"translation":[0.8191974,2.14376,-1.2283624],"rotation":[-0.0,-1.0,0.0,-4.371139E-08],"name":"Glass Mount Clamp Part [8742498]049"},{"mesh":1,"translation":[1.2380742,2.32664,-1.2283624],"rotation":[-0.0,-1.0,0.0,-4.371139E-08],"name":"Glass Mount Clamp Part [8742498]050"},{"mesh":1,"translation":[1.0856742,2.32664,-1.2283624],"rotation":[-0.0,-1.0,0.0,-4.371139E-08],"name":"Glass Mount Clamp Part [8742498]051"},{"mesh":1,"translation":[1.5045485,2.50952,-1.2283624],"rotation":[-0.0,-1.0,0.0,-4.371139E-08],"name":"Glass Mount Clamp Part [8742498]052"},{"mesh":1,"translation":[1.3521485,2.50952,-1.2283624],"rotation":[-0.0,-1.0,0.0,-4.371139E-08],"name":"Glass Mount Clamp Part [8742498]053"},{"mesh":1,"translation":[-1.0428197,0.8636,-1.2283711],"rotation":[-0.0,-1.0,0.0,-4.371139E-08],"name":"Glass Mount Clamp Part [8742498]055"},{"mesh":1,"translation":[-0.8904198,0.8636,-1.2283711],"rotation":[-0.0,-1.0,0.0,-4.371139E-08],"name":"Glass Mount Clamp Part [8742498]056"},{"mesh":1,"translation":[-1.3089896,0.68072003,-1.2283711],"rotation":[-0.0,-1.0,0.0,-4.371139E-08],"name":"Glass Mount Clamp Part [8742498]057"},{"mesh":1,"translation":[-1.1565896,0.68072003,-1.2283711],"rotation":[-0.0,-1.0,0.0,-4.371139E-08],"name":"Glass Mount Clamp Part [8742498]058"},{"mesh":1,"translation":[-1.5751617,0.49784002,-1.2283711],"rotation":[-0.0,-1.0,0.0,-4.371139E-08],"name":"Glass Mount Clamp Part [8742498]059"},{"mesh":1,"translation":[-1.4227617,0.49784002,-1.2283711],"rotation":[-0.0,-1.0,0.0,-4.371139E-08],"name":"Glass Mount Clamp Part [8742498]060"},{"mesh":1,"translation":[-1.8413315,0.31496,-1.2283713],"rotation":[-0.0,-1.0,0.0,-4.371139E-08],"name":"Glass Mount Clamp Part [8742498]061"},{"mesh":1,"translation":[-1.6889315,0.31496,-1.2283711],"rotation":[-0.0,-1.0,0.0,-4.371139E-08],"name":"Glass Mount Clamp Part [8742498]062"},{"mesh":1,"translation":[-2.1075013,0.13208,-1.2283713],"rotation":[-0.0,-1.0,0.0,-4.371139E-08],"name":"Glass Mount Clamp Part [8742498]063"},{"mesh":1,"translation":[-1.9551014,0.13208,-1.2283713],"rotation":[-0.0,-1.0,0.0,-4.371139E-08],"name":"Glass Mount Clamp Part [8742498]064"},{"mesh":1,"translation":[-1.0428197,0.8636,0.12732974],"rotation":[-0.0,-8.742278E-08,0.0,1.0],"name":"Glass Mount Clamp Part [8742498]065"},{"mesh":1,"translation":[-0.8904198,0.8636,0.12732974],"rotation":[-0.0,-8.742278E-08,0.0,1.0],"name":"Glass Mount Clamp Part [8742498]066"},{"mesh":1,"translation":[-1.3089896,0.68072003,0.12732974],"rotation":[-0.0,-8.742278E-08,0.0,1.0],"name":"Glass Mount Clamp Part [8742498]067"},{"mesh":1,"translation":[-1.1565896,0.68072003,0.12732974],"rotation":[-0.0,-8.742278E-08,0.0,1.0],"name":"Glass Mount Clamp Part [8742498]068"},{"mesh":1,"translation":[-1.5751617,0.49784002,0.12732974],"rotation":[-0.0,-8.742278E-08,0.0,1.0],"name":"Glass Mount Clamp Part [8742498]069"},{"mesh":1,"translation":[-1.4227617,0.49784002,0.12732974],"rotation":[-0.0,-8.742278E-08,0.0,1.0],"name":"Glass Mount Clamp Part [8742498]070"},{"mesh":1,"translation":[-1.8413315,0.31496,0.12732974],"rotation":[-0.0,-8.742278E-08,0.0,1.0],"name":"Glass Mount Clamp Part [8742498]071"},{"mesh":1,"translation":[-1.6889315,0.31496,0.12732974],"rotation":[-0.0,-8.742278E-08,0.0,1.0],"name":"Glass Mount Clamp Part [8742498]072"},{"mesh":1,"translation":[-2.1075013,0.13208,0.12732974],"rotation":[-0.0,-8.742278E-08,0.0,1.0],"name":"Glass Mount Clamp Part [8742498]073"},{"mesh":1,"translation":[-1.9551014,0.13208,0.12732974],"rotation":[-0.0,-8.742278E-08,0.0,1.0],"name":"Glass Mount Clamp Part [8742498]074"},{"mesh":1,"translation":[-0.3580777,1.22936,-1.228371],"rotation":[-0.0,-1.0,0.0,-4.371139E-08],"name":"Glass Mount Clamp Part [8742498]075"},{"mesh":1,"translation":[-0.3580777,1.22936,0.12732986],"rotation":[-0.0,-8.742278E-08,0.0,1.0],"name":"Glass Mount Clamp Part [8742498]076"},{"mesh":1,"translation":[-0.5104777,1.22936,-1.228371],"rotation":[-0.0,-1.0,0.0,-4.371139E-08],"name":"Glass Mount Clamp Part [8742498]077"},{"mesh":1,"translation":[-0.5104777,1.22936,0.12732986],"rotation":[-0.0,-8.742278E-08,0.0,1.0],"name":"Glass Mount Clamp Part [8742498]078"},{"mesh":1,"translation":[-0.77914214,1.0464807,-1.2283711],"rotation":[-0.0,-1.0,0.0,-4.371139E-08],"name":"Glass Mount Clamp Part [8742498]079"},{"mesh":1,"translation":[-0.6267421,1.0464807,-1.2283711],"rotation":[-0.0,-1.0,0.0,-4.371139E-08],"name":"Glass Mount Clamp Part [8742498]080"},{"mesh":1,"translation":[-0.77914214,1.0464807,0.12732974],"rotation":[-0.0,-8.742278E-08,0.0,1.0],"name":"Glass Mount Clamp Part [8742498]081"},{"mesh":1,"translation":[-0.6267421,1.0464807,0.12732974],"rotation":[-0.0,-8.742278E-08,0.0,1.0],"name":"Glass Mount Clamp Part [8742498]082"},{"mesh":1,"translation":[-0.24670264,1.41224,0.12733859],"name":"Glass Mount Clamp Part [8742498]083"},{"mesh":2,"translation":[-0.09430268,1.41224,0.12733859],"rotation":[-4.371139E-08,4.371139E-08,1.0,1.9106855E-15],"name":"Glass Mount Pad_2 Part [8742501]053"},{"mesh":2,"translation":[-0.09430268,1.41224,0.11146282],"rotation":[-4.371139E-08,4.371139E-08,1.0,1.9106855E-15],"name":"Glass Mount Pad_2 Part [8742501]102"},{"mesh":2,"translation":[0.17217408,1.59512,0.12733859],"rotation":[-4.371139E-08,4.371139E-08,1.0,1.9106855E-15],"name":"Glass Mount Pad_2 Part [8742501]054"},{"mesh":2,"translation":[0.17217408,1.59512,0.11146282],"rotation":[-4.371139E-08,4.371139E-08,1.0,1.9106855E-15],"name":"Glass Mount Pad_2 Part [8742501]103"},{"mesh":2,"translation":[0.019774083,1.59512,0.12733859],"rotation":[-4.371139E-08,4.371139E-08,1.0,1.9106855E-15],"name":"Glass Mount Pad_2 Part [8742501]055"},{"mesh":2,"translation":[0.019774083,1.59512,0.11146282],"rotation":[-4.371139E-08,4.371139E-08,1.0,1.9106855E-15],"name":"Glass Mount Pad_2 Part [8742501]104"},{"mesh":2,"translation":[0.43864852,1.7780001,0.12733859],"rotation":[-4.371139E-08,4.371139E-08,1.0,1.9106855E-15],"name":"Glass Mount Pad_2 Part [8742501]056"},{"mesh":2,"translation":[0.43864852,1.7780001,0.11146282],"rotation":[-4.371139E-08,4.371139E-08,1.0,1.9106855E-15],"name":"Glass Mount Pad_2 Part [8742501]105"},{"mesh":2,"translation":[0.2862485,1.7780001,0.12733859],"rotation":[-4.371139E-08,4.371139E-08,1.0,1.9106855E-15],"name":"Glass Mount Pad_2 Part [8742501]057"},{"mesh":2,"translation":[0.2862485,1.7780001,0.11146282],"rotation":[-4.371139E-08,4.371139E-08,1.0,1.9106855E-15],"name":"Glass Mount Pad_2 Part [8742501]106"},{"mesh":2,"translation":[0.70512295,1.96088,0.12733859],"rotation":[-4.371139E-08,4.371139E-08,1.0,1.9106855E-15],"name":"Glass Mount Pad_2 Part [8742501]058"},{"mesh":2,"translation":[0.70512295,1.96088,0.11146282],"rotation":[-4.371139E-08,4.371139E-08,1.0,1.9106855E-15],"name":"Glass Mount Pad_2 Part [8742501]107"},{"mesh":2,"translation":[0.55272293,1.96088,0.12733859],"rotation":[-4.371139E-08,4.371139E-08,1.0,1.9106855E-15],"name":"Glass Mount Pad_2 Part [8742501]059"},{"mesh":2,"translation":[0.55272293,1.96088,0.11146282],"rotation":[-4.371139E-08,4.371139E-08,1.0,1.9106855E-15],"name":"Glass Mount Pad_2 Part [8742501]108"},{"mesh":2,"translation":[0.9715974,2.14376,0.12733859],"rotation":[-4.371139E-08,4.371139E-08,1.0,1.9106855E-15],"name":"Glass Mount Pad_2 Part [8742501]060"},{"mesh":2,"translation":[0.9715974,2.14376,0.11146282],"rotation":[-4.371139E-08,4.371139E-08,1.0,1.9106855E-15],"name":"Glass Mount Pad_2 Part [8742501]109"},{"mesh":2,"translation":[0.8191974,2.14376,0.12733859],"rotation":[-4.371139E-08,4.371139E-08,1.0,1.9106855E-15],"name":"Glass Mount Pad_2 Part [8742501]061"},{"mesh":2,"translation":[0.8191974,2.14376,0.11146282],"rotation":[-4.371139E-08,4.371139E-08,1.0,1.9106855E-15],"name":"Glass Mount Pad_2 Part [8742501]110"},{"mesh":2,"translation":[1.2380742,2.32664,0.12733859],"rotation":[-4.371139E-08,4.371139E-08,1.0,1.9106855E-15],"name":"Glass Mount Pad_2 Part [8742501]062"},{"mesh":2,"translation":[1.2380742,2.32664,0.11146282],"rotation":[-4.371139E-08,4.371139E-08,1.0,1.9106855E-15],"name":"Glass Mount Pad_2 Part [8742501]111"},{"mesh":2,"translation":[1.0856742,2.32664,0.12733859],"rotation":[-4.371139E-08,4.371139E-08,1.0,1.9106855E-15],"name":"Glass Mount Pad_2 Part [8742501]063"},{"mesh":2,"translation":[1.0856742,2.32664,0.11146282],"rotation":[-4.371139E-08,4.371139E-08,1.0,1.9106855E-15],"name":"Glass Mount Pad_2 Part [8742501]112"},{"mesh":2,"translation":[1.5045485,2.50952,0.12733859],"rotation":[-4.371139E-08,4.371139E-08,1.0,1.9106855E-15],"name":"Glass Mount Pad_2 Part [8742501]064"},{"mesh":2,"translation":[1.5045485,2.50952,0.11146282],"rotation":[-4.371139E-08,4.371139E-08,1.0,1.9106855E-15],"name":"Glass Mount Pad_2 Part [8742501]113"},{"mesh":2,"translation":[1.3521485,2.50952,0.12733859],"rotation":[-4.371139E-08,4.371139E-08,1.0,1.9106855E-15],"name":"Glass Mount Pad_2 Part [8742501]065"},{"mesh":2,"translation":[1.3521485,2.50952,0.11146282],"rotation":[-4.371139E-08,4.371139E-08,1.0,1.9106855E-15],"name":"Glass Mount Pad_2 Part [8742501]114"},{"mesh":2,"translation":[-0.09430268,1.41224,-1.2283624],"rotation":[-0.0,-1.0,0.0,-4.371139E-08],"name":"Glass Mount Pad_2 Part [8742501]066"},{"mesh":2,"translation":[-0.09430268,1.41224,-1.2124866],"rotation":[-0.0,-1.0,0.0,-4.371139E-08],"name":"Glass Mount Pad_2 Part [8742501]115"},{"mesh":2,"translation":[-0.24670267,1.41224,-1.2283624],"rotation":[-0.0,-1.0,0.0,-4.371139E-08],"name":"Glass Mount Pad_2 Part [8742501]067"},{"mesh":2,"translation":[-0.24670267,1.41224,-1.2124866],"rotation":[-0.0,-1.0,0.0,-4.371139E-08],"name":"Glass Mount Pad_2 Part [8742501]116"},{"mesh":2,"translation":[0.17217408,1.59512,-1.2283624],"rotation":[-0.0,-1.0,0.0,-4.371139E-08],"name":"Glass Mount Pad_2 Part [8742501]068"},{"mesh":2,"translation":[0.17217408,1.59512,-1.2124866],"rotation":[-0.0,-1.0,0.0,-4.371139E-08],"name":"Glass Mount Pad_2 Part [8742501]117"},{"mesh":2,"translation":[0.019774083,1.59512,-1.2283624],"rotation":[-0.0,-1.0,0.0,-4.371139E-08],"name":"Glass Mount Pad_2 Part [8742501]069"},{"mesh":2,"translation":[0.019774083,1.59512,-1.2124866],"rotation":[-0.0,-1.0,0.0,-4.371139E-08],"name":"Glass Mount Pad_2 Part [8742501]118"},{"mesh":2,"translation":[0.43864852,1.7780001,-1.2283624],"rotation":[-0.0,-1.0,0.0,-4.371139E-08],"name":"Glass Mount Pad_2 Part [8742501]070"},{"mesh":2,"translation":[0.43864852,1.7780001,-1.2124866],"rotation":[-0.0,-1.0,0.0,-4.371139E-08],"name":"Glass Mount Pad_2 Part [8742501]119"},{"mesh":2,"translation":[0.2862485,1.7780001,-1.2283624],"rotation":[-0.0,-1.0,0.0,-4.371139E-08],"name":"Glass Mount Pad_2 Part [8742501]071"},{"mesh":2,"translation":[0.2862485,1.7780001,-1.2124866],"rotation":[-0.0,-1.0,0.0,-4.371139E-08],"name":"Glass Mount Pad_2 Part [8742501]120"},{"mesh":2,"translation":[0.70512295,1.96088,-1.2283624],"rotation":[-0.0,-1.0,0.0,-4.371139E-08],"name":"Glass Mount Pad_2 Part [8742501]072"},{"mesh":2,"translation":[0.70512295,1.96088,-1.2124866],"rotation":[-0.0,-1.0,0.0,-4.371139E-08],"name":"Glass Mount Pad_2 Part [8742501]121"},{"mesh":2,"translation":[0.55272293,1.96088,-1.2283624],"rotation":[-0.0,-1.0,0.0,-4.371139E-08],"name":"Glass Mount Pad_2 Part [8742501]073"},{"mesh":2,"translation":[0.55272293,1.96088,-1.2124866],"rotation":[-0.0,-1.0,0.0,-4.371139E-08],"name":"Glass Mount Pad_2 Part [8742501]122"},{"mesh":2,"translation":[0.9715974,2.14376,-1.2283624],"rotation":[-0.0,-1.0,0.0,-4.371139E-08],"name":"Glass Mount Pad_2 Part [8742501]074"},{"mesh":2,"translation":[0.9715974,2.14376,-1.2124866],"rotation":[-0.0,-1.0,0.0,-4.371139E-08],"name":"Glass Mount Pad_2 Part [8742501]123"},{"mesh":2,"translation":[0.8191974,2.14376,-1.2283624],"rotation":[-0.0,-1.0,0.0,-4.371139E-08],"name":"Glass Mount Pad_2 Part [8742501]075"},{"mesh":2,"translation":[0.8191974,2.14376,-1.2124866],"rotation":[-0.0,-1.0,0.0,-4.371139E-08],"name":"Glass Mount Pad_2 Part [8742501]124"},{"mesh":2,"translation":[1.2380742,2.32664,-1.2283624],"rotation":[-0.0,-1.0,0.0,-4.371139E-08],"name":"Glass Mount Pad_2 Part [8742501]076"},{"mesh":2,"translation":[1.2380742,2.32664,-1.2124866],"rotation":[-0.0,-1.0,0.0,-4.371139E-08],"name":"Glass Mount Pad_2 Part [8742501]125"},{"mesh":2,"translation":[1.0856742,2.32664,-1.2283624],"rotation":[-0.0,-1.0,0.0,-4.371139E-08],"name":"Glass Mount Pad_2 Part [8742501]077"},{"mesh":2,"translation":[1.0856742,2.32664,-1.2124866],"rotation":[-0.0,-1.0,0.0,-4.371139E-08],"name":"Glass Mount Pad_2 Part [8742501]126"},{"mesh":2,"translation":[1.5045485,2.50952,-1.2283624],"rotation":[-0.0,-1.0,0.0,-4.371139E-08],"name":"Glass Mount Pad_2 Part [8742501]078"},{"mesh":2,"translation":[1.5045485,2.50952,-1.2124866],"rotation":[-0.0,-1.0,0.0,-4.371139E-08],"name":"Glass Mount Pad_2 Part [8742501]127"},{"mesh":2,"translation":[1.3521485,2.50952,-1.2283624],"rotation":[-0.0,-1.0,0.0,-4.371139E-08],"name":"Glass Mount Pad_2 Part [8742501]079"},{"mesh":2,"translation":[1.3521485,2.50952,-1.2124866],"rotation":[-0.0,-1.0,0.0,-4.371139E-08],"name":"Glass Mount Pad_2 Part [8742501]128"},{"mesh":2,"translation":[-1.0428197,0.8636,-1.2283711],"rotation":[-0.0,-1.0,0.0,-4.371139E-08],"name":"Glass Mount Pad_2 Part [8742501]081"},{"mesh":2,"translation":[-1.0428197,0.8636,-1.2124954],"rotation":[-0.0,-1.0,0.0,-4.371139E-08],"name":"Glass Mount Pad_2 Part [8742501]130"},{"mesh":2,"translation":[-0.8904198,0.8636,-1.2283711],"rotation":[-0.0,-1.0,0.0,-4.371139E-08],"name":"Glass Mount Pad_2 Part [8742501]082"},{"mesh":2,"translation":[-0.8904198,0.8636,-1.2124954],"rotation":[-0.0,-1.0,0.0,-4.371139E-08],"name":"Glass Mount Pad_2 Part [8742501]131"},{"mesh":2,"translation":[-1.3089896,0.68072003,-1.2283711],"rotation":[-0.0,-1.0,0.0,-4.371139E-08],"name":"Glass Mount Pad_2 Part [8742501]083"},{"mesh":2,"translation":[-1.3089896,0.68072003,-1.2124954],"rotation":[-0.0,-1.0,0.0,-4.371139E-08],"name":"Glass Mount Pad_2 Part [8742501]132"},{"mesh":2,"translation":[-1.1565896,0.68072003,-1.2283711],"rotation":[-0.0,-1.0,0.0,-4.371139E-08],"name":"Glass Mount Pad_2 Part [8742501]084"},{"mesh":2,"translation":[-1.1565896,0.68072003,-1.2124954],"rotation":[-0.0,-1.0,0.0,-4.371139E-08],"name":"Glass Mount Pad_2 Part [8742501]133"},{"mesh":2,"translation":[-1.5751617,0.49784002,-1.2283711],"rotation":[-0.0,-1.0,0.0,-4.371139E-08],"name":"Glass Mount Pad_2 Part [8742501]085"},{"mesh":2,"translation":[-1.5751617,0.49784002,-1.2124954],"rotation":[-0.0,-1.0,0.0,-4.371139E-08],"name":"Glass Mount Pad_2 Part [8742501]134"},{"mesh":2,"translation":[-1.4227617,0.49784002,-1.2283711],"rotation":[-0.0,-1.0,0.0,-4.371139E-08],"name":"Glass Mount Pad_2 Part [8742501]086"},{"mesh":2,"translation":[-1.4227617,0.49784002,-1.2124954],"rotation":[-0.0,-1.0,0.0,-4.371139E-08],"name":"Glass Mount Pad_2 Part [8742501]135"},{"mesh":2,"translation":[-1.8413315,0.31496,-1.2283713],"rotation":[-0.0,-1.0,0.0,-4.371139E-08],"name":"Glass Mount Pad_2 Part [8742501]087"},{"mesh":2,"translation":[-1.8413315,0.31496,-1.2124954],"rotation":[-0.0,-1.0,0.0,-4.371139E-08],"name":"Glass Mount Pad_2 Part [8742501]136"},{"mesh":2,"translation":[-1.6889315,0.31496,-1.2283711],"rotation":[-0.0,-1.0,0.0,-4.371139E-08],"name":"Glass Mount Pad_2 Part [8742501]088"},{"mesh":2,"translation":[-1.6889315,0.31496,-1.2124954],"rotation":[-0.0,-1.0,0.0,-4.371139E-08],"name":"Glass Mount Pad_2 Part [8742501]137"},{"mesh":2,"translation":[-2.1075013,0.13208,-1.2283713],"rotation":[-0.0,-1.0,0.0,-4.371139E-08],"name":"Glass Mount Pad_2 Part [8742501]089"},{"mesh":2,"translation":[-2.1075013,0.13208,-1.2124954],"rotation":[-0.0,-1.0,0.0,-4.371139E-08],"name":"Glass Mount Pad_2 Part [8742501]138"},{"mesh":2,"translation":[-1.9551014,0.13208,-1.2283713],"rotation":[-0.0,-1.0,0.0,-4.371139E-08],"name":"Glass Mount Pad_2 Part [8742501]090"},{"mesh":2,"translation":[-1.9551014,0.13208,-1.2124954],"rotation":[-0.0,-1.0,0.0,-4.371139E-08],"name":"Glass Mount Pad_2 Part [8742501]139"},{"mesh":2,"translation":[-1.0428197,0.8636,0.12732974],"rotation":[-0.0,-8.742278E-08,0.0,1.0],"name":"Glass Mount Pad_2 Part [8742501]091"},{"mesh":2,"translation":[-1.0428197,0.8636,0.111453965],"rotation":[-0.0,-8.742278E-08,0.0,1.0],"name":"Glass Mount Pad_2 Part [8742501]140"},{"mesh":2,"translation":[-0.8904198,0.8636,0.12732974],"rotation":[-0.0,-8.742278E-08,0.0,1.0],"name":"Glass Mount Pad_2 Part [8742501]092"},{"mesh":2,"translation":[-0.8904198,0.8636,0.111453965],"rotation":[-0.0,-8.742278E-08,0.0,1.0],"name":"Glass Mount Pad_2 Part [8742501]141"},{"mesh":2,"translation":[-1.3089896,0.68072003,0.12732974],"rotation":[-0.0,-8.742278E-08,0.0,1.0],"name":"Glass Mount Pad_2 Part [8742501]093"},{"mesh":2,"translation":[-1.3089896,0.68072003,0.111453965],"rotation":[-0.0,-8.742278E-08,0.0,1.0],"name":"Glass Mount Pad_2 Part [8742501]142"},{"mesh":2,"translation":[-1.1565896,0.68072003,0.12732974],"rotation":[-0.0,-8.742278E-08,0.0,1.0],"name":"Glass Mount Pad_2 Part [8742501]094"},{"mesh":2,"translation":[-1.1565896,0.68072003,0.111453965],"rotation":[-0.0,-8.742278E-08,0.0,1.0],"name":"Glass Mount Pad_2 Part [8742501]143"},{"mesh":2,"translation":[-1.5751617,0.49784002,0.12732974],"rotation":[-0.0,-8.742278E-08,0.0,1.0],"name":"Glass Mount Pad_2 Part [8742501]095"},{"mesh":2,"translation":[-1.5751617,0.49784002,0.111453965],"rotation":[-0.0,-8.742278E-08,0.0,1.0],"name":"Glass Mount Pad_2 Part [8742501]144"},{"mesh":2,"translation":[-1.4227617,0.49784002,0.12732974],"rotation":[-0.0,-8.742278E-08,0.0,1.0],"name":"Glass Mount Pad_2 Part [8742501]096"},{"mesh":2,"translation":[-1.4227617,0.49784002,0.111453965],"rotation":[-0.0,-8.742278E-08,0.0,1.0],"name":"Glass Mount Pad_2 Part [8742501]145"},{"mesh":2,"translation":[-1.8413315,0.31496,0.12732974],"rotation":[-0.0,-8.742278E-08,0.0,1.0],"name":"Glass Mount Pad_2 Part [8742501]097"},{"mesh":2,"translation":[-1.8413315,0.31496,0.111453965],"rotation":[-0.0,-8.742278E-08,0.0,1.0],"name":"Glass Mount Pad_2 Part [8742501]146"},{"mesh":2,"translation":[-1.6889315,0.31496,0.12732974],"rotation":[-0.0,-8.742278E-08,0.0,1.0],"name":"Glass Mount Pad_2 Part [8742501]098"},{"mesh":2,"translation":[-1.6889315,0.31496,0.111453965],"rotation":[-0.0,-8.742278E-08,0.0,1.0],"name":"Glass Mount Pad_2 Part [8742501]147"},{"mesh":2,"translation":[-2.1075013,0.13208,0.12732974],"rotation":[-0.0,-8.742278E-08,0.0,1.0],"name":"Glass Mount Pad_2 Part [8742501]099"},{"mesh":2,"translation":[-2.1075013,0.13208,0.111453965],"rotation":[-0.0,-8.742278E-08,0.0,1.0],"name":"Glass Mount Pad_2 Part [8742501]148"},{"mesh":2,"translation":[-1.9551014,0.13208,0.12732974],"rotation":[-0.0,-8.742278E-08,0.0,1.0],"name":"Glass Mount Pad_2 Part [8742501]100"},{"mesh":2,"translation":[-1.9551014,0.13208,0.111453965],"rotation":[-0.0,-8.742278E-08,0.0,1.0],"name":"Glass Mount Pad_2 Part [8742501]149"},{"mesh":2,"translation":[-0.3580777,1.22936,-1.228371],"rotation":[-0.0,-1.0,0.0,-4.371139E-08],"name":"Glass Mount Pad_2 Part [8742501]150"},{"mesh":2,"translation":[-0.3580777,1.22936,-1.2124952],"rotation":[-0.0,-1.0,0.0,-4.371139E-08],"name":"Glass Mount Pad_2 Part [8742501]151"},{"mesh":2,"translation":[-0.3580777,1.22936,0.12732986],"rotation":[-0.0,-8.742278E-08,0.0,1.0],"name":"Glass Mount Pad_2 Part [8742501]152"},{"mesh":2,"translation":[-0.3580777,1.22936,0.111454085],"rotation":[-0.0,-8.742278E-08,0.0,1.0],"name":"Glass Mount Pad_2 Part [8742501]153"},{"mesh":2,"translation":[-0.5104777,1.22936,-1.228371],"rotation":[-0.0,-1.0,0.0,-4.371139E-08],"name":"Glass Mount Pad_2 Part [8742501]154"},{"mesh":2,"translation":[-0.5104777,1.22936,-1.2124952],"rotation":[-0.0,-1.0,0.0,-4.371139E-08],"name":"Glass Mount Pad_2 Part [8742501]155"},{"mesh":2,"translation":[-0.5104777,1.22936,0.12732986],"rotation":[-0.0,-8.742278E-08,0.0,1.0],"name":"Glass Mount Pad_2 Part [8742501]156"},{"mesh":2,"translation":[-0.5104777,1.22936,0.111454085],"rotation":[-0.0,-8.742278E-08,0.0,1.0],"name":"Glass Mount Pad_2 Part [8742501]157"},{"mesh":2,"translation":[-0.77914214,1.0464807,-1.2283711],"rotation":[-0.0,-1.0,0.0,-4.371139E-08],"name":"Glass Mount Pad_2 Part [8742501]158"},{"mesh":2,"translation":[-0.6267421,1.0464807,-1.2283711],"rotation":[-0.0,-1.0,0.0,-4.371139E-08],"name":"Glass Mount Pad_2 Part [8742501]159"},{"mesh":2,"translation":[-0.77914214,1.0464807,0.12732974],"rotation":[-0.0,-8.742278E-08,0.0,1.0],"name":"Glass Mount Pad_2 Part [8742501]160"},{"mesh":2,"translation":[-0.6267421,1.0464807,0.12732974],"rotation":[-0.0,-8.742278E-08,0.0,1.0],"name":"Glass Mount Pad_2 Part [8742501]161"},{"mesh":2,"translation":[-0.77914214,1.0464807,-1.2124954],"rotation":[-0.0,-1.0,0.0,-4.371139E-08],"name":"Glass Mount Pad_2 Part [8742501]162"},{"mesh":2,"translation":[-0.6267421,1.0464807,-1.2124954],"rotation":[-0.0,-1.0,0.0,-4.371139E-08],"name":"Glass Mount Pad_2 Part [8742501]163"},{"mesh":2,"translation":[-0.77914214,1.0464807,0.111453965],"rotation":[-0.0,-8.742278E-08,0.0,1.0],"name":"Glass Mount Pad_2 Part [8742501]164"},{"mesh":2,"translation":[-0.6267421,1.0464807,0.111453965],"rotation":[-0.0,-8.742278E-08,0.0,1.0],"name":"Glass Mount Pad_2 Part [8742501]165"},{"mesh":2,"translation":[-0.24670264,1.41224,0.12733859],"rotation":[-4.371139E-08,4.371139E-08,1.0,1.9106855E-15],"name":"Glass Mount Pad_2 Part [8742501]166"},{"mesh":2,"translation":[-0.24670264,1.41224,0.11146282],"rotation":[-4.371139E-08,4.371139E-08,1.0,1.9106855E-15],"name":"Glass Mount Pad_2 Part [8742501]167"},{"mesh":3,"translation":[-0.29534957,2.376288,0.118619725],"name":"Generic Models 11 Generic Models 11 [8762451]002"},{"mesh":3,"translation":[-0.29534957,2.376288,-1.2196232],"name":"Generic Models 11 Generic Models 11 [8762451]006"},{"mesh":4,"translation":[-0.2999639,0.0,0.118600324],"name":"Box006"},{"mesh":4,"translation":[-0.2999639,0.0,-1.2196425],"name":"Box007"}],"meshes":[{"primitives":[{"attributes":{"POSITION":1,"TANGENT":2,"NORMAL":3,"TEXCOORD_0":4},"indices":0,"material":0},{"attributes":{"POSITION":6,"TANGENT":7,"NORMAL":8,"TEXCOORD_0":9},"indices":5,"material":1}],"name":"Boss_046"},{"primitives":[{"attributes":{"POSITION":11,"TANGENT":12,"NORMAL":13,"TEXCOORD_0":14},"indices":10,"material":0},{"attributes":{"POSITION":16,"TANGENT":17,"NORMAL":18,"TEXCOORD_0":19},"indices":15,"material":1}],"name":"Glass Mount Clamp Part [8742498]027"},{"primitives":[{"attributes":{"POSITION":21,"TANGENT":22,"NORMAL":23,"TEXCOORD_0":24},"indices":20,"material":2}],"name":"Glass Mount Pad_2 Part [8742501]053"},{"primitives":[{"attributes":{"POSITION":26,"TANGENT":27,"NORMAL":28,"TEXCOORD_0":29},"indices":25,"material":0},{"attributes":{"POSITION":31,"TANGENT":32,"NORMAL":33,"TEXCOORD_0":34},"indices":30,"material":1}],"name":"Generic Models 11 Generic Models 11 [8762451]002"},{"primitives":[{"attributes":{"POSITION":36,"TANGENT":37,"NORMAL":38,"TEXCOORD_0":39},"indices":35,"material":3}],"name":"Box006"}],"accessors":[{"bufferView":0,"componentType":5123,"count":480,"type":"SCALAR","name":"accessorIndices"},{"bufferView":1,"componentType":5126,"count":162,"max":[0.025400002,0.025400002,0.050800003],"min":[-0.025400002,-0.025400002,2.5017023E-14],"type":"VEC3","name":"accessorPositions"},{"bufferView":2,"componentType":5126,"count":162,"type":"VEC4","name":"accessorTangents"},{"bufferView":1,"byteOffset":1944,"componentType":5126,"count":162,"type":"VEC3","name":"accessorNormals"},{"bufferView":3,"componentType":5126,"count":162,"type":"VEC2","name":"accessorUVs"},{"bufferView":0,"byteOffset":960,"componentType":5123,"count":468,"type":"SCALAR","name":"accessorIndices"},{"bufferView":1,"byteOffset":3888,"componentType":5126,"count":160,"max":[0.025400002,0.025400002,0.050800003],"min":[-0.025400002,-0.025400002,2.5017023E-14],"type":"VEC3","name":"accessorPositions"},{"bufferView":2,"byteOffset":2592,"componentType":5126,"count":160,"type":"VEC4","name":"accessorTangents"},{"bufferView":1,"byteOffset":5808,"componentType":5126,"count":160,"type":"VEC3","name":"accessorNormals"},{"bufferView":3,"byteOffset":1296,"componentType":5126,"count":160,"type":"VEC2","name":"accessorUVs"},{"bufferView":0,"byteOffset":1896,"componentType":5123,"count":906,"type":"SCALAR","name":"accessorIndices"},{"bufferView":1,"byteOffset":7728,"componentType":5126,"count":308,"max":[0.025400002,0.025400002,0.009652],"min":[-0.025400002,-0.025400002,-0.04100215],"type":"VEC3","name":"accessorPositions"},{"bufferView":2,"byteOffset":5152,"componentType":5126,"count":308,"type":"VEC4","name":"accessorTangents"},{"bufferView":1,"byteOffset":11424,"componentType":5126,"count":308,"type":"VEC3","name":"accessorNormals"},{"bufferView":3,"byteOffset":2576,"componentType":5126,"count":308,"type":"VEC2","name":"accessorUVs"},{"bufferView":0,"byteOffset":3708,"componentType":5123,"count":624,"type":"SCALAR","name":"accessorIndices"},{"bufferView":1,"byteOffset":15120,"componentType":5126,"count":209,"max":[0.025400002,0.025400002,0.009652],"min":[-0.025400002,-0.025400002,2.514644E-14],"type":"VEC3","name":"accessorPositions"},{"bufferView":2,"byteOffset":10080,"componentType":5126,"count":209,"type":"VEC4","name":"accessorTangents"},{"bufferView":1,"byteOffset":17628,"componentType":5126,"count":209,"type":"VEC3","name":"accessorNormals"},{"bufferView":3,"byteOffset":5040,"componentType":5126,"count":209,"type":"VEC2","name":"accessorUVs"},{"bufferView":0,"byteOffset":4956,"componentType":5123,"count":2016,"type":"SCALAR","name":"accessorIndices"},{"bufferView":1,"byteOffset":20136,"componentType":5126,"count":680,"max":[0.0198374,0.0198374,2.5304686E-14],"min":[-0.0198374,-0.0198374,-0.0015748],"type":"VEC3","name":"accessorPositions"},{"bufferView":2,"byteOffset":13424,"componentType":5126,"count":680,"type":"VEC4","name":"accessorTangents"},{"bufferView":1,"byteOffset":28296,"componentType":5126,"count":680,"type":"VEC3","name":"accessorNormals"},{"bufferView":3,"byteOffset":6712,"componentType":5126,"count":680,"type":"VEC2","name":"accessorUVs"},{"bufferView":0,"byteOffset":8988,"componentType":5123,"count":4080,"type":"SCALAR","name":"accessorIndices"},{"bufferView":1,"byteOffset":36456,"componentType":5126,"count":1526,"max":[1.8968263,1.3227077,0.019062791],"min":[-1.8968263,-1.3227078,-0.019062791],"type":"VEC3","name":"accessorPositions"},{"bufferView":2,"byteOffset":24304,"componentType":5126,"count":1526,"type":"VEC4","name":"accessorTangents"},{"bufferView":1,"byteOffset":54768,"componentType":5126,"count":1526,"type":"VEC3","name":"accessorNormals"},{"bufferView":3,"byteOffset":12152,"componentType":5126,"count":1526,"type":"VEC2","name":"accessorUVs"},{"bufferView":0,"byteOffset":17148,"componentType":5123,"count":738,"type":"SCALAR","name":"accessorIndices"},{"bufferView":1,"byteOffset":73080,"componentType":5126,"count":252,"max":[1.8968263,1.3227077,0.019062791],"min":[-1.8968263,-1.3227075,-0.019062791],"type":"VEC3","name":"accessorPositions"},{"bufferView":2,"byteOffset":48720,"componentType":5126,"count":252,"type":"VEC4","name":"accessorTangents"},{"bufferView":1,"byteOffset":76104,"componentType":5126,"count":252,"type":"VEC3","name":"accessorNormals"},{"bufferView":3,"byteOffset":24360,"componentType":5126,"count":252,"type":"VEC2","name":"accessorUVs"},{"bufferView":0,"byteOffset":18624,"componentType":5123,"count":696,"type":"SCALAR","name":"accessorIndices"},{"bufferView":1,"byteOffset":79128,"componentType":5126,"count":472,"max":[1.8935392,3.6851308,0.007143598],"min":[-1.8863822,0.0,-0.007143598],"type":"VEC3","name":"accessorPositions"},{"bufferView":2,"byteOffset":52752,"componentType":5126,"count":472,"type":"VEC4","name":"accessorTangents"},{"bufferView":1,"byteOffset":84792,"componentType":5126,"count":472,"type":"VEC3","name":"accessorNormals"},{"bufferView":3,"byteOffset":26376,"componentType":5126,"count":472,"type":"VEC2","name":"accessorUVs"}],"bufferViews":[{"buffer":0,"byteLength":20016,"name":"bufferViewScalar"},{"buffer":0,"byteOffset":20016,"byteLength":90456,"byteStride":12,"name":"bufferViewFloatVec3"},{"buffer":0,"byteOffset":110472,"byteLength":60304,"byteStride":16,"name":"bufferViewFloatVec4"},{"buffer":0,"byteOffset":170776,"byteLength":30152,"byteStride":8,"name":"bufferViewFloatVec2"}],"buffers":[{"uri":"Straight_Railing_Optik-Boss.bin","byteLength":200928}],"materials":[{"pbrMetallicRoughness":{"baseColorFactor":[0.9999998,0.9999999,0.9999999,1.0],"baseColorTexture":{"index":0,"extensions":{"KHR_texture_transform":{"offset":[0.19519997,0.8048],"rotation":1.5707964,"scale":[0.6096,0.6096],"texCoord":0}}},"roughnessFactor":0.2,"metallicRoughnessTexture":{"index":0,"extensions":{"KHR_texture_transform":{"offset":[0.19519997,0.8048],"rotation":1.5707964,"scale":[0.6096,0.6096],"texCoord":0}}}},"name":"Steel_Linear"},{"pbrMetallicRoughness":{"baseColorFactor":[0.9999998,0.9999999,0.9999999,1.0],"baseColorTexture":{"index":1},"roughnessFactor":0.2,"metallicRoughnessTexture":{"index":1}},"name":"Steel_Radial"},{"pbrMetallicRoughness":{"baseColorFactor":[0.10641303,0.10641304,0.10641304,1.0],"metallicFactor":0.0,"roughnessFactor":0.99,"metallicRoughnessTexture":{"index":2}},"name":"Rubber","extensions":{"KHR_materials_specular":{"specularFactor":0.1}}},{"pbrMetallicRoughness":{"baseColorFactor":[0.9999998,0.9999999,0.9999999,1.0],"metallicFactor":0.0,"roughnessFactor":0.1},"name":"Glass","extensions":{"KHR_materials_ior":{"ior":1.0},"KHR_materials_transmission":{"transmissionFactor":0.97},"KHR_materials_volume":{"thicknessFactor":0.56,"attenuationDistance":0.5,"attenuationColor":[0.49521634,0.56476736,0.5317566]}}}],"textures":[{"sampler":0,"source":0,"name":"Metal_Brushed_Linear_4k.jpg"},{"sampler":0,"source":1,"name":"Metal_Brushed_Radial_4k.jpg"},{"sampler":0,"source":2,"name":"PowderCoat_Roughness_2k0.jpg"}],"images":[{"uri":"textures/Metal_Brushed_Linear_4k.jpg"},{"uri":"textures/Metal_Brushed_Radial_4k.jpg"},{"uri":"textures/PowderCoat_Roughness_2k0.jpg"}],"samplers":[{"magFilter":9729,"minFilter":9987}]}