{"asset":{"version":"2.0","generator":"babylon.js glTF exporter for 3dsmax 2026 v20251111.2"},"extensionsUsed":["KHR_texture_transform"],"extensionsRequired":["KHR_texture_transform"],"scene":0,"scenes":[{"nodes":[0,1,2,3,4,5,6,7,8,9,10,11,12,13,14,15,16,17,18,19,20,21,22,23,24,25,26,27,28,29,30,31,32,33,34,35,36,37,38,39,40,41,42,43,44,45,46,47,48,49,50,51,52,53,54,55,56,57,58,59,60,61,62,63,64,65,66,67,68,69,70,71,72,73,74,75,76,77,78,79,80,81,82,83,84,85,86,87,88,89,90,91,92,93,94,95,96,97,98,99,100,101,102,103,104,105,106,107,108,109,110,111,112,113,114,115,116,117,118,119,120,121,122,123,124,125,126]}],"nodes":[{"mesh":0,"translation":[-2.1690593,1.0815789,-0.023504008],"rotation":[-0.6753157,-0.2096399,0.20963977,0.6753155],"name":"CIR024 - Handrail End Cap Part [8482091]003"},{"mesh":0,"translation":[1.5596397,3.6416814,-0.023503508],"rotation":[-0.20945993,0.67537135,0.67537147,-0.20945992],"name":"CIR024 - Handrail End Cap Part [8482091]002"},{"mesh":0,"translation":[1.5596397,3.6416814,-1.077678],"rotation":[-0.20945993,0.67537135,0.67537147,-0.20945992],"name":"CIR024 - Handrail End Cap Part [8482091]008"},{"mesh":0,"translation":[-2.1690593,1.0815789,-1.0776784],"rotation":[-0.6753157,-0.2096399,0.20963977,0.6753155],"name":"CIR024 - Handrail End Cap Part [8482091]009"},{"mesh":1,"translation":[-0.24874829,2.3998632,-0.023503654],"rotation":[-0.0,-0.0,-0.46584624,0.8848657],"name":"CIR061 - 1 1l2 Rail-To-Rail Connector Part [8719260]004"},{"mesh":1,"translation":[-0.24874829,2.3998632,-1.0776781],"rotation":[-0.0,-0.0,-0.46584624,0.8848657],"name":"CIR061 - 1 1l2 Rail-To-Rail Connector Part [8719260]005"},{"mesh":2,"translation":[-1.252371,1.2041348,-0.023504008],"rotation":[-0.0,-1.0,0.0,-4.371139E-08],"name":"Nested_Cable_Single Cable Assembly Generic [8580909]015"},{"mesh":2,"translation":[-1.252371,1.0812678,-0.023504008],"rotation":[-0.0,-1.0,0.0,-4.371139E-08],"name":"Nested_Cable_Single Cable Assembly Generic [8580909]016"},{"mesh":2,"translation":[-1.252371,0.9584009,-0.023504008],"rotation":[-0.0,-1.0,0.0,-4.371139E-08],"name":"Nested_Cable_Single Cable Assembly Generic [8580909]017"},{"mesh":2,"translation":[-1.252371,0.8355339,-0.023504008],"rotation":[-0.0,-1.0,0.0,-4.371139E-08],"name":"Nested_Cable_Single Cable Assembly Generic [8580909]018"},{"mesh":2,"translation":[-1.252371,1.5727357,-0.023504008],"rotation":[-0.0,-1.0,0.0,-4.371139E-08],"name":"Nested_Cable_Single Cable Assembly Generic [8580909]019"},{"mesh":2,"translation":[-1.252371,1.4498687,-0.023504008],"rotation":[-0.0,-1.0,0.0,-4.371139E-08],"name":"Nested_Cable_Single Cable Assembly Generic [8580909]020"},{"mesh":2,"translation":[-1.252371,1.3270017,-0.023504008],"rotation":[-0.0,-1.0,0.0,-4.371139E-08],"name":"Nested_Cable_Single Cable Assembly Generic [8580909]021"},{"mesh":2,"translation":[-1.252371,1.2041348,-1.0776048],"rotation":[-0.0,-1.0,0.0,-4.371139E-08],"name":"Nested_Cable_Single Cable Assembly Generic [8580909]022"},{"mesh":2,"translation":[-1.252371,1.0812678,-1.0776048],"rotation":[-0.0,-1.0,0.0,-4.371139E-08],"name":"Nested_Cable_Single Cable Assembly Generic [8580909]023"},{"mesh":2,"translation":[-1.252371,0.9584009,-1.0776048],"rotation":[-0.0,-1.0,0.0,-4.371139E-08],"name":"Nested_Cable_Single Cable Assembly Generic [8580909]024"},{"mesh":2,"translation":[-1.252371,0.8355339,-1.0776048],"rotation":[-0.0,-1.0,0.0,-4.371139E-08],"name":"Nested_Cable_Single Cable Assembly Generic [8580909]025"},{"mesh":2,"translation":[-1.252371,1.5727357,-1.0776048],"rotation":[-0.0,-1.0,0.0,-4.371139E-08],"name":"Nested_Cable_Single Cable Assembly Generic [8580909]026"},{"mesh":2,"translation":[-1.252371,1.4498687,-1.0776048],"rotation":[-0.0,-1.0,0.0,-4.371139E-08],"name":"Nested_Cable_Single Cable Assembly Generic [8580909]027"},{"mesh":2,"translation":[-1.252371,1.3270017,-1.0776048],"rotation":[-0.0,-1.0,0.0,-4.371139E-08],"name":"Nested_Cable_Single Cable Assembly Generic [8580909]028"},{"mesh":3,"translation":[-0.54208523,1.3235159,-0.023503717],"rotation":[0.6753194,0.20962757,0.20962769,0.6753194],"name":"KOT010 - Right-Hand Threaded End Stop Part [8137739]004"},{"mesh":3,"translation":[1.4247983,3.2875881,-0.023573343],"rotation":[0.67537427,0.20945083,0.20945083,0.67537427],"scale":[0.99999994,1.0,0.99999994],"name":"KOT010 - Right-Hand Threaded End Stop Part [8137739]008"},{"mesh":3,"translation":[1.4247983,3.1647103,-0.023573343],"rotation":[0.67537427,0.20945083,0.20945083,0.67537427],"scale":[0.99999994,1.0,0.99999994],"name":"KOT010 - Right-Hand Threaded End Stop Part [8137739]009"},{"mesh":3,"translation":[1.4247983,3.0418327,-0.023573343],"rotation":[0.67537427,0.20945083,0.20945083,0.67537427],"scale":[0.99999994,1.0,0.99999994],"name":"KOT010 - Right-Hand Threaded End Stop Part [8137739]010"},{"mesh":3,"translation":[1.4247983,2.918955,-0.023573343],"rotation":[0.67537427,0.20945083,0.20945083,0.67537427],"scale":[0.99999994,1.0,0.99999994],"name":"KOT010 - Right-Hand Threaded End Stop Part [8137739]011"},{"mesh":3,"translation":[1.4247983,2.7960773,-0.023573343],"rotation":[0.67537427,0.20945083,0.20945083,0.67537427],"scale":[0.99999994,1.0,0.99999994],"name":"KOT010 - Right-Hand Threaded End Stop Part [8137739]012"},{"mesh":3,"translation":[1.4247983,2.6731997,-0.023573343],"rotation":[0.67537427,0.20945083,0.20945083,0.67537427],"scale":[0.99999994,1.0,0.99999994],"name":"KOT010 - Right-Hand Threaded End Stop Part [8137739]013"},{"mesh":3,"translation":[1.4247983,3.4104657,-0.023573343],"rotation":[0.67537427,0.20945083,0.20945083,0.67537427],"scale":[0.99999994,1.0,0.99999994],"name":"KOT010 - Right-Hand Threaded End Stop Part [8137739]014"},{"mesh":3,"translation":[1.4247983,3.2875881,-1.077674],"rotation":[-0.6753743,-0.20945084,0.2094508,0.6753742],"scale":[0.99999994,1.0,0.99999994],"name":"KOT010 - Right-Hand Threaded End Stop Part [8137739]015"},{"mesh":3,"translation":[1.4247983,3.1647103,-1.077674],"rotation":[-0.6753743,-0.20945084,0.2094508,0.6753742],"scale":[0.99999994,1.0,0.99999994],"name":"KOT010 - Right-Hand Threaded End Stop Part [8137739]016"},{"mesh":3,"translation":[1.4247983,3.0418327,-1.077674],"rotation":[-0.6753743,-0.20945084,0.2094508,0.6753742],"scale":[0.99999994,1.0,0.99999994],"name":"KOT010 - Right-Hand Threaded End Stop Part [8137739]017"},{"mesh":3,"translation":[1.4247983,2.918955,-1.077674],"rotation":[-0.6753743,-0.20945084,0.2094508,0.6753742],"scale":[0.99999994,1.0,0.99999994],"name":"KOT010 - Right-Hand Threaded End Stop Part [8137739]018"},{"mesh":3,"translation":[1.4247983,2.7960773,-1.077674],"rotation":[-0.6753743,-0.20945084,0.2094508,0.6753742],"scale":[0.99999994,1.0,0.99999994],"name":"KOT010 - Right-Hand Threaded End Stop Part [8137739]019"},{"mesh":3,"translation":[1.4247983,2.6731997,-1.077674],"rotation":[-0.6753743,-0.20945084,0.2094508,0.6753742],"scale":[0.99999994,1.0,0.99999994],"name":"KOT010 - Right-Hand Threaded End Stop Part [8137739]020"},{"mesh":3,"translation":[1.4247983,3.4104657,-1.077674],"rotation":[-0.6753743,-0.20945084,0.2094508,0.6753742],"scale":[0.99999994,1.0,0.99999994],"name":"KOT010 - Right-Hand Threaded End Stop Part [8137739]021"},{"mesh":4,"translation":[-2.0163305,0.6792747,-0.023503717],"rotation":[-0.20962763,0.6753194,0.6753195,-0.20962761],"name":"KOT012 - Turnbuckle Part [8655227]002"},{"mesh":4,"translation":[-2.0163305,0.55640775,-0.023503717],"rotation":[-0.20962763,0.6753194,0.6753195,-0.20962761],"name":"KOT012 - Turnbuckle Part [8655227]003"},{"mesh":4,"translation":[-2.0163305,0.43354076,-0.023503717],"rotation":[-0.20962763,0.6753194,0.6753195,-0.20962761],"name":"KOT012 - Turnbuckle Part [8655227]004"},{"mesh":4,"translation":[-2.0163305,0.3106738,-0.023503717],"rotation":[-0.20962763,0.6753194,0.6753195,-0.20962761],"name":"KOT012 - Turnbuckle Part [8655227]005"},{"mesh":4,"translation":[-2.0163305,1.0478755,-0.023503717],"rotation":[-0.20962763,0.6753194,0.6753195,-0.20962761],"name":"KOT012 - Turnbuckle Part [8655227]006"},{"mesh":4,"translation":[-2.0163305,0.9250086,-0.023503717],"rotation":[-0.20962763,0.6753194,0.6753195,-0.20962761],"name":"KOT012 - Turnbuckle Part [8655227]007"},{"mesh":4,"translation":[-2.0163305,0.8021416,-0.023503717],"rotation":[-0.20962763,0.6753194,0.6753195,-0.20962761],"name":"KOT012 - Turnbuckle Part [8655227]008"},{"mesh":4,"translation":[-2.0163305,0.6792747,-1.0776045],"rotation":[0.20962758,-0.6753193,0.67531943,-0.20962764],"name":"KOT012 - Turnbuckle Part [8655227]023"},{"mesh":4,"translation":[-2.0163305,0.55640775,-1.0776045],"rotation":[0.20962758,-0.6753193,0.67531943,-0.20962764],"name":"KOT012 - Turnbuckle Part [8655227]024"},{"mesh":4,"translation":[-2.0163305,0.43354076,-1.0776045],"rotation":[0.20962758,-0.6753193,0.67531943,-0.20962764],"name":"KOT012 - Turnbuckle Part [8655227]025"},{"mesh":4,"translation":[-2.0163305,0.3106738,-1.0776045],"rotation":[0.20962758,-0.6753193,0.67531943,-0.20962764],"name":"KOT012 - Turnbuckle Part [8655227]026"},{"mesh":4,"translation":[-2.0163305,1.0478755,-1.0776045],"rotation":[0.20962758,-0.6753193,0.67531943,-0.20962764],"name":"KOT012 - Turnbuckle Part [8655227]027"},{"mesh":4,"translation":[-2.0163305,0.9250086,-1.0776045],"rotation":[0.20962758,-0.6753193,0.67531943,-0.20962764],"name":"KOT012 - Turnbuckle Part [8655227]028"},{"mesh":4,"translation":[-2.0163305,0.8021416,-1.0776045],"rotation":[0.20962758,-0.6753193,0.67531943,-0.20962764],"name":"KOT012 - Turnbuckle Part [8655227]029"},{"mesh":5,"translation":[0.59319985,2.7168994,-0.02357298],"name":"Nested_Cable_Single Cable Assembly Generic [8145014]012"},{"mesh":5,"translation":[0.59319985,2.5940216,-0.02357298],"name":"Nested_Cable_Single Cable Assembly Generic [8145014]007"},{"mesh":5,"translation":[0.59319985,2.471144,-0.02357298],"name":"Nested_Cable_Single Cable Assembly Generic [8145014]008"},{"mesh":5,"translation":[0.59319985,2.3482664,-0.02357298],"name":"Nested_Cable_Single Cable Assembly Generic [8145014]009"},{"mesh":5,"translation":[0.59319985,2.2253885,-0.02357298],"name":"Nested_Cable_Single Cable Assembly Generic [8145014]010"},{"mesh":5,"translation":[0.59319985,2.102511,-0.02357298],"name":"Nested_Cable_Single Cable Assembly Generic [8145014]011"},{"mesh":5,"translation":[0.59319985,2.839777,-0.02357298],"name":"Nested_Cable_Single Cable Assembly Generic [8145014]"},{"mesh":5,"translation":[0.54239947,2.6820376,-1.0776738],"name":"Nested_Cable_Single Cable Assembly Generic [8579311]006"},{"mesh":5,"translation":[0.54239947,2.5591598,-1.0776738],"name":"Nested_Cable_Single Cable Assembly Generic [8579311]001"},{"mesh":5,"translation":[0.54239947,2.4362822,-1.0776738],"name":"Nested_Cable_Single Cable Assembly Generic [8579311]002"},{"mesh":5,"translation":[0.54239947,2.3134046,-1.0776738],"name":"Nested_Cable_Single Cable Assembly Generic [8579311]003"},{"mesh":5,"translation":[0.54239947,2.1905267,-1.0776738],"name":"Nested_Cable_Single Cable Assembly Generic [8579311]004"},{"mesh":5,"translation":[0.54239947,2.0676491,-1.0776738],"name":"Nested_Cable_Single Cable Assembly Generic [8579311]005"},{"mesh":5,"translation":[0.54239947,2.8049152,-1.0776738],"name":"Nested_Cable_Single Cable Assembly Generic [8579311]"},{"mesh":6,"translation":[-1.501454,1.4371371,-0.023503717],"rotation":[-0.0,-0.7071068,0.0,0.7071067],"name":"CCR022 & CCR122 - Cable Center Toprail Post Cap Part [8467834]057"},{"mesh":6,"translation":[-2.097295,1.0282598,-0.023503717],"rotation":[-0.0,-0.7071068,0.0,0.7071067],"name":"CCR022 & CCR122 - Cable Center Toprail Post Cap Part [8467834]056"},{"mesh":6,"translation":[1.4666189,3.4752684,-0.023573343],"rotation":[-0.0,-0.7071068,0.0,0.7071067],"name":"CCR022 & CCR122 - Cable Center Toprail Post Cap Part [8467834]055"},{"mesh":6,"translation":[0.8957932,3.0835495,-0.023573343],"rotation":[-0.0,-0.7071068,0.0,0.7071067],"name":"CCR022 & CCR122 - Cable Center Toprail Post Cap Part [8467834]054"},{"mesh":6,"translation":[0.09636759,2.5349095,-0.023573343],"rotation":[-0.0,-0.7071068,0.0,0.7071067],"name":"CCR022 & CCR122 - Cable Center Toprail Post Cap Part [8467834]051"},{"mesh":6,"translation":[1.4666189,3.4752684,-1.077674],"rotation":[-0.0,0.7071068,0.0,0.7071067],"name":"CCR022 & CCR122 - Cable Center Toprail Post Cap Part [8467834]050"},{"mesh":6,"translation":[0.8957932,3.0835495,-1.077674],"rotation":[-0.0,0.7071068,0.0,0.7071067],"name":"CCR022 & CCR122 - Cable Center Toprail Post Cap Part [8467834]049"},{"mesh":6,"translation":[0.09636759,2.5349095,-1.077674],"rotation":[-0.0,0.7071068,0.0,0.7071067],"name":"CCR022 & CCR122 - Cable Center Toprail Post Cap Part [8467834]047"},{"mesh":6,"translation":[-1.501454,1.4371371,-1.0776045],"rotation":[-0.0,0.7071066,0.0,0.70710695],"name":"CCR022 & CCR122 - Cable Center Toprail Post Cap Part [8467834]041"},{"mesh":6,"translation":[-2.097295,1.0282598,-1.0776045],"rotation":[-0.0,0.7071066,0.0,0.70710695],"name":"CCR022 & CCR122 - Cable Center Toprail Post Cap Part [8467834]040"},{"mesh":6,"translation":[-0.7029424,1.9861104,-1.0776045],"rotation":[-0.0,0.7071066,0.0,0.70710695],"name":"CCR022 & CCR122 - Cable Center Toprail Post Cap Part [8467834]058"},{"mesh":6,"translation":[-0.7029424,1.9861104,-0.023503717],"rotation":[-0.0,-0.7071068,0.0,0.7071067],"name":"CCR022 & CCR122 - Cable Center Toprail Post Cap Part [8467834]059"},{"mesh":7,"translation":[-1.5014552,0.9926669,-0.023504008],"rotation":[-0.0,-1.0,0.0,-4.371139E-08],"name":"Custom - Koto Round Post Material LS Material [8467835]001"},{"mesh":7,"translation":[-1.5014552,0.9926669,-1.0776048],"rotation":[-0.0,-1.0,0.0,-4.371139E-08],"name":"Custom - Koto Round Post Material LS Material [8467835]002"},{"mesh":7,"translation":[-0.7029435,1.5416402,-0.023504008],"rotation":[-0.0,-1.0,0.0,-4.371139E-08],"name":"Custom - Koto Round Post Material LS Material [8467835]003"},{"mesh":7,"translation":[-0.7029435,1.5416402,-1.0776048],"rotation":[-0.0,-1.0,0.0,-4.371139E-08],"name":"Custom - Koto Round Post Material LS Material [8467835]004"},{"mesh":8,"translation":[-2.0972962,0.6055699,-0.023504008],"rotation":[-0.0,-1.0,0.0,-4.371139E-08],"name":"Custom - Koto Round Post Material LS Material [8467844]"},{"mesh":9,"translation":[1.4666198,3.0177944,-0.02357298],"name":"Custom - Koto Round Post Material LS Material [8467853]"},{"mesh":9,"translation":[1.4666198,3.0177944,-1.0776738],"name":"Custom - Koto Round Post Material LS Material [8467853]001"},{"mesh":10,"translation":[0.89579415,2.6390545,-0.02357298],"name":"Custom - Koto Round Post Material LS Material [8579826]002"},{"mesh":10,"translation":[0.09636854,2.0904148,-0.02357298],"name":"Custom - Koto Round Post Material LS Material [8579826]003"},{"mesh":10,"translation":[0.89579415,2.6390545,-1.0776738],"name":"Custom - Koto Round Post Material LS Material [8579826]001"},{"mesh":10,"translation":[0.09636854,2.0904148,-1.0776738],"name":"Custom - Koto Round Post Material LS Material [8579826]"},{"mesh":11,"translation":[-1.501454,0.5481965,-0.023503717],"rotation":[-0.0,-0.7071068,0.0,0.7071067],"name":"CSQ001-US - Surface Mount Weldment Part [8723797]220"},{"mesh":11,"translation":[-2.097295,0.18288001,-0.023503717],"rotation":[-0.0,-0.7071068,0.0,0.7071067],"name":"CSQ001-US - Surface Mount Weldment Part [8723797]221"},{"mesh":11,"translation":[1.4666189,2.56032,-0.023573343],"rotation":[-0.0,-0.7071068,0.0,0.7071067],"name":"CSQ001-US - Surface Mount Weldment Part [8723797]222"},{"mesh":11,"translation":[0.8957932,2.19456,-0.023573343],"rotation":[-0.0,-0.7071068,0.0,0.7071067],"name":"CSQ001-US - Surface Mount Weldment Part [8723797]223"},{"mesh":11,"translation":[0.09636759,1.64592,-0.023573343],"rotation":[-0.0,-0.7071068,0.0,0.7071067],"name":"CSQ001-US - Surface Mount Weldment Part [8723797]225"},{"mesh":11,"translation":[1.4666189,2.56032,-1.077674],"rotation":[-0.0,0.7071068,0.0,0.7071067],"name":"CSQ001-US - Surface Mount Weldment Part [8723797]226"},{"mesh":11,"translation":[0.8957932,2.19456,-1.077674],"rotation":[-0.0,0.7071068,0.0,0.7071067],"name":"CSQ001-US - Surface Mount Weldment Part [8723797]227"},{"mesh":11,"translation":[0.09636759,1.64592,-1.077674],"rotation":[-0.0,0.7071068,0.0,0.7071067],"name":"CSQ001-US - Surface Mount Weldment Part [8723797]229"},{"mesh":11,"translation":[-1.501454,0.5481965,-1.0776045],"rotation":[-0.0,0.7071066,0.0,0.70710695],"name":"CSQ001-US - Surface Mount Weldment Part [8723797]232"},{"mesh":11,"translation":[-2.097295,0.18288001,-1.0776045],"rotation":[-0.0,0.7071066,0.0,0.70710695],"name":"CSQ001-US - Surface Mount Weldment Part [8723797]233"},{"mesh":11,"translation":[-0.7029424,1.0971699,-0.023503717],"rotation":[-0.0,-0.7071068,0.0,0.7071067],"name":"CSQ001-US - Surface Mount Weldment Part [8723797]251"},{"mesh":11,"translation":[-0.7029424,1.0971699,-1.0776045],"rotation":[-0.0,0.7071066,0.0,0.70710695],"name":"CSQ001-US - Surface Mount Weldment Part [8723797]252"},{"mesh":12,"translation":[-1.501454,1.4454224,-0.023503717],"rotation":[-0.0,-0.7071068,0.0,0.7071067],"name":"Custom - Circum 5l8 Stem-Cable LS Material [8469848]001"},{"mesh":12,"translation":[-2.097295,1.0365449,-0.023503717],"rotation":[-0.0,-0.7071068,0.0,0.7071067],"name":"Custom - Circum 5l8 Stem-Cable LS Material [8469848]002"},{"mesh":12,"translation":[1.4666189,3.4835536,-0.023573343],"rotation":[-0.0,-0.7071068,0.0,0.7071067],"name":"Custom - Circum 5l8 Stem-Cable LS Material [8469848]010"},{"mesh":12,"translation":[0.8957932,3.0918348,-0.023573343],"rotation":[-0.0,-0.7071068,0.0,0.7071067],"name":"Custom - Circum 5l8 Stem-Cable LS Material [8469848]011"},{"mesh":12,"translation":[0.09636759,2.5431948,-0.023573343],"rotation":[-0.0,-0.7071068,0.0,0.7071067],"name":"Custom - Circum 5l8 Stem-Cable LS Material [8469848]007"},{"mesh":12,"translation":[1.4666189,3.4835536,-1.077674],"rotation":[-0.0,-0.7071068,0.0,0.7071068],"name":"Custom - Circum 5l8 Stem-Cable LS Material [8469848]009"},{"mesh":12,"translation":[0.8957932,3.0918348,-1.077674],"rotation":[-0.0,-0.7071068,0.0,0.7071068],"name":"Custom - Circum 5l8 Stem-Cable LS Material [8469848]008"},{"mesh":12,"translation":[0.09636759,2.5431948,-1.077674],"rotation":[-0.0,-0.7071068,0.0,0.7071068],"name":"Custom - Circum 5l8 Stem-Cable LS Material [8469848]006"},{"mesh":12,"translation":[-1.501454,1.4454224,-1.0776045],"rotation":[-0.0,-0.7071068,0.0,0.7071067],"name":"Custom - Circum 5l8 Stem-Cable LS Material [8469848]004"},{"mesh":12,"translation":[-2.097295,1.0365449,-1.0776045],"rotation":[-0.0,-0.7071068,0.0,0.7071067],"name":"Custom - Circum 5l8 Stem-Cable LS Material [8469848]005"},{"mesh":12,"translation":[-0.7029424,1.9943957,-0.023503717],"rotation":[-0.0,-0.7071068,0.0,0.7071067],"name":"Custom - Circum 5l8 Stem-Cable LS Material [8469848]029"},{"mesh":12,"translation":[-0.7029424,1.9943957,-1.0776045],"rotation":[-0.0,-0.7071068,0.0,0.7071067],"name":"Custom - Circum 5l8 Stem-Cable LS Material [8469848]030"},{"mesh":13,"translation":[-1.5426376,1.5345355,-0.023503717],"rotation":[-0.6257521,0.3292938,-0.3292938,0.6257521],"scale":[0.99999994,1.0,0.99999994],"name":"CIR057 - 1 1l2 Rail Saddle Part [8723174]020"},{"mesh":13,"translation":[-2.1384785,1.125658,-0.023503717],"rotation":[-0.6257521,0.3292938,-0.3292938,0.6257521],"scale":[0.99999994,1.0,0.99999994],"name":"CIR057 - 1 1l2 Rail Saddle Part [8723174]021"},{"mesh":13,"translation":[1.4254702,3.572674,-0.023573343],"rotation":[-0.62566584,0.32945764,-0.32945758,0.6256658],"name":"CIR057 - 1 1l2 Rail Saddle Part [8723174]022"},{"mesh":13,"translation":[0.8546446,3.1809554,-0.023573343],"rotation":[-0.62566584,0.32945764,-0.32945758,0.6256658],"name":"CIR057 - 1 1l2 Rail Saddle Part [8723174]023"},{"mesh":13,"translation":[0.055221267,2.6323152,-0.023573343],"rotation":[-0.62566584,0.32945764,-0.32945758,0.6256658],"name":"CIR057 - 1 1l2 Rail Saddle Part [8723174]026"},{"mesh":13,"translation":[1.4254702,3.572674,-1.077674],"rotation":[0.6256658,-0.3294576,-0.32945758,0.6256658],"name":"CIR057 - 1 1l2 Rail Saddle Part [8723174]027"},{"mesh":13,"translation":[0.8546446,3.1809554,-1.077674],"rotation":[0.6256658,-0.3294576,-0.32945758,0.6256658],"name":"CIR057 - 1 1l2 Rail Saddle Part [8723174]028"},{"mesh":13,"translation":[0.055221267,2.6323152,-1.077674],"rotation":[0.6256658,-0.3294576,-0.32945758,0.6256658],"name":"CIR057 - 1 1l2 Rail Saddle Part [8723174]030"},{"mesh":13,"translation":[-1.5426376,1.5345355,-1.0776045],"rotation":[0.625752,-0.32929376,-0.32929376,0.6257521],"scale":[0.99999994,1.0,0.99999994],"name":"CIR057 - 1 1l2 Rail Saddle Part [8723174]036"},{"mesh":13,"translation":[-2.1384785,1.125658,-1.0776045],"rotation":[0.625752,-0.32929376,-0.32929376,0.6257521],"scale":[0.99999994,1.0,0.99999994],"name":"CIR057 - 1 1l2 Rail Saddle Part [8723174]037"},{"mesh":13,"translation":[-0.7441259,2.083509,-0.023503717],"rotation":[-0.6257521,0.3292938,-0.3292938,0.6257521],"scale":[0.99999994,1.0,0.99999994],"name":"CIR057 - 1 1l2 Rail Saddle Part [8723174]098"},{"mesh":13,"translation":[-0.7441259,2.083509,-1.0776045],"rotation":[0.625752,-0.32929376,-0.32929376,0.6257521],"scale":[0.99999994,1.0,0.99999994],"name":"CIR057 - 1 1l2 Rail Saddle Part [8723174]099"},{"mesh":14,"translation":[-2.0972962,0.6055699,-1.0776049],"rotation":[-0.0,-1.0,0.0,-4.371139E-08],"name":"Custom - Koto Round Post Material LS Material [8581377]"},{"mesh":15,"translation":[-0.55925155,2.1173782,-0.023503717],"rotation":[0.7071068,-0.00012347523,-0.0001233516,0.7071067],"name":"Nested_Bend Bend [8719267]001"},{"mesh":15,"translation":[-0.55925155,2.1173782,-1.0776781],"rotation":[0.7071068,-0.00012347523,-0.0001233516,0.7071067],"name":"Nested_Bend Bend [8719267]004"},{"mesh":16,"translation":[1.3641479,3.438042,-0.023503717],"rotation":[0.7071068,-0.00012347523,-0.0001233516,0.7071067],"name":"Nested_Bend Bend [8719267]003"},{"mesh":16,"translation":[1.3641479,3.438042,-1.0776781],"rotation":[0.7071068,-0.00012347523,-0.0001233516,0.7071067],"name":"Nested_Bend Bend [8719267]005"}],"meshes":[{"primitives":[{"attributes":{"POSITION":1,"TANGENT":2,"NORMAL":3,"TEXCOORD_0":4},"indices":0,"material":0},{"attributes":{"POSITION":6,"TANGENT":7,"NORMAL":8,"TEXCOORD_0":9},"indices":5,"material":1}],"name":"CIR024 - Handrail End Cap Part [8482091]003"},{"primitives":[{"attributes":{"POSITION":11,"TANGENT":12,"NORMAL":13,"TEXCOORD_0":14},"indices":10,"material":0}],"name":"CIR061 - 1 1l2 Rail-To-Rail Connector Part [8719260]004"},{"primitives":[{"attributes":{"POSITION":16,"TANGENT":17,"NORMAL":18,"TEXCOORD_0":19},"indices":15,"material":2}],"name":"Nested_Cable_Single Cable Assembly Generic [8580909]015"},{"primitives":[{"attributes":{"POSITION":21,"TANGENT":22,"NORMAL":23,"TEXCOORD_0":24},"indices":20,"material":3}],"name":"KOT010 - Right-Hand Threaded End Stop Part [8137739]004"},{"primitives":[{"attributes":{"POSITION":26,"TANGENT":27,"NORMAL":28,"TEXCOORD_0":29},"indices":25,"material":3}],"name":"KOT012 - Turnbuckle Part [8655227]002"},{"primitives":[{"attributes":{"POSITION":31,"TANGENT":32,"NORMAL":33,"TEXCOORD_0":34},"indices":30,"material":2}],"name":"Nested_Cable_Single Cable Assembly Generic [8145014]012"},{"primitives":[{"attributes":{"POSITION":36,"TANGENT":37,"NORMAL":38,"TEXCOORD_0":39},"indices":35,"material":0},{"attributes":{"POSITION":41,"TANGENT":42,"NORMAL":43,"TEXCOORD_0":44},"indices":40,"material":1}],"name":"CCR022 & CCR122 - Cable Center Toprail Post Cap Part [8467834]057"},{"primitives":[{"attributes":{"POSITION":46,"TANGENT":47,"NORMAL":48,"TEXCOORD_0":49},"indices":45,"material":0}],"name":"Custom - Koto Round Post Material LS Material [8467835]001"},{"primitives":[{"attributes":{"POSITION":51,"TANGENT":52,"NORMAL":53,"TEXCOORD_0":54},"indices":50,"material":0}],"name":"Custom - Koto Round Post Material LS Material [8467844]"},{"primitives":[{"attributes":{"POSITION":56,"TANGENT":57,"NORMAL":58,"TEXCOORD_0":59},"indices":55,"material":0}],"name":"Custom - Koto Round Post Material LS Material [8467853]"},{"primitives":[{"attributes":{"POSITION":61,"TANGENT":62,"NORMAL":63,"TEXCOORD_0":64},"indices":60,"material":0}],"name":"Custom - Koto Round Post Material LS Material [8579826]002"},{"primitives":[{"attributes":{"POSITION":66,"TANGENT":67,"NORMAL":68,"TEXCOORD_0":69},"indices":65,"material":0}],"name":"CSQ001-US - Surface Mount Weldment Part [8723797]220"},{"primitives":[{"attributes":{"POSITION":71,"TANGENT":72,"NORMAL":73,"TEXCOORD_0":74},"indices":70,"material":0}],"name":"Custom - Circum 5l8 Stem-Cable LS Material [8469848]001"},{"primitives":[{"attributes":{"POSITION":76,"TANGENT":77,"NORMAL":78,"TEXCOORD_0":79},"indices":75,"material":0}],"name":"CIR057 - 1 1l2 Rail Saddle Part [8723174]020"},{"primitives":[{"attributes":{"POSITION":81,"TANGENT":82,"NORMAL":83,"TEXCOORD_0":84},"indices":80,"material":0}],"name":"Custom - Koto Round Post Material LS Material [8581377]"},{"primitives":[{"attributes":{"POSITION":86,"TANGENT":87,"NORMAL":88,"TEXCOORD_0":89},"indices":85,"material":0}],"name":"Nested_Bend Bend [8719267]001"},{"primitives":[{"attributes":{"POSITION":91,"TANGENT":92,"NORMAL":93,"TEXCOORD_0":94},"indices":90,"material":0}],"name":"Nested_Bend Bend [8719267]003"}],"accessors":[{"bufferView":0,"componentType":5123,"count":192,"type":"SCALAR","name":"accessorIndices"},{"bufferView":1,"componentType":5126,"count":66,"max":[-0.00029542364,0.01905,0.01905],"min":[-0.002286,-0.01905,-0.01905],"type":"VEC3","name":"accessorPositions"},{"bufferView":2,"componentType":5126,"count":66,"type":"VEC4","name":"accessorTangents"},{"bufferView":1,"byteOffset":792,"componentType":5126,"count":66,"type":"VEC3","name":"accessorNormals"},{"bufferView":3,"componentType":5126,"count":66,"type":"VEC2","name":"accessorUVs"},{"bufferView":0,"byteOffset":384,"componentType":5123,"count":762,"type":"SCALAR","name":"accessorIndices"},{"bufferView":1,"byteOffset":1584,"componentType":5126,"count":161,"max":[-0.00029542364,0.01905,0.01905],"min":[-0.0068578967,-0.01905,-0.01905],"type":"VEC3","name":"accessorPositions"},{"bufferView":2,"byteOffset":1056,"componentType":5126,"count":161,"type":"VEC4","name":"accessorTangents"},{"bufferView":1,"byteOffset":3516,"componentType":5126,"count":161,"type":"VEC3","name":"accessorNormals"},{"bufferView":3,"byteOffset":528,"componentType":5126,"count":161,"type":"VEC2","name":"accessorUVs"},{"bufferView":0,"byteOffset":1908,"componentType":5123,"count":360,"type":"SCALAR","name":"accessorIndices"},{"bufferView":1,"byteOffset":5448,"componentType":5126,"count":128,"max":[0.01905,0.003175006,0.01905],"min":[-0.01905,-0.0031749941,-0.01905],"type":"VEC3","name":"accessorPositions"},{"bufferView":2,"byteOffset":3632,"componentType":5126,"count":128,"type":"VEC4","name":"accessorTangents"},{"bufferView":1,"byteOffset":6984,"componentType":5126,"count":128,"type":"VEC3","name":"accessorNormals"},{"bufferView":3,"byteOffset":1816,"componentType":5126,"count":128,"type":"VEC2","name":"accessorUVs"},{"bufferView":0,"byteOffset":2628,"componentType":5123,"count":276,"type":"SCALAR","name":"accessorIndices"},{"bufferView":1,"byteOffset":8520,"componentType":5126,"count":98,"max":[0.7075429,0.48696956,0.0019998779],"min":[-0.7075429,-0.48696947,-0.0019998779],"type":"VEC3","name":"accessorPositions"},{"bufferView":2,"byteOffset":5680,"componentType":5126,"count":98,"type":"VEC4","name":"accessorTangents"},{"bufferView":1,"byteOffset":9696,"componentType":5126,"count":98,"type":"VEC3","name":"accessorNormals"},{"bufferView":3,"byteOffset":2840,"componentType":5126,"count":98,"type":"VEC2","name":"accessorUVs"},{"bufferView":0,"byteOffset":3180,"componentType":5123,"count":1140,"type":"SCALAR","name":"accessorIndices"},{"bufferView":1,"byteOffset":10872,"componentType":5126,"count":388,"max":[0.0299974,0.0035052001,0.0035052001],"min":[-0.032004,-0.0035052001,-0.0035052001],"type":"VEC3","name":"accessorPositions"},{"bufferView":2,"byteOffset":7248,"componentType":5126,"count":388,"type":"VEC4","name":"accessorTangents"},{"bufferView":1,"byteOffset":15528,"componentType":5126,"count":388,"type":"VEC3","name":"accessorNormals"},{"bufferView":3,"byteOffset":3624,"componentType":5126,"count":388,"type":"VEC2","name":"accessorUVs"},{"bufferView":0,"byteOffset":5460,"componentType":5123,"count":2952,"type":"SCALAR","name":"accessorIndices"},{"bufferView":1,"byteOffset":20184,"componentType":5126,"count":1012,"max":[0.077494115,0.005003873,0.0057778903],"min":[-0.097104676,-0.005003805,-0.0057778903],"type":"VEC3","name":"accessorPositions"},{"bufferView":2,"byteOffset":13456,"componentType":5126,"count":1012,"type":"VEC4","name":"accessorTangents"},{"bufferView":1,"byteOffset":32328,"componentType":5126,"count":1012,"type":"VEC3","name":"accessorNormals"},{"bufferView":3,"byteOffset":6728,"componentType":5126,"count":1012,"type":"VEC2","name":"accessorUVs"},{"bufferView":0,"byteOffset":11364,"componentType":5123,"count":276,"type":"SCALAR","name":"accessorIndices"},{"bufferView":1,"byteOffset":44472,"componentType":5126,"count":98,"max":[0.8796579,0.6045407,0.0019998779],"min":[-2.5015817,-1.7173502,-0.0019998779],"type":"VEC3","name":"accessorPositions"},{"bufferView":2,"byteOffset":29648,"componentType":5126,"count":98,"type":"VEC4","name":"accessorTangents"},{"bufferView":1,"byteOffset":45648,"componentType":5126,"count":98,"type":"VEC3","name":"accessorNormals"},{"bufferView":3,"byteOffset":14824,"componentType":5126,"count":98,"type":"VEC2","name":"accessorUVs"},{"bufferView":0,"byteOffset":11916,"componentType":5123,"count":1182,"type":"SCALAR","name":"accessorIndices"},{"bufferView":1,"byteOffset":46824,"componentType":5126,"count":320,"max":[0.0301752,0.0027432,0.0301752],"min":[-0.0301752,-2.1796964E-15,-0.0301752],"type":"VEC3","name":"accessorPositions"},{"bufferView":2,"byteOffset":31216,"componentType":5126,"count":320,"type":"VEC4","name":"accessorTangents"},{"bufferView":1,"byteOffset":50664,"componentType":5126,"count":320,"type":"VEC3","name":"accessorNormals"},{"bufferView":3,"byteOffset":15608,"componentType":5126,"count":320,"type":"VEC2","name":"accessorUVs"},{"bufferView":0,"byteOffset":14280,"componentType":5123,"count":1776,"type":"SCALAR","name":"accessorIndices"},{"bufferView":1,"byteOffset":54504,"componentType":5126,"count":337,"max":[0.0301752,0.008285249,0.0301752],"min":[-0.0301752,0.0027432,-0.0301752],"type":"VEC3","name":"accessorPositions"},{"bufferView":2,"byteOffset":36336,"componentType":5126,"count":337,"type":"VEC4","name":"accessorTangents"},{"bufferView":1,"byteOffset":58548,"componentType":5126,"count":337,"type":"VEC3","name":"accessorNormals"},{"bufferView":3,"byteOffset":18168,"componentType":5126,"count":337,"type":"VEC2","name":"accessorUVs"},{"bufferView":0,"byteOffset":17832,"componentType":5123,"count":38727,"type":"SCALAR","name":"accessorIndices"},{"bufferView":1,"byteOffset":62592,"componentType":5126,"count":8854,"max":[0.030163275,0.44447035,0.030163275],"min":[-0.030163275,-0.44447035,-0.030163275],"type":"VEC3","name":"accessorPositions"},{"bufferView":2,"byteOffset":41728,"componentType":5126,"count":8854,"type":"VEC4","name":"accessorTangents"},{"bufferView":1,"byteOffset":168840,"componentType":5126,"count":8854,"type":"VEC3","name":"accessorNormals"},{"bufferView":3,"byteOffset":20864,"componentType":5126,"count":8854,"type":"VEC2","name":"accessorUVs"},{"bufferView":0,"byteOffset":95288,"componentType":5123,"count":30654,"type":"SCALAR","name":"accessorIndices"},{"bufferView":1,"byteOffset":275088,"componentType":5126,"count":6253,"max":[0.030163275,0.42268983,0.030163275],"min":[-0.030163275,-0.42268986,-0.030163275],"type":"VEC3","name":"accessorPositions"},{"bufferView":2,"byteOffset":183392,"componentType":5126,"count":6253,"type":"VEC4","name":"accessorTangents"},{"bufferView":1,"byteOffset":350124,"componentType":5126,"count":6253,"type":"VEC3","name":"accessorNormals"},{"bufferView":3,"byteOffset":91696,"componentType":5126,"count":6253,"type":"VEC2","name":"accessorUVs"},{"bufferView":0,"byteOffset":156596,"componentType":5123,"count":32514,"type":"SCALAR","name":"accessorIndices"},{"bufferView":1,"byteOffset":425160,"componentType":5126,"count":6576,"max":[0.030163275,0.4574741,0.03016095],"min":[-0.030163275,-0.4574744,-0.030163275],"type":"VEC3","name":"accessorPositions"},{"bufferView":2,"byteOffset":283440,"componentType":5126,"count":6576,"type":"VEC4","name":"accessorTangents"},{"bufferView":1,"byteOffset":504072,"componentType":5126,"count":6576,"type":"VEC3","name":"accessorNormals"},{"bufferView":3,"byteOffset":141720,"componentType":5126,"count":6576,"type":"VEC2","name":"accessorUVs"},{"bufferView":0,"byteOffset":221624,"componentType":5123,"count":38685,"type":"SCALAR","name":"accessorIndices"},{"bufferView":1,"byteOffset":582984,"componentType":5126,"count":8846,"max":[0.030163275,0.44449466,0.030163275],"min":[-0.03016095,-0.4444948,-0.030163275],"type":"VEC3","name":"accessorPositions"},{"bufferView":2,"byteOffset":388656,"componentType":5126,"count":8846,"type":"VEC4","name":"accessorTangents"},{"bufferView":1,"byteOffset":689136,"componentType":5126,"count":8846,"type":"VEC3","name":"accessorNormals"},{"bufferView":3,"byteOffset":194328,"componentType":5126,"count":8846,"type":"VEC2","name":"accessorUVs"},{"bufferView":0,"byteOffset":298996,"componentType":5123,"count":570,"type":"SCALAR","name":"accessorIndices"},{"bufferView":1,"byteOffset":795288,"componentType":5126,"count":189,"max":[0.053975,0.025400002,0.053975],"min":[-0.053975,-3.0953716E-15,-0.053975],"type":"VEC3","name":"accessorPositions"},{"bufferView":2,"byteOffset":530192,"componentType":5126,"count":189,"type":"VEC4","name":"accessorTangents"},{"bufferView":1,"byteOffset":797556,"componentType":5126,"count":189,"type":"VEC3","name":"accessorNormals"},{"bufferView":3,"byteOffset":265096,"componentType":5126,"count":189,"type":"VEC2","name":"accessorUVs"},{"bufferView":0,"byteOffset":300136,"componentType":5123,"count":2682,"type":"SCALAR","name":"accessorIndices"},{"bufferView":1,"byteOffset":799824,"componentType":5126,"count":750,"max":[0.0079375,0.06034161,0.024871314],"min":[-0.0079375,-0.013208,-0.0079375],"type":"VEC3","name":"accessorPositions"},{"bufferView":2,"byteOffset":533216,"componentType":5126,"count":750,"type":"VEC4","name":"accessorTangents"},{"bufferView":1,"byteOffset":808824,"componentType":5126,"count":750,"type":"VEC3","name":"accessorNormals"},{"bufferView":3,"byteOffset":266608,"componentType":5126,"count":750,"type":"VEC2","name":"accessorUVs"},{"bufferView":0,"byteOffset":305500,"componentType":5123,"count":348,"type":"SCALAR","name":"accessorIndices"},{"bufferView":1,"byteOffset":817824,"componentType":5126,"count":128,"max":[0.042062398,0.0120777,0.03175],"min":[0.033772144,-0.012090401,-0.03175],"type":"VEC3","name":"accessorPositions"},{"bufferView":2,"byteOffset":545216,"componentType":5126,"count":128,"type":"VEC4","name":"accessorTangents"},{"bufferView":1,"byteOffset":819360,"componentType":5126,"count":128,"type":"VEC3","name":"accessorNormals"},{"bufferView":3,"byteOffset":272608,"componentType":5126,"count":128,"type":"VEC2","name":"accessorUVs"},{"bufferView":0,"byteOffset":306196,"componentType":5123,"count":30528,"type":"SCALAR","name":"accessorIndices"},{"bufferView":1,"byteOffset":820896,"componentType":5126,"count":6231,"max":[0.030163275,0.42268983,0.03016095],"min":[-0.030163275,-0.42268986,-0.030163275],"type":"VEC3","name":"accessorPositions"},{"bufferView":2,"byteOffset":547264,"componentType":5126,"count":6231,"type":"VEC4","name":"accessorTangents"},{"bufferView":1,"byteOffset":895668,"componentType":5126,"count":6231,"type":"VEC3","name":"accessorNormals"},{"bufferView":3,"byteOffset":273632,"componentType":5126,"count":6231,"type":"VEC2","name":"accessorUVs"},{"bufferView":0,"byteOffset":367252,"componentType":5123,"count":564,"type":"SCALAR","name":"accessorIndices"},{"bufferView":1,"byteOffset":970440,"componentType":5126,"count":194,"max":[0.31800973,0.018887788,1.0520042],"min":[-1.6200956,-0.018887721,-0.29603794],"type":"VEC3","name":"accessorPositions"},{"bufferView":2,"byteOffset":646960,"componentType":5126,"count":194,"type":"VEC4","name":"accessorTangents"},{"bufferView":1,"byteOffset":972768,"componentType":5126,"count":194,"type":"VEC3","name":"accessorNormals"},{"bufferView":3,"byteOffset":323480,"componentType":5126,"count":194,"type":"VEC2","name":"accessorUVs"},{"bufferView":0,"byteOffset":368380,"componentType":5123,"count":564,"type":"SCALAR","name":"accessorIndices"},{"bufferView":1,"byteOffset":975096,"componentType":5126,"count":194,"max":[0.20611998,0.018887788,1.0520835],"min":[-1.620211,-0.018887717,-0.21916696],"type":"VEC3","name":"accessorPositions"},{"bufferView":2,"byteOffset":650064,"componentType":5126,"count":194,"type":"VEC4","name":"accessorTangents"},{"bufferView":1,"byteOffset":977424,"componentType":5126,"count":194,"type":"VEC3","name":"accessorNormals"},{"bufferView":3,"byteOffset":325032,"componentType":5126,"count":194,"type":"VEC2","name":"accessorUVs"}],"bufferViews":[{"buffer":0,"byteLength":369508,"name":"bufferViewScalar"},{"buffer":0,"byteOffset":369508,"byteLength":979752,"byteStride":12,"name":"bufferViewFloatVec3"},{"buffer":0,"byteOffset":1349260,"byteLength":653168,"byteStride":16,"name":"bufferViewFloatVec4"},{"buffer":0,"byteOffset":2002428,"byteLength":326584,"byteStride":8,"name":"bufferViewFloatVec2"}],"buffers":[{"uri":"Straight_Railing_Koto_Round.bin","byteLength":2329012}],"materials":[{"pbrMetallicRoughness":{"baseColorFactor":[0.9999998,0.9999999,0.9999999,1.0],"baseColorTexture":{"index":0,"extensions":{"KHR_texture_transform":{"offset":[0.19519997,0.8048],"rotation":1.5707964,"scale":[0.6096,0.6096],"texCoord":0}}},"roughnessFactor":0.2,"metallicRoughnessTexture":{"index":0,"extensions":{"KHR_texture_transform":{"offset":[0.19519997,0.8048],"rotation":1.5707964,"scale":[0.6096,0.6096],"texCoord":0}}}},"name":"Steel_Linear"},{"pbrMetallicRoughness":{"baseColorFactor":[0.9999998,0.9999999,0.9999999,1.0],"baseColorTexture":{"index":1},"roughnessFactor":0.2,"metallicRoughnessTexture":{"index":1}},"name":"Steel_Radial"},{"pbrMetallicRoughness":{"baseColorFactor":[0.9999998,0.9999999,0.9999999,1.0],"baseColorTexture":{"index":2,"extensions":{"KHR_texture_transform":{"offset":[0.21909332,-0.053646088],"rotation":-1.2217305,"scale":[25.83051,25.83051],"texCoord":0}}},"roughnessFactor":0.2,"metallicRoughnessTexture":{"index":2,"extensions":{"KHR_texture_transform":{"offset":[0.21909332,-0.053646088],"rotation":-1.2217305,"scale":[25.83051,25.83051],"texCoord":0}}}},"name":"Cable"},{"pbrMetallicRoughness":{"baseColorFactor":[0.9999998,0.9999999,0.9999999,1.0],"roughnessFactor":0.2},"name":"Steel_Polished"}],"textures":[{"sampler":0,"source":0,"name":"Metal_Brushed_Linear_4k.jpg"},{"sampler":0,"source":1,"name":"Metal_Brushed_Radial_4k.jpg"},{"sampler":0,"source":2,"name":"Metal_Cable.jpg"}],"images":[{"uri":"textures/Metal_Brushed_Linear_4k.jpg"},{"uri":"textures/Metal_Brushed_Radial_4k.jpg"},{"uri":"textures/Metal_Cable.jpg"}],"samplers":[{"magFilter":9729,"minFilter":9987}]}