{"asset":{"version":"2.0","generator":"babylon.js glTF exporter for 3dsmax 2026 v20251111.2"},"extensionsUsed":["KHR_texture_transform","KHR_materials_specular","KHR_materials_ior","KHR_materials_transmission","KHR_materials_volume"],"extensionsRequired":["KHR_texture_transform"],"scene":0,"scenes":[{"nodes":[0,1,2,3,4,5,6,7,8,9,10,11,12,13,14,15,16,17,18,19,20,21,22,23,24,25,26,27,28,29,30,31,32,33,34,35,36,37,38,39,40,41,42,43,44,45,46,47,48,49,50,51,52,53,54,55,56,57,58,59,60,61,62,63,64,65,66,67,68,69,70,71,72,73,74,75,76,77,78,79,80,81,82,83,84,85,86,87,88,89,90,91,92,93,94,95,96,97,98,99,100,101,102,103,104,105,106,107,108,109,110,111,112,113,114,115,116,117,118,119,120,121,122,123,124,125,126,127,128,129,130,131,132,133,134,135,136,137,138,139,140,141,142,143,144,145,146,147,148,149,150,151,152,153,154,155,156,157,158,159,160,161,162,163]}],"nodes":[{"mesh":0,"translation":[-0.17010453,1.7327118,-0.023573017],"rotation":[-0.0,0.7071068,0.0,0.7071067],"name":"KUB009 - Top Barrel Mount Part [8739165]026"},{"mesh":0,"translation":[-0.17010453,1.9867117,-0.023573017],"rotation":[-0.0,0.7071068,0.0,0.7071067],"name":"KUB009 - Top Barrel Mount Part [8739165]002"},{"mesh":0,"translation":[0.8957957,2.4641218,-0.023573017],"rotation":[-0.0,0.7071068,0.0,0.7071067],"name":"KUB009 - Top Barrel Mount Part [8739165]027"},{"mesh":0,"translation":[0.8957957,2.718122,-0.023573017],"rotation":[-0.0,0.7071068,0.0,0.7071067],"name":"KUB009 - Top Barrel Mount Part [8739165]003"},{"mesh":0,"translation":[0.62932134,2.2813518,-0.023573017],"rotation":[-0.0,0.7071068,0.0,0.7071067],"name":"KUB009 - Top Barrel Mount Part [8739165]028"},{"mesh":0,"translation":[0.62932134,2.535352,-0.023573017],"rotation":[-0.0,0.7071068,0.0,0.7071067],"name":"KUB009 - Top Barrel Mount Part [8739165]004"},{"mesh":0,"translation":[1.4287434,2.8299918,-0.023573017],"rotation":[-0.0,0.7071068,0.0,0.7071067],"name":"KUB009 - Top Barrel Mount Part [8739165]029"},{"mesh":0,"translation":[1.4287434,3.0839918,-0.023573017],"rotation":[-0.0,0.7071068,0.0,0.7071067],"name":"KUB009 - Top Barrel Mount Part [8739165]005"},{"mesh":0,"translation":[-1.2352822,1.0012426,-0.023504008],"rotation":[-0.0,0.7071066,0.0,0.70710695],"name":"KUB009 - Top Barrel Mount Part [8739165]031"},{"mesh":0,"translation":[-1.2352822,1.2552426,-0.023504008],"rotation":[-0.0,0.7071066,0.0,0.70710695],"name":"KUB009 - Top Barrel Mount Part [8739165]007"},{"mesh":0,"translation":[-1.5014544,0.81836265,-0.023504008],"rotation":[-0.0,0.7071066,0.0,0.70710695],"name":"KUB009 - Top Barrel Mount Part [8739165]032"},{"mesh":0,"translation":[-1.5014544,1.0723627,-0.023504008],"rotation":[-0.0,0.7071066,0.0,0.70710695],"name":"KUB009 - Top Barrel Mount Part [8739165]008"},{"mesh":0,"translation":[-2.0337968,0.45260262,-0.023504008],"rotation":[-0.0,0.7071066,0.0,0.70710695],"name":"KUB009 - Top Barrel Mount Part [8739165]033"},{"mesh":0,"translation":[-2.0337968,0.7066026,-0.023504008],"rotation":[-0.0,0.7071066,0.0,0.70710695],"name":"KUB009 - Top Barrel Mount Part [8739165]009"},{"mesh":0,"translation":[-0.43677065,1.5497723,-1.0776048],"rotation":[-0.0,-0.7071068,0.0,0.7071067],"name":"KUB009 - Top Barrel Mount Part [8739165]034"},{"mesh":0,"translation":[-0.43677065,1.8037723,-1.0776048],"rotation":[-0.0,-0.7071068,0.0,0.7071067],"name":"KUB009 - Top Barrel Mount Part [8739165]010"},{"mesh":0,"translation":[-1.2352822,1.0012426,-1.0776048],"rotation":[-0.0,-0.7071068,0.0,0.7071067],"name":"KUB009 - Top Barrel Mount Part [8739165]035"},{"mesh":0,"translation":[-1.2352822,1.2552426,-1.0776048],"rotation":[-0.0,-0.7071068,0.0,0.7071067],"name":"KUB009 - Top Barrel Mount Part [8739165]011"},{"mesh":0,"translation":[-1.5014544,0.81836265,-1.0776048],"rotation":[-0.0,-0.7071068,0.0,0.7071067],"name":"KUB009 - Top Barrel Mount Part [8739165]036"},{"mesh":0,"translation":[-1.5014544,1.0723627,-1.0776048],"rotation":[-0.0,-0.7071068,0.0,0.7071067],"name":"KUB009 - Top Barrel Mount Part [8739165]012"},{"mesh":0,"translation":[-2.0337968,0.45260262,-1.0776045],"rotation":[-0.0,-0.7071068,0.0,0.7071067],"name":"KUB009 - Top Barrel Mount Part [8739165]037"},{"mesh":0,"translation":[-2.0337968,0.7066026,-1.0776045],"rotation":[-0.0,-0.7071068,0.0,0.7071067],"name":"KUB009 - Top Barrel Mount Part [8739165]013"},{"mesh":0,"translation":[0.8957957,2.4641218,-1.0776738],"rotation":[-0.0,-0.7071068,0.0,0.7071067],"name":"KUB009 - Top Barrel Mount Part [8739165]038"},{"mesh":0,"translation":[0.8957957,2.718122,-1.0776738],"rotation":[-0.0,-0.7071068,0.0,0.7071067],"name":"KUB009 - Top Barrel Mount Part [8739165]014"},{"mesh":0,"translation":[0.62932134,2.2813518,-1.0776738],"rotation":[-0.0,-0.7071068,0.0,0.7071067],"name":"KUB009 - Top Barrel Mount Part [8739165]039"},{"mesh":0,"translation":[0.62932134,2.535352,-1.0776738],"rotation":[-0.0,-0.7071068,0.0,0.7071067],"name":"KUB009 - Top Barrel Mount Part [8739165]015"},{"mesh":0,"translation":[1.4287434,2.8299918,-1.0776738],"rotation":[-0.0,-0.7071068,0.0,0.7071067],"name":"KUB009 - Top Barrel Mount Part [8739165]040"},{"mesh":0,"translation":[1.4287434,3.0839918,-1.0776738],"rotation":[-0.0,-0.7071068,0.0,0.7071067],"name":"KUB009 - Top Barrel Mount Part [8739165]016"},{"mesh":0,"translation":[-0.17010447,1.7326015,-1.0776738],"rotation":[-0.0,-0.7071068,0.0,0.7071067],"name":"KUB009 - Top Barrel Mount Part [8739165]041"},{"mesh":0,"translation":[-0.17010447,1.9866015,-1.0776738],"rotation":[-0.0,-0.7071068,0.0,0.7071067],"name":"KUB009 - Top Barrel Mount Part [8739165]017"},{"mesh":0,"translation":[-0.4367708,1.8037723,-0.023516288],"rotation":[-0.0,0.7071068,0.0,0.7071068],"name":"KUB009 - Top Barrel Mount Part [8739165]098"},{"mesh":0,"translation":[-0.4367708,1.5497723,-0.023516288],"rotation":[-0.0,0.7071068,0.0,0.7071068],"name":"KUB009 - Top Barrel Mount Part [8739165]099"},{"mesh":1,"translation":[-0.17010453,1.9867117,-0.08549947],"rotation":[-0.0,0.7071068,0.0,0.7071067],"name":"KON006 - Lower Panel Clamp Part [8739162]003"},{"mesh":1,"translation":[-0.17010453,1.7327118,-0.08549947],"rotation":[-0.0,0.7071068,0.0,0.7071067],"name":"KON006 - Lower Panel Clamp Part [8739162]004"},{"mesh":1,"translation":[0.8957957,2.718122,-0.08549947],"rotation":[-0.0,0.7071068,0.0,0.7071067],"name":"KON006 - Lower Panel Clamp Part [8739162]005"},{"mesh":1,"translation":[0.8957957,2.4641218,-0.08549947],"rotation":[-0.0,0.7071068,0.0,0.7071067],"name":"KON006 - Lower Panel Clamp Part [8739162]006"},{"mesh":1,"translation":[0.62932134,2.535352,-0.08549947],"rotation":[-0.0,0.7071068,0.0,0.7071067],"name":"KON006 - Lower Panel Clamp Part [8739162]007"},{"mesh":1,"translation":[0.62932134,2.2813518,-0.08549947],"rotation":[-0.0,0.7071068,0.0,0.7071067],"name":"KON006 - Lower Panel Clamp Part [8739162]008"},{"mesh":1,"translation":[1.4287434,3.0839918,-0.08549947],"rotation":[-0.0,0.7071068,0.0,0.7071067],"name":"KON006 - Lower Panel Clamp Part [8739162]009"},{"mesh":1,"translation":[1.4287434,2.8299918,-0.08549947],"rotation":[-0.0,0.7071068,0.0,0.7071067],"name":"KON006 - Lower Panel Clamp Part [8739162]010"},{"mesh":1,"translation":[-1.2352822,1.2552426,-0.08543046],"rotation":[-0.0,0.7071066,0.0,0.70710695],"name":"KON006 - Lower Panel Clamp Part [8739162]013"},{"mesh":1,"translation":[-1.2352822,1.0012426,-0.08543046],"rotation":[-0.0,0.7071066,0.0,0.70710695],"name":"KON006 - Lower Panel Clamp Part [8739162]014"},{"mesh":1,"translation":[-1.5014544,1.0723627,-0.08543046],"rotation":[-0.0,0.7071066,0.0,0.70710695],"name":"KON006 - Lower Panel Clamp Part [8739162]015"},{"mesh":1,"translation":[-1.5014544,0.81836265,-0.08543046],"rotation":[-0.0,0.7071066,0.0,0.70710695],"name":"KON006 - Lower Panel Clamp Part [8739162]016"},{"mesh":1,"translation":[-2.0337968,0.7066026,-0.08543046],"rotation":[-0.0,0.7071066,0.0,0.70710695],"name":"KON006 - Lower Panel Clamp Part [8739162]017"},{"mesh":1,"translation":[-2.0337968,0.45260262,-0.08543046],"rotation":[-0.0,0.7071066,0.0,0.70710695],"name":"KON006 - Lower Panel Clamp Part [8739162]018"},{"mesh":1,"translation":[-0.43677065,1.8037723,-1.0156784],"rotation":[-0.0,-0.7071068,0.0,0.7071067],"name":"KON006 - Lower Panel Clamp Part [8739162]019"},{"mesh":1,"translation":[-0.43677065,1.5497723,-1.0156784],"rotation":[-0.0,-0.7071068,0.0,0.7071067],"name":"KON006 - Lower Panel Clamp Part [8739162]020"},{"mesh":1,"translation":[-1.2352822,1.2552426,-1.0156784],"rotation":[-0.0,-0.7071068,0.0,0.7071067],"name":"KON006 - Lower Panel Clamp Part [8739162]021"},{"mesh":1,"translation":[-1.2352822,1.0012426,-1.0156784],"rotation":[-0.0,-0.7071068,0.0,0.7071067],"name":"KON006 - Lower Panel Clamp Part [8739162]022"},{"mesh":1,"translation":[-1.5014544,1.0723627,-1.0156784],"rotation":[-0.0,-0.7071068,0.0,0.7071067],"name":"KON006 - Lower Panel Clamp Part [8739162]023"},{"mesh":1,"translation":[-1.5014544,0.81836265,-1.0156784],"rotation":[-0.0,-0.7071068,0.0,0.7071067],"name":"KON006 - Lower Panel Clamp Part [8739162]024"},{"mesh":1,"translation":[-2.0337968,0.7066026,-1.0156782],"rotation":[-0.0,-0.7071068,0.0,0.7071067],"name":"KON006 - Lower Panel Clamp Part [8739162]025"},{"mesh":1,"translation":[-2.0337968,0.45260262,-1.0156782],"rotation":[-0.0,-0.7071068,0.0,0.7071067],"name":"KON006 - Lower Panel Clamp Part [8739162]026"},{"mesh":1,"translation":[0.8957957,2.718122,-1.0157473],"rotation":[-0.0,-0.7071068,0.0,0.7071067],"name":"KON006 - Lower Panel Clamp Part [8739162]027"},{"mesh":1,"translation":[0.8957957,2.4641218,-1.0157473],"rotation":[-0.0,-0.7071068,0.0,0.7071067],"name":"KON006 - Lower Panel Clamp Part [8739162]028"},{"mesh":1,"translation":[0.62932134,2.535352,-1.0157473],"rotation":[-0.0,-0.7071068,0.0,0.7071067],"name":"KON006 - Lower Panel Clamp Part [8739162]029"},{"mesh":1,"translation":[0.62932134,2.2813518,-1.0157473],"rotation":[-0.0,-0.7071068,0.0,0.7071067],"name":"KON006 - Lower Panel Clamp Part [8739162]030"},{"mesh":1,"translation":[1.4287434,3.0839918,-1.0157473],"rotation":[-0.0,-0.7071068,0.0,0.7071067],"name":"KON006 - Lower Panel Clamp Part [8739162]031"},{"mesh":1,"translation":[1.4287434,2.8299918,-1.0157473],"rotation":[-0.0,-0.7071068,0.0,0.7071067],"name":"KON006 - Lower Panel Clamp Part [8739162]032"},{"mesh":1,"translation":[-0.17010447,1.9866015,-1.0157473],"rotation":[-0.0,-0.7071068,0.0,0.7071067],"name":"KON006 - Lower Panel Clamp Part [8739162]033"},{"mesh":1,"translation":[-0.17010447,1.7326015,-1.0157473],"rotation":[-0.0,-0.7071068,0.0,0.7071067],"name":"KON006 - Lower Panel Clamp Part [8739162]034"},{"mesh":1,"translation":[-0.4367708,1.8037723,-0.085442744],"rotation":[-0.0,0.7071068,0.0,0.7071068],"name":"KON006 - Lower Panel Clamp Part [8739162]202"},{"mesh":1,"translation":[-0.4367708,1.5497723,-0.085442744],"rotation":[-0.0,0.7071068,0.0,0.7071068],"name":"KON006 - Lower Panel Clamp Part [8739162]203"},{"mesh":2,"translation":[-0.17010453,1.9867117,-0.069623694],"name":"KON021 - Konic Washer Part [8739168]052"},{"mesh":2,"translation":[-0.17010453,1.9867117,-0.08392282],"rotation":[-0.0,-1.0,0.0,4.371139E-08],"name":"KON021 - Konic Washer Part [8739168]003"},{"mesh":2,"translation":[-0.17010453,1.7327118,-0.069623694],"name":"KON021 - Konic Washer Part [8739168]053"},{"mesh":2,"translation":[-0.17010453,1.7327118,-0.08392282],"rotation":[-0.0,-1.0,0.0,4.371139E-08],"name":"KON021 - Konic Washer Part [8739168]004"},{"mesh":2,"translation":[0.8957957,2.718122,-0.069623694],"name":"KON021 - Konic Washer Part [8739168]054"},{"mesh":2,"translation":[0.8957957,2.718122,-0.08392282],"rotation":[-0.0,-1.0,0.0,4.371139E-08],"name":"KON021 - Konic Washer Part [8739168]005"},{"mesh":2,"translation":[0.8957957,2.4641218,-0.069623694],"name":"KON021 - Konic Washer Part [8739168]055"},{"mesh":2,"translation":[0.8957957,2.4641218,-0.08392282],"rotation":[-0.0,-1.0,0.0,4.371139E-08],"name":"KON021 - Konic Washer Part [8739168]006"},{"mesh":2,"translation":[0.62932134,2.535352,-0.069623694],"name":"KON021 - Konic Washer Part [8739168]056"},{"mesh":2,"translation":[0.62932134,2.535352,-0.08392282],"rotation":[-0.0,-1.0,0.0,4.371139E-08],"name":"KON021 - Konic Washer Part [8739168]007"},{"mesh":2,"translation":[0.62932134,2.2813518,-0.069623694],"name":"KON021 - Konic Washer Part [8739168]057"},{"mesh":2,"translation":[0.62932134,2.2813518,-0.08392282],"rotation":[-0.0,-1.0,0.0,4.371139E-08],"name":"KON021 - Konic Washer Part [8739168]008"},{"mesh":2,"translation":[1.4287434,3.0839918,-0.069623694],"name":"KON021 - Konic Washer Part [8739168]058"},{"mesh":2,"translation":[1.4287434,3.0839918,-0.08392282],"rotation":[-0.0,-1.0,0.0,4.371139E-08],"name":"KON021 - Konic Washer Part [8739168]009"},{"mesh":2,"translation":[1.4287434,2.8299918,-0.069623694],"name":"KON021 - Konic Washer Part [8739168]059"},{"mesh":2,"translation":[1.4287434,2.8299918,-0.08392282],"rotation":[-0.0,-1.0,0.0,4.371139E-08],"name":"KON021 - Konic Washer Part [8739168]010"},{"mesh":2,"translation":[-1.2352822,1.2552426,-0.06955469],"rotation":[-0.0,-8.742278E-08,0.0,1.0],"name":"KON021 - Konic Washer Part [8739168]062"},{"mesh":2,"translation":[-1.2352822,1.2552426,-0.08385381],"rotation":[-0.0,-1.0,0.0,-4.371139E-08],"name":"KON021 - Konic Washer Part [8739168]013"},{"mesh":2,"translation":[-1.2352822,1.0012426,-0.06955469],"rotation":[-0.0,-8.742278E-08,0.0,1.0],"name":"KON021 - Konic Washer Part [8739168]063"},{"mesh":2,"translation":[-1.2352822,1.0012426,-0.08385381],"rotation":[-0.0,-1.0,0.0,-4.371139E-08],"name":"KON021 - Konic Washer Part [8739168]014"},{"mesh":2,"translation":[-1.5014544,1.0723627,-0.06955469],"rotation":[-0.0,-8.742278E-08,0.0,1.0],"name":"KON021 - Konic Washer Part [8739168]064"},{"mesh":2,"translation":[-1.5014544,1.0723627,-0.08385381],"rotation":[-0.0,-1.0,0.0,-4.371139E-08],"name":"KON021 - Konic Washer Part [8739168]015"},{"mesh":2,"translation":[-1.5014544,0.81836265,-0.06955469],"rotation":[-0.0,-8.742278E-08,0.0,1.0],"name":"KON021 - Konic Washer Part [8739168]065"},{"mesh":2,"translation":[-1.5014544,0.81836265,-0.08385381],"rotation":[-0.0,-1.0,0.0,-4.371139E-08],"name":"KON021 - Konic Washer Part [8739168]016"},{"mesh":2,"translation":[-2.0337968,0.7066026,-0.06955469],"rotation":[-0.0,-8.742278E-08,0.0,1.0],"name":"KON021 - Konic Washer Part [8739168]066"},{"mesh":2,"translation":[-2.0337968,0.7066026,-0.08385381],"rotation":[-0.0,-1.0,0.0,-4.371139E-08],"name":"KON021 - Konic Washer Part [8739168]017"},{"mesh":2,"translation":[-2.0337968,0.45260262,-0.06955469],"rotation":[-0.0,-8.742278E-08,0.0,1.0],"name":"KON021 - Konic Washer Part [8739168]067"},{"mesh":2,"translation":[-2.0337968,0.45260262,-0.08385381],"rotation":[-0.0,-1.0,0.0,-4.371139E-08],"name":"KON021 - Konic Washer Part [8739168]018"},{"mesh":2,"translation":[-0.43677065,1.8037723,-1.0315541],"rotation":[-0.0,-1.0,0.0,-4.371139E-08],"name":"KON021 - Konic Washer Part [8739168]068"},{"mesh":2,"translation":[-0.43677065,1.8037723,-1.017255],"name":"KON021 - Konic Washer Part [8739168]019"},{"mesh":2,"translation":[-0.43677065,1.5497723,-1.0315541],"rotation":[-0.0,-1.0,0.0,-4.371139E-08],"name":"KON021 - Konic Washer Part [8739168]069"},{"mesh":2,"translation":[-0.43677065,1.5497723,-1.017255],"name":"KON021 - Konic Washer Part [8739168]020"},{"mesh":2,"translation":[-1.2352822,1.2552426,-1.0315541],"rotation":[-0.0,-1.0,0.0,-4.371139E-08],"name":"KON021 - Konic Washer Part [8739168]070"},{"mesh":2,"translation":[-1.2352822,1.2552426,-1.017255],"name":"KON021 - Konic Washer Part [8739168]021"},{"mesh":2,"translation":[-1.2352822,1.0012426,-1.0315541],"rotation":[-0.0,-1.0,0.0,-4.371139E-08],"name":"KON021 - Konic Washer Part [8739168]071"},{"mesh":2,"translation":[-1.2352822,1.0012426,-1.017255],"name":"KON021 - Konic Washer Part [8739168]022"},{"mesh":2,"translation":[-1.5014544,1.0723627,-1.0315541],"rotation":[-0.0,-1.0,0.0,-4.371139E-08],"name":"KON021 - Konic Washer Part [8739168]072"},{"mesh":2,"translation":[-1.5014544,1.0723627,-1.017255],"name":"KON021 - Konic Washer Part [8739168]023"},{"mesh":2,"translation":[-1.5014544,0.81836265,-1.0315541],"rotation":[-0.0,-1.0,0.0,-4.371139E-08],"name":"KON021 - Konic Washer Part [8739168]073"},{"mesh":2,"translation":[-1.5014544,0.81836265,-1.017255],"name":"KON021 - Konic Washer Part [8739168]024"},{"mesh":2,"translation":[-2.0337968,0.7066026,-1.0315539],"rotation":[-0.0,-1.0,0.0,-4.371139E-08],"name":"KON021 - Konic Washer Part [8739168]074"},{"mesh":2,"translation":[-2.0337968,0.7066026,-1.0172548],"name":"KON021 - Konic Washer Part [8739168]025"},{"mesh":2,"translation":[-2.0337968,0.45260262,-1.0315539],"rotation":[-0.0,-1.0,0.0,-4.371139E-08],"name":"KON021 - Konic Washer Part [8739168]075"},{"mesh":2,"translation":[-2.0337968,0.45260262,-1.0172548],"name":"KON021 - Konic Washer Part [8739168]026"},{"mesh":2,"translation":[0.8957957,2.718122,-1.0316231],"rotation":[-0.0,-1.0,0.0,-4.371139E-08],"name":"KON021 - Konic Washer Part [8739168]076"},{"mesh":2,"translation":[0.8957957,2.718122,-1.017324],"name":"KON021 - Konic Washer Part [8739168]027"},{"mesh":2,"translation":[0.8957957,2.4641218,-1.0316231],"rotation":[-0.0,-1.0,0.0,-4.371139E-08],"name":"KON021 - Konic Washer Part [8739168]077"},{"mesh":2,"translation":[0.8957957,2.4641218,-1.017324],"name":"KON021 - Konic Washer Part [8739168]028"},{"mesh":2,"translation":[0.62932134,2.535352,-1.0316231],"rotation":[-0.0,-1.0,0.0,-4.371139E-08],"name":"KON021 - Konic Washer Part [8739168]078"},{"mesh":2,"translation":[0.62932134,2.535352,-1.017324],"name":"KON021 - Konic Washer Part [8739168]029"},{"mesh":2,"translation":[0.62932134,2.2813518,-1.0316231],"rotation":[-0.0,-1.0,0.0,-4.371139E-08],"name":"KON021 - Konic Washer Part [8739168]079"},{"mesh":2,"translation":[0.62932134,2.2813518,-1.017324],"name":"KON021 - Konic Washer Part [8739168]030"},{"mesh":2,"translation":[1.4287434,3.0839918,-1.0316231],"rotation":[-0.0,-1.0,0.0,-4.371139E-08],"name":"KON021 - Konic Washer Part [8739168]080"},{"mesh":2,"translation":[1.4287434,3.0839918,-1.017324],"name":"KON021 - Konic Washer Part [8739168]031"},{"mesh":2,"translation":[1.4287434,2.8299918,-1.0316231],"rotation":[-0.0,-1.0,0.0,-4.371139E-08],"name":"KON021 - Konic Washer Part [8739168]081"},{"mesh":2,"translation":[1.4287434,2.8299918,-1.017324],"name":"KON021 - Konic Washer Part [8739168]032"},{"mesh":2,"translation":[-0.17010447,1.9866015,-1.0316231],"rotation":[-0.0,-1.0,0.0,-4.371139E-08],"name":"KON021 - Konic Washer Part [8739168]082"},{"mesh":2,"translation":[-0.17010447,1.9866015,-1.017324],"name":"KON021 - Konic Washer Part [8739168]033"},{"mesh":2,"translation":[-0.17010447,1.7326015,-1.0316231],"rotation":[-0.0,-1.0,0.0,-4.371139E-08],"name":"KON021 - Konic Washer Part [8739168]083"},{"mesh":2,"translation":[-0.17010447,1.7326015,-1.017324],"name":"KON021 - Konic Washer Part [8739168]034"},{"mesh":2,"translation":[-0.4367708,1.8037723,-0.0838661],"rotation":[-0.0,-1.0,0.0,-4.371139E-08],"name":"KON021 - Konic Washer Part [8739168]199"},{"mesh":2,"translation":[-0.4367708,1.5497723,-0.0838661],"rotation":[-0.0,-1.0,0.0,-4.371139E-08],"name":"KON021 - Konic Washer Part [8739168]200"},{"mesh":2,"translation":[-0.4367708,1.8037723,-0.069566965],"rotation":[-0.0,-8.742278E-08,0.0,1.0],"name":"KON021 - Konic Washer Part [8739168]201"},{"mesh":2,"translation":[-0.4367708,1.5497723,-0.069566965],"rotation":[-0.0,-8.742278E-08,0.0,1.0],"name":"KON021 - Konic Washer Part [8739168]202"},{"mesh":3,"translation":[-0.17010453,1.4630401,-0.023573017],"rotation":[-0.0,-0.7071068,0.0,0.7071067],"name":"CSQ001-US - Surface Mount Weldment Part [8723797]127"},{"mesh":3,"translation":[0.8957957,2.1944501,-0.023573017],"rotation":[-0.0,-0.7071068,0.0,0.7071067],"name":"CSQ001-US - Surface Mount Weldment Part [8723797]128"},{"mesh":3,"translation":[0.62932134,2.01168,-0.023573017],"rotation":[-0.0,-0.7071068,0.0,0.7071067],"name":"CSQ001-US - Surface Mount Weldment Part [8723797]129"},{"mesh":3,"translation":[1.4287434,2.56032,-0.023573017],"rotation":[-0.0,-0.7071068,0.0,0.7071067],"name":"CSQ001-US - Surface Mount Weldment Part [8723797]130"},{"mesh":3,"translation":[-1.2352822,0.73152006,-0.023504008],"rotation":[-0.0,-0.7071068,0.0,0.7071067],"name":"CSQ001-US - Surface Mount Weldment Part [8723797]131"},{"mesh":3,"translation":[-1.5014544,0.54864,-0.023504008],"rotation":[-0.0,-0.7071068,0.0,0.7071067],"name":"CSQ001-US - Surface Mount Weldment Part [8723797]132"},{"mesh":3,"translation":[-2.0337968,0.18288001,-0.023504008],"rotation":[-0.0,-0.7071068,0.0,0.7071067],"name":"CSQ001-US - Surface Mount Weldment Part [8723797]133"},{"mesh":3,"translation":[-0.43677065,1.2800497,-1.0776048],"rotation":[-0.0,0.7071066,0.0,0.70710695],"name":"CSQ001-US - Surface Mount Weldment Part [8723797]134"},{"mesh":3,"translation":[-1.2352822,0.73152006,-1.0776048],"rotation":[-0.0,0.7071066,0.0,0.70710695],"name":"CSQ001-US - Surface Mount Weldment Part [8723797]135"},{"mesh":3,"translation":[-1.5014544,0.54864,-1.0776048],"rotation":[-0.0,0.7071066,0.0,0.70710695],"name":"CSQ001-US - Surface Mount Weldment Part [8723797]136"},{"mesh":3,"translation":[-2.0337968,0.18288001,-1.0776045],"rotation":[-0.0,0.7071066,0.0,0.70710695],"name":"CSQ001-US - Surface Mount Weldment Part [8723797]137"},{"mesh":3,"translation":[0.8957957,2.1944501,-1.0776738],"rotation":[-0.0,0.7071068,0.0,0.7071067],"name":"CSQ001-US - Surface Mount Weldment Part [8723797]138"},{"mesh":3,"translation":[0.62932134,2.01168,-1.0776738],"rotation":[-0.0,0.7071068,0.0,0.7071067],"name":"CSQ001-US - Surface Mount Weldment Part [8723797]139"},{"mesh":3,"translation":[1.4287434,2.56032,-1.0776738],"rotation":[-0.0,0.7071068,0.0,0.7071067],"name":"CSQ001-US - Surface Mount Weldment Part [8723797]140"},{"mesh":3,"translation":[-0.17010447,1.4629296,-1.0776738],"rotation":[-0.0,0.7071068,0.0,0.7071067],"name":"CSQ001-US - Surface Mount Weldment Part [8723797]141"},{"mesh":3,"translation":[-0.4367708,1.2800497,-0.023516288],"rotation":[-0.0,-0.70710707,0.0,0.7071065],"name":"CSQ001-US - Surface Mount Weldment Part [8723797]146"},{"mesh":4,"translation":[-0.17010453,1.4630401,-0.023573017],"rotation":[0.5,0.5,0.50000006,0.49999994],"scale":[1.0,0.99999994,0.99999994],"name":"LS147 & LS148 - Kubit Post Material LS Material [8739192]002"},{"mesh":4,"translation":[0.8957957,2.1944501,-0.023573017],"rotation":[0.5,0.5,0.50000006,0.49999994],"scale":[1.0,0.99999994,0.99999994],"name":"LS147 & LS148 - Kubit Post Material LS Material [8739192]003"},{"mesh":4,"translation":[0.62932134,2.01168,-0.023573017],"rotation":[0.5,0.5,0.50000006,0.49999994],"scale":[1.0,0.99999994,0.99999994],"name":"LS147 & LS148 - Kubit Post Material LS Material [8739192]004"},{"mesh":4,"translation":[1.4287434,2.56032,-0.023573017],"rotation":[0.5,0.5,0.50000006,0.49999994],"scale":[1.0,0.99999994,0.99999994],"name":"LS147 & LS148 - Kubit Post Material LS Material [8739192]005"},{"mesh":4,"translation":[-1.2352822,0.73152006,-0.023504008],"rotation":[0.49999988,0.5,0.50000006,0.50000006],"scale":[1.0,0.99999994,0.99999994],"name":"LS147 & LS148 - Kubit Post Material LS Material [8739192]007"},{"mesh":4,"translation":[-1.5014544,0.54864,-0.023504008],"rotation":[0.49999988,0.5,0.50000006,0.50000006],"scale":[1.0,0.99999994,0.99999994],"name":"LS147 & LS148 - Kubit Post Material LS Material [8739192]008"},{"mesh":4,"translation":[-2.0337968,0.18288001,-0.023504008],"rotation":[0.49999988,0.5,0.50000006,0.50000006],"scale":[1.0,0.99999994,0.99999994],"name":"LS147 & LS148 - Kubit Post Material LS Material [8739192]009"},{"mesh":4,"translation":[-0.43677065,1.2800497,-1.0776048],"rotation":[-0.49999994,-0.50000006,0.5,0.5],"scale":[1.0,0.99999994,0.99999994],"name":"LS147 & LS148 - Kubit Post Material LS Material [8739192]010"},{"mesh":4,"translation":[-1.2352822,0.73152006,-1.0776048],"rotation":[-0.49999994,-0.50000006,0.5,0.5],"scale":[1.0,0.99999994,0.99999994],"name":"LS147 & LS148 - Kubit Post Material LS Material [8739192]011"},{"mesh":4,"translation":[-1.5014544,0.54864,-1.0776048],"rotation":[-0.49999994,-0.50000006,0.5,0.5],"scale":[1.0,0.99999994,0.99999994],"name":"LS147 & LS148 - Kubit Post Material LS Material [8739192]012"},{"mesh":4,"translation":[-2.0337968,0.18288001,-1.0776045],"rotation":[-0.49999994,-0.50000006,0.5,0.5],"scale":[1.0,0.99999994,0.99999994],"name":"LS147 & LS148 - Kubit Post Material LS Material [8739192]013"},{"mesh":4,"translation":[0.8957957,2.1944501,-1.0776738],"rotation":[-0.5,-0.5,0.50000006,0.49999994],"name":"LS147 & LS148 - Kubit Post Material LS Material [8739192]014"},{"mesh":4,"translation":[0.62932134,2.01168,-1.0776738],"rotation":[-0.5,-0.5,0.50000006,0.49999994],"name":"LS147 & LS148 - Kubit Post Material LS Material [8739192]015"},{"mesh":4,"translation":[1.4287434,2.56032,-1.0776738],"rotation":[-0.5,-0.5,0.50000006,0.49999994],"name":"LS147 & LS148 - Kubit Post Material LS Material [8739192]016"},{"mesh":4,"translation":[-0.17010447,1.4629296,-1.0776738],"rotation":[-0.5,-0.5,0.50000006,0.49999994],"name":"LS147 & LS148 - Kubit Post Material LS Material [8739192]017"},{"mesh":4,"translation":[-0.4367708,1.2800497,-0.023516288],"rotation":[0.4999999,0.4999999,0.5000001,0.50000006],"name":"LS147 & LS148 - Kubit Post Material LS Material [8739192]049"},{"mesh":5,"translation":[-0.2999639,0.0,-0.07673256],"name":"Box010"},{"mesh":5,"translation":[-0.2999639,0.0,-1.0243795],"name":"Box011"},{"mesh":6,"translation":[-0.29534957,2.376288,-1.0243602],"name":"Generic Models 11 Generic Models 11 [8762451]009"},{"mesh":6,"translation":[-0.29534957,2.376288,-0.07671316],"name":"Generic Models 11 Generic Models 11 [8762451]010"}],"meshes":[{"primitives":[{"attributes":{"POSITION":1,"TANGENT":2,"NORMAL":3,"TEXCOORD_0":4},"indices":0,"material":0},{"attributes":{"POSITION":6,"TANGENT":7,"NORMAL":8,"TEXCOORD_0":9},"indices":5,"material":1}],"name":"KUB009 - Top Barrel Mount Part [8739165]026"},{"primitives":[{"attributes":{"POSITION":11,"TANGENT":12,"NORMAL":13,"TEXCOORD_0":14},"indices":10,"material":0},{"attributes":{"POSITION":16,"TANGENT":17,"NORMAL":18,"TEXCOORD_0":19},"indices":15,"material":1}],"name":"KON006 - Lower Panel Clamp Part [8739162]003"},{"primitives":[{"attributes":{"POSITION":21,"TANGENT":22,"NORMAL":23,"TEXCOORD_0":24},"indices":20,"material":2}],"name":"KON021 - Konic Washer Part [8739168]052"},{"primitives":[{"attributes":{"POSITION":26,"TANGENT":27,"NORMAL":28,"TEXCOORD_0":29},"indices":25,"material":0}],"name":"CSQ001-US - Surface Mount Weldment Part [8723797]127"},{"primitives":[{"attributes":{"POSITION":31,"TANGENT":32,"NORMAL":33,"TEXCOORD_0":34},"indices":30,"material":0}],"name":"LS147 & LS148 - Kubit Post Material LS Material [8739192]002"},{"primitives":[{"attributes":{"POSITION":36,"TANGENT":37,"NORMAL":38,"TEXCOORD_0":39},"indices":35,"material":3}],"name":"Box010"},{"primitives":[{"attributes":{"POSITION":41,"TANGENT":42,"NORMAL":43,"TEXCOORD_0":44},"indices":40,"material":0},{"attributes":{"POSITION":46,"TANGENT":47,"NORMAL":48,"TEXCOORD_0":49},"indices":45,"material":1}],"name":"Generic Models 11 Generic Models 11 [8762451]009"}],"accessors":[{"bufferView":0,"componentType":5123,"count":1836,"type":"SCALAR","name":"accessorIndices"},{"bufferView":1,"componentType":5126,"count":501,"max":[0.044475403,0.015875,0.015875],"min":[-0.031724602,-0.015875,-0.015875],"type":"VEC3","name":"accessorPositions"},{"bufferView":2,"componentType":5126,"count":501,"type":"VEC4","name":"accessorTangents"},{"bufferView":1,"byteOffset":6012,"componentType":5126,"count":501,"type":"VEC3","name":"accessorNormals"},{"bufferView":3,"componentType":5126,"count":501,"type":"VEC2","name":"accessorUVs"},{"bufferView":0,"byteOffset":3672,"componentType":5123,"count":570,"type":"SCALAR","name":"accessorIndices"},{"bufferView":1,"byteOffset":12024,"componentType":5126,"count":192,"max":[0.044475403,0.015875,0.015875],"min":[-0.031724602,-0.015875,-0.015875],"type":"VEC3","name":"accessorPositions"},{"bufferView":2,"byteOffset":8016,"componentType":5126,"count":192,"type":"VEC4","name":"accessorTangents"},{"bufferView":1,"byteOffset":14328,"componentType":5126,"count":192,"type":"VEC3","name":"accessorNormals"},{"bufferView":3,"byteOffset":4008,"componentType":5126,"count":192,"type":"VEC2","name":"accessorUVs"},{"bufferView":0,"byteOffset":4812,"componentType":5123,"count":864,"type":"SCALAR","name":"accessorIndices"},{"bufferView":1,"byteOffset":16632,"componentType":5126,"count":292,"max":[0.006604,0.015875,0.015875],"min":[-0.022722581,-0.015875,-0.015875],"type":"VEC3","name":"accessorPositions"},{"bufferView":2,"byteOffset":11088,"componentType":5126,"count":292,"type":"VEC4","name":"accessorTangents"},{"bufferView":1,"byteOffset":20136,"componentType":5126,"count":292,"type":"VEC3","name":"accessorNormals"},{"bufferView":3,"byteOffset":5544,"componentType":5126,"count":292,"type":"VEC2","name":"accessorUVs"},{"bufferView":0,"byteOffset":6540,"componentType":5123,"count":858,"type":"SCALAR","name":"accessorIndices"},{"bufferView":1,"byteOffset":23640,"componentType":5126,"count":289,"max":[0.006604,0.015875,0.015875],"min":[-0.022722581,-0.015875,-0.015875],"type":"VEC3","name":"accessorPositions"},{"bufferView":2,"byteOffset":15760,"componentType":5126,"count":289,"type":"VEC4","name":"accessorTangents"},{"bufferView":1,"byteOffset":27108,"componentType":5126,"count":289,"type":"VEC3","name":"accessorNormals"},{"bufferView":3,"byteOffset":7880,"componentType":5126,"count":289,"type":"VEC2","name":"accessorUVs"},{"bufferView":0,"byteOffset":8256,"componentType":5123,"count":1440,"type":"SCALAR","name":"accessorIndices"},{"bufferView":1,"byteOffset":30576,"componentType":5126,"count":484,"max":[0.012700001,0.012700001,0.0015748],"min":[-0.012700001,-0.012700001,8.253881E-15],"type":"VEC3","name":"accessorPositions"},{"bufferView":2,"byteOffset":20384,"componentType":5126,"count":484,"type":"VEC4","name":"accessorTangents"},{"bufferView":1,"byteOffset":36384,"componentType":5126,"count":484,"type":"VEC3","name":"accessorNormals"},{"bufferView":3,"byteOffset":10192,"componentType":5126,"count":484,"type":"VEC2","name":"accessorUVs"},{"bufferView":0,"byteOffset":11136,"componentType":5123,"count":570,"type":"SCALAR","name":"accessorIndices"},{"bufferView":1,"byteOffset":42192,"componentType":5126,"count":189,"max":[0.053975,0.025400002,0.053975],"min":[-0.053975,-3.0953716E-15,-0.053975],"type":"VEC3","name":"accessorPositions"},{"bufferView":2,"byteOffset":28128,"componentType":5126,"count":189,"type":"VEC4","name":"accessorTangents"},{"bufferView":1,"byteOffset":44460,"componentType":5126,"count":189,"type":"VEC3","name":"accessorNormals"},{"bufferView":3,"byteOffset":14064,"componentType":5126,"count":189,"type":"VEC2","name":"accessorUVs"},{"bufferView":0,"byteOffset":12276,"componentType":5123,"count":36,"type":"SCALAR","name":"accessorIndices"},{"bufferView":1,"byteOffset":46728,"componentType":5126,"count":24,"max":[0.5350256,0.025400002,0.0063500004],"min":[6.3589614E-15,-0.025400002,-0.0063500004],"type":"VEC3","name":"accessorPositions"},{"bufferView":2,"byteOffset":31152,"componentType":5126,"count":24,"type":"VEC4","name":"accessorTangents"},{"bufferView":1,"byteOffset":47016,"componentType":5126,"count":24,"type":"VEC3","name":"accessorNormals"},{"bufferView":3,"byteOffset":15576,"componentType":5126,"count":24,"type":"VEC2","name":"accessorUVs"},{"bufferView":0,"byteOffset":12348,"componentType":5123,"count":144,"type":"SCALAR","name":"accessorIndices"},{"bufferView":1,"byteOffset":47304,"componentType":5126,"count":96,"max":[1.8935392,3.686544,0.007143598],"min":[-1.8863822,0.19727604,-0.007143598],"type":"VEC3","name":"accessorPositions"},{"bufferView":2,"byteOffset":31536,"componentType":5126,"count":96,"type":"VEC4","name":"accessorTangents"},{"bufferView":1,"byteOffset":48456,"componentType":5126,"count":96,"type":"VEC3","name":"accessorNormals"},{"bufferView":3,"byteOffset":15768,"componentType":5126,"count":96,"type":"VEC2","name":"accessorUVs"},{"bufferView":0,"byteOffset":12636,"componentType":5123,"count":4080,"type":"SCALAR","name":"accessorIndices"},{"bufferView":1,"byteOffset":49608,"componentType":5126,"count":1526,"max":[1.8968263,1.3227077,0.019062791],"min":[-1.8968263,-1.3227078,-0.019062791],"type":"VEC3","name":"accessorPositions"},{"bufferView":2,"byteOffset":33072,"componentType":5126,"count":1526,"type":"VEC4","name":"accessorTangents"},{"bufferView":1,"byteOffset":67920,"componentType":5126,"count":1526,"type":"VEC3","name":"accessorNormals"},{"bufferView":3,"byteOffset":16536,"componentType":5126,"count":1526,"type":"VEC2","name":"accessorUVs"},{"bufferView":0,"byteOffset":20796,"componentType":5123,"count":738,"type":"SCALAR","name":"accessorIndices"},{"bufferView":1,"byteOffset":86232,"componentType":5126,"count":252,"max":[1.8968263,1.3227077,0.019062791],"min":[-1.8968263,-1.3227075,-0.019062791],"type":"VEC3","name":"accessorPositions"},{"bufferView":2,"byteOffset":57488,"componentType":5126,"count":252,"type":"VEC4","name":"accessorTangents"},{"bufferView":1,"byteOffset":89256,"componentType":5126,"count":252,"type":"VEC3","name":"accessorNormals"},{"bufferView":3,"byteOffset":28744,"componentType":5126,"count":252,"type":"VEC2","name":"accessorUVs"}],"bufferViews":[{"buffer":0,"byteLength":22272,"name":"bufferViewScalar"},{"buffer":0,"byteOffset":22272,"byteLength":92280,"byteStride":12,"name":"bufferViewFloatVec3"},{"buffer":0,"byteOffset":114552,"byteLength":61520,"byteStride":16,"name":"bufferViewFloatVec4"},{"buffer":0,"byteOffset":176072,"byteLength":30760,"byteStride":8,"name":"bufferViewFloatVec2"}],"buffers":[{"uri":"Straight_Railing_Lo-Post_Flatbar.bin","byteLength":206832}],"materials":[{"pbrMetallicRoughness":{"baseColorFactor":[0.9999998,0.9999999,0.9999999,1.0],"baseColorTexture":{"index":0,"extensions":{"KHR_texture_transform":{"offset":[0.19519997,0.8048],"rotation":1.5707964,"scale":[0.6096,0.6096],"texCoord":0}}},"roughnessFactor":0.2,"metallicRoughnessTexture":{"index":0,"extensions":{"KHR_texture_transform":{"offset":[0.19519997,0.8048],"rotation":1.5707964,"scale":[0.6096,0.6096],"texCoord":0}}}},"name":"Steel_Linear"},{"pbrMetallicRoughness":{"baseColorFactor":[0.9999998,0.9999999,0.9999999,1.0],"baseColorTexture":{"index":1},"roughnessFactor":0.2,"metallicRoughnessTexture":{"index":1}},"name":"Steel_Radial"},{"pbrMetallicRoughness":{"baseColorFactor":[0.10641303,0.10641304,0.10641304,1.0],"metallicFactor":0.0,"roughnessFactor":0.99,"metallicRoughnessTexture":{"index":2}},"name":"Rubber","extensions":{"KHR_materials_specular":{"specularFactor":0.1}}},{"pbrMetallicRoughness":{"baseColorFactor":[0.9999998,0.9999999,0.9999999,1.0],"metallicFactor":0.0,"roughnessFactor":0.1},"name":"Glass","extensions":{"KHR_materials_ior":{"ior":1.0},"KHR_materials_transmission":{"transmissionFactor":0.97},"KHR_materials_volume":{"thicknessFactor":0.56,"attenuationDistance":0.5,"attenuationColor":[0.49521634,0.56476736,0.5317566]}}}],"textures":[{"sampler":0,"source":0,"name":"Metal_Brushed_Linear_4k.jpg"},{"sampler":0,"source":1,"name":"Metal_Brushed_Radial_4k.jpg"},{"sampler":0,"source":2,"name":"PowderCoat_Roughness_2k0.jpg"}],"images":[{"uri":"textures/Metal_Brushed_Linear_4k.jpg"},{"uri":"textures/Metal_Brushed_Radial_4k.jpg"},{"uri":"textures/PowderCoat_Roughness_2k0.jpg"}],"samplers":[{"magFilter":9729,"minFilter":9987}]}