{"asset":{"version":"2.0","generator":"babylon.js glTF exporter for 3dsmax 2026 v20251111.2"},"extensionsUsed":["KHR_texture_transform","KHR_materials_specular","KHR_materials_ior","KHR_materials_transmission","KHR_materials_volume"],"extensionsRequired":["KHR_texture_transform"],"scene":0,"scenes":[{"nodes":[0,1,2,3,4,5,6,7,8,9,10,11,12,13,14,15,16,17,18,19,20,21,22,23,24,25,26,27,28,29,30,31,32,33,34,35,36,37,38,39,40,41,42,43,44,45,46,47,48,49,50,51,52,53,54,55,56,57,58,59,60,61,62,63,64,65,66,67,68,69,70,71,72,73,74,75,76,77,78,79,80,81,82,83,84,85,86,87,88,89,90,91,92,93,94,95,96,97,98,99,100,101,102,103,104,105,106,107,108,109,110,111,112,113,114,115,116,117,118,119,120,121,122,123,124,125,126,127,128,129,130,131,132,133,134,135,136,137,138,139,140,141,142,143,144,145,146,147,148,149,150,151,152,153,154,155,156,157,158,159,160,161,162,163,164,165,166,167,168,169,170,171,172,173,174,175,176,177,178,179]}],"nodes":[{"mesh":0,"translation":[-0.17010453,2.0197995,-0.037563115],"rotation":[-0.0,-0.7071068,0.0,0.7071067],"name":"CIR006 - Post Cap Part [9209946]001"},{"mesh":0,"translation":[0.6293214,2.5681064,-0.037563115],"rotation":[-0.0,-0.7071068,0.0,0.7071067],"name":"CIR006 - Post Cap Part [9209946]002"},{"mesh":0,"translation":[0.89579564,2.75143,-0.037563115],"rotation":[-0.0,-0.7071068,0.0,0.7071067],"name":"CIR006 - Post Cap Part [9209946]003"},{"mesh":0,"translation":[1.4287441,3.1171894,-0.037563115],"rotation":[-0.0,-0.7071068,0.0,0.7071067],"name":"CIR006 - Post Cap Part [9209946]004"},{"mesh":0,"translation":[-1.2352822,1.2883894,-0.037495885],"rotation":[-0.0,-0.7071068,0.0,0.7071067],"name":"CIR006 - Post Cap Part [9209946]006"},{"mesh":0,"translation":[-1.5014544,1.1055093,-0.037495885],"rotation":[-0.0,-0.7071068,0.0,0.7071067],"name":"CIR006 - Post Cap Part [9209946]007"},{"mesh":0,"translation":[-2.0337968,0.7397496,-0.037495885],"rotation":[-0.0,-0.7071068,0.0,0.7071067],"name":"CIR006 - Post Cap Part [9209946]008"},{"mesh":0,"translation":[-1.2352822,1.2883894,-1.0636147],"rotation":[-0.0,0.7071066,0.0,0.70710695],"name":"CIR006 - Post Cap Part [9209946]010"},{"mesh":0,"translation":[-1.5014544,1.1055093,-1.0636147],"rotation":[-0.0,0.7071066,0.0,0.70710695],"name":"CIR006 - Post Cap Part [9209946]011"},{"mesh":0,"translation":[-2.0337968,0.7397496,-1.0636147],"rotation":[-0.0,0.7071066,0.0,0.70710695],"name":"CIR006 - Post Cap Part [9209946]012"},{"mesh":0,"translation":[0.6293214,2.5681064,-1.0636818],"rotation":[-0.0,0.7071068,0.0,0.7071067],"name":"CIR006 - Post Cap Part [9209946]013"},{"mesh":0,"translation":[0.89579564,2.75143,-1.0636818],"rotation":[-0.0,0.7071068,0.0,0.7071067],"name":"CIR006 - Post Cap Part [9209946]014"},{"mesh":0,"translation":[1.4287441,3.1171894,-1.0636818],"rotation":[-0.0,0.7071068,0.0,0.7071067],"name":"CIR006 - Post Cap Part [9209946]015"},{"mesh":0,"translation":[-0.17010434,2.0198,-1.0636818],"rotation":[-0.0,0.7071068,0.0,0.7071067],"name":"CIR006 - Post Cap Part [9209946]016"},{"mesh":0,"translation":[-0.4367709,1.83703,-0.037563115],"rotation":[-0.0,-0.7071068,0.0,0.7071067],"name":"CIR006 - Post Cap Part [9209946]017"},{"mesh":0,"translation":[-0.4367707,1.8370306,-1.0636818],"rotation":[-0.0,0.7071068,0.0,0.7071067],"name":"CIR006 - Post Cap Part [9209946]018"},{"mesh":1,"translation":[-0.17010453,1.46293,-0.037563115],"name":"LS103 & LS116 - Circum Round Post Material LS Material [9209234]"},{"mesh":1,"translation":[-0.4367709,1.2801605,-0.037563115],"name":"LS103 & LS116 - Circum Round Post Material LS Material [9209234]001"},{"mesh":2,"translation":[-0.17010453,1.9912244,-0.037563115],"rotation":[-0.0,0.7071068,0.0,0.7071067],"name":"CIR088 - Circum Round Lo-Post Cope Part [9209257]050"},{"mesh":2,"translation":[-0.17010453,1.7372242,-0.037563115],"rotation":[-0.0,0.7071068,0.0,0.7071067],"name":"CIR088 - Circum Round Lo-Post Cope Part [9209257]001"},{"mesh":2,"translation":[0.6293214,2.5395315,-0.037563115],"rotation":[-0.0,0.7071068,0.0,0.7071067],"name":"CIR088 - Circum Round Lo-Post Cope Part [9209257]002"},{"mesh":2,"translation":[0.6293214,2.2855308,-0.037563115],"rotation":[-0.0,0.7071068,0.0,0.7071067],"name":"CIR088 - Circum Round Lo-Post Cope Part [9209257]003"},{"mesh":2,"translation":[0.89579564,2.722855,-0.037563115],"rotation":[-0.0,0.7071068,0.0,0.7071067],"name":"CIR088 - Circum Round Lo-Post Cope Part [9209257]004"},{"mesh":2,"translation":[0.89579564,2.4688551,-0.037563115],"rotation":[-0.0,0.7071068,0.0,0.7071067],"name":"CIR088 - Circum Round Lo-Post Cope Part [9209257]005"},{"mesh":2,"translation":[1.4287441,3.0886145,-0.037563115],"rotation":[-0.0,0.7071068,0.0,0.7071067],"name":"CIR088 - Circum Round Lo-Post Cope Part [9209257]006"},{"mesh":2,"translation":[1.4287441,2.8346148,-0.037563115],"rotation":[-0.0,0.7071068,0.0,0.7071067],"name":"CIR088 - Circum Round Lo-Post Cope Part [9209257]007"},{"mesh":2,"translation":[-1.2352822,1.2598144,-0.037495885],"rotation":[-0.0,0.7071066,0.0,0.70710695],"name":"CIR088 - Circum Round Lo-Post Cope Part [9209257]010"},{"mesh":2,"translation":[-1.2352822,1.0058148,-0.037495885],"rotation":[-0.0,0.7071066,0.0,0.70710695],"name":"CIR088 - Circum Round Lo-Post Cope Part [9209257]011"},{"mesh":2,"translation":[-1.5014544,1.0769343,-0.037495885],"rotation":[-0.0,0.7071066,0.0,0.70710695],"name":"CIR088 - Circum Round Lo-Post Cope Part [9209257]012"},{"mesh":2,"translation":[-1.5014544,0.8229347,-0.037495885],"rotation":[-0.0,0.7071066,0.0,0.70710695],"name":"CIR088 - Circum Round Lo-Post Cope Part [9209257]013"},{"mesh":2,"translation":[-2.0337968,0.7111746,-0.037495885],"rotation":[-0.0,0.7071066,0.0,0.70710695],"name":"CIR088 - Circum Round Lo-Post Cope Part [9209257]014"},{"mesh":2,"translation":[-2.0337968,0.45717472,-0.037495885],"rotation":[-0.0,0.7071066,0.0,0.70710695],"name":"CIR088 - Circum Round Lo-Post Cope Part [9209257]015"},{"mesh":2,"translation":[-1.2352822,1.2598144,-1.0636147],"rotation":[-0.0,-0.7071068,0.0,0.7071067],"name":"CIR088 - Circum Round Lo-Post Cope Part [9209257]018"},{"mesh":2,"translation":[-1.2352822,1.0058148,-1.0636147],"rotation":[-0.0,-0.7071068,0.0,0.7071067],"name":"CIR088 - Circum Round Lo-Post Cope Part [9209257]019"},{"mesh":2,"translation":[-1.5014544,1.0769343,-1.0636147],"rotation":[-0.0,-0.7071068,0.0,0.7071067],"name":"CIR088 - Circum Round Lo-Post Cope Part [9209257]020"},{"mesh":2,"translation":[-1.5014544,0.8229347,-1.0636147],"rotation":[-0.0,-0.7071068,0.0,0.7071067],"name":"CIR088 - Circum Round Lo-Post Cope Part [9209257]021"},{"mesh":2,"translation":[-2.0337968,0.7111746,-1.0636147],"rotation":[-0.0,-0.7071068,0.0,0.7071067],"name":"CIR088 - Circum Round Lo-Post Cope Part [9209257]022"},{"mesh":2,"translation":[-2.0337968,0.45717472,-1.0636147],"rotation":[-0.0,-0.7071068,0.0,0.7071067],"name":"CIR088 - Circum Round Lo-Post Cope Part [9209257]023"},{"mesh":2,"translation":[0.6293214,2.5395315,-1.0636818],"rotation":[-0.0,-0.7071068,0.0,0.7071067],"name":"CIR088 - Circum Round Lo-Post Cope Part [9209257]024"},{"mesh":2,"translation":[0.6293214,2.2855308,-1.0636818],"rotation":[-0.0,-0.7071068,0.0,0.7071067],"name":"CIR088 - Circum Round Lo-Post Cope Part [9209257]025"},{"mesh":2,"translation":[0.89579564,2.722855,-1.0636818],"rotation":[-0.0,-0.7071068,0.0,0.7071067],"name":"CIR088 - Circum Round Lo-Post Cope Part [9209257]026"},{"mesh":2,"translation":[0.89579564,2.4688551,-1.0636818],"rotation":[-0.0,-0.7071068,0.0,0.7071067],"name":"CIR088 - Circum Round Lo-Post Cope Part [9209257]027"},{"mesh":2,"translation":[1.4287441,3.0886145,-1.0636818],"rotation":[-0.0,-0.7071068,0.0,0.7071067],"name":"CIR088 - Circum Round Lo-Post Cope Part [9209257]028"},{"mesh":2,"translation":[1.4287441,2.8346148,-1.0636818],"rotation":[-0.0,-0.7071068,0.0,0.7071067],"name":"CIR088 - Circum Round Lo-Post Cope Part [9209257]029"},{"mesh":2,"translation":[-0.17010434,1.991225,-1.0636818],"rotation":[-0.0,-0.7071068,0.0,0.7071067],"name":"CIR088 - Circum Round Lo-Post Cope Part [9209257]030"},{"mesh":2,"translation":[-0.17010434,1.7372249,-1.0636818],"rotation":[-0.0,-0.7071068,0.0,0.7071067],"name":"CIR088 - Circum Round Lo-Post Cope Part [9209257]031"},{"mesh":2,"translation":[-0.4367709,1.5544548,-0.037563115],"rotation":[-0.0,0.7071068,0.0,0.7071067],"name":"CIR088 - Circum Round Lo-Post Cope Part [9209257]051"},{"mesh":2,"translation":[-0.4367707,1.8084556,-1.0636818],"rotation":[-0.0,-0.7071068,0.0,0.7071067],"name":"CIR088 - Circum Round Lo-Post Cope Part [9209257]052"},{"mesh":2,"translation":[-0.4367707,1.5544555,-1.0636818],"rotation":[-0.0,-0.7071068,0.0,0.7071067],"name":"CIR088 - Circum Round Lo-Post Cope Part [9209257]053"},{"mesh":2,"translation":[-0.4367709,1.808455,-0.037563115],"rotation":[-0.0,0.7071068,0.0,0.7071067],"name":"CIR088 - Circum Round Lo-Post Cope Part [9209257]054"},{"mesh":3,"translation":[-0.17010453,1.9912244,-0.08391842],"rotation":[-0.0,0.7071068,0.0,0.7071067],"name":"OPT006A - Optik Glass Pad Part [9209250]"},{"mesh":3,"translation":[-0.17010453,1.7372242,-0.08391842],"rotation":[-0.0,0.7071068,0.0,0.7071067],"name":"OPT006A - Optik Glass Pad Part [9209259]"},{"mesh":3,"translation":[0.6293214,2.5395315,-0.08391842],"rotation":[-0.0,0.7071068,0.0,0.7071067],"name":"OPT006A - Optik Glass Pad Part [9209288]"},{"mesh":3,"translation":[0.6293214,2.2855308,-0.08391842],"rotation":[-0.0,0.7071068,0.0,0.7071067],"name":"OPT006A - Optik Glass Pad Part [9209294]"},{"mesh":3,"translation":[0.89579564,2.722855,-0.08391842],"rotation":[-0.0,0.7071068,0.0,0.7071067],"name":"OPT006A - Optik Glass Pad Part [9209323]"},{"mesh":3,"translation":[0.89579564,2.4688551,-0.08391842],"rotation":[-0.0,0.7071068,0.0,0.7071067],"name":"OPT006A - Optik Glass Pad Part [9209329]"},{"mesh":3,"translation":[1.4287441,3.0886145,-0.08391842],"rotation":[-0.0,0.7071068,0.0,0.7071067],"name":"OPT006A - Optik Glass Pad Part [9209358]"},{"mesh":3,"translation":[1.4287441,2.8346148,-0.08391842],"rotation":[-0.0,0.7071068,0.0,0.7071067],"name":"OPT006A - Optik Glass Pad Part [9209364]"},{"mesh":3,"translation":[-1.2352822,1.2598144,-1.0172594],"rotation":[-0.0,-0.7071068,0.0,0.7071067],"name":"OPT006A - Optik Glass Pad Part [9209568]"},{"mesh":3,"translation":[-1.2352822,1.0058148,-1.0172594],"rotation":[-0.0,-0.7071068,0.0,0.7071067],"name":"OPT006A - Optik Glass Pad Part [9209574]"},{"mesh":3,"translation":[-1.5014544,1.0769343,-1.0172594],"rotation":[-0.0,-0.7071068,0.0,0.7071067],"name":"OPT006A - Optik Glass Pad Part [9209603]"},{"mesh":3,"translation":[-1.5014544,0.8229347,-1.0172594],"rotation":[-0.0,-0.7071068,0.0,0.7071067],"name":"OPT006A - Optik Glass Pad Part [9209609]"},{"mesh":3,"translation":[-2.0337968,0.7111746,-1.0172595],"rotation":[-0.0,-0.7071068,0.0,0.7071067],"name":"OPT006A - Optik Glass Pad Part [9209638]"},{"mesh":3,"translation":[-2.0337968,0.45717472,-1.0172595],"rotation":[-0.0,-0.7071068,0.0,0.7071067],"name":"OPT006A - Optik Glass Pad Part [9209644]"},{"mesh":3,"translation":[-0.4367709,1.808455,-0.08391842],"rotation":[-0.0,0.7071068,0.0,0.7071067],"name":"OPT006A - Optik Glass Pad Part [9209250]001"},{"mesh":3,"translation":[-0.4367709,1.5544548,-0.08391842],"rotation":[-0.0,0.7071068,0.0,0.7071067],"name":"OPT006A - Optik Glass Pad Part [9209259]001"},{"mesh":4,"translation":[-0.17010453,1.9912244,-0.068040326],"rotation":[-0.0,0.7071068,0.0,0.7071067],"name":"OPT006 - Optik Glass Pad Part [9209251]"},{"mesh":4,"translation":[-0.17010453,1.7372242,-0.068040326],"rotation":[-0.0,0.7071068,0.0,0.7071067],"name":"OPT006 - Optik Glass Pad Part [9209260]"},{"mesh":4,"translation":[0.6293214,2.5395315,-0.068040326],"rotation":[-0.0,0.7071068,0.0,0.7071067],"name":"OPT006 - Optik Glass Pad Part [9209289]"},{"mesh":4,"translation":[0.6293214,2.2855308,-0.068040326],"rotation":[-0.0,0.7071068,0.0,0.7071067],"name":"OPT006 - Optik Glass Pad Part [9209295]"},{"mesh":4,"translation":[0.89579564,2.722855,-0.068040326],"rotation":[-0.0,0.7071068,0.0,0.7071067],"name":"OPT006 - Optik Glass Pad Part [9209324]"},{"mesh":4,"translation":[0.89579564,2.4688551,-0.068040326],"rotation":[-0.0,0.7071068,0.0,0.7071067],"name":"OPT006 - Optik Glass Pad Part [9209330]"},{"mesh":4,"translation":[1.4287441,3.0886145,-0.068040326],"rotation":[-0.0,0.7071068,0.0,0.7071067],"name":"OPT006 - Optik Glass Pad Part [9209359]"},{"mesh":4,"translation":[1.4287441,2.8346148,-0.068040326],"rotation":[-0.0,0.7071068,0.0,0.7071067],"name":"OPT006 - Optik Glass Pad Part [9209365]"},{"mesh":4,"translation":[-1.2352822,1.2598144,-1.0331374],"rotation":[-0.0,-0.7071068,0.0,0.7071067],"name":"OPT006 - Optik Glass Pad Part [9209569]"},{"mesh":4,"translation":[-1.2352822,1.0058148,-1.0331374],"rotation":[-0.0,-0.7071068,0.0,0.7071067],"name":"OPT006 - Optik Glass Pad Part [9209575]"},{"mesh":4,"translation":[-1.5014544,1.0769343,-1.0331374],"rotation":[-0.0,-0.7071068,0.0,0.7071067],"name":"OPT006 - Optik Glass Pad Part [9209604]"},{"mesh":4,"translation":[-1.5014544,0.8229347,-1.0331374],"rotation":[-0.0,-0.7071068,0.0,0.7071067],"name":"OPT006 - Optik Glass Pad Part [9209610]"},{"mesh":4,"translation":[-2.0337968,0.7111746,-1.0331376],"rotation":[-0.0,-0.7071068,0.0,0.7071067],"name":"OPT006 - Optik Glass Pad Part [9209639]"},{"mesh":4,"translation":[-2.0337968,0.45717472,-1.0331376],"rotation":[-0.0,-0.7071068,0.0,0.7071067],"name":"OPT006 - Optik Glass Pad Part [9209645]"},{"mesh":4,"translation":[-0.4367709,1.808455,-0.068040326],"rotation":[-0.0,0.7071068,0.0,0.7071067],"name":"OPT006 - Optik Glass Pad Part [9209251]001"},{"mesh":4,"translation":[-0.4367709,1.5544548,-0.068040326],"rotation":[-0.0,0.7071068,0.0,0.7071067],"name":"OPT006 - Optik Glass Pad Part [9209260]001"},{"mesh":5,"translation":[-0.17010453,1.9912244,-0.08549042],"rotation":[-0.0,-0.7071068,0.0,0.7071067],"name":"CIR087 - Circum Round Lo-Post Clamp Part [9209252]003"},{"mesh":5,"translation":[-0.17010453,1.7372242,-0.08549042],"rotation":[-0.0,-0.7071068,0.0,0.7071067],"name":"CIR087 - Circum Round Lo-Post Clamp Part [9209252]004"},{"mesh":5,"translation":[0.6293214,2.5395315,-0.08549042],"rotation":[-0.0,-0.7071068,0.0,0.7071067],"name":"CIR087 - Circum Round Lo-Post Clamp Part [9209252]005"},{"mesh":5,"translation":[0.6293214,2.2855308,-0.08549042],"rotation":[-0.0,-0.7071068,0.0,0.7071067],"name":"CIR087 - Circum Round Lo-Post Clamp Part [9209252]006"},{"mesh":5,"translation":[0.89579564,2.722855,-0.08549042],"rotation":[-0.0,-0.7071068,0.0,0.7071067],"name":"CIR087 - Circum Round Lo-Post Clamp Part [9209252]007"},{"mesh":5,"translation":[0.89579564,2.4688551,-0.08549042],"rotation":[-0.0,-0.7071068,0.0,0.7071067],"name":"CIR087 - Circum Round Lo-Post Clamp Part [9209252]008"},{"mesh":5,"translation":[1.4287441,3.0886145,-0.08549042],"rotation":[-0.0,-0.7071068,0.0,0.7071067],"name":"CIR087 - Circum Round Lo-Post Clamp Part [9209252]009"},{"mesh":5,"translation":[1.4287441,2.8346148,-0.08549042],"rotation":[-0.0,-0.7071068,0.0,0.7071067],"name":"CIR087 - Circum Round Lo-Post Clamp Part [9209252]010"},{"mesh":5,"translation":[-1.2352822,1.2598144,-0.085423194],"rotation":[-0.0,-0.7071068,0.0,0.7071067],"name":"CIR087 - Circum Round Lo-Post Clamp Part [9209252]013"},{"mesh":5,"translation":[-1.2352822,1.0058148,-0.085423194],"rotation":[-0.0,-0.7071068,0.0,0.7071067],"name":"CIR087 - Circum Round Lo-Post Clamp Part [9209252]014"},{"mesh":5,"translation":[-1.5014544,1.0769343,-0.085423194],"rotation":[-0.0,-0.7071068,0.0,0.7071067],"name":"CIR087 - Circum Round Lo-Post Clamp Part [9209252]015"},{"mesh":5,"translation":[-1.5014544,0.8229347,-0.085423194],"rotation":[-0.0,-0.7071068,0.0,0.7071067],"name":"CIR087 - Circum Round Lo-Post Clamp Part [9209252]016"},{"mesh":5,"translation":[-2.0337968,0.7111746,-0.085423194],"rotation":[-0.0,-0.7071068,0.0,0.7071067],"name":"CIR087 - Circum Round Lo-Post Clamp Part [9209252]017"},{"mesh":5,"translation":[-2.0337968,0.45717472,-0.085423194],"rotation":[-0.0,-0.7071068,0.0,0.7071067],"name":"CIR087 - Circum Round Lo-Post Clamp Part [9209252]018"},{"mesh":5,"translation":[-1.2352822,1.2598144,-1.0156873],"rotation":[-0.0,0.7071066,0.0,0.70710695],"name":"CIR087 - Circum Round Lo-Post Clamp Part [9209252]021"},{"mesh":5,"translation":[-1.2352822,1.0058148,-1.0156873],"rotation":[-0.0,0.7071066,0.0,0.70710695],"name":"CIR087 - Circum Round Lo-Post Clamp Part [9209252]022"},{"mesh":5,"translation":[-1.5014544,1.0769343,-1.0156873],"rotation":[-0.0,0.7071066,0.0,0.70710695],"name":"CIR087 - Circum Round Lo-Post Clamp Part [9209252]023"},{"mesh":5,"translation":[-1.5014544,0.8229347,-1.0156873],"rotation":[-0.0,0.7071066,0.0,0.70710695],"name":"CIR087 - Circum Round Lo-Post Clamp Part [9209252]024"},{"mesh":5,"translation":[-2.0337968,0.7111746,-1.0156875],"rotation":[-0.0,0.7071066,0.0,0.70710695],"name":"CIR087 - Circum Round Lo-Post Clamp Part [9209252]025"},{"mesh":5,"translation":[-2.0337968,0.45717472,-1.0156875],"rotation":[-0.0,0.7071066,0.0,0.70710695],"name":"CIR087 - Circum Round Lo-Post Clamp Part [9209252]026"},{"mesh":5,"translation":[0.6293214,2.5395315,-1.0157546],"rotation":[-0.0,0.7071068,0.0,0.7071067],"name":"CIR087 - Circum Round Lo-Post Clamp Part [9209252]027"},{"mesh":5,"translation":[0.6293214,2.2855308,-1.0157546],"rotation":[-0.0,0.7071068,0.0,0.7071067],"name":"CIR087 - Circum Round Lo-Post Clamp Part [9209252]028"},{"mesh":5,"translation":[0.89579564,2.722855,-1.0157546],"rotation":[-0.0,0.7071068,0.0,0.7071067],"name":"CIR087 - Circum Round Lo-Post Clamp Part [9209252]029"},{"mesh":5,"translation":[0.89579564,2.4688551,-1.0157546],"rotation":[-0.0,0.7071068,0.0,0.7071067],"name":"CIR087 - Circum Round Lo-Post Clamp Part [9209252]030"},{"mesh":5,"translation":[1.4287441,3.0886145,-1.0157546],"rotation":[-0.0,0.7071068,0.0,0.7071067],"name":"CIR087 - Circum Round Lo-Post Clamp Part [9209252]031"},{"mesh":5,"translation":[1.4287441,2.8346148,-1.0157546],"rotation":[-0.0,0.7071068,0.0,0.7071067],"name":"CIR087 - Circum Round Lo-Post Clamp Part [9209252]032"},{"mesh":5,"translation":[-0.17010434,1.991225,-1.0157546],"rotation":[-0.0,0.7071068,0.0,0.7071067],"name":"CIR087 - Circum Round Lo-Post Clamp Part [9209252]033"},{"mesh":5,"translation":[-0.17010434,1.7372249,-1.0157546],"rotation":[-0.0,0.7071068,0.0,0.7071067],"name":"CIR087 - Circum Round Lo-Post Clamp Part [9209252]034"},{"mesh":5,"translation":[-0.4367709,1.808455,-0.08549042],"rotation":[-0.0,-0.7071068,0.0,0.7071067],"name":"CIR087 - Circum Round Lo-Post Clamp Part [9209252]035"},{"mesh":5,"translation":[-0.4367709,1.5544548,-0.08549042],"rotation":[-0.0,-0.7071068,0.0,0.7071067],"name":"CIR087 - Circum Round Lo-Post Clamp Part [9209252]036"},{"mesh":5,"translation":[-0.4367707,1.8084556,-1.0157546],"rotation":[-0.0,0.7071068,0.0,0.7071067],"name":"CIR087 - Circum Round Lo-Post Clamp Part [9209252]037"},{"mesh":5,"translation":[-0.4367707,1.5544555,-1.0157546],"rotation":[-0.0,0.7071068,0.0,0.7071067],"name":"CIR087 - Circum Round Lo-Post Clamp Part [9209252]038"},{"mesh":6,"translation":[0.6293214,2.0112367,-0.037563115],"name":"LS103 & LS116 - Circum Round Post Material LS Material [9209282]"},{"mesh":7,"translation":[0.89579564,2.1945603,-0.037563115],"name":"LS103 & LS116 - Circum Round Post Material LS Material [9209317]"},{"mesh":8,"translation":[1.4287441,2.56032,-0.037563115],"name":"LS103 & LS116 - Circum Round Post Material LS Material [9209352]"},{"mesh":9,"translation":[-1.2352822,0.7315199,-0.037495885],"rotation":[-0.0,-0.7071068,0.0,0.7071067],"name":"LS103 & LS116 - Circum Round Post Material LS Material [9209422]"},{"mesh":10,"translation":[-1.2352822,1.2598144,-0.08384655],"rotation":[-0.0,0.7071066,0.0,0.70710695],"name":"OPT006A - Optik Glass Pad Part [9209428]"},{"mesh":10,"translation":[-1.2352822,1.0058148,-0.08384655],"rotation":[-0.0,0.7071066,0.0,0.70710695],"name":"OPT006A - Optik Glass Pad Part [9209434]"},{"mesh":10,"translation":[-1.5014544,1.0769343,-0.08384655],"rotation":[-0.0,0.7071066,0.0,0.70710695],"name":"OPT006A - Optik Glass Pad Part [9209463]"},{"mesh":10,"translation":[-1.5014544,0.8229347,-0.08384655],"rotation":[-0.0,0.7071066,0.0,0.70710695],"name":"OPT006A - Optik Glass Pad Part [9209469]"},{"mesh":10,"translation":[-2.0337968,0.7111746,-0.08384655],"rotation":[-0.0,0.7071066,0.0,0.70710695],"name":"OPT006A - Optik Glass Pad Part [9209498]"},{"mesh":10,"translation":[-2.0337968,0.45717472,-0.08384655],"rotation":[-0.0,0.7071066,0.0,0.70710695],"name":"OPT006A - Optik Glass Pad Part [9209504]"},{"mesh":10,"translation":[0.6293214,2.5395315,-1.0173312],"rotation":[-0.0,-0.7071068,0.0,0.7071067],"name":"OPT006A - Optik Glass Pad Part [9209673]"},{"mesh":10,"translation":[0.6293214,2.2855308,-1.0173312],"rotation":[-0.0,-0.7071068,0.0,0.7071067],"name":"OPT006A - Optik Glass Pad Part [9209679]"},{"mesh":10,"translation":[0.89579564,2.722855,-1.0173312],"rotation":[-0.0,-0.7071068,0.0,0.7071067],"name":"OPT006A - Optik Glass Pad Part [9209708]"},{"mesh":10,"translation":[0.89579564,2.4688551,-1.0173312],"rotation":[-0.0,-0.7071068,0.0,0.7071067],"name":"OPT006A - Optik Glass Pad Part [9209714]"},{"mesh":10,"translation":[1.4287441,3.0886145,-1.0173312],"rotation":[-0.0,-0.7071068,0.0,0.7071067],"name":"OPT006A - Optik Glass Pad Part [9209743]"},{"mesh":10,"translation":[1.4287441,2.8346148,-1.0173312],"rotation":[-0.0,-0.7071068,0.0,0.7071067],"name":"OPT006A - Optik Glass Pad Part [9209749]"},{"mesh":10,"translation":[-0.17010434,1.991225,-1.0173312],"rotation":[-0.0,-0.7071068,0.0,0.7071067],"name":"OPT006A - Optik Glass Pad Part [9209778]"},{"mesh":10,"translation":[-0.17010434,1.7372249,-1.0173312],"rotation":[-0.0,-0.7071068,0.0,0.7071067],"name":"OPT006A - Optik Glass Pad Part [9209784]"},{"mesh":10,"translation":[-0.4367707,1.8084556,-1.0173312],"rotation":[-0.0,-0.7071068,0.0,0.7071067],"name":"OPT006A - Optik Glass Pad Part [9209778]001"},{"mesh":10,"translation":[-0.4367707,1.5544555,-1.0173312],"rotation":[-0.0,-0.7071068,0.0,0.7071067],"name":"OPT006A - Optik Glass Pad Part [9209784]001"},{"mesh":11,"translation":[-1.2352822,1.2598144,-0.06797309],"rotation":[-0.0,0.7071066,0.0,0.70710695],"name":"OPT006 - Optik Glass Pad Part [9209429]"},{"mesh":11,"translation":[-1.2352822,1.0058148,-0.06797309],"rotation":[-0.0,0.7071066,0.0,0.70710695],"name":"OPT006 - Optik Glass Pad Part [9209435]"},{"mesh":11,"translation":[-1.5014544,1.0769343,-0.06797309],"rotation":[-0.0,0.7071066,0.0,0.70710695],"name":"OPT006 - Optik Glass Pad Part [9209464]"},{"mesh":11,"translation":[-1.5014544,0.8229347,-0.06797309],"rotation":[-0.0,0.7071066,0.0,0.70710695],"name":"OPT006 - Optik Glass Pad Part [9209470]"},{"mesh":11,"translation":[-2.0337968,0.7111746,-0.06797309],"rotation":[-0.0,0.7071066,0.0,0.70710695],"name":"OPT006 - Optik Glass Pad Part [9209499]"},{"mesh":11,"translation":[-2.0337968,0.45717472,-0.06797309],"rotation":[-0.0,0.7071066,0.0,0.70710695],"name":"OPT006 - Optik Glass Pad Part [9209505]"},{"mesh":11,"translation":[0.6293214,2.5395315,-1.0332047],"rotation":[-0.0,-0.7071068,0.0,0.7071067],"name":"OPT006 - Optik Glass Pad Part [9209674]"},{"mesh":11,"translation":[0.6293214,2.2855308,-1.0332047],"rotation":[-0.0,-0.7071068,0.0,0.7071067],"name":"OPT006 - Optik Glass Pad Part [9209680]"},{"mesh":11,"translation":[0.89579564,2.722855,-1.0332047],"rotation":[-0.0,-0.7071068,0.0,0.7071067],"name":"OPT006 - Optik Glass Pad Part [9209709]"},{"mesh":11,"translation":[0.89579564,2.4688551,-1.0332047],"rotation":[-0.0,-0.7071068,0.0,0.7071067],"name":"OPT006 - Optik Glass Pad Part [9209715]"},{"mesh":11,"translation":[1.4287441,3.0886145,-1.0332047],"rotation":[-0.0,-0.7071068,0.0,0.7071067],"name":"OPT006 - Optik Glass Pad Part [9209744]"},{"mesh":11,"translation":[1.4287441,2.8346148,-1.0332047],"rotation":[-0.0,-0.7071068,0.0,0.7071067],"name":"OPT006 - Optik Glass Pad Part [9209750]"},{"mesh":11,"translation":[-0.17010434,1.991225,-1.0332047],"rotation":[-0.0,-0.7071068,0.0,0.7071067],"name":"OPT006 - Optik Glass Pad Part [9209779]"},{"mesh":11,"translation":[-0.17010434,1.7372249,-1.0332047],"rotation":[-0.0,-0.7071068,0.0,0.7071067],"name":"OPT006 - Optik Glass Pad Part [9209785]"},{"mesh":11,"translation":[-0.4367707,1.8084556,-1.0332047],"rotation":[-0.0,-0.7071068,0.0,0.7071067],"name":"OPT006 - Optik Glass Pad Part [9209779]001"},{"mesh":11,"translation":[-0.4367707,1.5544555,-1.0332047],"rotation":[-0.0,-0.7071068,0.0,0.7071067],"name":"OPT006 - Optik Glass Pad Part [9209785]001"},{"mesh":12,"translation":[-1.5014544,0.5486401,-0.037495885],"rotation":[-0.0,-0.7071068,0.0,0.7071067],"name":"LS103 & LS116 - Circum Round Post Material LS Material [9209457]"},{"mesh":13,"translation":[-2.0337968,0.18288012,-0.037495885],"rotation":[-0.0,-0.7071068,0.0,0.7071067],"name":"LS103 & LS116 - Circum Round Post Material LS Material [9209492]"},{"mesh":14,"translation":[-1.2352822,0.7315199,-1.0636147],"rotation":[-6.181724E-08,-0.7071068,-6.181724E-08,0.7071067],"name":"LS103 & LS116 - Circum Round Post Material LS Material [9209562]"},{"mesh":15,"translation":[-1.5014544,0.5486401,-1.0636147],"rotation":[-6.181724E-08,-0.7071068,-6.181724E-08,0.7071067],"name":"LS103 & LS116 - Circum Round Post Material LS Material [9209597]"},{"mesh":16,"translation":[-2.0337968,0.18288012,-1.0636147],"rotation":[-6.181724E-08,-0.7071068,-6.181724E-08,0.7071067],"name":"LS103 & LS116 - Circum Round Post Material LS Material [9209632]"},{"mesh":17,"translation":[0.6293214,2.0112367,-1.0636818],"name":"LS103 & LS116 - Circum Round Post Material LS Material [9209667]"},{"mesh":18,"translation":[0.89579564,2.1945603,-1.0636818],"name":"LS103 & LS116 - Circum Round Post Material LS Material [9209702]"},{"mesh":19,"translation":[1.4287441,2.56032,-1.0636818],"name":"LS103 & LS116 - Circum Round Post Material LS Material [9209737]"},{"mesh":20,"translation":[-0.17010434,1.4629301,-1.0636818],"name":"LS103 & LS116 - Circum Round Post Material LS Material [9209772]"},{"mesh":20,"translation":[-0.4367707,1.2801607,-1.0636818],"name":"LS103 & LS116 - Circum Round Post Material LS Material [9209772]001"},{"mesh":21,"translation":[-0.17010453,1.46293,-0.037563115],"rotation":[-0.0,-0.7071068,0.0,0.7071067],"name":"CSQ001-US - Surface Mount Weldment Part [8723797]151"},{"mesh":21,"translation":[0.6293214,2.0112367,-0.037563115],"rotation":[-0.0,-0.7071068,0.0,0.7071067],"name":"CSQ001-US - Surface Mount Weldment Part [8723797]152"},{"mesh":21,"translation":[0.89579564,2.1945603,-0.037563115],"rotation":[-0.0,-0.7071068,0.0,0.7071067],"name":"CSQ001-US - Surface Mount Weldment Part [8723797]153"},{"mesh":21,"translation":[1.4287441,2.56032,-0.037563115],"rotation":[-0.0,-0.7071068,0.0,0.7071067],"name":"CSQ001-US - Surface Mount Weldment Part [8723797]154"},{"mesh":21,"translation":[-1.2352822,0.7315199,-0.037495885],"rotation":[-0.0,-0.7071068,0.0,0.7071067],"name":"CSQ001-US - Surface Mount Weldment Part [8723797]155"},{"mesh":21,"translation":[-1.5014544,0.5486401,-0.037495885],"rotation":[-0.0,-0.7071068,0.0,0.7071067],"name":"CSQ001-US - Surface Mount Weldment Part [8723797]156"},{"mesh":21,"translation":[-2.0337968,0.18288012,-0.037495885],"rotation":[-0.0,-0.7071068,0.0,0.7071067],"name":"CSQ001-US - Surface Mount Weldment Part [8723797]157"},{"mesh":21,"translation":[-1.2352822,0.7315199,-1.0636147],"rotation":[-0.0,0.7071066,0.0,0.70710695],"name":"CSQ001-US - Surface Mount Weldment Part [8723797]159"},{"mesh":21,"translation":[-1.5014544,0.5486401,-1.0636147],"rotation":[-0.0,0.7071066,0.0,0.70710695],"name":"CSQ001-US - Surface Mount Weldment Part [8723797]160"},{"mesh":21,"translation":[-2.0337968,0.18288012,-1.0636147],"rotation":[-0.0,0.7071066,0.0,0.70710695],"name":"CSQ001-US - Surface Mount Weldment Part [8723797]161"},{"mesh":21,"translation":[0.6293214,2.0112367,-1.0636818],"rotation":[-0.0,0.7071068,0.0,0.7071067],"name":"CSQ001-US - Surface Mount Weldment Part [8723797]162"},{"mesh":21,"translation":[0.89579564,2.1945603,-1.0636818],"rotation":[-0.0,0.7071068,0.0,0.7071067],"name":"CSQ001-US - Surface Mount Weldment Part [8723797]163"},{"mesh":21,"translation":[1.4287441,2.56032,-1.0636818],"rotation":[-0.0,0.7071068,0.0,0.7071067],"name":"CSQ001-US - Surface Mount Weldment Part [8723797]164"},{"mesh":21,"translation":[-0.17010434,1.4629301,-1.0636818],"rotation":[-0.0,0.7071068,0.0,0.7071067],"name":"CSQ001-US - Surface Mount Weldment Part [8723797]165"},{"mesh":21,"translation":[-0.4367709,1.2801605,-0.037563115],"rotation":[-0.0,-0.7071068,0.0,0.7071067],"name":"CSQ001-US - Surface Mount Weldment Part [8723797]265"},{"mesh":21,"translation":[-0.4367707,1.2801607,-1.0636818],"rotation":[-0.0,0.7071068,0.0,0.7071067],"name":"CSQ001-US - Surface Mount Weldment Part [8723797]266"},{"mesh":22,"translation":[-0.2999639,0.0,-0.07673256],"name":"Box010"},{"mesh":22,"translation":[-0.2999639,0.0,-1.0243795],"name":"Box011"},{"mesh":23,"translation":[-0.29534957,2.376288,-1.0243602],"name":"Generic Models 11 Generic Models 11 [8762451]009"},{"mesh":23,"translation":[-0.29534957,2.376288,-0.07671316],"name":"Generic Models 11 Generic Models 11 [8762451]010"}],"meshes":[{"primitives":[{"attributes":{"POSITION":1,"TANGENT":2,"NORMAL":3,"TEXCOORD_0":4},"indices":0,"material":0},{"attributes":{"POSITION":6,"TANGENT":7,"NORMAL":8,"TEXCOORD_0":9},"indices":5,"material":1}],"name":"CIR006 - Post Cap Part [9209946]001"},{"primitives":[{"attributes":{"POSITION":11,"TANGENT":12,"NORMAL":13,"TEXCOORD_0":14},"indices":10,"material":0}],"name":"LS103 & LS116 - Circum Round Post Material LS Material [9209234]"},{"primitives":[{"attributes":{"POSITION":16,"TANGENT":17,"NORMAL":18,"TEXCOORD_0":19},"indices":15,"material":0},{"attributes":{"POSITION":21,"TANGENT":22,"NORMAL":23,"TEXCOORD_0":24},"indices":20,"material":1}],"name":"CIR088 - Circum Round Lo-Post Cope Part [9209257]050"},{"primitives":[{"attributes":{"POSITION":26,"TANGENT":27,"NORMAL":28,"TEXCOORD_0":29},"indices":25,"material":2}],"name":"OPT006A - Optik Glass Pad Part [9209250]"},{"primitives":[{"attributes":{"POSITION":31,"TANGENT":32,"NORMAL":33,"TEXCOORD_0":34},"indices":30,"material":2}],"name":"OPT006 - Optik Glass Pad Part [9209251]"},{"primitives":[{"attributes":{"POSITION":36,"TANGENT":37,"NORMAL":38,"TEXCOORD_0":39},"indices":35,"material":0},{"attributes":{"POSITION":41,"TANGENT":42,"NORMAL":43,"TEXCOORD_0":44},"indices":40,"material":1}],"name":"CIR087 - Circum Round Lo-Post Clamp Part [9209252]003"},{"primitives":[{"attributes":{"POSITION":46,"TANGENT":47,"NORMAL":48,"TEXCOORD_0":49},"indices":45,"material":0}],"name":"LS103 & LS116 - Circum Round Post Material LS Material [9209282]"},{"primitives":[{"attributes":{"POSITION":51,"TANGENT":52,"NORMAL":53,"TEXCOORD_0":54},"indices":50,"material":0}],"name":"LS103 & LS116 - Circum Round Post Material LS Material [9209317]"},{"primitives":[{"attributes":{"POSITION":56,"TANGENT":57,"NORMAL":58,"TEXCOORD_0":59},"indices":55,"material":0}],"name":"LS103 & LS116 - Circum Round Post Material LS Material [9209352]"},{"primitives":[{"attributes":{"POSITION":61,"TANGENT":62,"NORMAL":63,"TEXCOORD_0":64},"indices":60,"material":0}],"name":"LS103 & LS116 - Circum Round Post Material LS Material [9209422]"},{"primitives":[{"attributes":{"POSITION":66,"TANGENT":67,"NORMAL":68,"TEXCOORD_0":69},"indices":65,"material":2}],"name":"OPT006A - Optik Glass Pad Part [9209428]"},{"primitives":[{"attributes":{"POSITION":71,"TANGENT":72,"NORMAL":73,"TEXCOORD_0":74},"indices":70,"material":2}],"name":"OPT006 - Optik Glass Pad Part [9209429]"},{"primitives":[{"attributes":{"POSITION":76,"TANGENT":77,"NORMAL":78,"TEXCOORD_0":79},"indices":75,"material":0}],"name":"LS103 & LS116 - Circum Round Post Material LS Material [9209457]"},{"primitives":[{"attributes":{"POSITION":81,"TANGENT":82,"NORMAL":83,"TEXCOORD_0":84},"indices":80,"material":0}],"name":"LS103 & LS116 - Circum Round Post Material LS Material [9209492]"},{"primitives":[{"attributes":{"POSITION":86,"TANGENT":87,"NORMAL":88,"TEXCOORD_0":89},"indices":85,"material":0}],"name":"LS103 & LS116 - Circum Round Post Material LS Material [9209562]"},{"primitives":[{"attributes":{"POSITION":91,"TANGENT":92,"NORMAL":93,"TEXCOORD_0":94},"indices":90,"material":0}],"name":"LS103 & LS116 - Circum Round Post Material LS Material [9209597]"},{"primitives":[{"attributes":{"POSITION":96,"TANGENT":97,"NORMAL":98,"TEXCOORD_0":99},"indices":95,"material":0}],"name":"LS103 & LS116 - Circum Round Post Material LS Material [9209632]"},{"primitives":[{"attributes":{"POSITION":101,"TANGENT":102,"NORMAL":103,"TEXCOORD_0":104},"indices":100,"material":0}],"name":"LS103 & LS116 - Circum Round Post Material LS Material [9209667]"},{"primitives":[{"attributes":{"POSITION":106,"TANGENT":107,"NORMAL":108,"TEXCOORD_0":109},"indices":105,"material":0}],"name":"LS103 & LS116 - Circum Round Post Material LS Material [9209702]"},{"primitives":[{"attributes":{"POSITION":111,"TANGENT":112,"NORMAL":113,"TEXCOORD_0":114},"indices":110,"material":0}],"name":"LS103 & LS116 - Circum Round Post Material LS Material [9209737]"},{"primitives":[{"attributes":{"POSITION":116,"TANGENT":117,"NORMAL":118,"TEXCOORD_0":119},"indices":115,"material":0}],"name":"LS103 & LS116 - Circum Round Post Material LS Material [9209772]"},{"primitives":[{"attributes":{"POSITION":121,"TANGENT":122,"NORMAL":123,"TEXCOORD_0":124},"indices":120,"material":0}],"name":"CSQ001-US - Surface Mount Weldment Part [8723797]151"},{"primitives":[{"attributes":{"POSITION":126,"TANGENT":127,"NORMAL":128,"TEXCOORD_0":129},"indices":125,"material":3}],"name":"Box010"},{"primitives":[{"attributes":{"POSITION":131,"TANGENT":132,"NORMAL":133,"TEXCOORD_0":134},"indices":130,"material":0},{"attributes":{"POSITION":136,"TANGENT":137,"NORMAL":138,"TEXCOORD_0":139},"indices":135,"material":1}],"name":"Generic Models 11 Generic Models 11 [8762451]009"}],"accessors":[{"bufferView":0,"componentType":5123,"count":480,"type":"SCALAR","name":"accessorIndices"},{"bufferView":1,"componentType":5126,"count":162,"max":[0.02413,0.0027432,0.02413],"min":[-0.02413,-3.3027448E-14,-0.02413],"type":"VEC3","name":"accessorPositions"},{"bufferView":2,"componentType":5126,"count":162,"type":"VEC4","name":"accessorTangents"},{"bufferView":1,"byteOffset":1944,"componentType":5126,"count":162,"type":"VEC3","name":"accessorNormals"},{"bufferView":3,"componentType":5126,"count":162,"type":"VEC2","name":"accessorUVs"},{"bufferView":0,"byteOffset":960,"componentType":5123,"count":1926,"type":"SCALAR","name":"accessorIndices"},{"bufferView":1,"byteOffset":3888,"componentType":5126,"count":404,"max":[0.02413,0.008763,0.02413],"min":[-0.02413,-3.3027448E-14,-0.02413],"type":"VEC3","name":"accessorPositions"},{"bufferView":2,"byteOffset":2592,"componentType":5126,"count":404,"type":"VEC4","name":"accessorTangents"},{"bufferView":1,"byteOffset":8736,"componentType":5126,"count":404,"type":"VEC3","name":"accessorNormals"},{"bufferView":3,"byteOffset":1296,"componentType":5126,"count":404,"type":"VEC2","name":"accessorUVs"},{"bufferView":0,"byteOffset":4812,"componentType":5123,"count":852,"type":"SCALAR","name":"accessorIndices"},{"bufferView":1,"byteOffset":13584,"componentType":5126,"count":290,"max":[0.02413,0.5568696,0.02413],"min":[-0.024130063,-3.9312695E-09,-0.024130063],"type":"VEC3","name":"accessorPositions"},{"bufferView":2,"byteOffset":9056,"componentType":5126,"count":290,"type":"VEC4","name":"accessorTangents"},{"bufferView":1,"byteOffset":17064,"componentType":5126,"count":290,"type":"VEC3","name":"accessorNormals"},{"bufferView":3,"byteOffset":4528,"componentType":5126,"count":290,"type":"VEC2","name":"accessorUVs"},{"bufferView":0,"byteOffset":6516,"componentType":5123,"count":882,"type":"SCALAR","name":"accessorIndices"},{"bufferView":1,"byteOffset":20544,"componentType":5126,"count":300,"max":[0.030480001,0.01905,0.01905],"min":[0.014810618,-0.01905,-0.01905],"type":"VEC3","name":"accessorPositions"},{"bufferView":2,"byteOffset":13696,"componentType":5126,"count":300,"type":"VEC4","name":"accessorTangents"},{"bufferView":1,"byteOffset":24144,"componentType":5126,"count":300,"type":"VEC3","name":"accessorNormals"},{"bufferView":3,"byteOffset":6848,"componentType":5126,"count":300,"type":"VEC2","name":"accessorUVs"},{"bufferView":0,"byteOffset":8280,"componentType":5123,"count":210,"type":"SCALAR","name":"accessorIndices"},{"bufferView":1,"byteOffset":27744,"componentType":5126,"count":72,"max":[0.030480001,0.01905,0.01905],"min":[0.030480001,-0.01905,-0.01905],"type":"VEC3","name":"accessorPositions"},{"bufferView":2,"byteOffset":18496,"componentType":5126,"count":72,"type":"VEC4","name":"accessorTangents"},{"bufferView":1,"byteOffset":28608,"componentType":5126,"count":72,"type":"VEC3","name":"accessorNormals"},{"bufferView":3,"byteOffset":9248,"componentType":5126,"count":72,"type":"VEC2","name":"accessorUVs"},{"bufferView":0,"byteOffset":8700,"componentType":5123,"count":1728,"type":"SCALAR","name":"accessorIndices"},{"bufferView":1,"byteOffset":29472,"componentType":5126,"count":580,"max":[0.0015748,0.0142875,0.0142875],"min":[1.8652728E-14,-0.0142875,-0.0142875],"type":"VEC3","name":"accessorPositions"},{"bufferView":2,"byteOffset":19648,"componentType":5126,"count":580,"type":"VEC4","name":"accessorTangents"},{"bufferView":1,"byteOffset":36432,"componentType":5126,"count":580,"type":"VEC3","name":"accessorNormals"},{"bufferView":3,"byteOffset":9824,"componentType":5126,"count":580,"type":"VEC2","name":"accessorUVs"},{"bufferView":0,"byteOffset":12156,"componentType":5123,"count":1728,"type":"SCALAR","name":"accessorIndices"},{"bufferView":1,"byteOffset":43392,"componentType":5126,"count":580,"max":[0.0015748,0.0142875,0.0142875],"min":[1.8652728E-14,-0.0142875,-0.0142875],"type":"VEC3","name":"accessorPositions"},{"bufferView":2,"byteOffset":28928,"componentType":5126,"count":580,"type":"VEC4","name":"accessorTangents"},{"bufferView":1,"byteOffset":50352,"componentType":5126,"count":580,"type":"VEC3","name":"accessorNormals"},{"bufferView":3,"byteOffset":14464,"componentType":5126,"count":580,"type":"VEC2","name":"accessorUVs"},{"bufferView":0,"byteOffset":15612,"componentType":5123,"count":864,"type":"SCALAR","name":"accessorIndices"},{"bufferView":1,"byteOffset":57312,"componentType":5126,"count":386,"max":[0.020017384,0.01905,0.01905],"min":[-0.0063500004,-0.01905,-0.01905],"type":"VEC3","name":"accessorPositions"},{"bufferView":2,"byteOffset":38208,"componentType":5126,"count":386,"type":"VEC4","name":"accessorTangents"},{"bufferView":1,"byteOffset":61944,"componentType":5126,"count":386,"type":"VEC3","name":"accessorNormals"},{"bufferView":3,"byteOffset":19104,"componentType":5126,"count":386,"type":"VEC2","name":"accessorUVs"},{"bufferView":0,"byteOffset":17340,"componentType":5123,"count":858,"type":"SCALAR","name":"accessorIndices"},{"bufferView":1,"byteOffset":66576,"componentType":5126,"count":289,"max":[0.020017384,0.01905,0.01905],"min":[-0.0063500004,-0.01905,-0.01905],"type":"VEC3","name":"accessorPositions"},{"bufferView":2,"byteOffset":44384,"componentType":5126,"count":289,"type":"VEC4","name":"accessorTangents"},{"bufferView":1,"byteOffset":70044,"componentType":5126,"count":289,"type":"VEC3","name":"accessorNormals"},{"bufferView":3,"byteOffset":22192,"componentType":5126,"count":289,"type":"VEC2","name":"accessorUVs"},{"bufferView":0,"byteOffset":19056,"componentType":5123,"count":852,"type":"SCALAR","name":"accessorIndices"},{"bufferView":1,"byteOffset":73512,"componentType":5126,"count":290,"max":[0.02413,0.5568696,0.02413],"min":[-0.024130063,-3.9312695E-09,-0.024130063],"type":"VEC3","name":"accessorPositions"},{"bufferView":2,"byteOffset":49008,"componentType":5126,"count":290,"type":"VEC4","name":"accessorTangents"},{"bufferView":1,"byteOffset":76992,"componentType":5126,"count":290,"type":"VEC3","name":"accessorNormals"},{"bufferView":3,"byteOffset":24504,"componentType":5126,"count":290,"type":"VEC2","name":"accessorUVs"},{"bufferView":0,"byteOffset":20760,"componentType":5123,"count":852,"type":"SCALAR","name":"accessorIndices"},{"bufferView":1,"byteOffset":80472,"componentType":5126,"count":290,"max":[0.02413,0.5568696,0.02413],"min":[-0.024130063,-3.9312695E-09,-0.024130063],"type":"VEC3","name":"accessorPositions"},{"bufferView":2,"byteOffset":53648,"componentType":5126,"count":290,"type":"VEC4","name":"accessorTangents"},{"bufferView":1,"byteOffset":83952,"componentType":5126,"count":290,"type":"VEC3","name":"accessorNormals"},{"bufferView":3,"byteOffset":26824,"componentType":5126,"count":290,"type":"VEC2","name":"accessorUVs"},{"bufferView":0,"byteOffset":22464,"componentType":5123,"count":852,"type":"SCALAR","name":"accessorIndices"},{"bufferView":1,"byteOffset":87432,"componentType":5126,"count":290,"max":[0.02413,0.5568696,0.02413],"min":[-0.024130063,-3.9312695E-09,-0.024130063],"type":"VEC3","name":"accessorPositions"},{"bufferView":2,"byteOffset":58288,"componentType":5126,"count":290,"type":"VEC4","name":"accessorTangents"},{"bufferView":1,"byteOffset":90912,"componentType":5126,"count":290,"type":"VEC3","name":"accessorNormals"},{"bufferView":3,"byteOffset":29144,"componentType":5126,"count":290,"type":"VEC2","name":"accessorUVs"},{"bufferView":0,"byteOffset":24168,"componentType":5123,"count":852,"type":"SCALAR","name":"accessorIndices"},{"bufferView":1,"byteOffset":94392,"componentType":5126,"count":290,"max":[0.024130438,0.5568696,0.02413],"min":[-0.024129998,-1.9080877E-08,-0.02413],"type":"VEC3","name":"accessorPositions"},{"bufferView":2,"byteOffset":62928,"componentType":5126,"count":290,"type":"VEC4","name":"accessorTangents"},{"bufferView":1,"byteOffset":97872,"componentType":5126,"count":290,"type":"VEC3","name":"accessorNormals"},{"bufferView":3,"byteOffset":31464,"componentType":5126,"count":290,"type":"VEC2","name":"accessorUVs"},{"bufferView":0,"byteOffset":25872,"componentType":5123,"count":1728,"type":"SCALAR","name":"accessorIndices"},{"bufferView":1,"byteOffset":101352,"componentType":5126,"count":580,"max":[0.0015748,0.0142875,0.0142875],"min":[1.8652728E-14,-0.0142875,-0.0142875],"type":"VEC3","name":"accessorPositions"},{"bufferView":2,"byteOffset":67568,"componentType":5126,"count":580,"type":"VEC4","name":"accessorTangents"},{"bufferView":1,"byteOffset":108312,"componentType":5126,"count":580,"type":"VEC3","name":"accessorNormals"},{"bufferView":3,"byteOffset":33784,"componentType":5126,"count":580,"type":"VEC2","name":"accessorUVs"},{"bufferView":0,"byteOffset":29328,"componentType":5123,"count":1728,"type":"SCALAR","name":"accessorIndices"},{"bufferView":1,"byteOffset":115272,"componentType":5126,"count":580,"max":[0.0015748,0.0142875,0.0142875],"min":[1.8652728E-14,-0.0142875,-0.0142875],"type":"VEC3","name":"accessorPositions"},{"bufferView":2,"byteOffset":76848,"componentType":5126,"count":580,"type":"VEC4","name":"accessorTangents"},{"bufferView":1,"byteOffset":122232,"componentType":5126,"count":580,"type":"VEC3","name":"accessorNormals"},{"bufferView":3,"byteOffset":38424,"componentType":5126,"count":580,"type":"VEC2","name":"accessorUVs"},{"bufferView":0,"byteOffset":32784,"componentType":5123,"count":852,"type":"SCALAR","name":"accessorIndices"},{"bufferView":1,"byteOffset":129192,"componentType":5126,"count":290,"max":[0.024130438,0.5568696,0.02413],"min":[-0.024129998,-1.9080877E-08,-0.02413],"type":"VEC3","name":"accessorPositions"},{"bufferView":2,"byteOffset":86128,"componentType":5126,"count":290,"type":"VEC4","name":"accessorTangents"},{"bufferView":1,"byteOffset":132672,"componentType":5126,"count":290,"type":"VEC3","name":"accessorNormals"},{"bufferView":3,"byteOffset":43064,"componentType":5126,"count":290,"type":"VEC2","name":"accessorUVs"},{"bufferView":0,"byteOffset":34488,"componentType":5123,"count":852,"type":"SCALAR","name":"accessorIndices"},{"bufferView":1,"byteOffset":136152,"componentType":5126,"count":290,"max":[0.024130438,0.5568696,0.02413],"min":[-0.024129998,-1.9080877E-08,-0.02413],"type":"VEC3","name":"accessorPositions"},{"bufferView":2,"byteOffset":90768,"componentType":5126,"count":290,"type":"VEC4","name":"accessorTangents"},{"bufferView":1,"byteOffset":139632,"componentType":5126,"count":290,"type":"VEC3","name":"accessorNormals"},{"bufferView":3,"byteOffset":45384,"componentType":5126,"count":290,"type":"VEC2","name":"accessorUVs"},{"bufferView":0,"byteOffset":36192,"componentType":5123,"count":852,"type":"SCALAR","name":"accessorIndices"},{"bufferView":1,"byteOffset":143112,"componentType":5126,"count":290,"max":[0.024129998,0.55686957,0.024129998],"min":[-0.024130048,-9.092242E-09,-0.024130173],"type":"VEC3","name":"accessorPositions"},{"bufferView":2,"byteOffset":95408,"componentType":5126,"count":290,"type":"VEC4","name":"accessorTangents"},{"bufferView":1,"byteOffset":146592,"componentType":5126,"count":290,"type":"VEC3","name":"accessorNormals"},{"bufferView":3,"byteOffset":47704,"componentType":5126,"count":290,"type":"VEC2","name":"accessorUVs"},{"bufferView":0,"byteOffset":37896,"componentType":5123,"count":852,"type":"SCALAR","name":"accessorIndices"},{"bufferView":1,"byteOffset":150072,"componentType":5126,"count":290,"max":[0.024129998,0.55686957,0.024129998],"min":[-0.024130048,-9.092242E-09,-0.024130173],"type":"VEC3","name":"accessorPositions"},{"bufferView":2,"byteOffset":100048,"componentType":5126,"count":290,"type":"VEC4","name":"accessorTangents"},{"bufferView":1,"byteOffset":153552,"componentType":5126,"count":290,"type":"VEC3","name":"accessorNormals"},{"bufferView":3,"byteOffset":50024,"componentType":5126,"count":290,"type":"VEC2","name":"accessorUVs"},{"bufferView":0,"byteOffset":39600,"componentType":5123,"count":852,"type":"SCALAR","name":"accessorIndices"},{"bufferView":1,"byteOffset":157032,"componentType":5126,"count":290,"max":[0.024129998,0.55686957,0.024129998],"min":[-0.024130048,-9.092242E-09,-0.024130173],"type":"VEC3","name":"accessorPositions"},{"bufferView":2,"byteOffset":104688,"componentType":5126,"count":290,"type":"VEC4","name":"accessorTangents"},{"bufferView":1,"byteOffset":160512,"componentType":5126,"count":290,"type":"VEC3","name":"accessorNormals"},{"bufferView":3,"byteOffset":52344,"componentType":5126,"count":290,"type":"VEC2","name":"accessorUVs"},{"bufferView":0,"byteOffset":41304,"componentType":5123,"count":852,"type":"SCALAR","name":"accessorIndices"},{"bufferView":1,"byteOffset":163992,"componentType":5126,"count":290,"max":[0.02413,0.55686957,0.024130031],"min":[-0.0241301,-4.3279704E-09,-0.024129998],"type":"VEC3","name":"accessorPositions"},{"bufferView":2,"byteOffset":109328,"componentType":5126,"count":290,"type":"VEC4","name":"accessorTangents"},{"bufferView":1,"byteOffset":167472,"componentType":5126,"count":290,"type":"VEC3","name":"accessorNormals"},{"bufferView":3,"byteOffset":54664,"componentType":5126,"count":290,"type":"VEC2","name":"accessorUVs"},{"bufferView":0,"byteOffset":43008,"componentType":5123,"count":852,"type":"SCALAR","name":"accessorIndices"},{"bufferView":1,"byteOffset":170952,"componentType":5126,"count":290,"max":[0.02413,0.55686957,0.024130031],"min":[-0.0241301,-4.3279704E-09,-0.024129998],"type":"VEC3","name":"accessorPositions"},{"bufferView":2,"byteOffset":113968,"componentType":5126,"count":290,"type":"VEC4","name":"accessorTangents"},{"bufferView":1,"byteOffset":174432,"componentType":5126,"count":290,"type":"VEC3","name":"accessorNormals"},{"bufferView":3,"byteOffset":56984,"componentType":5126,"count":290,"type":"VEC2","name":"accessorUVs"},{"bufferView":0,"byteOffset":44712,"componentType":5123,"count":852,"type":"SCALAR","name":"accessorIndices"},{"bufferView":1,"byteOffset":177912,"componentType":5126,"count":290,"max":[0.02413,0.55686957,0.024130031],"min":[-0.0241301,-4.3279704E-09,-0.024129998],"type":"VEC3","name":"accessorPositions"},{"bufferView":2,"byteOffset":118608,"componentType":5126,"count":290,"type":"VEC4","name":"accessorTangents"},{"bufferView":1,"byteOffset":181392,"componentType":5126,"count":290,"type":"VEC3","name":"accessorNormals"},{"bufferView":3,"byteOffset":59304,"componentType":5126,"count":290,"type":"VEC2","name":"accessorUVs"},{"bufferView":0,"byteOffset":46416,"componentType":5123,"count":852,"type":"SCALAR","name":"accessorIndices"},{"bufferView":1,"byteOffset":184872,"componentType":5126,"count":290,"max":[0.02413,0.55686957,0.024130031],"min":[-0.0241301,-4.3279704E-09,-0.024129998],"type":"VEC3","name":"accessorPositions"},{"bufferView":2,"byteOffset":123248,"componentType":5126,"count":290,"type":"VEC4","name":"accessorTangents"},{"bufferView":1,"byteOffset":188352,"componentType":5126,"count":290,"type":"VEC3","name":"accessorNormals"},{"bufferView":3,"byteOffset":61624,"componentType":5126,"count":290,"type":"VEC2","name":"accessorUVs"},{"bufferView":0,"byteOffset":48120,"componentType":5123,"count":570,"type":"SCALAR","name":"accessorIndices"},{"bufferView":1,"byteOffset":191832,"componentType":5126,"count":189,"max":[0.053975,0.025400002,0.053975],"min":[-0.053975,-3.0953716E-15,-0.053975],"type":"VEC3","name":"accessorPositions"},{"bufferView":2,"byteOffset":127888,"componentType":5126,"count":189,"type":"VEC4","name":"accessorTangents"},{"bufferView":1,"byteOffset":194100,"componentType":5126,"count":189,"type":"VEC3","name":"accessorNormals"},{"bufferView":3,"byteOffset":63944,"componentType":5126,"count":189,"type":"VEC2","name":"accessorUVs"},{"bufferView":0,"byteOffset":49260,"componentType":5123,"count":144,"type":"SCALAR","name":"accessorIndices"},{"bufferView":1,"byteOffset":196368,"componentType":5126,"count":96,"max":[1.8935392,3.686544,0.007143598],"min":[-1.8863822,0.19727604,-0.007143598],"type":"VEC3","name":"accessorPositions"},{"bufferView":2,"byteOffset":130912,"componentType":5126,"count":96,"type":"VEC4","name":"accessorTangents"},{"bufferView":1,"byteOffset":197520,"componentType":5126,"count":96,"type":"VEC3","name":"accessorNormals"},{"bufferView":3,"byteOffset":65456,"componentType":5126,"count":96,"type":"VEC2","name":"accessorUVs"},{"bufferView":0,"byteOffset":49548,"componentType":5123,"count":4080,"type":"SCALAR","name":"accessorIndices"},{"bufferView":1,"byteOffset":198672,"componentType":5126,"count":1526,"max":[1.8968263,1.3227077,0.019062791],"min":[-1.8968263,-1.3227078,-0.019062791],"type":"VEC3","name":"accessorPositions"},{"bufferView":2,"byteOffset":132448,"componentType":5126,"count":1526,"type":"VEC4","name":"accessorTangents"},{"bufferView":1,"byteOffset":216984,"componentType":5126,"count":1526,"type":"VEC3","name":"accessorNormals"},{"bufferView":3,"byteOffset":66224,"componentType":5126,"count":1526,"type":"VEC2","name":"accessorUVs"},{"bufferView":0,"byteOffset":57708,"componentType":5123,"count":738,"type":"SCALAR","name":"accessorIndices"},{"bufferView":1,"byteOffset":235296,"componentType":5126,"count":252,"max":[1.8968263,1.3227077,0.019062791],"min":[-1.8968263,-1.3227075,-0.019062791],"type":"VEC3","name":"accessorPositions"},{"bufferView":2,"byteOffset":156864,"componentType":5126,"count":252,"type":"VEC4","name":"accessorTangents"},{"bufferView":1,"byteOffset":238320,"componentType":5126,"count":252,"type":"VEC3","name":"accessorNormals"},{"bufferView":3,"byteOffset":78432,"componentType":5126,"count":252,"type":"VEC2","name":"accessorUVs"}],"bufferViews":[{"buffer":0,"byteLength":59184,"name":"bufferViewScalar"},{"buffer":0,"byteOffset":59184,"byteLength":241344,"byteStride":12,"name":"bufferViewFloatVec3"},{"buffer":0,"byteOffset":300528,"byteLength":160896,"byteStride":16,"name":"bufferViewFloatVec4"},{"buffer":0,"byteOffset":461424,"byteLength":80448,"byteStride":8,"name":"bufferViewFloatVec2"}],"buffers":[{"uri":"Straight_Railing_Lo-Post_Round.bin","byteLength":541872}],"materials":[{"pbrMetallicRoughness":{"baseColorFactor":[0.9999998,0.9999999,0.9999999,1.0],"baseColorTexture":{"index":0,"extensions":{"KHR_texture_transform":{"offset":[0.19519997,0.8048],"rotation":1.5707964,"scale":[0.6096,0.6096],"texCoord":0}}},"roughnessFactor":0.2,"metallicRoughnessTexture":{"index":0,"extensions":{"KHR_texture_transform":{"offset":[0.19519997,0.8048],"rotation":1.5707964,"scale":[0.6096,0.6096],"texCoord":0}}}},"name":"Steel_Linear"},{"pbrMetallicRoughness":{"baseColorFactor":[0.9999998,0.9999999,0.9999999,1.0],"baseColorTexture":{"index":1},"roughnessFactor":0.2,"metallicRoughnessTexture":{"index":1}},"name":"Steel_Radial"},{"pbrMetallicRoughness":{"baseColorFactor":[0.10641303,0.10641304,0.10641304,1.0],"metallicFactor":0.0,"roughnessFactor":0.99,"metallicRoughnessTexture":{"index":2}},"name":"Rubber","extensions":{"KHR_materials_specular":{"specularFactor":0.1}}},{"pbrMetallicRoughness":{"baseColorFactor":[0.9999998,0.9999999,0.9999999,1.0],"metallicFactor":0.0,"roughnessFactor":0.1},"name":"Glass","extensions":{"KHR_materials_ior":{"ior":1.0},"KHR_materials_transmission":{"transmissionFactor":0.97},"KHR_materials_volume":{"thicknessFactor":0.56,"attenuationDistance":0.5,"attenuationColor":[0.49521634,0.56476736,0.5317566]}}}],"textures":[{"sampler":0,"source":0,"name":"Metal_Brushed_Linear_4k.jpg"},{"sampler":0,"source":1,"name":"Metal_Brushed_Radial_4k.jpg"},{"sampler":0,"source":2,"name":"PowderCoat_Roughness_2k0.jpg"}],"images":[{"uri":"textures/Metal_Brushed_Linear_4k.jpg"},{"uri":"textures/Metal_Brushed_Radial_4k.jpg"},{"uri":"textures/PowderCoat_Roughness_2k0.jpg"}],"samplers":[{"magFilter":9729,"minFilter":9987}]}