{"asset":{"version":"2.0","generator":"babylon.js glTF exporter for 3dsmax 2026 v20251111.2"},"extensionsUsed":["KHR_texture_transform","KHR_materials_specular","KHR_materials_ior","KHR_materials_transmission","KHR_materials_volume"],"extensionsRequired":["KHR_texture_transform"],"scene":0,"scenes":[{"nodes":[0,1,2,3,4,5,6,7,8,9,10,11,12,13,14,15,16,17,18,19,20,21,22,23,24,25,26,27,28,29,30,31,32,33,34,35,36,37,38,39,40,41,42,43,44,45,46,47,48,49,50,51,52,53,54,55,56,57,58,59,60,61,62,63,64,65,66,67,68,69,70,71,72,73,74,75,76,77,78,79,80,81,82,83,84,85,86,87,88,89,90,91,92,93,94,95,96,97,98,99,100,101,102,103,104,105,106,107,108,109,110,111,112,113,114,115,116,117,118,119,120,121,122,123,124,125,126,127,128,129,130,131,132,133,134,135,136,137,138,139,140,141,142,143,144,145,146,147,148,149,150,151,152,153,154,155,156,157,158,159,160,161,162,163]}],"nodes":[{"mesh":0,"translation":[-0.17010453,1.46293,-0.020391779],"rotation":[0.5000001,0.49999997,0.49999985,0.50000006],"name":"LS201 & LS202 - Konic Post Material LS Material [9048531]001"},{"mesh":0,"translation":[-0.4367709,1.2801605,-0.020391779],"rotation":[0.5000001,0.49999997,0.49999985,0.50000006],"name":"LS201 & LS202 - Konic Post Material LS Material [9048531]003"},{"mesh":1,"translation":[0.6293212,2.0112367,-0.020391779],"rotation":[0.5000001,0.49999997,0.49999985,0.50000006],"name":"LS201 & LS202 - Konic Post Material LS Material [9048551]001"},{"mesh":2,"translation":[0.8957954,2.1945603,-0.020391779],"rotation":[0.5000001,0.49999997,0.49999985,0.50000006],"name":"LS201 & LS202 - Konic Post Material LS Material [9048569]001"},{"mesh":3,"translation":[1.4287437,2.56032,-0.020391779],"rotation":[0.5000001,0.49999997,0.49999985,0.50000006],"name":"LS201 & LS202 - Konic Post Material LS Material [9048587]001"},{"mesh":4,"translation":[-1.2352822,0.7315199,-0.020325132],"rotation":[0.49999982,0.4999999,0.5000001,0.5000001],"name":"LS201 & LS202 - Konic Post Material LS Material [9048616]001"},{"mesh":5,"translation":[-1.5014544,0.5486401,-0.020325132],"rotation":[0.49999982,0.4999999,0.5000001,0.5000001],"name":"LS201 & LS202 - Konic Post Material LS Material [9048634]001"},{"mesh":6,"translation":[-2.0337965,0.18288012,-0.020325132],"rotation":[0.49999982,0.4999999,0.5000001,0.5000001],"name":"LS201 & LS202 - Konic Post Material LS Material [9048652]001"},{"mesh":7,"translation":[-1.2352822,0.7315199,-1.080786],"rotation":[-0.50000006,-0.49999988,0.49999994,0.5000001],"name":"LS201 & LS202 - Konic Post Material LS Material [9048824]001"},{"mesh":8,"translation":[-1.5014544,0.5486401,-1.080786],"rotation":[-0.50000006,-0.49999988,0.49999994,0.5000001],"name":"LS201 & LS202 - Konic Post Material LS Material [9048829]001"},{"mesh":9,"translation":[-2.0337965,0.18288012,-1.0807861],"rotation":[-0.50000006,-0.49999988,0.49999994,0.5000001],"name":"LS201 & LS202 - Konic Post Material LS Material [9048834]001"},{"mesh":10,"translation":[0.6293212,2.0112367,-1.0808526],"rotation":[-0.5,-0.50000006,0.5,0.49999994],"name":"LS201 & LS202 - Konic Post Material LS Material [9048880]001"},{"mesh":11,"translation":[0.8957954,2.1945603,-1.0808526],"rotation":[-0.5,-0.50000006,0.5,0.49999994],"name":"LS201 & LS202 - Konic Post Material LS Material [9048885]001"},{"mesh":12,"translation":[1.4287437,2.56032,-1.0808526],"rotation":[-0.5,-0.50000006,0.5,0.49999994],"name":"LS201 & LS202 - Konic Post Material LS Material [9048890]001"},{"mesh":13,"translation":[-0.17010455,1.4629301,-1.0808526],"rotation":[-0.5,-0.50000006,0.5,0.49999994],"name":"LS201 & LS202 - Konic Post Material LS Material [9048914]001"},{"mesh":13,"translation":[-0.43677092,1.2801607,-1.0808526],"rotation":[-0.5,-0.50000006,0.5,0.49999994],"name":"LS201 & LS202 - Konic Post Material LS Material [9048914]003"},{"mesh":14,"translation":[-0.17010453,2.2914014,-0.08391813],"rotation":[-0.0,4.524159E-15,0.0,1.0],"name":"KON021 - Konic Washer Part [9193945]053"},{"mesh":14,"translation":[-0.17010453,1.7326014,-0.08391813],"rotation":[-0.0,4.524159E-15,0.0,1.0],"name":"KON021 - Konic Washer Part [9193945]054"},{"mesh":14,"translation":[0.6293212,2.8397086,-0.08391813],"rotation":[-0.0,4.524159E-15,0.0,1.0],"name":"KON021 - Konic Washer Part [9193945]055"},{"mesh":14,"translation":[0.6293212,2.2809083,-0.08391813],"rotation":[-0.0,4.524159E-15,0.0,1.0],"name":"KON021 - Konic Washer Part [9193945]056"},{"mesh":14,"translation":[0.8957954,3.0230322,-0.08391813],"rotation":[-0.0,4.524159E-15,0.0,1.0],"name":"KON021 - Konic Washer Part [9193945]057"},{"mesh":14,"translation":[0.8957954,2.4642324,-0.08391813],"rotation":[-0.0,4.524159E-15,0.0,1.0],"name":"KON021 - Konic Washer Part [9193945]058"},{"mesh":14,"translation":[1.4287437,3.3887916,-0.08391813],"rotation":[-0.0,4.524159E-15,0.0,1.0],"name":"KON021 - Konic Washer Part [9193945]059"},{"mesh":14,"translation":[1.4287437,2.8299918,-0.08391813],"rotation":[-0.0,4.524159E-15,0.0,1.0],"name":"KON021 - Konic Washer Part [9193945]060"},{"mesh":14,"translation":[-1.2352822,1.559992,-0.08384684],"name":"KON021 - Konic Washer Part [9193945]063"},{"mesh":14,"translation":[-1.2352822,1.0011919,-0.08384684],"name":"KON021 - Konic Washer Part [9193945]064"},{"mesh":14,"translation":[-1.5014544,1.3771119,-0.08384684],"name":"KON021 - Konic Washer Part [9193945]065"},{"mesh":14,"translation":[-1.5014544,0.8183117,-0.08384684],"name":"KON021 - Konic Washer Part [9193945]066"},{"mesh":14,"translation":[-2.0337965,1.0113517,-0.08384684],"name":"KON021 - Konic Washer Part [9193945]067"},{"mesh":14,"translation":[-2.0337965,0.45255175,-0.08384684],"name":"KON021 - Konic Washer Part [9193945]068"},{"mesh":14,"translation":[-1.2352822,1.559992,-1.0172596],"rotation":[-0.0,-1.0,0.0,-4.371139E-08],"name":"KON021 - Konic Washer Part [9193945]071"},{"mesh":14,"translation":[-1.2352822,1.0011919,-1.0172596],"rotation":[-0.0,-1.0,0.0,-4.371139E-08],"name":"KON021 - Konic Washer Part [9193945]072"},{"mesh":14,"translation":[-1.5014544,1.3771119,-1.0172596],"rotation":[-0.0,-1.0,0.0,-4.371139E-08],"name":"KON021 - Konic Washer Part [9193945]073"},{"mesh":14,"translation":[-1.5014544,0.8183117,-1.0172596],"rotation":[-0.0,-1.0,0.0,-4.371139E-08],"name":"KON021 - Konic Washer Part [9193945]074"},{"mesh":14,"translation":[-2.0337965,1.0113517,-1.0172597],"rotation":[-0.0,-1.0,0.0,-4.371139E-08],"name":"KON021 - Konic Washer Part [9193945]075"},{"mesh":14,"translation":[-2.0337965,0.45255175,-1.0172597],"rotation":[-0.0,-1.0,0.0,-4.371139E-08],"name":"KON021 - Konic Washer Part [9193945]076"},{"mesh":14,"translation":[0.6293212,2.8397086,-1.0173309],"rotation":[-0.0,-1.0,0.0,4.371139E-08],"name":"KON021 - Konic Washer Part [9193945]077"},{"mesh":14,"translation":[0.6293212,2.2809083,-1.0173309],"rotation":[-0.0,-1.0,0.0,4.371139E-08],"name":"KON021 - Konic Washer Part [9193945]078"},{"mesh":14,"translation":[0.8957954,3.0230322,-1.0173309],"rotation":[-0.0,-1.0,0.0,4.371139E-08],"name":"KON021 - Konic Washer Part [9193945]079"},{"mesh":14,"translation":[0.8957954,2.4642324,-1.0173309],"rotation":[-0.0,-1.0,0.0,4.371139E-08],"name":"KON021 - Konic Washer Part [9193945]080"},{"mesh":14,"translation":[1.4287437,3.3887916,-1.0173309],"rotation":[-0.0,-1.0,0.0,4.371139E-08],"name":"KON021 - Konic Washer Part [9193945]081"},{"mesh":14,"translation":[1.4287437,2.8299918,-1.0173309],"rotation":[-0.0,-1.0,0.0,4.371139E-08],"name":"KON021 - Konic Washer Part [9193945]082"},{"mesh":14,"translation":[-0.17010455,2.291402,-1.0173309],"rotation":[-0.0,-1.0,0.0,4.371139E-08],"name":"KON021 - Konic Washer Part [9193945]083"},{"mesh":14,"translation":[-0.17010455,1.732602,-1.0173309],"rotation":[-0.0,-1.0,0.0,4.371139E-08],"name":"KON021 - Konic Washer Part [9193945]084"},{"mesh":14,"translation":[-0.17010453,2.2914014,-0.06961668],"rotation":[-0.0,-1.0,0.0,2.8212997E-07],"name":"KON021A - Adhesive Konic Washer Part [9193800]053"},{"mesh":14,"translation":[-0.17010453,1.7326014,-0.06961668],"rotation":[-0.0,-1.0,0.0,2.8212997E-07],"name":"KON021A - Adhesive Konic Washer Part [9193800]054"},{"mesh":14,"translation":[0.6293212,2.8397086,-0.06961668],"rotation":[-0.0,-1.0,0.0,2.8212997E-07],"name":"KON021A - Adhesive Konic Washer Part [9193800]055"},{"mesh":14,"translation":[0.6293212,2.2809083,-0.06961668],"rotation":[-0.0,-1.0,0.0,2.8212997E-07],"name":"KON021A - Adhesive Konic Washer Part [9193800]056"},{"mesh":14,"translation":[0.8957954,3.0230322,-0.06961668],"rotation":[-0.0,-1.0,0.0,2.8212997E-07],"name":"KON021A - Adhesive Konic Washer Part [9193800]057"},{"mesh":14,"translation":[0.8957954,2.4642324,-0.06961668],"rotation":[-0.0,-1.0,0.0,2.8212997E-07],"name":"KON021A - Adhesive Konic Washer Part [9193800]058"},{"mesh":14,"translation":[1.4287437,3.3887916,-0.06961668],"rotation":[-0.0,-1.0,0.0,2.8212997E-07],"name":"KON021A - Adhesive Konic Washer Part [9193800]059"},{"mesh":14,"translation":[1.4287437,2.8299918,-0.06961668],"rotation":[-0.0,-1.0,0.0,2.8212997E-07],"name":"KON021A - Adhesive Konic Washer Part [9193800]060"},{"mesh":14,"translation":[-1.2352822,1.559992,-0.06955004],"rotation":[-0.0,-1.0,0.0,-2.8212997E-07],"name":"KON021A - Adhesive Konic Washer Part [9193800]063"},{"mesh":14,"translation":[-1.2352822,1.0011919,-0.06955004],"rotation":[-0.0,-1.0,0.0,-2.8212997E-07],"name":"KON021A - Adhesive Konic Washer Part [9193800]064"},{"mesh":14,"translation":[-1.5014544,1.3771119,-0.06955004],"rotation":[-0.0,-1.0,0.0,-2.8212997E-07],"name":"KON021A - Adhesive Konic Washer Part [9193800]065"},{"mesh":14,"translation":[-1.5014544,0.8183117,-0.06955004],"rotation":[-0.0,-1.0,0.0,-2.8212997E-07],"name":"KON021A - Adhesive Konic Washer Part [9193800]066"},{"mesh":14,"translation":[-2.0337965,1.0113517,-0.06955004],"rotation":[-0.0,-1.0,0.0,-2.8212997E-07],"name":"KON021A - Adhesive Konic Washer Part [9193800]067"},{"mesh":14,"translation":[-2.0337965,0.45255175,-0.06955004],"rotation":[-0.0,-1.0,0.0,-2.8212997E-07],"name":"KON021A - Adhesive Konic Washer Part [9193800]068"},{"mesh":14,"translation":[-1.2352822,1.559992,-1.0315611],"rotation":[-0.0,-3.2584137E-07,0.0,1.0],"name":"KON021A - Adhesive Konic Washer Part [9193800]071"},{"mesh":14,"translation":[-1.2352822,1.0011919,-1.0315611],"rotation":[-0.0,-3.2584137E-07,0.0,1.0],"name":"KON021A - Adhesive Konic Washer Part [9193800]072"},{"mesh":14,"translation":[-1.5014544,1.3771119,-1.0315611],"rotation":[-0.0,-3.2584137E-07,0.0,1.0],"name":"KON021A - Adhesive Konic Washer Part [9193800]073"},{"mesh":14,"translation":[-1.5014544,0.8183117,-1.0315611],"rotation":[-0.0,-3.2584137E-07,0.0,1.0],"name":"KON021A - Adhesive Konic Washer Part [9193800]074"},{"mesh":14,"translation":[-2.0337965,1.0113517,-1.0315611],"rotation":[-0.0,-3.2584137E-07,0.0,1.0],"name":"KON021A - Adhesive Konic Washer Part [9193800]075"},{"mesh":14,"translation":[-2.0337965,0.45255175,-1.0315611],"rotation":[-0.0,-3.2584137E-07,0.0,1.0],"name":"KON021A - Adhesive Konic Washer Part [9193800]076"},{"mesh":14,"translation":[0.6293212,2.8397086,-1.0316278],"rotation":[-0.0,-2.3841858E-07,0.0,1.0],"name":"KON021A - Adhesive Konic Washer Part [9193800]077"},{"mesh":14,"translation":[0.6293212,2.2809083,-1.0316278],"rotation":[-0.0,-2.3841858E-07,0.0,1.0],"name":"KON021A - Adhesive Konic Washer Part [9193800]078"},{"mesh":14,"translation":[0.8957954,3.0230322,-1.0316278],"rotation":[-0.0,-2.3841858E-07,0.0,1.0],"name":"KON021A - Adhesive Konic Washer Part [9193800]079"},{"mesh":14,"translation":[0.8957954,2.4642324,-1.0316278],"rotation":[-0.0,-2.3841858E-07,0.0,1.0],"name":"KON021A - Adhesive Konic Washer Part [9193800]080"},{"mesh":14,"translation":[1.4287437,3.3887916,-1.0316278],"rotation":[-0.0,-2.3841858E-07,0.0,1.0],"name":"KON021A - Adhesive Konic Washer Part [9193800]081"},{"mesh":14,"translation":[1.4287437,2.8299918,-1.0316278],"rotation":[-0.0,-2.3841858E-07,0.0,1.0],"name":"KON021A - Adhesive Konic Washer Part [9193800]082"},{"mesh":14,"translation":[-0.17010455,2.291402,-1.0316278],"rotation":[-0.0,-2.3841858E-07,0.0,1.0],"name":"KON021A - Adhesive Konic Washer Part [9193800]083"},{"mesh":14,"translation":[-0.17010455,1.732602,-1.0316278],"rotation":[-0.0,-2.3841858E-07,0.0,1.0],"name":"KON021A - Adhesive Konic Washer Part [9193800]084"},{"mesh":14,"translation":[-0.4367709,2.1086318,-0.08391813],"rotation":[-0.0,4.524159E-15,0.0,1.0],"name":"KON021 - Konic Washer Part [9193945]089"},{"mesh":14,"translation":[-0.4367709,1.549832,-0.08391813],"rotation":[-0.0,4.524159E-15,0.0,1.0],"name":"KON021 - Konic Washer Part [9193945]090"},{"mesh":14,"translation":[-0.43677092,2.1086328,-1.0173309],"rotation":[-0.0,-1.0,0.0,4.371139E-08],"name":"KON021 - Konic Washer Part [9193945]091"},{"mesh":14,"translation":[-0.43677092,1.5498326,-1.0173309],"rotation":[-0.0,-1.0,0.0,4.371139E-08],"name":"KON021 - Konic Washer Part [9193945]092"},{"mesh":14,"translation":[-0.4367709,2.1086318,-0.06961668],"rotation":[-0.0,-1.0,0.0,2.8212997E-07],"name":"KON021A - Adhesive Konic Washer Part [9193800]089"},{"mesh":14,"translation":[-0.4367709,1.549832,-0.06961668],"rotation":[-0.0,-1.0,0.0,2.8212997E-07],"name":"KON021A - Adhesive Konic Washer Part [9193800]090"},{"mesh":14,"translation":[-0.43677092,2.1086328,-1.0316278],"rotation":[-0.0,-2.3841858E-07,0.0,1.0],"name":"KON021A - Adhesive Konic Washer Part [9193800]091"},{"mesh":14,"translation":[-0.43677092,1.5498326,-1.0316278],"rotation":[-0.0,-2.3841858E-07,0.0,1.0],"name":"KON021A - Adhesive Konic Washer Part [9193800]092"},{"mesh":15,"translation":[-0.17010453,2.2914014,-0.08549013],"rotation":[-0.0,0.7071068,0.0,0.7071067],"name":"KON006 - Lower Panel Clamp Part [8739162]102"},{"mesh":15,"translation":[-0.17010453,1.7326014,-0.08549013],"rotation":[-0.0,0.7071068,0.0,0.7071067],"name":"KON006 - Lower Panel Clamp Part [8739162]103"},{"mesh":15,"translation":[0.6293212,2.8397086,-0.08549013],"rotation":[-0.0,0.7071068,0.0,0.7071067],"name":"KON006 - Lower Panel Clamp Part [8739162]104"},{"mesh":15,"translation":[0.6293212,2.2809083,-0.08549013],"rotation":[-0.0,0.7071068,0.0,0.7071067],"name":"KON006 - Lower Panel Clamp Part [8739162]105"},{"mesh":15,"translation":[0.8957954,3.0230322,-0.08549013],"rotation":[-0.0,0.7071068,0.0,0.7071067],"name":"KON006 - Lower Panel Clamp Part [8739162]106"},{"mesh":15,"translation":[0.8957954,2.4642324,-0.08549013],"rotation":[-0.0,0.7071068,0.0,0.7071067],"name":"KON006 - Lower Panel Clamp Part [8739162]107"},{"mesh":15,"translation":[1.4287437,3.3887916,-0.08549013],"rotation":[-0.0,0.7071068,0.0,0.7071067],"name":"KON006 - Lower Panel Clamp Part [8739162]108"},{"mesh":15,"translation":[1.4287437,2.8299918,-0.08549013],"rotation":[-0.0,0.7071068,0.0,0.7071067],"name":"KON006 - Lower Panel Clamp Part [8739162]109"},{"mesh":15,"translation":[-1.2352822,1.559992,-0.085423484],"rotation":[-0.0,0.7071066,0.0,0.70710695],"name":"KON006 - Lower Panel Clamp Part [8739162]112"},{"mesh":15,"translation":[-1.2352822,1.0011919,-0.085423484],"rotation":[-0.0,0.7071066,0.0,0.70710695],"name":"KON006 - Lower Panel Clamp Part [8739162]113"},{"mesh":15,"translation":[-1.5014544,1.3771119,-0.085423484],"rotation":[-0.0,0.7071066,0.0,0.70710695],"name":"KON006 - Lower Panel Clamp Part [8739162]114"},{"mesh":15,"translation":[-1.5014544,0.8183117,-0.085423484],"rotation":[-0.0,0.7071066,0.0,0.70710695],"name":"KON006 - Lower Panel Clamp Part [8739162]115"},{"mesh":15,"translation":[-2.0337965,1.0113517,-0.085423484],"rotation":[-0.0,0.7071066,0.0,0.70710695],"name":"KON006 - Lower Panel Clamp Part [8739162]116"},{"mesh":15,"translation":[-2.0337965,0.45255175,-0.085423484],"rotation":[-0.0,0.7071066,0.0,0.70710695],"name":"KON006 - Lower Panel Clamp Part [8739162]117"},{"mesh":15,"translation":[-1.2352822,1.559992,-1.0156877],"rotation":[-0.0,-0.7071068,0.0,0.7071067],"name":"KON006 - Lower Panel Clamp Part [8739162]120"},{"mesh":15,"translation":[-1.2352822,1.0011919,-1.0156877],"rotation":[-0.0,-0.7071068,0.0,0.7071067],"name":"KON006 - Lower Panel Clamp Part [8739162]121"},{"mesh":15,"translation":[-1.5014544,1.3771119,-1.0156877],"rotation":[-0.0,-0.7071068,0.0,0.7071067],"name":"KON006 - Lower Panel Clamp Part [8739162]122"},{"mesh":15,"translation":[-1.5014544,0.8183117,-1.0156877],"rotation":[-0.0,-0.7071068,0.0,0.7071067],"name":"KON006 - Lower Panel Clamp Part [8739162]123"},{"mesh":15,"translation":[-2.0337965,1.0113517,-1.0156877],"rotation":[-0.0,-0.7071068,0.0,0.7071067],"name":"KON006 - Lower Panel Clamp Part [8739162]124"},{"mesh":15,"translation":[-2.0337965,0.45255175,-1.0156877],"rotation":[-0.0,-0.7071068,0.0,0.7071067],"name":"KON006 - Lower Panel Clamp Part [8739162]125"},{"mesh":15,"translation":[0.6293212,2.8397086,-1.0157543],"rotation":[-0.0,-0.7071068,0.0,0.7071067],"name":"KON006 - Lower Panel Clamp Part [8739162]126"},{"mesh":15,"translation":[0.6293212,2.2809083,-1.0157543],"rotation":[-0.0,-0.7071068,0.0,0.7071067],"name":"KON006 - Lower Panel Clamp Part [8739162]127"},{"mesh":15,"translation":[0.8957954,3.0230322,-1.0157543],"rotation":[-0.0,-0.7071068,0.0,0.7071067],"name":"KON006 - Lower Panel Clamp Part [8739162]128"},{"mesh":15,"translation":[0.8957954,2.4642324,-1.0157543],"rotation":[-0.0,-0.7071068,0.0,0.7071067],"name":"KON006 - Lower Panel Clamp Part [8739162]129"},{"mesh":15,"translation":[1.4287437,3.3887916,-1.0157543],"rotation":[-0.0,-0.7071068,0.0,0.7071067],"name":"KON006 - Lower Panel Clamp Part [8739162]130"},{"mesh":15,"translation":[1.4287437,2.8299918,-1.0157543],"rotation":[-0.0,-0.7071068,0.0,0.7071067],"name":"KON006 - Lower Panel Clamp Part [8739162]131"},{"mesh":15,"translation":[-0.17010455,2.291402,-1.0157543],"rotation":[-0.0,-0.7071068,0.0,0.7071067],"name":"KON006 - Lower Panel Clamp Part [8739162]132"},{"mesh":15,"translation":[-0.17010455,1.732602,-1.0157543],"rotation":[-0.0,-0.7071068,0.0,0.7071067],"name":"KON006 - Lower Panel Clamp Part [8739162]133"},{"mesh":15,"translation":[-0.4367709,2.1086318,-0.08549013],"rotation":[-0.0,0.7071068,0.0,0.7071067],"name":"KON006 - Lower Panel Clamp Part [8739162]208"},{"mesh":15,"translation":[-0.4367709,1.549832,-0.08549013],"rotation":[-0.0,0.7071068,0.0,0.7071067],"name":"KON006 - Lower Panel Clamp Part [8739162]209"},{"mesh":15,"translation":[-0.43677092,2.1086328,-1.0157543],"rotation":[-0.0,-0.7071068,0.0,0.7071067],"name":"KON006 - Lower Panel Clamp Part [8739162]210"},{"mesh":15,"translation":[-0.43677092,1.5498326,-1.0157543],"rotation":[-0.0,-0.7071068,0.0,0.7071067],"name":"KON006 - Lower Panel Clamp Part [8739162]211"},{"mesh":16,"translation":[-0.17010453,1.46293,-0.020391779],"rotation":[-0.0,-0.7071068,0.0,0.7071067],"name":"CSQ001-US - Surface Mount Weldment Part [8723797]066"},{"mesh":16,"translation":[0.6293212,2.0112367,-0.020391779],"rotation":[-0.0,-0.7071068,0.0,0.7071067],"name":"CSQ001-US - Surface Mount Weldment Part [8723797]067"},{"mesh":16,"translation":[0.8957954,2.1945603,-0.020391779],"rotation":[-0.0,-0.7071068,0.0,0.7071067],"name":"CSQ001-US - Surface Mount Weldment Part [8723797]068"},{"mesh":16,"translation":[1.4287437,2.56032,-0.020391779],"rotation":[-0.0,-0.7071068,0.0,0.7071067],"name":"CSQ001-US - Surface Mount Weldment Part [8723797]069"},{"mesh":16,"translation":[-1.2352822,0.7315199,-0.020325132],"rotation":[-0.0,-0.7071068,0.0,0.7071067],"name":"CSQ001-US - Surface Mount Weldment Part [8723797]070"},{"mesh":16,"translation":[-1.5014544,0.5486401,-0.020325132],"rotation":[-0.0,-0.7071068,0.0,0.7071067],"name":"CSQ001-US - Surface Mount Weldment Part [8723797]071"},{"mesh":16,"translation":[-2.0337965,0.18288012,-0.020325132],"rotation":[-0.0,-0.7071068,0.0,0.7071067],"name":"CSQ001-US - Surface Mount Weldment Part [8723797]072"},{"mesh":16,"translation":[-1.2352822,0.7315199,-1.080786],"rotation":[-0.0,0.7071066,0.0,0.70710695],"name":"CSQ001-US - Surface Mount Weldment Part [8723797]074"},{"mesh":16,"translation":[-1.5014544,0.5486401,-1.080786],"rotation":[-0.0,0.7071066,0.0,0.70710695],"name":"CSQ001-US - Surface Mount Weldment Part [8723797]075"},{"mesh":16,"translation":[-2.0337965,0.18288012,-1.0807861],"rotation":[-0.0,0.7071066,0.0,0.70710695],"name":"CSQ001-US - Surface Mount Weldment Part [8723797]076"},{"mesh":16,"translation":[0.6293212,2.0112367,-1.0808526],"rotation":[-0.0,0.7071068,0.0,0.7071067],"name":"CSQ001-US - Surface Mount Weldment Part [8723797]077"},{"mesh":16,"translation":[0.8957954,2.1945603,-1.0808526],"rotation":[-0.0,0.7071068,0.0,0.7071067],"name":"CSQ001-US - Surface Mount Weldment Part [8723797]078"},{"mesh":16,"translation":[1.4287437,2.56032,-1.0808526],"rotation":[-0.0,0.7071068,0.0,0.7071067],"name":"CSQ001-US - Surface Mount Weldment Part [8723797]079"},{"mesh":16,"translation":[-0.17010455,1.4629301,-1.0808526],"rotation":[-0.0,0.7071068,0.0,0.7071067],"name":"CSQ001-US - Surface Mount Weldment Part [8723797]080"},{"mesh":16,"translation":[-0.4367709,1.2801605,-0.020391779],"rotation":[-0.0,-0.7071068,0.0,0.7071067],"name":"CSQ001-US - Surface Mount Weldment Part [8723797]259"},{"mesh":16,"translation":[-0.43677092,1.2801607,-1.0808526],"rotation":[-0.0,0.7071068,0.0,0.7071067],"name":"CSQ001-US - Surface Mount Weldment Part [8723797]260"},{"mesh":17,"translation":[-0.17010453,2.2914014,-0.020391779],"rotation":[-0.0,0.7071068,0.0,0.7071067],"name":"KON002 - Barrel Mount Part [9048960]052"},{"mesh":17,"translation":[0.6293212,2.8397086,-0.020391779],"rotation":[-0.0,0.7071068,0.0,0.7071067],"name":"KON002 - Barrel Mount Part [9048960]053"},{"mesh":17,"translation":[0.8957954,3.0230322,-0.020391779],"rotation":[-0.0,0.7071068,0.0,0.7071067],"name":"KON002 - Barrel Mount Part [9048960]054"},{"mesh":17,"translation":[1.4287437,3.3887916,-0.020391779],"rotation":[-0.0,0.7071068,0.0,0.7071067],"name":"KON002 - Barrel Mount Part [9048960]055"},{"mesh":17,"translation":[-1.2352822,1.559992,-0.020325132],"rotation":[-0.0,0.7071066,0.0,0.70710695],"name":"KON002 - Barrel Mount Part [9048960]057"},{"mesh":17,"translation":[-1.5014544,1.3771119,-0.020325132],"rotation":[-0.0,0.7071066,0.0,0.70710695],"name":"KON002 - Barrel Mount Part [9048960]058"},{"mesh":17,"translation":[-2.0337965,1.0113517,-0.020325132],"rotation":[-0.0,0.7071066,0.0,0.70710695],"name":"KON002 - Barrel Mount Part [9048960]059"},{"mesh":17,"translation":[-1.2352822,1.559992,-1.080786],"rotation":[-0.0,-0.7071068,0.0,0.7071067],"name":"KON002 - Barrel Mount Part [9048960]061"},{"mesh":17,"translation":[-1.5014544,1.3771119,-1.080786],"rotation":[-0.0,-0.7071068,0.0,0.7071067],"name":"KON002 - Barrel Mount Part [9048960]062"},{"mesh":17,"translation":[-2.0337965,1.0113517,-1.0807861],"rotation":[-0.0,-0.7071068,0.0,0.7071067],"name":"KON002 - Barrel Mount Part [9048960]063"},{"mesh":17,"translation":[0.6293212,2.8397086,-1.0808526],"rotation":[-0.0,-0.7071068,0.0,0.7071067],"name":"KON002 - Barrel Mount Part [9048960]064"},{"mesh":17,"translation":[0.8957954,3.0230322,-1.0808526],"rotation":[-0.0,-0.7071068,0.0,0.7071067],"name":"KON002 - Barrel Mount Part [9048960]065"},{"mesh":17,"translation":[1.4287437,3.3887916,-1.0808526],"rotation":[-0.0,-0.7071068,0.0,0.7071067],"name":"KON002 - Barrel Mount Part [9048960]066"},{"mesh":17,"translation":[-0.17010455,2.291402,-1.0808526],"rotation":[-0.0,-0.7071068,0.0,0.7071067],"name":"KON002 - Barrel Mount Part [9048960]067"},{"mesh":17,"translation":[-0.17010453,1.7326014,-0.020391779],"rotation":[-0.0,0.7071068,0.0,0.7071067],"name":"KON002 - Barrel Mount Part [9048960]077"},{"mesh":17,"translation":[0.6293212,2.2809083,-0.020391779],"rotation":[-0.0,0.7071068,0.0,0.7071067],"name":"KON002 - Barrel Mount Part [9048960]078"},{"mesh":17,"translation":[0.8957954,2.4642324,-0.020391779],"rotation":[-0.0,0.7071068,0.0,0.7071067],"name":"KON002 - Barrel Mount Part [9048960]079"},{"mesh":17,"translation":[1.4287437,2.8299918,-0.020391779],"rotation":[-0.0,0.7071068,0.0,0.7071067],"name":"KON002 - Barrel Mount Part [9048960]080"},{"mesh":17,"translation":[-1.2352822,1.0011919,-0.020325132],"rotation":[-0.0,0.7071066,0.0,0.70710695],"name":"KON002 - Barrel Mount Part [9048960]082"},{"mesh":17,"translation":[-1.5014544,0.8183117,-0.020325132],"rotation":[-0.0,0.7071066,0.0,0.70710695],"name":"KON002 - Barrel Mount Part [9048960]083"},{"mesh":17,"translation":[-2.0337965,0.45255175,-0.020325132],"rotation":[-0.0,0.7071066,0.0,0.70710695],"name":"KON002 - Barrel Mount Part [9048960]084"},{"mesh":17,"translation":[-1.2352822,1.0011919,-1.080786],"rotation":[-0.0,-0.7071068,0.0,0.7071067],"name":"KON002 - Barrel Mount Part [9048960]086"},{"mesh":17,"translation":[-1.5014544,0.8183117,-1.080786],"rotation":[-0.0,-0.7071068,0.0,0.7071067],"name":"KON002 - Barrel Mount Part [9048960]087"},{"mesh":17,"translation":[-2.0337965,0.45255175,-1.0807861],"rotation":[-0.0,-0.7071068,0.0,0.7071067],"name":"KON002 - Barrel Mount Part [9048960]088"},{"mesh":17,"translation":[0.6293212,2.2809083,-1.0808526],"rotation":[-0.0,-0.7071068,0.0,0.7071067],"name":"KON002 - Barrel Mount Part [9048960]089"},{"mesh":17,"translation":[0.8957954,2.4642324,-1.0808526],"rotation":[-0.0,-0.7071068,0.0,0.7071067],"name":"KON002 - Barrel Mount Part [9048960]090"},{"mesh":17,"translation":[1.4287437,2.8299918,-1.0808526],"rotation":[-0.0,-0.7071068,0.0,0.7071067],"name":"KON002 - Barrel Mount Part [9048960]091"},{"mesh":17,"translation":[-0.17010455,1.732602,-1.0808526],"rotation":[-0.0,-0.7071068,0.0,0.7071067],"name":"KON002 - Barrel Mount Part [9048960]092"},{"mesh":17,"translation":[-0.4367709,2.1086318,-0.020391779],"rotation":[-0.0,0.7071068,0.0,0.7071067],"name":"KON002 - Barrel Mount Part [9048960]097"},{"mesh":17,"translation":[-0.43677092,2.1086328,-1.0808526],"rotation":[-0.0,-0.7071068,0.0,0.7071067],"name":"KON002 - Barrel Mount Part [9048960]098"},{"mesh":17,"translation":[-0.4367709,1.549832,-0.020391779],"rotation":[-0.0,0.7071068,0.0,0.7071067],"name":"KON002 - Barrel Mount Part [9048960]099"},{"mesh":17,"translation":[-0.43677092,1.5498326,-1.0808526],"rotation":[-0.0,-0.7071068,0.0,0.7071067],"name":"KON002 - Barrel Mount Part [9048960]100"},{"mesh":18,"translation":[-0.2999639,0.0,-0.07673256],"name":"Box010"},{"mesh":18,"translation":[-0.2999639,0.0,-1.0243795],"name":"Box011"},{"mesh":19,"translation":[-0.29534957,2.376288,-1.0243602],"name":"Generic Models 11 Generic Models 11 [8762451]009"},{"mesh":19,"translation":[-0.29534957,2.376288,-0.07671316],"name":"Generic Models 11 Generic Models 11 [8762451]010"}],"meshes":[{"primitives":[{"attributes":{"POSITION":1,"TANGENT":2,"NORMAL":3,"TEXCOORD_0":4},"indices":0,"material":0}],"name":"LS201 & LS202 - Konic Post Material LS Material [9048531]001"},{"primitives":[{"attributes":{"POSITION":6,"TANGENT":7,"NORMAL":8,"TEXCOORD_0":9},"indices":5,"material":0}],"name":"LS201 & LS202 - Konic Post Material LS Material [9048551]001"},{"primitives":[{"attributes":{"POSITION":11,"TANGENT":12,"NORMAL":13,"TEXCOORD_0":14},"indices":10,"material":0}],"name":"LS201 & LS202 - Konic Post Material LS Material [9048569]001"},{"primitives":[{"attributes":{"POSITION":16,"TANGENT":17,"NORMAL":18,"TEXCOORD_0":19},"indices":15,"material":0}],"name":"LS201 & LS202 - Konic Post Material LS Material [9048587]001"},{"primitives":[{"attributes":{"POSITION":21,"TANGENT":22,"NORMAL":23,"TEXCOORD_0":24},"indices":20,"material":0}],"name":"LS201 & LS202 - Konic Post Material LS Material [9048616]001"},{"primitives":[{"attributes":{"POSITION":26,"TANGENT":27,"NORMAL":28,"TEXCOORD_0":29},"indices":25,"material":0}],"name":"LS201 & LS202 - Konic Post Material LS Material [9048634]001"},{"primitives":[{"attributes":{"POSITION":31,"TANGENT":32,"NORMAL":33,"TEXCOORD_0":34},"indices":30,"material":0}],"name":"LS201 & LS202 - Konic Post Material LS Material [9048652]001"},{"primitives":[{"attributes":{"POSITION":36,"TANGENT":37,"NORMAL":38,"TEXCOORD_0":39},"indices":35,"material":0}],"name":"LS201 & LS202 - Konic Post Material LS Material [9048824]001"},{"primitives":[{"attributes":{"POSITION":41,"TANGENT":42,"NORMAL":43,"TEXCOORD_0":44},"indices":40,"material":0}],"name":"LS201 & LS202 - Konic Post Material LS Material [9048829]001"},{"primitives":[{"attributes":{"POSITION":46,"TANGENT":47,"NORMAL":48,"TEXCOORD_0":49},"indices":45,"material":0}],"name":"LS201 & LS202 - Konic Post Material LS Material [9048834]001"},{"primitives":[{"attributes":{"POSITION":51,"TANGENT":52,"NORMAL":53,"TEXCOORD_0":54},"indices":50,"material":0}],"name":"LS201 & LS202 - Konic Post Material LS Material [9048880]001"},{"primitives":[{"attributes":{"POSITION":56,"TANGENT":57,"NORMAL":58,"TEXCOORD_0":59},"indices":55,"material":0}],"name":"LS201 & LS202 - Konic Post Material LS Material [9048885]001"},{"primitives":[{"attributes":{"POSITION":61,"TANGENT":62,"NORMAL":63,"TEXCOORD_0":64},"indices":60,"material":0}],"name":"LS201 & LS202 - Konic Post Material LS Material [9048890]001"},{"primitives":[{"attributes":{"POSITION":66,"TANGENT":67,"NORMAL":68,"TEXCOORD_0":69},"indices":65,"material":0}],"name":"LS201 & LS202 - Konic Post Material LS Material [9048914]001"},{"primitives":[{"attributes":{"POSITION":71,"TANGENT":72,"NORMAL":73,"TEXCOORD_0":74},"indices":70,"material":1}],"name":"KON021 - Konic Washer Part [9193945]053"},{"primitives":[{"attributes":{"POSITION":76,"TANGENT":77,"NORMAL":78,"TEXCOORD_0":79},"indices":75,"material":0},{"attributes":{"POSITION":81,"TANGENT":82,"NORMAL":83,"TEXCOORD_0":84},"indices":80,"material":2}],"name":"KON006 - Lower Panel Clamp Part [8739162]102"},{"primitives":[{"attributes":{"POSITION":86,"TANGENT":87,"NORMAL":88,"TEXCOORD_0":89},"indices":85,"material":0}],"name":"CSQ001-US - Surface Mount Weldment Part [8723797]066"},{"primitives":[{"attributes":{"POSITION":91,"TANGENT":92,"NORMAL":93,"TEXCOORD_0":94},"indices":90,"material":0},{"attributes":{"POSITION":96,"TANGENT":97,"NORMAL":98,"TEXCOORD_0":99},"indices":95,"material":2}],"name":"KON002 - Barrel Mount Part [9048960]052"},{"primitives":[{"attributes":{"POSITION":101,"TANGENT":102,"NORMAL":103,"TEXCOORD_0":104},"indices":100,"material":3}],"name":"Box010"},{"primitives":[{"attributes":{"POSITION":106,"TANGENT":107,"NORMAL":108,"TEXCOORD_0":109},"indices":105,"material":0},{"attributes":{"POSITION":111,"TANGENT":112,"NORMAL":113,"TEXCOORD_0":114},"indices":110,"material":2}],"name":"Generic Models 11 Generic Models 11 [8762451]009"}],"accessors":[{"bufferView":0,"componentType":5123,"count":1428,"type":"SCALAR","name":"accessorIndices"},{"bufferView":1,"componentType":5126,"count":488,"max":[0.8390128,0.028575,0.0079375],"min":[6.358873E-15,-0.028575,-0.007937596],"type":"VEC3","name":"accessorPositions"},{"bufferView":2,"componentType":5126,"count":488,"type":"VEC4","name":"accessorTangents"},{"bufferView":1,"byteOffset":5856,"componentType":5126,"count":488,"type":"VEC3","name":"accessorNormals"},{"bufferView":3,"componentType":5126,"count":488,"type":"VEC2","name":"accessorUVs"},{"bufferView":0,"byteOffset":2856,"componentType":5123,"count":1428,"type":"SCALAR","name":"accessorIndices"},{"bufferView":1,"byteOffset":11712,"componentType":5126,"count":488,"max":[0.8390128,0.028575,0.0079375],"min":[6.358873E-15,-0.028575,-0.007937597],"type":"VEC3","name":"accessorPositions"},{"bufferView":2,"byteOffset":7808,"componentType":5126,"count":488,"type":"VEC4","name":"accessorTangents"},{"bufferView":1,"byteOffset":17568,"componentType":5126,"count":488,"type":"VEC3","name":"accessorNormals"},{"bufferView":3,"byteOffset":3904,"componentType":5126,"count":488,"type":"VEC2","name":"accessorUVs"},{"bufferView":0,"byteOffset":5712,"componentType":5123,"count":1428,"type":"SCALAR","name":"accessorIndices"},{"bufferView":1,"byteOffset":23424,"componentType":5126,"count":488,"max":[0.83901274,0.028575,0.0079375],"min":[6.358873E-15,-0.028575,-0.0079375245],"type":"VEC3","name":"accessorPositions"},{"bufferView":2,"byteOffset":15616,"componentType":5126,"count":488,"type":"VEC4","name":"accessorTangents"},{"bufferView":1,"byteOffset":29280,"componentType":5126,"count":488,"type":"VEC3","name":"accessorNormals"},{"bufferView":3,"byteOffset":7808,"componentType":5126,"count":488,"type":"VEC2","name":"accessorUVs"},{"bufferView":0,"byteOffset":8568,"componentType":5123,"count":1428,"type":"SCALAR","name":"accessorIndices"},{"bufferView":1,"byteOffset":35136,"componentType":5126,"count":488,"max":[0.8390127,0.028575,0.0079375],"min":[6.358873E-15,-0.028575,-0.007937597],"type":"VEC3","name":"accessorPositions"},{"bufferView":2,"byteOffset":23424,"componentType":5126,"count":488,"type":"VEC4","name":"accessorTangents"},{"bufferView":1,"byteOffset":40992,"componentType":5126,"count":488,"type":"VEC3","name":"accessorNormals"},{"bufferView":3,"byteOffset":11712,"componentType":5126,"count":488,"type":"VEC2","name":"accessorUVs"},{"bufferView":0,"byteOffset":11424,"componentType":5123,"count":1428,"type":"SCALAR","name":"accessorIndices"},{"bufferView":1,"byteOffset":46848,"componentType":5126,"count":488,"max":[0.8390128,0.028575,0.0079375],"min":[6.358873E-15,-0.028575,-0.007937561],"type":"VEC3","name":"accessorPositions"},{"bufferView":2,"byteOffset":31232,"componentType":5126,"count":488,"type":"VEC4","name":"accessorTangents"},{"bufferView":1,"byteOffset":52704,"componentType":5126,"count":488,"type":"VEC3","name":"accessorNormals"},{"bufferView":3,"byteOffset":15616,"componentType":5126,"count":488,"type":"VEC2","name":"accessorUVs"},{"bufferView":0,"byteOffset":14280,"componentType":5123,"count":1428,"type":"SCALAR","name":"accessorIndices"},{"bufferView":1,"byteOffset":58560,"componentType":5126,"count":488,"max":[0.8390128,0.028575,0.0079375245],"min":[6.358873E-15,-0.028575,-0.0079375],"type":"VEC3","name":"accessorPositions"},{"bufferView":2,"byteOffset":39040,"componentType":5126,"count":488,"type":"VEC4","name":"accessorTangents"},{"bufferView":1,"byteOffset":64416,"componentType":5126,"count":488,"type":"VEC3","name":"accessorNormals"},{"bufferView":3,"byteOffset":19520,"componentType":5126,"count":488,"type":"VEC2","name":"accessorUVs"},{"bufferView":0,"byteOffset":17136,"componentType":5123,"count":1428,"type":"SCALAR","name":"accessorIndices"},{"bufferView":1,"byteOffset":70272,"componentType":5126,"count":488,"max":[0.83901274,0.028575,0.0079375],"min":[6.358873E-15,-0.028575,-0.007937597],"type":"VEC3","name":"accessorPositions"},{"bufferView":2,"byteOffset":46848,"componentType":5126,"count":488,"type":"VEC4","name":"accessorTangents"},{"bufferView":1,"byteOffset":76128,"componentType":5126,"count":488,"type":"VEC3","name":"accessorNormals"},{"bufferView":3,"byteOffset":23424,"componentType":5126,"count":488,"type":"VEC2","name":"accessorUVs"},{"bufferView":0,"byteOffset":19992,"componentType":5123,"count":1428,"type":"SCALAR","name":"accessorIndices"},{"bufferView":1,"byteOffset":81984,"componentType":5126,"count":488,"max":[0.8390128,0.028575,0.0079375],"min":[6.358873E-15,-0.028575,-0.007937597],"type":"VEC3","name":"accessorPositions"},{"bufferView":2,"byteOffset":54656,"componentType":5126,"count":488,"type":"VEC4","name":"accessorTangents"},{"bufferView":1,"byteOffset":87840,"componentType":5126,"count":488,"type":"VEC3","name":"accessorNormals"},{"bufferView":3,"byteOffset":27328,"componentType":5126,"count":488,"type":"VEC2","name":"accessorUVs"},{"bufferView":0,"byteOffset":22848,"componentType":5123,"count":1428,"type":"SCALAR","name":"accessorIndices"},{"bufferView":1,"byteOffset":93696,"componentType":5126,"count":488,"max":[0.8390129,0.028575,0.0079375],"min":[6.358873E-15,-0.028575,-0.007937597],"type":"VEC3","name":"accessorPositions"},{"bufferView":2,"byteOffset":62464,"componentType":5126,"count":488,"type":"VEC4","name":"accessorTangents"},{"bufferView":1,"byteOffset":99552,"componentType":5126,"count":488,"type":"VEC3","name":"accessorNormals"},{"bufferView":3,"byteOffset":31232,"componentType":5126,"count":488,"type":"VEC2","name":"accessorUVs"},{"bufferView":0,"byteOffset":25704,"componentType":5123,"count":1428,"type":"SCALAR","name":"accessorIndices"},{"bufferView":1,"byteOffset":105408,"componentType":5126,"count":488,"max":[0.8390128,0.028575,0.0079375],"min":[6.358873E-15,-0.028575,-0.007937597],"type":"VEC3","name":"accessorPositions"},{"bufferView":2,"byteOffset":70272,"componentType":5126,"count":488,"type":"VEC4","name":"accessorTangents"},{"bufferView":1,"byteOffset":111264,"componentType":5126,"count":488,"type":"VEC3","name":"accessorNormals"},{"bufferView":3,"byteOffset":35136,"componentType":5126,"count":488,"type":"VEC2","name":"accessorUVs"},{"bufferView":0,"byteOffset":28560,"componentType":5123,"count":1428,"type":"SCALAR","name":"accessorIndices"},{"bufferView":1,"byteOffset":117120,"componentType":5126,"count":488,"max":[0.8390128,0.028575,0.0079375],"min":[6.358873E-15,-0.028575074,-0.007937561],"type":"VEC3","name":"accessorPositions"},{"bufferView":2,"byteOffset":78080,"componentType":5126,"count":488,"type":"VEC4","name":"accessorTangents"},{"bufferView":1,"byteOffset":122976,"componentType":5126,"count":488,"type":"VEC3","name":"accessorNormals"},{"bufferView":3,"byteOffset":39040,"componentType":5126,"count":488,"type":"VEC2","name":"accessorUVs"},{"bufferView":0,"byteOffset":31416,"componentType":5123,"count":1428,"type":"SCALAR","name":"accessorIndices"},{"bufferView":1,"byteOffset":128832,"componentType":5126,"count":488,"max":[0.8390128,0.028575,0.0079375],"min":[6.358873E-15,-0.028575,-0.0079375245],"type":"VEC3","name":"accessorPositions"},{"bufferView":2,"byteOffset":85888,"componentType":5126,"count":488,"type":"VEC4","name":"accessorTangents"},{"bufferView":1,"byteOffset":134688,"componentType":5126,"count":488,"type":"VEC3","name":"accessorNormals"},{"bufferView":3,"byteOffset":42944,"componentType":5126,"count":488,"type":"VEC2","name":"accessorUVs"},{"bufferView":0,"byteOffset":34272,"componentType":5123,"count":1428,"type":"SCALAR","name":"accessorIndices"},{"bufferView":1,"byteOffset":140544,"componentType":5126,"count":488,"max":[0.83901274,0.028575,0.0079375],"min":[6.358873E-15,-0.028575,-0.007937597],"type":"VEC3","name":"accessorPositions"},{"bufferView":2,"byteOffset":93696,"componentType":5126,"count":488,"type":"VEC4","name":"accessorTangents"},{"bufferView":1,"byteOffset":146400,"componentType":5126,"count":488,"type":"VEC3","name":"accessorNormals"},{"bufferView":3,"byteOffset":46848,"componentType":5126,"count":488,"type":"VEC2","name":"accessorUVs"},{"bufferView":0,"byteOffset":37128,"componentType":5123,"count":1428,"type":"SCALAR","name":"accessorIndices"},{"bufferView":1,"byteOffset":152256,"componentType":5126,"count":488,"max":[0.8390128,0.028575074,0.0079375],"min":[6.358873E-15,-0.028575,-0.007937542],"type":"VEC3","name":"accessorPositions"},{"bufferView":2,"byteOffset":101504,"componentType":5126,"count":488,"type":"VEC4","name":"accessorTangents"},{"bufferView":1,"byteOffset":158112,"componentType":5126,"count":488,"type":"VEC3","name":"accessorNormals"},{"bufferView":3,"byteOffset":50752,"componentType":5126,"count":488,"type":"VEC2","name":"accessorUVs"},{"bufferView":0,"byteOffset":39984,"componentType":5123,"count":1440,"type":"SCALAR","name":"accessorIndices"},{"bufferView":1,"byteOffset":163968,"componentType":5126,"count":484,"max":[0.012700001,0.012700001,-8.253881E-15],"min":[-0.012700001,-0.012700001,-0.0015748],"type":"VEC3","name":"accessorPositions"},{"bufferView":2,"byteOffset":109312,"componentType":5126,"count":484,"type":"VEC4","name":"accessorTangents"},{"bufferView":1,"byteOffset":169776,"componentType":5126,"count":484,"type":"VEC3","name":"accessorNormals"},{"bufferView":3,"byteOffset":54656,"componentType":5126,"count":484,"type":"VEC2","name":"accessorUVs"},{"bufferView":0,"byteOffset":42864,"componentType":5123,"count":864,"type":"SCALAR","name":"accessorIndices"},{"bufferView":1,"byteOffset":175584,"componentType":5126,"count":292,"max":[0.006604,0.015875,0.015875],"min":[-0.022722581,-0.015875,-0.015875],"type":"VEC3","name":"accessorPositions"},{"bufferView":2,"byteOffset":117056,"componentType":5126,"count":292,"type":"VEC4","name":"accessorTangents"},{"bufferView":1,"byteOffset":179088,"componentType":5126,"count":292,"type":"VEC3","name":"accessorNormals"},{"bufferView":3,"byteOffset":58528,"componentType":5126,"count":292,"type":"VEC2","name":"accessorUVs"},{"bufferView":0,"byteOffset":44592,"componentType":5123,"count":858,"type":"SCALAR","name":"accessorIndices"},{"bufferView":1,"byteOffset":182592,"componentType":5126,"count":289,"max":[0.006604,0.015875,0.015875],"min":[-0.022722581,-0.015875,-0.015875],"type":"VEC3","name":"accessorPositions"},{"bufferView":2,"byteOffset":121728,"componentType":5126,"count":289,"type":"VEC4","name":"accessorTangents"},{"bufferView":1,"byteOffset":186060,"componentType":5126,"count":289,"type":"VEC3","name":"accessorNormals"},{"bufferView":3,"byteOffset":60864,"componentType":5126,"count":289,"type":"VEC2","name":"accessorUVs"},{"bufferView":0,"byteOffset":46308,"componentType":5123,"count":570,"type":"SCALAR","name":"accessorIndices"},{"bufferView":1,"byteOffset":189528,"componentType":5126,"count":189,"max":[0.053975,0.025400002,0.053975],"min":[-0.053975,-3.0953716E-15,-0.053975],"type":"VEC3","name":"accessorPositions"},{"bufferView":2,"byteOffset":126352,"componentType":5126,"count":189,"type":"VEC4","name":"accessorTangents"},{"bufferView":1,"byteOffset":191796,"componentType":5126,"count":189,"type":"VEC3","name":"accessorNormals"},{"bufferView":3,"byteOffset":63176,"componentType":5126,"count":189,"type":"VEC2","name":"accessorUVs"},{"bufferView":0,"byteOffset":47448,"componentType":5123,"count":432,"type":"SCALAR","name":"accessorIndices"},{"bufferView":1,"byteOffset":194064,"componentType":5126,"count":146,"max":[0.0476504,0.015875,0.015875],"min":[-0.0348996,-0.015875,-0.015875],"type":"VEC3","name":"accessorPositions"},{"bufferView":2,"byteOffset":129376,"componentType":5126,"count":146,"type":"VEC4","name":"accessorTangents"},{"bufferView":1,"byteOffset":195816,"componentType":5126,"count":146,"type":"VEC3","name":"accessorNormals"},{"bufferView":3,"byteOffset":64688,"componentType":5126,"count":146,"type":"VEC2","name":"accessorUVs"},{"bufferView":0,"byteOffset":48312,"componentType":5123,"count":420,"type":"SCALAR","name":"accessorIndices"},{"bufferView":1,"byteOffset":197568,"componentType":5126,"count":144,"max":[0.0476504,0.015875,0.015875],"min":[-0.0348996,-0.015875,-0.015875],"type":"VEC3","name":"accessorPositions"},{"bufferView":2,"byteOffset":131712,"componentType":5126,"count":144,"type":"VEC4","name":"accessorTangents"},{"bufferView":1,"byteOffset":199296,"componentType":5126,"count":144,"type":"VEC3","name":"accessorNormals"},{"bufferView":3,"byteOffset":65856,"componentType":5126,"count":144,"type":"VEC2","name":"accessorUVs"},{"bufferView":0,"byteOffset":49152,"componentType":5123,"count":144,"type":"SCALAR","name":"accessorIndices"},{"bufferView":1,"byteOffset":201024,"componentType":5126,"count":96,"max":[1.8935392,3.686544,0.007143598],"min":[-1.8863822,0.19727604,-0.007143598],"type":"VEC3","name":"accessorPositions"},{"bufferView":2,"byteOffset":134016,"componentType":5126,"count":96,"type":"VEC4","name":"accessorTangents"},{"bufferView":1,"byteOffset":202176,"componentType":5126,"count":96,"type":"VEC3","name":"accessorNormals"},{"bufferView":3,"byteOffset":67008,"componentType":5126,"count":96,"type":"VEC2","name":"accessorUVs"},{"bufferView":0,"byteOffset":49440,"componentType":5123,"count":4080,"type":"SCALAR","name":"accessorIndices"},{"bufferView":1,"byteOffset":203328,"componentType":5126,"count":1526,"max":[1.8968263,1.3227077,0.019062791],"min":[-1.8968263,-1.3227078,-0.019062791],"type":"VEC3","name":"accessorPositions"},{"bufferView":2,"byteOffset":135552,"componentType":5126,"count":1526,"type":"VEC4","name":"accessorTangents"},{"bufferView":1,"byteOffset":221640,"componentType":5126,"count":1526,"type":"VEC3","name":"accessorNormals"},{"bufferView":3,"byteOffset":67776,"componentType":5126,"count":1526,"type":"VEC2","name":"accessorUVs"},{"bufferView":0,"byteOffset":57600,"componentType":5123,"count":738,"type":"SCALAR","name":"accessorIndices"},{"bufferView":1,"byteOffset":239952,"componentType":5126,"count":252,"max":[1.8968263,1.3227077,0.019062791],"min":[-1.8968263,-1.3227075,-0.019062791],"type":"VEC3","name":"accessorPositions"},{"bufferView":2,"byteOffset":159968,"componentType":5126,"count":252,"type":"VEC4","name":"accessorTangents"},{"bufferView":1,"byteOffset":242976,"componentType":5126,"count":252,"type":"VEC3","name":"accessorNormals"},{"bufferView":3,"byteOffset":79984,"componentType":5126,"count":252,"type":"VEC2","name":"accessorUVs"}],"bufferViews":[{"buffer":0,"byteLength":59076,"name":"bufferViewScalar"},{"buffer":0,"byteOffset":59076,"byteLength":246000,"byteStride":12,"name":"bufferViewFloatVec3"},{"buffer":0,"byteOffset":305076,"byteLength":164000,"byteStride":16,"name":"bufferViewFloatVec4"},{"buffer":0,"byteOffset":469076,"byteLength":82000,"byteStride":8,"name":"bufferViewFloatVec2"}],"buffers":[{"uri":"Straight_Railing_Konic.bin","byteLength":551076}],"materials":[{"pbrMetallicRoughness":{"baseColorFactor":[0.9999998,0.9999999,0.9999999,1.0],"baseColorTexture":{"index":0,"extensions":{"KHR_texture_transform":{"offset":[0.19519997,0.8048],"rotation":1.5707964,"scale":[0.6096,0.6096],"texCoord":0}}},"roughnessFactor":0.2,"metallicRoughnessTexture":{"index":0,"extensions":{"KHR_texture_transform":{"offset":[0.19519997,0.8048],"rotation":1.5707964,"scale":[0.6096,0.6096],"texCoord":0}}}},"name":"Steel_Linear"},{"pbrMetallicRoughness":{"baseColorFactor":[0.10641303,0.10641304,0.10641304,1.0],"metallicFactor":0.0,"roughnessFactor":0.99,"metallicRoughnessTexture":{"index":1}},"name":"Rubber","extensions":{"KHR_materials_specular":{"specularFactor":0.1}}},{"pbrMetallicRoughness":{"baseColorFactor":[0.9999998,0.9999999,0.9999999,1.0],"baseColorTexture":{"index":2},"roughnessFactor":0.2,"metallicRoughnessTexture":{"index":2}},"name":"Steel_Radial"},{"pbrMetallicRoughness":{"baseColorFactor":[0.9999998,0.9999999,0.9999999,1.0],"metallicFactor":0.0,"roughnessFactor":0.1},"name":"Glass","extensions":{"KHR_materials_ior":{"ior":1.0},"KHR_materials_transmission":{"transmissionFactor":0.97},"KHR_materials_volume":{"thicknessFactor":0.56,"attenuationDistance":0.5,"attenuationColor":[0.49521634,0.56476736,0.5317566]}}}],"textures":[{"sampler":0,"source":0,"name":"Metal_Brushed_Linear_4k.jpg"},{"sampler":0,"source":1,"name":"PowderCoat_Roughness_2k0.jpg"},{"sampler":0,"source":2,"name":"Metal_Brushed_Radial_4k.jpg"}],"images":[{"uri":"textures/Metal_Brushed_Linear_4k.jpg"},{"uri":"textures/PowderCoat_Roughness_2k0.jpg"},{"uri":"textures/Metal_Brushed_Radial_4k.jpg"}],"samplers":[{"magFilter":9729,"minFilter":9987}]}