{"asset":{"version":"2.0","generator":"babylon.js glTF exporter for 3dsmax 2026 v20251111.2"},"extensionsUsed":["KHR_materials_specular","KHR_texture_transform","KHR_materials_ior","KHR_materials_transmission","KHR_materials_volume"],"extensionsRequired":["KHR_texture_transform"],"scene":0,"scenes":[{"nodes":[0,1,2,3,4,5,6,7,8,9,10,11,12,13,14,15,16,17,18,19,20,21,22,23,24,25,26,27,28,29,30,31,32,33,34,35,36,37,38,39,40,41,42,43,44,45,46,47,48,49,50,51,52,53,54,55,56,57,58,59,60,61,62,63,64,65,66,67,68,69,70,71,72,73,74,75,76,77,78,79,80,81,82,83,84,85,86,87,88,89,90,91,92,93,94,95,96,97,98,99,100,101,102,103,104,105,106,107,108,109,110,111,112,113,114,115,116,117,118,119,120,121,122,123,124,125,126,127,128,129,130,131,132,133,134,135,136,137,138,139,140,141,142,143,144,145,146,147,148,149,150,151,152,153,154,155,156,157,158,159,160,161,162,163]}],"nodes":[{"mesh":0,"translation":[-0.17010455,1.7372249,-1.0332044],"rotation":[-0.0,-0.7071068,0.0,0.7071067],"name":"OPT006 - Optik Glass Pad Part [9223702]"},{"mesh":0,"translation":[-0.17010455,1.991225,-1.0332044],"rotation":[-0.0,-0.7071068,0.0,0.7071067],"name":"OPT006 - Optik Glass Pad Part [9223696]"},{"mesh":0,"translation":[1.4287437,2.8346148,-1.0332044],"rotation":[-0.0,-0.7071068,0.0,0.7071067],"name":"OPT006 - Optik Glass Pad Part [9223664]"},{"mesh":0,"translation":[1.4287437,3.0886145,-1.0332044],"rotation":[-0.0,-0.7071068,0.0,0.7071067],"name":"OPT006 - Optik Glass Pad Part [9223658]"},{"mesh":0,"translation":[0.8957954,2.4688551,-1.0332044],"rotation":[-0.0,-0.7071068,0.0,0.7071067],"name":"OPT006 - Optik Glass Pad Part [9223626]"},{"mesh":0,"translation":[0.8957954,2.722855,-1.0332044],"rotation":[-0.0,-0.7071068,0.0,0.7071067],"name":"OPT006 - Optik Glass Pad Part [9223620]"},{"mesh":0,"translation":[0.6293212,2.2855308,-1.0332044],"rotation":[-0.0,-0.7071068,0.0,0.7071067],"name":"OPT006 - Optik Glass Pad Part [9223588]"},{"mesh":0,"translation":[0.6293212,2.5395315,-1.0332044],"rotation":[-0.0,-0.7071068,0.0,0.7071067],"name":"OPT006 - Optik Glass Pad Part [9223582]"},{"mesh":0,"translation":[-2.0337965,0.45717472,-0.06797338],"rotation":[-0.0,0.7071066,0.0,0.70710695],"name":"OPT006 - Optik Glass Pad Part [9223398]"},{"mesh":0,"translation":[-2.0337965,0.7111746,-0.06797338],"rotation":[-0.0,0.7071066,0.0,0.70710695],"name":"OPT006 - Optik Glass Pad Part [9223392]"},{"mesh":0,"translation":[-1.5014544,0.8229347,-0.06797338],"rotation":[-0.0,0.7071066,0.0,0.70710695],"name":"OPT006 - Optik Glass Pad Part [9223360]"},{"mesh":0,"translation":[-1.5014544,1.0769343,-0.06797338],"rotation":[-0.0,0.7071066,0.0,0.70710695],"name":"OPT006 - Optik Glass Pad Part [9223354]"},{"mesh":0,"translation":[-1.2352822,1.0058148,-0.06797338],"rotation":[-0.0,0.7071066,0.0,0.70710695],"name":"OPT006 - Optik Glass Pad Part [9223322]"},{"mesh":0,"translation":[-1.2352822,1.2598144,-0.06797338],"rotation":[-0.0,0.7071066,0.0,0.70710695],"name":"OPT006 - Optik Glass Pad Part [9223316]"},{"mesh":0,"translation":[-0.43677092,1.8084556,-1.0332044],"rotation":[-0.0,-0.7071068,0.0,0.7071067],"name":"OPT006 - Optik Glass Pad Part [9223696]001"},{"mesh":0,"translation":[-0.43677092,1.5544555,-1.0332044],"rotation":[-0.0,-0.7071068,0.0,0.7071067],"name":"OPT006 - Optik Glass Pad Part [9223702]001"},{"mesh":1,"translation":[-0.17010455,1.7372249,-1.0173309],"rotation":[-0.0,-0.7071068,0.0,0.7071067],"name":"OPT006A - Optik Glass Pad Part [9223701]"},{"mesh":1,"translation":[-0.17010455,1.991225,-1.0173309],"rotation":[-0.0,-0.7071068,0.0,0.7071067],"name":"OPT006A - Optik Glass Pad Part [9223695]"},{"mesh":1,"translation":[1.4287437,2.8346148,-1.0173309],"rotation":[-0.0,-0.7071068,0.0,0.7071067],"name":"OPT006A - Optik Glass Pad Part [9223663]"},{"mesh":1,"translation":[1.4287437,3.0886145,-1.0173309],"rotation":[-0.0,-0.7071068,0.0,0.7071067],"name":"OPT006A - Optik Glass Pad Part [9223657]"},{"mesh":1,"translation":[0.8957954,2.4688551,-1.0173309],"rotation":[-0.0,-0.7071068,0.0,0.7071067],"name":"OPT006A - Optik Glass Pad Part [9223625]"},{"mesh":1,"translation":[0.8957954,2.722855,-1.0173309],"rotation":[-0.0,-0.7071068,0.0,0.7071067],"name":"OPT006A - Optik Glass Pad Part [9223619]"},{"mesh":1,"translation":[0.6293212,2.2855308,-1.0173309],"rotation":[-0.0,-0.7071068,0.0,0.7071067],"name":"OPT006A - Optik Glass Pad Part [9223587]"},{"mesh":1,"translation":[0.6293212,2.5395315,-1.0173309],"rotation":[-0.0,-0.7071068,0.0,0.7071067],"name":"OPT006A - Optik Glass Pad Part [9223581]"},{"mesh":1,"translation":[-2.0337965,0.45717472,-0.08384684],"rotation":[-0.0,0.7071066,0.0,0.70710695],"name":"OPT006A - Optik Glass Pad Part [9223397]"},{"mesh":1,"translation":[-2.0337965,0.7111746,-0.08384684],"rotation":[-0.0,0.7071066,0.0,0.70710695],"name":"OPT006A - Optik Glass Pad Part [9223391]"},{"mesh":1,"translation":[-1.5014544,0.8229347,-0.08384684],"rotation":[-0.0,0.7071066,0.0,0.70710695],"name":"OPT006A - Optik Glass Pad Part [9223359]"},{"mesh":1,"translation":[-1.5014544,1.0769343,-0.08384684],"rotation":[-0.0,0.7071066,0.0,0.70710695],"name":"OPT006A - Optik Glass Pad Part [9223353]"},{"mesh":1,"translation":[-1.2352822,1.0058148,-0.08384684],"rotation":[-0.0,0.7071066,0.0,0.70710695],"name":"OPT006A - Optik Glass Pad Part [9223321]"},{"mesh":1,"translation":[-1.2352822,1.2598144,-0.08384684],"rotation":[-0.0,0.7071066,0.0,0.70710695],"name":"OPT006A - Optik Glass Pad Part [9223315]"},{"mesh":1,"translation":[-0.43677092,1.8084556,-1.0173309],"rotation":[-0.0,-0.7071068,0.0,0.7071067],"name":"OPT006A - Optik Glass Pad Part [9223695]001"},{"mesh":1,"translation":[-0.43677092,1.5544555,-1.0173309],"rotation":[-0.0,-0.7071068,0.0,0.7071067],"name":"OPT006A - Optik Glass Pad Part [9223701]001"},{"mesh":2,"translation":[-0.17010455,1.7372249,-1.0395528],"rotation":[-0.0,-0.7071068,0.0,0.7071067],"name":"CSQ088 - Circum Square Lo-Post Spacer Part [9223427]034"},{"mesh":2,"translation":[-0.17010455,1.991225,-1.0395528],"rotation":[-0.0,-0.7071068,0.0,0.7071067],"name":"CSQ088 - Circum Square Lo-Post Spacer Part [9223427]033"},{"mesh":2,"translation":[1.4287437,2.8346148,-1.0395528],"rotation":[-0.0,-0.7071068,0.0,0.7071067],"name":"CSQ088 - Circum Square Lo-Post Spacer Part [9223427]032"},{"mesh":2,"translation":[1.4287437,3.0886145,-1.0395528],"rotation":[-0.0,-0.7071068,0.0,0.7071067],"name":"CSQ088 - Circum Square Lo-Post Spacer Part [9223427]031"},{"mesh":2,"translation":[0.8957954,2.4688551,-1.0395528],"rotation":[-0.0,-0.7071068,0.0,0.7071067],"name":"CSQ088 - Circum Square Lo-Post Spacer Part [9223427]030"},{"mesh":2,"translation":[0.8957954,2.722855,-1.0395528],"rotation":[-0.0,-0.7071068,0.0,0.7071067],"name":"CSQ088 - Circum Square Lo-Post Spacer Part [9223427]029"},{"mesh":2,"translation":[0.6293212,2.2855308,-1.0395528],"rotation":[-0.0,-0.7071068,0.0,0.7071067],"name":"CSQ088 - Circum Square Lo-Post Spacer Part [9223427]028"},{"mesh":2,"translation":[0.6293212,2.5395315,-1.0395528],"rotation":[-0.0,-0.7071068,0.0,0.7071067],"name":"CSQ088 - Circum Square Lo-Post Spacer Part [9223427]027"},{"mesh":2,"translation":[-2.0337965,0.45717472,-1.0394863],"rotation":[-0.0,-0.7071068,0.0,0.7071067],"name":"CSQ088 - Circum Square Lo-Post Spacer Part [9223427]026"},{"mesh":2,"translation":[-2.0337965,0.7111746,-1.0394863],"rotation":[-0.0,-0.7071068,0.0,0.7071067],"name":"CSQ088 - Circum Square Lo-Post Spacer Part [9223427]025"},{"mesh":2,"translation":[-1.5014544,0.8229347,-1.0394862],"rotation":[-0.0,-0.7071068,0.0,0.7071067],"name":"CSQ088 - Circum Square Lo-Post Spacer Part [9223427]024"},{"mesh":2,"translation":[-1.5014544,1.0769343,-1.0394862],"rotation":[-0.0,-0.7071068,0.0,0.7071067],"name":"CSQ088 - Circum Square Lo-Post Spacer Part [9223427]023"},{"mesh":2,"translation":[-1.2352822,1.0058148,-1.0394862],"rotation":[-0.0,-0.7071068,0.0,0.7071067],"name":"CSQ088 - Circum Square Lo-Post Spacer Part [9223427]022"},{"mesh":2,"translation":[-1.2352822,1.2598144,-1.0394862],"rotation":[-0.0,-0.7071068,0.0,0.7071067],"name":"CSQ088 - Circum Square Lo-Post Spacer Part [9223427]021"},{"mesh":2,"translation":[-2.0337965,0.45717472,-0.061624937],"rotation":[-0.0,0.7071066,0.0,0.70710695],"name":"CSQ088 - Circum Square Lo-Post Spacer Part [9223427]018"},{"mesh":2,"translation":[-2.0337965,0.7111746,-0.061624937],"rotation":[-0.0,0.7071066,0.0,0.70710695],"name":"CSQ088 - Circum Square Lo-Post Spacer Part [9223427]017"},{"mesh":2,"translation":[-1.5014544,0.8229347,-0.061624937],"rotation":[-0.0,0.7071066,0.0,0.70710695],"name":"CSQ088 - Circum Square Lo-Post Spacer Part [9223427]016"},{"mesh":2,"translation":[-1.5014544,1.0769343,-0.061624937],"rotation":[-0.0,0.7071066,0.0,0.70710695],"name":"CSQ088 - Circum Square Lo-Post Spacer Part [9223427]015"},{"mesh":2,"translation":[-1.2352822,1.0058148,-0.061624937],"rotation":[-0.0,0.7071066,0.0,0.70710695],"name":"CSQ088 - Circum Square Lo-Post Spacer Part [9223427]014"},{"mesh":2,"translation":[-1.2352822,1.2598144,-0.061624937],"rotation":[-0.0,0.7071066,0.0,0.70710695],"name":"CSQ088 - Circum Square Lo-Post Spacer Part [9223427]013"},{"mesh":2,"translation":[1.4287437,2.8346148,-0.061691582],"rotation":[-0.0,0.7071068,0.0,0.7071067],"name":"CSQ088 - Circum Square Lo-Post Spacer Part [9223427]010"},{"mesh":2,"translation":[1.4287437,3.0886145,-0.061691582],"rotation":[-0.0,0.7071068,0.0,0.7071067],"name":"CSQ088 - Circum Square Lo-Post Spacer Part [9223427]009"},{"mesh":2,"translation":[0.8957954,2.4688551,-0.061691582],"rotation":[-0.0,0.7071068,0.0,0.7071067],"name":"CSQ088 - Circum Square Lo-Post Spacer Part [9223427]008"},{"mesh":2,"translation":[0.8957954,2.722855,-0.061691582],"rotation":[-0.0,0.7071068,0.0,0.7071067],"name":"CSQ088 - Circum Square Lo-Post Spacer Part [9223427]007"},{"mesh":2,"translation":[0.6293212,2.2855308,-0.061691582],"rotation":[-0.0,0.7071068,0.0,0.7071067],"name":"CSQ088 - Circum Square Lo-Post Spacer Part [9223427]006"},{"mesh":2,"translation":[0.6293212,2.5395315,-0.061691582],"rotation":[-0.0,0.7071068,0.0,0.7071067],"name":"CSQ088 - Circum Square Lo-Post Spacer Part [9223427]005"},{"mesh":2,"translation":[-0.17010453,1.7372242,-0.061691582],"rotation":[-0.0,0.7071068,0.0,0.7071067],"name":"CSQ088 - Circum Square Lo-Post Spacer Part [9223427]004"},{"mesh":2,"translation":[-0.17010453,1.9912244,-0.061691582],"rotation":[-0.0,0.7071068,0.0,0.7071067],"name":"CSQ088 - Circum Square Lo-Post Spacer Part [9223427]003"},{"mesh":2,"translation":[-0.4367709,1.808455,-0.061691582],"rotation":[-0.0,0.7071068,0.0,0.7071067],"name":"CSQ088 - Circum Square Lo-Post Spacer Part [9223427]035"},{"mesh":2,"translation":[-0.4367709,1.5544548,-0.061691582],"rotation":[-0.0,0.7071068,0.0,0.7071067],"name":"CSQ088 - Circum Square Lo-Post Spacer Part [9223427]036"},{"mesh":2,"translation":[-0.43677092,1.8084556,-1.0395528],"rotation":[-0.0,-0.7071068,0.0,0.7071067],"name":"CSQ088 - Circum Square Lo-Post Spacer Part [9223427]037"},{"mesh":2,"translation":[-0.43677092,1.5544555,-1.0395528],"rotation":[-0.0,-0.7071068,0.0,0.7071067],"name":"CSQ088 - Circum Square Lo-Post Spacer Part [9223427]038"},{"mesh":3,"translation":[-0.17010455,1.4629301,-1.064956],"rotation":[-0.0,0.7071068,0.0,0.7071067],"name":"CSQ001-US - Surface Mount Weldment Part [8723797]181"},{"mesh":3,"translation":[1.4287437,2.56032,-1.064956],"rotation":[-0.0,0.7071068,0.0,0.7071067],"name":"CSQ001-US - Surface Mount Weldment Part [8723797]180"},{"mesh":3,"translation":[0.8957954,2.1945603,-1.064956],"rotation":[-0.0,0.7071068,0.0,0.7071067],"name":"CSQ001-US - Surface Mount Weldment Part [8723797]179"},{"mesh":3,"translation":[0.6293212,2.0112367,-1.064956],"rotation":[-0.0,0.7071068,0.0,0.7071067],"name":"CSQ001-US - Surface Mount Weldment Part [8723797]178"},{"mesh":3,"translation":[-2.0337965,0.18288012,-1.0648848],"rotation":[-0.0,0.7071066,0.0,0.70710695],"name":"CSQ001-US - Surface Mount Weldment Part [8723797]177"},{"mesh":3,"translation":[-1.5014544,0.5486401,-1.0648847],"rotation":[-0.0,0.7071066,0.0,0.70710695],"name":"CSQ001-US - Surface Mount Weldment Part [8723797]176"},{"mesh":3,"translation":[-1.2352822,0.7315199,-1.0648847],"rotation":[-0.0,0.7071066,0.0,0.70710695],"name":"CSQ001-US - Surface Mount Weldment Part [8723797]175"},{"mesh":3,"translation":[-2.0337965,0.18288012,-0.036221836],"rotation":[-0.0,-0.7071068,0.0,0.7071067],"name":"CSQ001-US - Surface Mount Weldment Part [8723797]173"},{"mesh":3,"translation":[-1.5014544,0.5486401,-0.036221836],"rotation":[-0.0,-0.7071068,0.0,0.7071067],"name":"CSQ001-US - Surface Mount Weldment Part [8723797]172"},{"mesh":3,"translation":[-1.2352822,0.7315199,-0.036221836],"rotation":[-0.0,-0.7071068,0.0,0.7071067],"name":"CSQ001-US - Surface Mount Weldment Part [8723797]171"},{"mesh":3,"translation":[1.4287437,2.56032,-0.036293134],"rotation":[-0.0,-0.7071068,0.0,0.7071067],"name":"CSQ001-US - Surface Mount Weldment Part [8723797]170"},{"mesh":3,"translation":[0.8957954,2.1945603,-0.036293134],"rotation":[-0.0,-0.7071068,0.0,0.7071067],"name":"CSQ001-US - Surface Mount Weldment Part [8723797]169"},{"mesh":3,"translation":[0.6293212,2.0112367,-0.036293134],"rotation":[-0.0,-0.7071068,0.0,0.7071067],"name":"CSQ001-US - Surface Mount Weldment Part [8723797]168"},{"mesh":3,"translation":[-0.17010453,1.46293,-0.036293134],"rotation":[-0.0,-0.7071068,0.0,0.7071067],"name":"CSQ001-US - Surface Mount Weldment Part [8723797]167"},{"mesh":3,"translation":[-0.4367709,1.2801605,-0.036293134],"rotation":[-0.0,-0.7071068,0.0,0.7071067],"name":"CSQ001-US - Surface Mount Weldment Part [8723797]267"},{"mesh":3,"translation":[-0.43677092,1.2801607,-1.064956],"rotation":[-0.0,0.7071068,0.0,0.7071067],"name":"CSQ001-US - Surface Mount Weldment Part [8723797]268"},{"mesh":4,"translation":[-0.17010455,1.4629301,-1.064956],"rotation":[0.5000001,0.49999997,0.49999985,0.50000006],"name":"LS208 & LS209 - Circum Square Post Material LS Material [9223691]"},{"mesh":4,"translation":[-0.43677092,1.2801607,-1.064956],"rotation":[0.5000001,0.49999997,0.49999985,0.50000006],"name":"LS208 & LS209 - Circum Square Post Material LS Material [9223691]001"},{"mesh":5,"translation":[-0.17010455,2.0198,-1.064956],"rotation":[-0.0,0.7071068,0.0,0.7071067],"name":"CSQ022 - Square Post Omaha Cap Part [8465283]055"},{"mesh":5,"translation":[1.4287437,3.1171894,-1.064956],"rotation":[-0.0,0.7071068,0.0,0.7071067],"name":"CSQ022 - Square Post Omaha Cap Part [8465283]054"},{"mesh":5,"translation":[0.8957954,2.75143,-1.064956],"rotation":[-0.0,0.7071068,0.0,0.7071067],"name":"CSQ022 - Square Post Omaha Cap Part [8465283]053"},{"mesh":5,"translation":[0.6293212,2.5681064,-1.064956],"rotation":[-0.0,0.7071068,0.0,0.7071067],"name":"CSQ022 - Square Post Omaha Cap Part [8465283]052"},{"mesh":5,"translation":[-2.0337965,0.7397496,-1.0648848],"rotation":[-0.0,0.7071066,0.0,0.70710695],"name":"CSQ022 - Square Post Omaha Cap Part [8465283]051"},{"mesh":5,"translation":[-1.5014544,1.1055093,-1.0648847],"rotation":[-0.0,0.7071066,0.0,0.70710695],"name":"CSQ022 - Square Post Omaha Cap Part [8465283]050"},{"mesh":5,"translation":[-1.2352822,1.2883894,-1.0648847],"rotation":[-0.0,0.7071066,0.0,0.70710695],"name":"CSQ022 - Square Post Omaha Cap Part [8465283]049"},{"mesh":5,"translation":[-2.0337965,0.7397496,-0.036221836],"rotation":[-0.0,-0.7071068,0.0,0.7071067],"name":"CSQ022 - Square Post Omaha Cap Part [8465283]047"},{"mesh":5,"translation":[-1.5014544,1.1055093,-0.036221836],"rotation":[-0.0,-0.7071068,0.0,0.7071067],"name":"CSQ022 - Square Post Omaha Cap Part [8465283]046"},{"mesh":5,"translation":[-1.2352822,1.2883894,-0.036221836],"rotation":[-0.0,-0.7071068,0.0,0.7071067],"name":"CSQ022 - Square Post Omaha Cap Part [8465283]045"},{"mesh":5,"translation":[1.4287437,3.1171894,-0.036293134],"rotation":[-0.0,-0.7071068,0.0,0.7071067],"name":"CSQ022 - Square Post Omaha Cap Part [8465283]043"},{"mesh":5,"translation":[0.8957954,2.75143,-0.036293134],"rotation":[-0.0,-0.7071068,0.0,0.7071067],"name":"CSQ022 - Square Post Omaha Cap Part [8465283]042"},{"mesh":5,"translation":[0.6293212,2.5681064,-0.036293134],"rotation":[-0.0,-0.7071068,0.0,0.7071067],"name":"CSQ022 - Square Post Omaha Cap Part [8465283]041"},{"mesh":5,"translation":[-0.17010453,2.0197995,-0.036293134],"rotation":[-0.0,-0.7071068,0.0,0.7071067],"name":"CSQ022 - Square Post Omaha Cap Part [8465283]040"},{"mesh":5,"translation":[-0.4367709,1.83703,-0.036293134],"rotation":[-0.0,-0.7071068,0.0,0.7071067],"name":"CSQ022 - Square Post Omaha Cap Part [8465283]069"},{"mesh":5,"translation":[-0.43677092,1.8370306,-1.064956],"rotation":[-0.0,0.7071068,0.0,0.7071067],"name":"CSQ022 - Square Post Omaha Cap Part [8465283]070"},{"mesh":6,"translation":[-0.17010455,1.991225,-1.0165403],"name":"CSQ086 - Circum Lo-Post Cover Part [9223866]017"},{"mesh":6,"translation":[1.4287437,3.0886145,-1.0165403],"name":"CSQ086 - Circum Lo-Post Cover Part [9223866]016"},{"mesh":6,"translation":[0.8957954,2.722855,-1.0165403],"name":"CSQ086 - Circum Lo-Post Cover Part [9223866]015"},{"mesh":6,"translation":[0.6293212,2.5395315,-1.0165403],"name":"CSQ086 - Circum Lo-Post Cover Part [9223866]014"},{"mesh":6,"translation":[-2.0337965,0.7111746,-1.0164738],"name":"CSQ086 - Circum Lo-Post Cover Part [9223866]013"},{"mesh":6,"translation":[-1.5014544,1.0769343,-1.0164737],"name":"CSQ086 - Circum Lo-Post Cover Part [9223866]012"},{"mesh":6,"translation":[-1.2352822,1.2598144,-1.0164737],"name":"CSQ086 - Circum Lo-Post Cover Part [9223866]011"},{"mesh":6,"translation":[-2.0337965,0.7111746,-0.084637485],"rotation":[-0.0,-1.0,0.0,-4.371139E-08],"name":"CSQ086 - Circum Lo-Post Cover Part [9223866]009"},{"mesh":6,"translation":[-1.5014544,1.0769343,-0.084637485],"rotation":[-0.0,-1.0,0.0,-4.371139E-08],"name":"CSQ086 - Circum Lo-Post Cover Part [9223866]008"},{"mesh":6,"translation":[-1.2352822,1.2598144,-0.084637485],"rotation":[-0.0,-1.0,0.0,-4.371139E-08],"name":"CSQ086 - Circum Lo-Post Cover Part [9223866]007"},{"mesh":6,"translation":[1.4287437,3.0886145,-0.08470413],"rotation":[-0.0,-1.0,0.0,4.371139E-08],"name":"CSQ086 - Circum Lo-Post Cover Part [9223866]005"},{"mesh":6,"translation":[0.8957954,2.722855,-0.08470413],"rotation":[-0.0,-1.0,0.0,4.371139E-08],"name":"CSQ086 - Circum Lo-Post Cover Part [9223866]004"},{"mesh":6,"translation":[0.6293212,2.5395315,-0.08470413],"rotation":[-0.0,-1.0,0.0,4.371139E-08],"name":"CSQ086 - Circum Lo-Post Cover Part [9223866]003"},{"mesh":6,"translation":[-0.17010453,1.9912244,-0.08470413],"rotation":[-0.0,-1.0,0.0,4.371139E-08],"name":"CSQ086 - Circum Lo-Post Cover Part [9223866]002"},{"mesh":6,"translation":[-0.4367709,1.808455,-0.08470413],"rotation":[-0.0,-1.0,0.0,4.371139E-08],"name":"CSQ086 - Circum Lo-Post Cover Part [9223866]018"},{"mesh":6,"translation":[-0.43677092,1.8084556,-1.0165403],"name":"CSQ086 - Circum Lo-Post Cover Part [9223866]019"},{"mesh":7,"translation":[1.4287437,2.56032,-1.064956],"rotation":[0.5000001,0.49999997,0.49999985,0.50000006],"name":"LS208 & LS209 - Circum Square Post Material LS Material [9223653]"},{"mesh":8,"translation":[0.8957954,2.1945603,-1.064956],"rotation":[0.5000001,0.49999997,0.49999985,0.50000006],"name":"LS208 & LS209 - Circum Square Post Material LS Material [9223615]"},{"mesh":9,"translation":[0.6293212,2.0112367,-1.064956],"rotation":[0.5000001,0.49999997,0.49999985,0.50000006],"name":"LS208 & LS209 - Circum Square Post Material LS Material [9223577]"},{"mesh":10,"translation":[-2.0337965,0.45717472,-1.0331378],"rotation":[-0.0,-0.7071068,0.0,0.7071067],"name":"OPT006 - Optik Glass Pad Part [9223550]"},{"mesh":10,"translation":[-2.0337965,0.7111746,-1.0331378],"rotation":[-0.0,-0.7071068,0.0,0.7071067],"name":"OPT006 - Optik Glass Pad Part [9223544]"},{"mesh":10,"translation":[-1.5014544,0.8229347,-1.0331378],"rotation":[-0.0,-0.7071068,0.0,0.7071067],"name":"OPT006 - Optik Glass Pad Part [9223512]"},{"mesh":10,"translation":[-1.5014544,1.0769343,-1.0331378],"rotation":[-0.0,-0.7071068,0.0,0.7071067],"name":"OPT006 - Optik Glass Pad Part [9223506]"},{"mesh":10,"translation":[-1.2352822,1.0058148,-1.0331378],"rotation":[-0.0,-0.7071068,0.0,0.7071067],"name":"OPT006 - Optik Glass Pad Part [9223474]"},{"mesh":10,"translation":[-1.2352822,1.2598144,-1.0331378],"rotation":[-0.0,-0.7071068,0.0,0.7071067],"name":"OPT006 - Optik Glass Pad Part [9223468]"},{"mesh":10,"translation":[1.4287437,2.8346148,-0.068040036],"rotation":[-0.0,0.7071068,0.0,0.7071067],"name":"OPT006 - Optik Glass Pad Part [9223246]"},{"mesh":10,"translation":[1.4287437,3.0886145,-0.068040036],"rotation":[-0.0,0.7071068,0.0,0.7071067],"name":"OPT006 - Optik Glass Pad Part [9223240]"},{"mesh":10,"translation":[0.8957954,2.4688551,-0.068040036],"rotation":[-0.0,0.7071068,0.0,0.7071067],"name":"OPT006 - Optik Glass Pad Part [9223208]"},{"mesh":10,"translation":[0.8957954,2.722855,-0.068040036],"rotation":[-0.0,0.7071068,0.0,0.7071067],"name":"OPT006 - Optik Glass Pad Part [9223202]"},{"mesh":10,"translation":[0.6293212,2.2855308,-0.068040036],"rotation":[-0.0,0.7071068,0.0,0.7071067],"name":"OPT006 - Optik Glass Pad Part [9223170]"},{"mesh":10,"translation":[0.6293212,2.5395315,-0.068040036],"rotation":[-0.0,0.7071068,0.0,0.7071067],"name":"OPT006 - Optik Glass Pad Part [9223164]"},{"mesh":10,"translation":[-0.17010453,1.7372242,-0.068040036],"rotation":[-0.0,0.7071068,0.0,0.7071067],"name":"OPT006 - Optik Glass Pad Part [9223131]"},{"mesh":10,"translation":[-0.17010453,1.9912244,-0.068040036],"rotation":[-0.0,0.7071068,0.0,0.7071067],"name":"OPT006 - Optik Glass Pad Part [9223123]"},{"mesh":10,"translation":[-0.4367709,1.808455,-0.068040036],"rotation":[-0.0,0.7071068,0.0,0.7071067],"name":"OPT006 - Optik Glass Pad Part [9223123]001"},{"mesh":10,"translation":[-0.4367709,1.5544548,-0.068040036],"rotation":[-0.0,0.7071068,0.0,0.7071067],"name":"OPT006 - Optik Glass Pad Part [9223131]001"},{"mesh":11,"translation":[-2.0337965,0.45717472,-1.0172597],"rotation":[-0.0,-0.7071068,0.0,0.7071067],"name":"OPT006A - Optik Glass Pad Part [9223549]"},{"mesh":11,"translation":[-2.0337965,0.7111746,-1.0172597],"rotation":[-0.0,-0.7071068,0.0,0.7071067],"name":"OPT006A - Optik Glass Pad Part [9223543]"},{"mesh":11,"translation":[-1.5014544,0.8229347,-1.0172596],"rotation":[-0.0,-0.7071068,0.0,0.7071067],"name":"OPT006A - Optik Glass Pad Part [9223511]"},{"mesh":11,"translation":[-1.5014544,1.0769343,-1.0172596],"rotation":[-0.0,-0.7071068,0.0,0.7071067],"name":"OPT006A - Optik Glass Pad Part [9223505]"},{"mesh":11,"translation":[-1.2352822,1.0058148,-1.0172596],"rotation":[-0.0,-0.7071068,0.0,0.7071067],"name":"OPT006A - Optik Glass Pad Part [9223473]"},{"mesh":11,"translation":[-1.2352822,1.2598144,-1.0172596],"rotation":[-0.0,-0.7071068,0.0,0.7071067],"name":"OPT006A - Optik Glass Pad Part [9223467]"},{"mesh":11,"translation":[1.4287437,2.8346148,-0.08391813],"rotation":[-0.0,0.7071068,0.0,0.7071067],"name":"OPT006A - Optik Glass Pad Part [9223245]"},{"mesh":11,"translation":[1.4287437,3.0886145,-0.08391813],"rotation":[-0.0,0.7071068,0.0,0.7071067],"name":"OPT006A - Optik Glass Pad Part [9223239]"},{"mesh":11,"translation":[0.8957954,2.4688551,-0.08391813],"rotation":[-0.0,0.7071068,0.0,0.7071067],"name":"OPT006A - Optik Glass Pad Part [9223207]"},{"mesh":11,"translation":[0.8957954,2.722855,-0.08391813],"rotation":[-0.0,0.7071068,0.0,0.7071067],"name":"OPT006A - Optik Glass Pad Part [9223201]"},{"mesh":11,"translation":[0.6293212,2.2855308,-0.08391813],"rotation":[-0.0,0.7071068,0.0,0.7071067],"name":"OPT006A - Optik Glass Pad Part [9223169]"},{"mesh":11,"translation":[0.6293212,2.5395315,-0.08391813],"rotation":[-0.0,0.7071068,0.0,0.7071067],"name":"OPT006A - Optik Glass Pad Part [9223163]"},{"mesh":11,"translation":[-0.17010453,1.7372242,-0.08391813],"rotation":[-0.0,0.7071068,0.0,0.7071067],"name":"OPT006A - Optik Glass Pad Part [9223130]"},{"mesh":11,"translation":[-0.17010453,1.9912244,-0.08391813],"rotation":[-0.0,0.7071068,0.0,0.7071067],"name":"OPT006A - Optik Glass Pad Part [9223122]"},{"mesh":11,"translation":[-0.4367709,1.808455,-0.08391813],"rotation":[-0.0,0.7071068,0.0,0.7071067],"name":"OPT006A - Optik Glass Pad Part [9223122]001"},{"mesh":11,"translation":[-0.4367709,1.5544548,-0.08391813],"rotation":[-0.0,0.7071068,0.0,0.7071067],"name":"OPT006A - Optik Glass Pad Part [9223130]001"},{"mesh":12,"translation":[-2.0337965,0.18288012,-1.0648848],"rotation":[0.49999982,0.4999999,0.5000001,0.5000001],"name":"LS208 & LS209 - Circum Square Post Material LS Material [9223539]"},{"mesh":13,"translation":[-1.5014544,0.5486401,-1.0648847],"rotation":[0.49999982,0.4999999,0.5000001,0.5000001],"name":"LS208 & LS209 - Circum Square Post Material LS Material [9223501]"},{"mesh":14,"translation":[-1.2352822,0.7315199,-1.0648847],"rotation":[0.49999982,0.4999999,0.5000001,0.5000001],"name":"LS208 & LS209 - Circum Square Post Material LS Material [9223463]"},{"mesh":15,"translation":[-2.0337965,0.18288012,-0.036221836],"rotation":[-0.50000006,-0.49999988,0.49999994,0.5000001],"name":"LS208 & LS209 - Circum Square Post Material LS Material [9223387]"},{"mesh":16,"translation":[-1.5014544,0.5486401,-0.036221836],"rotation":[-0.50000006,-0.49999988,0.49999994,0.5000001],"name":"LS208 & LS209 - Circum Square Post Material LS Material [9223349]"},{"mesh":17,"translation":[-1.2352822,0.7315199,-0.036221836],"rotation":[-0.50000006,-0.49999988,0.49999994,0.5000001],"name":"LS208 & LS209 - Circum Square Post Material LS Material [9223311]"},{"mesh":18,"translation":[1.4287437,2.56032,-0.036293134],"rotation":[-0.5,-0.50000006,0.5,0.49999994],"name":"LS208 & LS209 - Circum Square Post Material LS Material [9223235]"},{"mesh":19,"translation":[0.8957954,2.1945603,-0.036293134],"rotation":[-0.5,-0.50000006,0.5,0.49999994],"name":"LS208 & LS209 - Circum Square Post Material LS Material [9223197]"},{"mesh":20,"translation":[0.6293212,2.0112367,-0.036293134],"rotation":[-0.5,-0.50000006,0.5,0.49999994],"name":"LS208 & LS209 - Circum Square Post Material LS Material [9223159]"},{"mesh":21,"translation":[-0.17010453,1.46293,-0.036293134],"rotation":[-0.5,-0.50000006,0.5,0.49999994],"name":"LS208 & LS209 - Circum Square Post Material LS Material [9223115]"},{"mesh":21,"translation":[-0.4367709,1.2801605,-0.036293134],"rotation":[-0.5,-0.50000006,0.5,0.49999994],"name":"LS208 & LS209 - Circum Square Post Material LS Material [9223115]001"},{"mesh":22,"translation":[-0.2999639,0.0,-0.07673256],"name":"Box010"},{"mesh":22,"translation":[-0.2999639,0.0,-1.0243795],"name":"Box011"},{"mesh":23,"translation":[-0.29534957,2.376288,-1.0243602],"name":"Generic Models 11 Generic Models 11 [8762451]009"},{"mesh":23,"translation":[-0.29534957,2.376288,-0.07671316],"name":"Generic Models 11 Generic Models 11 [8762451]010"}],"meshes":[{"primitives":[{"attributes":{"POSITION":1,"TANGENT":2,"NORMAL":3,"TEXCOORD_0":4},"indices":0,"material":0}],"name":"OPT006 - Optik Glass Pad Part [9223702]"},{"primitives":[{"attributes":{"POSITION":6,"TANGENT":7,"NORMAL":8,"TEXCOORD_0":9},"indices":5,"material":0}],"name":"OPT006A - Optik Glass Pad Part [9223701]"},{"primitives":[{"attributes":{"POSITION":11,"TANGENT":12,"NORMAL":13,"TEXCOORD_0":14},"indices":10,"material":1},{"attributes":{"POSITION":16,"TANGENT":17,"NORMAL":18,"TEXCOORD_0":19},"indices":15,"material":2}],"name":"CSQ088 - Circum Square Lo-Post Spacer Part [9223427]034"},{"primitives":[{"attributes":{"POSITION":21,"TANGENT":22,"NORMAL":23,"TEXCOORD_0":24},"indices":20,"material":1}],"name":"CSQ001-US - Surface Mount Weldment Part [8723797]181"},{"primitives":[{"attributes":{"POSITION":26,"TANGENT":27,"NORMAL":28,"TEXCOORD_0":29},"indices":25,"material":1}],"name":"LS208 & LS209 - Circum Square Post Material LS Material [9223691]"},{"primitives":[{"attributes":{"POSITION":31,"TANGENT":32,"NORMAL":33,"TEXCOORD_0":34},"indices":30,"material":1}],"name":"CSQ022 - Square Post Omaha Cap Part [8465283]055"},{"primitives":[{"attributes":{"POSITION":36,"TANGENT":37,"NORMAL":38,"TEXCOORD_0":39},"indices":35,"material":1},{"attributes":{"POSITION":41,"TANGENT":42,"NORMAL":43,"TEXCOORD_0":44},"indices":40,"material":2}],"name":"CSQ086 - Circum Lo-Post Cover Part [9223866]017"},{"primitives":[{"attributes":{"POSITION":46,"TANGENT":47,"NORMAL":48,"TEXCOORD_0":49},"indices":45,"material":1}],"name":"LS208 & LS209 - Circum Square Post Material LS Material [9223653]"},{"primitives":[{"attributes":{"POSITION":51,"TANGENT":52,"NORMAL":53,"TEXCOORD_0":54},"indices":50,"material":1}],"name":"LS208 & LS209 - Circum Square Post Material LS Material [9223615]"},{"primitives":[{"attributes":{"POSITION":56,"TANGENT":57,"NORMAL":58,"TEXCOORD_0":59},"indices":55,"material":1}],"name":"LS208 & LS209 - Circum Square Post Material LS Material [9223577]"},{"primitives":[{"attributes":{"POSITION":61,"TANGENT":62,"NORMAL":63,"TEXCOORD_0":64},"indices":60,"material":0}],"name":"OPT006 - Optik Glass Pad Part [9223550]"},{"primitives":[{"attributes":{"POSITION":66,"TANGENT":67,"NORMAL":68,"TEXCOORD_0":69},"indices":65,"material":0}],"name":"OPT006A - Optik Glass Pad Part [9223549]"},{"primitives":[{"attributes":{"POSITION":71,"TANGENT":72,"NORMAL":73,"TEXCOORD_0":74},"indices":70,"material":1}],"name":"LS208 & LS209 - Circum Square Post Material LS Material [9223539]"},{"primitives":[{"attributes":{"POSITION":76,"TANGENT":77,"NORMAL":78,"TEXCOORD_0":79},"indices":75,"material":1}],"name":"LS208 & LS209 - Circum Square Post Material LS Material [9223501]"},{"primitives":[{"attributes":{"POSITION":81,"TANGENT":82,"NORMAL":83,"TEXCOORD_0":84},"indices":80,"material":1}],"name":"LS208 & LS209 - Circum Square Post Material LS Material [9223463]"},{"primitives":[{"attributes":{"POSITION":86,"TANGENT":87,"NORMAL":88,"TEXCOORD_0":89},"indices":85,"material":1}],"name":"LS208 & LS209 - Circum Square Post Material LS Material [9223387]"},{"primitives":[{"attributes":{"POSITION":91,"TANGENT":92,"NORMAL":93,"TEXCOORD_0":94},"indices":90,"material":1}],"name":"LS208 & LS209 - Circum Square Post Material LS Material [9223349]"},{"primitives":[{"attributes":{"POSITION":96,"TANGENT":97,"NORMAL":98,"TEXCOORD_0":99},"indices":95,"material":1}],"name":"LS208 & LS209 - Circum Square Post Material LS Material [9223311]"},{"primitives":[{"attributes":{"POSITION":101,"TANGENT":102,"NORMAL":103,"TEXCOORD_0":104},"indices":100,"material":1}],"name":"LS208 & LS209 - Circum Square Post Material LS Material [9223235]"},{"primitives":[{"attributes":{"POSITION":106,"TANGENT":107,"NORMAL":108,"TEXCOORD_0":109},"indices":105,"material":1}],"name":"LS208 & LS209 - Circum Square Post Material LS Material [9223197]"},{"primitives":[{"attributes":{"POSITION":111,"TANGENT":112,"NORMAL":113,"TEXCOORD_0":114},"indices":110,"material":1}],"name":"LS208 & LS209 - Circum Square Post Material LS Material [9223159]"},{"primitives":[{"attributes":{"POSITION":116,"TANGENT":117,"NORMAL":118,"TEXCOORD_0":119},"indices":115,"material":1}],"name":"LS208 & LS209 - Circum Square Post Material LS Material [9223115]"},{"primitives":[{"attributes":{"POSITION":121,"TANGENT":122,"NORMAL":123,"TEXCOORD_0":124},"indices":120,"material":3}],"name":"Box010"},{"primitives":[{"attributes":{"POSITION":126,"TANGENT":127,"NORMAL":128,"TEXCOORD_0":129},"indices":125,"material":1},{"attributes":{"POSITION":131,"TANGENT":132,"NORMAL":133,"TEXCOORD_0":134},"indices":130,"material":2}],"name":"Generic Models 11 Generic Models 11 [8762451]009"}],"accessors":[{"bufferView":0,"componentType":5123,"count":1728,"type":"SCALAR","name":"accessorIndices"},{"bufferView":1,"componentType":5126,"count":580,"max":[0.0015748,0.0142875,0.0142875],"min":[1.8652728E-14,-0.0142875,-0.0142875],"type":"VEC3","name":"accessorPositions"},{"bufferView":2,"componentType":5126,"count":580,"type":"VEC4","name":"accessorTangents"},{"bufferView":1,"byteOffset":6960,"componentType":5126,"count":580,"type":"VEC3","name":"accessorNormals"},{"bufferView":3,"componentType":5126,"count":580,"type":"VEC2","name":"accessorUVs"},{"bufferView":0,"byteOffset":3456,"componentType":5123,"count":1728,"type":"SCALAR","name":"accessorIndices"},{"bufferView":1,"byteOffset":13920,"componentType":5126,"count":580,"max":[0.0015748,0.0142875,0.0142875],"min":[1.8652728E-14,-0.0142875,-0.0142875],"type":"VEC3","name":"accessorPositions"},{"bufferView":2,"byteOffset":9280,"componentType":5126,"count":580,"type":"VEC4","name":"accessorTangents"},{"bufferView":1,"byteOffset":20880,"componentType":5126,"count":580,"type":"VEC3","name":"accessorNormals"},{"bufferView":3,"byteOffset":4640,"componentType":5126,"count":580,"type":"VEC2","name":"accessorUVs"},{"bufferView":0,"byteOffset":6912,"componentType":5123,"count":432,"type":"SCALAR","name":"accessorIndices"},{"bufferView":1,"byteOffset":27840,"componentType":5126,"count":146,"max":[0.0063500004,0.01905,0.01905],"min":[1.8592634E-14,-0.01905,-0.01905],"type":"VEC3","name":"accessorPositions"},{"bufferView":2,"byteOffset":18560,"componentType":5126,"count":146,"type":"VEC4","name":"accessorTangents"},{"bufferView":1,"byteOffset":29592,"componentType":5126,"count":146,"type":"VEC3","name":"accessorNormals"},{"bufferView":3,"byteOffset":9280,"componentType":5126,"count":146,"type":"VEC2","name":"accessorUVs"},{"bufferView":0,"byteOffset":7776,"componentType":5123,"count":420,"type":"SCALAR","name":"accessorIndices"},{"bufferView":1,"byteOffset":31344,"componentType":5126,"count":144,"max":[0.0063500004,0.01905,0.01905],"min":[1.8592634E-14,-0.01905,-0.01905],"type":"VEC3","name":"accessorPositions"},{"bufferView":2,"byteOffset":20896,"componentType":5126,"count":144,"type":"VEC4","name":"accessorTangents"},{"bufferView":1,"byteOffset":33072,"componentType":5126,"count":144,"type":"VEC3","name":"accessorNormals"},{"bufferView":3,"byteOffset":10448,"componentType":5126,"count":144,"type":"VEC2","name":"accessorUVs"},{"bufferView":0,"byteOffset":8616,"componentType":5123,"count":570,"type":"SCALAR","name":"accessorIndices"},{"bufferView":1,"byteOffset":34800,"componentType":5126,"count":189,"max":[0.053975,0.025400002,0.053975],"min":[-0.053975,-3.0953716E-15,-0.053975],"type":"VEC3","name":"accessorPositions"},{"bufferView":2,"byteOffset":23200,"componentType":5126,"count":189,"type":"VEC4","name":"accessorTangents"},{"bufferView":1,"byteOffset":37068,"componentType":5126,"count":189,"type":"VEC3","name":"accessorNormals"},{"bufferView":3,"byteOffset":11600,"componentType":5126,"count":189,"type":"VEC2","name":"accessorUVs"},{"bufferView":0,"byteOffset":9756,"componentType":5123,"count":612,"type":"SCALAR","name":"accessorIndices"},{"bufferView":1,"byteOffset":39336,"componentType":5126,"count":216,"max":[0.5568696,0.025400002,0.025539069],"min":[6.357896E-15,-0.025400002,-0.025539069],"type":"VEC3","name":"accessorPositions"},{"bufferView":2,"byteOffset":26224,"componentType":5126,"count":216,"type":"VEC4","name":"accessorTangents"},{"bufferView":1,"byteOffset":41928,"componentType":5126,"count":216,"type":"VEC3","name":"accessorNormals"},{"bufferView":3,"byteOffset":13112,"componentType":5126,"count":216,"type":"VEC2","name":"accessorUVs"},{"bufferView":0,"byteOffset":10980,"componentType":5123,"count":324,"type":"SCALAR","name":"accessorIndices"},{"bufferView":1,"byteOffset":44520,"componentType":5126,"count":120,"max":[0.025592525,0.0031551565,0.025590502],"min":[-0.025588477,-2.0427421E-15,-0.025590502],"type":"VEC3","name":"accessorPositions"},{"bufferView":2,"byteOffset":29680,"componentType":5126,"count":120,"type":"VEC4","name":"accessorTangents"},{"bufferView":1,"byteOffset":45960,"componentType":5126,"count":120,"type":"VEC3","name":"accessorNormals"},{"bufferView":3,"byteOffset":14840,"componentType":5126,"count":120,"type":"VEC2","name":"accessorUVs"},{"bufferView":0,"byteOffset":11628,"componentType":5123,"count":912,"type":"SCALAR","name":"accessorIndices"},{"bufferView":1,"byteOffset":47400,"componentType":5126,"count":504,"max":[0.025400002,0.025400002,0.009525],"min":[-0.025400002,-0.27940002,-0.019231388],"type":"VEC3","name":"accessorPositions"},{"bufferView":2,"byteOffset":31600,"componentType":5126,"count":504,"type":"VEC4","name":"accessorTangents"},{"bufferView":1,"byteOffset":53448,"componentType":5126,"count":504,"type":"VEC3","name":"accessorNormals"},{"bufferView":3,"byteOffset":15800,"componentType":5126,"count":504,"type":"VEC2","name":"accessorUVs"},{"bufferView":0,"byteOffset":13452,"componentType":5123,"count":276,"type":"SCALAR","name":"accessorIndices"},{"bufferView":1,"byteOffset":59496,"componentType":5126,"count":96,"max":[0.006545005,0.006544994,-0.01923138],"min":[-0.0065449835,-0.2605452,-0.019231388],"type":"VEC3","name":"accessorPositions"},{"bufferView":2,"byteOffset":39664,"componentType":5126,"count":96,"type":"VEC4","name":"accessorTangents"},{"bufferView":1,"byteOffset":60648,"componentType":5126,"count":96,"type":"VEC3","name":"accessorNormals"},{"bufferView":3,"byteOffset":19832,"componentType":5126,"count":96,"type":"VEC2","name":"accessorUVs"},{"bufferView":0,"byteOffset":14004,"componentType":5123,"count":612,"type":"SCALAR","name":"accessorIndices"},{"bufferView":1,"byteOffset":61800,"componentType":5126,"count":216,"max":[0.5568696,0.025400002,0.025539069],"min":[6.357896E-15,-0.025400002,-0.025539069],"type":"VEC3","name":"accessorPositions"},{"bufferView":2,"byteOffset":41200,"componentType":5126,"count":216,"type":"VEC4","name":"accessorTangents"},{"bufferView":1,"byteOffset":64392,"componentType":5126,"count":216,"type":"VEC3","name":"accessorNormals"},{"bufferView":3,"byteOffset":20600,"componentType":5126,"count":216,"type":"VEC2","name":"accessorUVs"},{"bufferView":0,"byteOffset":15228,"componentType":5123,"count":612,"type":"SCALAR","name":"accessorIndices"},{"bufferView":1,"byteOffset":66984,"componentType":5126,"count":216,"max":[0.5568696,0.025400002,0.025539069],"min":[6.357896E-15,-0.025400002,-0.025539069],"type":"VEC3","name":"accessorPositions"},{"bufferView":2,"byteOffset":44656,"componentType":5126,"count":216,"type":"VEC4","name":"accessorTangents"},{"bufferView":1,"byteOffset":69576,"componentType":5126,"count":216,"type":"VEC3","name":"accessorNormals"},{"bufferView":3,"byteOffset":22328,"componentType":5126,"count":216,"type":"VEC2","name":"accessorUVs"},{"bufferView":0,"byteOffset":16452,"componentType":5123,"count":612,"type":"SCALAR","name":"accessorIndices"},{"bufferView":1,"byteOffset":72168,"componentType":5126,"count":216,"max":[0.5568696,0.025400002,0.025539069],"min":[6.357896E-15,-0.025400002,-0.025539069],"type":"VEC3","name":"accessorPositions"},{"bufferView":2,"byteOffset":48112,"componentType":5126,"count":216,"type":"VEC4","name":"accessorTangents"},{"bufferView":1,"byteOffset":74760,"componentType":5126,"count":216,"type":"VEC3","name":"accessorNormals"},{"bufferView":3,"byteOffset":24056,"componentType":5126,"count":216,"type":"VEC2","name":"accessorUVs"},{"bufferView":0,"byteOffset":17676,"componentType":5123,"count":1728,"type":"SCALAR","name":"accessorIndices"},{"bufferView":1,"byteOffset":77352,"componentType":5126,"count":580,"max":[0.0015748,0.0142875,0.0142875],"min":[1.8652728E-14,-0.0142875,-0.0142875],"type":"VEC3","name":"accessorPositions"},{"bufferView":2,"byteOffset":51568,"componentType":5126,"count":580,"type":"VEC4","name":"accessorTangents"},{"bufferView":1,"byteOffset":84312,"componentType":5126,"count":580,"type":"VEC3","name":"accessorNormals"},{"bufferView":3,"byteOffset":25784,"componentType":5126,"count":580,"type":"VEC2","name":"accessorUVs"},{"bufferView":0,"byteOffset":21132,"componentType":5123,"count":1728,"type":"SCALAR","name":"accessorIndices"},{"bufferView":1,"byteOffset":91272,"componentType":5126,"count":580,"max":[0.0015748,0.0142875,0.0142875],"min":[1.8652728E-14,-0.0142875,-0.0142875],"type":"VEC3","name":"accessorPositions"},{"bufferView":2,"byteOffset":60848,"componentType":5126,"count":580,"type":"VEC4","name":"accessorTangents"},{"bufferView":1,"byteOffset":98232,"componentType":5126,"count":580,"type":"VEC3","name":"accessorNormals"},{"bufferView":3,"byteOffset":30424,"componentType":5126,"count":580,"type":"VEC2","name":"accessorUVs"},{"bufferView":0,"byteOffset":24588,"componentType":5123,"count":612,"type":"SCALAR","name":"accessorIndices"},{"bufferView":1,"byteOffset":105192,"componentType":5126,"count":216,"max":[0.5568696,0.025400002,0.025539069],"min":[6.357896E-15,-0.025400002,-0.025539069],"type":"VEC3","name":"accessorPositions"},{"bufferView":2,"byteOffset":70128,"componentType":5126,"count":216,"type":"VEC4","name":"accessorTangents"},{"bufferView":1,"byteOffset":107784,"componentType":5126,"count":216,"type":"VEC3","name":"accessorNormals"},{"bufferView":3,"byteOffset":35064,"componentType":5126,"count":216,"type":"VEC2","name":"accessorUVs"},{"bufferView":0,"byteOffset":25812,"componentType":5123,"count":612,"type":"SCALAR","name":"accessorIndices"},{"bufferView":1,"byteOffset":110376,"componentType":5126,"count":216,"max":[0.5568696,0.025400002,0.025539069],"min":[6.357896E-15,-0.025400002,-0.025539069],"type":"VEC3","name":"accessorPositions"},{"bufferView":2,"byteOffset":73584,"componentType":5126,"count":216,"type":"VEC4","name":"accessorTangents"},{"bufferView":1,"byteOffset":112968,"componentType":5126,"count":216,"type":"VEC3","name":"accessorNormals"},{"bufferView":3,"byteOffset":36792,"componentType":5126,"count":216,"type":"VEC2","name":"accessorUVs"},{"bufferView":0,"byteOffset":27036,"componentType":5123,"count":612,"type":"SCALAR","name":"accessorIndices"},{"bufferView":1,"byteOffset":115560,"componentType":5126,"count":216,"max":[0.5568696,0.025400002,0.025539069],"min":[6.357896E-15,-0.025400002,-0.025539069],"type":"VEC3","name":"accessorPositions"},{"bufferView":2,"byteOffset":77040,"componentType":5126,"count":216,"type":"VEC4","name":"accessorTangents"},{"bufferView":1,"byteOffset":118152,"componentType":5126,"count":216,"type":"VEC3","name":"accessorNormals"},{"bufferView":3,"byteOffset":38520,"componentType":5126,"count":216,"type":"VEC2","name":"accessorUVs"},{"bufferView":0,"byteOffset":28260,"componentType":5123,"count":612,"type":"SCALAR","name":"accessorIndices"},{"bufferView":1,"byteOffset":120744,"componentType":5126,"count":216,"max":[0.5568696,0.025400002,0.025539069],"min":[6.357896E-15,-0.025400002,-0.025539069],"type":"VEC3","name":"accessorPositions"},{"bufferView":2,"byteOffset":80496,"componentType":5126,"count":216,"type":"VEC4","name":"accessorTangents"},{"bufferView":1,"byteOffset":123336,"componentType":5126,"count":216,"type":"VEC3","name":"accessorNormals"},{"bufferView":3,"byteOffset":40248,"componentType":5126,"count":216,"type":"VEC2","name":"accessorUVs"},{"bufferView":0,"byteOffset":29484,"componentType":5123,"count":612,"type":"SCALAR","name":"accessorIndices"},{"bufferView":1,"byteOffset":125928,"componentType":5126,"count":216,"max":[0.5568696,0.025400002,0.025539069],"min":[6.357896E-15,-0.025400002,-0.025539069],"type":"VEC3","name":"accessorPositions"},{"bufferView":2,"byteOffset":83952,"componentType":5126,"count":216,"type":"VEC4","name":"accessorTangents"},{"bufferView":1,"byteOffset":128520,"componentType":5126,"count":216,"type":"VEC3","name":"accessorNormals"},{"bufferView":3,"byteOffset":41976,"componentType":5126,"count":216,"type":"VEC2","name":"accessorUVs"},{"bufferView":0,"byteOffset":30708,"componentType":5123,"count":612,"type":"SCALAR","name":"accessorIndices"},{"bufferView":1,"byteOffset":131112,"componentType":5126,"count":216,"max":[0.5568696,0.025400002,0.025539069],"min":[6.357896E-15,-0.025400002,-0.025539069],"type":"VEC3","name":"accessorPositions"},{"bufferView":2,"byteOffset":87408,"componentType":5126,"count":216,"type":"VEC4","name":"accessorTangents"},{"bufferView":1,"byteOffset":133704,"componentType":5126,"count":216,"type":"VEC3","name":"accessorNormals"},{"bufferView":3,"byteOffset":43704,"componentType":5126,"count":216,"type":"VEC2","name":"accessorUVs"},{"bufferView":0,"byteOffset":31932,"componentType":5123,"count":612,"type":"SCALAR","name":"accessorIndices"},{"bufferView":1,"byteOffset":136296,"componentType":5126,"count":216,"max":[0.5568696,0.025400002,0.025539069],"min":[6.357896E-15,-0.025400002,-0.025539069],"type":"VEC3","name":"accessorPositions"},{"bufferView":2,"byteOffset":90864,"componentType":5126,"count":216,"type":"VEC4","name":"accessorTangents"},{"bufferView":1,"byteOffset":138888,"componentType":5126,"count":216,"type":"VEC3","name":"accessorNormals"},{"bufferView":3,"byteOffset":45432,"componentType":5126,"count":216,"type":"VEC2","name":"accessorUVs"},{"bufferView":0,"byteOffset":33156,"componentType":5123,"count":612,"type":"SCALAR","name":"accessorIndices"},{"bufferView":1,"byteOffset":141480,"componentType":5126,"count":216,"max":[0.5568696,0.025400002,0.025539069],"min":[6.357896E-15,-0.025400002,-0.025539069],"type":"VEC3","name":"accessorPositions"},{"bufferView":2,"byteOffset":94320,"componentType":5126,"count":216,"type":"VEC4","name":"accessorTangents"},{"bufferView":1,"byteOffset":144072,"componentType":5126,"count":216,"type":"VEC3","name":"accessorNormals"},{"bufferView":3,"byteOffset":47160,"componentType":5126,"count":216,"type":"VEC2","name":"accessorUVs"},{"bufferView":0,"byteOffset":34380,"componentType":5123,"count":612,"type":"SCALAR","name":"accessorIndices"},{"bufferView":1,"byteOffset":146664,"componentType":5126,"count":216,"max":[0.5568696,0.025400002,0.025539069],"min":[6.357896E-15,-0.025400002,-0.025539069],"type":"VEC3","name":"accessorPositions"},{"bufferView":2,"byteOffset":97776,"componentType":5126,"count":216,"type":"VEC4","name":"accessorTangents"},{"bufferView":1,"byteOffset":149256,"componentType":5126,"count":216,"type":"VEC3","name":"accessorNormals"},{"bufferView":3,"byteOffset":48888,"componentType":5126,"count":216,"type":"VEC2","name":"accessorUVs"},{"bufferView":0,"byteOffset":35604,"componentType":5123,"count":780,"type":"SCALAR","name":"accessorIndices"},{"bufferView":1,"byteOffset":151848,"componentType":5126,"count":244,"max":[0.5568696,0.025400002,0.025539069],"min":[6.357896E-15,-0.025400002,-0.025539069],"type":"VEC3","name":"accessorPositions"},{"bufferView":2,"byteOffset":101232,"componentType":5126,"count":244,"type":"VEC4","name":"accessorTangents"},{"bufferView":1,"byteOffset":154776,"componentType":5126,"count":244,"type":"VEC3","name":"accessorNormals"},{"bufferView":3,"byteOffset":50616,"componentType":5126,"count":244,"type":"VEC2","name":"accessorUVs"},{"bufferView":0,"byteOffset":37164,"componentType":5123,"count":144,"type":"SCALAR","name":"accessorIndices"},{"bufferView":1,"byteOffset":157704,"componentType":5126,"count":96,"max":[1.8935392,3.686544,0.007143598],"min":[-1.8863822,0.19727604,-0.007143598],"type":"VEC3","name":"accessorPositions"},{"bufferView":2,"byteOffset":105136,"componentType":5126,"count":96,"type":"VEC4","name":"accessorTangents"},{"bufferView":1,"byteOffset":158856,"componentType":5126,"count":96,"type":"VEC3","name":"accessorNormals"},{"bufferView":3,"byteOffset":52568,"componentType":5126,"count":96,"type":"VEC2","name":"accessorUVs"},{"bufferView":0,"byteOffset":37452,"componentType":5123,"count":4080,"type":"SCALAR","name":"accessorIndices"},{"bufferView":1,"byteOffset":160008,"componentType":5126,"count":1526,"max":[1.8968263,1.3227077,0.019062791],"min":[-1.8968263,-1.3227078,-0.019062791],"type":"VEC3","name":"accessorPositions"},{"bufferView":2,"byteOffset":106672,"componentType":5126,"count":1526,"type":"VEC4","name":"accessorTangents"},{"bufferView":1,"byteOffset":178320,"componentType":5126,"count":1526,"type":"VEC3","name":"accessorNormals"},{"bufferView":3,"byteOffset":53336,"componentType":5126,"count":1526,"type":"VEC2","name":"accessorUVs"},{"bufferView":0,"byteOffset":45612,"componentType":5123,"count":738,"type":"SCALAR","name":"accessorIndices"},{"bufferView":1,"byteOffset":196632,"componentType":5126,"count":252,"max":[1.8968263,1.3227077,0.019062791],"min":[-1.8968263,-1.3227075,-0.019062791],"type":"VEC3","name":"accessorPositions"},{"bufferView":2,"byteOffset":131088,"componentType":5126,"count":252,"type":"VEC4","name":"accessorTangents"},{"bufferView":1,"byteOffset":199656,"componentType":5126,"count":252,"type":"VEC3","name":"accessorNormals"},{"bufferView":3,"byteOffset":65544,"componentType":5126,"count":252,"type":"VEC2","name":"accessorUVs"}],"bufferViews":[{"buffer":0,"byteLength":47088,"name":"bufferViewScalar"},{"buffer":0,"byteOffset":47088,"byteLength":202680,"byteStride":12,"name":"bufferViewFloatVec3"},{"buffer":0,"byteOffset":249768,"byteLength":135120,"byteStride":16,"name":"bufferViewFloatVec4"},{"buffer":0,"byteOffset":384888,"byteLength":67560,"byteStride":8,"name":"bufferViewFloatVec2"}],"buffers":[{"uri":"Straight_Railing_Lo-Post_Square.bin","byteLength":452448}],"materials":[{"pbrMetallicRoughness":{"baseColorFactor":[0.10641303,0.10641304,0.10641304,1.0],"metallicFactor":0.0,"roughnessFactor":0.99,"metallicRoughnessTexture":{"index":0}},"name":"Rubber","extensions":{"KHR_materials_specular":{"specularFactor":0.1}}},{"pbrMetallicRoughness":{"baseColorFactor":[0.9999998,0.9999999,0.9999999,1.0],"baseColorTexture":{"index":1,"extensions":{"KHR_texture_transform":{"offset":[0.19519997,0.8048],"rotation":1.5707964,"scale":[0.6096,0.6096],"texCoord":0}}},"roughnessFactor":0.2,"metallicRoughnessTexture":{"index":1,"extensions":{"KHR_texture_transform":{"offset":[0.19519997,0.8048],"rotation":1.5707964,"scale":[0.6096,0.6096],"texCoord":0}}}},"name":"Steel_Linear"},{"pbrMetallicRoughness":{"baseColorFactor":[0.9999998,0.9999999,0.9999999,1.0],"baseColorTexture":{"index":2},"roughnessFactor":0.2,"metallicRoughnessTexture":{"index":2}},"name":"Steel_Radial"},{"pbrMetallicRoughness":{"baseColorFactor":[0.9999998,0.9999999,0.9999999,1.0],"metallicFactor":0.0,"roughnessFactor":0.1},"name":"Glass","extensions":{"KHR_materials_ior":{"ior":1.0},"KHR_materials_transmission":{"transmissionFactor":0.97},"KHR_materials_volume":{"thicknessFactor":0.56,"attenuationDistance":0.5,"attenuationColor":[0.49521634,0.56476736,0.5317566]}}}],"textures":[{"sampler":0,"source":0,"name":"PowderCoat_Roughness_2k0.jpg"},{"sampler":0,"source":1,"name":"Metal_Brushed_Linear_4k.jpg"},{"sampler":0,"source":2,"name":"Metal_Brushed_Radial_4k.jpg"}],"images":[{"uri":"textures/PowderCoat_Roughness_2k0.jpg"},{"uri":"textures/Metal_Brushed_Linear_4k.jpg"},{"uri":"textures/Metal_Brushed_Radial_4k.jpg"}],"samplers":[{"magFilter":9729,"minFilter":9987}]}