{"asset":{"version":"2.0","generator":"babylon.js glTF exporter for 3dsmax 2026 v20251111.2"},"extensionsUsed":["KHR_texture_transform","KHR_materials_specular","KHR_materials_ior","KHR_materials_transmission","KHR_materials_volume"],"extensionsRequired":["KHR_texture_transform"],"scene":0,"scenes":[{"nodes":[0,1,2,3,4,5,6,7,8,9,10,11,12,13,14,15,16,17,18,19,20,21,22,23,24,25,26,27,28,29,30,31,32,33,34,35,36,37,38,39,40,41,42,43,44,45,46,47,48,49,50,51,52,53,54,55,56,57,58,59,60,61,62,63,64,65,66,67,68,69,70,71,72,73,74,75,76,77,78,79,80,81,82,83,84,85,86,87,88,89,90,91,92,93,94,95,96,97,98,99,100,101,102,103,104,105,106,107,108,109,110,111,112,113,114,115,116,117,118,119,120,121,122,123,124,125,126,127,128,129,130,131,132,133,134,135,136,137,138,139,140,141,142,143,144,145,146,147,148,149,150,151,152,153,154,155,156,157,158,159,160,161,162,163]}],"nodes":[{"mesh":0,"translation":[-0.17010438,1.7326014,-0.023573017],"rotation":[-0.0,0.7071068,0.0,0.7071067],"name":"KUB009 - Top Barrel Mount Part [8739165]051"},{"mesh":0,"translation":[0.62932366,2.2809083,-0.023573017],"rotation":[-0.0,0.7071068,0.0,0.7071067],"name":"KUB009 - Top Barrel Mount Part [8739165]052"},{"mesh":0,"translation":[0.8958002,2.4642322,-0.023573017],"rotation":[-0.0,0.7071068,0.0,0.7071067],"name":"KUB009 - Top Barrel Mount Part [8739165]053"},{"mesh":0,"translation":[1.428744,2.8299918,-0.023573017],"rotation":[-0.0,0.7071068,0.0,0.7071067],"name":"KUB009 - Top Barrel Mount Part [8739165]054"},{"mesh":0,"translation":[-1.2352844,1.0012426,-0.023504008],"rotation":[-0.0,0.7071066,0.0,0.70710695],"name":"KUB009 - Top Barrel Mount Part [8739165]056"},{"mesh":0,"translation":[-1.5014566,0.81836265,-0.023504008],"rotation":[-0.0,0.7071066,0.0,0.70710695],"name":"KUB009 - Top Barrel Mount Part [8739165]057"},{"mesh":0,"translation":[-2.033799,0.45260262,-0.023504008],"rotation":[-0.0,0.7071066,0.0,0.70710695],"name":"KUB009 - Top Barrel Mount Part [8739165]058"},{"mesh":0,"translation":[-1.2352844,1.0012426,-1.0776048],"rotation":[-0.0,-0.7071068,0.0,0.7071067],"name":"KUB009 - Top Barrel Mount Part [8739165]060"},{"mesh":0,"translation":[-1.5014566,0.81836265,-1.0776048],"rotation":[-0.0,-0.7071068,0.0,0.7071067],"name":"KUB009 - Top Barrel Mount Part [8739165]061"},{"mesh":0,"translation":[-2.033799,0.45260262,-1.0776045],"rotation":[-0.0,-0.7071068,0.0,0.7071067],"name":"KUB009 - Top Barrel Mount Part [8739165]062"},{"mesh":0,"translation":[0.62932366,2.2809083,-1.0776738],"rotation":[-0.0,-0.7071068,0.0,0.7071067],"name":"KUB009 - Top Barrel Mount Part [8739165]063"},{"mesh":0,"translation":[0.8958002,2.4642322,-1.0776738],"rotation":[-0.0,-0.7071068,0.0,0.7071067],"name":"KUB009 - Top Barrel Mount Part [8739165]064"},{"mesh":0,"translation":[1.428744,2.8299918,-1.0776738],"rotation":[-0.0,-0.7071068,0.0,0.7071067],"name":"KUB009 - Top Barrel Mount Part [8739165]065"},{"mesh":0,"translation":[-0.17010209,1.7326022,-1.0776738],"rotation":[-0.0,-0.7071068,0.0,0.7071067],"name":"KUB009 - Top Barrel Mount Part [8739165]066"},{"mesh":0,"translation":[-0.17010438,2.2914014,-0.023573017],"rotation":[-0.0,0.7071068,0.0,0.7071067],"name":"KUB009 - Top Barrel Mount Part [8739165]075"},{"mesh":0,"translation":[0.62932366,2.8397083,-0.023573017],"rotation":[-0.0,0.7071068,0.0,0.7071067],"name":"KUB009 - Top Barrel Mount Part [8739165]076"},{"mesh":0,"translation":[0.8958002,3.0230324,-0.023573017],"rotation":[-0.0,0.7071068,0.0,0.7071067],"name":"KUB009 - Top Barrel Mount Part [8739165]077"},{"mesh":0,"translation":[1.428744,3.3887918,-0.023573017],"rotation":[-0.0,0.7071068,0.0,0.7071067],"name":"KUB009 - Top Barrel Mount Part [8739165]078"},{"mesh":0,"translation":[-1.2352844,1.5600426,-0.023504008],"rotation":[-0.0,0.7071066,0.0,0.70710695],"name":"KUB009 - Top Barrel Mount Part [8739165]080"},{"mesh":0,"translation":[-1.5014566,1.3771626,-0.023504008],"rotation":[-0.0,0.7071066,0.0,0.70710695],"name":"KUB009 - Top Barrel Mount Part [8739165]081"},{"mesh":0,"translation":[-2.033799,1.0114026,-0.023504008],"rotation":[-0.0,0.7071066,0.0,0.70710695],"name":"KUB009 - Top Barrel Mount Part [8739165]082"},{"mesh":0,"translation":[-1.2352844,1.5600426,-1.0776048],"rotation":[-0.0,-0.7071068,0.0,0.7071067],"name":"KUB009 - Top Barrel Mount Part [8739165]084"},{"mesh":0,"translation":[-1.5014566,1.3771626,-1.0776048],"rotation":[-0.0,-0.7071068,0.0,0.7071067],"name":"KUB009 - Top Barrel Mount Part [8739165]085"},{"mesh":0,"translation":[-2.033799,1.0114026,-1.0776045],"rotation":[-0.0,-0.7071068,0.0,0.7071067],"name":"KUB009 - Top Barrel Mount Part [8739165]086"},{"mesh":0,"translation":[0.62932366,2.8397083,-1.0776738],"rotation":[-0.0,-0.7071068,0.0,0.7071067],"name":"KUB009 - Top Barrel Mount Part [8739165]087"},{"mesh":0,"translation":[0.8958002,3.0230324,-1.0776738],"rotation":[-0.0,-0.7071068,0.0,0.7071067],"name":"KUB009 - Top Barrel Mount Part [8739165]088"},{"mesh":0,"translation":[1.428744,3.3887918,-1.0776738],"rotation":[-0.0,-0.7071068,0.0,0.7071067],"name":"KUB009 - Top Barrel Mount Part [8739165]089"},{"mesh":0,"translation":[-0.17010209,2.291402,-1.0776738],"rotation":[-0.0,-0.7071068,0.0,0.7071067],"name":"KUB009 - Top Barrel Mount Part [8739165]090"},{"mesh":0,"translation":[-0.43677074,1.549832,-0.023573017],"rotation":[-0.0,0.7071068,0.0,0.7071067],"name":"KUB009 - Top Barrel Mount Part [8739165]100"},{"mesh":0,"translation":[-0.43676844,1.5498329,-1.0776738],"rotation":[-0.0,-0.7071068,0.0,0.7071067],"name":"KUB009 - Top Barrel Mount Part [8739165]101"},{"mesh":0,"translation":[-0.43677074,2.1086318,-0.023573017],"rotation":[-0.0,0.7071068,0.0,0.7071067],"name":"KUB009 - Top Barrel Mount Part [8739165]102"},{"mesh":0,"translation":[-0.43676844,2.1086328,-1.0776738],"rotation":[-0.0,-0.7071068,0.0,0.7071067],"name":"KUB009 - Top Barrel Mount Part [8739165]103"},{"mesh":1,"translation":[-0.17010438,1.4629296,-0.023573017],"rotation":[-0.0,-0.7071068,0.0,0.7071067],"name":"CSQ001-US - Surface Mount Weldment Part [8723797]087"},{"mesh":1,"translation":[0.62932366,2.0112367,-0.023573017],"rotation":[-0.0,-0.7071068,0.0,0.7071067],"name":"CSQ001-US - Surface Mount Weldment Part [8723797]088"},{"mesh":1,"translation":[0.8958002,2.1945603,-0.023573017],"rotation":[-0.0,-0.7071068,0.0,0.7071067],"name":"CSQ001-US - Surface Mount Weldment Part [8723797]089"},{"mesh":1,"translation":[1.428744,2.56032,-0.023573017],"rotation":[-0.0,-0.7071068,0.0,0.7071067],"name":"CSQ001-US - Surface Mount Weldment Part [8723797]090"},{"mesh":1,"translation":[-1.2352844,0.73152006,-0.023504008],"rotation":[-0.0,-0.7071068,0.0,0.7071067],"name":"CSQ001-US - Surface Mount Weldment Part [8723797]091"},{"mesh":1,"translation":[-1.5014566,0.54864,-0.023504008],"rotation":[-0.0,-0.7071068,0.0,0.7071067],"name":"CSQ001-US - Surface Mount Weldment Part [8723797]092"},{"mesh":1,"translation":[-2.033799,0.18288001,-0.023504008],"rotation":[-0.0,-0.7071068,0.0,0.7071067],"name":"CSQ001-US - Surface Mount Weldment Part [8723797]093"},{"mesh":1,"translation":[-1.2352844,0.73152006,-1.0776048],"rotation":[-0.0,0.7071066,0.0,0.70710695],"name":"CSQ001-US - Surface Mount Weldment Part [8723797]095"},{"mesh":1,"translation":[-1.5014566,0.54864,-1.0776048],"rotation":[-0.0,0.7071066,0.0,0.70710695],"name":"CSQ001-US - Surface Mount Weldment Part [8723797]096"},{"mesh":1,"translation":[-2.033799,0.18288001,-1.0776045],"rotation":[-0.0,0.7071066,0.0,0.70710695],"name":"CSQ001-US - Surface Mount Weldment Part [8723797]097"},{"mesh":1,"translation":[0.62932366,2.0112367,-1.0776738],"rotation":[-0.0,0.7071068,0.0,0.7071067],"name":"CSQ001-US - Surface Mount Weldment Part [8723797]098"},{"mesh":1,"translation":[0.8958002,2.1945603,-1.0776738],"rotation":[-0.0,0.7071068,0.0,0.7071067],"name":"CSQ001-US - Surface Mount Weldment Part [8723797]099"},{"mesh":1,"translation":[1.428744,2.56032,-1.0776738],"rotation":[-0.0,0.7071068,0.0,0.7071067],"name":"CSQ001-US - Surface Mount Weldment Part [8723797]100"},{"mesh":1,"translation":[-0.17010209,1.4629303,-1.0776738],"rotation":[-0.0,0.7071068,0.0,0.7071067],"name":"CSQ001-US - Surface Mount Weldment Part [8723797]101"},{"mesh":1,"translation":[-0.43677074,1.2801603,-0.023573017],"rotation":[-0.0,-0.7071068,0.0,0.7071067],"name":"CSQ001-US - Surface Mount Weldment Part [8723797]261"},{"mesh":1,"translation":[-0.43676844,1.280161,-1.0776738],"rotation":[-0.0,0.7071068,0.0,0.7071067],"name":"CSQ001-US - Surface Mount Weldment Part [8723797]262"},{"mesh":2,"translation":[-0.17010438,2.2914014,-0.08549947],"rotation":[-0.0,0.7071068,0.0,0.7071067],"name":"KON006 - Lower Panel Clamp Part [8739162]152"},{"mesh":2,"translation":[-0.17010438,1.7326014,-0.08549947],"rotation":[-0.0,0.7071068,0.0,0.7071067],"name":"KON006 - Lower Panel Clamp Part [8739162]153"},{"mesh":2,"translation":[0.62932366,2.8397083,-0.08549947],"rotation":[-0.0,0.7071068,0.0,0.7071067],"name":"KON006 - Lower Panel Clamp Part [8739162]154"},{"mesh":2,"translation":[0.62932366,2.2809083,-0.08549947],"rotation":[-0.0,0.7071068,0.0,0.7071067],"name":"KON006 - Lower Panel Clamp Part [8739162]155"},{"mesh":2,"translation":[0.8958002,3.0230324,-0.08549947],"rotation":[-0.0,0.7071068,0.0,0.7071067],"name":"KON006 - Lower Panel Clamp Part [8739162]156"},{"mesh":2,"translation":[0.8958002,2.4642322,-0.08549947],"rotation":[-0.0,0.7071068,0.0,0.7071067],"name":"KON006 - Lower Panel Clamp Part [8739162]157"},{"mesh":2,"translation":[1.428744,3.3887918,-0.08549947],"rotation":[-0.0,0.7071068,0.0,0.7071067],"name":"KON006 - Lower Panel Clamp Part [8739162]158"},{"mesh":2,"translation":[1.428744,2.8299918,-0.08549947],"rotation":[-0.0,0.7071068,0.0,0.7071067],"name":"KON006 - Lower Panel Clamp Part [8739162]159"},{"mesh":2,"translation":[-1.2352844,1.5600426,-0.08543046],"rotation":[-0.0,0.7071066,0.0,0.70710695],"name":"KON006 - Lower Panel Clamp Part [8739162]162"},{"mesh":2,"translation":[-1.2352844,1.0012426,-0.08543046],"rotation":[-0.0,0.7071066,0.0,0.70710695],"name":"KON006 - Lower Panel Clamp Part [8739162]163"},{"mesh":2,"translation":[-1.5014566,1.3771626,-0.08543046],"rotation":[-0.0,0.7071066,0.0,0.70710695],"name":"KON006 - Lower Panel Clamp Part [8739162]164"},{"mesh":2,"translation":[-1.5014566,0.81836265,-0.08543046],"rotation":[-0.0,0.7071066,0.0,0.70710695],"name":"KON006 - Lower Panel Clamp Part [8739162]165"},{"mesh":2,"translation":[-2.033799,1.0114026,-0.08543046],"rotation":[-0.0,0.7071066,0.0,0.70710695],"name":"KON006 - Lower Panel Clamp Part [8739162]166"},{"mesh":2,"translation":[-2.033799,0.45260262,-0.08543046],"rotation":[-0.0,0.7071066,0.0,0.70710695],"name":"KON006 - Lower Panel Clamp Part [8739162]167"},{"mesh":2,"translation":[-1.2352844,1.5600426,-1.0156784],"rotation":[-0.0,-0.7071068,0.0,0.7071067],"name":"KON006 - Lower Panel Clamp Part [8739162]170"},{"mesh":2,"translation":[-1.2352844,1.0012426,-1.0156784],"rotation":[-0.0,-0.7071068,0.0,0.7071067],"name":"KON006 - Lower Panel Clamp Part [8739162]171"},{"mesh":2,"translation":[-1.5014566,1.3771626,-1.0156784],"rotation":[-0.0,-0.7071068,0.0,0.7071067],"name":"KON006 - Lower Panel Clamp Part [8739162]172"},{"mesh":2,"translation":[-1.5014566,0.81836265,-1.0156784],"rotation":[-0.0,-0.7071068,0.0,0.7071067],"name":"KON006 - Lower Panel Clamp Part [8739162]173"},{"mesh":2,"translation":[-2.033799,1.0114026,-1.0156782],"rotation":[-0.0,-0.7071068,0.0,0.7071067],"name":"KON006 - Lower Panel Clamp Part [8739162]174"},{"mesh":2,"translation":[-2.033799,0.45260262,-1.0156782],"rotation":[-0.0,-0.7071068,0.0,0.7071067],"name":"KON006 - Lower Panel Clamp Part [8739162]175"},{"mesh":2,"translation":[0.62932366,2.8397083,-1.0157473],"rotation":[-0.0,-0.7071068,0.0,0.7071067],"name":"KON006 - Lower Panel Clamp Part [8739162]176"},{"mesh":2,"translation":[0.62932366,2.2809083,-1.0157473],"rotation":[-0.0,-0.7071068,0.0,0.7071067],"name":"KON006 - Lower Panel Clamp Part [8739162]177"},{"mesh":2,"translation":[0.8958002,3.0230324,-1.0157473],"rotation":[-0.0,-0.7071068,0.0,0.7071067],"name":"KON006 - Lower Panel Clamp Part [8739162]178"},{"mesh":2,"translation":[0.8958002,2.4642322,-1.0157473],"rotation":[-0.0,-0.7071068,0.0,0.7071067],"name":"KON006 - Lower Panel Clamp Part [8739162]179"},{"mesh":2,"translation":[1.428744,3.3887918,-1.0157473],"rotation":[-0.0,-0.7071068,0.0,0.7071067],"name":"KON006 - Lower Panel Clamp Part [8739162]180"},{"mesh":2,"translation":[1.428744,2.8299918,-1.0157473],"rotation":[-0.0,-0.7071068,0.0,0.7071067],"name":"KON006 - Lower Panel Clamp Part [8739162]181"},{"mesh":2,"translation":[-0.17010209,2.291402,-1.0157473],"rotation":[-0.0,-0.7071068,0.0,0.7071067],"name":"KON006 - Lower Panel Clamp Part [8739162]182"},{"mesh":2,"translation":[-0.17010209,1.7326022,-1.0157473],"rotation":[-0.0,-0.7071068,0.0,0.7071067],"name":"KON006 - Lower Panel Clamp Part [8739162]183"},{"mesh":2,"translation":[-0.43677074,2.1086318,-0.08549947],"rotation":[-0.0,0.7071068,0.0,0.7071067],"name":"KON006 - Lower Panel Clamp Part [8739162]212"},{"mesh":2,"translation":[-0.43677074,1.549832,-0.08549947],"rotation":[-0.0,0.7071068,0.0,0.7071067],"name":"KON006 - Lower Panel Clamp Part [8739162]213"},{"mesh":2,"translation":[-0.43676844,2.1086328,-1.0157473],"rotation":[-0.0,-0.7071068,0.0,0.7071067],"name":"KON006 - Lower Panel Clamp Part [8739162]214"},{"mesh":2,"translation":[-0.43676844,1.5498329,-1.0157473],"rotation":[-0.0,-0.7071068,0.0,0.7071067],"name":"KON006 - Lower Panel Clamp Part [8739162]215"},{"mesh":3,"translation":[-0.17010438,2.2914014,-0.08392282],"rotation":[-0.0,-1.0,0.0,4.371139E-08],"name":"KON021 - Konic Washer Part [8739168]102"},{"mesh":3,"translation":[-0.17010438,1.7326014,-0.08392282],"rotation":[-0.0,-1.0,0.0,4.371139E-08],"name":"KON021 - Konic Washer Part [8739168]103"},{"mesh":3,"translation":[0.62932366,2.8397083,-0.08392282],"rotation":[-0.0,-1.0,0.0,4.371139E-08],"name":"KON021 - Konic Washer Part [8739168]104"},{"mesh":3,"translation":[0.62932366,2.2809083,-0.08392282],"rotation":[-0.0,-1.0,0.0,4.371139E-08],"name":"KON021 - Konic Washer Part [8739168]105"},{"mesh":3,"translation":[0.8958002,3.0230324,-0.08392282],"rotation":[-0.0,-1.0,0.0,4.371139E-08],"name":"KON021 - Konic Washer Part [8739168]106"},{"mesh":3,"translation":[0.8958002,2.4642322,-0.08392282],"rotation":[-0.0,-1.0,0.0,4.371139E-08],"name":"KON021 - Konic Washer Part [8739168]107"},{"mesh":3,"translation":[1.428744,3.3887918,-0.08392282],"rotation":[-0.0,-1.0,0.0,4.371139E-08],"name":"KON021 - Konic Washer Part [8739168]108"},{"mesh":3,"translation":[1.428744,2.8299918,-0.08392282],"rotation":[-0.0,-1.0,0.0,4.371139E-08],"name":"KON021 - Konic Washer Part [8739168]109"},{"mesh":3,"translation":[-1.2352844,1.5600426,-0.08385381],"rotation":[-0.0,-1.0,0.0,-4.371139E-08],"name":"KON021 - Konic Washer Part [8739168]112"},{"mesh":3,"translation":[-1.2352844,1.0012426,-0.08385381],"rotation":[-0.0,-1.0,0.0,-4.371139E-08],"name":"KON021 - Konic Washer Part [8739168]113"},{"mesh":3,"translation":[-1.5014566,1.3771626,-0.08385381],"rotation":[-0.0,-1.0,0.0,-4.371139E-08],"name":"KON021 - Konic Washer Part [8739168]114"},{"mesh":3,"translation":[-1.5014566,0.81836265,-0.08385381],"rotation":[-0.0,-1.0,0.0,-4.371139E-08],"name":"KON021 - Konic Washer Part [8739168]115"},{"mesh":3,"translation":[-2.033799,1.0114026,-0.08385381],"rotation":[-0.0,-1.0,0.0,-4.371139E-08],"name":"KON021 - Konic Washer Part [8739168]116"},{"mesh":3,"translation":[-2.033799,0.45260262,-0.08385381],"rotation":[-0.0,-1.0,0.0,-4.371139E-08],"name":"KON021 - Konic Washer Part [8739168]117"},{"mesh":3,"translation":[-1.2352844,1.5600426,-1.017255],"name":"KON021 - Konic Washer Part [8739168]120"},{"mesh":3,"translation":[-1.2352844,1.0012426,-1.017255],"name":"KON021 - Konic Washer Part [8739168]121"},{"mesh":3,"translation":[-1.5014566,1.3771626,-1.017255],"name":"KON021 - Konic Washer Part [8739168]122"},{"mesh":3,"translation":[-1.5014566,0.81836265,-1.017255],"name":"KON021 - Konic Washer Part [8739168]123"},{"mesh":3,"translation":[-2.033799,1.0114026,-1.0172548],"name":"KON021 - Konic Washer Part [8739168]124"},{"mesh":3,"translation":[-2.033799,0.45260262,-1.0172548],"name":"KON021 - Konic Washer Part [8739168]125"},{"mesh":3,"translation":[0.62932366,2.8397083,-1.017324],"name":"KON021 - Konic Washer Part [8739168]126"},{"mesh":3,"translation":[0.62932366,2.2809083,-1.017324],"name":"KON021 - Konic Washer Part [8739168]127"},{"mesh":3,"translation":[0.8958002,3.0230324,-1.017324],"name":"KON021 - Konic Washer Part [8739168]128"},{"mesh":3,"translation":[0.8958002,2.4642322,-1.017324],"name":"KON021 - Konic Washer Part [8739168]129"},{"mesh":3,"translation":[1.428744,3.3887918,-1.017324],"name":"KON021 - Konic Washer Part [8739168]130"},{"mesh":3,"translation":[1.428744,2.8299918,-1.017324],"name":"KON021 - Konic Washer Part [8739168]131"},{"mesh":3,"translation":[-0.17010209,2.291402,-1.017324],"name":"KON021 - Konic Washer Part [8739168]132"},{"mesh":3,"translation":[-0.17010209,1.7326022,-1.017324],"name":"KON021 - Konic Washer Part [8739168]133"},{"mesh":3,"translation":[-0.17010438,2.2914014,-0.069623694],"name":"KON021 - Konic Washer Part [8739168]151"},{"mesh":3,"translation":[-0.17010438,1.7326014,-0.069623694],"name":"KON021 - Konic Washer Part [8739168]152"},{"mesh":3,"translation":[0.62932366,2.8397083,-0.069623694],"name":"KON021 - Konic Washer Part [8739168]153"},{"mesh":3,"translation":[0.62932366,2.2809083,-0.069623694],"name":"KON021 - Konic Washer Part [8739168]154"},{"mesh":3,"translation":[0.8958002,3.0230324,-0.069623694],"name":"KON021 - Konic Washer Part [8739168]155"},{"mesh":3,"translation":[0.8958002,2.4642322,-0.069623694],"name":"KON021 - Konic Washer Part [8739168]156"},{"mesh":3,"translation":[1.428744,3.3887918,-0.069623694],"name":"KON021 - Konic Washer Part [8739168]157"},{"mesh":3,"translation":[1.428744,2.8299918,-0.069623694],"name":"KON021 - Konic Washer Part [8739168]158"},{"mesh":3,"translation":[-1.2352844,1.5600426,-0.06955469],"rotation":[-0.0,-8.742278E-08,0.0,1.0],"name":"KON021 - Konic Washer Part [8739168]161"},{"mesh":3,"translation":[-1.2352844,1.0012426,-0.06955469],"rotation":[-0.0,-8.742278E-08,0.0,1.0],"name":"KON021 - Konic Washer Part [8739168]162"},{"mesh":3,"translation":[-1.5014566,1.3771626,-0.06955469],"rotation":[-0.0,-8.742278E-08,0.0,1.0],"name":"KON021 - Konic Washer Part [8739168]163"},{"mesh":3,"translation":[-1.5014566,0.81836265,-0.06955469],"rotation":[-0.0,-8.742278E-08,0.0,1.0],"name":"KON021 - Konic Washer Part [8739168]164"},{"mesh":3,"translation":[-2.033799,1.0114026,-0.06955469],"rotation":[-0.0,-8.742278E-08,0.0,1.0],"name":"KON021 - Konic Washer Part [8739168]165"},{"mesh":3,"translation":[-2.033799,0.45260262,-0.06955469],"rotation":[-0.0,-8.742278E-08,0.0,1.0],"name":"KON021 - Konic Washer Part [8739168]166"},{"mesh":3,"translation":[-1.2352844,1.5600426,-1.0315541],"rotation":[-0.0,-1.0,0.0,-4.371139E-08],"name":"KON021 - Konic Washer Part [8739168]169"},{"mesh":3,"translation":[-1.2352844,1.0012426,-1.0315541],"rotation":[-0.0,-1.0,0.0,-4.371139E-08],"name":"KON021 - Konic Washer Part [8739168]170"},{"mesh":3,"translation":[-1.5014566,1.3771626,-1.0315541],"rotation":[-0.0,-1.0,0.0,-4.371139E-08],"name":"KON021 - Konic Washer Part [8739168]171"},{"mesh":3,"translation":[-1.5014566,0.81836265,-1.0315541],"rotation":[-0.0,-1.0,0.0,-4.371139E-08],"name":"KON021 - Konic Washer Part [8739168]172"},{"mesh":3,"translation":[-2.033799,1.0114026,-1.0315539],"rotation":[-0.0,-1.0,0.0,-4.371139E-08],"name":"KON021 - Konic Washer Part [8739168]173"},{"mesh":3,"translation":[-2.033799,0.45260262,-1.0315539],"rotation":[-0.0,-1.0,0.0,-4.371139E-08],"name":"KON021 - Konic Washer Part [8739168]174"},{"mesh":3,"translation":[0.62932366,2.8397083,-1.0316231],"rotation":[-0.0,-1.0,0.0,-4.371139E-08],"name":"KON021 - Konic Washer Part [8739168]175"},{"mesh":3,"translation":[0.62932366,2.2809083,-1.0316231],"rotation":[-0.0,-1.0,0.0,-4.371139E-08],"name":"KON021 - Konic Washer Part [8739168]176"},{"mesh":3,"translation":[0.8958002,3.0230324,-1.0316231],"rotation":[-0.0,-1.0,0.0,-4.371139E-08],"name":"KON021 - Konic Washer Part [8739168]177"},{"mesh":3,"translation":[0.8958002,2.4642322,-1.0316231],"rotation":[-0.0,-1.0,0.0,-4.371139E-08],"name":"KON021 - Konic Washer Part [8739168]178"},{"mesh":3,"translation":[1.428744,3.3887918,-1.0316231],"rotation":[-0.0,-1.0,0.0,-4.371139E-08],"name":"KON021 - Konic Washer Part [8739168]179"},{"mesh":3,"translation":[1.428744,2.8299918,-1.0316231],"rotation":[-0.0,-1.0,0.0,-4.371139E-08],"name":"KON021 - Konic Washer Part [8739168]180"},{"mesh":3,"translation":[-0.17010209,2.291402,-1.0316231],"rotation":[-0.0,-1.0,0.0,-4.371139E-08],"name":"KON021 - Konic Washer Part [8739168]181"},{"mesh":3,"translation":[-0.17010209,1.7326022,-1.0316231],"rotation":[-0.0,-1.0,0.0,-4.371139E-08],"name":"KON021 - Konic Washer Part [8739168]182"},{"mesh":3,"translation":[-0.43677074,2.1086318,-0.08392282],"rotation":[-0.0,-1.0,0.0,4.371139E-08],"name":"KON021 - Konic Washer Part [8739168]203"},{"mesh":3,"translation":[-0.43677074,1.549832,-0.08392282],"rotation":[-0.0,-1.0,0.0,4.371139E-08],"name":"KON021 - Konic Washer Part [8739168]204"},{"mesh":3,"translation":[-0.43676844,2.1086328,-1.017324],"name":"KON021 - Konic Washer Part [8739168]205"},{"mesh":3,"translation":[-0.43676844,1.5498329,-1.017324],"name":"KON021 - Konic Washer Part [8739168]206"},{"mesh":3,"translation":[-0.43677074,2.1086318,-0.069623694],"name":"KON021 - Konic Washer Part [8739168]207"},{"mesh":3,"translation":[-0.43677074,1.549832,-0.069623694],"name":"KON021 - Konic Washer Part [8739168]208"},{"mesh":3,"translation":[-0.43676844,2.1086328,-1.0316231],"rotation":[-0.0,-1.0,0.0,-4.371139E-08],"name":"KON021 - Konic Washer Part [8739168]209"},{"mesh":3,"translation":[-0.43676844,1.5498329,-1.0316231],"rotation":[-0.0,-1.0,0.0,-4.371139E-08],"name":"KON021 - Konic Washer Part [8739168]210"},{"mesh":4,"translation":[-0.17010438,1.4629296,-0.023573017],"rotation":[0.5,0.5,0.50000006,0.49999994],"scale":[1.0,0.99999994,0.99999994],"name":"LS147 & LS148 - Kubit Post Material LS Material [8739192]026"},{"mesh":4,"translation":[-0.43677074,1.2801603,-0.023573017],"rotation":[0.5,0.5,0.50000006,0.49999994],"scale":[1.0,0.99999994,0.99999994],"name":"LS147 & LS148 - Kubit Post Material LS Material [8739192]050"},{"mesh":5,"translation":[0.62932366,2.0112367,-0.023573017],"rotation":[0.5,0.5,0.50000006,0.49999994],"scale":[1.0,0.99999994,0.99999994],"name":"LS147 & LS148 - Kubit Post Material LS Material [8739192]027"},{"mesh":6,"translation":[0.8958002,2.1945603,-0.023573017],"rotation":[0.5,0.5,0.50000006,0.49999994],"scale":[1.0,0.99999994,0.99999994],"name":"LS147 & LS148 - Kubit Post Material LS Material [8739192]028"},{"mesh":7,"translation":[1.428744,2.56032,-0.023573017],"rotation":[0.5,0.5,0.50000006,0.49999994],"scale":[1.0,0.99999994,0.99999994],"name":"LS147 & LS148 - Kubit Post Material LS Material [8739192]029"},{"mesh":8,"translation":[-1.2352844,0.73152006,-0.023504008],"rotation":[0.49999988,0.5,0.50000006,0.50000006],"scale":[1.0,0.99999994,0.99999994],"name":"LS147 & LS148 - Kubit Post Material LS Material [8739192]031"},{"mesh":9,"translation":[-1.5014566,0.54864,-0.023504008],"rotation":[0.49999988,0.5,0.50000006,0.50000006],"scale":[1.0,0.99999994,0.99999994],"name":"LS147 & LS148 - Kubit Post Material LS Material [8739192]032"},{"mesh":10,"translation":[-2.033799,0.18288001,-0.023504008],"rotation":[0.49999988,0.5,0.50000006,0.50000006],"scale":[1.0,0.99999994,0.99999994],"name":"LS147 & LS148 - Kubit Post Material LS Material [8739192]033"},{"mesh":11,"translation":[-1.2352844,0.73152006,-1.0776048],"rotation":[-0.49999994,-0.50000006,0.5,0.5],"scale":[1.0,0.99999994,0.99999994],"name":"LS147 & LS148 - Kubit Post Material LS Material [8739192]035"},{"mesh":12,"translation":[-1.5014566,0.54864,-1.0776048],"rotation":[-0.49999994,-0.50000006,0.5,0.5],"scale":[1.0,0.99999994,0.99999994],"name":"LS147 & LS148 - Kubit Post Material LS Material [8739192]036"},{"mesh":13,"translation":[-2.033799,0.18288001,-1.0776045],"rotation":[-0.49999994,-0.50000006,0.5,0.5],"scale":[1.0,0.99999994,0.99999994],"name":"LS147 & LS148 - Kubit Post Material LS Material [8739192]037"},{"mesh":14,"translation":[0.62932366,2.0112367,-1.0776738],"rotation":[-0.5,-0.5,0.50000006,0.49999994],"name":"LS147 & LS148 - Kubit Post Material LS Material [8739192]038"},{"mesh":15,"translation":[0.8958002,2.1945603,-1.0776738],"rotation":[-0.5,-0.5,0.50000006,0.49999994],"name":"LS147 & LS148 - Kubit Post Material LS Material [8739192]039"},{"mesh":16,"translation":[1.428744,2.56032,-1.0776738],"rotation":[-0.5,-0.5,0.50000006,0.49999994],"name":"LS147 & LS148 - Kubit Post Material LS Material [8739192]040"},{"mesh":17,"translation":[-0.17010209,1.4629303,-1.0776738],"rotation":[-0.5,-0.5,0.50000006,0.49999994],"name":"LS147 & LS148 - Kubit Post Material LS Material [8739192]041"},{"mesh":17,"translation":[-0.43676844,1.280161,-1.0776738],"rotation":[-0.5,-0.5,0.50000006,0.49999994],"name":"LS147 & LS148 - Kubit Post Material LS Material [8739192]051"},{"mesh":18,"translation":[-0.2999639,0.0,-0.07673256],"name":"Box010"},{"mesh":18,"translation":[-0.2999639,0.0,-1.0243795],"name":"Box011"},{"mesh":19,"translation":[-0.29534957,2.376288,-1.0243602],"name":"Generic Models 11 Generic Models 11 [8762451]009"},{"mesh":19,"translation":[-0.29534957,2.376288,-0.07671316],"name":"Generic Models 11 Generic Models 11 [8762451]010"}],"meshes":[{"primitives":[{"attributes":{"POSITION":1,"TANGENT":2,"NORMAL":3,"TEXCOORD_0":4},"indices":0,"material":0},{"attributes":{"POSITION":6,"TANGENT":7,"NORMAL":8,"TEXCOORD_0":9},"indices":5,"material":1}],"name":"KUB009 - Top Barrel Mount Part [8739165]051"},{"primitives":[{"attributes":{"POSITION":11,"TANGENT":12,"NORMAL":13,"TEXCOORD_0":14},"indices":10,"material":0}],"name":"CSQ001-US - Surface Mount Weldment Part [8723797]087"},{"primitives":[{"attributes":{"POSITION":16,"TANGENT":17,"NORMAL":18,"TEXCOORD_0":19},"indices":15,"material":0},{"attributes":{"POSITION":21,"TANGENT":22,"NORMAL":23,"TEXCOORD_0":24},"indices":20,"material":1}],"name":"KON006 - Lower Panel Clamp Part [8739162]152"},{"primitives":[{"attributes":{"POSITION":26,"TANGENT":27,"NORMAL":28,"TEXCOORD_0":29},"indices":25,"material":2}],"name":"KON021 - Konic Washer Part [8739168]102"},{"primitives":[{"attributes":{"POSITION":31,"TANGENT":32,"NORMAL":33,"TEXCOORD_0":34},"indices":30,"material":0}],"name":"LS147 & LS148 - Kubit Post Material LS Material [8739192]026"},{"primitives":[{"attributes":{"POSITION":36,"TANGENT":37,"NORMAL":38,"TEXCOORD_0":39},"indices":35,"material":0}],"name":"LS147 & LS148 - Kubit Post Material LS Material [8739192]027"},{"primitives":[{"attributes":{"POSITION":41,"TANGENT":42,"NORMAL":43,"TEXCOORD_0":44},"indices":40,"material":0}],"name":"LS147 & LS148 - Kubit Post Material LS Material [8739192]028"},{"primitives":[{"attributes":{"POSITION":46,"TANGENT":47,"NORMAL":48,"TEXCOORD_0":49},"indices":45,"material":0}],"name":"LS147 & LS148 - Kubit Post Material LS Material [8739192]029"},{"primitives":[{"attributes":{"POSITION":51,"TANGENT":52,"NORMAL":53,"TEXCOORD_0":54},"indices":50,"material":0}],"name":"LS147 & LS148 - Kubit Post Material LS Material [8739192]031"},{"primitives":[{"attributes":{"POSITION":56,"TANGENT":57,"NORMAL":58,"TEXCOORD_0":59},"indices":55,"material":0}],"name":"LS147 & LS148 - Kubit Post Material LS Material [8739192]032"},{"primitives":[{"attributes":{"POSITION":61,"TANGENT":62,"NORMAL":63,"TEXCOORD_0":64},"indices":60,"material":0}],"name":"LS147 & LS148 - Kubit Post Material LS Material [8739192]033"},{"primitives":[{"attributes":{"POSITION":66,"TANGENT":67,"NORMAL":68,"TEXCOORD_0":69},"indices":65,"material":0}],"name":"LS147 & LS148 - Kubit Post Material LS Material [8739192]035"},{"primitives":[{"attributes":{"POSITION":71,"TANGENT":72,"NORMAL":73,"TEXCOORD_0":74},"indices":70,"material":0}],"name":"LS147 & LS148 - Kubit Post Material LS Material [8739192]036"},{"primitives":[{"attributes":{"POSITION":76,"TANGENT":77,"NORMAL":78,"TEXCOORD_0":79},"indices":75,"material":0}],"name":"LS147 & LS148 - Kubit Post Material LS Material [8739192]037"},{"primitives":[{"attributes":{"POSITION":81,"TANGENT":82,"NORMAL":83,"TEXCOORD_0":84},"indices":80,"material":0}],"name":"LS147 & LS148 - Kubit Post Material LS Material [8739192]038"},{"primitives":[{"attributes":{"POSITION":86,"TANGENT":87,"NORMAL":88,"TEXCOORD_0":89},"indices":85,"material":0}],"name":"LS147 & LS148 - Kubit Post Material LS Material [8739192]039"},{"primitives":[{"attributes":{"POSITION":91,"TANGENT":92,"NORMAL":93,"TEXCOORD_0":94},"indices":90,"material":0}],"name":"LS147 & LS148 - Kubit Post Material LS Material [8739192]040"},{"primitives":[{"attributes":{"POSITION":96,"TANGENT":97,"NORMAL":98,"TEXCOORD_0":99},"indices":95,"material":0}],"name":"LS147 & LS148 - Kubit Post Material LS Material [8739192]041"},{"primitives":[{"attributes":{"POSITION":101,"TANGENT":102,"NORMAL":103,"TEXCOORD_0":104},"indices":100,"material":3}],"name":"Box010"},{"primitives":[{"attributes":{"POSITION":106,"TANGENT":107,"NORMAL":108,"TEXCOORD_0":109},"indices":105,"material":0},{"attributes":{"POSITION":111,"TANGENT":112,"NORMAL":113,"TEXCOORD_0":114},"indices":110,"material":1}],"name":"Generic Models 11 Generic Models 11 [8762451]009"}],"accessors":[{"bufferView":0,"componentType":5123,"count":1836,"type":"SCALAR","name":"accessorIndices"},{"bufferView":1,"componentType":5126,"count":501,"max":[0.044475403,0.015875,0.015875],"min":[-0.031724602,-0.015875,-0.015875],"type":"VEC3","name":"accessorPositions"},{"bufferView":2,"componentType":5126,"count":501,"type":"VEC4","name":"accessorTangents"},{"bufferView":1,"byteOffset":6012,"componentType":5126,"count":501,"type":"VEC3","name":"accessorNormals"},{"bufferView":3,"componentType":5126,"count":501,"type":"VEC2","name":"accessorUVs"},{"bufferView":0,"byteOffset":3672,"componentType":5123,"count":570,"type":"SCALAR","name":"accessorIndices"},{"bufferView":1,"byteOffset":12024,"componentType":5126,"count":192,"max":[0.044475403,0.015875,0.015875],"min":[-0.031724602,-0.015875,-0.015875],"type":"VEC3","name":"accessorPositions"},{"bufferView":2,"byteOffset":8016,"componentType":5126,"count":192,"type":"VEC4","name":"accessorTangents"},{"bufferView":1,"byteOffset":14328,"componentType":5126,"count":192,"type":"VEC3","name":"accessorNormals"},{"bufferView":3,"byteOffset":4008,"componentType":5126,"count":192,"type":"VEC2","name":"accessorUVs"},{"bufferView":0,"byteOffset":4812,"componentType":5123,"count":570,"type":"SCALAR","name":"accessorIndices"},{"bufferView":1,"byteOffset":16632,"componentType":5126,"count":189,"max":[0.053975,0.025400002,0.053975],"min":[-0.053975,-3.0953716E-15,-0.053975],"type":"VEC3","name":"accessorPositions"},{"bufferView":2,"byteOffset":11088,"componentType":5126,"count":189,"type":"VEC4","name":"accessorTangents"},{"bufferView":1,"byteOffset":18900,"componentType":5126,"count":189,"type":"VEC3","name":"accessorNormals"},{"bufferView":3,"byteOffset":5544,"componentType":5126,"count":189,"type":"VEC2","name":"accessorUVs"},{"bufferView":0,"byteOffset":5952,"componentType":5123,"count":864,"type":"SCALAR","name":"accessorIndices"},{"bufferView":1,"byteOffset":21168,"componentType":5126,"count":292,"max":[0.006604,0.015875,0.015875],"min":[-0.022722581,-0.015875,-0.015875],"type":"VEC3","name":"accessorPositions"},{"bufferView":2,"byteOffset":14112,"componentType":5126,"count":292,"type":"VEC4","name":"accessorTangents"},{"bufferView":1,"byteOffset":24672,"componentType":5126,"count":292,"type":"VEC3","name":"accessorNormals"},{"bufferView":3,"byteOffset":7056,"componentType":5126,"count":292,"type":"VEC2","name":"accessorUVs"},{"bufferView":0,"byteOffset":7680,"componentType":5123,"count":858,"type":"SCALAR","name":"accessorIndices"},{"bufferView":1,"byteOffset":28176,"componentType":5126,"count":289,"max":[0.006604,0.015875,0.015875],"min":[-0.022722581,-0.015875,-0.015875],"type":"VEC3","name":"accessorPositions"},{"bufferView":2,"byteOffset":18784,"componentType":5126,"count":289,"type":"VEC4","name":"accessorTangents"},{"bufferView":1,"byteOffset":31644,"componentType":5126,"count":289,"type":"VEC3","name":"accessorNormals"},{"bufferView":3,"byteOffset":9392,"componentType":5126,"count":289,"type":"VEC2","name":"accessorUVs"},{"bufferView":0,"byteOffset":9396,"componentType":5123,"count":1440,"type":"SCALAR","name":"accessorIndices"},{"bufferView":1,"byteOffset":35112,"componentType":5126,"count":484,"max":[0.012700001,0.012700001,0.0015748],"min":[-0.012700001,-0.012700001,8.253881E-15],"type":"VEC3","name":"accessorPositions"},{"bufferView":2,"byteOffset":23408,"componentType":5126,"count":484,"type":"VEC4","name":"accessorTangents"},{"bufferView":1,"byteOffset":40920,"componentType":5126,"count":484,"type":"VEC3","name":"accessorNormals"},{"bufferView":3,"byteOffset":11704,"componentType":5126,"count":484,"type":"VEC2","name":"accessorUVs"},{"bufferView":0,"byteOffset":12276,"componentType":5123,"count":36,"type":"SCALAR","name":"accessorIndices"},{"bufferView":1,"byteOffset":46728,"componentType":5126,"count":24,"max":[0.83982563,0.025400002,0.006350034],"min":[6.3589614E-15,-0.025400031,-0.0063500004],"type":"VEC3","name":"accessorPositions"},{"bufferView":2,"byteOffset":31152,"componentType":5126,"count":24,"type":"VEC4","name":"accessorTangents"},{"bufferView":1,"byteOffset":47016,"componentType":5126,"count":24,"type":"VEC3","name":"accessorNormals"},{"bufferView":3,"byteOffset":15576,"componentType":5126,"count":24,"type":"VEC2","name":"accessorUVs"},{"bufferView":0,"byteOffset":12348,"componentType":5123,"count":36,"type":"SCALAR","name":"accessorIndices"},{"bufferView":1,"byteOffset":47304,"componentType":5126,"count":24,"max":[0.83982563,0.025400002,0.006350012],"min":[6.3589614E-15,-0.025400048,-0.0063500004],"type":"VEC3","name":"accessorPositions"},{"bufferView":2,"byteOffset":31536,"componentType":5126,"count":24,"type":"VEC4","name":"accessorTangents"},{"bufferView":1,"byteOffset":47592,"componentType":5126,"count":24,"type":"VEC3","name":"accessorNormals"},{"bufferView":3,"byteOffset":15768,"componentType":5126,"count":24,"type":"VEC2","name":"accessorUVs"},{"bufferView":0,"byteOffset":12420,"componentType":5123,"count":36,"type":"SCALAR","name":"accessorIndices"},{"bufferView":1,"byteOffset":47880,"componentType":5126,"count":24,"max":[0.83982563,0.025400002,0.0063500004],"min":[6.3589614E-15,-0.025400048,-0.0063500004],"type":"VEC3","name":"accessorPositions"},{"bufferView":2,"byteOffset":31920,"componentType":5126,"count":24,"type":"VEC4","name":"accessorTangents"},{"bufferView":1,"byteOffset":48168,"componentType":5126,"count":24,"type":"VEC3","name":"accessorNormals"},{"bufferView":3,"byteOffset":15960,"componentType":5126,"count":24,"type":"VEC2","name":"accessorUVs"},{"bufferView":0,"byteOffset":12492,"componentType":5123,"count":36,"type":"SCALAR","name":"accessorIndices"},{"bufferView":1,"byteOffset":48456,"componentType":5126,"count":24,"max":[0.8398257,0.025400002,0.0063500004],"min":[6.3589614E-15,-0.025400031,-0.0063500484],"type":"VEC3","name":"accessorPositions"},{"bufferView":2,"byteOffset":32304,"componentType":5126,"count":24,"type":"VEC4","name":"accessorTangents"},{"bufferView":1,"byteOffset":48744,"componentType":5126,"count":24,"type":"VEC3","name":"accessorNormals"},{"bufferView":3,"byteOffset":16152,"componentType":5126,"count":24,"type":"VEC2","name":"accessorUVs"},{"bufferView":0,"byteOffset":12564,"componentType":5123,"count":36,"type":"SCALAR","name":"accessorIndices"},{"bufferView":1,"byteOffset":49032,"componentType":5126,"count":24,"max":[0.83982563,0.025400002,0.0063500004],"min":[6.3589614E-15,-0.025400037,-0.0063500484],"type":"VEC3","name":"accessorPositions"},{"bufferView":2,"byteOffset":32688,"componentType":5126,"count":24,"type":"VEC4","name":"accessorTangents"},{"bufferView":1,"byteOffset":49320,"componentType":5126,"count":24,"type":"VEC3","name":"accessorNormals"},{"bufferView":3,"byteOffset":16344,"componentType":5126,"count":24,"type":"VEC2","name":"accessorUVs"},{"bufferView":0,"byteOffset":12636,"componentType":5123,"count":36,"type":"SCALAR","name":"accessorIndices"},{"bufferView":1,"byteOffset":49608,"componentType":5126,"count":24,"max":[0.8398256,0.025400002,0.0063500004],"min":[6.3589614E-15,-0.025400037,-0.006350121],"type":"VEC3","name":"accessorPositions"},{"bufferView":2,"byteOffset":33072,"componentType":5126,"count":24,"type":"VEC4","name":"accessorTangents"},{"bufferView":1,"byteOffset":49896,"componentType":5126,"count":24,"type":"VEC3","name":"accessorNormals"},{"bufferView":3,"byteOffset":16536,"componentType":5126,"count":24,"type":"VEC2","name":"accessorUVs"},{"bufferView":0,"byteOffset":12708,"componentType":5123,"count":36,"type":"SCALAR","name":"accessorIndices"},{"bufferView":1,"byteOffset":50184,"componentType":5126,"count":24,"max":[0.83982563,0.025400002,0.0063500004],"min":[6.3589614E-15,-0.025400037,-0.0063500484],"type":"VEC3","name":"accessorPositions"},{"bufferView":2,"byteOffset":33456,"componentType":5126,"count":24,"type":"VEC4","name":"accessorTangents"},{"bufferView":1,"byteOffset":50472,"componentType":5126,"count":24,"type":"VEC3","name":"accessorNormals"},{"bufferView":3,"byteOffset":16728,"componentType":5126,"count":24,"type":"VEC2","name":"accessorUVs"},{"bufferView":0,"byteOffset":12780,"componentType":5123,"count":36,"type":"SCALAR","name":"accessorIndices"},{"bufferView":1,"byteOffset":50760,"componentType":5126,"count":24,"max":[0.8398256,0.025400002,0.0063500484],"min":[6.3589614E-15,-0.025400002,-0.0063500004],"type":"VEC3","name":"accessorPositions"},{"bufferView":2,"byteOffset":33840,"componentType":5126,"count":24,"type":"VEC4","name":"accessorTangents"},{"bufferView":1,"byteOffset":51048,"componentType":5126,"count":24,"type":"VEC3","name":"accessorNormals"},{"bufferView":3,"byteOffset":16920,"componentType":5126,"count":24,"type":"VEC2","name":"accessorUVs"},{"bufferView":0,"byteOffset":12852,"componentType":5123,"count":36,"type":"SCALAR","name":"accessorIndices"},{"bufferView":1,"byteOffset":51336,"componentType":5126,"count":24,"max":[0.83982563,0.025400002,0.0063500484],"min":[6.3589614E-15,-0.025400048,-0.0063500004],"type":"VEC3","name":"accessorPositions"},{"bufferView":2,"byteOffset":34224,"componentType":5126,"count":24,"type":"VEC4","name":"accessorTangents"},{"bufferView":1,"byteOffset":51624,"componentType":5126,"count":24,"type":"VEC3","name":"accessorNormals"},{"bufferView":3,"byteOffset":17112,"componentType":5126,"count":24,"type":"VEC2","name":"accessorUVs"},{"bufferView":0,"byteOffset":12924,"componentType":5123,"count":36,"type":"SCALAR","name":"accessorIndices"},{"bufferView":1,"byteOffset":51912,"componentType":5126,"count":24,"max":[0.83982563,0.025400002,0.0063500484],"min":[6.3589614E-15,-0.025400002,-0.0063500004],"type":"VEC3","name":"accessorPositions"},{"bufferView":2,"byteOffset":34608,"componentType":5126,"count":24,"type":"VEC4","name":"accessorTangents"},{"bufferView":1,"byteOffset":52200,"componentType":5126,"count":24,"type":"VEC3","name":"accessorNormals"},{"bufferView":3,"byteOffset":17304,"componentType":5126,"count":24,"type":"VEC2","name":"accessorUVs"},{"bufferView":0,"byteOffset":12996,"componentType":5123,"count":36,"type":"SCALAR","name":"accessorIndices"},{"bufferView":1,"byteOffset":52488,"componentType":5126,"count":24,"max":[0.83982563,0.025400002,0.0063500004],"min":[6.3589614E-15,-0.02540012,-0.006350012],"type":"VEC3","name":"accessorPositions"},{"bufferView":2,"byteOffset":34992,"componentType":5126,"count":24,"type":"VEC4","name":"accessorTangents"},{"bufferView":1,"byteOffset":52776,"componentType":5126,"count":24,"type":"VEC3","name":"accessorNormals"},{"bufferView":3,"byteOffset":17496,"componentType":5126,"count":24,"type":"VEC2","name":"accessorUVs"},{"bufferView":0,"byteOffset":13068,"componentType":5123,"count":36,"type":"SCALAR","name":"accessorIndices"},{"bufferView":1,"byteOffset":53064,"componentType":5126,"count":24,"max":[0.83982563,0.02540012,0.0063500004],"min":[6.3589614E-15,-0.025400048,-0.0063500484],"type":"VEC3","name":"accessorPositions"},{"bufferView":2,"byteOffset":35376,"componentType":5126,"count":24,"type":"VEC4","name":"accessorTangents"},{"bufferView":1,"byteOffset":53352,"componentType":5126,"count":24,"type":"VEC3","name":"accessorNormals"},{"bufferView":3,"byteOffset":17688,"componentType":5126,"count":24,"type":"VEC2","name":"accessorUVs"},{"bufferView":0,"byteOffset":13140,"componentType":5123,"count":36,"type":"SCALAR","name":"accessorIndices"},{"bufferView":1,"byteOffset":53640,"componentType":5126,"count":24,"max":[0.8398257,0.025400002,0.0063500484],"min":[6.3589614E-15,-0.02540012,-0.0063500484],"type":"VEC3","name":"accessorPositions"},{"bufferView":2,"byteOffset":35760,"componentType":5126,"count":24,"type":"VEC4","name":"accessorTangents"},{"bufferView":1,"byteOffset":53928,"componentType":5126,"count":24,"type":"VEC3","name":"accessorNormals"},{"bufferView":3,"byteOffset":17880,"componentType":5126,"count":24,"type":"VEC2","name":"accessorUVs"},{"bufferView":0,"byteOffset":13212,"componentType":5123,"count":36,"type":"SCALAR","name":"accessorIndices"},{"bufferView":1,"byteOffset":54216,"componentType":5126,"count":24,"max":[0.83982563,0.025400048,0.0063500004],"min":[6.3589614E-15,-0.02540012,-0.00635003],"type":"VEC3","name":"accessorPositions"},{"bufferView":2,"byteOffset":36144,"componentType":5126,"count":24,"type":"VEC4","name":"accessorTangents"},{"bufferView":1,"byteOffset":54504,"componentType":5126,"count":24,"type":"VEC3","name":"accessorNormals"},{"bufferView":3,"byteOffset":18072,"componentType":5126,"count":24,"type":"VEC2","name":"accessorUVs"},{"bufferView":0,"byteOffset":13284,"componentType":5123,"count":144,"type":"SCALAR","name":"accessorIndices"},{"bufferView":1,"byteOffset":54792,"componentType":5126,"count":96,"max":[1.8935392,3.686544,0.007143598],"min":[-1.8863822,0.19727604,-0.007143598],"type":"VEC3","name":"accessorPositions"},{"bufferView":2,"byteOffset":36528,"componentType":5126,"count":96,"type":"VEC4","name":"accessorTangents"},{"bufferView":1,"byteOffset":55944,"componentType":5126,"count":96,"type":"VEC3","name":"accessorNormals"},{"bufferView":3,"byteOffset":18264,"componentType":5126,"count":96,"type":"VEC2","name":"accessorUVs"},{"bufferView":0,"byteOffset":13572,"componentType":5123,"count":4080,"type":"SCALAR","name":"accessorIndices"},{"bufferView":1,"byteOffset":57096,"componentType":5126,"count":1526,"max":[1.8968263,1.3227077,0.019062791],"min":[-1.8968263,-1.3227078,-0.019062791],"type":"VEC3","name":"accessorPositions"},{"bufferView":2,"byteOffset":38064,"componentType":5126,"count":1526,"type":"VEC4","name":"accessorTangents"},{"bufferView":1,"byteOffset":75408,"componentType":5126,"count":1526,"type":"VEC3","name":"accessorNormals"},{"bufferView":3,"byteOffset":19032,"componentType":5126,"count":1526,"type":"VEC2","name":"accessorUVs"},{"bufferView":0,"byteOffset":21732,"componentType":5123,"count":738,"type":"SCALAR","name":"accessorIndices"},{"bufferView":1,"byteOffset":93720,"componentType":5126,"count":252,"max":[1.8968263,1.3227077,0.019062791],"min":[-1.8968263,-1.3227075,-0.019062791],"type":"VEC3","name":"accessorPositions"},{"bufferView":2,"byteOffset":62480,"componentType":5126,"count":252,"type":"VEC4","name":"accessorTangents"},{"bufferView":1,"byteOffset":96744,"componentType":5126,"count":252,"type":"VEC3","name":"accessorNormals"},{"bufferView":3,"byteOffset":31240,"componentType":5126,"count":252,"type":"VEC2","name":"accessorUVs"}],"bufferViews":[{"buffer":0,"byteLength":23208,"name":"bufferViewScalar"},{"buffer":0,"byteOffset":23208,"byteLength":99768,"byteStride":12,"name":"bufferViewFloatVec3"},{"buffer":0,"byteOffset":122976,"byteLength":66512,"byteStride":16,"name":"bufferViewFloatVec4"},{"buffer":0,"byteOffset":189488,"byteLength":33256,"byteStride":8,"name":"bufferViewFloatVec2"}],"buffers":[{"uri":"Straight_Railing_Kubit.bin","byteLength":222744}],"materials":[{"pbrMetallicRoughness":{"baseColorFactor":[0.9999998,0.9999999,0.9999999,1.0],"baseColorTexture":{"index":0,"extensions":{"KHR_texture_transform":{"offset":[0.19519997,0.8048],"rotation":1.5707964,"scale":[0.6096,0.6096],"texCoord":0}}},"roughnessFactor":0.2,"metallicRoughnessTexture":{"index":0,"extensions":{"KHR_texture_transform":{"offset":[0.19519997,0.8048],"rotation":1.5707964,"scale":[0.6096,0.6096],"texCoord":0}}}},"name":"Steel_Linear"},{"pbrMetallicRoughness":{"baseColorFactor":[0.9999998,0.9999999,0.9999999,1.0],"baseColorTexture":{"index":1},"roughnessFactor":0.2,"metallicRoughnessTexture":{"index":1}},"name":"Steel_Radial"},{"pbrMetallicRoughness":{"baseColorFactor":[0.10641303,0.10641304,0.10641304,1.0],"metallicFactor":0.0,"roughnessFactor":0.99,"metallicRoughnessTexture":{"index":2}},"name":"Rubber","extensions":{"KHR_materials_specular":{"specularFactor":0.1}}},{"pbrMetallicRoughness":{"baseColorFactor":[0.9999998,0.9999999,0.9999999,1.0],"metallicFactor":0.0,"roughnessFactor":0.1},"name":"Glass","extensions":{"KHR_materials_ior":{"ior":1.0},"KHR_materials_transmission":{"transmissionFactor":0.97},"KHR_materials_volume":{"thicknessFactor":0.56,"attenuationDistance":0.5,"attenuationColor":[0.49521634,0.56476736,0.5317566]}}}],"textures":[{"sampler":0,"source":0,"name":"Metal_Brushed_Linear_4k.jpg"},{"sampler":0,"source":1,"name":"Metal_Brushed_Radial_4k.jpg"},{"sampler":0,"source":2,"name":"PowderCoat_Roughness_2k0.jpg"}],"images":[{"uri":"textures/Metal_Brushed_Linear_4k.jpg"},{"uri":"textures/Metal_Brushed_Radial_4k.jpg"},{"uri":"textures/PowderCoat_Roughness_2k0.jpg"}],"samplers":[{"magFilter":9729,"minFilter":9987}]}