{"asset":{"version":"2.0","generator":"babylon.js glTF exporter for 3dsmax 2026 v20251111.2"},"scene":0,"scenes":[{"nodes":[0,1,2,3,4,5,6,7,8,9,10,11,12,13,14,15,16,17,18,19,20,21,22,23,24,25,26,27,28,29,30,31,32,33,34,35,36,37,38,39,40,41,42,43,44,45,46,47,48,49,50,51,52,53,54,55,56,57,58,59,60,61,62,63,64,65,66,67,68,69,70,71,72,73,74,75,76,77,78,79,80,81,82,83,84,85,86,87,88,89,90,91,92,93,94,95,96,97,98,99,100,101,102,103,104,105,106,107,108,109,110,111,112,113,114,115,116,117,118,119,120,121,122,123,124,125,126,127,128,129,130,131,132,133,134,135,136,137,138,139,140,141,142,143,144,145,146,147,148,149,150,151,152,153,154,155,156,157,158,159,160,161,162,163,164,165,166,167,168,169,170,171,172,173,174,175,176,177,178,179,180,181,182,183,184,185,186,187,188,189,190,191,192,193,194,195,196,197,198,199,200,201,202,203,204,205,206,207,208,209,210,211,212,213,214,215,216,217,218,219,220,221,222,223,224,225,226,227,228,229,230,231,232,233,234,235,236,237,238,239,240,241,242,243,244,245]}],"nodes":[{"mesh":0,"translation":[-1.5014541,1.4615619,-0.023394711],"rotation":[-0.0,-0.7071068,0.0,0.7071067],"name":"VSQ022 - Versa Square Post Omaha Cap Part [8420509]002"},{"mesh":0,"translation":[-2.0972955,1.0523511,-0.023394711],"rotation":[-0.0,-0.7071068,0.0,0.7071067],"name":"VSQ022 - Versa Square Post Omaha Cap Part [8420509]003"},{"mesh":0,"translation":[1.4922433,3.5168624,-0.023682276],"rotation":[-0.0,-0.7071068,0.0,0.7071067],"name":"VSQ022 - Versa Square Post Omaha Cap Part [8420509]004"},{"mesh":0,"translation":[0.8957936,3.1075416,-0.023682276],"rotation":[-0.0,-0.7071068,0.0,0.7071067],"name":"VSQ022 - Versa Square Post Omaha Cap Part [8420509]005"},{"mesh":0,"translation":[0.096367955,2.5589013,-0.023682276],"rotation":[-0.0,-0.7071068,0.0,0.7071067],"name":"VSQ022 - Versa Square Post Omaha Cap Part [8420509]007"},{"mesh":0,"translation":[1.4922433,3.5168624,-1.0777831],"rotation":[-0.0,0.7071068,0.0,0.7071067],"name":"VSQ022 - Versa Square Post Omaha Cap Part [8420509]008"},{"mesh":0,"translation":[0.8957936,3.1075416,-1.0777831],"rotation":[-0.0,0.7071068,0.0,0.7071067],"name":"VSQ022 - Versa Square Post Omaha Cap Part [8420509]009"},{"mesh":0,"translation":[0.096367955,2.5589013,-1.0777831],"rotation":[-0.0,0.7071068,0.0,0.7071067],"name":"VSQ022 - Versa Square Post Omaha Cap Part [8420509]011"},{"mesh":0,"translation":[-1.5014541,1.4615619,-1.0774955],"rotation":[-0.0,0.7071066,0.0,0.70710695],"name":"VSQ022 - Versa Square Post Omaha Cap Part [8420509]017"},{"mesh":0,"translation":[-2.0972955,1.0523511,-1.0774956],"rotation":[-0.0,0.7071066,0.0,0.70710695],"name":"VSQ022 - Versa Square Post Omaha Cap Part [8420509]018"},{"mesh":0,"translation":[-0.7029424,2.010202,-0.023394711],"rotation":[-0.0,-0.7071068,0.0,0.7071067],"name":"VSQ022 - Versa Square Post Omaha Cap Part [8420509]019"},{"mesh":0,"translation":[-0.7029424,2.010202,-1.0774955],"rotation":[-0.0,0.7071066,0.0,0.70710695],"name":"VSQ022 - Versa Square Post Omaha Cap Part [8420509]020"},{"mesh":1,"translation":[-1.5014541,0.5485299,-0.023394711],"rotation":[-0.49999994,-0.50000006,0.5,0.5],"scale":[1.0,0.99999994,0.99999994],"name":"LSXXX & LSXXX - Versa Square Post Material LS Material [8420510]"},{"mesh":1,"translation":[-0.7029424,1.0971699,-0.023394711],"rotation":[-0.49999994,-0.50000006,0.5,0.5],"scale":[1.0,0.99999994,0.99999994],"name":"LSXXX & LSXXX - Versa Square Post Material LS Material [8420510]001"},{"mesh":2,"translation":[-2.0972955,0.18288001,-0.023394711],"rotation":[-0.49999994,-0.50000006,0.5,0.5],"scale":[1.0,0.99999994,0.99999994],"name":"LSXXX & LSXXX - Versa Square Post Material LS Material [8420521]"},{"mesh":3,"translation":[-1.5014541,1.4647118,-0.023394711],"rotation":[-0.0,0.7071067,0.0,0.7071068],"name":"Bent Stem_026"},{"mesh":3,"translation":[-2.0972955,1.0555007,-0.023394711],"rotation":[-0.0,0.7071067,0.0,0.7071068],"name":"Bent Stem_027"},{"mesh":3,"translation":[1.4922433,3.520012,-0.023682276],"rotation":[-0.0,0.7071067,0.0,0.7071068],"name":"Bent Stem_028"},{"mesh":3,"translation":[0.8957936,3.110691,-0.023682276],"rotation":[-0.0,0.7071067,0.0,0.7071068],"name":"Bent Stem_029"},{"mesh":3,"translation":[0.096367955,2.5620508,-0.023682276],"rotation":[-0.0,0.7071067,0.0,0.7071068],"name":"Bent Stem_031"},{"mesh":3,"translation":[1.4922433,3.520012,-1.0777831],"rotation":[-0.0,0.7071068,0.0,0.7071067],"name":"Bent Stem_032"},{"mesh":3,"translation":[0.8957936,3.110691,-1.0777831],"rotation":[-0.0,0.7071068,0.0,0.7071067],"name":"Bent Stem_033"},{"mesh":3,"translation":[0.096367955,2.5620508,-1.0777831],"rotation":[-0.0,0.7071068,0.0,0.7071067],"name":"Bent Stem_035"},{"mesh":3,"translation":[-1.5014541,1.4647118,-1.0774955],"rotation":[-0.0,0.7071066,0.0,0.70710695],"name":"Bent Stem_036"},{"mesh":3,"translation":[-2.0972955,1.0555007,-1.0774956],"rotation":[-0.0,0.7071066,0.0,0.70710695],"name":"Bent Stem_037"},{"mesh":3,"translation":[-0.7029424,2.0133517,-0.023394711],"rotation":[-0.0,0.7071067,0.0,0.7071068],"name":"Bent Stem_042"},{"mesh":3,"translation":[-0.7029424,2.0133517,-1.0774955],"rotation":[-0.0,0.7071066,0.0,0.70710695],"name":"Bent Stem_043"},{"mesh":4,"translation":[-1.5350195,1.5401752,-0.023394711],"rotation":[-0.62566584,0.32945755,-0.32945758,0.6256658],"name":"VSQ057 - Top Rail Saddle Part [8420939]001"},{"mesh":4,"translation":[-2.130861,1.1309643,-0.023394711],"rotation":[-0.62566584,0.32945755,-0.32945758,0.6256658],"name":"VSQ057 - Top Rail Saddle Part [8420939]002"},{"mesh":4,"translation":[1.4586802,3.5954757,-0.023682276],"rotation":[-0.62566584,0.32945764,-0.32945758,0.6256658],"name":"VSQ057 - Top Rail Saddle Part [8420939]004"},{"mesh":4,"translation":[0.8622282,3.1861544,-0.023682276],"rotation":[-0.62566584,0.32945764,-0.32945758,0.6256658],"name":"VSQ057 - Top Rail Saddle Part [8420939]005"},{"mesh":4,"translation":[0.062804885,2.6375146,-0.023682276],"rotation":[-0.62566584,0.32945764,-0.32945758,0.6256658],"name":"VSQ057 - Top Rail Saddle Part [8420939]007"},{"mesh":4,"translation":[1.4586802,3.5954757,-1.0777831],"rotation":[0.6256658,-0.3294576,-0.32945758,0.6256658],"name":"VSQ057 - Top Rail Saddle Part [8420939]008"},{"mesh":4,"translation":[0.8622282,3.1861544,-1.0777831],"rotation":[0.6256658,-0.3294576,-0.32945758,0.6256658],"name":"VSQ057 - Top Rail Saddle Part [8420939]009"},{"mesh":4,"translation":[0.062804885,2.6375146,-1.0777831],"rotation":[0.6256658,-0.3294576,-0.32945758,0.6256658],"name":"VSQ057 - Top Rail Saddle Part [8420939]011"},{"mesh":4,"translation":[-1.5350195,1.5401752,-1.0774955],"rotation":[0.62566584,-0.32945758,-0.32945758,0.62566584],"name":"VSQ057 - Top Rail Saddle Part [8420939]012"},{"mesh":4,"translation":[-2.130861,1.1309643,-1.0774956],"rotation":[0.62566584,-0.32945758,-0.32945758,0.62566584],"name":"VSQ057 - Top Rail Saddle Part [8420939]013"},{"mesh":4,"translation":[-0.7365077,2.0888152,-0.023394711],"rotation":[-0.62566584,0.32945755,-0.32945758,0.6256658],"name":"VSQ057 - Top Rail Saddle Part [8420939]014"},{"mesh":4,"translation":[-0.7365077,2.0888152,-1.0774955],"rotation":[0.62566584,-0.32945758,-0.32945758,0.62566584],"name":"VSQ057 - Top Rail Saddle Part [8420939]015"},{"mesh":5,"translation":[-1.4885945,1.5342491,-0.023394711],"rotation":[-0.3294577,-0.62566584,0.6256658,0.32945767],"name":"HW92485A634 - #10 x 1l2 Philips FH Thread Cutting Type F Hardware [8420940]001"},{"mesh":5,"translation":[-1.5461863,1.494726,-0.023394711],"rotation":[-0.3294577,-0.62566584,0.6256658,0.32945767],"name":"HW92485A634 - #10 x 1l2 Philips FH Thread Cutting Type F Hardware [8420940]002"},{"mesh":5,"translation":[-2.084436,1.1250383,-0.023394711],"rotation":[-0.3294577,-0.62566584,0.6256658,0.32945767],"name":"HW92485A634 - #10 x 1l2 Philips FH Thread Cutting Type F Hardware [8420940]003"},{"mesh":5,"translation":[-2.1420276,1.0855149,-0.023394711],"rotation":[-0.3294577,-0.62566584,0.6256658,0.32945767],"name":"HW92485A634 - #10 x 1l2 Philips FH Thread Cutting Type F Hardware [8420940]004"},{"mesh":5,"translation":[0.12825671,1.8190463,-0.023682276],"rotation":[-3.0908634E-08,0.7071067,0.7071068,3.0908605E-08],"name":"HW92485A634 - #10 x 1l2 Philips FH Thread Cutting Type F Hardware [8420940]007"},{"mesh":5,"translation":[0.12825671,2.1713328,-0.023682276],"rotation":[-3.0908634E-08,0.7071067,0.7071068,3.0908605E-08],"name":"HW92485A634 - #10 x 1l2 Philips FH Thread Cutting Type F Hardware [8420940]008"},{"mesh":5,"translation":[0.12825671,2.5236192,-0.023682276],"rotation":[-3.0908634E-08,0.7071067,0.7071068,3.0908605E-08],"name":"HW92485A634 - #10 x 1l2 Philips FH Thread Cutting Type F Hardware [8420940]009"},{"mesh":5,"translation":[0.86525357,2.3248122,-0.023682276],"rotation":[-0.7071068,1.3122452E-14,-1.31224496E-14,0.7071067],"name":"HW92485A634 - #10 x 1l2 Philips FH Thread Cutting Type F Hardware [8420940]010"},{"mesh":5,"translation":[0.86525357,2.6770988,-0.023682276],"rotation":[-0.7071068,1.3132638E-14,-1.3132635E-14,0.7071067],"name":"HW92485A634 - #10 x 1l2 Philips FH Thread Cutting Type F Hardware [8420940]011"},{"mesh":5,"translation":[0.86525357,3.029385,-0.023682276],"rotation":[-0.7071068,1.3122638E-14,-1.3122635E-14,0.7071067],"name":"HW92485A634 - #10 x 1l2 Philips FH Thread Cutting Type F Hardware [8420940]012"},{"mesh":5,"translation":[0.92768234,2.367689,-0.023682276],"rotation":[-3.0908634E-08,0.7071067,0.7071068,3.0908605E-08],"name":"HW92485A634 - #10 x 1l2 Philips FH Thread Cutting Type F Hardware [8420940]013"},{"mesh":5,"translation":[0.92768234,2.7199752,-0.023682276],"rotation":[-3.0908634E-08,0.7071067,0.7071068,3.0908605E-08],"name":"HW92485A634 - #10 x 1l2 Philips FH Thread Cutting Type F Hardware [8420940]014"},{"mesh":5,"translation":[0.92768234,3.0722618,-0.023682276],"rotation":[-3.0908634E-08,0.7071067,0.7071068,3.0908605E-08],"name":"HW92485A634 - #10 x 1l2 Philips FH Thread Cutting Type F Hardware [8420940]015"},{"mesh":5,"translation":[1.4603544,2.7332368,-0.023682276],"rotation":[-0.7071068,1.3122452E-14,-1.31224496E-14,0.7071067],"name":"HW92485A634 - #10 x 1l2 Philips FH Thread Cutting Type F Hardware [8420940]016"},{"mesh":5,"translation":[1.4603544,3.0855234,-0.023682276],"rotation":[-0.7071068,1.3132638E-14,-1.3132635E-14,0.7071067],"name":"HW92485A634 - #10 x 1l2 Philips FH Thread Cutting Type F Hardware [8420940]017"},{"mesh":5,"translation":[1.4603544,3.43781,-0.023682276],"rotation":[-0.7071068,1.3122638E-14,-1.3122635E-14,0.7071067],"name":"HW92485A634 - #10 x 1l2 Philips FH Thread Cutting Type F Hardware [8420940]018"},{"mesh":5,"translation":[-1.4695654,0.7221406,-0.023394711],"rotation":[-3.0908634E-08,0.7071067,0.7071068,3.0908605E-08],"name":"HW92485A634 - #10 x 1l2 Philips FH Thread Cutting Type F Hardware [8420940]019"},{"mesh":5,"translation":[-1.4695654,1.0744303,-0.023394711],"rotation":[-3.0908634E-08,0.7071067,0.7071068,3.0908605E-08],"name":"HW92485A634 - #10 x 1l2 Philips FH Thread Cutting Type F Hardware [8420940]020"},{"mesh":5,"translation":[-1.4695654,1.4267199,-0.023394711],"rotation":[-3.0908634E-08,0.7071067,0.7071068,3.0908605E-08],"name":"HW92485A634 - #10 x 1l2 Philips FH Thread Cutting Type F Hardware [8420940]021"},{"mesh":5,"translation":[-2.0654068,0.31286153,-0.023394711],"rotation":[-3.0908634E-08,0.7071067,0.7071068,3.0908605E-08],"name":"HW92485A634 - #10 x 1l2 Philips FH Thread Cutting Type F Hardware [8420940]025"},{"mesh":5,"translation":[-2.0654068,0.6651511,-0.023394711],"rotation":[-3.0908634E-08,0.7071067,0.7071068,3.0908605E-08],"name":"HW92485A634 - #10 x 1l2 Philips FH Thread Cutting Type F Hardware [8420940]026"},{"mesh":5,"translation":[-2.0654068,1.0174408,-0.023394711],"rotation":[-3.0908634E-08,0.7071067,0.7071068,3.0908605E-08],"name":"HW92485A634 - #10 x 1l2 Philips FH Thread Cutting Type F Hardware [8420940]027"},{"mesh":5,"translation":[-1.533343,0.6776627,-0.023394711],"rotation":[-0.7071068,-6.181722E-08,-6.181726E-08,0.7071067],"name":"HW92485A634 - #10 x 1l2 Philips FH Thread Cutting Type F Hardware [8420940]028"},{"mesh":5,"translation":[-1.533343,1.0299522,-0.023394711],"rotation":[-0.7071068,-6.181722E-08,-6.181726E-08,0.7071067],"name":"HW92485A634 - #10 x 1l2 Philips FH Thread Cutting Type F Hardware [8420940]029"},{"mesh":5,"translation":[-1.533343,1.3822418,-0.023394711],"rotation":[-0.7071068,-6.181722E-08,-6.181726E-08,0.7071067],"name":"HW92485A634 - #10 x 1l2 Philips FH Thread Cutting Type F Hardware [8420940]030"},{"mesh":5,"translation":[1.5051029,3.5895495,-0.023682276],"rotation":[-0.32945758,-0.6256659,0.6256658,0.32945752],"name":"HW92485A634 - #10 x 1l2 Philips FH Thread Cutting Type F Hardware [8420940]031"},{"mesh":5,"translation":[1.4475111,3.5500262,-0.023682276],"rotation":[-0.32945758,-0.6256659,0.6256658,0.32945752],"name":"HW92485A634 - #10 x 1l2 Philips FH Thread Cutting Type F Hardware [8420940]032"},{"mesh":5,"translation":[0.90865326,3.1802282,-0.023682276],"rotation":[-0.32945758,-0.6256659,0.6256658,0.32945752],"name":"HW92485A634 - #10 x 1l2 Philips FH Thread Cutting Type F Hardware [8420940]033"},{"mesh":5,"translation":[0.85106146,3.140705,-0.023682276],"rotation":[-0.32945758,-0.6256659,0.6256658,0.32945752],"name":"HW92485A634 - #10 x 1l2 Philips FH Thread Cutting Type F Hardware [8420940]034"},{"mesh":5,"translation":[0.109227635,2.6315885,-0.023682276],"rotation":[-0.32945758,-0.6256659,0.6256658,0.32945752],"name":"HW92485A634 - #10 x 1l2 Philips FH Thread Cutting Type F Hardware [8420940]037"},{"mesh":5,"translation":[0.0516358,2.592065,-0.023682276],"rotation":[-0.32945758,-0.6256659,0.6256658,0.32945752],"name":"HW92485A634 - #10 x 1l2 Philips FH Thread Cutting Type F Hardware [8420940]038"},{"mesh":5,"translation":[0.0644792,1.7752608,-0.023682276],"rotation":[-0.7071068,1.3122452E-14,-1.31224496E-14,0.7071067],"name":"HW92485A634 - #10 x 1l2 Philips FH Thread Cutting Type F Hardware [8420940]042"},{"mesh":5,"translation":[0.0644792,2.1275473,-0.023682276],"rotation":[-0.7071068,1.3132638E-14,-1.3132635E-14,0.7071067],"name":"HW92485A634 - #10 x 1l2 Philips FH Thread Cutting Type F Hardware [8420940]043"},{"mesh":5,"translation":[0.0644792,2.4798338,-0.023682276],"rotation":[-0.7071068,1.3122638E-14,-1.3122635E-14,0.7071067],"name":"HW92485A634 - #10 x 1l2 Philips FH Thread Cutting Type F Hardware [8420940]044"},{"mesh":5,"translation":[1.5051029,3.5895495,-1.0777831],"rotation":[0.32945755,0.62566584,0.62566584,0.32945758],"name":"HW92485A634 - #10 x 1l2 Philips FH Thread Cutting Type F Hardware [8420940]045"},{"mesh":5,"translation":[1.4475111,3.5500262,-1.0777831],"rotation":[0.32945755,0.62566584,0.62566584,0.32945758],"name":"HW92485A634 - #10 x 1l2 Philips FH Thread Cutting Type F Hardware [8420940]046"},{"mesh":5,"translation":[0.90865326,3.1802282,-1.0777831],"rotation":[0.32945755,0.62566584,0.62566584,0.32945758],"name":"HW92485A634 - #10 x 1l2 Philips FH Thread Cutting Type F Hardware [8420940]047"},{"mesh":5,"translation":[0.85106146,3.140705,-1.0777831],"rotation":[0.32945755,0.62566584,0.62566584,0.32945758],"name":"HW92485A634 - #10 x 1l2 Philips FH Thread Cutting Type F Hardware [8420940]048"},{"mesh":5,"translation":[0.109227635,2.6315885,-1.0777831],"rotation":[0.32945755,0.62566584,0.62566584,0.32945758],"name":"HW92485A634 - #10 x 1l2 Philips FH Thread Cutting Type F Hardware [8420940]049"},{"mesh":5,"translation":[0.0516358,2.592065,-1.0777831],"rotation":[0.32945755,0.62566584,0.62566584,0.32945758],"name":"HW92485A634 - #10 x 1l2 Philips FH Thread Cutting Type F Hardware [8420940]050"},{"mesh":5,"translation":[-2.084436,1.1250383,-1.0774956],"rotation":[0.32945764,0.6256657,0.6256659,0.32945776],"name":"HW92485A634 - #10 x 1l2 Philips FH Thread Cutting Type F Hardware [8420940]051"},{"mesh":5,"translation":[-2.1420276,1.0855149,-1.0774956],"rotation":[0.32945764,0.6256657,0.6256659,0.32945776],"name":"HW92485A634 - #10 x 1l2 Philips FH Thread Cutting Type F Hardware [8420940]052"},{"mesh":5,"translation":[-1.4885945,1.5342491,-1.0774955],"rotation":[0.32945764,0.6256657,0.6256659,0.32945776],"name":"HW92485A634 - #10 x 1l2 Philips FH Thread Cutting Type F Hardware [8420940]053"},{"mesh":5,"translation":[-1.5461863,1.494726,-1.0774955],"rotation":[0.32945764,0.6256657,0.6256659,0.32945776],"name":"HW92485A634 - #10 x 1l2 Philips FH Thread Cutting Type F Hardware [8420940]054"},{"mesh":5,"translation":[0.12825671,1.8190463,-1.0777831],"rotation":[-3.0908634E-08,0.7071067,0.7071068,3.0908605E-08],"name":"HW92485A634 - #10 x 1l2 Philips FH Thread Cutting Type F Hardware [8420940]069"},{"mesh":5,"translation":[0.12825671,2.1713328,-1.0777831],"rotation":[-3.0908634E-08,0.7071067,0.7071068,3.0908605E-08],"name":"HW92485A634 - #10 x 1l2 Philips FH Thread Cutting Type F Hardware [8420940]070"},{"mesh":5,"translation":[0.12825671,2.5236192,-1.0777831],"rotation":[-3.0908634E-08,0.7071067,0.7071068,3.0908605E-08],"name":"HW92485A634 - #10 x 1l2 Philips FH Thread Cutting Type F Hardware [8420940]071"},{"mesh":5,"translation":[0.86525357,2.3248122,-1.0777831],"rotation":[-0.7071068,1.3122452E-14,-1.31224496E-14,0.7071067],"name":"HW92485A634 - #10 x 1l2 Philips FH Thread Cutting Type F Hardware [8420940]072"},{"mesh":5,"translation":[0.86525357,2.6770988,-1.0777831],"rotation":[-0.7071068,1.3132638E-14,-1.3132635E-14,0.7071067],"name":"HW92485A634 - #10 x 1l2 Philips FH Thread Cutting Type F Hardware [8420940]073"},{"mesh":5,"translation":[0.86525357,3.029385,-1.0777831],"rotation":[-0.7071068,1.3122638E-14,-1.3122635E-14,0.7071067],"name":"HW92485A634 - #10 x 1l2 Philips FH Thread Cutting Type F Hardware [8420940]074"},{"mesh":5,"translation":[0.92768234,2.367689,-1.0777831],"rotation":[-3.0908634E-08,0.7071067,0.7071068,3.0908605E-08],"name":"HW92485A634 - #10 x 1l2 Philips FH Thread Cutting Type F Hardware [8420940]075"},{"mesh":5,"translation":[0.92768234,2.7199752,-1.0777831],"rotation":[-3.0908634E-08,0.7071067,0.7071068,3.0908605E-08],"name":"HW92485A634 - #10 x 1l2 Philips FH Thread Cutting Type F Hardware [8420940]076"},{"mesh":5,"translation":[0.92768234,3.0722618,-1.0777831],"rotation":[-3.0908634E-08,0.7071067,0.7071068,3.0908605E-08],"name":"HW92485A634 - #10 x 1l2 Philips FH Thread Cutting Type F Hardware [8420940]077"},{"mesh":5,"translation":[1.4603544,2.7332368,-1.0777831],"rotation":[-0.7071068,1.3122452E-14,-1.31224496E-14,0.7071067],"name":"HW92485A634 - #10 x 1l2 Philips FH Thread Cutting Type F Hardware [8420940]078"},{"mesh":5,"translation":[1.4603544,3.0855234,-1.0777831],"rotation":[-0.7071068,1.3132638E-14,-1.3132635E-14,0.7071067],"name":"HW92485A634 - #10 x 1l2 Philips FH Thread Cutting Type F Hardware [8420940]079"},{"mesh":5,"translation":[1.4603544,3.43781,-1.0777831],"rotation":[-0.7071068,1.3122638E-14,-1.3122635E-14,0.7071067],"name":"HW92485A634 - #10 x 1l2 Philips FH Thread Cutting Type F Hardware [8420940]080"},{"mesh":5,"translation":[0.0644792,1.7752608,-1.0777831],"rotation":[-0.7071068,1.3122452E-14,-1.31224496E-14,0.7071067],"name":"HW92485A634 - #10 x 1l2 Philips FH Thread Cutting Type F Hardware [8420940]084"},{"mesh":5,"translation":[0.0644792,2.1275473,-1.0777831],"rotation":[-0.7071068,1.3132638E-14,-1.3132635E-14,0.7071067],"name":"HW92485A634 - #10 x 1l2 Philips FH Thread Cutting Type F Hardware [8420940]085"},{"mesh":5,"translation":[0.0644792,2.4798338,-1.0777831],"rotation":[-0.7071068,1.3122638E-14,-1.3122635E-14,0.7071067],"name":"HW92485A634 - #10 x 1l2 Philips FH Thread Cutting Type F Hardware [8420940]086"},{"mesh":5,"translation":[-1.4695654,0.7221406,-1.0774955],"rotation":[-3.0908634E-08,0.7071067,0.7071068,3.0908605E-08],"name":"HW92485A634 - #10 x 1l2 Philips FH Thread Cutting Type F Hardware [8420940]087"},{"mesh":5,"translation":[-1.4695654,1.0744303,-1.0774955],"rotation":[-3.0908634E-08,0.7071067,0.7071068,3.0908605E-08],"name":"HW92485A634 - #10 x 1l2 Philips FH Thread Cutting Type F Hardware [8420940]088"},{"mesh":5,"translation":[-1.4695654,1.4267199,-1.0774955],"rotation":[-3.0908634E-08,0.7071067,0.7071068,3.0908605E-08],"name":"HW92485A634 - #10 x 1l2 Philips FH Thread Cutting Type F Hardware [8420940]089"},{"mesh":5,"translation":[-2.0654068,0.31286153,-1.0774956],"rotation":[-3.0908634E-08,0.7071067,0.7071068,3.0908605E-08],"name":"HW92485A634 - #10 x 1l2 Philips FH Thread Cutting Type F Hardware [8420940]093"},{"mesh":5,"translation":[-2.0654068,0.6651511,-1.0774956],"rotation":[-3.0908634E-08,0.7071067,0.7071068,3.0908605E-08],"name":"HW92485A634 - #10 x 1l2 Philips FH Thread Cutting Type F Hardware [8420940]094"},{"mesh":5,"translation":[-2.0654068,1.0174408,-1.0774956],"rotation":[-3.0908634E-08,0.7071067,0.7071068,3.0908605E-08],"name":"HW92485A634 - #10 x 1l2 Philips FH Thread Cutting Type F Hardware [8420940]095"},{"mesh":5,"translation":[-1.533343,0.6776627,-1.0774955],"rotation":[-0.7071068,-6.181722E-08,-6.181726E-08,0.7071067],"name":"HW92485A634 - #10 x 1l2 Philips FH Thread Cutting Type F Hardware [8420940]096"},{"mesh":5,"translation":[-1.533343,1.0299522,-1.0774955],"rotation":[-0.7071068,-6.181722E-08,-6.181726E-08,0.7071067],"name":"HW92485A634 - #10 x 1l2 Philips FH Thread Cutting Type F Hardware [8420940]097"},{"mesh":5,"translation":[-1.533343,1.3822418,-1.0774955],"rotation":[-0.7071068,-6.181722E-08,-6.181726E-08,0.7071067],"name":"HW92485A634 - #10 x 1l2 Philips FH Thread Cutting Type F Hardware [8420940]098"},{"mesh":5,"translation":[-0.69008267,2.082889,-0.023394711],"rotation":[-0.3294577,-0.62566584,0.6256658,0.32945767],"name":"HW92485A634 - #10 x 1l2 Philips FH Thread Cutting Type F Hardware [8420940]099"},{"mesh":5,"translation":[-0.7476745,2.043366,-0.023394711],"rotation":[-0.3294577,-0.62566584,0.6256658,0.32945767],"name":"HW92485A634 - #10 x 1l2 Philips FH Thread Cutting Type F Hardware [8420940]100"},{"mesh":5,"translation":[-0.6710536,1.2707806,-0.023394711],"rotation":[-3.0908634E-08,0.7071067,0.7071068,3.0908605E-08],"name":"HW92485A634 - #10 x 1l2 Philips FH Thread Cutting Type F Hardware [8420940]101"},{"mesh":5,"translation":[-0.6710536,1.6230701,-0.023394711],"rotation":[-3.0908634E-08,0.7071067,0.7071068,3.0908605E-08],"name":"HW92485A634 - #10 x 1l2 Philips FH Thread Cutting Type F Hardware [8420940]102"},{"mesh":5,"translation":[-0.6710536,1.9753598,-0.023394711],"rotation":[-3.0908634E-08,0.7071067,0.7071068,3.0908605E-08],"name":"HW92485A634 - #10 x 1l2 Philips FH Thread Cutting Type F Hardware [8420940]103"},{"mesh":5,"translation":[-0.7348311,1.2263025,-0.023394711],"rotation":[-0.7071068,-6.181722E-08,-6.181726E-08,0.7071067],"name":"HW92485A634 - #10 x 1l2 Philips FH Thread Cutting Type F Hardware [8420940]104"},{"mesh":5,"translation":[-0.7348311,1.5785921,-0.023394711],"rotation":[-0.7071068,-6.181722E-08,-6.181726E-08,0.7071067],"name":"HW92485A634 - #10 x 1l2 Philips FH Thread Cutting Type F Hardware [8420940]105"},{"mesh":5,"translation":[-0.7348311,1.9308817,-0.023394711],"rotation":[-0.7071068,-6.181722E-08,-6.181726E-08,0.7071067],"name":"HW92485A634 - #10 x 1l2 Philips FH Thread Cutting Type F Hardware [8420940]106"},{"mesh":5,"translation":[-0.69008267,2.082889,-1.0774955],"rotation":[0.32945764,0.6256657,0.6256659,0.32945776],"name":"HW92485A634 - #10 x 1l2 Philips FH Thread Cutting Type F Hardware [8420940]107"},{"mesh":5,"translation":[-0.7476745,2.043366,-1.0774955],"rotation":[0.32945764,0.6256657,0.6256659,0.32945776],"name":"HW92485A634 - #10 x 1l2 Philips FH Thread Cutting Type F Hardware [8420940]108"},{"mesh":5,"translation":[-0.6710536,1.2707806,-1.0774955],"rotation":[-3.0908634E-08,0.7071067,0.7071068,3.0908605E-08],"name":"HW92485A634 - #10 x 1l2 Philips FH Thread Cutting Type F Hardware [8420940]109"},{"mesh":5,"translation":[-0.6710536,1.6230701,-1.0774955],"rotation":[-3.0908634E-08,0.7071067,0.7071068,3.0908605E-08],"name":"HW92485A634 - #10 x 1l2 Philips FH Thread Cutting Type F Hardware [8420940]110"},{"mesh":5,"translation":[-0.6710536,1.9753598,-1.0774955],"rotation":[-3.0908634E-08,0.7071067,0.7071068,3.0908605E-08],"name":"HW92485A634 - #10 x 1l2 Philips FH Thread Cutting Type F Hardware [8420940]111"},{"mesh":5,"translation":[-0.7348311,1.2263025,-1.0774955],"rotation":[-0.7071068,-6.181722E-08,-6.181726E-08,0.7071067],"name":"HW92485A634 - #10 x 1l2 Philips FH Thread Cutting Type F Hardware [8420940]112"},{"mesh":5,"translation":[-0.7348311,1.5785921,-1.0774955],"rotation":[-0.7071068,-6.181722E-08,-6.181726E-08,0.7071067],"name":"HW92485A634 - #10 x 1l2 Philips FH Thread Cutting Type F Hardware [8420940]113"},{"mesh":5,"translation":[-0.7348311,1.9308817,-1.0774955],"rotation":[-0.7071068,-6.181722E-08,-6.181726E-08,0.7071067],"name":"HW92485A634 - #10 x 1l2 Philips FH Thread Cutting Type F Hardware [8420940]114"},{"mesh":6,"translation":[-1.5014541,0.5485299,-0.023394711],"rotation":[-0.0,-0.7071068,0.0,0.7071067],"name":"CSQ001-US - Surface Mount Weldment Part [8729241]021"},{"mesh":6,"translation":[-2.0972955,0.18288001,-0.023394711],"rotation":[-0.0,-0.7071068,0.0,0.7071067],"name":"CSQ001-US - Surface Mount Weldment Part [8729241]022"},{"mesh":6,"translation":[1.4922433,2.56032,-0.023682276],"rotation":[-0.0,-0.7071068,0.0,0.7071067],"name":"CSQ001-US - Surface Mount Weldment Part [8729241]023"},{"mesh":6,"translation":[0.8957936,2.19456,-0.023682276],"rotation":[-0.0,-0.7071068,0.0,0.7071067],"name":"CSQ001-US - Surface Mount Weldment Part [8729241]024"},{"mesh":6,"translation":[0.096367955,1.64592,-0.023682276],"rotation":[-0.0,-0.7071068,0.0,0.7071067],"name":"CSQ001-US - Surface Mount Weldment Part [8729241]026"},{"mesh":6,"translation":[1.4922433,2.56032,-1.0777831],"rotation":[-0.0,0.7071068,0.0,0.7071067],"name":"CSQ001-US - Surface Mount Weldment Part [8729241]027"},{"mesh":6,"translation":[0.8957936,2.19456,-1.0777831],"rotation":[-0.0,0.7071068,0.0,0.7071067],"name":"CSQ001-US - Surface Mount Weldment Part [8729241]028"},{"mesh":6,"translation":[0.096367955,1.64592,-1.0777831],"rotation":[-0.0,0.7071068,0.0,0.7071067],"name":"CSQ001-US - Surface Mount Weldment Part [8729241]029"},{"mesh":6,"translation":[-2.0972955,0.18288001,-1.0774956],"rotation":[-0.0,0.7071066,0.0,0.70710695],"name":"CSQ001-US - Surface Mount Weldment Part [8729241]030"},{"mesh":6,"translation":[-1.5014541,0.5485299,-1.0774955],"rotation":[-0.0,0.7071066,0.0,0.70710695],"name":"CSQ001-US - Surface Mount Weldment Part [8729241]031"},{"mesh":6,"translation":[-0.7029424,1.0971699,-0.023394711],"rotation":[-0.0,-0.7071068,0.0,0.7071067],"name":"CSQ001-US - Surface Mount Weldment Part [8729241]032"},{"mesh":6,"translation":[-0.7029424,1.0971699,-1.0774955],"rotation":[-0.0,0.7071066,0.0,0.70710695],"name":"CSQ001-US - Surface Mount Weldment Part [8729241]033"},{"mesh":7,"translation":[28.894718,0.0,27.28066],"name":"Generic Models 5 Generic Models 3 [8422645]"},{"mesh":7,"translation":[28.894718,0.0,26.226849],"name":"Generic Models 5 Generic Models 3 [8422645]001"},{"mesh":8,"translation":[0.21121909,2.0686288,-0.023682276],"name":"Versa_Midrail_Single Generic [8424667]"},{"mesh":8,"translation":[0.21121909,1.9622047,-0.023682276],"name":"Versa_Midrail_Single Generic [8424668]"},{"mesh":8,"translation":[0.21121909,1.8557805,-0.023682276],"name":"Versa_Midrail_Single Generic [8424669]"},{"mesh":8,"translation":[0.21121909,2.600749,-0.023682276],"name":"Versa_Midrail_Single Generic [8424670]"},{"mesh":8,"translation":[0.21121909,2.281477,-0.023682276],"name":"Versa_Midrail_Single Generic [8424671]"},{"mesh":8,"translation":[0.21121909,2.175053,-0.023682276],"name":"Versa_Midrail_Single Generic [8424672]"},{"mesh":8,"translation":[0.21121909,2.4943252,-0.023682276],"name":"Versa_Midrail_Single Generic [8424673]"},{"mesh":8,"translation":[0.21121909,2.387901,-0.023682276],"name":"Versa_Midrail_Single Generic [8425767]"},{"mesh":8,"translation":[0.21121909,2.0686288,-1.0777831],"name":"Versa_Midrail_Single Generic [8729829]"},{"mesh":8,"translation":[0.21121909,1.9622047,-1.0777831],"name":"Versa_Midrail_Single Generic [8729830]"},{"mesh":8,"translation":[0.21121909,1.8557805,-1.0777831],"name":"Versa_Midrail_Single Generic [8729831]"},{"mesh":8,"translation":[0.21121909,2.600749,-1.0777831],"name":"Versa_Midrail_Single Generic [8729832]"},{"mesh":8,"translation":[0.21121909,2.281477,-1.0777831],"name":"Versa_Midrail_Single Generic [8729833]"},{"mesh":8,"translation":[0.21121909,2.175053,-1.0777831],"name":"Versa_Midrail_Single Generic [8729834]"},{"mesh":8,"translation":[0.21121909,2.4943252,-1.0777831],"name":"Versa_Midrail_Single Generic [8729835]"},{"mesh":8,"translation":[0.21121909,2.387901,-1.0777831],"name":"Versa_Midrail_Single Generic [8729846]"},{"mesh":9,"translation":[0.12508248,1.7872963,-0.023682276],"rotation":[0.5,0.5,0.50000006,0.49999994],"scale":[1.0,0.99999994,0.99999994],"name":"Versa_Panel end bar Hardware [8424679]"},{"mesh":9,"translation":[0.8684278,2.2930622,-0.023682276],"rotation":[-0.5,-0.5,0.50000006,0.49999994],"name":"Versa_Panel end bar Hardware [8424684]"},{"mesh":9,"translation":[0.9245081,2.335939,-0.023682276],"rotation":[0.5,0.5,0.50000006,0.49999994],"scale":[1.0,0.99999994,0.99999994],"name":"Versa_Panel end bar Hardware [8426643]"},{"mesh":9,"translation":[1.4635288,2.7014868,-0.023682276],"rotation":[-0.5,-0.5,0.50000006,0.49999994],"name":"Versa_Panel end bar Hardware [8426648]"},{"mesh":9,"translation":[0.06765576,1.7435108,-0.023682276],"rotation":[-0.5,-0.5,0.50000006,0.49999994],"name":"Versa_Panel end bar Hardware [8477312]"},{"mesh":9,"translation":[0.12508248,1.7872963,-1.0777831],"rotation":[0.5,0.5,0.50000006,0.49999994],"scale":[1.0,0.99999994,0.99999994],"name":"Versa_Panel end bar Hardware [8729840]"},{"mesh":9,"translation":[0.8684278,2.2930622,-1.0777831],"rotation":[-0.5,-0.5,0.50000006,0.49999994],"name":"Versa_Panel end bar Hardware [8729845]"},{"mesh":9,"translation":[0.9245081,2.335939,-1.0777831],"rotation":[0.5,0.5,0.50000006,0.49999994],"scale":[1.0,0.99999994,0.99999994],"name":"Versa_Panel end bar Hardware [8729861]"},{"mesh":9,"translation":[1.4635288,2.7014868,-1.0777831],"rotation":[-0.5,-0.5,0.50000006,0.49999994],"name":"Versa_Panel end bar Hardware [8729866]"},{"mesh":9,"translation":[0.06765576,1.7435108,-1.0777831],"rotation":[-0.5,-0.5,0.50000006,0.49999994],"name":"Versa_Panel end bar Hardware [8729887]"},{"mesh":10,"translation":[1.0741432,2.6608484,-0.023682276],"name":"Versa_Midrail_Single Generic [8426632]"},{"mesh":10,"translation":[1.0741432,2.5544243,-0.023682276],"name":"Versa_Midrail_Single Generic [8426633]"},{"mesh":10,"translation":[1.0741432,2.4480004,-0.023682276],"name":"Versa_Midrail_Single Generic [8426634]"},{"mesh":10,"translation":[1.0741432,3.1929688,-0.023682276],"name":"Versa_Midrail_Single Generic [8426635]"},{"mesh":10,"translation":[1.0741432,2.8736968,-0.023682276],"name":"Versa_Midrail_Single Generic [8426636]"},{"mesh":10,"translation":[1.0741432,2.7672725,-0.023682276],"name":"Versa_Midrail_Single Generic [8426637]"},{"mesh":10,"translation":[1.0741432,3.0865448,-0.023682276],"name":"Versa_Midrail_Single Generic [8426638]"},{"mesh":10,"translation":[1.0741432,2.9801207,-0.023682276],"name":"Versa_Midrail_Single Generic [8426649]"},{"mesh":10,"translation":[1.0741432,2.6608484,-1.0777831],"name":"Versa_Midrail_Single Generic [8729850]"},{"mesh":10,"translation":[1.0741432,2.5544243,-1.0777831],"name":"Versa_Midrail_Single Generic [8729851]"},{"mesh":10,"translation":[1.0741432,2.4480004,-1.0777831],"name":"Versa_Midrail_Single Generic [8729852]"},{"mesh":10,"translation":[1.0741432,3.1929688,-1.0777831],"name":"Versa_Midrail_Single Generic [8729853]"},{"mesh":10,"translation":[1.0741432,2.8736968,-1.0777831],"name":"Versa_Midrail_Single Generic [8729854]"},{"mesh":10,"translation":[1.0741432,2.7672725,-1.0777831],"name":"Versa_Midrail_Single Generic [8729855]"},{"mesh":10,"translation":[1.0741432,3.0865448,-1.0777831],"name":"Versa_Midrail_Single Generic [8729856]"},{"mesh":10,"translation":[1.0741432,2.9801207,-1.0777831],"name":"Versa_Midrail_Single Generic [8729867]"},{"mesh":11,"translation":[-1.4727396,0.69039065,-0.023394711],"rotation":[0.49999988,0.5,0.50000006,0.50000006],"scale":[1.0,0.99999994,0.99999994],"name":"Versa_Panel end bar Hardware [8426937]"},{"mesh":11,"translation":[-2.068581,0.28111154,-0.023394711],"rotation":[0.49999988,0.5,0.50000006,0.50000006],"scale":[1.0,0.99999994,0.99999994],"name":"Versa_Panel end bar Hardware [8428841]"},{"mesh":11,"translation":[-1.5301687,0.6459125,-0.023394711],"rotation":[-0.49999994,-0.50000006,0.5,0.5],"scale":[1.0,0.99999994,0.99999994],"name":"Versa_Panel end bar Hardware [8428846]"},{"mesh":11,"translation":[-1.4727396,0.69039065,-1.0774955],"rotation":[0.49999988,0.5,0.50000006,0.50000006],"scale":[1.0,0.99999994,0.99999994],"name":"Versa_Panel end bar Hardware [8731161]"},{"mesh":11,"translation":[-2.068581,0.28111154,-1.0774956],"rotation":[0.49999988,0.5,0.50000006,0.50000006],"scale":[1.0,0.99999994,0.99999994],"name":"Versa_Panel end bar Hardware [8731182]"},{"mesh":11,"translation":[-1.5301687,0.6459125,-1.0774955],"rotation":[-0.49999994,-0.50000006,0.5,0.5],"scale":[1.0,0.99999994,0.99999994],"name":"Versa_Panel end bar Hardware [8731187]"},{"mesh":11,"translation":[-0.67422783,1.2390305,-0.023394711],"rotation":[0.49999988,0.5,0.50000006,0.50000006],"scale":[1.0,0.99999994,0.99999994],"name":"Versa_Panel end bar Hardware [8426937]001"},{"mesh":11,"translation":[-0.73165685,1.1945524,-0.023394711],"rotation":[-0.49999994,-0.50000006,0.5,0.5],"scale":[1.0,0.99999994,0.99999994],"name":"Versa_Panel end bar Hardware [8428846]001"},{"mesh":11,"translation":[-0.67422783,1.2390305,-1.0774955],"rotation":[0.49999988,0.5,0.50000006,0.50000006],"scale":[1.0,0.99999994,0.99999994],"name":"Versa_Panel end bar Hardware [8731161]001"},{"mesh":11,"translation":[-0.73165685,1.1945524,-1.0774955],"rotation":[-0.49999994,-0.50000006,0.5,0.5],"scale":[1.0,0.99999994,0.99999994],"name":"Versa_Panel end bar Hardware [8731187]001"},{"mesh":12,"translation":[-1.6638081,0.7811119,-0.023394711],"rotation":[-0.0,-8.742278E-08,0.0,1.0],"name":"Versa_Midrail_Single Generic [8428830]"},{"mesh":12,"translation":[-1.6638081,0.67468697,-0.023394711],"rotation":[-0.0,-8.742278E-08,0.0,1.0],"name":"Versa_Midrail_Single Generic [8428831]"},{"mesh":12,"translation":[-1.6638081,0.5682619,-0.023394711],"rotation":[-0.0,-8.742278E-08,0.0,1.0],"name":"Versa_Midrail_Single Generic [8428832]"},{"mesh":12,"translation":[-1.6638081,1.3132368,-0.023394711],"rotation":[-0.0,-8.742278E-08,0.0,1.0],"name":"Versa_Midrail_Single Generic [8428833]"},{"mesh":12,"translation":[-1.6638081,0.9939619,-0.023394711],"rotation":[-0.0,-8.742278E-08,0.0,1.0],"name":"Versa_Midrail_Single Generic [8428834]"},{"mesh":12,"translation":[-1.6638081,0.8875369,-0.023394711],"rotation":[-0.0,-8.742278E-08,0.0,1.0],"name":"Versa_Midrail_Single Generic [8428835]"},{"mesh":12,"translation":[-1.6638081,1.2068119,-0.023394711],"rotation":[-0.0,-8.742278E-08,0.0,1.0],"name":"Versa_Midrail_Single Generic [8428836]"},{"mesh":12,"translation":[-1.6638081,1.1003869,-0.023394711],"rotation":[-0.0,-8.742278E-08,0.0,1.0],"name":"Versa_Midrail_Single Generic [8428847]"},{"mesh":12,"translation":[-1.6638081,0.7811119,-1.0774955],"rotation":[-0.0,-8.742278E-08,0.0,1.0],"name":"Versa_Midrail_Single Generic [8731171]"},{"mesh":12,"translation":[-1.6638081,0.67468697,-1.0774955],"rotation":[-0.0,-8.742278E-08,0.0,1.0],"name":"Versa_Midrail_Single Generic [8731172]"},{"mesh":12,"translation":[-1.6638081,0.5682619,-1.0774955],"rotation":[-0.0,-8.742278E-08,0.0,1.0],"name":"Versa_Midrail_Single Generic [8731173]"},{"mesh":12,"translation":[-1.6638081,1.3132368,-1.0774955],"rotation":[-0.0,-8.742278E-08,0.0,1.0],"name":"Versa_Midrail_Single Generic [8731174]"},{"mesh":12,"translation":[-1.6638081,0.9939619,-1.0774955],"rotation":[-0.0,-8.742278E-08,0.0,1.0],"name":"Versa_Midrail_Single Generic [8731175]"},{"mesh":12,"translation":[-1.6638081,0.8875369,-1.0774955],"rotation":[-0.0,-8.742278E-08,0.0,1.0],"name":"Versa_Midrail_Single Generic [8731176]"},{"mesh":12,"translation":[-1.6638081,1.2068119,-1.0774955],"rotation":[-0.0,-8.742278E-08,0.0,1.0],"name":"Versa_Midrail_Single Generic [8731177]"},{"mesh":12,"translation":[-1.6638081,1.1003869,-1.0774955],"rotation":[-0.0,-8.742278E-08,0.0,1.0],"name":"Versa_Midrail_Single Generic [8731188]"},{"mesh":13,"translation":[1.4922433,2.56032,-0.023682276],"rotation":[-0.5,-0.5,0.50000006,0.49999994],"name":"LSXXX & LSXXX - Versa Square Post Material LS Material [8473579]"},{"mesh":14,"translation":[0.8957936,2.19456,-0.023682276],"rotation":[-0.5,-0.5,0.50000006,0.49999994],"name":"LSXXX & LSXXX - Versa Square Post Material LS Material [8473588]"},{"mesh":15,"translation":[0.096367955,1.64592,-0.023682276],"rotation":[-0.5,-0.5,0.50000006,0.49999994],"name":"LSXXX & LSXXX - Versa Square Post Material LS Material [8473783]"},{"mesh":16,"translation":[1.4922433,2.56032,-1.0777831],"rotation":[0.5,0.5,0.50000006,0.49999994],"scale":[1.0,0.99999994,0.99999994],"name":"LSXXX & LSXXX - Versa Square Post Material LS Material [8721348]"},{"mesh":17,"translation":[0.8957936,2.19456,-1.0777831],"rotation":[0.5,0.5,0.50000006,0.49999994],"scale":[1.0,0.99999994,0.99999994],"name":"LSXXX & LSXXX - Versa Square Post Material LS Material [8721357]"},{"mesh":18,"translation":[0.096367955,1.64592,-1.0777831],"rotation":[0.5,0.5,0.50000006,0.49999994],"scale":[1.0,0.99999994,0.99999994],"name":"LSXXX & LSXXX - Versa Square Post Material LS Material [8721375]"},{"mesh":19,"translation":[-1.5014541,0.5485299,-1.0774955],"rotation":[0.49999988,0.5,0.50000006,0.50000006],"scale":[1.0,0.99999994,0.99999994],"name":"LSXXX & LSXXX - Versa Square Post Material LS Material [8721429]"},{"mesh":19,"translation":[-0.7029424,1.0971699,-1.0774955],"rotation":[0.49999988,0.5,0.50000006,0.50000006],"scale":[1.0,0.99999994,0.99999994],"name":"LSXXX & LSXXX - Versa Square Post Material LS Material [8721429]001"},{"mesh":20,"translation":[-2.0972955,0.18288001,-1.0774956],"rotation":[0.49999988,0.5,0.50000006,0.50000006],"scale":[1.0,0.99999994,0.99999994],"name":"LSXXX & LSXXX - Versa Square Post Material LS Material [8721438]"},{"mesh":21,"translation":[-0.58955437,1.5190775,-0.023394793],"name":"Versa_Midrail_Single Generic [8424667]001"},{"mesh":21,"translation":[-0.58955437,1.4126534,-0.023394793],"name":"Versa_Midrail_Single Generic [8424668]001"},{"mesh":21,"translation":[-0.58955437,1.3062294,-0.023394793],"name":"Versa_Midrail_Single Generic [8424669]001"},{"mesh":21,"translation":[-0.58955437,2.051198,-0.023394793],"name":"Versa_Midrail_Single Generic [8424670]001"},{"mesh":21,"translation":[-0.58955437,1.7319256,-0.023394793],"name":"Versa_Midrail_Single Generic [8424671]001"},{"mesh":21,"translation":[-0.58955437,1.6255015,-0.023394793],"name":"Versa_Midrail_Single Generic [8424672]001"},{"mesh":21,"translation":[-0.58955437,1.9447739,-0.023394793],"name":"Versa_Midrail_Single Generic [8424673]001"},{"mesh":21,"translation":[-0.58955437,1.8383498,-0.023394793],"name":"Versa_Midrail_Single Generic [8425767]001"},{"mesh":21,"translation":[-0.58955437,1.5190775,-1.0777831],"name":"Versa_Midrail_Single Generic [8729829]001"},{"mesh":21,"translation":[-0.58955437,1.4126534,-1.0777831],"name":"Versa_Midrail_Single Generic [8729830]001"},{"mesh":21,"translation":[-0.58955437,1.3062294,-1.0777831],"name":"Versa_Midrail_Single Generic [8729831]001"},{"mesh":21,"translation":[-0.58955437,2.051198,-1.0777831],"name":"Versa_Midrail_Single Generic [8729832]001"},{"mesh":21,"translation":[-0.58955437,1.7319256,-1.0777831],"name":"Versa_Midrail_Single Generic [8729833]001"},{"mesh":21,"translation":[-0.58955437,1.6255015,-1.0777831],"name":"Versa_Midrail_Single Generic [8729834]001"},{"mesh":21,"translation":[-0.58955437,1.9447739,-1.0777831],"name":"Versa_Midrail_Single Generic [8729835]001"},{"mesh":21,"translation":[-0.58955437,1.8383498,-1.0777831],"name":"Versa_Midrail_Single Generic [8729846]001"},{"mesh":21,"translation":[-1.388867,0.97012526,-0.023394793],"name":"Versa_Midrail_Single Generic [8424667]002"},{"mesh":21,"translation":[-1.388867,0.8637012,-0.023394793],"name":"Versa_Midrail_Single Generic [8424668]002"},{"mesh":21,"translation":[-1.388867,0.7572769,-0.023394793],"name":"Versa_Midrail_Single Generic [8424669]002"},{"mesh":21,"translation":[-1.388867,1.5022457,-0.023394793],"name":"Versa_Midrail_Single Generic [8424670]002"},{"mesh":21,"translation":[-1.388867,1.1829733,-0.023394793],"name":"Versa_Midrail_Single Generic [8424671]002"},{"mesh":21,"translation":[-1.388867,1.0765493,-0.023394793],"name":"Versa_Midrail_Single Generic [8424672]002"},{"mesh":21,"translation":[-1.388867,1.3958217,-0.023394793],"name":"Versa_Midrail_Single Generic [8424673]002"},{"mesh":21,"translation":[-1.388867,1.2893976,-0.023394793],"name":"Versa_Midrail_Single Generic [8425767]002"},{"mesh":21,"translation":[-1.388867,0.97012526,-1.0777831],"name":"Versa_Midrail_Single Generic [8729829]002"},{"mesh":21,"translation":[-1.388867,0.8637012,-1.0777831],"name":"Versa_Midrail_Single Generic [8729830]002"},{"mesh":21,"translation":[-1.388867,0.7572769,-1.0777831],"name":"Versa_Midrail_Single Generic [8729831]002"},{"mesh":21,"translation":[-1.388867,1.5022457,-1.0777831],"name":"Versa_Midrail_Single Generic [8729832]002"},{"mesh":21,"translation":[-1.388867,1.1829733,-1.0777831],"name":"Versa_Midrail_Single Generic [8729833]002"},{"mesh":21,"translation":[-1.388867,1.0765493,-1.0777831],"name":"Versa_Midrail_Single Generic [8729834]002"},{"mesh":21,"translation":[-1.388867,1.3958217,-1.0777831],"name":"Versa_Midrail_Single Generic [8729835]002"},{"mesh":21,"translation":[-1.388867,1.2893976,-1.0777831],"name":"Versa_Midrail_Single Generic [8729846]002"}],"meshes":[{"primitives":[{"attributes":{"POSITION":1,"TANGENT":2,"NORMAL":3,"TEXCOORD_0":4},"indices":0,"material":0}],"name":"VSQ022 - Versa Square Post Omaha Cap Part [8420509]002"},{"primitives":[{"attributes":{"POSITION":6,"TANGENT":7,"NORMAL":8,"TEXCOORD_0":9},"indices":5,"material":0}],"name":"LSXXX & LSXXX - Versa Square Post Material LS Material [8420510]"},{"primitives":[{"attributes":{"POSITION":11,"TANGENT":12,"NORMAL":13,"TEXCOORD_0":14},"indices":10,"material":0}],"name":"LSXXX & LSXXX - Versa Square Post Material LS Material [8420521]"},{"primitives":[{"attributes":{"POSITION":16,"TANGENT":17,"NORMAL":18,"TEXCOORD_0":19},"indices":15,"material":0}],"name":"Bent Stem_026"},{"primitives":[{"attributes":{"POSITION":21,"TANGENT":22,"NORMAL":23,"TEXCOORD_0":24},"indices":20,"material":0}],"name":"VSQ057 - Top Rail Saddle Part [8420939]001"},{"primitives":[{"attributes":{"POSITION":26,"TANGENT":27,"NORMAL":28,"TEXCOORD_0":29},"indices":25,"material":0}],"name":"HW92485A634 - #10 x 1l2 Philips FH Thread Cutting Type F Hardware [8420940]001"},{"primitives":[{"attributes":{"POSITION":31,"TANGENT":32,"NORMAL":33,"TEXCOORD_0":34},"indices":30,"material":0}],"name":"CSQ001-US - Surface Mount Weldment Part [8729241]021"},{"primitives":[{"attributes":{"POSITION":36,"TANGENT":37,"NORMAL":38,"TEXCOORD_0":39},"indices":35,"material":0}],"name":"Generic Models 5 Generic Models 3 [8422645]"},{"primitives":[{"attributes":{"POSITION":41,"TANGENT":42,"NORMAL":43,"TEXCOORD_0":44},"indices":40,"material":0}],"name":"Versa_Midrail_Single Generic [8424667]"},{"primitives":[{"attributes":{"POSITION":46,"TANGENT":47,"NORMAL":48,"TEXCOORD_0":49},"indices":45,"material":0}],"name":"Versa_Panel end bar Hardware [8424679]"},{"primitives":[{"attributes":{"POSITION":51,"TANGENT":52,"NORMAL":53,"TEXCOORD_0":54},"indices":50,"material":0}],"name":"Versa_Midrail_Single Generic [8426632]"},{"primitives":[{"attributes":{"POSITION":56,"TANGENT":57,"NORMAL":58,"TEXCOORD_0":59},"indices":55,"material":0}],"name":"Versa_Panel end bar Hardware [8426937]"},{"primitives":[{"attributes":{"POSITION":61,"TANGENT":62,"NORMAL":63,"TEXCOORD_0":64},"indices":60,"material":0}],"name":"Versa_Midrail_Single Generic [8428830]"},{"primitives":[{"attributes":{"POSITION":66,"TANGENT":67,"NORMAL":68,"TEXCOORD_0":69},"indices":65,"material":0}],"name":"LSXXX & LSXXX - Versa Square Post Material LS Material [8473579]"},{"primitives":[{"attributes":{"POSITION":71,"TANGENT":72,"NORMAL":73,"TEXCOORD_0":74},"indices":70,"material":0}],"name":"LSXXX & LSXXX - Versa Square Post Material LS Material [8473588]"},{"primitives":[{"attributes":{"POSITION":76,"TANGENT":77,"NORMAL":78,"TEXCOORD_0":79},"indices":75,"material":0}],"name":"LSXXX & LSXXX - Versa Square Post Material LS Material [8473783]"},{"primitives":[{"attributes":{"POSITION":81,"TANGENT":82,"NORMAL":83,"TEXCOORD_0":84},"indices":80,"material":0}],"name":"LSXXX & LSXXX - Versa Square Post Material LS Material [8721348]"},{"primitives":[{"attributes":{"POSITION":86,"TANGENT":87,"NORMAL":88,"TEXCOORD_0":89},"indices":85,"material":0}],"name":"LSXXX & LSXXX - Versa Square Post Material LS Material [8721357]"},{"primitives":[{"attributes":{"POSITION":91,"TANGENT":92,"NORMAL":93,"TEXCOORD_0":94},"indices":90,"material":0}],"name":"LSXXX & LSXXX - Versa Square Post Material LS Material [8721375]"},{"primitives":[{"attributes":{"POSITION":96,"TANGENT":97,"NORMAL":98,"TEXCOORD_0":99},"indices":95,"material":0}],"name":"LSXXX & LSXXX - Versa Square Post Material LS Material [8721429]"},{"primitives":[{"attributes":{"POSITION":101,"TANGENT":102,"NORMAL":103,"TEXCOORD_0":104},"indices":100,"material":0}],"name":"LSXXX & LSXXX - Versa Square Post Material LS Material [8721438]"},{"primitives":[{"attributes":{"POSITION":106,"TANGENT":107,"NORMAL":108,"TEXCOORD_0":109},"indices":105,"material":0}],"name":"Versa_Midrail_Single Generic [8424667]001"}],"accessors":[{"bufferView":0,"componentType":5123,"count":36,"type":"SCALAR","name":"accessorIndices"},{"bufferView":1,"componentType":5126,"count":24,"max":[0.025592525,0.0031750002,0.025590502],"min":[-0.025588477,-2.042859E-15,-0.025590502],"type":"VEC3","name":"accessorPositions"},{"bufferView":2,"componentType":5126,"count":24,"type":"VEC4","name":"accessorTangents"},{"bufferView":1,"byteOffset":288,"componentType":5126,"count":24,"type":"VEC3","name":"accessorNormals"},{"bufferView":3,"componentType":5126,"count":24,"type":"VEC2","name":"accessorUVs"},{"bufferView":0,"byteOffset":72,"componentType":5123,"count":36,"type":"SCALAR","name":"accessorIndices"},{"bufferView":1,"byteOffset":576,"componentType":5126,"count":24,"max":[0.9130321,0.025400002,0.025539069],"min":[6.291274E-15,-0.025400002,-0.025539069],"type":"VEC3","name":"accessorPositions"},{"bufferView":2,"byteOffset":384,"componentType":5126,"count":24,"type":"VEC4","name":"accessorTangents"},{"bufferView":1,"byteOffset":864,"componentType":5126,"count":24,"type":"VEC3","name":"accessorNormals"},{"bufferView":3,"byteOffset":192,"componentType":5126,"count":24,"type":"VEC2","name":"accessorUVs"},{"bufferView":0,"byteOffset":144,"componentType":5123,"count":36,"type":"SCALAR","name":"accessorIndices"},{"bufferView":1,"byteOffset":1152,"componentType":5126,"count":24,"max":[0.86947113,0.025400002,0.025539069],"min":[6.291274E-15,-0.025400002,-0.025539069],"type":"VEC3","name":"accessorPositions"},{"bufferView":2,"byteOffset":768,"componentType":5126,"count":24,"type":"VEC4","name":"accessorTangents"},{"bufferView":1,"byteOffset":1440,"componentType":5126,"count":24,"type":"VEC3","name":"accessorNormals"},{"bufferView":3,"byteOffset":384,"componentType":5126,"count":24,"type":"VEC2","name":"accessorUVs"},{"bufferView":0,"byteOffset":216,"componentType":5123,"count":2046,"type":"SCALAR","name":"accessorIndices"},{"bufferView":1,"byteOffset":1728,"componentType":5126,"count":480,"max":[0.006350001,0.053701945,0.0063499734],"min":[-0.006350001,-5.904436E-08,-0.02141023],"type":"VEC3","name":"accessorPositions"},{"bufferView":2,"byteOffset":1152,"componentType":5126,"count":480,"type":"VEC4","name":"accessorTangents"},{"bufferView":1,"byteOffset":7488,"componentType":5126,"count":480,"type":"VEC3","name":"accessorNormals"},{"bufferView":3,"byteOffset":576,"componentType":5126,"count":480,"type":"VEC2","name":"accessorUVs"},{"bufferView":0,"byteOffset":4308,"componentType":5123,"count":1716,"type":"SCALAR","name":"accessorIndices"},{"bufferView":1,"byteOffset":13248,"componentType":5126,"count":628,"max":[0.03175,0.01905,0.04445],"min":[0.025400002,-0.01905,-0.04445],"type":"VEC3","name":"accessorPositions"},{"bufferView":2,"byteOffset":8832,"componentType":5126,"count":628,"type":"VEC4","name":"accessorTangents"},{"bufferView":1,"byteOffset":20784,"componentType":5126,"count":628,"type":"VEC3","name":"accessorNormals"},{"bufferView":3,"byteOffset":4416,"componentType":5126,"count":628,"type":"VEC2","name":"accessorUVs"},{"bufferView":0,"byteOffset":7740,"componentType":5123,"count":624,"type":"SCALAR","name":"accessorIndices"},{"bufferView":1,"byteOffset":28320,"componentType":5126,"count":238,"max":[0.0024260222,0.0045974003,0.0045974003],"min":[1.8701417E-14,-0.0045974003,-0.0045974003],"type":"VEC3","name":"accessorPositions"},{"bufferView":2,"byteOffset":18880,"componentType":5126,"count":238,"type":"VEC4","name":"accessorTangents"},{"bufferView":1,"byteOffset":31176,"componentType":5126,"count":238,"type":"VEC3","name":"accessorNormals"},{"bufferView":3,"byteOffset":9440,"componentType":5126,"count":238,"type":"VEC2","name":"accessorUVs"},{"bufferView":0,"byteOffset":8988,"componentType":5123,"count":642,"type":"SCALAR","name":"accessorIndices"},{"bufferView":1,"byteOffset":34032,"componentType":5126,"count":203,"max":[0.053975116,0.025400193,0.05397505],"min":[-0.053974975,-5.8135987E-07,-0.05397505],"type":"VEC3","name":"accessorPositions"},{"bufferView":2,"byteOffset":22688,"componentType":5126,"count":203,"type":"VEC4","name":"accessorTangents"},{"bufferView":1,"byteOffset":36468,"componentType":5126,"count":203,"type":"VEC3","name":"accessorNormals"},{"bufferView":3,"byteOffset":11344,"componentType":5126,"count":203,"type":"VEC2","name":"accessorUVs"},{"bufferView":0,"byteOffset":10272,"componentType":5123,"count":108,"type":"SCALAR","name":"accessorIndices"},{"bufferView":1,"byteOffset":38904,"componentType":5126,"count":72,"max":[-27.32987,3.6585274,-27.278944],"min":[-31.075941,1.075425,-27.329744],"type":"VEC3","name":"accessorPositions"},{"bufferView":2,"byteOffset":25936,"componentType":5126,"count":72,"type":"VEC4","name":"accessorTangents"},{"bufferView":1,"byteOffset":39768,"componentType":5126,"count":72,"type":"VEC3","name":"accessorNormals"},{"bufferView":3,"byteOffset":12968,"componentType":5126,"count":72,"type":"VEC2","name":"accessorUVs"},{"bufferView":0,"byteOffset":10488,"componentType":5123,"count":36,"type":"SCALAR","name":"accessorIndices"},{"bufferView":1,"byteOffset":40632,"componentType":5126,"count":24,"max":[0.65403503,0.460386,0.01905],"min":[-0.08296073,-0.068484254,-0.01905],"type":"VEC3","name":"accessorPositions"},{"bufferView":2,"byteOffset":27088,"componentType":5126,"count":24,"type":"VEC4","name":"accessorTangents"},{"bufferView":1,"byteOffset":40920,"componentType":5126,"count":24,"type":"VEC3","name":"accessorNormals"},{"bufferView":3,"byteOffset":13544,"componentType":5126,"count":24,"type":"VEC2","name":"accessorUVs"},{"bufferView":0,"byteOffset":10560,"componentType":5123,"count":36,"type":"SCALAR","name":"accessorIndices"},{"bufferView":1,"byteOffset":41208,"componentType":5126,"count":24,"max":[0.768073,0.01905,0.0031750002],"min":[6.2941655E-15,-0.01905,-0.0031750002],"type":"VEC3","name":"accessorPositions"},{"bufferView":2,"byteOffset":27472,"componentType":5126,"count":24,"type":"VEC4","name":"accessorTangents"},{"bufferView":1,"byteOffset":41496,"componentType":5126,"count":24,"type":"VEC3","name":"accessorNormals"},{"bufferView":3,"byteOffset":13736,"componentType":5126,"count":24,"type":"VEC2","name":"accessorUVs"},{"bufferView":0,"byteOffset":10632,"componentType":5123,"count":36,"type":"SCALAR","name":"accessorIndices"},{"bufferView":1,"byteOffset":41784,"componentType":5126,"count":24,"max":[0.38621122,0.27659094,0.01905],"min":[-0.14646074,-0.11206136,-0.01905],"type":"VEC3","name":"accessorPositions"},{"bufferView":2,"byteOffset":27856,"componentType":5126,"count":24,"type":"VEC4","name":"accessorTangents"},{"bufferView":1,"byteOffset":42072,"componentType":5126,"count":24,"type":"VEC3","name":"accessorNormals"},{"bufferView":3,"byteOffset":13928,"componentType":5126,"count":24,"type":"VEC2","name":"accessorUVs"},{"bufferView":0,"byteOffset":10704,"componentType":5123,"count":36,"type":"SCALAR","name":"accessorIndices"},{"bufferView":1,"byteOffset":42360,"componentType":5126,"count":24,"max":[0.7680792,0.01905,0.0031750002],"min":[6.2941655E-15,-0.01905,-0.0031750002],"type":"VEC3","name":"accessorPositions"},{"bufferView":2,"byteOffset":28240,"componentType":5126,"count":24,"type":"VEC4","name":"accessorTangents"},{"bufferView":1,"byteOffset":42648,"componentType":5126,"count":24,"type":"VEC3","name":"accessorNormals"},{"bufferView":3,"byteOffset":14120,"componentType":5126,"count":24,"type":"VEC2","name":"accessorUVs"},{"bufferView":0,"byteOffset":10776,"componentType":5123,"count":36,"type":"SCALAR","name":"accessorIndices"},{"bufferView":1,"byteOffset":42936,"componentType":5126,"count":24,"max":[0.13046417,0.10078008,0.019050045],"min":[-0.4015983,-0.2871504,-0.01905],"type":"VEC3","name":"accessorPositions"},{"bufferView":2,"byteOffset":28624,"componentType":5126,"count":24,"type":"VEC4","name":"accessorTangents"},{"bufferView":1,"byteOffset":43224,"componentType":5126,"count":24,"type":"VEC3","name":"accessorNormals"},{"bufferView":3,"byteOffset":14312,"componentType":5126,"count":24,"type":"VEC2","name":"accessorUVs"},{"bufferView":0,"byteOffset":10848,"componentType":5123,"count":36,"type":"SCALAR","name":"accessorIndices"},{"bufferView":1,"byteOffset":43512,"componentType":5126,"count":24,"max":[0.9565424,0.025400002,0.025539069],"min":[6.291274E-15,-0.025400002,-0.025539069],"type":"VEC3","name":"accessorPositions"},{"bufferView":2,"byteOffset":29008,"componentType":5126,"count":24,"type":"VEC4","name":"accessorTangents"},{"bufferView":1,"byteOffset":43800,"componentType":5126,"count":24,"type":"VEC3","name":"accessorNormals"},{"bufferView":3,"byteOffset":14504,"componentType":5126,"count":24,"type":"VEC2","name":"accessorUVs"},{"bufferView":0,"byteOffset":10920,"componentType":5123,"count":36,"type":"SCALAR","name":"accessorIndices"},{"bufferView":1,"byteOffset":44088,"componentType":5126,"count":24,"max":[0.91298133,0.025400002,0.025539069],"min":[6.291274E-15,-0.025400002,-0.025539069],"type":"VEC3","name":"accessorPositions"},{"bufferView":2,"byteOffset":29392,"componentType":5126,"count":24,"type":"VEC4","name":"accessorTangents"},{"bufferView":1,"byteOffset":44376,"componentType":5126,"count":24,"type":"VEC3","name":"accessorNormals"},{"bufferView":3,"byteOffset":14696,"componentType":5126,"count":24,"type":"VEC2","name":"accessorUVs"},{"bufferView":0,"byteOffset":10992,"componentType":5123,"count":36,"type":"SCALAR","name":"accessorIndices"},{"bufferView":1,"byteOffset":44664,"componentType":5126,"count":24,"max":[0.91298133,0.025400002,0.025539069],"min":[6.291274E-15,-0.025400002,-0.025539069],"type":"VEC3","name":"accessorPositions"},{"bufferView":2,"byteOffset":29776,"componentType":5126,"count":24,"type":"VEC4","name":"accessorTangents"},{"bufferView":1,"byteOffset":44952,"componentType":5126,"count":24,"type":"VEC3","name":"accessorNormals"},{"bufferView":3,"byteOffset":14888,"componentType":5126,"count":24,"type":"VEC2","name":"accessorUVs"},{"bufferView":0,"byteOffset":11064,"componentType":5123,"count":36,"type":"SCALAR","name":"accessorIndices"},{"bufferView":1,"byteOffset":45240,"componentType":5126,"count":24,"max":[0.9565424,0.025400002,0.025539069],"min":[6.291274E-15,-0.025400002,-0.025539069],"type":"VEC3","name":"accessorPositions"},{"bufferView":2,"byteOffset":30160,"componentType":5126,"count":24,"type":"VEC4","name":"accessorTangents"},{"bufferView":1,"byteOffset":45528,"componentType":5126,"count":24,"type":"VEC3","name":"accessorNormals"},{"bufferView":3,"byteOffset":15080,"componentType":5126,"count":24,"type":"VEC2","name":"accessorUVs"},{"bufferView":0,"byteOffset":11136,"componentType":5123,"count":36,"type":"SCALAR","name":"accessorIndices"},{"bufferView":1,"byteOffset":45816,"componentType":5126,"count":24,"max":[0.9565424,0.025400002,0.025539069],"min":[6.291274E-15,-0.025400002,-0.025539069],"type":"VEC3","name":"accessorPositions"},{"bufferView":2,"byteOffset":30544,"componentType":5126,"count":24,"type":"VEC4","name":"accessorTangents"},{"bufferView":1,"byteOffset":46104,"componentType":5126,"count":24,"type":"VEC3","name":"accessorNormals"},{"bufferView":3,"byteOffset":15272,"componentType":5126,"count":24,"type":"VEC2","name":"accessorUVs"},{"bufferView":0,"byteOffset":11208,"componentType":5123,"count":36,"type":"SCALAR","name":"accessorIndices"},{"bufferView":1,"byteOffset":46392,"componentType":5126,"count":24,"max":[0.91298133,0.025400002,0.025539069],"min":[6.291274E-15,-0.025400002,-0.025539069],"type":"VEC3","name":"accessorPositions"},{"bufferView":2,"byteOffset":30928,"componentType":5126,"count":24,"type":"VEC4","name":"accessorTangents"},{"bufferView":1,"byteOffset":46680,"componentType":5126,"count":24,"type":"VEC3","name":"accessorNormals"},{"bufferView":3,"byteOffset":15464,"componentType":5126,"count":24,"type":"VEC2","name":"accessorUVs"},{"bufferView":0,"byteOffset":11280,"componentType":5123,"count":36,"type":"SCALAR","name":"accessorIndices"},{"bufferView":1,"byteOffset":46968,"componentType":5126,"count":24,"max":[0.9130321,0.025400002,0.025539069],"min":[6.291274E-15,-0.025400002,-0.025539069],"type":"VEC3","name":"accessorPositions"},{"bufferView":2,"byteOffset":31312,"componentType":5126,"count":24,"type":"VEC4","name":"accessorTangents"},{"bufferView":1,"byteOffset":47256,"componentType":5126,"count":24,"type":"VEC3","name":"accessorNormals"},{"bufferView":3,"byteOffset":15656,"componentType":5126,"count":24,"type":"VEC2","name":"accessorUVs"},{"bufferView":0,"byteOffset":11352,"componentType":5123,"count":36,"type":"SCALAR","name":"accessorIndices"},{"bufferView":1,"byteOffset":47544,"componentType":5126,"count":24,"max":[0.86947113,0.025400002,0.025539069],"min":[6.291274E-15,-0.025400002,-0.025539069],"type":"VEC3","name":"accessorPositions"},{"bufferView":2,"byteOffset":31696,"componentType":5126,"count":24,"type":"VEC4","name":"accessorTangents"},{"bufferView":1,"byteOffset":47832,"componentType":5126,"count":24,"type":"VEC3","name":"accessorNormals"},{"bufferView":3,"byteOffset":15848,"componentType":5126,"count":24,"type":"VEC2","name":"accessorUVs"},{"bufferView":0,"byteOffset":11424,"componentType":5123,"count":36,"type":"SCALAR","name":"accessorIndices"},{"bufferView":1,"byteOffset":48120,"componentType":5126,"count":24,"max":[0.65403503,0.460386,0.01905],"min":[-0.08149846,-0.06721799,-0.01905],"type":"VEC3","name":"accessorPositions"},{"bufferView":2,"byteOffset":32080,"componentType":5126,"count":24,"type":"VEC4","name":"accessorTangents"},{"bufferView":1,"byteOffset":48408,"componentType":5126,"count":24,"type":"VEC3","name":"accessorNormals"},{"bufferView":3,"byteOffset":16040,"componentType":5126,"count":24,"type":"VEC2","name":"accessorUVs"}],"bufferViews":[{"buffer":0,"byteLength":11496,"name":"bufferViewScalar"},{"buffer":0,"byteOffset":11496,"byteLength":48696,"byteStride":12,"name":"bufferViewFloatVec3"},{"buffer":0,"byteOffset":60192,"byteLength":32464,"byteStride":16,"name":"bufferViewFloatVec4"},{"buffer":0,"byteOffset":92656,"byteLength":16232,"byteStride":8,"name":"bufferViewFloatVec2"}],"buffers":[{"uri":"Straight_Railing_Versa-Square_Midrail.bin","byteLength":108888}],"materials":[{"pbrMetallicRoughness":{"baseColorFactor":[0.004515516,0.004515516,0.004515516,1.0],"metallicFactor":0.0,"metallicRoughnessTexture":{"index":0}},"name":"PowderCoat_Linear"}],"textures":[{"sampler":0,"source":0,"name":"PowderCoat_Roughness_2k0.jpg"}],"images":[{"uri":"textures/PowderCoat_Roughness_2k0.jpg"}],"samplers":[{"magFilter":9729,"minFilter":9987}]}