{"asset":{"version":"2.0","generator":"babylon.js glTF exporter for 3dsmax 2026 v20251111.2"},"extensionsUsed":["KHR_materials_ior","KHR_materials_transmission","KHR_materials_volume","KHR_texture_transform","KHR_materials_specular"],"extensionsRequired":["KHR_texture_transform"],"scene":0,"scenes":[{"nodes":[0,1,2,3,4,5,6,7,8,9,10,11,12,13,14,15,16,17,18,19,20,21,22,23,24,25,26,27,28,29,30,31,32,33,34,35,36,37,38,39,40,41,42,43,44,45,46,47,48,49,50,51,52,53,54,55,56,57,58,59,60,61,62,63,64,65,66,67,68,69,70,71,72,73,74,75,76,77,78,79,80,81,82,83,84,85,86,87,88,89,90,91,92,93,94,95,96,97,98,99,100,101,102,103,104,105,106,107,108,109,110,111,112,113,114,115,116,117,118,119,120,121,122,123,124,125,126,127,128,129,130,131,132,133,134,135,136,137,138,139,140,141,142,143,144,145,146,147,148,149,150,151,152,153,154,155,156,157,158,159,160,161,162,163,164,165,166,167,168,169,170,171,172,173,174,175,176,177,178,179,180,181,182,183,184,185,186,187,188,189,190,191,192,193,194,195,196,197,198,199,200,201,202,203,204,205,206,207,208,209,210,211,212,213,214,215,216,217,218,219,220,221,222,223,224,225,226,227,228,229,230,231,232,233,234,235,236,237,238,239,240,241,242,243,244,245,246,247,248,249,250,251,252,253,254,255,256,257,258,259,260,261,262,263,264,265,266,267,268,269,270,271,272,273,274,275,276,277,278,279,280,281,282,283,284,285,286,287,288,289,290,291,292,293,294,295,296,297,298,299,300,301,302,303,304,305,306,307,308,309,310,311,312,313,314,315,316,317,318,319]}],"nodes":[{"mesh":0,"translation":[0.49608132,2.425678,-0.02357298],"name":"Glass Panel_009"},{"mesh":0,"translation":[0.4960823,2.4257145,-1.0776738],"name":"Glass Panel_008"},{"mesh":0,"translation":[-0.30321103,1.8810991,-1.0776738],"name":"Glass Panel_012"},{"mesh":0,"translation":[-0.303212,1.8810626,-0.02357298],"name":"Glass Panel_013"},{"mesh":0,"translation":[-1.1024829,1.3278563,-1.0776738],"name":"Glass Panel_014"},{"mesh":0,"translation":[-1.102484,1.3278198,-0.02357298],"name":"Glass Panel_015"},{"mesh":1,"translation":[1.1940188,2.904672,-0.02357298],"name":"Glass Panel_011"},{"mesh":1,"translation":[1.1948136,2.9052212,-1.0776738],"name":"Glass Panel_010"},{"mesh":2,"translation":[-1.501454,0.5485298,-0.023504008],"rotation":[-0.0,-0.7071068,0.0,0.7071067],"name":"CSQ001-US - Surface Mount Weldment Part [8723797]001"},{"mesh":2,"translation":[-2.0972962,0.18288001,-0.023504008],"rotation":[-0.0,-0.7071068,0.0,0.7071067],"name":"CSQ001-US - Surface Mount Weldment Part [8723797]002"},{"mesh":2,"translation":[1.4922438,2.56032,-0.02357298],"rotation":[-0.0,-0.7071068,0.0,0.7071067],"name":"CSQ001-US - Surface Mount Weldment Part [8723797]003"},{"mesh":2,"translation":[0.89579415,2.19456,-0.02357298],"rotation":[-0.0,-0.7071068,0.0,0.7071067],"name":"CSQ001-US - Surface Mount Weldment Part [8723797]004"},{"mesh":2,"translation":[0.09636854,1.64592,-0.02357298],"rotation":[-0.0,-0.7071068,0.0,0.7071067],"name":"CSQ001-US - Surface Mount Weldment Part [8723797]007"},{"mesh":2,"translation":[0.89579415,2.19456,-1.0776738],"rotation":[-0.0,0.7071068,0.0,0.7071067],"name":"CSQ001-US - Surface Mount Weldment Part [8723797]008"},{"mesh":2,"translation":[0.09636854,1.64592,-1.0776738],"rotation":[-0.0,0.7071068,0.0,0.7071067],"name":"CSQ001-US - Surface Mount Weldment Part [8723797]009"},{"mesh":2,"translation":[1.4938321,2.56032,-1.0776738],"rotation":[-0.0,0.7071068,0.0,0.7071067],"name":"CSQ001-US - Surface Mount Weldment Part [8723797]010"},{"mesh":2,"translation":[-2.0972962,0.18288001,-1.0776049],"rotation":[-0.0,0.7071066,0.0,0.70710695],"name":"CSQ001-US - Surface Mount Weldment Part [8723797]011"},{"mesh":2,"translation":[-1.501454,0.5485298,-1.0776048],"rotation":[-0.0,0.7071066,0.0,0.70710695],"name":"CSQ001-US - Surface Mount Weldment Part [8723797]012"},{"mesh":2,"translation":[-0.70294243,1.0972805,-0.023504008],"rotation":[-0.0,-0.7071068,0.0,0.7071067],"name":"CSQ001-US - Surface Mount Weldment Part [8723797]253"},{"mesh":2,"translation":[-0.70294243,1.0972805,-1.0776048],"rotation":[-0.0,0.7071066,0.0,0.70710695],"name":"CSQ001-US - Surface Mount Weldment Part [8723797]254"},{"mesh":3,"translation":[-1.501454,0.8144932,-0.023504008],"rotation":[0.7071068,3.0908627E-08,0.7071068,-3.0908623E-08],"name":"INX013 - Infill Panel Clamp Part [8723065]001"},{"mesh":3,"translation":[-1.501454,0.8144932,-0.023504008],"rotation":[-0.0,-0.7071068,0.0,0.7071067],"name":"INX013 - Infill Panel Clamp Part [8723065]002"},{"mesh":3,"translation":[-1.501454,1.2938929,-0.023504008],"rotation":[0.7071068,3.0908627E-08,0.7071068,-3.0908623E-08],"name":"INX013 - Infill Panel Clamp Part [8723065]003"},{"mesh":3,"translation":[-1.501454,1.2938929,-0.023504008],"rotation":[-0.0,-0.7071068,0.0,0.7071067],"name":"INX013 - Infill Panel Clamp Part [8723065]004"},{"mesh":3,"translation":[1.4922438,2.869489,-0.02357298],"rotation":[0.7071067,3.0908623E-08,0.7071068,-3.0908616E-08],"name":"INX013 - Infill Panel Clamp Part [8723065]005"},{"mesh":3,"translation":[1.4922438,3.349117,-0.02357298],"rotation":[0.7071067,3.0908623E-08,0.7071068,-3.0908616E-08],"name":"INX013 - Infill Panel Clamp Part [8723065]006"},{"mesh":3,"translation":[0.89579415,2.4606252,-0.02357298],"rotation":[0.7071067,3.0908623E-08,0.7071068,-3.0908616E-08],"name":"INX013 - Infill Panel Clamp Part [8723065]007"},{"mesh":3,"translation":[0.89579415,2.4606252,-0.02357298],"rotation":[-0.0,-0.7071068,0.0,0.7071067],"name":"INX013 - Infill Panel Clamp Part [8723065]008"},{"mesh":3,"translation":[0.89579415,2.9397962,-0.02357298],"rotation":[0.7071067,3.0908623E-08,0.7071068,-3.0908616E-08],"name":"INX013 - Infill Panel Clamp Part [8723065]009"},{"mesh":3,"translation":[0.89579415,2.9397962,-0.02357298],"rotation":[-0.0,-0.7071068,0.0,0.7071067],"name":"INX013 - Infill Panel Clamp Part [8723065]010"},{"mesh":3,"translation":[0.09636854,1.911985,-0.02357298],"rotation":[0.7071067,3.0908623E-08,0.7071068,-3.0908616E-08],"name":"INX013 - Infill Panel Clamp Part [8723065]013"},{"mesh":3,"translation":[0.09636854,1.911985,-0.02357298],"rotation":[-0.0,-0.7071068,0.0,0.7071067],"name":"INX013 - Infill Panel Clamp Part [8723065]014"},{"mesh":3,"translation":[0.09636854,2.391156,-0.02357298],"rotation":[0.7071067,3.0908623E-08,0.7071068,-3.0908616E-08],"name":"INX013 - Infill Panel Clamp Part [8723065]015"},{"mesh":3,"translation":[0.09636854,2.391156,-0.02357298],"rotation":[-0.0,-0.7071068,0.0,0.7071067],"name":"INX013 - Infill Panel Clamp Part [8723065]016"},{"mesh":3,"translation":[-2.0972962,0.4059174,-0.023504008],"rotation":[-0.0,-0.7071068,0.0,0.7071067],"name":"INX013 - Infill Panel Clamp Part [8723065]019"},{"mesh":3,"translation":[-2.0972962,0.883285,-0.023504008],"rotation":[-0.0,-0.7071068,0.0,0.7071067],"name":"INX013 - Infill Panel Clamp Part [8723065]020"},{"mesh":3,"translation":[0.89579415,2.4606252,-1.0776738],"rotation":[-0.7071068,3.0908627E-08,0.7071068,3.0908623E-08],"name":"INX013 - Infill Panel Clamp Part [8723065]021"},{"mesh":3,"translation":[0.89579415,2.4606252,-1.0776738],"rotation":[-0.0,0.7071068,0.0,0.7071067],"name":"INX013 - Infill Panel Clamp Part [8723065]022"},{"mesh":3,"translation":[0.89579415,2.9397962,-1.0776738],"rotation":[-0.7071068,3.0908627E-08,0.7071068,3.0908623E-08],"name":"INX013 - Infill Panel Clamp Part [8723065]023"},{"mesh":3,"translation":[0.89579415,2.9397962,-1.0776738],"rotation":[-0.0,0.7071068,0.0,0.7071067],"name":"INX013 - Infill Panel Clamp Part [8723065]024"},{"mesh":3,"translation":[0.09636854,1.911985,-1.0776738],"rotation":[-0.7071068,3.0908627E-08,0.7071068,3.0908623E-08],"name":"INX013 - Infill Panel Clamp Part [8723065]025"},{"mesh":3,"translation":[0.09636854,1.911985,-1.0776738],"rotation":[-0.0,0.7071068,0.0,0.7071067],"name":"INX013 - Infill Panel Clamp Part [8723065]026"},{"mesh":3,"translation":[0.09636854,2.391156,-1.0776738],"rotation":[-0.7071068,3.0908627E-08,0.7071068,3.0908623E-08],"name":"INX013 - Infill Panel Clamp Part [8723065]027"},{"mesh":3,"translation":[0.09636854,2.391156,-1.0776738],"rotation":[-0.0,0.7071068,0.0,0.7071067],"name":"INX013 - Infill Panel Clamp Part [8723065]028"},{"mesh":3,"translation":[1.4938321,2.869489,-1.0776738],"rotation":[6.181724E-08,0.7071068,-6.181724E-08,0.7071067],"name":"INX013 - Infill Panel Clamp Part [8723065]029"},{"mesh":3,"translation":[1.4938321,3.349117,-1.0776738],"rotation":[6.181724E-08,0.7071068,-6.181724E-08,0.7071067],"name":"INX013 - Infill Panel Clamp Part [8723065]030"},{"mesh":3,"translation":[-2.0972962,0.4059174,-1.0776049],"rotation":[-0.70710695,3.0908613E-08,0.7071066,3.0908627E-08],"name":"INX013 - Infill Panel Clamp Part [8723065]031"},{"mesh":3,"translation":[-2.0972962,0.883285,-1.0776049],"rotation":[-0.70710695,3.0908613E-08,0.7071066,3.0908627E-08],"name":"INX013 - Infill Panel Clamp Part [8723065]032"},{"mesh":3,"translation":[-1.501454,0.8144932,-1.0776048],"rotation":[-0.70710695,3.0908613E-08,0.7071066,3.0908627E-08],"name":"INX013 - Infill Panel Clamp Part [8723065]033"},{"mesh":3,"translation":[-1.501454,0.8144932,-1.0776048],"rotation":[-0.0,0.7071066,0.0,0.70710695],"name":"INX013 - Infill Panel Clamp Part [8723065]034"},{"mesh":3,"translation":[-1.501454,1.2938929,-1.0776048],"rotation":[-0.70710695,3.0908613E-08,0.7071066,3.0908627E-08],"name":"INX013 - Infill Panel Clamp Part [8723065]035"},{"mesh":3,"translation":[-1.501454,1.2938929,-1.0776048],"rotation":[-0.0,0.7071066,0.0,0.70710695],"name":"INX013 - Infill Panel Clamp Part [8723065]036"},{"mesh":3,"translation":[-0.70294243,1.3632439,-0.023504008],"rotation":[0.7071068,3.0908627E-08,0.7071068,-3.0908623E-08],"name":"INX013 - Infill Panel Clamp Part [8723065]037"},{"mesh":3,"translation":[-0.70294243,1.3632439,-0.023504008],"rotation":[-0.0,-0.7071068,0.0,0.7071067],"name":"INX013 - Infill Panel Clamp Part [8723065]038"},{"mesh":3,"translation":[-0.70294243,1.8426435,-0.023504008],"rotation":[0.7071068,3.0908627E-08,0.7071068,-3.0908623E-08],"name":"INX013 - Infill Panel Clamp Part [8723065]039"},{"mesh":3,"translation":[-0.70294243,1.8426435,-0.023504008],"rotation":[-0.0,-0.7071068,0.0,0.7071067],"name":"INX013 - Infill Panel Clamp Part [8723065]040"},{"mesh":3,"translation":[-0.70294243,1.3632439,-1.0776048],"rotation":[-0.70710695,3.0908613E-08,0.7071066,3.0908627E-08],"name":"INX013 - Infill Panel Clamp Part [8723065]041"},{"mesh":3,"translation":[-0.70294243,1.3632439,-1.0776048],"rotation":[-0.0,0.7071066,0.0,0.70710695],"name":"INX013 - Infill Panel Clamp Part [8723065]042"},{"mesh":3,"translation":[-0.70294243,1.8426435,-1.0776048],"rotation":[-0.70710695,3.0908613E-08,0.7071066,3.0908627E-08],"name":"INX013 - Infill Panel Clamp Part [8723065]043"},{"mesh":3,"translation":[-0.70294243,1.8426435,-1.0776048],"rotation":[-0.0,0.7071066,0.0,0.70710695],"name":"INX013 - Infill Panel Clamp Part [8723065]044"},{"mesh":4,"translation":[-1.501454,0.8144932,-0.023504008],"rotation":[-0.0,-0.7071068,0.0,0.7071067],"name":"INX012 - Infill Panel Mount Part [8478189]001"},{"mesh":4,"translation":[-1.501454,0.8144932,-0.023504008],"rotation":[0.7071068,3.0908627E-08,0.7071068,-3.0908623E-08],"name":"INX012 - Infill Panel Mount Part [8478189]002"},{"mesh":4,"translation":[-1.501454,1.2938929,-0.023504008],"rotation":[-0.0,-0.7071068,0.0,0.7071067],"name":"INX012 - Infill Panel Mount Part [8478189]003"},{"mesh":4,"translation":[-1.501454,1.2938929,-0.023504008],"rotation":[0.7071068,3.0908627E-08,0.7071068,-3.0908623E-08],"name":"INX012 - Infill Panel Mount Part [8478189]004"},{"mesh":4,"translation":[1.4922438,2.869489,-0.02357298],"rotation":[-0.0,-0.7071068,0.0,0.7071067],"name":"INX012 - Infill Panel Mount Part [8478189]005"},{"mesh":4,"translation":[1.4922438,3.349117,-0.02357298],"rotation":[-0.0,-0.7071068,0.0,0.7071067],"name":"INX012 - Infill Panel Mount Part [8478189]006"},{"mesh":4,"translation":[0.89579415,2.4606252,-0.02357298],"rotation":[-0.0,-0.7071068,0.0,0.7071067],"name":"INX012 - Infill Panel Mount Part [8478189]007"},{"mesh":4,"translation":[0.89579415,2.4606252,-0.02357298],"rotation":[0.7071067,3.0908623E-08,0.7071068,-3.0908616E-08],"name":"INX012 - Infill Panel Mount Part [8478189]008"},{"mesh":4,"translation":[0.89579415,2.9397962,-0.02357298],"rotation":[-0.0,-0.7071068,0.0,0.7071067],"name":"INX012 - Infill Panel Mount Part [8478189]009"},{"mesh":4,"translation":[0.89579415,2.9397962,-0.02357298],"rotation":[0.7071067,3.0908623E-08,0.7071068,-3.0908616E-08],"name":"INX012 - Infill Panel Mount Part [8478189]010"},{"mesh":4,"translation":[0.09636854,1.911985,-0.02357298],"rotation":[-0.0,-0.7071068,0.0,0.7071067],"name":"INX012 - Infill Panel Mount Part [8478189]013"},{"mesh":4,"translation":[0.09636854,1.911985,-0.02357298],"rotation":[0.7071067,3.0908623E-08,0.7071068,-3.0908616E-08],"name":"INX012 - Infill Panel Mount Part [8478189]014"},{"mesh":4,"translation":[0.09636854,2.391156,-0.02357298],"rotation":[-0.0,-0.7071068,0.0,0.7071067],"name":"INX012 - Infill Panel Mount Part [8478189]015"},{"mesh":4,"translation":[0.09636854,2.391156,-0.02357298],"rotation":[0.7071067,3.0908623E-08,0.7071068,-3.0908616E-08],"name":"INX012 - Infill Panel Mount Part [8478189]016"},{"mesh":4,"translation":[-2.0972962,0.4059174,-0.023504008],"rotation":[0.7071068,3.0908627E-08,0.7071068,-3.0908623E-08],"name":"INX012 - Infill Panel Mount Part [8478189]019"},{"mesh":4,"translation":[-2.0972962,0.883285,-0.023504008],"rotation":[0.7071068,3.0908627E-08,0.7071068,-3.0908623E-08],"name":"INX012 - Infill Panel Mount Part [8478189]020"},{"mesh":4,"translation":[0.89579415,2.4606252,-1.0776738],"rotation":[-0.0,0.7071068,0.0,0.7071067],"name":"INX012 - Infill Panel Mount Part [8478189]021"},{"mesh":4,"translation":[0.89579415,2.4606252,-1.0776738],"rotation":[-0.7071068,3.0908627E-08,0.7071068,3.0908623E-08],"name":"INX012 - Infill Panel Mount Part [8478189]022"},{"mesh":4,"translation":[0.89579415,2.9397962,-1.0776738],"rotation":[-0.0,0.7071068,0.0,0.7071067],"name":"INX012 - Infill Panel Mount Part [8478189]023"},{"mesh":4,"translation":[0.89579415,2.9397962,-1.0776738],"rotation":[-0.7071068,3.0908627E-08,0.7071068,3.0908623E-08],"name":"INX012 - Infill Panel Mount Part [8478189]024"},{"mesh":4,"translation":[0.09636854,1.911985,-1.0776738],"rotation":[-0.0,0.7071068,0.0,0.7071067],"name":"INX012 - Infill Panel Mount Part [8478189]025"},{"mesh":4,"translation":[0.09636854,1.911985,-1.0776738],"rotation":[-0.7071068,3.0908627E-08,0.7071068,3.0908623E-08],"name":"INX012 - Infill Panel Mount Part [8478189]026"},{"mesh":4,"translation":[0.09636854,2.391156,-1.0776738],"rotation":[-0.0,0.7071068,0.0,0.7071067],"name":"INX012 - Infill Panel Mount Part [8478189]027"},{"mesh":4,"translation":[0.09636854,2.391156,-1.0776738],"rotation":[-0.7071068,3.0908627E-08,0.7071068,3.0908623E-08],"name":"INX012 - Infill Panel Mount Part [8478189]028"},{"mesh":4,"translation":[1.4938321,2.869489,-1.0776738],"rotation":[-0.7071068,3.0908627E-08,0.7071068,3.0908623E-08],"name":"INX012 - Infill Panel Mount Part [8478189]029"},{"mesh":4,"translation":[1.4938321,3.349117,-1.0776738],"rotation":[-0.7071068,3.0908627E-08,0.7071068,3.0908623E-08],"name":"INX012 - Infill Panel Mount Part [8478189]030"},{"mesh":4,"translation":[-2.0972962,0.4059174,-1.0776049],"rotation":[-0.0,0.7071066,0.0,0.70710695],"name":"INX012 - Infill Panel Mount Part [8478189]031"},{"mesh":4,"translation":[-2.0972962,0.883285,-1.0776049],"rotation":[-0.0,0.7071066,0.0,0.70710695],"name":"INX012 - Infill Panel Mount Part [8478189]032"},{"mesh":4,"translation":[-1.501454,0.8144932,-1.0776048],"rotation":[-0.0,0.7071066,0.0,0.70710695],"name":"INX012 - Infill Panel Mount Part [8478189]033"},{"mesh":4,"translation":[-1.501454,0.8144932,-1.0776048],"rotation":[-0.70710695,3.0908613E-08,0.7071066,3.0908627E-08],"name":"INX012 - Infill Panel Mount Part [8478189]034"},{"mesh":4,"translation":[-1.501454,1.2938929,-1.0776048],"rotation":[-0.0,0.7071066,0.0,0.70710695],"name":"INX012 - Infill Panel Mount Part [8478189]035"},{"mesh":4,"translation":[-1.501454,1.2938929,-1.0776048],"rotation":[-0.70710695,3.0908613E-08,0.7071066,3.0908627E-08],"name":"INX012 - Infill Panel Mount Part [8478189]036"},{"mesh":4,"translation":[-0.70294243,1.3632439,-0.023504008],"rotation":[-0.0,-0.7071068,0.0,0.7071067],"name":"INX012 - Infill Panel Mount Part [8478189]037"},{"mesh":4,"translation":[-0.70294243,1.3632439,-0.023504008],"rotation":[0.7071068,3.0908627E-08,0.7071068,-3.0908623E-08],"name":"INX012 - Infill Panel Mount Part [8478189]038"},{"mesh":4,"translation":[-0.70294243,1.8426435,-0.023504008],"rotation":[-0.0,-0.7071068,0.0,0.7071067],"name":"INX012 - Infill Panel Mount Part [8478189]039"},{"mesh":4,"translation":[-0.70294243,1.8426435,-0.023504008],"rotation":[0.7071068,3.0908627E-08,0.7071068,-3.0908623E-08],"name":"INX012 - Infill Panel Mount Part [8478189]040"},{"mesh":4,"translation":[-0.70294243,1.3632439,-1.0776048],"rotation":[-0.0,0.7071066,0.0,0.70710695],"name":"INX012 - Infill Panel Mount Part [8478189]041"},{"mesh":4,"translation":[-0.70294243,1.3632439,-1.0776048],"rotation":[-0.70710695,3.0908613E-08,0.7071066,3.0908627E-08],"name":"INX012 - Infill Panel Mount Part [8478189]042"},{"mesh":4,"translation":[-0.70294243,1.8426435,-1.0776048],"rotation":[-0.0,0.7071066,0.0,0.70710695],"name":"INX012 - Infill Panel Mount Part [8478189]043"},{"mesh":4,"translation":[-0.70294243,1.8426435,-1.0776048],"rotation":[-0.70710695,3.0908613E-08,0.7071066,3.0908627E-08],"name":"INX012 - Infill Panel Mount Part [8478189]044"},{"mesh":5,"translation":[-1.4623379,0.8144932,-0.03149189],"rotation":[-0.0,-0.7071068,0.0,0.7071067],"name":"INX124 - Inox Panel Holder Pad wlo Notch Part [8724308]001"},{"mesh":5,"translation":[-1.4623379,0.8144932,-0.015516124],"rotation":[-0.70710695,3.0908613E-08,0.7071066,3.0908627E-08],"name":"INX124 - Inox Panel Holder Pad wlo Notch Part [8724308]002"},{"mesh":5,"translation":[-1.5405703,0.8144932,-0.03149189],"rotation":[0.7071068,5.3385083E-08,0.7071068,-5.3385083E-08],"name":"INX124 - Inox Panel Holder Pad wlo Notch Part [8724308]003"},{"mesh":5,"translation":[-1.5405703,0.8144932,-0.015516124],"rotation":[-0.0,0.7071066,0.0,0.70710695],"name":"INX124 - Inox Panel Holder Pad wlo Notch Part [8724308]004"},{"mesh":5,"translation":[-1.4623379,1.2938929,-0.03149189],"rotation":[-0.0,-0.7071068,0.0,0.7071067],"name":"INX124 - Inox Panel Holder Pad wlo Notch Part [8724308]005"},{"mesh":5,"translation":[-1.4623379,1.2938929,-0.015516124],"rotation":[-0.70710695,3.0908613E-08,0.7071066,3.0908627E-08],"name":"INX124 - Inox Panel Holder Pad wlo Notch Part [8724308]006"},{"mesh":5,"translation":[-1.5405703,1.2938929,-0.03149189],"rotation":[0.7071068,5.3385083E-08,0.7071068,-5.3385083E-08],"name":"INX124 - Inox Panel Holder Pad wlo Notch Part [8724308]007"},{"mesh":5,"translation":[-1.5405703,1.2938929,-0.015516124],"rotation":[-0.0,0.7071066,0.0,0.70710695],"name":"INX124 - Inox Panel Holder Pad wlo Notch Part [8724308]008"},{"mesh":5,"translation":[1.4531276,2.869489,-0.031560864],"rotation":[0.7071067,3.0908623E-08,0.7071068,-3.0908616E-08],"name":"INX124 - Inox Panel Holder Pad wlo Notch Part [8724308]009"},{"mesh":5,"translation":[1.4531276,2.869489,-0.015585096],"rotation":[-0.0,0.7071068,0.0,0.7071067],"name":"INX124 - Inox Panel Holder Pad wlo Notch Part [8724308]010"},{"mesh":5,"translation":[1.4531276,3.349117,-0.031560864],"rotation":[0.7071067,3.0908623E-08,0.7071068,-3.0908616E-08],"name":"INX124 - Inox Panel Holder Pad wlo Notch Part [8724308]011"},{"mesh":5,"translation":[1.4531276,3.349117,-0.015585096],"rotation":[-0.0,0.7071068,0.0,0.7071067],"name":"INX124 - Inox Panel Holder Pad wlo Notch Part [8724308]012"},{"mesh":5,"translation":[0.9349104,2.4606252,-0.031560864],"rotation":[-0.0,-0.7071068,0.0,0.7071067],"name":"INX124 - Inox Panel Holder Pad wlo Notch Part [8724308]013"},{"mesh":5,"translation":[0.9349104,2.4606252,-0.015585096],"rotation":[-0.7071068,3.0908627E-08,0.7071068,3.0908623E-08],"name":"INX124 - Inox Panel Holder Pad wlo Notch Part [8724308]014"},{"mesh":5,"translation":[0.85667795,2.4606252,-0.031560864],"rotation":[0.7071067,3.0908623E-08,0.7071068,-3.0908616E-08],"name":"INX124 - Inox Panel Holder Pad wlo Notch Part [8724308]015"},{"mesh":5,"translation":[0.85667795,2.4606252,-0.015585096],"rotation":[-0.0,0.7071068,0.0,0.7071067],"name":"INX124 - Inox Panel Holder Pad wlo Notch Part [8724308]016"},{"mesh":5,"translation":[0.9349104,2.9397962,-0.031560864],"rotation":[-0.0,-0.7071068,0.0,0.7071067],"name":"INX124 - Inox Panel Holder Pad wlo Notch Part [8724308]017"},{"mesh":5,"translation":[0.9349104,2.9397962,-0.015585096],"rotation":[-0.7071068,3.0908627E-08,0.7071068,3.0908623E-08],"name":"INX124 - Inox Panel Holder Pad wlo Notch Part [8724308]018"},{"mesh":5,"translation":[0.85667795,2.9397962,-0.031560864],"rotation":[0.7071067,3.0908623E-08,0.7071068,-3.0908616E-08],"name":"INX124 - Inox Panel Holder Pad wlo Notch Part [8724308]019"},{"mesh":5,"translation":[0.85667795,2.9397962,-0.015585096],"rotation":[-0.0,0.7071068,0.0,0.7071067],"name":"INX124 - Inox Panel Holder Pad wlo Notch Part [8724308]020"},{"mesh":5,"translation":[0.13548476,1.911985,-0.031560864],"rotation":[-0.0,-0.7071068,0.0,0.7071067],"name":"INX124 - Inox Panel Holder Pad wlo Notch Part [8724308]025"},{"mesh":5,"translation":[0.13548476,1.911985,-0.015585096],"rotation":[-0.7071068,3.0908627E-08,0.7071068,3.0908623E-08],"name":"INX124 - Inox Panel Holder Pad wlo Notch Part [8724308]026"},{"mesh":5,"translation":[0.05725232,1.911985,-0.031560864],"rotation":[0.7071067,3.0908623E-08,0.7071068,-3.0908616E-08],"name":"INX124 - Inox Panel Holder Pad wlo Notch Part [8724308]027"},{"mesh":5,"translation":[0.05725232,1.911985,-0.015585096],"rotation":[-0.0,0.7071068,0.0,0.7071067],"name":"INX124 - Inox Panel Holder Pad wlo Notch Part [8724308]028"},{"mesh":5,"translation":[0.13548476,2.391156,-0.031560864],"rotation":[-0.0,-0.7071068,0.0,0.7071067],"name":"INX124 - Inox Panel Holder Pad wlo Notch Part [8724308]029"},{"mesh":5,"translation":[0.13548476,2.391156,-0.015585096],"rotation":[-0.7071068,3.0908627E-08,0.7071068,3.0908623E-08],"name":"INX124 - Inox Panel Holder Pad wlo Notch Part [8724308]030"},{"mesh":5,"translation":[0.05725232,2.391156,-0.031560864],"rotation":[0.7071067,3.0908623E-08,0.7071068,-3.0908616E-08],"name":"INX124 - Inox Panel Holder Pad wlo Notch Part [8724308]031"},{"mesh":5,"translation":[0.05725232,2.391156,-0.015585096],"rotation":[-0.0,0.7071068,0.0,0.7071067],"name":"INX124 - Inox Panel Holder Pad wlo Notch Part [8724308]032"},{"mesh":5,"translation":[-2.0581799,0.4059174,-0.03149189],"rotation":[-0.0,-0.7071068,0.0,0.7071067],"name":"INX124 - Inox Panel Holder Pad wlo Notch Part [8724308]037"},{"mesh":5,"translation":[-2.0581799,0.4059174,-0.015516124],"rotation":[-0.70710695,3.0908613E-08,0.7071066,3.0908627E-08],"name":"INX124 - Inox Panel Holder Pad wlo Notch Part [8724308]038"},{"mesh":5,"translation":[-2.0581799,0.883285,-0.03149189],"rotation":[-0.0,-0.7071068,0.0,0.7071067],"name":"INX124 - Inox Panel Holder Pad wlo Notch Part [8724308]039"},{"mesh":5,"translation":[-2.0581799,0.883285,-0.015516124],"rotation":[-0.70710695,3.0908613E-08,0.7071066,3.0908627E-08],"name":"INX124 - Inox Panel Holder Pad wlo Notch Part [8724308]040"},{"mesh":5,"translation":[0.9349104,2.4606252,-1.0696859],"rotation":[-0.7071068,3.0908627E-08,0.7071068,3.0908623E-08],"name":"INX124 - Inox Panel Holder Pad wlo Notch Part [8724308]041"},{"mesh":5,"translation":[0.9349104,2.4606252,-1.0856616],"rotation":[-0.0,-0.7071068,0.0,0.7071067],"name":"INX124 - Inox Panel Holder Pad wlo Notch Part [8724308]042"},{"mesh":5,"translation":[0.85667795,2.4606252,-1.0696859],"rotation":[-0.0,0.7071068,0.0,0.7071067],"name":"INX124 - Inox Panel Holder Pad wlo Notch Part [8724308]043"},{"mesh":5,"translation":[0.85667795,2.4606252,-1.0856616],"rotation":[0.7071067,3.0908623E-08,0.7071068,-3.0908616E-08],"name":"INX124 - Inox Panel Holder Pad wlo Notch Part [8724308]044"},{"mesh":5,"translation":[0.9349104,2.9397962,-1.0696859],"rotation":[-0.7071068,3.0908627E-08,0.7071068,3.0908623E-08],"name":"INX124 - Inox Panel Holder Pad wlo Notch Part [8724308]045"},{"mesh":5,"translation":[0.9349104,2.9397962,-1.0856616],"rotation":[-0.0,-0.7071068,0.0,0.7071067],"name":"INX124 - Inox Panel Holder Pad wlo Notch Part [8724308]046"},{"mesh":5,"translation":[0.85667795,2.9397962,-1.0696859],"rotation":[-0.0,0.7071068,0.0,0.7071067],"name":"INX124 - Inox Panel Holder Pad wlo Notch Part [8724308]047"},{"mesh":5,"translation":[0.85667795,2.9397962,-1.0856616],"rotation":[0.7071067,3.0908623E-08,0.7071068,-3.0908616E-08],"name":"INX124 - Inox Panel Holder Pad wlo Notch Part [8724308]048"},{"mesh":5,"translation":[0.13548476,1.911985,-1.0696859],"rotation":[-0.7071068,3.0908627E-08,0.7071068,3.0908623E-08],"name":"INX124 - Inox Panel Holder Pad wlo Notch Part [8724308]049"},{"mesh":5,"translation":[0.13548476,1.911985,-1.0856616],"rotation":[-0.0,-0.7071068,0.0,0.7071067],"name":"INX124 - Inox Panel Holder Pad wlo Notch Part [8724308]050"},{"mesh":5,"translation":[0.05725232,1.911985,-1.0696859],"rotation":[-0.0,0.7071068,0.0,0.7071067],"name":"INX124 - Inox Panel Holder Pad wlo Notch Part [8724308]051"},{"mesh":5,"translation":[0.05725232,1.911985,-1.0856616],"rotation":[0.7071067,3.0908623E-08,0.7071068,-3.0908616E-08],"name":"INX124 - Inox Panel Holder Pad wlo Notch Part [8724308]052"},{"mesh":5,"translation":[0.13548476,2.391156,-1.0696859],"rotation":[-0.7071068,3.0908627E-08,0.7071068,3.0908623E-08],"name":"INX124 - Inox Panel Holder Pad wlo Notch Part [8724308]053"},{"mesh":5,"translation":[0.13548476,2.391156,-1.0856616],"rotation":[-0.0,-0.7071068,0.0,0.7071067],"name":"INX124 - Inox Panel Holder Pad wlo Notch Part [8724308]054"},{"mesh":5,"translation":[0.05725232,2.391156,-1.0696859],"rotation":[-0.0,0.7071068,0.0,0.7071067],"name":"INX124 - Inox Panel Holder Pad wlo Notch Part [8724308]055"},{"mesh":5,"translation":[0.05725232,2.391156,-1.0856616],"rotation":[0.7071067,3.0908623E-08,0.7071068,-3.0908616E-08],"name":"INX124 - Inox Panel Holder Pad wlo Notch Part [8724308]056"},{"mesh":5,"translation":[1.4547158,2.869489,-1.0696859],"rotation":[-0.0,0.7071068,0.0,0.7071067],"name":"INX124 - Inox Panel Holder Pad wlo Notch Part [8724308]057"},{"mesh":5,"translation":[1.4547158,2.869489,-1.0856616],"rotation":[0.7071067,3.0908623E-08,0.7071068,-3.0908616E-08],"name":"INX124 - Inox Panel Holder Pad wlo Notch Part [8724308]058"},{"mesh":5,"translation":[1.4547158,3.349117,-1.0696859],"rotation":[-0.0,0.7071068,0.0,0.7071067],"name":"INX124 - Inox Panel Holder Pad wlo Notch Part [8724308]059"},{"mesh":5,"translation":[1.4547158,3.349117,-1.0856616],"rotation":[0.7071067,3.0908623E-08,0.7071068,-3.0908616E-08],"name":"INX124 - Inox Panel Holder Pad wlo Notch Part [8724308]060"},{"mesh":5,"translation":[-2.0581799,0.4059174,-1.069617],"rotation":[-0.70710695,3.0908613E-08,0.7071066,3.0908627E-08],"name":"INX124 - Inox Panel Holder Pad wlo Notch Part [8724308]061"},{"mesh":5,"translation":[-2.0581799,0.4059174,-1.0855927],"rotation":[-0.0,-0.7071068,0.0,0.7071067],"name":"INX124 - Inox Panel Holder Pad wlo Notch Part [8724308]062"},{"mesh":5,"translation":[-2.0581799,0.883285,-1.069617],"rotation":[-0.70710695,3.0908613E-08,0.7071066,3.0908627E-08],"name":"INX124 - Inox Panel Holder Pad wlo Notch Part [8724308]063"},{"mesh":5,"translation":[-2.0581799,0.883285,-1.0855927],"rotation":[-0.0,-0.7071068,0.0,0.7071067],"name":"INX124 - Inox Panel Holder Pad wlo Notch Part [8724308]064"},{"mesh":5,"translation":[-1.4623379,0.8144932,-1.0696169],"rotation":[-0.70710695,3.0908613E-08,0.7071066,3.0908627E-08],"name":"INX124 - Inox Panel Holder Pad wlo Notch Part [8724308]065"},{"mesh":5,"translation":[-1.4623379,0.8144932,-1.0855927],"rotation":[-0.0,-0.7071068,0.0,0.7071067],"name":"INX124 - Inox Panel Holder Pad wlo Notch Part [8724308]066"},{"mesh":5,"translation":[-1.5405703,0.8144932,-1.0696169],"rotation":[-0.0,0.7071066,0.0,0.70710695],"name":"INX124 - Inox Panel Holder Pad wlo Notch Part [8724308]067"},{"mesh":5,"translation":[-1.5405703,0.8144932,-1.0855927],"rotation":[0.7071068,3.0908627E-08,0.7071068,-3.0908623E-08],"name":"INX124 - Inox Panel Holder Pad wlo Notch Part [8724308]068"},{"mesh":5,"translation":[-1.4623379,1.2938929,-1.0696169],"rotation":[-0.70710695,3.0908613E-08,0.7071066,3.0908627E-08],"name":"INX124 - Inox Panel Holder Pad wlo Notch Part [8724308]069"},{"mesh":5,"translation":[-1.4623379,1.2938929,-1.0855927],"rotation":[-0.0,-0.7071068,0.0,0.7071067],"name":"INX124 - Inox Panel Holder Pad wlo Notch Part [8724308]070"},{"mesh":5,"translation":[-1.5405703,1.2938929,-1.0696169],"rotation":[-0.0,0.7071066,0.0,0.70710695],"name":"INX124 - Inox Panel Holder Pad wlo Notch Part [8724308]071"},{"mesh":5,"translation":[-1.5405703,1.2938929,-1.0855927],"rotation":[0.7071068,3.0908627E-08,0.7071068,-3.0908623E-08],"name":"INX124 - Inox Panel Holder Pad wlo Notch Part [8724308]072"},{"mesh":5,"translation":[-0.6638262,1.3632439,-0.03149189],"rotation":[-0.0,-0.7071068,0.0,0.7071067],"name":"INX124 - Inox Panel Holder Pad wlo Notch Part [8724308]073"},{"mesh":5,"translation":[-0.6638262,1.3632439,-0.015516124],"rotation":[-0.70710695,3.0908613E-08,0.7071066,3.0908627E-08],"name":"INX124 - Inox Panel Holder Pad wlo Notch Part [8724308]074"},{"mesh":5,"translation":[-0.7420586,1.3632439,-0.03149189],"rotation":[0.7071068,5.3385083E-08,0.7071068,-5.3385083E-08],"name":"INX124 - Inox Panel Holder Pad wlo Notch Part [8724308]075"},{"mesh":5,"translation":[-0.7420586,1.3632439,-0.015516124],"rotation":[-0.0,0.7071066,0.0,0.70710695],"name":"INX124 - Inox Panel Holder Pad wlo Notch Part [8724308]076"},{"mesh":5,"translation":[-0.6638262,1.8426435,-0.03149189],"rotation":[-0.0,-0.7071068,0.0,0.7071067],"name":"INX124 - Inox Panel Holder Pad wlo Notch Part [8724308]077"},{"mesh":5,"translation":[-0.6638262,1.8426435,-0.015516124],"rotation":[-0.70710695,3.0908613E-08,0.7071066,3.0908627E-08],"name":"INX124 - Inox Panel Holder Pad wlo Notch Part [8724308]078"},{"mesh":5,"translation":[-0.7420586,1.8426435,-0.03149189],"rotation":[0.7071068,5.3385083E-08,0.7071068,-5.3385083E-08],"name":"INX124 - Inox Panel Holder Pad wlo Notch Part [8724308]079"},{"mesh":5,"translation":[-0.7420586,1.8426435,-0.015516124],"rotation":[-0.0,0.7071066,0.0,0.70710695],"name":"INX124 - Inox Panel Holder Pad wlo Notch Part [8724308]080"},{"mesh":5,"translation":[-0.6638262,1.3632439,-1.0696169],"rotation":[-0.70710695,3.0908613E-08,0.7071066,3.0908627E-08],"name":"INX124 - Inox Panel Holder Pad wlo Notch Part [8724308]081"},{"mesh":5,"translation":[-0.6638262,1.3632439,-1.0855927],"rotation":[-0.0,-0.7071068,0.0,0.7071067],"name":"INX124 - Inox Panel Holder Pad wlo Notch Part [8724308]082"},{"mesh":5,"translation":[-0.7420586,1.3632439,-1.0696169],"rotation":[-0.0,0.7071066,0.0,0.70710695],"name":"INX124 - Inox Panel Holder Pad wlo Notch Part [8724308]083"},{"mesh":5,"translation":[-0.7420586,1.3632439,-1.0855927],"rotation":[0.7071068,3.0908627E-08,0.7071068,-3.0908623E-08],"name":"INX124 - Inox Panel Holder Pad wlo Notch Part [8724308]084"},{"mesh":5,"translation":[-0.6638262,1.8426435,-1.0696169],"rotation":[-0.70710695,3.0908613E-08,0.7071066,3.0908627E-08],"name":"INX124 - Inox Panel Holder Pad wlo Notch Part [8724308]085"},{"mesh":5,"translation":[-0.6638262,1.8426435,-1.0855927],"rotation":[-0.0,-0.7071068,0.0,0.7071067],"name":"INX124 - Inox Panel Holder Pad wlo Notch Part [8724308]086"},{"mesh":5,"translation":[-0.7420586,1.8426435,-1.0696169],"rotation":[-0.0,0.7071066,0.0,0.70710695],"name":"INX124 - Inox Panel Holder Pad wlo Notch Part [8724308]087"},{"mesh":5,"translation":[-0.7420586,1.8426435,-1.0855927],"rotation":[0.7071068,3.0908627E-08,0.7071068,-3.0908623E-08],"name":"INX124 - Inox Panel Holder Pad wlo Notch Part [8724308]088"},{"mesh":6,"translation":[-1.4670562,0.83001256,-0.010690837],"rotation":[2.3984358E-15,0.7071066,-2.3984348E-15,0.70710695],"name":"HW73459 & HW79041 - 1l4-20 x 1l2 SHCS Hardware [8464158]"},{"mesh":6,"translation":[-1.4670562,0.7989738,-0.010690837],"rotation":[2.3984358E-15,0.7071066,-2.3984348E-15,0.70710695],"name":"HW73459 & HW79041 - 1l4-20 x 1l2 SHCS Hardware [8464158]001"},{"mesh":6,"translation":[-1.5358542,0.83001256,-0.010690837],"rotation":[-0.0,0.7071066,0.0,0.70710695],"name":"HW73459 & HW79041 - 1l4-20 x 1l2 SHCS Hardware [8464158]002"},{"mesh":6,"translation":[-1.5358542,0.7989738,-0.010690837],"rotation":[-0.0,0.7071066,0.0,0.70710695],"name":"HW73459 & HW79041 - 1l4-20 x 1l2 SHCS Hardware [8464158]003"},{"mesh":6,"translation":[-1.4670562,1.3094122,-0.010690837],"rotation":[2.3984358E-15,0.7071066,-2.3984348E-15,0.70710695],"name":"HW73459 & HW79041 - 1l4-20 x 1l2 SHCS Hardware [8464158]004"},{"mesh":6,"translation":[-1.4670562,1.2783735,-0.010690837],"rotation":[2.3984358E-15,0.7071066,-2.3984348E-15,0.70710695],"name":"HW73459 & HW79041 - 1l4-20 x 1l2 SHCS Hardware [8464158]005"},{"mesh":6,"translation":[-1.5358542,1.3094122,-0.010690837],"rotation":[-0.0,0.7071066,0.0,0.70710695],"name":"HW73459 & HW79041 - 1l4-20 x 1l2 SHCS Hardware [8464158]006"},{"mesh":6,"translation":[-1.5358542,1.2783735,-0.010690837],"rotation":[-0.0,0.7071066,0.0,0.70710695],"name":"HW73459 & HW79041 - 1l4-20 x 1l2 SHCS Hardware [8464158]007"},{"mesh":6,"translation":[1.4578459,2.8850083,-0.010762134],"rotation":[-0.0,0.7071068,0.0,0.7071067],"name":"HW73459 & HW79041 - 1l4-20 x 1l2 SHCS Hardware [8464158]008"},{"mesh":6,"translation":[1.4578459,2.8539693,-0.010762134],"rotation":[-0.0,0.7071068,0.0,0.7071067],"name":"HW73459 & HW79041 - 1l4-20 x 1l2 SHCS Hardware [8464158]009"},{"mesh":6,"translation":[1.4578459,3.3646364,-0.010762134],"rotation":[-0.0,0.7071068,0.0,0.7071067],"name":"HW73459 & HW79041 - 1l4-20 x 1l2 SHCS Hardware [8464158]010"},{"mesh":6,"translation":[1.4578459,3.3335977,-0.010762134],"rotation":[-0.0,0.7071068,0.0,0.7071067],"name":"HW73459 & HW79041 - 1l4-20 x 1l2 SHCS Hardware [8464158]011"},{"mesh":6,"translation":[0.9301944,2.4761446,-0.010762134],"rotation":[2.3984354E-15,0.7071068,-2.3984356E-15,0.7071067],"name":"HW73459 & HW79041 - 1l4-20 x 1l2 SHCS Hardware [8464158]012"},{"mesh":6,"translation":[0.9301944,2.4451058,-0.010762134],"rotation":[2.3984354E-15,0.7071068,-2.3984356E-15,0.7071067],"name":"HW73459 & HW79041 - 1l4-20 x 1l2 SHCS Hardware [8464158]013"},{"mesh":6,"translation":[0.86139625,2.4761446,-0.010762134],"rotation":[-0.0,0.7071068,0.0,0.7071067],"name":"HW73459 & HW79041 - 1l4-20 x 1l2 SHCS Hardware [8464158]014"},{"mesh":6,"translation":[0.86139625,2.4451058,-0.010762134],"rotation":[-0.0,0.7071068,0.0,0.7071067],"name":"HW73459 & HW79041 - 1l4-20 x 1l2 SHCS Hardware [8464158]015"},{"mesh":6,"translation":[0.9301944,2.9553156,-0.010762134],"rotation":[2.3984354E-15,0.7071068,-2.3984356E-15,0.7071067],"name":"HW73459 & HW79041 - 1l4-20 x 1l2 SHCS Hardware [8464158]016"},{"mesh":6,"translation":[0.9301944,2.9242768,-0.010762134],"rotation":[2.3984354E-15,0.7071068,-2.3984356E-15,0.7071067],"name":"HW73459 & HW79041 - 1l4-20 x 1l2 SHCS Hardware [8464158]017"},{"mesh":6,"translation":[0.86139625,2.9553156,-0.010762134],"rotation":[-0.0,0.7071068,0.0,0.7071067],"name":"HW73459 & HW79041 - 1l4-20 x 1l2 SHCS Hardware [8464158]018"},{"mesh":6,"translation":[0.86139625,2.9242768,-0.010762134],"rotation":[-0.0,0.7071068,0.0,0.7071067],"name":"HW73459 & HW79041 - 1l4-20 x 1l2 SHCS Hardware [8464158]019"},{"mesh":6,"translation":[0.13076876,1.9275044,-0.010762134],"rotation":[2.3984354E-15,0.7071068,-2.3984356E-15,0.7071067],"name":"HW73459 & HW79041 - 1l4-20 x 1l2 SHCS Hardware [8464158]024"},{"mesh":6,"translation":[0.13076876,1.8964657,-0.010762134],"rotation":[2.3984354E-15,0.7071068,-2.3984356E-15,0.7071067],"name":"HW73459 & HW79041 - 1l4-20 x 1l2 SHCS Hardware [8464158]025"},{"mesh":6,"translation":[0.061970636,1.9275044,-0.010762134],"rotation":[-0.0,0.7071068,0.0,0.7071067],"name":"HW73459 & HW79041 - 1l4-20 x 1l2 SHCS Hardware [8464158]026"},{"mesh":6,"translation":[0.061970636,1.8964657,-0.010762134],"rotation":[-0.0,0.7071068,0.0,0.7071067],"name":"HW73459 & HW79041 - 1l4-20 x 1l2 SHCS Hardware [8464158]027"},{"mesh":6,"translation":[0.13076876,2.4066753,-0.010762134],"rotation":[2.3984354E-15,0.7071068,-2.3984356E-15,0.7071067],"name":"HW73459 & HW79041 - 1l4-20 x 1l2 SHCS Hardware [8464158]028"},{"mesh":6,"translation":[0.13076876,2.3756366,-0.010762134],"rotation":[2.3984354E-15,0.7071068,-2.3984356E-15,0.7071067],"name":"HW73459 & HW79041 - 1l4-20 x 1l2 SHCS Hardware [8464158]029"},{"mesh":6,"translation":[0.061970636,2.4066753,-0.010762134],"rotation":[-0.0,0.7071068,0.0,0.7071067],"name":"HW73459 & HW79041 - 1l4-20 x 1l2 SHCS Hardware [8464158]030"},{"mesh":6,"translation":[0.061970636,2.3756366,-0.010762134],"rotation":[-0.0,0.7071068,0.0,0.7071067],"name":"HW73459 & HW79041 - 1l4-20 x 1l2 SHCS Hardware [8464158]031"},{"mesh":6,"translation":[-2.0628982,0.42143682,-0.010690837],"rotation":[2.3984358E-15,0.7071066,-2.3984348E-15,0.70710695],"name":"HW73459 & HW79041 - 1l4-20 x 1l2 SHCS Hardware [8464158]036"},{"mesh":6,"translation":[-2.0628982,0.39039803,-0.010690837],"rotation":[2.3984358E-15,0.7071066,-2.3984348E-15,0.70710695],"name":"HW73459 & HW79041 - 1l4-20 x 1l2 SHCS Hardware [8464158]037"},{"mesh":6,"translation":[-2.0628982,0.89880437,-0.010690837],"rotation":[2.3984358E-15,0.7071066,-2.3984348E-15,0.70710695],"name":"HW73459 & HW79041 - 1l4-20 x 1l2 SHCS Hardware [8464158]038"},{"mesh":6,"translation":[-2.0628982,0.86776555,-0.010690837],"rotation":[2.3984358E-15,0.7071066,-2.3984348E-15,0.70710695],"name":"HW73459 & HW79041 - 1l4-20 x 1l2 SHCS Hardware [8464158]039"},{"mesh":6,"translation":[0.9301944,2.4761446,-1.0904869],"rotation":[-0.0,-0.7071068,0.0,0.7071067],"name":"HW73459 & HW79041 - 1l4-20 x 1l2 SHCS Hardware [8464158]040"},{"mesh":6,"translation":[0.9301944,2.4451058,-1.0904869],"rotation":[-0.0,-0.7071068,0.0,0.7071067],"name":"HW73459 & HW79041 - 1l4-20 x 1l2 SHCS Hardware [8464158]041"},{"mesh":6,"translation":[0.86139625,2.4761446,-1.0904869],"rotation":[2.398435E-15,-0.7071068,2.3984356E-15,0.7071067],"name":"HW73459 & HW79041 - 1l4-20 x 1l2 SHCS Hardware [8464158]042"},{"mesh":6,"translation":[0.86139625,2.4451058,-1.0904869],"rotation":[2.398435E-15,-0.7071068,2.3984356E-15,0.7071067],"name":"HW73459 & HW79041 - 1l4-20 x 1l2 SHCS Hardware [8464158]043"},{"mesh":6,"translation":[0.9301944,2.9553156,-1.0904869],"rotation":[-0.0,-0.7071068,0.0,0.7071067],"name":"HW73459 & HW79041 - 1l4-20 x 1l2 SHCS Hardware [8464158]044"},{"mesh":6,"translation":[0.9301944,2.9242768,-1.0904869],"rotation":[-0.0,-0.7071068,0.0,0.7071067],"name":"HW73459 & HW79041 - 1l4-20 x 1l2 SHCS Hardware [8464158]045"},{"mesh":6,"translation":[0.86139625,2.9553156,-1.0904869],"rotation":[2.398435E-15,-0.7071068,2.3984356E-15,0.7071067],"name":"HW73459 & HW79041 - 1l4-20 x 1l2 SHCS Hardware [8464158]046"},{"mesh":6,"translation":[0.86139625,2.9242768,-1.0904869],"rotation":[2.398435E-15,-0.7071068,2.3984356E-15,0.7071067],"name":"HW73459 & HW79041 - 1l4-20 x 1l2 SHCS Hardware [8464158]047"},{"mesh":6,"translation":[0.13076876,1.9275044,-1.0904869],"rotation":[-0.0,-0.7071068,0.0,0.7071067],"name":"HW73459 & HW79041 - 1l4-20 x 1l2 SHCS Hardware [8464158]048"},{"mesh":6,"translation":[0.13076876,1.8964657,-1.0904869],"rotation":[-0.0,-0.7071068,0.0,0.7071067],"name":"HW73459 & HW79041 - 1l4-20 x 1l2 SHCS Hardware [8464158]049"},{"mesh":6,"translation":[0.061970636,1.9275044,-1.0904869],"rotation":[2.398435E-15,-0.7071068,2.3984356E-15,0.7071067],"name":"HW73459 & HW79041 - 1l4-20 x 1l2 SHCS Hardware [8464158]050"},{"mesh":6,"translation":[0.061970636,1.8964657,-1.0904869],"rotation":[2.398435E-15,-0.7071068,2.3984356E-15,0.7071067],"name":"HW73459 & HW79041 - 1l4-20 x 1l2 SHCS Hardware [8464158]051"},{"mesh":6,"translation":[0.13076876,2.4066753,-1.0904869],"rotation":[-0.0,-0.7071068,0.0,0.7071067],"name":"HW73459 & HW79041 - 1l4-20 x 1l2 SHCS Hardware [8464158]052"},{"mesh":6,"translation":[0.13076876,2.3756366,-1.0904869],"rotation":[-0.0,-0.7071068,0.0,0.7071067],"name":"HW73459 & HW79041 - 1l4-20 x 1l2 SHCS Hardware [8464158]053"},{"mesh":6,"translation":[0.061970636,2.4066753,-1.0904869],"rotation":[2.398435E-15,-0.7071068,2.3984356E-15,0.7071067],"name":"HW73459 & HW79041 - 1l4-20 x 1l2 SHCS Hardware [8464158]054"},{"mesh":6,"translation":[0.061970636,2.3756366,-1.0904869],"rotation":[2.398435E-15,-0.7071068,2.3984356E-15,0.7071067],"name":"HW73459 & HW79041 - 1l4-20 x 1l2 SHCS Hardware [8464158]055"},{"mesh":6,"translation":[1.4594319,2.8850083,-1.0904869],"rotation":[2.398435E-15,-0.7071068,2.3984356E-15,0.7071067],"name":"HW73459 & HW79041 - 1l4-20 x 1l2 SHCS Hardware [8464158]056"},{"mesh":6,"translation":[1.4594319,2.8539693,-1.0904869],"rotation":[2.398435E-15,-0.7071068,2.3984356E-15,0.7071067],"name":"HW73459 & HW79041 - 1l4-20 x 1l2 SHCS Hardware [8464158]057"},{"mesh":6,"translation":[1.4594319,3.3646364,-1.0904869],"rotation":[2.398435E-15,-0.7071068,2.3984356E-15,0.7071067],"name":"HW73459 & HW79041 - 1l4-20 x 1l2 SHCS Hardware [8464158]058"},{"mesh":6,"translation":[1.4594319,3.3335977,-1.0904869],"rotation":[2.398435E-15,-0.7071068,2.3984356E-15,0.7071067],"name":"HW73459 & HW79041 - 1l4-20 x 1l2 SHCS Hardware [8464158]059"},{"mesh":6,"translation":[-2.0628982,0.42143682,-1.0904157],"rotation":[-0.0,-0.7071068,0.0,0.7071067],"name":"HW73459 & HW79041 - 1l4-20 x 1l2 SHCS Hardware [8464158]060"},{"mesh":6,"translation":[-2.0628982,0.39039803,-1.0904157],"rotation":[-0.0,-0.7071068,0.0,0.7071067],"name":"HW73459 & HW79041 - 1l4-20 x 1l2 SHCS Hardware [8464158]061"},{"mesh":6,"translation":[-2.0628982,0.89880437,-1.0904157],"rotation":[-0.0,-0.7071068,0.0,0.7071067],"name":"HW73459 & HW79041 - 1l4-20 x 1l2 SHCS Hardware [8464158]062"},{"mesh":6,"translation":[-2.0628982,0.86776555,-1.0904157],"rotation":[-0.0,-0.7071068,0.0,0.7071067],"name":"HW73459 & HW79041 - 1l4-20 x 1l2 SHCS Hardware [8464158]063"},{"mesh":6,"translation":[-1.4670562,0.83001256,-1.0904156],"rotation":[-0.0,-0.7071068,0.0,0.7071067],"name":"HW73459 & HW79041 - 1l4-20 x 1l2 SHCS Hardware [8464158]064"},{"mesh":6,"translation":[-1.4670562,0.7989738,-1.0904156],"rotation":[-0.0,-0.7071068,0.0,0.7071067],"name":"HW73459 & HW79041 - 1l4-20 x 1l2 SHCS Hardware [8464158]065"},{"mesh":6,"translation":[-1.5358542,0.83001256,-1.0904156],"rotation":[2.3984354E-15,-0.7071068,2.3984356E-15,0.7071067],"name":"HW73459 & HW79041 - 1l4-20 x 1l2 SHCS Hardware [8464158]066"},{"mesh":6,"translation":[-1.5358542,0.7989738,-1.0904156],"rotation":[2.3984354E-15,-0.7071068,2.3984356E-15,0.7071067],"name":"HW73459 & HW79041 - 1l4-20 x 1l2 SHCS Hardware [8464158]067"},{"mesh":6,"translation":[-1.4670562,1.3094122,-1.0904156],"rotation":[-0.0,-0.7071068,0.0,0.7071067],"name":"HW73459 & HW79041 - 1l4-20 x 1l2 SHCS Hardware [8464158]068"},{"mesh":6,"translation":[-1.4670562,1.2783735,-1.0904156],"rotation":[-0.0,-0.7071068,0.0,0.7071067],"name":"HW73459 & HW79041 - 1l4-20 x 1l2 SHCS Hardware [8464158]069"},{"mesh":6,"translation":[-1.5358542,1.3094122,-1.0904156],"rotation":[2.3984354E-15,-0.7071068,2.3984356E-15,0.7071067],"name":"HW73459 & HW79041 - 1l4-20 x 1l2 SHCS Hardware [8464158]070"},{"mesh":6,"translation":[-1.5358542,1.2783735,-1.0904156],"rotation":[2.3984354E-15,-0.7071068,2.3984356E-15,0.7071067],"name":"HW73459 & HW79041 - 1l4-20 x 1l2 SHCS Hardware [8464158]071"},{"mesh":6,"translation":[-0.66854453,1.3787634,-0.010690837],"rotation":[2.3984358E-15,0.7071066,-2.3984348E-15,0.70710695],"name":"HW73459 & HW79041 - 1l4-20 x 1l2 SHCS Hardware [8464158]072"},{"mesh":6,"translation":[-0.66854453,1.3477246,-0.010690837],"rotation":[2.3984358E-15,0.7071066,-2.3984348E-15,0.70710695],"name":"HW73459 & HW79041 - 1l4-20 x 1l2 SHCS Hardware [8464158]073"},{"mesh":6,"translation":[-0.7373426,1.3787634,-0.010690837],"rotation":[-0.0,0.7071066,0.0,0.70710695],"name":"HW73459 & HW79041 - 1l4-20 x 1l2 SHCS Hardware [8464158]074"},{"mesh":6,"translation":[-0.7373426,1.3477246,-0.010690837],"rotation":[-0.0,0.7071066,0.0,0.70710695],"name":"HW73459 & HW79041 - 1l4-20 x 1l2 SHCS Hardware [8464158]075"},{"mesh":6,"translation":[-0.66854453,1.8581629,-0.010690837],"rotation":[2.3984358E-15,0.7071066,-2.3984348E-15,0.70710695],"name":"HW73459 & HW79041 - 1l4-20 x 1l2 SHCS Hardware [8464158]076"},{"mesh":6,"translation":[-0.66854453,1.8271241,-0.010690837],"rotation":[2.3984358E-15,0.7071066,-2.3984348E-15,0.70710695],"name":"HW73459 & HW79041 - 1l4-20 x 1l2 SHCS Hardware [8464158]077"},{"mesh":6,"translation":[-0.7373426,1.8581629,-0.010690837],"rotation":[-0.0,0.7071066,0.0,0.70710695],"name":"HW73459 & HW79041 - 1l4-20 x 1l2 SHCS Hardware [8464158]078"},{"mesh":6,"translation":[-0.7373426,1.8271241,-0.010690837],"rotation":[-0.0,0.7071066,0.0,0.70710695],"name":"HW73459 & HW79041 - 1l4-20 x 1l2 SHCS Hardware [8464158]079"},{"mesh":6,"translation":[-0.66854453,1.3787634,-1.0904156],"rotation":[-0.0,-0.7071068,0.0,0.7071067],"name":"HW73459 & HW79041 - 1l4-20 x 1l2 SHCS Hardware [8464158]080"},{"mesh":6,"translation":[-0.66854453,1.3477246,-1.0904156],"rotation":[-0.0,-0.7071068,0.0,0.7071067],"name":"HW73459 & HW79041 - 1l4-20 x 1l2 SHCS Hardware [8464158]081"},{"mesh":6,"translation":[-0.7373426,1.3787634,-1.0904156],"rotation":[2.3984354E-15,-0.7071068,2.3984356E-15,0.7071067],"name":"HW73459 & HW79041 - 1l4-20 x 1l2 SHCS Hardware [8464158]082"},{"mesh":6,"translation":[-0.7373426,1.3477246,-1.0904156],"rotation":[2.3984354E-15,-0.7071068,2.3984356E-15,0.7071067],"name":"HW73459 & HW79041 - 1l4-20 x 1l2 SHCS Hardware [8464158]083"},{"mesh":6,"translation":[-0.66854453,1.8581629,-1.0904156],"rotation":[-0.0,-0.7071068,0.0,0.7071067],"name":"HW73459 & HW79041 - 1l4-20 x 1l2 SHCS Hardware [8464158]084"},{"mesh":6,"translation":[-0.66854453,1.8271241,-1.0904156],"rotation":[-0.0,-0.7071068,0.0,0.7071067],"name":"HW73459 & HW79041 - 1l4-20 x 1l2 SHCS Hardware [8464158]085"},{"mesh":6,"translation":[-0.7373426,1.8581629,-1.0904156],"rotation":[2.3984354E-15,-0.7071068,2.3984356E-15,0.7071067],"name":"HW73459 & HW79041 - 1l4-20 x 1l2 SHCS Hardware [8464158]086"},{"mesh":6,"translation":[-0.7373426,1.8271241,-1.0904156],"rotation":[2.3984354E-15,-0.7071068,2.3984356E-15,0.7071067],"name":"HW73459 & HW79041 - 1l4-20 x 1l2 SHCS Hardware [8464158]087"},{"mesh":7,"translation":[-1.501454,1.4489366,-0.023504008],"rotation":[-0.0,-0.7071068,0.0,0.7071067],"name":"CSQ022 - Square Post Omaha Cap Part [8465283]019"},{"mesh":7,"translation":[-2.0972962,1.0396241,-0.023504008],"rotation":[-0.0,-0.7071068,0.0,0.7071067],"name":"CSQ022 - Square Post Omaha Cap Part [8465283]018"},{"mesh":7,"translation":[1.4922438,3.5042574,-0.02357298],"rotation":[-0.0,-0.7071068,0.0,0.7071067],"name":"CSQ022 - Square Post Omaha Cap Part [8465283]017"},{"mesh":7,"translation":[0.89579415,3.094911,-0.02357298],"rotation":[-0.0,-0.7071068,0.0,0.7071067],"name":"CSQ022 - Square Post Omaha Cap Part [8465283]016"},{"mesh":7,"translation":[0.09636854,2.546271,-0.02357298],"rotation":[-0.0,-0.7071068,0.0,0.7071067],"name":"CSQ022 - Square Post Omaha Cap Part [8465283]013"},{"mesh":7,"translation":[0.89579415,3.094911,-1.0776738],"rotation":[-0.0,0.7071068,0.0,0.7071067],"name":"CSQ022 - Square Post Omaha Cap Part [8465283]012"},{"mesh":7,"translation":[0.09636854,2.546271,-1.0776738],"rotation":[-0.0,0.7071068,0.0,0.7071067],"name":"CSQ022 - Square Post Omaha Cap Part [8465283]011"},{"mesh":7,"translation":[1.4938321,3.5042574,-1.0776738],"rotation":[-0.0,0.7071068,0.0,0.7071067],"name":"CSQ022 - Square Post Omaha Cap Part [8465283]010"},{"mesh":7,"translation":[-2.0972962,1.0396241,-1.0776049],"rotation":[-0.0,0.7071066,0.0,0.70710695],"name":"CSQ022 - Square Post Omaha Cap Part [8465283]009"},{"mesh":7,"translation":[-1.501454,1.4489366,-1.0776048],"rotation":[-0.0,0.7071066,0.0,0.70710695],"name":"CSQ022 - Square Post Omaha Cap Part [8465283]008"},{"mesh":7,"translation":[-0.70294243,1.9976872,-1.0776048],"rotation":[-0.0,0.7071066,0.0,0.70710695],"name":"CSQ022 - Square Post Omaha Cap Part [8465283]067"},{"mesh":7,"translation":[-0.70294243,1.9976872,-0.023504008],"rotation":[-0.0,-0.7071068,0.0,0.7071067],"name":"CSQ022 - Square Post Omaha Cap Part [8465283]068"},{"mesh":8,"translation":[-1.501454,0.5485298,-0.023504008],"rotation":[-0.49999994,-0.50000006,0.5,0.5],"scale":[1.0,0.99999994,0.99999994],"name":"LS208 & LS209 - Circum Square Post Material LS Material [8465138]"},{"mesh":8,"translation":[-0.70294243,1.0972805,-0.023504008],"rotation":[-0.49999994,-0.50000006,0.5,0.5],"scale":[1.0,0.99999994,0.99999994],"name":"LS208 & LS209 - Circum Square Post Material LS Material [8465138]001"},{"mesh":9,"translation":[-1.501454,1.4520861,-0.023504008],"rotation":[-0.0,0.7071067,0.0,0.7071068],"name":"Bent Stem_012"},{"mesh":9,"translation":[-2.0972962,1.0427736,-0.023504008],"rotation":[-0.0,0.7071067,0.0,0.7071068],"name":"Bent Stem_011"},{"mesh":9,"translation":[1.4922438,3.507407,-0.02357298],"rotation":[-0.0,0.7071067,0.0,0.7071068],"name":"Bent Stem_007"},{"mesh":9,"translation":[0.89579415,3.0980606,-0.02357298],"rotation":[-0.0,0.7071067,0.0,0.7071068],"name":"Bent Stem_006"},{"mesh":9,"translation":[0.09636854,2.5494206,-0.02357298],"rotation":[-0.0,0.7071067,0.0,0.7071068],"name":"Bent Stem_004"},{"mesh":9,"translation":[0.89579415,3.0980606,-1.0776738],"rotation":[-0.0,0.7071068,0.0,0.7071067],"name":"Bent Stem_003"},{"mesh":9,"translation":[0.09636854,2.5494206,-1.0776738],"rotation":[-0.0,0.7071068,0.0,0.7071067],"name":"Bent Stem_002"},{"mesh":9,"translation":[1.4938321,3.507407,-1.0776738],"rotation":[-0.0,0.7071068,0.0,0.7071067],"name":"Bent Stem_001"},{"mesh":9,"translation":[-2.0972962,1.0427736,-1.0776049],"rotation":[-0.0,0.7071066,0.0,0.70710695],"name":"Bent Stem_009"},{"mesh":9,"translation":[-1.501454,1.4520861,-1.0776048],"rotation":[-0.0,0.7071066,0.0,0.70710695],"name":"Bent Stem_008"},{"mesh":9,"translation":[-0.70294243,2.0008368,-1.0776048],"rotation":[-0.0,0.7071066,0.0,0.70710695],"name":"Bent Stem_038"},{"mesh":9,"translation":[-0.70294243,2.0008368,-0.023504008],"rotation":[-0.0,0.7071067,0.0,0.7071068],"name":"Bent Stem_039"},{"mesh":10,"translation":[-1.540947,1.5361292,-0.023504008],"rotation":[-0.6257521,0.3292938,-0.3292938,0.6257521],"scale":[0.99999994,1.0,0.99999994],"name":"CIR057 - 1 1l2 Rail Saddle Part [8723174]001"},{"mesh":10,"translation":[-2.136789,1.126817,-0.023504008],"rotation":[-0.6257521,0.3292938,-0.3292938,0.6257521],"scale":[0.99999994,1.0,0.99999994],"name":"CIR057 - 1 1l2 Rail Saddle Part [8723174]002"},{"mesh":10,"translation":[1.4527857,3.591458,-0.02357298],"rotation":[-0.62566584,0.32945764,-0.32945758,0.6256658],"name":"CIR057 - 1 1l2 Rail Saddle Part [8723174]003"},{"mesh":10,"translation":[0.8563361,3.182112,-0.02357298],"rotation":[-0.62566584,0.32945764,-0.32945758,0.6256658],"name":"CIR057 - 1 1l2 Rail Saddle Part [8723174]004"},{"mesh":10,"translation":[0.05691048,2.6334717,-0.02357298],"rotation":[-0.62566584,0.32945764,-0.32945758,0.6256658],"name":"CIR057 - 1 1l2 Rail Saddle Part [8723174]007"},{"mesh":10,"translation":[0.8563361,3.182112,-1.0776738],"rotation":[0.6256658,-0.3294576,-0.32945758,0.6256658],"name":"CIR057 - 1 1l2 Rail Saddle Part [8723174]008"},{"mesh":10,"translation":[0.05691048,2.6334717,-1.0776738],"rotation":[0.6256658,-0.3294576,-0.32945758,0.6256658],"name":"CIR057 - 1 1l2 Rail Saddle Part [8723174]009"},{"mesh":10,"translation":[1.4543741,3.591458,-1.0776738],"rotation":[0.6256658,-0.3294576,-0.32945758,0.6256658],"name":"CIR057 - 1 1l2 Rail Saddle Part [8723174]010"},{"mesh":10,"translation":[-2.136789,1.126817,-1.0776049],"rotation":[0.625752,-0.32929376,-0.32929376,0.6257521],"scale":[0.99999994,1.0,0.99999994],"name":"CIR057 - 1 1l2 Rail Saddle Part [8723174]011"},{"mesh":10,"translation":[-1.540947,1.5361292,-1.0776048],"rotation":[0.625752,-0.32929376,-0.32929376,0.6257521],"scale":[0.99999994,1.0,0.99999994],"name":"CIR057 - 1 1l2 Rail Saddle Part [8723174]012"},{"mesh":10,"translation":[-0.7424353,2.0848799,-0.023504008],"rotation":[-0.6257521,0.3292938,-0.3292938,0.6257521],"scale":[0.99999994,1.0,0.99999994],"name":"CIR057 - 1 1l2 Rail Saddle Part [8723174]100"},{"mesh":10,"translation":[-0.7424353,2.0848799,-1.0776048],"rotation":[0.625752,-0.32929376,-0.32929376,0.6257521],"scale":[0.99999994,1.0,0.99999994],"name":"CIR057 - 1 1l2 Rail Saddle Part [8723174]101"},{"mesh":11,"translation":[-2.0972962,0.18288001,-0.023504008],"rotation":[-0.49999994,-0.50000006,0.5,0.5],"scale":[1.0,0.99999994,0.99999994],"name":"LS208 & LS209 - Circum Square Post Material LS Material [8465182]"},{"mesh":12,"translation":[1.4922438,2.56032,-0.02357298],"rotation":[-0.5,-0.5,0.50000006,0.49999994],"name":"LS208 & LS209 - Circum Square Post Material LS Material [8465192]"},{"mesh":13,"translation":[0.89579415,2.19456,-0.02357298],"rotation":[-0.5,-0.5,0.50000006,0.49999994],"name":"LS208 & LS209 - Circum Square Post Material LS Material [8465201]"},{"mesh":14,"translation":[0.09636854,1.64592,-0.02357298],"rotation":[-0.5,-0.5,0.50000006,0.49999994],"name":"LS208 & LS209 - Circum Square Post Material LS Material [8465294]"},{"mesh":15,"translation":[-2.1690593,1.0815789,-0.023504008],"rotation":[-0.6753157,-0.2096399,0.20963977,0.6753155],"name":"CIR024 - Handrail End Cap Part [8482091]003"},{"mesh":15,"translation":[1.5596397,3.6416814,-0.023503508],"rotation":[-0.20945993,0.67537135,0.67537147,-0.20945992],"name":"CIR024 - Handrail End Cap Part [8482091]002"},{"mesh":15,"translation":[1.5596397,3.6416814,-1.077678],"rotation":[-0.20945993,0.67537135,0.67537147,-0.20945992],"name":"CIR024 - Handrail End Cap Part [8482091]008"},{"mesh":15,"translation":[-2.1690593,1.0815789,-1.0776784],"rotation":[-0.6753157,-0.2096399,0.20963977,0.6753155],"name":"CIR024 - Handrail End Cap Part [8482091]009"},{"mesh":16,"translation":[-0.24874829,2.3998632,-0.023503654],"rotation":[-0.0,-0.0,-0.46584624,0.8848657],"name":"CIR061 - 1 1l2 Rail-To-Rail Connector Part [8719260]004"},{"mesh":16,"translation":[-0.24874829,2.3998632,-1.0776781],"rotation":[-0.0,-0.0,-0.46584624,0.8848657],"name":"CIR061 - 1 1l2 Rail-To-Rail Connector Part [8719260]005"},{"mesh":17,"translation":[0.89579415,2.19456,-1.0776738],"rotation":[0.5,0.5,0.50000006,0.49999994],"scale":[1.0,0.99999994,0.99999994],"name":"LS208 & LS209 - Circum Square Post Material LS Material [8722346]"},{"mesh":18,"translation":[0.09636854,1.64592,-1.0776738],"rotation":[0.5,0.5,0.50000006,0.49999994],"scale":[1.0,0.99999994,0.99999994],"name":"LS208 & LS209 - Circum Square Post Material LS Material [8722432]"},{"mesh":19,"translation":[1.4938321,2.56032,-1.0776738],"rotation":[0.5,0.5,0.50000006,0.49999994],"scale":[1.0,0.99999994,0.99999994],"name":"LS208 & LS209 - Circum Square Post Material LS Material [8722582]"},{"mesh":20,"translation":[-2.0972962,0.18288001,-1.0776049],"rotation":[0.49999988,0.5,0.50000006,0.50000006],"scale":[1.0,0.99999994,0.99999994],"name":"LS208 & LS209 - Circum Square Post Material LS Material [8722751]"},{"mesh":21,"translation":[-1.501454,0.5485298,-1.0776048],"rotation":[0.49999988,0.5,0.50000006,0.50000006],"scale":[1.0,0.99999994,0.99999994],"name":"LS208 & LS209 - Circum Square Post Material LS Material [8722897]"},{"mesh":21,"translation":[-0.70294243,1.0972805,-1.0776048],"rotation":[0.49999988,0.5,0.50000006,0.50000006],"scale":[1.0,0.99999994,0.99999994],"name":"LS208 & LS209 - Circum Square Post Material LS Material [8722897]001"},{"mesh":22,"translation":[-1.7988589,0.84965265,-1.0776738],"name":"Glass Panel_007"},{"mesh":22,"translation":[-1.7988589,0.84965265,-0.023504017],"name":"Glass Panel_017"},{"mesh":23,"translation":[-0.55925155,2.1173782,-0.023503717],"rotation":[0.7071068,-0.00012347523,-0.0001233516,0.7071067],"name":"Nested_Bend Bend [8719267]001"},{"mesh":23,"translation":[-0.55925155,2.1173782,-1.0776781],"rotation":[0.7071068,-0.00012347523,-0.0001233516,0.7071067],"name":"Nested_Bend Bend [8719267]004"},{"mesh":24,"translation":[1.3641479,3.438042,-0.023503717],"rotation":[0.7071068,-0.00012347523,-0.0001233516,0.7071067],"name":"Nested_Bend Bend [8719267]003"},{"mesh":24,"translation":[1.3641479,3.438042,-1.0776781],"rotation":[0.7071068,-0.00012347523,-0.0001233516,0.7071067],"name":"Nested_Bend Bend [8719267]005"}],"meshes":[{"primitives":[{"attributes":{"POSITION":1,"TANGENT":2,"NORMAL":3,"TEXCOORD_0":4},"indices":0,"material":0}],"name":"Glass Panel_009"},{"primitives":[{"attributes":{"POSITION":6,"TANGENT":7,"NORMAL":8,"TEXCOORD_0":9},"indices":5,"material":0}],"name":"Glass Panel_011"},{"primitives":[{"attributes":{"POSITION":11,"TANGENT":12,"NORMAL":13,"TEXCOORD_0":14},"indices":10,"material":1}],"name":"CSQ001-US - Surface Mount Weldment Part [8723797]001"},{"primitives":[{"attributes":{"POSITION":16,"TANGENT":17,"NORMAL":18,"TEXCOORD_0":19},"indices":15,"material":1}],"name":"INX013 - Infill Panel Clamp Part [8723065]001"},{"primitives":[{"attributes":{"POSITION":21,"TANGENT":22,"NORMAL":23,"TEXCOORD_0":24},"indices":20,"material":1}],"name":"INX012 - Infill Panel Mount Part [8478189]001"},{"primitives":[{"attributes":{"POSITION":26,"TANGENT":27,"NORMAL":28,"TEXCOORD_0":29},"indices":25,"material":2}],"name":"INX124 - Inox Panel Holder Pad wlo Notch Part [8724308]001"},{"primitives":[{"attributes":{"POSITION":31,"TANGENT":32,"NORMAL":33,"TEXCOORD_0":34},"indices":30,"material":1}],"name":"HW73459 & HW79041 - 1l4-20 x 1l2 SHCS Hardware [8464158]"},{"primitives":[{"attributes":{"POSITION":36,"TANGENT":37,"NORMAL":38,"TEXCOORD_0":39},"indices":35,"material":1}],"name":"CSQ022 - Square Post Omaha Cap Part [8465283]019"},{"primitives":[{"attributes":{"POSITION":41,"TANGENT":42,"NORMAL":43,"TEXCOORD_0":44},"indices":40,"material":1}],"name":"LS208 & LS209 - Circum Square Post Material LS Material [8465138]"},{"primitives":[{"attributes":{"POSITION":46,"TANGENT":47,"NORMAL":48,"TEXCOORD_0":49},"indices":45,"material":1}],"name":"Bent Stem_012"},{"primitives":[{"attributes":{"POSITION":51,"TANGENT":52,"NORMAL":53,"TEXCOORD_0":54},"indices":50,"material":1}],"name":"CIR057 - 1 1l2 Rail Saddle Part [8723174]001"},{"primitives":[{"attributes":{"POSITION":56,"TANGENT":57,"NORMAL":58,"TEXCOORD_0":59},"indices":55,"material":1}],"name":"LS208 & LS209 - Circum Square Post Material LS Material [8465182]"},{"primitives":[{"attributes":{"POSITION":61,"TANGENT":62,"NORMAL":63,"TEXCOORD_0":64},"indices":60,"material":1}],"name":"LS208 & LS209 - Circum Square Post Material LS Material [8465192]"},{"primitives":[{"attributes":{"POSITION":66,"TANGENT":67,"NORMAL":68,"TEXCOORD_0":69},"indices":65,"material":1}],"name":"LS208 & LS209 - Circum Square Post Material LS Material [8465201]"},{"primitives":[{"attributes":{"POSITION":71,"TANGENT":72,"NORMAL":73,"TEXCOORD_0":74},"indices":70,"material":1}],"name":"LS208 & LS209 - Circum Square Post Material LS Material [8465294]"},{"primitives":[{"attributes":{"POSITION":76,"TANGENT":77,"NORMAL":78,"TEXCOORD_0":79},"indices":75,"material":1},{"attributes":{"POSITION":81,"TANGENT":82,"NORMAL":83,"TEXCOORD_0":84},"indices":80,"material":3}],"name":"CIR024 - Handrail End Cap Part [8482091]003"},{"primitives":[{"attributes":{"POSITION":86,"TANGENT":87,"NORMAL":88,"TEXCOORD_0":89},"indices":85,"material":1}],"name":"CIR061 - 1 1l2 Rail-To-Rail Connector Part [8719260]004"},{"primitives":[{"attributes":{"POSITION":91,"TANGENT":92,"NORMAL":93,"TEXCOORD_0":94},"indices":90,"material":1}],"name":"LS208 & LS209 - Circum Square Post Material LS Material [8722346]"},{"primitives":[{"attributes":{"POSITION":96,"TANGENT":97,"NORMAL":98,"TEXCOORD_0":99},"indices":95,"material":1}],"name":"LS208 & LS209 - Circum Square Post Material LS Material [8722432]"},{"primitives":[{"attributes":{"POSITION":101,"TANGENT":102,"NORMAL":103,"TEXCOORD_0":104},"indices":100,"material":1}],"name":"LS208 & LS209 - Circum Square Post Material LS Material [8722582]"},{"primitives":[{"attributes":{"POSITION":106,"TANGENT":107,"NORMAL":108,"TEXCOORD_0":109},"indices":105,"material":1}],"name":"LS208 & LS209 - Circum Square Post Material LS Material [8722751]"},{"primitives":[{"attributes":{"POSITION":111,"TANGENT":112,"NORMAL":113,"TEXCOORD_0":114},"indices":110,"material":1}],"name":"LS208 & LS209 - Circum Square Post Material LS Material [8722897]"},{"primitives":[{"attributes":{"POSITION":116,"TANGENT":117,"NORMAL":118,"TEXCOORD_0":119},"indices":115,"material":0}],"name":"Glass Panel_007"},{"primitives":[{"attributes":{"POSITION":121,"TANGENT":122,"NORMAL":123,"TEXCOORD_0":124},"indices":120,"material":1}],"name":"Nested_Bend Bend [8719267]001"},{"primitives":[{"attributes":{"POSITION":126,"TANGENT":127,"NORMAL":128,"TEXCOORD_0":129},"indices":125,"material":1}],"name":"Nested_Bend Bend [8719267]003"}],"accessors":[{"bufferView":0,"componentType":5123,"count":132,"type":"SCALAR","name":"accessorIndices"},{"bufferView":1,"componentType":5126,"count":82,"max":[0.35287493,0.6306217,0.0071501],"min":[-0.35287496,-0.6306218,-0.0071501],"type":"VEC3","name":"accessorPositions"},{"bufferView":2,"componentType":5126,"count":82,"type":"VEC4","name":"accessorTangents"},{"bufferView":1,"byteOffset":984,"componentType":5126,"count":82,"type":"VEC3","name":"accessorNormals"},{"bufferView":3,"componentType":5126,"count":82,"type":"VEC2","name":"accessorUVs"},{"bufferView":0,"byteOffset":264,"componentType":5123,"count":132,"type":"SCALAR","name":"accessorIndices"},{"bufferView":1,"byteOffset":1968,"componentType":5126,"count":82,"max":[0.25218117,0.5615204,0.0071501],"min":[-0.2521812,-0.5615201,-0.0071501],"type":"VEC3","name":"accessorPositions"},{"bufferView":2,"byteOffset":1312,"componentType":5126,"count":82,"type":"VEC4","name":"accessorTangents"},{"bufferView":1,"byteOffset":2952,"componentType":5126,"count":82,"type":"VEC3","name":"accessorNormals"},{"bufferView":3,"byteOffset":656,"componentType":5126,"count":82,"type":"VEC2","name":"accessorUVs"},{"bufferView":0,"byteOffset":528,"componentType":5123,"count":570,"type":"SCALAR","name":"accessorIndices"},{"bufferView":1,"byteOffset":3936,"componentType":5126,"count":189,"max":[0.053975,0.025400002,0.053975],"min":[-0.053975,-3.0953716E-15,-0.053975],"type":"VEC3","name":"accessorPositions"},{"bufferView":2,"byteOffset":2624,"componentType":5126,"count":189,"type":"VEC4","name":"accessorTangents"},{"bufferView":1,"byteOffset":6204,"componentType":5126,"count":189,"type":"VEC3","name":"accessorNormals"},{"bufferView":3,"byteOffset":1312,"componentType":5126,"count":189,"type":"VEC2","name":"accessorUVs"},{"bufferView":0,"byteOffset":1668,"componentType":5123,"count":780,"type":"SCALAR","name":"accessorIndices"},{"bufferView":1,"byteOffset":8472,"componentType":5126,"count":300,"max":[0.0174498,0.02413,-0.025400002],"min":[0.0095758,-0.02413,-0.0762],"type":"VEC3","name":"accessorPositions"},{"bufferView":2,"byteOffset":5648,"componentType":5126,"count":300,"type":"VEC4","name":"accessorTangents"},{"bufferView":1,"byteOffset":12072,"componentType":5126,"count":300,"type":"VEC3","name":"accessorNormals"},{"bufferView":3,"byteOffset":2824,"componentType":5126,"count":300,"type":"VEC2","name":"accessorUVs"},{"bufferView":0,"byteOffset":3228,"componentType":5123,"count":84,"type":"SCALAR","name":"accessorIndices"},{"bufferView":1,"byteOffset":15672,"componentType":5126,"count":48,"max":[0.009550401,0.02413,0.0762],"min":[-0.0174498,-0.02413,0.025400002],"type":"VEC3","name":"accessorPositions"},{"bufferView":2,"byteOffset":10448,"componentType":5126,"count":48,"type":"VEC4","name":"accessorTangents"},{"bufferView":1,"byteOffset":16248,"componentType":5126,"count":48,"type":"VEC3","name":"accessorNormals"},{"bufferView":3,"byteOffset":5224,"componentType":5126,"count":48,"type":"VEC2","name":"accessorUVs"},{"bufferView":0,"byteOffset":3396,"componentType":5123,"count":180,"type":"SCALAR","name":"accessorIndices"},{"bufferView":1,"byteOffset":16824,"componentType":5126,"count":76,"max":[0.0015875001,0.024091901,-2.5168202E-14],"min":[-0.0015875001,-0.024091901,-0.0331978],"type":"VEC3","name":"accessorPositions"},{"bufferView":2,"byteOffset":11216,"componentType":5126,"count":76,"type":"VEC4","name":"accessorTangents"},{"bufferView":1,"byteOffset":17736,"componentType":5126,"count":76,"type":"VEC3","name":"accessorNormals"},{"bufferView":3,"byteOffset":5608,"componentType":5126,"count":76,"type":"VEC2","name":"accessorUVs"},{"bufferView":0,"byteOffset":3756,"componentType":5123,"count":252,"type":"SCALAR","name":"accessorIndices"},{"bufferView":1,"byteOffset":18648,"componentType":5126,"count":102,"max":[-0.0016070053,0.0047411676,0.0047411676],"min":[-0.0063246,-0.0047411676,-0.0047411676],"type":"VEC3","name":"accessorPositions"},{"bufferView":2,"byteOffset":12432,"componentType":5126,"count":102,"type":"VEC4","name":"accessorTangents"},{"bufferView":1,"byteOffset":19872,"componentType":5126,"count":102,"type":"VEC3","name":"accessorNormals"},{"bufferView":3,"byteOffset":6216,"componentType":5126,"count":102,"type":"VEC2","name":"accessorUVs"},{"bufferView":0,"byteOffset":4260,"componentType":5123,"count":324,"type":"SCALAR","name":"accessorIndices"},{"bufferView":1,"byteOffset":21096,"componentType":5126,"count":120,"max":[0.025592525,0.0031551565,0.025590502],"min":[-0.025588477,-2.0427421E-15,-0.025590502],"type":"VEC3","name":"accessorPositions"},{"bufferView":2,"byteOffset":14064,"componentType":5126,"count":120,"type":"VEC4","name":"accessorTangents"},{"bufferView":1,"byteOffset":22536,"componentType":5126,"count":120,"type":"VEC3","name":"accessorNormals"},{"bufferView":3,"byteOffset":7032,"componentType":5126,"count":120,"type":"VEC2","name":"accessorUVs"},{"bufferView":0,"byteOffset":4908,"componentType":5123,"count":2688,"type":"SCALAR","name":"accessorIndices"},{"bufferView":1,"byteOffset":23976,"componentType":5126,"count":912,"max":[0.90040666,0.025400002,0.025539069],"min":[6.291274E-15,-0.025400002,-0.025539069],"type":"VEC3","name":"accessorPositions"},{"bufferView":2,"byteOffset":15984,"componentType":5126,"count":912,"type":"VEC4","name":"accessorTangents"},{"bufferView":1,"byteOffset":34920,"componentType":5126,"count":912,"type":"VEC3","name":"accessorNormals"},{"bufferView":3,"byteOffset":7992,"componentType":5126,"count":912,"type":"VEC2","name":"accessorUVs"},{"bufferView":0,"byteOffset":10284,"componentType":5123,"count":2046,"type":"SCALAR","name":"accessorIndices"},{"bufferView":1,"byteOffset":45864,"componentType":5126,"count":480,"max":[0.006350001,0.053701945,0.0063499734],"min":[-0.006350001,-5.904436E-08,-0.02141023],"type":"VEC3","name":"accessorPositions"},{"bufferView":2,"byteOffset":30576,"componentType":5126,"count":480,"type":"VEC4","name":"accessorTangents"},{"bufferView":1,"byteOffset":51624,"componentType":5126,"count":480,"type":"VEC3","name":"accessorNormals"},{"bufferView":3,"byteOffset":15288,"componentType":5126,"count":480,"type":"VEC2","name":"accessorUVs"},{"bufferView":0,"byteOffset":14376,"componentType":5123,"count":348,"type":"SCALAR","name":"accessorIndices"},{"bufferView":1,"byteOffset":57384,"componentType":5126,"count":128,"max":[0.042062398,0.0120777,0.03175],"min":[0.033772144,-0.012090401,-0.03175],"type":"VEC3","name":"accessorPositions"},{"bufferView":2,"byteOffset":38256,"componentType":5126,"count":128,"type":"VEC4","name":"accessorTangents"},{"bufferView":1,"byteOffset":58920,"componentType":5126,"count":128,"type":"VEC3","name":"accessorNormals"},{"bufferView":3,"byteOffset":19128,"componentType":5126,"count":128,"type":"VEC2","name":"accessorUVs"},{"bufferView":0,"byteOffset":15072,"componentType":5123,"count":2367,"type":"SCALAR","name":"accessorIndices"},{"bufferView":1,"byteOffset":60456,"componentType":5126,"count":805,"max":[0.8567441,0.025400002,0.025539069],"min":[6.291274E-15,-0.025400002,-0.025539069],"type":"VEC3","name":"accessorPositions"},{"bufferView":2,"byteOffset":40304,"componentType":5126,"count":805,"type":"VEC4","name":"accessorTangents"},{"bufferView":1,"byteOffset":70116,"componentType":5126,"count":805,"type":"VEC3","name":"accessorNormals"},{"bufferView":3,"byteOffset":20152,"componentType":5126,"count":805,"type":"VEC2","name":"accessorUVs"},{"bufferView":0,"byteOffset":19808,"componentType":5123,"count":2688,"type":"SCALAR","name":"accessorIndices"},{"bufferView":1,"byteOffset":79776,"componentType":5126,"count":912,"max":[0.94393736,0.025400002,0.025539069],"min":[6.291274E-15,-0.025400002,-0.025539069],"type":"VEC3","name":"accessorPositions"},{"bufferView":2,"byteOffset":53184,"componentType":5126,"count":912,"type":"VEC4","name":"accessorTangents"},{"bufferView":1,"byteOffset":90720,"componentType":5126,"count":912,"type":"VEC3","name":"accessorNormals"},{"bufferView":3,"byteOffset":26592,"componentType":5126,"count":912,"type":"VEC2","name":"accessorUVs"},{"bufferView":0,"byteOffset":25184,"componentType":5123,"count":2688,"type":"SCALAR","name":"accessorIndices"},{"bufferView":1,"byteOffset":101664,"componentType":5126,"count":912,"max":[0.9003509,0.025400002,0.025539069],"min":[6.291274E-15,-0.025400002,-0.025539069],"type":"VEC3","name":"accessorPositions"},{"bufferView":2,"byteOffset":67776,"componentType":5126,"count":912,"type":"VEC4","name":"accessorTangents"},{"bufferView":1,"byteOffset":112608,"componentType":5126,"count":912,"type":"VEC3","name":"accessorNormals"},{"bufferView":3,"byteOffset":33888,"componentType":5126,"count":912,"type":"VEC2","name":"accessorUVs"},{"bufferView":0,"byteOffset":30560,"componentType":5123,"count":2688,"type":"SCALAR","name":"accessorIndices"},{"bufferView":1,"byteOffset":123552,"componentType":5126,"count":912,"max":[0.9003509,0.025400002,0.025539069],"min":[6.291274E-15,-0.025400002,-0.025539069],"type":"VEC3","name":"accessorPositions"},{"bufferView":2,"byteOffset":82368,"componentType":5126,"count":912,"type":"VEC4","name":"accessorTangents"},{"bufferView":1,"byteOffset":134496,"componentType":5126,"count":912,"type":"VEC3","name":"accessorNormals"},{"bufferView":3,"byteOffset":41184,"componentType":5126,"count":912,"type":"VEC2","name":"accessorUVs"},{"bufferView":0,"byteOffset":35936,"componentType":5123,"count":192,"type":"SCALAR","name":"accessorIndices"},{"bufferView":1,"byteOffset":145440,"componentType":5126,"count":66,"max":[-0.00029542364,0.01905,0.01905],"min":[-0.002286,-0.01905,-0.01905],"type":"VEC3","name":"accessorPositions"},{"bufferView":2,"byteOffset":96960,"componentType":5126,"count":66,"type":"VEC4","name":"accessorTangents"},{"bufferView":1,"byteOffset":146232,"componentType":5126,"count":66,"type":"VEC3","name":"accessorNormals"},{"bufferView":3,"byteOffset":48480,"componentType":5126,"count":66,"type":"VEC2","name":"accessorUVs"},{"bufferView":0,"byteOffset":36320,"componentType":5123,"count":762,"type":"SCALAR","name":"accessorIndices"},{"bufferView":1,"byteOffset":147024,"componentType":5126,"count":161,"max":[-0.00029542364,0.01905,0.01905],"min":[-0.0068578967,-0.01905,-0.01905],"type":"VEC3","name":"accessorPositions"},{"bufferView":2,"byteOffset":98016,"componentType":5126,"count":161,"type":"VEC4","name":"accessorTangents"},{"bufferView":1,"byteOffset":148956,"componentType":5126,"count":161,"type":"VEC3","name":"accessorNormals"},{"bufferView":3,"byteOffset":49008,"componentType":5126,"count":161,"type":"VEC2","name":"accessorUVs"},{"bufferView":0,"byteOffset":37844,"componentType":5123,"count":360,"type":"SCALAR","name":"accessorIndices"},{"bufferView":1,"byteOffset":150888,"componentType":5126,"count":128,"max":[0.01905,0.003175006,0.01905],"min":[-0.01905,-0.0031749941,-0.01905],"type":"VEC3","name":"accessorPositions"},{"bufferView":2,"byteOffset":100592,"componentType":5126,"count":128,"type":"VEC4","name":"accessorTangents"},{"bufferView":1,"byteOffset":152424,"componentType":5126,"count":128,"type":"VEC3","name":"accessorNormals"},{"bufferView":3,"byteOffset":50296,"componentType":5126,"count":128,"type":"VEC2","name":"accessorUVs"},{"bufferView":0,"byteOffset":38564,"componentType":5123,"count":2688,"type":"SCALAR","name":"accessorIndices"},{"bufferView":1,"byteOffset":153960,"componentType":5126,"count":912,"max":[0.9003509,0.025400002,0.025539069],"min":[6.291274E-15,-0.025400002,-0.025539069],"type":"VEC3","name":"accessorPositions"},{"bufferView":2,"byteOffset":102640,"componentType":5126,"count":912,"type":"VEC4","name":"accessorTangents"},{"bufferView":1,"byteOffset":164904,"componentType":5126,"count":912,"type":"VEC3","name":"accessorNormals"},{"bufferView":3,"byteOffset":51320,"componentType":5126,"count":912,"type":"VEC2","name":"accessorUVs"},{"bufferView":0,"byteOffset":43940,"componentType":5123,"count":2688,"type":"SCALAR","name":"accessorIndices"},{"bufferView":1,"byteOffset":175848,"componentType":5126,"count":912,"max":[0.9003509,0.025400002,0.025539069],"min":[6.291274E-15,-0.025400002,-0.025539069],"type":"VEC3","name":"accessorPositions"},{"bufferView":2,"byteOffset":117232,"componentType":5126,"count":912,"type":"VEC4","name":"accessorTangents"},{"bufferView":1,"byteOffset":186792,"componentType":5126,"count":912,"type":"VEC3","name":"accessorNormals"},{"bufferView":3,"byteOffset":58616,"componentType":5126,"count":912,"type":"VEC2","name":"accessorUVs"},{"bufferView":0,"byteOffset":49316,"componentType":5123,"count":2688,"type":"SCALAR","name":"accessorIndices"},{"bufferView":1,"byteOffset":197736,"componentType":5126,"count":912,"max":[0.94393736,0.025400002,0.025539069],"min":[6.291274E-15,-0.025400002,-0.025539069],"type":"VEC3","name":"accessorPositions"},{"bufferView":2,"byteOffset":131824,"componentType":5126,"count":912,"type":"VEC4","name":"accessorTangents"},{"bufferView":1,"byteOffset":208680,"componentType":5126,"count":912,"type":"VEC3","name":"accessorNormals"},{"bufferView":3,"byteOffset":65912,"componentType":5126,"count":912,"type":"VEC2","name":"accessorUVs"},{"bufferView":0,"byteOffset":54692,"componentType":5123,"count":2367,"type":"SCALAR","name":"accessorIndices"},{"bufferView":1,"byteOffset":219624,"componentType":5126,"count":805,"max":[0.8567441,0.025400002,0.025539069],"min":[6.291274E-15,-0.025400002,-0.025539069],"type":"VEC3","name":"accessorPositions"},{"bufferView":2,"byteOffset":146416,"componentType":5126,"count":805,"type":"VEC4","name":"accessorTangents"},{"bufferView":1,"byteOffset":229284,"componentType":5126,"count":805,"type":"VEC3","name":"accessorNormals"},{"bufferView":3,"byteOffset":73208,"componentType":5126,"count":805,"type":"VEC2","name":"accessorUVs"},{"bufferView":0,"byteOffset":59428,"componentType":5123,"count":2688,"type":"SCALAR","name":"accessorIndices"},{"bufferView":1,"byteOffset":238944,"componentType":5126,"count":912,"max":[0.90040666,0.025400002,0.025539069],"min":[6.291274E-15,-0.025400002,-0.025539069],"type":"VEC3","name":"accessorPositions"},{"bufferView":2,"byteOffset":159296,"componentType":5126,"count":912,"type":"VEC4","name":"accessorTangents"},{"bufferView":1,"byteOffset":249888,"componentType":5126,"count":912,"type":"VEC3","name":"accessorNormals"},{"bufferView":3,"byteOffset":79648,"componentType":5126,"count":912,"type":"VEC2","name":"accessorUVs"},{"bufferView":0,"byteOffset":64804,"componentType":5123,"count":132,"type":"SCALAR","name":"accessorIndices"},{"bufferView":1,"byteOffset":260832,"componentType":5126,"count":86,"max":[0.2515587,0.56109816,0.0071501],"min":[-0.25155878,-0.56109816,-0.0071501],"type":"VEC3","name":"accessorPositions"},{"bufferView":2,"byteOffset":173888,"componentType":5126,"count":86,"type":"VEC4","name":"accessorTangents"},{"bufferView":1,"byteOffset":261864,"componentType":5126,"count":86,"type":"VEC3","name":"accessorNormals"},{"bufferView":3,"byteOffset":86944,"componentType":5126,"count":86,"type":"VEC2","name":"accessorUVs"},{"bufferView":0,"byteOffset":65068,"componentType":5123,"count":564,"type":"SCALAR","name":"accessorIndices"},{"bufferView":1,"byteOffset":262896,"componentType":5126,"count":194,"max":[0.31800973,0.018887788,1.0520042],"min":[-1.6200956,-0.018887721,-0.29603794],"type":"VEC3","name":"accessorPositions"},{"bufferView":2,"byteOffset":175264,"componentType":5126,"count":194,"type":"VEC4","name":"accessorTangents"},{"bufferView":1,"byteOffset":265224,"componentType":5126,"count":194,"type":"VEC3","name":"accessorNormals"},{"bufferView":3,"byteOffset":87632,"componentType":5126,"count":194,"type":"VEC2","name":"accessorUVs"},{"bufferView":0,"byteOffset":66196,"componentType":5123,"count":564,"type":"SCALAR","name":"accessorIndices"},{"bufferView":1,"byteOffset":267552,"componentType":5126,"count":194,"max":[0.20611998,0.018887788,1.0520835],"min":[-1.620211,-0.018887717,-0.21916696],"type":"VEC3","name":"accessorPositions"},{"bufferView":2,"byteOffset":178368,"componentType":5126,"count":194,"type":"VEC4","name":"accessorTangents"},{"bufferView":1,"byteOffset":269880,"componentType":5126,"count":194,"type":"VEC3","name":"accessorNormals"},{"bufferView":3,"byteOffset":89184,"componentType":5126,"count":194,"type":"VEC2","name":"accessorUVs"}],"bufferViews":[{"buffer":0,"byteLength":67324,"name":"bufferViewScalar"},{"buffer":0,"byteOffset":67324,"byteLength":272208,"byteStride":12,"name":"bufferViewFloatVec3"},{"buffer":0,"byteOffset":339532,"byteLength":181472,"byteStride":16,"name":"bufferViewFloatVec4"},{"buffer":0,"byteOffset":521004,"byteLength":90736,"byteStride":8,"name":"bufferViewFloatVec2"}],"buffers":[{"uri":"Straight_Railing_Circum-Square_Glass.bin","byteLength":611740}],"materials":[{"pbrMetallicRoughness":{"baseColorFactor":[0.9999998,0.9999999,0.9999999,1.0],"metallicFactor":0.0,"roughnessFactor":0.1},"name":"Glass","extensions":{"KHR_materials_ior":{"ior":1.0},"KHR_materials_transmission":{"transmissionFactor":0.97},"KHR_materials_volume":{"thicknessFactor":0.56,"attenuationDistance":0.5,"attenuationColor":[0.49521634,0.56476736,0.5317566]}}},{"pbrMetallicRoughness":{"baseColorFactor":[0.9999998,0.9999999,0.9999999,1.0],"baseColorTexture":{"index":0,"extensions":{"KHR_texture_transform":{"offset":[0.19519997,0.8048],"rotation":1.5707964,"scale":[0.6096,0.6096],"texCoord":0}}},"roughnessFactor":0.2,"metallicRoughnessTexture":{"index":0,"extensions":{"KHR_texture_transform":{"offset":[0.19519997,0.8048],"rotation":1.5707964,"scale":[0.6096,0.6096],"texCoord":0}}}},"name":"Steel_Linear"},{"pbrMetallicRoughness":{"baseColorFactor":[0.10641303,0.10641304,0.10641304,1.0],"metallicFactor":0.0,"roughnessFactor":0.99,"metallicRoughnessTexture":{"index":1}},"name":"Rubber","extensions":{"KHR_materials_specular":{"specularFactor":0.1}}},{"pbrMetallicRoughness":{"baseColorFactor":[0.9999998,0.9999999,0.9999999,1.0],"baseColorTexture":{"index":2},"roughnessFactor":0.2,"metallicRoughnessTexture":{"index":2}},"name":"Steel_Radial"}],"textures":[{"sampler":0,"source":0,"name":"Metal_Brushed_Linear_4k.jpg"},{"sampler":0,"source":1,"name":"PowderCoat_Roughness_2k0.jpg"},{"sampler":0,"source":2,"name":"Metal_Brushed_Radial_4k.jpg"}],"images":[{"uri":"textures/Metal_Brushed_Linear_4k.jpg"},{"uri":"textures/PowderCoat_Roughness_2k0.jpg"},{"uri":"textures/Metal_Brushed_Radial_4k.jpg"}],"samplers":[{"magFilter":9729,"minFilter":9987}]}