{"asset":{"version":"2.0","generator":"babylon.js glTF exporter for 3dsmax 2026 v20251111.2"},"extensionsUsed":["KHR_materials_specular","KHR_texture_transform","KHR_materials_ior","KHR_materials_transmission","KHR_materials_volume"],"extensionsRequired":["KHR_texture_transform"],"scene":0,"scenes":[{"nodes":[0,1,2,3,4,5,6,7,8,9,10,11,12,13,14,15,16,17,18,19,20,21,22,23,24,25,26,27,28,29,30,31,32,33,34,35,36,37,38,39,40,41,42,43,44,45,46,47,48,49,50,51,52,53,54,55,56,57,58,59,60,61,62,63,64,65,66,67,68,69,70,71,72,73,74,75,76,77,78,79,80,81,82,83,84,85,86,87,88,89,90,91,92,93,94,95,96,97,98,99,100,101,102,103,104,105,106,107,108,109,110,111,112,113,114,115,116,117,118,119,120,121,122,123,124,125,126,127,128,129,130,131,132,133,134,135,136,137,138,139,140,141,142,143,144,145,146,147,148,149,150,151,152,153,154,155,156,157,158,159,160,161,162,163]}],"nodes":[{"mesh":0,"translation":[-0.17010455,1.732602,-1.0173309],"rotation":[-0.0,-1.0,0.0,4.371139E-08],"name":"KON021 - Konic Washer Part [9193945]034"},{"mesh":0,"translation":[-0.17010455,1.732602,-1.0316278],"rotation":[-0.0,-2.3841858E-07,0.0,1.0],"name":"KON021A - Adhesive Konic Washer Part [9193800]034"},{"mesh":0,"translation":[-0.17010455,1.9866022,-1.0173309],"rotation":[-0.0,-1.0,0.0,4.371139E-08],"name":"KON021 - Konic Washer Part [9193945]033"},{"mesh":0,"translation":[-0.17010455,1.9866022,-1.0316278],"rotation":[-0.0,-2.3841858E-07,0.0,1.0],"name":"KON021A - Adhesive Konic Washer Part [9193800]033"},{"mesh":0,"translation":[1.4287437,2.8299918,-1.0173309],"rotation":[-0.0,-1.0,0.0,4.371139E-08],"name":"KON021 - Konic Washer Part [9193945]032"},{"mesh":0,"translation":[1.4287437,2.8299918,-1.0316278],"rotation":[-0.0,-2.3841858E-07,0.0,1.0],"name":"KON021A - Adhesive Konic Washer Part [9193800]032"},{"mesh":0,"translation":[1.4287437,3.0839915,-1.0173309],"rotation":[-0.0,-1.0,0.0,4.371139E-08],"name":"KON021 - Konic Washer Part [9193945]031"},{"mesh":0,"translation":[1.4287437,3.0839915,-1.0316278],"rotation":[-0.0,-2.3841858E-07,0.0,1.0],"name":"KON021A - Adhesive Konic Washer Part [9193800]031"},{"mesh":0,"translation":[0.8957954,2.4642324,-1.0173309],"rotation":[-0.0,-1.0,0.0,4.371139E-08],"name":"KON021 - Konic Washer Part [9193945]030"},{"mesh":0,"translation":[0.8957954,2.4642324,-1.0316278],"rotation":[-0.0,-2.3841858E-07,0.0,1.0],"name":"KON021A - Adhesive Konic Washer Part [9193800]030"},{"mesh":0,"translation":[0.8957954,2.7182322,-1.0173309],"rotation":[-0.0,-1.0,0.0,4.371139E-08],"name":"KON021 - Konic Washer Part [9193945]029"},{"mesh":0,"translation":[0.8957954,2.7182322,-1.0316278],"rotation":[-0.0,-2.3841858E-07,0.0,1.0],"name":"KON021A - Adhesive Konic Washer Part [9193800]029"},{"mesh":0,"translation":[0.6293212,2.2809083,-1.0173309],"rotation":[-0.0,-1.0,0.0,4.371139E-08],"name":"KON021 - Konic Washer Part [9193945]028"},{"mesh":0,"translation":[0.6293212,2.2809083,-1.0316278],"rotation":[-0.0,-2.3841858E-07,0.0,1.0],"name":"KON021A - Adhesive Konic Washer Part [9193800]028"},{"mesh":0,"translation":[0.6293212,2.5349088,-1.0173309],"rotation":[-0.0,-1.0,0.0,4.371139E-08],"name":"KON021 - Konic Washer Part [9193945]027"},{"mesh":0,"translation":[0.6293212,2.5349088,-1.0316278],"rotation":[-0.0,-2.3841858E-07,0.0,1.0],"name":"KON021A - Adhesive Konic Washer Part [9193800]027"},{"mesh":0,"translation":[-2.0337965,0.45255175,-1.0172597],"rotation":[-0.0,-1.0,0.0,-4.371139E-08],"name":"KON021 - Konic Washer Part [9193945]026"},{"mesh":0,"translation":[-2.0337965,0.45255175,-1.0315611],"rotation":[-0.0,-3.2584137E-07,0.0,1.0],"name":"KON021A - Adhesive Konic Washer Part [9193800]026"},{"mesh":0,"translation":[-2.0337965,0.7065517,-1.0172597],"rotation":[-0.0,-1.0,0.0,-4.371139E-08],"name":"KON021 - Konic Washer Part [9193945]025"},{"mesh":0,"translation":[-2.0337965,0.7065517,-1.0315611],"rotation":[-0.0,-3.2584137E-07,0.0,1.0],"name":"KON021A - Adhesive Konic Washer Part [9193800]025"},{"mesh":0,"translation":[-1.5014544,0.8183117,-1.0172596],"rotation":[-0.0,-1.0,0.0,-4.371139E-08],"name":"KON021 - Konic Washer Part [9193945]024"},{"mesh":0,"translation":[-1.5014544,0.8183117,-1.0315611],"rotation":[-0.0,-3.2584137E-07,0.0,1.0],"name":"KON021A - Adhesive Konic Washer Part [9193800]024"},{"mesh":0,"translation":[-1.5014544,1.0723119,-1.0172596],"rotation":[-0.0,-1.0,0.0,-4.371139E-08],"name":"KON021 - Konic Washer Part [9193945]023"},{"mesh":0,"translation":[-1.5014544,1.0723119,-1.0315611],"rotation":[-0.0,-3.2584137E-07,0.0,1.0],"name":"KON021A - Adhesive Konic Washer Part [9193800]023"},{"mesh":0,"translation":[-1.2352822,1.0011919,-1.0172596],"rotation":[-0.0,-1.0,0.0,-4.371139E-08],"name":"KON021 - Konic Washer Part [9193945]022"},{"mesh":0,"translation":[-1.2352822,1.0011919,-1.0315611],"rotation":[-0.0,-3.2584137E-07,0.0,1.0],"name":"KON021A - Adhesive Konic Washer Part [9193800]022"},{"mesh":0,"translation":[-1.2352822,1.255192,-1.0172596],"rotation":[-0.0,-1.0,0.0,-4.371139E-08],"name":"KON021 - Konic Washer Part [9193945]021"},{"mesh":0,"translation":[-1.2352822,1.255192,-1.0315611],"rotation":[-0.0,-3.2584137E-07,0.0,1.0],"name":"KON021A - Adhesive Konic Washer Part [9193800]021"},{"mesh":0,"translation":[-2.0337965,0.45255175,-0.08384684],"name":"KON021 - Konic Washer Part [9193945]018"},{"mesh":0,"translation":[-2.0337965,0.45255175,-0.06955004],"rotation":[-0.0,-1.0,0.0,-2.8212997E-07],"name":"KON021A - Adhesive Konic Washer Part [9193800]018"},{"mesh":0,"translation":[-2.0337965,0.7065517,-0.08384684],"name":"KON021 - Konic Washer Part [9193945]017"},{"mesh":0,"translation":[-2.0337965,0.7065517,-0.06955004],"rotation":[-0.0,-1.0,0.0,-2.8212997E-07],"name":"KON021A - Adhesive Konic Washer Part [9193800]017"},{"mesh":0,"translation":[-1.5014544,0.8183117,-0.08384684],"name":"KON021 - Konic Washer Part [9193945]016"},{"mesh":0,"translation":[-1.5014544,0.8183117,-0.06955004],"rotation":[-0.0,-1.0,0.0,-2.8212997E-07],"name":"KON021A - Adhesive Konic Washer Part [9193800]016"},{"mesh":0,"translation":[-1.5014544,1.0723119,-0.08384684],"name":"KON021 - Konic Washer Part [9193945]015"},{"mesh":0,"translation":[-1.5014544,1.0723119,-0.06955004],"rotation":[-0.0,-1.0,0.0,-2.8212997E-07],"name":"KON021A - Adhesive Konic Washer Part [9193800]015"},{"mesh":0,"translation":[-1.2352822,1.0011919,-0.08384684],"name":"KON021 - Konic Washer Part [9193945]014"},{"mesh":0,"translation":[-1.2352822,1.0011919,-0.06955004],"rotation":[-0.0,-1.0,0.0,-2.8212997E-07],"name":"KON021A - Adhesive Konic Washer Part [9193800]014"},{"mesh":0,"translation":[-1.2352822,1.255192,-0.08384684],"name":"KON021 - Konic Washer Part [9193945]013"},{"mesh":0,"translation":[-1.2352822,1.255192,-0.06955004],"rotation":[-0.0,-1.0,0.0,-2.8212997E-07],"name":"KON021A - Adhesive Konic Washer Part [9193800]013"},{"mesh":0,"translation":[1.4287437,2.8299918,-0.08391813],"rotation":[-0.0,4.524159E-15,0.0,1.0],"name":"KON021 - Konic Washer Part [9193945]010"},{"mesh":0,"translation":[1.4287437,2.8299918,-0.06961668],"rotation":[-0.0,-1.0,0.0,2.8212997E-07],"name":"KON021A - Adhesive Konic Washer Part [9193800]010"},{"mesh":0,"translation":[1.4287437,3.0839915,-0.08391813],"rotation":[-0.0,4.524159E-15,0.0,1.0],"name":"KON021 - Konic Washer Part [9193945]009"},{"mesh":0,"translation":[1.4287437,3.0839915,-0.06961668],"rotation":[-0.0,-1.0,0.0,2.8212997E-07],"name":"KON021A - Adhesive Konic Washer Part [9193800]009"},{"mesh":0,"translation":[0.8957954,2.4642324,-0.08391813],"rotation":[-0.0,4.524159E-15,0.0,1.0],"name":"KON021 - Konic Washer Part [9193945]008"},{"mesh":0,"translation":[0.8957954,2.4642324,-0.06961668],"rotation":[-0.0,-1.0,0.0,2.8212997E-07],"name":"KON021A - Adhesive Konic Washer Part [9193800]008"},{"mesh":0,"translation":[0.8957954,2.7182322,-0.08391813],"rotation":[-0.0,4.524159E-15,0.0,1.0],"name":"KON021 - Konic Washer Part [9193945]007"},{"mesh":0,"translation":[0.8957954,2.7182322,-0.06961668],"rotation":[-0.0,-1.0,0.0,2.8212997E-07],"name":"KON021A - Adhesive Konic Washer Part [9193800]007"},{"mesh":0,"translation":[0.6293212,2.2809083,-0.08391813],"rotation":[-0.0,4.524159E-15,0.0,1.0],"name":"KON021 - Konic Washer Part [9193945]006"},{"mesh":0,"translation":[0.6293212,2.2809083,-0.06961668],"rotation":[-0.0,-1.0,0.0,2.8212997E-07],"name":"KON021A - Adhesive Konic Washer Part [9193800]006"},{"mesh":0,"translation":[0.6293212,2.5349088,-0.08391813],"rotation":[-0.0,4.524159E-15,0.0,1.0],"name":"KON021 - Konic Washer Part [9193945]005"},{"mesh":0,"translation":[0.6293212,2.5349088,-0.06961668],"rotation":[-0.0,-1.0,0.0,2.8212997E-07],"name":"KON021A - Adhesive Konic Washer Part [9193800]005"},{"mesh":0,"translation":[-0.17010453,1.7326014,-0.08391813],"rotation":[-0.0,4.524159E-15,0.0,1.0],"name":"KON021 - Konic Washer Part [9193945]004"},{"mesh":0,"translation":[-0.17010453,1.7326014,-0.06961668],"rotation":[-0.0,-1.0,0.0,2.8212997E-07],"name":"KON021A - Adhesive Konic Washer Part [9193800]004"},{"mesh":0,"translation":[-0.17010453,1.9866014,-0.08391813],"rotation":[-0.0,4.524159E-15,0.0,1.0],"name":"KON021 - Konic Washer Part [9193945]003"},{"mesh":0,"translation":[-0.17010453,1.9866014,-0.06961668],"rotation":[-0.0,-1.0,0.0,2.8212997E-07],"name":"KON021A - Adhesive Konic Washer Part [9193800]003"},{"mesh":0,"translation":[-0.4367709,1.8038319,-0.08391813],"rotation":[-0.0,4.524159E-15,0.0,1.0],"name":"KON021 - Konic Washer Part [9193945]085"},{"mesh":0,"translation":[-0.4367709,1.549832,-0.08391813],"rotation":[-0.0,4.524159E-15,0.0,1.0],"name":"KON021 - Konic Washer Part [9193945]086"},{"mesh":0,"translation":[-0.43677092,1.8038328,-1.0173309],"rotation":[-0.0,-1.0,0.0,4.371139E-08],"name":"KON021 - Konic Washer Part [9193945]087"},{"mesh":0,"translation":[-0.43677092,1.5498326,-1.0173309],"rotation":[-0.0,-1.0,0.0,4.371139E-08],"name":"KON021 - Konic Washer Part [9193945]088"},{"mesh":0,"translation":[-0.4367709,1.8038319,-0.06961668],"rotation":[-0.0,-1.0,0.0,2.8212997E-07],"name":"KON021A - Adhesive Konic Washer Part [9193800]085"},{"mesh":0,"translation":[-0.4367709,1.549832,-0.06961668],"rotation":[-0.0,-1.0,0.0,2.8212997E-07],"name":"KON021A - Adhesive Konic Washer Part [9193800]086"},{"mesh":0,"translation":[-0.43677092,1.8038328,-1.0316278],"rotation":[-0.0,-2.3841858E-07,0.0,1.0],"name":"KON021A - Adhesive Konic Washer Part [9193800]087"},{"mesh":0,"translation":[-0.43677092,1.5498326,-1.0316278],"rotation":[-0.0,-2.3841858E-07,0.0,1.0],"name":"KON021A - Adhesive Konic Washer Part [9193800]088"},{"mesh":1,"translation":[-0.17010455,1.732602,-1.0157543],"rotation":[-0.0,-0.7071068,0.0,0.7071067],"name":"KON006 - Lower Panel Clamp Part [8739162]083"},{"mesh":1,"translation":[-0.17010455,1.9866022,-1.0157543],"rotation":[-0.0,-0.7071068,0.0,0.7071067],"name":"KON006 - Lower Panel Clamp Part [8739162]082"},{"mesh":1,"translation":[1.4287437,2.8299918,-1.0157543],"rotation":[-0.0,-0.7071068,0.0,0.7071067],"name":"KON006 - Lower Panel Clamp Part [8739162]081"},{"mesh":1,"translation":[1.4287437,3.0839915,-1.0157543],"rotation":[-0.0,-0.7071068,0.0,0.7071067],"name":"KON006 - Lower Panel Clamp Part [8739162]080"},{"mesh":1,"translation":[0.8957954,2.4642324,-1.0157543],"rotation":[-0.0,-0.7071068,0.0,0.7071067],"name":"KON006 - Lower Panel Clamp Part [8739162]079"},{"mesh":1,"translation":[0.8957954,2.7182322,-1.0157543],"rotation":[-0.0,-0.7071068,0.0,0.7071067],"name":"KON006 - Lower Panel Clamp Part [8739162]078"},{"mesh":1,"translation":[0.6293212,2.2809083,-1.0157543],"rotation":[-0.0,-0.7071068,0.0,0.7071067],"name":"KON006 - Lower Panel Clamp Part [8739162]077"},{"mesh":1,"translation":[0.6293212,2.5349088,-1.0157543],"rotation":[-0.0,-0.7071068,0.0,0.7071067],"name":"KON006 - Lower Panel Clamp Part [8739162]076"},{"mesh":1,"translation":[-2.0337965,0.45255175,-1.0156877],"rotation":[-0.0,-0.7071068,0.0,0.7071067],"name":"KON006 - Lower Panel Clamp Part [8739162]075"},{"mesh":1,"translation":[-2.0337965,0.7065517,-1.0156877],"rotation":[-0.0,-0.7071068,0.0,0.7071067],"name":"KON006 - Lower Panel Clamp Part [8739162]074"},{"mesh":1,"translation":[-1.5014544,0.8183117,-1.0156877],"rotation":[-0.0,-0.7071068,0.0,0.7071067],"name":"KON006 - Lower Panel Clamp Part [8739162]073"},{"mesh":1,"translation":[-1.5014544,1.0723119,-1.0156877],"rotation":[-0.0,-0.7071068,0.0,0.7071067],"name":"KON006 - Lower Panel Clamp Part [8739162]072"},{"mesh":1,"translation":[-1.2352822,1.0011919,-1.0156877],"rotation":[-0.0,-0.7071068,0.0,0.7071067],"name":"KON006 - Lower Panel Clamp Part [8739162]071"},{"mesh":1,"translation":[-1.2352822,1.255192,-1.0156877],"rotation":[-0.0,-0.7071068,0.0,0.7071067],"name":"KON006 - Lower Panel Clamp Part [8739162]070"},{"mesh":1,"translation":[-2.0337965,0.45255175,-0.085423484],"rotation":[-0.0,0.7071066,0.0,0.70710695],"name":"KON006 - Lower Panel Clamp Part [8739162]067"},{"mesh":1,"translation":[-2.0337965,0.7065517,-0.085423484],"rotation":[-0.0,0.7071066,0.0,0.70710695],"name":"KON006 - Lower Panel Clamp Part [8739162]066"},{"mesh":1,"translation":[-1.5014544,0.8183117,-0.085423484],"rotation":[-0.0,0.7071066,0.0,0.70710695],"name":"KON006 - Lower Panel Clamp Part [8739162]065"},{"mesh":1,"translation":[-1.5014544,1.0723119,-0.085423484],"rotation":[-0.0,0.7071066,0.0,0.70710695],"name":"KON006 - Lower Panel Clamp Part [8739162]064"},{"mesh":1,"translation":[-1.2352822,1.0011919,-0.085423484],"rotation":[-0.0,0.7071066,0.0,0.70710695],"name":"KON006 - Lower Panel Clamp Part [8739162]063"},{"mesh":1,"translation":[-1.2352822,1.255192,-0.085423484],"rotation":[-0.0,0.7071066,0.0,0.70710695],"name":"KON006 - Lower Panel Clamp Part [8739162]062"},{"mesh":1,"translation":[1.4287437,2.8299918,-0.08549013],"rotation":[-0.0,0.7071068,0.0,0.7071067],"name":"KON006 - Lower Panel Clamp Part [8739162]059"},{"mesh":1,"translation":[1.4287437,3.0839915,-0.08549013],"rotation":[-0.0,0.7071068,0.0,0.7071067],"name":"KON006 - Lower Panel Clamp Part [8739162]058"},{"mesh":1,"translation":[0.8957954,2.4642324,-0.08549013],"rotation":[-0.0,0.7071068,0.0,0.7071067],"name":"KON006 - Lower Panel Clamp Part [8739162]057"},{"mesh":1,"translation":[0.8957954,2.7182322,-0.08549013],"rotation":[-0.0,0.7071068,0.0,0.7071067],"name":"KON006 - Lower Panel Clamp Part [8739162]056"},{"mesh":1,"translation":[0.6293212,2.2809083,-0.08549013],"rotation":[-0.0,0.7071068,0.0,0.7071067],"name":"KON006 - Lower Panel Clamp Part [8739162]055"},{"mesh":1,"translation":[0.6293212,2.5349088,-0.08549013],"rotation":[-0.0,0.7071068,0.0,0.7071067],"name":"KON006 - Lower Panel Clamp Part [8739162]054"},{"mesh":1,"translation":[-0.17010453,1.7326014,-0.08549013],"rotation":[-0.0,0.7071068,0.0,0.7071067],"name":"KON006 - Lower Panel Clamp Part [8739162]053"},{"mesh":1,"translation":[-0.17010453,1.9866014,-0.08549013],"rotation":[-0.0,0.7071068,0.0,0.7071067],"name":"KON006 - Lower Panel Clamp Part [8739162]052"},{"mesh":1,"translation":[-0.4367709,1.8038319,-0.08549013],"rotation":[-0.0,0.7071068,0.0,0.7071067],"name":"KON006 - Lower Panel Clamp Part [8739162]204"},{"mesh":1,"translation":[-0.4367709,1.549832,-0.08549013],"rotation":[-0.0,0.7071068,0.0,0.7071067],"name":"KON006 - Lower Panel Clamp Part [8739162]205"},{"mesh":1,"translation":[-0.43677092,1.8038328,-1.0157543],"rotation":[-0.0,-0.7071068,0.0,0.7071067],"name":"KON006 - Lower Panel Clamp Part [8739162]206"},{"mesh":1,"translation":[-0.43677092,1.5498326,-1.0157543],"rotation":[-0.0,-0.7071068,0.0,0.7071067],"name":"KON006 - Lower Panel Clamp Part [8739162]207"},{"mesh":2,"translation":[-0.17010455,1.9866022,-1.0808526],"rotation":[-0.0,-0.7071068,0.0,0.7071067],"name":"KON002 - Barrel Mount Part [9048960]017"},{"mesh":2,"translation":[1.4287437,3.0839915,-1.0808526],"rotation":[-0.0,-0.7071068,0.0,0.7071067],"name":"KON002 - Barrel Mount Part [9048960]016"},{"mesh":2,"translation":[0.8957954,2.7182322,-1.0808526],"rotation":[-0.0,-0.7071068,0.0,0.7071067],"name":"KON002 - Barrel Mount Part [9048960]015"},{"mesh":2,"translation":[0.6293212,2.5349088,-1.0808526],"rotation":[-0.0,-0.7071068,0.0,0.7071067],"name":"KON002 - Barrel Mount Part [9048960]014"},{"mesh":2,"translation":[-2.0337965,0.7065517,-1.0807861],"rotation":[-0.0,-0.7071068,0.0,0.7071067],"name":"KON002 - Barrel Mount Part [9048960]013"},{"mesh":2,"translation":[-1.5014544,1.0723119,-1.080786],"rotation":[-0.0,-0.7071068,0.0,0.7071067],"name":"KON002 - Barrel Mount Part [9048960]012"},{"mesh":2,"translation":[-1.2352822,1.255192,-1.080786],"rotation":[-0.0,-0.7071068,0.0,0.7071067],"name":"KON002 - Barrel Mount Part [9048960]011"},{"mesh":2,"translation":[-2.0337965,0.7065517,-0.020325132],"rotation":[-0.0,0.7071066,0.0,0.70710695],"name":"KON002 - Barrel Mount Part [9048960]009"},{"mesh":2,"translation":[-1.5014544,1.0723119,-0.020325132],"rotation":[-0.0,0.7071066,0.0,0.70710695],"name":"KON002 - Barrel Mount Part [9048960]008"},{"mesh":2,"translation":[-1.2352822,1.255192,-0.020325132],"rotation":[-0.0,0.7071066,0.0,0.70710695],"name":"KON002 - Barrel Mount Part [9048960]007"},{"mesh":2,"translation":[1.4287437,3.0839915,-0.020391779],"rotation":[-0.0,0.7071068,0.0,0.7071067],"name":"KON002 - Barrel Mount Part [9048960]005"},{"mesh":2,"translation":[0.8957954,2.7182322,-0.020391779],"rotation":[-0.0,0.7071068,0.0,0.7071067],"name":"KON002 - Barrel Mount Part [9048960]004"},{"mesh":2,"translation":[0.6293212,2.5349088,-0.020391779],"rotation":[-0.0,0.7071068,0.0,0.7071067],"name":"KON002 - Barrel Mount Part [9048960]003"},{"mesh":2,"translation":[-0.17010453,1.9866014,-0.020391779],"rotation":[-0.0,0.7071068,0.0,0.7071067],"name":"KON002 - Barrel Mount Part [9048960]002"},{"mesh":2,"translation":[-0.17010455,1.732602,-1.0808526],"rotation":[-0.0,-0.7071068,0.0,0.7071067],"name":"KON002 - Barrel Mount Part [9048960]042"},{"mesh":2,"translation":[1.4287437,2.8299918,-1.0808526],"rotation":[-0.0,-0.7071068,0.0,0.7071067],"name":"KON002 - Barrel Mount Part [9048960]041"},{"mesh":2,"translation":[0.8957954,2.4642324,-1.0808526],"rotation":[-0.0,-0.7071068,0.0,0.7071067],"name":"KON002 - Barrel Mount Part [9048960]040"},{"mesh":2,"translation":[0.6293212,2.2809083,-1.0808526],"rotation":[-0.0,-0.7071068,0.0,0.7071067],"name":"KON002 - Barrel Mount Part [9048960]039"},{"mesh":2,"translation":[-2.0337965,0.45255175,-1.0807861],"rotation":[-0.0,-0.7071068,0.0,0.7071067],"name":"KON002 - Barrel Mount Part [9048960]038"},{"mesh":2,"translation":[-1.5014544,0.8183117,-1.080786],"rotation":[-0.0,-0.7071068,0.0,0.7071067],"name":"KON002 - Barrel Mount Part [9048960]037"},{"mesh":2,"translation":[-1.2352822,1.0011919,-1.080786],"rotation":[-0.0,-0.7071068,0.0,0.7071067],"name":"KON002 - Barrel Mount Part [9048960]036"},{"mesh":2,"translation":[-2.0337965,0.45255175,-0.020325132],"rotation":[-0.0,0.7071066,0.0,0.70710695],"name":"KON002 - Barrel Mount Part [9048960]034"},{"mesh":2,"translation":[-1.5014544,0.8183117,-0.020325132],"rotation":[-0.0,0.7071066,0.0,0.70710695],"name":"KON002 - Barrel Mount Part [9048960]033"},{"mesh":2,"translation":[-1.2352822,1.0011919,-0.020325132],"rotation":[-0.0,0.7071066,0.0,0.70710695],"name":"KON002 - Barrel Mount Part [9048960]032"},{"mesh":2,"translation":[1.4287437,2.8299918,-0.020391779],"rotation":[-0.0,0.7071068,0.0,0.7071067],"name":"KON002 - Barrel Mount Part [9048960]030"},{"mesh":2,"translation":[0.8957954,2.4642324,-0.020391779],"rotation":[-0.0,0.7071068,0.0,0.7071067],"name":"KON002 - Barrel Mount Part [9048960]029"},{"mesh":2,"translation":[0.6293212,2.2809083,-0.020391779],"rotation":[-0.0,0.7071068,0.0,0.7071067],"name":"KON002 - Barrel Mount Part [9048960]028"},{"mesh":2,"translation":[-0.17010453,1.7326014,-0.020391779],"rotation":[-0.0,0.7071068,0.0,0.7071067],"name":"KON002 - Barrel Mount Part [9048960]027"},{"mesh":2,"translation":[-0.4367709,1.8038319,-0.020391779],"rotation":[-0.0,0.7071068,0.0,0.7071067],"name":"KON002 - Barrel Mount Part [9048960]093"},{"mesh":2,"translation":[-0.43677092,1.8038328,-1.0808526],"rotation":[-0.0,-0.7071068,0.0,0.7071067],"name":"KON002 - Barrel Mount Part [9048960]094"},{"mesh":2,"translation":[-0.4367709,1.549832,-0.020391779],"rotation":[-0.0,0.7071068,0.0,0.7071067],"name":"KON002 - Barrel Mount Part [9048960]095"},{"mesh":2,"translation":[-0.43677092,1.5498326,-1.0808526],"rotation":[-0.0,-0.7071068,0.0,0.7071067],"name":"KON002 - Barrel Mount Part [9048960]096"},{"mesh":3,"translation":[-0.17010455,1.4629301,-1.0808526],"rotation":[-0.5,-0.50000006,0.5,0.49999994],"name":"LS201 & LS202 - Konic Post Material LS Material [9048914]"},{"mesh":3,"translation":[-0.43677092,1.2801607,-1.0808526],"rotation":[-0.5,-0.50000006,0.5,0.49999994],"name":"LS201 & LS202 - Konic Post Material LS Material [9048914]002"},{"mesh":4,"translation":[-0.17010455,1.4629301,-1.0808526],"rotation":[-0.0,0.7071068,0.0,0.7071067],"name":"CSQ001-US - Surface Mount Weldment Part [8723797]121"},{"mesh":4,"translation":[1.4287437,2.56032,-1.0808526],"rotation":[-0.0,0.7071068,0.0,0.7071067],"name":"CSQ001-US - Surface Mount Weldment Part [8723797]120"},{"mesh":4,"translation":[0.8957954,2.1945603,-1.0808526],"rotation":[-0.0,0.7071068,0.0,0.7071067],"name":"CSQ001-US - Surface Mount Weldment Part [8723797]119"},{"mesh":4,"translation":[0.6293212,2.0112367,-1.0808526],"rotation":[-0.0,0.7071068,0.0,0.7071067],"name":"CSQ001-US - Surface Mount Weldment Part [8723797]118"},{"mesh":4,"translation":[-2.0337965,0.18288012,-1.0807861],"rotation":[-0.0,0.7071066,0.0,0.70710695],"name":"CSQ001-US - Surface Mount Weldment Part [8723797]117"},{"mesh":4,"translation":[-1.5014544,0.5486401,-1.080786],"rotation":[-0.0,0.7071066,0.0,0.70710695],"name":"CSQ001-US - Surface Mount Weldment Part [8723797]116"},{"mesh":4,"translation":[-1.2352822,0.7315199,-1.080786],"rotation":[-0.0,0.7071066,0.0,0.70710695],"name":"CSQ001-US - Surface Mount Weldment Part [8723797]115"},{"mesh":4,"translation":[-2.0337965,0.18288012,-0.020325132],"rotation":[-0.0,-0.7071068,0.0,0.7071067],"name":"CSQ001-US - Surface Mount Weldment Part [8723797]113"},{"mesh":4,"translation":[-1.5014544,0.5486401,-0.020325132],"rotation":[-0.0,-0.7071068,0.0,0.7071067],"name":"CSQ001-US - Surface Mount Weldment Part [8723797]112"},{"mesh":4,"translation":[-1.2352822,0.7315199,-0.020325132],"rotation":[-0.0,-0.7071068,0.0,0.7071067],"name":"CSQ001-US - Surface Mount Weldment Part [8723797]111"},{"mesh":4,"translation":[1.4287437,2.56032,-0.020391779],"rotation":[-0.0,-0.7071068,0.0,0.7071067],"name":"CSQ001-US - Surface Mount Weldment Part [8723797]110"},{"mesh":4,"translation":[0.8957954,2.1945603,-0.020391779],"rotation":[-0.0,-0.7071068,0.0,0.7071067],"name":"CSQ001-US - Surface Mount Weldment Part [8723797]109"},{"mesh":4,"translation":[0.6293212,2.0112367,-0.020391779],"rotation":[-0.0,-0.7071068,0.0,0.7071067],"name":"CSQ001-US - Surface Mount Weldment Part [8723797]108"},{"mesh":4,"translation":[-0.17010453,1.46293,-0.020391779],"rotation":[-0.0,-0.7071068,0.0,0.7071067],"name":"CSQ001-US - Surface Mount Weldment Part [8723797]107"},{"mesh":4,"translation":[-0.4367709,1.2801605,-0.020391779],"rotation":[-0.0,-0.7071068,0.0,0.7071067],"name":"CSQ001-US - Surface Mount Weldment Part [8723797]263"},{"mesh":4,"translation":[-0.43677092,1.2801607,-1.0808526],"rotation":[-0.0,0.7071068,0.0,0.7071067],"name":"CSQ001-US - Surface Mount Weldment Part [8723797]264"},{"mesh":5,"translation":[1.4287437,2.56032,-1.0808526],"rotation":[-0.5,-0.50000006,0.5,0.49999994],"name":"LS201 & LS202 - Konic Post Material LS Material [9048890]"},{"mesh":6,"translation":[0.8957954,2.1945603,-1.0808526],"rotation":[-0.5,-0.50000006,0.5,0.49999994],"name":"LS201 & LS202 - Konic Post Material LS Material [9048885]"},{"mesh":7,"translation":[0.6293212,2.0112367,-1.0808526],"rotation":[-0.5,-0.50000006,0.5,0.49999994],"name":"LS201 & LS202 - Konic Post Material LS Material [9048880]"},{"mesh":8,"translation":[-2.0337965,0.18288012,-1.0807861],"rotation":[-0.50000006,-0.49999988,0.49999994,0.5000001],"name":"LS201 & LS202 - Konic Post Material LS Material [9048834]"},{"mesh":9,"translation":[-1.5014544,0.5486401,-1.080786],"rotation":[-0.50000006,-0.49999988,0.49999994,0.5000001],"name":"LS201 & LS202 - Konic Post Material LS Material [9048829]"},{"mesh":10,"translation":[-1.2352822,0.7315199,-1.080786],"rotation":[-0.50000006,-0.49999988,0.49999994,0.5000001],"name":"LS201 & LS202 - Konic Post Material LS Material [9048824]"},{"mesh":11,"translation":[-2.0337965,0.18288012,-0.020325132],"rotation":[0.49999982,0.4999999,0.5000001,0.5000001],"name":"LS201 & LS202 - Konic Post Material LS Material [9048652]"},{"mesh":12,"translation":[-1.5014544,0.5486401,-0.020325132],"rotation":[0.49999982,0.4999999,0.5000001,0.5000001],"name":"LS201 & LS202 - Konic Post Material LS Material [9048634]"},{"mesh":13,"translation":[-1.2352822,0.7315199,-0.020325132],"rotation":[0.49999982,0.4999999,0.5000001,0.5000001],"name":"LS201 & LS202 - Konic Post Material LS Material [9048616]"},{"mesh":14,"translation":[1.4287437,2.56032,-0.020391779],"rotation":[0.5000001,0.49999997,0.49999985,0.50000006],"name":"LS201 & LS202 - Konic Post Material LS Material [9048587]"},{"mesh":15,"translation":[0.8957954,2.1945603,-0.020391779],"rotation":[0.5000001,0.49999997,0.49999985,0.50000006],"name":"LS201 & LS202 - Konic Post Material LS Material [9048569]"},{"mesh":16,"translation":[0.6293212,2.0112367,-0.020391779],"rotation":[0.5000001,0.49999997,0.49999985,0.50000006],"name":"LS201 & LS202 - Konic Post Material LS Material [9048551]"},{"mesh":17,"translation":[-0.17010453,1.46293,-0.020391779],"rotation":[0.5000001,0.49999997,0.49999985,0.50000006],"name":"LS201 & LS202 - Konic Post Material LS Material [9048531]"},{"mesh":17,"translation":[-0.4367709,1.2801605,-0.020391779],"rotation":[0.5000001,0.49999997,0.49999985,0.50000006],"name":"LS201 & LS202 - Konic Post Material LS Material [9048531]002"},{"mesh":18,"translation":[-0.2999639,0.0,-0.07673256],"name":"Box010"},{"mesh":18,"translation":[-0.2999639,0.0,-1.0243795],"name":"Box011"},{"mesh":19,"translation":[-0.29534957,2.376288,-1.0243602],"name":"Generic Models 11 Generic Models 11 [8762451]009"},{"mesh":19,"translation":[-0.29534957,2.376288,-0.07671316],"name":"Generic Models 11 Generic Models 11 [8762451]010"}],"meshes":[{"primitives":[{"attributes":{"POSITION":1,"TANGENT":2,"NORMAL":3,"TEXCOORD_0":4},"indices":0,"material":0}],"name":"KON021 - Konic Washer Part [9193945]034"},{"primitives":[{"attributes":{"POSITION":6,"TANGENT":7,"NORMAL":8,"TEXCOORD_0":9},"indices":5,"material":1},{"attributes":{"POSITION":11,"TANGENT":12,"NORMAL":13,"TEXCOORD_0":14},"indices":10,"material":2}],"name":"KON006 - Lower Panel Clamp Part [8739162]083"},{"primitives":[{"attributes":{"POSITION":16,"TANGENT":17,"NORMAL":18,"TEXCOORD_0":19},"indices":15,"material":1},{"attributes":{"POSITION":21,"TANGENT":22,"NORMAL":23,"TEXCOORD_0":24},"indices":20,"material":2}],"name":"KON002 - Barrel Mount Part [9048960]017"},{"primitives":[{"attributes":{"POSITION":26,"TANGENT":27,"NORMAL":28,"TEXCOORD_0":29},"indices":25,"material":1}],"name":"LS201 & LS202 - Konic Post Material LS Material [9048914]"},{"primitives":[{"attributes":{"POSITION":31,"TANGENT":32,"NORMAL":33,"TEXCOORD_0":34},"indices":30,"material":1}],"name":"CSQ001-US - Surface Mount Weldment Part [8723797]121"},{"primitives":[{"attributes":{"POSITION":36,"TANGENT":37,"NORMAL":38,"TEXCOORD_0":39},"indices":35,"material":1}],"name":"LS201 & LS202 - Konic Post Material LS Material [9048890]"},{"primitives":[{"attributes":{"POSITION":41,"TANGENT":42,"NORMAL":43,"TEXCOORD_0":44},"indices":40,"material":1}],"name":"LS201 & LS202 - Konic Post Material LS Material [9048885]"},{"primitives":[{"attributes":{"POSITION":46,"TANGENT":47,"NORMAL":48,"TEXCOORD_0":49},"indices":45,"material":1}],"name":"LS201 & LS202 - Konic Post Material LS Material [9048880]"},{"primitives":[{"attributes":{"POSITION":51,"TANGENT":52,"NORMAL":53,"TEXCOORD_0":54},"indices":50,"material":1}],"name":"LS201 & LS202 - Konic Post Material LS Material [9048834]"},{"primitives":[{"attributes":{"POSITION":56,"TANGENT":57,"NORMAL":58,"TEXCOORD_0":59},"indices":55,"material":1}],"name":"LS201 & LS202 - Konic Post Material LS Material [9048829]"},{"primitives":[{"attributes":{"POSITION":61,"TANGENT":62,"NORMAL":63,"TEXCOORD_0":64},"indices":60,"material":1}],"name":"LS201 & LS202 - Konic Post Material LS Material [9048824]"},{"primitives":[{"attributes":{"POSITION":66,"TANGENT":67,"NORMAL":68,"TEXCOORD_0":69},"indices":65,"material":1}],"name":"LS201 & LS202 - Konic Post Material LS Material [9048652]"},{"primitives":[{"attributes":{"POSITION":71,"TANGENT":72,"NORMAL":73,"TEXCOORD_0":74},"indices":70,"material":1}],"name":"LS201 & LS202 - Konic Post Material LS Material [9048634]"},{"primitives":[{"attributes":{"POSITION":76,"TANGENT":77,"NORMAL":78,"TEXCOORD_0":79},"indices":75,"material":1}],"name":"LS201 & LS202 - Konic Post Material LS Material [9048616]"},{"primitives":[{"attributes":{"POSITION":81,"TANGENT":82,"NORMAL":83,"TEXCOORD_0":84},"indices":80,"material":1}],"name":"LS201 & LS202 - Konic Post Material LS Material [9048587]"},{"primitives":[{"attributes":{"POSITION":86,"TANGENT":87,"NORMAL":88,"TEXCOORD_0":89},"indices":85,"material":1}],"name":"LS201 & LS202 - Konic Post Material LS Material [9048569]"},{"primitives":[{"attributes":{"POSITION":91,"TANGENT":92,"NORMAL":93,"TEXCOORD_0":94},"indices":90,"material":1}],"name":"LS201 & LS202 - Konic Post Material LS Material [9048551]"},{"primitives":[{"attributes":{"POSITION":96,"TANGENT":97,"NORMAL":98,"TEXCOORD_0":99},"indices":95,"material":1}],"name":"LS201 & LS202 - Konic Post Material LS Material [9048531]"},{"primitives":[{"attributes":{"POSITION":101,"TANGENT":102,"NORMAL":103,"TEXCOORD_0":104},"indices":100,"material":3}],"name":"Box010"},{"primitives":[{"attributes":{"POSITION":106,"TANGENT":107,"NORMAL":108,"TEXCOORD_0":109},"indices":105,"material":1},{"attributes":{"POSITION":111,"TANGENT":112,"NORMAL":113,"TEXCOORD_0":114},"indices":110,"material":2}],"name":"Generic Models 11 Generic Models 11 [8762451]009"}],"accessors":[{"bufferView":0,"componentType":5123,"count":1440,"type":"SCALAR","name":"accessorIndices"},{"bufferView":1,"componentType":5126,"count":484,"max":[0.012700001,0.012700001,-8.253881E-15],"min":[-0.012700001,-0.012700001,-0.0015748],"type":"VEC3","name":"accessorPositions"},{"bufferView":2,"componentType":5126,"count":484,"type":"VEC4","name":"accessorTangents"},{"bufferView":1,"byteOffset":5808,"componentType":5126,"count":484,"type":"VEC3","name":"accessorNormals"},{"bufferView":3,"componentType":5126,"count":484,"type":"VEC2","name":"accessorUVs"},{"bufferView":0,"byteOffset":2880,"componentType":5123,"count":864,"type":"SCALAR","name":"accessorIndices"},{"bufferView":1,"byteOffset":11616,"componentType":5126,"count":292,"max":[0.006604,0.015875,0.015875],"min":[-0.022722581,-0.015875,-0.015875],"type":"VEC3","name":"accessorPositions"},{"bufferView":2,"byteOffset":7744,"componentType":5126,"count":292,"type":"VEC4","name":"accessorTangents"},{"bufferView":1,"byteOffset":15120,"componentType":5126,"count":292,"type":"VEC3","name":"accessorNormals"},{"bufferView":3,"byteOffset":3872,"componentType":5126,"count":292,"type":"VEC2","name":"accessorUVs"},{"bufferView":0,"byteOffset":4608,"componentType":5123,"count":858,"type":"SCALAR","name":"accessorIndices"},{"bufferView":1,"byteOffset":18624,"componentType":5126,"count":289,"max":[0.006604,0.015875,0.015875],"min":[-0.022722581,-0.015875,-0.015875],"type":"VEC3","name":"accessorPositions"},{"bufferView":2,"byteOffset":12416,"componentType":5126,"count":289,"type":"VEC4","name":"accessorTangents"},{"bufferView":1,"byteOffset":22092,"componentType":5126,"count":289,"type":"VEC3","name":"accessorNormals"},{"bufferView":3,"byteOffset":6208,"componentType":5126,"count":289,"type":"VEC2","name":"accessorUVs"},{"bufferView":0,"byteOffset":6324,"componentType":5123,"count":432,"type":"SCALAR","name":"accessorIndices"},{"bufferView":1,"byteOffset":25560,"componentType":5126,"count":146,"max":[0.0476504,0.015875,0.015875],"min":[-0.0348996,-0.015875,-0.015875],"type":"VEC3","name":"accessorPositions"},{"bufferView":2,"byteOffset":17040,"componentType":5126,"count":146,"type":"VEC4","name":"accessorTangents"},{"bufferView":1,"byteOffset":27312,"componentType":5126,"count":146,"type":"VEC3","name":"accessorNormals"},{"bufferView":3,"byteOffset":8520,"componentType":5126,"count":146,"type":"VEC2","name":"accessorUVs"},{"bufferView":0,"byteOffset":7188,"componentType":5123,"count":420,"type":"SCALAR","name":"accessorIndices"},{"bufferView":1,"byteOffset":29064,"componentType":5126,"count":144,"max":[0.0476504,0.015875,0.015875],"min":[-0.0348996,-0.015875,-0.015875],"type":"VEC3","name":"accessorPositions"},{"bufferView":2,"byteOffset":19376,"componentType":5126,"count":144,"type":"VEC4","name":"accessorTangents"},{"bufferView":1,"byteOffset":30792,"componentType":5126,"count":144,"type":"VEC3","name":"accessorNormals"},{"bufferView":3,"byteOffset":9688,"componentType":5126,"count":144,"type":"VEC2","name":"accessorUVs"},{"bufferView":0,"byteOffset":8028,"componentType":5123,"count":1428,"type":"SCALAR","name":"accessorIndices"},{"bufferView":1,"byteOffset":32520,"componentType":5126,"count":488,"max":[0.5342128,0.028575,0.0079375],"min":[6.358873E-15,-0.028575,-0.0079375],"type":"VEC3","name":"accessorPositions"},{"bufferView":2,"byteOffset":21680,"componentType":5126,"count":488,"type":"VEC4","name":"accessorTangents"},{"bufferView":1,"byteOffset":38376,"componentType":5126,"count":488,"type":"VEC3","name":"accessorNormals"},{"bufferView":3,"byteOffset":10840,"componentType":5126,"count":488,"type":"VEC2","name":"accessorUVs"},{"bufferView":0,"byteOffset":10884,"componentType":5123,"count":570,"type":"SCALAR","name":"accessorIndices"},{"bufferView":1,"byteOffset":44232,"componentType":5126,"count":189,"max":[0.053975,0.025400002,0.053975],"min":[-0.053975,-3.0953716E-15,-0.053975],"type":"VEC3","name":"accessorPositions"},{"bufferView":2,"byteOffset":29488,"componentType":5126,"count":189,"type":"VEC4","name":"accessorTangents"},{"bufferView":1,"byteOffset":46500,"componentType":5126,"count":189,"type":"VEC3","name":"accessorNormals"},{"bufferView":3,"byteOffset":14744,"componentType":5126,"count":189,"type":"VEC2","name":"accessorUVs"},{"bufferView":0,"byteOffset":12024,"componentType":5123,"count":1428,"type":"SCALAR","name":"accessorIndices"},{"bufferView":1,"byteOffset":48768,"componentType":5126,"count":488,"max":[0.5342128,0.028575,0.0079375],"min":[6.358873E-15,-0.028575,-0.0079375],"type":"VEC3","name":"accessorPositions"},{"bufferView":2,"byteOffset":32512,"componentType":5126,"count":488,"type":"VEC4","name":"accessorTangents"},{"bufferView":1,"byteOffset":54624,"componentType":5126,"count":488,"type":"VEC3","name":"accessorNormals"},{"bufferView":3,"byteOffset":16256,"componentType":5126,"count":488,"type":"VEC2","name":"accessorUVs"},{"bufferView":0,"byteOffset":14880,"componentType":5123,"count":1428,"type":"SCALAR","name":"accessorIndices"},{"bufferView":1,"byteOffset":60480,"componentType":5126,"count":488,"max":[0.5342128,0.028575,0.0079375],"min":[6.358873E-15,-0.028575,-0.0079375],"type":"VEC3","name":"accessorPositions"},{"bufferView":2,"byteOffset":40320,"componentType":5126,"count":488,"type":"VEC4","name":"accessorTangents"},{"bufferView":1,"byteOffset":66336,"componentType":5126,"count":488,"type":"VEC3","name":"accessorNormals"},{"bufferView":3,"byteOffset":20160,"componentType":5126,"count":488,"type":"VEC2","name":"accessorUVs"},{"bufferView":0,"byteOffset":17736,"componentType":5123,"count":1428,"type":"SCALAR","name":"accessorIndices"},{"bufferView":1,"byteOffset":72192,"componentType":5126,"count":488,"max":[0.5342128,0.028575,0.0079375],"min":[6.358873E-15,-0.028575,-0.0079375],"type":"VEC3","name":"accessorPositions"},{"bufferView":2,"byteOffset":48128,"componentType":5126,"count":488,"type":"VEC4","name":"accessorTangents"},{"bufferView":1,"byteOffset":78048,"componentType":5126,"count":488,"type":"VEC3","name":"accessorNormals"},{"bufferView":3,"byteOffset":24064,"componentType":5126,"count":488,"type":"VEC2","name":"accessorUVs"},{"bufferView":0,"byteOffset":20592,"componentType":5123,"count":1428,"type":"SCALAR","name":"accessorIndices"},{"bufferView":1,"byteOffset":83904,"componentType":5126,"count":488,"max":[0.5342128,0.028575,0.0079375],"min":[6.358873E-15,-0.028575,-0.0079375],"type":"VEC3","name":"accessorPositions"},{"bufferView":2,"byteOffset":55936,"componentType":5126,"count":488,"type":"VEC4","name":"accessorTangents"},{"bufferView":1,"byteOffset":89760,"componentType":5126,"count":488,"type":"VEC3","name":"accessorNormals"},{"bufferView":3,"byteOffset":27968,"componentType":5126,"count":488,"type":"VEC2","name":"accessorUVs"},{"bufferView":0,"byteOffset":23448,"componentType":5123,"count":1428,"type":"SCALAR","name":"accessorIndices"},{"bufferView":1,"byteOffset":95616,"componentType":5126,"count":488,"max":[0.5342128,0.028575,0.0079375],"min":[6.358873E-15,-0.028575,-0.0079375],"type":"VEC3","name":"accessorPositions"},{"bufferView":2,"byteOffset":63744,"componentType":5126,"count":488,"type":"VEC4","name":"accessorTangents"},{"bufferView":1,"byteOffset":101472,"componentType":5126,"count":488,"type":"VEC3","name":"accessorNormals"},{"bufferView":3,"byteOffset":31872,"componentType":5126,"count":488,"type":"VEC2","name":"accessorUVs"},{"bufferView":0,"byteOffset":26304,"componentType":5123,"count":1428,"type":"SCALAR","name":"accessorIndices"},{"bufferView":1,"byteOffset":107328,"componentType":5126,"count":488,"max":[0.5342128,0.028575,0.0079375],"min":[6.358873E-15,-0.028575,-0.0079375],"type":"VEC3","name":"accessorPositions"},{"bufferView":2,"byteOffset":71552,"componentType":5126,"count":488,"type":"VEC4","name":"accessorTangents"},{"bufferView":1,"byteOffset":113184,"componentType":5126,"count":488,"type":"VEC3","name":"accessorNormals"},{"bufferView":3,"byteOffset":35776,"componentType":5126,"count":488,"type":"VEC2","name":"accessorUVs"},{"bufferView":0,"byteOffset":29160,"componentType":5123,"count":1428,"type":"SCALAR","name":"accessorIndices"},{"bufferView":1,"byteOffset":119040,"componentType":5126,"count":488,"max":[0.5342128,0.028575,0.0079375],"min":[6.358873E-15,-0.028575,-0.0079375],"type":"VEC3","name":"accessorPositions"},{"bufferView":2,"byteOffset":79360,"componentType":5126,"count":488,"type":"VEC4","name":"accessorTangents"},{"bufferView":1,"byteOffset":124896,"componentType":5126,"count":488,"type":"VEC3","name":"accessorNormals"},{"bufferView":3,"byteOffset":39680,"componentType":5126,"count":488,"type":"VEC2","name":"accessorUVs"},{"bufferView":0,"byteOffset":32016,"componentType":5123,"count":1428,"type":"SCALAR","name":"accessorIndices"},{"bufferView":1,"byteOffset":130752,"componentType":5126,"count":488,"max":[0.5342128,0.028575,0.0079375],"min":[6.358873E-15,-0.028575,-0.0079375],"type":"VEC3","name":"accessorPositions"},{"bufferView":2,"byteOffset":87168,"componentType":5126,"count":488,"type":"VEC4","name":"accessorTangents"},{"bufferView":1,"byteOffset":136608,"componentType":5126,"count":488,"type":"VEC3","name":"accessorNormals"},{"bufferView":3,"byteOffset":43584,"componentType":5126,"count":488,"type":"VEC2","name":"accessorUVs"},{"bufferView":0,"byteOffset":34872,"componentType":5123,"count":1428,"type":"SCALAR","name":"accessorIndices"},{"bufferView":1,"byteOffset":142464,"componentType":5126,"count":488,"max":[0.5342128,0.028575,0.0079375],"min":[6.358873E-15,-0.028575,-0.0079375],"type":"VEC3","name":"accessorPositions"},{"bufferView":2,"byteOffset":94976,"componentType":5126,"count":488,"type":"VEC4","name":"accessorTangents"},{"bufferView":1,"byteOffset":148320,"componentType":5126,"count":488,"type":"VEC3","name":"accessorNormals"},{"bufferView":3,"byteOffset":47488,"componentType":5126,"count":488,"type":"VEC2","name":"accessorUVs"},{"bufferView":0,"byteOffset":37728,"componentType":5123,"count":1428,"type":"SCALAR","name":"accessorIndices"},{"bufferView":1,"byteOffset":154176,"componentType":5126,"count":488,"max":[0.5342128,0.028575,0.0079375],"min":[6.358873E-15,-0.028575,-0.0079375],"type":"VEC3","name":"accessorPositions"},{"bufferView":2,"byteOffset":102784,"componentType":5126,"count":488,"type":"VEC4","name":"accessorTangents"},{"bufferView":1,"byteOffset":160032,"componentType":5126,"count":488,"type":"VEC3","name":"accessorNormals"},{"bufferView":3,"byteOffset":51392,"componentType":5126,"count":488,"type":"VEC2","name":"accessorUVs"},{"bufferView":0,"byteOffset":40584,"componentType":5123,"count":1428,"type":"SCALAR","name":"accessorIndices"},{"bufferView":1,"byteOffset":165888,"componentType":5126,"count":488,"max":[0.5342128,0.028575,0.0079375],"min":[6.358873E-15,-0.028575,-0.0079375],"type":"VEC3","name":"accessorPositions"},{"bufferView":2,"byteOffset":110592,"componentType":5126,"count":488,"type":"VEC4","name":"accessorTangents"},{"bufferView":1,"byteOffset":171744,"componentType":5126,"count":488,"type":"VEC3","name":"accessorNormals"},{"bufferView":3,"byteOffset":55296,"componentType":5126,"count":488,"type":"VEC2","name":"accessorUVs"},{"bufferView":0,"byteOffset":43440,"componentType":5123,"count":1428,"type":"SCALAR","name":"accessorIndices"},{"bufferView":1,"byteOffset":177600,"componentType":5126,"count":488,"max":[0.5342128,0.028575,0.0079375],"min":[6.358873E-15,-0.028575,-0.0079375],"type":"VEC3","name":"accessorPositions"},{"bufferView":2,"byteOffset":118400,"componentType":5126,"count":488,"type":"VEC4","name":"accessorTangents"},{"bufferView":1,"byteOffset":183456,"componentType":5126,"count":488,"type":"VEC3","name":"accessorNormals"},{"bufferView":3,"byteOffset":59200,"componentType":5126,"count":488,"type":"VEC2","name":"accessorUVs"},{"bufferView":0,"byteOffset":46296,"componentType":5123,"count":1428,"type":"SCALAR","name":"accessorIndices"},{"bufferView":1,"byteOffset":189312,"componentType":5126,"count":488,"max":[0.5342128,0.028575,0.0079375],"min":[6.358873E-15,-0.028575,-0.0079375],"type":"VEC3","name":"accessorPositions"},{"bufferView":2,"byteOffset":126208,"componentType":5126,"count":488,"type":"VEC4","name":"accessorTangents"},{"bufferView":1,"byteOffset":195168,"componentType":5126,"count":488,"type":"VEC3","name":"accessorNormals"},{"bufferView":3,"byteOffset":63104,"componentType":5126,"count":488,"type":"VEC2","name":"accessorUVs"},{"bufferView":0,"byteOffset":49152,"componentType":5123,"count":144,"type":"SCALAR","name":"accessorIndices"},{"bufferView":1,"byteOffset":201024,"componentType":5126,"count":96,"max":[1.8935392,3.686544,0.007143598],"min":[-1.8863822,0.19727604,-0.007143598],"type":"VEC3","name":"accessorPositions"},{"bufferView":2,"byteOffset":134016,"componentType":5126,"count":96,"type":"VEC4","name":"accessorTangents"},{"bufferView":1,"byteOffset":202176,"componentType":5126,"count":96,"type":"VEC3","name":"accessorNormals"},{"bufferView":3,"byteOffset":67008,"componentType":5126,"count":96,"type":"VEC2","name":"accessorUVs"},{"bufferView":0,"byteOffset":49440,"componentType":5123,"count":4080,"type":"SCALAR","name":"accessorIndices"},{"bufferView":1,"byteOffset":203328,"componentType":5126,"count":1526,"max":[1.8968263,1.3227077,0.019062791],"min":[-1.8968263,-1.3227078,-0.019062791],"type":"VEC3","name":"accessorPositions"},{"bufferView":2,"byteOffset":135552,"componentType":5126,"count":1526,"type":"VEC4","name":"accessorTangents"},{"bufferView":1,"byteOffset":221640,"componentType":5126,"count":1526,"type":"VEC3","name":"accessorNormals"},{"bufferView":3,"byteOffset":67776,"componentType":5126,"count":1526,"type":"VEC2","name":"accessorUVs"},{"bufferView":0,"byteOffset":57600,"componentType":5123,"count":738,"type":"SCALAR","name":"accessorIndices"},{"bufferView":1,"byteOffset":239952,"componentType":5126,"count":252,"max":[1.8968263,1.3227077,0.019062791],"min":[-1.8968263,-1.3227075,-0.019062791],"type":"VEC3","name":"accessorPositions"},{"bufferView":2,"byteOffset":159968,"componentType":5126,"count":252,"type":"VEC4","name":"accessorTangents"},{"bufferView":1,"byteOffset":242976,"componentType":5126,"count":252,"type":"VEC3","name":"accessorNormals"},{"bufferView":3,"byteOffset":79984,"componentType":5126,"count":252,"type":"VEC2","name":"accessorUVs"}],"bufferViews":[{"buffer":0,"byteLength":59076,"name":"bufferViewScalar"},{"buffer":0,"byteOffset":59076,"byteLength":246000,"byteStride":12,"name":"bufferViewFloatVec3"},{"buffer":0,"byteOffset":305076,"byteLength":164000,"byteStride":16,"name":"bufferViewFloatVec4"},{"buffer":0,"byteOffset":469076,"byteLength":82000,"byteStride":8,"name":"bufferViewFloatVec2"}],"buffers":[{"uri":"Straight_Railing_Lo-Post_Elliptical.bin","byteLength":551076}],"materials":[{"pbrMetallicRoughness":{"baseColorFactor":[0.10641303,0.10641304,0.10641304,1.0],"metallicFactor":0.0,"roughnessFactor":0.99,"metallicRoughnessTexture":{"index":0}},"name":"Rubber","extensions":{"KHR_materials_specular":{"specularFactor":0.1}}},{"pbrMetallicRoughness":{"baseColorFactor":[0.9999998,0.9999999,0.9999999,1.0],"baseColorTexture":{"index":1,"extensions":{"KHR_texture_transform":{"offset":[0.19519997,0.8048],"rotation":1.5707964,"scale":[0.6096,0.6096],"texCoord":0}}},"roughnessFactor":0.2,"metallicRoughnessTexture":{"index":1,"extensions":{"KHR_texture_transform":{"offset":[0.19519997,0.8048],"rotation":1.5707964,"scale":[0.6096,0.6096],"texCoord":0}}}},"name":"Steel_Linear"},{"pbrMetallicRoughness":{"baseColorFactor":[0.9999998,0.9999999,0.9999999,1.0],"baseColorTexture":{"index":2},"roughnessFactor":0.2,"metallicRoughnessTexture":{"index":2}},"name":"Steel_Radial"},{"pbrMetallicRoughness":{"baseColorFactor":[0.9999998,0.9999999,0.9999999,1.0],"metallicFactor":0.0,"roughnessFactor":0.1},"name":"Glass","extensions":{"KHR_materials_ior":{"ior":1.0},"KHR_materials_transmission":{"transmissionFactor":0.97},"KHR_materials_volume":{"thicknessFactor":0.56,"attenuationDistance":0.5,"attenuationColor":[0.49521634,0.56476736,0.5317566]}}}],"textures":[{"sampler":0,"source":0,"name":"PowderCoat_Roughness_2k0.jpg"},{"sampler":0,"source":1,"name":"Metal_Brushed_Linear_4k.jpg"},{"sampler":0,"source":2,"name":"Metal_Brushed_Radial_4k.jpg"}],"images":[{"uri":"textures/PowderCoat_Roughness_2k0.jpg"},{"uri":"textures/Metal_Brushed_Linear_4k.jpg"},{"uri":"textures/Metal_Brushed_Radial_4k.jpg"}],"samplers":[{"magFilter":9729,"minFilter":9987}]}