{"asset":{"version":"2.0","generator":"babylon.js glTF exporter for 3dsmax 2026 v20251111.2"},"extensionsUsed":["KHR_lights_punctual","KHR_texture_transform","KHR_materials_clearcoat"],"extensionsRequired":["KHR_texture_transform"],"scene":0,"scenes":[{"nodes":[0,1,2,3,4,5,6,7,8,9,10,11,12,13,14,15,16,17,18,19,20,21,22,23,24,25,26,27,28,29,30,31,32,33,34,35,36,37,38,39,40,41,42,43,44,45,46,47,48,49,50,51,52,53,54,55,56,57,58,59,60,61,62,63,64,65,66,67,68,69,70,71,72,73,74,75,76,77,78,79,80,81,82,83,84,85,86,87,88,89,90,91,92,93,94,95,96,97,98,99,100,101,102,103,104,105,106,107,108,109,110,111,112,113,114,115,116,117,118,119,120,121,122,123,124,125,126,127,128,129,130,131,132,133,134,135,136,137,138,139,140,141,142,143,144,145,146,147,148,149,150,151,152,153,154,155,156,157,158,159,160,161,162,163,164,165,166,167,168,169,170,171,172,173,174,175,176,177,178,179,180,181,182,183,184,185,186,187,188,189,190,191,192,193,194,195,196,197,198,199,200,201,202,203,204,205,206,207,208,209,210,211,212,213,214,215,216,217,218,219]}],"nodes":[{"mesh":0,"translation":[-0.6995512,0.9325879,-0.55055326],"rotation":[-0.2096399,0.67531544,0.2096398,0.67531574],"name":"Tread Support_012"},{"mesh":0,"translation":[-2.0304048,0.018187935,-0.55055326],"rotation":[-0.2096399,0.67531544,0.2096398,0.67531574],"name":"Tread Support_007"},{"mesh":0,"translation":[-1.7642328,0.20106794,-0.55055326],"rotation":[-0.2096399,0.67531544,0.2096398,0.67531574],"name":"Tread Support_008"},{"mesh":0,"translation":[-1.498063,0.38394794,-0.55055326],"rotation":[-0.2096399,0.67531544,0.2096398,0.67531574],"name":"Tread Support_009"},{"mesh":0,"translation":[-0.965721,0.74970794,-0.55055326],"rotation":[-0.2096399,0.67531544,0.2096398,0.67531574],"name":"Tread Support_011"},{"mesh":0,"translation":[-1.2318908,0.56682795,-0.55055326],"rotation":[-0.2096399,0.67531544,0.2096398,0.67531574],"name":"Tread Support_010"},{"mesh":0,"translation":[-0.43337893,1.115468,-0.55055314],"rotation":[-0.2096399,0.67531544,0.2096398,0.67531574],"name":"Tread Support_013"},{"mesh":1,"translation":[-1.8952061,-3.7031806E-15,-0.55055326],"rotation":[-0.0,0.7071066,0.0,0.70710695],"name":"Footer Plate"},{"mesh":2,"translation":[-1.7818456,0.012700001,-0.42355403],"rotation":[-0.49999997,0.5,-0.50000006,0.5000001],"name":"3/8\" Lag Bolt_007"},{"mesh":2,"translation":[-1.9278948,0.012700001,-0.42355403],"rotation":[-0.49999997,0.5,-0.50000006,0.5000001],"name":"3/8\" Lag Bolt_006"},{"mesh":2,"translation":[-2.0739465,0.012700001,-0.42355403],"rotation":[-0.49999997,0.5,-0.50000006,0.5000001],"name":"3/8\" Lag Bolt_005"},{"mesh":2,"translation":[-2.0739465,0.012700001,-0.55055326],"rotation":[-0.49999997,0.5,-0.50000006,0.5000001],"name":"3/8\" Lag Bolt_004"},{"mesh":2,"translation":[-2.0739465,0.012700001,-0.6775548],"rotation":[-0.49999997,0.5,-0.50000006,0.5000001],"name":"3/8\" Lag Bolt_003"},{"mesh":2,"translation":[-1.9278948,0.012700001,-0.6775548],"rotation":[-0.49999997,0.5,-0.50000006,0.5000001],"name":"3/8\" Lag Bolt_002"},{"mesh":2,"translation":[-1.7818456,0.012700001,-0.6775548],"rotation":[-0.49999997,0.5,-0.50000006,0.5000001],"name":"3/8\" Lag Bolt_001"},{"mesh":2,"translation":[-0.72622865,1.0083863,-0.406283],"rotation":[-0.7071067,-0.7071068,-3.0908623E-08,-3.0908616E-08],"name":"3/8\" Lag Bolt_119"},{"mesh":2,"translation":[-0.72622865,1.0083863,-0.6948258],"rotation":[-0.7071067,-0.7071068,-3.0908623E-08,-3.0908616E-08],"name":"3/8\" Lag Bolt_118"},{"mesh":2,"translation":[-0.72622865,1.0083863,-0.66435325],"rotation":[-0.7071067,-0.7071068,-3.0908623E-08,-3.0908616E-08],"name":"3/8\" Lag Bolt_117"},{"mesh":2,"translation":[-0.72622865,1.0083863,-0.43675554],"rotation":[-0.7071067,-0.7071068,-3.0908623E-08,-3.0908616E-08],"name":"3/8\" Lag Bolt_116"},{"mesh":2,"translation":[-0.6229419,1.0083863,-0.406283],"rotation":[5.7601163E-08,-5.7601163E-08,0.7071068,0.7071068],"name":"3/8\" Lag Bolt_115"},{"mesh":2,"translation":[-0.6229419,1.0083863,-0.6948258],"rotation":[5.7601163E-08,-5.7601163E-08,0.7071068,0.7071068],"name":"3/8\" Lag Bolt_114"},{"mesh":2,"translation":[-0.6229419,1.0083863,-0.6486798],"rotation":[0.49999988,0.5,0.50000006,0.50000006],"scale":[1.0,0.99999994,0.99999994],"name":"3/8\" Lag Bolt_113"},{"mesh":2,"translation":[-0.6229419,1.0083863,-0.452429],"rotation":[-0.49999994,-0.50000006,0.5,0.5],"scale":[1.0,0.99999994,0.99999994],"name":"3/8\" Lag Bolt_112"},{"mesh":2,"translation":[-2.0570846,0.093986176,-0.406283],"rotation":[-0.7071067,-0.7071068,-3.0908623E-08,-3.0908616E-08],"name":"3/8\" Lag Bolt_111"},{"mesh":2,"translation":[-2.0570846,0.093986176,-0.6948258],"rotation":[-0.7071067,-0.7071068,-3.0908623E-08,-3.0908616E-08],"name":"3/8\" Lag Bolt_110"},{"mesh":2,"translation":[-2.0570846,0.093986176,-0.66435325],"rotation":[-0.7071067,-0.7071068,-3.0908623E-08,-3.0908616E-08],"name":"3/8\" Lag Bolt_109"},{"mesh":2,"translation":[-2.0570846,0.093986176,-0.43675554],"rotation":[-0.7071067,-0.7071068,-3.0908623E-08,-3.0908616E-08],"name":"3/8\" Lag Bolt_108"},{"mesh":2,"translation":[-1.9537956,0.093986176,-0.406283],"rotation":[5.7601163E-08,-5.7601163E-08,0.7071068,0.7071068],"name":"3/8\" Lag Bolt_107"},{"mesh":2,"translation":[-1.9537956,0.093986176,-0.6948258],"rotation":[5.7601163E-08,-5.7601163E-08,0.7071068,0.7071068],"name":"3/8\" Lag Bolt_106"},{"mesh":2,"translation":[-1.9537956,0.093986176,-0.6486798],"rotation":[0.49999988,0.5,0.50000006,0.50000006],"scale":[1.0,0.99999994,0.99999994],"name":"3/8\" Lag Bolt_105"},{"mesh":2,"translation":[-1.9537956,0.093986176,-0.452429],"rotation":[-0.49999994,-0.50000006,0.5,0.5],"scale":[1.0,0.99999994,0.99999994],"name":"3/8\" Lag Bolt_104"},{"mesh":2,"translation":[-1.7909125,0.2768662,-0.406283],"rotation":[-0.7071067,-0.7071068,-3.0908623E-08,-3.0908616E-08],"name":"3/8\" Lag Bolt_103"},{"mesh":2,"translation":[-1.7909125,0.2768662,-0.6948258],"rotation":[-0.7071067,-0.7071068,-3.0908623E-08,-3.0908616E-08],"name":"3/8\" Lag Bolt_102"},{"mesh":2,"translation":[-1.7909125,0.2768662,-0.66435325],"rotation":[-0.7071067,-0.7071068,-3.0908623E-08,-3.0908616E-08],"name":"3/8\" Lag Bolt_101"},{"mesh":2,"translation":[-1.7909125,0.2768662,-0.43675554],"rotation":[-0.7071067,-0.7071068,-3.0908623E-08,-3.0908616E-08],"name":"3/8\" Lag Bolt_100"},{"mesh":2,"translation":[-1.6876258,0.2768662,-0.406283],"rotation":[5.7601163E-08,-5.7601163E-08,0.7071068,0.7071068],"name":"3/8\" Lag Bolt_099"},{"mesh":2,"translation":[-1.6876258,0.2768662,-0.6948258],"rotation":[5.7601163E-08,-5.7601163E-08,0.7071068,0.7071068],"name":"3/8\" Lag Bolt_098"},{"mesh":2,"translation":[-1.6876258,0.2768662,-0.6486798],"rotation":[0.49999988,0.5,0.50000006,0.50000006],"scale":[1.0,0.99999994,0.99999994],"name":"3/8\" Lag Bolt_097"},{"mesh":2,"translation":[-1.6876258,0.2768662,-0.452429],"rotation":[-0.49999994,-0.50000006,0.5,0.5],"scale":[1.0,0.99999994,0.99999994],"name":"3/8\" Lag Bolt_096"},{"mesh":2,"translation":[1.40547,2.4714262,-0.6948948],"rotation":[-0.7071068,-0.7071068,-2.6692543E-08,8.850979E-08],"name":"3/8\" Lag Bolt_095"},{"mesh":2,"translation":[1.40547,2.4714262,-0.40635195],"rotation":[-0.7071068,-0.7071068,-2.6692543E-08,8.850979E-08],"name":"3/8\" Lag Bolt_094"},{"mesh":2,"translation":[1.40547,2.4714262,-0.43684542],"rotation":[-0.7071068,-0.7071068,-2.6692543E-08,8.850979E-08],"name":"3/8\" Lag Bolt_093"},{"mesh":2,"translation":[1.40547,2.4714262,-0.6644013],"rotation":[-0.7071068,-0.7071068,-2.6692543E-08,8.850979E-08],"name":"3/8\" Lag Bolt_092"},{"mesh":2,"translation":[1.508701,2.4714262,-0.6948948],"rotation":[1.7227078E-15,1.7227078E-15,0.7071068,0.7071067],"name":"3/8\" Lag Bolt_091"},{"mesh":2,"translation":[1.508701,2.4714262,-0.40635195],"rotation":[1.7227078E-15,1.7227078E-15,0.7071068,0.7071067],"name":"3/8\" Lag Bolt_090"},{"mesh":2,"translation":[1.508701,2.4714262,-0.45249796],"rotation":[-0.5,-0.5,0.50000006,0.49999994],"name":"3/8\" Lag Bolt_089"},{"mesh":2,"translation":[1.508701,2.4714262,-0.64874876],"rotation":[0.5,0.5,0.50000006,0.49999994],"scale":[1.0,0.99999994,0.99999994],"name":"3/8\" Lag Bolt_088"},{"mesh":2,"translation":[-0.1933789,1.3741462,-0.6948948],"rotation":[-0.7071068,-0.7071068,-2.6692543E-08,8.850979E-08],"name":"3/8\" Lag Bolt_087"},{"mesh":2,"translation":[-0.1933789,1.3741462,-0.40635195],"rotation":[-0.7071068,-0.7071068,-2.6692543E-08,8.850979E-08],"name":"3/8\" Lag Bolt_086"},{"mesh":2,"translation":[-0.1933789,1.3741462,-0.43684542],"rotation":[-0.7071068,-0.7071068,-2.6692543E-08,8.850979E-08],"name":"3/8\" Lag Bolt_085"},{"mesh":2,"translation":[-0.1933789,1.3741462,-0.6644013],"rotation":[-0.7071068,-0.7071068,-2.6692543E-08,8.850979E-08],"name":"3/8\" Lag Bolt_084"},{"mesh":2,"translation":[-0.09014799,1.3741462,-0.6948948],"rotation":[1.7227078E-15,1.7227078E-15,0.7071068,0.7071067],"name":"3/8\" Lag Bolt_083"},{"mesh":2,"translation":[-0.09014799,1.3741462,-0.40635195],"rotation":[1.7227078E-15,1.7227078E-15,0.7071068,0.7071067],"name":"3/8\" Lag Bolt_082"},{"mesh":2,"translation":[-0.09014799,1.3741462,-0.45249796],"rotation":[-0.5,-0.5,0.50000006,0.49999994],"name":"3/8\" Lag Bolt_081"},{"mesh":2,"translation":[-0.09014799,1.3741462,-0.64874876],"rotation":[0.5,0.5,0.50000006,0.49999994],"scale":[1.0,0.99999994,0.99999994],"name":"3/8\" Lag Bolt_080"},{"mesh":2,"translation":[0.07309554,1.5570261,-0.6948948],"rotation":[-0.7071068,-0.7071068,-2.6692543E-08,8.850979E-08],"name":"3/8\" Lag Bolt_079"},{"mesh":2,"translation":[0.07309554,1.5570261,-0.40635195],"rotation":[-0.7071068,-0.7071068,-2.6692543E-08,8.850979E-08],"name":"3/8\" Lag Bolt_078"},{"mesh":2,"translation":[0.07309554,1.5570261,-0.43684542],"rotation":[-0.7071068,-0.7071068,-2.6692543E-08,8.850979E-08],"name":"3/8\" Lag Bolt_077"},{"mesh":2,"translation":[0.07309554,1.5570261,-0.6644013],"rotation":[-0.7071068,-0.7071068,-2.6692543E-08,8.850979E-08],"name":"3/8\" Lag Bolt_076"},{"mesh":2,"translation":[0.17632645,1.5570261,-0.6948948],"rotation":[1.7227078E-15,1.7227078E-15,0.7071068,0.7071067],"name":"3/8\" Lag Bolt_075"},{"mesh":2,"translation":[0.17632645,1.5570261,-0.40635195],"rotation":[1.7227078E-15,1.7227078E-15,0.7071068,0.7071067],"name":"3/8\" Lag Bolt_074"},{"mesh":2,"translation":[0.17632645,1.5570261,-0.45249796],"rotation":[-0.5,-0.5,0.50000006,0.49999994],"name":"3/8\" Lag Bolt_073"},{"mesh":2,"translation":[0.17632645,1.5570261,-0.64874876],"rotation":[0.5,0.5,0.50000006,0.49999994],"scale":[1.0,0.99999994,0.99999994],"name":"3/8\" Lag Bolt_072"},{"mesh":2,"translation":[0.33957,1.7399062,-0.6948948],"rotation":[-0.7071068,-0.7071068,-2.6692543E-08,8.850979E-08],"name":"3/8\" Lag Bolt_071"},{"mesh":2,"translation":[0.33957,1.7399062,-0.40635195],"rotation":[-0.7071068,-0.7071068,-2.6692543E-08,8.850979E-08],"name":"3/8\" Lag Bolt_070"},{"mesh":2,"translation":[0.33957,1.7399062,-0.43684542],"rotation":[-0.7071068,-0.7071068,-2.6692543E-08,8.850979E-08],"name":"3/8\" Lag Bolt_069"},{"mesh":2,"translation":[0.33957,1.7399062,-0.6644013],"rotation":[-0.7071068,-0.7071068,-2.6692543E-08,8.850979E-08],"name":"3/8\" Lag Bolt_068"},{"mesh":2,"translation":[0.44280088,1.7399062,-0.6948948],"rotation":[1.7227078E-15,1.7227078E-15,0.7071068,0.7071067],"name":"3/8\" Lag Bolt_067"},{"mesh":2,"translation":[0.44280088,1.7399062,-0.40635195],"rotation":[1.7227078E-15,1.7227078E-15,0.7071068,0.7071067],"name":"3/8\" Lag Bolt_066"},{"mesh":2,"translation":[0.44280088,1.7399062,-0.45249796],"rotation":[-0.5,-0.5,0.50000006,0.49999994],"name":"3/8\" Lag Bolt_065"},{"mesh":2,"translation":[0.44280088,1.7399062,-0.64874876],"rotation":[0.5,0.5,0.50000006,0.49999994],"scale":[1.0,0.99999994,0.99999994],"name":"3/8\" Lag Bolt_064"},{"mesh":2,"translation":[-1.5247427,0.45974618,-0.406283],"rotation":[-0.7071067,-0.7071068,-3.0908623E-08,-3.0908616E-08],"name":"3/8\" Lag Bolt_063"},{"mesh":2,"translation":[-1.5247427,0.45974618,-0.6948258],"rotation":[-0.7071067,-0.7071068,-3.0908623E-08,-3.0908616E-08],"name":"3/8\" Lag Bolt_062"},{"mesh":2,"translation":[-1.5247427,0.45974618,-0.66435325],"rotation":[-0.7071067,-0.7071068,-3.0908623E-08,-3.0908616E-08],"name":"3/8\" Lag Bolt_061"},{"mesh":2,"translation":[-1.5247427,0.45974618,-0.43675554],"rotation":[-0.7071067,-0.7071068,-3.0908623E-08,-3.0908616E-08],"name":"3/8\" Lag Bolt_060"},{"mesh":2,"translation":[-1.4214537,0.45974618,-0.406283],"rotation":[5.7601163E-08,-5.7601163E-08,0.7071068,0.7071068],"name":"3/8\" Lag Bolt_059"},{"mesh":2,"translation":[-1.4214537,0.45974618,-0.6948258],"rotation":[5.7601163E-08,-5.7601163E-08,0.7071068,0.7071068],"name":"3/8\" Lag Bolt_058"},{"mesh":2,"translation":[-1.4214537,0.45974618,-0.6486798],"rotation":[0.49999988,0.5,0.50000006,0.50000006],"scale":[1.0,0.99999994,0.99999994],"name":"3/8\" Lag Bolt_057"},{"mesh":2,"translation":[-1.4214537,0.45974618,-0.452429],"rotation":[-0.49999994,-0.50000006,0.5,0.5],"scale":[1.0,0.99999994,0.99999994],"name":"3/8\" Lag Bolt_056"},{"mesh":2,"translation":[0.6060444,1.9227861,-0.6948948],"rotation":[-0.7071068,-0.7071068,-2.6692543E-08,8.850979E-08],"name":"3/8\" Lag Bolt_055"},{"mesh":2,"translation":[0.6060444,1.9227861,-0.40635195],"rotation":[-0.7071068,-0.7071068,-2.6692543E-08,8.850979E-08],"name":"3/8\" Lag Bolt_054"},{"mesh":2,"translation":[0.6060444,1.9227861,-0.43684542],"rotation":[-0.7071068,-0.7071068,-2.6692543E-08,8.850979E-08],"name":"3/8\" Lag Bolt_053"},{"mesh":2,"translation":[0.6060444,1.9227861,-0.6644013],"rotation":[-0.7071068,-0.7071068,-2.6692543E-08,8.850979E-08],"name":"3/8\" Lag Bolt_052"},{"mesh":2,"translation":[0.70927763,1.9227861,-0.6948948],"rotation":[1.7227078E-15,1.7227078E-15,0.7071068,0.7071067],"name":"3/8\" Lag Bolt_051"},{"mesh":2,"translation":[0.70927763,1.9227861,-0.40635195],"rotation":[1.7227078E-15,1.7227078E-15,0.7071068,0.7071067],"name":"3/8\" Lag Bolt_050"},{"mesh":2,"translation":[0.70927763,1.9227861,-0.45249796],"rotation":[-0.5,-0.5,0.50000006,0.49999994],"name":"3/8\" Lag Bolt_049"},{"mesh":2,"translation":[0.70927763,1.9227861,-0.64874876],"rotation":[0.5,0.5,0.50000006,0.49999994],"scale":[1.0,0.99999994,0.99999994],"name":"3/8\" Lag Bolt_048"},{"mesh":2,"translation":[0.87252116,2.1056662,-0.6948948],"rotation":[-0.7071068,-0.7071068,-2.6692543E-08,8.850979E-08],"name":"3/8\" Lag Bolt_047"},{"mesh":2,"translation":[0.87252116,2.1056662,-0.40635195],"rotation":[-0.7071068,-0.7071068,-2.6692543E-08,8.850979E-08],"name":"3/8\" Lag Bolt_046"},{"mesh":2,"translation":[0.87252116,2.1056662,-0.43684542],"rotation":[-0.7071068,-0.7071068,-2.6692543E-08,8.850979E-08],"name":"3/8\" Lag Bolt_045"},{"mesh":2,"translation":[0.87252116,2.1056662,-0.6644013],"rotation":[-0.7071068,-0.7071068,-2.6692543E-08,8.850979E-08],"name":"3/8\" Lag Bolt_044"},{"mesh":2,"translation":[0.97575206,2.1056662,-0.6948948],"rotation":[1.7227078E-15,1.7227078E-15,0.7071068,0.7071067],"name":"3/8\" Lag Bolt_043"},{"mesh":2,"translation":[0.97575206,2.1056662,-0.40635195],"rotation":[1.7227078E-15,1.7227078E-15,0.7071068,0.7071067],"name":"3/8\" Lag Bolt_042"},{"mesh":2,"translation":[0.97575206,2.1056662,-0.45249796],"rotation":[-0.5,-0.5,0.50000006,0.49999994],"name":"3/8\" Lag Bolt_041"},{"mesh":2,"translation":[0.97575206,2.1056662,-0.64874876],"rotation":[0.5,0.5,0.50000006,0.49999994],"scale":[1.0,0.99999994,0.99999994],"name":"3/8\" Lag Bolt_040"},{"mesh":2,"translation":[-0.99240077,0.82550615,-0.406283],"rotation":[-0.7071067,-0.7071068,-3.0908623E-08,-3.0908616E-08],"name":"3/8\" Lag Bolt_039"},{"mesh":2,"translation":[-0.99240077,0.82550615,-0.6948258],"rotation":[-0.7071067,-0.7071068,-3.0908623E-08,-3.0908616E-08],"name":"3/8\" Lag Bolt_038"},{"mesh":2,"translation":[-0.99240077,0.82550615,-0.66435325],"rotation":[-0.7071067,-0.7071068,-3.0908623E-08,-3.0908616E-08],"name":"3/8\" Lag Bolt_037"},{"mesh":2,"translation":[-0.99240077,0.82550615,-0.43675554],"rotation":[-0.7071067,-0.7071068,-3.0908623E-08,-3.0908616E-08],"name":"3/8\" Lag Bolt_036"},{"mesh":2,"translation":[-0.88911176,0.82550615,-0.406283],"rotation":[5.7601163E-08,-5.7601163E-08,0.7071068,0.7071068],"name":"3/8\" Lag Bolt_035"},{"mesh":2,"translation":[-0.88911176,0.82550615,-0.6948258],"rotation":[5.7601163E-08,-5.7601163E-08,0.7071068,0.7071068],"name":"3/8\" Lag Bolt_034"},{"mesh":2,"translation":[-0.88911176,0.82550615,-0.6486798],"rotation":[0.49999988,0.5,0.50000006,0.50000006],"scale":[1.0,0.99999994,0.99999994],"name":"3/8\" Lag Bolt_033"},{"mesh":2,"translation":[-0.88911176,0.82550615,-0.452429],"rotation":[-0.49999994,-0.50000006,0.5,0.5],"scale":[1.0,0.99999994,0.99999994],"name":"3/8\" Lag Bolt_032"},{"mesh":2,"translation":[-1.2585706,0.64262617,-0.406283],"rotation":[-0.7071067,-0.7071068,-3.0908623E-08,-3.0908616E-08],"name":"3/8\" Lag Bolt_031"},{"mesh":2,"translation":[-1.2585706,0.64262617,-0.6948258],"rotation":[-0.7071067,-0.7071068,-3.0908623E-08,-3.0908616E-08],"name":"3/8\" Lag Bolt_030"},{"mesh":2,"translation":[-1.2585706,0.64262617,-0.66435325],"rotation":[-0.7071067,-0.7071068,-3.0908623E-08,-3.0908616E-08],"name":"3/8\" Lag Bolt_029"},{"mesh":2,"translation":[-1.2585706,0.64262617,-0.43675554],"rotation":[-0.7071067,-0.7071068,-3.0908623E-08,-3.0908616E-08],"name":"3/8\" Lag Bolt_028"},{"mesh":2,"translation":[-1.1552838,0.64262617,-0.406283],"rotation":[5.7601163E-08,-5.7601163E-08,0.7071068,0.7071068],"name":"3/8\" Lag Bolt_027"},{"mesh":2,"translation":[-1.1552838,0.64262617,-0.6948258],"rotation":[5.7601163E-08,-5.7601163E-08,0.7071068,0.7071068],"name":"3/8\" Lag Bolt_026"},{"mesh":2,"translation":[-1.1552838,0.64262617,-0.6486798],"rotation":[0.49999988,0.5,0.50000006,0.50000006],"scale":[1.0,0.99999994,0.99999994],"name":"3/8\" Lag Bolt_025"},{"mesh":2,"translation":[-1.1552838,0.64262617,-0.452429],"rotation":[-0.49999994,-0.50000006,0.5,0.5],"scale":[1.0,0.99999994,0.99999994],"name":"3/8\" Lag Bolt_024"},{"mesh":2,"translation":[1.1389956,2.2885463,-0.6948948],"rotation":[-0.7071068,-0.7071068,-2.6692543E-08,8.850979E-08],"name":"3/8\" Lag Bolt_023"},{"mesh":2,"translation":[1.1389956,2.2885463,-0.40635195],"rotation":[-0.7071068,-0.7071068,-2.6692543E-08,8.850979E-08],"name":"3/8\" Lag Bolt_022"},{"mesh":2,"translation":[1.1389956,2.2885463,-0.43684542],"rotation":[-0.7071068,-0.7071068,-2.6692543E-08,8.850979E-08],"name":"3/8\" Lag Bolt_021"},{"mesh":2,"translation":[1.1389956,2.2885463,-0.6644013],"rotation":[-0.7071068,-0.7071068,-2.6692543E-08,8.850979E-08],"name":"3/8\" Lag Bolt_020"},{"mesh":2,"translation":[1.2422265,2.2885463,-0.6948948],"rotation":[1.7227078E-15,1.7227078E-15,0.7071068,0.7071067],"name":"3/8\" Lag Bolt_019"},{"mesh":2,"translation":[1.2422265,2.2885463,-0.40635195],"rotation":[1.7227078E-15,1.7227078E-15,0.7071068,0.7071067],"name":"3/8\" Lag Bolt_018"},{"mesh":2,"translation":[1.2422265,2.2885463,-0.45249796],"rotation":[-0.5,-0.5,0.50000006,0.49999994],"name":"3/8\" Lag Bolt_017"},{"mesh":2,"translation":[1.2422265,2.2885463,-0.64874876],"rotation":[0.5,0.5,0.50000006,0.49999994],"scale":[1.0,0.99999994,0.99999994],"name":"3/8\" Lag Bolt_016"},{"mesh":2,"translation":[-0.4600587,1.1912663,-0.6948257],"rotation":[-0.7071067,-0.7071068,-3.0908623E-08,-3.0908616E-08],"name":"3/8\" Lag Bolt_120"},{"mesh":2,"translation":[-0.4600587,1.1912663,-0.66435313],"rotation":[-0.7071067,-0.7071068,-3.0908623E-08,-3.0908616E-08],"name":"3/8\" Lag Bolt_121"},{"mesh":2,"translation":[-0.4600587,1.1912663,-0.43675542],"rotation":[-0.7071067,-0.7071068,-3.0908623E-08,-3.0908616E-08],"name":"3/8\" Lag Bolt_122"},{"mesh":2,"translation":[-0.4600587,1.1912663,-0.40628287],"rotation":[-0.7071067,-0.7071068,-3.0908623E-08,-3.0908616E-08],"name":"3/8\" Lag Bolt_123"},{"mesh":2,"translation":[-0.35676965,1.1912663,-0.6948257],"rotation":[5.7601163E-08,-5.7601163E-08,0.7071068,0.7071068],"name":"3/8\" Lag Bolt_124"},{"mesh":2,"translation":[-0.35676965,1.1912663,-0.6486797],"rotation":[0.49999988,0.5,0.50000006,0.50000006],"scale":[1.0,0.99999994,0.99999994],"name":"3/8\" Lag Bolt_125"},{"mesh":2,"translation":[-0.35676965,1.1912663,-0.4524289],"rotation":[-0.49999994,-0.50000006,0.5,0.5],"scale":[1.0,0.99999994,0.99999994],"name":"3/8\" Lag Bolt_126"},{"mesh":2,"translation":[-0.35676965,1.1912663,-0.40628287],"rotation":[5.7601163E-08,-5.7601163E-08,0.7071068,0.7071068],"name":"3/8\" Lag Bolt_127"},{"mesh":3,"translation":[0.27916902,1.28016,-0.55062455],"rotation":[-0.0,0.7071068,0.0,0.7071067],"name":"Stair Stringer_Upper"},{"mesh":4,"translation":[1.4320521,2.3956823,-0.55062455],"rotation":[0.2094599,-0.67537147,0.20945995,0.67537135],"name":"Tread Support_006"},{"mesh":4,"translation":[-0.1667968,1.2984023,-0.55062455],"rotation":[0.2094599,-0.67537147,0.20945995,0.67537135],"name":"Tread Support_000"},{"mesh":4,"translation":[0.09967764,1.4812822,-0.55062455],"rotation":[0.2094599,-0.67537147,0.20945995,0.67537135],"name":"Tread Support_001"},{"mesh":4,"translation":[0.36615208,1.6641624,-0.55062455],"rotation":[0.2094599,-0.67537147,0.20945995,0.67537135],"name":"Tread Support_002"},{"mesh":4,"translation":[0.63262653,1.8470423,-0.55062455],"rotation":[0.2094599,-0.67537147,0.20945995,0.67537135],"name":"Tread Support_003"},{"mesh":4,"translation":[0.8991033,2.0299222,-0.55062455],"rotation":[0.2094599,-0.67537147,0.20945995,0.67537135],"name":"Tread Support_004"},{"mesh":4,"translation":[1.1655777,2.2128024,-0.55062455],"rotation":[0.2094599,-0.67537147,0.20945995,0.67537135],"name":"Tread Support_005"},{"mesh":5,"translation":[1.6063206,2.4115884,-0.55062455],"rotation":[-0.0,-0.7071068,0.0,0.7071067],"name":"Header Plate"},{"mesh":6,"translation":[1.6063206,2.4592133,-0.5141105],"rotation":[-3.0908623E-08,0.7071067,0.7071068,3.0908616E-08],"name":"3/8\" FHSCS_030"},{"mesh":6,"translation":[1.6063206,2.4592133,-0.58713627],"rotation":[-3.0908623E-08,0.7071067,0.7071068,3.0908616E-08],"name":"3/8\" FHSCS_031"},{"mesh":6,"translation":[1.6063206,2.3639634,-0.58713627],"rotation":[-3.0908623E-08,0.7071067,0.7071068,3.0908616E-08],"name":"3/8\" FHSCS_032"},{"mesh":6,"translation":[1.6063206,2.3639634,-0.55062455],"rotation":[-3.0908623E-08,0.7071067,0.7071068,3.0908616E-08],"name":"3/8\" FHSCS_033"},{"mesh":6,"translation":[1.6063206,2.3639634,-0.5141082],"rotation":[-3.0908623E-08,0.7071067,0.7071068,3.0908616E-08],"name":"3/8\" FHSCS_034"},{"mesh":6,"translation":[1.6063206,2.4592133,-0.55062455],"rotation":[-3.0908623E-08,0.7071067,0.7071068,3.0908616E-08],"name":"3/8\" FHSCS_035"},{"mesh":7,"translation":[1.6063206,2.4115884,-0.55062455],"rotation":[-0.0,-0.7071068,0.0,0.7071067],"name":"Header Plate Cover"},{"mesh":8,"translation":[1.3057438,2.4665384,-0.55062425],"name":"Tread LED_000"},{"mesh":8,"translation":[1.0392704,2.283659,-0.55062425],"name":"Tread LED_001"},{"mesh":8,"translation":[0.77279705,2.100779,-0.55062425],"name":"Tread LED_002"},{"mesh":8,"translation":[0.50632364,1.9178993,-0.55062425],"name":"Tread LED_003"},{"mesh":8,"translation":[0.2398502,1.7350194,-0.55062425],"name":"Tread LED_004"},{"mesh":8,"translation":[-0.02662323,1.5521396,-0.55062425],"name":"Tread LED_005"},{"mesh":8,"translation":[-0.29309666,1.3692597,-0.55062425],"name":"Tread LED_006"},{"mesh":8,"translation":[-0.82594204,1.0034983,-0.55060035],"rotation":[-0.0,-1.0,0.0,-4.371139E-08],"name":"Tread LED_008"},{"mesh":8,"translation":[-1.0921118,0.8206184,-0.55060035],"rotation":[-0.0,-1.0,0.0,-4.371139E-08],"name":"Tread LED_009"},{"mesh":8,"translation":[-1.3582814,0.6377384,-0.55060035],"rotation":[-0.0,-1.0,0.0,-4.371139E-08],"name":"Tread LED_010"},{"mesh":8,"translation":[-1.6244512,0.45485836,-0.55060035],"rotation":[-0.0,-1.0,0.0,-4.371139E-08],"name":"Tread LED_011"},{"mesh":8,"translation":[-1.8906213,0.27197835,-0.55060035],"rotation":[-0.0,-1.0,0.0,-4.371139E-08],"name":"Tread LED_012"},{"mesh":8,"translation":[-2.1567914,0.08909838,-0.55060035],"rotation":[-0.0,-1.0,0.0,-4.371139E-08],"name":"Tread LED_013"},{"mesh":8,"translation":[-0.55976975,1.1863785,-0.55060023],"rotation":[-0.0,-1.0,0.0,-4.371139E-08],"name":"Tread LED_014"},{"mesh":9,"translation":[0.27916902,1.28016,-0.55062455],"rotation":[-0.0,0.7071068,0.0,0.7071067],"name":"Floor Nosing002"},{"mesh":10,"translation":[0.09636931,1.5951201,-0.5506245],"rotation":[-0.0,1.7484555E-07,0.0,1.0],"name":"Tread Block_053"},{"mesh":11,"translation":[-0.17010513,1.4122401,-0.5506245],"rotation":[-0.0,1.7484555E-07,0.0,1.0],"name":"Tread Block_054"},{"mesh":12,"translation":[0.36284372,1.7780001,-0.5506245],"rotation":[-0.0,1.7484555E-07,0.0,1.0],"name":"Tread Block_055"},{"mesh":13,"translation":[0.62932056,1.96088,-0.5506245],"rotation":[-0.0,1.7484555E-07,0.0,1.0],"name":"Tread Block_056"},{"mesh":14,"translation":[0.895795,2.14376,-0.5506245],"rotation":[-0.0,1.7484555E-07,0.0,1.0],"name":"Tread Block_057"},{"mesh":15,"translation":[1.1622694,2.3266401,-0.5506245],"rotation":[-0.0,1.7484555E-07,0.0,1.0],"name":"Tread Block_058"},{"mesh":16,"translation":[1.4287437,2.5095198,-0.5506245],"rotation":[-0.0,2.3849761E-08,0.0,1.0],"name":"Tread Block_059"},{"mesh":17,"translation":[-0.70294285,1.04648,-0.55055326],"name":"Tread Block_077"},{"mesh":18,"translation":[-0.96911293,0.8636,-0.55055326],"name":"Tread Block_072"},{"mesh":19,"translation":[-1.2352824,0.68072003,-0.55055326],"name":"Tread Block_073"},{"mesh":20,"translation":[-1.5014546,0.49784002,-0.55055326],"name":"Tread Block_074"},{"mesh":21,"translation":[-1.7676247,0.31496003,-0.55055326],"name":"Tread Block_075"},{"mesh":22,"translation":[-2.0337968,0.13208,-0.55055326],"name":"Tread Block_076"},{"mesh":23,"translation":[-0.4367709,1.22936,-0.55055314],"name":"Tread Block_079"},{"translation":[0.77279705,2.105661,-0.550623],"rotation":[-0.70710677,-0.0,0.0,0.70710677],"name":"Tread LED_Light_002","extensions":{"KHR_lights_punctual":{"light":0}}},{"translation":[0.50632364,1.9227812,-0.550623],"rotation":[-0.70710677,-0.0,0.0,0.70710677],"name":"Tread LED_Light_003","extensions":{"KHR_lights_punctual":{"light":1}}},{"translation":[0.2398502,1.7399014,-0.550623],"rotation":[-0.70710677,-0.0,0.0,0.70710677],"name":"Tread LED_Light_004","extensions":{"KHR_lights_punctual":{"light":2}}},{"translation":[-0.02662323,1.5570215,-0.55062425],"rotation":[-0.70710677,-0.0,0.0,0.70710677],"name":"Tread LED_Light_005","extensions":{"KHR_lights_punctual":{"light":3}}},{"translation":[-0.29309666,1.3741417,-0.55062425],"rotation":[-0.70710677,-0.0,0.0,0.70710677],"name":"Tread LED_Light_006","extensions":{"KHR_lights_punctual":{"light":4}}},{"translation":[-0.2931074,1.3741417,-0.8554242],"rotation":[-0.70710677,-0.0,0.0,0.70710677],"name":"Tread LED_Light_021","extensions":{"KHR_lights_punctual":{"light":5}}},{"translation":[-0.026633967,1.5570215,-0.8554242],"rotation":[-0.70710677,-0.0,0.0,0.70710677],"name":"Tread LED_Light_022","extensions":{"KHR_lights_punctual":{"light":6}}},{"translation":[0.23983945,1.7399014,-0.85542303],"rotation":[-0.70710677,-0.0,0.0,0.70710677],"name":"Tread LED_Light_023","extensions":{"KHR_lights_punctual":{"light":7}}},{"translation":[0.50631285,1.9227812,-0.85542303],"rotation":[-0.70710677,-0.0,0.0,0.70710677],"name":"Tread LED_Light_024","extensions":{"KHR_lights_punctual":{"light":8}}},{"translation":[0.77278626,2.105661,-0.85542303],"rotation":[-0.70710677,-0.0,0.0,0.70710677],"name":"Tread LED_Light_025","extensions":{"KHR_lights_punctual":{"light":9}}},{"translation":[-0.29309666,1.3741417,-0.24582425],"rotation":[-0.70710677,-0.0,0.0,0.70710677],"name":"Tread LED_Light_035","extensions":{"KHR_lights_punctual":{"light":10}}},{"translation":[-0.02662323,1.5570215,-0.24582425],"rotation":[-0.70710677,-0.0,0.0,0.70710677],"name":"Tread LED_Light_036","extensions":{"KHR_lights_punctual":{"light":11}}},{"translation":[0.2398502,1.7399014,-0.24582301],"rotation":[-0.70710677,-0.0,0.0,0.70710677],"name":"Tread LED_Light_037","extensions":{"KHR_lights_punctual":{"light":12}}},{"translation":[0.50632364,1.9227812,-0.24582301],"rotation":[-0.70710677,-0.0,0.0,0.70710677],"name":"Tread LED_Light_038","extensions":{"KHR_lights_punctual":{"light":13}}},{"translation":[0.77279705,2.105661,-0.24582301],"rotation":[-0.70710677,-0.0,0.0,0.70710677],"name":"Tread LED_Light_039","extensions":{"KHR_lights_punctual":{"light":14}}},{"translation":[1.0392704,2.2885408,-0.550623],"rotation":[-0.70710677,-0.0,0.0,0.70710677],"name":"Tread LED_Light_124","extensions":{"KHR_lights_punctual":{"light":15}}},{"translation":[1.0392597,2.2885408,-0.85542303],"rotation":[-0.70710677,-0.0,0.0,0.70710677],"name":"Tread LED_Light_125","extensions":{"KHR_lights_punctual":{"light":16}}},{"translation":[1.0392704,2.2885408,-0.24582301],"rotation":[-0.70710677,-0.0,0.0,0.70710677],"name":"Tread LED_Light_126","extensions":{"KHR_lights_punctual":{"light":17}}},{"translation":[1.3057438,2.4714208,-0.550623],"rotation":[-0.70710677,-0.0,0.0,0.70710677],"name":"Tread LED_Light_127","extensions":{"KHR_lights_punctual":{"light":18}}},{"translation":[1.3057331,2.4714208,-0.85542303],"rotation":[-0.70710677,-0.0,0.0,0.70710677],"name":"Tread LED_Light_128","extensions":{"KHR_lights_punctual":{"light":19}}},{"translation":[1.3057438,2.4714208,-0.24582301],"rotation":[-0.70710677,-0.0,0.0,0.70710677],"name":"Tread LED_Light_129","extensions":{"KHR_lights_punctual":{"light":20}}},{"translation":[-1.0908977,0.8206177,-0.5506221],"rotation":[-0.70710677,-0.0,0.0,0.70710677],"name":"Tread LED_Light_130","extensions":{"KHR_lights_punctual":{"light":21}}},{"translation":[-1.3573711,0.6377378,-0.5506221],"rotation":[-0.70710677,-0.0,0.0,0.70710677],"name":"Tread LED_Light_131","extensions":{"KHR_lights_punctual":{"light":22}}},{"translation":[-1.6238445,0.45485803,-0.5506221],"rotation":[-0.70710677,-0.0,0.0,0.70710677],"name":"Tread LED_Light_132","extensions":{"KHR_lights_punctual":{"light":23}}},{"translation":[-1.8903179,0.2719782,-0.55062336],"rotation":[-0.70710677,-0.0,0.0,0.70710677],"name":"Tread LED_Light_133","extensions":{"KHR_lights_punctual":{"light":24}}},{"translation":[-2.1567914,0.08909838,-0.55062336],"rotation":[-0.70710677,-0.0,0.0,0.70710677],"name":"Tread LED_Light_134","extensions":{"KHR_lights_punctual":{"light":25}}},{"translation":[-2.1568022,0.08909838,-0.8554234],"rotation":[-0.70710677,-0.0,0.0,0.70710677],"name":"Tread LED_Light_135","extensions":{"KHR_lights_punctual":{"light":26}}},{"translation":[-1.8903286,0.2719782,-0.8554234],"rotation":[-0.70710677,-0.0,0.0,0.70710677],"name":"Tread LED_Light_136","extensions":{"KHR_lights_punctual":{"light":27}}},{"translation":[-1.6238552,0.45485803,-0.85542214],"rotation":[-0.70710677,-0.0,0.0,0.70710677],"name":"Tread LED_Light_137","extensions":{"KHR_lights_punctual":{"light":28}}},{"translation":[-1.3573818,0.6377378,-0.85542214],"rotation":[-0.70710677,-0.0,0.0,0.70710677],"name":"Tread LED_Light_138","extensions":{"KHR_lights_punctual":{"light":29}}},{"translation":[-1.0909084,0.8206177,-0.85542214],"rotation":[-0.70710677,-0.0,0.0,0.70710677],"name":"Tread LED_Light_139","extensions":{"KHR_lights_punctual":{"light":30}}},{"translation":[-2.1567914,0.08909838,-0.24582335],"rotation":[-0.70710677,-0.0,0.0,0.70710677],"name":"Tread LED_Light_140","extensions":{"KHR_lights_punctual":{"light":31}}},{"translation":[-1.8903179,0.2719782,-0.24582335],"rotation":[-0.70710677,-0.0,0.0,0.70710677],"name":"Tread LED_Light_141","extensions":{"KHR_lights_punctual":{"light":32}}},{"translation":[-1.6238445,0.45485803,-0.24582212],"rotation":[-0.70710677,-0.0,0.0,0.70710677],"name":"Tread LED_Light_142","extensions":{"KHR_lights_punctual":{"light":33}}},{"translation":[-1.3573711,0.6377378,-0.24582212],"rotation":[-0.70710677,-0.0,0.0,0.70710677],"name":"Tread LED_Light_143","extensions":{"KHR_lights_punctual":{"light":34}}},{"translation":[-1.0908977,0.8206177,-0.24582212],"rotation":[-0.70710677,-0.0,0.0,0.70710677],"name":"Tread LED_Light_144","extensions":{"KHR_lights_punctual":{"light":35}}},{"translation":[-0.82442427,1.0034975,-0.5506221],"rotation":[-0.70710677,-0.0,0.0,0.70710677],"name":"Tread LED_Light_145","extensions":{"KHR_lights_punctual":{"light":36}}},{"translation":[-0.824435,1.0034975,-0.85542214],"rotation":[-0.70710677,-0.0,0.0,0.70710677],"name":"Tread LED_Light_146","extensions":{"KHR_lights_punctual":{"light":37}}},{"translation":[-0.82442427,1.0034975,-0.24582212],"rotation":[-0.70710677,-0.0,0.0,0.70710677],"name":"Tread LED_Light_147","extensions":{"KHR_lights_punctual":{"light":38}}},{"translation":[-0.55795085,1.1863773,-0.5506221],"rotation":[-0.70710677,-0.0,0.0,0.70710677],"name":"Tread LED_Light_148","extensions":{"KHR_lights_punctual":{"light":39}}},{"translation":[-0.5579616,1.1863773,-0.85542214],"rotation":[-0.70710677,-0.0,0.0,0.70710677],"name":"Tread LED_Light_149","extensions":{"KHR_lights_punctual":{"light":40}}},{"translation":[-0.55795085,1.1863773,-0.24582212],"rotation":[-0.70710677,-0.0,0.0,0.70710677],"name":"Tread LED_Light_150","extensions":{"KHR_lights_punctual":{"light":41}}},{"translation":[-0.55856633,1.1863778,-0.855422],"rotation":[-0.70710677,-0.0,0.0,0.70710677],"name":"Tread LED_Light_151","extensions":{"KHR_lights_punctual":{"light":42}}},{"translation":[-0.5585556,1.1863778,-0.24582201],"rotation":[-0.70710677,-0.0,0.0,0.70710677],"name":"Tread LED_Light_152","extensions":{"KHR_lights_punctual":{"light":43}}},{"translation":[-0.5585556,1.1863778,-0.550622],"rotation":[-0.70710677,-0.0,0.0,0.70710677],"name":"Tread LED_Light_153","extensions":{"KHR_lights_punctual":{"light":44}}},{"translation":[-0.29208216,1.3692576,-0.550622],"rotation":[-0.70710677,-0.0,0.0,0.70710677],"name":"Tread LED_Light_154","extensions":{"KHR_lights_punctual":{"light":45}}},{"translation":[-0.29209292,1.3692576,-0.855422],"rotation":[-0.70710677,-0.0,0.0,0.70710677],"name":"Tread LED_Light_155","extensions":{"KHR_lights_punctual":{"light":46}}},{"translation":[-0.29208216,1.3692576,-0.24582201],"rotation":[-0.70710677,-0.0,0.0,0.70710677],"name":"Tread LED_Light_156","extensions":{"KHR_lights_punctual":{"light":47}}}],"meshes":[{"primitives":[{"attributes":{"POSITION":1,"TANGENT":2,"NORMAL":3,"TEXCOORD_0":4},"indices":0,"material":0}],"name":"Tread Support_012"},{"primitives":[{"attributes":{"POSITION":6,"TANGENT":7,"NORMAL":8,"TEXCOORD_0":9},"indices":5,"material":0}],"name":"Footer Plate"},{"primitives":[{"attributes":{"POSITION":11,"TANGENT":12,"NORMAL":13,"TEXCOORD_0":14},"indices":10,"material":0}],"name":"3/8\" Lag Bolt_007"},{"primitives":[{"attributes":{"POSITION":16,"TANGENT":17,"NORMAL":18,"TEXCOORD_0":19},"indices":15,"material":0}],"name":"Stair Stringer_Upper"},{"primitives":[{"attributes":{"POSITION":21,"TANGENT":22,"NORMAL":23,"TEXCOORD_0":24},"indices":20,"material":0}],"name":"Tread Support_006"},{"primitives":[{"attributes":{"POSITION":26,"TANGENT":27,"NORMAL":28,"TEXCOORD_0":29},"indices":25,"material":0}],"name":"Header Plate"},{"primitives":[{"attributes":{"POSITION":31,"TANGENT":32,"NORMAL":33,"TEXCOORD_0":34},"indices":30,"material":0}],"name":"3/8\" FHSCS_030"},{"primitives":[{"attributes":{"POSITION":36,"TANGENT":37,"NORMAL":38,"TEXCOORD_0":39},"indices":35,"material":0}],"name":"Header Plate Cover"},{"primitives":[{"attributes":{"POSITION":41,"NORMAL":42},"indices":40,"material":1}],"name":"Tread LED_000"},{"primitives":[{"attributes":{"POSITION":44,"TANGENT":45,"NORMAL":46,"TEXCOORD_0":47},"indices":43,"material":2}],"name":"Floor Nosing002"},{"primitives":[{"attributes":{"POSITION":49,"TANGENT":50,"NORMAL":51,"TEXCOORD_0":52},"indices":48,"material":2}],"name":"Tread Block_053"},{"primitives":[{"attributes":{"POSITION":54,"TANGENT":55,"NORMAL":56,"TEXCOORD_0":57},"indices":53,"material":2}],"name":"Tread Block_054"},{"primitives":[{"attributes":{"POSITION":59,"TANGENT":60,"NORMAL":61,"TEXCOORD_0":62},"indices":58,"material":2}],"name":"Tread Block_055"},{"primitives":[{"attributes":{"POSITION":64,"TANGENT":65,"NORMAL":66,"TEXCOORD_0":67},"indices":63,"material":2}],"name":"Tread Block_056"},{"primitives":[{"attributes":{"POSITION":69,"TANGENT":70,"NORMAL":71,"TEXCOORD_0":72},"indices":68,"material":2}],"name":"Tread Block_057"},{"primitives":[{"attributes":{"POSITION":74,"TANGENT":75,"NORMAL":76,"TEXCOORD_0":77},"indices":73,"material":2}],"name":"Tread Block_058"},{"primitives":[{"attributes":{"POSITION":79,"TANGENT":80,"NORMAL":81,"TEXCOORD_0":82},"indices":78,"material":2}],"name":"Tread Block_059"},{"primitives":[{"attributes":{"POSITION":84,"TANGENT":85,"NORMAL":86,"TEXCOORD_0":87},"indices":83,"material":2}],"name":"Tread Block_077"},{"primitives":[{"attributes":{"POSITION":89,"TANGENT":90,"NORMAL":91,"TEXCOORD_0":92},"indices":88,"material":2}],"name":"Tread Block_072"},{"primitives":[{"attributes":{"POSITION":94,"TANGENT":95,"NORMAL":96,"TEXCOORD_0":97},"indices":93,"material":2}],"name":"Tread Block_073"},{"primitives":[{"attributes":{"POSITION":99,"TANGENT":100,"NORMAL":101,"TEXCOORD_0":102},"indices":98,"material":2}],"name":"Tread Block_074"},{"primitives":[{"attributes":{"POSITION":104,"TANGENT":105,"NORMAL":106,"TEXCOORD_0":107},"indices":103,"material":2}],"name":"Tread Block_075"},{"primitives":[{"attributes":{"POSITION":109,"TANGENT":110,"NORMAL":111,"TEXCOORD_0":112},"indices":108,"material":2}],"name":"Tread Block_076"},{"primitives":[{"attributes":{"POSITION":114,"TANGENT":115,"NORMAL":116,"TEXCOORD_0":117},"indices":113,"material":2}],"name":"Tread Block_079"}],"accessors":[{"bufferView":0,"componentType":5123,"count":138,"type":"SCALAR","name":"accessorIndices"},{"bufferView":1,"componentType":5126,"count":85,"max":[0.169672,0.097199045,0.13059595],"min":[-0.169672,-5.295887E-09,-0.0063500004],"type":"VEC3","name":"accessorPositions"},{"bufferView":2,"componentType":5126,"count":85,"type":"VEC4","name":"accessorTangents"},{"bufferView":1,"byteOffset":1020,"componentType":5126,"count":85,"type":"VEC3","name":"accessorNormals"},{"bufferView":3,"componentType":5126,"count":85,"type":"VEC2","name":"accessorUVs"},{"bufferView":0,"byteOffset":276,"componentType":5123,"count":36,"type":"SCALAR","name":"accessorIndices"},{"bufferView":1,"byteOffset":2040,"componentType":5126,"count":24,"max":[0.1524,0.012700001,0.1387602],"min":[-0.1524,-1.8678233E-15,-0.2041398],"type":"VEC3","name":"accessorPositions"},{"bufferView":2,"byteOffset":1360,"componentType":5126,"count":24,"type":"VEC4","name":"accessorTangents"},{"bufferView":1,"byteOffset":2328,"componentType":5126,"count":24,"type":"VEC3","name":"accessorNormals"},{"bufferView":3,"byteOffset":680,"componentType":5126,"count":24,"type":"VEC2","name":"accessorUVs"},{"bufferView":0,"byteOffset":348,"componentType":5123,"count":138,"type":"SCALAR","name":"accessorIndices"},{"bufferView":1,"byteOffset":2616,"componentType":5126,"count":60,"max":[6.47623E-15,0.0082677,0.007160038],"min":[-0.008559801,-0.0082677,-0.007160038],"type":"VEC3","name":"accessorPositions"},{"bufferView":2,"byteOffset":1744,"componentType":5126,"count":60,"type":"VEC4","name":"accessorTangents"},{"bufferView":1,"byteOffset":3336,"componentType":5126,"count":60,"type":"VEC3","name":"accessorNormals"},{"bufferView":3,"byteOffset":872,"componentType":5126,"count":60,"type":"VEC2","name":"accessorUVs"},{"bufferView":0,"byteOffset":624,"componentType":5123,"count":228,"type":"SCALAR","name":"accessorIndices"},{"bufferView":1,"byteOffset":4056,"componentType":5126,"count":112,"max":[0.0762,1.2307625,1.3208001],"min":[-0.07627123,-1.26746,-2.3175597],"type":"VEC3","name":"accessorPositions"},{"bufferView":2,"byteOffset":2704,"componentType":5126,"count":112,"type":"VEC4","name":"accessorTangents"},{"bufferView":1,"byteOffset":5400,"componentType":5126,"count":112,"type":"VEC3","name":"accessorNormals"},{"bufferView":3,"byteOffset":1352,"componentType":5126,"count":112,"type":"VEC2","name":"accessorUVs"},{"bufferView":0,"byteOffset":1080,"componentType":5123,"count":156,"type":"SCALAR","name":"accessorIndices"},{"bufferView":1,"byteOffset":6744,"componentType":5126,"count":92,"max":[0.1696718,0.09710105,0.006349899],"min":[-0.1696718,0.0,-0.13059309],"type":"VEC3","name":"accessorPositions"},{"bufferView":2,"byteOffset":4496,"componentType":5126,"count":92,"type":"VEC4","name":"accessorTangents"},{"bufferView":1,"byteOffset":7848,"componentType":5126,"count":92,"type":"VEC3","name":"accessorNormals"},{"bufferView":3,"byteOffset":2248,"componentType":5126,"count":92,"type":"VEC2","name":"accessorUVs"},{"bufferView":0,"byteOffset":1392,"componentType":5123,"count":1860,"type":"SCALAR","name":"accessorIndices"},{"bufferView":1,"byteOffset":8952,"componentType":5126,"count":660,"max":[0.16510001,0.2205445,0.0063500004],"min":[-0.16510001,-0.09695551,-0.0],"type":"VEC3","name":"accessorPositions"},{"bufferView":2,"byteOffset":5968,"componentType":5126,"count":660,"type":"VEC4","name":"accessorTangents"},{"bufferView":1,"byteOffset":16872,"componentType":5126,"count":660,"type":"VEC3","name":"accessorNormals"},{"bufferView":3,"byteOffset":2984,"componentType":5126,"count":660,"type":"VEC2","name":"accessorUVs"},{"bufferView":0,"byteOffset":5112,"componentType":5123,"count":180,"type":"SCALAR","name":"accessorIndices"},{"bufferView":1,"byteOffset":24792,"componentType":5126,"count":76,"max":[0.004723497,0.009498697,0.009498697],"min":[1.8683688E-14,-0.009498697,-0.009498697],"type":"VEC3","name":"accessorPositions"},{"bufferView":2,"byteOffset":16528,"componentType":5126,"count":76,"type":"VEC4","name":"accessorTangents"},{"bufferView":1,"byteOffset":25704,"componentType":5126,"count":76,"type":"VEC3","name":"accessorNormals"},{"bufferView":3,"byteOffset":8264,"componentType":5126,"count":76,"type":"VEC2","name":"accessorUVs"},{"bufferView":0,"byteOffset":5472,"componentType":5123,"count":84,"type":"SCALAR","name":"accessorIndices"},{"bufferView":1,"byteOffset":26616,"componentType":5126,"count":48,"max":[0.1692656,0.2247101,0.026339801],"min":[-0.1692656,0.010105494,8.569285E-15],"type":"VEC3","name":"accessorPositions"},{"bufferView":2,"byteOffset":17744,"componentType":5126,"count":48,"type":"VEC4","name":"accessorTangents"},{"bufferView":1,"byteOffset":27192,"componentType":5126,"count":48,"type":"VEC3","name":"accessorNormals"},{"bufferView":3,"byteOffset":8872,"componentType":5126,"count":48,"type":"VEC2","name":"accessorUVs"},{"bufferView":0,"byteOffset":5640,"componentType":5123,"count":6,"type":"SCALAR","name":"accessorIndices"},{"bufferView":1,"byteOffset":27768,"componentType":5126,"count":4,"max":[0.0063500004,0.0,0.5715],"min":[-0.0063500004,0.0,-0.5715],"type":"VEC3","name":"accessorPositions"},{"bufferView":1,"byteOffset":27816,"componentType":5126,"count":4,"type":"VEC3","name":"accessorNormals"},{"bufferView":0,"byteOffset":5652,"componentType":5123,"count":1764,"type":"SCALAR","name":"accessorIndices"},{"bufferView":1,"byteOffset":27864,"componentType":5126,"count":384,"max":[0.6096,1.4630401,1.32715],"min":[-0.6096,1.41224,1.27],"type":"VEC3","name":"accessorPositions"},{"bufferView":2,"byteOffset":18512,"componentType":5126,"count":384,"type":"VEC4","name":"accessorTangents"},{"bufferView":1,"byteOffset":32472,"componentType":5126,"count":384,"type":"VEC3","name":"accessorNormals"},{"bufferView":3,"byteOffset":9256,"componentType":5126,"count":384,"type":"VEC2","name":"accessorUVs"},{"bufferView":0,"byteOffset":9180,"componentType":5123,"count":3168,"type":"SCALAR","name":"accessorIndices"},{"bufferView":1,"byteOffset":37080,"componentType":5126,"count":968,"max":[0.15240052,0.050800525,0.6096003],"min":[-0.15240006,-0.050801016,-0.60959977],"type":"VEC3","name":"accessorPositions"},{"bufferView":2,"byteOffset":24656,"componentType":5126,"count":968,"type":"VEC4","name":"accessorTangents"},{"bufferView":1,"byteOffset":48696,"componentType":5126,"count":968,"type":"VEC3","name":"accessorNormals"},{"bufferView":3,"byteOffset":12328,"componentType":5126,"count":968,"type":"VEC2","name":"accessorUVs"},{"bufferView":0,"byteOffset":15516,"componentType":5123,"count":3168,"type":"SCALAR","name":"accessorIndices"},{"bufferView":1,"byteOffset":60312,"componentType":5126,"count":968,"max":[0.15240052,0.050800525,0.6096003],"min":[-0.15240006,-0.050801016,-0.60959977],"type":"VEC3","name":"accessorPositions"},{"bufferView":2,"byteOffset":40144,"componentType":5126,"count":968,"type":"VEC4","name":"accessorTangents"},{"bufferView":1,"byteOffset":71928,"componentType":5126,"count":968,"type":"VEC3","name":"accessorNormals"},{"bufferView":3,"byteOffset":20072,"componentType":5126,"count":968,"type":"VEC2","name":"accessorUVs"},{"bufferView":0,"byteOffset":21852,"componentType":5123,"count":3168,"type":"SCALAR","name":"accessorIndices"},{"bufferView":1,"byteOffset":83544,"componentType":5126,"count":968,"max":[0.15240052,0.050800525,0.6096003],"min":[-0.15240006,-0.050801016,-0.60959977],"type":"VEC3","name":"accessorPositions"},{"bufferView":2,"byteOffset":55632,"componentType":5126,"count":968,"type":"VEC4","name":"accessorTangents"},{"bufferView":1,"byteOffset":95160,"componentType":5126,"count":968,"type":"VEC3","name":"accessorNormals"},{"bufferView":3,"byteOffset":27816,"componentType":5126,"count":968,"type":"VEC2","name":"accessorUVs"},{"bufferView":0,"byteOffset":28188,"componentType":5123,"count":3168,"type":"SCALAR","name":"accessorIndices"},{"bufferView":1,"byteOffset":106776,"componentType":5126,"count":966,"max":[0.15240052,0.050800525,0.6096003],"min":[-0.15240006,-0.050801016,-0.60959977],"type":"VEC3","name":"accessorPositions"},{"bufferView":2,"byteOffset":71120,"componentType":5126,"count":966,"type":"VEC4","name":"accessorTangents"},{"bufferView":1,"byteOffset":118368,"componentType":5126,"count":966,"type":"VEC3","name":"accessorNormals"},{"bufferView":3,"byteOffset":35560,"componentType":5126,"count":966,"type":"VEC2","name":"accessorUVs"},{"bufferView":0,"byteOffset":34524,"componentType":5123,"count":3168,"type":"SCALAR","name":"accessorIndices"},{"bufferView":1,"byteOffset":129960,"componentType":5126,"count":968,"max":[0.15240052,0.050800525,0.6096003],"min":[-0.15240006,-0.050801016,-0.60959977],"type":"VEC3","name":"accessorPositions"},{"bufferView":2,"byteOffset":86576,"componentType":5126,"count":968,"type":"VEC4","name":"accessorTangents"},{"bufferView":1,"byteOffset":141576,"componentType":5126,"count":968,"type":"VEC3","name":"accessorNormals"},{"bufferView":3,"byteOffset":43288,"componentType":5126,"count":968,"type":"VEC2","name":"accessorUVs"},{"bufferView":0,"byteOffset":40860,"componentType":5123,"count":3168,"type":"SCALAR","name":"accessorIndices"},{"bufferView":1,"byteOffset":153192,"componentType":5126,"count":968,"max":[0.15240052,0.050800525,0.6096003],"min":[-0.15240006,-0.050801016,-0.60959977],"type":"VEC3","name":"accessorPositions"},{"bufferView":2,"byteOffset":102064,"componentType":5126,"count":968,"type":"VEC4","name":"accessorTangents"},{"bufferView":1,"byteOffset":164808,"componentType":5126,"count":968,"type":"VEC3","name":"accessorNormals"},{"bufferView":3,"byteOffset":51032,"componentType":5126,"count":968,"type":"VEC2","name":"accessorUVs"},{"bufferView":0,"byteOffset":47196,"componentType":5123,"count":3168,"type":"SCALAR","name":"accessorIndices"},{"bufferView":1,"byteOffset":176424,"componentType":5126,"count":968,"max":[0.15240078,0.050800525,0.60960037],"min":[-0.15240018,-0.050801016,-0.6095999],"type":"VEC3","name":"accessorPositions"},{"bufferView":2,"byteOffset":117552,"componentType":5126,"count":968,"type":"VEC4","name":"accessorTangents"},{"bufferView":1,"byteOffset":188040,"componentType":5126,"count":968,"type":"VEC3","name":"accessorNormals"},{"bufferView":3,"byteOffset":58776,"componentType":5126,"count":968,"type":"VEC2","name":"accessorUVs"},{"bufferView":0,"byteOffset":53532,"componentType":5123,"count":3168,"type":"SCALAR","name":"accessorIndices"},{"bufferView":1,"byteOffset":199656,"componentType":5126,"count":967,"max":[0.1524004,0.050800525,0.6096003],"min":[-0.15239981,-0.050801016,-0.60959977],"type":"VEC3","name":"accessorPositions"},{"bufferView":2,"byteOffset":133040,"componentType":5126,"count":967,"type":"VEC4","name":"accessorTangents"},{"bufferView":1,"byteOffset":211260,"componentType":5126,"count":967,"type":"VEC3","name":"accessorNormals"},{"bufferView":3,"byteOffset":66520,"componentType":5126,"count":967,"type":"VEC2","name":"accessorUVs"},{"bufferView":0,"byteOffset":59868,"componentType":5123,"count":3168,"type":"SCALAR","name":"accessorIndices"},{"bufferView":1,"byteOffset":222864,"componentType":5126,"count":968,"max":[0.1524004,0.050800525,0.6096003],"min":[-0.15239981,-0.050801016,-0.60959977],"type":"VEC3","name":"accessorPositions"},{"bufferView":2,"byteOffset":148512,"componentType":5126,"count":968,"type":"VEC4","name":"accessorTangents"},{"bufferView":1,"byteOffset":234480,"componentType":5126,"count":968,"type":"VEC3","name":"accessorNormals"},{"bufferView":3,"byteOffset":74256,"componentType":5126,"count":968,"type":"VEC2","name":"accessorUVs"},{"bufferView":0,"byteOffset":66204,"componentType":5123,"count":3168,"type":"SCALAR","name":"accessorIndices"},{"bufferView":1,"byteOffset":246096,"componentType":5126,"count":968,"max":[0.1524004,0.050800525,0.6096003],"min":[-0.15239981,-0.050801016,-0.60959977],"type":"VEC3","name":"accessorPositions"},{"bufferView":2,"byteOffset":164000,"componentType":5126,"count":968,"type":"VEC4","name":"accessorTangents"},{"bufferView":1,"byteOffset":257712,"componentType":5126,"count":968,"type":"VEC3","name":"accessorNormals"},{"bufferView":3,"byteOffset":82000,"componentType":5126,"count":968,"type":"VEC2","name":"accessorUVs"},{"bufferView":0,"byteOffset":72540,"componentType":5123,"count":3168,"type":"SCALAR","name":"accessorIndices"},{"bufferView":1,"byteOffset":269328,"componentType":5126,"count":968,"max":[0.1524004,0.050800525,0.6096003],"min":[-0.15239981,-0.050801016,-0.60959977],"type":"VEC3","name":"accessorPositions"},{"bufferView":2,"byteOffset":179488,"componentType":5126,"count":968,"type":"VEC4","name":"accessorTangents"},{"bufferView":1,"byteOffset":280944,"componentType":5126,"count":968,"type":"VEC3","name":"accessorNormals"},{"bufferView":3,"byteOffset":89744,"componentType":5126,"count":968,"type":"VEC2","name":"accessorUVs"},{"bufferView":0,"byteOffset":78876,"componentType":5123,"count":3168,"type":"SCALAR","name":"accessorIndices"},{"bufferView":1,"byteOffset":292560,"componentType":5126,"count":968,"max":[0.1524004,0.050800525,0.6096003],"min":[-0.15239981,-0.050801016,-0.60959977],"type":"VEC3","name":"accessorPositions"},{"bufferView":2,"byteOffset":194976,"componentType":5126,"count":968,"type":"VEC4","name":"accessorTangents"},{"bufferView":1,"byteOffset":304176,"componentType":5126,"count":968,"type":"VEC3","name":"accessorNormals"},{"bufferView":3,"byteOffset":97488,"componentType":5126,"count":968,"type":"VEC2","name":"accessorUVs"},{"bufferView":0,"byteOffset":85212,"componentType":5123,"count":3168,"type":"SCALAR","name":"accessorIndices"},{"bufferView":1,"byteOffset":315792,"componentType":5126,"count":968,"max":[0.1524004,0.050800525,0.6096003],"min":[-0.15239981,-0.050801016,-0.60959977],"type":"VEC3","name":"accessorPositions"},{"bufferView":2,"byteOffset":210464,"componentType":5126,"count":968,"type":"VEC4","name":"accessorTangents"},{"bufferView":1,"byteOffset":327408,"componentType":5126,"count":968,"type":"VEC3","name":"accessorNormals"},{"bufferView":3,"byteOffset":105232,"componentType":5126,"count":968,"type":"VEC2","name":"accessorUVs"},{"bufferView":0,"byteOffset":91548,"componentType":5123,"count":3168,"type":"SCALAR","name":"accessorIndices"},{"bufferView":1,"byteOffset":339024,"componentType":5126,"count":968,"max":[0.1524004,0.050800525,0.6096003],"min":[-0.15239981,-0.050801016,-0.60959977],"type":"VEC3","name":"accessorPositions"},{"bufferView":2,"byteOffset":225952,"componentType":5126,"count":968,"type":"VEC4","name":"accessorTangents"},{"bufferView":1,"byteOffset":350640,"componentType":5126,"count":968,"type":"VEC3","name":"accessorNormals"},{"bufferView":3,"byteOffset":112976,"componentType":5126,"count":968,"type":"VEC2","name":"accessorUVs"}],"bufferViews":[{"buffer":0,"byteLength":97884,"name":"bufferViewScalar"},{"buffer":0,"byteOffset":97884,"byteLength":362256,"byteStride":12,"name":"bufferViewFloatVec3"},{"buffer":0,"byteOffset":460140,"byteLength":241440,"byteStride":16,"name":"bufferViewFloatVec4"},{"buffer":0,"byteOffset":701580,"byteLength":120720,"byteStride":8,"name":"bufferViewFloatVec2"}],"buffers":[{"uri":"Straight_Stair_Boss-with-Tread-Cap.bin","byteLength":822300}],"materials":[{"pbrMetallicRoughness":{"baseColorFactor":[0.005005772,0.005005772,0.005005772,1.0],"metallicFactor":0.0,"metallicRoughnessTexture":{"index":0}},"name":"PowderCoat_Stair"},{"pbrMetallicRoughness":{"baseColorFactor":[0.9999998,0.9999999,0.9999999,1.0],"metallicFactor":0.0},"emissiveFactor":[0.9999998,0.9999999,0.9999999],"name":"LED"},{"pbrMetallicRoughness":{"baseColorTexture":{"index":2,"extensions":{"KHR_texture_transform":{"offset":[0.44444445,0.44444442],"scale":[0.11111111,0.11111111],"texCoord":0}}},"metallicFactor":0.0,"roughnessFactor":0.95},"normalTexture":{"index":1,"extensions":{"KHR_texture_transform":{"offset":[0.44444445,0.44444442],"scale":[0.11111111,0.11111111],"texCoord":0}}},"name":"Wood","extensions":{"KHR_materials_clearcoat":{"clearcoatFactor":1.0,"clearcoatTexture":{"index":3,"extensions":{"KHR_texture_transform":{"offset":[0.44444445,0.44444442],"scale":[0.11111111,0.11111111],"texCoord":0}}},"clearcoatRoughnessFactor":0.5}}}],"textures":[{"sampler":0,"source":0,"name":"PowderCoat_Roughness_2k0.jpg"},{"sampler":0,"source":1,"name":"Wood_American Cherry_Normal.jpg"},{"sampler":0,"source":2,"name":"Wood_American Cherry_diffuse.jpg"},{"sampler":0,"source":3,"name":"Wood_American Cherry_roughness.jpg"}],"images":[{"uri":"textures/PowderCoat_Roughness_2k0.jpg"},{"uri":"textures/Wood_American Cherry_Normal.jpg"},{"uri":"textures/Wood_American Cherry_diffuse.jpg"},{"uri":"textures/Wood_American Cherry_roughness.jpg"}],"samplers":[{"magFilter":9729,"minFilter":9987}],"extensions":{"KHR_lights_punctual":{"lights":[{"color":[0.99999994,0.99999994,1.0000001],"intensity":0.1,"type":"point"},{"color":[0.99999994,0.99999994,1.0000001],"intensity":0.1,"type":"point"},{"color":[0.99999994,0.99999994,1.0000001],"intensity":0.1,"type":"point"},{"color":[0.99999994,0.99999994,1.0000001],"intensity":0.1,"type":"point"},{"color":[0.99999994,0.99999994,1.0000001],"intensity":0.1,"type":"point"},{"color":[0.99999994,0.99999994,1.0000001],"intensity":0.1,"type":"point"},{"color":[0.99999994,0.99999994,1.0000001],"intensity":0.1,"type":"point"},{"color":[0.99999994,0.99999994,1.0000001],"intensity":0.1,"type":"point"},{"color":[0.99999994,0.99999994,1.0000001],"intensity":0.1,"type":"point"},{"color":[0.99999994,0.99999994,1.0000001],"intensity":0.1,"type":"point"},{"color":[0.99999994,0.99999994,1.0000001],"intensity":0.1,"type":"point"},{"color":[0.99999994,0.99999994,1.0000001],"intensity":0.1,"type":"point"},{"color":[0.99999994,0.99999994,1.0000001],"intensity":0.1,"type":"point"},{"color":[0.99999994,0.99999994,1.0000001],"intensity":0.1,"type":"point"},{"color":[0.99999994,0.99999994,1.0000001],"intensity":0.1,"type":"point"},{"color":[0.99999994,0.99999994,1.0000001],"intensity":0.1,"type":"point"},{"color":[0.99999994,0.99999994,1.0000001],"intensity":0.1,"type":"point"},{"color":[0.99999994,0.99999994,1.0000001],"intensity":0.1,"type":"point"},{"color":[0.99999994,0.99999994,1.0000001],"intensity":0.1,"type":"point"},{"color":[0.99999994,0.99999994,1.0000001],"intensity":0.1,"type":"point"},{"color":[0.99999994,0.99999994,1.0000001],"intensity":0.1,"type":"point"},{"color":[0.99999994,0.99999994,1.0000001],"intensity":0.1,"type":"point"},{"color":[0.99999994,0.99999994,1.0000001],"intensity":0.1,"type":"point"},{"color":[0.99999994,0.99999994,1.0000001],"intensity":0.1,"type":"point"},{"color":[0.99999994,0.99999994,1.0000001],"intensity":0.1,"type":"point"},{"color":[0.99999994,0.99999994,1.0000001],"intensity":0.1,"type":"point"},{"color":[0.99999994,0.99999994,1.0000001],"intensity":0.1,"type":"point"},{"color":[0.99999994,0.99999994,1.0000001],"intensity":0.1,"type":"point"},{"color":[0.99999994,0.99999994,1.0000001],"intensity":0.1,"type":"point"},{"color":[0.99999994,0.99999994,1.0000001],"intensity":0.1,"type":"point"},{"color":[0.99999994,0.99999994,1.0000001],"intensity":0.1,"type":"point"},{"color":[0.99999994,0.99999994,1.0000001],"intensity":0.1,"type":"point"},{"color":[0.99999994,0.99999994,1.0000001],"intensity":0.1,"type":"point"},{"color":[0.99999994,0.99999994,1.0000001],"intensity":0.1,"type":"point"},{"color":[0.99999994,0.99999994,1.0000001],"intensity":0.1,"type":"point"},{"color":[0.99999994,0.99999994,1.0000001],"intensity":0.1,"type":"point"},{"color":[0.99999994,0.99999994,1.0000001],"intensity":0.1,"type":"point"},{"color":[0.99999994,0.99999994,1.0000001],"intensity":0.1,"type":"point"},{"color":[0.99999994,0.99999994,1.0000001],"intensity":0.1,"type":"point"},{"color":[0.99999994,0.99999994,1.0000001],"intensity":0.1,"type":"point"},{"color":[0.99999994,0.99999994,1.0000001],"intensity":0.1,"type":"point"},{"color":[0.99999994,0.99999994,1.0000001],"intensity":0.1,"type":"point"},{"color":[0.99999994,0.99999994,1.0000001],"intensity":0.1,"type":"point"},{"color":[0.99999994,0.99999994,1.0000001],"intensity":0.1,"type":"point"},{"color":[0.99999994,0.99999994,1.0000001],"intensity":0.1,"type":"point"},{"color":[0.99999994,0.99999994,1.0000001],"intensity":0.1,"type":"point"},{"color":[0.99999994,0.99999994,1.0000001],"intensity":0.1,"type":"point"},{"color":[0.99999994,0.99999994,1.0000001],"intensity":0.1,"type":"point"}]}}}