{"asset":{"version":"2.0","generator":"babylon.js glTF exporter for 3dsmax 2026 v20251111.2"},"extensionsUsed":["KHR_texture_transform"],"extensionsRequired":["KHR_texture_transform"],"scene":0,"scenes":[{"nodes":[0,1,2,3,4,5,6,7,8,9,10,11,12,13,14,15,16,17,18,19,20,21,22,23,24,25,26,27,28,29,30,31,32,33,34,35,36,37,38,39,40,41,42,43,44,45,46,47,48,49,50,51,52,53,54,55,56,57,58,59,60,61,62,63,64,65,66,67,68,69,70,71,72,73,74,75,76,77,78,79,80,81,82,83,84,85,86,87,88,89,90,91,92,93,94,95,96,97,98,99,100,101,102,103,104,105,106,107,108,109,110,111]}],"nodes":[{"mesh":0,"translation":[-2.1690593,1.0815789,-0.023504008],"rotation":[-0.6753157,-0.2096399,0.20963977,0.6753155],"name":"CIR024 - Handrail End Cap Part [8482091]003"},{"mesh":0,"translation":[1.5596397,3.6416814,-0.023503508],"rotation":[-0.20945993,0.67537135,0.67537147,-0.20945992],"name":"CIR024 - Handrail End Cap Part [8482091]002"},{"mesh":0,"translation":[1.5596397,3.6416814,-1.077678],"rotation":[-0.20945993,0.67537135,0.67537147,-0.20945992],"name":"CIR024 - Handrail End Cap Part [8482091]008"},{"mesh":0,"translation":[-2.1690593,1.0815789,-1.0776784],"rotation":[-0.6753157,-0.2096399,0.20963977,0.6753155],"name":"CIR024 - Handrail End Cap Part [8482091]009"},{"mesh":1,"translation":[-0.24874829,2.3998632,-0.023503654],"rotation":[-0.0,-0.0,-0.46584624,0.8848657],"name":"CIR061 - 1 1l2 Rail-To-Rail Connector Part [8719260]004"},{"mesh":1,"translation":[-0.24874829,2.3998632,-1.0776781],"rotation":[-0.0,-0.0,-0.46584624,0.8848657],"name":"CIR061 - 1 1l2 Rail-To-Rail Connector Part [8719260]005"},{"mesh":2,"translation":[-2.02098,0.67738295,-0.023506332],"rotation":[-0.20962763,0.6753194,0.6753195,-0.20962761],"name":"KOT012 - Turnbuckle Part [8655227]054"},{"mesh":2,"translation":[-2.02098,0.55451566,-0.023506332],"rotation":[-0.20962763,0.6753194,0.6753195,-0.20962761],"name":"KOT012 - Turnbuckle Part [8655227]055"},{"mesh":2,"translation":[-2.02098,0.43164876,-0.023506332],"rotation":[-0.20962763,0.6753194,0.6753195,-0.20962761],"name":"KOT012 - Turnbuckle Part [8655227]056"},{"mesh":2,"translation":[-2.02098,0.30878183,-0.023506332],"rotation":[-0.20962763,0.6753194,0.6753195,-0.20962761],"name":"KOT012 - Turnbuckle Part [8655227]057"},{"mesh":2,"translation":[-2.02098,1.0459837,-0.023506332],"rotation":[-0.20962763,0.6753194,0.6753195,-0.20962761],"name":"KOT012 - Turnbuckle Part [8655227]058"},{"mesh":2,"translation":[-2.02098,0.9231168,-0.023506332],"rotation":[-0.20962763,0.6753194,0.6753195,-0.20962761],"name":"KOT012 - Turnbuckle Part [8655227]059"},{"mesh":2,"translation":[-2.02098,0.8002499,-0.023506332],"rotation":[-0.20962763,0.6753194,0.6753195,-0.20962761],"name":"KOT012 - Turnbuckle Part [8655227]060"},{"mesh":2,"translation":[-2.02098,0.67738295,-1.0776049],"rotation":[0.20962758,-0.6753193,0.67531943,-0.20962766],"name":"KOT012 - Turnbuckle Part [8655227]075"},{"mesh":2,"translation":[-2.02098,0.55451566,-1.0776049],"rotation":[0.20962758,-0.6753193,0.67531943,-0.20962766],"name":"KOT012 - Turnbuckle Part [8655227]076"},{"mesh":2,"translation":[-2.02098,0.43164876,-1.0776049],"rotation":[0.20962758,-0.6753193,0.67531943,-0.20962766],"name":"KOT012 - Turnbuckle Part [8655227]077"},{"mesh":2,"translation":[-2.02098,0.30878183,-1.0776049],"rotation":[0.20962758,-0.6753193,0.67531943,-0.20962766],"name":"KOT012 - Turnbuckle Part [8655227]078"},{"mesh":2,"translation":[-2.02098,1.0459837,-1.0776049],"rotation":[0.20962758,-0.6753193,0.67531943,-0.20962766],"name":"KOT012 - Turnbuckle Part [8655227]079"},{"mesh":2,"translation":[-2.02098,0.9231168,-1.0776049],"rotation":[0.20962758,-0.6753193,0.67531943,-0.20962766],"name":"KOT012 - Turnbuckle Part [8655227]080"},{"mesh":2,"translation":[-2.02098,0.8002499,-1.0776049],"rotation":[0.20962758,-0.6753193,0.67531943,-0.20962766],"name":"KOT012 - Turnbuckle Part [8655227]081"},{"mesh":3,"translation":[1.429443,3.2907777,-0.023573125],"rotation":[0.6753743,0.20945084,0.2094508,0.6753742],"scale":[0.99999994,1.0,0.99999994],"name":"KOT010 - Right-Hand Threaded End Stop Part [8137739]060"},{"mesh":3,"translation":[1.429443,3.1679003,-0.023573125],"rotation":[0.6753743,0.20945084,0.2094508,0.6753742],"scale":[0.99999994,1.0,0.99999994],"name":"KOT010 - Right-Hand Threaded End Stop Part [8137739]061"},{"mesh":3,"translation":[1.429443,3.0450222,-0.023573125],"rotation":[0.6753743,0.20945084,0.2094508,0.6753742],"scale":[0.99999994,1.0,0.99999994],"name":"KOT010 - Right-Hand Threaded End Stop Part [8137739]062"},{"mesh":3,"translation":[1.429443,2.9221444,-0.023573125],"rotation":[0.6753743,0.20945084,0.2094508,0.6753742],"scale":[0.99999994,1.0,0.99999994],"name":"KOT010 - Right-Hand Threaded End Stop Part [8137739]063"},{"mesh":3,"translation":[1.429443,2.799267,-0.023573125],"rotation":[0.6753743,0.20945084,0.2094508,0.6753742],"scale":[0.99999994,1.0,0.99999994],"name":"KOT010 - Right-Hand Threaded End Stop Part [8137739]064"},{"mesh":3,"translation":[1.429443,2.6763897,-0.023573125],"rotation":[0.6753743,0.20945084,0.2094508,0.6753742],"scale":[0.99999994,1.0,0.99999994],"name":"KOT010 - Right-Hand Threaded End Stop Part [8137739]065"},{"mesh":3,"translation":[1.429443,3.413655,-0.023573125],"rotation":[0.6753743,0.20945084,0.2094508,0.6753742],"scale":[0.99999994,1.0,0.99999994],"name":"KOT010 - Right-Hand Threaded End Stop Part [8137739]066"},{"mesh":3,"translation":[1.429443,3.2907777,-1.0776716],"rotation":[-0.6753743,-0.20945083,0.20945084,0.6753742],"scale":[0.99999994,1.0,0.99999994],"name":"KOT010 - Right-Hand Threaded End Stop Part [8137739]067"},{"mesh":3,"translation":[1.429443,3.1679003,-1.0776716],"rotation":[-0.6753743,-0.20945083,0.20945084,0.6753742],"scale":[0.99999994,1.0,0.99999994],"name":"KOT010 - Right-Hand Threaded End Stop Part [8137739]068"},{"mesh":3,"translation":[1.429443,3.0450222,-1.0776716],"rotation":[-0.6753743,-0.20945083,0.20945084,0.6753742],"scale":[0.99999994,1.0,0.99999994],"name":"KOT010 - Right-Hand Threaded End Stop Part [8137739]069"},{"mesh":3,"translation":[1.429443,2.9221444,-1.0776716],"rotation":[-0.6753743,-0.20945083,0.20945084,0.6753742],"scale":[0.99999994,1.0,0.99999994],"name":"KOT010 - Right-Hand Threaded End Stop Part [8137739]070"},{"mesh":3,"translation":[1.429443,2.799267,-1.0776716],"rotation":[-0.6753743,-0.20945083,0.20945084,0.6753742],"scale":[0.99999994,1.0,0.99999994],"name":"KOT010 - Right-Hand Threaded End Stop Part [8137739]071"},{"mesh":3,"translation":[1.429443,2.6763897,-1.0776716],"rotation":[-0.6753743,-0.20945083,0.20945084,0.6753742],"scale":[0.99999994,1.0,0.99999994],"name":"KOT010 - Right-Hand Threaded End Stop Part [8137739]072"},{"mesh":3,"translation":[1.429443,3.413655,-1.0776716],"rotation":[-0.6753743,-0.20945083,0.20945084,0.6753742],"scale":[0.99999994,1.0,0.99999994],"name":"KOT010 - Right-Hand Threaded End Stop Part [8137739]073"},{"mesh":4,"translation":[-1.5014539,1.4425598,-0.023506332],"rotation":[-0.0,-0.7071068,0.0,0.7071067],"name":"CSQ022 - Square Post Omaha Cap Part [8465283]020"},{"mesh":4,"translation":[-2.0972915,1.0342369,-0.023506332],"rotation":[-0.0,-0.7071068,0.0,0.7071067],"name":"CSQ022 - Square Post Omaha Cap Part [8465283]021"},{"mesh":4,"translation":[1.4666175,3.4812438,-0.023573125],"rotation":[-0.0,-0.7071068,0.0,0.7071067],"name":"CSQ022 - Square Post Omaha Cap Part [8465283]022"},{"mesh":4,"translation":[0.89579576,3.089526,-0.023573125],"rotation":[-0.0,-0.7071068,0.0,0.7071067],"name":"CSQ022 - Square Post Omaha Cap Part [8465283]023"},{"mesh":4,"translation":[0.09636903,2.5408857,-0.01962918],"rotation":[-0.0,-0.7071068,0.0,0.7071067],"name":"CSQ022 - Square Post Omaha Cap Part [8465283]026"},{"mesh":4,"translation":[1.4666175,3.4812438,-1.0776716],"rotation":[-0.0,0.7071068,0.0,0.7071067],"name":"CSQ022 - Square Post Omaha Cap Part [8465283]027"},{"mesh":4,"translation":[0.89579576,3.089526,-1.0776716],"rotation":[-0.0,0.7071068,0.0,0.7071067],"name":"CSQ022 - Square Post Omaha Cap Part [8465283]028"},{"mesh":4,"translation":[0.09636903,2.5408857,-1.0737276],"rotation":[-0.0,0.7071068,0.0,0.7071067],"name":"CSQ022 - Square Post Omaha Cap Part [8465283]030"},{"mesh":4,"translation":[-1.5014539,1.4425598,-1.0776048],"rotation":[-0.0,0.7071066,0.0,0.70710695],"name":"CSQ022 - Square Post Omaha Cap Part [8465283]035"},{"mesh":4,"translation":[-2.0972915,1.0342369,-1.0776049],"rotation":[-0.0,0.7071066,0.0,0.70710695],"name":"CSQ022 - Square Post Omaha Cap Part [8465283]036"},{"mesh":4,"translation":[-0.7029425,1.9923561,-0.01962918],"rotation":[-0.0,-0.7071068,0.0,0.7071067],"name":"CSQ022 - Square Post Omaha Cap Part [8465283]065"},{"mesh":4,"translation":[-0.7029425,1.9923561,-1.0737276],"rotation":[-0.0,0.7071068,0.0,0.7071067],"name":"CSQ022 - Square Post Omaha Cap Part [8465283]066"},{"mesh":5,"translation":[-1.5014582,0.5476411,-0.023500891],"rotation":[-0.0,1.509958E-07,0.0,1.0],"name":"LS208 & LS209 - Circum Square Post Material LS Material [8937112]"},{"mesh":6,"translation":[-2.0972965,0.18288004,-0.023500891],"rotation":[-0.0,1.509958E-07,0.0,1.0],"name":"LS208 & LS209 - Circum Square Post Material LS Material [8937116]"},{"mesh":7,"translation":[1.4666163,2.56032,-0.023574144],"name":"LS208 & LS209 - Circum Square Post Material LS Material [8937120]"},{"mesh":8,"translation":[0.89579767,2.194561,-0.023574144],"name":"LS208 & LS209 - Circum Square Post Material LS Material [8937124]"},{"mesh":9,"translation":[0.09636972,1.6459208,-0.019630197],"name":"LS208 & LS209 - Circum Square Post Material LS Material [8937142]"},{"mesh":9,"translation":[-0.7029418,1.0973914,-0.019630197],"name":"LS208 & LS209 - Circum Square Post Material LS Material [8937142]001"},{"mesh":10,"translation":[1.4666163,2.56032,-1.0776738],"name":"LS208 & LS209 - Circum Square Post Material LS Material [8937288]"},{"mesh":11,"translation":[0.89579767,2.194561,-1.0776738],"name":"LS208 & LS209 - Circum Square Post Material LS Material [8937291]"},{"mesh":12,"translation":[0.09636972,1.6459208,-1.0737299],"name":"LS208 & LS209 - Circum Square Post Material LS Material [8937297]"},{"mesh":12,"translation":[-0.7029418,1.0973914,-1.0737299],"name":"LS208 & LS209 - Circum Square Post Material LS Material [8937297]001"},{"mesh":13,"translation":[-1.5014559,0.5476411,-1.0776005],"rotation":[-0.0,1.509958E-07,0.0,1.0],"name":"LS208 & LS209 - Circum Square Post Material LS Material [8937448]"},{"mesh":14,"translation":[-2.097294,0.18288004,-1.0776005],"rotation":[-0.0,1.509958E-07,0.0,1.0],"name":"LS208 & LS209 - Circum Square Post Material LS Material [8937451]"},{"mesh":15,"translation":[-1.5014539,1.4457343,-0.023506332],"rotation":[-0.0,-0.7071068,0.0,0.7071067],"name":"Custom - Circum 5l8 Stem-Cable LS Material [8469848]014"},{"mesh":15,"translation":[-2.0972915,1.0374123,-0.023506332],"rotation":[-0.0,-0.7071068,0.0,0.7071067],"name":"Custom - Circum 5l8 Stem-Cable LS Material [8469848]015"},{"mesh":15,"translation":[1.4666175,3.4844193,-0.023573125],"rotation":[-0.0,-0.7071068,0.0,0.7071067],"name":"Custom - Circum 5l8 Stem-Cable LS Material [8469848]016"},{"mesh":15,"translation":[0.89579576,3.0927014,-0.023573125],"rotation":[-0.0,-0.7071068,0.0,0.7071067],"name":"Custom - Circum 5l8 Stem-Cable LS Material [8469848]017"},{"mesh":15,"translation":[0.09636903,2.544061,-0.01962918],"rotation":[-0.0,-0.7071068,0.0,0.7071067],"name":"Custom - Circum 5l8 Stem-Cable LS Material [8469848]020"},{"mesh":15,"translation":[1.4666175,3.4844193,-1.0776716],"rotation":[-0.0,-0.7071068,0.0,0.7071068],"name":"Custom - Circum 5l8 Stem-Cable LS Material [8469848]021"},{"mesh":15,"translation":[0.89579576,3.0927014,-1.0776716],"rotation":[-0.0,-0.7071068,0.0,0.7071068],"name":"Custom - Circum 5l8 Stem-Cable LS Material [8469848]022"},{"mesh":15,"translation":[0.09636903,2.544061,-1.0737276],"rotation":[-0.0,-0.7071068,0.0,0.7071068],"name":"Custom - Circum 5l8 Stem-Cable LS Material [8469848]024"},{"mesh":15,"translation":[-1.5014539,1.4457343,-1.0776048],"rotation":[-0.0,-0.7071068,0.0,0.7071067],"name":"Custom - Circum 5l8 Stem-Cable LS Material [8469848]025"},{"mesh":15,"translation":[-2.0972915,1.0374123,-1.0776049],"rotation":[-0.0,-0.7071068,0.0,0.7071067],"name":"Custom - Circum 5l8 Stem-Cable LS Material [8469848]026"},{"mesh":15,"translation":[-0.7029425,1.9955314,-0.01962918],"rotation":[-0.0,-0.7071068,0.0,0.7071067],"name":"Custom - Circum 5l8 Stem-Cable LS Material [8469848]027"},{"mesh":15,"translation":[-0.7029425,1.9955314,-1.0737276],"rotation":[-0.0,-0.7071068,0.0,0.7071068],"name":"Custom - Circum 5l8 Stem-Cable LS Material [8469848]028"},{"mesh":16,"translation":[-1.5422095,1.5342716,-0.023506332],"rotation":[-0.625752,0.3292936,-0.32929397,0.6257521],"scale":[0.99999994,1.0,0.99999994],"name":"CIR057 - 1 1l2 Rail Saddle Part [8723174]077"},{"mesh":16,"translation":[-2.1380472,1.1259493,-0.023506332],"rotation":[-0.625752,0.3292936,-0.32929397,0.6257521],"scale":[0.99999994,1.0,0.99999994],"name":"CIR057 - 1 1l2 Rail Saddle Part [8723174]078"},{"mesh":16,"translation":[1.425899,3.5729644,-0.023573125],"rotation":[-0.62566584,0.32945764,-0.32945755,0.6256658],"name":"CIR057 - 1 1l2 Rail Saddle Part [8723174]079"},{"mesh":16,"translation":[0.8550773,3.1812472,-0.023573125],"rotation":[-0.62566584,0.32945764,-0.32945755,0.6256658],"name":"CIR057 - 1 1l2 Rail Saddle Part [8723174]080"},{"mesh":16,"translation":[0.055650584,2.6326067,-0.01962918],"rotation":[-0.62566584,0.32945764,-0.32945755,0.6256658],"name":"CIR057 - 1 1l2 Rail Saddle Part [8723174]083"},{"mesh":16,"translation":[1.425899,3.5729644,-1.0776716],"rotation":[0.6256658,-0.3294576,-0.32945758,0.6256658],"name":"CIR057 - 1 1l2 Rail Saddle Part [8723174]084"},{"mesh":16,"translation":[0.8550773,3.1812472,-1.0776716],"rotation":[0.6256658,-0.3294576,-0.32945758,0.6256658],"name":"CIR057 - 1 1l2 Rail Saddle Part [8723174]085"},{"mesh":16,"translation":[0.055650584,2.6326067,-1.0737276],"rotation":[0.6256658,-0.3294576,-0.32945758,0.6256658],"name":"CIR057 - 1 1l2 Rail Saddle Part [8723174]087"},{"mesh":16,"translation":[-1.5422095,1.5342716,-1.0776048],"rotation":[0.6257521,-0.32929367,-0.32929385,0.62575203],"scale":[0.99999994,1.0,0.99999994],"name":"CIR057 - 1 1l2 Rail Saddle Part [8723174]092"},{"mesh":16,"translation":[-2.1380472,1.1259493,-1.0776049],"rotation":[0.6257521,-0.32929367,-0.32929385,0.62575203],"scale":[0.99999994,1.0,0.99999994],"name":"CIR057 - 1 1l2 Rail Saddle Part [8723174]093"},{"mesh":16,"translation":[-0.7436609,2.0840771,-0.01962918],"rotation":[-0.62566584,0.32945764,-0.32945755,0.6256658],"name":"CIR057 - 1 1l2 Rail Saddle Part [8723174]096"},{"mesh":16,"translation":[-0.7436609,2.0840771,-1.0737276],"rotation":[0.6256658,-0.3294576,-0.32945758,0.6256658],"name":"CIR057 - 1 1l2 Rail Saddle Part [8723174]097"},{"mesh":17,"translation":[-1.5014539,0.547641,-0.023506332],"rotation":[-0.0,-0.7071068,0.0,0.7071067],"name":"CSQ001-US - Surface Mount Weldment Part [8723797]235"},{"mesh":17,"translation":[-2.0972915,0.18288012,-0.023506332],"rotation":[-0.0,-0.7071068,0.0,0.7071067],"name":"CSQ001-US - Surface Mount Weldment Part [8723797]236"},{"mesh":17,"translation":[1.4666175,2.56032,-0.023573125],"rotation":[-0.0,-0.7071068,0.0,0.7071067],"name":"CSQ001-US - Surface Mount Weldment Part [8723797]237"},{"mesh":17,"translation":[0.89579576,2.1945605,-0.023573125],"rotation":[-0.0,-0.7071068,0.0,0.7071067],"name":"CSQ001-US - Surface Mount Weldment Part [8723797]238"},{"mesh":17,"translation":[0.09636903,1.6459206,-0.01962918],"rotation":[-0.0,-0.7071068,0.0,0.7071067],"name":"CSQ001-US - Surface Mount Weldment Part [8723797]240"},{"mesh":17,"translation":[1.4666175,2.56032,-1.0776716],"rotation":[-0.0,0.7071068,0.0,0.7071067],"name":"CSQ001-US - Surface Mount Weldment Part [8723797]241"},{"mesh":17,"translation":[0.89579576,2.1945605,-1.0776716],"rotation":[-0.0,0.7071068,0.0,0.7071067],"name":"CSQ001-US - Surface Mount Weldment Part [8723797]242"},{"mesh":17,"translation":[0.09636903,1.6459206,-1.0737276],"rotation":[-0.0,0.7071068,0.0,0.7071067],"name":"CSQ001-US - Surface Mount Weldment Part [8723797]244"},{"mesh":17,"translation":[-1.5014539,0.547641,-1.0776048],"rotation":[-0.0,0.7071066,0.0,0.70710695],"name":"CSQ001-US - Surface Mount Weldment Part [8723797]247"},{"mesh":17,"translation":[-2.0972915,0.18288012,-1.0776049],"rotation":[-0.0,0.7071066,0.0,0.70710695],"name":"CSQ001-US - Surface Mount Weldment Part [8723797]248"},{"mesh":17,"translation":[-0.7029425,1.0973912,-0.01962918],"rotation":[-0.0,-0.7071068,0.0,0.7071067],"name":"CSQ001-US - Surface Mount Weldment Part [8723797]249"},{"mesh":17,"translation":[-0.7029425,1.0973912,-1.0737276],"rotation":[-0.0,0.7071068,0.0,0.7071067],"name":"CSQ001-US - Surface Mount Weldment Part [8723797]250"},{"mesh":18,"translation":[0.54239947,2.8049152,-1.0776738],"name":"Nested_Cable_Single Cable Assembly Generic [8579311]007"},{"mesh":18,"translation":[0.54239947,2.5591598,-1.0776738],"name":"Nested_Cable_Single Cable Assembly Generic [8579311]008"},{"mesh":18,"translation":[0.54239947,2.4362822,-1.0776738],"name":"Nested_Cable_Single Cable Assembly Generic [8579311]009"},{"mesh":18,"translation":[0.54239947,2.3134046,-1.0776738],"name":"Nested_Cable_Single Cable Assembly Generic [8579311]010"},{"mesh":18,"translation":[0.54239947,2.1905267,-1.0776738],"name":"Nested_Cable_Single Cable Assembly Generic [8579311]011"},{"mesh":18,"translation":[0.54239947,2.0676491,-1.0776738],"name":"Nested_Cable_Single Cable Assembly Generic [8579311]012"},{"mesh":18,"translation":[0.54239947,2.6820376,-1.0776738],"name":"Nested_Cable_Single Cable Assembly Generic [8579311]013"},{"mesh":18,"translation":[0.54239947,2.8049152,-0.023573125],"name":"Nested_Cable_Single Cable Assembly Generic [8579311]014"},{"mesh":18,"translation":[0.54239947,2.5591598,-0.023573125],"name":"Nested_Cable_Single Cable Assembly Generic [8579311]015"},{"mesh":18,"translation":[0.54239947,2.4362822,-0.023573125],"name":"Nested_Cable_Single Cable Assembly Generic [8579311]016"},{"mesh":18,"translation":[0.54239947,2.3134046,-0.023573125],"name":"Nested_Cable_Single Cable Assembly Generic [8579311]017"},{"mesh":18,"translation":[0.54239947,2.1905267,-0.023573125],"name":"Nested_Cable_Single Cable Assembly Generic [8579311]018"},{"mesh":18,"translation":[0.54239947,2.0676491,-0.023573125],"name":"Nested_Cable_Single Cable Assembly Generic [8579311]019"},{"mesh":18,"translation":[0.54239947,2.6820376,-0.023573125],"name":"Nested_Cable_Single Cable Assembly Generic [8579311]020"},{"mesh":19,"translation":[-0.55925155,2.1173782,-0.023503717],"rotation":[0.7071068,-0.00012347523,-0.0001233516,0.7071067],"name":"Nested_Bend Bend [8719267]001"},{"mesh":19,"translation":[-0.55925155,2.1173782,-1.0776781],"rotation":[0.7071068,-0.00012347523,-0.0001233516,0.7071067],"name":"Nested_Bend Bend [8719267]004"},{"mesh":20,"translation":[1.3641479,3.438042,-0.023503717],"rotation":[0.7071068,-0.00012347523,-0.0001233516,0.7071067],"name":"Nested_Bend Bend [8719267]003"},{"mesh":20,"translation":[1.3641479,3.438042,-1.0776781],"rotation":[0.7071068,-0.00012347523,-0.0001233516,0.7071067],"name":"Nested_Bend Bend [8719267]005"}],"meshes":[{"primitives":[{"attributes":{"POSITION":1,"TANGENT":2,"NORMAL":3,"TEXCOORD_0":4},"indices":0,"material":0},{"attributes":{"POSITION":6,"TANGENT":7,"NORMAL":8,"TEXCOORD_0":9},"indices":5,"material":1}],"name":"CIR024 - Handrail End Cap Part [8482091]003"},{"primitives":[{"attributes":{"POSITION":11,"TANGENT":12,"NORMAL":13,"TEXCOORD_0":14},"indices":10,"material":0}],"name":"CIR061 - 1 1l2 Rail-To-Rail Connector Part [8719260]004"},{"primitives":[{"attributes":{"POSITION":16,"TANGENT":17,"NORMAL":18,"TEXCOORD_0":19},"indices":15,"material":2}],"name":"KOT012 - Turnbuckle Part [8655227]054"},{"primitives":[{"attributes":{"POSITION":21,"TANGENT":22,"NORMAL":23,"TEXCOORD_0":24},"indices":20,"material":2}],"name":"KOT010 - Right-Hand Threaded End Stop Part [8137739]060"},{"primitives":[{"attributes":{"POSITION":26,"TANGENT":27,"NORMAL":28,"TEXCOORD_0":29},"indices":25,"material":0}],"name":"CSQ022 - Square Post Omaha Cap Part [8465283]020"},{"primitives":[{"attributes":{"POSITION":31,"TANGENT":32,"NORMAL":33,"TEXCOORD_0":34},"indices":30,"material":0}],"name":"LS208 & LS209 - Circum Square Post Material LS Material [8937112]"},{"primitives":[{"attributes":{"POSITION":36,"TANGENT":37,"NORMAL":38,"TEXCOORD_0":39},"indices":35,"material":0}],"name":"LS208 & LS209 - Circum Square Post Material LS Material [8937116]"},{"primitives":[{"attributes":{"POSITION":41,"TANGENT":42,"NORMAL":43,"TEXCOORD_0":44},"indices":40,"material":0}],"name":"LS208 & LS209 - Circum Square Post Material LS Material [8937120]"},{"primitives":[{"attributes":{"POSITION":46,"TANGENT":47,"NORMAL":48,"TEXCOORD_0":49},"indices":45,"material":0}],"name":"LS208 & LS209 - Circum Square Post Material LS Material [8937124]"},{"primitives":[{"attributes":{"POSITION":51,"TANGENT":52,"NORMAL":53,"TEXCOORD_0":54},"indices":50,"material":0}],"name":"LS208 & LS209 - Circum Square Post Material LS Material [8937142]"},{"primitives":[{"attributes":{"POSITION":56,"TANGENT":57,"NORMAL":58,"TEXCOORD_0":59},"indices":55,"material":0}],"name":"LS208 & LS209 - Circum Square Post Material LS Material [8937288]"},{"primitives":[{"attributes":{"POSITION":61,"TANGENT":62,"NORMAL":63,"TEXCOORD_0":64},"indices":60,"material":0}],"name":"LS208 & LS209 - Circum Square Post Material LS Material [8937291]"},{"primitives":[{"attributes":{"POSITION":66,"TANGENT":67,"NORMAL":68,"TEXCOORD_0":69},"indices":65,"material":0}],"name":"LS208 & LS209 - Circum Square Post Material LS Material [8937297]"},{"primitives":[{"attributes":{"POSITION":71,"TANGENT":72,"NORMAL":73,"TEXCOORD_0":74},"indices":70,"material":0}],"name":"LS208 & LS209 - Circum Square Post Material LS Material [8937448]"},{"primitives":[{"attributes":{"POSITION":76,"TANGENT":77,"NORMAL":78,"TEXCOORD_0":79},"indices":75,"material":0}],"name":"LS208 & LS209 - Circum Square Post Material LS Material [8937451]"},{"primitives":[{"attributes":{"POSITION":81,"TANGENT":82,"NORMAL":83,"TEXCOORD_0":84},"indices":80,"material":0}],"name":"Custom - Circum 5l8 Stem-Cable LS Material [8469848]014"},{"primitives":[{"attributes":{"POSITION":86,"TANGENT":87,"NORMAL":88,"TEXCOORD_0":89},"indices":85,"material":0}],"name":"CIR057 - 1 1l2 Rail Saddle Part [8723174]077"},{"primitives":[{"attributes":{"POSITION":91,"TANGENT":92,"NORMAL":93,"TEXCOORD_0":94},"indices":90,"material":0}],"name":"CSQ001-US - Surface Mount Weldment Part [8723797]235"},{"primitives":[{"attributes":{"POSITION":96,"TANGENT":97,"NORMAL":98,"TEXCOORD_0":99},"indices":95,"material":3}],"name":"Nested_Cable_Single Cable Assembly Generic [8579311]007"},{"primitives":[{"attributes":{"POSITION":101,"TANGENT":102,"NORMAL":103,"TEXCOORD_0":104},"indices":100,"material":0}],"name":"Nested_Bend Bend [8719267]001"},{"primitives":[{"attributes":{"POSITION":106,"TANGENT":107,"NORMAL":108,"TEXCOORD_0":109},"indices":105,"material":0}],"name":"Nested_Bend Bend [8719267]003"}],"accessors":[{"bufferView":0,"componentType":5123,"count":192,"type":"SCALAR","name":"accessorIndices"},{"bufferView":1,"componentType":5126,"count":66,"max":[-0.00029542364,0.01905,0.01905],"min":[-0.002286,-0.01905,-0.01905],"type":"VEC3","name":"accessorPositions"},{"bufferView":2,"componentType":5126,"count":66,"type":"VEC4","name":"accessorTangents"},{"bufferView":1,"byteOffset":792,"componentType":5126,"count":66,"type":"VEC3","name":"accessorNormals"},{"bufferView":3,"componentType":5126,"count":66,"type":"VEC2","name":"accessorUVs"},{"bufferView":0,"byteOffset":384,"componentType":5123,"count":762,"type":"SCALAR","name":"accessorIndices"},{"bufferView":1,"byteOffset":1584,"componentType":5126,"count":161,"max":[-0.00029542364,0.01905,0.01905],"min":[-0.0068578967,-0.01905,-0.01905],"type":"VEC3","name":"accessorPositions"},{"bufferView":2,"byteOffset":1056,"componentType":5126,"count":161,"type":"VEC4","name":"accessorTangents"},{"bufferView":1,"byteOffset":3516,"componentType":5126,"count":161,"type":"VEC3","name":"accessorNormals"},{"bufferView":3,"byteOffset":528,"componentType":5126,"count":161,"type":"VEC2","name":"accessorUVs"},{"bufferView":0,"byteOffset":1908,"componentType":5123,"count":360,"type":"SCALAR","name":"accessorIndices"},{"bufferView":1,"byteOffset":5448,"componentType":5126,"count":128,"max":[0.01905,0.003175006,0.01905],"min":[-0.01905,-0.0031749941,-0.01905],"type":"VEC3","name":"accessorPositions"},{"bufferView":2,"byteOffset":3632,"componentType":5126,"count":128,"type":"VEC4","name":"accessorTangents"},{"bufferView":1,"byteOffset":6984,"componentType":5126,"count":128,"type":"VEC3","name":"accessorNormals"},{"bufferView":3,"byteOffset":1816,"componentType":5126,"count":128,"type":"VEC2","name":"accessorUVs"},{"bufferView":0,"byteOffset":2628,"componentType":5123,"count":2952,"type":"SCALAR","name":"accessorIndices"},{"bufferView":1,"byteOffset":8520,"componentType":5126,"count":1012,"max":[0.077494115,0.005003873,0.0057778903],"min":[-0.097104676,-0.005003805,-0.0057778903],"type":"VEC3","name":"accessorPositions"},{"bufferView":2,"byteOffset":5680,"componentType":5126,"count":1012,"type":"VEC4","name":"accessorTangents"},{"bufferView":1,"byteOffset":20664,"componentType":5126,"count":1012,"type":"VEC3","name":"accessorNormals"},{"bufferView":3,"byteOffset":2840,"componentType":5126,"count":1012,"type":"VEC2","name":"accessorUVs"},{"bufferView":0,"byteOffset":8532,"componentType":5123,"count":1140,"type":"SCALAR","name":"accessorIndices"},{"bufferView":1,"byteOffset":32808,"componentType":5126,"count":388,"max":[0.0299974,0.0035052001,0.0035052001],"min":[-0.032004,-0.0035052001,-0.0035052001],"type":"VEC3","name":"accessorPositions"},{"bufferView":2,"byteOffset":21872,"componentType":5126,"count":388,"type":"VEC4","name":"accessorTangents"},{"bufferView":1,"byteOffset":37464,"componentType":5126,"count":388,"type":"VEC3","name":"accessorNormals"},{"bufferView":3,"byteOffset":10936,"componentType":5126,"count":388,"type":"VEC2","name":"accessorUVs"},{"bufferView":0,"byteOffset":10812,"componentType":5123,"count":324,"type":"SCALAR","name":"accessorIndices"},{"bufferView":1,"byteOffset":42120,"componentType":5126,"count":120,"max":[0.025592525,0.0031551565,0.025590502],"min":[-0.025588477,-2.0427421E-15,-0.025590502],"type":"VEC3","name":"accessorPositions"},{"bufferView":2,"byteOffset":28080,"componentType":5126,"count":120,"type":"VEC4","name":"accessorTangents"},{"bufferView":1,"byteOffset":43560,"componentType":5126,"count":120,"type":"VEC3","name":"accessorNormals"},{"bufferView":3,"byteOffset":14040,"componentType":5126,"count":120,"type":"VEC2","name":"accessorUVs"},{"bufferView":0,"byteOffset":11460,"componentType":5123,"count":36327,"type":"SCALAR","name":"accessorIndices"},{"bufferView":1,"byteOffset":45000,"componentType":5126,"count":9668,"max":[0.025540302,0.8949182,0.025400775],"min":[-0.025537977,0.0,-0.025400775],"type":"VEC3","name":"accessorPositions"},{"bufferView":2,"byteOffset":30000,"componentType":5126,"count":9668,"type":"VEC4","name":"accessorTangents"},{"bufferView":1,"byteOffset":161016,"componentType":5126,"count":9668,"type":"VEC3","name":"accessorNormals"},{"bufferView":3,"byteOffset":15000,"componentType":5126,"count":9668,"type":"VEC2","name":"accessorUVs"},{"bufferView":0,"byteOffset":84116,"componentType":5123,"count":28326,"type":"SCALAR","name":"accessorIndices"},{"bufferView":1,"byteOffset":277032,"componentType":5126,"count":7079,"max":[0.025540302,0.8513572,0.025400775],"min":[-0.025537977,-3.6334992E-08,-0.025400775],"type":"VEC3","name":"accessorPositions"},{"bufferView":2,"byteOffset":184688,"componentType":5126,"count":7079,"type":"VEC4","name":"accessorTangents"},{"bufferView":1,"byteOffset":361980,"componentType":5126,"count":7079,"type":"VEC3","name":"accessorNormals"},{"bufferView":3,"byteOffset":92344,"componentType":5126,"count":7079,"type":"VEC2","name":"accessorUVs"},{"bufferView":0,"byteOffset":140768,"componentType":5123,"count":30045,"type":"SCALAR","name":"accessorIndices"},{"bufferView":1,"byteOffset":446928,"componentType":5126,"count":7408,"max":[0.025537977,0.920924,0.02539845],"min":[-0.025540302,0.0,-0.025400775],"type":"VEC3","name":"accessorPositions"},{"bufferView":2,"byteOffset":297952,"componentType":5126,"count":7408,"type":"VEC4","name":"accessorTangents"},{"bufferView":1,"byteOffset":535824,"componentType":5126,"count":7408,"type":"VEC3","name":"accessorNormals"},{"bufferView":3,"byteOffset":148976,"componentType":5126,"count":7408,"type":"VEC2","name":"accessorUVs"},{"bufferView":0,"byteOffset":200860,"componentType":5123,"count":36327,"type":"SCALAR","name":"accessorIndices"},{"bufferView":1,"byteOffset":624720,"componentType":5126,"count":9666,"max":[0.025540302,0.8949652,0.02539845],"min":[-0.025537977,0.0,-0.025400775],"type":"VEC3","name":"accessorPositions"},{"bufferView":2,"byteOffset":416480,"componentType":5126,"count":9666,"type":"VEC4","name":"accessorTangents"},{"bufferView":1,"byteOffset":740712,"componentType":5126,"count":9666,"type":"VEC3","name":"accessorNormals"},{"bufferView":3,"byteOffset":208240,"componentType":5126,"count":9666,"type":"VEC2","name":"accessorUVs"},{"bufferView":0,"byteOffset":273516,"componentType":5123,"count":36327,"type":"SCALAR","name":"accessorIndices"},{"bufferView":1,"byteOffset":856704,"componentType":5126,"count":9667,"max":[0.025540302,0.894965,0.02539845],"min":[-0.025537977,0.0,-0.025400775],"type":"VEC3","name":"accessorPositions"},{"bufferView":2,"byteOffset":571136,"componentType":5126,"count":9667,"type":"VEC4","name":"accessorTangents"},{"bufferView":1,"byteOffset":972708,"componentType":5126,"count":9667,"type":"VEC3","name":"accessorNormals"},{"bufferView":3,"byteOffset":285568,"componentType":5126,"count":9667,"type":"VEC2","name":"accessorUVs"},{"bufferView":0,"byteOffset":346172,"componentType":5123,"count":30045,"type":"SCALAR","name":"accessorIndices"},{"bufferView":1,"byteOffset":1088712,"componentType":5126,"count":7409,"max":[0.025537977,0.920924,0.025400775],"min":[-0.025540302,0.0,-0.025400775],"type":"VEC3","name":"accessorPositions"},{"bufferView":2,"byteOffset":725808,"componentType":5126,"count":7409,"type":"VEC4","name":"accessorTangents"},{"bufferView":1,"byteOffset":1177620,"componentType":5126,"count":7409,"type":"VEC3","name":"accessorNormals"},{"bufferView":3,"byteOffset":362904,"componentType":5126,"count":7409,"type":"VEC2","name":"accessorUVs"},{"bufferView":0,"byteOffset":406264,"componentType":5123,"count":36327,"type":"SCALAR","name":"accessorIndices"},{"bufferView":1,"byteOffset":1266528,"componentType":5126,"count":9663,"max":[0.025540302,0.8949652,0.025400775],"min":[-0.025537977,0.0,-0.025400775],"type":"VEC3","name":"accessorPositions"},{"bufferView":2,"byteOffset":844352,"componentType":5126,"count":9663,"type":"VEC4","name":"accessorTangents"},{"bufferView":1,"byteOffset":1382484,"componentType":5126,"count":9663,"type":"VEC3","name":"accessorNormals"},{"bufferView":3,"byteOffset":422176,"componentType":5126,"count":9663,"type":"VEC2","name":"accessorUVs"},{"bufferView":0,"byteOffset":478920,"componentType":5123,"count":36327,"type":"SCALAR","name":"accessorIndices"},{"bufferView":1,"byteOffset":1498440,"componentType":5126,"count":9664,"max":[0.025540302,0.894965,0.025400775],"min":[-0.025537977,0.0,-0.025400775],"type":"VEC3","name":"accessorPositions"},{"bufferView":2,"byteOffset":998960,"componentType":5126,"count":9664,"type":"VEC4","name":"accessorTangents"},{"bufferView":1,"byteOffset":1614408,"componentType":5126,"count":9664,"type":"VEC3","name":"accessorNormals"},{"bufferView":3,"byteOffset":499480,"componentType":5126,"count":9664,"type":"VEC2","name":"accessorUVs"},{"bufferView":0,"byteOffset":551576,"componentType":5123,"count":36327,"type":"SCALAR","name":"accessorIndices"},{"bufferView":1,"byteOffset":1730376,"componentType":5126,"count":9670,"max":[0.02553565,0.8949182,0.025400775],"min":[-0.025542628,0.0,-0.02539845],"type":"VEC3","name":"accessorPositions"},{"bufferView":2,"byteOffset":1153584,"componentType":5126,"count":9670,"type":"VEC4","name":"accessorTangents"},{"bufferView":1,"byteOffset":1846416,"componentType":5126,"count":9670,"type":"VEC3","name":"accessorNormals"},{"bufferView":3,"byteOffset":576792,"componentType":5126,"count":9670,"type":"VEC2","name":"accessorUVs"},{"bufferView":0,"byteOffset":624232,"componentType":5123,"count":28326,"type":"SCALAR","name":"accessorIndices"},{"bufferView":1,"byteOffset":1962456,"componentType":5126,"count":7077,"max":[0.02553565,0.8513572,0.025400775],"min":[-0.025542628,-3.6334992E-08,-0.02539845],"type":"VEC3","name":"accessorPositions"},{"bufferView":2,"byteOffset":1308304,"componentType":5126,"count":7077,"type":"VEC4","name":"accessorTangents"},{"bufferView":1,"byteOffset":2047380,"componentType":5126,"count":7077,"type":"VEC3","name":"accessorNormals"},{"bufferView":3,"byteOffset":654152,"componentType":5126,"count":7077,"type":"VEC2","name":"accessorUVs"},{"bufferView":0,"byteOffset":680884,"componentType":5123,"count":2682,"type":"SCALAR","name":"accessorIndices"},{"bufferView":1,"byteOffset":2132304,"componentType":5126,"count":750,"max":[0.0079375,0.06034161,0.024871314],"min":[-0.0079375,-0.013208,-0.0079375],"type":"VEC3","name":"accessorPositions"},{"bufferView":2,"byteOffset":1421536,"componentType":5126,"count":750,"type":"VEC4","name":"accessorTangents"},{"bufferView":1,"byteOffset":2141304,"componentType":5126,"count":750,"type":"VEC3","name":"accessorNormals"},{"bufferView":3,"byteOffset":710768,"componentType":5126,"count":750,"type":"VEC2","name":"accessorUVs"},{"bufferView":0,"byteOffset":686248,"componentType":5123,"count":348,"type":"SCALAR","name":"accessorIndices"},{"bufferView":1,"byteOffset":2150304,"componentType":5126,"count":128,"max":[0.042062398,0.0120777,0.03175],"min":[0.033772144,-0.012090401,-0.03175],"type":"VEC3","name":"accessorPositions"},{"bufferView":2,"byteOffset":1433536,"componentType":5126,"count":128,"type":"VEC4","name":"accessorTangents"},{"bufferView":1,"byteOffset":2151840,"componentType":5126,"count":128,"type":"VEC3","name":"accessorNormals"},{"bufferView":3,"byteOffset":716768,"componentType":5126,"count":128,"type":"VEC2","name":"accessorUVs"},{"bufferView":0,"byteOffset":686944,"componentType":5123,"count":570,"type":"SCALAR","name":"accessorIndices"},{"bufferView":1,"byteOffset":2153376,"componentType":5126,"count":189,"max":[0.053975,0.025400002,0.053975],"min":[-0.053975,-3.0953716E-15,-0.053975],"type":"VEC3","name":"accessorPositions"},{"bufferView":2,"byteOffset":1435584,"componentType":5126,"count":189,"type":"VEC4","name":"accessorTangents"},{"bufferView":1,"byteOffset":2155644,"componentType":5126,"count":189,"type":"VEC3","name":"accessorNormals"},{"bufferView":3,"byteOffset":717792,"componentType":5126,"count":189,"type":"VEC2","name":"accessorUVs"},{"bufferView":0,"byteOffset":688084,"componentType":5123,"count":276,"type":"SCALAR","name":"accessorIndices"},{"bufferView":1,"byteOffset":2157912,"componentType":5126,"count":98,"max":[0.8796579,0.6045407,0.0019998779],"min":[-2.5015817,-1.7173502,-0.0019998779],"type":"VEC3","name":"accessorPositions"},{"bufferView":2,"byteOffset":1438608,"componentType":5126,"count":98,"type":"VEC4","name":"accessorTangents"},{"bufferView":1,"byteOffset":2159088,"componentType":5126,"count":98,"type":"VEC3","name":"accessorNormals"},{"bufferView":3,"byteOffset":719304,"componentType":5126,"count":98,"type":"VEC2","name":"accessorUVs"},{"bufferView":0,"byteOffset":688636,"componentType":5123,"count":564,"type":"SCALAR","name":"accessorIndices"},{"bufferView":1,"byteOffset":2160264,"componentType":5126,"count":194,"max":[0.31800973,0.018887788,1.0520042],"min":[-1.6200956,-0.018887721,-0.29603794],"type":"VEC3","name":"accessorPositions"},{"bufferView":2,"byteOffset":1440176,"componentType":5126,"count":194,"type":"VEC4","name":"accessorTangents"},{"bufferView":1,"byteOffset":2162592,"componentType":5126,"count":194,"type":"VEC3","name":"accessorNormals"},{"bufferView":3,"byteOffset":720088,"componentType":5126,"count":194,"type":"VEC2","name":"accessorUVs"},{"bufferView":0,"byteOffset":689764,"componentType":5123,"count":564,"type":"SCALAR","name":"accessorIndices"},{"bufferView":1,"byteOffset":2164920,"componentType":5126,"count":194,"max":[0.20611998,0.018887788,1.0520835],"min":[-1.620211,-0.018887717,-0.21916696],"type":"VEC3","name":"accessorPositions"},{"bufferView":2,"byteOffset":1443280,"componentType":5126,"count":194,"type":"VEC4","name":"accessorTangents"},{"bufferView":1,"byteOffset":2167248,"componentType":5126,"count":194,"type":"VEC3","name":"accessorNormals"},{"bufferView":3,"byteOffset":721640,"componentType":5126,"count":194,"type":"VEC2","name":"accessorUVs"}],"bufferViews":[{"buffer":0,"byteLength":690892,"name":"bufferViewScalar"},{"buffer":0,"byteOffset":690892,"byteLength":2169576,"byteStride":12,"name":"bufferViewFloatVec3"},{"buffer":0,"byteOffset":2860468,"byteLength":1446384,"byteStride":16,"name":"bufferViewFloatVec4"},{"buffer":0,"byteOffset":4306852,"byteLength":723192,"byteStride":8,"name":"bufferViewFloatVec2"}],"buffers":[{"uri":"Straight_Railing_Koto_Square.bin","byteLength":5030044}],"materials":[{"pbrMetallicRoughness":{"baseColorFactor":[0.9999998,0.9999999,0.9999999,1.0],"baseColorTexture":{"index":0,"extensions":{"KHR_texture_transform":{"offset":[0.19519997,0.8048],"rotation":1.5707964,"scale":[0.6096,0.6096],"texCoord":0}}},"roughnessFactor":0.2,"metallicRoughnessTexture":{"index":0,"extensions":{"KHR_texture_transform":{"offset":[0.19519997,0.8048],"rotation":1.5707964,"scale":[0.6096,0.6096],"texCoord":0}}}},"name":"Steel_Linear"},{"pbrMetallicRoughness":{"baseColorFactor":[0.9999998,0.9999999,0.9999999,1.0],"baseColorTexture":{"index":1},"roughnessFactor":0.2,"metallicRoughnessTexture":{"index":1}},"name":"Steel_Radial"},{"pbrMetallicRoughness":{"baseColorFactor":[0.9999998,0.9999999,0.9999999,1.0],"roughnessFactor":0.2},"name":"Steel_Polished"},{"pbrMetallicRoughness":{"baseColorFactor":[0.9999998,0.9999999,0.9999999,1.0],"baseColorTexture":{"index":2,"extensions":{"KHR_texture_transform":{"offset":[0.21909332,-0.053646088],"rotation":-1.2217305,"scale":[25.83051,25.83051],"texCoord":0}}},"roughnessFactor":0.2,"metallicRoughnessTexture":{"index":2,"extensions":{"KHR_texture_transform":{"offset":[0.21909332,-0.053646088],"rotation":-1.2217305,"scale":[25.83051,25.83051],"texCoord":0}}}},"name":"Cable"}],"textures":[{"sampler":0,"source":0,"name":"Metal_Brushed_Linear_4k.jpg"},{"sampler":0,"source":1,"name":"Metal_Brushed_Radial_4k.jpg"},{"sampler":0,"source":2,"name":"Metal_Cable.jpg"}],"images":[{"uri":"textures/Metal_Brushed_Linear_4k.jpg"},{"uri":"textures/Metal_Brushed_Radial_4k.jpg"},{"uri":"textures/Metal_Cable.jpg"}],"samplers":[{"magFilter":9729,"minFilter":9987}]}