{"asset":{"version":"2.0","generator":"babylon.js glTF exporter for 3dsmax 2026 v20251111.2"},"extensionsUsed":["KHR_materials_ior","KHR_materials_transmission","KHR_materials_volume","KHR_texture_transform"],"extensionsRequired":["KHR_texture_transform"],"scene":0,"scenes":[{"nodes":[0,1,2,3]}],"nodes":[{"mesh":0,"translation":[-0.2999639,0.0,0.02973716],"name":"Box008"},{"mesh":0,"translation":[-0.2999639,0.0,-1.1308529],"name":"Box009"},{"mesh":1,"translation":[-0.29534957,2.376288,-1.1308336],"name":"Generic Models 11 Generic Models 11 [8762451]007"},{"mesh":1,"translation":[-0.29534957,2.376288,0.029756563],"name":"Generic Models 11 Generic Models 11 [8762451]008"}],"meshes":[{"primitives":[{"attributes":{"POSITION":1,"TANGENT":2,"NORMAL":3,"TEXCOORD_0":4},"indices":0,"material":0}],"name":"Box008"},{"primitives":[{"attributes":{"POSITION":6,"TANGENT":7,"NORMAL":8,"TEXCOORD_0":9},"indices":5,"material":1},{"attributes":{"POSITION":11,"TANGENT":12,"NORMAL":13,"TEXCOORD_0":14},"indices":10,"material":2}],"name":"Generic Models 11 Generic Models 11 [8762451]007"}],"accessors":[{"bufferView":0,"componentType":5123,"count":696,"type":"SCALAR","name":"accessorIndices"},{"bufferView":1,"componentType":5126,"count":472,"max":[1.8935392,3.6851308,0.007143598],"min":[-1.8863822,0.0,-0.007143598],"type":"VEC3","name":"accessorPositions"},{"bufferView":2,"componentType":5126,"count":472,"type":"VEC4","name":"accessorTangents"},{"bufferView":1,"byteOffset":5664,"componentType":5126,"count":472,"type":"VEC3","name":"accessorNormals"},{"bufferView":3,"componentType":5126,"count":472,"type":"VEC2","name":"accessorUVs"},{"bufferView":0,"byteOffset":1392,"componentType":5123,"count":4080,"type":"SCALAR","name":"accessorIndices"},{"bufferView":1,"byteOffset":11328,"componentType":5126,"count":1526,"max":[1.8968263,1.3227077,0.019062791],"min":[-1.8968263,-1.3227078,-0.019062791],"type":"VEC3","name":"accessorPositions"},{"bufferView":2,"byteOffset":7552,"componentType":5126,"count":1526,"type":"VEC4","name":"accessorTangents"},{"bufferView":1,"byteOffset":29640,"componentType":5126,"count":1526,"type":"VEC3","name":"accessorNormals"},{"bufferView":3,"byteOffset":3776,"componentType":5126,"count":1526,"type":"VEC2","name":"accessorUVs"},{"bufferView":0,"byteOffset":9552,"componentType":5123,"count":738,"type":"SCALAR","name":"accessorIndices"},{"bufferView":1,"byteOffset":47952,"componentType":5126,"count":252,"max":[1.8968263,1.3227077,0.019062791],"min":[-1.8968263,-1.3227075,-0.019062791],"type":"VEC3","name":"accessorPositions"},{"bufferView":2,"byteOffset":31968,"componentType":5126,"count":252,"type":"VEC4","name":"accessorTangents"},{"bufferView":1,"byteOffset":50976,"componentType":5126,"count":252,"type":"VEC3","name":"accessorNormals"},{"bufferView":3,"byteOffset":15984,"componentType":5126,"count":252,"type":"VEC2","name":"accessorUVs"}],"bufferViews":[{"buffer":0,"byteLength":11028,"name":"bufferViewScalar"},{"buffer":0,"byteOffset":11028,"byteLength":54000,"byteStride":12,"name":"bufferViewFloatVec3"},{"buffer":0,"byteOffset":65028,"byteLength":36000,"byteStride":16,"name":"bufferViewFloatVec4"},{"buffer":0,"byteOffset":101028,"byteLength":18000,"byteStride":8,"name":"bufferViewFloatVec2"}],"buffers":[{"uri":"Straight_Railing_Optik-Boss_Wood-Cap.bin","byteLength":119028}],"materials":[{"pbrMetallicRoughness":{"baseColorFactor":[0.9999998,0.9999999,0.9999999,1.0],"metallicFactor":0.0,"roughnessFactor":0.1},"name":"Glass","extensions":{"KHR_materials_ior":{"ior":1.0},"KHR_materials_transmission":{"transmissionFactor":0.97},"KHR_materials_volume":{"thicknessFactor":0.56,"attenuationDistance":0.5,"attenuationColor":[0.49521634,0.56476736,0.5317566]}}},{"pbrMetallicRoughness":{"baseColorFactor":[0.9999998,0.9999999,0.9999999,1.0],"baseColorTexture":{"index":0,"extensions":{"KHR_texture_transform":{"offset":[0.19519997,0.8048],"rotation":1.5707964,"scale":[0.6096,0.6096],"texCoord":0}}},"roughnessFactor":0.2,"metallicRoughnessTexture":{"index":0,"extensions":{"KHR_texture_transform":{"offset":[0.19519997,0.8048],"rotation":1.5707964,"scale":[0.6096,0.6096],"texCoord":0}}}},"name":"Steel_Linear"},{"pbrMetallicRoughness":{"baseColorFactor":[0.9999998,0.9999999,0.9999999,1.0],"baseColorTexture":{"index":1},"roughnessFactor":0.2,"metallicRoughnessTexture":{"index":1}},"name":"Steel_Radial"}],"textures":[{"sampler":0,"source":0,"name":"Metal_Brushed_Linear_4k.jpg"},{"sampler":0,"source":1,"name":"Metal_Brushed_Radial_4k.jpg"}],"images":[{"uri":"textures/Metal_Brushed_Linear_4k.jpg"},{"uri":"textures/Metal_Brushed_Radial_4k.jpg"}],"samplers":[{"magFilter":9729,"minFilter":9987}]}