{"asset":{"version":"2.0","generator":"babylon.js glTF exporter for 3dsmax 2026 v20251111.2"},"extensionsUsed":["KHR_texture_transform"],"extensionsRequired":["KHR_texture_transform"],"scene":0,"scenes":[{"nodes":[0,1,2,3,4,5,6,7,8,9,10,11,12,13,14,15,16,17,18,19,20,21,22,23,24,25,26,27,28,29,30,31,32,33,34,35,36,37,38,39,40,41,42,43,44,45,46,47,48,49,50,51,52,53,54,55,56,57,58,59,60,61,62,63,64,65,66,67,68,69,70,71,72,73,74,75,76,77,78,79,80,81,82,83,84,85,86,87,88,89,90,91,92,93,94,95,96,97,98,99,100,101,102,103,104,105,106,107,108,109,110,111,112,113,114,115,116,117,118,119,120,121,122,123,124,125,126,127,128,129,130,131,132,133,134,135,136,137,138,139,140,141,142,143,144,145,146,147,148,149,150,151,152,153,154,155,156,157,158,159,160,161,162,163,164,165,166,167,168,169,170,171,172,173,174,175,176,177,178,179,180,181,182,183,184,185,186,187,188,189,190,191,192,193,194,195,196,197,198,199,200,201,202,203,204,205,206,207,208,209,210,211,212,213,214,215,216,217,218,219,220,221,222,223,224,225,226,227,228,229,230,231,232,233,234,235,236,237,238,239,240,241,242,243,244,245,246,247,248,249,250,251,252,253,254,255,256,257,258,259,260,261,262,263]}],"nodes":[{"mesh":0,"translation":[-2.1690593,1.0815789,-0.023504008],"rotation":[-0.6753157,-0.2096399,0.20963977,0.6753155],"name":"CIR024 - Handrail End Cap Part [8482091]003"},{"mesh":0,"translation":[1.5596397,3.6416814,-0.023503508],"rotation":[-0.20945993,0.67537135,0.67537147,-0.20945992],"name":"CIR024 - Handrail End Cap Part [8482091]002"},{"mesh":0,"translation":[1.5596397,3.6416814,-1.077678],"rotation":[-0.20945993,0.67537135,0.67537147,-0.20945992],"name":"CIR024 - Handrail End Cap Part [8482091]008"},{"mesh":0,"translation":[-2.1690593,1.0815789,-1.0776784],"rotation":[-0.6753157,-0.2096399,0.20963977,0.6753155],"name":"CIR024 - Handrail End Cap Part [8482091]009"},{"mesh":1,"translation":[-0.24874829,2.3998632,-0.023503654],"rotation":[-0.0,-0.0,-0.46584624,0.8848657],"name":"CIR061 - 1 1l2 Rail-To-Rail Connector Part [8719260]004"},{"mesh":1,"translation":[-0.24874829,2.3998632,-1.0776781],"rotation":[-0.0,-0.0,-0.46584624,0.8848657],"name":"CIR061 - 1 1l2 Rail-To-Rail Connector Part [8719260]005"},{"mesh":2,"translation":[-1.501454,0.54864055,-0.023503717],"rotation":[-0.0,-0.7071068,0.0,0.7071067],"name":"CSQ001-US - Surface Mount Weldment Part [8723797]187"},{"mesh":2,"translation":[-2.100868,0.18288001,-0.023503717],"rotation":[-0.0,-0.7071068,0.0,0.7071067],"name":"CSQ001-US - Surface Mount Weldment Part [8723797]188"},{"mesh":2,"translation":[1.4974042,2.56032,-0.023573343],"rotation":[-0.0,-0.7071068,0.0,0.7071067],"name":"CSQ001-US - Surface Mount Weldment Part [8723797]189"},{"mesh":2,"translation":[0.8993663,2.19456,-0.023573343],"rotation":[-0.0,-0.7071068,0.0,0.7071067],"name":"CSQ001-US - Surface Mount Weldment Part [8723797]190"},{"mesh":2,"translation":[0.0999407,1.64592,-0.023573343],"rotation":[-0.0,-0.7071068,0.0,0.7071067],"name":"CSQ001-US - Surface Mount Weldment Part [8723797]193"},{"mesh":2,"translation":[1.4974042,2.56032,-1.077674],"rotation":[-0.0,0.7071068,0.0,0.7071067],"name":"CSQ001-US - Surface Mount Weldment Part [8723797]195"},{"mesh":2,"translation":[0.8993663,2.19456,-1.077674],"rotation":[-0.0,0.7071068,0.0,0.7071067],"name":"CSQ001-US - Surface Mount Weldment Part [8723797]196"},{"mesh":2,"translation":[0.0999407,1.64592,-1.077674],"rotation":[-0.0,0.7071068,0.0,0.7071067],"name":"CSQ001-US - Surface Mount Weldment Part [8723797]198"},{"mesh":2,"translation":[-1.501454,0.54864055,-1.0776048],"rotation":[-0.0,0.7071066,0.0,0.70710695],"name":"CSQ001-US - Surface Mount Weldment Part [8723797]200"},{"mesh":2,"translation":[-2.100868,0.18288001,-1.0776049],"rotation":[-0.0,0.7071066,0.0,0.70710695],"name":"CSQ001-US - Surface Mount Weldment Part [8723797]201"},{"mesh":2,"translation":[-0.70294225,1.0972805,-0.023573343],"rotation":[-0.0,-0.7071068,0.0,0.7071067],"name":"CSQ001-US - Surface Mount Weldment Part [8723797]255"},{"mesh":2,"translation":[-0.70294225,1.0972805,-1.077674],"rotation":[-0.0,0.7071068,0.0,0.7071067],"name":"CSQ001-US - Surface Mount Weldment Part [8723797]256"},{"mesh":3,"translation":[-1.501454,1.200869,-0.023503717],"rotation":[-0.0,-0.7071068,0.0,0.7071067],"name":"CIR053-US - Midrail Coped Washer Part [8828822]001"},{"mesh":3,"translation":[-1.501454,1.0966564,-0.023503717],"rotation":[-0.0,-0.7071068,0.0,0.7071067],"name":"CIR053-US - Midrail Coped Washer Part [8828822]002"},{"mesh":3,"translation":[-1.501454,0.99244386,-0.023503717],"rotation":[-0.0,-0.7071068,0.0,0.7071067],"name":"CIR053-US - Midrail Coped Washer Part [8828822]003"},{"mesh":3,"translation":[-1.501454,0.8882313,-0.023503717],"rotation":[-0.0,-0.7071068,0.0,0.7071067],"name":"CIR053-US - Midrail Coped Washer Part [8828822]004"},{"mesh":3,"translation":[-1.501454,0.7840187,-0.023503717],"rotation":[-0.0,-0.7071068,0.0,0.7071067],"name":"CIR053-US - Midrail Coped Washer Part [8828822]005"},{"mesh":3,"translation":[-1.501454,1.4092942,-0.023503717],"rotation":[-0.0,-0.7071068,0.0,0.7071067],"name":"CIR053-US - Midrail Coped Washer Part [8828822]006"},{"mesh":3,"translation":[-1.501454,0.6798061,-0.023503717],"rotation":[-0.0,-0.7071068,0.0,0.7071067],"name":"CIR053-US - Midrail Coped Washer Part [8828822]007"},{"mesh":3,"translation":[-2.100868,0.791522,-0.023503717],"rotation":[-0.0,-0.7071068,0.0,0.7071067],"name":"CIR053-US - Midrail Coped Washer Part [8828822]008"},{"mesh":3,"translation":[-2.100868,0.6873095,-0.023503717],"rotation":[-0.0,-0.7071068,0.0,0.7071067],"name":"CIR053-US - Midrail Coped Washer Part [8828822]009"},{"mesh":3,"translation":[-2.100868,0.5830969,-0.023503717],"rotation":[-0.0,-0.7071068,0.0,0.7071067],"name":"CIR053-US - Midrail Coped Washer Part [8828822]010"},{"mesh":3,"translation":[-2.100868,0.47888437,-0.023503717],"rotation":[-0.0,-0.7071068,0.0,0.7071067],"name":"CIR053-US - Midrail Coped Washer Part [8828822]011"},{"mesh":3,"translation":[-2.100868,0.3746718,-0.023503717],"rotation":[-0.0,-0.7071068,0.0,0.7071067],"name":"CIR053-US - Midrail Coped Washer Part [8828822]012"},{"mesh":3,"translation":[-2.100868,0.9999472,-0.023503717],"rotation":[-0.0,-0.7071068,0.0,0.7071067],"name":"CIR053-US - Midrail Coped Washer Part [8828822]013"},{"mesh":3,"translation":[-2.100868,0.2704592,-0.023503717],"rotation":[-0.0,-0.7071068,0.0,0.7071067],"name":"CIR053-US - Midrail Coped Washer Part [8828822]014"},{"mesh":3,"translation":[1.4974042,3.257104,-0.023573343],"rotation":[-0.0,-0.7071068,0.0,0.7071067],"name":"CIR053-US - Midrail Coped Washer Part [8828822]015"},{"mesh":3,"translation":[1.4974042,3.1528802,-0.023573343],"rotation":[-0.0,-0.7071068,0.0,0.7071067],"name":"CIR053-US - Midrail Coped Washer Part [8828822]016"},{"mesh":3,"translation":[1.4974042,3.0486567,-0.023573343],"rotation":[-0.0,-0.7071068,0.0,0.7071067],"name":"CIR053-US - Midrail Coped Washer Part [8828822]017"},{"mesh":3,"translation":[1.4974042,2.9444335,-0.023573343],"rotation":[-0.0,-0.7071068,0.0,0.7071067],"name":"CIR053-US - Midrail Coped Washer Part [8828822]018"},{"mesh":3,"translation":[1.4974042,2.8402097,-0.023573343],"rotation":[-0.0,-0.7071068,0.0,0.7071067],"name":"CIR053-US - Midrail Coped Washer Part [8828822]019"},{"mesh":3,"translation":[1.4974042,3.4655507,-0.023573343],"rotation":[-0.0,-0.7071068,0.0,0.7071067],"name":"CIR053-US - Midrail Coped Washer Part [8828822]020"},{"mesh":3,"translation":[1.4974042,2.7359865,-0.023573343],"rotation":[-0.0,-0.7071068,0.0,0.7071067],"name":"CIR053-US - Midrail Coped Washer Part [8828822]021"},{"mesh":3,"translation":[0.8993663,2.8467884,-0.023573343],"rotation":[-0.0,-0.7071068,0.0,0.7071067],"name":"CIR053-US - Midrail Coped Washer Part [8828822]022"},{"mesh":3,"translation":[0.8993663,2.742576,-0.023573343],"rotation":[-0.0,-0.7071068,0.0,0.7071067],"name":"CIR053-US - Midrail Coped Washer Part [8828822]023"},{"mesh":3,"translation":[0.8993663,2.6383634,-0.023573343],"rotation":[-0.0,-0.7071068,0.0,0.7071067],"name":"CIR053-US - Midrail Coped Washer Part [8828822]024"},{"mesh":3,"translation":[0.8993663,2.5341508,-0.023573343],"rotation":[-0.0,-0.7071068,0.0,0.7071067],"name":"CIR053-US - Midrail Coped Washer Part [8828822]025"},{"mesh":3,"translation":[0.8993663,2.429938,-0.023573343],"rotation":[-0.0,-0.7071068,0.0,0.7071067],"name":"CIR053-US - Midrail Coped Washer Part [8828822]026"},{"mesh":3,"translation":[0.8993663,3.0552135,-0.023573343],"rotation":[-0.0,-0.7071068,0.0,0.7071067],"name":"CIR053-US - Midrail Coped Washer Part [8828822]027"},{"mesh":3,"translation":[0.8993663,2.3257256,-0.023573343],"rotation":[-0.0,-0.7071068,0.0,0.7071067],"name":"CIR053-US - Midrail Coped Washer Part [8828822]028"},{"mesh":3,"translation":[0.0999407,2.2981484,-0.023573343],"rotation":[-0.0,-0.7071068,0.0,0.7071067],"name":"CIR053-US - Midrail Coped Washer Part [8828822]043"},{"mesh":3,"translation":[0.0999407,2.1939359,-0.023573343],"rotation":[-0.0,-0.7071068,0.0,0.7071067],"name":"CIR053-US - Midrail Coped Washer Part [8828822]044"},{"mesh":3,"translation":[0.0999407,2.0897233,-0.023573343],"rotation":[-0.0,-0.7071068,0.0,0.7071067],"name":"CIR053-US - Midrail Coped Washer Part [8828822]045"},{"mesh":3,"translation":[0.0999407,1.9855108,-0.023573343],"rotation":[-0.0,-0.7071068,0.0,0.7071067],"name":"CIR053-US - Midrail Coped Washer Part [8828822]046"},{"mesh":3,"translation":[0.0999407,1.8812982,-0.023573343],"rotation":[-0.0,-0.7071068,0.0,0.7071067],"name":"CIR053-US - Midrail Coped Washer Part [8828822]047"},{"mesh":3,"translation":[0.0999407,2.5065734,-0.023573343],"rotation":[-0.0,-0.7071068,0.0,0.7071067],"name":"CIR053-US - Midrail Coped Washer Part [8828822]048"},{"mesh":3,"translation":[0.0999407,1.7770855,-0.023573343],"rotation":[-0.0,-0.7071068,0.0,0.7071067],"name":"CIR053-US - Midrail Coped Washer Part [8828822]049"},{"mesh":3,"translation":[1.4974042,3.257104,-1.077674],"rotation":[-0.0,0.7071068,0.0,0.7071067],"name":"CIR053-US - Midrail Coped Washer Part [8828822]050"},{"mesh":3,"translation":[1.4974042,3.1528802,-1.077674],"rotation":[-0.0,0.7071068,0.0,0.7071067],"name":"CIR053-US - Midrail Coped Washer Part [8828822]051"},{"mesh":3,"translation":[1.4974042,3.0486567,-1.077674],"rotation":[-0.0,0.7071068,0.0,0.7071067],"name":"CIR053-US - Midrail Coped Washer Part [8828822]052"},{"mesh":3,"translation":[1.4974042,2.9444335,-1.077674],"rotation":[-0.0,0.7071068,0.0,0.7071067],"name":"CIR053-US - Midrail Coped Washer Part [8828822]053"},{"mesh":3,"translation":[1.4974042,2.8402097,-1.077674],"rotation":[-0.0,0.7071068,0.0,0.7071067],"name":"CIR053-US - Midrail Coped Washer Part [8828822]054"},{"mesh":3,"translation":[1.4974042,3.4655507,-1.077674],"rotation":[-0.0,0.7071068,0.0,0.7071067],"name":"CIR053-US - Midrail Coped Washer Part [8828822]055"},{"mesh":3,"translation":[1.4974042,2.7359865,-1.077674],"rotation":[-0.0,0.7071068,0.0,0.7071067],"name":"CIR053-US - Midrail Coped Washer Part [8828822]056"},{"mesh":3,"translation":[0.8993663,2.8467884,-1.077674],"rotation":[-0.0,0.7071068,0.0,0.7071067],"name":"CIR053-US - Midrail Coped Washer Part [8828822]057"},{"mesh":3,"translation":[0.8993663,2.742576,-1.077674],"rotation":[-0.0,0.7071068,0.0,0.7071067],"name":"CIR053-US - Midrail Coped Washer Part [8828822]058"},{"mesh":3,"translation":[0.8993663,2.6383634,-1.077674],"rotation":[-0.0,0.7071068,0.0,0.7071067],"name":"CIR053-US - Midrail Coped Washer Part [8828822]059"},{"mesh":3,"translation":[0.8993663,2.5341508,-1.077674],"rotation":[-0.0,0.7071068,0.0,0.7071067],"name":"CIR053-US - Midrail Coped Washer Part [8828822]060"},{"mesh":3,"translation":[0.8993663,2.429938,-1.077674],"rotation":[-0.0,0.7071068,0.0,0.7071067],"name":"CIR053-US - Midrail Coped Washer Part [8828822]061"},{"mesh":3,"translation":[0.8993663,3.0552135,-1.077674],"rotation":[-0.0,0.7071068,0.0,0.7071067],"name":"CIR053-US - Midrail Coped Washer Part [8828822]062"},{"mesh":3,"translation":[0.8993663,2.3257256,-1.077674],"rotation":[-0.0,0.7071068,0.0,0.7071067],"name":"CIR053-US - Midrail Coped Washer Part [8828822]063"},{"mesh":3,"translation":[0.0999407,2.2981484,-1.077674],"rotation":[-0.0,0.7071068,0.0,0.7071067],"name":"CIR053-US - Midrail Coped Washer Part [8828822]072"},{"mesh":3,"translation":[0.0999407,2.1939359,-1.077674],"rotation":[-0.0,0.7071068,0.0,0.7071067],"name":"CIR053-US - Midrail Coped Washer Part [8828822]073"},{"mesh":3,"translation":[0.0999407,2.0897233,-1.077674],"rotation":[-0.0,0.7071068,0.0,0.7071067],"name":"CIR053-US - Midrail Coped Washer Part [8828822]074"},{"mesh":3,"translation":[0.0999407,1.9855108,-1.077674],"rotation":[-0.0,0.7071068,0.0,0.7071067],"name":"CIR053-US - Midrail Coped Washer Part [8828822]075"},{"mesh":3,"translation":[0.0999407,1.8812982,-1.077674],"rotation":[-0.0,0.7071068,0.0,0.7071067],"name":"CIR053-US - Midrail Coped Washer Part [8828822]076"},{"mesh":3,"translation":[0.0999407,2.5065734,-1.077674],"rotation":[-0.0,0.7071068,0.0,0.7071067],"name":"CIR053-US - Midrail Coped Washer Part [8828822]077"},{"mesh":3,"translation":[0.0999407,1.7770855,-1.077674],"rotation":[-0.0,0.7071068,0.0,0.7071067],"name":"CIR053-US - Midrail Coped Washer Part [8828822]078"},{"mesh":3,"translation":[-1.501454,1.200869,-1.0776048],"rotation":[-0.0,0.7071066,0.0,0.70710695],"name":"CIR053-US - Midrail Coped Washer Part [8828822]117"},{"mesh":3,"translation":[-1.501454,1.0966564,-1.0776048],"rotation":[-0.0,0.7071066,0.0,0.70710695],"name":"CIR053-US - Midrail Coped Washer Part [8828822]118"},{"mesh":3,"translation":[-1.501454,0.99244386,-1.0776048],"rotation":[-0.0,0.7071066,0.0,0.70710695],"name":"CIR053-US - Midrail Coped Washer Part [8828822]119"},{"mesh":3,"translation":[-1.501454,0.8882313,-1.0776048],"rotation":[-0.0,0.7071066,0.0,0.70710695],"name":"CIR053-US - Midrail Coped Washer Part [8828822]120"},{"mesh":3,"translation":[-1.501454,0.7840187,-1.0776048],"rotation":[-0.0,0.7071066,0.0,0.70710695],"name":"CIR053-US - Midrail Coped Washer Part [8828822]121"},{"mesh":3,"translation":[-1.501454,1.4092942,-1.0776048],"rotation":[-0.0,0.7071066,0.0,0.70710695],"name":"CIR053-US - Midrail Coped Washer Part [8828822]122"},{"mesh":3,"translation":[-1.501454,0.6798061,-1.0776048],"rotation":[-0.0,0.7071066,0.0,0.70710695],"name":"CIR053-US - Midrail Coped Washer Part [8828822]123"},{"mesh":3,"translation":[-2.100868,0.791522,-1.0776049],"rotation":[-0.0,0.7071066,0.0,0.70710695],"name":"CIR053-US - Midrail Coped Washer Part [8828822]124"},{"mesh":3,"translation":[-2.100868,0.6873095,-1.0776049],"rotation":[-0.0,0.7071066,0.0,0.70710695],"name":"CIR053-US - Midrail Coped Washer Part [8828822]125"},{"mesh":3,"translation":[-2.100868,0.5830969,-1.0776049],"rotation":[-0.0,0.7071066,0.0,0.70710695],"name":"CIR053-US - Midrail Coped Washer Part [8828822]126"},{"mesh":3,"translation":[-2.100868,0.47888437,-1.0776049],"rotation":[-0.0,0.7071066,0.0,0.70710695],"name":"CIR053-US - Midrail Coped Washer Part [8828822]127"},{"mesh":3,"translation":[-2.100868,0.3746718,-1.0776049],"rotation":[-0.0,0.7071066,0.0,0.70710695],"name":"CIR053-US - Midrail Coped Washer Part [8828822]128"},{"mesh":3,"translation":[-2.100868,0.9999472,-1.0776049],"rotation":[-0.0,0.7071066,0.0,0.70710695],"name":"CIR053-US - Midrail Coped Washer Part [8828822]129"},{"mesh":3,"translation":[-2.100868,0.2704592,-1.0776049],"rotation":[-0.0,0.7071066,0.0,0.70710695],"name":"CIR053-US - Midrail Coped Washer Part [8828822]130"},{"mesh":3,"translation":[-1.501454,1.3050817,-1.0776048],"rotation":[-0.0,0.7071066,0.0,0.70710695],"name":"CIR053-US - Midrail Coped Washer Part [8828822]141"},{"mesh":3,"translation":[-2.100868,0.89573467,-1.0776049],"rotation":[-0.0,0.7071066,0.0,0.70710695],"name":"CIR053-US - Midrail Coped Washer Part [8828822]142"},{"mesh":3,"translation":[0.8993663,2.951001,-1.077674],"rotation":[-0.0,0.7071068,0.0,0.7071067],"name":"CIR053-US - Midrail Coped Washer Part [8828822]143"},{"mesh":3,"translation":[0.0999407,2.4023612,-1.077674],"rotation":[-0.0,0.7071068,0.0,0.7071067],"name":"CIR053-US - Midrail Coped Washer Part [8828822]144"},{"mesh":3,"translation":[1.4974042,3.3613272,-1.077674],"rotation":[-0.0,0.7071068,0.0,0.7071067],"name":"CIR053-US - Midrail Coped Washer Part [8828822]145"},{"mesh":3,"translation":[-1.501454,1.3050817,-0.023503717],"rotation":[-0.0,-0.7071068,0.0,0.7071067],"name":"CIR053-US - Midrail Coped Washer Part [8828822]146"},{"mesh":3,"translation":[-2.100868,0.89573467,-0.023503717],"rotation":[-0.0,-0.7071068,0.0,0.7071067],"name":"CIR053-US - Midrail Coped Washer Part [8828822]147"},{"mesh":3,"translation":[1.4974042,3.3613272,-0.023573343],"rotation":[-0.0,-0.7071068,0.0,0.7071067],"name":"CIR053-US - Midrail Coped Washer Part [8828822]148"},{"mesh":3,"translation":[0.8993663,2.951001,-0.023573343],"rotation":[-0.0,-0.7071068,0.0,0.7071067],"name":"CIR053-US - Midrail Coped Washer Part [8828822]149"},{"mesh":3,"translation":[0.0999407,2.4023612,-0.023573343],"rotation":[-0.0,-0.7071068,0.0,0.7071067],"name":"CIR053-US - Midrail Coped Washer Part [8828822]152"},{"mesh":3,"translation":[-0.70294225,1.749509,-0.023573343],"rotation":[-0.0,-0.7071068,0.0,0.7071067],"name":"CIR053-US - Midrail Coped Washer Part [8828822]153"},{"mesh":3,"translation":[-0.70294225,1.6452965,-0.023573343],"rotation":[-0.0,-0.7071068,0.0,0.7071067],"name":"CIR053-US - Midrail Coped Washer Part [8828822]154"},{"mesh":3,"translation":[-0.70294225,1.5410838,-0.023573343],"rotation":[-0.0,-0.7071068,0.0,0.7071067],"name":"CIR053-US - Midrail Coped Washer Part [8828822]155"},{"mesh":3,"translation":[-0.70294225,1.4368713,-0.023573343],"rotation":[-0.0,-0.7071068,0.0,0.7071067],"name":"CIR053-US - Midrail Coped Washer Part [8828822]156"},{"mesh":3,"translation":[-0.70294225,1.3326585,-0.023573343],"rotation":[-0.0,-0.7071068,0.0,0.7071067],"name":"CIR053-US - Midrail Coped Washer Part [8828822]157"},{"mesh":3,"translation":[-0.70294225,1.957934,-0.023573343],"rotation":[-0.0,-0.7071068,0.0,0.7071067],"name":"CIR053-US - Midrail Coped Washer Part [8828822]158"},{"mesh":3,"translation":[-0.70294225,1.228446,-0.023573343],"rotation":[-0.0,-0.7071068,0.0,0.7071067],"name":"CIR053-US - Midrail Coped Washer Part [8828822]159"},{"mesh":3,"translation":[-0.70294225,1.749509,-1.077674],"rotation":[-0.0,0.7071068,0.0,0.7071067],"name":"CIR053-US - Midrail Coped Washer Part [8828822]160"},{"mesh":3,"translation":[-0.70294225,1.6452965,-1.077674],"rotation":[-0.0,0.7071068,0.0,0.7071067],"name":"CIR053-US - Midrail Coped Washer Part [8828822]161"},{"mesh":3,"translation":[-0.70294225,1.5410838,-1.077674],"rotation":[-0.0,0.7071068,0.0,0.7071067],"name":"CIR053-US - Midrail Coped Washer Part [8828822]162"},{"mesh":3,"translation":[-0.70294225,1.4368713,-1.077674],"rotation":[-0.0,0.7071068,0.0,0.7071067],"name":"CIR053-US - Midrail Coped Washer Part [8828822]163"},{"mesh":3,"translation":[-0.70294225,1.3326585,-1.077674],"rotation":[-0.0,0.7071068,0.0,0.7071067],"name":"CIR053-US - Midrail Coped Washer Part [8828822]164"},{"mesh":3,"translation":[-0.70294225,1.957934,-1.077674],"rotation":[-0.0,0.7071068,0.0,0.7071067],"name":"CIR053-US - Midrail Coped Washer Part [8828822]165"},{"mesh":3,"translation":[-0.70294225,1.228446,-1.077674],"rotation":[-0.0,0.7071068,0.0,0.7071067],"name":"CIR053-US - Midrail Coped Washer Part [8828822]166"},{"mesh":3,"translation":[-0.70294225,1.8537215,-1.077674],"rotation":[-0.0,0.7071068,0.0,0.7071067],"name":"CIR053-US - Midrail Coped Washer Part [8828822]167"},{"mesh":3,"translation":[-0.70294225,1.8537215,-0.023573343],"rotation":[-0.0,-0.7071068,0.0,0.7071067],"name":"CIR053-US - Midrail Coped Washer Part [8828822]168"},{"mesh":4,"translation":[-1.501454,1.200869,-0.050809026],"rotation":[-0.20950983,0.6753558,0.20950972,0.6753562],"name":"CIR009-US - Midrail Button Part [8829435]001"},{"mesh":4,"translation":[-1.501454,1.0966564,-0.050809026],"rotation":[-0.20950983,0.6753558,0.20950972,0.6753562],"name":"CIR009-US - Midrail Button Part [8829435]002"},{"mesh":4,"translation":[-1.501454,0.99244386,-0.050809026],"rotation":[-0.20950983,0.6753558,0.20950972,0.6753562],"name":"CIR009-US - Midrail Button Part [8829435]003"},{"mesh":4,"translation":[-1.501454,0.8882313,-0.050809026],"rotation":[-0.20950983,0.6753558,0.20950972,0.6753562],"name":"CIR009-US - Midrail Button Part [8829435]004"},{"mesh":4,"translation":[-1.501454,0.7840187,-0.050809026],"rotation":[-0.20950983,0.6753558,0.20950972,0.6753562],"name":"CIR009-US - Midrail Button Part [8829435]005"},{"mesh":4,"translation":[-1.501454,1.4092942,-0.050809026],"rotation":[-0.20950983,0.6753558,0.20950972,0.6753562],"name":"CIR009-US - Midrail Button Part [8829435]006"},{"mesh":4,"translation":[-1.501454,0.6798061,-0.050809026],"rotation":[-0.20950983,0.6753558,0.20950972,0.6753562],"name":"CIR009-US - Midrail Button Part [8829435]007"},{"mesh":4,"translation":[-2.100868,0.791522,-0.050809026],"rotation":[-0.20950983,0.6753558,0.20950972,0.6753562],"name":"CIR009-US - Midrail Button Part [8829435]008"},{"mesh":4,"translation":[-2.100868,0.6873095,-0.050809026],"rotation":[-0.20950983,0.6753558,0.20950972,0.6753562],"name":"CIR009-US - Midrail Button Part [8829435]009"},{"mesh":4,"translation":[-2.100868,0.5830969,-0.050809026],"rotation":[-0.20950983,0.6753558,0.20950972,0.6753562],"name":"CIR009-US - Midrail Button Part [8829435]010"},{"mesh":4,"translation":[-2.100868,0.47888437,-0.050809026],"rotation":[-0.20950983,0.6753558,0.20950972,0.6753562],"name":"CIR009-US - Midrail Button Part [8829435]011"},{"mesh":4,"translation":[-2.100868,0.3746718,-0.050809026],"rotation":[-0.20950983,0.6753558,0.20950972,0.6753562],"name":"CIR009-US - Midrail Button Part [8829435]012"},{"mesh":4,"translation":[-2.100868,0.9999472,-0.050809026],"rotation":[-0.20950983,0.6753558,0.20950972,0.6753562],"name":"CIR009-US - Midrail Button Part [8829435]013"},{"mesh":4,"translation":[-2.100868,0.2704592,-0.050809026],"rotation":[-0.20950983,0.6753558,0.20950972,0.6753562],"name":"CIR009-US - Midrail Button Part [8829435]014"},{"mesh":4,"translation":[1.4974042,3.257104,-0.050878655],"rotation":[-0.20950978,0.675356,0.20950978,0.6753559],"name":"CIR009-US - Midrail Button Part [8829435]015"},{"mesh":4,"translation":[1.4974042,3.1528802,-0.050878655],"rotation":[-0.20950978,0.675356,0.20950978,0.6753559],"name":"CIR009-US - Midrail Button Part [8829435]016"},{"mesh":4,"translation":[1.4974042,3.0486567,-0.050878655],"rotation":[-0.20950978,0.675356,0.20950978,0.6753559],"name":"CIR009-US - Midrail Button Part [8829435]017"},{"mesh":4,"translation":[1.4974042,2.9444335,-0.050878655],"rotation":[-0.20950978,0.675356,0.20950978,0.6753559],"name":"CIR009-US - Midrail Button Part [8829435]018"},{"mesh":4,"translation":[1.4974042,2.8402097,-0.050878655],"rotation":[-0.20950978,0.675356,0.20950978,0.6753559],"name":"CIR009-US - Midrail Button Part [8829435]019"},{"mesh":4,"translation":[1.4974042,3.4655507,-0.050878655],"rotation":[-0.20950978,0.675356,0.20950978,0.6753559],"name":"CIR009-US - Midrail Button Part [8829435]020"},{"mesh":4,"translation":[1.4974042,2.7359865,-0.050878655],"rotation":[-0.20950978,0.675356,0.20950978,0.6753559],"name":"CIR009-US - Midrail Button Part [8829435]021"},{"mesh":4,"translation":[0.8993663,2.8467884,-0.050878655],"rotation":[-0.20950978,0.675356,0.20950978,0.6753559],"name":"CIR009-US - Midrail Button Part [8829435]022"},{"mesh":4,"translation":[0.8993663,2.742576,-0.050878655],"rotation":[-0.20950978,0.675356,0.20950978,0.6753559],"name":"CIR009-US - Midrail Button Part [8829435]023"},{"mesh":4,"translation":[0.8993663,2.6383634,-0.050878655],"rotation":[-0.20950978,0.675356,0.20950978,0.6753559],"name":"CIR009-US - Midrail Button Part [8829435]024"},{"mesh":4,"translation":[0.8993663,2.5341508,-0.050878655],"rotation":[-0.20950978,0.675356,0.20950978,0.6753559],"name":"CIR009-US - Midrail Button Part [8829435]025"},{"mesh":4,"translation":[0.8993663,2.429938,-0.050878655],"rotation":[-0.20950978,0.675356,0.20950978,0.6753559],"name":"CIR009-US - Midrail Button Part [8829435]026"},{"mesh":4,"translation":[0.8993663,3.0552135,-0.050878655],"rotation":[-0.20950978,0.675356,0.20950978,0.6753559],"name":"CIR009-US - Midrail Button Part [8829435]027"},{"mesh":4,"translation":[0.8993663,2.3257256,-0.050878655],"rotation":[-0.20950978,0.675356,0.20950978,0.6753559],"name":"CIR009-US - Midrail Button Part [8829435]028"},{"mesh":4,"translation":[0.0999407,2.2981484,-0.050878655],"rotation":[-0.20950978,0.675356,0.20950978,0.6753559],"name":"CIR009-US - Midrail Button Part [8829435]043"},{"mesh":4,"translation":[0.0999407,2.1939359,-0.050878655],"rotation":[-0.20950978,0.675356,0.20950978,0.6753559],"name":"CIR009-US - Midrail Button Part [8829435]044"},{"mesh":4,"translation":[0.0999407,2.0897233,-0.050878655],"rotation":[-0.20950978,0.675356,0.20950978,0.6753559],"name":"CIR009-US - Midrail Button Part [8829435]045"},{"mesh":4,"translation":[0.0999407,1.9855108,-0.050878655],"rotation":[-0.20950978,0.675356,0.20950978,0.6753559],"name":"CIR009-US - Midrail Button Part [8829435]046"},{"mesh":4,"translation":[0.0999407,1.8812982,-0.050878655],"rotation":[-0.20950978,0.675356,0.20950978,0.6753559],"name":"CIR009-US - Midrail Button Part [8829435]047"},{"mesh":4,"translation":[0.0999407,2.5065734,-0.050878655],"rotation":[-0.20950978,0.675356,0.20950978,0.6753559],"name":"CIR009-US - Midrail Button Part [8829435]048"},{"mesh":4,"translation":[0.0999407,1.7770855,-0.050878655],"rotation":[-0.20950978,0.675356,0.20950978,0.6753559],"name":"CIR009-US - Midrail Button Part [8829435]049"},{"mesh":4,"translation":[1.4974042,3.257104,-1.0503688],"rotation":[0.20950973,-0.675356,0.20950978,0.6753559],"name":"CIR009-US - Midrail Button Part [8829435]050"},{"mesh":4,"translation":[1.4974042,3.1528802,-1.0503688],"rotation":[0.20950973,-0.675356,0.20950978,0.6753559],"name":"CIR009-US - Midrail Button Part [8829435]051"},{"mesh":4,"translation":[1.4974042,3.0486567,-1.0503688],"rotation":[0.20950973,-0.675356,0.20950978,0.6753559],"name":"CIR009-US - Midrail Button Part [8829435]052"},{"mesh":4,"translation":[1.4974042,2.9444335,-1.0503688],"rotation":[0.20950973,-0.675356,0.20950978,0.6753559],"name":"CIR009-US - Midrail Button Part [8829435]053"},{"mesh":4,"translation":[1.4974042,2.8402097,-1.0503688],"rotation":[0.20950973,-0.675356,0.20950978,0.6753559],"name":"CIR009-US - Midrail Button Part [8829435]054"},{"mesh":4,"translation":[1.4974042,3.4655507,-1.0503688],"rotation":[0.20950973,-0.675356,0.20950978,0.6753559],"name":"CIR009-US - Midrail Button Part [8829435]055"},{"mesh":4,"translation":[1.4974042,2.7359865,-1.0503688],"rotation":[0.20950973,-0.675356,0.20950978,0.6753559],"name":"CIR009-US - Midrail Button Part [8829435]056"},{"mesh":4,"translation":[0.8993663,2.8467884,-1.0503688],"rotation":[0.20950973,-0.675356,0.20950978,0.6753559],"name":"CIR009-US - Midrail Button Part [8829435]057"},{"mesh":4,"translation":[0.8993663,2.742576,-1.0503688],"rotation":[0.20950973,-0.675356,0.20950978,0.6753559],"name":"CIR009-US - Midrail Button Part [8829435]058"},{"mesh":4,"translation":[0.8993663,2.6383634,-1.0503688],"rotation":[0.20950973,-0.675356,0.20950978,0.6753559],"name":"CIR009-US - Midrail Button Part [8829435]059"},{"mesh":4,"translation":[0.8993663,2.5341508,-1.0503688],"rotation":[0.20950973,-0.675356,0.20950978,0.6753559],"name":"CIR009-US - Midrail Button Part [8829435]060"},{"mesh":4,"translation":[0.8993663,2.429938,-1.0503688],"rotation":[0.20950973,-0.675356,0.20950978,0.6753559],"name":"CIR009-US - Midrail Button Part [8829435]061"},{"mesh":4,"translation":[0.8993663,3.0552135,-1.0503688],"rotation":[0.20950973,-0.675356,0.20950978,0.6753559],"name":"CIR009-US - Midrail Button Part [8829435]062"},{"mesh":4,"translation":[0.8993663,2.3257256,-1.0503688],"rotation":[0.20950973,-0.675356,0.20950978,0.6753559],"name":"CIR009-US - Midrail Button Part [8829435]063"},{"mesh":4,"translation":[0.0999407,2.2981484,-1.0503688],"rotation":[0.20950973,-0.675356,0.20950978,0.6753559],"name":"CIR009-US - Midrail Button Part [8829435]072"},{"mesh":4,"translation":[0.0999407,2.1939359,-1.0503688],"rotation":[0.20950973,-0.675356,0.20950978,0.6753559],"name":"CIR009-US - Midrail Button Part [8829435]073"},{"mesh":4,"translation":[0.0999407,2.0897233,-1.0503688],"rotation":[0.20950973,-0.675356,0.20950978,0.6753559],"name":"CIR009-US - Midrail Button Part [8829435]074"},{"mesh":4,"translation":[0.0999407,1.9855108,-1.0503688],"rotation":[0.20950973,-0.675356,0.20950978,0.6753559],"name":"CIR009-US - Midrail Button Part [8829435]075"},{"mesh":4,"translation":[0.0999407,1.8812982,-1.0503688],"rotation":[0.20950973,-0.675356,0.20950978,0.6753559],"name":"CIR009-US - Midrail Button Part [8829435]076"},{"mesh":4,"translation":[0.0999407,2.5065734,-1.0503688],"rotation":[0.20950973,-0.675356,0.20950978,0.6753559],"name":"CIR009-US - Midrail Button Part [8829435]077"},{"mesh":4,"translation":[0.0999407,1.7770855,-1.0503688],"rotation":[0.20950973,-0.675356,0.20950978,0.6753559],"name":"CIR009-US - Midrail Button Part [8829435]078"},{"mesh":4,"translation":[-1.501454,1.200869,-1.0502995],"rotation":[0.20950978,-0.675356,0.20950978,0.6753559],"name":"CIR009-US - Midrail Button Part [8829435]117"},{"mesh":4,"translation":[-1.501454,1.0966564,-1.0502995],"rotation":[0.20950978,-0.675356,0.20950978,0.6753559],"name":"CIR009-US - Midrail Button Part [8829435]118"},{"mesh":4,"translation":[-1.501454,0.99244386,-1.0502995],"rotation":[0.20950978,-0.675356,0.20950978,0.6753559],"name":"CIR009-US - Midrail Button Part [8829435]119"},{"mesh":4,"translation":[-1.501454,0.8882313,-1.0502995],"rotation":[0.20950978,-0.675356,0.20950978,0.6753559],"name":"CIR009-US - Midrail Button Part [8829435]120"},{"mesh":4,"translation":[-1.501454,0.7840187,-1.0502995],"rotation":[0.20950978,-0.675356,0.20950978,0.6753559],"name":"CIR009-US - Midrail Button Part [8829435]121"},{"mesh":4,"translation":[-1.501454,1.4092942,-1.0502995],"rotation":[0.20950978,-0.675356,0.20950978,0.6753559],"name":"CIR009-US - Midrail Button Part [8829435]122"},{"mesh":4,"translation":[-1.501454,0.6798061,-1.0502995],"rotation":[0.20950978,-0.675356,0.20950978,0.6753559],"name":"CIR009-US - Midrail Button Part [8829435]123"},{"mesh":4,"translation":[-2.100868,0.791522,-1.0502995],"rotation":[0.20950978,-0.675356,0.20950978,0.6753559],"name":"CIR009-US - Midrail Button Part [8829435]124"},{"mesh":4,"translation":[-2.100868,0.6873095,-1.0502995],"rotation":[0.20950978,-0.675356,0.20950978,0.6753559],"name":"CIR009-US - Midrail Button Part [8829435]125"},{"mesh":4,"translation":[-2.100868,0.5830969,-1.0502995],"rotation":[0.20950978,-0.675356,0.20950978,0.6753559],"name":"CIR009-US - Midrail Button Part [8829435]126"},{"mesh":4,"translation":[-2.100868,0.47888437,-1.0502995],"rotation":[0.20950978,-0.675356,0.20950978,0.6753559],"name":"CIR009-US - Midrail Button Part [8829435]127"},{"mesh":4,"translation":[-2.100868,0.3746718,-1.0502995],"rotation":[0.20950978,-0.675356,0.20950978,0.6753559],"name":"CIR009-US - Midrail Button Part [8829435]128"},{"mesh":4,"translation":[-2.100868,0.9999472,-1.0502995],"rotation":[0.20950978,-0.675356,0.20950978,0.6753559],"name":"CIR009-US - Midrail Button Part [8829435]129"},{"mesh":4,"translation":[-2.100868,0.2704592,-1.0502995],"rotation":[0.20950978,-0.675356,0.20950978,0.6753559],"name":"CIR009-US - Midrail Button Part [8829435]130"},{"mesh":4,"translation":[-1.501454,1.3050817,-1.0502995],"rotation":[0.20950978,-0.675356,0.20950978,0.6753559],"name":"CIR009-US - Midrail Button Part [8829435]141"},{"mesh":4,"translation":[-2.100868,0.89573467,-1.0502995],"rotation":[0.20950978,-0.675356,0.20950978,0.6753559],"name":"CIR009-US - Midrail Button Part [8829435]142"},{"mesh":4,"translation":[0.8993663,2.951001,-1.0503688],"rotation":[0.20950973,-0.675356,0.20950978,0.6753559],"name":"CIR009-US - Midrail Button Part [8829435]143"},{"mesh":4,"translation":[0.0999407,2.4023612,-1.0503688],"rotation":[0.20950973,-0.675356,0.20950978,0.6753559],"name":"CIR009-US - Midrail Button Part [8829435]144"},{"mesh":4,"translation":[1.4974042,3.3613272,-1.0503688],"rotation":[0.20950973,-0.675356,0.20950978,0.6753559],"name":"CIR009-US - Midrail Button Part [8829435]145"},{"mesh":4,"translation":[-1.501454,1.3050817,-0.050809026],"rotation":[-0.20950983,0.6753558,0.20950972,0.6753562],"name":"CIR009-US - Midrail Button Part [8829435]146"},{"mesh":4,"translation":[-2.100868,0.89573467,-0.050809026],"rotation":[-0.20950983,0.6753558,0.20950972,0.6753562],"name":"CIR009-US - Midrail Button Part [8829435]147"},{"mesh":4,"translation":[1.4974042,3.3613272,-0.050878655],"rotation":[-0.20950978,0.675356,0.20950978,0.6753559],"name":"CIR009-US - Midrail Button Part [8829435]148"},{"mesh":4,"translation":[0.8993663,2.951001,-0.050878655],"rotation":[-0.20950978,0.675356,0.20950978,0.6753559],"name":"CIR009-US - Midrail Button Part [8829435]149"},{"mesh":4,"translation":[0.0999407,2.4023612,-0.050878655],"rotation":[-0.20950978,0.675356,0.20950978,0.6753559],"name":"CIR009-US - Midrail Button Part [8829435]152"},{"mesh":4,"translation":[-0.70294225,1.749509,-0.050878655],"rotation":[-0.20950978,0.675356,0.20950978,0.6753559],"name":"CIR009-US - Midrail Button Part [8829435]153"},{"mesh":4,"translation":[-0.70294225,1.6452965,-0.050878655],"rotation":[-0.20950978,0.675356,0.20950978,0.6753559],"name":"CIR009-US - Midrail Button Part [8829435]154"},{"mesh":4,"translation":[-0.70294225,1.5410838,-0.050878655],"rotation":[-0.20950978,0.675356,0.20950978,0.6753559],"name":"CIR009-US - Midrail Button Part [8829435]155"},{"mesh":4,"translation":[-0.70294225,1.4368713,-0.050878655],"rotation":[-0.20950978,0.675356,0.20950978,0.6753559],"name":"CIR009-US - Midrail Button Part [8829435]156"},{"mesh":4,"translation":[-0.70294225,1.3326585,-0.050878655],"rotation":[-0.20950978,0.675356,0.20950978,0.6753559],"name":"CIR009-US - Midrail Button Part [8829435]157"},{"mesh":4,"translation":[-0.70294225,1.957934,-0.050878655],"rotation":[-0.20950978,0.675356,0.20950978,0.6753559],"name":"CIR009-US - Midrail Button Part [8829435]158"},{"mesh":4,"translation":[-0.70294225,1.228446,-0.050878655],"rotation":[-0.20950978,0.675356,0.20950978,0.6753559],"name":"CIR009-US - Midrail Button Part [8829435]159"},{"mesh":4,"translation":[-0.70294225,1.749509,-1.0503688],"rotation":[0.20950973,-0.675356,0.20950978,0.6753559],"name":"CIR009-US - Midrail Button Part [8829435]160"},{"mesh":4,"translation":[-0.70294225,1.6452965,-1.0503688],"rotation":[0.20950973,-0.675356,0.20950978,0.6753559],"name":"CIR009-US - Midrail Button Part [8829435]161"},{"mesh":4,"translation":[-0.70294225,1.5410838,-1.0503688],"rotation":[0.20950973,-0.675356,0.20950978,0.6753559],"name":"CIR009-US - Midrail Button Part [8829435]162"},{"mesh":4,"translation":[-0.70294225,1.4368713,-1.0503688],"rotation":[0.20950973,-0.675356,0.20950978,0.6753559],"name":"CIR009-US - Midrail Button Part [8829435]163"},{"mesh":4,"translation":[-0.70294225,1.3326585,-1.0503688],"rotation":[0.20950973,-0.675356,0.20950978,0.6753559],"name":"CIR009-US - Midrail Button Part [8829435]164"},{"mesh":4,"translation":[-0.70294225,1.957934,-1.0503688],"rotation":[0.20950973,-0.675356,0.20950978,0.6753559],"name":"CIR009-US - Midrail Button Part [8829435]165"},{"mesh":4,"translation":[-0.70294225,1.228446,-1.0503688],"rotation":[0.20950973,-0.675356,0.20950978,0.6753559],"name":"CIR009-US - Midrail Button Part [8829435]166"},{"mesh":4,"translation":[-0.70294225,1.8537215,-1.0503688],"rotation":[0.20950973,-0.675356,0.20950978,0.6753559],"name":"CIR009-US - Midrail Button Part [8829435]167"},{"mesh":4,"translation":[-0.70294225,1.8537215,-0.050878655],"rotation":[-0.20950978,0.675356,0.20950978,0.6753559],"name":"CIR009-US - Midrail Button Part [8829435]168"},{"mesh":5,"translation":[-1.501454,1.4433613,-0.023503717],"rotation":[-0.0,-0.7071068,0.0,0.7071067],"name":"CIR022 - Center Toprail Post Cap Part [8828895]001"},{"mesh":5,"translation":[-2.100868,1.0320084,-0.023503717],"rotation":[-0.0,-0.7071068,0.0,0.7071067],"name":"CIR022 - Center Toprail Post Cap Part [8828895]002"},{"mesh":5,"translation":[1.4974042,3.5025241,-0.023573343],"rotation":[-0.0,-0.7071068,0.0,0.7071067],"name":"CIR022 - Center Toprail Post Cap Part [8828895]003"},{"mesh":5,"translation":[0.8993663,3.0919926,-0.023573343],"rotation":[-0.0,-0.7071068,0.0,0.7071067],"name":"CIR022 - Center Toprail Post Cap Part [8828895]004"},{"mesh":5,"translation":[0.0999407,2.5433526,-0.023573343],"rotation":[-0.0,-0.7071068,0.0,0.7071067],"name":"CIR022 - Center Toprail Post Cap Part [8828895]007"},{"mesh":5,"translation":[1.4974042,3.5025241,-1.077674],"rotation":[-0.0,0.7071068,0.0,0.7071067],"name":"CIR022 - Center Toprail Post Cap Part [8828895]008"},{"mesh":5,"translation":[0.8993663,3.0919926,-1.077674],"rotation":[-0.0,0.7071068,0.0,0.7071067],"name":"CIR022 - Center Toprail Post Cap Part [8828895]009"},{"mesh":5,"translation":[0.0999407,2.5433526,-1.077674],"rotation":[-0.0,0.7071068,0.0,0.7071067],"name":"CIR022 - Center Toprail Post Cap Part [8828895]011"},{"mesh":5,"translation":[-1.501454,1.4433613,-1.0776048],"rotation":[-0.0,0.7071066,0.0,0.70710695],"name":"CIR022 - Center Toprail Post Cap Part [8828895]017"},{"mesh":5,"translation":[-2.100868,1.0320084,-1.0776049],"rotation":[-0.0,0.7071066,0.0,0.70710695],"name":"CIR022 - Center Toprail Post Cap Part [8828895]018"},{"mesh":5,"translation":[-0.70294225,1.9920322,-0.023573343],"rotation":[-0.0,-0.7071068,0.0,0.7071067],"name":"CIR022 - Center Toprail Post Cap Part [8828895]019"},{"mesh":5,"translation":[-0.70294225,1.9920322,-1.077674],"rotation":[-0.0,0.7071068,0.0,0.7071067],"name":"CIR022 - Center Toprail Post Cap Part [8828895]020"},{"mesh":6,"translation":[-1.501454,0.54798377,-0.023503717],"rotation":[-0.49999994,-0.50000006,0.5,0.5],"scale":[1.0,0.99999994,0.99999994],"name":"LS103 & LS116 - Circum Round Post Material LS Material [8828878]"},{"mesh":7,"translation":[-1.501454,1.4515655,-0.023503717],"rotation":[-0.0,0.7071067,0.0,0.7071068],"name":"Bent Stem_013"},{"mesh":7,"translation":[-2.100868,1.0402126,-0.023503717],"rotation":[-0.0,0.7071067,0.0,0.7071068],"name":"Bent Stem_014"},{"mesh":7,"translation":[1.4974042,3.5107281,-0.023573343],"rotation":[-0.0,0.7071067,0.0,0.7071068],"name":"Bent Stem_015"},{"mesh":7,"translation":[0.8993663,3.1001968,-0.023573343],"rotation":[-0.0,0.7071067,0.0,0.7071068],"name":"Bent Stem_016"},{"mesh":7,"translation":[0.0999407,2.5515568,-0.023573343],"rotation":[-0.0,0.7071067,0.0,0.7071068],"name":"Bent Stem_019"},{"mesh":7,"translation":[1.4974042,3.5107281,-1.077674],"rotation":[-0.0,0.7071068,0.0,0.7071067],"name":"Bent Stem_020"},{"mesh":7,"translation":[0.8993663,3.1001968,-1.077674],"rotation":[-0.0,0.7071068,0.0,0.7071067],"name":"Bent Stem_021"},{"mesh":7,"translation":[0.0999407,2.5515568,-1.077674],"rotation":[-0.0,0.7071068,0.0,0.7071067],"name":"Bent Stem_023"},{"mesh":7,"translation":[-1.501454,1.4515655,-1.0776048],"rotation":[-0.0,0.7071066,0.0,0.70710695],"name":"Bent Stem_024"},{"mesh":7,"translation":[-2.100868,1.0402126,-1.0776049],"rotation":[-0.0,0.7071066,0.0,0.70710695],"name":"Bent Stem_025"},{"mesh":7,"translation":[-0.70294225,2.0002363,-0.023573343],"rotation":[-0.0,0.7071067,0.0,0.7071068],"name":"Bent Stem_040"},{"mesh":7,"translation":[-0.70294225,2.0002363,-1.077674],"rotation":[-0.0,0.7071068,0.0,0.7071067],"name":"Bent Stem_041"},{"mesh":8,"translation":[-1.540947,1.5356088,-0.023503717],"rotation":[-0.6257521,0.3292938,-0.3292938,0.6257521],"scale":[0.99999994,1.0,0.99999994],"name":"CIR057 - 1 1l2 Rail Saddle Part [8723174]057"},{"mesh":8,"translation":[-2.1403608,1.1242559,-0.023503717],"rotation":[-0.6257521,0.3292938,-0.3292938,0.6257521],"scale":[0.99999994,1.0,0.99999994],"name":"CIR057 - 1 1l2 Rail Saddle Part [8723174]056"},{"mesh":8,"translation":[1.4579114,3.5947714,-0.023573343],"rotation":[-0.6257521,0.32929385,-0.3292938,0.625752],"name":"CIR057 - 1 1l2 Rail Saddle Part [8723174]055"},{"mesh":8,"translation":[0.8598734,3.1842399,-0.023573343],"rotation":[-0.6257521,0.32929385,-0.3292938,0.625752],"name":"CIR057 - 1 1l2 Rail Saddle Part [8723174]054"},{"mesh":8,"translation":[0.06045009,2.6356,-0.023573343],"rotation":[-0.6257521,0.32929385,-0.3292938,0.625752],"name":"CIR057 - 1 1l2 Rail Saddle Part [8723174]051"},{"mesh":8,"translation":[1.4579114,3.5947714,-1.077674],"rotation":[0.62575203,-0.32929382,-0.3292938,0.62575203],"name":"CIR057 - 1 1l2 Rail Saddle Part [8723174]050"},{"mesh":8,"translation":[0.8598734,3.1842399,-1.077674],"rotation":[0.62575203,-0.32929382,-0.3292938,0.62575203],"name":"CIR057 - 1 1l2 Rail Saddle Part [8723174]049"},{"mesh":8,"translation":[0.06045009,2.6356,-1.077674],"rotation":[0.62575203,-0.32929382,-0.3292938,0.62575203],"name":"CIR057 - 1 1l2 Rail Saddle Part [8723174]047"},{"mesh":8,"translation":[-1.540947,1.5356088,-1.0776048],"rotation":[0.625752,-0.32929376,-0.32929376,0.6257521],"scale":[0.99999994,1.0,0.99999994],"name":"CIR057 - 1 1l2 Rail Saddle Part [8723174]041"},{"mesh":8,"translation":[-2.1403608,1.1242559,-1.0776049],"rotation":[0.625752,-0.32929376,-0.32929376,0.6257521],"scale":[0.99999994,1.0,0.99999994],"name":"CIR057 - 1 1l2 Rail Saddle Part [8723174]040"},{"mesh":8,"translation":[-0.7424329,2.08428,-1.077674],"rotation":[0.62575203,-0.32929382,-0.3292938,0.62575203],"name":"CIR057 - 1 1l2 Rail Saddle Part [8723174]102"},{"mesh":8,"translation":[-0.7424329,2.08428,-0.023573343],"rotation":[-0.6257521,0.32929385,-0.3292938,0.625752],"name":"CIR057 - 1 1l2 Rail Saddle Part [8723174]103"},{"mesh":9,"translation":[-2.100868,0.18031897,-0.023503717],"rotation":[-0.49999994,-0.50000006,0.5,0.5],"scale":[1.0,0.99999994,0.99999994],"name":"LS103 & LS116 - Circum Round Post Material LS Material [8828887]"},{"mesh":10,"translation":[1.4974042,2.5636616,-0.023573343],"rotation":[-0.5,-0.5,0.50000006,0.49999994],"name":"LS103 & LS116 - Circum Round Post Material LS Material [8828896]"},{"mesh":11,"translation":[0.8993663,2.196615,-0.023573343],"rotation":[-0.5,-0.5,0.50000006,0.49999994],"name":"LS103 & LS116 - Circum Round Post Material LS Material [8828905]"},{"mesh":12,"translation":[0.0999407,1.6479752,-0.023573343],"rotation":[-0.5,-0.5,0.50000006,0.49999994],"name":"LS103 & LS116 - Circum Round Post Material LS Material [8829086]"},{"mesh":12,"translation":[-0.70294225,1.096655,-0.023573343],"rotation":[-0.5,-0.5,0.50000006,0.49999994],"name":"LS103 & LS116 - Circum Round Post Material LS Material [8829086]001"},{"mesh":13,"translation":[1.4974042,2.562375,-1.077674],"rotation":[0.5,0.5,0.50000006,0.49999994],"scale":[1.0,0.99999994,0.99999994],"name":"LS103 & LS116 - Circum Round Post Material LS Material [8829727]"},{"mesh":14,"translation":[0.8993663,2.196615,-1.077674],"rotation":[0.5,0.5,0.50000006,0.49999994],"scale":[1.0,0.99999994,0.99999994],"name":"LS103 & LS116 - Circum Round Post Material LS Material [8829736]"},{"mesh":15,"translation":[0.0999407,1.6479752,-1.077674],"rotation":[0.5,0.5,0.50000006,0.49999994],"scale":[1.0,0.99999994,0.99999994],"name":"LS103 & LS116 - Circum Round Post Material LS Material [8829754]"},{"mesh":15,"translation":[-0.70294225,1.0993356,-1.077674],"rotation":[0.5,0.5,0.50000006,0.49999994],"scale":[1.0,0.99999994,0.99999994],"name":"LS103 & LS116 - Circum Round Post Material LS Material [8829754]001"},{"mesh":16,"translation":[-1.501454,0.5460131,-1.0776048],"rotation":[0.49999988,0.5,0.50000006,0.50000006],"scale":[1.0,0.99999994,0.99999994],"name":"LS103 & LS116 - Circum Round Post Material LS Material [8829808]"},{"mesh":17,"translation":[-2.100868,0.18031897,-1.0776049],"rotation":[0.49999988,0.5,0.50000006,0.50000006],"scale":[1.0,0.99999994,0.99999994],"name":"LS103 & LS116 - Circum Round Post Material LS Material [8829817]"},{"mesh":18,"translation":[-0.55925155,2.1173782,-0.023503717],"rotation":[0.7071068,-0.00012347523,-0.0001233516,0.7071067],"name":"Nested_Bend Bend [8719267]001"},{"mesh":18,"translation":[-0.55925155,2.1173782,-1.0776781],"rotation":[0.7071068,-0.00012347523,-0.0001233516,0.7071067],"name":"Nested_Bend Bend [8719267]004"},{"mesh":19,"translation":[1.3641479,3.438042,-0.023503717],"rotation":[0.7071068,-0.00012347523,-0.0001233516,0.7071067],"name":"Nested_Bend Bend [8719267]003"},{"mesh":19,"translation":[1.3641479,3.438042,-1.0776781],"rotation":[0.7071068,-0.00012347523,-0.0001233516,0.7071067],"name":"Nested_Bend Bend [8719267]005"},{"mesh":20,"translation":[-0.30258358,1.8674927,-0.06695002],"name":"Cylinder002"},{"mesh":20,"translation":[-0.30258358,1.8674927,-1.0337743],"name":"Cylinder004"}],"meshes":[{"primitives":[{"attributes":{"POSITION":1,"TANGENT":2,"NORMAL":3,"TEXCOORD_0":4},"indices":0,"material":0},{"attributes":{"POSITION":6,"TANGENT":7,"NORMAL":8,"TEXCOORD_0":9},"indices":5,"material":1}],"name":"CIR024 - Handrail End Cap Part [8482091]003"},{"primitives":[{"attributes":{"POSITION":11,"TANGENT":12,"NORMAL":13,"TEXCOORD_0":14},"indices":10,"material":0}],"name":"CIR061 - 1 1l2 Rail-To-Rail Connector Part [8719260]004"},{"primitives":[{"attributes":{"POSITION":16,"TANGENT":17,"NORMAL":18,"TEXCOORD_0":19},"indices":15,"material":0}],"name":"CSQ001-US - Surface Mount Weldment Part [8723797]187"},{"primitives":[{"attributes":{"POSITION":21,"TANGENT":22,"NORMAL":23,"TEXCOORD_0":24},"indices":20,"material":0}],"name":"CIR053-US - Midrail Coped Washer Part [8828822]001"},{"primitives":[{"attributes":{"POSITION":26,"TANGENT":27,"NORMAL":28,"TEXCOORD_0":29},"indices":25,"material":0},{"attributes":{"POSITION":31,"TANGENT":32,"NORMAL":33,"TEXCOORD_0":34},"indices":30,"material":1}],"name":"CIR009-US - Midrail Button Part [8829435]001"},{"primitives":[{"attributes":{"POSITION":36,"TANGENT":37,"NORMAL":38,"TEXCOORD_0":39},"indices":35,"material":0},{"attributes":{"POSITION":41,"TANGENT":42,"NORMAL":43,"TEXCOORD_0":44},"indices":40,"material":1}],"name":"CIR022 - Center Toprail Post Cap Part [8828895]001"},{"primitives":[{"attributes":{"POSITION":46,"TANGENT":47,"NORMAL":48,"TEXCOORD_0":49},"indices":45,"material":0}],"name":"LS103 & LS116 - Circum Round Post Material LS Material [8828878]"},{"primitives":[{"attributes":{"POSITION":51,"TANGENT":52,"NORMAL":53,"TEXCOORD_0":54},"indices":50,"material":0}],"name":"Bent Stem_013"},{"primitives":[{"attributes":{"POSITION":56,"TANGENT":57,"NORMAL":58,"TEXCOORD_0":59},"indices":55,"material":0}],"name":"CIR057 - 1 1l2 Rail Saddle Part [8723174]057"},{"primitives":[{"attributes":{"POSITION":61,"TANGENT":62,"NORMAL":63,"TEXCOORD_0":64},"indices":60,"material":0}],"name":"LS103 & LS116 - Circum Round Post Material LS Material [8828887]"},{"primitives":[{"attributes":{"POSITION":66,"TANGENT":67,"NORMAL":68,"TEXCOORD_0":69},"indices":65,"material":0}],"name":"LS103 & LS116 - Circum Round Post Material LS Material [8828896]"},{"primitives":[{"attributes":{"POSITION":71,"TANGENT":72,"NORMAL":73,"TEXCOORD_0":74},"indices":70,"material":0}],"name":"LS103 & LS116 - Circum Round Post Material LS Material [8828905]"},{"primitives":[{"attributes":{"POSITION":76,"TANGENT":77,"NORMAL":78,"TEXCOORD_0":79},"indices":75,"material":0}],"name":"LS103 & LS116 - Circum Round Post Material LS Material [8829086]"},{"primitives":[{"attributes":{"POSITION":81,"TANGENT":82,"NORMAL":83,"TEXCOORD_0":84},"indices":80,"material":0}],"name":"LS103 & LS116 - Circum Round Post Material LS Material [8829727]"},{"primitives":[{"attributes":{"POSITION":86,"TANGENT":87,"NORMAL":88,"TEXCOORD_0":89},"indices":85,"material":0}],"name":"LS103 & LS116 - Circum Round Post Material LS Material [8829736]"},{"primitives":[{"attributes":{"POSITION":91,"TANGENT":92,"NORMAL":93,"TEXCOORD_0":94},"indices":90,"material":0}],"name":"LS103 & LS116 - Circum Round Post Material LS Material [8829754]"},{"primitives":[{"attributes":{"POSITION":96,"TANGENT":97,"NORMAL":98,"TEXCOORD_0":99},"indices":95,"material":0}],"name":"LS103 & LS116 - Circum Round Post Material LS Material [8829808]"},{"primitives":[{"attributes":{"POSITION":101,"TANGENT":102,"NORMAL":103,"TEXCOORD_0":104},"indices":100,"material":0}],"name":"LS103 & LS116 - Circum Round Post Material LS Material [8829817]"},{"primitives":[{"attributes":{"POSITION":106,"TANGENT":107,"NORMAL":108,"TEXCOORD_0":109},"indices":105,"material":0}],"name":"Nested_Bend Bend [8719267]001"},{"primitives":[{"attributes":{"POSITION":111,"TANGENT":112,"NORMAL":113,"TEXCOORD_0":114},"indices":110,"material":0}],"name":"Nested_Bend Bend [8719267]003"},{"primitives":[{"attributes":{"POSITION":116,"TANGENT":117,"NORMAL":118,"TEXCOORD_0":119},"indices":115,"material":0}],"name":"Cylinder002"}],"accessors":[{"bufferView":0,"componentType":5123,"count":192,"type":"SCALAR","name":"accessorIndices"},{"bufferView":1,"componentType":5126,"count":66,"max":[-0.00029542364,0.01905,0.01905],"min":[-0.002286,-0.01905,-0.01905],"type":"VEC3","name":"accessorPositions"},{"bufferView":2,"componentType":5126,"count":66,"type":"VEC4","name":"accessorTangents"},{"bufferView":1,"byteOffset":792,"componentType":5126,"count":66,"type":"VEC3","name":"accessorNormals"},{"bufferView":3,"componentType":5126,"count":66,"type":"VEC2","name":"accessorUVs"},{"bufferView":0,"byteOffset":384,"componentType":5123,"count":762,"type":"SCALAR","name":"accessorIndices"},{"bufferView":1,"byteOffset":1584,"componentType":5126,"count":161,"max":[-0.00029542364,0.01905,0.01905],"min":[-0.0068578967,-0.01905,-0.01905],"type":"VEC3","name":"accessorPositions"},{"bufferView":2,"byteOffset":1056,"componentType":5126,"count":161,"type":"VEC4","name":"accessorTangents"},{"bufferView":1,"byteOffset":3516,"componentType":5126,"count":161,"type":"VEC3","name":"accessorNormals"},{"bufferView":3,"byteOffset":528,"componentType":5126,"count":161,"type":"VEC2","name":"accessorUVs"},{"bufferView":0,"byteOffset":1908,"componentType":5123,"count":360,"type":"SCALAR","name":"accessorIndices"},{"bufferView":1,"byteOffset":5448,"componentType":5126,"count":128,"max":[0.01905,0.003175006,0.01905],"min":[-0.01905,-0.0031749941,-0.01905],"type":"VEC3","name":"accessorPositions"},{"bufferView":2,"byteOffset":3632,"componentType":5126,"count":128,"type":"VEC4","name":"accessorTangents"},{"bufferView":1,"byteOffset":6984,"componentType":5126,"count":128,"type":"VEC3","name":"accessorNormals"},{"bufferView":3,"byteOffset":1816,"componentType":5126,"count":128,"type":"VEC2","name":"accessorUVs"},{"bufferView":0,"byteOffset":2628,"componentType":5123,"count":570,"type":"SCALAR","name":"accessorIndices"},{"bufferView":1,"byteOffset":8520,"componentType":5126,"count":189,"max":[0.053975,0.025400002,0.053975],"min":[-0.053975,-3.0953716E-15,-0.053975],"type":"VEC3","name":"accessorPositions"},{"bufferView":2,"byteOffset":5680,"componentType":5126,"count":189,"type":"VEC4","name":"accessorTangents"},{"bufferView":1,"byteOffset":10788,"componentType":5126,"count":189,"type":"VEC3","name":"accessorNormals"},{"bufferView":3,"byteOffset":2840,"componentType":5126,"count":189,"type":"VEC2","name":"accessorUVs"},{"bufferView":0,"byteOffset":3768,"componentType":5123,"count":852,"type":"SCALAR","name":"accessorIndices"},{"bufferView":1,"byteOffset":13056,"componentType":5126,"count":290,"max":[-0.006524872,0.009525,0.009525],"min":[-0.027305,-0.009525,-0.009525004],"type":"VEC3","name":"accessorPositions"},{"bufferView":2,"byteOffset":8704,"componentType":5126,"count":290,"type":"VEC4","name":"accessorTangents"},{"bufferView":1,"byteOffset":16536,"componentType":5126,"count":290,"type":"VEC3","name":"accessorNormals"},{"bufferView":3,"byteOffset":4352,"componentType":5126,"count":290,"type":"VEC2","name":"accessorUVs"},{"bufferView":0,"byteOffset":5472,"componentType":5123,"count":1074,"type":"SCALAR","name":"accessorIndices"},{"bufferView":1,"byteOffset":20016,"componentType":5126,"count":364,"max":[0.0247904,0.009525,0.009525],"min":[-6.2603256E-15,-0.009525,-0.009525],"type":"VEC3","name":"accessorPositions"},{"bufferView":2,"byteOffset":13344,"componentType":5126,"count":364,"type":"VEC4","name":"accessorTangents"},{"bufferView":1,"byteOffset":24384,"componentType":5126,"count":364,"type":"VEC3","name":"accessorNormals"},{"bufferView":3,"byteOffset":6672,"componentType":5126,"count":364,"type":"VEC2","name":"accessorUVs"},{"bufferView":0,"byteOffset":7620,"componentType":5123,"count":210,"type":"SCALAR","name":"accessorIndices"},{"bufferView":1,"byteOffset":28752,"componentType":5126,"count":72,"max":[0.0247904,0.009024523,0.009024523],"min":[0.0247904,-0.009024523,-0.009024523],"type":"VEC3","name":"accessorPositions"},{"bufferView":2,"byteOffset":19168,"componentType":5126,"count":72,"type":"VEC4","name":"accessorTangents"},{"bufferView":1,"byteOffset":29616,"componentType":5126,"count":72,"type":"VEC3","name":"accessorNormals"},{"bufferView":3,"byteOffset":9584,"componentType":5126,"count":72,"type":"VEC2","name":"accessorUVs"},{"bufferView":0,"byteOffset":8040,"componentType":5123,"count":714,"type":"SCALAR","name":"accessorIndices"},{"bufferView":1,"byteOffset":30480,"componentType":5126,"count":242,"max":[0.02413,0.0027432,0.02413],"min":[-0.02413,-2.1429601E-15,-0.02413],"type":"VEC3","name":"accessorPositions"},{"bufferView":2,"byteOffset":20320,"componentType":5126,"count":242,"type":"VEC4","name":"accessorTangents"},{"bufferView":1,"byteOffset":33384,"componentType":5126,"count":242,"type":"VEC3","name":"accessorNormals"},{"bufferView":3,"byteOffset":10160,"componentType":5126,"count":242,"type":"VEC2","name":"accessorUVs"},{"bufferView":0,"byteOffset":9468,"componentType":5123,"count":1728,"type":"SCALAR","name":"accessorIndices"},{"bufferView":1,"byteOffset":36288,"componentType":5126,"count":329,"max":[0.02413,0.0082042,0.02413],"min":[-0.02413,0.0027432,-0.02413],"type":"VEC3","name":"accessorPositions"},{"bufferView":2,"byteOffset":24192,"componentType":5126,"count":329,"type":"VEC4","name":"accessorTangents"},{"bufferView":1,"byteOffset":40236,"componentType":5126,"count":329,"type":"VEC3","name":"accessorNormals"},{"bufferView":3,"byteOffset":12096,"componentType":5126,"count":329,"type":"VEC2","name":"accessorUVs"},{"bufferView":0,"byteOffset":12924,"componentType":5123,"count":14028,"type":"SCALAR","name":"accessorIndices"},{"bufferView":1,"byteOffset":44184,"componentType":5126,"count":2525,"max":[0.89537746,0.02413,0.02413],"min":[6.2264863E-15,-0.02413,-0.02413],"type":"VEC3","name":"accessorPositions"},{"bufferView":2,"byteOffset":29456,"componentType":5126,"count":2525,"type":"VEC4","name":"accessorTangents"},{"bufferView":1,"byteOffset":74484,"componentType":5126,"count":2525,"type":"VEC3","name":"accessorNormals"},{"bufferView":3,"byteOffset":14728,"componentType":5126,"count":2525,"type":"VEC2","name":"accessorUVs"},{"bufferView":0,"byteOffset":40980,"componentType":5123,"count":2046,"type":"SCALAR","name":"accessorIndices"},{"bufferView":1,"byteOffset":104784,"componentType":5126,"count":480,"max":[0.006350001,0.053701945,0.0063499734],"min":[-0.006350001,-5.904436E-08,-0.02141023],"type":"VEC3","name":"accessorPositions"},{"bufferView":2,"byteOffset":69856,"componentType":5126,"count":480,"type":"VEC4","name":"accessorTangents"},{"bufferView":1,"byteOffset":110544,"componentType":5126,"count":480,"type":"VEC3","name":"accessorNormals"},{"bufferView":3,"byteOffset":34928,"componentType":5126,"count":480,"type":"VEC2","name":"accessorUVs"},{"bufferView":0,"byteOffset":45072,"componentType":5123,"count":348,"type":"SCALAR","name":"accessorIndices"},{"bufferView":1,"byteOffset":116304,"componentType":5126,"count":128,"max":[0.042062398,0.0120777,0.03175],"min":[0.033772144,-0.012090401,-0.03175],"type":"VEC3","name":"accessorPositions"},{"bufferView":2,"byteOffset":77536,"componentType":5126,"count":128,"type":"VEC4","name":"accessorTangents"},{"bufferView":1,"byteOffset":117840,"componentType":5126,"count":128,"type":"VEC3","name":"accessorNormals"},{"bufferView":3,"byteOffset":38768,"componentType":5126,"count":128,"type":"VEC2","name":"accessorUVs"},{"bufferView":0,"byteOffset":45768,"componentType":5123,"count":13752,"type":"SCALAR","name":"accessorIndices"},{"bufferView":1,"byteOffset":119376,"componentType":5126,"count":2479,"max":[0.85168946,0.02413,0.02413],"min":[6.1926464E-15,-0.02413,-0.02413],"type":"VEC3","name":"accessorPositions"},{"bufferView":2,"byteOffset":79584,"componentType":5126,"count":2479,"type":"VEC4","name":"accessorTangents"},{"bufferView":1,"byteOffset":149124,"componentType":5126,"count":2479,"type":"VEC3","name":"accessorNormals"},{"bufferView":3,"byteOffset":39792,"componentType":5126,"count":2479,"type":"VEC2","name":"accessorUVs"},{"bufferView":0,"byteOffset":73272,"componentType":5123,"count":14982,"type":"SCALAR","name":"accessorIndices"},{"bufferView":1,"byteOffset":178872,"componentType":5126,"count":2692,"max":[0.93886226,0.02413,0.02413],"min":[6.1926464E-15,-0.02413,-0.02413],"type":"VEC3","name":"accessorPositions"},{"bufferView":2,"byteOffset":119248,"componentType":5126,"count":2692,"type":"VEC4","name":"accessorTangents"},{"bufferView":1,"byteOffset":211176,"componentType":5126,"count":2692,"type":"VEC3","name":"accessorNormals"},{"bufferView":3,"byteOffset":59624,"componentType":5126,"count":2692,"type":"VEC2","name":"accessorUVs"},{"bufferView":0,"byteOffset":103236,"componentType":5123,"count":14028,"type":"SCALAR","name":"accessorIndices"},{"bufferView":1,"byteOffset":243480,"componentType":5126,"count":2525,"max":[0.89537746,0.02413,0.02413],"min":[6.2264863E-15,-0.02413,-0.02413],"type":"VEC3","name":"accessorPositions"},{"bufferView":2,"byteOffset":162320,"componentType":5126,"count":2525,"type":"VEC4","name":"accessorTangents"},{"bufferView":1,"byteOffset":273780,"componentType":5126,"count":2525,"type":"VEC3","name":"accessorNormals"},{"bufferView":3,"byteOffset":81160,"componentType":5126,"count":2525,"type":"VEC2","name":"accessorUVs"},{"bufferView":0,"byteOffset":131292,"componentType":5123,"count":14028,"type":"SCALAR","name":"accessorIndices"},{"bufferView":1,"byteOffset":304080,"componentType":5126,"count":2525,"max":[0.89537746,0.02413,0.02413],"min":[6.2264863E-15,-0.02413,-0.02413],"type":"VEC3","name":"accessorPositions"},{"bufferView":2,"byteOffset":202720,"componentType":5126,"count":2525,"type":"VEC4","name":"accessorTangents"},{"bufferView":1,"byteOffset":334380,"componentType":5126,"count":2525,"type":"VEC3","name":"accessorNormals"},{"bufferView":3,"byteOffset":101360,"componentType":5126,"count":2525,"type":"VEC2","name":"accessorUVs"},{"bufferView":0,"byteOffset":159348,"componentType":5123,"count":14982,"type":"SCALAR","name":"accessorIndices"},{"bufferView":1,"byteOffset":364680,"componentType":5126,"count":2692,"max":[0.93886226,0.02413,0.02413],"min":[6.2603256E-15,-0.02413,-0.02413],"type":"VEC3","name":"accessorPositions"},{"bufferView":2,"byteOffset":243120,"componentType":5126,"count":2692,"type":"VEC4","name":"accessorTangents"},{"bufferView":1,"byteOffset":396984,"componentType":5126,"count":2692,"type":"VEC3","name":"accessorNormals"},{"bufferView":3,"byteOffset":121560,"componentType":5126,"count":2692,"type":"VEC2","name":"accessorUVs"},{"bufferView":0,"byteOffset":189312,"componentType":5123,"count":14028,"type":"SCALAR","name":"accessorIndices"},{"bufferView":1,"byteOffset":429288,"componentType":5126,"count":2525,"max":[0.89537746,0.02413,0.02413],"min":[6.2603256E-15,-0.02413,-0.02413],"type":"VEC3","name":"accessorPositions"},{"bufferView":2,"byteOffset":286192,"componentType":5126,"count":2525,"type":"VEC4","name":"accessorTangents"},{"bufferView":1,"byteOffset":459588,"componentType":5126,"count":2525,"type":"VEC3","name":"accessorNormals"},{"bufferView":3,"byteOffset":143096,"componentType":5126,"count":2525,"type":"VEC2","name":"accessorUVs"},{"bufferView":0,"byteOffset":217368,"componentType":5123,"count":14028,"type":"SCALAR","name":"accessorIndices"},{"bufferView":1,"byteOffset":489888,"componentType":5126,"count":2525,"max":[0.89537746,0.02413,0.02413],"min":[6.2603256E-15,-0.02413,-0.02413],"type":"VEC3","name":"accessorPositions"},{"bufferView":2,"byteOffset":326592,"componentType":5126,"count":2525,"type":"VEC4","name":"accessorTangents"},{"bufferView":1,"byteOffset":520188,"componentType":5126,"count":2525,"type":"VEC3","name":"accessorNormals"},{"bufferView":3,"byteOffset":163296,"componentType":5126,"count":2525,"type":"VEC2","name":"accessorUVs"},{"bufferView":0,"byteOffset":245424,"componentType":5123,"count":14028,"type":"SCALAR","name":"accessorIndices"},{"bufferView":1,"byteOffset":550488,"componentType":5126,"count":2525,"max":[0.89537746,0.02413,0.02413],"min":[6.2603256E-15,-0.02413,-0.02413],"type":"VEC3","name":"accessorPositions"},{"bufferView":2,"byteOffset":366992,"componentType":5126,"count":2525,"type":"VEC4","name":"accessorTangents"},{"bufferView":1,"byteOffset":580788,"componentType":5126,"count":2525,"type":"VEC3","name":"accessorNormals"},{"bufferView":3,"byteOffset":183496,"componentType":5126,"count":2525,"type":"VEC2","name":"accessorUVs"},{"bufferView":0,"byteOffset":273480,"componentType":5123,"count":13752,"type":"SCALAR","name":"accessorIndices"},{"bufferView":1,"byteOffset":611088,"componentType":5126,"count":2479,"max":[0.85168946,0.02413,0.02413],"min":[6.2603256E-15,-0.02413,-0.02413],"type":"VEC3","name":"accessorPositions"},{"bufferView":2,"byteOffset":407392,"componentType":5126,"count":2479,"type":"VEC4","name":"accessorTangents"},{"bufferView":1,"byteOffset":640836,"componentType":5126,"count":2479,"type":"VEC3","name":"accessorNormals"},{"bufferView":3,"byteOffset":203696,"componentType":5126,"count":2479,"type":"VEC2","name":"accessorUVs"},{"bufferView":0,"byteOffset":300984,"componentType":5123,"count":564,"type":"SCALAR","name":"accessorIndices"},{"bufferView":1,"byteOffset":670584,"componentType":5126,"count":194,"max":[0.31800973,0.018887788,1.0520042],"min":[-1.6200956,-0.018887721,-0.29603794],"type":"VEC3","name":"accessorPositions"},{"bufferView":2,"byteOffset":447056,"componentType":5126,"count":194,"type":"VEC4","name":"accessorTangents"},{"bufferView":1,"byteOffset":672912,"componentType":5126,"count":194,"type":"VEC3","name":"accessorNormals"},{"bufferView":3,"byteOffset":223528,"componentType":5126,"count":194,"type":"VEC2","name":"accessorUVs"},{"bufferView":0,"byteOffset":302112,"componentType":5123,"count":564,"type":"SCALAR","name":"accessorIndices"},{"bufferView":1,"byteOffset":675240,"componentType":5126,"count":194,"max":[0.20611998,0.018887788,1.0520835],"min":[-1.620211,-0.018887717,-0.21916696],"type":"VEC3","name":"accessorPositions"},{"bufferView":2,"byteOffset":450160,"componentType":5126,"count":194,"type":"VEC4","name":"accessorTangents"},{"bufferView":1,"byteOffset":677568,"componentType":5126,"count":194,"type":"VEC3","name":"accessorNormals"},{"bufferView":3,"byteOffset":225080,"componentType":5126,"count":194,"type":"VEC2","name":"accessorUVs"},{"bufferView":0,"byteOffset":303240,"componentType":5123,"count":5664,"type":"SCALAR","name":"accessorIndices"},{"bufferView":1,"byteOffset":679896,"componentType":5126,"count":1328,"max":[1.8142602,1.6099681,0.00483075],"min":[-1.8142598,-1.6099675,-0.00483075],"type":"VEC3","name":"accessorPositions"},{"bufferView":2,"byteOffset":453264,"componentType":5126,"count":1328,"type":"VEC4","name":"accessorTangents"},{"bufferView":1,"byteOffset":695832,"componentType":5126,"count":1328,"type":"VEC3","name":"accessorNormals"},{"bufferView":3,"byteOffset":226632,"componentType":5126,"count":1328,"type":"VEC2","name":"accessorUVs"}],"bufferViews":[{"buffer":0,"byteLength":314568,"name":"bufferViewScalar"},{"buffer":0,"byteOffset":314568,"byteLength":711768,"byteStride":12,"name":"bufferViewFloatVec3"},{"buffer":0,"byteOffset":1026336,"byteLength":474512,"byteStride":16,"name":"bufferViewFloatVec4"},{"buffer":0,"byteOffset":1500848,"byteLength":237256,"byteStride":8,"name":"bufferViewFloatVec2"}],"buffers":[{"uri":"Straight_Railing_Circum-Round_Midrail.bin","byteLength":1738104}],"materials":[{"pbrMetallicRoughness":{"baseColorFactor":[0.9999998,0.9999999,0.9999999,1.0],"baseColorTexture":{"index":0,"extensions":{"KHR_texture_transform":{"offset":[0.19519997,0.8048],"rotation":1.5707964,"scale":[0.6096,0.6096],"texCoord":0}}},"roughnessFactor":0.2,"metallicRoughnessTexture":{"index":0,"extensions":{"KHR_texture_transform":{"offset":[0.19519997,0.8048],"rotation":1.5707964,"scale":[0.6096,0.6096],"texCoord":0}}}},"name":"Steel_Linear"},{"pbrMetallicRoughness":{"baseColorFactor":[0.9999998,0.9999999,0.9999999,1.0],"baseColorTexture":{"index":1},"roughnessFactor":0.2,"metallicRoughnessTexture":{"index":1}},"name":"Steel_Radial"}],"textures":[{"sampler":0,"source":0,"name":"Metal_Brushed_Linear_4k.jpg"},{"sampler":0,"source":1,"name":"Metal_Brushed_Radial_4k.jpg"}],"images":[{"uri":"textures/Metal_Brushed_Linear_4k.jpg"},{"uri":"textures/Metal_Brushed_Radial_4k.jpg"}],"samplers":[{"magFilter":9729,"minFilter":9987}]}