{"asset":{"version":"2.0","generator":"babylon.js glTF exporter for 3dsmax 2026 v20251111.2"},"extensionsUsed":["KHR_materials_ior","KHR_materials_transmission","KHR_materials_volume","KHR_texture_transform","KHR_materials_specular"],"extensionsRequired":["KHR_texture_transform"],"scene":0,"scenes":[{"nodes":[0,1,2,3,4,5,6,7,8,9,10,11,12,13,14,15,16,17,18,19,20,21,22,23,24,25,26,27,28,29,30,31,32,33,34,35,36,37,38,39,40,41,42,43,44,45,46,47,48,49,50,51,52,53,54,55,56,57,58,59,60,61,62,63,64,65,66,67,68,69,70,71,72,73,74,75,76,77,78,79,80,81,82,83,84,85,86,87,88,89,90,91,92,93,94,95,96,97,98,99,100,101,102,103,104,105,106,107,108,109,110,111,112,113,114,115,116,117,118,119,120,121,122,123,124,125,126,127,128,129,130,131,132,133,134,135,136,137,138,139,140,141,142,143,144,145,146,147,148,149,150,151,152,153,154,155,156,157,158,159,160,161,162,163,164,165,166,167,168,169,170,171,172,173,174,175,176,177,178,179,180,181,182,183,184,185,186,187,188,189,190,191,192,193,194,195,196,197,198,199,200,201,202,203,204,205,206,207,208,209,210,211,212,213,214,215,216,217,218,219,220,221,222,223,224,225,226,227,228,229,230,231,232,233,234,235,236,237,238,239,240,241,242,243,244,245,246,247,248,249,250,251,252,253,254,255,256,257,258,259,260,261,262]}],"nodes":[{"mesh":0,"translation":[0.8829833,2.8968084,-0.076767445],"name":"Infill_Glass_Raked & Horizontal Generic [8199751]"},{"mesh":1,"translation":[0.6395117,2.209226,0.4102712],"name":"Infill_Glass_Transition Generic [8202170]"},{"mesh":2,"translation":[0.63959336,2.3637831,0.8204894],"name":"Generic Models 1 Generic Models 1 [8568048]"},{"mesh":3,"translation":[-0.30818832,2.3637452,0.8378442],"name":"Generic Models 10 Generic Models 1 [8735975]"},{"mesh":4,"translation":[0.067898184,2.601503,-1.0244794],"rotation":[-0.0,3.133859E-15,0.0,1.0],"name":"Infill_Glass_Raked & Horizontal Generic [8737682]"},{"mesh":5,"translation":[1.022491,2.8665884,-1.0244794],"name":"Casework 1 Casework 1 [8738332]"},{"mesh":6,"translation":[-0.30819747,2.601503,-0.64838374],"rotation":[-0.0,-0.7071068,0.0,0.7071067],"name":"Infill_Glass_Raked & Horizontal Generic [8738822]"},{"mesh":7,"translation":[-0.30820024,2.2095554,0.44231918],"rotation":[-0.0,0.7071068,0.0,0.7071068],"name":"Infill_Glass_Raked & Horizontal Generic [8739593]"},{"mesh":8,"translation":[0.6927061,2.0985222,0.17503546],"rotation":[-0.0,-1.0,0.0,-1.6292068E-07],"name":"KUB009 - Top Barrel Mount Part [8739165]050"},{"mesh":8,"translation":[0.8471337,2.4642315,-0.023573017],"rotation":[-0.0,0.7071068,0.0,0.7071067],"name":"KUB009 - Top Barrel Mount Part [8739165]051"},{"mesh":8,"translation":[1.4286327,2.8299918,-0.023573017],"rotation":[-0.0,0.7071068,0.0,0.7071067],"name":"KUB009 - Top Barrel Mount Part [8739165]054"},{"mesh":8,"translation":[0.6927061,1.5498822,0.97354954],"rotation":[-0.0,-1.0,0.0,-1.6292068E-07],"name":"KUB009 - Top Barrel Mount Part [8739165]057"},{"mesh":8,"translation":[-0.36139467,2.0985222,0.17503546],"name":"KUB009 - Top Barrel Mount Part [8739165]059"},{"mesh":8,"translation":[-0.36139467,1.5498822,0.97354954],"name":"KUB009 - Top Barrel Mount Part [8739165]061"},{"mesh":8,"translation":[1.4286327,2.8299918,-1.0776738],"rotation":[-0.0,-0.7071068,0.0,0.7071067],"name":"KUB009 - Top Barrel Mount Part [8739165]065"},{"mesh":8,"translation":[0.61646473,2.2813516,-1.0776738],"rotation":[-0.0,-0.7071068,0.0,0.7071067],"name":"KUB009 - Top Barrel Mount Part [8739165]066"},{"mesh":8,"translation":[0.3497647,2.1990047,-1.0776738],"rotation":[-0.0,-0.7071068,0.0,0.7071067],"name":"KUB009 - Top Barrel Mount Part [8739165]067"},{"mesh":8,"translation":[-0.165069,2.1990047,-1.0776738],"rotation":[-0.0,-0.7071068,0.0,0.7071067],"name":"KUB009 - Top Barrel Mount Part [8739165]068"},{"mesh":8,"translation":[-0.3613919,2.1990047,-0.8813486],"name":"KUB009 - Top Barrel Mount Part [8739165]069"},{"mesh":8,"translation":[-0.3613919,2.1990047,-0.074374564],"name":"KUB009 - Top Barrel Mount Part [8739165]071"},{"mesh":8,"translation":[0.6927061,2.6573222,0.17503546],"rotation":[-0.0,-1.0,0.0,-1.6292068E-07],"name":"KUB009 - Top Barrel Mount Part [8739165]074"},{"mesh":8,"translation":[0.8471337,3.0230312,-0.023573017],"rotation":[-0.0,0.7071068,0.0,0.7071067],"name":"KUB009 - Top Barrel Mount Part [8739165]075"},{"mesh":8,"translation":[1.4286327,3.3887918,-0.023573017],"rotation":[-0.0,0.7071068,0.0,0.7071067],"name":"KUB009 - Top Barrel Mount Part [8739165]078"},{"mesh":8,"translation":[0.6927061,2.1086822,0.97354954],"rotation":[-0.0,-1.0,0.0,-1.6292068E-07],"name":"KUB009 - Top Barrel Mount Part [8739165]081"},{"mesh":8,"translation":[-0.36139467,2.6573222,0.17503546],"name":"KUB009 - Top Barrel Mount Part [8739165]083"},{"mesh":8,"translation":[-0.36139467,2.1086822,0.97354954],"name":"KUB009 - Top Barrel Mount Part [8739165]085"},{"mesh":8,"translation":[1.4286327,3.3887918,-1.0776738],"rotation":[-0.0,-0.7071068,0.0,0.7071067],"name":"KUB009 - Top Barrel Mount Part [8739165]089"},{"mesh":8,"translation":[0.61646473,2.8401513,-1.0776738],"rotation":[-0.0,-0.7071068,0.0,0.7071067],"name":"KUB009 - Top Barrel Mount Part [8739165]090"},{"mesh":8,"translation":[0.3497647,2.7578046,-1.0776738],"rotation":[-0.0,-0.7071068,0.0,0.7071067],"name":"KUB009 - Top Barrel Mount Part [8739165]091"},{"mesh":8,"translation":[-0.165069,2.7578046,-1.0776738],"rotation":[-0.0,-0.7071068,0.0,0.7071067],"name":"KUB009 - Top Barrel Mount Part [8739165]092"},{"mesh":8,"translation":[-0.3613919,2.7578046,-0.8813486],"name":"KUB009 - Top Barrel Mount Part [8739165]093"},{"mesh":8,"translation":[-0.3613919,2.7578046,-0.074374564],"name":"KUB009 - Top Barrel Mount Part [8739165]095"},{"mesh":9,"translation":[0.6927061,1.8287996,0.17503546],"name":"CSQ001-US - Surface Mount Weldment Part [8723797]290"},{"mesh":9,"translation":[0.8471337,2.1945596,-0.023573017],"rotation":[-0.0,-0.7071068,0.0,0.7071067],"name":"CSQ001-US - Surface Mount Weldment Part [8723797]291"},{"mesh":9,"translation":[1.4286327,2.56032,-0.023573017],"rotation":[-0.0,-0.7071068,0.0,0.7071067],"name":"CSQ001-US - Surface Mount Weldment Part [8723797]292"},{"mesh":9,"translation":[0.6927061,1.2801597,0.97354954],"name":"CSQ001-US - Surface Mount Weldment Part [8723797]293"},{"mesh":9,"translation":[-0.36139467,1.8287996,0.17503546],"rotation":[-0.0,-1.0,0.0,-1.6292068E-07],"name":"CSQ001-US - Surface Mount Weldment Part [8723797]294"},{"mesh":9,"translation":[-0.36139467,1.2801597,0.97354954],"rotation":[-0.0,-1.0,0.0,-1.6292068E-07],"name":"CSQ001-US - Surface Mount Weldment Part [8723797]295"},{"mesh":9,"translation":[1.4286327,2.56032,-1.0776738],"rotation":[-0.0,0.7071068,0.0,0.7071067],"name":"CSQ001-US - Surface Mount Weldment Part [8723797]296"},{"mesh":9,"translation":[0.61646473,2.0116796,-1.0776738],"rotation":[-0.0,0.7071068,0.0,0.7071067],"name":"CSQ001-US - Surface Mount Weldment Part [8723797]297"},{"mesh":9,"translation":[0.3497647,2.0116796,-1.0776738],"rotation":[-0.0,0.7071068,0.0,0.7071067],"name":"CSQ001-US - Surface Mount Weldment Part [8723797]298"},{"mesh":9,"translation":[-0.165069,2.0116796,-1.0776738],"rotation":[-0.0,0.7071068,0.0,0.7071067],"name":"CSQ001-US - Surface Mount Weldment Part [8723797]299"},{"mesh":9,"translation":[-0.3613919,2.0116796,-0.8813486],"rotation":[-0.0,-1.0,0.0,-4.371139E-08],"name":"CSQ001-US - Surface Mount Weldment Part [8723797]300"},{"mesh":9,"translation":[-0.3613919,2.0116796,-0.074374564],"rotation":[-0.0,-1.0,0.0,-4.371139E-08],"name":"CSQ001-US - Surface Mount Weldment Part [8723797]301"},{"mesh":9,"translation":[0.89138776,0.54883045,1.7102666],"rotation":[-0.0,0.7071068,0.0,0.7071067],"name":"CSQ001-US - Surface Mount Weldment Part [8723797]303"},{"mesh":9,"translation":[0.69277954,0.91459054,1.5558388],"rotation":[-0.0,-5.9604645E-08,0.0,1.0],"name":"CSQ001-US - Surface Mount Weldment Part [8723797]304"},{"mesh":9,"translation":[0.69277954,1.4632306,0.70786494],"rotation":[-0.0,-5.9604645E-08,0.0,1.0],"name":"CSQ001-US - Surface Mount Weldment Part [8723797]305"},{"mesh":9,"translation":[0.89138776,0.54883045,2.7643673],"rotation":[-0.0,-0.7071069,0.0,0.70710665],"name":"CSQ001-US - Surface Mount Weldment Part [8723797]306"},{"mesh":9,"translation":[-0.36132112,1.4632306,0.70786494],"rotation":[-0.0,-1.0,0.0,4.371139E-08],"name":"CSQ001-US - Surface Mount Weldment Part [8723797]307"},{"mesh":9,"translation":[-0.36132112,0.73171043,1.7865084],"rotation":[-0.0,-1.0,0.0,4.371139E-08],"name":"CSQ001-US - Surface Mount Weldment Part [8723797]308"},{"mesh":9,"translation":[-0.36132112,0.73171043,2.0532084],"rotation":[-0.0,-1.0,0.0,4.371139E-08],"name":"CSQ001-US - Surface Mount Weldment Part [8723797]309"},{"mesh":9,"translation":[-0.36132112,0.73171043,2.568042],"rotation":[-0.0,-1.0,0.0,4.371139E-08],"name":"CSQ001-US - Surface Mount Weldment Part [8723797]310"},{"mesh":9,"translation":[-0.1649959,0.73171043,2.764365],"rotation":[-0.0,-0.7071068,0.0,0.7071067],"name":"CSQ001-US - Surface Mount Weldment Part [8723797]311"},{"mesh":9,"translation":[0.64197797,0.73171043,2.764365],"rotation":[-0.0,-0.7071068,0.0,0.7071067],"name":"CSQ001-US - Surface Mount Weldment Part [8723797]312"},{"mesh":9,"translation":[1.4237274,0.18307047,1.7102666],"rotation":[-0.0,0.7071068,0.0,0.7071067],"name":"CSQ001-US - Surface Mount Weldment Part [8723797]314"},{"mesh":9,"translation":[1.4237275,0.18307047,2.7643673],"rotation":[-0.0,-0.7071069,0.0,0.70710665],"name":"CSQ001-US - Surface Mount Weldment Part [8723797]315"},{"mesh":10,"translation":[0.6307797,2.6573222,0.17503546],"rotation":[-0.0,-1.0,0.0,-1.6292068E-07],"name":"KON006 - Lower Panel Clamp Part [8739162]150"},{"mesh":10,"translation":[0.6307797,2.0985222,0.17503546],"rotation":[-0.0,-1.0,0.0,-1.6292068E-07],"name":"KON006 - Lower Panel Clamp Part [8739162]151"},{"mesh":10,"translation":[0.8471337,3.0230312,-0.08549947],"rotation":[-0.0,0.7071068,0.0,0.7071067],"name":"KON006 - Lower Panel Clamp Part [8739162]152"},{"mesh":10,"translation":[0.8471337,2.4642315,-0.08549947],"rotation":[-0.0,0.7071068,0.0,0.7071067],"name":"KON006 - Lower Panel Clamp Part [8739162]153"},{"mesh":10,"translation":[1.4286327,3.3887918,-0.08549947],"rotation":[-0.0,0.7071068,0.0,0.7071067],"name":"KON006 - Lower Panel Clamp Part [8739162]158"},{"mesh":10,"translation":[1.4286327,2.8299918,-0.08549947],"rotation":[-0.0,0.7071068,0.0,0.7071067],"name":"KON006 - Lower Panel Clamp Part [8739162]159"},{"mesh":10,"translation":[0.6307797,2.1086822,0.97354954],"rotation":[-0.0,-1.0,0.0,-1.6292068E-07],"name":"KON006 - Lower Panel Clamp Part [8739162]164"},{"mesh":10,"translation":[0.6307797,1.5498822,0.97354954],"rotation":[-0.0,-1.0,0.0,-1.6292068E-07],"name":"KON006 - Lower Panel Clamp Part [8739162]165"},{"mesh":10,"translation":[-0.29946822,2.6573222,0.17503546],"name":"KON006 - Lower Panel Clamp Part [8739162]168"},{"mesh":10,"translation":[-0.29946822,2.0985222,0.17503546],"name":"KON006 - Lower Panel Clamp Part [8739162]169"},{"mesh":10,"translation":[-0.29946822,2.1086822,0.97354954],"name":"KON006 - Lower Panel Clamp Part [8739162]172"},{"mesh":10,"translation":[-0.29946822,1.5498822,0.97354954],"name":"KON006 - Lower Panel Clamp Part [8739162]173"},{"mesh":10,"translation":[1.4286327,3.3887918,-1.0157473],"rotation":[-0.0,-0.7071068,0.0,0.7071067],"name":"KON006 - Lower Panel Clamp Part [8739162]180"},{"mesh":10,"translation":[1.4286327,2.8299918,-1.0157473],"rotation":[-0.0,-0.7071068,0.0,0.7071067],"name":"KON006 - Lower Panel Clamp Part [8739162]181"},{"mesh":10,"translation":[0.61646473,2.8401513,-1.0157473],"rotation":[-0.0,-0.7071068,0.0,0.7071067],"name":"KON006 - Lower Panel Clamp Part [8739162]182"},{"mesh":10,"translation":[0.61646473,2.2813516,-1.0157473],"rotation":[-0.0,-0.7071068,0.0,0.7071067],"name":"KON006 - Lower Panel Clamp Part [8739162]183"},{"mesh":10,"translation":[0.3497647,2.7578046,-1.0157473],"rotation":[-0.0,-0.7071068,0.0,0.7071067],"name":"KON006 - Lower Panel Clamp Part [8739162]184"},{"mesh":10,"translation":[0.3497647,2.1990047,-1.0157473],"rotation":[-0.0,-0.7071068,0.0,0.7071067],"name":"KON006 - Lower Panel Clamp Part [8739162]185"},{"mesh":10,"translation":[-0.165069,2.7578046,-1.0157473],"rotation":[-0.0,-0.7071068,0.0,0.7071067],"name":"KON006 - Lower Panel Clamp Part [8739162]186"},{"mesh":10,"translation":[-0.165069,2.1990047,-1.0157473],"rotation":[-0.0,-0.7071068,0.0,0.7071067],"name":"KON006 - Lower Panel Clamp Part [8739162]187"},{"mesh":10,"translation":[-0.29946777,2.7578046,-0.8813486],"name":"KON006 - Lower Panel Clamp Part [8739162]188"},{"mesh":10,"translation":[-0.29946777,2.1990047,-0.8813486],"name":"KON006 - Lower Panel Clamp Part [8739162]189"},{"mesh":10,"translation":[-0.29946777,2.7578046,-0.074374564],"name":"KON006 - Lower Panel Clamp Part [8739162]193"},{"mesh":10,"translation":[-0.29946777,2.1990047,-0.074374564],"name":"KON006 - Lower Panel Clamp Part [8739162]194"},{"mesh":11,"translation":[0.63235635,2.6573222,0.17503546],"rotation":[-0.0,-0.7071068,0.0,0.7071067],"name":"KON021 - Konic Washer Part [8739168]100"},{"mesh":11,"translation":[0.63235635,2.0985222,0.17503546],"rotation":[-0.0,-0.7071068,0.0,0.7071067],"name":"KON021 - Konic Washer Part [8739168]101"},{"mesh":11,"translation":[0.8471337,3.0230312,-0.08392282],"rotation":[-0.0,-1.0,0.0,4.371139E-08],"name":"KON021 - Konic Washer Part [8739168]102"},{"mesh":11,"translation":[0.8471337,2.4642315,-0.08392282],"rotation":[-0.0,-1.0,0.0,4.371139E-08],"name":"KON021 - Konic Washer Part [8739168]103"},{"mesh":11,"translation":[1.4286327,3.3887918,-0.08392282],"rotation":[-0.0,-1.0,0.0,4.371139E-08],"name":"KON021 - Konic Washer Part [8739168]108"},{"mesh":11,"translation":[1.4286327,2.8299918,-0.08392282],"rotation":[-0.0,-1.0,0.0,4.371139E-08],"name":"KON021 - Konic Washer Part [8739168]109"},{"mesh":11,"translation":[0.63235635,2.1086822,0.97354954],"rotation":[-0.0,-0.7071068,0.0,0.7071067],"name":"KON021 - Konic Washer Part [8739168]114"},{"mesh":11,"translation":[0.63235635,1.5498822,0.97354954],"rotation":[-0.0,-0.7071068,0.0,0.7071067],"name":"KON021 - Konic Washer Part [8739168]115"},{"mesh":11,"translation":[-0.30104485,2.6573222,0.17503546],"rotation":[-0.0,0.7071068,0.0,0.7071067],"name":"KON021 - Konic Washer Part [8739168]118"},{"mesh":11,"translation":[-0.30104485,2.0985222,0.17503546],"rotation":[-0.0,0.7071068,0.0,0.7071067],"name":"KON021 - Konic Washer Part [8739168]119"},{"mesh":11,"translation":[-0.30104485,2.1086822,0.97354954],"rotation":[-0.0,0.7071068,0.0,0.7071067],"name":"KON021 - Konic Washer Part [8739168]122"},{"mesh":11,"translation":[-0.30104485,1.5498822,0.97354954],"rotation":[-0.0,0.7071068,0.0,0.7071067],"name":"KON021 - Konic Washer Part [8739168]123"},{"mesh":11,"translation":[1.4286327,3.3887918,-1.017324],"name":"KON021 - Konic Washer Part [8739168]130"},{"mesh":11,"translation":[1.4286327,2.8299918,-1.017324],"name":"KON021 - Konic Washer Part [8739168]131"},{"mesh":11,"translation":[0.61646473,2.8401513,-1.017324],"name":"KON021 - Konic Washer Part [8739168]132"},{"mesh":11,"translation":[0.61646473,2.2813516,-1.017324],"name":"KON021 - Konic Washer Part [8739168]133"},{"mesh":11,"translation":[0.3497647,2.7578046,-1.017324],"name":"KON021 - Konic Washer Part [8739168]134"},{"mesh":11,"translation":[0.3497647,2.1990047,-1.017324],"name":"KON021 - Konic Washer Part [8739168]135"},{"mesh":11,"translation":[-0.165069,2.7578046,-1.017324],"name":"KON021 - Konic Washer Part [8739168]136"},{"mesh":11,"translation":[-0.165069,2.1990047,-1.017324],"name":"KON021 - Konic Washer Part [8739168]137"},{"mesh":11,"translation":[-0.30104208,2.7578046,-0.8813486],"rotation":[-0.0,0.7071068,0.0,0.7071067],"name":"KON021 - Konic Washer Part [8739168]138"},{"mesh":11,"translation":[-0.30104208,2.1990047,-0.8813486],"rotation":[-0.0,0.7071068,0.0,0.7071067],"name":"KON021 - Konic Washer Part [8739168]139"},{"mesh":11,"translation":[-0.30104208,2.7578046,-0.074374564],"rotation":[-0.0,0.7071068,0.0,0.7071067],"name":"KON021 - Konic Washer Part [8739168]143"},{"mesh":11,"translation":[-0.30104208,2.1990047,-0.074374564],"rotation":[-0.0,0.7071068,0.0,0.7071067],"name":"KON021 - Konic Washer Part [8739168]144"},{"mesh":11,"translation":[0.64665544,2.6573222,0.17503546],"rotation":[-0.0,0.7071068,0.0,0.7071068],"name":"KON021 - Konic Washer Part [8739168]149"},{"mesh":11,"translation":[0.64665544,2.0985222,0.17503546],"rotation":[-0.0,0.7071068,0.0,0.7071068],"name":"KON021 - Konic Washer Part [8739168]150"},{"mesh":11,"translation":[0.8471337,3.0230312,-0.069623694],"name":"KON021 - Konic Washer Part [8739168]151"},{"mesh":11,"translation":[0.8471337,2.4642315,-0.069623694],"name":"KON021 - Konic Washer Part [8739168]152"},{"mesh":11,"translation":[1.4286327,3.3887918,-0.069623694],"name":"KON021 - Konic Washer Part [8739168]157"},{"mesh":11,"translation":[1.4286327,2.8299918,-0.069623694],"name":"KON021 - Konic Washer Part [8739168]158"},{"mesh":11,"translation":[0.64665544,2.1086822,0.97354954],"rotation":[-0.0,0.7071068,0.0,0.7071068],"name":"KON021 - Konic Washer Part [8739168]163"},{"mesh":11,"translation":[0.64665544,1.5498822,0.97354954],"rotation":[-0.0,0.7071068,0.0,0.7071068],"name":"KON021 - Konic Washer Part [8739168]164"},{"mesh":11,"translation":[-0.31534398,2.6573222,0.17503546],"rotation":[-0.0,-0.7071068,0.0,0.7071067],"name":"KON021 - Konic Washer Part [8739168]167"},{"mesh":11,"translation":[-0.31534398,2.0985222,0.17503546],"rotation":[-0.0,-0.7071068,0.0,0.7071067],"name":"KON021 - Konic Washer Part [8739168]168"},{"mesh":11,"translation":[-0.31534398,2.1086822,0.97354954],"rotation":[-0.0,-0.7071068,0.0,0.7071067],"name":"KON021 - Konic Washer Part [8739168]171"},{"mesh":11,"translation":[-0.31534398,1.5498822,0.97354954],"rotation":[-0.0,-0.7071068,0.0,0.7071067],"name":"KON021 - Konic Washer Part [8739168]172"},{"mesh":11,"translation":[1.4286327,3.3887918,-1.0316231],"rotation":[-0.0,-1.0,0.0,-4.371139E-08],"name":"KON021 - Konic Washer Part [8739168]179"},{"mesh":11,"translation":[1.4286327,2.8299918,-1.0316231],"rotation":[-0.0,-1.0,0.0,-4.371139E-08],"name":"KON021 - Konic Washer Part [8739168]180"},{"mesh":11,"translation":[0.61646473,2.8401513,-1.0316231],"rotation":[-0.0,-1.0,0.0,-4.371139E-08],"name":"KON021 - Konic Washer Part [8739168]181"},{"mesh":11,"translation":[0.61646473,2.2813516,-1.0316231],"rotation":[-0.0,-1.0,0.0,-4.371139E-08],"name":"KON021 - Konic Washer Part [8739168]182"},{"mesh":11,"translation":[0.3497647,2.7578046,-1.0316231],"rotation":[-0.0,-1.0,0.0,-4.371139E-08],"name":"KON021 - Konic Washer Part [8739168]183"},{"mesh":11,"translation":[0.3497647,2.1990047,-1.0316231],"rotation":[-0.0,-1.0,0.0,-4.371139E-08],"name":"KON021 - Konic Washer Part [8739168]184"},{"mesh":11,"translation":[-0.165069,2.7578046,-1.0316231],"rotation":[-0.0,-1.0,0.0,4.371139E-08],"name":"KON021 - Konic Washer Part [8739168]185"},{"mesh":11,"translation":[-0.165069,2.1990047,-1.0316231],"rotation":[-0.0,-1.0,0.0,4.371139E-08],"name":"KON021 - Konic Washer Part [8739168]186"},{"mesh":11,"translation":[-0.31534123,2.7578046,-0.8813486],"rotation":[-0.0,-0.7071068,0.0,0.7071067],"name":"KON021 - Konic Washer Part [8739168]187"},{"mesh":11,"translation":[-0.31534123,2.1990047,-0.8813486],"rotation":[-0.0,-0.7071068,0.0,0.7071067],"name":"KON021 - Konic Washer Part [8739168]188"},{"mesh":11,"translation":[-0.31534123,2.7578046,-0.074374564],"rotation":[-0.0,-0.7071068,0.0,0.7071067],"name":"KON021 - Konic Washer Part [8739168]193"},{"mesh":11,"translation":[-0.31534123,2.1990047,-0.074374564],"rotation":[-0.0,-0.7071068,0.0,0.7071067],"name":"KON021 - Konic Washer Part [8739168]194"},{"mesh":12,"translation":[0.6927061,1.8287996,0.17503546],"rotation":[-0.7071067,-0.7071068,1.9656746E-08,-6.18036E-08],"scale":[1.0,0.99999994,0.99999994],"name":"LS147 & LS148 - Kubit Post Material LS Material [8739192]025"},{"mesh":13,"translation":[0.8471337,2.1945596,-0.023573017],"rotation":[0.5,0.5,0.50000006,0.49999994],"scale":[1.0,0.99999994,0.99999994],"name":"LS147 & LS148 - Kubit Post Material LS Material [8739192]026"},{"mesh":14,"translation":[1.4286327,2.56032,-0.023573017],"rotation":[0.5,0.5,0.50000006,0.49999994],"scale":[1.0,0.99999994,0.99999994],"name":"LS147 & LS148 - Kubit Post Material LS Material [8739192]029"},{"mesh":15,"translation":[0.6927061,1.4630396,0.70786494],"rotation":[-0.7071067,-0.7071068,1.9656746E-08,-6.18036E-08],"scale":[1.0,0.99999994,0.99999994],"name":"LS147 & LS148 - Kubit Post Material LS Material [8739192]031"},{"mesh":16,"translation":[0.6927061,1.2801597,0.97354954],"rotation":[-0.7071067,-0.7071068,1.9656746E-08,-6.18036E-08],"scale":[1.0,0.99999994,0.99999994],"name":"LS147 & LS148 - Kubit Post Material LS Material [8739192]032"},{"mesh":17,"translation":[-0.36139467,1.8287996,0.17503546],"rotation":[4.0730175E-08,-4.0730175E-08,0.7071068,0.7071067],"scale":[1.0,0.99999994,0.99999994],"name":"LS147 & LS148 - Kubit Post Material LS Material [8739192]034"},{"mesh":18,"translation":[-0.36139467,1.2801597,0.97354954],"rotation":[4.0730175E-08,-4.0730175E-08,0.7071068,0.7071067],"scale":[1.0,0.99999994,0.99999994],"name":"LS147 & LS148 - Kubit Post Material LS Material [8739192]036"},{"mesh":19,"translation":[1.4286327,2.56032,-1.0776738],"rotation":[-0.5,-0.5,0.50000006,0.49999994],"name":"LS147 & LS148 - Kubit Post Material LS Material [8739192]040"},{"mesh":20,"translation":[0.61646473,2.0116796,-1.0776738],"rotation":[-0.5,-0.5,0.50000006,0.49999994],"name":"LS147 & LS148 - Kubit Post Material LS Material [8739192]041"},{"mesh":21,"translation":[0.3497647,2.0116796,-1.0776738],"rotation":[-0.5,-0.5,0.50000006,0.49999994],"name":"LS147 & LS148 - Kubit Post Material LS Material [8739192]042"},{"mesh":22,"translation":[-0.165069,2.0116796,-1.0776738],"rotation":[-0.5,-0.5,0.50000006,0.49999994],"name":"LS147 & LS148 - Kubit Post Material LS Material [8739192]043"},{"mesh":23,"translation":[-0.3613919,2.0116796,-0.8813486],"rotation":[-0.0,-0.0,0.7071068,0.7071067],"name":"LS147 & LS148 - Kubit Post Material LS Material [8739192]044"},{"mesh":24,"translation":[-0.3613919,2.0116796,-0.074374564],"rotation":[-0.0,-0.0,0.7071068,0.7071067],"name":"LS147 & LS148 - Kubit Post Material LS Material [8739192]046"},{"mesh":25,"translation":[1.163801,3.6663659,-0.513857],"name":"Object"},{"mesh":26,"translation":[1.6726357,3.7321718,-0.07691128],"name":"Generic Models 11 Generic Models 11 [8762451]005"},{"mesh":27,"translation":[-0.30812553,1.5866196,1.3804855],"name":"Casework 1 Casework 1 [8738332]001"},{"mesh":28,"translation":[1.1381955,1.3559175,1.7633808],"name":"Generic Models 1 Generic Models 1 [8568048]001"},{"mesh":29,"translation":[1.5450405,1.0837624,2.7111647],"name":"Object006"},{"mesh":30,"translation":[0.6395851,1.6168393,1.5199887],"rotation":[-0.0,0.7071068,0.0,0.7071067],"name":"Infill_Glass_Raked & Horizontal Generic [8199751]001"},{"translation":[0.8913971,0.38092476,1.763461],"rotation":[-0.0,-1.0,0.0,7.54979E-08],"name":"Infill_Glass_Raked & Horizontal Generic [8202939]001"},{"translation":[0.8913973,0.38094634,2.7111728],"rotation":[-0.0,-1.0,0.0,7.54979E-08],"name":"Infill_Glass_Raked & Horizontal Generic [8735940]001"},{"mesh":31,"translation":[-0.3081267,1.3215338,2.335075],"rotation":[-0.0,0.7071068,0.0,0.7071067],"name":"Infill_Glass_Raked & Horizontal Generic [8737682]001"},{"mesh":32,"translation":[0.067968816,1.3215338,2.7111707],"rotation":[-0.0,-5.9604645E-08,0.0,1.0],"name":"Infill_Glass_Raked & Horizontal Generic [8738822]001"},{"mesh":33,"translation":[1.1586715,0.9295863,2.7111728],"rotation":[-0.0,-1.0,0.0,7.54979E-08],"name":"Infill_Glass_Raked & Horizontal Generic [8739593]001"},{"mesh":34,"translation":[0.7712672,1.6461104,1.763461],"rotation":[0.7071068,-0.0,0.0,0.7071067],"name":"Infill_Glass_Transition Generic [8202170]001"},{"mesh":35,"translation":[0.89138776,1.3773533,1.772193],"rotation":[-0.0,-0.7071069,0.0,0.70710665],"name":"KON006 - Lower Panel Clamp Part [8739162]320"},{"mesh":35,"translation":[0.89138776,0.8185531,1.772193],"rotation":[-0.0,-0.7071069,0.0,0.70710665],"name":"KON006 - Lower Panel Clamp Part [8739162]321"},{"mesh":35,"translation":[0.63085306,1.7430624,1.5558388],"rotation":[-0.0,-1.0,0.0,4.371139E-08],"name":"KON006 - Lower Panel Clamp Part [8739162]322"},{"mesh":35,"translation":[0.63085306,1.1842623,1.5558388],"rotation":[-0.0,-1.0,0.0,4.371139E-08],"name":"KON006 - Lower Panel Clamp Part [8739162]323"},{"mesh":35,"translation":[0.63085306,2.2917025,0.70786494],"rotation":[-0.0,-1.0,0.0,4.371139E-08],"name":"KON006 - Lower Panel Clamp Part [8739162]326"},{"mesh":35,"translation":[0.63085306,1.7329023,0.70786494],"rotation":[-0.0,-1.0,0.0,4.371139E-08],"name":"KON006 - Lower Panel Clamp Part [8739162]327"},{"mesh":35,"translation":[0.89138776,1.3773533,2.702441],"rotation":[-0.0,0.7071068,0.0,0.7071067],"name":"KON006 - Lower Panel Clamp Part [8739162]336"},{"mesh":35,"translation":[0.89138776,0.8185531,2.702441],"rotation":[-0.0,0.7071068,0.0,0.7071067],"name":"KON006 - Lower Panel Clamp Part [8739162]337"},{"mesh":35,"translation":[-0.29939467,2.2917025,0.70786494],"rotation":[-0.0,-5.9604645E-08,0.0,1.0],"name":"KON006 - Lower Panel Clamp Part [8739162]346"},{"mesh":35,"translation":[-0.29939467,1.7329023,0.70786494],"rotation":[-0.0,-5.9604645E-08,0.0,1.0],"name":"KON006 - Lower Panel Clamp Part [8739162]347"},{"mesh":35,"translation":[-0.29939467,1.5601822,1.7865084],"rotation":[-0.0,-5.9604645E-08,0.0,1.0],"name":"KON006 - Lower Panel Clamp Part [8739162]350"},{"mesh":35,"translation":[-0.29939467,1.0013824,1.7865084],"rotation":[-0.0,-5.9604645E-08,0.0,1.0],"name":"KON006 - Lower Panel Clamp Part [8739162]351"},{"mesh":35,"translation":[-0.29939467,1.4778355,2.0532084],"rotation":[-0.0,-5.9604645E-08,0.0,1.0],"name":"KON006 - Lower Panel Clamp Part [8739162]352"},{"mesh":35,"translation":[-0.29939467,0.9190356,2.0532084],"rotation":[-0.0,-5.9604645E-08,0.0,1.0],"name":"KON006 - Lower Panel Clamp Part [8739162]353"},{"mesh":35,"translation":[-0.29939467,1.4778355,2.568042],"rotation":[-0.0,-5.9604645E-08,0.0,1.0],"name":"KON006 - Lower Panel Clamp Part [8739162]354"},{"mesh":35,"translation":[-0.29939467,0.9190356,2.568042],"rotation":[-0.0,-5.9604645E-08,0.0,1.0],"name":"KON006 - Lower Panel Clamp Part [8739162]355"},{"mesh":35,"translation":[-0.1649959,1.4778355,2.702441],"rotation":[-0.0,0.7071068,0.0,0.7071067],"name":"KON006 - Lower Panel Clamp Part [8739162]356"},{"mesh":35,"translation":[-0.1649959,0.9190356,2.702441],"rotation":[-0.0,0.7071068,0.0,0.7071067],"name":"KON006 - Lower Panel Clamp Part [8739162]357"},{"mesh":35,"translation":[0.64197797,1.4778355,2.702441],"rotation":[-0.0,0.7071068,0.0,0.7071067],"name":"KON006 - Lower Panel Clamp Part [8739162]358"},{"mesh":35,"translation":[0.64197797,0.9190356,2.702441],"rotation":[-0.0,0.7071068,0.0,0.7071067],"name":"KON006 - Lower Panel Clamp Part [8739162]359"},{"mesh":35,"translation":[1.4237274,1.0115931,1.772193],"rotation":[-0.0,-0.7071069,0.0,0.70710665],"name":"KON006 - Lower Panel Clamp Part [8739162]380"},{"mesh":35,"translation":[1.4237274,0.45279303,1.772193],"rotation":[-0.0,-0.7071069,0.0,0.70710665],"name":"KON006 - Lower Panel Clamp Part [8739162]381"},{"mesh":35,"translation":[1.4237275,1.0115931,2.702441],"rotation":[-0.0,0.7071068,0.0,0.7071067],"name":"KON006 - Lower Panel Clamp Part [8739162]382"},{"mesh":35,"translation":[1.4237275,0.45279303,2.702441],"rotation":[-0.0,0.7071068,0.0,0.7071067],"name":"KON006 - Lower Panel Clamp Part [8739162]383"},{"mesh":36,"translation":[0.89138776,1.3773533,1.7706164],"name":"KON021 - Konic Washer Part [8739168]279"},{"mesh":36,"translation":[0.89138776,0.8185531,1.7706164],"name":"KON021 - Konic Washer Part [8739168]280"},{"mesh":36,"translation":[0.6324297,1.7430624,1.5558388],"rotation":[-0.0,-0.7071068,0.0,0.7071068],"name":"KON021 - Konic Washer Part [8739168]281"},{"mesh":36,"translation":[0.6324297,1.1842623,1.5558388],"rotation":[-0.0,-0.7071068,0.0,0.7071068],"name":"KON021 - Konic Washer Part [8739168]282"},{"mesh":36,"translation":[0.6324297,2.2917025,0.70786494],"rotation":[-0.0,-0.7071068,0.0,0.7071068],"name":"KON021 - Konic Washer Part [8739168]285"},{"mesh":36,"translation":[0.6324297,1.7329023,0.70786494],"rotation":[-0.0,-0.7071068,0.0,0.7071068],"name":"KON021 - Konic Washer Part [8739168]286"},{"mesh":36,"translation":[0.89138776,1.3773533,2.7040176],"rotation":[-0.0,-1.0,0.0,4.371139E-08],"name":"KON021 - Konic Washer Part [8739168]295"},{"mesh":36,"translation":[0.89138776,0.8185531,2.7040176],"rotation":[-0.0,-1.0,0.0,4.371139E-08],"name":"KON021 - Konic Washer Part [8739168]296"},{"mesh":36,"translation":[-0.3009713,2.2917025,0.70786494],"rotation":[-0.0,0.7071068,0.0,0.7071067],"name":"KON021 - Konic Washer Part [8739168]305"},{"mesh":36,"translation":[-0.3009713,1.7329023,0.70786494],"rotation":[-0.0,0.7071068,0.0,0.7071067],"name":"KON021 - Konic Washer Part [8739168]306"},{"mesh":36,"translation":[-0.3009713,1.5601822,1.7865084],"rotation":[-0.0,0.7071068,0.0,0.7071067],"name":"KON021 - Konic Washer Part [8739168]309"},{"mesh":36,"translation":[-0.3009713,1.0013824,1.7865084],"rotation":[-0.0,0.7071068,0.0,0.7071067],"name":"KON021 - Konic Washer Part [8739168]310"},{"mesh":36,"translation":[-0.3009713,1.4778355,2.0532084],"rotation":[-0.0,0.7071068,0.0,0.7071067],"name":"KON021 - Konic Washer Part [8739168]311"},{"mesh":36,"translation":[-0.3009713,0.9190356,2.0532084],"rotation":[-0.0,0.7071068,0.0,0.7071067],"name":"KON021 - Konic Washer Part [8739168]312"},{"mesh":36,"translation":[-0.3009713,1.4778355,2.568042],"rotation":[-0.0,0.7071068,0.0,0.7071067],"name":"KON021 - Konic Washer Part [8739168]313"},{"mesh":36,"translation":[-0.3009713,0.9190356,2.568042],"rotation":[-0.0,0.7071068,0.0,0.7071067],"name":"KON021 - Konic Washer Part [8739168]314"},{"mesh":36,"translation":[-0.1649959,1.4778355,2.7040153],"rotation":[-0.0,-1.0,0.0,4.371139E-08],"name":"KON021 - Konic Washer Part [8739168]315"},{"mesh":36,"translation":[-0.1649959,0.9190356,2.7040153],"rotation":[-0.0,-1.0,0.0,4.371139E-08],"name":"KON021 - Konic Washer Part [8739168]316"},{"mesh":36,"translation":[0.64197797,1.4778355,2.7040153],"rotation":[-0.0,-1.0,0.0,4.371139E-08],"name":"KON021 - Konic Washer Part [8739168]317"},{"mesh":36,"translation":[0.64197797,0.9190356,2.7040153],"rotation":[-0.0,-1.0,0.0,4.371139E-08],"name":"KON021 - Konic Washer Part [8739168]318"},{"mesh":36,"translation":[0.89138776,1.3773533,1.7563173],"rotation":[-0.0,-1.0,0.0,7.54979E-08],"name":"KON021 - Konic Washer Part [8739168]321"},{"mesh":36,"translation":[0.89138776,0.8185531,1.7563173],"rotation":[-0.0,-1.0,0.0,7.54979E-08],"name":"KON021 - Konic Washer Part [8739168]322"},{"mesh":36,"translation":[0.6467289,1.7430624,1.5558388],"rotation":[-0.0,0.7071068,0.0,0.7071067],"name":"KON021 - Konic Washer Part [8739168]323"},{"mesh":36,"translation":[0.6467289,1.1842623,1.5558388],"rotation":[-0.0,0.7071068,0.0,0.7071067],"name":"KON021 - Konic Washer Part [8739168]324"},{"mesh":36,"translation":[0.6467289,2.2917025,0.70786494],"rotation":[-0.0,0.7071068,0.0,0.7071067],"name":"KON021 - Konic Washer Part [8739168]327"},{"mesh":36,"translation":[0.6467289,1.7329023,0.70786494],"rotation":[-0.0,0.7071068,0.0,0.7071067],"name":"KON021 - Konic Washer Part [8739168]328"},{"mesh":36,"translation":[0.89138776,1.3773533,2.7183166],"name":"KON021 - Konic Washer Part [8739168]337"},{"mesh":36,"translation":[0.89138776,0.8185531,2.7183166],"name":"KON021 - Konic Washer Part [8739168]338"},{"mesh":36,"translation":[-0.31527045,2.2917025,0.70786494],"rotation":[-0.0,-0.7071068,0.0,0.7071067],"name":"KON021 - Konic Washer Part [8739168]347"},{"mesh":36,"translation":[-0.31527045,1.7329023,0.70786494],"rotation":[-0.0,-0.7071068,0.0,0.7071067],"name":"KON021 - Konic Washer Part [8739168]348"},{"mesh":36,"translation":[-0.31527045,1.5601822,1.7865084],"rotation":[-0.0,-0.7071068,0.0,0.7071067],"name":"KON021 - Konic Washer Part [8739168]351"},{"mesh":36,"translation":[-0.31527045,1.0013824,1.7865084],"rotation":[-0.0,-0.7071068,0.0,0.7071067],"name":"KON021 - Konic Washer Part [8739168]352"},{"mesh":36,"translation":[-0.31527045,1.4778355,2.0532084],"rotation":[-0.0,-0.7071068,0.0,0.7071067],"name":"KON021 - Konic Washer Part [8739168]353"},{"mesh":36,"translation":[-0.31527045,0.9190356,2.0532084],"rotation":[-0.0,-0.7071068,0.0,0.7071067],"name":"KON021 - Konic Washer Part [8739168]354"},{"mesh":36,"translation":[-0.31527045,1.4778355,2.568042],"rotation":[-0.0,-0.7071068,0.0,0.7071068],"name":"KON021 - Konic Washer Part [8739168]355"},{"mesh":36,"translation":[-0.31527045,0.9190356,2.568042],"rotation":[-0.0,-0.7071068,0.0,0.7071068],"name":"KON021 - Konic Washer Part [8739168]356"},{"mesh":36,"translation":[-0.1649959,1.4778355,2.7183144],"rotation":[-0.0,-5.9604645E-08,0.0,1.0],"name":"KON021 - Konic Washer Part [8739168]357"},{"mesh":36,"translation":[-0.1649959,0.9190356,2.7183144],"rotation":[-0.0,-5.9604645E-08,0.0,1.0],"name":"KON021 - Konic Washer Part [8739168]358"},{"mesh":36,"translation":[0.64197797,1.4778355,2.7183144],"rotation":[-0.0,-5.9604645E-08,0.0,1.0],"name":"KON021 - Konic Washer Part [8739168]359"},{"mesh":36,"translation":[0.64197797,0.9190356,2.7183144],"rotation":[-0.0,-5.9604645E-08,0.0,1.0],"name":"KON021 - Konic Washer Part [8739168]360"},{"mesh":36,"translation":[1.4237274,1.0115931,1.7706164],"name":"KON021 - Konic Washer Part [8739168]375"},{"mesh":36,"translation":[1.4237274,0.45279303,1.7706164],"name":"KON021 - Konic Washer Part [8739168]376"},{"mesh":36,"translation":[1.4237275,1.0115931,2.7040176],"rotation":[-0.0,-1.0,0.0,4.371139E-08],"name":"KON021 - Konic Washer Part [8739168]377"},{"mesh":36,"translation":[1.4237275,0.45279303,2.7040176],"rotation":[-0.0,-1.0,0.0,4.371139E-08],"name":"KON021 - Konic Washer Part [8739168]378"},{"mesh":36,"translation":[1.4237274,1.0115931,1.7563173],"rotation":[-0.0,-1.0,0.0,7.54979E-08],"name":"KON021 - Konic Washer Part [8739168]379"},{"mesh":36,"translation":[1.4237274,0.45279303,1.7563173],"rotation":[-0.0,-1.0,0.0,7.54979E-08],"name":"KON021 - Konic Washer Part [8739168]380"},{"mesh":36,"translation":[1.4237275,1.0115931,2.7183166],"name":"KON021 - Konic Washer Part [8739168]381"},{"mesh":36,"translation":[1.4237275,0.45279303,2.7183166],"name":"KON021 - Konic Washer Part [8739168]382"},{"mesh":37,"translation":[0.89138776,0.8185531,1.7102666],"rotation":[-0.0,-0.7071069,0.0,0.70710665],"name":"KUB009 - Top Barrel Mount Part [8739165]138"},{"mesh":37,"translation":[0.69277954,1.1842623,1.5558388],"rotation":[-0.0,-1.0,0.0,4.371139E-08],"name":"KUB009 - Top Barrel Mount Part [8739165]139"},{"mesh":37,"translation":[0.69277954,1.7329023,0.70786494],"rotation":[-0.0,-1.0,0.0,4.371139E-08],"name":"KUB009 - Top Barrel Mount Part [8739165]141"},{"mesh":37,"translation":[0.89138776,0.8185531,2.7643673],"rotation":[-0.0,0.7071068,0.0,0.7071067],"name":"KUB009 - Top Barrel Mount Part [8739165]146"},{"mesh":37,"translation":[-0.36132112,1.7329023,0.70786494],"rotation":[-0.0,-5.9604645E-08,0.0,1.0],"name":"KUB009 - Top Barrel Mount Part [8739165]151"},{"mesh":37,"translation":[-0.36132112,1.0013824,1.7865084],"rotation":[-0.0,-5.9604645E-08,0.0,1.0],"name":"KUB009 - Top Barrel Mount Part [8739165]153"},{"mesh":37,"translation":[-0.36132112,0.9190356,2.0532084],"rotation":[-0.0,-5.9604645E-08,0.0,1.0],"name":"KUB009 - Top Barrel Mount Part [8739165]154"},{"mesh":37,"translation":[-0.36132112,0.9190356,2.568042],"rotation":[-0.0,-5.9604645E-08,0.0,1.0],"name":"KUB009 - Top Barrel Mount Part [8739165]155"},{"mesh":37,"translation":[-0.1649959,0.9190356,2.764365],"rotation":[-0.0,0.7071068,0.0,0.7071067],"name":"KUB009 - Top Barrel Mount Part [8739165]156"},{"mesh":37,"translation":[0.64197797,0.9190356,2.764365],"rotation":[-0.0,0.7071068,0.0,0.7071067],"name":"KUB009 - Top Barrel Mount Part [8739165]157"},{"mesh":37,"translation":[0.89138776,1.3773533,1.7102666],"rotation":[-0.0,-0.7071069,0.0,0.70710665],"name":"KUB009 - Top Barrel Mount Part [8739165]159"},{"mesh":37,"translation":[0.69277954,1.7430624,1.5558388],"rotation":[-0.0,-1.0,0.0,4.371139E-08],"name":"KUB009 - Top Barrel Mount Part [8739165]160"},{"mesh":37,"translation":[0.69277954,2.2917025,0.70786494],"rotation":[-0.0,-1.0,0.0,4.371139E-08],"name":"KUB009 - Top Barrel Mount Part [8739165]162"},{"mesh":37,"translation":[0.89138776,1.3773533,2.7643673],"rotation":[-0.0,0.7071068,0.0,0.7071067],"name":"KUB009 - Top Barrel Mount Part [8739165]167"},{"mesh":37,"translation":[-0.36132112,2.2917025,0.70786494],"rotation":[-0.0,-5.9604645E-08,0.0,1.0],"name":"KUB009 - Top Barrel Mount Part [8739165]172"},{"mesh":37,"translation":[-0.36132112,1.5601822,1.7865084],"rotation":[-0.0,-5.9604645E-08,0.0,1.0],"name":"KUB009 - Top Barrel Mount Part [8739165]174"},{"mesh":37,"translation":[-0.36132112,1.4778355,2.0532084],"rotation":[-0.0,-5.9604645E-08,0.0,1.0],"name":"KUB009 - Top Barrel Mount Part [8739165]175"},{"mesh":37,"translation":[-0.36132112,1.4778355,2.568042],"rotation":[-0.0,-5.9604645E-08,0.0,1.0],"name":"KUB009 - Top Barrel Mount Part [8739165]176"},{"mesh":37,"translation":[-0.1649959,1.4778355,2.764365],"rotation":[-0.0,0.7071068,0.0,0.7071067],"name":"KUB009 - Top Barrel Mount Part [8739165]177"},{"mesh":37,"translation":[0.64197797,1.4778355,2.764365],"rotation":[-0.0,0.7071068,0.0,0.7071067],"name":"KUB009 - Top Barrel Mount Part [8739165]178"},{"mesh":37,"translation":[1.4237274,0.45279303,1.7102666],"rotation":[-0.0,-0.7071069,0.0,0.70710665],"name":"KUB009 - Top Barrel Mount Part [8739165]186"},{"mesh":37,"translation":[1.4237275,0.45279303,2.7643673],"rotation":[-0.0,0.7071068,0.0,0.7071067],"name":"KUB009 - Top Barrel Mount Part [8739165]187"},{"mesh":37,"translation":[1.4237274,1.0115931,1.7102666],"rotation":[-0.0,-0.7071069,0.0,0.70710665],"name":"KUB009 - Top Barrel Mount Part [8739165]188"},{"mesh":37,"translation":[1.4237275,1.0115931,2.7643673],"rotation":[-0.0,0.7071068,0.0,0.7071067],"name":"KUB009 - Top Barrel Mount Part [8739165]189"},{"mesh":38,"translation":[0.89138776,0.54883045,1.7102666],"rotation":[-0.5,-0.5,0.50000006,0.49999994],"name":"LS147 & LS148 - Kubit Post Material LS Material [8739192]069"},{"mesh":39,"translation":[0.69277954,0.91459054,1.5558388],"rotation":[-0.7071067,-0.7071068,-4.073017E-08,4.0730168E-08],"scale":[1.0,0.99999994,0.99999994],"name":"LS147 & LS148 - Kubit Post Material LS Material [8739192]070"},{"mesh":40,"translation":[0.69277954,1.4632306,0.70786494],"rotation":[-0.7071067,-0.7071068,-4.073017E-08,4.0730168E-08],"scale":[1.0,0.99999994,0.99999994],"name":"LS147 & LS148 - Kubit Post Material LS Material [8739192]072"},{"mesh":41,"translation":[0.89138776,0.54883045,2.7643673],"rotation":[0.5,0.5,0.50000006,0.49999994],"scale":[1.0,0.99999994,0.99999994],"name":"LS147 & LS148 - Kubit Post Material LS Material [8739192]077"},{"mesh":42,"translation":[-0.36132112,1.4632306,0.70786494],"rotation":[1.4166681E-09,8.287703E-08,0.7071068,0.7071067],"name":"LS147 & LS148 - Kubit Post Material LS Material [8739192]082"},{"mesh":43,"translation":[-0.36132112,0.73171043,1.7865084],"rotation":[1.4166681E-09,8.287703E-08,0.7071068,0.7071067],"name":"LS147 & LS148 - Kubit Post Material LS Material [8739192]084"},{"mesh":44,"translation":[-0.36132112,0.73171043,2.0532084],"rotation":[1.4166681E-09,8.287703E-08,0.7071068,0.7071067],"name":"LS147 & LS148 - Kubit Post Material LS Material [8739192]085"},{"mesh":45,"translation":[-0.36132112,0.73171043,2.568042],"rotation":[1.4166681E-09,8.287703E-08,0.7071068,0.7071067],"name":"LS147 & LS148 - Kubit Post Material LS Material [8739192]086"},{"mesh":46,"translation":[-0.1649959,0.73171043,2.764365],"rotation":[-0.49999997,-0.5000001,-0.50000006,-0.49999997],"name":"LS147 & LS148 - Kubit Post Material LS Material [8739192]087"},{"mesh":47,"translation":[0.64197797,0.73171043,2.764365],"rotation":[-0.49999997,-0.5000001,-0.50000006,-0.49999997],"name":"LS147 & LS148 - Kubit Post Material LS Material [8739192]088"},{"mesh":48,"translation":[0.2024968,2.385576,1.239157],"name":"Object003"},{"mesh":49,"translation":[1.4237274,0.18307047,1.7102666],"rotation":[-0.5,-0.5,0.50000006,0.49999994],"name":"LS147 & LS148 - Kubit Post Material LS Material [8739192]093"},{"mesh":50,"translation":[1.4237275,0.18307047,2.7643673],"rotation":[0.5,0.5,0.50000006,0.49999994],"scale":[1.0,0.99999994,0.99999994],"name":"LS147 & LS148 - Kubit Post Material LS Material [8739192]094"},{"mesh":51,"translation":[-0.30828178,2.0101762,1.6006715],"name":"Object013"}],"meshes":[{"primitives":[{"attributes":{"POSITION":1,"TANGENT":2,"NORMAL":3,"TEXCOORD_0":4},"indices":0,"material":0}],"name":"Infill_Glass_Raked & Horizontal Generic [8199751]"},{"primitives":[{"attributes":{"POSITION":6,"TANGENT":7,"NORMAL":8,"TEXCOORD_0":9},"indices":5,"material":0}],"name":"Infill_Glass_Transition Generic [8202170]"},{"primitives":[{"attributes":{"POSITION":11,"TANGENT":12,"NORMAL":13,"TEXCOORD_0":14},"indices":10,"material":1},{"attributes":{"POSITION":16,"TANGENT":17,"NORMAL":18,"TEXCOORD_0":19},"indices":15,"material":2}],"name":"Generic Models 1 Generic Models 1 [8568048]"},{"primitives":[{"attributes":{"POSITION":21,"TANGENT":22,"NORMAL":23,"TEXCOORD_0":24},"indices":20,"material":1},{"attributes":{"POSITION":26,"TANGENT":27,"NORMAL":28,"TEXCOORD_0":29},"indices":25,"material":2}],"name":"Generic Models 10 Generic Models 1 [8735975]"},{"primitives":[{"attributes":{"POSITION":31,"TANGENT":32,"NORMAL":33,"TEXCOORD_0":34},"indices":30,"material":0}],"name":"Infill_Glass_Raked & Horizontal Generic [8737682]"},{"primitives":[{"attributes":{"POSITION":36,"TANGENT":37,"NORMAL":38,"TEXCOORD_0":39},"indices":35,"material":0}],"name":"Casework 1 Casework 1 [8738332]"},{"primitives":[{"attributes":{"POSITION":41,"TANGENT":42,"NORMAL":43,"TEXCOORD_0":44},"indices":40,"material":0}],"name":"Infill_Glass_Raked & Horizontal Generic [8738822]"},{"primitives":[{"attributes":{"POSITION":46,"TANGENT":47,"NORMAL":48,"TEXCOORD_0":49},"indices":45,"material":0}],"name":"Infill_Glass_Raked & Horizontal Generic [8739593]"},{"primitives":[{"attributes":{"POSITION":51,"TANGENT":52,"NORMAL":53,"TEXCOORD_0":54},"indices":50,"material":1},{"attributes":{"POSITION":56,"TANGENT":57,"NORMAL":58,"TEXCOORD_0":59},"indices":55,"material":2}],"name":"KUB009 - Top Barrel Mount Part [8739165]050"},{"primitives":[{"attributes":{"POSITION":61,"TANGENT":62,"NORMAL":63,"TEXCOORD_0":64},"indices":60,"material":1}],"name":"CSQ001-US - Surface Mount Weldment Part [8723797]290"},{"primitives":[{"attributes":{"POSITION":66,"TANGENT":67,"NORMAL":68,"TEXCOORD_0":69},"indices":65,"material":1},{"attributes":{"POSITION":71,"TANGENT":72,"NORMAL":73,"TEXCOORD_0":74},"indices":70,"material":2}],"name":"KON006 - Lower Panel Clamp Part [8739162]150"},{"primitives":[{"attributes":{"POSITION":76,"TANGENT":77,"NORMAL":78,"TEXCOORD_0":79},"indices":75,"material":3}],"name":"KON021 - Konic Washer Part [8739168]100"},{"primitives":[{"attributes":{"POSITION":81,"TANGENT":82,"NORMAL":83,"TEXCOORD_0":84},"indices":80,"material":1}],"name":"LS147 & LS148 - Kubit Post Material LS Material [8739192]025"},{"primitives":[{"attributes":{"POSITION":86,"TANGENT":87,"NORMAL":88,"TEXCOORD_0":89},"indices":85,"material":1}],"name":"LS147 & LS148 - Kubit Post Material LS Material [8739192]026"},{"primitives":[{"attributes":{"POSITION":91,"TANGENT":92,"NORMAL":93,"TEXCOORD_0":94},"indices":90,"material":1}],"name":"LS147 & LS148 - Kubit Post Material LS Material [8739192]029"},{"primitives":[{"attributes":{"POSITION":96,"TANGENT":97,"NORMAL":98,"TEXCOORD_0":99},"indices":95,"material":1}],"name":"LS147 & LS148 - Kubit Post Material LS Material [8739192]031"},{"primitives":[{"attributes":{"POSITION":101,"TANGENT":102,"NORMAL":103,"TEXCOORD_0":104},"indices":100,"material":1}],"name":"LS147 & LS148 - Kubit Post Material LS Material [8739192]032"},{"primitives":[{"attributes":{"POSITION":106,"TANGENT":107,"NORMAL":108,"TEXCOORD_0":109},"indices":105,"material":1}],"name":"LS147 & LS148 - Kubit Post Material LS Material [8739192]034"},{"primitives":[{"attributes":{"POSITION":111,"TANGENT":112,"NORMAL":113,"TEXCOORD_0":114},"indices":110,"material":1}],"name":"LS147 & LS148 - Kubit Post Material LS Material [8739192]036"},{"primitives":[{"attributes":{"POSITION":116,"TANGENT":117,"NORMAL":118,"TEXCOORD_0":119},"indices":115,"material":1}],"name":"LS147 & LS148 - Kubit Post Material LS Material [8739192]040"},{"primitives":[{"attributes":{"POSITION":121,"TANGENT":122,"NORMAL":123,"TEXCOORD_0":124},"indices":120,"material":1}],"name":"LS147 & LS148 - Kubit Post Material LS Material [8739192]041"},{"primitives":[{"attributes":{"POSITION":126,"TANGENT":127,"NORMAL":128,"TEXCOORD_0":129},"indices":125,"material":1}],"name":"LS147 & LS148 - Kubit Post Material LS Material [8739192]042"},{"primitives":[{"attributes":{"POSITION":131,"TANGENT":132,"NORMAL":133,"TEXCOORD_0":134},"indices":130,"material":1}],"name":"LS147 & LS148 - Kubit Post Material LS Material [8739192]043"},{"primitives":[{"attributes":{"POSITION":136,"TANGENT":137,"NORMAL":138,"TEXCOORD_0":139},"indices":135,"material":1}],"name":"LS147 & LS148 - Kubit Post Material LS Material [8739192]044"},{"primitives":[{"attributes":{"POSITION":141,"TANGENT":142,"NORMAL":143,"TEXCOORD_0":144},"indices":140,"material":1}],"name":"LS147 & LS148 - Kubit Post Material LS Material [8739192]046"},{"primitives":[{"attributes":{"POSITION":146,"TANGENT":147,"NORMAL":148,"TEXCOORD_0":149},"indices":145,"material":1},{"attributes":{"POSITION":151,"TANGENT":152,"NORMAL":153,"TEXCOORD_0":154},"indices":150,"material":2}],"name":"Object"},{"primitives":[{"attributes":{"POSITION":156,"TANGENT":157,"NORMAL":158,"TEXCOORD_0":159},"indices":155,"material":1},{"attributes":{"POSITION":161,"TANGENT":162,"NORMAL":163,"TEXCOORD_0":164},"indices":160,"material":2}],"name":"Generic Models 11 Generic Models 11 [8762451]005"},{"primitives":[{"attributes":{"POSITION":166,"TANGENT":167,"NORMAL":168,"TEXCOORD_0":169},"indices":165,"material":0}],"name":"Casework 1 Casework 1 [8738332]001"},{"primitives":[{"attributes":{"POSITION":171,"TANGENT":172,"NORMAL":173,"TEXCOORD_0":174},"indices":170,"material":1},{"attributes":{"POSITION":176,"TANGENT":177,"NORMAL":178,"TEXCOORD_0":179},"indices":175,"material":2}],"name":"Generic Models 1 Generic Models 1 [8568048]001"},{"primitives":[{"attributes":{"POSITION":181,"TANGENT":182,"NORMAL":183,"TEXCOORD_0":184},"indices":180,"material":1},{"attributes":{"POSITION":186,"TANGENT":187,"NORMAL":188,"TEXCOORD_0":189},"indices":185,"material":2}],"name":"Object006"},{"primitives":[{"attributes":{"POSITION":191,"TANGENT":192,"NORMAL":193,"TEXCOORD_0":194},"indices":190,"material":0}],"name":"Infill_Glass_Raked & Horizontal Generic [8199751]001"},{"primitives":[{"attributes":{"POSITION":196,"TANGENT":197,"NORMAL":198,"TEXCOORD_0":199},"indices":195,"material":0}],"name":"Infill_Glass_Raked & Horizontal Generic [8737682]001"},{"primitives":[{"attributes":{"POSITION":201,"TANGENT":202,"NORMAL":203,"TEXCOORD_0":204},"indices":200,"material":0}],"name":"Infill_Glass_Raked & Horizontal Generic [8738822]001"},{"primitives":[{"attributes":{"POSITION":206,"TANGENT":207,"NORMAL":208,"TEXCOORD_0":209},"indices":205,"material":0}],"name":"Infill_Glass_Raked & Horizontal Generic [8739593]001"},{"primitives":[{"attributes":{"POSITION":211,"TANGENT":212,"NORMAL":213,"TEXCOORD_0":214},"indices":210,"material":0}],"name":"Infill_Glass_Transition Generic [8202170]001"},{"primitives":[{"attributes":{"POSITION":216,"TANGENT":217,"NORMAL":218,"TEXCOORD_0":219},"indices":215,"material":1},{"attributes":{"POSITION":221,"TANGENT":222,"NORMAL":223,"TEXCOORD_0":224},"indices":220,"material":2}],"name":"KON006 - Lower Panel Clamp Part [8739162]320"},{"primitives":[{"attributes":{"POSITION":226,"TANGENT":227,"NORMAL":228,"TEXCOORD_0":229},"indices":225,"material":3}],"name":"KON021 - Konic Washer Part [8739168]279"},{"primitives":[{"attributes":{"POSITION":231,"TANGENT":232,"NORMAL":233,"TEXCOORD_0":234},"indices":230,"material":1},{"attributes":{"POSITION":236,"TANGENT":237,"NORMAL":238,"TEXCOORD_0":239},"indices":235,"material":2}],"name":"KUB009 - Top Barrel Mount Part [8739165]138"},{"primitives":[{"attributes":{"POSITION":241,"TANGENT":242,"NORMAL":243,"TEXCOORD_0":244},"indices":240,"material":1}],"name":"LS147 & LS148 - Kubit Post Material LS Material [8739192]069"},{"primitives":[{"attributes":{"POSITION":246,"TANGENT":247,"NORMAL":248,"TEXCOORD_0":249},"indices":245,"material":1}],"name":"LS147 & LS148 - Kubit Post Material LS Material [8739192]070"},{"primitives":[{"attributes":{"POSITION":251,"TANGENT":252,"NORMAL":253,"TEXCOORD_0":254},"indices":250,"material":1}],"name":"LS147 & LS148 - Kubit Post Material LS Material [8739192]072"},{"primitives":[{"attributes":{"POSITION":256,"TANGENT":257,"NORMAL":258,"TEXCOORD_0":259},"indices":255,"material":1}],"name":"LS147 & LS148 - Kubit Post Material LS Material [8739192]077"},{"primitives":[{"attributes":{"POSITION":261,"TANGENT":262,"NORMAL":263,"TEXCOORD_0":264},"indices":260,"material":1}],"name":"LS147 & LS148 - Kubit Post Material LS Material [8739192]082"},{"primitives":[{"attributes":{"POSITION":266,"TANGENT":267,"NORMAL":268,"TEXCOORD_0":269},"indices":265,"material":1}],"name":"LS147 & LS148 - Kubit Post Material LS Material [8739192]084"},{"primitives":[{"attributes":{"POSITION":271,"TANGENT":272,"NORMAL":273,"TEXCOORD_0":274},"indices":270,"material":1}],"name":"LS147 & LS148 - Kubit Post Material LS Material [8739192]085"},{"primitives":[{"attributes":{"POSITION":276,"TANGENT":277,"NORMAL":278,"TEXCOORD_0":279},"indices":275,"material":1}],"name":"LS147 & LS148 - Kubit Post Material LS Material [8739192]086"},{"primitives":[{"attributes":{"POSITION":281,"TANGENT":282,"NORMAL":283,"TEXCOORD_0":284},"indices":280,"material":1}],"name":"LS147 & LS148 - Kubit Post Material LS Material [8739192]087"},{"primitives":[{"attributes":{"POSITION":286,"TANGENT":287,"NORMAL":288,"TEXCOORD_0":289},"indices":285,"material":1}],"name":"LS147 & LS148 - Kubit Post Material LS Material [8739192]088"},{"primitives":[{"attributes":{"POSITION":291,"TANGENT":292,"NORMAL":293,"TEXCOORD_0":294},"indices":290,"material":1}],"name":"Object003"},{"primitives":[{"attributes":{"POSITION":296,"TANGENT":297,"NORMAL":298,"TEXCOORD_0":299},"indices":295,"material":1}],"name":"LS147 & LS148 - Kubit Post Material LS Material [8739192]093"},{"primitives":[{"attributes":{"POSITION":301,"TANGENT":302,"NORMAL":303,"TEXCOORD_0":304},"indices":300,"material":1}],"name":"LS147 & LS148 - Kubit Post Material LS Material [8739192]094"},{"primitives":[{"attributes":{"POSITION":306,"TANGENT":307,"NORMAL":308,"TEXCOORD_0":309},"indices":305,"material":1}],"name":"Object013"}],"accessors":[{"bufferView":0,"componentType":5123,"count":132,"type":"SCALAR","name":"accessorIndices"},{"bufferView":1,"componentType":5126,"count":82,"max":[0.67253757,0.76435065,0.0071501],"min":[-0.1888937,-0.7240815,-0.0071501],"type":"VEC3","name":"accessorPositions"},{"bufferView":2,"componentType":5126,"count":82,"type":"VEC4","name":"accessorTangents"},{"bufferView":1,"byteOffset":984,"componentType":5126,"count":82,"type":"VEC3","name":"accessorNormals"},{"bufferView":3,"componentType":5126,"count":82,"type":"VEC2","name":"accessorUVs"},{"bufferView":0,"byteOffset":264,"componentType":5123,"count":168,"type":"SCALAR","name":"accessorIndices"},{"bufferView":1,"byteOffset":1968,"componentType":5126,"count":109,"max":[0.007149927,0.7168539,0.42416126],"min":[-0.0071505085,-0.7168533,-0.42416126],"type":"VEC3","name":"accessorPositions"},{"bufferView":2,"byteOffset":1312,"componentType":5126,"count":109,"type":"VEC4","name":"accessorTangents"},{"bufferView":1,"byteOffset":3276,"componentType":5126,"count":109,"type":"VEC3","name":"accessorNormals"},{"bufferView":3,"byteOffset":656,"componentType":5126,"count":109,"type":"VEC2","name":"accessorUVs"},{"bufferView":0,"byteOffset":600,"componentType":5123,"count":2994,"type":"SCALAR","name":"accessorIndices"},{"bufferView":1,"byteOffset":4584,"componentType":5126,"count":1038,"max":[0.019135969,0.57277405,0.89412946],"min":[-0.019134043,-0.6103752,-0.83940214],"type":"VEC3","name":"accessorPositions"},{"bufferView":2,"byteOffset":3056,"componentType":5126,"count":1038,"type":"VEC4","name":"accessorTangents"},{"bufferView":1,"byteOffset":17040,"componentType":5126,"count":1038,"type":"VEC3","name":"accessorNormals"},{"bufferView":3,"byteOffset":1528,"componentType":5126,"count":1038,"type":"VEC2","name":"accessorUVs"},{"bufferView":0,"byteOffset":6588,"componentType":5123,"count":456,"type":"SCALAR","name":"accessorIndices"},{"bufferView":1,"byteOffset":29496,"componentType":5126,"count":156,"max":[0.019135969,0.57277405,0.89412946],"min":[-0.019127067,-0.6103752,-0.83940214],"type":"VEC3","name":"accessorPositions"},{"bufferView":2,"byteOffset":19664,"componentType":5126,"count":156,"type":"VEC4","name":"accessorTangents"},{"bufferView":1,"byteOffset":31368,"componentType":5126,"count":156,"type":"VEC3","name":"accessorNormals"},{"bufferView":3,"byteOffset":9832,"componentType":5126,"count":156,"type":"VEC2","name":"accessorUVs"},{"bufferView":0,"byteOffset":7500,"componentType":5123,"count":45642,"type":"SCALAR","name":"accessorIndices"},{"bufferView":1,"byteOffset":33240,"componentType":5126,"count":8486,"max":[0.019054433,0.57281196,0.7208086],"min":[-0.019045785,-0.48690864,-0.82204074],"type":"VEC3","name":"accessorPositions"},{"bufferView":2,"byteOffset":22160,"componentType":5126,"count":8486,"type":"VEC4","name":"accessorTangents"},{"bufferView":1,"byteOffset":135072,"componentType":5126,"count":8486,"type":"VEC3","name":"accessorNormals"},{"bufferView":3,"byteOffset":11080,"componentType":5126,"count":8486,"type":"VEC2","name":"accessorUVs"},{"bufferView":0,"byteOffset":98784,"componentType":5123,"count":132,"type":"SCALAR","name":"accessorIndices"},{"bufferView":1,"byteOffset":236904,"componentType":5126,"count":7845,"max":[0.019054433,0.57281196,0.7208086],"min":[-0.019045785,-0.48690864,-0.82204074],"type":"VEC3","name":"accessorPositions"},{"bufferView":2,"byteOffset":157936,"componentType":5126,"count":7845,"type":"VEC4","name":"accessorTangents"},{"bufferView":1,"byteOffset":331044,"componentType":5126,"count":7845,"type":"VEC3","name":"accessorNormals"},{"bufferView":3,"byteOffset":78968,"componentType":5126,"count":7845,"type":"VEC2","name":"accessorUVs"},{"bufferView":0,"byteOffset":99048,"componentType":5123,"count":132,"type":"SCALAR","name":"accessorIndices"},{"bufferView":1,"byteOffset":425184,"componentType":5126,"count":96,"max":[0.40886727,0.3245767,0.0071501],"min":[-0.35996616,-0.52949834,-0.0071501],"type":"VEC3","name":"accessorPositions"},{"bufferView":2,"byteOffset":283456,"componentType":5126,"count":96,"type":"VEC4","name":"accessorTangents"},{"bufferView":1,"byteOffset":426336,"componentType":5126,"count":96,"type":"VEC3","name":"accessorNormals"},{"bufferView":3,"byteOffset":141728,"componentType":5126,"count":96,"type":"VEC2","name":"accessorUVs"},{"bufferView":0,"byteOffset":99312,"componentType":5123,"count":168,"type":"SCALAR","name":"accessorIndices"},{"bufferView":1,"byteOffset":427488,"componentType":5126,"count":99,"max":[0.53302795,0.7945839,0.0071623535],"min":[-0.53302795,-0.7945839,-0.0071623535],"type":"VEC3","name":"accessorPositions"},{"bufferView":2,"byteOffset":284992,"componentType":5126,"count":99,"type":"VEC4","name":"accessorTangents"},{"bufferView":1,"byteOffset":428676,"componentType":5126,"count":99,"type":"VEC3","name":"accessorNormals"},{"bufferView":3,"byteOffset":142496,"componentType":5126,"count":99,"type":"VEC2","name":"accessorUVs"},{"bufferView":0,"byteOffset":99648,"componentType":5123,"count":132,"type":"SCALAR","name":"accessorIndices"},{"bufferView":1,"byteOffset":429864,"componentType":5126,"count":96,"max":[0.70101464,0.3245767,0.0071501],"min":[-0.35996616,-0.52949834,-0.0071501],"type":"VEC3","name":"accessorPositions"},{"bufferView":2,"byteOffset":286576,"componentType":5126,"count":96,"type":"VEC4","name":"accessorTangents"},{"bufferView":1,"byteOffset":431016,"componentType":5126,"count":96,"type":"VEC3","name":"accessorNormals"},{"bufferView":3,"byteOffset":143288,"componentType":5126,"count":96,"type":"VEC2","name":"accessorUVs"},{"bufferView":0,"byteOffset":99912,"componentType":5123,"count":132,"type":"SCALAR","name":"accessorIndices"},{"bufferView":1,"byteOffset":432168,"componentType":5126,"count":82,"max":[0.37704316,0.70856416,0.0071501],"min":[-0.39211252,-0.71716493,-0.0071501],"type":"VEC3","name":"accessorPositions"},{"bufferView":2,"byteOffset":288112,"componentType":5126,"count":82,"type":"VEC4","name":"accessorTangents"},{"bufferView":1,"byteOffset":433152,"componentType":5126,"count":82,"type":"VEC3","name":"accessorNormals"},{"bufferView":3,"byteOffset":144056,"componentType":5126,"count":82,"type":"VEC2","name":"accessorUVs"},{"bufferView":0,"byteOffset":100176,"componentType":5123,"count":1836,"type":"SCALAR","name":"accessorIndices"},{"bufferView":1,"byteOffset":434136,"componentType":5126,"count":501,"max":[0.044475403,0.015875,0.015875],"min":[-0.031724602,-0.015875,-0.015875],"type":"VEC3","name":"accessorPositions"},{"bufferView":2,"byteOffset":289424,"componentType":5126,"count":501,"type":"VEC4","name":"accessorTangents"},{"bufferView":1,"byteOffset":440148,"componentType":5126,"count":501,"type":"VEC3","name":"accessorNormals"},{"bufferView":3,"byteOffset":144712,"componentType":5126,"count":501,"type":"VEC2","name":"accessorUVs"},{"bufferView":0,"byteOffset":103848,"componentType":5123,"count":570,"type":"SCALAR","name":"accessorIndices"},{"bufferView":1,"byteOffset":446160,"componentType":5126,"count":192,"max":[0.044475403,0.015875,0.015875],"min":[-0.031724602,-0.015875,-0.015875],"type":"VEC3","name":"accessorPositions"},{"bufferView":2,"byteOffset":297440,"componentType":5126,"count":192,"type":"VEC4","name":"accessorTangents"},{"bufferView":1,"byteOffset":448464,"componentType":5126,"count":192,"type":"VEC3","name":"accessorNormals"},{"bufferView":3,"byteOffset":148720,"componentType":5126,"count":192,"type":"VEC2","name":"accessorUVs"},{"bufferView":0,"byteOffset":104988,"componentType":5123,"count":570,"type":"SCALAR","name":"accessorIndices"},{"bufferView":1,"byteOffset":450768,"componentType":5126,"count":189,"max":[0.053975,0.025400002,0.053975],"min":[-0.053975,-3.0953716E-15,-0.053975],"type":"VEC3","name":"accessorPositions"},{"bufferView":2,"byteOffset":300512,"componentType":5126,"count":189,"type":"VEC4","name":"accessorTangents"},{"bufferView":1,"byteOffset":453036,"componentType":5126,"count":189,"type":"VEC3","name":"accessorNormals"},{"bufferView":3,"byteOffset":150256,"componentType":5126,"count":189,"type":"VEC2","name":"accessorUVs"},{"bufferView":0,"byteOffset":106128,"componentType":5123,"count":864,"type":"SCALAR","name":"accessorIndices"},{"bufferView":1,"byteOffset":455304,"componentType":5126,"count":292,"max":[0.006604,0.015875,0.015875],"min":[-0.022722581,-0.015875,-0.015875],"type":"VEC3","name":"accessorPositions"},{"bufferView":2,"byteOffset":303536,"componentType":5126,"count":292,"type":"VEC4","name":"accessorTangents"},{"bufferView":1,"byteOffset":458808,"componentType":5126,"count":292,"type":"VEC3","name":"accessorNormals"},{"bufferView":3,"byteOffset":151768,"componentType":5126,"count":292,"type":"VEC2","name":"accessorUVs"},{"bufferView":0,"byteOffset":107856,"componentType":5123,"count":858,"type":"SCALAR","name":"accessorIndices"},{"bufferView":1,"byteOffset":462312,"componentType":5126,"count":289,"max":[0.006604,0.015875,0.015875],"min":[-0.022722581,-0.015875,-0.015875],"type":"VEC3","name":"accessorPositions"},{"bufferView":2,"byteOffset":308208,"componentType":5126,"count":289,"type":"VEC4","name":"accessorTangents"},{"bufferView":1,"byteOffset":465780,"componentType":5126,"count":289,"type":"VEC3","name":"accessorNormals"},{"bufferView":3,"byteOffset":154104,"componentType":5126,"count":289,"type":"VEC2","name":"accessorUVs"},{"bufferView":0,"byteOffset":109572,"componentType":5123,"count":1440,"type":"SCALAR","name":"accessorIndices"},{"bufferView":1,"byteOffset":469248,"componentType":5126,"count":484,"max":[0.012700001,0.012700001,0.0015748],"min":[-0.012700001,-0.012700001,8.253881E-15],"type":"VEC3","name":"accessorPositions"},{"bufferView":2,"byteOffset":312832,"componentType":5126,"count":484,"type":"VEC4","name":"accessorTangents"},{"bufferView":1,"byteOffset":475056,"componentType":5126,"count":484,"type":"VEC3","name":"accessorNormals"},{"bufferView":3,"byteOffset":156416,"componentType":5126,"count":484,"type":"VEC2","name":"accessorUVs"},{"bufferView":0,"byteOffset":112452,"componentType":5123,"count":36,"type":"SCALAR","name":"accessorIndices"},{"bufferView":1,"byteOffset":480864,"componentType":5126,"count":24,"max":[0.83982563,0.025400002,0.0063500004],"min":[6.3589614E-15,-0.025400035,-0.0063500353],"type":"VEC3","name":"accessorPositions"},{"bufferView":2,"byteOffset":320576,"componentType":5126,"count":24,"type":"VEC4","name":"accessorTangents"},{"bufferView":1,"byteOffset":481152,"componentType":5126,"count":24,"type":"VEC3","name":"accessorNormals"},{"bufferView":3,"byteOffset":160288,"componentType":5126,"count":24,"type":"VEC2","name":"accessorUVs"},{"bufferView":0,"byteOffset":112524,"componentType":5123,"count":36,"type":"SCALAR","name":"accessorIndices"},{"bufferView":1,"byteOffset":481440,"componentType":5126,"count":24,"max":[0.83982563,0.025400002,0.006350034],"min":[6.3589614E-15,-0.025400031,-0.0063500004],"type":"VEC3","name":"accessorPositions"},{"bufferView":2,"byteOffset":320960,"componentType":5126,"count":24,"type":"VEC4","name":"accessorTangents"},{"bufferView":1,"byteOffset":481728,"componentType":5126,"count":24,"type":"VEC3","name":"accessorNormals"},{"bufferView":3,"byteOffset":160480,"componentType":5126,"count":24,"type":"VEC2","name":"accessorUVs"},{"bufferView":0,"byteOffset":112596,"componentType":5123,"count":36,"type":"SCALAR","name":"accessorIndices"},{"bufferView":1,"byteOffset":482016,"componentType":5126,"count":24,"max":[0.8398257,0.025400002,0.0063500004],"min":[6.3589614E-15,-0.025400031,-0.0063500484],"type":"VEC3","name":"accessorPositions"},{"bufferView":2,"byteOffset":321344,"componentType":5126,"count":24,"type":"VEC4","name":"accessorTangents"},{"bufferView":1,"byteOffset":482304,"componentType":5126,"count":24,"type":"VEC3","name":"accessorNormals"},{"bufferView":3,"byteOffset":160672,"componentType":5126,"count":24,"type":"VEC2","name":"accessorUVs"},{"bufferView":0,"byteOffset":112668,"componentType":5123,"count":36,"type":"SCALAR","name":"accessorIndices"},{"bufferView":1,"byteOffset":482592,"componentType":5126,"count":24,"max":[0.83982563,0.025400002,0.0063500004],"min":[6.3589614E-15,-0.025400037,-0.0063500484],"type":"VEC3","name":"accessorPositions"},{"bufferView":2,"byteOffset":321728,"componentType":5126,"count":24,"type":"VEC4","name":"accessorTangents"},{"bufferView":1,"byteOffset":482880,"componentType":5126,"count":24,"type":"VEC3","name":"accessorNormals"},{"bufferView":3,"byteOffset":160864,"componentType":5126,"count":24,"type":"VEC2","name":"accessorUVs"},{"bufferView":0,"byteOffset":112740,"componentType":5123,"count":36,"type":"SCALAR","name":"accessorIndices"},{"bufferView":1,"byteOffset":483168,"componentType":5126,"count":24,"max":[0.8398256,0.025400002,0.0063500004],"min":[6.3589614E-15,-0.025400037,-0.006350121],"type":"VEC3","name":"accessorPositions"},{"bufferView":2,"byteOffset":322112,"componentType":5126,"count":24,"type":"VEC4","name":"accessorTangents"},{"bufferView":1,"byteOffset":483456,"componentType":5126,"count":24,"type":"VEC3","name":"accessorNormals"},{"bufferView":3,"byteOffset":161056,"componentType":5126,"count":24,"type":"VEC2","name":"accessorUVs"},{"bufferView":0,"byteOffset":112812,"componentType":5123,"count":36,"type":"SCALAR","name":"accessorIndices"},{"bufferView":1,"byteOffset":483744,"componentType":5126,"count":24,"max":[0.83982563,0.025400002,0.0063500344],"min":[6.3589614E-15,-0.025400002,-0.0063500004],"type":"VEC3","name":"accessorPositions"},{"bufferView":2,"byteOffset":322496,"componentType":5126,"count":24,"type":"VEC4","name":"accessorTangents"},{"bufferView":1,"byteOffset":484032,"componentType":5126,"count":24,"type":"VEC3","name":"accessorNormals"},{"bufferView":3,"byteOffset":161248,"componentType":5126,"count":24,"type":"VEC2","name":"accessorUVs"},{"bufferView":0,"byteOffset":112884,"componentType":5123,"count":36,"type":"SCALAR","name":"accessorIndices"},{"bufferView":1,"byteOffset":484320,"componentType":5126,"count":24,"max":[0.83982563,0.025400002,0.0063500484],"min":[6.3589614E-15,-0.025400048,-0.0063500004],"type":"VEC3","name":"accessorPositions"},{"bufferView":2,"byteOffset":322880,"componentType":5126,"count":24,"type":"VEC4","name":"accessorTangents"},{"bufferView":1,"byteOffset":484608,"componentType":5126,"count":24,"type":"VEC3","name":"accessorNormals"},{"bufferView":3,"byteOffset":161440,"componentType":5126,"count":24,"type":"VEC2","name":"accessorUVs"},{"bufferView":0,"byteOffset":112956,"componentType":5123,"count":36,"type":"SCALAR","name":"accessorIndices"},{"bufferView":1,"byteOffset":484896,"componentType":5126,"count":24,"max":[0.8398257,0.025400002,0.0063500484],"min":[6.3589614E-15,-0.02540012,-0.0063500484],"type":"VEC3","name":"accessorPositions"},{"bufferView":2,"byteOffset":323264,"componentType":5126,"count":24,"type":"VEC4","name":"accessorTangents"},{"bufferView":1,"byteOffset":485184,"componentType":5126,"count":24,"type":"VEC3","name":"accessorNormals"},{"bufferView":3,"byteOffset":161632,"componentType":5126,"count":24,"type":"VEC2","name":"accessorUVs"},{"bufferView":0,"byteOffset":113028,"componentType":5123,"count":36,"type":"SCALAR","name":"accessorIndices"},{"bufferView":1,"byteOffset":485472,"componentType":5126,"count":24,"max":[0.83982563,0.025400048,0.0063500004],"min":[6.3589614E-15,-0.02540012,-0.00635003],"type":"VEC3","name":"accessorPositions"},{"bufferView":2,"byteOffset":323648,"componentType":5126,"count":24,"type":"VEC4","name":"accessorTangents"},{"bufferView":1,"byteOffset":485760,"componentType":5126,"count":24,"type":"VEC3","name":"accessorNormals"},{"bufferView":3,"byteOffset":161824,"componentType":5126,"count":24,"type":"VEC2","name":"accessorUVs"},{"bufferView":0,"byteOffset":113100,"componentType":5123,"count":36,"type":"SCALAR","name":"accessorIndices"},{"bufferView":1,"byteOffset":486048,"componentType":5126,"count":24,"max":[0.75752556,0.025400048,0.0063500004],"min":[6.3589614E-15,-0.025400048,-0.006350012],"type":"VEC3","name":"accessorPositions"},{"bufferView":2,"byteOffset":324032,"componentType":5126,"count":24,"type":"VEC4","name":"accessorTangents"},{"bufferView":1,"byteOffset":486336,"componentType":5126,"count":24,"type":"VEC3","name":"accessorNormals"},{"bufferView":3,"byteOffset":162016,"componentType":5126,"count":24,"type":"VEC2","name":"accessorUVs"},{"bufferView":0,"byteOffset":113172,"componentType":5123,"count":36,"type":"SCALAR","name":"accessorIndices"},{"bufferView":1,"byteOffset":486624,"componentType":5126,"count":24,"max":[0.75752556,0.025400048,0.0063500004],"min":[6.3589614E-15,-0.025400002,-0.006350121],"type":"VEC3","name":"accessorPositions"},{"bufferView":2,"byteOffset":324416,"componentType":5126,"count":24,"type":"VEC4","name":"accessorTangents"},{"bufferView":1,"byteOffset":486912,"componentType":5126,"count":24,"type":"VEC3","name":"accessorNormals"},{"bufferView":3,"byteOffset":162208,"componentType":5126,"count":24,"type":"VEC2","name":"accessorUVs"},{"bufferView":0,"byteOffset":113244,"componentType":5123,"count":36,"type":"SCALAR","name":"accessorIndices"},{"bufferView":1,"byteOffset":487200,"componentType":5126,"count":24,"max":[0.75752556,0.025400048,0.0063500004],"min":[6.3589614E-15,-0.025400002,-0.0063500004],"type":"VEC3","name":"accessorPositions"},{"bufferView":2,"byteOffset":324800,"componentType":5126,"count":24,"type":"VEC4","name":"accessorTangents"},{"bufferView":1,"byteOffset":487488,"componentType":5126,"count":24,"type":"VEC3","name":"accessorNormals"},{"bufferView":3,"byteOffset":162400,"componentType":5126,"count":24,"type":"VEC2","name":"accessorUVs"},{"bufferView":0,"byteOffset":113316,"componentType":5123,"count":36,"type":"SCALAR","name":"accessorIndices"},{"bufferView":1,"byteOffset":487776,"componentType":5126,"count":24,"max":[0.75752556,0.025400048,0.0063500004],"min":[6.3589614E-15,-0.025400002,-0.0063500004],"type":"VEC3","name":"accessorPositions"},{"bufferView":2,"byteOffset":325184,"componentType":5126,"count":24,"type":"VEC4","name":"accessorTangents"},{"bufferView":1,"byteOffset":488064,"componentType":5126,"count":24,"type":"VEC3","name":"accessorNormals"},{"bufferView":3,"byteOffset":162592,"componentType":5126,"count":24,"type":"VEC2","name":"accessorUVs"},{"bufferView":0,"byteOffset":113388,"componentType":5123,"count":23592,"type":"SCALAR","name":"accessorIndices"},{"bufferView":1,"byteOffset":488352,"componentType":5126,"count":4517,"max":[0.39583397,0.010935474,0.5296723],"min":[-1.4910393,-0.7633694,-0.5296722],"type":"VEC3","name":"accessorPositions"},{"bufferView":2,"byteOffset":325568,"componentType":5126,"count":4517,"type":"VEC4","name":"accessorTangents"},{"bufferView":1,"byteOffset":542556,"componentType":5126,"count":4517,"type":"VEC3","name":"accessorNormals"},{"bufferView":3,"byteOffset":162784,"componentType":5126,"count":4517,"type":"VEC2","name":"accessorUVs"},{"bufferView":0,"byteOffset":160572,"componentType":5123,"count":246,"type":"SCALAR","name":"accessorIndices"},{"bufferView":1,"byteOffset":596760,"componentType":5126,"count":84,"max":[0.39583397,0.0109354425,-0.49157217],"min":[0.39583364,-0.035273023,-0.5296722],"type":"VEC3","name":"accessorPositions"},{"bufferView":2,"byteOffset":397840,"componentType":5126,"count":84,"type":"VEC4","name":"accessorTangents"},{"bufferView":1,"byteOffset":597768,"componentType":5126,"count":84,"type":"VEC3","name":"accessorNormals"},{"bufferView":3,"byteOffset":198920,"componentType":5126,"count":84,"type":"VEC2","name":"accessorUVs"},{"bufferView":0,"byteOffset":161064,"componentType":5123,"count":4080,"type":"SCALAR","name":"accessorIndices"},{"bufferView":1,"byteOffset":598776,"componentType":5126,"count":1526,"max":[-0.112981424,-0.056437153,0.019062843],"min":[-0.98222625,-0.6959965,-0.019062744],"type":"VEC3","name":"accessorPositions"},{"bufferView":2,"byteOffset":399184,"componentType":5126,"count":1526,"type":"VEC4","name":"accessorTangents"},{"bufferView":1,"byteOffset":617088,"componentType":5126,"count":1526,"type":"VEC3","name":"accessorNormals"},{"bufferView":3,"byteOffset":199592,"componentType":5126,"count":1526,"type":"VEC2","name":"accessorUVs"},{"bufferView":0,"byteOffset":169224,"componentType":5123,"count":738,"type":"SCALAR","name":"accessorIndices"},{"bufferView":1,"byteOffset":635400,"componentType":5126,"count":252,"max":[-0.112981424,-0.056437153,0.019062843],"min":[-0.98222625,-0.6959965,-0.019062744],"type":"VEC3","name":"accessorPositions"},{"bufferView":2,"byteOffset":423600,"componentType":5126,"count":252,"type":"VEC4","name":"accessorTangents"},{"bufferView":1,"byteOffset":638424,"componentType":5126,"count":252,"type":"VEC3","name":"accessorNormals"},{"bufferView":3,"byteOffset":211800,"componentType":5126,"count":252,"type":"VEC2","name":"accessorUVs"},{"bufferView":0,"byteOffset":170700,"componentType":5123,"count":168,"type":"SCALAR","name":"accessorIndices"},{"bufferView":1,"byteOffset":641448,"componentType":5126,"count":99,"max":[0.007160028,0.7945839,0.53302854],"min":[-0.007164679,-0.7945839,-0.53302765],"type":"VEC3","name":"accessorPositions"},{"bufferView":2,"byteOffset":427632,"componentType":5126,"count":99,"type":"VEC4","name":"accessorTangents"},{"bufferView":1,"byteOffset":642636,"componentType":5126,"count":99,"type":"VEC3","name":"accessorNormals"},{"bufferView":3,"byteOffset":213816,"componentType":5126,"count":99,"type":"VEC2","name":"accessorUVs"},{"bufferView":0,"byteOffset":171036,"componentType":5123,"count":2994,"type":"SCALAR","name":"accessorIndices"},{"bufferView":1,"byteOffset":643824,"componentType":5126,"count":1043,"max":[0.44326597,0.30061945,0.019136041],"min":[-0.44326365,-0.3006193,-0.019133717],"type":"VEC3","name":"accessorPositions"},{"bufferView":2,"byteOffset":429216,"componentType":5126,"count":1043,"type":"VEC4","name":"accessorTangents"},{"bufferView":1,"byteOffset":656340,"componentType":5126,"count":1043,"type":"VEC3","name":"accessorNormals"},{"bufferView":3,"byteOffset":214608,"componentType":5126,"count":1043,"type":"VEC2","name":"accessorUVs"},{"bufferView":0,"byteOffset":177024,"componentType":5123,"count":456,"type":"SCALAR","name":"accessorIndices"},{"bufferView":1,"byteOffset":668856,"componentType":5126,"count":156,"max":[0.44326597,0.30061945,0.019129066],"min":[-0.44326365,-0.30061612,-0.019133717],"type":"VEC3","name":"accessorPositions"},{"bufferView":2,"byteOffset":445904,"componentType":5126,"count":156,"type":"VEC4","name":"accessorTangents"},{"bufferView":1,"byteOffset":670728,"componentType":5126,"count":156,"type":"VEC3","name":"accessorNormals"},{"bufferView":3,"byteOffset":222952,"componentType":5126,"count":156,"type":"VEC2","name":"accessorUVs"},{"bufferView":0,"byteOffset":177936,"componentType":5123,"count":2679,"type":"SCALAR","name":"accessorIndices"},{"bufferView":1,"byteOffset":672600,"componentType":5126,"count":926,"max":[0.036437485,0.5728089,0.019061409],"min":[-0.8287076,-0.028500414,-0.019061845],"type":"VEC3","name":"accessorPositions"},{"bufferView":2,"byteOffset":448400,"componentType":5126,"count":926,"type":"VEC4","name":"accessorTangents"},{"bufferView":1,"byteOffset":683712,"componentType":5126,"count":926,"type":"VEC3","name":"accessorNormals"},{"bufferView":3,"byteOffset":224200,"componentType":5126,"count":926,"type":"VEC2","name":"accessorUVs"},{"bufferView":0,"byteOffset":183296,"componentType":5123,"count":246,"type":"SCALAR","name":"accessorIndices"},{"bufferView":1,"byteOffset":694824,"componentType":5126,"count":84,"max":[0.036437485,0.017726,0.019061409],"min":[0.03643737,-0.028500414,-0.019038592],"type":"VEC3","name":"accessorPositions"},{"bufferView":2,"byteOffset":463216,"componentType":5126,"count":84,"type":"VEC4","name":"accessorTangents"},{"bufferView":1,"byteOffset":695832,"componentType":5126,"count":84,"type":"VEC3","name":"accessorNormals"},{"bufferView":3,"byteOffset":231608,"componentType":5126,"count":84,"type":"VEC2","name":"accessorUVs"},{"bufferView":0,"byteOffset":183788,"componentType":5123,"count":132,"type":"SCALAR","name":"accessorIndices"},{"bufferView":1,"byteOffset":696840,"componentType":5126,"count":82,"max":[0.67253757,0.76435065,0.0071501],"min":[-0.1888937,-0.7240815,-0.0071501],"type":"VEC3","name":"accessorPositions"},{"bufferView":2,"byteOffset":464560,"componentType":5126,"count":82,"type":"VEC4","name":"accessorTangents"},{"bufferView":1,"byteOffset":697824,"componentType":5126,"count":82,"type":"VEC3","name":"accessorNormals"},{"bufferView":3,"byteOffset":232280,"componentType":5126,"count":82,"type":"VEC2","name":"accessorUVs"},{"bufferView":0,"byteOffset":184052,"componentType":5123,"count":132,"type":"SCALAR","name":"accessorIndices"},{"bufferView":1,"byteOffset":698808,"componentType":5126,"count":96,"max":[0.40886727,0.3245767,0.0071501],"min":[-0.35996616,-0.52949834,-0.0071501],"type":"VEC3","name":"accessorPositions"},{"bufferView":2,"byteOffset":465872,"componentType":5126,"count":96,"type":"VEC4","name":"accessorTangents"},{"bufferView":1,"byteOffset":699960,"componentType":5126,"count":96,"type":"VEC3","name":"accessorNormals"},{"bufferView":3,"byteOffset":232936,"componentType":5126,"count":96,"type":"VEC2","name":"accessorUVs"},{"bufferView":0,"byteOffset":184316,"componentType":5123,"count":132,"type":"SCALAR","name":"accessorIndices"},{"bufferView":1,"byteOffset":701112,"componentType":5126,"count":96,"max":[0.70101464,0.3245767,0.0071501],"min":[-0.35996616,-0.52949834,-0.0071501],"type":"VEC3","name":"accessorPositions"},{"bufferView":2,"byteOffset":467408,"componentType":5126,"count":96,"type":"VEC4","name":"accessorTangents"},{"bufferView":1,"byteOffset":702264,"componentType":5126,"count":96,"type":"VEC3","name":"accessorNormals"},{"bufferView":3,"byteOffset":233704,"componentType":5126,"count":96,"type":"VEC2","name":"accessorUVs"},{"bufferView":0,"byteOffset":184580,"componentType":5123,"count":132,"type":"SCALAR","name":"accessorIndices"},{"bufferView":1,"byteOffset":703416,"componentType":5126,"count":82,"max":[0.37704316,0.70856416,0.0071501],"min":[-0.39211252,-0.71716493,-0.0071501],"type":"VEC3","name":"accessorPositions"},{"bufferView":2,"byteOffset":468944,"componentType":5126,"count":82,"type":"VEC4","name":"accessorTangents"},{"bufferView":1,"byteOffset":704400,"componentType":5126,"count":82,"type":"VEC3","name":"accessorNormals"},{"bufferView":3,"byteOffset":234472,"componentType":5126,"count":82,"type":"VEC2","name":"accessorUVs"},{"bufferView":0,"byteOffset":184844,"componentType":5123,"count":168,"type":"SCALAR","name":"accessorIndices"},{"bufferView":1,"byteOffset":705384,"componentType":5126,"count":109,"max":[0.77951753,0.0071501,1.4337071],"min":[-0.068804964,-0.0071501024,-0.0],"type":"VEC3","name":"accessorPositions"},{"bufferView":2,"byteOffset":470256,"componentType":5126,"count":109,"type":"VEC4","name":"accessorTangents"},{"bufferView":1,"byteOffset":706692,"componentType":5126,"count":109,"type":"VEC3","name":"accessorNormals"},{"bufferView":3,"byteOffset":235128,"componentType":5126,"count":109,"type":"VEC2","name":"accessorUVs"},{"bufferView":0,"byteOffset":185180,"componentType":5123,"count":864,"type":"SCALAR","name":"accessorIndices"},{"bufferView":1,"byteOffset":708000,"componentType":5126,"count":292,"max":[0.006604,0.015875,0.015875],"min":[-0.022722581,-0.015875,-0.015875],"type":"VEC3","name":"accessorPositions"},{"bufferView":2,"byteOffset":472000,"componentType":5126,"count":292,"type":"VEC4","name":"accessorTangents"},{"bufferView":1,"byteOffset":711504,"componentType":5126,"count":292,"type":"VEC3","name":"accessorNormals"},{"bufferView":3,"byteOffset":236000,"componentType":5126,"count":292,"type":"VEC2","name":"accessorUVs"},{"bufferView":0,"byteOffset":186908,"componentType":5123,"count":858,"type":"SCALAR","name":"accessorIndices"},{"bufferView":1,"byteOffset":715008,"componentType":5126,"count":289,"max":[0.006604,0.015875,0.015875],"min":[-0.022722581,-0.015875,-0.015875],"type":"VEC3","name":"accessorPositions"},{"bufferView":2,"byteOffset":476672,"componentType":5126,"count":289,"type":"VEC4","name":"accessorTangents"},{"bufferView":1,"byteOffset":718476,"componentType":5126,"count":289,"type":"VEC3","name":"accessorNormals"},{"bufferView":3,"byteOffset":238336,"componentType":5126,"count":289,"type":"VEC2","name":"accessorUVs"},{"bufferView":0,"byteOffset":188624,"componentType":5123,"count":1440,"type":"SCALAR","name":"accessorIndices"},{"bufferView":1,"byteOffset":721944,"componentType":5126,"count":484,"max":[0.012700001,0.012700001,0.0015748],"min":[-0.012700001,-0.012700001,8.253881E-15],"type":"VEC3","name":"accessorPositions"},{"bufferView":2,"byteOffset":481296,"componentType":5126,"count":484,"type":"VEC4","name":"accessorTangents"},{"bufferView":1,"byteOffset":727752,"componentType":5126,"count":484,"type":"VEC3","name":"accessorNormals"},{"bufferView":3,"byteOffset":240648,"componentType":5126,"count":484,"type":"VEC2","name":"accessorUVs"},{"bufferView":0,"byteOffset":191504,"componentType":5123,"count":1836,"type":"SCALAR","name":"accessorIndices"},{"bufferView":1,"byteOffset":733560,"componentType":5126,"count":501,"max":[0.044475403,0.015875,0.015875],"min":[-0.031724602,-0.015875,-0.015875],"type":"VEC3","name":"accessorPositions"},{"bufferView":2,"byteOffset":489040,"componentType":5126,"count":501,"type":"VEC4","name":"accessorTangents"},{"bufferView":1,"byteOffset":739572,"componentType":5126,"count":501,"type":"VEC3","name":"accessorNormals"},{"bufferView":3,"byteOffset":244520,"componentType":5126,"count":501,"type":"VEC2","name":"accessorUVs"},{"bufferView":0,"byteOffset":195176,"componentType":5123,"count":570,"type":"SCALAR","name":"accessorIndices"},{"bufferView":1,"byteOffset":745584,"componentType":5126,"count":192,"max":[0.044475403,0.015875,0.015875],"min":[-0.031724602,-0.015875,-0.015875],"type":"VEC3","name":"accessorPositions"},{"bufferView":2,"byteOffset":497056,"componentType":5126,"count":192,"type":"VEC4","name":"accessorTangents"},{"bufferView":1,"byteOffset":747888,"componentType":5126,"count":192,"type":"VEC3","name":"accessorNormals"},{"bufferView":3,"byteOffset":248528,"componentType":5126,"count":192,"type":"VEC2","name":"accessorUVs"},{"bufferView":0,"byteOffset":196316,"componentType":5123,"count":36,"type":"SCALAR","name":"accessorIndices"},{"bufferView":1,"byteOffset":750192,"componentType":5126,"count":24,"max":[0.83982563,0.025400002,0.0063500004],"min":[6.3589614E-15,-0.025400035,-0.0063500353],"type":"VEC3","name":"accessorPositions"},{"bufferView":2,"byteOffset":500128,"componentType":5126,"count":24,"type":"VEC4","name":"accessorTangents"},{"bufferView":1,"byteOffset":750480,"componentType":5126,"count":24,"type":"VEC3","name":"accessorNormals"},{"bufferView":3,"byteOffset":250064,"componentType":5126,"count":24,"type":"VEC2","name":"accessorUVs"},{"bufferView":0,"byteOffset":196388,"componentType":5123,"count":36,"type":"SCALAR","name":"accessorIndices"},{"bufferView":1,"byteOffset":750768,"componentType":5126,"count":24,"max":[0.83982563,0.025400002,0.006350034],"min":[6.3589614E-15,-0.025400031,-0.0063500004],"type":"VEC3","name":"accessorPositions"},{"bufferView":2,"byteOffset":500512,"componentType":5126,"count":24,"type":"VEC4","name":"accessorTangents"},{"bufferView":1,"byteOffset":751056,"componentType":5126,"count":24,"type":"VEC3","name":"accessorNormals"},{"bufferView":3,"byteOffset":250256,"componentType":5126,"count":24,"type":"VEC2","name":"accessorUVs"},{"bufferView":0,"byteOffset":196460,"componentType":5123,"count":36,"type":"SCALAR","name":"accessorIndices"},{"bufferView":1,"byteOffset":751344,"componentType":5126,"count":24,"max":[0.83982563,0.025400002,0.0063500004],"min":[6.3589614E-15,-0.025400048,-0.0063500004],"type":"VEC3","name":"accessorPositions"},{"bufferView":2,"byteOffset":500896,"componentType":5126,"count":24,"type":"VEC4","name":"accessorTangents"},{"bufferView":1,"byteOffset":751632,"componentType":5126,"count":24,"type":"VEC3","name":"accessorNormals"},{"bufferView":3,"byteOffset":250448,"componentType":5126,"count":24,"type":"VEC2","name":"accessorUVs"},{"bufferView":0,"byteOffset":196532,"componentType":5123,"count":36,"type":"SCALAR","name":"accessorIndices"},{"bufferView":1,"byteOffset":751920,"componentType":5126,"count":24,"max":[0.83982563,0.025400002,0.0063500344],"min":[6.3589614E-15,-0.025400002,-0.0063500004],"type":"VEC3","name":"accessorPositions"},{"bufferView":2,"byteOffset":501280,"componentType":5126,"count":24,"type":"VEC4","name":"accessorTangents"},{"bufferView":1,"byteOffset":752208,"componentType":5126,"count":24,"type":"VEC3","name":"accessorNormals"},{"bufferView":3,"byteOffset":250640,"componentType":5126,"count":24,"type":"VEC2","name":"accessorUVs"},{"bufferView":0,"byteOffset":196604,"componentType":5123,"count":36,"type":"SCALAR","name":"accessorIndices"},{"bufferView":1,"byteOffset":752496,"componentType":5126,"count":24,"max":[0.83982563,0.02540012,0.0063500004],"min":[6.3589614E-15,-0.025400048,-0.0063500484],"type":"VEC3","name":"accessorPositions"},{"bufferView":2,"byteOffset":501664,"componentType":5126,"count":24,"type":"VEC4","name":"accessorTangents"},{"bufferView":1,"byteOffset":752784,"componentType":5126,"count":24,"type":"VEC3","name":"accessorNormals"},{"bufferView":3,"byteOffset":250832,"componentType":5126,"count":24,"type":"VEC2","name":"accessorUVs"},{"bufferView":0,"byteOffset":196676,"componentType":5123,"count":36,"type":"SCALAR","name":"accessorIndices"},{"bufferView":1,"byteOffset":753072,"componentType":5126,"count":24,"max":[0.83982563,0.025400048,0.0063500004],"min":[6.3589614E-15,-0.02540012,-0.00635003],"type":"VEC3","name":"accessorPositions"},{"bufferView":2,"byteOffset":502048,"componentType":5126,"count":24,"type":"VEC4","name":"accessorTangents"},{"bufferView":1,"byteOffset":753360,"componentType":5126,"count":24,"type":"VEC3","name":"accessorNormals"},{"bufferView":3,"byteOffset":251024,"componentType":5126,"count":24,"type":"VEC2","name":"accessorUVs"},{"bufferView":0,"byteOffset":196748,"componentType":5123,"count":36,"type":"SCALAR","name":"accessorIndices"},{"bufferView":1,"byteOffset":753648,"componentType":5126,"count":24,"max":[0.75752556,0.025400048,0.0063500004],"min":[6.3589614E-15,-0.025400048,-0.006350012],"type":"VEC3","name":"accessorPositions"},{"bufferView":2,"byteOffset":502432,"componentType":5126,"count":24,"type":"VEC4","name":"accessorTangents"},{"bufferView":1,"byteOffset":753936,"componentType":5126,"count":24,"type":"VEC3","name":"accessorNormals"},{"bufferView":3,"byteOffset":251216,"componentType":5126,"count":24,"type":"VEC2","name":"accessorUVs"},{"bufferView":0,"byteOffset":196820,"componentType":5123,"count":36,"type":"SCALAR","name":"accessorIndices"},{"bufferView":1,"byteOffset":754224,"componentType":5126,"count":24,"max":[0.75752556,0.025400048,0.0063500004],"min":[6.3589614E-15,-0.025400002,-0.006350121],"type":"VEC3","name":"accessorPositions"},{"bufferView":2,"byteOffset":502816,"componentType":5126,"count":24,"type":"VEC4","name":"accessorTangents"},{"bufferView":1,"byteOffset":754512,"componentType":5126,"count":24,"type":"VEC3","name":"accessorNormals"},{"bufferView":3,"byteOffset":251408,"componentType":5126,"count":24,"type":"VEC2","name":"accessorUVs"},{"bufferView":0,"byteOffset":196892,"componentType":5123,"count":36,"type":"SCALAR","name":"accessorIndices"},{"bufferView":1,"byteOffset":754800,"componentType":5126,"count":24,"max":[0.75752556,0.025400048,0.0063500004],"min":[6.3589614E-15,-0.025400002,-0.0063500004],"type":"VEC3","name":"accessorPositions"},{"bufferView":2,"byteOffset":503200,"componentType":5126,"count":24,"type":"VEC4","name":"accessorTangents"},{"bufferView":1,"byteOffset":755088,"componentType":5126,"count":24,"type":"VEC3","name":"accessorNormals"},{"bufferView":3,"byteOffset":251600,"componentType":5126,"count":24,"type":"VEC2","name":"accessorUVs"},{"bufferView":0,"byteOffset":196964,"componentType":5123,"count":36,"type":"SCALAR","name":"accessorIndices"},{"bufferView":1,"byteOffset":755376,"componentType":5126,"count":24,"max":[0.75752556,0.025400048,0.0063500004],"min":[6.3589614E-15,-0.025400002,-0.0063500004],"type":"VEC3","name":"accessorPositions"},{"bufferView":2,"byteOffset":503584,"componentType":5126,"count":24,"type":"VEC4","name":"accessorTangents"},{"bufferView":1,"byteOffset":755664,"componentType":5126,"count":24,"type":"VEC3","name":"accessorNormals"},{"bufferView":3,"byteOffset":251792,"componentType":5126,"count":24,"type":"VEC2","name":"accessorUVs"},{"bufferView":0,"byteOffset":197036,"componentType":5123,"count":33444,"type":"SCALAR","name":"accessorIndices"},{"bufferView":1,"byteOffset":755952,"componentType":5126,"count":6765,"max":[0.5296706,-0.72898805,1.4910585],"min":[-0.52966243,-0.7625488,1.163663],"type":"VEC3","name":"accessorPositions"},{"bufferView":2,"byteOffset":503968,"componentType":5126,"count":6765,"type":"VEC4","name":"accessorTangents"},{"bufferView":1,"byteOffset":837132,"componentType":5126,"count":6765,"type":"VEC3","name":"accessorNormals"},{"bufferView":3,"byteOffset":251984,"componentType":5126,"count":6765,"type":"VEC2","name":"accessorUVs"},{"bufferView":0,"byteOffset":263924,"componentType":5123,"count":36,"type":"SCALAR","name":"accessorIndices"},{"bufferView":1,"byteOffset":918312,"componentType":5126,"count":24,"max":[0.83982563,0.025400002,0.0063500004],"min":[6.3589614E-15,-0.025400037,-0.0063500484],"type":"VEC3","name":"accessorPositions"},{"bufferView":2,"byteOffset":612208,"componentType":5126,"count":24,"type":"VEC4","name":"accessorTangents"},{"bufferView":1,"byteOffset":918600,"componentType":5126,"count":24,"type":"VEC3","name":"accessorNormals"},{"bufferView":3,"byteOffset":306104,"componentType":5126,"count":24,"type":"VEC2","name":"accessorUVs"},{"bufferView":0,"byteOffset":263996,"componentType":5123,"count":36,"type":"SCALAR","name":"accessorIndices"},{"bufferView":1,"byteOffset":918888,"componentType":5126,"count":24,"max":[0.83982563,0.025400002,0.0063500484],"min":[6.3589614E-15,-0.025400002,-0.0063500004],"type":"VEC3","name":"accessorPositions"},{"bufferView":2,"byteOffset":612592,"componentType":5126,"count":24,"type":"VEC4","name":"accessorTangents"},{"bufferView":1,"byteOffset":919176,"componentType":5126,"count":24,"type":"VEC3","name":"accessorNormals"},{"bufferView":3,"byteOffset":306296,"componentType":5126,"count":24,"type":"VEC2","name":"accessorUVs"},{"bufferView":0,"byteOffset":264068,"componentType":5123,"count":2064,"type":"SCALAR","name":"accessorIndices"},{"bufferView":1,"byteOffset":919464,"componentType":5126,"count":724,"max":[0.019054687,-0.10462099,0.80214816],"min":[-0.019041477,-0.38715136,-0.05929453],"type":"VEC3","name":"accessorPositions"},{"bufferView":2,"byteOffset":612976,"componentType":5126,"count":724,"type":"VEC4","name":"accessorTangents"},{"bufferView":1,"byteOffset":928152,"componentType":5126,"count":724,"type":"VEC3","name":"accessorNormals"},{"bufferView":3,"byteOffset":306488,"componentType":5126,"count":724,"type":"VEC2","name":"accessorUVs"}],"bufferViews":[{"buffer":0,"byteLength":268196,"name":"bufferViewScalar"},{"buffer":0,"byteOffset":268196,"byteLength":936840,"byteStride":12,"name":"bufferViewFloatVec3"},{"buffer":0,"byteOffset":1205036,"byteLength":624560,"byteStride":16,"name":"bufferViewFloatVec4"},{"buffer":0,"byteOffset":1829596,"byteLength":312280,"byteStride":8,"name":"bufferViewFloatVec2"}],"buffers":[{"uri":"U-Shaped_Railing_Kubit.bin","byteLength":2141876}],"materials":[{"pbrMetallicRoughness":{"baseColorFactor":[0.9999998,0.9999999,0.9999999,1.0],"metallicFactor":0.0,"roughnessFactor":0.1},"name":"Glass","extensions":{"KHR_materials_ior":{"ior":1.0},"KHR_materials_transmission":{"transmissionFactor":0.97},"KHR_materials_volume":{"thicknessFactor":0.56,"attenuationDistance":0.5,"attenuationColor":[0.49521634,0.56476736,0.5317566]}}},{"pbrMetallicRoughness":{"baseColorFactor":[0.9999998,0.9999999,0.9999999,1.0],"baseColorTexture":{"index":0,"extensions":{"KHR_texture_transform":{"offset":[0.19519997,0.8048],"rotation":1.5707964,"scale":[0.6096,0.6096],"texCoord":0}}},"roughnessFactor":0.2,"metallicRoughnessTexture":{"index":0,"extensions":{"KHR_texture_transform":{"offset":[0.19519997,0.8048],"rotation":1.5707964,"scale":[0.6096,0.6096],"texCoord":0}}}},"name":"Steel_Linear"},{"pbrMetallicRoughness":{"baseColorFactor":[0.9999998,0.9999999,0.9999999,1.0],"baseColorTexture":{"index":1},"roughnessFactor":0.2,"metallicRoughnessTexture":{"index":1}},"name":"Steel_Radial"},{"pbrMetallicRoughness":{"baseColorFactor":[0.10641303,0.10641304,0.10641304,1.0],"metallicFactor":0.0,"roughnessFactor":0.99,"metallicRoughnessTexture":{"index":2}},"name":"Rubber","extensions":{"KHR_materials_specular":{"specularFactor":0.1}}}],"textures":[{"sampler":0,"source":0,"name":"Metal_Brushed_Linear_4k.jpg"},{"sampler":0,"source":1,"name":"Metal_Brushed_Radial_4k.jpg"},{"sampler":0,"source":2,"name":"PowderCoat_Roughness_2k0.jpg"}],"images":[{"uri":"textures/Metal_Brushed_Linear_4k.jpg"},{"uri":"textures/Metal_Brushed_Radial_4k.jpg"},{"uri":"textures/PowderCoat_Roughness_2k0.jpg"}],"samplers":[{"magFilter":9729,"minFilter":9987}]}