{"asset":{"version":"2.0","generator":"babylon.js glTF exporter for 3dsmax 2026 v20251111.2"},"extensionsUsed":["KHR_lights_punctual","KHR_texture_transform","KHR_materials_clearcoat"],"extensionsRequired":["KHR_texture_transform"],"scene":0,"scenes":[{"nodes":[0,1,2,3,4,5,6,7,8,9,10,11,12,13,14,15,16,17,18,19,20,21,22,23,24,25,26,27,28,29,30,31,32,33,34,35,36,37,38,39,40,41,42,43,44,45,46,47,48,49,50,51,52,53,54,55,56,57,58,59,60,61,62,63,64,65,66,67,68,69,70,71,72,73,74,75,76,77,78,79,80,81,82,83,84,85,86,87,88,89,90,91,92,93,94,95,96,97,98,99,100,101,102,103,104,105,106,107,108,109,110,111,112,113,114,115,116,117,118,119,120,121,122,123,124,125,126,127,128,129,130,131,132,133,134,135,136,137,138,139,140,141,142,143,144,145,146,147,148,149,150,151,152,153,154,155,156,157,158,159,160,161,162,163,164,165,166,167,168,169,170,171,172,173,174,175,176,177,178,179,180,181,182,183,184,185,186,187,188,189,190,191,192,193,194,195,196,197,198,199,200,201,202,203,204,205,206,207,208,209,210,211,212,213,214,215,216,217,218,219,220,221,222,223,224,225,226,227,228,229,230,231,232,233,234,235,236,237,238,239,240,241,242,243,244,245,246,247,248,249,250,251,252,253,254,255,256,257,258,259,260,261,262,263,264,265,266,267,268,269,270,271,272,273,274,275,276,277,278,279,280,281,282,283,284,285,286,287,288,289,290,291,292,293,294,295,296,297,298,299,300,301,302,303,304,305,306,307,308,309]}],"nodes":[{"mesh":0,"translation":[0.16565719,1.9021294,-0.9006246],"rotation":[-0.0,-1.0,0.0,-4.371139E-08],"name":"Landing Attachment_001"},{"mesh":0,"translation":[0.41965792,1.9021294,-0.55062455],"rotation":[-0.0,0.7071068,0.0,0.7071067],"name":"Landing Attachment_003"},{"mesh":0,"translation":[0.1656569,1.9021294,-0.30068433],"rotation":[-0.0,-1.0,0.0,-1.6292068E-07],"name":"Landing Attachment_004"},{"mesh":1,"translation":[0.032307178,1.9021294,-0.95142376],"rotation":[0.5,0.5,0.50000006,0.49999994],"scale":[1.0,0.99999994,0.99999994],"name":"1/2\" Lag Bolt_008"},{"mesh":1,"translation":[0.032307178,1.9021294,-0.849823],"rotation":[0.5,0.5,0.50000006,0.49999994],"scale":[1.0,0.99999994,0.99999994],"name":"1/2\" Lag Bolt_009"},{"mesh":1,"translation":[0.07040719,1.9021294,-0.849823],"rotation":[0.5,0.5,0.50000006,0.49999994],"scale":[1.0,0.99999994,0.99999994],"name":"1/2\" Lag Bolt_010"},{"mesh":1,"translation":[0.07040719,1.9021294,-0.95142376],"rotation":[0.5,0.5,0.50000006,0.49999994],"scale":[1.0,0.99999994,0.99999994],"name":"1/2\" Lag Bolt_011"},{"mesh":1,"translation":[0.2609072,1.9021294,-0.95142376],"rotation":[0.5,0.5,0.50000006,0.49999994],"scale":[1.0,0.99999994,0.99999994],"name":"1/2\" Lag Bolt_012"},{"mesh":1,"translation":[0.29900718,1.9021294,-0.95142376],"rotation":[0.5,0.5,0.50000006,0.49999994],"scale":[1.0,0.99999994,0.99999994],"name":"1/2\" Lag Bolt_013"},{"mesh":1,"translation":[0.2609072,1.9021294,-0.849823],"rotation":[0.5,0.5,0.50000006,0.49999994],"scale":[1.0,0.99999994,0.99999994],"name":"1/2\" Lag Bolt_014"},{"mesh":1,"translation":[0.29900718,1.9021294,-0.849823],"rotation":[0.5,0.5,0.50000006,0.49999994],"scale":[1.0,0.99999994,0.99999994],"name":"1/2\" Lag Bolt_015"},{"mesh":1,"translation":[0.47045717,1.9021294,-0.68397456],"rotation":[1.9037373E-15,1.9037373E-15,0.7071068,0.7071067],"name":"1/2\" Lag Bolt_024"},{"mesh":1,"translation":[0.3688564,1.9021294,-0.68397456],"rotation":[1.9037373E-15,1.9037373E-15,0.7071068,0.7071067],"name":"1/2\" Lag Bolt_025"},{"mesh":1,"translation":[0.3688564,1.9021294,-0.64587456],"rotation":[1.9037373E-15,1.9037373E-15,0.7071068,0.7071067],"name":"1/2\" Lag Bolt_026"},{"mesh":1,"translation":[0.47045717,1.9021294,-0.64587456],"rotation":[1.9037373E-15,1.9037373E-15,0.7071068,0.7071067],"name":"1/2\" Lag Bolt_027"},{"mesh":1,"translation":[0.47045717,1.9021294,-0.45537454],"rotation":[1.9037373E-15,1.9037373E-15,0.7071068,0.7071067],"name":"1/2\" Lag Bolt_028"},{"mesh":1,"translation":[0.47045717,1.9021294,-0.41727453],"rotation":[1.9037373E-15,1.9037373E-15,0.7071068,0.7071067],"name":"1/2\" Lag Bolt_029"},{"mesh":1,"translation":[0.3688564,1.9021294,-0.45537454],"rotation":[1.9037373E-15,1.9037373E-15,0.7071068,0.7071067],"name":"1/2\" Lag Bolt_030"},{"mesh":1,"translation":[0.3688564,1.9021294,-0.41727453],"rotation":[1.9037373E-15,1.9037373E-15,0.7071068,0.7071067],"name":"1/2\" Lag Bolt_031"},{"mesh":1,"translation":[0.032306887,1.9021294,-0.24988511],"rotation":[-0.49999997,-0.5000001,0.50000006,0.49999997],"name":"1/2\" Lag Bolt_032"},{"mesh":1,"translation":[0.032306887,1.9021294,-0.35148585],"rotation":[-0.49999997,-0.5000001,0.50000006,0.49999997],"name":"1/2\" Lag Bolt_033"},{"mesh":1,"translation":[0.0704069,1.9021294,-0.35148585],"rotation":[-0.49999997,-0.5000001,0.50000006,0.49999997],"name":"1/2\" Lag Bolt_034"},{"mesh":1,"translation":[0.0704069,1.9021294,-0.24988511],"rotation":[-0.49999997,-0.5000001,0.50000006,0.49999997],"name":"1/2\" Lag Bolt_035"},{"mesh":1,"translation":[0.2609069,1.9021294,-0.24988511],"rotation":[-0.49999997,-0.5000001,0.50000006,0.49999997],"name":"1/2\" Lag Bolt_036"},{"mesh":1,"translation":[0.2990069,1.9021294,-0.24988511],"rotation":[-0.49999997,-0.5000001,0.50000006,0.49999997],"name":"1/2\" Lag Bolt_037"},{"mesh":1,"translation":[0.2609069,1.9021294,-0.35148585],"rotation":[-0.49999997,-0.5000001,0.50000006,0.49999997],"name":"1/2\" Lag Bolt_038"},{"mesh":1,"translation":[0.2990069,1.9021294,-0.35148585],"rotation":[-0.49999997,-0.5000001,0.50000006,0.49999997],"name":"1/2\" Lag Bolt_039"},{"mesh":2,"translation":[0.24820796,1.8259294,-0.55062455],"rotation":[-0.0,-0.7071068,0.0,0.7071067],"name":"Stringer Attachment_001"},{"mesh":3,"translation":[0.24820796,1.8767294,-0.44902375],"rotation":[3.3937974E-15,-1.0,6.2099294E-17,-4.371139E-08],"name":"3/8\" FHSCS_023"},{"mesh":3,"translation":[0.24820796,1.7751294,-0.44902375],"rotation":[3.3937974E-15,-1.0,6.2099294E-17,-4.371139E-08],"name":"3/8\" FHSCS_022"},{"mesh":3,"translation":[0.24820796,1.7751294,-0.652223],"rotation":[3.3937974E-15,-1.0,6.2099294E-17,-4.371139E-08],"name":"3/8\" FHSCS_024"},{"mesh":3,"translation":[0.24820796,1.8767294,-0.652223],"rotation":[3.3937974E-15,-1.0,6.2099294E-17,-4.371139E-08],"name":"3/8\" FHSCS_025"},{"mesh":3,"translation":[1.6062078,2.4592133,-0.5141105],"rotation":[-3.0908623E-08,0.7071067,0.7071068,3.0908616E-08],"name":"3/8\" FHSCS_030"},{"mesh":3,"translation":[1.6062078,2.4592133,-0.58713627],"rotation":[-3.0908623E-08,0.7071067,0.7071068,3.0908616E-08],"name":"3/8\" FHSCS_031"},{"mesh":3,"translation":[1.6062078,2.3639634,-0.58713627],"rotation":[-3.0908623E-08,0.7071067,0.7071068,3.0908616E-08],"name":"3/8\" FHSCS_032"},{"mesh":3,"translation":[1.6062078,2.3639634,-0.55062455],"rotation":[-3.0908623E-08,0.7071067,0.7071068,3.0908616E-08],"name":"3/8\" FHSCS_033"},{"mesh":3,"translation":[1.6062078,2.3639634,-0.5141082],"rotation":[-3.0908623E-08,0.7071067,0.7071068,3.0908616E-08],"name":"3/8\" FHSCS_034"},{"mesh":3,"translation":[1.6062078,2.4592133,-0.55062455],"rotation":[-3.0908623E-08,0.7071067,0.7071068,3.0908616E-08],"name":"3/8\" FHSCS_035"},{"mesh":3,"translation":[0.21645641,1.7417792,-0.44922608],"rotation":[-0.5,-0.5,0.50000006,0.49999994],"name":"3/8\" FHSCS_036"},{"mesh":3,"translation":[0.21645641,1.7417792,-0.37282375],"rotation":[-0.5,-0.5,0.50000006,0.49999994],"name":"3/8\" FHSCS_037"},{"mesh":3,"translation":[0.114857964,1.7417792,-0.37282375],"rotation":[-0.5,-0.5,0.50000006,0.49999994],"name":"3/8\" FHSCS_038"},{"mesh":3,"translation":[0.114857964,1.7417792,-0.44922608],"rotation":[-0.5,-0.5,0.50000006,0.49999994],"name":"3/8\" FHSCS_039"},{"mesh":3,"translation":[0.114857964,1.7417792,-0.6520207],"rotation":[-0.5,-0.5,0.50000006,0.49999994],"name":"3/8\" FHSCS_040"},{"mesh":3,"translation":[0.114857964,1.7417792,-0.728423],"rotation":[-0.5,-0.5,0.50000006,0.49999994],"name":"3/8\" FHSCS_041"},{"mesh":3,"translation":[0.21645641,1.7417792,-0.728423],"rotation":[-0.5,-0.5,0.50000006,0.49999994],"name":"3/8\" FHSCS_042"},{"mesh":3,"translation":[0.21645641,1.7417792,-0.6520207],"rotation":[-0.5,-0.5,0.50000006,0.49999994],"name":"3/8\" FHSCS_043"},{"mesh":4,"translation":[0.1656569,1.6641074,0.17164497],"rotation":[4.8301995E-08,-0.95504045,-0.29647553,-1.5559584E-07],"name":"Tread Support_012"},{"mesh":4,"translation":[0.1656569,0.7497075,1.5024987],"rotation":[4.8301995E-08,-0.95504045,-0.29647553,-1.5559584E-07],"name":"Tread Support_007"},{"mesh":4,"translation":[0.1656569,0.93258756,1.2363266],"rotation":[4.8301995E-08,-0.95504045,-0.29647553,-1.5559584E-07],"name":"Tread Support_008"},{"mesh":4,"translation":[0.1656569,1.1154675,0.9701567],"rotation":[4.8301995E-08,-0.95504045,-0.29647553,-1.5559584E-07],"name":"Tread Support_009"},{"mesh":4,"translation":[0.1656569,1.4812276,0.4378148],"rotation":[4.8301995E-08,-0.95504045,-0.29647553,-1.5559584E-07],"name":"Tread Support_011"},{"mesh":4,"translation":[0.1656569,1.2983475,0.70398456],"rotation":[4.8301995E-08,-0.95504045,-0.29647553,-1.5559584E-07],"name":"Tread Support_010"},{"mesh":5,"translation":[1.3449574,2.0116796,-0.55062455],"rotation":[-0.0,0.7071068,0.0,0.7071067],"name":"Stair Stringer_Upper"},{"mesh":6,"translation":[0.8989915,2.029922,-0.55062455],"rotation":[0.2094599,-0.67537147,0.20945995,0.67537135],"name":"Tread Support_000"},{"mesh":6,"translation":[1.165466,2.212802,-0.55062455],"rotation":[0.2094599,-0.67537147,0.20945995,0.67537135],"name":"Tread Support_001"},{"mesh":6,"translation":[1.4319403,2.395682,-0.55062455],"rotation":[0.2094599,-0.67537147,0.20945995,0.67537135],"name":"Tread Support_002"},{"mesh":7,"translation":[1.6062078,2.4115884,-0.55062455],"rotation":[-0.0,-0.7071068,0.0,0.7071067],"name":"Header Plate"},{"mesh":8,"translation":[0.30992717,1.7399057,0.19832242],"rotation":[-0.49999997,-0.5000001,0.50000006,0.49999997],"name":"3/8\" Lag Bolt_119"},{"mesh":8,"translation":[0.021384306,1.7399057,0.19832242],"rotation":[-0.49999997,-0.5000001,0.50000006,0.49999997],"name":"3/8\" Lag Bolt_118"},{"mesh":8,"translation":[0.051856864,1.7399057,0.19832242],"rotation":[-0.49999997,-0.5000001,0.50000006,0.49999997],"name":"3/8\" Lag Bolt_117"},{"mesh":8,"translation":[0.2794546,1.7399057,0.19832242],"rotation":[-0.49999997,-0.5000001,0.50000006,0.49999997],"name":"3/8\" Lag Bolt_116"},{"mesh":8,"translation":[0.30992717,1.7399057,0.09503571],"rotation":[-0.5000001,-0.49999997,-0.50000006,-0.49999997],"name":"3/8\" Lag Bolt_115"},{"mesh":8,"translation":[0.021384306,1.7399057,0.09503571],"rotation":[-0.5000001,-0.49999997,-0.50000006,-0.49999997],"name":"3/8\" Lag Bolt_114"},{"mesh":8,"translation":[0.06753033,1.7399057,0.09503571],"rotation":[-0.7071067,-0.7071068,1.9656746E-08,-6.18036E-08],"scale":[1.0,0.99999994,0.99999994],"name":"3/8\" Lag Bolt_113"},{"mesh":8,"translation":[0.26378113,1.7399057,0.09503571],"rotation":[4.0730175E-08,-4.0730175E-08,0.7071068,0.7071067],"scale":[1.0,0.99999994,0.99999994],"name":"3/8\" Lag Bolt_112"},{"mesh":8,"translation":[0.30992717,0.8255058,1.5291785],"rotation":[-0.49999997,-0.5000001,0.50000006,0.49999997],"name":"3/8\" Lag Bolt_111"},{"mesh":8,"translation":[0.021384306,0.8255058,1.5291785],"rotation":[-0.49999997,-0.5000001,0.50000006,0.49999997],"name":"3/8\" Lag Bolt_110"},{"mesh":8,"translation":[0.051856864,0.8255058,1.5291785],"rotation":[-0.49999997,-0.5000001,0.50000006,0.49999997],"name":"3/8\" Lag Bolt_109"},{"mesh":8,"translation":[0.2794546,0.8255058,1.5291785],"rotation":[-0.49999997,-0.5000001,0.50000006,0.49999997],"name":"3/8\" Lag Bolt_108"},{"mesh":8,"translation":[0.30992717,0.8255058,1.4258895],"rotation":[-0.5000001,-0.49999997,-0.50000006,-0.49999997],"name":"3/8\" Lag Bolt_107"},{"mesh":8,"translation":[0.021384306,0.8255058,1.4258895],"rotation":[-0.5000001,-0.49999997,-0.50000006,-0.49999997],"name":"3/8\" Lag Bolt_106"},{"mesh":8,"translation":[0.06753033,0.8255058,1.4258895],"rotation":[-0.7071067,-0.7071068,1.9656746E-08,-6.18036E-08],"scale":[1.0,0.99999994,0.99999994],"name":"3/8\" Lag Bolt_105"},{"mesh":8,"translation":[0.26378113,0.8255058,1.4258895],"rotation":[4.0730175E-08,-4.0730175E-08,0.7071068,0.7071067],"scale":[1.0,0.99999994,0.99999994],"name":"3/8\" Lag Bolt_104"},{"mesh":8,"translation":[0.30992717,1.0083858,1.2630063],"rotation":[-0.49999997,-0.5000001,0.50000006,0.49999997],"name":"3/8\" Lag Bolt_103"},{"mesh":8,"translation":[0.021384306,1.0083858,1.2630063],"rotation":[-0.49999997,-0.5000001,0.50000006,0.49999997],"name":"3/8\" Lag Bolt_102"},{"mesh":8,"translation":[0.051856864,1.0083858,1.2630063],"rotation":[-0.49999997,-0.5000001,0.50000006,0.49999997],"name":"3/8\" Lag Bolt_101"},{"mesh":8,"translation":[0.2794546,1.0083858,1.2630063],"rotation":[-0.49999997,-0.5000001,0.50000006,0.49999997],"name":"3/8\" Lag Bolt_100"},{"mesh":8,"translation":[0.30992717,1.0083858,1.1597196],"rotation":[-0.5000001,-0.49999997,-0.50000006,-0.49999997],"name":"3/8\" Lag Bolt_099"},{"mesh":8,"translation":[0.021384306,1.0083858,1.1597196],"rotation":[-0.5000001,-0.49999997,-0.50000006,-0.49999997],"name":"3/8\" Lag Bolt_098"},{"mesh":8,"translation":[0.06753033,1.0083858,1.1597196],"rotation":[-0.7071067,-0.7071068,1.9656746E-08,-6.18036E-08],"scale":[1.0,0.99999994,0.99999994],"name":"3/8\" Lag Bolt_097"},{"mesh":8,"translation":[0.26378113,1.0083858,1.1597196],"rotation":[4.0730175E-08,-4.0730175E-08,0.7071068,0.7071067],"scale":[1.0,0.99999994,0.99999994],"name":"3/8\" Lag Bolt_096"},{"mesh":8,"translation":[0.8724094,2.105666,-0.6948948],"rotation":[-0.7071068,-0.7071068,-2.6692543E-08,8.850979E-08],"name":"3/8\" Lag Bolt_087"},{"mesh":8,"translation":[0.8724094,2.105666,-0.40635195],"rotation":[-0.7071068,-0.7071068,-2.6692543E-08,8.850979E-08],"name":"3/8\" Lag Bolt_086"},{"mesh":8,"translation":[0.8724094,2.105666,-0.43684542],"rotation":[-0.7071068,-0.7071068,-2.6692543E-08,8.850979E-08],"name":"3/8\" Lag Bolt_085"},{"mesh":8,"translation":[0.8724094,2.105666,-0.6644013],"rotation":[-0.7071068,-0.7071068,-2.6692543E-08,8.850979E-08],"name":"3/8\" Lag Bolt_084"},{"mesh":8,"translation":[0.9756403,2.105666,-0.6948948],"rotation":[1.7227078E-15,1.7227078E-15,0.7071068,0.7071067],"name":"3/8\" Lag Bolt_083"},{"mesh":8,"translation":[0.9756403,2.105666,-0.40635195],"rotation":[1.7227078E-15,1.7227078E-15,0.7071068,0.7071067],"name":"3/8\" Lag Bolt_082"},{"mesh":8,"translation":[0.9756403,2.105666,-0.45249796],"rotation":[-0.5,-0.5,0.50000006,0.49999994],"name":"3/8\" Lag Bolt_081"},{"mesh":8,"translation":[0.9756403,2.105666,-0.64874876],"rotation":[0.5,0.5,0.50000006,0.49999994],"scale":[1.0,0.99999994,0.99999994],"name":"3/8\" Lag Bolt_080"},{"mesh":8,"translation":[1.1388838,2.2885458,-0.6948948],"rotation":[-0.7071068,-0.7071068,-2.6692543E-08,8.850979E-08],"name":"3/8\" Lag Bolt_079"},{"mesh":8,"translation":[1.1388838,2.2885458,-0.40635195],"rotation":[-0.7071068,-0.7071068,-2.6692543E-08,8.850979E-08],"name":"3/8\" Lag Bolt_078"},{"mesh":8,"translation":[1.1388838,2.2885458,-0.43684542],"rotation":[-0.7071068,-0.7071068,-2.6692543E-08,8.850979E-08],"name":"3/8\" Lag Bolt_077"},{"mesh":8,"translation":[1.1388838,2.2885458,-0.6644013],"rotation":[-0.7071068,-0.7071068,-2.6692543E-08,8.850979E-08],"name":"3/8\" Lag Bolt_076"},{"mesh":8,"translation":[1.2421148,2.2885458,-0.6948948],"rotation":[1.7227078E-15,1.7227078E-15,0.7071068,0.7071067],"name":"3/8\" Lag Bolt_075"},{"mesh":8,"translation":[1.2421148,2.2885458,-0.40635195],"rotation":[1.7227078E-15,1.7227078E-15,0.7071068,0.7071067],"name":"3/8\" Lag Bolt_074"},{"mesh":8,"translation":[1.2421148,2.2885458,-0.45249796],"rotation":[-0.5,-0.5,0.50000006,0.49999994],"name":"3/8\" Lag Bolt_073"},{"mesh":8,"translation":[1.2421148,2.2885458,-0.64874876],"rotation":[0.5,0.5,0.50000006,0.49999994],"scale":[1.0,0.99999994,0.99999994],"name":"3/8\" Lag Bolt_072"},{"mesh":8,"translation":[1.4053583,2.471426,-0.6948948],"rotation":[-0.7071068,-0.7071068,-2.6692543E-08,8.850979E-08],"name":"3/8\" Lag Bolt_071"},{"mesh":8,"translation":[1.4053583,2.471426,-0.40635195],"rotation":[-0.7071068,-0.7071068,-2.6692543E-08,8.850979E-08],"name":"3/8\" Lag Bolt_070"},{"mesh":8,"translation":[1.4053583,2.471426,-0.43684542],"rotation":[-0.7071068,-0.7071068,-2.6692543E-08,8.850979E-08],"name":"3/8\" Lag Bolt_069"},{"mesh":8,"translation":[1.4053583,2.471426,-0.6644013],"rotation":[-0.7071068,-0.7071068,-2.6692543E-08,8.850979E-08],"name":"3/8\" Lag Bolt_068"},{"mesh":8,"translation":[1.5085891,2.471426,-0.6948948],"rotation":[1.7227078E-15,1.7227078E-15,0.7071068,0.7071067],"name":"3/8\" Lag Bolt_067"},{"mesh":8,"translation":[1.5085891,2.471426,-0.40635195],"rotation":[1.7227078E-15,1.7227078E-15,0.7071068,0.7071067],"name":"3/8\" Lag Bolt_066"},{"mesh":8,"translation":[1.5085891,2.471426,-0.45249796],"rotation":[-0.5,-0.5,0.50000006,0.49999994],"name":"3/8\" Lag Bolt_065"},{"mesh":8,"translation":[1.5085891,2.471426,-0.64874876],"rotation":[0.5,0.5,0.50000006,0.49999994],"scale":[1.0,0.99999994,0.99999994],"name":"3/8\" Lag Bolt_064"},{"mesh":8,"translation":[0.30992717,1.1912658,0.9968365],"rotation":[-0.49999997,-0.5000001,0.50000006,0.49999997],"name":"3/8\" Lag Bolt_063"},{"mesh":8,"translation":[0.021384306,1.1912658,0.9968365],"rotation":[-0.49999997,-0.5000001,0.50000006,0.49999997],"name":"3/8\" Lag Bolt_062"},{"mesh":8,"translation":[0.051856864,1.1912658,0.9968365],"rotation":[-0.49999997,-0.5000001,0.50000006,0.49999997],"name":"3/8\" Lag Bolt_061"},{"mesh":8,"translation":[0.2794546,1.1912658,0.9968365],"rotation":[-0.49999997,-0.5000001,0.50000006,0.49999997],"name":"3/8\" Lag Bolt_060"},{"mesh":8,"translation":[0.30992717,1.1912658,0.8935474],"rotation":[-0.5000001,-0.49999997,-0.50000006,-0.49999997],"name":"3/8\" Lag Bolt_059"},{"mesh":8,"translation":[0.021384306,1.1912658,0.8935474],"rotation":[-0.5000001,-0.49999997,-0.50000006,-0.49999997],"name":"3/8\" Lag Bolt_058"},{"mesh":8,"translation":[0.06753033,1.1912658,0.8935474],"rotation":[-0.7071067,-0.7071068,1.9656746E-08,-6.18036E-08],"scale":[1.0,0.99999994,0.99999994],"name":"3/8\" Lag Bolt_057"},{"mesh":8,"translation":[0.26378113,1.1912658,0.8935474],"rotation":[4.0730175E-08,-4.0730175E-08,0.7071068,0.7071067],"scale":[1.0,0.99999994,0.99999994],"name":"3/8\" Lag Bolt_056"},{"mesh":8,"translation":[0.30992717,1.5570258,0.4644946],"rotation":[-0.49999997,-0.5000001,0.50000006,0.49999997],"name":"3/8\" Lag Bolt_039"},{"mesh":8,"translation":[0.021384306,1.5570258,0.4644946],"rotation":[-0.49999997,-0.5000001,0.50000006,0.49999997],"name":"3/8\" Lag Bolt_038"},{"mesh":8,"translation":[0.051856864,1.5570258,0.4644946],"rotation":[-0.49999997,-0.5000001,0.50000006,0.49999997],"name":"3/8\" Lag Bolt_037"},{"mesh":8,"translation":[0.2794546,1.5570258,0.4644946],"rotation":[-0.49999997,-0.5000001,0.50000006,0.49999997],"name":"3/8\" Lag Bolt_036"},{"mesh":8,"translation":[0.30992717,1.5570258,0.36120555],"rotation":[-0.5000001,-0.49999997,-0.50000006,-0.49999997],"name":"3/8\" Lag Bolt_035"},{"mesh":8,"translation":[0.021384306,1.5570258,0.36120555],"rotation":[-0.5000001,-0.49999997,-0.50000006,-0.49999997],"name":"3/8\" Lag Bolt_034"},{"mesh":8,"translation":[0.06753033,1.5570258,0.36120555],"rotation":[-0.7071067,-0.7071068,1.9656746E-08,-6.18036E-08],"scale":[1.0,0.99999994,0.99999994],"name":"3/8\" Lag Bolt_033"},{"mesh":8,"translation":[0.26378113,1.5570258,0.36120555],"rotation":[4.0730175E-08,-4.0730175E-08,0.7071068,0.7071067],"scale":[1.0,0.99999994,0.99999994],"name":"3/8\" Lag Bolt_032"},{"mesh":8,"translation":[0.30992717,1.3741457,0.7306644],"rotation":[-0.49999997,-0.5000001,0.50000006,0.49999997],"name":"3/8\" Lag Bolt_031"},{"mesh":8,"translation":[0.021384306,1.3741457,0.7306644],"rotation":[-0.49999997,-0.5000001,0.50000006,0.49999997],"name":"3/8\" Lag Bolt_030"},{"mesh":8,"translation":[0.051856864,1.3741457,0.7306644],"rotation":[-0.49999997,-0.5000001,0.50000006,0.49999997],"name":"3/8\" Lag Bolt_029"},{"mesh":8,"translation":[0.2794546,1.3741457,0.7306644],"rotation":[-0.49999997,-0.5000001,0.50000006,0.49999997],"name":"3/8\" Lag Bolt_028"},{"mesh":8,"translation":[0.30992717,1.3741457,0.6273776],"rotation":[-0.5000001,-0.49999997,-0.50000006,-0.49999997],"name":"3/8\" Lag Bolt_027"},{"mesh":8,"translation":[0.021384306,1.3741457,0.6273776],"rotation":[-0.5000001,-0.49999997,-0.50000006,-0.49999997],"name":"3/8\" Lag Bolt_026"},{"mesh":8,"translation":[0.06753033,1.3741457,0.6273776],"rotation":[-0.7071067,-0.7071068,1.9656746E-08,-6.18036E-08],"scale":[1.0,0.99999994,0.99999994],"name":"3/8\" Lag Bolt_025"},{"mesh":8,"translation":[0.26378113,1.3741457,0.6273776],"rotation":[4.0730175E-08,-4.0730175E-08,0.7071068,0.7071067],"scale":[1.0,0.99999994,0.99999994],"name":"3/8\" Lag Bolt_024"},{"mesh":8,"translation":[0.03865796,0.009713924,-0.423623],"rotation":[-0.5,0.5,0.5,-0.5],"scale":[1.0,0.99999994,0.99999994],"name":"3/8\" Lag Bolt_015"},{"mesh":8,"translation":[0.29265642,0.009713924,-0.423623],"rotation":[-0.5,0.5,0.5,-0.5],"scale":[1.0,0.99999994,0.99999994],"name":"3/8\" Lag Bolt_014"},{"mesh":8,"translation":[0.16565719,0.009713924,-0.423623],"rotation":[-0.5,0.5,0.5,-0.5],"scale":[1.0,0.99999994,0.99999994],"name":"3/8\" Lag Bolt_013"},{"mesh":8,"translation":[0.29265642,0.009713924,-0.55062455],"rotation":[-0.5,0.5,0.5,-0.5],"scale":[1.0,0.99999994,0.99999994],"name":"3/8\" Lag Bolt_012"},{"mesh":8,"translation":[0.03865796,0.009713924,-0.55062455],"rotation":[-0.5,0.5,0.5,-0.5],"scale":[1.0,0.99999994,0.99999994],"name":"3/8\" Lag Bolt_011"},{"mesh":8,"translation":[0.03865796,0.009713924,-0.67762375],"rotation":[-0.5,0.5,0.5,-0.5],"scale":[1.0,0.99999994,0.99999994],"name":"3/8\" Lag Bolt_010"},{"mesh":8,"translation":[0.16565719,0.009713924,-0.67762375],"rotation":[-0.5,0.5,0.5,-0.5],"scale":[1.0,0.99999994,0.99999994],"name":"3/8\" Lag Bolt_009"},{"mesh":8,"translation":[0.29265642,0.009713924,-0.67762375],"rotation":[-0.5,0.5,0.5,-0.5],"scale":[1.0,0.99999994,0.99999994],"name":"3/8\" Lag Bolt_008"},{"mesh":9,"translation":[1.6062078,2.4115884,-0.55062455],"rotation":[-0.0,-0.7071068,0.0,0.7071067],"name":"Header Plate Cover"},{"mesh":10,"translation":[0.16565719,0.7410446,-0.55062455],"rotation":[0.5,0.5,0.50000006,0.49999994],"scale":[1.0,0.99999994,0.99999994],"name":"Column Tube"},{"mesh":11,"translation":[0.16565719,0.00018892379,-0.55062455],"rotation":[-0.0,-1.0,0.0,-4.371139E-08],"name":"Column Footer Plate"},{"mesh":12,"translation":[0.16565719,1.7417792,-0.55062455],"rotation":[-0.0,0.7071068,0.0,0.7071067],"name":"Column to Stringer Plate"},{"mesh":13,"translation":[1.3056384,2.466539,-0.55062425],"name":"Tread LED_045"},{"mesh":13,"translation":[1.039165,2.2836592,-0.55062425],"name":"Tread LED_046"},{"mesh":13,"translation":[0.77269167,2.1007793,-0.55062425],"name":"Tread LED_047"},{"mesh":13,"translation":[0.1656098,1.917898,0.02541437],"rotation":[-0.0,-0.7071068,0.0,0.7071067],"name":"Tread LED_048"},{"mesh":13,"translation":[0.1656098,1.7350179,0.29803583],"rotation":[-0.0,-0.7071068,0.0,0.7071067],"name":"Tread LED_049"},{"mesh":13,"translation":[0.1656098,1.552138,0.56420565],"rotation":[-0.0,-0.7071068,0.0,0.7071067],"name":"Tread LED_050"},{"mesh":13,"translation":[0.1656098,1.369258,0.83037543],"rotation":[-0.0,-0.7071068,0.0,0.7071067],"name":"Tread LED_051"},{"mesh":13,"translation":[0.1656098,1.186378,1.0965452],"rotation":[-0.0,-0.7071068,0.0,0.7071067],"name":"Tread LED_052"},{"mesh":13,"translation":[0.1656098,1.003498,1.3627151],"rotation":[-0.0,-0.7071068,0.0,0.7071067],"name":"Tread LED_053"},{"mesh":13,"translation":[0.16572855,0.8208102,1.6302807],"rotation":[-0.0,0.7071068,0.0,0.7071067],"name":"Tread LED_035"},{"mesh":13,"translation":[0.74176663,0.63792896,2.2373624],"name":"Tread LED_021"},{"mesh":13,"translation":[1.0143883,0.4550488,2.2373624],"name":"Tread LED_022"},{"mesh":13,"translation":[1.2805582,0.27216884,2.2373624],"name":"Tread LED_023"},{"mesh":13,"translation":[1.5467279,0.08928886,2.2373624],"name":"Tread LED_024"},{"mesh":14,"translation":[1.5776312,2.7178,-0.5506246],"name":"Floor Nosing002"},{"mesh":15,"translation":[0.16565719,1.9608796,-0.550615],"name":"Landing001"},{"mesh":16,"translation":[1.1621575,2.3266397,-0.5506245],"rotation":[-0.0,1.7484555E-07,0.0,1.0],"name":"Tread Block_053"},{"mesh":17,"translation":[0.8956831,2.1437597,-0.5506245],"rotation":[-0.0,1.7484555E-07,0.0,1.0],"name":"Tread Block_054"},{"mesh":18,"translation":[1.428632,2.5095196,-0.5506245],"rotation":[-0.0,1.7484555E-07,0.0,1.0],"name":"Tread Block_055"},{"mesh":19,"translation":[0.1656569,1.7779996,0.17503692],"rotation":[-0.0,2.1855694E-08,0.0,1.0],"name":"Tread Block_077"},{"mesh":20,"translation":[0.1656569,1.5951195,0.44120675],"rotation":[-0.0,2.1855694E-08,0.0,1.0],"name":"Tread Block_072"},{"mesh":21,"translation":[0.1656569,1.4122397,0.70737654],"rotation":[-0.0,2.1855694E-08,0.0,1.0],"name":"Tread Block_073"},{"mesh":22,"translation":[0.1656569,1.2293596,0.97354865],"rotation":[-0.0,2.1855694E-08,0.0,1.0],"name":"Tread Block_074"},{"mesh":23,"translation":[0.1656569,1.0464796,1.2397186],"rotation":[-0.0,2.1855694E-08,0.0,1.0],"name":"Tread Block_075"},{"mesh":24,"translation":[0.1656569,0.8635996,1.5058906],"rotation":[-0.0,2.1855694E-08,0.0,1.0],"name":"Tread Block_076"},{"mesh":25,"translation":[-0.23507127,0.6221603,2.3706658],"rotation":[-0.7071067,-0.7071068,-4.073017E-08,4.0730168E-08],"scale":[1.0,0.99999994,0.99999994],"name":"1/2\" Lag Bolt_040"},{"mesh":25,"translation":[-0.13347064,0.6221603,2.3706658],"rotation":[-0.7071067,-0.7071068,-4.073017E-08,4.0730168E-08],"scale":[1.0,0.99999994,0.99999994],"name":"1/2\" Lag Bolt_041"},{"mesh":25,"translation":[-0.13347064,0.6221603,2.3325658],"rotation":[-0.7071067,-0.7071068,-4.073017E-08,4.0730168E-08],"scale":[1.0,0.99999994,0.99999994],"name":"1/2\" Lag Bolt_042"},{"mesh":25,"translation":[-0.23507127,0.6221603,2.3325658],"rotation":[-0.7071067,-0.7071068,-4.073017E-08,4.0730168E-08],"scale":[1.0,0.99999994,0.99999994],"name":"1/2\" Lag Bolt_043"},{"mesh":25,"translation":[-0.23507127,0.6221603,2.1420658],"rotation":[-0.7071067,-0.7071068,-4.073017E-08,4.0730168E-08],"scale":[1.0,0.99999994,0.99999994],"name":"1/2\" Lag Bolt_044"},{"mesh":25,"translation":[-0.23507127,0.6221603,2.1039658],"rotation":[-0.7071067,-0.7071068,-4.073017E-08,4.0730168E-08],"scale":[1.0,0.99999994,0.99999994],"name":"1/2\" Lag Bolt_045"},{"mesh":25,"translation":[-0.13347064,0.6221603,2.1420658],"rotation":[-0.7071067,-0.7071068,-4.073017E-08,4.0730168E-08],"scale":[1.0,0.99999994,0.99999994],"name":"1/2\" Lag Bolt_046"},{"mesh":25,"translation":[-0.13347064,0.6221603,2.1039658],"rotation":[-0.7071067,-0.7071068,-4.073017E-08,4.0730168E-08],"scale":[1.0,0.99999994,0.99999994],"name":"1/2\" Lag Bolt_047"},{"mesh":25,"translation":[0.032377966,0.6221603,1.9325157],"rotation":[-0.49999997,-0.5000001,-0.50000006,-0.49999997],"name":"1/2\" Lag Bolt_048"},{"mesh":25,"translation":[0.032377966,0.6221603,2.0341165],"rotation":[-0.49999997,-0.5000001,-0.50000006,-0.49999997],"name":"1/2\" Lag Bolt_049"},{"mesh":25,"translation":[0.07047797,0.6221603,2.0341165],"rotation":[-0.49999997,-0.5000001,-0.50000006,-0.49999997],"name":"1/2\" Lag Bolt_050"},{"mesh":25,"translation":[0.07047797,0.6221603,1.9325157],"rotation":[-0.49999997,-0.5000001,-0.50000006,-0.49999997],"name":"1/2\" Lag Bolt_051"},{"mesh":25,"translation":[0.26097798,0.6221603,1.9325157],"rotation":[-0.49999997,-0.5000001,-0.50000006,-0.49999997],"name":"1/2\" Lag Bolt_052"},{"mesh":25,"translation":[0.29907796,0.6221603,1.9325157],"rotation":[-0.49999997,-0.5000001,-0.50000006,-0.49999997],"name":"1/2\" Lag Bolt_053"},{"mesh":25,"translation":[0.26097798,0.6221603,2.0341165],"rotation":[-0.49999997,-0.5000001,-0.50000006,-0.49999997],"name":"1/2\" Lag Bolt_054"},{"mesh":25,"translation":[0.29907796,0.6221603,2.0341165],"rotation":[-0.49999997,-0.5000001,-0.50000006,-0.49999997],"name":"1/2\" Lag Bolt_055"},{"mesh":25,"translation":[0.4664671,0.6221603,2.3706658],"rotation":[-0.0,-0.0,0.7071068,0.7071067],"name":"1/2\" Lag Bolt_056"},{"mesh":25,"translation":[0.3648664,0.6221603,2.3706658],"rotation":[-0.0,-0.0,0.7071068,0.7071067],"name":"1/2\" Lag Bolt_057"},{"mesh":25,"translation":[0.3648664,0.6221603,2.3325658],"rotation":[-0.0,-0.0,0.7071068,0.7071067],"name":"1/2\" Lag Bolt_058"},{"mesh":25,"translation":[0.4664671,0.6221603,2.3325658],"rotation":[-0.0,-0.0,0.7071068,0.7071067],"name":"1/2\" Lag Bolt_059"},{"mesh":25,"translation":[0.46646714,0.6221603,2.1420658],"rotation":[-0.0,-0.0,0.7071068,0.7071067],"name":"1/2\" Lag Bolt_060"},{"mesh":25,"translation":[0.46646714,0.6221603,2.1039658],"rotation":[-0.0,-0.0,0.7071068,0.7071067],"name":"1/2\" Lag Bolt_061"},{"mesh":25,"translation":[0.3648664,0.6221603,2.1420658],"rotation":[-0.0,-0.0,0.7071068,0.7071067],"name":"1/2\" Lag Bolt_062"},{"mesh":25,"translation":[0.3648664,0.6221603,2.1039658],"rotation":[-0.0,-0.0,0.7071068,0.7071067],"name":"1/2\" Lag Bolt_063"},{"mesh":26,"translation":[0.26732874,0.49516022,2.1547651],"rotation":[2.4436881E-15,-0.7071068,-2.3558665E-15,0.7071067],"name":"3/8\" FHSCS_044"},{"mesh":26,"translation":[0.26732874,0.5967603,2.1547651],"rotation":[2.4436881E-15,-0.7071068,-2.3558665E-15,0.7071067],"name":"3/8\" FHSCS_045"},{"mesh":26,"translation":[0.06412952,0.49516022,2.1547651],"rotation":[2.4436881E-15,-0.7071068,-2.3558665E-15,0.7071067],"name":"3/8\" FHSCS_046"},{"mesh":26,"translation":[0.06412952,0.5967603,2.1547651],"rotation":[2.4436881E-15,-0.7071068,-2.3558665E-15,0.7071067],"name":"3/8\" FHSCS_047"},{"mesh":26,"translation":[0.26712644,0.46181008,2.1865165],"rotation":[1.4166681E-09,8.287703E-08,0.7071068,0.7071067],"name":"3/8\" FHSCS_054"},{"mesh":26,"translation":[0.34352875,0.46181008,2.1865165],"rotation":[1.4166681E-09,8.287703E-08,0.7071068,0.7071067],"name":"3/8\" FHSCS_055"},{"mesh":26,"translation":[0.34352875,0.46181008,2.288115],"rotation":[1.4166681E-09,8.287703E-08,0.7071068,0.7071067],"name":"3/8\" FHSCS_056"},{"mesh":26,"translation":[0.26712644,0.46181008,2.288115],"rotation":[1.4166681E-09,8.287703E-08,0.7071068,0.7071067],"name":"3/8\" FHSCS_057"},{"mesh":26,"translation":[0.06433183,0.46181008,2.288115],"rotation":[1.4166681E-09,8.287703E-08,0.7071068,0.7071067],"name":"3/8\" FHSCS_058"},{"mesh":26,"translation":[-0.012070484,0.46181008,2.288115],"rotation":[1.4166681E-09,8.287703E-08,0.7071068,0.7071067],"name":"3/8\" FHSCS_059"},{"mesh":26,"translation":[-0.012070484,0.46181008,2.1865165],"rotation":[1.4166681E-09,8.287703E-08,0.7071068,0.7071067],"name":"3/8\" FHSCS_060"},{"mesh":26,"translation":[0.06433183,0.46181008,2.1865165],"rotation":[1.4166681E-09,8.287703E-08,0.7071068,0.7071067],"name":"3/8\" FHSCS_061"},{"mesh":27,"translation":[1.1717942,0.012888948,2.3643174],"rotation":[-0.5,0.5,0.5,-0.5],"name":"3/8\" Lag Bolt_120"},{"mesh":27,"translation":[1.3178434,0.012888948,2.3643174],"rotation":[-0.5,0.5,0.5,-0.5],"name":"3/8\" Lag Bolt_121"},{"mesh":27,"translation":[1.463895,0.012888948,2.3643174],"rotation":[-0.5,0.5,0.5,-0.5],"name":"3/8\" Lag Bolt_122"},{"mesh":27,"translation":[1.463895,0.012888948,2.237316],"rotation":[-0.5,0.5,0.5,-0.5],"name":"3/8\" Lag Bolt_123"},{"mesh":27,"translation":[1.463895,0.012888948,2.1103165],"rotation":[-0.5,0.5,0.5,-0.5],"name":"3/8\" Lag Bolt_124"},{"mesh":27,"translation":[1.3178434,0.012888948,2.1103165],"rotation":[-0.5,0.5,0.5,-0.5],"name":"3/8\" Lag Bolt_125"},{"mesh":27,"translation":[1.1717942,0.012888948,2.1103165],"rotation":[-0.5,0.5,0.5,-0.5],"name":"3/8\" Lag Bolt_126"},{"mesh":27,"translation":[0.03872874,0.00971396,2.1103165],"rotation":[1.0927849E-08,1.0927848E-08,-0.7071068,0.7071068],"scale":[1.0,0.99999994,0.99999994],"name":"3/8\" Lag Bolt_127"},{"mesh":27,"translation":[0.03872874,0.00971396,2.237316],"rotation":[1.0927849E-08,1.0927848E-08,-0.7071068,0.7071068],"scale":[1.0,0.99999994,0.99999994],"name":"3/8\" Lag Bolt_128"},{"mesh":27,"translation":[0.03872874,0.00971396,2.364315],"rotation":[1.0927849E-08,1.0927848E-08,-0.7071068,0.7071068],"scale":[1.0,0.99999994,0.99999994],"name":"3/8\" Lag Bolt_129"},{"mesh":27,"translation":[0.16572797,0.00971396,2.364315],"rotation":[1.0927849E-08,1.0927848E-08,-0.7071068,0.7071068],"scale":[1.0,0.99999994,0.99999994],"name":"3/8\" Lag Bolt_130"},{"mesh":27,"translation":[0.16572797,0.00971396,2.1103165],"rotation":[1.0927849E-08,1.0927848E-08,-0.7071068,0.7071068],"scale":[1.0,0.99999994,0.99999994],"name":"3/8\" Lag Bolt_131"},{"mesh":27,"translation":[0.29272953,0.00971396,2.237316],"rotation":[1.0927849E-08,1.0927848E-08,-0.7071068,0.7071068],"scale":[1.0,0.99999994,0.99999994],"name":"3/8\" Lag Bolt_132"},{"mesh":27,"translation":[0.29272953,0.00971396,2.1103165],"rotation":[1.0927849E-08,1.0927848E-08,-0.7071068,0.7071068],"scale":[1.0,0.99999994,0.99999994],"name":"3/8\" Lag Bolt_133"},{"mesh":27,"translation":[0.29272953,0.00971396,2.364315],"rotation":[1.0927849E-08,1.0927848E-08,-0.7071068,0.7071068],"scale":[1.0,0.99999994,0.99999994],"name":"3/8\" Lag Bolt_134"},{"mesh":27,"translation":[1.3437297,0.09417665,2.1391916],"rotation":[0.5,0.5,0.50000006,0.49999994],"scale":[1.0,0.99999994,0.99999994],"name":"3/8\" Lag Bolt_143"},{"mesh":27,"translation":[1.3437297,0.09417665,2.3354423],"rotation":[-0.5,-0.5,0.50000006,0.49999994],"name":"3/8\" Lag Bolt_144"},{"mesh":27,"translation":[1.3437297,0.09417665,2.3815885],"rotation":[-0.7071068,-0.7071068,-2.6692543E-08,8.850979E-08],"name":"3/8\" Lag Bolt_145"},{"mesh":27,"translation":[1.3437297,0.09417665,2.0930455],"rotation":[-0.7071068,-0.7071068,-2.6692543E-08,8.850979E-08],"name":"3/8\" Lag Bolt_146"},{"mesh":27,"translation":[1.4470165,0.09417665,2.123518],"rotation":[-0.0,-0.0,0.7071068,0.7071067],"name":"3/8\" Lag Bolt_147"},{"mesh":27,"translation":[1.4470165,0.09417665,2.3511157],"rotation":[-0.0,-0.0,0.7071068,0.7071067],"name":"3/8\" Lag Bolt_148"},{"mesh":27,"translation":[1.4470165,0.09417665,2.3815885],"rotation":[-0.0,-0.0,0.7071068,0.7071067],"name":"3/8\" Lag Bolt_149"},{"mesh":27,"translation":[1.4470165,0.09417665,2.0930455],"rotation":[-0.0,-0.0,0.7071068,0.7071067],"name":"3/8\" Lag Bolt_150"},{"mesh":27,"translation":[1.0775577,0.27705663,2.1391916],"rotation":[0.5,0.5,0.50000006,0.49999994],"scale":[1.0,0.99999994,0.99999994],"name":"3/8\" Lag Bolt_151"},{"mesh":27,"translation":[1.0775577,0.27705663,2.3354423],"rotation":[-0.5,-0.5,0.50000006,0.49999994],"name":"3/8\" Lag Bolt_152"},{"mesh":27,"translation":[1.0775577,0.27705663,2.3815885],"rotation":[-0.7071068,-0.7071068,-2.6692543E-08,8.850979E-08],"name":"3/8\" Lag Bolt_153"},{"mesh":27,"translation":[1.0775577,0.27705663,2.0930455],"rotation":[-0.7071068,-0.7071068,-2.6692543E-08,8.850979E-08],"name":"3/8\" Lag Bolt_154"},{"mesh":27,"translation":[1.1808468,0.27705663,2.123518],"rotation":[-0.0,-0.0,0.7071068,0.7071067],"name":"3/8\" Lag Bolt_155"},{"mesh":27,"translation":[1.1808468,0.27705663,2.3511157],"rotation":[-0.0,-0.0,0.7071068,0.7071067],"name":"3/8\" Lag Bolt_156"},{"mesh":27,"translation":[1.1808468,0.27705663,2.3815885],"rotation":[-0.0,-0.0,0.7071068,0.7071067],"name":"3/8\" Lag Bolt_157"},{"mesh":27,"translation":[1.1808468,0.27705663,2.0930455],"rotation":[-0.0,-0.0,0.7071068,0.7071067],"name":"3/8\" Lag Bolt_158"},{"mesh":27,"translation":[0.8113879,0.45993665,2.1391916],"rotation":[0.5,0.5,0.50000006,0.49999994],"scale":[1.0,0.99999994,0.99999994],"name":"3/8\" Lag Bolt_231"},{"mesh":27,"translation":[0.8113879,0.45993665,2.3354423],"rotation":[-0.5,-0.5,0.50000006,0.49999994],"name":"3/8\" Lag Bolt_232"},{"mesh":27,"translation":[0.8113879,0.45993665,2.3815885],"rotation":[-0.7071068,-0.7071068,-2.6692543E-08,8.850979E-08],"name":"3/8\" Lag Bolt_233"},{"mesh":27,"translation":[0.8113879,0.45993665,2.0930455],"rotation":[-0.7071068,-0.7071068,-2.6692543E-08,8.850979E-08],"name":"3/8\" Lag Bolt_234"},{"mesh":27,"translation":[0.91467464,0.45993665,2.123518],"rotation":[-0.0,-0.0,0.7071068,0.7071067],"name":"3/8\" Lag Bolt_235"},{"mesh":27,"translation":[0.91467464,0.45993665,2.3511157],"rotation":[-0.0,-0.0,0.7071068,0.7071067],"name":"3/8\" Lag Bolt_236"},{"mesh":27,"translation":[0.91467464,0.45993665,2.3815885],"rotation":[-0.0,-0.0,0.7071068,0.7071067],"name":"3/8\" Lag Bolt_237"},{"mesh":27,"translation":[0.91467464,0.45993665,2.0930455],"rotation":[-0.0,-0.0,0.7071068,0.7071067],"name":"3/8\" Lag Bolt_238"},{"mesh":28,"translation":[0.16572797,0.00018896013,2.237316],"rotation":[-0.0,-0.7071068,0.0,0.7071067],"name":"Column Footer Plate001"},{"mesh":29,"translation":[0.16572797,0.00971396,2.237316],"rotation":[-0.7071067,-0.7071068,-4.073017E-08,4.0730168E-08],"scale":[1.0,0.99999994,0.99999994],"name":"Column Tube001"},{"mesh":30,"translation":[0.16572797,0.46181008,2.237316],"rotation":[-0.0,-1.0,0.0,4.371139E-08],"name":"Column to Stringer Plate001"},{"mesh":31,"translation":[1.2851547,0.00018896013,2.237316],"rotation":[-0.0,-0.7071069,0.0,0.70710665],"name":"Footer Plate001"},{"mesh":32,"translation":[-0.18427204,0.6221603,2.237316],"rotation":[-0.0,-0.7071068,0.0,0.7071067],"name":"Landing Attachment_005"},{"mesh":32,"translation":[0.16572797,0.6221603,1.983315],"rotation":[-0.0,-1.0,0.0,4.371139E-08],"name":"Landing Attachment_006"},{"mesh":32,"translation":[0.41566792,0.6221603,2.237316],"rotation":[-0.0,-0.7071069,0.0,0.70710665],"name":"Landing Attachment_007"},{"mesh":33,"translation":[0.16573727,0.68091047,2.237316],"rotation":[-0.0,0.7071068,0.0,0.7071067],"name":"Landing003"},{"mesh":34,"translation":[0.16569245,1.1859448,0.5891472],"rotation":[-0.0,8.742278E-08,0.0,1.0],"name":"Stair Stringer_Upper001"},{"mesh":35,"translation":[0.16572797,0.54596025,2.1547651],"rotation":[-0.0,-5.9604645E-08,0.0,1.0],"name":"Stringer Attachment_002"},{"mesh":36,"translation":[-0.2671379,0.54596025,2.237316],"rotation":[-0.0,-0.7071068,0.0,0.7071067],"name":"Stringer End Cap_001"},{"mesh":37,"translation":[1.1575594,0.31515044,2.237316],"name":"Tread Block_098"},{"mesh":38,"translation":[1.4237293,0.13227047,2.237316],"name":"Tread Block_099"},{"mesh":39,"translation":[0.89138967,0.4980304,2.237316],"name":"Tread Block_103"},{"mesh":40,"translation":[1.4203367,0.018378403,2.237316],"rotation":[-0.20963983,-0.67531574,-0.2096399,0.6753155],"name":"Tread Support_023"},{"mesh":40,"translation":[1.1541669,0.2012584,2.237316],"rotation":[-0.20963983,-0.67531574,-0.2096399,0.6753155],"name":"Tread Support_024"},{"mesh":40,"translation":[0.8879972,0.38413838,2.237316],"rotation":[-0.20963983,-0.67531574,-0.2096399,0.6753155],"name":"Tread Support_025"},{"mesh":41,"translation":[2.0412662,-0.5484496,2.237316],"rotation":[-0.0,0.7071068,0.0,0.7071067],"name":"Stair Stringer_Lower002"},{"mesh":42,"translation":[0.16060524,0.00971397,2.2373157],"name":"Mr Bob"},{"mesh":43,"translation":[0.16563506,1.8005294,-1.520227],"name":"Stringer to Wall-Wood Blocking Part [7641775]"},{"mesh":44,"translation":[0.2926589,1.8005306,-1.5119048],"name":"5/8\" Lag_017"},{"mesh":45,"translation":[0.2926589,1.7243305,-1.5119048],"name":"5/8\" Lag_018"},{"mesh":46,"translation":[0.2926589,1.8767306,-1.5119048],"name":"5/8\" Lag_019"},{"mesh":47,"translation":[0.038660437,1.8767306,-1.5119048],"name":"5/8\" Lag_020"},{"mesh":48,"translation":[0.038660437,1.8005306,-1.5119048],"name":"5/8\" Lag_021"},{"mesh":49,"translation":[0.038660437,1.7243305,-1.5119048],"name":"5/8\" Lag_022"},{"mesh":50,"translation":[0.16566199,1.7243305,-1.5119048],"name":"5/8\" Lag_023"},{"translation":[0.7727853,2.1004438,-0.550623],"rotation":[-0.70710677,-0.0,0.0,0.70710677],"name":"Tread LED_Light_000","extensions":{"KHR_lights_punctual":{"light":0}}},{"translation":[0.1656569,1.7347069,0.29803583],"rotation":[-0.49999994,-0.5,-0.5,0.49999994],"name":"Tread LED_Light_029","extensions":{"KHR_lights_punctual":{"light":1}}},{"translation":[0.16565733,1.551827,0.56420565],"rotation":[-0.49999994,-0.5,-0.5,0.49999994],"name":"Tread LED_Light_009","extensions":{"KHR_lights_punctual":{"light":2}}},{"translation":[0.16565733,1.368947,0.83037543],"rotation":[-0.49999994,-0.5,-0.5,0.49999994],"name":"Tread LED_Light_010","extensions":{"KHR_lights_punctual":{"light":3}}},{"translation":[0.16565733,1.186067,1.0965452],"rotation":[-0.49999994,-0.5,-0.5,0.49999994],"name":"Tread LED_Light_011","extensions":{"KHR_lights_punctual":{"light":4}}},{"translation":[0.1656569,1.9175869,0.025403032],"rotation":[-0.49999994,-0.5,-0.5,0.49999994],"name":"Tread LED_Light_012","extensions":{"KHR_lights_punctual":{"light":5}}},{"translation":[0.47045693,1.9175869,0.025403032],"rotation":[-0.49999994,-0.5,-0.5,0.49999994],"name":"Tread LED_Light_013","extensions":{"KHR_lights_punctual":{"light":6}}},{"translation":[0.4704574,1.186067,1.0965452],"rotation":[-0.49999994,-0.5,-0.5,0.49999994],"name":"Tread LED_Light_014","extensions":{"KHR_lights_punctual":{"light":7}}},{"translation":[0.4704574,1.368947,0.83037543],"rotation":[-0.49999994,-0.5,-0.5,0.49999994],"name":"Tread LED_Light_015","extensions":{"KHR_lights_punctual":{"light":8}}},{"translation":[0.4704574,1.551827,0.56420565],"rotation":[-0.49999994,-0.5,-0.5,0.49999994],"name":"Tread LED_Light_016","extensions":{"KHR_lights_punctual":{"light":9}}},{"translation":[0.47045693,1.7347069,0.29803583],"rotation":[-0.49999994,-0.5,-0.5,0.49999994],"name":"Tread LED_Light_017","extensions":{"KHR_lights_punctual":{"light":10}}},{"translation":[0.7727746,2.1004438,-0.85542303],"rotation":[-0.70710677,-0.0,0.0,0.70710677],"name":"Tread LED_Light_001","extensions":{"KHR_lights_punctual":{"light":11}}},{"translation":[-0.13914311,1.9175869,0.025403032],"rotation":[-0.49999994,-0.5,-0.5,0.49999994],"name":"Tread LED_Light_018","extensions":{"KHR_lights_punctual":{"light":12}}},{"translation":[-0.13914265,1.186067,1.0965452],"rotation":[-0.49999994,-0.5,-0.5,0.49999994],"name":"Tread LED_Light_019","extensions":{"KHR_lights_punctual":{"light":13}}},{"translation":[-0.13914265,1.368947,0.83037543],"rotation":[-0.49999994,-0.5,-0.5,0.49999994],"name":"Tread LED_Light_020","extensions":{"KHR_lights_punctual":{"light":14}}},{"translation":[-0.13914265,1.551827,0.56420565],"rotation":[-0.49999994,-0.5,-0.5,0.49999994],"name":"Tread LED_Light_021","extensions":{"KHR_lights_punctual":{"light":15}}},{"translation":[-0.13914311,1.7347069,0.29803583],"rotation":[-0.49999994,-0.5,-0.5,0.49999994],"name":"Tread LED_Light_022","extensions":{"KHR_lights_punctual":{"light":16}}},{"translation":[0.7727853,2.1004438,-0.24582301],"rotation":[-0.70710677,-0.0,0.0,0.70710677],"name":"Tread LED_Light_002","extensions":{"KHR_lights_punctual":{"light":17}}},{"translation":[1.0392587,2.2833238,-0.550623],"rotation":[-0.70710677,-0.0,0.0,0.70710677],"name":"Tread LED_Light_003","extensions":{"KHR_lights_punctual":{"light":18}}},{"translation":[1.039248,2.2833238,-0.85542303],"rotation":[-0.70710677,-0.0,0.0,0.70710677],"name":"Tread LED_Light_004","extensions":{"KHR_lights_punctual":{"light":19}}},{"translation":[1.0392587,2.2833238,-0.24582301],"rotation":[-0.70710677,-0.0,0.0,0.70710677],"name":"Tread LED_Light_005","extensions":{"KHR_lights_punctual":{"light":20}}},{"translation":[1.3057323,2.4662035,-0.550623],"rotation":[-0.70710677,-0.0,0.0,0.70710677],"name":"Tread LED_Light_006","extensions":{"KHR_lights_punctual":{"light":21}}},{"translation":[1.3057215,2.4662035,-0.85542303],"rotation":[-0.70710677,-0.0,0.0,0.70710677],"name":"Tread LED_Light_007","extensions":{"KHR_lights_punctual":{"light":22}}},{"translation":[1.3057323,2.4662035,-0.24582301],"rotation":[-0.70710677,-0.0,0.0,0.70710677],"name":"Tread LED_Light_008","extensions":{"KHR_lights_punctual":{"light":23}}},{"translation":[0.16565733,1.0031871,1.3627174],"rotation":[-0.49999994,-0.5,-0.5,0.49999994],"name":"Tread LED_Light_023","extensions":{"KHR_lights_punctual":{"light":24}}},{"translation":[0.4704574,1.0031871,1.3627174],"rotation":[-0.49999994,-0.5,-0.5,0.49999994],"name":"Tread LED_Light_024","extensions":{"KHR_lights_punctual":{"light":25}}},{"translation":[-0.13914265,1.0031871,1.3627174],"rotation":[-0.49999994,-0.5,-0.5,0.49999994],"name":"Tread LED_Light_025","extensions":{"KHR_lights_punctual":{"light":26}}},{"translation":[0.16565733,0.8203071,1.6288898],"rotation":[-0.49999994,-0.5,-0.5,0.49999994],"name":"Tread LED_Light_026","extensions":{"KHR_lights_punctual":{"light":27}}},{"translation":[0.4704574,0.8203071,1.6288898],"rotation":[-0.49999994,-0.5,-0.5,0.49999994],"name":"Tread LED_Light_027","extensions":{"KHR_lights_punctual":{"light":28}}},{"translation":[-0.13914265,0.8203071,1.6288898],"rotation":[-0.49999994,-0.5,-0.5,0.49999994],"name":"Tread LED_Light_028","extensions":{"KHR_lights_punctual":{"light":29}}},{"translation":[1.5470294,0.08928906,2.2372448],"rotation":[-3.090862E-08,-0.70710677,-0.70710677,3.090862E-08],"name":"Tread LED_Light_030","extensions":{"KHR_lights_punctual":{"light":30}}},{"translation":[1.5470402,0.08928906,2.5420449],"rotation":[-3.090862E-08,-0.70710677,-0.70710677,3.090862E-08],"name":"Tread LED_Light_031","extensions":{"KHR_lights_punctual":{"light":31}}},{"translation":[1.5470294,0.08928906,1.9324448],"rotation":[-3.090862E-08,-0.70710677,-0.70710677,3.090862E-08],"name":"Tread LED_Light_032","extensions":{"KHR_lights_punctual":{"light":32}}},{"translation":[1.2805562,0.2721689,2.2372448],"rotation":[-3.090862E-08,-0.70710677,-0.70710677,3.090862E-08],"name":"Tread LED_Light_033","extensions":{"KHR_lights_punctual":{"light":33}}},{"translation":[1.2805669,0.2721689,2.5420449],"rotation":[-3.090862E-08,-0.70710677,-0.70710677,3.090862E-08],"name":"Tread LED_Light_034","extensions":{"KHR_lights_punctual":{"light":34}}},{"translation":[1.2805562,0.2721689,1.9324448],"rotation":[-3.090862E-08,-0.70710677,-0.70710677,3.090862E-08],"name":"Tread LED_Light_035","extensions":{"KHR_lights_punctual":{"light":35}}},{"translation":[1.0140827,0.4550487,2.2372448],"rotation":[-3.090862E-08,-0.70710677,-0.70710677,3.090862E-08],"name":"Tread LED_Light_036","extensions":{"KHR_lights_punctual":{"light":36}}},{"translation":[1.0140934,0.4550487,2.5420449],"rotation":[-3.090862E-08,-0.70710677,-0.70710677,3.090862E-08],"name":"Tread LED_Light_037","extensions":{"KHR_lights_punctual":{"light":37}}},{"translation":[1.0140827,0.4550487,1.9324448],"rotation":[-3.090862E-08,-0.70710677,-0.70710677,3.090862E-08],"name":"Tread LED_Light_038","extensions":{"KHR_lights_punctual":{"light":38}}},{"translation":[0.74176455,0.6379291,2.2372448],"rotation":[-3.090862E-08,-0.70710677,-0.70710677,3.090862E-08],"name":"Tread LED_Light_039","extensions":{"KHR_lights_punctual":{"light":39}}},{"translation":[0.7417753,0.6379291,2.5420449],"rotation":[-3.090862E-08,-0.70710677,-0.70710677,3.090862E-08],"name":"Tread LED_Light_040","extensions":{"KHR_lights_punctual":{"light":40}}},{"translation":[0.74176455,0.6379291,1.9324448],"rotation":[-3.090862E-08,-0.70710677,-0.70710677,3.090862E-08],"name":"Tread LED_Light_041","extensions":{"KHR_lights_punctual":{"light":41}}}],"meshes":[{"primitives":[{"attributes":{"POSITION":1,"TANGENT":2,"NORMAL":3,"TEXCOORD_0":4},"indices":0,"material":0}],"name":"Landing Attachment_001"},{"primitives":[{"attributes":{"POSITION":6,"TANGENT":7,"NORMAL":8,"TEXCOORD_0":9},"indices":5,"material":0}],"name":"1/2\" Lag Bolt_008"},{"primitives":[{"attributes":{"POSITION":11,"TANGENT":12,"NORMAL":13,"TEXCOORD_0":14},"indices":10,"material":0}],"name":"Stringer Attachment_001"},{"primitives":[{"attributes":{"POSITION":16,"TANGENT":17,"NORMAL":18,"TEXCOORD_0":19},"indices":15,"material":0}],"name":"3/8\" FHSCS_023"},{"primitives":[{"attributes":{"POSITION":21,"TANGENT":22,"NORMAL":23,"TEXCOORD_0":24},"indices":20,"material":0}],"name":"Tread Support_012"},{"primitives":[{"attributes":{"POSITION":26,"TANGENT":27,"NORMAL":28,"TEXCOORD_0":29},"indices":25,"material":0}],"name":"Stair Stringer_Upper"},{"primitives":[{"attributes":{"POSITION":31,"TANGENT":32,"NORMAL":33,"TEXCOORD_0":34},"indices":30,"material":0}],"name":"Tread Support_000"},{"primitives":[{"attributes":{"POSITION":36,"TANGENT":37,"NORMAL":38,"TEXCOORD_0":39},"indices":35,"material":0}],"name":"Header Plate"},{"primitives":[{"attributes":{"POSITION":41,"TANGENT":42,"NORMAL":43,"TEXCOORD_0":44},"indices":40,"material":0}],"name":"3/8\" Lag Bolt_119"},{"primitives":[{"attributes":{"POSITION":46,"TANGENT":47,"NORMAL":48,"TEXCOORD_0":49},"indices":45,"material":0}],"name":"Header Plate Cover"},{"primitives":[{"attributes":{"POSITION":51,"TANGENT":52,"NORMAL":53,"TEXCOORD_0":54},"indices":50,"material":0}],"name":"Column Tube"},{"primitives":[{"attributes":{"POSITION":56,"TANGENT":57,"NORMAL":58,"TEXCOORD_0":59},"indices":55,"material":0}],"name":"Column Footer Plate"},{"primitives":[{"attributes":{"POSITION":61,"TANGENT":62,"NORMAL":63,"TEXCOORD_0":64},"indices":60,"material":0}],"name":"Column to Stringer Plate"},{"primitives":[{"attributes":{"POSITION":66,"NORMAL":67},"indices":65,"material":1}],"name":"Tread LED_045"},{"primitives":[{"attributes":{"POSITION":69,"TANGENT":70,"NORMAL":71,"TEXCOORD_0":72},"indices":68,"material":2}],"name":"Floor Nosing002"},{"primitives":[{"attributes":{"POSITION":74,"TANGENT":75,"NORMAL":76,"TEXCOORD_0":77},"indices":73,"material":2}],"name":"Landing001"},{"primitives":[{"attributes":{"POSITION":79,"TANGENT":80,"NORMAL":81,"TEXCOORD_0":82},"indices":78,"material":2}],"name":"Tread Block_053"},{"primitives":[{"attributes":{"POSITION":84,"TANGENT":85,"NORMAL":86,"TEXCOORD_0":87},"indices":83,"material":2}],"name":"Tread Block_054"},{"primitives":[{"attributes":{"POSITION":89,"TANGENT":90,"NORMAL":91,"TEXCOORD_0":92},"indices":88,"material":2}],"name":"Tread Block_055"},{"primitives":[{"attributes":{"POSITION":94,"TANGENT":95,"NORMAL":96,"TEXCOORD_0":97},"indices":93,"material":2}],"name":"Tread Block_077"},{"primitives":[{"attributes":{"POSITION":99,"TANGENT":100,"NORMAL":101,"TEXCOORD_0":102},"indices":98,"material":2}],"name":"Tread Block_072"},{"primitives":[{"attributes":{"POSITION":104,"TANGENT":105,"NORMAL":106,"TEXCOORD_0":107},"indices":103,"material":2}],"name":"Tread Block_073"},{"primitives":[{"attributes":{"POSITION":109,"TANGENT":110,"NORMAL":111,"TEXCOORD_0":112},"indices":108,"material":2}],"name":"Tread Block_074"},{"primitives":[{"attributes":{"POSITION":114,"TANGENT":115,"NORMAL":116,"TEXCOORD_0":117},"indices":113,"material":2}],"name":"Tread Block_075"},{"primitives":[{"attributes":{"POSITION":119,"TANGENT":120,"NORMAL":121,"TEXCOORD_0":122},"indices":118,"material":2}],"name":"Tread Block_076"},{"primitives":[{"attributes":{"POSITION":124,"TANGENT":125,"NORMAL":126,"TEXCOORD_0":127},"indices":123,"material":0}],"name":"1/2\" Lag Bolt_040"},{"primitives":[{"attributes":{"POSITION":129,"TANGENT":130,"NORMAL":131,"TEXCOORD_0":132},"indices":128,"material":0}],"name":"3/8\" FHSCS_044"},{"primitives":[{"attributes":{"POSITION":134,"TANGENT":135,"NORMAL":136,"TEXCOORD_0":137},"indices":133,"material":0}],"name":"3/8\" Lag Bolt_120"},{"primitives":[{"attributes":{"POSITION":139,"TANGENT":140,"NORMAL":141,"TEXCOORD_0":142},"indices":138,"material":0}],"name":"Column Footer Plate001"},{"primitives":[{"attributes":{"POSITION":144,"TANGENT":145,"NORMAL":146,"TEXCOORD_0":147},"indices":143,"material":0}],"name":"Column Tube001"},{"primitives":[{"attributes":{"POSITION":149,"TANGENT":150,"NORMAL":151,"TEXCOORD_0":152},"indices":148,"material":0}],"name":"Column to Stringer Plate001"},{"primitives":[{"attributes":{"POSITION":154,"TANGENT":155,"NORMAL":156,"TEXCOORD_0":157},"indices":153,"material":0}],"name":"Footer Plate001"},{"primitives":[{"attributes":{"POSITION":159,"TANGENT":160,"NORMAL":161,"TEXCOORD_0":162},"indices":158,"material":0}],"name":"Landing Attachment_005"},{"primitives":[{"attributes":{"POSITION":164,"TANGENT":165,"NORMAL":166,"TEXCOORD_0":167},"indices":163,"material":2}],"name":"Landing003"},{"primitives":[{"attributes":{"POSITION":169,"TANGENT":170,"NORMAL":171,"TEXCOORD_0":172},"indices":168,"material":0}],"name":"Stair Stringer_Upper001"},{"primitives":[{"attributes":{"POSITION":174,"TANGENT":175,"NORMAL":176,"TEXCOORD_0":177},"indices":173,"material":0}],"name":"Stringer Attachment_002"},{"primitives":[{"attributes":{"POSITION":179,"TANGENT":180,"NORMAL":181,"TEXCOORD_0":182},"indices":178,"material":0}],"name":"Stringer End Cap_001"},{"primitives":[{"attributes":{"POSITION":184,"TANGENT":185,"NORMAL":186,"TEXCOORD_0":187},"indices":183,"material":2}],"name":"Tread Block_098"},{"primitives":[{"attributes":{"POSITION":189,"TANGENT":190,"NORMAL":191,"TEXCOORD_0":192},"indices":188,"material":2}],"name":"Tread Block_099"},{"primitives":[{"attributes":{"POSITION":194,"TANGENT":195,"NORMAL":196,"TEXCOORD_0":197},"indices":193,"material":2}],"name":"Tread Block_103"},{"primitives":[{"attributes":{"POSITION":199,"TANGENT":200,"NORMAL":201,"TEXCOORD_0":202},"indices":198,"material":0}],"name":"Tread Support_023"},{"primitives":[{"attributes":{"POSITION":204,"TANGENT":205,"NORMAL":206,"TEXCOORD_0":207},"indices":203,"material":0}],"name":"Stair Stringer_Lower002"},{"primitives":[{"attributes":{"POSITION":209,"TANGENT":210,"NORMAL":211,"TEXCOORD_0":212},"indices":208,"material":2}],"name":"Mr Bob"},{"primitives":[{"attributes":{"POSITION":214,"TANGENT":215,"NORMAL":216,"TEXCOORD_0":217},"indices":213,"material":0}],"name":"Stringer to Wall-Wood Blocking Part [7641775]"},{"primitives":[{"attributes":{"POSITION":219,"TANGENT":220,"NORMAL":221,"TEXCOORD_0":222},"indices":218,"material":0}],"name":"5/8\" Lag_017"},{"primitives":[{"attributes":{"POSITION":224,"TANGENT":225,"NORMAL":226,"TEXCOORD_0":227},"indices":223,"material":0}],"name":"5/8\" Lag_018"},{"primitives":[{"attributes":{"POSITION":229,"TANGENT":230,"NORMAL":231,"TEXCOORD_0":232},"indices":228,"material":0}],"name":"5/8\" Lag_019"},{"primitives":[{"attributes":{"POSITION":234,"TANGENT":235,"NORMAL":236,"TEXCOORD_0":237},"indices":233,"material":0}],"name":"5/8\" Lag_020"},{"primitives":[{"attributes":{"POSITION":239,"TANGENT":240,"NORMAL":241,"TEXCOORD_0":242},"indices":238,"material":0}],"name":"5/8\" Lag_021"},{"primitives":[{"attributes":{"POSITION":244,"TANGENT":245,"NORMAL":246,"TEXCOORD_0":247},"indices":243,"material":0}],"name":"5/8\" Lag_022"},{"primitives":[{"attributes":{"POSITION":249,"TANGENT":250,"NORMAL":251,"TEXCOORD_0":252},"indices":248,"material":0}],"name":"5/8\" Lag_023"}],"accessors":[{"bufferView":0,"componentType":5123,"count":36,"type":"SCALAR","name":"accessorIndices"},{"bufferView":1,"componentType":5126,"count":24,"max":[0.1524,0.0079502,0.0762],"min":[-0.1524,-2.4068498E-15,-0.0762],"type":"VEC3","name":"accessorPositions"},{"bufferView":2,"componentType":5126,"count":24,"type":"VEC4","name":"accessorTangents"},{"bufferView":1,"byteOffset":288,"componentType":5126,"count":24,"type":"VEC3","name":"accessorNormals"},{"bufferView":3,"componentType":5126,"count":24,"type":"VEC2","name":"accessorUVs"},{"bufferView":0,"byteOffset":72,"componentType":5123,"count":60,"type":"SCALAR","name":"accessorIndices"},{"bufferView":1,"byteOffset":576,"componentType":5126,"count":36,"max":[6.2941655E-15,0.012978258,0.011177512],"min":[-0.010795,-0.012978258,-0.0112395],"type":"VEC3","name":"accessorPositions"},{"bufferView":2,"byteOffset":384,"componentType":5126,"count":36,"type":"VEC4","name":"accessorTangents"},{"bufferView":1,"byteOffset":1008,"componentType":5126,"count":36,"type":"VEC3","name":"accessorNormals"},{"bufferView":3,"byteOffset":192,"componentType":5126,"count":36,"type":"VEC2","name":"accessorUVs"},{"bufferView":0,"byteOffset":192,"componentType":5123,"count":660,"type":"SCALAR","name":"accessorIndices"},{"bufferView":1,"byteOffset":1440,"componentType":5126,"count":312,"max":[0.127,0.0762,0.006508755],"min":[-0.127,-0.0762,-0.00015875156],"type":"VEC3","name":"accessorPositions"},{"bufferView":2,"byteOffset":960,"componentType":5126,"count":312,"type":"VEC4","name":"accessorTangents"},{"bufferView":1,"byteOffset":5184,"componentType":5126,"count":312,"type":"VEC3","name":"accessorNormals"},{"bufferView":3,"byteOffset":480,"componentType":5126,"count":312,"type":"VEC2","name":"accessorUVs"},{"bufferView":0,"byteOffset":1512,"componentType":5123,"count":180,"type":"SCALAR","name":"accessorIndices"},{"bufferView":1,"byteOffset":8928,"componentType":5126,"count":76,"max":[0.004723497,0.009498697,0.009498697],"min":[1.8683688E-14,-0.009498697,-0.009498697],"type":"VEC3","name":"accessorPositions"},{"bufferView":2,"byteOffset":5952,"componentType":5126,"count":76,"type":"VEC4","name":"accessorTangents"},{"bufferView":1,"byteOffset":9840,"componentType":5126,"count":76,"type":"VEC3","name":"accessorNormals"},{"bufferView":3,"byteOffset":2976,"componentType":5126,"count":76,"type":"VEC2","name":"accessorUVs"},{"bufferView":0,"byteOffset":1872,"componentType":5123,"count":138,"type":"SCALAR","name":"accessorIndices"},{"bufferView":1,"byteOffset":10752,"componentType":5126,"count":85,"max":[0.169672,0.097199045,0.13059595],"min":[-0.169672,-5.295887E-09,-0.0063500004],"type":"VEC3","name":"accessorPositions"},{"bufferView":2,"byteOffset":7168,"componentType":5126,"count":85,"type":"VEC4","name":"accessorTangents"},{"bufferView":1,"byteOffset":11772,"componentType":5126,"count":85,"type":"VEC3","name":"accessorNormals"},{"bufferView":3,"byteOffset":3584,"componentType":5126,"count":85,"type":"VEC2","name":"accessorUVs"},{"bufferView":0,"byteOffset":2148,"componentType":5123,"count":684,"type":"SCALAR","name":"accessorIndices"},{"bufferView":1,"byteOffset":12792,"componentType":5126,"count":212,"max":[0.0762,0.49847278,0.25491345],"min":[-0.076200016,-0.2619502,-1.0967493],"type":"VEC3","name":"accessorPositions"},{"bufferView":2,"byteOffset":8528,"componentType":5126,"count":212,"type":"VEC4","name":"accessorTangents"},{"bufferView":1,"byteOffset":15336,"componentType":5126,"count":212,"type":"VEC3","name":"accessorNormals"},{"bufferView":3,"byteOffset":4264,"componentType":5126,"count":212,"type":"VEC2","name":"accessorUVs"},{"bufferView":0,"byteOffset":3516,"componentType":5123,"count":156,"type":"SCALAR","name":"accessorIndices"},{"bufferView":1,"byteOffset":17880,"componentType":5126,"count":92,"max":[0.1696718,0.09710105,0.006349899],"min":[-0.1696718,0.0,-0.13059309],"type":"VEC3","name":"accessorPositions"},{"bufferView":2,"byteOffset":11920,"componentType":5126,"count":92,"type":"VEC4","name":"accessorTangents"},{"bufferView":1,"byteOffset":18984,"componentType":5126,"count":92,"type":"VEC3","name":"accessorNormals"},{"bufferView":3,"byteOffset":5960,"componentType":5126,"count":92,"type":"VEC2","name":"accessorUVs"},{"bufferView":0,"byteOffset":3828,"componentType":5123,"count":1860,"type":"SCALAR","name":"accessorIndices"},{"bufferView":1,"byteOffset":20088,"componentType":5126,"count":660,"max":[0.16510001,0.2205445,0.0063500004],"min":[-0.16510001,-0.09695551,-0.0],"type":"VEC3","name":"accessorPositions"},{"bufferView":2,"byteOffset":13392,"componentType":5126,"count":660,"type":"VEC4","name":"accessorTangents"},{"bufferView":1,"byteOffset":28008,"componentType":5126,"count":660,"type":"VEC3","name":"accessorNormals"},{"bufferView":3,"byteOffset":6696,"componentType":5126,"count":660,"type":"VEC2","name":"accessorUVs"},{"bufferView":0,"byteOffset":7548,"componentType":5123,"count":138,"type":"SCALAR","name":"accessorIndices"},{"bufferView":1,"byteOffset":35928,"componentType":5126,"count":60,"max":[6.47623E-15,0.0082677,0.007160038],"min":[-0.008559801,-0.0082677,-0.007160038],"type":"VEC3","name":"accessorPositions"},{"bufferView":2,"byteOffset":23952,"componentType":5126,"count":60,"type":"VEC4","name":"accessorTangents"},{"bufferView":1,"byteOffset":36648,"componentType":5126,"count":60,"type":"VEC3","name":"accessorNormals"},{"bufferView":3,"byteOffset":11976,"componentType":5126,"count":60,"type":"VEC2","name":"accessorUVs"},{"bufferView":0,"byteOffset":7824,"componentType":5123,"count":84,"type":"SCALAR","name":"accessorIndices"},{"bufferView":1,"byteOffset":37368,"componentType":5126,"count":48,"max":[0.1692656,0.2247101,0.026339801],"min":[-0.1692656,0.010105494,8.569285E-15],"type":"VEC3","name":"accessorPositions"},{"bufferView":2,"byteOffset":24912,"componentType":5126,"count":48,"type":"VEC4","name":"accessorTangents"},{"bufferView":1,"byteOffset":37944,"componentType":5126,"count":48,"type":"VEC3","name":"accessorNormals"},{"bufferView":3,"byteOffset":12456,"componentType":5126,"count":48,"type":"VEC2","name":"accessorUVs"},{"bufferView":0,"byteOffset":7992,"componentType":5123,"count":228,"type":"SCALAR","name":"accessorIndices"},{"bufferView":1,"byteOffset":38520,"componentType":5126,"count":104,"max":[1.0007347,0.07620008,0.0762],"min":[-0.7313306,-0.0762,-0.07620008],"type":"VEC3","name":"accessorPositions"},{"bufferView":2,"byteOffset":25680,"componentType":5126,"count":104,"type":"VEC4","name":"accessorTangents"},{"bufferView":1,"byteOffset":39768,"componentType":5126,"count":104,"type":"VEC3","name":"accessorNormals"},{"bufferView":3,"byteOffset":12840,"componentType":5126,"count":104,"type":"VEC2","name":"accessorUVs"},{"bufferView":0,"byteOffset":8448,"componentType":5123,"count":36,"type":"SCALAR","name":"accessorIndices"},{"bufferView":1,"byteOffset":41016,"componentType":5126,"count":24,"max":[0.1524,0.009525,0.1524],"min":[-0.1524,-2.9240647E-15,-0.1524],"type":"VEC3","name":"accessorPositions"},{"bufferView":2,"byteOffset":27344,"componentType":5126,"count":24,"type":"VEC4","name":"accessorTangents"},{"bufferView":1,"byteOffset":41304,"componentType":5126,"count":24,"type":"VEC3","name":"accessorNormals"},{"bufferView":3,"byteOffset":13672,"componentType":5126,"count":24,"type":"VEC2","name":"accessorUVs"},{"bufferView":0,"byteOffset":8520,"componentType":5123,"count":2508,"type":"SCALAR","name":"accessorIndices"},{"bufferView":1,"byteOffset":41592,"componentType":5126,"count":880,"max":[0.20320001,0.007950201,0.0762],"min":[-0.20320001,-2.4131592E-15,-0.0762],"type":"VEC3","name":"accessorPositions"},{"bufferView":2,"byteOffset":27728,"componentType":5126,"count":880,"type":"VEC4","name":"accessorTangents"},{"bufferView":1,"byteOffset":52152,"componentType":5126,"count":880,"type":"VEC3","name":"accessorNormals"},{"bufferView":3,"byteOffset":13864,"componentType":5126,"count":880,"type":"VEC2","name":"accessorUVs"},{"bufferView":0,"byteOffset":13536,"componentType":5123,"count":6,"type":"SCALAR","name":"accessorIndices"},{"bufferView":1,"byteOffset":62712,"componentType":5126,"count":4,"max":[0.0063500004,0.0,0.5715],"min":[-0.0063500004,0.0,-0.5715],"type":"VEC3","name":"accessorPositions"},{"bufferView":1,"byteOffset":62760,"componentType":5126,"count":4,"type":"VEC3","name":"accessorNormals"},{"bufferView":0,"byteOffset":13548,"componentType":5123,"count":1764,"type":"SCALAR","name":"accessorIndices"},{"bufferView":1,"byteOffset":62808,"componentType":5126,"count":384,"max":[0.028575,0.025400048,0.6096],"min":[-0.028575,-0.025400048,-0.6096],"type":"VEC3","name":"accessorPositions"},{"bufferView":2,"byteOffset":41808,"componentType":5126,"count":384,"type":"VEC4","name":"accessorTangents"},{"bufferView":1,"byteOffset":67416,"componentType":5126,"count":384,"type":"VEC3","name":"accessorNormals"},{"bufferView":3,"byteOffset":20904,"componentType":5126,"count":384,"type":"VEC2","name":"accessorUVs"},{"bufferView":0,"byteOffset":17076,"componentType":5123,"count":2046,"type":"SCALAR","name":"accessorIndices"},{"bufferView":1,"byteOffset":72024,"componentType":5126,"count":564,"max":[0.60960037,0.05079995,0.60960954],"min":[-0.6096004,-0.050799944,-0.6096097],"type":"VEC3","name":"accessorPositions"},{"bufferView":2,"byteOffset":47952,"componentType":5126,"count":564,"type":"VEC4","name":"accessorTangents"},{"bufferView":1,"byteOffset":78792,"componentType":5126,"count":564,"type":"VEC3","name":"accessorNormals"},{"bufferView":3,"byteOffset":23976,"componentType":5126,"count":564,"type":"VEC2","name":"accessorUVs"},{"bufferView":0,"byteOffset":21168,"componentType":5123,"count":3168,"type":"SCALAR","name":"accessorIndices"},{"bufferView":1,"byteOffset":85560,"componentType":5126,"count":968,"max":[0.15240052,0.050800525,0.6096003],"min":[-0.15240006,-0.050801016,-0.60959977],"type":"VEC3","name":"accessorPositions"},{"bufferView":2,"byteOffset":56976,"componentType":5126,"count":968,"type":"VEC4","name":"accessorTangents"},{"bufferView":1,"byteOffset":97176,"componentType":5126,"count":968,"type":"VEC3","name":"accessorNormals"},{"bufferView":3,"byteOffset":28488,"componentType":5126,"count":968,"type":"VEC2","name":"accessorUVs"},{"bufferView":0,"byteOffset":27504,"componentType":5123,"count":3168,"type":"SCALAR","name":"accessorIndices"},{"bufferView":1,"byteOffset":108792,"componentType":5126,"count":968,"max":[0.15240052,0.050800525,0.6096003],"min":[-0.15240006,-0.050801016,-0.60959977],"type":"VEC3","name":"accessorPositions"},{"bufferView":2,"byteOffset":72464,"componentType":5126,"count":968,"type":"VEC4","name":"accessorTangents"},{"bufferView":1,"byteOffset":120408,"componentType":5126,"count":968,"type":"VEC3","name":"accessorNormals"},{"bufferView":3,"byteOffset":36232,"componentType":5126,"count":968,"type":"VEC2","name":"accessorUVs"},{"bufferView":0,"byteOffset":33840,"componentType":5123,"count":3168,"type":"SCALAR","name":"accessorIndices"},{"bufferView":1,"byteOffset":132024,"componentType":5126,"count":968,"max":[0.15240052,0.050800525,0.6096003],"min":[-0.15240006,-0.050801016,-0.60959977],"type":"VEC3","name":"accessorPositions"},{"bufferView":2,"byteOffset":87952,"componentType":5126,"count":968,"type":"VEC4","name":"accessorTangents"},{"bufferView":1,"byteOffset":143640,"componentType":5126,"count":968,"type":"VEC3","name":"accessorNormals"},{"bufferView":3,"byteOffset":43976,"componentType":5126,"count":968,"type":"VEC2","name":"accessorUVs"},{"bufferView":0,"byteOffset":40176,"componentType":5123,"count":3168,"type":"SCALAR","name":"accessorIndices"},{"bufferView":1,"byteOffset":155256,"componentType":5126,"count":1352,"max":[0.6096003,0.050800525,0.15239981],"min":[-0.60959977,-0.050801016,-0.1524004],"type":"VEC3","name":"accessorPositions"},{"bufferView":2,"byteOffset":103440,"componentType":5126,"count":1352,"type":"VEC4","name":"accessorTangents"},{"bufferView":1,"byteOffset":171480,"componentType":5126,"count":1352,"type":"VEC3","name":"accessorNormals"},{"bufferView":3,"byteOffset":51720,"componentType":5126,"count":1352,"type":"VEC2","name":"accessorUVs"},{"bufferView":0,"byteOffset":46512,"componentType":5123,"count":3168,"type":"SCALAR","name":"accessorIndices"},{"bufferView":1,"byteOffset":187704,"componentType":5126,"count":1352,"max":[0.6096003,0.050800525,0.15239981],"min":[-0.60959977,-0.050801016,-0.1524004],"type":"VEC3","name":"accessorPositions"},{"bufferView":2,"byteOffset":125072,"componentType":5126,"count":1352,"type":"VEC4","name":"accessorTangents"},{"bufferView":1,"byteOffset":203928,"componentType":5126,"count":1352,"type":"VEC3","name":"accessorNormals"},{"bufferView":3,"byteOffset":62536,"componentType":5126,"count":1352,"type":"VEC2","name":"accessorUVs"},{"bufferView":0,"byteOffset":52848,"componentType":5123,"count":3168,"type":"SCALAR","name":"accessorIndices"},{"bufferView":1,"byteOffset":220152,"componentType":5126,"count":1352,"max":[0.6096003,0.050800525,0.15239981],"min":[-0.60959977,-0.050801016,-0.1524004],"type":"VEC3","name":"accessorPositions"},{"bufferView":2,"byteOffset":146704,"componentType":5126,"count":1352,"type":"VEC4","name":"accessorTangents"},{"bufferView":1,"byteOffset":236376,"componentType":5126,"count":1352,"type":"VEC3","name":"accessorNormals"},{"bufferView":3,"byteOffset":73352,"componentType":5126,"count":1352,"type":"VEC2","name":"accessorUVs"},{"bufferView":0,"byteOffset":59184,"componentType":5123,"count":3168,"type":"SCALAR","name":"accessorIndices"},{"bufferView":1,"byteOffset":252600,"componentType":5126,"count":1352,"max":[0.6096003,0.050800525,0.15239981],"min":[-0.60959977,-0.050801016,-0.1524004],"type":"VEC3","name":"accessorPositions"},{"bufferView":2,"byteOffset":168336,"componentType":5126,"count":1352,"type":"VEC4","name":"accessorTangents"},{"bufferView":1,"byteOffset":268824,"componentType":5126,"count":1352,"type":"VEC3","name":"accessorNormals"},{"bufferView":3,"byteOffset":84168,"componentType":5126,"count":1352,"type":"VEC2","name":"accessorUVs"},{"bufferView":0,"byteOffset":65520,"componentType":5123,"count":3168,"type":"SCALAR","name":"accessorIndices"},{"bufferView":1,"byteOffset":285048,"componentType":5126,"count":1352,"max":[0.6096003,0.050800525,0.15239981],"min":[-0.60959977,-0.050801016,-0.1524004],"type":"VEC3","name":"accessorPositions"},{"bufferView":2,"byteOffset":189968,"componentType":5126,"count":1352,"type":"VEC4","name":"accessorTangents"},{"bufferView":1,"byteOffset":301272,"componentType":5126,"count":1352,"type":"VEC3","name":"accessorNormals"},{"bufferView":3,"byteOffset":94984,"componentType":5126,"count":1352,"type":"VEC2","name":"accessorUVs"},{"bufferView":0,"byteOffset":71856,"componentType":5123,"count":3168,"type":"SCALAR","name":"accessorIndices"},{"bufferView":1,"byteOffset":317496,"componentType":5126,"count":1352,"max":[0.6096003,0.050800525,0.15239981],"min":[-0.60959977,-0.050801016,-0.1524004],"type":"VEC3","name":"accessorPositions"},{"bufferView":2,"byteOffset":211600,"componentType":5126,"count":1352,"type":"VEC4","name":"accessorTangents"},{"bufferView":1,"byteOffset":333720,"componentType":5126,"count":1352,"type":"VEC3","name":"accessorNormals"},{"bufferView":3,"byteOffset":105800,"componentType":5126,"count":1352,"type":"VEC2","name":"accessorUVs"},{"bufferView":0,"byteOffset":78192,"componentType":5123,"count":60,"type":"SCALAR","name":"accessorIndices"},{"bufferView":1,"byteOffset":349944,"componentType":5126,"count":36,"max":[6.2941655E-15,0.012978258,0.011177512],"min":[-0.010795,-0.012978258,-0.0112395],"type":"VEC3","name":"accessorPositions"},{"bufferView":2,"byteOffset":233232,"componentType":5126,"count":36,"type":"VEC4","name":"accessorTangents"},{"bufferView":1,"byteOffset":350376,"componentType":5126,"count":36,"type":"VEC3","name":"accessorNormals"},{"bufferView":3,"byteOffset":116616,"componentType":5126,"count":36,"type":"VEC2","name":"accessorUVs"},{"bufferView":0,"byteOffset":78312,"componentType":5123,"count":180,"type":"SCALAR","name":"accessorIndices"},{"bufferView":1,"byteOffset":350808,"componentType":5126,"count":76,"max":[0.004723497,0.009498697,0.009498697],"min":[1.8683688E-14,-0.009498697,-0.009498697],"type":"VEC3","name":"accessorPositions"},{"bufferView":2,"byteOffset":233808,"componentType":5126,"count":76,"type":"VEC4","name":"accessorTangents"},{"bufferView":1,"byteOffset":351720,"componentType":5126,"count":76,"type":"VEC3","name":"accessorNormals"},{"bufferView":3,"byteOffset":116904,"componentType":5126,"count":76,"type":"VEC2","name":"accessorUVs"},{"bufferView":0,"byteOffset":78672,"componentType":5123,"count":138,"type":"SCALAR","name":"accessorIndices"},{"bufferView":1,"byteOffset":352632,"componentType":5126,"count":60,"max":[6.47623E-15,0.0082677,0.007160038],"min":[-0.008559801,-0.0082677,-0.007160038],"type":"VEC3","name":"accessorPositions"},{"bufferView":2,"byteOffset":235024,"componentType":5126,"count":60,"type":"VEC4","name":"accessorTangents"},{"bufferView":1,"byteOffset":353352,"componentType":5126,"count":60,"type":"VEC3","name":"accessorNormals"},{"bufferView":3,"byteOffset":117512,"componentType":5126,"count":60,"type":"VEC2","name":"accessorUVs"},{"bufferView":0,"byteOffset":78948,"componentType":5123,"count":36,"type":"SCALAR","name":"accessorIndices"},{"bufferView":1,"byteOffset":354072,"componentType":5126,"count":24,"max":[0.1524,0.009525,0.1524],"min":[-0.1524,-2.9240647E-15,-0.1524],"type":"VEC3","name":"accessorPositions"},{"bufferView":2,"byteOffset":235984,"componentType":5126,"count":24,"type":"VEC4","name":"accessorTangents"},{"bufferView":1,"byteOffset":354360,"componentType":5126,"count":24,"type":"VEC3","name":"accessorNormals"},{"bufferView":3,"byteOffset":117992,"componentType":5126,"count":24,"type":"VEC2","name":"accessorUVs"},{"bufferView":0,"byteOffset":79020,"componentType":5123,"count":228,"type":"SCALAR","name":"accessorIndices"},{"bufferView":1,"byteOffset":354648,"componentType":5126,"count":104,"max":[0.4520963,0.0762,0.0762],"min":[6.2941655E-15,-0.07620005,-0.07620005],"type":"VEC3","name":"accessorPositions"},{"bufferView":2,"byteOffset":236368,"componentType":5126,"count":104,"type":"VEC4","name":"accessorTangents"},{"bufferView":1,"byteOffset":355896,"componentType":5126,"count":104,"type":"VEC3","name":"accessorNormals"},{"bufferView":3,"byteOffset":118184,"componentType":5126,"count":104,"type":"VEC2","name":"accessorUVs"},{"bufferView":0,"byteOffset":79476,"componentType":5123,"count":2508,"type":"SCALAR","name":"accessorIndices"},{"bufferView":1,"byteOffset":357144,"componentType":5126,"count":880,"max":[0.20320001,0.007950201,0.0762],"min":[-0.20320001,-2.4131592E-15,-0.0762],"type":"VEC3","name":"accessorPositions"},{"bufferView":2,"byteOffset":238032,"componentType":5126,"count":880,"type":"VEC4","name":"accessorTangents"},{"bufferView":1,"byteOffset":367704,"componentType":5126,"count":880,"type":"VEC3","name":"accessorNormals"},{"bufferView":3,"byteOffset":119016,"componentType":5126,"count":880,"type":"VEC2","name":"accessorUVs"},{"bufferView":0,"byteOffset":84492,"componentType":5123,"count":36,"type":"SCALAR","name":"accessorIndices"},{"bufferView":1,"byteOffset":378264,"componentType":5126,"count":24,"max":[0.1524,0.012700001,0.1387602],"min":[-0.1524,-1.8678233E-15,-0.2041398],"type":"VEC3","name":"accessorPositions"},{"bufferView":2,"byteOffset":252112,"componentType":5126,"count":24,"type":"VEC4","name":"accessorTangents"},{"bufferView":1,"byteOffset":378552,"componentType":5126,"count":24,"type":"VEC3","name":"accessorNormals"},{"bufferView":3,"byteOffset":126056,"componentType":5126,"count":24,"type":"VEC2","name":"accessorUVs"},{"bufferView":0,"byteOffset":84564,"componentType":5123,"count":36,"type":"SCALAR","name":"accessorIndices"},{"bufferView":1,"byteOffset":378840,"componentType":5126,"count":24,"max":[0.1524,0.0079502,0.0762],"min":[-0.1524,-2.4068498E-15,-0.0762],"type":"VEC3","name":"accessorPositions"},{"bufferView":2,"byteOffset":252496,"componentType":5126,"count":24,"type":"VEC4","name":"accessorTangents"},{"bufferView":1,"byteOffset":379128,"componentType":5126,"count":24,"type":"VEC3","name":"accessorNormals"},{"bufferView":3,"byteOffset":126248,"componentType":5126,"count":24,"type":"VEC2","name":"accessorUVs"},{"bufferView":0,"byteOffset":84636,"componentType":5123,"count":2046,"type":"SCALAR","name":"accessorIndices"},{"bufferView":1,"byteOffset":379416,"componentType":5126,"count":564,"max":[0.60960037,0.05079995,0.60960954],"min":[-0.6096004,-0.050799944,-0.6096097],"type":"VEC3","name":"accessorPositions"},{"bufferView":2,"byteOffset":252880,"componentType":5126,"count":564,"type":"VEC4","name":"accessorTangents"},{"bufferView":1,"byteOffset":386184,"componentType":5126,"count":564,"type":"VEC3","name":"accessorNormals"},{"bufferView":3,"byteOffset":126440,"componentType":5126,"count":564,"type":"VEC2","name":"accessorUVs"},{"bufferView":0,"byteOffset":88728,"componentType":5123,"count":1140,"type":"SCALAR","name":"accessorIndices"},{"bufferView":1,"byteOffset":392952,"componentType":5126,"count":990,"max":[0.076235324,0.7161846,1.5656177],"min":[-0.076235354,-0.71618456,-2.1061988],"type":"VEC3","name":"accessorPositions"},{"bufferView":2,"byteOffset":261904,"componentType":5126,"count":990,"type":"VEC4","name":"accessorTangents"},{"bufferView":1,"byteOffset":404832,"componentType":5126,"count":990,"type":"VEC3","name":"accessorNormals"},{"bufferView":3,"byteOffset":130952,"componentType":5126,"count":990,"type":"VEC2","name":"accessorUVs"},{"bufferView":0,"byteOffset":91008,"componentType":5123,"count":660,"type":"SCALAR","name":"accessorIndices"},{"bufferView":1,"byteOffset":416712,"componentType":5126,"count":312,"max":[0.127,0.0762,0.006508755],"min":[-0.127,-0.0762,-0.00015875156],"type":"VEC3","name":"accessorPositions"},{"bufferView":2,"byteOffset":277744,"componentType":5126,"count":312,"type":"VEC4","name":"accessorTangents"},{"bufferView":1,"byteOffset":420456,"componentType":5126,"count":312,"type":"VEC3","name":"accessorNormals"},{"bufferView":3,"byteOffset":138872,"componentType":5126,"count":312,"type":"VEC2","name":"accessorUVs"},{"bufferView":0,"byteOffset":92328,"componentType":5123,"count":228,"type":"SCALAR","name":"accessorIndices"},{"bufferView":1,"byteOffset":424200,"componentType":5126,"count":104,"max":[0.0762,0.0762,-7.375853E-15],"min":[-0.0762,-0.0762,-0.0063500004],"type":"VEC3","name":"accessorPositions"},{"bufferView":2,"byteOffset":282736,"componentType":5126,"count":104,"type":"VEC4","name":"accessorTangents"},{"bufferView":1,"byteOffset":425448,"componentType":5126,"count":104,"type":"VEC3","name":"accessorNormals"},{"bufferView":3,"byteOffset":141368,"componentType":5126,"count":104,"type":"VEC2","name":"accessorUVs"},{"bufferView":0,"byteOffset":92784,"componentType":5123,"count":3168,"type":"SCALAR","name":"accessorIndices"},{"bufferView":1,"byteOffset":426696,"componentType":5126,"count":1352,"max":[0.1524,0.050800525,0.6096],"min":[-0.15240058,-0.050801016,-0.6096],"type":"VEC3","name":"accessorPositions"},{"bufferView":2,"byteOffset":284400,"componentType":5126,"count":1352,"type":"VEC4","name":"accessorTangents"},{"bufferView":1,"byteOffset":442920,"componentType":5126,"count":1352,"type":"VEC3","name":"accessorNormals"},{"bufferView":3,"byteOffset":142200,"componentType":5126,"count":1352,"type":"VEC2","name":"accessorUVs"},{"bufferView":0,"byteOffset":99120,"componentType":5123,"count":3168,"type":"SCALAR","name":"accessorIndices"},{"bufferView":1,"byteOffset":459144,"componentType":5126,"count":1352,"max":[0.1524,0.050800525,0.6096],"min":[-0.15240058,-0.050801016,-0.6096],"type":"VEC3","name":"accessorPositions"},{"bufferView":2,"byteOffset":306032,"componentType":5126,"count":1352,"type":"VEC4","name":"accessorTangents"},{"bufferView":1,"byteOffset":475368,"componentType":5126,"count":1352,"type":"VEC3","name":"accessorNormals"},{"bufferView":3,"byteOffset":153016,"componentType":5126,"count":1352,"type":"VEC2","name":"accessorUVs"},{"bufferView":0,"byteOffset":105456,"componentType":5123,"count":3168,"type":"SCALAR","name":"accessorIndices"},{"bufferView":1,"byteOffset":491592,"componentType":5126,"count":1352,"max":[0.1524,0.050800525,0.6096],"min":[-0.15240058,-0.050801016,-0.6096],"type":"VEC3","name":"accessorPositions"},{"bufferView":2,"byteOffset":327664,"componentType":5126,"count":1352,"type":"VEC4","name":"accessorTangents"},{"bufferView":1,"byteOffset":507816,"componentType":5126,"count":1352,"type":"VEC3","name":"accessorNormals"},{"bufferView":3,"byteOffset":163832,"componentType":5126,"count":1352,"type":"VEC2","name":"accessorUVs"},{"bufferView":0,"byteOffset":111792,"componentType":5123,"count":138,"type":"SCALAR","name":"accessorIndices"},{"bufferView":1,"byteOffset":524040,"componentType":5126,"count":85,"max":[0.169672,0.097199045,0.13059595],"min":[-0.169672,-5.295887E-09,-0.0063500004],"type":"VEC3","name":"accessorPositions"},{"bufferView":2,"byteOffset":349296,"componentType":5126,"count":85,"type":"VEC4","name":"accessorTangents"},{"bufferView":1,"byteOffset":525060,"componentType":5126,"count":85,"type":"VEC3","name":"accessorNormals"},{"bufferView":3,"byteOffset":174648,"componentType":5126,"count":85,"type":"VEC2","name":"accessorUVs"},{"bufferView":0,"byteOffset":112068,"componentType":5123,"count":684,"type":"SCALAR","name":"accessorIndices"},{"bufferView":1,"byteOffset":526080,"componentType":5126,"count":212,"max":[0.076200046,1.1706098,-0.61295325],"min":[-0.0762,0.5613385,-2.3013847],"type":"VEC3","name":"accessorPositions"},{"bufferView":2,"byteOffset":350656,"componentType":5126,"count":212,"type":"VEC4","name":"accessorTangents"},{"bufferView":1,"byteOffset":528624,"componentType":5126,"count":212,"type":"VEC3","name":"accessorNormals"},{"bufferView":3,"byteOffset":175328,"componentType":5126,"count":212,"type":"VEC2","name":"accessorUVs"},{"bufferView":0,"byteOffset":113436,"componentType":5123,"count":1860,"type":"SCALAR","name":"accessorIndices"},{"bufferView":1,"byteOffset":531168,"componentType":5126,"count":990,"max":[0.041157324,0.12449918,0.009824396],"min":[-0.021775274,-1.3069201E-08,-0.009824424],"type":"VEC3","name":"accessorPositions"},{"bufferView":2,"byteOffset":354048,"componentType":5126,"count":990,"type":"VEC4","name":"accessorTangents"},{"bufferView":1,"byteOffset":543048,"componentType":5126,"count":990,"type":"VEC3","name":"accessorNormals"},{"bufferView":3,"byteOffset":177024,"componentType":5126,"count":990,"type":"VEC2","name":"accessorUVs"},{"bufferView":0,"byteOffset":117156,"componentType":5123,"count":36,"type":"SCALAR","name":"accessorIndices"},{"bufferView":1,"byteOffset":554928,"componentType":5126,"count":24,"max":[0.1524,0.1016,0.0031750002],"min":[-0.1524,-0.1016,-0.0031750002],"type":"VEC3","name":"accessorPositions"},{"bufferView":2,"byteOffset":369888,"componentType":5126,"count":24,"type":"VEC4","name":"accessorTangents"},{"bufferView":1,"byteOffset":555216,"componentType":5126,"count":24,"type":"VEC3","name":"accessorNormals"},{"bufferView":3,"byteOffset":184944,"componentType":5126,"count":24,"type":"VEC2","name":"accessorUVs"},{"bufferView":0,"byteOffset":117228,"componentType":5123,"count":606,"type":"SCALAR","name":"accessorIndices"},{"bufferView":1,"byteOffset":555504,"componentType":5126,"count":276,"max":[0.01115265,0.012696092,0.0047903056],"min":[-0.011152638,-0.012696035,-0.0047901873],"type":"VEC3","name":"accessorPositions"},{"bufferView":2,"byteOffset":370272,"componentType":5126,"count":276,"type":"VEC4","name":"accessorTangents"},{"bufferView":1,"byteOffset":558816,"componentType":5126,"count":276,"type":"VEC3","name":"accessorNormals"},{"bufferView":3,"byteOffset":185136,"componentType":5126,"count":276,"type":"VEC2","name":"accessorUVs"},{"bufferView":0,"byteOffset":118440,"componentType":5123,"count":606,"type":"SCALAR","name":"accessorIndices"},{"bufferView":1,"byteOffset":562128,"componentType":5126,"count":276,"max":[0.01115265,0.012696092,0.0047903056],"min":[-0.011152638,-0.012696035,-0.0047901873],"type":"VEC3","name":"accessorPositions"},{"bufferView":2,"byteOffset":374688,"componentType":5126,"count":276,"type":"VEC4","name":"accessorTangents"},{"bufferView":1,"byteOffset":565440,"componentType":5126,"count":276,"type":"VEC3","name":"accessorNormals"},{"bufferView":3,"byteOffset":187344,"componentType":5126,"count":276,"type":"VEC2","name":"accessorUVs"},{"bufferView":0,"byteOffset":119652,"componentType":5123,"count":606,"type":"SCALAR","name":"accessorIndices"},{"bufferView":1,"byteOffset":568752,"componentType":5126,"count":276,"max":[0.01115265,0.012696092,0.0047903056],"min":[-0.011152638,-0.012696035,-0.0047901873],"type":"VEC3","name":"accessorPositions"},{"bufferView":2,"byteOffset":379104,"componentType":5126,"count":276,"type":"VEC4","name":"accessorTangents"},{"bufferView":1,"byteOffset":572064,"componentType":5126,"count":276,"type":"VEC3","name":"accessorNormals"},{"bufferView":3,"byteOffset":189552,"componentType":5126,"count":276,"type":"VEC2","name":"accessorUVs"},{"bufferView":0,"byteOffset":120864,"componentType":5123,"count":606,"type":"SCALAR","name":"accessorIndices"},{"bufferView":1,"byteOffset":575376,"componentType":5126,"count":276,"max":[0.011152646,0.012696092,0.0047903056],"min":[-0.011152643,-0.012696035,-0.0047901873],"type":"VEC3","name":"accessorPositions"},{"bufferView":2,"byteOffset":383520,"componentType":5126,"count":276,"type":"VEC4","name":"accessorTangents"},{"bufferView":1,"byteOffset":578688,"componentType":5126,"count":276,"type":"VEC3","name":"accessorNormals"},{"bufferView":3,"byteOffset":191760,"componentType":5126,"count":276,"type":"VEC2","name":"accessorUVs"},{"bufferView":0,"byteOffset":122076,"componentType":5123,"count":606,"type":"SCALAR","name":"accessorIndices"},{"bufferView":1,"byteOffset":582000,"componentType":5126,"count":276,"max":[0.011152646,0.012696092,0.0047903056],"min":[-0.011152643,-0.012696035,-0.0047901873],"type":"VEC3","name":"accessorPositions"},{"bufferView":2,"byteOffset":387936,"componentType":5126,"count":276,"type":"VEC4","name":"accessorTangents"},{"bufferView":1,"byteOffset":585312,"componentType":5126,"count":276,"type":"VEC3","name":"accessorNormals"},{"bufferView":3,"byteOffset":193968,"componentType":5126,"count":276,"type":"VEC2","name":"accessorUVs"},{"bufferView":0,"byteOffset":123288,"componentType":5123,"count":606,"type":"SCALAR","name":"accessorIndices"},{"bufferView":1,"byteOffset":588624,"componentType":5126,"count":276,"max":[0.011152646,0.012696092,0.0047903056],"min":[-0.011152643,-0.012696035,-0.0047901873],"type":"VEC3","name":"accessorPositions"},{"bufferView":2,"byteOffset":392352,"componentType":5126,"count":276,"type":"VEC4","name":"accessorTangents"},{"bufferView":1,"byteOffset":591936,"componentType":5126,"count":276,"type":"VEC3","name":"accessorNormals"},{"bufferView":3,"byteOffset":196176,"componentType":5126,"count":276,"type":"VEC2","name":"accessorUVs"},{"bufferView":0,"byteOffset":124500,"componentType":5123,"count":606,"type":"SCALAR","name":"accessorIndices"},{"bufferView":1,"byteOffset":595248,"componentType":5126,"count":276,"max":[0.01115265,0.012696092,0.0047903056],"min":[-0.011152638,-0.012696035,-0.0047901873],"type":"VEC3","name":"accessorPositions"},{"bufferView":2,"byteOffset":396768,"componentType":5126,"count":276,"type":"VEC4","name":"accessorTangents"},{"bufferView":1,"byteOffset":598560,"componentType":5126,"count":276,"type":"VEC3","name":"accessorNormals"},{"bufferView":3,"byteOffset":198384,"componentType":5126,"count":276,"type":"VEC2","name":"accessorUVs"}],"bufferViews":[{"buffer":0,"byteLength":125712,"name":"bufferViewScalar"},{"buffer":0,"byteOffset":125712,"byteLength":601872,"byteStride":12,"name":"bufferViewFloatVec3"},{"buffer":0,"byteOffset":727584,"byteLength":401184,"byteStride":16,"name":"bufferViewFloatVec4"},{"buffer":0,"byteOffset":1128768,"byteLength":200592,"byteStride":8,"name":"bufferViewFloatVec2"}],"buffers":[{"uri":"U-Shaped_Stair_Boss-with-Tread-Cap.bin","byteLength":1329360}],"materials":[{"pbrMetallicRoughness":{"baseColorFactor":[0.005005772,0.005005772,0.005005772,1.0],"metallicFactor":0.0,"metallicRoughnessTexture":{"index":0}},"name":"PowderCoat_Stair"},{"pbrMetallicRoughness":{"baseColorFactor":[0.9999998,0.9999999,0.9999999,1.0],"metallicFactor":0.0},"emissiveFactor":[0.9999998,0.9999999,0.9999999],"name":"LED"},{"pbrMetallicRoughness":{"baseColorTexture":{"index":2,"extensions":{"KHR_texture_transform":{"offset":[0.44444445,0.44444442],"scale":[0.11111111,0.11111111],"texCoord":0}}},"metallicFactor":0.0,"roughnessFactor":0.95},"normalTexture":{"index":1,"extensions":{"KHR_texture_transform":{"offset":[0.44444445,0.44444442],"scale":[0.11111111,0.11111111],"texCoord":0}}},"name":"Wood","extensions":{"KHR_materials_clearcoat":{"clearcoatFactor":1.0,"clearcoatTexture":{"index":3,"extensions":{"KHR_texture_transform":{"offset":[0.44444445,0.44444442],"scale":[0.11111111,0.11111111],"texCoord":0}}},"clearcoatRoughnessFactor":0.5}}}],"textures":[{"sampler":0,"source":0,"name":"PowderCoat_Roughness_2k0.jpg"},{"sampler":0,"source":1,"name":"Wood_American Cherry_Normal.jpg"},{"sampler":0,"source":2,"name":"Wood_American Cherry_diffuse.jpg"},{"sampler":0,"source":3,"name":"Wood_American Cherry_roughness.jpg"}],"images":[{"uri":"textures/PowderCoat_Roughness_2k0.jpg"},{"uri":"textures/Wood_American Cherry_Normal.jpg"},{"uri":"textures/Wood_American Cherry_diffuse.jpg"},{"uri":"textures/Wood_American Cherry_roughness.jpg"}],"samplers":[{"magFilter":9729,"minFilter":9987}],"extensions":{"KHR_lights_punctual":{"lights":[{"color":[0.99999994,0.99999994,1.0000001],"intensity":0.1,"type":"point"},{"color":[0.99999994,0.99999994,1.0000001],"intensity":0.1,"type":"point"},{"color":[0.99999994,0.99999994,1.0000001],"intensity":0.1,"type":"point"},{"color":[0.99999994,0.99999994,1.0000001],"intensity":0.1,"type":"point"},{"color":[0.99999994,0.99999994,1.0000001],"intensity":0.1,"type":"point"},{"color":[0.99999994,0.99999994,1.0000001],"intensity":0.1,"type":"point"},{"color":[0.99999994,0.99999994,1.0000001],"intensity":0.1,"type":"point"},{"color":[0.99999994,0.99999994,1.0000001],"intensity":0.1,"type":"point"},{"color":[0.99999994,0.99999994,1.0000001],"intensity":0.1,"type":"point"},{"color":[0.99999994,0.99999994,1.0000001],"intensity":0.1,"type":"point"},{"color":[0.99999994,0.99999994,1.0000001],"intensity":0.1,"type":"point"},{"color":[0.99999994,0.99999994,1.0000001],"intensity":0.1,"type":"point"},{"color":[0.99999994,0.99999994,1.0000001],"intensity":0.1,"type":"point"},{"color":[0.99999994,0.99999994,1.0000001],"intensity":0.1,"type":"point"},{"color":[0.99999994,0.99999994,1.0000001],"intensity":0.1,"type":"point"},{"color":[0.99999994,0.99999994,1.0000001],"intensity":0.1,"type":"point"},{"color":[0.99999994,0.99999994,1.0000001],"intensity":0.1,"type":"point"},{"color":[0.99999994,0.99999994,1.0000001],"intensity":0.1,"type":"point"},{"color":[0.99999994,0.99999994,1.0000001],"intensity":0.1,"type":"point"},{"color":[0.99999994,0.99999994,1.0000001],"intensity":0.1,"type":"point"},{"color":[0.99999994,0.99999994,1.0000001],"intensity":0.1,"type":"point"},{"color":[0.99999994,0.99999994,1.0000001],"intensity":0.1,"type":"point"},{"color":[0.99999994,0.99999994,1.0000001],"intensity":0.1,"type":"point"},{"color":[0.99999994,0.99999994,1.0000001],"intensity":0.1,"type":"point"},{"color":[0.99999994,0.99999994,1.0000001],"intensity":0.1,"type":"point"},{"color":[0.99999994,0.99999994,1.0000001],"intensity":0.1,"type":"point"},{"color":[0.99999994,0.99999994,1.0000001],"intensity":0.1,"type":"point"},{"color":[0.99999994,0.99999994,1.0000001],"intensity":0.1,"type":"point"},{"color":[0.99999994,0.99999994,1.0000001],"intensity":0.1,"type":"point"},{"color":[0.99999994,0.99999994,1.0000001],"intensity":0.1,"type":"point"},{"color":[0.99999994,0.99999994,1.0000001],"intensity":0.1,"type":"point"},{"color":[0.99999994,0.99999994,1.0000001],"intensity":0.1,"type":"point"},{"color":[0.99999994,0.99999994,1.0000001],"intensity":0.1,"type":"point"},{"color":[0.99999994,0.99999994,1.0000001],"intensity":0.1,"type":"point"},{"color":[0.99999994,0.99999994,1.0000001],"intensity":0.1,"type":"point"},{"color":[0.99999994,0.99999994,1.0000001],"intensity":0.1,"type":"point"},{"color":[0.99999994,0.99999994,1.0000001],"intensity":0.1,"type":"point"},{"color":[0.99999994,0.99999994,1.0000001],"intensity":0.1,"type":"point"},{"color":[0.99999994,0.99999994,1.0000001],"intensity":0.1,"type":"point"},{"color":[0.99999994,0.99999994,1.0000001],"intensity":0.1,"type":"point"},{"color":[0.99999994,0.99999994,1.0000001],"intensity":0.1,"type":"point"},{"color":[0.99999994,0.99999994,1.0000001],"intensity":0.1,"type":"point"}]}}}