{"asset":{"version":"2.0","generator":"babylon.js glTF exporter for 3dsmax 2026 v20251111.2"},"extensionsUsed":["KHR_materials_ior","KHR_materials_transmission","KHR_materials_volume","KHR_texture_transform","KHR_materials_specular"],"extensionsRequired":["KHR_texture_transform"],"scene":0,"scenes":[{"nodes":[0,1,2,3,4,5,6,7,8,9,10,11,12,13,14,15,16,17,18,19,20,21,22,23,24,25,26,27,28,29,30,31,32,33,34,35,36,37,38,39,40,41,42,43,44,45,46,47,48,49,50,51,52,53,54,55,56,57,58,59,60,61,62,63,64,65,66,67,68,69,70,71,72,73,74,75,76,77,78,79,80,81,82,83,84,85,86,87,88,89,90,91,92,93,94,95,96,97,98,99,100,101,102,103,104,105,106,107,108,109,110,111,112,113,114,115,116,117,118,119,120,121,122,123,124,125,126,127,128,129,130,131,132,133,134,135,136,137,138,139,140,141,142,143,144,145,146,147,148,149,150,151,152,153,154,155,156,157,158,159,160,161,162,163,164,165,166,167,168,169,170,171,172,173,174,175,176,177,178,179,180,181,182,183,184,185,186,187,188,189,190,191,192,193,194,195,196,197,198,199,200,201,202,203,204,205,206,207,208,209,210,211,212,213,214,215,216,217,218,219,220,221,222,223,224,225,226,227,228,229,230,231,232,233,234,235,236,237,238,239,240,241,242,243,244,245,246,247,248,249,250,251,252,253,254,255,256,257,258,259,260,261,262,263,264,265]}],"nodes":[{"mesh":0,"translation":[0.8829833,2.8968084,-0.076767445],"name":"Infill_Glass_Raked & Horizontal Generic [8199751]"},{"mesh":1,"translation":[0.6395117,2.209226,0.4102712],"name":"Infill_Glass_Transition Generic [8202170]"},{"mesh":2,"translation":[0.63959336,2.3637831,0.8204894],"name":"Generic Models 1 Generic Models 1 [8568048]"},{"mesh":3,"translation":[-0.30818832,2.3637452,0.8378442],"name":"Generic Models 10 Generic Models 1 [8735975]"},{"mesh":4,"translation":[0.067898184,2.601503,-1.0244794],"rotation":[-0.0,3.133859E-15,0.0,1.0],"name":"Infill_Glass_Raked & Horizontal Generic [8737682]"},{"mesh":5,"translation":[1.022491,2.8665884,-1.0244794],"name":"Casework 1 Casework 1 [8738332]"},{"mesh":6,"translation":[-0.30819747,2.601503,-0.64838374],"rotation":[-0.0,-0.7071068,0.0,0.7071067],"name":"Infill_Glass_Raked & Horizontal Generic [8738822]"},{"mesh":7,"translation":[-0.30820024,2.2095554,0.44231918],"rotation":[-0.0,0.7071068,0.0,0.7071068],"name":"Infill_Glass_Raked & Horizontal Generic [8739593]"},{"mesh":8,"translation":[-0.3169276,2.1990044,-0.074374564],"name":"OPT006 - Optik Glass Pad Part [9224006]"},{"mesh":8,"translation":[-0.3169276,2.4530046,-0.074374564],"name":"OPT006 - Optik Glass Pad Part [9224000]"},{"mesh":8,"translation":[-0.31692266,2.1990044,-0.07030935],"name":"OPT006 - Optik Glass Pad Part [9223930]"},{"mesh":8,"translation":[-0.31692266,2.4530046,-0.07030935],"name":"OPT006 - Optik Glass Pad Part [9223924]"},{"mesh":8,"translation":[-0.31692266,2.1990044,-0.88134855],"name":"OPT006 - Optik Glass Pad Part [9223816]"},{"mesh":8,"translation":[-0.31692266,2.4530046,-0.88134855],"name":"OPT006 - Optik Glass Pad Part [9223810]"},{"mesh":8,"translation":[0.34976223,2.1990044,-1.0332044],"rotation":[-0.0,-0.7071068,0.0,0.7071067],"name":"OPT006 - Optik Glass Pad Part [9223740]"},{"mesh":8,"translation":[0.34976223,2.4530046,-1.0332044],"rotation":[-0.0,-0.7071068,0.0,0.7071067],"name":"OPT006 - Optik Glass Pad Part [9223734]"},{"mesh":8,"translation":[0.61646223,2.2859743,-1.0332044],"rotation":[-0.0,-0.7071068,0.0,0.7071067],"name":"OPT006 - Optik Glass Pad Part [9223702]"},{"mesh":8,"translation":[0.61646223,2.539974,-1.0332044],"rotation":[-0.0,-0.7071068,0.0,0.7071067],"name":"OPT006 - Optik Glass Pad Part [9223696]"},{"mesh":8,"translation":[1.4286326,2.8346148,-1.0332044],"rotation":[-0.0,-0.7071068,0.0,0.7071067],"name":"OPT006 - Optik Glass Pad Part [9223664]"},{"mesh":8,"translation":[1.4286326,3.0886145,-1.0332044],"rotation":[-0.0,-0.7071068,0.0,0.7071067],"name":"OPT006 - Optik Glass Pad Part [9223658]"},{"mesh":8,"translation":[0.64823675,1.7373344,0.70801455],"rotation":[-0.0,-1.0,0.0,-1.6292068E-07],"name":"OPT006 - Optik Glass Pad Part [9223322]"},{"mesh":8,"translation":[0.64823675,1.991334,0.70801455],"rotation":[-0.0,-1.0,0.0,-1.6292068E-07],"name":"OPT006 - Optik Glass Pad Part [9223316]"},{"mesh":9,"translation":[-0.3010495,2.1990044,-0.074374564],"name":"OPT006A - Optik Glass Pad Part [9224005]"},{"mesh":9,"translation":[-0.3010495,2.4530046,-0.074374564],"name":"OPT006A - Optik Glass Pad Part [9223999]"},{"mesh":9,"translation":[-0.30105385,2.1990044,-0.88134855],"name":"OPT006A - Optik Glass Pad Part [9223815]"},{"mesh":9,"translation":[-0.30105385,2.4530046,-0.88134855],"name":"OPT006A - Optik Glass Pad Part [9223809]"},{"mesh":9,"translation":[0.34976223,2.1990044,-1.0173309],"rotation":[-0.0,-0.7071068,0.0,0.7071067],"name":"OPT006A - Optik Glass Pad Part [9223739]"},{"mesh":9,"translation":[0.34976223,2.4530046,-1.0173309],"rotation":[-0.0,-0.7071068,0.0,0.7071067],"name":"OPT006A - Optik Glass Pad Part [9223733]"},{"mesh":9,"translation":[0.61646223,2.2859743,-1.0173309],"rotation":[-0.0,-0.7071068,0.0,0.7071067],"name":"OPT006A - Optik Glass Pad Part [9223701]"},{"mesh":9,"translation":[0.61646223,2.539974,-1.0173309],"rotation":[-0.0,-0.7071068,0.0,0.7071067],"name":"OPT006A - Optik Glass Pad Part [9223695]"},{"mesh":9,"translation":[1.4286326,2.8346148,-1.0173309],"rotation":[-0.0,-0.7071068,0.0,0.7071067],"name":"OPT006A - Optik Glass Pad Part [9223663]"},{"mesh":9,"translation":[1.4286326,3.0886145,-1.0173309],"rotation":[-0.0,-0.7071068,0.0,0.7071067],"name":"OPT006A - Optik Glass Pad Part [9223657]"},{"mesh":9,"translation":[0.6323633,1.7373344,0.70801455],"rotation":[-0.0,-1.0,0.0,-1.6292068E-07],"name":"OPT006A - Optik Glass Pad Part [9223321]"},{"mesh":9,"translation":[0.6323633,1.991334,0.70801455],"rotation":[-0.0,-1.0,0.0,-1.6292068E-07],"name":"OPT006A - Optik Glass Pad Part [9223315]"},{"mesh":10,"translation":[-0.32327604,2.1990044,-0.074374564],"name":"CSQ088 - Circum Square Lo-Post Spacer Part [9223427]050"},{"mesh":10,"translation":[-0.32327604,2.4530046,-0.074374564],"name":"CSQ088 - Circum Square Lo-Post Spacer Part [9223427]049"},{"mesh":10,"translation":[-0.32327577,2.1990044,-0.88134855],"name":"CSQ088 - Circum Square Lo-Post Spacer Part [9223427]040"},{"mesh":10,"translation":[-0.32327577,2.4530046,-0.88134855],"name":"CSQ088 - Circum Square Lo-Post Spacer Part [9223427]039"},{"mesh":10,"translation":[-0.16507147,2.1990044,-1.0395528],"rotation":[-0.0,-0.7071068,0.0,0.7071067],"name":"CSQ088 - Circum Square Lo-Post Spacer Part [9223427]038"},{"mesh":10,"translation":[-0.16507147,2.4530046,-1.0395528],"rotation":[-0.0,-0.7071068,0.0,0.7071067],"name":"CSQ088 - Circum Square Lo-Post Spacer Part [9223427]037"},{"mesh":10,"translation":[0.34976223,2.1990044,-1.0395528],"rotation":[-0.0,-0.7071068,0.0,0.7071067],"name":"CSQ088 - Circum Square Lo-Post Spacer Part [9223427]036"},{"mesh":10,"translation":[0.34976223,2.4530046,-1.0395528],"rotation":[-0.0,-0.7071068,0.0,0.7071067],"name":"CSQ088 - Circum Square Lo-Post Spacer Part [9223427]035"},{"mesh":10,"translation":[0.61646223,2.2859743,-1.0395528],"rotation":[-0.0,-0.7071068,0.0,0.7071067],"name":"CSQ088 - Circum Square Lo-Post Spacer Part [9223427]034"},{"mesh":10,"translation":[0.61646223,2.539974,-1.0395528],"rotation":[-0.0,-0.7071068,0.0,0.7071067],"name":"CSQ088 - Circum Square Lo-Post Spacer Part [9223427]033"},{"mesh":10,"translation":[1.4286326,2.8346148,-1.0395528],"rotation":[-0.0,-0.7071068,0.0,0.7071067],"name":"CSQ088 - Circum Square Lo-Post Spacer Part [9223427]032"},{"mesh":10,"translation":[1.4286326,3.0886145,-1.0395528],"rotation":[-0.0,-0.7071068,0.0,0.7071067],"name":"CSQ088 - Circum Square Lo-Post Spacer Part [9223427]031"},{"mesh":10,"translation":[-0.32327604,1.5544542,0.9743417],"name":"CSQ088 - Circum Square Lo-Post Spacer Part [9223427]024"},{"mesh":10,"translation":[-0.32327604,1.8084539,0.9743417],"name":"CSQ088 - Circum Square Lo-Post Spacer Part [9223427]023"},{"mesh":10,"translation":[-0.32327604,1.7373344,0.70801455],"name":"CSQ088 - Circum Square Lo-Post Spacer Part [9223427]022"},{"mesh":10,"translation":[-0.32327604,1.991334,0.70801455],"name":"CSQ088 - Circum Square Lo-Post Spacer Part [9223427]021"},{"mesh":10,"translation":[-0.32327604,2.103094,0.17503314],"name":"CSQ088 - Circum Square Lo-Post Spacer Part [9223427]020"},{"mesh":10,"translation":[-0.32327604,2.3570943,0.17503314],"name":"CSQ088 - Circum Square Lo-Post Spacer Part [9223427]019"},{"mesh":10,"translation":[0.6545852,1.7373344,0.70801455],"rotation":[-0.0,-1.0,0.0,-1.6292068E-07],"name":"CSQ088 - Circum Square Lo-Post Spacer Part [9223427]014"},{"mesh":10,"translation":[0.6545852,1.991334,0.70801455],"rotation":[-0.0,-1.0,0.0,-1.6292068E-07],"name":"CSQ088 - Circum Square Lo-Post Spacer Part [9223427]013"},{"mesh":10,"translation":[1.4286326,2.8346148,-0.061691582],"rotation":[-0.0,0.7071068,0.0,0.7071067],"name":"CSQ088 - Circum Square Lo-Post Spacer Part [9223427]010"},{"mesh":10,"translation":[1.4286326,3.0886145,-0.061691582],"rotation":[-0.0,0.7071068,0.0,0.7071067],"name":"CSQ088 - Circum Square Lo-Post Spacer Part [9223427]009"},{"mesh":10,"translation":[0.8471336,2.4688542,-0.061691582],"rotation":[-0.0,0.7071068,0.0,0.7071067],"name":"CSQ088 - Circum Square Lo-Post Spacer Part [9223427]004"},{"mesh":10,"translation":[0.8471336,2.7228544,-0.061691582],"rotation":[-0.0,0.7071068,0.0,0.7071067],"name":"CSQ088 - Circum Square Lo-Post Spacer Part [9223427]003"},{"mesh":10,"translation":[0.6545753,2.3570943,0.1385099],"rotation":[-0.0,-1.0,0.0,-4.371139E-08],"name":"CSQ088 - Circum Square Lo-Post Spacer Part [9223427]051"},{"mesh":10,"translation":[0.6545753,2.103094,0.1385099],"rotation":[-0.0,-1.0,0.0,-4.371139E-08],"name":"CSQ088 - Circum Square Lo-Post Spacer Part [9223427]052"},{"mesh":11,"translation":[-0.3486745,2.0116792,-0.074374564],"rotation":[-0.0,-1.0,0.0,-1.6292068E-07],"name":"CSQ001-US - Surface Mount Weldment Part [8723797]205"},{"mesh":11,"translation":[-0.34867886,2.0116792,-0.88134855],"rotation":[-0.0,-1.0,0.0,2.8212997E-07],"name":"CSQ001-US - Surface Mount Weldment Part [8723797]204"},{"mesh":11,"translation":[-0.16507147,2.0116792,-1.064956],"rotation":[-0.0,0.7071068,0.0,0.7071067],"name":"CSQ001-US - Surface Mount Weldment Part [8723797]203"},{"mesh":11,"translation":[0.34976223,2.0116792,-1.064956],"rotation":[-0.0,0.7071068,0.0,0.7071067],"name":"CSQ001-US - Surface Mount Weldment Part [8723797]202"},{"mesh":11,"translation":[0.61646223,2.0116792,-1.064956],"rotation":[-0.0,0.7071068,0.0,0.7071067],"name":"CSQ001-US - Surface Mount Weldment Part [8723797]201"},{"mesh":11,"translation":[1.4286326,2.56032,-1.064956],"rotation":[-0.0,0.7071068,0.0,0.7071067],"name":"CSQ001-US - Surface Mount Weldment Part [8723797]200"},{"mesh":11,"translation":[-0.3486745,1.2801597,0.9743417],"rotation":[-0.0,-1.0,0.0,-1.6292068E-07],"name":"CSQ001-US - Surface Mount Weldment Part [8723797]199"},{"mesh":11,"translation":[-0.3486745,1.4630395,0.70801455],"rotation":[-0.0,-1.0,0.0,-1.6292068E-07],"name":"CSQ001-US - Surface Mount Weldment Part [8723797]198"},{"mesh":11,"translation":[-0.3486745,1.8287997,0.17503314],"rotation":[-0.0,-1.0,0.0,-1.6292068E-07],"name":"CSQ001-US - Surface Mount Weldment Part [8723797]197"},{"mesh":11,"translation":[0.6799883,1.4630395,0.70801455],"name":"CSQ001-US - Surface Mount Weldment Part [8723797]196"},{"mesh":11,"translation":[1.4286326,2.56032,-0.036293134],"rotation":[-0.0,-0.7071068,0.0,0.7071067],"name":"CSQ001-US - Surface Mount Weldment Part [8723797]195"},{"mesh":11,"translation":[0.8471336,2.19456,-0.036293134],"rotation":[-0.0,-0.7071068,0.0,0.7071067],"name":"CSQ001-US - Surface Mount Weldment Part [8723797]194"},{"mesh":11,"translation":[0.6799738,1.8287997,0.1385099],"rotation":[-0.0,-3.2584137E-07,0.0,1.0],"name":"CSQ001-US - Surface Mount Weldment Part [8723797]206"},{"mesh":11,"translation":[0.6800594,0.91459084,1.5558388],"rotation":[-0.0,-5.9604645E-08,0.0,1.0],"name":"CSQ001-US - Surface Mount Weldment Part [8723797]207"},{"mesh":11,"translation":[0.6800594,1.2801597,0.9743417],"rotation":[-0.0,-5.9604645E-08,0.0,1.0],"name":"CSQ001-US - Surface Mount Weldment Part [8723797]208"},{"mesh":11,"translation":[0.89138544,0.54883057,2.7516472],"rotation":[-0.0,-0.7071069,0.0,0.70710665],"name":"CSQ001-US - Surface Mount Weldment Part [8723797]209"},{"mesh":11,"translation":[-0.34860328,0.73171014,1.7865107],"rotation":[-0.0,-1.0,0.0,4.371139E-08],"name":"CSQ001-US - Surface Mount Weldment Part [8723797]210"},{"mesh":11,"translation":[-0.34860328,0.73171014,2.0532107],"rotation":[-0.0,-1.0,0.0,4.371139E-08],"name":"CSQ001-US - Surface Mount Weldment Part [8723797]211"},{"mesh":11,"translation":[-0.34860328,0.73171014,2.5680444],"rotation":[-0.0,-1.0,0.0,4.371139E-08],"name":"CSQ001-US - Surface Mount Weldment Part [8723797]212"},{"mesh":11,"translation":[-0.1649959,0.73171014,2.7516518],"rotation":[-0.0,-0.7071066,0.0,0.70710695],"name":"CSQ001-US - Surface Mount Weldment Part [8723797]213"},{"mesh":11,"translation":[0.64197797,0.73171014,2.7516472],"rotation":[-0.0,-0.7071069,0.0,0.70710665],"name":"CSQ001-US - Surface Mount Weldment Part [8723797]214"},{"mesh":11,"translation":[0.85486263,0.54883057,1.7229984],"rotation":[-0.0,0.7071066,0.0,0.70710695],"name":"CSQ001-US - Surface Mount Weldment Part [8723797]215"},{"mesh":11,"translation":[1.423725,0.18307057,1.7229844],"rotation":[-0.0,0.7071068,0.0,0.7071067],"name":"CSQ001-US - Surface Mount Weldment Part [8723797]216"},{"mesh":11,"translation":[1.423725,0.18307057,2.7516472],"rotation":[-0.0,-0.7071069,0.0,0.70710665],"name":"CSQ001-US - Surface Mount Weldment Part [8723797]217"},{"mesh":12,"translation":[-0.3486745,2.0116792,-0.074374564],"rotation":[-0.7071067,-0.7071068,-1.1520233E-07,-1.1520231E-07],"name":"LS208 & LS209 - Circum Square Post Material LS Material [9223995]"},{"mesh":13,"translation":[-0.3486745,2.4815798,-0.074374564],"rotation":[-0.0,-1.0,0.0,-1.6292068E-07],"name":"CSQ022 - Square Post Omaha Cap Part [8465283]063"},{"mesh":13,"translation":[-0.34867886,2.4815798,-0.88134855],"rotation":[-0.0,-1.0,0.0,2.8212997E-07],"name":"CSQ022 - Square Post Omaha Cap Part [8465283]058"},{"mesh":13,"translation":[-0.16507147,2.4815798,-1.064956],"rotation":[-0.0,0.7071068,0.0,0.7071067],"name":"CSQ022 - Square Post Omaha Cap Part [8465283]057"},{"mesh":13,"translation":[0.34976223,2.4815798,-1.064956],"rotation":[-0.0,0.7071068,0.0,0.7071067],"name":"CSQ022 - Square Post Omaha Cap Part [8465283]056"},{"mesh":13,"translation":[0.61646223,2.5685492,-1.064956],"rotation":[-0.0,0.7071068,0.0,0.7071067],"name":"CSQ022 - Square Post Omaha Cap Part [8465283]055"},{"mesh":13,"translation":[1.4286326,3.1171894,-1.064956],"rotation":[-0.0,0.7071068,0.0,0.7071067],"name":"CSQ022 - Square Post Omaha Cap Part [8465283]054"},{"mesh":13,"translation":[-0.3486745,1.8370289,0.9743417],"rotation":[-0.0,-1.0,0.0,-1.6292068E-07],"name":"CSQ022 - Square Post Omaha Cap Part [8465283]050"},{"mesh":13,"translation":[-0.3486745,2.019909,0.70801455],"rotation":[-0.0,-1.0,0.0,-1.6292068E-07],"name":"CSQ022 - Square Post Omaha Cap Part [8465283]049"},{"mesh":13,"translation":[-0.3486745,2.3856692,0.17503314],"rotation":[-0.0,-1.0,0.0,-1.6292068E-07],"name":"CSQ022 - Square Post Omaha Cap Part [8465283]048"},{"mesh":13,"translation":[0.6799883,2.019909,0.70801455],"name":"CSQ022 - Square Post Omaha Cap Part [8465283]045"},{"mesh":13,"translation":[1.4286326,3.1171894,-0.036293134],"rotation":[-0.0,-0.7071068,0.0,0.7071067],"name":"CSQ022 - Square Post Omaha Cap Part [8465283]043"},{"mesh":13,"translation":[0.8471336,2.7514296,-0.036293134],"rotation":[-0.0,-0.7071068,0.0,0.7071067],"name":"CSQ022 - Square Post Omaha Cap Part [8465283]040"},{"mesh":13,"translation":[0.6799738,2.3856692,0.1385099],"rotation":[-0.0,-3.2584137E-07,0.0,1.0],"name":"CSQ022 - Square Post Omaha Cap Part [8465283]064"},{"mesh":14,"translation":[-0.3002635,2.4530046,-0.074374564],"rotation":[-0.0,0.70710695,0.0,0.7071066],"name":"CSQ086 - Circum Lo-Post Cover Part [9223866]025"},{"mesh":14,"translation":[-0.30026323,2.4530046,-0.88134855],"rotation":[-0.0,0.7071068,0.0,0.7071067],"name":"CSQ086 - Circum Lo-Post Cover Part [9223866]020"},{"mesh":14,"translation":[-0.16507147,2.4530046,-1.0165403],"rotation":[-0.0,-2.3841858E-07,0.0,1.0],"name":"CSQ086 - Circum Lo-Post Cover Part [9223866]019"},{"mesh":14,"translation":[0.34976223,2.4530046,-1.0165403],"name":"CSQ086 - Circum Lo-Post Cover Part [9223866]018"},{"mesh":14,"translation":[0.61646223,2.539974,-1.0165403],"name":"CSQ086 - Circum Lo-Post Cover Part [9223866]017"},{"mesh":14,"translation":[1.4286326,3.0886145,-1.0165403],"name":"CSQ086 - Circum Lo-Post Cover Part [9223866]016"},{"mesh":14,"translation":[-0.3002635,1.8084539,0.9743417],"rotation":[-0.0,0.7071068,0.0,0.7071067],"name":"CSQ086 - Circum Lo-Post Cover Part [9223866]012"},{"mesh":14,"translation":[-0.3002635,1.991334,0.70801455],"rotation":[-0.0,0.7071068,0.0,0.7071067],"name":"CSQ086 - Circum Lo-Post Cover Part [9223866]011"},{"mesh":14,"translation":[-0.3002635,2.3570943,0.17503314],"rotation":[-0.0,0.7071068,0.0,0.7071067],"name":"CSQ086 - Circum Lo-Post Cover Part [9223866]010"},{"mesh":14,"translation":[0.63157266,1.991334,0.70801455],"rotation":[-0.0,-0.7071068,0.0,0.7071067],"name":"CSQ086 - Circum Lo-Post Cover Part [9223866]007"},{"mesh":14,"translation":[1.4286326,3.0886145,-0.08470413],"rotation":[-0.0,-1.0,0.0,4.371139E-08],"name":"CSQ086 - Circum Lo-Post Cover Part [9223866]005"},{"mesh":14,"translation":[0.8471336,2.7228544,-0.08470413],"rotation":[-0.0,-1.0,0.0,4.371139E-08],"name":"CSQ086 - Circum Lo-Post Cover Part [9223866]002"},{"mesh":14,"translation":[0.63156277,2.3570943,0.1385099],"rotation":[-0.0,-0.7071068,0.0,0.7071067],"name":"CSQ086 - Circum Lo-Post Cover Part [9223866]026"},{"mesh":15,"translation":[-0.34867886,2.0116792,-0.88134855],"rotation":[-0.7071067,-0.7071068,1.784226E-07,1.784226E-07],"name":"LS208 & LS209 - Circum Square Post Material LS Material [9223805]"},{"mesh":16,"translation":[-0.16507147,2.1990044,-1.0332044],"rotation":[-0.0,-0.7071068,0.0,0.7071067],"name":"OPT006 - Optik Glass Pad Part [9223778]"},{"mesh":16,"translation":[-0.16507147,2.4530046,-1.0332044],"rotation":[-0.0,-0.7071068,0.0,0.7071067],"name":"OPT006 - Optik Glass Pad Part [9223772]"},{"mesh":16,"translation":[-0.3169276,1.5544542,0.9743417],"name":"OPT006 - Optik Glass Pad Part [9223512]"},{"mesh":16,"translation":[-0.3169276,1.8084539,0.9743417],"name":"OPT006 - Optik Glass Pad Part [9223506]"},{"mesh":16,"translation":[-0.3169276,1.7373344,0.70801455],"name":"OPT006 - Optik Glass Pad Part [9223474]"},{"mesh":16,"translation":[-0.3169276,1.991334,0.70801455],"name":"OPT006 - Optik Glass Pad Part [9223468]"},{"mesh":16,"translation":[-0.3169276,2.103094,0.17503314],"name":"OPT006 - Optik Glass Pad Part [9223436]"},{"mesh":16,"translation":[-0.3169276,2.3570943,0.17503314],"name":"OPT006 - Optik Glass Pad Part [9223430]"},{"mesh":16,"translation":[1.4286326,2.8346148,-0.068040036],"rotation":[-0.0,0.7071068,0.0,0.7071067],"name":"OPT006 - Optik Glass Pad Part [9223246]"},{"mesh":16,"translation":[1.4286326,3.0886145,-0.068040036],"rotation":[-0.0,0.7071068,0.0,0.7071067],"name":"OPT006 - Optik Glass Pad Part [9223240]"},{"mesh":16,"translation":[0.8471336,2.4688542,-0.068040036],"rotation":[-0.0,0.7071068,0.0,0.7071067],"name":"OPT006 - Optik Glass Pad Part [9223131]"},{"mesh":16,"translation":[0.8471336,2.7228544,-0.068040036],"rotation":[-0.0,0.7071068,0.0,0.7071067],"name":"OPT006 - Optik Glass Pad Part [9223123]"},{"mesh":16,"translation":[0.64822686,2.3570943,0.1385099],"rotation":[-0.0,-1.0,0.0,-4.371139E-08],"name":"OPT006 - Optik Glass Pad Part [9223430]001"},{"mesh":16,"translation":[0.64822686,2.103094,0.1385099],"rotation":[-0.0,-1.0,0.0,-4.371139E-08],"name":"OPT006 - Optik Glass Pad Part [9223436]001"},{"mesh":17,"translation":[-0.16507147,2.1990044,-1.0173309],"rotation":[-0.0,-0.7071068,0.0,0.7071067],"name":"OPT006A - Optik Glass Pad Part [9223777]"},{"mesh":17,"translation":[-0.16507147,2.4530046,-1.0173309],"rotation":[-0.0,-0.7071068,0.0,0.7071067],"name":"OPT006A - Optik Glass Pad Part [9223771]"},{"mesh":17,"translation":[-0.3010495,1.5544542,0.9743417],"name":"OPT006A - Optik Glass Pad Part [9223511]"},{"mesh":17,"translation":[-0.3010495,1.8084539,0.9743417],"name":"OPT006A - Optik Glass Pad Part [9223505]"},{"mesh":17,"translation":[-0.3010495,1.7373344,0.70801455],"name":"OPT006A - Optik Glass Pad Part [9223473]"},{"mesh":17,"translation":[-0.3010495,1.991334,0.70801455],"name":"OPT006A - Optik Glass Pad Part [9223467]"},{"mesh":17,"translation":[-0.3010495,2.103094,0.17503314],"name":"OPT006A - Optik Glass Pad Part [9223435]"},{"mesh":17,"translation":[-0.3010495,2.3570943,0.17503314],"name":"OPT006A - Optik Glass Pad Part [9223429]"},{"mesh":17,"translation":[1.4286326,2.8346148,-0.08391813],"rotation":[-0.0,0.7071068,0.0,0.7071067],"name":"OPT006A - Optik Glass Pad Part [9223245]"},{"mesh":17,"translation":[1.4286326,3.0886145,-0.08391813],"rotation":[-0.0,0.7071068,0.0,0.7071067],"name":"OPT006A - Optik Glass Pad Part [9223239]"},{"mesh":17,"translation":[0.8471336,2.4688542,-0.08391813],"rotation":[-0.0,0.7071068,0.0,0.7071067],"name":"OPT006A - Optik Glass Pad Part [9223130]"},{"mesh":17,"translation":[0.8471336,2.7228544,-0.08391813],"rotation":[-0.0,0.7071068,0.0,0.7071067],"name":"OPT006A - Optik Glass Pad Part [9223122]"},{"mesh":17,"translation":[0.6323488,2.3570943,0.1385099],"rotation":[-0.0,-1.0,0.0,-4.371139E-08],"name":"OPT006A - Optik Glass Pad Part [9223429]001"},{"mesh":17,"translation":[0.6323488,2.103094,0.1385099],"rotation":[-0.0,-1.0,0.0,-4.371139E-08],"name":"OPT006A - Optik Glass Pad Part [9223435]001"},{"mesh":18,"translation":[-0.16507147,2.0116792,-1.064956],"rotation":[0.5000001,0.49999997,0.49999985,0.50000006],"name":"LS208 & LS209 - Circum Square Post Material LS Material [9223767]"},{"mesh":19,"translation":[0.34976223,2.0116792,-1.064956],"rotation":[0.5000001,0.49999997,0.49999985,0.50000006],"name":"LS208 & LS209 - Circum Square Post Material LS Material [9223729]"},{"mesh":20,"translation":[0.61646223,2.0116792,-1.064956],"rotation":[0.5000001,0.49999997,0.49999985,0.50000006],"name":"LS208 & LS209 - Circum Square Post Material LS Material [9223691]"},{"mesh":21,"translation":[1.4286326,2.56032,-1.064956],"rotation":[0.5000001,0.49999997,0.49999985,0.50000006],"name":"LS208 & LS209 - Circum Square Post Material LS Material [9223653]"},{"mesh":22,"translation":[-0.3486745,1.2801597,0.9743417],"rotation":[-0.7071067,-0.7071068,-1.1520233E-07,-1.1520231E-07],"name":"LS208 & LS209 - Circum Square Post Material LS Material [9223501]"},{"mesh":23,"translation":[-0.3486745,1.4630395,0.70801455],"rotation":[-0.7071067,-0.7071068,-1.1520233E-07,-1.1520231E-07],"name":"LS208 & LS209 - Circum Square Post Material LS Material [9223463]"},{"mesh":24,"translation":[-0.3486745,1.8287997,0.17503314],"rotation":[-0.7071067,-0.7071068,-1.1520233E-07,-1.1520231E-07],"name":"LS208 & LS209 - Circum Square Post Material LS Material [9223425]"},{"mesh":24,"translation":[0.6799738,1.8287997,0.1385099],"rotation":[-2.3040462E-07,-2.3040465E-07,0.7071068,0.7071067],"name":"LS208 & LS209 - Circum Square Post Material LS Material [9223425]001"},{"mesh":25,"translation":[0.6799883,1.4630395,0.70801455],"rotation":[6.322028E-08,6.322026E-08,0.70710665,0.7071069],"name":"LS208 & LS209 - Circum Square Post Material LS Material [9223311]"},{"mesh":26,"translation":[1.4286326,2.56032,-0.036293134],"rotation":[-0.5,-0.50000006,0.5,0.49999994],"name":"LS208 & LS209 - Circum Square Post Material LS Material [9223235]"},{"mesh":27,"translation":[0.8471336,2.19456,-0.036293134],"rotation":[-0.5,-0.50000006,0.5,0.49999994],"name":"LS208 & LS209 - Circum Square Post Material LS Material [9223115]"},{"mesh":28,"translation":[1.163801,3.6663659,-0.513857],"name":"Object"},{"mesh":29,"translation":[1.6726357,3.7321718,-0.07691128],"name":"Generic Models 11 Generic Models 11 [8762451]005"},{"mesh":30,"translation":[0.6800594,1.4714603,1.5558388],"rotation":[-0.0,-5.9604645E-08,0.0,1.0],"name":"CSQ022 - Square Post Omaha Cap Part [8465283]095"},{"mesh":30,"translation":[0.6800594,1.8370295,0.9743417],"rotation":[-0.0,-5.9604645E-08,0.0,1.0],"name":"CSQ022 - Square Post Omaha Cap Part [8465283]096"},{"mesh":30,"translation":[0.89138544,1.1057001,2.7516472],"rotation":[-0.0,-0.7071069,0.0,0.70710665],"name":"CSQ022 - Square Post Omaha Cap Part [8465283]102"},{"mesh":30,"translation":[-0.34860328,1.2885802,1.7865107],"rotation":[-0.0,-1.0,0.0,4.371139E-08],"name":"CSQ022 - Square Post Omaha Cap Part [8465283]109"},{"mesh":30,"translation":[-0.34860328,1.2016106,2.0532107],"rotation":[-0.0,-1.0,0.0,4.371139E-08],"name":"CSQ022 - Square Post Omaha Cap Part [8465283]110"},{"mesh":30,"translation":[-0.34860328,1.2016106,2.5680444],"rotation":[-0.0,-1.0,0.0,4.371139E-08],"name":"CSQ022 - Square Post Omaha Cap Part [8465283]111"},{"mesh":30,"translation":[-0.1649959,1.2016106,2.7516518],"rotation":[-0.0,-0.7071066,0.0,0.70710695],"name":"CSQ022 - Square Post Omaha Cap Part [8465283]112"},{"mesh":30,"translation":[0.64197797,1.2016106,2.7516472],"rotation":[-0.0,-0.7071069,0.0,0.70710665],"name":"CSQ022 - Square Post Omaha Cap Part [8465283]113"},{"mesh":30,"translation":[0.85486263,1.1057001,1.7229984],"rotation":[-0.0,0.7071066,0.0,0.70710695],"name":"CSQ022 - Square Post Omaha Cap Part [8465283]114"},{"mesh":30,"translation":[1.423725,0.73994005,1.7229844],"rotation":[-0.0,0.7071068,0.0,0.7071067],"name":"CSQ022 - Square Post Omaha Cap Part [8465283]119"},{"mesh":30,"translation":[1.423725,0.73994005,2.7516472],"rotation":[-0.0,-0.7071069,0.0,0.70710665],"name":"CSQ022 - Square Post Omaha Cap Part [8465283]120"},{"mesh":31,"translation":[0.63164836,1.4428854,1.5558388],"rotation":[-0.0,-0.7071068,0.0,0.7071068],"name":"CSQ086 - Circum Lo-Post Cover Part [9223866]027"},{"mesh":31,"translation":[0.63164836,1.8084545,0.9743417],"rotation":[-0.0,-0.7071068,0.0,0.7071068],"name":"CSQ086 - Circum Lo-Post Cover Part [9223866]028"},{"mesh":31,"translation":[0.89138544,1.0771251,2.703236],"rotation":[-0.0,-1.0,0.0,4.371139E-08],"name":"CSQ086 - Circum Lo-Post Cover Part [9223866]034"},{"mesh":31,"translation":[-0.30018765,1.2600052,1.7865107],"rotation":[-0.0,0.7071068,0.0,0.7071067],"name":"CSQ086 - Circum Lo-Post Cover Part [9223866]041"},{"mesh":31,"translation":[-0.30018765,1.1730355,2.0532107],"rotation":[-0.0,0.7071068,0.0,0.7071067],"name":"CSQ086 - Circum Lo-Post Cover Part [9223866]042"},{"mesh":31,"translation":[-0.30018765,1.1730355,2.5680444],"rotation":[-0.0,0.7071066,0.0,0.70710695],"name":"CSQ086 - Circum Lo-Post Cover Part [9223866]043"},{"mesh":31,"translation":[-0.1649959,1.1730355,2.703236],"rotation":[-0.0,-1.0,0.0,4.371139E-08],"name":"CSQ086 - Circum Lo-Post Cover Part [9223866]044"},{"mesh":31,"translation":[0.64197797,1.1730355,2.703236],"rotation":[-0.0,-1.0,0.0,2.8212997E-07],"name":"CSQ086 - Circum Lo-Post Cover Part [9223866]045"},{"mesh":31,"translation":[0.85486263,1.0771251,1.7714094],"name":"CSQ086 - Circum Lo-Post Cover Part [9223866]046"},{"mesh":31,"translation":[1.423725,0.71136504,1.7714001],"name":"CSQ086 - Circum Lo-Post Cover Part [9223866]047"},{"mesh":31,"translation":[1.423725,0.71136504,2.703236],"rotation":[-0.0,-1.0,0.0,4.371139E-08],"name":"CSQ086 - Circum Lo-Post Cover Part [9223866]048"},{"mesh":32,"translation":[0.65466094,1.4428854,1.5558388],"rotation":[-0.0,-1.0,0.0,4.371139E-08],"name":"CSQ088 - Circum Square Lo-Post Spacer Part [9223427]053"},{"mesh":32,"translation":[0.65466094,1.1888851,1.5558388],"rotation":[-0.0,-1.0,0.0,4.371139E-08],"name":"CSQ088 - Circum Square Lo-Post Spacer Part [9223427]054"},{"mesh":32,"translation":[0.65466094,1.8084545,0.9743417],"rotation":[-0.0,-1.0,0.0,4.371139E-08],"name":"CSQ088 - Circum Square Lo-Post Spacer Part [9223427]055"},{"mesh":32,"translation":[0.65466094,1.554454,0.9743417],"rotation":[-0.0,-1.0,0.0,4.371139E-08],"name":"CSQ088 - Circum Square Lo-Post Spacer Part [9223427]056"},{"mesh":32,"translation":[0.89138544,1.0771251,2.7262487],"rotation":[-0.0,0.7071068,0.0,0.7071067],"name":"CSQ088 - Circum Square Lo-Post Spacer Part [9223427]067"},{"mesh":32,"translation":[0.89138544,0.8231249,2.7262487],"rotation":[-0.0,0.7071068,0.0,0.7071067],"name":"CSQ088 - Circum Square Lo-Post Spacer Part [9223427]068"},{"mesh":32,"translation":[-0.3232002,1.2600052,1.7865107],"rotation":[-0.0,-5.9604645E-08,0.0,1.0],"name":"CSQ088 - Circum Square Lo-Post Spacer Part [9223427]081"},{"mesh":32,"translation":[-0.3232002,1.006005,1.7865107],"rotation":[-0.0,-5.9604645E-08,0.0,1.0],"name":"CSQ088 - Circum Square Lo-Post Spacer Part [9223427]082"},{"mesh":32,"translation":[-0.3232002,1.1730355,2.0532107],"rotation":[-0.0,-5.9604645E-08,0.0,1.0],"name":"CSQ088 - Circum Square Lo-Post Spacer Part [9223427]083"},{"mesh":32,"translation":[-0.3232002,0.9190353,2.0532107],"rotation":[-0.0,-5.9604645E-08,0.0,1.0],"name":"CSQ088 - Circum Square Lo-Post Spacer Part [9223427]084"},{"mesh":32,"translation":[-0.3232002,1.1730355,2.5680444],"rotation":[-0.0,-5.9604645E-08,0.0,1.0],"name":"CSQ088 - Circum Square Lo-Post Spacer Part [9223427]085"},{"mesh":32,"translation":[-0.3232002,0.9190353,2.5680444],"rotation":[-0.0,-5.9604645E-08,0.0,1.0],"name":"CSQ088 - Circum Square Lo-Post Spacer Part [9223427]086"},{"mesh":32,"translation":[-0.1649959,1.1730355,2.7262487],"rotation":[-0.0,0.7071068,0.0,0.7071067],"name":"CSQ088 - Circum Square Lo-Post Spacer Part [9223427]087"},{"mesh":32,"translation":[-0.1649959,0.9190353,2.7262487],"rotation":[-0.0,0.7071068,0.0,0.7071067],"name":"CSQ088 - Circum Square Lo-Post Spacer Part [9223427]088"},{"mesh":32,"translation":[0.64197797,1.1730355,2.7262487],"rotation":[-0.0,0.7071068,0.0,0.7071067],"name":"CSQ088 - Circum Square Lo-Post Spacer Part [9223427]089"},{"mesh":32,"translation":[0.64197797,0.9190353,2.7262487],"rotation":[-0.0,0.7071068,0.0,0.7071067],"name":"CSQ088 - Circum Square Lo-Post Spacer Part [9223427]090"},{"mesh":32,"translation":[0.85486263,1.0771251,1.7483968],"rotation":[-0.0,-0.7071068,0.0,0.7071067],"name":"CSQ088 - Circum Square Lo-Post Spacer Part [9223427]091"},{"mesh":32,"translation":[0.85486263,0.8231249,1.7483968],"rotation":[-0.0,-0.7071068,0.0,0.7071067],"name":"CSQ088 - Circum Square Lo-Post Spacer Part [9223427]092"},{"mesh":32,"translation":[1.423725,0.71136504,1.7483875],"rotation":[-0.0,-0.7071069,0.0,0.70710665],"name":"CSQ088 - Circum Square Lo-Post Spacer Part [9223427]093"},{"mesh":32,"translation":[1.423725,0.45736516,1.7483875],"rotation":[-0.0,-0.7071069,0.0,0.70710665],"name":"CSQ088 - Circum Square Lo-Post Spacer Part [9223427]094"},{"mesh":32,"translation":[1.423725,0.71136504,2.7262487],"rotation":[-0.0,0.7071068,0.0,0.7071067],"name":"CSQ088 - Circum Square Lo-Post Spacer Part [9223427]095"},{"mesh":32,"translation":[1.423725,0.45736516,2.7262487],"rotation":[-0.0,0.7071068,0.0,0.7071067],"name":"CSQ088 - Circum Square Lo-Post Spacer Part [9223427]096"},{"mesh":33,"translation":[-0.30812553,1.5866196,1.3804855],"name":"Casework 1 Casework 1 [8738332]001"},{"mesh":34,"translation":[1.1381955,1.3559175,1.7633808],"name":"Generic Models 1 Generic Models 1 [8568048]001"},{"mesh":35,"translation":[1.5450405,1.0837624,2.7111647],"name":"Object006"},{"mesh":36,"translation":[0.6395851,1.6168393,1.5199887],"rotation":[-0.0,0.7071068,0.0,0.7071067],"name":"Infill_Glass_Raked & Horizontal Generic [8199751]001"},{"translation":[0.8913971,0.38092476,1.763461],"rotation":[-0.0,-1.0,0.0,7.54979E-08],"name":"Infill_Glass_Raked & Horizontal Generic [8202939]001"},{"translation":[0.8913973,0.38094634,2.7111728],"rotation":[-0.0,-1.0,0.0,7.54979E-08],"name":"Infill_Glass_Raked & Horizontal Generic [8735940]001"},{"mesh":37,"translation":[-0.3081267,1.3215338,2.335075],"rotation":[-0.0,0.7071068,0.0,0.7071067],"name":"Infill_Glass_Raked & Horizontal Generic [8737682]001"},{"mesh":38,"translation":[0.067968816,1.3215338,2.7111707],"rotation":[-0.0,-5.9604645E-08,0.0,1.0],"name":"Infill_Glass_Raked & Horizontal Generic [8738822]001"},{"mesh":39,"translation":[1.1586715,0.9295863,2.7111728],"rotation":[-0.0,-1.0,0.0,7.54979E-08],"name":"Infill_Glass_Raked & Horizontal Generic [8739593]001"},{"mesh":40,"translation":[0.7712672,1.6461104,1.763461],"rotation":[0.7071068,-0.0,0.0,0.7071067],"name":"Infill_Glass_Transition Generic [8202170]001"},{"mesh":41,"translation":[0.6800594,0.91459084,1.5558388],"rotation":[-4.2146844E-08,-4.214685E-08,0.7071068,0.7071067],"name":"LS208 & LS209 - Circum Square Post Material LS Material [9223115]001"},{"mesh":42,"translation":[0.6800594,1.2801597,0.9743417],"rotation":[-4.2146844E-08,-4.214685E-08,0.7071068,0.7071067],"name":"LS208 & LS209 - Circum Square Post Material LS Material [9223159]001"},{"mesh":43,"translation":[0.89138544,0.54883057,2.7516472],"rotation":[-0.50000006,-0.5000002,0.49999997,0.4999999],"name":"LS208 & LS209 - Circum Square Post Material LS Material [9223425]002"},{"mesh":43,"translation":[0.85486263,0.54883057,1.7229984],"rotation":[0.49999982,0.4999999,0.5000001,0.5000001],"name":"LS208 & LS209 - Circum Square Post Material LS Material [9223425]003"},{"mesh":44,"translation":[-0.34860328,0.73171014,1.7865107],"rotation":[-0.7071069,-0.70710665,1.3627573E-07,1.3627576E-07],"name":"LS208 & LS209 - Circum Square Post Material LS Material [9223691]001"},{"mesh":45,"translation":[-0.34860328,0.73171014,2.0532107],"rotation":[-0.7071069,-0.70710665,1.3627573E-07,1.3627576E-07],"name":"LS208 & LS209 - Circum Square Post Material LS Material [9223729]001"},{"mesh":46,"translation":[-0.34860328,0.73171014,2.5680444],"rotation":[-0.7071069,-0.70710665,1.3627573E-07,1.3627576E-07],"name":"LS208 & LS209 - Circum Square Post Material LS Material [9223767]001"},{"mesh":47,"translation":[-0.1649959,0.73171014,2.7516518],"rotation":[-0.4999998,-0.49999988,0.50000024,0.5000001],"name":"LS208 & LS209 - Circum Square Post Material LS Material [9223805]001"},{"mesh":48,"translation":[0.64197797,0.73171014,2.7516472],"rotation":[-0.50000006,-0.5000002,0.49999997,0.4999999],"name":"LS208 & LS209 - Circum Square Post Material LS Material [9223995]001"},{"mesh":49,"translation":[0.64831245,1.4428854,1.5558388],"rotation":[-0.0,-1.0,0.0,4.371139E-08],"name":"OPT006 - Optik Glass Pad Part [9223123]001"},{"mesh":49,"translation":[0.64831245,1.1888851,1.5558388],"rotation":[-0.0,-1.0,0.0,4.371139E-08],"name":"OPT006 - Optik Glass Pad Part [9223131]001"},{"mesh":49,"translation":[0.64831245,1.8084545,0.9743417],"rotation":[-0.0,-1.0,0.0,4.371139E-08],"name":"OPT006 - Optik Glass Pad Part [9223164]001"},{"mesh":49,"translation":[0.64831245,1.554454,0.9743417],"rotation":[-0.0,-1.0,0.0,4.371139E-08],"name":"OPT006 - Optik Glass Pad Part [9223170]001"},{"mesh":49,"translation":[0.89138544,1.0771251,2.7199004],"rotation":[-0.0,0.7071068,0.0,0.7071067],"name":"OPT006 - Optik Glass Pad Part [9223430]002"},{"mesh":49,"translation":[0.85486263,1.0771251,1.7547452],"rotation":[-0.0,-0.7071068,0.0,0.7071067],"name":"OPT006 - Optik Glass Pad Part [9223430]003"},{"mesh":49,"translation":[0.89138544,0.8231249,2.7199004],"rotation":[-0.0,0.7071068,0.0,0.7071067],"name":"OPT006 - Optik Glass Pad Part [9223436]002"},{"mesh":49,"translation":[0.85486263,0.8231249,1.7547452],"rotation":[-0.0,-0.7071068,0.0,0.7071067],"name":"OPT006 - Optik Glass Pad Part [9223436]003"},{"mesh":49,"translation":[-0.31685174,1.1730355,2.5680444],"rotation":[-0.0,-5.9604645E-08,0.0,1.0],"name":"OPT006 - Optik Glass Pad Part [9223772]001"},{"mesh":49,"translation":[-0.31685174,0.9190353,2.5680444],"rotation":[-0.0,-5.9604645E-08,0.0,1.0],"name":"OPT006 - Optik Glass Pad Part [9223778]001"},{"mesh":49,"translation":[1.423725,0.71136504,2.7199004],"rotation":[-0.0,0.7071068,0.0,0.7071067],"name":"OPT006 - Optik Glass Pad Part [9223544]002"},{"mesh":49,"translation":[1.423725,0.45736516,2.7199004],"rotation":[-0.0,0.7071068,0.0,0.7071067],"name":"OPT006 - Optik Glass Pad Part [9223550]002"},{"mesh":50,"translation":[-0.31685174,1.2600052,1.7865107],"rotation":[-0.0,-5.9604645E-08,0.0,1.0],"name":"OPT006 - Optik Glass Pad Part [9223696]001"},{"mesh":50,"translation":[-0.31685174,1.006005,1.7865107],"rotation":[-0.0,-5.9604645E-08,0.0,1.0],"name":"OPT006 - Optik Glass Pad Part [9223702]001"},{"mesh":50,"translation":[-0.31685174,1.1730355,2.0532107],"rotation":[-0.0,-5.9604645E-08,0.0,1.0],"name":"OPT006 - Optik Glass Pad Part [9223734]001"},{"mesh":50,"translation":[-0.31685174,0.9190353,2.0532107],"rotation":[-0.0,-5.9604645E-08,0.0,1.0],"name":"OPT006 - Optik Glass Pad Part [9223740]001"},{"mesh":50,"translation":[-0.1649959,1.1730355,2.7198956],"rotation":[-0.0,0.7071068,0.0,0.7071067],"name":"OPT006 - Optik Glass Pad Part [9223810]001"},{"mesh":50,"translation":[-0.1649959,0.9190353,2.7198956],"rotation":[-0.0,0.7071068,0.0,0.7071067],"name":"OPT006 - Optik Glass Pad Part [9223816]001"},{"mesh":50,"translation":[0.6460434,1.1730355,2.7198956],"rotation":[-0.0,0.7071068,0.0,0.7071067],"name":"OPT006 - Optik Glass Pad Part [9223924]001"},{"mesh":50,"translation":[0.6460434,0.9190353,2.7198956],"rotation":[-0.0,0.7071068,0.0,0.7071067],"name":"OPT006 - Optik Glass Pad Part [9223930]001"},{"mesh":50,"translation":[0.64197797,1.1730355,2.7199004],"rotation":[-0.0,0.7071068,0.0,0.7071067],"name":"OPT006 - Optik Glass Pad Part [9224000]001"},{"mesh":50,"translation":[0.64197797,0.9190353,2.7199004],"rotation":[-0.0,0.7071068,0.0,0.7071067],"name":"OPT006 - Optik Glass Pad Part [9224006]001"},{"mesh":50,"translation":[1.423725,0.71136504,1.754736],"rotation":[-0.0,-0.7071069,0.0,0.70710665],"name":"OPT006 - Optik Glass Pad Part [9223392]002"},{"mesh":50,"translation":[1.423725,0.45736516,1.754736],"rotation":[-0.0,-0.7071069,0.0,0.70710665],"name":"OPT006 - Optik Glass Pad Part [9223398]002"},{"mesh":51,"translation":[0.63243437,1.4428854,1.5558388],"rotation":[-0.0,-1.0,0.0,4.371139E-08],"name":"OPT006A - Optik Glass Pad Part [9223122]001"},{"mesh":51,"translation":[0.63243437,1.1888851,1.5558388],"rotation":[-0.0,-1.0,0.0,4.371139E-08],"name":"OPT006A - Optik Glass Pad Part [9223130]001"},{"mesh":51,"translation":[0.63243437,1.8084545,0.9743417],"rotation":[-0.0,-1.0,0.0,4.371139E-08],"name":"OPT006A - Optik Glass Pad Part [9223163]001"},{"mesh":51,"translation":[0.63243437,1.554454,0.9743417],"rotation":[-0.0,-1.0,0.0,4.371139E-08],"name":"OPT006A - Optik Glass Pad Part [9223169]001"},{"mesh":51,"translation":[0.89138544,1.0771251,2.7040222],"rotation":[-0.0,0.7071068,0.0,0.7071067],"name":"OPT006A - Optik Glass Pad Part [9223429]002"},{"mesh":51,"translation":[0.85486263,1.0771251,1.7706233],"rotation":[-0.0,-0.7071068,0.0,0.7071067],"name":"OPT006A - Optik Glass Pad Part [9223429]003"},{"mesh":51,"translation":[0.89138544,0.8231249,2.7040222],"rotation":[-0.0,0.7071068,0.0,0.7071067],"name":"OPT006A - Optik Glass Pad Part [9223435]002"},{"mesh":51,"translation":[0.85486263,0.8231249,1.7706233],"rotation":[-0.0,-0.7071068,0.0,0.7071067],"name":"OPT006A - Optik Glass Pad Part [9223435]003"},{"mesh":51,"translation":[-0.3009783,1.1730355,2.5680444],"rotation":[-0.0,-5.9604645E-08,0.0,1.0],"name":"OPT006A - Optik Glass Pad Part [9223771]001"},{"mesh":51,"translation":[-0.3009783,0.9190353,2.5680444],"rotation":[-0.0,-5.9604645E-08,0.0,1.0],"name":"OPT006A - Optik Glass Pad Part [9223777]001"},{"mesh":51,"translation":[1.423725,0.71136504,2.7040222],"rotation":[-0.0,0.7071068,0.0,0.7071067],"name":"OPT006A - Optik Glass Pad Part [9223543]002"},{"mesh":51,"translation":[1.423725,0.45736516,2.7040222],"rotation":[-0.0,0.7071068,0.0,0.7071067],"name":"OPT006A - Optik Glass Pad Part [9223549]002"},{"mesh":52,"translation":[-0.3009783,1.2600052,1.7865107],"rotation":[-0.0,-5.9604645E-08,0.0,1.0],"name":"OPT006A - Optik Glass Pad Part [9223695]001"},{"mesh":52,"translation":[-0.3009783,1.006005,1.7865107],"rotation":[-0.0,-5.9604645E-08,0.0,1.0],"name":"OPT006A - Optik Glass Pad Part [9223701]001"},{"mesh":52,"translation":[-0.3009783,1.1730355,2.0532107],"rotation":[-0.0,-5.9604645E-08,0.0,1.0],"name":"OPT006A - Optik Glass Pad Part [9223733]001"},{"mesh":52,"translation":[-0.3009783,0.9190353,2.0532107],"rotation":[-0.0,-5.9604645E-08,0.0,1.0],"name":"OPT006A - Optik Glass Pad Part [9223739]001"},{"mesh":52,"translation":[-0.1649959,1.1730355,2.704027],"rotation":[-0.0,0.7071068,0.0,0.7071067],"name":"OPT006A - Optik Glass Pad Part [9223809]001"},{"mesh":52,"translation":[-0.1649959,0.9190353,2.704027],"rotation":[-0.0,0.7071068,0.0,0.7071067],"name":"OPT006A - Optik Glass Pad Part [9223815]001"},{"mesh":52,"translation":[0.64197797,1.1730355,2.7040222],"rotation":[-0.0,0.7071068,0.0,0.7071067],"name":"OPT006A - Optik Glass Pad Part [9223999]001"},{"mesh":52,"translation":[0.64197797,0.9190353,2.7040222],"rotation":[-0.0,0.7071068,0.0,0.7071067],"name":"OPT006A - Optik Glass Pad Part [9224005]001"},{"mesh":52,"translation":[1.423725,0.71136504,1.7706094],"rotation":[-0.0,-0.7071069,0.0,0.70710665],"name":"OPT006A - Optik Glass Pad Part [9223391]002"},{"mesh":52,"translation":[1.423725,0.45736516,1.7706094],"rotation":[-0.0,-0.7071069,0.0,0.70710665],"name":"OPT006A - Optik Glass Pad Part [9223397]002"},{"mesh":53,"translation":[0.2024968,2.385576,1.239157],"name":"Object003"},{"mesh":54,"translation":[1.423725,0.18307057,1.7229844],"rotation":[0.5000001,0.49999997,0.49999985,0.50000006],"name":"LS208 & LS209 - Circum Square Post Material LS Material [9223387]002"},{"mesh":55,"translation":[1.423725,0.18307057,2.7516472],"rotation":[-0.50000006,-0.5000002,0.49999997,0.4999999],"name":"LS208 & LS209 - Circum Square Post Material LS Material [9223539]002"},{"mesh":56,"translation":[-0.30828178,2.0101762,1.6006715],"name":"Object013"}],"meshes":[{"primitives":[{"attributes":{"POSITION":1,"TANGENT":2,"NORMAL":3,"TEXCOORD_0":4},"indices":0,"material":0}],"name":"Infill_Glass_Raked & Horizontal Generic [8199751]"},{"primitives":[{"attributes":{"POSITION":6,"TANGENT":7,"NORMAL":8,"TEXCOORD_0":9},"indices":5,"material":0}],"name":"Infill_Glass_Transition Generic [8202170]"},{"primitives":[{"attributes":{"POSITION":11,"TANGENT":12,"NORMAL":13,"TEXCOORD_0":14},"indices":10,"material":1},{"attributes":{"POSITION":16,"TANGENT":17,"NORMAL":18,"TEXCOORD_0":19},"indices":15,"material":2}],"name":"Generic Models 1 Generic Models 1 [8568048]"},{"primitives":[{"attributes":{"POSITION":21,"TANGENT":22,"NORMAL":23,"TEXCOORD_0":24},"indices":20,"material":1},{"attributes":{"POSITION":26,"TANGENT":27,"NORMAL":28,"TEXCOORD_0":29},"indices":25,"material":2}],"name":"Generic Models 10 Generic Models 1 [8735975]"},{"primitives":[{"attributes":{"POSITION":31,"TANGENT":32,"NORMAL":33,"TEXCOORD_0":34},"indices":30,"material":0}],"name":"Infill_Glass_Raked & Horizontal Generic [8737682]"},{"primitives":[{"attributes":{"POSITION":36,"TANGENT":37,"NORMAL":38,"TEXCOORD_0":39},"indices":35,"material":0}],"name":"Casework 1 Casework 1 [8738332]"},{"primitives":[{"attributes":{"POSITION":41,"TANGENT":42,"NORMAL":43,"TEXCOORD_0":44},"indices":40,"material":0}],"name":"Infill_Glass_Raked & Horizontal Generic [8738822]"},{"primitives":[{"attributes":{"POSITION":46,"TANGENT":47,"NORMAL":48,"TEXCOORD_0":49},"indices":45,"material":0}],"name":"Infill_Glass_Raked & Horizontal Generic [8739593]"},{"primitives":[{"attributes":{"POSITION":51,"TANGENT":52,"NORMAL":53,"TEXCOORD_0":54},"indices":50,"material":3}],"name":"OPT006 - Optik Glass Pad Part [9224006]"},{"primitives":[{"attributes":{"POSITION":56,"TANGENT":57,"NORMAL":58,"TEXCOORD_0":59},"indices":55,"material":3}],"name":"OPT006A - Optik Glass Pad Part [9224005]"},{"primitives":[{"attributes":{"POSITION":61,"TANGENT":62,"NORMAL":63,"TEXCOORD_0":64},"indices":60,"material":1},{"attributes":{"POSITION":66,"TANGENT":67,"NORMAL":68,"TEXCOORD_0":69},"indices":65,"material":2}],"name":"CSQ088 - Circum Square Lo-Post Spacer Part [9223427]050"},{"primitives":[{"attributes":{"POSITION":71,"TANGENT":72,"NORMAL":73,"TEXCOORD_0":74},"indices":70,"material":1}],"name":"CSQ001-US - Surface Mount Weldment Part [8723797]205"},{"primitives":[{"attributes":{"POSITION":76,"TANGENT":77,"NORMAL":78,"TEXCOORD_0":79},"indices":75,"material":1}],"name":"LS208 & LS209 - Circum Square Post Material LS Material [9223995]"},{"primitives":[{"attributes":{"POSITION":81,"TANGENT":82,"NORMAL":83,"TEXCOORD_0":84},"indices":80,"material":1}],"name":"CSQ022 - Square Post Omaha Cap Part [8465283]063"},{"primitives":[{"attributes":{"POSITION":86,"TANGENT":87,"NORMAL":88,"TEXCOORD_0":89},"indices":85,"material":1},{"attributes":{"POSITION":91,"TANGENT":92,"NORMAL":93,"TEXCOORD_0":94},"indices":90,"material":2}],"name":"CSQ086 - Circum Lo-Post Cover Part [9223866]025"},{"primitives":[{"attributes":{"POSITION":96,"TANGENT":97,"NORMAL":98,"TEXCOORD_0":99},"indices":95,"material":1}],"name":"LS208 & LS209 - Circum Square Post Material LS Material [9223805]"},{"primitives":[{"attributes":{"POSITION":101,"TANGENT":102,"NORMAL":103,"TEXCOORD_0":104},"indices":100,"material":3}],"name":"OPT006 - Optik Glass Pad Part [9223778]"},{"primitives":[{"attributes":{"POSITION":106,"TANGENT":107,"NORMAL":108,"TEXCOORD_0":109},"indices":105,"material":3}],"name":"OPT006A - Optik Glass Pad Part [9223777]"},{"primitives":[{"attributes":{"POSITION":111,"TANGENT":112,"NORMAL":113,"TEXCOORD_0":114},"indices":110,"material":1}],"name":"LS208 & LS209 - Circum Square Post Material LS Material [9223767]"},{"primitives":[{"attributes":{"POSITION":116,"TANGENT":117,"NORMAL":118,"TEXCOORD_0":119},"indices":115,"material":1}],"name":"LS208 & LS209 - Circum Square Post Material LS Material [9223729]"},{"primitives":[{"attributes":{"POSITION":121,"TANGENT":122,"NORMAL":123,"TEXCOORD_0":124},"indices":120,"material":1}],"name":"LS208 & LS209 - Circum Square Post Material LS Material [9223691]"},{"primitives":[{"attributes":{"POSITION":126,"TANGENT":127,"NORMAL":128,"TEXCOORD_0":129},"indices":125,"material":1}],"name":"LS208 & LS209 - Circum Square Post Material LS Material [9223653]"},{"primitives":[{"attributes":{"POSITION":131,"TANGENT":132,"NORMAL":133,"TEXCOORD_0":134},"indices":130,"material":1}],"name":"LS208 & LS209 - Circum Square Post Material LS Material [9223501]"},{"primitives":[{"attributes":{"POSITION":136,"TANGENT":137,"NORMAL":138,"TEXCOORD_0":139},"indices":135,"material":1}],"name":"LS208 & LS209 - Circum Square Post Material LS Material [9223463]"},{"primitives":[{"attributes":{"POSITION":141,"TANGENT":142,"NORMAL":143,"TEXCOORD_0":144},"indices":140,"material":1}],"name":"LS208 & LS209 - Circum Square Post Material LS Material [9223425]"},{"primitives":[{"attributes":{"POSITION":146,"TANGENT":147,"NORMAL":148,"TEXCOORD_0":149},"indices":145,"material":1}],"name":"LS208 & LS209 - Circum Square Post Material LS Material [9223311]"},{"primitives":[{"attributes":{"POSITION":151,"TANGENT":152,"NORMAL":153,"TEXCOORD_0":154},"indices":150,"material":1}],"name":"LS208 & LS209 - Circum Square Post Material LS Material [9223235]"},{"primitives":[{"attributes":{"POSITION":156,"TANGENT":157,"NORMAL":158,"TEXCOORD_0":159},"indices":155,"material":1}],"name":"LS208 & LS209 - Circum Square Post Material LS Material [9223115]"},{"primitives":[{"attributes":{"POSITION":161,"TANGENT":162,"NORMAL":163,"TEXCOORD_0":164},"indices":160,"material":1},{"attributes":{"POSITION":166,"TANGENT":167,"NORMAL":168,"TEXCOORD_0":169},"indices":165,"material":2}],"name":"Object"},{"primitives":[{"attributes":{"POSITION":171,"TANGENT":172,"NORMAL":173,"TEXCOORD_0":174},"indices":170,"material":1},{"attributes":{"POSITION":176,"TANGENT":177,"NORMAL":178,"TEXCOORD_0":179},"indices":175,"material":2}],"name":"Generic Models 11 Generic Models 11 [8762451]005"},{"primitives":[{"attributes":{"POSITION":181,"TANGENT":182,"NORMAL":183,"TEXCOORD_0":184},"indices":180,"material":1}],"name":"CSQ022 - Square Post Omaha Cap Part [8465283]095"},{"primitives":[{"attributes":{"POSITION":186,"TANGENT":187,"NORMAL":188,"TEXCOORD_0":189},"indices":185,"material":1},{"attributes":{"POSITION":191,"TANGENT":192,"NORMAL":193,"TEXCOORD_0":194},"indices":190,"material":2}],"name":"CSQ086 - Circum Lo-Post Cover Part [9223866]027"},{"primitives":[{"attributes":{"POSITION":196,"TANGENT":197,"NORMAL":198,"TEXCOORD_0":199},"indices":195,"material":1},{"attributes":{"POSITION":201,"TANGENT":202,"NORMAL":203,"TEXCOORD_0":204},"indices":200,"material":2}],"name":"CSQ088 - Circum Square Lo-Post Spacer Part [9223427]053"},{"primitives":[{"attributes":{"POSITION":206,"TANGENT":207,"NORMAL":208,"TEXCOORD_0":209},"indices":205,"material":0}],"name":"Casework 1 Casework 1 [8738332]001"},{"primitives":[{"attributes":{"POSITION":211,"TANGENT":212,"NORMAL":213,"TEXCOORD_0":214},"indices":210,"material":1},{"attributes":{"POSITION":216,"TANGENT":217,"NORMAL":218,"TEXCOORD_0":219},"indices":215,"material":2}],"name":"Generic Models 1 Generic Models 1 [8568048]001"},{"primitives":[{"attributes":{"POSITION":221,"TANGENT":222,"NORMAL":223,"TEXCOORD_0":224},"indices":220,"material":1},{"attributes":{"POSITION":226,"TANGENT":227,"NORMAL":228,"TEXCOORD_0":229},"indices":225,"material":2}],"name":"Object006"},{"primitives":[{"attributes":{"POSITION":231,"TANGENT":232,"NORMAL":233,"TEXCOORD_0":234},"indices":230,"material":0}],"name":"Infill_Glass_Raked & Horizontal Generic [8199751]001"},{"primitives":[{"attributes":{"POSITION":236,"TANGENT":237,"NORMAL":238,"TEXCOORD_0":239},"indices":235,"material":0}],"name":"Infill_Glass_Raked & Horizontal Generic [8737682]001"},{"primitives":[{"attributes":{"POSITION":241,"TANGENT":242,"NORMAL":243,"TEXCOORD_0":244},"indices":240,"material":0}],"name":"Infill_Glass_Raked & Horizontal Generic [8738822]001"},{"primitives":[{"attributes":{"POSITION":246,"TANGENT":247,"NORMAL":248,"TEXCOORD_0":249},"indices":245,"material":0}],"name":"Infill_Glass_Raked & Horizontal Generic [8739593]001"},{"primitives":[{"attributes":{"POSITION":251,"TANGENT":252,"NORMAL":253,"TEXCOORD_0":254},"indices":250,"material":0}],"name":"Infill_Glass_Transition Generic [8202170]001"},{"primitives":[{"attributes":{"POSITION":256,"TANGENT":257,"NORMAL":258,"TEXCOORD_0":259},"indices":255,"material":1}],"name":"LS208 & LS209 - Circum Square Post Material LS Material [9223115]001"},{"primitives":[{"attributes":{"POSITION":261,"TANGENT":262,"NORMAL":263,"TEXCOORD_0":264},"indices":260,"material":1}],"name":"LS208 & LS209 - Circum Square Post Material LS Material [9223159]001"},{"primitives":[{"attributes":{"POSITION":266,"TANGENT":267,"NORMAL":268,"TEXCOORD_0":269},"indices":265,"material":1}],"name":"LS208 & LS209 - Circum Square Post Material LS Material [9223425]002"},{"primitives":[{"attributes":{"POSITION":271,"TANGENT":272,"NORMAL":273,"TEXCOORD_0":274},"indices":270,"material":1}],"name":"LS208 & LS209 - Circum Square Post Material LS Material [9223691]001"},{"primitives":[{"attributes":{"POSITION":276,"TANGENT":277,"NORMAL":278,"TEXCOORD_0":279},"indices":275,"material":1}],"name":"LS208 & LS209 - Circum Square Post Material LS Material [9223729]001"},{"primitives":[{"attributes":{"POSITION":281,"TANGENT":282,"NORMAL":283,"TEXCOORD_0":284},"indices":280,"material":1}],"name":"LS208 & LS209 - Circum Square Post Material LS Material [9223767]001"},{"primitives":[{"attributes":{"POSITION":286,"TANGENT":287,"NORMAL":288,"TEXCOORD_0":289},"indices":285,"material":1}],"name":"LS208 & LS209 - Circum Square Post Material LS Material [9223805]001"},{"primitives":[{"attributes":{"POSITION":291,"TANGENT":292,"NORMAL":293,"TEXCOORD_0":294},"indices":290,"material":1}],"name":"LS208 & LS209 - Circum Square Post Material LS Material [9223995]001"},{"primitives":[{"attributes":{"POSITION":296,"TANGENT":297,"NORMAL":298,"TEXCOORD_0":299},"indices":295,"material":3}],"name":"OPT006 - Optik Glass Pad Part [9223123]001"},{"primitives":[{"attributes":{"POSITION":301,"TANGENT":302,"NORMAL":303,"TEXCOORD_0":304},"indices":300,"material":3}],"name":"OPT006 - Optik Glass Pad Part [9223696]001"},{"primitives":[{"attributes":{"POSITION":306,"TANGENT":307,"NORMAL":308,"TEXCOORD_0":309},"indices":305,"material":3}],"name":"OPT006A - Optik Glass Pad Part [9223122]001"},{"primitives":[{"attributes":{"POSITION":311,"TANGENT":312,"NORMAL":313,"TEXCOORD_0":314},"indices":310,"material":3}],"name":"OPT006A - Optik Glass Pad Part [9223695]001"},{"primitives":[{"attributes":{"POSITION":316,"TANGENT":317,"NORMAL":318,"TEXCOORD_0":319},"indices":315,"material":1}],"name":"Object003"},{"primitives":[{"attributes":{"POSITION":321,"TANGENT":322,"NORMAL":323,"TEXCOORD_0":324},"indices":320,"material":1}],"name":"LS208 & LS209 - Circum Square Post Material LS Material [9223387]002"},{"primitives":[{"attributes":{"POSITION":326,"TANGENT":327,"NORMAL":328,"TEXCOORD_0":329},"indices":325,"material":1}],"name":"LS208 & LS209 - Circum Square Post Material LS Material [9223539]002"},{"primitives":[{"attributes":{"POSITION":331,"TANGENT":332,"NORMAL":333,"TEXCOORD_0":334},"indices":330,"material":1}],"name":"Object013"}],"accessors":[{"bufferView":0,"componentType":5123,"count":132,"type":"SCALAR","name":"accessorIndices"},{"bufferView":1,"componentType":5126,"count":82,"max":[0.67253757,0.76435065,0.0071501],"min":[-0.1888937,-0.7240815,-0.0071501],"type":"VEC3","name":"accessorPositions"},{"bufferView":2,"componentType":5126,"count":82,"type":"VEC4","name":"accessorTangents"},{"bufferView":1,"byteOffset":984,"componentType":5126,"count":82,"type":"VEC3","name":"accessorNormals"},{"bufferView":3,"componentType":5126,"count":82,"type":"VEC2","name":"accessorUVs"},{"bufferView":0,"byteOffset":264,"componentType":5123,"count":168,"type":"SCALAR","name":"accessorIndices"},{"bufferView":1,"byteOffset":1968,"componentType":5126,"count":109,"max":[0.007149927,0.7168539,0.42416126],"min":[-0.0071505085,-0.7168533,-0.42416126],"type":"VEC3","name":"accessorPositions"},{"bufferView":2,"byteOffset":1312,"componentType":5126,"count":109,"type":"VEC4","name":"accessorTangents"},{"bufferView":1,"byteOffset":3276,"componentType":5126,"count":109,"type":"VEC3","name":"accessorNormals"},{"bufferView":3,"byteOffset":656,"componentType":5126,"count":109,"type":"VEC2","name":"accessorUVs"},{"bufferView":0,"byteOffset":600,"componentType":5123,"count":2994,"type":"SCALAR","name":"accessorIndices"},{"bufferView":1,"byteOffset":4584,"componentType":5126,"count":1038,"max":[0.019135969,0.57277405,0.89412946],"min":[-0.019134043,-0.6103752,-0.83940214],"type":"VEC3","name":"accessorPositions"},{"bufferView":2,"byteOffset":3056,"componentType":5126,"count":1038,"type":"VEC4","name":"accessorTangents"},{"bufferView":1,"byteOffset":17040,"componentType":5126,"count":1038,"type":"VEC3","name":"accessorNormals"},{"bufferView":3,"byteOffset":1528,"componentType":5126,"count":1038,"type":"VEC2","name":"accessorUVs"},{"bufferView":0,"byteOffset":6588,"componentType":5123,"count":456,"type":"SCALAR","name":"accessorIndices"},{"bufferView":1,"byteOffset":29496,"componentType":5126,"count":156,"max":[0.019135969,0.57277405,0.89412946],"min":[-0.019127067,-0.6103752,-0.83940214],"type":"VEC3","name":"accessorPositions"},{"bufferView":2,"byteOffset":19664,"componentType":5126,"count":156,"type":"VEC4","name":"accessorTangents"},{"bufferView":1,"byteOffset":31368,"componentType":5126,"count":156,"type":"VEC3","name":"accessorNormals"},{"bufferView":3,"byteOffset":9832,"componentType":5126,"count":156,"type":"VEC2","name":"accessorUVs"},{"bufferView":0,"byteOffset":7500,"componentType":5123,"count":45642,"type":"SCALAR","name":"accessorIndices"},{"bufferView":1,"byteOffset":33240,"componentType":5126,"count":8486,"max":[0.019054433,0.57281196,0.7208086],"min":[-0.019045785,-0.48690864,-0.82204074],"type":"VEC3","name":"accessorPositions"},{"bufferView":2,"byteOffset":22160,"componentType":5126,"count":8486,"type":"VEC4","name":"accessorTangents"},{"bufferView":1,"byteOffset":135072,"componentType":5126,"count":8486,"type":"VEC3","name":"accessorNormals"},{"bufferView":3,"byteOffset":11080,"componentType":5126,"count":8486,"type":"VEC2","name":"accessorUVs"},{"bufferView":0,"byteOffset":98784,"componentType":5123,"count":132,"type":"SCALAR","name":"accessorIndices"},{"bufferView":1,"byteOffset":236904,"componentType":5126,"count":7845,"max":[0.019054433,0.57281196,0.7208086],"min":[-0.019045785,-0.48690864,-0.82204074],"type":"VEC3","name":"accessorPositions"},{"bufferView":2,"byteOffset":157936,"componentType":5126,"count":7845,"type":"VEC4","name":"accessorTangents"},{"bufferView":1,"byteOffset":331044,"componentType":5126,"count":7845,"type":"VEC3","name":"accessorNormals"},{"bufferView":3,"byteOffset":78968,"componentType":5126,"count":7845,"type":"VEC2","name":"accessorUVs"},{"bufferView":0,"byteOffset":99048,"componentType":5123,"count":132,"type":"SCALAR","name":"accessorIndices"},{"bufferView":1,"byteOffset":425184,"componentType":5126,"count":96,"max":[0.40886727,0.3245767,0.0071501],"min":[-0.35996616,-0.52949834,-0.0071501],"type":"VEC3","name":"accessorPositions"},{"bufferView":2,"byteOffset":283456,"componentType":5126,"count":96,"type":"VEC4","name":"accessorTangents"},{"bufferView":1,"byteOffset":426336,"componentType":5126,"count":96,"type":"VEC3","name":"accessorNormals"},{"bufferView":3,"byteOffset":141728,"componentType":5126,"count":96,"type":"VEC2","name":"accessorUVs"},{"bufferView":0,"byteOffset":99312,"componentType":5123,"count":168,"type":"SCALAR","name":"accessorIndices"},{"bufferView":1,"byteOffset":427488,"componentType":5126,"count":99,"max":[0.53302795,0.7945839,0.0071623535],"min":[-0.53302795,-0.7945839,-0.0071623535],"type":"VEC3","name":"accessorPositions"},{"bufferView":2,"byteOffset":284992,"componentType":5126,"count":99,"type":"VEC4","name":"accessorTangents"},{"bufferView":1,"byteOffset":428676,"componentType":5126,"count":99,"type":"VEC3","name":"accessorNormals"},{"bufferView":3,"byteOffset":142496,"componentType":5126,"count":99,"type":"VEC2","name":"accessorUVs"},{"bufferView":0,"byteOffset":99648,"componentType":5123,"count":132,"type":"SCALAR","name":"accessorIndices"},{"bufferView":1,"byteOffset":429864,"componentType":5126,"count":96,"max":[0.70101464,0.3245767,0.0071501],"min":[-0.35996616,-0.52949834,-0.0071501],"type":"VEC3","name":"accessorPositions"},{"bufferView":2,"byteOffset":286576,"componentType":5126,"count":96,"type":"VEC4","name":"accessorTangents"},{"bufferView":1,"byteOffset":431016,"componentType":5126,"count":96,"type":"VEC3","name":"accessorNormals"},{"bufferView":3,"byteOffset":143288,"componentType":5126,"count":96,"type":"VEC2","name":"accessorUVs"},{"bufferView":0,"byteOffset":99912,"componentType":5123,"count":132,"type":"SCALAR","name":"accessorIndices"},{"bufferView":1,"byteOffset":432168,"componentType":5126,"count":82,"max":[0.37704316,0.70856416,0.0071501],"min":[-0.39211252,-0.71716493,-0.0071501],"type":"VEC3","name":"accessorPositions"},{"bufferView":2,"byteOffset":288112,"componentType":5126,"count":82,"type":"VEC4","name":"accessorTangents"},{"bufferView":1,"byteOffset":433152,"componentType":5126,"count":82,"type":"VEC3","name":"accessorNormals"},{"bufferView":3,"byteOffset":144056,"componentType":5126,"count":82,"type":"VEC2","name":"accessorUVs"},{"bufferView":0,"byteOffset":100176,"componentType":5123,"count":1728,"type":"SCALAR","name":"accessorIndices"},{"bufferView":1,"byteOffset":434136,"componentType":5126,"count":580,"max":[0.0015748,0.0142875,0.0142875],"min":[1.8652728E-14,-0.0142875,-0.0142875],"type":"VEC3","name":"accessorPositions"},{"bufferView":2,"byteOffset":289424,"componentType":5126,"count":580,"type":"VEC4","name":"accessorTangents"},{"bufferView":1,"byteOffset":441096,"componentType":5126,"count":580,"type":"VEC3","name":"accessorNormals"},{"bufferView":3,"byteOffset":144712,"componentType":5126,"count":580,"type":"VEC2","name":"accessorUVs"},{"bufferView":0,"byteOffset":103632,"componentType":5123,"count":1728,"type":"SCALAR","name":"accessorIndices"},{"bufferView":1,"byteOffset":448056,"componentType":5126,"count":580,"max":[0.0015748,0.0142875,0.0142875],"min":[1.8652728E-14,-0.0142875,-0.0142875],"type":"VEC3","name":"accessorPositions"},{"bufferView":2,"byteOffset":298704,"componentType":5126,"count":580,"type":"VEC4","name":"accessorTangents"},{"bufferView":1,"byteOffset":455016,"componentType":5126,"count":580,"type":"VEC3","name":"accessorNormals"},{"bufferView":3,"byteOffset":149352,"componentType":5126,"count":580,"type":"VEC2","name":"accessorUVs"},{"bufferView":0,"byteOffset":107088,"componentType":5123,"count":432,"type":"SCALAR","name":"accessorIndices"},{"bufferView":1,"byteOffset":461976,"componentType":5126,"count":146,"max":[0.0063500004,0.01905,0.01905],"min":[1.8592634E-14,-0.01905,-0.01905],"type":"VEC3","name":"accessorPositions"},{"bufferView":2,"byteOffset":307984,"componentType":5126,"count":146,"type":"VEC4","name":"accessorTangents"},{"bufferView":1,"byteOffset":463728,"componentType":5126,"count":146,"type":"VEC3","name":"accessorNormals"},{"bufferView":3,"byteOffset":153992,"componentType":5126,"count":146,"type":"VEC2","name":"accessorUVs"},{"bufferView":0,"byteOffset":107952,"componentType":5123,"count":420,"type":"SCALAR","name":"accessorIndices"},{"bufferView":1,"byteOffset":465480,"componentType":5126,"count":144,"max":[0.0063500004,0.01905,0.01905],"min":[1.8592634E-14,-0.01905,-0.01905],"type":"VEC3","name":"accessorPositions"},{"bufferView":2,"byteOffset":310320,"componentType":5126,"count":144,"type":"VEC4","name":"accessorTangents"},{"bufferView":1,"byteOffset":467208,"componentType":5126,"count":144,"type":"VEC3","name":"accessorNormals"},{"bufferView":3,"byteOffset":155160,"componentType":5126,"count":144,"type":"VEC2","name":"accessorUVs"},{"bufferView":0,"byteOffset":108792,"componentType":5123,"count":570,"type":"SCALAR","name":"accessorIndices"},{"bufferView":1,"byteOffset":468936,"componentType":5126,"count":189,"max":[0.053975,0.025400002,0.053975],"min":[-0.053975,-3.0953716E-15,-0.053975],"type":"VEC3","name":"accessorPositions"},{"bufferView":2,"byteOffset":312624,"componentType":5126,"count":189,"type":"VEC4","name":"accessorTangents"},{"bufferView":1,"byteOffset":471204,"componentType":5126,"count":189,"type":"VEC3","name":"accessorNormals"},{"bufferView":3,"byteOffset":156312,"componentType":5126,"count":189,"type":"VEC2","name":"accessorUVs"},{"bufferView":0,"byteOffset":109932,"componentType":5123,"count":612,"type":"SCALAR","name":"accessorIndices"},{"bufferView":1,"byteOffset":473472,"componentType":5126,"count":216,"max":[0.46989998,0.025400002,0.025539069],"min":[6.357896E-15,-0.025400002,-0.025539069],"type":"VEC3","name":"accessorPositions"},{"bufferView":2,"byteOffset":315648,"componentType":5126,"count":216,"type":"VEC4","name":"accessorTangents"},{"bufferView":1,"byteOffset":476064,"componentType":5126,"count":216,"type":"VEC3","name":"accessorNormals"},{"bufferView":3,"byteOffset":157824,"componentType":5126,"count":216,"type":"VEC2","name":"accessorUVs"},{"bufferView":0,"byteOffset":111156,"componentType":5123,"count":324,"type":"SCALAR","name":"accessorIndices"},{"bufferView":1,"byteOffset":478656,"componentType":5126,"count":120,"max":[0.025592525,0.0031551565,0.025590502],"min":[-0.025588477,-2.0427421E-15,-0.025590502],"type":"VEC3","name":"accessorPositions"},{"bufferView":2,"byteOffset":319104,"componentType":5126,"count":120,"type":"VEC4","name":"accessorTangents"},{"bufferView":1,"byteOffset":480096,"componentType":5126,"count":120,"type":"VEC3","name":"accessorNormals"},{"bufferView":3,"byteOffset":159552,"componentType":5126,"count":120,"type":"VEC2","name":"accessorUVs"},{"bufferView":0,"byteOffset":111804,"componentType":5123,"count":912,"type":"SCALAR","name":"accessorIndices"},{"bufferView":1,"byteOffset":481536,"componentType":5126,"count":504,"max":[0.025400002,0.025400002,0.009525],"min":[-0.025400002,-0.27940002,-0.019231388],"type":"VEC3","name":"accessorPositions"},{"bufferView":2,"byteOffset":321024,"componentType":5126,"count":504,"type":"VEC4","name":"accessorTangents"},{"bufferView":1,"byteOffset":487584,"componentType":5126,"count":504,"type":"VEC3","name":"accessorNormals"},{"bufferView":3,"byteOffset":160512,"componentType":5126,"count":504,"type":"VEC2","name":"accessorUVs"},{"bufferView":0,"byteOffset":113628,"componentType":5123,"count":276,"type":"SCALAR","name":"accessorIndices"},{"bufferView":1,"byteOffset":493632,"componentType":5126,"count":96,"max":[0.006545005,0.006544994,-0.01923138],"min":[-0.0065449835,-0.2605452,-0.019231388],"type":"VEC3","name":"accessorPositions"},{"bufferView":2,"byteOffset":329088,"componentType":5126,"count":96,"type":"VEC4","name":"accessorTangents"},{"bufferView":1,"byteOffset":494784,"componentType":5126,"count":96,"type":"VEC3","name":"accessorNormals"},{"bufferView":3,"byteOffset":164544,"componentType":5126,"count":96,"type":"VEC2","name":"accessorUVs"},{"bufferView":0,"byteOffset":114180,"componentType":5123,"count":612,"type":"SCALAR","name":"accessorIndices"},{"bufferView":1,"byteOffset":495936,"componentType":5126,"count":216,"max":[0.46989998,0.025400002,0.025539069],"min":[6.357896E-15,-0.025400002,-0.025539069],"type":"VEC3","name":"accessorPositions"},{"bufferView":2,"byteOffset":330624,"componentType":5126,"count":216,"type":"VEC4","name":"accessorTangents"},{"bufferView":1,"byteOffset":498528,"componentType":5126,"count":216,"type":"VEC3","name":"accessorNormals"},{"bufferView":3,"byteOffset":165312,"componentType":5126,"count":216,"type":"VEC2","name":"accessorUVs"},{"bufferView":0,"byteOffset":115404,"componentType":5123,"count":1728,"type":"SCALAR","name":"accessorIndices"},{"bufferView":1,"byteOffset":501120,"componentType":5126,"count":580,"max":[0.0015748,0.0142875,0.0142875],"min":[1.8652728E-14,-0.0142875,-0.0142875],"type":"VEC3","name":"accessorPositions"},{"bufferView":2,"byteOffset":334080,"componentType":5126,"count":580,"type":"VEC4","name":"accessorTangents"},{"bufferView":1,"byteOffset":508080,"componentType":5126,"count":580,"type":"VEC3","name":"accessorNormals"},{"bufferView":3,"byteOffset":167040,"componentType":5126,"count":580,"type":"VEC2","name":"accessorUVs"},{"bufferView":0,"byteOffset":118860,"componentType":5123,"count":1728,"type":"SCALAR","name":"accessorIndices"},{"bufferView":1,"byteOffset":515040,"componentType":5126,"count":580,"max":[0.0015748,0.0142875,0.0142875],"min":[1.8652728E-14,-0.0142875,-0.0142875],"type":"VEC3","name":"accessorPositions"},{"bufferView":2,"byteOffset":343360,"componentType":5126,"count":580,"type":"VEC4","name":"accessorTangents"},{"bufferView":1,"byteOffset":522000,"componentType":5126,"count":580,"type":"VEC3","name":"accessorNormals"},{"bufferView":3,"byteOffset":171680,"componentType":5126,"count":580,"type":"VEC2","name":"accessorUVs"},{"bufferView":0,"byteOffset":122316,"componentType":5123,"count":612,"type":"SCALAR","name":"accessorIndices"},{"bufferView":1,"byteOffset":528960,"componentType":5126,"count":216,"max":[0.46989998,0.025400002,0.025539069],"min":[6.357896E-15,-0.025400002,-0.025539069],"type":"VEC3","name":"accessorPositions"},{"bufferView":2,"byteOffset":352640,"componentType":5126,"count":216,"type":"VEC4","name":"accessorTangents"},{"bufferView":1,"byteOffset":531552,"componentType":5126,"count":216,"type":"VEC3","name":"accessorNormals"},{"bufferView":3,"byteOffset":176320,"componentType":5126,"count":216,"type":"VEC2","name":"accessorUVs"},{"bufferView":0,"byteOffset":123540,"componentType":5123,"count":612,"type":"SCALAR","name":"accessorIndices"},{"bufferView":1,"byteOffset":534144,"componentType":5126,"count":216,"max":[0.46989998,0.025400002,0.025539069],"min":[6.357896E-15,-0.025400002,-0.025539069],"type":"VEC3","name":"accessorPositions"},{"bufferView":2,"byteOffset":356096,"componentType":5126,"count":216,"type":"VEC4","name":"accessorTangents"},{"bufferView":1,"byteOffset":536736,"componentType":5126,"count":216,"type":"VEC3","name":"accessorNormals"},{"bufferView":3,"byteOffset":178048,"componentType":5126,"count":216,"type":"VEC2","name":"accessorUVs"},{"bufferView":0,"byteOffset":124764,"componentType":5123,"count":612,"type":"SCALAR","name":"accessorIndices"},{"bufferView":1,"byteOffset":539328,"componentType":5126,"count":216,"max":[0.5568696,0.025400002,0.025539069],"min":[6.357896E-15,-0.025400002,-0.025539069],"type":"VEC3","name":"accessorPositions"},{"bufferView":2,"byteOffset":359552,"componentType":5126,"count":216,"type":"VEC4","name":"accessorTangents"},{"bufferView":1,"byteOffset":541920,"componentType":5126,"count":216,"type":"VEC3","name":"accessorNormals"},{"bufferView":3,"byteOffset":179776,"componentType":5126,"count":216,"type":"VEC2","name":"accessorUVs"},{"bufferView":0,"byteOffset":125988,"componentType":5123,"count":612,"type":"SCALAR","name":"accessorIndices"},{"bufferView":1,"byteOffset":544512,"componentType":5126,"count":216,"max":[0.5568696,0.025400002,0.025539069],"min":[6.357896E-15,-0.025400002,-0.025539069],"type":"VEC3","name":"accessorPositions"},{"bufferView":2,"byteOffset":363008,"componentType":5126,"count":216,"type":"VEC4","name":"accessorTangents"},{"bufferView":1,"byteOffset":547104,"componentType":5126,"count":216,"type":"VEC3","name":"accessorNormals"},{"bufferView":3,"byteOffset":181504,"componentType":5126,"count":216,"type":"VEC2","name":"accessorUVs"},{"bufferView":0,"byteOffset":127212,"componentType":5123,"count":612,"type":"SCALAR","name":"accessorIndices"},{"bufferView":1,"byteOffset":549696,"componentType":5126,"count":216,"max":[0.5568696,0.025400002,0.025539069],"min":[6.357896E-15,-0.025400002,-0.025539069],"type":"VEC3","name":"accessorPositions"},{"bufferView":2,"byteOffset":366464,"componentType":5126,"count":216,"type":"VEC4","name":"accessorTangents"},{"bufferView":1,"byteOffset":552288,"componentType":5126,"count":216,"type":"VEC3","name":"accessorNormals"},{"bufferView":3,"byteOffset":183232,"componentType":5126,"count":216,"type":"VEC2","name":"accessorUVs"},{"bufferView":0,"byteOffset":128436,"componentType":5123,"count":612,"type":"SCALAR","name":"accessorIndices"},{"bufferView":1,"byteOffset":554880,"componentType":5126,"count":216,"max":[0.5568696,0.025400002,0.025539069],"min":[6.357896E-15,-0.025400002,-0.025539069],"type":"VEC3","name":"accessorPositions"},{"bufferView":2,"byteOffset":369920,"componentType":5126,"count":216,"type":"VEC4","name":"accessorTangents"},{"bufferView":1,"byteOffset":557472,"componentType":5126,"count":216,"type":"VEC3","name":"accessorNormals"},{"bufferView":3,"byteOffset":184960,"componentType":5126,"count":216,"type":"VEC2","name":"accessorUVs"},{"bufferView":0,"byteOffset":129660,"componentType":5123,"count":780,"type":"SCALAR","name":"accessorIndices"},{"bufferView":1,"byteOffset":560064,"componentType":5126,"count":244,"max":[0.5568696,0.025400002,0.025539069],"min":[6.357896E-15,-0.025400002,-0.025539069],"type":"VEC3","name":"accessorPositions"},{"bufferView":2,"byteOffset":373376,"componentType":5126,"count":244,"type":"VEC4","name":"accessorTangents"},{"bufferView":1,"byteOffset":562992,"componentType":5126,"count":244,"type":"VEC3","name":"accessorNormals"},{"bufferView":3,"byteOffset":186688,"componentType":5126,"count":244,"type":"VEC2","name":"accessorUVs"},{"bufferView":0,"byteOffset":131220,"componentType":5123,"count":612,"type":"SCALAR","name":"accessorIndices"},{"bufferView":1,"byteOffset":565920,"componentType":5126,"count":216,"max":[0.5568696,0.025400002,0.025539069],"min":[6.357896E-15,-0.025400002,-0.025539069],"type":"VEC3","name":"accessorPositions"},{"bufferView":2,"byteOffset":377280,"componentType":5126,"count":216,"type":"VEC4","name":"accessorTangents"},{"bufferView":1,"byteOffset":568512,"componentType":5126,"count":216,"type":"VEC3","name":"accessorNormals"},{"bufferView":3,"byteOffset":188640,"componentType":5126,"count":216,"type":"VEC2","name":"accessorUVs"},{"bufferView":0,"byteOffset":132444,"componentType":5123,"count":612,"type":"SCALAR","name":"accessorIndices"},{"bufferView":1,"byteOffset":571104,"componentType":5126,"count":216,"max":[0.5568696,0.025400002,0.025539069],"min":[6.357896E-15,-0.025400002,-0.025539069],"type":"VEC3","name":"accessorPositions"},{"bufferView":2,"byteOffset":380736,"componentType":5126,"count":216,"type":"VEC4","name":"accessorTangents"},{"bufferView":1,"byteOffset":573696,"componentType":5126,"count":216,"type":"VEC3","name":"accessorNormals"},{"bufferView":3,"byteOffset":190368,"componentType":5126,"count":216,"type":"VEC2","name":"accessorUVs"},{"bufferView":0,"byteOffset":133668,"componentType":5123,"count":780,"type":"SCALAR","name":"accessorIndices"},{"bufferView":1,"byteOffset":576288,"componentType":5126,"count":244,"max":[0.5568696,0.025400002,0.025539069],"min":[6.357896E-15,-0.025400002,-0.025539069],"type":"VEC3","name":"accessorPositions"},{"bufferView":2,"byteOffset":384192,"componentType":5126,"count":244,"type":"VEC4","name":"accessorTangents"},{"bufferView":1,"byteOffset":579216,"componentType":5126,"count":244,"type":"VEC3","name":"accessorNormals"},{"bufferView":3,"byteOffset":192096,"componentType":5126,"count":244,"type":"VEC2","name":"accessorUVs"},{"bufferView":0,"byteOffset":135228,"componentType":5123,"count":23592,"type":"SCALAR","name":"accessorIndices"},{"bufferView":1,"byteOffset":582144,"componentType":5126,"count":4517,"max":[0.39583397,0.010935474,0.5296723],"min":[-1.4910393,-0.7633694,-0.5296722],"type":"VEC3","name":"accessorPositions"},{"bufferView":2,"byteOffset":388096,"componentType":5126,"count":4517,"type":"VEC4","name":"accessorTangents"},{"bufferView":1,"byteOffset":636348,"componentType":5126,"count":4517,"type":"VEC3","name":"accessorNormals"},{"bufferView":3,"byteOffset":194048,"componentType":5126,"count":4517,"type":"VEC2","name":"accessorUVs"},{"bufferView":0,"byteOffset":182412,"componentType":5123,"count":246,"type":"SCALAR","name":"accessorIndices"},{"bufferView":1,"byteOffset":690552,"componentType":5126,"count":84,"max":[0.39583397,0.0109354425,-0.49157217],"min":[0.39583364,-0.035273023,-0.5296722],"type":"VEC3","name":"accessorPositions"},{"bufferView":2,"byteOffset":460368,"componentType":5126,"count":84,"type":"VEC4","name":"accessorTangents"},{"bufferView":1,"byteOffset":691560,"componentType":5126,"count":84,"type":"VEC3","name":"accessorNormals"},{"bufferView":3,"byteOffset":230184,"componentType":5126,"count":84,"type":"VEC2","name":"accessorUVs"},{"bufferView":0,"byteOffset":182904,"componentType":5123,"count":4080,"type":"SCALAR","name":"accessorIndices"},{"bufferView":1,"byteOffset":692568,"componentType":5126,"count":1526,"max":[-0.112981424,-0.056437153,0.019062843],"min":[-0.98222625,-0.6959965,-0.019062744],"type":"VEC3","name":"accessorPositions"},{"bufferView":2,"byteOffset":461712,"componentType":5126,"count":1526,"type":"VEC4","name":"accessorTangents"},{"bufferView":1,"byteOffset":710880,"componentType":5126,"count":1526,"type":"VEC3","name":"accessorNormals"},{"bufferView":3,"byteOffset":230856,"componentType":5126,"count":1526,"type":"VEC2","name":"accessorUVs"},{"bufferView":0,"byteOffset":191064,"componentType":5123,"count":738,"type":"SCALAR","name":"accessorIndices"},{"bufferView":1,"byteOffset":729192,"componentType":5126,"count":252,"max":[-0.112981424,-0.056437153,0.019062843],"min":[-0.98222625,-0.6959965,-0.019062744],"type":"VEC3","name":"accessorPositions"},{"bufferView":2,"byteOffset":486128,"componentType":5126,"count":252,"type":"VEC4","name":"accessorTangents"},{"bufferView":1,"byteOffset":732216,"componentType":5126,"count":252,"type":"VEC3","name":"accessorNormals"},{"bufferView":3,"byteOffset":243064,"componentType":5126,"count":252,"type":"VEC2","name":"accessorUVs"},{"bufferView":0,"byteOffset":192540,"componentType":5123,"count":324,"type":"SCALAR","name":"accessorIndices"},{"bufferView":1,"byteOffset":735240,"componentType":5126,"count":120,"max":[0.025592525,0.0031551565,0.025590502],"min":[-0.025588477,-2.0427421E-15,-0.025590502],"type":"VEC3","name":"accessorPositions"},{"bufferView":2,"byteOffset":490160,"componentType":5126,"count":120,"type":"VEC4","name":"accessorTangents"},{"bufferView":1,"byteOffset":736680,"componentType":5126,"count":120,"type":"VEC3","name":"accessorNormals"},{"bufferView":3,"byteOffset":245080,"componentType":5126,"count":120,"type":"VEC2","name":"accessorUVs"},{"bufferView":0,"byteOffset":193188,"componentType":5123,"count":912,"type":"SCALAR","name":"accessorIndices"},{"bufferView":1,"byteOffset":738120,"componentType":5126,"count":504,"max":[0.025400002,0.025400002,0.009525],"min":[-0.025400002,-0.27940002,-0.019231388],"type":"VEC3","name":"accessorPositions"},{"bufferView":2,"byteOffset":492080,"componentType":5126,"count":504,"type":"VEC4","name":"accessorTangents"},{"bufferView":1,"byteOffset":744168,"componentType":5126,"count":504,"type":"VEC3","name":"accessorNormals"},{"bufferView":3,"byteOffset":246040,"componentType":5126,"count":504,"type":"VEC2","name":"accessorUVs"},{"bufferView":0,"byteOffset":195012,"componentType":5123,"count":276,"type":"SCALAR","name":"accessorIndices"},{"bufferView":1,"byteOffset":750216,"componentType":5126,"count":96,"max":[0.006545005,0.006544994,-0.01923138],"min":[-0.0065449835,-0.2605452,-0.019231388],"type":"VEC3","name":"accessorPositions"},{"bufferView":2,"byteOffset":500144,"componentType":5126,"count":96,"type":"VEC4","name":"accessorTangents"},{"bufferView":1,"byteOffset":751368,"componentType":5126,"count":96,"type":"VEC3","name":"accessorNormals"},{"bufferView":3,"byteOffset":250072,"componentType":5126,"count":96,"type":"VEC2","name":"accessorUVs"},{"bufferView":0,"byteOffset":195564,"componentType":5123,"count":432,"type":"SCALAR","name":"accessorIndices"},{"bufferView":1,"byteOffset":752520,"componentType":5126,"count":146,"max":[0.0063500004,0.01905,0.01905],"min":[1.8592634E-14,-0.01905,-0.01905],"type":"VEC3","name":"accessorPositions"},{"bufferView":2,"byteOffset":501680,"componentType":5126,"count":146,"type":"VEC4","name":"accessorTangents"},{"bufferView":1,"byteOffset":754272,"componentType":5126,"count":146,"type":"VEC3","name":"accessorNormals"},{"bufferView":3,"byteOffset":250840,"componentType":5126,"count":146,"type":"VEC2","name":"accessorUVs"},{"bufferView":0,"byteOffset":196428,"componentType":5123,"count":420,"type":"SCALAR","name":"accessorIndices"},{"bufferView":1,"byteOffset":756024,"componentType":5126,"count":144,"max":[0.0063500004,0.01905,0.01905],"min":[1.8592634E-14,-0.01905,-0.01905],"type":"VEC3","name":"accessorPositions"},{"bufferView":2,"byteOffset":504016,"componentType":5126,"count":144,"type":"VEC4","name":"accessorTangents"},{"bufferView":1,"byteOffset":757752,"componentType":5126,"count":144,"type":"VEC3","name":"accessorNormals"},{"bufferView":3,"byteOffset":252008,"componentType":5126,"count":144,"type":"VEC2","name":"accessorUVs"},{"bufferView":0,"byteOffset":197268,"componentType":5123,"count":168,"type":"SCALAR","name":"accessorIndices"},{"bufferView":1,"byteOffset":759480,"componentType":5126,"count":99,"max":[0.007160028,0.7945839,0.53302854],"min":[-0.007164679,-0.7945839,-0.53302765],"type":"VEC3","name":"accessorPositions"},{"bufferView":2,"byteOffset":506320,"componentType":5126,"count":99,"type":"VEC4","name":"accessorTangents"},{"bufferView":1,"byteOffset":760668,"componentType":5126,"count":99,"type":"VEC3","name":"accessorNormals"},{"bufferView":3,"byteOffset":253160,"componentType":5126,"count":99,"type":"VEC2","name":"accessorUVs"},{"bufferView":0,"byteOffset":197604,"componentType":5123,"count":2994,"type":"SCALAR","name":"accessorIndices"},{"bufferView":1,"byteOffset":761856,"componentType":5126,"count":1043,"max":[0.44326597,0.30061945,0.019136041],"min":[-0.44326365,-0.3006193,-0.019133717],"type":"VEC3","name":"accessorPositions"},{"bufferView":2,"byteOffset":507904,"componentType":5126,"count":1043,"type":"VEC4","name":"accessorTangents"},{"bufferView":1,"byteOffset":774372,"componentType":5126,"count":1043,"type":"VEC3","name":"accessorNormals"},{"bufferView":3,"byteOffset":253952,"componentType":5126,"count":1043,"type":"VEC2","name":"accessorUVs"},{"bufferView":0,"byteOffset":203592,"componentType":5123,"count":456,"type":"SCALAR","name":"accessorIndices"},{"bufferView":1,"byteOffset":786888,"componentType":5126,"count":156,"max":[0.44326597,0.30061945,0.019129066],"min":[-0.44326365,-0.30061612,-0.019133717],"type":"VEC3","name":"accessorPositions"},{"bufferView":2,"byteOffset":524592,"componentType":5126,"count":156,"type":"VEC4","name":"accessorTangents"},{"bufferView":1,"byteOffset":788760,"componentType":5126,"count":156,"type":"VEC3","name":"accessorNormals"},{"bufferView":3,"byteOffset":262296,"componentType":5126,"count":156,"type":"VEC2","name":"accessorUVs"},{"bufferView":0,"byteOffset":204504,"componentType":5123,"count":2679,"type":"SCALAR","name":"accessorIndices"},{"bufferView":1,"byteOffset":790632,"componentType":5126,"count":926,"max":[0.036437485,0.5728089,0.019061409],"min":[-0.8287076,-0.028500414,-0.019061845],"type":"VEC3","name":"accessorPositions"},{"bufferView":2,"byteOffset":527088,"componentType":5126,"count":926,"type":"VEC4","name":"accessorTangents"},{"bufferView":1,"byteOffset":801744,"componentType":5126,"count":926,"type":"VEC3","name":"accessorNormals"},{"bufferView":3,"byteOffset":263544,"componentType":5126,"count":926,"type":"VEC2","name":"accessorUVs"},{"bufferView":0,"byteOffset":209864,"componentType":5123,"count":246,"type":"SCALAR","name":"accessorIndices"},{"bufferView":1,"byteOffset":812856,"componentType":5126,"count":84,"max":[0.036437485,0.017726,0.019061409],"min":[0.03643737,-0.028500414,-0.019038592],"type":"VEC3","name":"accessorPositions"},{"bufferView":2,"byteOffset":541904,"componentType":5126,"count":84,"type":"VEC4","name":"accessorTangents"},{"bufferView":1,"byteOffset":813864,"componentType":5126,"count":84,"type":"VEC3","name":"accessorNormals"},{"bufferView":3,"byteOffset":270952,"componentType":5126,"count":84,"type":"VEC2","name":"accessorUVs"},{"bufferView":0,"byteOffset":210356,"componentType":5123,"count":132,"type":"SCALAR","name":"accessorIndices"},{"bufferView":1,"byteOffset":814872,"componentType":5126,"count":82,"max":[0.67253757,0.76435065,0.0071501],"min":[-0.1888937,-0.7240815,-0.0071501],"type":"VEC3","name":"accessorPositions"},{"bufferView":2,"byteOffset":543248,"componentType":5126,"count":82,"type":"VEC4","name":"accessorTangents"},{"bufferView":1,"byteOffset":815856,"componentType":5126,"count":82,"type":"VEC3","name":"accessorNormals"},{"bufferView":3,"byteOffset":271624,"componentType":5126,"count":82,"type":"VEC2","name":"accessorUVs"},{"bufferView":0,"byteOffset":210620,"componentType":5123,"count":132,"type":"SCALAR","name":"accessorIndices"},{"bufferView":1,"byteOffset":816840,"componentType":5126,"count":96,"max":[0.40886727,0.3245767,0.0071501],"min":[-0.35996616,-0.52949834,-0.0071501],"type":"VEC3","name":"accessorPositions"},{"bufferView":2,"byteOffset":544560,"componentType":5126,"count":96,"type":"VEC4","name":"accessorTangents"},{"bufferView":1,"byteOffset":817992,"componentType":5126,"count":96,"type":"VEC3","name":"accessorNormals"},{"bufferView":3,"byteOffset":272280,"componentType":5126,"count":96,"type":"VEC2","name":"accessorUVs"},{"bufferView":0,"byteOffset":210884,"componentType":5123,"count":132,"type":"SCALAR","name":"accessorIndices"},{"bufferView":1,"byteOffset":819144,"componentType":5126,"count":96,"max":[0.70101464,0.3245767,0.0071501],"min":[-0.35996616,-0.52949834,-0.0071501],"type":"VEC3","name":"accessorPositions"},{"bufferView":2,"byteOffset":546096,"componentType":5126,"count":96,"type":"VEC4","name":"accessorTangents"},{"bufferView":1,"byteOffset":820296,"componentType":5126,"count":96,"type":"VEC3","name":"accessorNormals"},{"bufferView":3,"byteOffset":273048,"componentType":5126,"count":96,"type":"VEC2","name":"accessorUVs"},{"bufferView":0,"byteOffset":211148,"componentType":5123,"count":132,"type":"SCALAR","name":"accessorIndices"},{"bufferView":1,"byteOffset":821448,"componentType":5126,"count":82,"max":[0.37704316,0.70856416,0.0071501],"min":[-0.39211252,-0.71716493,-0.0071501],"type":"VEC3","name":"accessorPositions"},{"bufferView":2,"byteOffset":547632,"componentType":5126,"count":82,"type":"VEC4","name":"accessorTangents"},{"bufferView":1,"byteOffset":822432,"componentType":5126,"count":82,"type":"VEC3","name":"accessorNormals"},{"bufferView":3,"byteOffset":273816,"componentType":5126,"count":82,"type":"VEC2","name":"accessorUVs"},{"bufferView":0,"byteOffset":211412,"componentType":5123,"count":168,"type":"SCALAR","name":"accessorIndices"},{"bufferView":1,"byteOffset":823416,"componentType":5126,"count":109,"max":[0.77951753,0.0071501,1.4337071],"min":[-0.068804964,-0.0071501024,-0.0],"type":"VEC3","name":"accessorPositions"},{"bufferView":2,"byteOffset":548944,"componentType":5126,"count":109,"type":"VEC4","name":"accessorTangents"},{"bufferView":1,"byteOffset":824724,"componentType":5126,"count":109,"type":"VEC3","name":"accessorNormals"},{"bufferView":3,"byteOffset":274472,"componentType":5126,"count":109,"type":"VEC2","name":"accessorUVs"},{"bufferView":0,"byteOffset":211748,"componentType":5123,"count":780,"type":"SCALAR","name":"accessorIndices"},{"bufferView":1,"byteOffset":826032,"componentType":5126,"count":244,"max":[0.5568696,0.025400002,0.025539069],"min":[6.357896E-15,-0.025400002,-0.025539069],"type":"VEC3","name":"accessorPositions"},{"bufferView":2,"byteOffset":550688,"componentType":5126,"count":244,"type":"VEC4","name":"accessorTangents"},{"bufferView":1,"byteOffset":828960,"componentType":5126,"count":244,"type":"VEC3","name":"accessorNormals"},{"bufferView":3,"byteOffset":275344,"componentType":5126,"count":244,"type":"VEC2","name":"accessorUVs"},{"bufferView":0,"byteOffset":213308,"componentType":5123,"count":612,"type":"SCALAR","name":"accessorIndices"},{"bufferView":1,"byteOffset":831888,"componentType":5126,"count":216,"max":[0.5568696,0.025400002,0.025539069],"min":[6.357896E-15,-0.025400002,-0.025539069],"type":"VEC3","name":"accessorPositions"},{"bufferView":2,"byteOffset":554592,"componentType":5126,"count":216,"type":"VEC4","name":"accessorTangents"},{"bufferView":1,"byteOffset":834480,"componentType":5126,"count":216,"type":"VEC3","name":"accessorNormals"},{"bufferView":3,"byteOffset":277296,"componentType":5126,"count":216,"type":"VEC2","name":"accessorUVs"},{"bufferView":0,"byteOffset":214532,"componentType":5123,"count":780,"type":"SCALAR","name":"accessorIndices"},{"bufferView":1,"byteOffset":837072,"componentType":5126,"count":244,"max":[0.5568696,0.025400002,0.025539069],"min":[6.357896E-15,-0.025400002,-0.025539069],"type":"VEC3","name":"accessorPositions"},{"bufferView":2,"byteOffset":558048,"componentType":5126,"count":244,"type":"VEC4","name":"accessorTangents"},{"bufferView":1,"byteOffset":840000,"componentType":5126,"count":244,"type":"VEC3","name":"accessorNormals"},{"bufferView":3,"byteOffset":279024,"componentType":5126,"count":244,"type":"VEC2","name":"accessorUVs"},{"bufferView":0,"byteOffset":216092,"componentType":5123,"count":612,"type":"SCALAR","name":"accessorIndices"},{"bufferView":1,"byteOffset":842928,"componentType":5126,"count":216,"max":[0.5568696,0.025400002,0.025539069],"min":[6.357896E-15,-0.025400002,-0.025539069],"type":"VEC3","name":"accessorPositions"},{"bufferView":2,"byteOffset":561952,"componentType":5126,"count":216,"type":"VEC4","name":"accessorTangents"},{"bufferView":1,"byteOffset":845520,"componentType":5126,"count":216,"type":"VEC3","name":"accessorNormals"},{"bufferView":3,"byteOffset":280976,"componentType":5126,"count":216,"type":"VEC2","name":"accessorUVs"},{"bufferView":0,"byteOffset":217316,"componentType":5123,"count":612,"type":"SCALAR","name":"accessorIndices"},{"bufferView":1,"byteOffset":848112,"componentType":5126,"count":216,"max":[0.46989998,0.025400002,0.025539069],"min":[6.357896E-15,-0.025400002,-0.025539069],"type":"VEC3","name":"accessorPositions"},{"bufferView":2,"byteOffset":565408,"componentType":5126,"count":216,"type":"VEC4","name":"accessorTangents"},{"bufferView":1,"byteOffset":850704,"componentType":5126,"count":216,"type":"VEC3","name":"accessorNormals"},{"bufferView":3,"byteOffset":282704,"componentType":5126,"count":216,"type":"VEC2","name":"accessorUVs"},{"bufferView":0,"byteOffset":218540,"componentType":5123,"count":612,"type":"SCALAR","name":"accessorIndices"},{"bufferView":1,"byteOffset":853296,"componentType":5126,"count":216,"max":[0.46989998,0.025400002,0.025539069],"min":[6.357896E-15,-0.025400002,-0.025539069],"type":"VEC3","name":"accessorPositions"},{"bufferView":2,"byteOffset":568864,"componentType":5126,"count":216,"type":"VEC4","name":"accessorTangents"},{"bufferView":1,"byteOffset":855888,"componentType":5126,"count":216,"type":"VEC3","name":"accessorNormals"},{"bufferView":3,"byteOffset":284432,"componentType":5126,"count":216,"type":"VEC2","name":"accessorUVs"},{"bufferView":0,"byteOffset":219764,"componentType":5123,"count":612,"type":"SCALAR","name":"accessorIndices"},{"bufferView":1,"byteOffset":858480,"componentType":5126,"count":216,"max":[0.46989998,0.025400002,0.025539069],"min":[6.357896E-15,-0.025400002,-0.025539069],"type":"VEC3","name":"accessorPositions"},{"bufferView":2,"byteOffset":572320,"componentType":5126,"count":216,"type":"VEC4","name":"accessorTangents"},{"bufferView":1,"byteOffset":861072,"componentType":5126,"count":216,"type":"VEC3","name":"accessorNormals"},{"bufferView":3,"byteOffset":286160,"componentType":5126,"count":216,"type":"VEC2","name":"accessorUVs"},{"bufferView":0,"byteOffset":220988,"componentType":5123,"count":612,"type":"SCALAR","name":"accessorIndices"},{"bufferView":1,"byteOffset":863664,"componentType":5126,"count":216,"max":[0.46989998,0.025400002,0.025539069],"min":[6.357896E-15,-0.025400002,-0.025539069],"type":"VEC3","name":"accessorPositions"},{"bufferView":2,"byteOffset":575776,"componentType":5126,"count":216,"type":"VEC4","name":"accessorTangents"},{"bufferView":1,"byteOffset":866256,"componentType":5126,"count":216,"type":"VEC3","name":"accessorNormals"},{"bufferView":3,"byteOffset":287888,"componentType":5126,"count":216,"type":"VEC2","name":"accessorUVs"},{"bufferView":0,"byteOffset":222212,"componentType":5123,"count":1728,"type":"SCALAR","name":"accessorIndices"},{"bufferView":1,"byteOffset":868848,"componentType":5126,"count":580,"max":[0.0015748,0.0142875,0.0142875],"min":[1.8652728E-14,-0.0142875,-0.0142875],"type":"VEC3","name":"accessorPositions"},{"bufferView":2,"byteOffset":579232,"componentType":5126,"count":580,"type":"VEC4","name":"accessorTangents"},{"bufferView":1,"byteOffset":875808,"componentType":5126,"count":580,"type":"VEC3","name":"accessorNormals"},{"bufferView":3,"byteOffset":289616,"componentType":5126,"count":580,"type":"VEC2","name":"accessorUVs"},{"bufferView":0,"byteOffset":225668,"componentType":5123,"count":1728,"type":"SCALAR","name":"accessorIndices"},{"bufferView":1,"byteOffset":882768,"componentType":5126,"count":580,"max":[0.0015748,0.0142875,0.0142875],"min":[1.8652728E-14,-0.0142875,-0.0142875],"type":"VEC3","name":"accessorPositions"},{"bufferView":2,"byteOffset":588512,"componentType":5126,"count":580,"type":"VEC4","name":"accessorTangents"},{"bufferView":1,"byteOffset":889728,"componentType":5126,"count":580,"type":"VEC3","name":"accessorNormals"},{"bufferView":3,"byteOffset":294256,"componentType":5126,"count":580,"type":"VEC2","name":"accessorUVs"},{"bufferView":0,"byteOffset":229124,"componentType":5123,"count":1728,"type":"SCALAR","name":"accessorIndices"},{"bufferView":1,"byteOffset":896688,"componentType":5126,"count":580,"max":[0.0015748,0.0142875,0.0142875],"min":[1.8652728E-14,-0.0142875,-0.0142875],"type":"VEC3","name":"accessorPositions"},{"bufferView":2,"byteOffset":597792,"componentType":5126,"count":580,"type":"VEC4","name":"accessorTangents"},{"bufferView":1,"byteOffset":903648,"componentType":5126,"count":580,"type":"VEC3","name":"accessorNormals"},{"bufferView":3,"byteOffset":298896,"componentType":5126,"count":580,"type":"VEC2","name":"accessorUVs"},{"bufferView":0,"byteOffset":232580,"componentType":5123,"count":1728,"type":"SCALAR","name":"accessorIndices"},{"bufferView":1,"byteOffset":910608,"componentType":5126,"count":580,"max":[0.0015748,0.0142875,0.0142875],"min":[1.8652728E-14,-0.0142875,-0.0142875],"type":"VEC3","name":"accessorPositions"},{"bufferView":2,"byteOffset":607072,"componentType":5126,"count":580,"type":"VEC4","name":"accessorTangents"},{"bufferView":1,"byteOffset":917568,"componentType":5126,"count":580,"type":"VEC3","name":"accessorNormals"},{"bufferView":3,"byteOffset":303536,"componentType":5126,"count":580,"type":"VEC2","name":"accessorUVs"},{"bufferView":0,"byteOffset":236036,"componentType":5123,"count":33444,"type":"SCALAR","name":"accessorIndices"},{"bufferView":1,"byteOffset":924528,"componentType":5126,"count":6765,"max":[0.5296706,-0.72898805,1.4910585],"min":[-0.52966243,-0.7625488,1.163663],"type":"VEC3","name":"accessorPositions"},{"bufferView":2,"byteOffset":616352,"componentType":5126,"count":6765,"type":"VEC4","name":"accessorTangents"},{"bufferView":1,"byteOffset":1005708,"componentType":5126,"count":6765,"type":"VEC3","name":"accessorNormals"},{"bufferView":3,"byteOffset":308176,"componentType":5126,"count":6765,"type":"VEC2","name":"accessorUVs"},{"bufferView":0,"byteOffset":302924,"componentType":5123,"count":612,"type":"SCALAR","name":"accessorIndices"},{"bufferView":1,"byteOffset":1086888,"componentType":5126,"count":216,"max":[0.5568696,0.025400002,0.025539069],"min":[6.357896E-15,-0.025400002,-0.025539069],"type":"VEC3","name":"accessorPositions"},{"bufferView":2,"byteOffset":724592,"componentType":5126,"count":216,"type":"VEC4","name":"accessorTangents"},{"bufferView":1,"byteOffset":1089480,"componentType":5126,"count":216,"type":"VEC3","name":"accessorNormals"},{"bufferView":3,"byteOffset":362296,"componentType":5126,"count":216,"type":"VEC2","name":"accessorUVs"},{"bufferView":0,"byteOffset":304148,"componentType":5123,"count":612,"type":"SCALAR","name":"accessorIndices"},{"bufferView":1,"byteOffset":1092072,"componentType":5126,"count":216,"max":[0.5568696,0.025400002,0.025539069],"min":[6.357896E-15,-0.025400002,-0.025539069],"type":"VEC3","name":"accessorPositions"},{"bufferView":2,"byteOffset":728048,"componentType":5126,"count":216,"type":"VEC4","name":"accessorTangents"},{"bufferView":1,"byteOffset":1094664,"componentType":5126,"count":216,"type":"VEC3","name":"accessorNormals"},{"bufferView":3,"byteOffset":364024,"componentType":5126,"count":216,"type":"VEC2","name":"accessorUVs"},{"bufferView":0,"byteOffset":305372,"componentType":5123,"count":2064,"type":"SCALAR","name":"accessorIndices"},{"bufferView":1,"byteOffset":1097256,"componentType":5126,"count":724,"max":[0.019054687,-0.10462099,0.80214816],"min":[-0.019041477,-0.38715136,-0.05929453],"type":"VEC3","name":"accessorPositions"},{"bufferView":2,"byteOffset":731504,"componentType":5126,"count":724,"type":"VEC4","name":"accessorTangents"},{"bufferView":1,"byteOffset":1105944,"componentType":5126,"count":724,"type":"VEC3","name":"accessorNormals"},{"bufferView":3,"byteOffset":365752,"componentType":5126,"count":724,"type":"VEC2","name":"accessorUVs"}],"bufferViews":[{"buffer":0,"byteLength":309500,"name":"bufferViewScalar"},{"buffer":0,"byteOffset":309500,"byteLength":1114632,"byteStride":12,"name":"bufferViewFloatVec3"},{"buffer":0,"byteOffset":1424132,"byteLength":743088,"byteStride":16,"name":"bufferViewFloatVec4"},{"buffer":0,"byteOffset":2167220,"byteLength":371544,"byteStride":8,"name":"bufferViewFloatVec2"}],"buffers":[{"uri":"U-Shaped_Railing_Lo-Post_Square.bin","byteLength":2538764}],"materials":[{"pbrMetallicRoughness":{"baseColorFactor":[0.9999998,0.9999999,0.9999999,1.0],"metallicFactor":0.0,"roughnessFactor":0.1},"name":"Glass","extensions":{"KHR_materials_ior":{"ior":1.0},"KHR_materials_transmission":{"transmissionFactor":0.97},"KHR_materials_volume":{"thicknessFactor":0.56,"attenuationDistance":0.5,"attenuationColor":[0.49521634,0.56476736,0.5317566]}}},{"pbrMetallicRoughness":{"baseColorFactor":[0.9999998,0.9999999,0.9999999,1.0],"baseColorTexture":{"index":0,"extensions":{"KHR_texture_transform":{"offset":[0.19519997,0.8048],"rotation":1.5707964,"scale":[0.6096,0.6096],"texCoord":0}}},"roughnessFactor":0.2,"metallicRoughnessTexture":{"index":0,"extensions":{"KHR_texture_transform":{"offset":[0.19519997,0.8048],"rotation":1.5707964,"scale":[0.6096,0.6096],"texCoord":0}}}},"name":"Steel_Linear"},{"pbrMetallicRoughness":{"baseColorFactor":[0.9999998,0.9999999,0.9999999,1.0],"baseColorTexture":{"index":1},"roughnessFactor":0.2,"metallicRoughnessTexture":{"index":1}},"name":"Steel_Radial"},{"pbrMetallicRoughness":{"baseColorFactor":[0.10641303,0.10641304,0.10641304,1.0],"metallicFactor":0.0,"roughnessFactor":0.99,"metallicRoughnessTexture":{"index":2}},"name":"Rubber","extensions":{"KHR_materials_specular":{"specularFactor":0.1}}}],"textures":[{"sampler":0,"source":0,"name":"Metal_Brushed_Linear_4k.jpg"},{"sampler":0,"source":1,"name":"Metal_Brushed_Radial_4k.jpg"},{"sampler":0,"source":2,"name":"PowderCoat_Roughness_2k0.jpg"}],"images":[{"uri":"textures/Metal_Brushed_Linear_4k.jpg"},{"uri":"textures/Metal_Brushed_Radial_4k.jpg"},{"uri":"textures/PowderCoat_Roughness_2k0.jpg"}],"samplers":[{"magFilter":9729,"minFilter":9987}]}