{"asset":{"version":"2.0","generator":"babylon.js glTF exporter for 3dsmax 2026 v20251111.2"},"extensionsUsed":["KHR_lights_punctual","KHR_texture_transform","KHR_materials_clearcoat"],"extensionsRequired":["KHR_texture_transform"],"scene":0,"scenes":[{"nodes":[0,1,2,3,4,5,6,7,8,9,10,11,12,13,14,15,16,17,18,19,20,21,22,23,24,25,26,27,28,29,30,31,32,33,34,35,36,37,38,39,40,41,42,43,44,45,46,47,48,49,50,51,52,53,54,55,56,57,58,59,60,61,62,63,64,65,66,67,68,69,70,71,72,73,74,75,76,77,78,79,80,81,82,83,84,85,86,87,88,89,90,91,92,93,94,95,96,97,98,99,100,101,102,103,104,105,106,107,108,109,110,111,112,113,114,115,116,117,118,119,120,121,122,123,124,125,126,127,128,129,130,131,132,133,134,135,136,137,138,139,140,141,142,143,144,145,146,147,148,149,150,151,152,153,154,155,156,157,158,159,160,161,162,163,164,165,166,167,168,169,170,171,172,173,174,175,176,177,178,179,180,181,182,183,184,185,186,187,188,189,190,191,192,193,194,195,196,197,198,199,200,201,202,203,204,205,206,207,208,209,210,211,212,213,214,215,216,217,218,219,220,221,222,223,224,225,226,227,228,229,230,231,232,233,234,235,236,237,238,239,240,241,242,243,244,245,246,247,248,249,250,251,252,253,254,255,256,257,258,259,260,261,262,263,264,265,266,267,268,269,270,271,272,273,274,275,276,277,278,279,280,281,282,283,284,285,286,287,288,289,290,291,292,293,294,295,296,297,298,299,300,301,302,303,304,305,306,307,308]}],"nodes":[{"mesh":0,"translation":[0.27905622,1.28016,-0.55062455],"rotation":[-0.0,0.7071068,0.0,0.7071067],"name":"Floor Nosing"},{"mesh":1,"translation":[0.7752572,2.0116796,-1.1602246],"rotation":[-0.0,-0.7071068,0.0,0.7071067],"name":"Landing"},{"mesh":2,"translation":[0.16565719,1.9021294,-0.9006246],"rotation":[-0.0,-1.0,0.0,-4.371139E-08],"name":"Landing Attachment_001"},{"mesh":2,"translation":[0.41965792,1.9021294,-0.55062455],"rotation":[-0.0,0.7071068,0.0,0.7071067],"name":"Landing Attachment_003"},{"mesh":2,"translation":[0.1656569,1.9021294,-0.30068433],"rotation":[-0.0,-1.0,0.0,-1.6292068E-07],"name":"Landing Attachment_004"},{"mesh":3,"translation":[0.032307178,1.9021294,-0.95142376],"rotation":[0.5,0.5,0.50000006,0.49999994],"scale":[1.0,0.99999994,0.99999994],"name":"1/2\" Lag Bolt_008"},{"mesh":3,"translation":[0.032307178,1.9021294,-0.849823],"rotation":[0.5,0.5,0.50000006,0.49999994],"scale":[1.0,0.99999994,0.99999994],"name":"1/2\" Lag Bolt_009"},{"mesh":3,"translation":[0.07040719,1.9021294,-0.849823],"rotation":[0.5,0.5,0.50000006,0.49999994],"scale":[1.0,0.99999994,0.99999994],"name":"1/2\" Lag Bolt_010"},{"mesh":3,"translation":[0.07040719,1.9021294,-0.95142376],"rotation":[0.5,0.5,0.50000006,0.49999994],"scale":[1.0,0.99999994,0.99999994],"name":"1/2\" Lag Bolt_011"},{"mesh":3,"translation":[0.2609072,1.9021294,-0.95142376],"rotation":[0.5,0.5,0.50000006,0.49999994],"scale":[1.0,0.99999994,0.99999994],"name":"1/2\" Lag Bolt_012"},{"mesh":3,"translation":[0.29900718,1.9021294,-0.95142376],"rotation":[0.5,0.5,0.50000006,0.49999994],"scale":[1.0,0.99999994,0.99999994],"name":"1/2\" Lag Bolt_013"},{"mesh":3,"translation":[0.2609072,1.9021294,-0.849823],"rotation":[0.5,0.5,0.50000006,0.49999994],"scale":[1.0,0.99999994,0.99999994],"name":"1/2\" Lag Bolt_014"},{"mesh":3,"translation":[0.29900718,1.9021294,-0.849823],"rotation":[0.5,0.5,0.50000006,0.49999994],"scale":[1.0,0.99999994,0.99999994],"name":"1/2\" Lag Bolt_015"},{"mesh":3,"translation":[0.47045717,1.9021294,-0.68397456],"rotation":[1.9037373E-15,1.9037373E-15,0.7071068,0.7071067],"name":"1/2\" Lag Bolt_024"},{"mesh":3,"translation":[0.3688564,1.9021294,-0.68397456],"rotation":[1.9037373E-15,1.9037373E-15,0.7071068,0.7071067],"name":"1/2\" Lag Bolt_025"},{"mesh":3,"translation":[0.3688564,1.9021294,-0.64587456],"rotation":[1.9037373E-15,1.9037373E-15,0.7071068,0.7071067],"name":"1/2\" Lag Bolt_026"},{"mesh":3,"translation":[0.47045717,1.9021294,-0.64587456],"rotation":[1.9037373E-15,1.9037373E-15,0.7071068,0.7071067],"name":"1/2\" Lag Bolt_027"},{"mesh":3,"translation":[0.47045717,1.9021294,-0.45537454],"rotation":[1.9037373E-15,1.9037373E-15,0.7071068,0.7071067],"name":"1/2\" Lag Bolt_028"},{"mesh":3,"translation":[0.47045717,1.9021294,-0.41727453],"rotation":[1.9037373E-15,1.9037373E-15,0.7071068,0.7071067],"name":"1/2\" Lag Bolt_029"},{"mesh":3,"translation":[0.3688564,1.9021294,-0.45537454],"rotation":[1.9037373E-15,1.9037373E-15,0.7071068,0.7071067],"name":"1/2\" Lag Bolt_030"},{"mesh":3,"translation":[0.3688564,1.9021294,-0.41727453],"rotation":[1.9037373E-15,1.9037373E-15,0.7071068,0.7071067],"name":"1/2\" Lag Bolt_031"},{"mesh":3,"translation":[0.032306887,1.9021294,-0.24988511],"rotation":[-0.49999997,-0.5000001,0.50000006,0.49999997],"name":"1/2\" Lag Bolt_032"},{"mesh":3,"translation":[0.032306887,1.9021294,-0.35148585],"rotation":[-0.49999997,-0.5000001,0.50000006,0.49999997],"name":"1/2\" Lag Bolt_033"},{"mesh":3,"translation":[0.0704069,1.9021294,-0.35148585],"rotation":[-0.49999997,-0.5000001,0.50000006,0.49999997],"name":"1/2\" Lag Bolt_034"},{"mesh":3,"translation":[0.0704069,1.9021294,-0.24988511],"rotation":[-0.49999997,-0.5000001,0.50000006,0.49999997],"name":"1/2\" Lag Bolt_035"},{"mesh":3,"translation":[0.2609069,1.9021294,-0.24988511],"rotation":[-0.49999997,-0.5000001,0.50000006,0.49999997],"name":"1/2\" Lag Bolt_036"},{"mesh":3,"translation":[0.2990069,1.9021294,-0.24988511],"rotation":[-0.49999997,-0.5000001,0.50000006,0.49999997],"name":"1/2\" Lag Bolt_037"},{"mesh":3,"translation":[0.2609069,1.9021294,-0.35148585],"rotation":[-0.49999997,-0.5000001,0.50000006,0.49999997],"name":"1/2\" Lag Bolt_038"},{"mesh":3,"translation":[0.2990069,1.9021294,-0.35148585],"rotation":[-0.49999997,-0.5000001,0.50000006,0.49999997],"name":"1/2\" Lag Bolt_039"},{"mesh":4,"translation":[0.24820796,1.8259294,-0.55062455],"rotation":[-0.0,-0.7071068,0.0,0.7071067],"name":"Stringer Attachment_001"},{"mesh":5,"translation":[0.24820796,1.8767294,-0.44902375],"rotation":[3.3937974E-15,-1.0,6.2099294E-17,-4.371139E-08],"name":"3/8\" FHSCS_023"},{"mesh":5,"translation":[0.24820796,1.7751294,-0.44902375],"rotation":[3.3937974E-15,-1.0,6.2099294E-17,-4.371139E-08],"name":"3/8\" FHSCS_022"},{"mesh":5,"translation":[0.24820796,1.7751294,-0.652223],"rotation":[3.3937974E-15,-1.0,6.2099294E-17,-4.371139E-08],"name":"3/8\" FHSCS_024"},{"mesh":5,"translation":[0.24820796,1.8767294,-0.652223],"rotation":[3.3937974E-15,-1.0,6.2099294E-17,-4.371139E-08],"name":"3/8\" FHSCS_025"},{"mesh":5,"translation":[1.6062078,2.4592133,-0.5141105],"rotation":[-3.0908623E-08,0.7071067,0.7071068,3.0908616E-08],"name":"3/8\" FHSCS_030"},{"mesh":5,"translation":[1.6062078,2.4592133,-0.58713627],"rotation":[-3.0908623E-08,0.7071067,0.7071068,3.0908616E-08],"name":"3/8\" FHSCS_031"},{"mesh":5,"translation":[1.6062078,2.3639634,-0.58713627],"rotation":[-3.0908623E-08,0.7071067,0.7071068,3.0908616E-08],"name":"3/8\" FHSCS_032"},{"mesh":5,"translation":[1.6062078,2.3639634,-0.55062455],"rotation":[-3.0908623E-08,0.7071067,0.7071068,3.0908616E-08],"name":"3/8\" FHSCS_033"},{"mesh":5,"translation":[1.6062078,2.3639634,-0.5141082],"rotation":[-3.0908623E-08,0.7071067,0.7071068,3.0908616E-08],"name":"3/8\" FHSCS_034"},{"mesh":5,"translation":[1.6062078,2.4592133,-0.55062455],"rotation":[-3.0908623E-08,0.7071067,0.7071068,3.0908616E-08],"name":"3/8\" FHSCS_035"},{"mesh":5,"translation":[0.21645641,1.7417792,-0.44922608],"rotation":[-0.5,-0.5,0.50000006,0.49999994],"name":"3/8\" FHSCS_036"},{"mesh":5,"translation":[0.21645641,1.7417792,-0.37282375],"rotation":[-0.5,-0.5,0.50000006,0.49999994],"name":"3/8\" FHSCS_037"},{"mesh":5,"translation":[0.114857964,1.7417792,-0.37282375],"rotation":[-0.5,-0.5,0.50000006,0.49999994],"name":"3/8\" FHSCS_038"},{"mesh":5,"translation":[0.114857964,1.7417792,-0.44922608],"rotation":[-0.5,-0.5,0.50000006,0.49999994],"name":"3/8\" FHSCS_039"},{"mesh":5,"translation":[0.114857964,1.7417792,-0.6520207],"rotation":[-0.5,-0.5,0.50000006,0.49999994],"name":"3/8\" FHSCS_040"},{"mesh":5,"translation":[0.114857964,1.7417792,-0.728423],"rotation":[-0.5,-0.5,0.50000006,0.49999994],"name":"3/8\" FHSCS_041"},{"mesh":5,"translation":[0.21645641,1.7417792,-0.728423],"rotation":[-0.5,-0.5,0.50000006,0.49999994],"name":"3/8\" FHSCS_042"},{"mesh":5,"translation":[0.21645641,1.7417792,-0.6520207],"rotation":[-0.5,-0.5,0.50000006,0.49999994],"name":"3/8\" FHSCS_043"},{"mesh":6,"translation":[0.1656569,1.7779996,0.17503692],"name":"Tread Block_012"},{"mesh":7,"translation":[0.1656569,1.6641074,0.17164497],"rotation":[4.8301995E-08,-0.95504045,-0.29647553,-1.5559584E-07],"name":"Tread Support_012"},{"mesh":7,"translation":[0.1656569,0.7497075,1.5024987],"rotation":[4.8301995E-08,-0.95504045,-0.29647553,-1.5559584E-07],"name":"Tread Support_007"},{"mesh":7,"translation":[0.1656569,0.93258756,1.2363266],"rotation":[4.8301995E-08,-0.95504045,-0.29647553,-1.5559584E-07],"name":"Tread Support_008"},{"mesh":7,"translation":[0.1656569,1.1154675,0.9701567],"rotation":[4.8301995E-08,-0.95504045,-0.29647553,-1.5559584E-07],"name":"Tread Support_009"},{"mesh":7,"translation":[0.1656569,1.4812276,0.4378148],"rotation":[4.8301995E-08,-0.95504045,-0.29647553,-1.5559584E-07],"name":"Tread Support_011"},{"mesh":7,"translation":[0.1656569,1.2983475,0.70398456],"rotation":[4.8301995E-08,-0.95504045,-0.29647553,-1.5559584E-07],"name":"Tread Support_010"},{"mesh":8,"translation":[0.1656569,0.8635996,1.5058906],"name":"Tread Block_011"},{"mesh":9,"translation":[1.3449574,2.0116796,-0.55062455],"rotation":[-0.0,0.7071068,0.0,0.7071067],"name":"Stair Stringer_Upper"},{"mesh":10,"translation":[0.8956831,2.1437597,-0.5506245],"rotation":[-0.0,1.7484555E-07,0.0,1.0],"name":"Tread Block_002"},{"mesh":11,"translation":[0.8989915,2.029922,-0.55062455],"rotation":[0.2094599,-0.67537147,0.20945995,0.67537135],"name":"Tread Support_000"},{"mesh":11,"translation":[1.165466,2.212802,-0.55062455],"rotation":[0.2094599,-0.67537147,0.20945995,0.67537135],"name":"Tread Support_001"},{"mesh":11,"translation":[1.4319403,2.395682,-0.55062455],"rotation":[0.2094599,-0.67537147,0.20945995,0.67537135],"name":"Tread Support_002"},{"mesh":12,"translation":[1.6062078,2.4115884,-0.55062455],"rotation":[-0.0,-0.7071068,0.0,0.7071067],"name":"Header Plate"},{"mesh":13,"translation":[0.1656569,1.0464796,1.2397186],"name":"Tread Block_010"},{"mesh":14,"translation":[1.1621575,2.3266397,-0.5506245],"rotation":[-0.0,1.7484555E-07,0.0,1.0],"name":"Tread Block_001"},{"mesh":15,"translation":[1.428632,2.5095196,-0.5506245],"rotation":[-0.0,1.7484555E-07,0.0,1.0],"name":"Tread Block_003"},{"mesh":16,"translation":[0.30992717,1.7399057,0.19832242],"rotation":[-0.49999997,-0.5000001,0.50000006,0.49999997],"name":"3/8\" Lag Bolt_119"},{"mesh":16,"translation":[0.021384306,1.7399057,0.19832242],"rotation":[-0.49999997,-0.5000001,0.50000006,0.49999997],"name":"3/8\" Lag Bolt_118"},{"mesh":16,"translation":[0.051856864,1.7399057,0.19832242],"rotation":[-0.49999997,-0.5000001,0.50000006,0.49999997],"name":"3/8\" Lag Bolt_117"},{"mesh":16,"translation":[0.2794546,1.7399057,0.19832242],"rotation":[-0.49999997,-0.5000001,0.50000006,0.49999997],"name":"3/8\" Lag Bolt_116"},{"mesh":16,"translation":[0.30992717,1.7399057,0.09503571],"rotation":[-0.5000001,-0.49999997,-0.50000006,-0.49999997],"name":"3/8\" Lag Bolt_115"},{"mesh":16,"translation":[0.021384306,1.7399057,0.09503571],"rotation":[-0.5000001,-0.49999997,-0.50000006,-0.49999997],"name":"3/8\" Lag Bolt_114"},{"mesh":16,"translation":[0.06753033,1.7399057,0.09503571],"rotation":[-0.7071067,-0.7071068,1.9656746E-08,-6.18036E-08],"scale":[1.0,0.99999994,0.99999994],"name":"3/8\" Lag Bolt_113"},{"mesh":16,"translation":[0.26378113,1.7399057,0.09503571],"rotation":[4.0730175E-08,-4.0730175E-08,0.7071068,0.7071067],"scale":[1.0,0.99999994,0.99999994],"name":"3/8\" Lag Bolt_112"},{"mesh":16,"translation":[0.30992717,0.8255058,1.5291785],"rotation":[-0.49999997,-0.5000001,0.50000006,0.49999997],"name":"3/8\" Lag Bolt_111"},{"mesh":16,"translation":[0.021384306,0.8255058,1.5291785],"rotation":[-0.49999997,-0.5000001,0.50000006,0.49999997],"name":"3/8\" Lag Bolt_110"},{"mesh":16,"translation":[0.051856864,0.8255058,1.5291785],"rotation":[-0.49999997,-0.5000001,0.50000006,0.49999997],"name":"3/8\" Lag Bolt_109"},{"mesh":16,"translation":[0.2794546,0.8255058,1.5291785],"rotation":[-0.49999997,-0.5000001,0.50000006,0.49999997],"name":"3/8\" Lag Bolt_108"},{"mesh":16,"translation":[0.30992717,0.8255058,1.4258895],"rotation":[-0.5000001,-0.49999997,-0.50000006,-0.49999997],"name":"3/8\" Lag Bolt_107"},{"mesh":16,"translation":[0.021384306,0.8255058,1.4258895],"rotation":[-0.5000001,-0.49999997,-0.50000006,-0.49999997],"name":"3/8\" Lag Bolt_106"},{"mesh":16,"translation":[0.06753033,0.8255058,1.4258895],"rotation":[-0.7071067,-0.7071068,1.9656746E-08,-6.18036E-08],"scale":[1.0,0.99999994,0.99999994],"name":"3/8\" Lag Bolt_105"},{"mesh":16,"translation":[0.26378113,0.8255058,1.4258895],"rotation":[4.0730175E-08,-4.0730175E-08,0.7071068,0.7071067],"scale":[1.0,0.99999994,0.99999994],"name":"3/8\" Lag Bolt_104"},{"mesh":16,"translation":[0.30992717,1.0083858,1.2630063],"rotation":[-0.49999997,-0.5000001,0.50000006,0.49999997],"name":"3/8\" Lag Bolt_103"},{"mesh":16,"translation":[0.021384306,1.0083858,1.2630063],"rotation":[-0.49999997,-0.5000001,0.50000006,0.49999997],"name":"3/8\" Lag Bolt_102"},{"mesh":16,"translation":[0.051856864,1.0083858,1.2630063],"rotation":[-0.49999997,-0.5000001,0.50000006,0.49999997],"name":"3/8\" Lag Bolt_101"},{"mesh":16,"translation":[0.2794546,1.0083858,1.2630063],"rotation":[-0.49999997,-0.5000001,0.50000006,0.49999997],"name":"3/8\" Lag Bolt_100"},{"mesh":16,"translation":[0.30992717,1.0083858,1.1597196],"rotation":[-0.5000001,-0.49999997,-0.50000006,-0.49999997],"name":"3/8\" Lag Bolt_099"},{"mesh":16,"translation":[0.021384306,1.0083858,1.1597196],"rotation":[-0.5000001,-0.49999997,-0.50000006,-0.49999997],"name":"3/8\" Lag Bolt_098"},{"mesh":16,"translation":[0.06753033,1.0083858,1.1597196],"rotation":[-0.7071067,-0.7071068,1.9656746E-08,-6.18036E-08],"scale":[1.0,0.99999994,0.99999994],"name":"3/8\" Lag Bolt_097"},{"mesh":16,"translation":[0.26378113,1.0083858,1.1597196],"rotation":[4.0730175E-08,-4.0730175E-08,0.7071068,0.7071067],"scale":[1.0,0.99999994,0.99999994],"name":"3/8\" Lag Bolt_096"},{"mesh":16,"translation":[0.8724094,2.105666,-0.6948948],"rotation":[-0.7071068,-0.7071068,-2.6692543E-08,8.850979E-08],"name":"3/8\" Lag Bolt_087"},{"mesh":16,"translation":[0.8724094,2.105666,-0.40635195],"rotation":[-0.7071068,-0.7071068,-2.6692543E-08,8.850979E-08],"name":"3/8\" Lag Bolt_086"},{"mesh":16,"translation":[0.8724094,2.105666,-0.43684542],"rotation":[-0.7071068,-0.7071068,-2.6692543E-08,8.850979E-08],"name":"3/8\" Lag Bolt_085"},{"mesh":16,"translation":[0.8724094,2.105666,-0.6644013],"rotation":[-0.7071068,-0.7071068,-2.6692543E-08,8.850979E-08],"name":"3/8\" Lag Bolt_084"},{"mesh":16,"translation":[0.9756403,2.105666,-0.6948948],"rotation":[1.7227078E-15,1.7227078E-15,0.7071068,0.7071067],"name":"3/8\" Lag Bolt_083"},{"mesh":16,"translation":[0.9756403,2.105666,-0.40635195],"rotation":[1.7227078E-15,1.7227078E-15,0.7071068,0.7071067],"name":"3/8\" Lag Bolt_082"},{"mesh":16,"translation":[0.9756403,2.105666,-0.45249796],"rotation":[-0.5,-0.5,0.50000006,0.49999994],"name":"3/8\" Lag Bolt_081"},{"mesh":16,"translation":[0.9756403,2.105666,-0.64874876],"rotation":[0.5,0.5,0.50000006,0.49999994],"scale":[1.0,0.99999994,0.99999994],"name":"3/8\" Lag Bolt_080"},{"mesh":16,"translation":[1.1388838,2.2885458,-0.6948948],"rotation":[-0.7071068,-0.7071068,-2.6692543E-08,8.850979E-08],"name":"3/8\" Lag Bolt_079"},{"mesh":16,"translation":[1.1388838,2.2885458,-0.40635195],"rotation":[-0.7071068,-0.7071068,-2.6692543E-08,8.850979E-08],"name":"3/8\" Lag Bolt_078"},{"mesh":16,"translation":[1.1388838,2.2885458,-0.43684542],"rotation":[-0.7071068,-0.7071068,-2.6692543E-08,8.850979E-08],"name":"3/8\" Lag Bolt_077"},{"mesh":16,"translation":[1.1388838,2.2885458,-0.6644013],"rotation":[-0.7071068,-0.7071068,-2.6692543E-08,8.850979E-08],"name":"3/8\" Lag Bolt_076"},{"mesh":16,"translation":[1.2421148,2.2885458,-0.6948948],"rotation":[1.7227078E-15,1.7227078E-15,0.7071068,0.7071067],"name":"3/8\" Lag Bolt_075"},{"mesh":16,"translation":[1.2421148,2.2885458,-0.40635195],"rotation":[1.7227078E-15,1.7227078E-15,0.7071068,0.7071067],"name":"3/8\" Lag Bolt_074"},{"mesh":16,"translation":[1.2421148,2.2885458,-0.45249796],"rotation":[-0.5,-0.5,0.50000006,0.49999994],"name":"3/8\" Lag Bolt_073"},{"mesh":16,"translation":[1.2421148,2.2885458,-0.64874876],"rotation":[0.5,0.5,0.50000006,0.49999994],"scale":[1.0,0.99999994,0.99999994],"name":"3/8\" Lag Bolt_072"},{"mesh":16,"translation":[1.4053583,2.471426,-0.6948948],"rotation":[-0.7071068,-0.7071068,-2.6692543E-08,8.850979E-08],"name":"3/8\" Lag Bolt_071"},{"mesh":16,"translation":[1.4053583,2.471426,-0.40635195],"rotation":[-0.7071068,-0.7071068,-2.6692543E-08,8.850979E-08],"name":"3/8\" Lag Bolt_070"},{"mesh":16,"translation":[1.4053583,2.471426,-0.43684542],"rotation":[-0.7071068,-0.7071068,-2.6692543E-08,8.850979E-08],"name":"3/8\" Lag Bolt_069"},{"mesh":16,"translation":[1.4053583,2.471426,-0.6644013],"rotation":[-0.7071068,-0.7071068,-2.6692543E-08,8.850979E-08],"name":"3/8\" Lag Bolt_068"},{"mesh":16,"translation":[1.5085891,2.471426,-0.6948948],"rotation":[1.7227078E-15,1.7227078E-15,0.7071068,0.7071067],"name":"3/8\" Lag Bolt_067"},{"mesh":16,"translation":[1.5085891,2.471426,-0.40635195],"rotation":[1.7227078E-15,1.7227078E-15,0.7071068,0.7071067],"name":"3/8\" Lag Bolt_066"},{"mesh":16,"translation":[1.5085891,2.471426,-0.45249796],"rotation":[-0.5,-0.5,0.50000006,0.49999994],"name":"3/8\" Lag Bolt_065"},{"mesh":16,"translation":[1.5085891,2.471426,-0.64874876],"rotation":[0.5,0.5,0.50000006,0.49999994],"scale":[1.0,0.99999994,0.99999994],"name":"3/8\" Lag Bolt_064"},{"mesh":16,"translation":[0.30992717,1.1912658,0.9968365],"rotation":[-0.49999997,-0.5000001,0.50000006,0.49999997],"name":"3/8\" Lag Bolt_063"},{"mesh":16,"translation":[0.021384306,1.1912658,0.9968365],"rotation":[-0.49999997,-0.5000001,0.50000006,0.49999997],"name":"3/8\" Lag Bolt_062"},{"mesh":16,"translation":[0.051856864,1.1912658,0.9968365],"rotation":[-0.49999997,-0.5000001,0.50000006,0.49999997],"name":"3/8\" Lag Bolt_061"},{"mesh":16,"translation":[0.2794546,1.1912658,0.9968365],"rotation":[-0.49999997,-0.5000001,0.50000006,0.49999997],"name":"3/8\" Lag Bolt_060"},{"mesh":16,"translation":[0.30992717,1.1912658,0.8935474],"rotation":[-0.5000001,-0.49999997,-0.50000006,-0.49999997],"name":"3/8\" Lag Bolt_059"},{"mesh":16,"translation":[0.021384306,1.1912658,0.8935474],"rotation":[-0.5000001,-0.49999997,-0.50000006,-0.49999997],"name":"3/8\" Lag Bolt_058"},{"mesh":16,"translation":[0.06753033,1.1912658,0.8935474],"rotation":[-0.7071067,-0.7071068,1.9656746E-08,-6.18036E-08],"scale":[1.0,0.99999994,0.99999994],"name":"3/8\" Lag Bolt_057"},{"mesh":16,"translation":[0.26378113,1.1912658,0.8935474],"rotation":[4.0730175E-08,-4.0730175E-08,0.7071068,0.7071067],"scale":[1.0,0.99999994,0.99999994],"name":"3/8\" Lag Bolt_056"},{"mesh":16,"translation":[0.30992717,1.5570258,0.4644946],"rotation":[-0.49999997,-0.5000001,0.50000006,0.49999997],"name":"3/8\" Lag Bolt_039"},{"mesh":16,"translation":[0.021384306,1.5570258,0.4644946],"rotation":[-0.49999997,-0.5000001,0.50000006,0.49999997],"name":"3/8\" Lag Bolt_038"},{"mesh":16,"translation":[0.051856864,1.5570258,0.4644946],"rotation":[-0.49999997,-0.5000001,0.50000006,0.49999997],"name":"3/8\" Lag Bolt_037"},{"mesh":16,"translation":[0.2794546,1.5570258,0.4644946],"rotation":[-0.49999997,-0.5000001,0.50000006,0.49999997],"name":"3/8\" Lag Bolt_036"},{"mesh":16,"translation":[0.30992717,1.5570258,0.36120555],"rotation":[-0.5000001,-0.49999997,-0.50000006,-0.49999997],"name":"3/8\" Lag Bolt_035"},{"mesh":16,"translation":[0.021384306,1.5570258,0.36120555],"rotation":[-0.5000001,-0.49999997,-0.50000006,-0.49999997],"name":"3/8\" Lag Bolt_034"},{"mesh":16,"translation":[0.06753033,1.5570258,0.36120555],"rotation":[-0.7071067,-0.7071068,1.9656746E-08,-6.18036E-08],"scale":[1.0,0.99999994,0.99999994],"name":"3/8\" Lag Bolt_033"},{"mesh":16,"translation":[0.26378113,1.5570258,0.36120555],"rotation":[4.0730175E-08,-4.0730175E-08,0.7071068,0.7071067],"scale":[1.0,0.99999994,0.99999994],"name":"3/8\" Lag Bolt_032"},{"mesh":16,"translation":[0.30992717,1.3741457,0.7306644],"rotation":[-0.49999997,-0.5000001,0.50000006,0.49999997],"name":"3/8\" Lag Bolt_031"},{"mesh":16,"translation":[0.021384306,1.3741457,0.7306644],"rotation":[-0.49999997,-0.5000001,0.50000006,0.49999997],"name":"3/8\" Lag Bolt_030"},{"mesh":16,"translation":[0.051856864,1.3741457,0.7306644],"rotation":[-0.49999997,-0.5000001,0.50000006,0.49999997],"name":"3/8\" Lag Bolt_029"},{"mesh":16,"translation":[0.2794546,1.3741457,0.7306644],"rotation":[-0.49999997,-0.5000001,0.50000006,0.49999997],"name":"3/8\" Lag Bolt_028"},{"mesh":16,"translation":[0.30992717,1.3741457,0.6273776],"rotation":[-0.5000001,-0.49999997,-0.50000006,-0.49999997],"name":"3/8\" Lag Bolt_027"},{"mesh":16,"translation":[0.021384306,1.3741457,0.6273776],"rotation":[-0.5000001,-0.49999997,-0.50000006,-0.49999997],"name":"3/8\" Lag Bolt_026"},{"mesh":16,"translation":[0.06753033,1.3741457,0.6273776],"rotation":[-0.7071067,-0.7071068,1.9656746E-08,-6.18036E-08],"scale":[1.0,0.99999994,0.99999994],"name":"3/8\" Lag Bolt_025"},{"mesh":16,"translation":[0.26378113,1.3741457,0.6273776],"rotation":[4.0730175E-08,-4.0730175E-08,0.7071068,0.7071067],"scale":[1.0,0.99999994,0.99999994],"name":"3/8\" Lag Bolt_024"},{"mesh":16,"translation":[0.03865796,0.009713924,-0.423623],"rotation":[-0.5,0.5,0.5,-0.5],"scale":[1.0,0.99999994,0.99999994],"name":"3/8\" Lag Bolt_015"},{"mesh":16,"translation":[0.29265642,0.009713924,-0.423623],"rotation":[-0.5,0.5,0.5,-0.5],"scale":[1.0,0.99999994,0.99999994],"name":"3/8\" Lag Bolt_014"},{"mesh":16,"translation":[0.16565719,0.009713924,-0.423623],"rotation":[-0.5,0.5,0.5,-0.5],"scale":[1.0,0.99999994,0.99999994],"name":"3/8\" Lag Bolt_013"},{"mesh":16,"translation":[0.29265642,0.009713924,-0.55062455],"rotation":[-0.5,0.5,0.5,-0.5],"scale":[1.0,0.99999994,0.99999994],"name":"3/8\" Lag Bolt_012"},{"mesh":16,"translation":[0.03865796,0.009713924,-0.55062455],"rotation":[-0.5,0.5,0.5,-0.5],"scale":[1.0,0.99999994,0.99999994],"name":"3/8\" Lag Bolt_011"},{"mesh":16,"translation":[0.03865796,0.009713924,-0.67762375],"rotation":[-0.5,0.5,0.5,-0.5],"scale":[1.0,0.99999994,0.99999994],"name":"3/8\" Lag Bolt_010"},{"mesh":16,"translation":[0.16565719,0.009713924,-0.67762375],"rotation":[-0.5,0.5,0.5,-0.5],"scale":[1.0,0.99999994,0.99999994],"name":"3/8\" Lag Bolt_009"},{"mesh":16,"translation":[0.29265642,0.009713924,-0.67762375],"rotation":[-0.5,0.5,0.5,-0.5],"scale":[1.0,0.99999994,0.99999994],"name":"3/8\" Lag Bolt_008"},{"mesh":17,"translation":[1.6062078,2.4115884,-0.55062455],"rotation":[-0.0,-0.7071068,0.0,0.7071067],"name":"Header Plate Cover"},{"mesh":18,"translation":[0.1656569,1.2293596,0.97354865],"name":"Tread Block_009"},{"mesh":19,"translation":[0.1656569,1.5951195,0.44120675],"name":"Tread Block_008"},{"mesh":20,"translation":[0.1656569,1.4122397,0.70737654],"name":"Tread Block_013"},{"mesh":21,"translation":[0.16565719,0.7410446,-0.55062455],"rotation":[0.5,0.5,0.50000006,0.49999994],"scale":[1.0,0.99999994,0.99999994],"name":"Column Tube"},{"mesh":22,"translation":[0.16565719,0.00018892379,-0.55062455],"rotation":[-0.0,-1.0,0.0,-4.371139E-08],"name":"Column Footer Plate"},{"mesh":23,"translation":[0.16565719,1.7417792,-0.55062455],"rotation":[-0.0,0.7071068,0.0,0.7071067],"name":"Column to Stringer Plate"},{"mesh":24,"translation":[1.3056384,2.466539,-0.55062425],"name":"Tread LED_045"},{"mesh":24,"translation":[1.039165,2.2836592,-0.55062425],"name":"Tread LED_046"},{"mesh":24,"translation":[0.77269167,2.1007793,-0.55062425],"name":"Tread LED_047"},{"mesh":24,"translation":[0.1656098,1.917898,0.02541437],"rotation":[-0.0,-0.7071068,0.0,0.7071067],"name":"Tread LED_048"},{"mesh":24,"translation":[0.1656098,1.7350179,0.29803583],"rotation":[-0.0,-0.7071068,0.0,0.7071067],"name":"Tread LED_049"},{"mesh":24,"translation":[0.1656098,1.552138,0.56420565],"rotation":[-0.0,-0.7071068,0.0,0.7071067],"name":"Tread LED_050"},{"mesh":24,"translation":[0.1656098,1.369258,0.83037543],"rotation":[-0.0,-0.7071068,0.0,0.7071067],"name":"Tread LED_051"},{"mesh":24,"translation":[0.1656098,1.186378,1.0965452],"rotation":[-0.0,-0.7071068,0.0,0.7071067],"name":"Tread LED_052"},{"mesh":24,"translation":[0.1656098,1.003498,1.3627151],"rotation":[-0.0,-0.7071068,0.0,0.7071067],"name":"Tread LED_053"},{"mesh":24,"translation":[0.16572855,0.8208102,1.6302807],"rotation":[-0.0,0.7071068,0.0,0.7071067],"name":"Tread LED_035"},{"mesh":24,"translation":[0.74176663,0.63792896,2.2373624],"name":"Tread LED_021"},{"mesh":24,"translation":[1.0143883,0.4550488,2.2373624],"name":"Tread LED_022"},{"mesh":24,"translation":[1.2805582,0.27216884,2.2373624],"name":"Tread LED_023"},{"mesh":24,"translation":[1.5467279,0.08928886,2.2373624],"name":"Tread LED_024"},{"mesh":25,"translation":[-0.23507127,0.6221603,2.3706658],"rotation":[-0.7071067,-0.7071068,-4.073017E-08,4.0730168E-08],"scale":[1.0,0.99999994,0.99999994],"name":"1/2\" Lag Bolt_040"},{"mesh":25,"translation":[-0.13347064,0.6221603,2.3706658],"rotation":[-0.7071067,-0.7071068,-4.073017E-08,4.0730168E-08],"scale":[1.0,0.99999994,0.99999994],"name":"1/2\" Lag Bolt_041"},{"mesh":25,"translation":[-0.13347064,0.6221603,2.3325658],"rotation":[-0.7071067,-0.7071068,-4.073017E-08,4.0730168E-08],"scale":[1.0,0.99999994,0.99999994],"name":"1/2\" Lag Bolt_042"},{"mesh":25,"translation":[-0.23507127,0.6221603,2.3325658],"rotation":[-0.7071067,-0.7071068,-4.073017E-08,4.0730168E-08],"scale":[1.0,0.99999994,0.99999994],"name":"1/2\" Lag Bolt_043"},{"mesh":25,"translation":[-0.23507127,0.6221603,2.1420658],"rotation":[-0.7071067,-0.7071068,-4.073017E-08,4.0730168E-08],"scale":[1.0,0.99999994,0.99999994],"name":"1/2\" Lag Bolt_044"},{"mesh":25,"translation":[-0.23507127,0.6221603,2.1039658],"rotation":[-0.7071067,-0.7071068,-4.073017E-08,4.0730168E-08],"scale":[1.0,0.99999994,0.99999994],"name":"1/2\" Lag Bolt_045"},{"mesh":25,"translation":[-0.13347064,0.6221603,2.1420658],"rotation":[-0.7071067,-0.7071068,-4.073017E-08,4.0730168E-08],"scale":[1.0,0.99999994,0.99999994],"name":"1/2\" Lag Bolt_046"},{"mesh":25,"translation":[-0.13347064,0.6221603,2.1039658],"rotation":[-0.7071067,-0.7071068,-4.073017E-08,4.0730168E-08],"scale":[1.0,0.99999994,0.99999994],"name":"1/2\" Lag Bolt_047"},{"mesh":25,"translation":[0.032377966,0.6221603,1.9325157],"rotation":[-0.49999997,-0.5000001,-0.50000006,-0.49999997],"name":"1/2\" Lag Bolt_048"},{"mesh":25,"translation":[0.032377966,0.6221603,2.0341165],"rotation":[-0.49999997,-0.5000001,-0.50000006,-0.49999997],"name":"1/2\" Lag Bolt_049"},{"mesh":25,"translation":[0.07047797,0.6221603,2.0341165],"rotation":[-0.49999997,-0.5000001,-0.50000006,-0.49999997],"name":"1/2\" Lag Bolt_050"},{"mesh":25,"translation":[0.07047797,0.6221603,1.9325157],"rotation":[-0.49999997,-0.5000001,-0.50000006,-0.49999997],"name":"1/2\" Lag Bolt_051"},{"mesh":25,"translation":[0.26097798,0.6221603,1.9325157],"rotation":[-0.49999997,-0.5000001,-0.50000006,-0.49999997],"name":"1/2\" Lag Bolt_052"},{"mesh":25,"translation":[0.29907796,0.6221603,1.9325157],"rotation":[-0.49999997,-0.5000001,-0.50000006,-0.49999997],"name":"1/2\" Lag Bolt_053"},{"mesh":25,"translation":[0.26097798,0.6221603,2.0341165],"rotation":[-0.49999997,-0.5000001,-0.50000006,-0.49999997],"name":"1/2\" Lag Bolt_054"},{"mesh":25,"translation":[0.29907796,0.6221603,2.0341165],"rotation":[-0.49999997,-0.5000001,-0.50000006,-0.49999997],"name":"1/2\" Lag Bolt_055"},{"mesh":25,"translation":[0.4664671,0.6221603,2.3706658],"rotation":[-0.0,-0.0,0.7071068,0.7071067],"name":"1/2\" Lag Bolt_056"},{"mesh":25,"translation":[0.3648664,0.6221603,2.3706658],"rotation":[-0.0,-0.0,0.7071068,0.7071067],"name":"1/2\" Lag Bolt_057"},{"mesh":25,"translation":[0.3648664,0.6221603,2.3325658],"rotation":[-0.0,-0.0,0.7071068,0.7071067],"name":"1/2\" Lag Bolt_058"},{"mesh":25,"translation":[0.4664671,0.6221603,2.3325658],"rotation":[-0.0,-0.0,0.7071068,0.7071067],"name":"1/2\" Lag Bolt_059"},{"mesh":25,"translation":[0.46646714,0.6221603,2.1420658],"rotation":[-0.0,-0.0,0.7071068,0.7071067],"name":"1/2\" Lag Bolt_060"},{"mesh":25,"translation":[0.46646714,0.6221603,2.1039658],"rotation":[-0.0,-0.0,0.7071068,0.7071067],"name":"1/2\" Lag Bolt_061"},{"mesh":25,"translation":[0.3648664,0.6221603,2.1420658],"rotation":[-0.0,-0.0,0.7071068,0.7071067],"name":"1/2\" Lag Bolt_062"},{"mesh":25,"translation":[0.3648664,0.6221603,2.1039658],"rotation":[-0.0,-0.0,0.7071068,0.7071067],"name":"1/2\" Lag Bolt_063"},{"mesh":26,"translation":[0.26732874,0.49516022,2.1547651],"rotation":[2.4436881E-15,-0.7071068,-2.3558665E-15,0.7071067],"name":"3/8\" FHSCS_044"},{"mesh":26,"translation":[0.26732874,0.5967603,2.1547651],"rotation":[2.4436881E-15,-0.7071068,-2.3558665E-15,0.7071067],"name":"3/8\" FHSCS_045"},{"mesh":26,"translation":[0.06412952,0.49516022,2.1547651],"rotation":[2.4436881E-15,-0.7071068,-2.3558665E-15,0.7071067],"name":"3/8\" FHSCS_046"},{"mesh":26,"translation":[0.06412952,0.5967603,2.1547651],"rotation":[2.4436881E-15,-0.7071068,-2.3558665E-15,0.7071067],"name":"3/8\" FHSCS_047"},{"mesh":26,"translation":[0.26712644,0.46181008,2.1865165],"rotation":[1.4166681E-09,8.287703E-08,0.7071068,0.7071067],"name":"3/8\" FHSCS_054"},{"mesh":26,"translation":[0.34352875,0.46181008,2.1865165],"rotation":[1.4166681E-09,8.287703E-08,0.7071068,0.7071067],"name":"3/8\" FHSCS_055"},{"mesh":26,"translation":[0.34352875,0.46181008,2.288115],"rotation":[1.4166681E-09,8.287703E-08,0.7071068,0.7071067],"name":"3/8\" FHSCS_056"},{"mesh":26,"translation":[0.26712644,0.46181008,2.288115],"rotation":[1.4166681E-09,8.287703E-08,0.7071068,0.7071067],"name":"3/8\" FHSCS_057"},{"mesh":26,"translation":[0.06433183,0.46181008,2.288115],"rotation":[1.4166681E-09,8.287703E-08,0.7071068,0.7071067],"name":"3/8\" FHSCS_058"},{"mesh":26,"translation":[-0.012070484,0.46181008,2.288115],"rotation":[1.4166681E-09,8.287703E-08,0.7071068,0.7071067],"name":"3/8\" FHSCS_059"},{"mesh":26,"translation":[-0.012070484,0.46181008,2.1865165],"rotation":[1.4166681E-09,8.287703E-08,0.7071068,0.7071067],"name":"3/8\" FHSCS_060"},{"mesh":26,"translation":[0.06433183,0.46181008,2.1865165],"rotation":[1.4166681E-09,8.287703E-08,0.7071068,0.7071067],"name":"3/8\" FHSCS_061"},{"mesh":27,"translation":[1.1717942,0.012888948,2.3643174],"rotation":[-0.5,0.5,0.5,-0.5],"name":"3/8\" Lag Bolt_120"},{"mesh":27,"translation":[1.3178434,0.012888948,2.3643174],"rotation":[-0.5,0.5,0.5,-0.5],"name":"3/8\" Lag Bolt_121"},{"mesh":27,"translation":[1.463895,0.012888948,2.3643174],"rotation":[-0.5,0.5,0.5,-0.5],"name":"3/8\" Lag Bolt_122"},{"mesh":27,"translation":[1.463895,0.012888948,2.237316],"rotation":[-0.5,0.5,0.5,-0.5],"name":"3/8\" Lag Bolt_123"},{"mesh":27,"translation":[1.463895,0.012888948,2.1103165],"rotation":[-0.5,0.5,0.5,-0.5],"name":"3/8\" Lag Bolt_124"},{"mesh":27,"translation":[1.3178434,0.012888948,2.1103165],"rotation":[-0.5,0.5,0.5,-0.5],"name":"3/8\" Lag Bolt_125"},{"mesh":27,"translation":[1.1717942,0.012888948,2.1103165],"rotation":[-0.5,0.5,0.5,-0.5],"name":"3/8\" Lag Bolt_126"},{"mesh":27,"translation":[0.03872874,0.00971396,2.1103165],"rotation":[1.0927849E-08,1.0927848E-08,-0.7071068,0.7071068],"scale":[1.0,0.99999994,0.99999994],"name":"3/8\" Lag Bolt_127"},{"mesh":27,"translation":[0.03872874,0.00971396,2.237316],"rotation":[1.0927849E-08,1.0927848E-08,-0.7071068,0.7071068],"scale":[1.0,0.99999994,0.99999994],"name":"3/8\" Lag Bolt_128"},{"mesh":27,"translation":[0.03872874,0.00971396,2.364315],"rotation":[1.0927849E-08,1.0927848E-08,-0.7071068,0.7071068],"scale":[1.0,0.99999994,0.99999994],"name":"3/8\" Lag Bolt_129"},{"mesh":27,"translation":[0.16572797,0.00971396,2.364315],"rotation":[1.0927849E-08,1.0927848E-08,-0.7071068,0.7071068],"scale":[1.0,0.99999994,0.99999994],"name":"3/8\" Lag Bolt_130"},{"mesh":27,"translation":[0.16572797,0.00971396,2.1103165],"rotation":[1.0927849E-08,1.0927848E-08,-0.7071068,0.7071068],"scale":[1.0,0.99999994,0.99999994],"name":"3/8\" Lag Bolt_131"},{"mesh":27,"translation":[0.29272953,0.00971396,2.237316],"rotation":[1.0927849E-08,1.0927848E-08,-0.7071068,0.7071068],"scale":[1.0,0.99999994,0.99999994],"name":"3/8\" Lag Bolt_132"},{"mesh":27,"translation":[0.29272953,0.00971396,2.1103165],"rotation":[1.0927849E-08,1.0927848E-08,-0.7071068,0.7071068],"scale":[1.0,0.99999994,0.99999994],"name":"3/8\" Lag Bolt_133"},{"mesh":27,"translation":[0.29272953,0.00971396,2.364315],"rotation":[1.0927849E-08,1.0927848E-08,-0.7071068,0.7071068],"scale":[1.0,0.99999994,0.99999994],"name":"3/8\" Lag Bolt_134"},{"mesh":27,"translation":[1.3437297,0.09417665,2.1391916],"rotation":[0.5,0.5,0.50000006,0.49999994],"scale":[1.0,0.99999994,0.99999994],"name":"3/8\" Lag Bolt_143"},{"mesh":27,"translation":[1.3437297,0.09417665,2.3354423],"rotation":[-0.5,-0.5,0.50000006,0.49999994],"name":"3/8\" Lag Bolt_144"},{"mesh":27,"translation":[1.3437297,0.09417665,2.3815885],"rotation":[-0.7071068,-0.7071068,-2.6692543E-08,8.850979E-08],"name":"3/8\" Lag Bolt_145"},{"mesh":27,"translation":[1.3437297,0.09417665,2.0930455],"rotation":[-0.7071068,-0.7071068,-2.6692543E-08,8.850979E-08],"name":"3/8\" Lag Bolt_146"},{"mesh":27,"translation":[1.4470165,0.09417665,2.123518],"rotation":[-0.0,-0.0,0.7071068,0.7071067],"name":"3/8\" Lag Bolt_147"},{"mesh":27,"translation":[1.4470165,0.09417665,2.3511157],"rotation":[-0.0,-0.0,0.7071068,0.7071067],"name":"3/8\" Lag Bolt_148"},{"mesh":27,"translation":[1.4470165,0.09417665,2.3815885],"rotation":[-0.0,-0.0,0.7071068,0.7071067],"name":"3/8\" Lag Bolt_149"},{"mesh":27,"translation":[1.4470165,0.09417665,2.0930455],"rotation":[-0.0,-0.0,0.7071068,0.7071067],"name":"3/8\" Lag Bolt_150"},{"mesh":27,"translation":[1.0775577,0.27705663,2.1391916],"rotation":[0.5,0.5,0.50000006,0.49999994],"scale":[1.0,0.99999994,0.99999994],"name":"3/8\" Lag Bolt_151"},{"mesh":27,"translation":[1.0775577,0.27705663,2.3354423],"rotation":[-0.5,-0.5,0.50000006,0.49999994],"name":"3/8\" Lag Bolt_152"},{"mesh":27,"translation":[1.0775577,0.27705663,2.3815885],"rotation":[-0.7071068,-0.7071068,-2.6692543E-08,8.850979E-08],"name":"3/8\" Lag Bolt_153"},{"mesh":27,"translation":[1.0775577,0.27705663,2.0930455],"rotation":[-0.7071068,-0.7071068,-2.6692543E-08,8.850979E-08],"name":"3/8\" Lag Bolt_154"},{"mesh":27,"translation":[1.1808468,0.27705663,2.123518],"rotation":[-0.0,-0.0,0.7071068,0.7071067],"name":"3/8\" Lag Bolt_155"},{"mesh":27,"translation":[1.1808468,0.27705663,2.3511157],"rotation":[-0.0,-0.0,0.7071068,0.7071067],"name":"3/8\" Lag Bolt_156"},{"mesh":27,"translation":[1.1808468,0.27705663,2.3815885],"rotation":[-0.0,-0.0,0.7071068,0.7071067],"name":"3/8\" Lag Bolt_157"},{"mesh":27,"translation":[1.1808468,0.27705663,2.0930455],"rotation":[-0.0,-0.0,0.7071068,0.7071067],"name":"3/8\" Lag Bolt_158"},{"mesh":27,"translation":[0.8113879,0.45993665,2.1391916],"rotation":[0.5,0.5,0.50000006,0.49999994],"scale":[1.0,0.99999994,0.99999994],"name":"3/8\" Lag Bolt_231"},{"mesh":27,"translation":[0.8113879,0.45993665,2.3354423],"rotation":[-0.5,-0.5,0.50000006,0.49999994],"name":"3/8\" Lag Bolt_232"},{"mesh":27,"translation":[0.8113879,0.45993665,2.3815885],"rotation":[-0.7071068,-0.7071068,-2.6692543E-08,8.850979E-08],"name":"3/8\" Lag Bolt_233"},{"mesh":27,"translation":[0.8113879,0.45993665,2.0930455],"rotation":[-0.7071068,-0.7071068,-2.6692543E-08,8.850979E-08],"name":"3/8\" Lag Bolt_234"},{"mesh":27,"translation":[0.91467464,0.45993665,2.123518],"rotation":[-0.0,-0.0,0.7071068,0.7071067],"name":"3/8\" Lag Bolt_235"},{"mesh":27,"translation":[0.91467464,0.45993665,2.3511157],"rotation":[-0.0,-0.0,0.7071068,0.7071067],"name":"3/8\" Lag Bolt_236"},{"mesh":27,"translation":[0.91467464,0.45993665,2.3815885],"rotation":[-0.0,-0.0,0.7071068,0.7071067],"name":"3/8\" Lag Bolt_237"},{"mesh":27,"translation":[0.91467464,0.45993665,2.0930455],"rotation":[-0.0,-0.0,0.7071068,0.7071067],"name":"3/8\" Lag Bolt_238"},{"mesh":28,"translation":[0.16572797,0.00018896013,2.237316],"rotation":[-0.0,-0.7071068,0.0,0.7071067],"name":"Column Footer Plate001"},{"mesh":29,"translation":[0.16572797,0.00971396,2.237316],"rotation":[-0.7071067,-0.7071068,-4.073017E-08,4.0730168E-08],"scale":[1.0,0.99999994,0.99999994],"name":"Column Tube001"},{"mesh":30,"translation":[0.16572797,0.46181008,2.237316],"rotation":[-0.0,-1.0,0.0,4.371139E-08],"name":"Column to Stringer Plate001"},{"mesh":31,"translation":[1.2851547,0.00018896013,2.237316],"rotation":[-0.0,-0.7071069,0.0,0.70710665],"name":"Footer Plate001"},{"mesh":32,"translation":[-0.4438719,0.73171043,1.6277158],"rotation":[-0.0,-5.9604645E-08,0.0,1.0],"name":"Landing002"},{"mesh":33,"translation":[-0.18427204,0.6221603,2.237316],"rotation":[-0.0,-0.7071068,0.0,0.7071067],"name":"Landing Attachment_005"},{"mesh":33,"translation":[0.16572797,0.6221603,1.983315],"rotation":[-0.0,-1.0,0.0,4.371139E-08],"name":"Landing Attachment_006"},{"mesh":33,"translation":[0.41566792,0.6221603,2.237316],"rotation":[-0.0,-0.7071069,0.0,0.70710665],"name":"Landing Attachment_007"},{"mesh":34,"translation":[0.16569245,1.1859448,0.5891472],"rotation":[-0.0,8.742278E-08,0.0,1.0],"name":"Stair Stringer_Upper001"},{"mesh":35,"translation":[0.16572797,0.54596025,2.1547651],"rotation":[-0.0,-5.9604645E-08,0.0,1.0],"name":"Stringer Attachment_002"},{"mesh":36,"translation":[-0.2671379,0.54596025,2.237316],"rotation":[-0.0,-0.7071068,0.0,0.7071067],"name":"Stringer End Cap_001"},{"mesh":37,"translation":[1.1575594,0.31515044,2.237316],"name":"Tread Block_085"},{"mesh":38,"translation":[0.89138967,0.4980304,2.237316],"name":"Tread Block_089"},{"mesh":39,"translation":[1.4237293,0.13227047,2.237316],"name":"Tread Block_090"},{"mesh":40,"translation":[1.4203367,0.018378403,2.237316],"rotation":[-0.20963983,-0.67531574,-0.2096399,0.6753155],"name":"Tread Support_023"},{"mesh":40,"translation":[1.1541669,0.2012584,2.237316],"rotation":[-0.20963983,-0.67531574,-0.2096399,0.6753155],"name":"Tread Support_024"},{"mesh":40,"translation":[0.8879972,0.38413838,2.237316],"rotation":[-0.20963983,-0.67531574,-0.2096399,0.6753155],"name":"Tread Support_025"},{"mesh":41,"translation":[2.0412662,-0.5484496,2.237316],"rotation":[-0.0,0.7071068,0.0,0.7071067],"name":"Stair Stringer_Lower002"},{"mesh":42,"translation":[0.16563506,1.8005294,-1.520227],"name":"Stringer to Wall-Wood Blocking Part [7641775]"},{"mesh":43,"translation":[0.2926589,1.8005306,-1.5119048],"name":"5/8\" Lag_017"},{"mesh":44,"translation":[0.2926589,1.7243305,-1.5119048],"name":"5/8\" Lag_018"},{"mesh":45,"translation":[0.2926589,1.8767306,-1.5119048],"name":"5/8\" Lag_019"},{"mesh":46,"translation":[0.038660437,1.8767306,-1.5119048],"name":"5/8\" Lag_020"},{"mesh":47,"translation":[0.038660437,1.8005306,-1.5119048],"name":"5/8\" Lag_021"},{"mesh":48,"translation":[0.038660437,1.7243305,-1.5119048],"name":"5/8\" Lag_022"},{"mesh":49,"translation":[0.16566199,1.7243305,-1.5119048],"name":"5/8\" Lag_023"},{"translation":[0.7727853,2.1004438,-0.550623],"rotation":[-0.70710677,-0.0,0.0,0.70710677],"name":"Tread LED_Light_000","extensions":{"KHR_lights_punctual":{"light":0}}},{"translation":[0.1656569,1.7347069,0.29803583],"rotation":[-0.49999994,-0.5,-0.5,0.49999994],"name":"Tread LED_Light_029","extensions":{"KHR_lights_punctual":{"light":1}}},{"translation":[0.16565733,1.551827,0.56420565],"rotation":[-0.49999994,-0.5,-0.5,0.49999994],"name":"Tread LED_Light_009","extensions":{"KHR_lights_punctual":{"light":2}}},{"translation":[0.16565733,1.368947,0.83037543],"rotation":[-0.49999994,-0.5,-0.5,0.49999994],"name":"Tread LED_Light_010","extensions":{"KHR_lights_punctual":{"light":3}}},{"translation":[0.16565733,1.186067,1.0965452],"rotation":[-0.49999994,-0.5,-0.5,0.49999994],"name":"Tread LED_Light_011","extensions":{"KHR_lights_punctual":{"light":4}}},{"translation":[0.1656569,1.9175869,0.025403032],"rotation":[-0.49999994,-0.5,-0.5,0.49999994],"name":"Tread LED_Light_012","extensions":{"KHR_lights_punctual":{"light":5}}},{"translation":[0.47045693,1.9175869,0.025403032],"rotation":[-0.49999994,-0.5,-0.5,0.49999994],"name":"Tread LED_Light_013","extensions":{"KHR_lights_punctual":{"light":6}}},{"translation":[0.4704574,1.186067,1.0965452],"rotation":[-0.49999994,-0.5,-0.5,0.49999994],"name":"Tread LED_Light_014","extensions":{"KHR_lights_punctual":{"light":7}}},{"translation":[0.4704574,1.368947,0.83037543],"rotation":[-0.49999994,-0.5,-0.5,0.49999994],"name":"Tread LED_Light_015","extensions":{"KHR_lights_punctual":{"light":8}}},{"translation":[0.4704574,1.551827,0.56420565],"rotation":[-0.49999994,-0.5,-0.5,0.49999994],"name":"Tread LED_Light_016","extensions":{"KHR_lights_punctual":{"light":9}}},{"translation":[0.47045693,1.7347069,0.29803583],"rotation":[-0.49999994,-0.5,-0.5,0.49999994],"name":"Tread LED_Light_017","extensions":{"KHR_lights_punctual":{"light":10}}},{"translation":[0.7727746,2.1004438,-0.85542303],"rotation":[-0.70710677,-0.0,0.0,0.70710677],"name":"Tread LED_Light_001","extensions":{"KHR_lights_punctual":{"light":11}}},{"translation":[-0.13914311,1.9175869,0.025403032],"rotation":[-0.49999994,-0.5,-0.5,0.49999994],"name":"Tread LED_Light_018","extensions":{"KHR_lights_punctual":{"light":12}}},{"translation":[-0.13914265,1.186067,1.0965452],"rotation":[-0.49999994,-0.5,-0.5,0.49999994],"name":"Tread LED_Light_019","extensions":{"KHR_lights_punctual":{"light":13}}},{"translation":[-0.13914265,1.368947,0.83037543],"rotation":[-0.49999994,-0.5,-0.5,0.49999994],"name":"Tread LED_Light_020","extensions":{"KHR_lights_punctual":{"light":14}}},{"translation":[-0.13914265,1.551827,0.56420565],"rotation":[-0.49999994,-0.5,-0.5,0.49999994],"name":"Tread LED_Light_021","extensions":{"KHR_lights_punctual":{"light":15}}},{"translation":[-0.13914311,1.7347069,0.29803583],"rotation":[-0.49999994,-0.5,-0.5,0.49999994],"name":"Tread LED_Light_022","extensions":{"KHR_lights_punctual":{"light":16}}},{"translation":[0.7727853,2.1004438,-0.24582301],"rotation":[-0.70710677,-0.0,0.0,0.70710677],"name":"Tread LED_Light_002","extensions":{"KHR_lights_punctual":{"light":17}}},{"translation":[1.0392587,2.2833238,-0.550623],"rotation":[-0.70710677,-0.0,0.0,0.70710677],"name":"Tread LED_Light_003","extensions":{"KHR_lights_punctual":{"light":18}}},{"translation":[1.039248,2.2833238,-0.85542303],"rotation":[-0.70710677,-0.0,0.0,0.70710677],"name":"Tread LED_Light_004","extensions":{"KHR_lights_punctual":{"light":19}}},{"translation":[1.0392587,2.2833238,-0.24582301],"rotation":[-0.70710677,-0.0,0.0,0.70710677],"name":"Tread LED_Light_005","extensions":{"KHR_lights_punctual":{"light":20}}},{"translation":[1.3057323,2.4662035,-0.550623],"rotation":[-0.70710677,-0.0,0.0,0.70710677],"name":"Tread LED_Light_006","extensions":{"KHR_lights_punctual":{"light":21}}},{"translation":[1.3057215,2.4662035,-0.85542303],"rotation":[-0.70710677,-0.0,0.0,0.70710677],"name":"Tread LED_Light_007","extensions":{"KHR_lights_punctual":{"light":22}}},{"translation":[1.3057323,2.4662035,-0.24582301],"rotation":[-0.70710677,-0.0,0.0,0.70710677],"name":"Tread LED_Light_008","extensions":{"KHR_lights_punctual":{"light":23}}},{"translation":[0.16565733,1.0031871,1.3627174],"rotation":[-0.49999994,-0.5,-0.5,0.49999994],"name":"Tread LED_Light_023","extensions":{"KHR_lights_punctual":{"light":24}}},{"translation":[0.4704574,1.0031871,1.3627174],"rotation":[-0.49999994,-0.5,-0.5,0.49999994],"name":"Tread LED_Light_024","extensions":{"KHR_lights_punctual":{"light":25}}},{"translation":[-0.13914265,1.0031871,1.3627174],"rotation":[-0.49999994,-0.5,-0.5,0.49999994],"name":"Tread LED_Light_025","extensions":{"KHR_lights_punctual":{"light":26}}},{"translation":[0.16565733,0.8203071,1.6288898],"rotation":[-0.49999994,-0.5,-0.5,0.49999994],"name":"Tread LED_Light_026","extensions":{"KHR_lights_punctual":{"light":27}}},{"translation":[0.4704574,0.8203071,1.6288898],"rotation":[-0.49999994,-0.5,-0.5,0.49999994],"name":"Tread LED_Light_027","extensions":{"KHR_lights_punctual":{"light":28}}},{"translation":[-0.13914265,0.8203071,1.6288898],"rotation":[-0.49999994,-0.5,-0.5,0.49999994],"name":"Tread LED_Light_028","extensions":{"KHR_lights_punctual":{"light":29}}},{"translation":[1.5470294,0.08928906,2.2372448],"rotation":[-3.090862E-08,-0.70710677,-0.70710677,3.090862E-08],"name":"Tread LED_Light_030","extensions":{"KHR_lights_punctual":{"light":30}}},{"translation":[1.5470402,0.08928906,2.5420449],"rotation":[-3.090862E-08,-0.70710677,-0.70710677,3.090862E-08],"name":"Tread LED_Light_031","extensions":{"KHR_lights_punctual":{"light":31}}},{"translation":[1.5470294,0.08928906,1.9324448],"rotation":[-3.090862E-08,-0.70710677,-0.70710677,3.090862E-08],"name":"Tread LED_Light_032","extensions":{"KHR_lights_punctual":{"light":32}}},{"translation":[1.2805562,0.2721689,2.2372448],"rotation":[-3.090862E-08,-0.70710677,-0.70710677,3.090862E-08],"name":"Tread LED_Light_033","extensions":{"KHR_lights_punctual":{"light":33}}},{"translation":[1.2805669,0.2721689,2.5420449],"rotation":[-3.090862E-08,-0.70710677,-0.70710677,3.090862E-08],"name":"Tread LED_Light_034","extensions":{"KHR_lights_punctual":{"light":34}}},{"translation":[1.2805562,0.2721689,1.9324448],"rotation":[-3.090862E-08,-0.70710677,-0.70710677,3.090862E-08],"name":"Tread LED_Light_035","extensions":{"KHR_lights_punctual":{"light":35}}},{"translation":[1.0140827,0.4550487,2.2372448],"rotation":[-3.090862E-08,-0.70710677,-0.70710677,3.090862E-08],"name":"Tread LED_Light_036","extensions":{"KHR_lights_punctual":{"light":36}}},{"translation":[1.0140934,0.4550487,2.5420449],"rotation":[-3.090862E-08,-0.70710677,-0.70710677,3.090862E-08],"name":"Tread LED_Light_037","extensions":{"KHR_lights_punctual":{"light":37}}},{"translation":[1.0140827,0.4550487,1.9324448],"rotation":[-3.090862E-08,-0.70710677,-0.70710677,3.090862E-08],"name":"Tread LED_Light_038","extensions":{"KHR_lights_punctual":{"light":38}}},{"translation":[0.74176455,0.6379291,2.2372448],"rotation":[-3.090862E-08,-0.70710677,-0.70710677,3.090862E-08],"name":"Tread LED_Light_039","extensions":{"KHR_lights_punctual":{"light":39}}},{"translation":[0.7417753,0.6379291,2.5420449],"rotation":[-3.090862E-08,-0.70710677,-0.70710677,3.090862E-08],"name":"Tread LED_Light_040","extensions":{"KHR_lights_punctual":{"light":40}}},{"translation":[0.74176455,0.6379291,1.9324448],"rotation":[-3.090862E-08,-0.70710677,-0.70710677,3.090862E-08],"name":"Tread LED_Light_041","extensions":{"KHR_lights_punctual":{"light":41}}}],"meshes":[{"primitives":[{"attributes":{"POSITION":1,"TANGENT":2,"NORMAL":3,"TEXCOORD_0":4},"indices":0,"material":0}],"name":"Floor Nosing"},{"primitives":[{"attributes":{"POSITION":6,"TANGENT":7,"NORMAL":8,"TEXCOORD_0":9},"indices":5,"material":0}],"name":"Landing"},{"primitives":[{"attributes":{"POSITION":11,"TANGENT":12,"NORMAL":13,"TEXCOORD_0":14},"indices":10,"material":1}],"name":"Landing Attachment_001"},{"primitives":[{"attributes":{"POSITION":16,"TANGENT":17,"NORMAL":18,"TEXCOORD_0":19},"indices":15,"material":1}],"name":"1/2\" Lag Bolt_008"},{"primitives":[{"attributes":{"POSITION":21,"TANGENT":22,"NORMAL":23,"TEXCOORD_0":24},"indices":20,"material":1}],"name":"Stringer Attachment_001"},{"primitives":[{"attributes":{"POSITION":26,"TANGENT":27,"NORMAL":28,"TEXCOORD_0":29},"indices":25,"material":1}],"name":"3/8\" FHSCS_023"},{"primitives":[{"attributes":{"POSITION":31,"TANGENT":32,"NORMAL":33,"TEXCOORD_0":34},"indices":30,"material":0}],"name":"Tread Block_012"},{"primitives":[{"attributes":{"POSITION":36,"TANGENT":37,"NORMAL":38,"TEXCOORD_0":39},"indices":35,"material":1}],"name":"Tread Support_012"},{"primitives":[{"attributes":{"POSITION":41,"TANGENT":42,"NORMAL":43,"TEXCOORD_0":44},"indices":40,"material":0}],"name":"Tread Block_011"},{"primitives":[{"attributes":{"POSITION":46,"TANGENT":47,"NORMAL":48,"TEXCOORD_0":49},"indices":45,"material":1}],"name":"Stair Stringer_Upper"},{"primitives":[{"attributes":{"POSITION":51,"TANGENT":52,"NORMAL":53,"TEXCOORD_0":54},"indices":50,"material":0}],"name":"Tread Block_002"},{"primitives":[{"attributes":{"POSITION":56,"TANGENT":57,"NORMAL":58,"TEXCOORD_0":59},"indices":55,"material":1}],"name":"Tread Support_000"},{"primitives":[{"attributes":{"POSITION":61,"TANGENT":62,"NORMAL":63,"TEXCOORD_0":64},"indices":60,"material":1}],"name":"Header Plate"},{"primitives":[{"attributes":{"POSITION":66,"TANGENT":67,"NORMAL":68,"TEXCOORD_0":69},"indices":65,"material":0}],"name":"Tread Block_010"},{"primitives":[{"attributes":{"POSITION":71,"TANGENT":72,"NORMAL":73,"TEXCOORD_0":74},"indices":70,"material":0}],"name":"Tread Block_001"},{"primitives":[{"attributes":{"POSITION":76,"TANGENT":77,"NORMAL":78,"TEXCOORD_0":79},"indices":75,"material":0}],"name":"Tread Block_003"},{"primitives":[{"attributes":{"POSITION":81,"TANGENT":82,"NORMAL":83,"TEXCOORD_0":84},"indices":80,"material":1}],"name":"3/8\" Lag Bolt_119"},{"primitives":[{"attributes":{"POSITION":86,"TANGENT":87,"NORMAL":88,"TEXCOORD_0":89},"indices":85,"material":1}],"name":"Header Plate Cover"},{"primitives":[{"attributes":{"POSITION":91,"TANGENT":92,"NORMAL":93,"TEXCOORD_0":94},"indices":90,"material":0}],"name":"Tread Block_009"},{"primitives":[{"attributes":{"POSITION":96,"TANGENT":97,"NORMAL":98,"TEXCOORD_0":99},"indices":95,"material":0}],"name":"Tread Block_008"},{"primitives":[{"attributes":{"POSITION":101,"TANGENT":102,"NORMAL":103,"TEXCOORD_0":104},"indices":100,"material":0}],"name":"Tread Block_013"},{"primitives":[{"attributes":{"POSITION":106,"TANGENT":107,"NORMAL":108,"TEXCOORD_0":109},"indices":105,"material":1}],"name":"Column Tube"},{"primitives":[{"attributes":{"POSITION":111,"TANGENT":112,"NORMAL":113,"TEXCOORD_0":114},"indices":110,"material":1}],"name":"Column Footer Plate"},{"primitives":[{"attributes":{"POSITION":116,"TANGENT":117,"NORMAL":118,"TEXCOORD_0":119},"indices":115,"material":1}],"name":"Column to Stringer Plate"},{"primitives":[{"attributes":{"POSITION":121,"NORMAL":122},"indices":120,"material":2}],"name":"Tread LED_045"},{"primitives":[{"attributes":{"POSITION":124,"TANGENT":125,"NORMAL":126,"TEXCOORD_0":127},"indices":123,"material":1}],"name":"1/2\" Lag Bolt_040"},{"primitives":[{"attributes":{"POSITION":129,"TANGENT":130,"NORMAL":131,"TEXCOORD_0":132},"indices":128,"material":1}],"name":"3/8\" FHSCS_044"},{"primitives":[{"attributes":{"POSITION":134,"TANGENT":135,"NORMAL":136,"TEXCOORD_0":137},"indices":133,"material":1}],"name":"3/8\" Lag Bolt_120"},{"primitives":[{"attributes":{"POSITION":139,"TANGENT":140,"NORMAL":141,"TEXCOORD_0":142},"indices":138,"material":1}],"name":"Column Footer Plate001"},{"primitives":[{"attributes":{"POSITION":144,"TANGENT":145,"NORMAL":146,"TEXCOORD_0":147},"indices":143,"material":1}],"name":"Column Tube001"},{"primitives":[{"attributes":{"POSITION":149,"TANGENT":150,"NORMAL":151,"TEXCOORD_0":152},"indices":148,"material":1}],"name":"Column to Stringer Plate001"},{"primitives":[{"attributes":{"POSITION":154,"TANGENT":155,"NORMAL":156,"TEXCOORD_0":157},"indices":153,"material":1}],"name":"Footer Plate001"},{"primitives":[{"attributes":{"POSITION":159,"TANGENT":160,"NORMAL":161,"TEXCOORD_0":162},"indices":158,"material":0}],"name":"Landing002"},{"primitives":[{"attributes":{"POSITION":164,"TANGENT":165,"NORMAL":166,"TEXCOORD_0":167},"indices":163,"material":1}],"name":"Landing Attachment_005"},{"primitives":[{"attributes":{"POSITION":169,"TANGENT":170,"NORMAL":171,"TEXCOORD_0":172},"indices":168,"material":1}],"name":"Stair Stringer_Upper001"},{"primitives":[{"attributes":{"POSITION":174,"TANGENT":175,"NORMAL":176,"TEXCOORD_0":177},"indices":173,"material":1}],"name":"Stringer Attachment_002"},{"primitives":[{"attributes":{"POSITION":179,"TANGENT":180,"NORMAL":181,"TEXCOORD_0":182},"indices":178,"material":1}],"name":"Stringer End Cap_001"},{"primitives":[{"attributes":{"POSITION":184,"TANGENT":185,"NORMAL":186,"TEXCOORD_0":187},"indices":183,"material":0}],"name":"Tread Block_085"},{"primitives":[{"attributes":{"POSITION":189,"TANGENT":190,"NORMAL":191,"TEXCOORD_0":192},"indices":188,"material":0}],"name":"Tread Block_089"},{"primitives":[{"attributes":{"POSITION":194,"TANGENT":195,"NORMAL":196,"TEXCOORD_0":197},"indices":193,"material":0}],"name":"Tread Block_090"},{"primitives":[{"attributes":{"POSITION":199,"TANGENT":200,"NORMAL":201,"TEXCOORD_0":202},"indices":198,"material":1}],"name":"Tread Support_023"},{"primitives":[{"attributes":{"POSITION":204,"TANGENT":205,"NORMAL":206,"TEXCOORD_0":207},"indices":203,"material":1}],"name":"Stair Stringer_Lower002"},{"primitives":[{"attributes":{"POSITION":209,"TANGENT":210,"NORMAL":211,"TEXCOORD_0":212},"indices":208,"material":1}],"name":"Stringer to Wall-Wood Blocking Part [7641775]"},{"primitives":[{"attributes":{"POSITION":214,"TANGENT":215,"NORMAL":216,"TEXCOORD_0":217},"indices":213,"material":1}],"name":"5/8\" Lag_017"},{"primitives":[{"attributes":{"POSITION":219,"TANGENT":220,"NORMAL":221,"TEXCOORD_0":222},"indices":218,"material":1}],"name":"5/8\" Lag_018"},{"primitives":[{"attributes":{"POSITION":224,"TANGENT":225,"NORMAL":226,"TEXCOORD_0":227},"indices":223,"material":1}],"name":"5/8\" Lag_019"},{"primitives":[{"attributes":{"POSITION":229,"TANGENT":230,"NORMAL":231,"TEXCOORD_0":232},"indices":228,"material":1}],"name":"5/8\" Lag_020"},{"primitives":[{"attributes":{"POSITION":234,"TANGENT":235,"NORMAL":236,"TEXCOORD_0":237},"indices":233,"material":1}],"name":"5/8\" Lag_021"},{"primitives":[{"attributes":{"POSITION":239,"TANGENT":240,"NORMAL":241,"TEXCOORD_0":242},"indices":238,"material":1}],"name":"5/8\" Lag_022"},{"primitives":[{"attributes":{"POSITION":244,"TANGENT":245,"NORMAL":246,"TEXCOORD_0":247},"indices":243,"material":1}],"name":"5/8\" Lag_023"}],"accessors":[{"bufferView":0,"componentType":5123,"count":1764,"type":"SCALAR","name":"accessorIndices"},{"bufferView":1,"componentType":5126,"count":384,"max":[0.6096,1.4630401,1.32715],"min":[-0.6096,1.41224,1.27],"type":"VEC3","name":"accessorPositions"},{"bufferView":2,"componentType":5126,"count":384,"type":"VEC4","name":"accessorTangents"},{"bufferView":1,"byteOffset":4608,"componentType":5126,"count":384,"type":"VEC3","name":"accessorNormals"},{"bufferView":3,"componentType":5126,"count":384,"type":"VEC2","name":"accessorUVs"},{"bufferView":0,"byteOffset":3528,"componentType":5123,"count":2094,"type":"SCALAR","name":"accessorIndices"},{"bufferView":1,"byteOffset":9216,"componentType":5126,"count":502,"max":[1.2209612,0.0,1.2192003],"min":[0.0,-0.101599894,-0.0],"type":"VEC3","name":"accessorPositions"},{"bufferView":2,"byteOffset":6144,"componentType":5126,"count":502,"type":"VEC4","name":"accessorTangents"},{"bufferView":1,"byteOffset":15240,"componentType":5126,"count":502,"type":"VEC3","name":"accessorNormals"},{"bufferView":3,"byteOffset":3072,"componentType":5126,"count":502,"type":"VEC2","name":"accessorUVs"},{"bufferView":0,"byteOffset":7716,"componentType":5123,"count":36,"type":"SCALAR","name":"accessorIndices"},{"bufferView":1,"byteOffset":21264,"componentType":5126,"count":24,"max":[0.1524,0.0079502,0.0762],"min":[-0.1524,-2.4068498E-15,-0.0762],"type":"VEC3","name":"accessorPositions"},{"bufferView":2,"byteOffset":14176,"componentType":5126,"count":24,"type":"VEC4","name":"accessorTangents"},{"bufferView":1,"byteOffset":21552,"componentType":5126,"count":24,"type":"VEC3","name":"accessorNormals"},{"bufferView":3,"byteOffset":7088,"componentType":5126,"count":24,"type":"VEC2","name":"accessorUVs"},{"bufferView":0,"byteOffset":7788,"componentType":5123,"count":60,"type":"SCALAR","name":"accessorIndices"},{"bufferView":1,"byteOffset":21840,"componentType":5126,"count":36,"max":[6.2941655E-15,0.012978258,0.011177512],"min":[-0.010795,-0.012978258,-0.0112395],"type":"VEC3","name":"accessorPositions"},{"bufferView":2,"byteOffset":14560,"componentType":5126,"count":36,"type":"VEC4","name":"accessorTangents"},{"bufferView":1,"byteOffset":22272,"componentType":5126,"count":36,"type":"VEC3","name":"accessorNormals"},{"bufferView":3,"byteOffset":7280,"componentType":5126,"count":36,"type":"VEC2","name":"accessorUVs"},{"bufferView":0,"byteOffset":7908,"componentType":5123,"count":660,"type":"SCALAR","name":"accessorIndices"},{"bufferView":1,"byteOffset":22704,"componentType":5126,"count":312,"max":[0.127,0.0762,0.006508755],"min":[-0.127,-0.0762,-0.00015875156],"type":"VEC3","name":"accessorPositions"},{"bufferView":2,"byteOffset":15136,"componentType":5126,"count":312,"type":"VEC4","name":"accessorTangents"},{"bufferView":1,"byteOffset":26448,"componentType":5126,"count":312,"type":"VEC3","name":"accessorNormals"},{"bufferView":3,"byteOffset":7568,"componentType":5126,"count":312,"type":"VEC2","name":"accessorUVs"},{"bufferView":0,"byteOffset":9228,"componentType":5123,"count":180,"type":"SCALAR","name":"accessorIndices"},{"bufferView":1,"byteOffset":30192,"componentType":5126,"count":76,"max":[0.004723497,0.009498697,0.009498697],"min":[1.8683688E-14,-0.009498697,-0.009498697],"type":"VEC3","name":"accessorPositions"},{"bufferView":2,"byteOffset":20128,"componentType":5126,"count":76,"type":"VEC4","name":"accessorTangents"},{"bufferView":1,"byteOffset":31104,"componentType":5126,"count":76,"type":"VEC3","name":"accessorNormals"},{"bufferView":3,"byteOffset":10064,"componentType":5126,"count":76,"type":"VEC2","name":"accessorUVs"},{"bufferView":0,"byteOffset":9588,"componentType":5123,"count":2670,"type":"SCALAR","name":"accessorIndices"},{"bufferView":1,"byteOffset":32016,"componentType":5126,"count":724,"max":[0.6096003,0.050800525,0.15239981],"min":[-0.60959977,-0.050801016,-0.1524004],"type":"VEC3","name":"accessorPositions"},{"bufferView":2,"byteOffset":21344,"componentType":5126,"count":724,"type":"VEC4","name":"accessorTangents"},{"bufferView":1,"byteOffset":40704,"componentType":5126,"count":724,"type":"VEC3","name":"accessorNormals"},{"bufferView":3,"byteOffset":10672,"componentType":5126,"count":724,"type":"VEC2","name":"accessorUVs"},{"bufferView":0,"byteOffset":14928,"componentType":5123,"count":138,"type":"SCALAR","name":"accessorIndices"},{"bufferView":1,"byteOffset":49392,"componentType":5126,"count":85,"max":[0.169672,0.097199045,0.13059595],"min":[-0.169672,-5.295887E-09,-0.0063500004],"type":"VEC3","name":"accessorPositions"},{"bufferView":2,"byteOffset":32928,"componentType":5126,"count":85,"type":"VEC4","name":"accessorTangents"},{"bufferView":1,"byteOffset":50412,"componentType":5126,"count":85,"type":"VEC3","name":"accessorNormals"},{"bufferView":3,"byteOffset":16464,"componentType":5126,"count":85,"type":"VEC2","name":"accessorUVs"},{"bufferView":0,"byteOffset":15204,"componentType":5123,"count":2670,"type":"SCALAR","name":"accessorIndices"},{"bufferView":1,"byteOffset":51432,"componentType":5126,"count":724,"max":[0.6096003,0.050800525,0.15239981],"min":[-0.60959977,-0.050801016,-0.1524004],"type":"VEC3","name":"accessorPositions"},{"bufferView":2,"byteOffset":34288,"componentType":5126,"count":724,"type":"VEC4","name":"accessorTangents"},{"bufferView":1,"byteOffset":60120,"componentType":5126,"count":724,"type":"VEC3","name":"accessorNormals"},{"bufferView":3,"byteOffset":17144,"componentType":5126,"count":724,"type":"VEC2","name":"accessorUVs"},{"bufferView":0,"byteOffset":20544,"componentType":5123,"count":684,"type":"SCALAR","name":"accessorIndices"},{"bufferView":1,"byteOffset":68808,"componentType":5126,"count":212,"max":[0.0762,0.49847278,0.25491345],"min":[-0.076200016,-0.2619502,-1.0967493],"type":"VEC3","name":"accessorPositions"},{"bufferView":2,"byteOffset":45872,"componentType":5126,"count":212,"type":"VEC4","name":"accessorTangents"},{"bufferView":1,"byteOffset":71352,"componentType":5126,"count":212,"type":"VEC3","name":"accessorNormals"},{"bufferView":3,"byteOffset":22936,"componentType":5126,"count":212,"type":"VEC2","name":"accessorUVs"},{"bufferView":0,"byteOffset":21912,"componentType":5123,"count":2670,"type":"SCALAR","name":"accessorIndices"},{"bufferView":1,"byteOffset":73896,"componentType":5126,"count":724,"max":[0.15240052,0.050800525,0.6096003],"min":[-0.15240006,-0.050801016,-0.60959977],"type":"VEC3","name":"accessorPositions"},{"bufferView":2,"byteOffset":49264,"componentType":5126,"count":724,"type":"VEC4","name":"accessorTangents"},{"bufferView":1,"byteOffset":82584,"componentType":5126,"count":724,"type":"VEC3","name":"accessorNormals"},{"bufferView":3,"byteOffset":24632,"componentType":5126,"count":724,"type":"VEC2","name":"accessorUVs"},{"bufferView":0,"byteOffset":27252,"componentType":5123,"count":156,"type":"SCALAR","name":"accessorIndices"},{"bufferView":1,"byteOffset":91272,"componentType":5126,"count":92,"max":[0.1696718,0.09710105,0.006349899],"min":[-0.1696718,0.0,-0.13059309],"type":"VEC3","name":"accessorPositions"},{"bufferView":2,"byteOffset":60848,"componentType":5126,"count":92,"type":"VEC4","name":"accessorTangents"},{"bufferView":1,"byteOffset":92376,"componentType":5126,"count":92,"type":"VEC3","name":"accessorNormals"},{"bufferView":3,"byteOffset":30424,"componentType":5126,"count":92,"type":"VEC2","name":"accessorUVs"},{"bufferView":0,"byteOffset":27564,"componentType":5123,"count":1860,"type":"SCALAR","name":"accessorIndices"},{"bufferView":1,"byteOffset":93480,"componentType":5126,"count":660,"max":[0.16510001,0.2205445,0.0063500004],"min":[-0.16510001,-0.09695551,-0.0],"type":"VEC3","name":"accessorPositions"},{"bufferView":2,"byteOffset":62320,"componentType":5126,"count":660,"type":"VEC4","name":"accessorTangents"},{"bufferView":1,"byteOffset":101400,"componentType":5126,"count":660,"type":"VEC3","name":"accessorNormals"},{"bufferView":3,"byteOffset":31160,"componentType":5126,"count":660,"type":"VEC2","name":"accessorUVs"},{"bufferView":0,"byteOffset":31284,"componentType":5123,"count":2670,"type":"SCALAR","name":"accessorIndices"},{"bufferView":1,"byteOffset":109320,"componentType":5126,"count":724,"max":[0.6096003,0.050800525,0.15239978],"min":[-0.60959977,-0.050801016,-0.15240039],"type":"VEC3","name":"accessorPositions"},{"bufferView":2,"byteOffset":72880,"componentType":5126,"count":724,"type":"VEC4","name":"accessorTangents"},{"bufferView":1,"byteOffset":118008,"componentType":5126,"count":724,"type":"VEC3","name":"accessorNormals"},{"bufferView":3,"byteOffset":36440,"componentType":5126,"count":724,"type":"VEC2","name":"accessorUVs"},{"bufferView":0,"byteOffset":36624,"componentType":5123,"count":2670,"type":"SCALAR","name":"accessorIndices"},{"bufferView":1,"byteOffset":126696,"componentType":5126,"count":724,"max":[0.15240052,0.050800525,0.6096003],"min":[-0.15240006,-0.050801016,-0.60959977],"type":"VEC3","name":"accessorPositions"},{"bufferView":2,"byteOffset":84464,"componentType":5126,"count":724,"type":"VEC4","name":"accessorTangents"},{"bufferView":1,"byteOffset":135384,"componentType":5126,"count":724,"type":"VEC3","name":"accessorNormals"},{"bufferView":3,"byteOffset":42232,"componentType":5126,"count":724,"type":"VEC2","name":"accessorUVs"},{"bufferView":0,"byteOffset":41964,"componentType":5123,"count":2670,"type":"SCALAR","name":"accessorIndices"},{"bufferView":1,"byteOffset":144072,"componentType":5126,"count":724,"max":[0.15240052,0.050800525,0.6096003],"min":[-0.15240006,-0.050801016,-0.60959977],"type":"VEC3","name":"accessorPositions"},{"bufferView":2,"byteOffset":96048,"componentType":5126,"count":724,"type":"VEC4","name":"accessorTangents"},{"bufferView":1,"byteOffset":152760,"componentType":5126,"count":724,"type":"VEC3","name":"accessorNormals"},{"bufferView":3,"byteOffset":48024,"componentType":5126,"count":724,"type":"VEC2","name":"accessorUVs"},{"bufferView":0,"byteOffset":47304,"componentType":5123,"count":138,"type":"SCALAR","name":"accessorIndices"},{"bufferView":1,"byteOffset":161448,"componentType":5126,"count":60,"max":[6.47623E-15,0.0082677,0.007160038],"min":[-0.008559801,-0.0082677,-0.007160038],"type":"VEC3","name":"accessorPositions"},{"bufferView":2,"byteOffset":107632,"componentType":5126,"count":60,"type":"VEC4","name":"accessorTangents"},{"bufferView":1,"byteOffset":162168,"componentType":5126,"count":60,"type":"VEC3","name":"accessorNormals"},{"bufferView":3,"byteOffset":53816,"componentType":5126,"count":60,"type":"VEC2","name":"accessorUVs"},{"bufferView":0,"byteOffset":47580,"componentType":5123,"count":84,"type":"SCALAR","name":"accessorIndices"},{"bufferView":1,"byteOffset":162888,"componentType":5126,"count":48,"max":[0.1692656,0.2247101,0.026339801],"min":[-0.1692656,0.010105494,8.569285E-15],"type":"VEC3","name":"accessorPositions"},{"bufferView":2,"byteOffset":108592,"componentType":5126,"count":48,"type":"VEC4","name":"accessorTangents"},{"bufferView":1,"byteOffset":163464,"componentType":5126,"count":48,"type":"VEC3","name":"accessorNormals"},{"bufferView":3,"byteOffset":54296,"componentType":5126,"count":48,"type":"VEC2","name":"accessorUVs"},{"bufferView":0,"byteOffset":47748,"componentType":5123,"count":2670,"type":"SCALAR","name":"accessorIndices"},{"bufferView":1,"byteOffset":164040,"componentType":5126,"count":724,"max":[0.6096003,0.050800525,0.15239981],"min":[-0.60959977,-0.050801016,-0.1524004],"type":"VEC3","name":"accessorPositions"},{"bufferView":2,"byteOffset":109360,"componentType":5126,"count":724,"type":"VEC4","name":"accessorTangents"},{"bufferView":1,"byteOffset":172728,"componentType":5126,"count":724,"type":"VEC3","name":"accessorNormals"},{"bufferView":3,"byteOffset":54680,"componentType":5126,"count":724,"type":"VEC2","name":"accessorUVs"},{"bufferView":0,"byteOffset":53088,"componentType":5123,"count":2670,"type":"SCALAR","name":"accessorIndices"},{"bufferView":1,"byteOffset":181416,"componentType":5126,"count":724,"max":[0.6096003,0.050800525,0.15239981],"min":[-0.60959977,-0.050801016,-0.1524004],"type":"VEC3","name":"accessorPositions"},{"bufferView":2,"byteOffset":120944,"componentType":5126,"count":724,"type":"VEC4","name":"accessorTangents"},{"bufferView":1,"byteOffset":190104,"componentType":5126,"count":724,"type":"VEC3","name":"accessorNormals"},{"bufferView":3,"byteOffset":60472,"componentType":5126,"count":724,"type":"VEC2","name":"accessorUVs"},{"bufferView":0,"byteOffset":58428,"componentType":5123,"count":2670,"type":"SCALAR","name":"accessorIndices"},{"bufferView":1,"byteOffset":198792,"componentType":5126,"count":724,"max":[0.6096003,0.050800525,0.15239981],"min":[-0.60959977,-0.050801016,-0.1524004],"type":"VEC3","name":"accessorPositions"},{"bufferView":2,"byteOffset":132528,"componentType":5126,"count":724,"type":"VEC4","name":"accessorTangents"},{"bufferView":1,"byteOffset":207480,"componentType":5126,"count":724,"type":"VEC3","name":"accessorNormals"},{"bufferView":3,"byteOffset":66264,"componentType":5126,"count":724,"type":"VEC2","name":"accessorUVs"},{"bufferView":0,"byteOffset":63768,"componentType":5123,"count":228,"type":"SCALAR","name":"accessorIndices"},{"bufferView":1,"byteOffset":216168,"componentType":5126,"count":104,"max":[1.0007347,0.07620008,0.0762],"min":[-0.7313306,-0.0762,-0.07620008],"type":"VEC3","name":"accessorPositions"},{"bufferView":2,"byteOffset":144112,"componentType":5126,"count":104,"type":"VEC4","name":"accessorTangents"},{"bufferView":1,"byteOffset":217416,"componentType":5126,"count":104,"type":"VEC3","name":"accessorNormals"},{"bufferView":3,"byteOffset":72056,"componentType":5126,"count":104,"type":"VEC2","name":"accessorUVs"},{"bufferView":0,"byteOffset":64224,"componentType":5123,"count":36,"type":"SCALAR","name":"accessorIndices"},{"bufferView":1,"byteOffset":218664,"componentType":5126,"count":24,"max":[0.1524,0.009525,0.1524],"min":[-0.1524,-2.9240647E-15,-0.1524],"type":"VEC3","name":"accessorPositions"},{"bufferView":2,"byteOffset":145776,"componentType":5126,"count":24,"type":"VEC4","name":"accessorTangents"},{"bufferView":1,"byteOffset":218952,"componentType":5126,"count":24,"type":"VEC3","name":"accessorNormals"},{"bufferView":3,"byteOffset":72888,"componentType":5126,"count":24,"type":"VEC2","name":"accessorUVs"},{"bufferView":0,"byteOffset":64296,"componentType":5123,"count":2508,"type":"SCALAR","name":"accessorIndices"},{"bufferView":1,"byteOffset":219240,"componentType":5126,"count":880,"max":[0.20320001,0.007950201,0.0762],"min":[-0.20320001,-2.4131592E-15,-0.0762],"type":"VEC3","name":"accessorPositions"},{"bufferView":2,"byteOffset":146160,"componentType":5126,"count":880,"type":"VEC4","name":"accessorTangents"},{"bufferView":1,"byteOffset":229800,"componentType":5126,"count":880,"type":"VEC3","name":"accessorNormals"},{"bufferView":3,"byteOffset":73080,"componentType":5126,"count":880,"type":"VEC2","name":"accessorUVs"},{"bufferView":0,"byteOffset":69312,"componentType":5123,"count":6,"type":"SCALAR","name":"accessorIndices"},{"bufferView":1,"byteOffset":240360,"componentType":5126,"count":4,"max":[0.0063500004,0.0,0.5715],"min":[-0.0063500004,0.0,-0.5715],"type":"VEC3","name":"accessorPositions"},{"bufferView":1,"byteOffset":240408,"componentType":5126,"count":4,"type":"VEC3","name":"accessorNormals"},{"bufferView":0,"byteOffset":69324,"componentType":5123,"count":60,"type":"SCALAR","name":"accessorIndices"},{"bufferView":1,"byteOffset":240456,"componentType":5126,"count":36,"max":[6.2941655E-15,0.012978258,0.011177512],"min":[-0.010795,-0.012978258,-0.0112395],"type":"VEC3","name":"accessorPositions"},{"bufferView":2,"byteOffset":160240,"componentType":5126,"count":36,"type":"VEC4","name":"accessorTangents"},{"bufferView":1,"byteOffset":240888,"componentType":5126,"count":36,"type":"VEC3","name":"accessorNormals"},{"bufferView":3,"byteOffset":80120,"componentType":5126,"count":36,"type":"VEC2","name":"accessorUVs"},{"bufferView":0,"byteOffset":69444,"componentType":5123,"count":180,"type":"SCALAR","name":"accessorIndices"},{"bufferView":1,"byteOffset":241320,"componentType":5126,"count":76,"max":[0.004723497,0.009498697,0.009498697],"min":[1.8683688E-14,-0.009498697,-0.009498697],"type":"VEC3","name":"accessorPositions"},{"bufferView":2,"byteOffset":160816,"componentType":5126,"count":76,"type":"VEC4","name":"accessorTangents"},{"bufferView":1,"byteOffset":242232,"componentType":5126,"count":76,"type":"VEC3","name":"accessorNormals"},{"bufferView":3,"byteOffset":80408,"componentType":5126,"count":76,"type":"VEC2","name":"accessorUVs"},{"bufferView":0,"byteOffset":69804,"componentType":5123,"count":138,"type":"SCALAR","name":"accessorIndices"},{"bufferView":1,"byteOffset":243144,"componentType":5126,"count":60,"max":[6.47623E-15,0.0082677,0.007160038],"min":[-0.008559801,-0.0082677,-0.007160038],"type":"VEC3","name":"accessorPositions"},{"bufferView":2,"byteOffset":162032,"componentType":5126,"count":60,"type":"VEC4","name":"accessorTangents"},{"bufferView":1,"byteOffset":243864,"componentType":5126,"count":60,"type":"VEC3","name":"accessorNormals"},{"bufferView":3,"byteOffset":81016,"componentType":5126,"count":60,"type":"VEC2","name":"accessorUVs"},{"bufferView":0,"byteOffset":70080,"componentType":5123,"count":36,"type":"SCALAR","name":"accessorIndices"},{"bufferView":1,"byteOffset":244584,"componentType":5126,"count":24,"max":[0.1524,0.009525,0.1524],"min":[-0.1524,-2.9240647E-15,-0.1524],"type":"VEC3","name":"accessorPositions"},{"bufferView":2,"byteOffset":162992,"componentType":5126,"count":24,"type":"VEC4","name":"accessorTangents"},{"bufferView":1,"byteOffset":244872,"componentType":5126,"count":24,"type":"VEC3","name":"accessorNormals"},{"bufferView":3,"byteOffset":81496,"componentType":5126,"count":24,"type":"VEC2","name":"accessorUVs"},{"bufferView":0,"byteOffset":70152,"componentType":5123,"count":228,"type":"SCALAR","name":"accessorIndices"},{"bufferView":1,"byteOffset":245160,"componentType":5126,"count":104,"max":[0.4520963,0.0762,0.0762],"min":[6.2941655E-15,-0.07620005,-0.07620005],"type":"VEC3","name":"accessorPositions"},{"bufferView":2,"byteOffset":163376,"componentType":5126,"count":104,"type":"VEC4","name":"accessorTangents"},{"bufferView":1,"byteOffset":246408,"componentType":5126,"count":104,"type":"VEC3","name":"accessorNormals"},{"bufferView":3,"byteOffset":81688,"componentType":5126,"count":104,"type":"VEC2","name":"accessorUVs"},{"bufferView":0,"byteOffset":70608,"componentType":5123,"count":2508,"type":"SCALAR","name":"accessorIndices"},{"bufferView":1,"byteOffset":247656,"componentType":5126,"count":880,"max":[0.20320001,0.007950201,0.0762],"min":[-0.20320001,-2.4131592E-15,-0.0762],"type":"VEC3","name":"accessorPositions"},{"bufferView":2,"byteOffset":165040,"componentType":5126,"count":880,"type":"VEC4","name":"accessorTangents"},{"bufferView":1,"byteOffset":258216,"componentType":5126,"count":880,"type":"VEC3","name":"accessorNormals"},{"bufferView":3,"byteOffset":82520,"componentType":5126,"count":880,"type":"VEC2","name":"accessorUVs"},{"bufferView":0,"byteOffset":75624,"componentType":5123,"count":36,"type":"SCALAR","name":"accessorIndices"},{"bufferView":1,"byteOffset":268776,"componentType":5126,"count":24,"max":[0.1524,0.012700001,0.1387602],"min":[-0.1524,-1.8678233E-15,-0.2041398],"type":"VEC3","name":"accessorPositions"},{"bufferView":2,"byteOffset":179120,"componentType":5126,"count":24,"type":"VEC4","name":"accessorTangents"},{"bufferView":1,"byteOffset":269064,"componentType":5126,"count":24,"type":"VEC3","name":"accessorNormals"},{"bufferView":3,"byteOffset":89560,"componentType":5126,"count":24,"type":"VEC2","name":"accessorUVs"},{"bufferView":0,"byteOffset":75696,"componentType":5123,"count":2094,"type":"SCALAR","name":"accessorIndices"},{"bufferView":1,"byteOffset":269352,"componentType":5126,"count":502,"max":[1.2209612,0.0,1.2192003],"min":[0.0,-0.101599894,-0.0],"type":"VEC3","name":"accessorPositions"},{"bufferView":2,"byteOffset":179504,"componentType":5126,"count":502,"type":"VEC4","name":"accessorTangents"},{"bufferView":1,"byteOffset":275376,"componentType":5126,"count":502,"type":"VEC3","name":"accessorNormals"},{"bufferView":3,"byteOffset":89752,"componentType":5126,"count":502,"type":"VEC2","name":"accessorUVs"},{"bufferView":0,"byteOffset":79884,"componentType":5123,"count":36,"type":"SCALAR","name":"accessorIndices"},{"bufferView":1,"byteOffset":281400,"componentType":5126,"count":24,"max":[0.1524,0.0079502,0.0762],"min":[-0.1524,-2.4068498E-15,-0.0762],"type":"VEC3","name":"accessorPositions"},{"bufferView":2,"byteOffset":187536,"componentType":5126,"count":24,"type":"VEC4","name":"accessorTangents"},{"bufferView":1,"byteOffset":281688,"componentType":5126,"count":24,"type":"VEC3","name":"accessorNormals"},{"bufferView":3,"byteOffset":93768,"componentType":5126,"count":24,"type":"VEC2","name":"accessorUVs"},{"bufferView":0,"byteOffset":79956,"componentType":5123,"count":1140,"type":"SCALAR","name":"accessorIndices"},{"bufferView":1,"byteOffset":281976,"componentType":5126,"count":990,"max":[0.076235324,0.7161846,1.5656177],"min":[-0.076235354,-0.71618456,-2.1061988],"type":"VEC3","name":"accessorPositions"},{"bufferView":2,"byteOffset":187920,"componentType":5126,"count":990,"type":"VEC4","name":"accessorTangents"},{"bufferView":1,"byteOffset":293856,"componentType":5126,"count":990,"type":"VEC3","name":"accessorNormals"},{"bufferView":3,"byteOffset":93960,"componentType":5126,"count":990,"type":"VEC2","name":"accessorUVs"},{"bufferView":0,"byteOffset":82236,"componentType":5123,"count":660,"type":"SCALAR","name":"accessorIndices"},{"bufferView":1,"byteOffset":305736,"componentType":5126,"count":312,"max":[0.127,0.0762,0.006508755],"min":[-0.127,-0.0762,-0.00015875156],"type":"VEC3","name":"accessorPositions"},{"bufferView":2,"byteOffset":203760,"componentType":5126,"count":312,"type":"VEC4","name":"accessorTangents"},{"bufferView":1,"byteOffset":309480,"componentType":5126,"count":312,"type":"VEC3","name":"accessorNormals"},{"bufferView":3,"byteOffset":101880,"componentType":5126,"count":312,"type":"VEC2","name":"accessorUVs"},{"bufferView":0,"byteOffset":83556,"componentType":5123,"count":228,"type":"SCALAR","name":"accessorIndices"},{"bufferView":1,"byteOffset":313224,"componentType":5126,"count":104,"max":[0.0762,0.0762,-7.375853E-15],"min":[-0.0762,-0.0762,-0.0063500004],"type":"VEC3","name":"accessorPositions"},{"bufferView":2,"byteOffset":208752,"componentType":5126,"count":104,"type":"VEC4","name":"accessorTangents"},{"bufferView":1,"byteOffset":314472,"componentType":5126,"count":104,"type":"VEC3","name":"accessorNormals"},{"bufferView":3,"byteOffset":104376,"componentType":5126,"count":104,"type":"VEC2","name":"accessorUVs"},{"bufferView":0,"byteOffset":84012,"componentType":5123,"count":2670,"type":"SCALAR","name":"accessorIndices"},{"bufferView":1,"byteOffset":315720,"componentType":5126,"count":724,"max":[0.1524,0.050800525,0.6096],"min":[-0.15240058,-0.050801016,-0.6096],"type":"VEC3","name":"accessorPositions"},{"bufferView":2,"byteOffset":210416,"componentType":5126,"count":724,"type":"VEC4","name":"accessorTangents"},{"bufferView":1,"byteOffset":324408,"componentType":5126,"count":724,"type":"VEC3","name":"accessorNormals"},{"bufferView":3,"byteOffset":105208,"componentType":5126,"count":724,"type":"VEC2","name":"accessorUVs"},{"bufferView":0,"byteOffset":89352,"componentType":5123,"count":2670,"type":"SCALAR","name":"accessorIndices"},{"bufferView":1,"byteOffset":333096,"componentType":5126,"count":724,"max":[0.15239942,0.050800525,0.6096],"min":[-0.15240058,-0.050801016,-0.6096],"type":"VEC3","name":"accessorPositions"},{"bufferView":2,"byteOffset":222000,"componentType":5126,"count":724,"type":"VEC4","name":"accessorTangents"},{"bufferView":1,"byteOffset":341784,"componentType":5126,"count":724,"type":"VEC3","name":"accessorNormals"},{"bufferView":3,"byteOffset":111000,"componentType":5126,"count":724,"type":"VEC2","name":"accessorUVs"},{"bufferView":0,"byteOffset":94692,"componentType":5123,"count":2670,"type":"SCALAR","name":"accessorIndices"},{"bufferView":1,"byteOffset":350472,"componentType":5126,"count":724,"max":[0.1524,0.050800525,0.6096],"min":[-0.15240058,-0.050801016,-0.6096],"type":"VEC3","name":"accessorPositions"},{"bufferView":2,"byteOffset":233584,"componentType":5126,"count":724,"type":"VEC4","name":"accessorTangents"},{"bufferView":1,"byteOffset":359160,"componentType":5126,"count":724,"type":"VEC3","name":"accessorNormals"},{"bufferView":3,"byteOffset":116792,"componentType":5126,"count":724,"type":"VEC2","name":"accessorUVs"},{"bufferView":0,"byteOffset":100032,"componentType":5123,"count":138,"type":"SCALAR","name":"accessorIndices"},{"bufferView":1,"byteOffset":367848,"componentType":5126,"count":85,"max":[0.169672,0.097199045,0.13059595],"min":[-0.169672,-5.295887E-09,-0.0063500004],"type":"VEC3","name":"accessorPositions"},{"bufferView":2,"byteOffset":245168,"componentType":5126,"count":85,"type":"VEC4","name":"accessorTangents"},{"bufferView":1,"byteOffset":368868,"componentType":5126,"count":85,"type":"VEC3","name":"accessorNormals"},{"bufferView":3,"byteOffset":122584,"componentType":5126,"count":85,"type":"VEC2","name":"accessorUVs"},{"bufferView":0,"byteOffset":100308,"componentType":5123,"count":684,"type":"SCALAR","name":"accessorIndices"},{"bufferView":1,"byteOffset":369888,"componentType":5126,"count":212,"max":[0.076200046,1.1706098,-0.61295325],"min":[-0.0762,0.5613385,-2.3013847],"type":"VEC3","name":"accessorPositions"},{"bufferView":2,"byteOffset":246528,"componentType":5126,"count":212,"type":"VEC4","name":"accessorTangents"},{"bufferView":1,"byteOffset":372432,"componentType":5126,"count":212,"type":"VEC3","name":"accessorNormals"},{"bufferView":3,"byteOffset":123264,"componentType":5126,"count":212,"type":"VEC2","name":"accessorUVs"},{"bufferView":0,"byteOffset":101676,"componentType":5123,"count":36,"type":"SCALAR","name":"accessorIndices"},{"bufferView":1,"byteOffset":374976,"componentType":5126,"count":24,"max":[0.1524,0.1016,0.0031750002],"min":[-0.1524,-0.1016,-0.0031750002],"type":"VEC3","name":"accessorPositions"},{"bufferView":2,"byteOffset":249920,"componentType":5126,"count":24,"type":"VEC4","name":"accessorTangents"},{"bufferView":1,"byteOffset":375264,"componentType":5126,"count":24,"type":"VEC3","name":"accessorNormals"},{"bufferView":3,"byteOffset":124960,"componentType":5126,"count":24,"type":"VEC2","name":"accessorUVs"},{"bufferView":0,"byteOffset":101748,"componentType":5123,"count":606,"type":"SCALAR","name":"accessorIndices"},{"bufferView":1,"byteOffset":375552,"componentType":5126,"count":276,"max":[0.01115265,0.012696092,0.0047903056],"min":[-0.011152638,-0.012696035,-0.0047901873],"type":"VEC3","name":"accessorPositions"},{"bufferView":2,"byteOffset":250304,"componentType":5126,"count":276,"type":"VEC4","name":"accessorTangents"},{"bufferView":1,"byteOffset":378864,"componentType":5126,"count":276,"type":"VEC3","name":"accessorNormals"},{"bufferView":3,"byteOffset":125152,"componentType":5126,"count":276,"type":"VEC2","name":"accessorUVs"},{"bufferView":0,"byteOffset":102960,"componentType":5123,"count":606,"type":"SCALAR","name":"accessorIndices"},{"bufferView":1,"byteOffset":382176,"componentType":5126,"count":276,"max":[0.01115265,0.012696092,0.0047903056],"min":[-0.011152638,-0.012696035,-0.0047901873],"type":"VEC3","name":"accessorPositions"},{"bufferView":2,"byteOffset":254720,"componentType":5126,"count":276,"type":"VEC4","name":"accessorTangents"},{"bufferView":1,"byteOffset":385488,"componentType":5126,"count":276,"type":"VEC3","name":"accessorNormals"},{"bufferView":3,"byteOffset":127360,"componentType":5126,"count":276,"type":"VEC2","name":"accessorUVs"},{"bufferView":0,"byteOffset":104172,"componentType":5123,"count":606,"type":"SCALAR","name":"accessorIndices"},{"bufferView":1,"byteOffset":388800,"componentType":5126,"count":276,"max":[0.01115265,0.012696092,0.0047903056],"min":[-0.011152638,-0.012696035,-0.0047901873],"type":"VEC3","name":"accessorPositions"},{"bufferView":2,"byteOffset":259136,"componentType":5126,"count":276,"type":"VEC4","name":"accessorTangents"},{"bufferView":1,"byteOffset":392112,"componentType":5126,"count":276,"type":"VEC3","name":"accessorNormals"},{"bufferView":3,"byteOffset":129568,"componentType":5126,"count":276,"type":"VEC2","name":"accessorUVs"},{"bufferView":0,"byteOffset":105384,"componentType":5123,"count":606,"type":"SCALAR","name":"accessorIndices"},{"bufferView":1,"byteOffset":395424,"componentType":5126,"count":276,"max":[0.011152646,0.012696092,0.0047903056],"min":[-0.011152643,-0.012696035,-0.0047901873],"type":"VEC3","name":"accessorPositions"},{"bufferView":2,"byteOffset":263552,"componentType":5126,"count":276,"type":"VEC4","name":"accessorTangents"},{"bufferView":1,"byteOffset":398736,"componentType":5126,"count":276,"type":"VEC3","name":"accessorNormals"},{"bufferView":3,"byteOffset":131776,"componentType":5126,"count":276,"type":"VEC2","name":"accessorUVs"},{"bufferView":0,"byteOffset":106596,"componentType":5123,"count":606,"type":"SCALAR","name":"accessorIndices"},{"bufferView":1,"byteOffset":402048,"componentType":5126,"count":276,"max":[0.011152646,0.012696092,0.0047903056],"min":[-0.011152643,-0.012696035,-0.0047901873],"type":"VEC3","name":"accessorPositions"},{"bufferView":2,"byteOffset":267968,"componentType":5126,"count":276,"type":"VEC4","name":"accessorTangents"},{"bufferView":1,"byteOffset":405360,"componentType":5126,"count":276,"type":"VEC3","name":"accessorNormals"},{"bufferView":3,"byteOffset":133984,"componentType":5126,"count":276,"type":"VEC2","name":"accessorUVs"},{"bufferView":0,"byteOffset":107808,"componentType":5123,"count":606,"type":"SCALAR","name":"accessorIndices"},{"bufferView":1,"byteOffset":408672,"componentType":5126,"count":276,"max":[0.011152646,0.012696092,0.0047903056],"min":[-0.011152643,-0.012696035,-0.0047901873],"type":"VEC3","name":"accessorPositions"},{"bufferView":2,"byteOffset":272384,"componentType":5126,"count":276,"type":"VEC4","name":"accessorTangents"},{"bufferView":1,"byteOffset":411984,"componentType":5126,"count":276,"type":"VEC3","name":"accessorNormals"},{"bufferView":3,"byteOffset":136192,"componentType":5126,"count":276,"type":"VEC2","name":"accessorUVs"},{"bufferView":0,"byteOffset":109020,"componentType":5123,"count":606,"type":"SCALAR","name":"accessorIndices"},{"bufferView":1,"byteOffset":415296,"componentType":5126,"count":276,"max":[0.01115265,0.012696092,0.0047903056],"min":[-0.011152638,-0.012696035,-0.0047901873],"type":"VEC3","name":"accessorPositions"},{"bufferView":2,"byteOffset":276800,"componentType":5126,"count":276,"type":"VEC4","name":"accessorTangents"},{"bufferView":1,"byteOffset":418608,"componentType":5126,"count":276,"type":"VEC3","name":"accessorNormals"},{"bufferView":3,"byteOffset":138400,"componentType":5126,"count":276,"type":"VEC2","name":"accessorUVs"}],"bufferViews":[{"buffer":0,"byteLength":110232,"name":"bufferViewScalar"},{"buffer":0,"byteOffset":110232,"byteLength":421920,"byteStride":12,"name":"bufferViewFloatVec3"},{"buffer":0,"byteOffset":532152,"byteLength":281216,"byteStride":16,"name":"bufferViewFloatVec4"},{"buffer":0,"byteOffset":813368,"byteLength":140608,"byteStride":8,"name":"bufferViewFloatVec2"}],"buffers":[{"uri":"U-Shaped_Stair_All-Others.bin","byteLength":953976}],"materials":[{"pbrMetallicRoughness":{"baseColorTexture":{"index":1,"extensions":{"KHR_texture_transform":{"offset":[0.44444445,0.44444442],"scale":[0.11111111,0.11111111],"texCoord":0}}},"metallicFactor":0.0,"roughnessFactor":0.95},"normalTexture":{"index":0,"extensions":{"KHR_texture_transform":{"offset":[0.44444445,0.44444442],"scale":[0.11111111,0.11111111],"texCoord":0}}},"name":"Wood","extensions":{"KHR_materials_clearcoat":{"clearcoatFactor":1.0,"clearcoatTexture":{"index":2,"extensions":{"KHR_texture_transform":{"offset":[0.44444445,0.44444442],"scale":[0.11111111,0.11111111],"texCoord":0}}},"clearcoatRoughnessFactor":0.5}}},{"pbrMetallicRoughness":{"baseColorFactor":[0.005005772,0.005005772,0.005005772,1.0],"metallicFactor":0.0,"metallicRoughnessTexture":{"index":3}},"name":"PowderCoat_Stair"},{"pbrMetallicRoughness":{"baseColorFactor":[0.9999998,0.9999999,0.9999999,1.0],"metallicFactor":0.0},"emissiveFactor":[0.9999998,0.9999999,0.9999999],"name":"LED"}],"textures":[{"sampler":0,"source":0,"name":"Wood_American Cherry_Normal.jpg"},{"sampler":0,"source":1,"name":"Wood_American Cherry_diffuse.jpg"},{"sampler":0,"source":2,"name":"Wood_American Cherry_roughness.jpg"},{"sampler":0,"source":3,"name":"PowderCoat_Roughness_2k0.jpg"}],"images":[{"uri":"textures/Wood_American Cherry_Normal.jpg"},{"uri":"textures/Wood_American Cherry_diffuse.jpg"},{"uri":"textures/Wood_American Cherry_roughness.jpg"},{"uri":"textures/PowderCoat_Roughness_2k0.jpg"}],"samplers":[{"magFilter":9729,"minFilter":9987}],"extensions":{"KHR_lights_punctual":{"lights":[{"color":[0.99999994,0.99999994,1.0000001],"intensity":0.1,"type":"point"},{"color":[0.99999994,0.99999994,1.0000001],"intensity":0.1,"type":"point"},{"color":[0.99999994,0.99999994,1.0000001],"intensity":0.1,"type":"point"},{"color":[0.99999994,0.99999994,1.0000001],"intensity":0.1,"type":"point"},{"color":[0.99999994,0.99999994,1.0000001],"intensity":0.1,"type":"point"},{"color":[0.99999994,0.99999994,1.0000001],"intensity":0.1,"type":"point"},{"color":[0.99999994,0.99999994,1.0000001],"intensity":0.1,"type":"point"},{"color":[0.99999994,0.99999994,1.0000001],"intensity":0.1,"type":"point"},{"color":[0.99999994,0.99999994,1.0000001],"intensity":0.1,"type":"point"},{"color":[0.99999994,0.99999994,1.0000001],"intensity":0.1,"type":"point"},{"color":[0.99999994,0.99999994,1.0000001],"intensity":0.1,"type":"point"},{"color":[0.99999994,0.99999994,1.0000001],"intensity":0.1,"type":"point"},{"color":[0.99999994,0.99999994,1.0000001],"intensity":0.1,"type":"point"},{"color":[0.99999994,0.99999994,1.0000001],"intensity":0.1,"type":"point"},{"color":[0.99999994,0.99999994,1.0000001],"intensity":0.1,"type":"point"},{"color":[0.99999994,0.99999994,1.0000001],"intensity":0.1,"type":"point"},{"color":[0.99999994,0.99999994,1.0000001],"intensity":0.1,"type":"point"},{"color":[0.99999994,0.99999994,1.0000001],"intensity":0.1,"type":"point"},{"color":[0.99999994,0.99999994,1.0000001],"intensity":0.1,"type":"point"},{"color":[0.99999994,0.99999994,1.0000001],"intensity":0.1,"type":"point"},{"color":[0.99999994,0.99999994,1.0000001],"intensity":0.1,"type":"point"},{"color":[0.99999994,0.99999994,1.0000001],"intensity":0.1,"type":"point"},{"color":[0.99999994,0.99999994,1.0000001],"intensity":0.1,"type":"point"},{"color":[0.99999994,0.99999994,1.0000001],"intensity":0.1,"type":"point"},{"color":[0.99999994,0.99999994,1.0000001],"intensity":0.1,"type":"point"},{"color":[0.99999994,0.99999994,1.0000001],"intensity":0.1,"type":"point"},{"color":[0.99999994,0.99999994,1.0000001],"intensity":0.1,"type":"point"},{"color":[0.99999994,0.99999994,1.0000001],"intensity":0.1,"type":"point"},{"color":[0.99999994,0.99999994,1.0000001],"intensity":0.1,"type":"point"},{"color":[0.99999994,0.99999994,1.0000001],"intensity":0.1,"type":"point"},{"color":[0.99999994,0.99999994,1.0000001],"intensity":0.1,"type":"point"},{"color":[0.99999994,0.99999994,1.0000001],"intensity":0.1,"type":"point"},{"color":[0.99999994,0.99999994,1.0000001],"intensity":0.1,"type":"point"},{"color":[0.99999994,0.99999994,1.0000001],"intensity":0.1,"type":"point"},{"color":[0.99999994,0.99999994,1.0000001],"intensity":0.1,"type":"point"},{"color":[0.99999994,0.99999994,1.0000001],"intensity":0.1,"type":"point"},{"color":[0.99999994,0.99999994,1.0000001],"intensity":0.1,"type":"point"},{"color":[0.99999994,0.99999994,1.0000001],"intensity":0.1,"type":"point"},{"color":[0.99999994,0.99999994,1.0000001],"intensity":0.1,"type":"point"},{"color":[0.99999994,0.99999994,1.0000001],"intensity":0.1,"type":"point"},{"color":[0.99999994,0.99999994,1.0000001],"intensity":0.1,"type":"point"},{"color":[0.99999994,0.99999994,1.0000001],"intensity":0.1,"type":"point"}]}}}