{"asset":{"version":"2.0","generator":"babylon.js glTF exporter for 3dsmax 2026 v20251111.2"},"extensionsUsed":["KHR_materials_ior","KHR_materials_transmission","KHR_materials_volume","KHR_texture_transform"],"extensionsRequired":["KHR_texture_transform"],"scene":0,"scenes":[{"nodes":[0,1,2,3,4,5,6,7,8,9,10,11,12,13,14]}],"nodes":[{"mesh":0,"translation":[1.0859545,3.119816,-1.130914],"name":"Casework 2 Casework 1 [8743341]001"},{"mesh":1,"translation":[1.2352712,2.8246546,0.029523006],"name":"Casework 5 Casework 1 [8445778]001"},{"mesh":2,"translation":[0.746066,2.361354,0.8593336],"name":"Generic Models 7 Generic Models 1 [8445814]002"},{"mesh":3,"translation":[1.116807,3.6667562,-0.57498205],"name":"Generic Models 11 Generic Models 11 [8762451]003"},{"mesh":4,"translation":[1.7224109,3.760069,0.029593417],"name":"Generic Models 11 Generic Models 11 [8762451]004"},{"mesh":5,"translation":[-0.41466177,1.8351496,0.2196456],"rotation":[-0.0,-0.7071068,0.0,0.7071067],"name":"Casework 4 Casework 1 [8744916]002"},{"mesh":6,"translation":[0.7460507,1.8297563,0.8572834],"rotation":[-0.0,-0.7071068,0.0,0.7071067],"name":"Casework 6 Casework 1 [8445804]002"},{"mesh":7,"translation":[-0.41456148,1.8398468,1.3170185],"rotation":[-0.0,0.7071068,0.0,0.7071067],"name":"Casework 2 Casework 1 [8743341]003"},{"mesh":8,"translation":[0.93599784,0.5551805,2.8176339],"name":"Casework 4 Casework 1 [8744916]004"},{"mesh":9,"translation":[1.5736357,0.54978704,1.6569221],"name":"Casework 6 Casework 1 [8445804]004"},{"mesh":10,"translation":[0.18575175,2.386787,1.3306292],"rotation":[-0.0,0.7071068,0.0,0.7071067],"name":"Generic Models 11 Generic Models 11 [8762451]008"},{"mesh":11,"translation":[1.1795489,1.35354,1.6569082],"name":"Generic Models 7 Generic Models 1 [8445814]004"},{"mesh":12,"translation":[1.5450405,1.0837624,2.8175886],"name":"Object005"},{"mesh":13,"translation":[1.1755842,0.7514244,2.8176339],"name":"Object010"},{"mesh":14,"translation":[-0.414583,2.3636966,0.82490027],"rotation":[-0.0,-0.7071068,0.0,0.7071067],"name":"Object012"}],"meshes":[{"primitives":[{"attributes":{"POSITION":1,"TANGENT":2,"NORMAL":3,"TEXCOORD_0":4},"indices":0,"material":0}],"name":"Casework 2 Casework 1 [8743341]001"},{"primitives":[{"attributes":{"POSITION":6,"TANGENT":7,"NORMAL":8,"TEXCOORD_0":9},"indices":5,"material":0}],"name":"Casework 5 Casework 1 [8445778]001"},{"primitives":[{"attributes":{"POSITION":11,"TANGENT":12,"NORMAL":13,"TEXCOORD_0":14},"indices":10,"material":1},{"attributes":{"POSITION":16,"TANGENT":17,"NORMAL":18,"TEXCOORD_0":19},"indices":15,"material":2}],"name":"Generic Models 7 Generic Models 1 [8445814]002"},{"primitives":[{"attributes":{"POSITION":21,"TANGENT":22,"NORMAL":23,"TEXCOORD_0":24},"indices":20,"material":1},{"attributes":{"POSITION":26,"TANGENT":27,"NORMAL":28,"TEXCOORD_0":29},"indices":25,"material":2}],"name":"Generic Models 11 Generic Models 11 [8762451]003"},{"primitives":[{"attributes":{"POSITION":31,"TANGENT":32,"NORMAL":33,"TEXCOORD_0":34},"indices":30,"material":1},{"attributes":{"POSITION":36,"TANGENT":37,"NORMAL":38,"TEXCOORD_0":39},"indices":35,"material":2}],"name":"Generic Models 11 Generic Models 11 [8762451]004"},{"primitives":[{"attributes":{"POSITION":41,"TANGENT":42,"NORMAL":43,"TEXCOORD_0":44},"indices":40,"material":0}],"name":"Casework 4 Casework 1 [8744916]002"},{"primitives":[{"attributes":{"POSITION":46,"TANGENT":47,"NORMAL":48,"TEXCOORD_0":49},"indices":45,"material":0}],"name":"Casework 6 Casework 1 [8445804]002"},{"primitives":[{"attributes":{"POSITION":51,"TANGENT":52,"NORMAL":53,"TEXCOORD_0":54},"indices":50,"material":0}],"name":"Casework 2 Casework 1 [8743341]003"},{"primitives":[{"attributes":{"POSITION":56,"TANGENT":57,"NORMAL":58,"TEXCOORD_0":59},"indices":55,"material":0}],"name":"Casework 4 Casework 1 [8744916]004"},{"primitives":[{"attributes":{"POSITION":61,"TANGENT":62,"NORMAL":63,"TEXCOORD_0":64},"indices":60,"material":0}],"name":"Casework 6 Casework 1 [8445804]004"},{"primitives":[{"attributes":{"POSITION":66,"TANGENT":67,"NORMAL":68,"TEXCOORD_0":69},"indices":65,"material":1}],"name":"Generic Models 11 Generic Models 11 [8762451]008"},{"primitives":[{"attributes":{"POSITION":71,"TANGENT":72,"NORMAL":73,"TEXCOORD_0":74},"indices":70,"material":1},{"attributes":{"POSITION":76,"TANGENT":77,"NORMAL":78,"TEXCOORD_0":79},"indices":75,"material":2}],"name":"Generic Models 7 Generic Models 1 [8445814]004"},{"primitives":[{"attributes":{"POSITION":81,"TANGENT":82,"NORMAL":83,"TEXCOORD_0":84},"indices":80,"material":1},{"attributes":{"POSITION":86,"TANGENT":87,"NORMAL":88,"TEXCOORD_0":89},"indices":85,"material":2}],"name":"Object005"},{"primitives":[{"attributes":{"POSITION":91,"TANGENT":92,"NORMAL":93,"TEXCOORD_0":94},"indices":90,"material":0}],"name":"Object010"},{"primitives":[{"attributes":{"POSITION":96,"TANGENT":97,"NORMAL":98,"TEXCOORD_0":99},"indices":95,"material":1}],"name":"Object012"}],"accessors":[{"bufferView":0,"componentType":5123,"count":684,"type":"SCALAR","name":"accessorIndices"},{"bufferView":1,"componentType":5126,"count":417,"max":[0.45585278,0.5245661,0.0071623535],"min":[-1.484462,-1.2351322,-0.0071623535],"type":"VEC3","name":"accessorPositions"},{"bufferView":2,"componentType":5126,"count":417,"type":"VEC4","name":"accessorTangents"},{"bufferView":1,"byteOffset":5004,"componentType":5126,"count":417,"type":"VEC3","name":"accessorNormals"},{"bufferView":3,"componentType":5126,"count":417,"type":"VEC2","name":"accessorUVs"},{"bufferView":0,"byteOffset":1368,"componentType":5123,"count":348,"type":"SCALAR","name":"accessorIndices"},{"bufferView":1,"byteOffset":10008,"componentType":5126,"count":154,"max":[0.30653593,0.82040095,0.0071623614],"min":[-0.45339525,-0.92129666,-0.0071623535],"type":"VEC3","name":"accessorPositions"},{"bufferView":2,"byteOffset":6672,"componentType":5126,"count":154,"type":"VEC4","name":"accessorTangents"},{"bufferView":1,"byteOffset":11856,"componentType":5126,"count":154,"type":"VEC3","name":"accessorNormals"},{"bufferView":3,"byteOffset":3336,"componentType":5126,"count":154,"type":"VEC2","name":"accessorUVs"},{"bufferView":0,"byteOffset":2064,"componentType":5123,"count":4641,"type":"SCALAR","name":"accessorIndices"},{"bufferView":1,"byteOffset":13704,"componentType":5126,"count":1703,"max":[0.01906388,0.57038933,0.7980653],"min":[-0.019059628,-0.5703893,-0.7980652],"type":"VEC3","name":"accessorPositions"},{"bufferView":2,"byteOffset":9136,"componentType":5126,"count":1703,"type":"VEC4","name":"accessorTangents"},{"bufferView":1,"byteOffset":34140,"componentType":5126,"count":1703,"type":"VEC3","name":"accessorNormals"},{"bufferView":3,"byteOffset":4568,"componentType":5126,"count":1703,"type":"VEC2","name":"accessorUVs"},{"bufferView":0,"byteOffset":11348,"componentType":5123,"count":1155,"type":"SCALAR","name":"accessorIndices"},{"bufferView":1,"byteOffset":54576,"componentType":5126,"count":1133,"max":[0.019063625,0.57038933,0.7980653],"min":[-0.019059628,-0.5703893,-0.7980652],"type":"VEC3","name":"accessorPositions"},{"bufferView":2,"byteOffset":36384,"componentType":5126,"count":1133,"type":"VEC4","name":"accessorTangents"},{"bufferView":1,"byteOffset":68172,"componentType":5126,"count":1133,"type":"VEC3","name":"accessorNormals"},{"bufferView":3,"byteOffset":18192,"componentType":5126,"count":1133,"type":"VEC2","name":"accessorUVs"},{"bufferView":0,"byteOffset":13660,"componentType":5123,"count":3726,"type":"SCALAR","name":"accessorIndices"},{"bufferView":1,"byteOffset":81768,"componentType":5126,"count":1711,"max":[0.42851114,-0.00704554,0.5749626],"min":[-1.550458,-0.7637591,-0.5749624],"type":"VEC3","name":"accessorPositions"},{"bufferView":2,"byteOffset":54512,"componentType":5126,"count":1711,"type":"VEC4","name":"accessorTangents"},{"bufferView":1,"byteOffset":102300,"componentType":5126,"count":1711,"type":"VEC3","name":"accessorNormals"},{"bufferView":3,"byteOffset":27256,"componentType":5126,"count":1711,"type":"VEC2","name":"accessorUVs"},{"bufferView":0,"byteOffset":21112,"componentType":5123,"count":246,"type":"SCALAR","name":"accessorIndices"},{"bufferView":1,"byteOffset":122832,"componentType":5126,"count":196,"max":[0.42851114,-0.00704554,-0.53686243],"min":[0.42851081,-0.053254988,-0.5749624],"type":"VEC3","name":"accessorPositions"},{"bufferView":2,"byteOffset":81888,"componentType":5126,"count":196,"type":"VEC4","name":"accessorTangents"},{"bufferView":1,"byteOffset":125184,"componentType":5126,"count":196,"type":"VEC3","name":"accessorNormals"},{"bufferView":3,"byteOffset":40944,"componentType":5126,"count":196,"type":"VEC2","name":"accessorUVs"},{"bufferView":0,"byteOffset":21604,"componentType":5123,"count":4080,"type":"SCALAR","name":"accessorIndices"},{"bufferView":1,"byteOffset":127536,"componentType":5126,"count":1526,"max":[-0.1770929,-0.1003581,0.01906285],"min":[-0.9448542,-0.6704461,-0.019062731],"type":"VEC3","name":"accessorPositions"},{"bufferView":2,"byteOffset":85024,"componentType":5126,"count":1526,"type":"VEC4","name":"accessorTangents"},{"bufferView":1,"byteOffset":145848,"componentType":5126,"count":1526,"type":"VEC3","name":"accessorNormals"},{"bufferView":3,"byteOffset":42512,"componentType":5126,"count":1526,"type":"VEC2","name":"accessorUVs"},{"bufferView":0,"byteOffset":29764,"componentType":5123,"count":738,"type":"SCALAR","name":"accessorIndices"},{"bufferView":1,"byteOffset":164160,"componentType":5126,"count":252,"max":[-0.1770929,-0.1003581,0.01906285],"min":[-0.9448542,-0.6704461,-0.019062731],"type":"VEC3","name":"accessorPositions"},{"bufferView":2,"byteOffset":109440,"componentType":5126,"count":252,"type":"VEC4","name":"accessorTangents"},{"bufferView":1,"byteOffset":167184,"componentType":5126,"count":252,"type":"VEC3","name":"accessorNormals"},{"bufferView":3,"byteOffset":54720,"componentType":5126,"count":252,"type":"VEC2","name":"accessorUVs"},{"bufferView":0,"byteOffset":31240,"componentType":5123,"count":300,"type":"SCALAR","name":"accessorIndices"},{"bufferView":1,"byteOffset":170208,"componentType":5126,"count":206,"max":[0.7450592,1.09093,0.0071623577],"min":[-1.3343991,-0.76489663,-0.0071623577],"type":"VEC3","name":"accessorPositions"},{"bufferView":2,"byteOffset":113472,"componentType":5126,"count":206,"type":"VEC4","name":"accessorTangents"},{"bufferView":1,"byteOffset":172680,"componentType":5126,"count":206,"type":"VEC3","name":"accessorNormals"},{"bufferView":3,"byteOffset":56736,"componentType":5126,"count":206,"type":"VEC2","name":"accessorUVs"},{"bufferView":0,"byteOffset":31840,"componentType":5123,"count":300,"type":"SCALAR","name":"accessorIndices"},{"bufferView":1,"byteOffset":175152,"componentType":5126,"count":192,"max":[0.7921633,1.0837114,0.007162355],"min":[-0.7914124,-1.0855365,-0.0071623535],"type":"VEC3","name":"accessorPositions"},{"bufferView":2,"byteOffset":116768,"componentType":5126,"count":192,"type":"VEC4","name":"accessorTangents"},{"bufferView":1,"byteOffset":177456,"componentType":5126,"count":192,"type":"VEC3","name":"accessorNormals"},{"bufferView":3,"byteOffset":58384,"componentType":5126,"count":192,"type":"VEC2","name":"accessorUVs"},{"bufferView":0,"byteOffset":32440,"componentType":5123,"count":300,"type":"SCALAR","name":"accessorIndices"},{"bufferView":1,"byteOffset":179760,"componentType":5126,"count":207,"max":[0.3395819,0.44191706,0.0071623535],"min":[-1.484462,-1.2351322,-0.0071623656],"type":"VEC3","name":"accessorPositions"},{"bufferView":2,"byteOffset":119840,"componentType":5126,"count":207,"type":"VEC4","name":"accessorTangents"},{"bufferView":1,"byteOffset":182244,"componentType":5126,"count":207,"type":"VEC3","name":"accessorNormals"},{"bufferView":3,"byteOffset":59920,"componentType":5126,"count":207,"type":"VEC2","name":"accessorUVs"},{"bufferView":0,"byteOffset":33040,"componentType":5123,"count":168,"type":"SCALAR","name":"accessorIndices"},{"bufferView":1,"byteOffset":184728,"componentType":5126,"count":116,"max":[-0.17357334,1.09093,0.0071623577],"min":[-1.3343991,-0.13372426,-0.0071623577],"type":"VEC3","name":"accessorPositions"},{"bufferView":2,"byteOffset":123152,"componentType":5126,"count":116,"type":"VEC4","name":"accessorTangents"},{"bufferView":1,"byteOffset":186120,"componentType":5126,"count":116,"type":"VEC3","name":"accessorNormals"},{"bufferView":3,"byteOffset":61576,"componentType":5126,"count":116,"type":"VEC2","name":"accessorUVs"},{"bufferView":0,"byteOffset":33376,"componentType":5123,"count":192,"type":"SCALAR","name":"accessorIndices"},{"bufferView":1,"byteOffset":187512,"componentType":5126,"count":118,"max":[0.002451426,1.0837114,0.007162355],"min":[-0.7914124,-0.5367863,-0.0071623535],"type":"VEC3","name":"accessorPositions"},{"bufferView":2,"byteOffset":125008,"componentType":5126,"count":118,"type":"VEC4","name":"accessorTangents"},{"bufferView":1,"byteOffset":188928,"componentType":5126,"count":118,"type":"VEC3","name":"accessorNormals"},{"bufferView":3,"byteOffset":62504,"componentType":5126,"count":118,"type":"VEC2","name":"accessorUVs"},{"bufferView":0,"byteOffset":33760,"componentType":5123,"count":2436,"type":"SCALAR","name":"accessorIndices"},{"bufferView":1,"byteOffset":190344,"componentType":5126,"count":858,"max":[0.47089642,-0.0052303495,0.5305816],"min":[-1.5059946,-0.7637591,-0.619318],"type":"VEC3","name":"accessorPositions"},{"bufferView":2,"byteOffset":126896,"componentType":5126,"count":858,"type":"VEC4","name":"accessorTangents"},{"bufferView":1,"byteOffset":200640,"componentType":5126,"count":858,"type":"VEC3","name":"accessorNormals"},{"bufferView":3,"byteOffset":63448,"componentType":5126,"count":858,"type":"VEC2","name":"accessorUVs"},{"bufferView":0,"byteOffset":38632,"componentType":5123,"count":4269,"type":"SCALAR","name":"accessorIndices"},{"bufferView":1,"byteOffset":210936,"componentType":5126,"count":1606,"max":[0.4019313,0.2982344,0.019061627],"min":[-0.4019313,-0.29823455,-0.019061627],"type":"VEC3","name":"accessorPositions"},{"bufferView":2,"byteOffset":140624,"componentType":5126,"count":1606,"type":"VEC4","name":"accessorTangents"},{"bufferView":1,"byteOffset":230208,"componentType":5126,"count":1606,"type":"VEC3","name":"accessorNormals"},{"bufferView":3,"byteOffset":70312,"componentType":5126,"count":1606,"type":"VEC2","name":"accessorUVs"},{"bufferView":0,"byteOffset":47172,"componentType":5123,"count":1035,"type":"SCALAR","name":"accessorIndices"},{"bufferView":1,"byteOffset":249480,"componentType":5126,"count":1033,"max":[0.4019313,0.2982344,0.019061627],"min":[-0.4019313,-0.29823455,-0.019061627],"type":"VEC3","name":"accessorPositions"},{"bufferView":2,"byteOffset":166320,"componentType":5126,"count":1033,"type":"VEC4","name":"accessorTangents"},{"bufferView":1,"byteOffset":261876,"componentType":5126,"count":1033,"type":"VEC3","name":"accessorNormals"},{"bufferView":3,"byteOffset":83160,"componentType":5126,"count":1033,"type":"VEC2","name":"accessorUVs"},{"bufferView":0,"byteOffset":49244,"componentType":5123,"count":2679,"type":"SCALAR","name":"accessorIndices"},{"bufferView":1,"byteOffset":274272,"componentType":5126,"count":926,"max":[0.036437374,0.5728089,0.019061415],"min":[-0.8287076,-0.028500414,-0.019061843],"type":"VEC3","name":"accessorPositions"},{"bufferView":2,"byteOffset":182848,"componentType":5126,"count":926,"type":"VEC4","name":"accessorTangents"},{"bufferView":1,"byteOffset":285384,"componentType":5126,"count":926,"type":"VEC3","name":"accessorNormals"},{"bufferView":3,"byteOffset":91424,"componentType":5126,"count":926,"type":"VEC2","name":"accessorUVs"},{"bufferView":0,"byteOffset":54604,"componentType":5123,"count":246,"type":"SCALAR","name":"accessorIndices"},{"bufferView":1,"byteOffset":296496,"componentType":5126,"count":84,"max":[0.036437374,0.017725999,0.019061415],"min":[0.03643726,-0.028500354,-0.019038592],"type":"VEC3","name":"accessorPositions"},{"bufferView":2,"byteOffset":197664,"componentType":5126,"count":84,"type":"VEC4","name":"accessorTangents"},{"bufferView":1,"byteOffset":297504,"componentType":5126,"count":84,"type":"VEC3","name":"accessorNormals"},{"bufferView":3,"byteOffset":98832,"componentType":5126,"count":84,"type":"VEC2","name":"accessorUVs"},{"bufferView":0,"byteOffset":55096,"componentType":5123,"count":192,"type":"SCALAR","name":"accessorIndices"},{"bufferView":1,"byteOffset":298512,"componentType":5126,"count":120,"max":[0.40046033,0.8889749,0.007162354],"min":[-0.40046033,-0.73842376,-0.0071623535],"type":"VEC3","name":"accessorPositions"},{"bufferView":2,"byteOffset":199008,"componentType":5126,"count":120,"type":"VEC4","name":"accessorTangents"},{"bufferView":1,"byteOffset":299952,"componentType":5126,"count":120,"type":"VEC3","name":"accessorNormals"},{"bufferView":3,"byteOffset":99504,"componentType":5126,"count":120,"type":"VEC2","name":"accessorUVs"},{"bufferView":0,"byteOffset":55480,"componentType":5123,"count":1929,"type":"SCALAR","name":"accessorIndices"},{"bufferView":1,"byteOffset":301392,"componentType":5126,"count":673,"max":[0.0348354,0.5728089,0.019033514],"min":[-0.8248909,-0.022990197,-0.019061854],"type":"VEC3","name":"accessorPositions"},{"bufferView":2,"byteOffset":200928,"componentType":5126,"count":673,"type":"VEC4","name":"accessorTangents"},{"bufferView":1,"byteOffset":309468,"componentType":5126,"count":673,"type":"VEC3","name":"accessorNormals"},{"bufferView":3,"byteOffset":100464,"componentType":5126,"count":673,"type":"VEC2","name":"accessorUVs"}],"bufferViews":[{"buffer":0,"byteLength":59340,"name":"bufferViewScalar"},{"buffer":0,"byteOffset":59340,"byteLength":317544,"byteStride":12,"name":"bufferViewFloatVec3"},{"buffer":0,"byteOffset":376884,"byteLength":211696,"byteStride":16,"name":"bufferViewFloatVec4"},{"buffer":0,"byteOffset":588580,"byteLength":105848,"byteStride":8,"name":"bufferViewFloatVec2"}],"buffers":[{"uri":"U-Shaped_Railing_Optik-Boss_Wood-Cap.bin","byteLength":694428}],"materials":[{"pbrMetallicRoughness":{"baseColorFactor":[0.9999998,0.9999999,0.9999999,1.0],"metallicFactor":0.0,"roughnessFactor":0.1},"name":"Glass","extensions":{"KHR_materials_ior":{"ior":1.0},"KHR_materials_transmission":{"transmissionFactor":0.97},"KHR_materials_volume":{"thicknessFactor":0.56,"attenuationDistance":0.5,"attenuationColor":[0.49521634,0.56476736,0.5317566]}}},{"pbrMetallicRoughness":{"baseColorFactor":[0.9999998,0.9999999,0.9999999,1.0],"baseColorTexture":{"index":0,"extensions":{"KHR_texture_transform":{"offset":[0.19519997,0.8048],"rotation":1.5707964,"scale":[0.6096,0.6096],"texCoord":0}}},"roughnessFactor":0.2,"metallicRoughnessTexture":{"index":0,"extensions":{"KHR_texture_transform":{"offset":[0.19519997,0.8048],"rotation":1.5707964,"scale":[0.6096,0.6096],"texCoord":0}}}},"name":"Steel_Linear"},{"pbrMetallicRoughness":{"baseColorFactor":[0.9999998,0.9999999,0.9999999,1.0],"baseColorTexture":{"index":1},"roughnessFactor":0.2,"metallicRoughnessTexture":{"index":1}},"name":"Steel_Radial"}],"textures":[{"sampler":0,"source":0,"name":"Metal_Brushed_Linear_4k.jpg"},{"sampler":0,"source":1,"name":"Metal_Brushed_Radial_4k.jpg"}],"images":[{"uri":"textures/Metal_Brushed_Linear_4k.jpg"},{"uri":"textures/Metal_Brushed_Radial_4k.jpg"}],"samplers":[{"magFilter":9729,"minFilter":9987}]}