{"asset":{"version":"2.0","generator":"babylon.js glTF exporter for 3dsmax 2026 v20251111.2"},"extensionsUsed":["KHR_materials_ior","KHR_materials_transmission","KHR_materials_volume","KHR_texture_transform","KHR_materials_specular"],"extensionsRequired":["KHR_texture_transform"],"scene":0,"scenes":[{"nodes":[0,1,2,3,4,5,6,7,8,9,10,11,12,13,14,15,16,17,18,19,20,21,22,23,24,25,26,27,28,29,30,31,32,33,34,35,36,37,38,39,40,41,42,43,44,45,46,47,48,49,50,51,52,53,54,55,56,57,58,59,60,61,62,63,64,65,66,67,68,69,70,71,72,73,74,75,76,77,78,79,80,81,82,83,84,85,86,87,88,89,90,91,92,93,94,95,96,97,98,99,100,101,102,103,104,105,106,107,108,109,110,111,112,113,114,115,116,117,118,119,120,121,122,123,124,125,126,127,128,129,130,131,132,133,134,135,136,137,138,139,140,141,142,143,144,145,146,147,148,149,150,151,152,153,154,155,156,157,158,159,160,161,162,163,164,165,166,167,168,169,170,171,172,173,174,175,176,177,178,179,180,181,182,183,184,185,186,187,188,189,190,191,192,193,194,195,196,197,198,199,200,201,202,203,204,205,206,207,208,209,210,211,212,213,214,215,216,217,218,219,220,221,222,223,224,225,226,227,228,229,230,231,232,233,234,235,236,237,238,239,240,241,242,243,244,245,246,247,248,249,250,251,252,253,254,255,256,257,258,259,260,261]}],"nodes":[{"mesh":0,"translation":[0.8829833,2.8968084,-0.076767445],"name":"Infill_Glass_Raked & Horizontal Generic [8199751]"},{"mesh":1,"translation":[0.6395117,2.209226,0.4102712],"name":"Infill_Glass_Transition Generic [8202170]"},{"mesh":2,"translation":[0.63959336,2.3637831,0.8204894],"name":"Generic Models 1 Generic Models 1 [8568048]"},{"mesh":3,"translation":[-0.30818832,2.3637452,0.8378442],"name":"Generic Models 10 Generic Models 1 [8735975]"},{"mesh":4,"translation":[0.067898184,2.601503,-1.0244794],"rotation":[-0.0,3.133859E-15,0.0,1.0],"name":"Infill_Glass_Raked & Horizontal Generic [8737682]"},{"mesh":5,"translation":[1.022491,2.8665884,-1.0244794],"name":"Casework 1 Casework 1 [8738332]"},{"mesh":6,"translation":[-0.30819747,2.601503,-0.64838374],"rotation":[-0.0,-0.7071068,0.0,0.7071067],"name":"Infill_Glass_Raked & Horizontal Generic [8738822]"},{"mesh":7,"translation":[-0.30820024,2.2095554,0.44231918],"rotation":[-0.0,0.7071068,0.0,0.7071068],"name":"Infill_Glass_Raked & Horizontal Generic [8739593]"},{"mesh":8,"translation":[0.8471336,2.19456,-0.020391779],"rotation":[0.5000001,0.49999997,0.49999985,0.50000006],"name":"LS201 & LS202 - Konic Post Material LS Material [9048531]001"},{"mesh":9,"translation":[1.4286326,2.56032,-0.020391779],"rotation":[0.5000001,0.49999997,0.49999985,0.50000006],"name":"LS201 & LS202 - Konic Post Material LS Material [9048587]001"},{"mesh":10,"translation":[0.695885,1.2801597,0.9735472],"rotation":[-0.7071067,-0.7071068,-1.1520233E-07,-1.1520231E-07],"name":"LS201 & LS202 - Konic Post Material LS Material [9048634]001"},{"mesh":11,"translation":[-0.36457586,1.8287997,0.17503314],"rotation":[6.322028E-08,6.322026E-08,0.70710665,0.7071069],"name":"LS201 & LS202 - Konic Post Material LS Material [9048819]001"},{"mesh":11,"translation":[0.695885,1.8287997,0.17503314],"rotation":[-0.7071069,-0.70710665,1.3627573E-07,1.3627576E-07],"name":"LS201 & LS202 - Konic Post Material LS Material [9048819]002"},{"mesh":12,"translation":[-0.36457586,1.2801597,0.9735472],"rotation":[6.322028E-08,6.322026E-08,0.70710665,0.7071069],"name":"LS201 & LS202 - Konic Post Material LS Material [9048829]001"},{"mesh":13,"translation":[1.4286326,2.56032,-1.0808526],"rotation":[-0.5,-0.50000006,0.5,0.49999994],"name":"LS201 & LS202 - Konic Post Material LS Material [9048890]001"},{"mesh":14,"translation":[0.61646223,2.0116792,-1.0808526],"rotation":[-0.5,-0.50000006,0.5,0.49999994],"name":"LS201 & LS202 - Konic Post Material LS Material [9048914]001"},{"mesh":15,"translation":[0.34976223,2.0116792,-1.0808526],"rotation":[-0.5,-0.50000006,0.5,0.49999994],"name":"LS201 & LS202 - Konic Post Material LS Material [9048949]001"},{"mesh":16,"translation":[-0.16507147,2.0116792,-1.0808526],"rotation":[-0.5,-0.50000006,0.5,0.49999994],"name":"LS201 & LS202 - Konic Post Material LS Material [9048969]001"},{"mesh":17,"translation":[-0.36457556,2.0116792,-0.88134855],"rotation":[5.533139E-22,-5.533139E-22,0.7071068,0.7071067],"name":"LS201 & LS202 - Konic Post Material LS Material [9048987]001"},{"mesh":18,"translation":[-0.36457586,2.0116792,-0.07843975],"rotation":[6.322028E-08,6.322026E-08,0.70710665,0.7071069],"name":"LS201 & LS202 - Konic Post Material LS Material [9049081]001"},{"mesh":19,"translation":[0.8471336,3.0230312,-0.08391813],"rotation":[-0.0,4.524159E-15,0.0,1.0],"name":"KON021 - Konic Washer Part [9193945]053"},{"mesh":19,"translation":[0.8471336,2.4642315,-0.08391813],"rotation":[-0.0,4.524159E-15,0.0,1.0],"name":"KON021 - Konic Washer Part [9193945]054"},{"mesh":19,"translation":[1.4286326,3.3887916,-0.08391813],"rotation":[-0.0,4.524159E-15,0.0,1.0],"name":"KON021 - Konic Washer Part [9193945]059"},{"mesh":19,"translation":[1.4286326,2.8299918,-0.08391813],"rotation":[-0.0,4.524159E-15,0.0,1.0],"name":"KON021 - Konic Washer Part [9193945]060"},{"mesh":19,"translation":[0.6323633,2.1086316,0.9735472],"rotation":[-0.0,0.7071068,0.0,0.7071067],"name":"KON021 - Konic Washer Part [9193945]065"},{"mesh":19,"translation":[0.6323633,1.5498313,0.9735472],"rotation":[-0.0,0.7071068,0.0,0.7071067],"name":"KON021 - Konic Washer Part [9193945]066"},{"mesh":19,"translation":[-0.3010495,2.6572716,0.17503314],"rotation":[-0.0,-0.7071068,0.0,0.7071067],"name":"KON021 - Konic Washer Part [9193945]069"},{"mesh":19,"translation":[-0.3010495,2.0984716,0.17503314],"rotation":[-0.0,-0.7071068,0.0,0.7071067],"name":"KON021 - Konic Washer Part [9193945]070"},{"mesh":19,"translation":[-0.3010495,2.1086316,0.9735472],"rotation":[-0.0,-0.7071068,0.0,0.7071067],"name":"KON021 - Konic Washer Part [9193945]073"},{"mesh":19,"translation":[-0.3010495,1.5498313,0.9735472],"rotation":[-0.0,-0.7071068,0.0,0.7071067],"name":"KON021 - Konic Washer Part [9193945]074"},{"mesh":19,"translation":[1.4286326,3.3887916,-1.0173309],"rotation":[-0.0,-1.0,0.0,4.371139E-08],"name":"KON021 - Konic Washer Part [9193945]081"},{"mesh":19,"translation":[1.4286326,2.8299918,-1.0173309],"rotation":[-0.0,-1.0,0.0,4.371139E-08],"name":"KON021 - Konic Washer Part [9193945]082"},{"mesh":19,"translation":[0.61646223,2.8401513,-1.0173309],"rotation":[-0.0,-1.0,0.0,4.371139E-08],"name":"KON021 - Konic Washer Part [9193945]083"},{"mesh":19,"translation":[0.61646223,2.281351,-1.0173309],"rotation":[-0.0,-1.0,0.0,4.371139E-08],"name":"KON021 - Konic Washer Part [9193945]084"},{"mesh":19,"translation":[0.34976223,2.7578046,-1.0173309],"rotation":[-0.0,-1.0,0.0,4.371139E-08],"name":"KON021 - Konic Washer Part [9193945]085"},{"mesh":19,"translation":[0.34976223,2.1990044,-1.0173309],"rotation":[-0.0,-1.0,0.0,4.371139E-08],"name":"KON021 - Konic Washer Part [9193945]086"},{"mesh":19,"translation":[-0.16507147,2.7578046,-1.0173309],"rotation":[-0.0,-1.0,0.0,-2.8212997E-07],"name":"KON021 - Konic Washer Part [9193945]087"},{"mesh":19,"translation":[-0.16507147,2.1990044,-1.0173309],"rotation":[-0.0,-1.0,0.0,-2.8212997E-07],"name":"KON021 - Konic Washer Part [9193945]088"},{"mesh":19,"translation":[-0.30105385,2.7578046,-0.88134855],"rotation":[-0.0,-0.7071068,0.0,0.7071068],"name":"KON021 - Konic Washer Part [9193945]089"},{"mesh":19,"translation":[-0.30105385,2.1990044,-0.88134855],"rotation":[-0.0,-0.7071068,0.0,0.7071068],"name":"KON021 - Konic Washer Part [9193945]090"},{"mesh":19,"translation":[-0.3010495,2.7578046,-0.07843975],"rotation":[-0.0,-0.7071066,0.0,0.70710695],"name":"KON021 - Konic Washer Part [9193945]099"},{"mesh":19,"translation":[-0.3010495,2.1990044,-0.07843975],"rotation":[-0.0,-0.7071066,0.0,0.70710695],"name":"KON021 - Konic Washer Part [9193945]100"},{"mesh":19,"translation":[0.8471336,3.0230312,-0.06961668],"rotation":[-0.0,-1.0,0.0,2.8212997E-07],"name":"KON021A - Adhesive Konic Washer Part [9193800]053"},{"mesh":19,"translation":[0.8471336,2.4642315,-0.06961668],"rotation":[-0.0,-1.0,0.0,2.8212997E-07],"name":"KON021A - Adhesive Konic Washer Part [9193800]054"},{"mesh":19,"translation":[1.4286326,3.3887916,-0.06961668],"rotation":[-0.0,-1.0,0.0,2.8212997E-07],"name":"KON021A - Adhesive Konic Washer Part [9193800]059"},{"mesh":19,"translation":[1.4286326,2.8299918,-0.06961668],"rotation":[-0.0,-1.0,0.0,2.8212997E-07],"name":"KON021A - Adhesive Konic Washer Part [9193800]060"},{"mesh":19,"translation":[0.6466601,2.1086316,0.9735472],"rotation":[-0.0,-0.70710695,0.0,0.7071066],"name":"KON021A - Adhesive Konic Washer Part [9193800]065"},{"mesh":19,"translation":[0.6466601,1.5498313,0.9735472],"rotation":[-0.0,-0.70710695,0.0,0.7071066],"name":"KON021A - Adhesive Konic Washer Part [9193800]066"},{"mesh":19,"translation":[-0.31535095,2.6572716,0.17503314],"rotation":[-0.0,0.7071066,0.0,0.70710695],"name":"KON021A - Adhesive Konic Washer Part [9193800]069"},{"mesh":19,"translation":[-0.31535095,2.0984716,0.17503314],"rotation":[-0.0,0.7071066,0.0,0.70710695],"name":"KON021A - Adhesive Konic Washer Part [9193800]070"},{"mesh":19,"translation":[-0.31535095,2.1086316,0.9735472],"rotation":[-0.0,0.7071066,0.0,0.70710695],"name":"KON021A - Adhesive Konic Washer Part [9193800]073"},{"mesh":19,"translation":[-0.31535095,1.5498313,0.9735472],"rotation":[-0.0,0.7071066,0.0,0.70710695],"name":"KON021A - Adhesive Konic Washer Part [9193800]074"},{"mesh":19,"translation":[1.4286326,3.3887916,-1.0316278],"rotation":[-0.0,-2.3841858E-07,0.0,1.0],"name":"KON021A - Adhesive Konic Washer Part [9193800]081"},{"mesh":19,"translation":[1.4286326,2.8299918,-1.0316278],"rotation":[-0.0,-2.3841858E-07,0.0,1.0],"name":"KON021A - Adhesive Konic Washer Part [9193800]082"},{"mesh":19,"translation":[0.61646223,2.8401513,-1.0316278],"rotation":[-0.0,-2.3841858E-07,0.0,1.0],"name":"KON021A - Adhesive Konic Washer Part [9193800]083"},{"mesh":19,"translation":[0.61646223,2.281351,-1.0316278],"rotation":[-0.0,-2.3841858E-07,0.0,1.0],"name":"KON021A - Adhesive Konic Washer Part [9193800]084"},{"mesh":19,"translation":[0.34976223,2.7578046,-1.0316278],"rotation":[-0.0,-2.3841858E-07,0.0,1.0],"name":"KON021A - Adhesive Konic Washer Part [9193800]085"},{"mesh":19,"translation":[0.34976223,2.1990044,-1.0316278],"rotation":[-0.0,-2.3841858E-07,0.0,1.0],"name":"KON021A - Adhesive Konic Washer Part [9193800]086"},{"mesh":19,"translation":[-0.16507147,2.7578046,-1.0316278],"name":"KON021A - Adhesive Konic Washer Part [9193800]087"},{"mesh":19,"translation":[-0.16507147,2.1990044,-1.0316278],"name":"KON021A - Adhesive Konic Washer Part [9193800]088"},{"mesh":19,"translation":[-0.31535068,2.7578046,-0.88134855],"rotation":[-0.0,0.7071067,0.0,0.7071068],"name":"KON021A - Adhesive Konic Washer Part [9193800]089"},{"mesh":19,"translation":[-0.31535068,2.1990044,-0.88134855],"rotation":[-0.0,0.7071067,0.0,0.7071068],"name":"KON021A - Adhesive Konic Washer Part [9193800]090"},{"mesh":19,"translation":[-0.31535095,2.7578046,-0.07843975],"rotation":[-0.0,0.7071068,0.0,0.7071067],"name":"KON021A - Adhesive Konic Washer Part [9193800]099"},{"mesh":19,"translation":[-0.31535095,2.1990044,-0.07843975],"rotation":[-0.0,0.7071068,0.0,0.7071067],"name":"KON021A - Adhesive Konic Washer Part [9193800]100"},{"mesh":19,"translation":[0.6323587,2.6572716,0.17503314],"rotation":[-0.0,0.7071068,0.0,0.7071067],"name":"KON021 - Konic Washer Part [9193945]101"},{"mesh":19,"translation":[0.6323587,2.0984716,0.17503314],"rotation":[-0.0,0.7071068,0.0,0.7071067],"name":"KON021 - Konic Washer Part [9193945]102"},{"mesh":19,"translation":[0.6466601,2.6572716,0.17503314],"rotation":[-0.0,-0.70710695,0.0,0.7071066],"name":"KON021A - Adhesive Konic Washer Part [9193800]101"},{"mesh":19,"translation":[0.6466601,2.0984716,0.17503314],"rotation":[-0.0,-0.70710695,0.0,0.7071066],"name":"KON021A - Adhesive Konic Washer Part [9193800]102"},{"mesh":20,"translation":[0.8471336,3.0230312,-0.08549013],"rotation":[-0.0,0.7071068,0.0,0.7071067],"name":"KON006 - Lower Panel Clamp Part [8739162]102"},{"mesh":20,"translation":[0.8471336,2.4642315,-0.08549013],"rotation":[-0.0,0.7071068,0.0,0.7071067],"name":"KON006 - Lower Panel Clamp Part [8739162]103"},{"mesh":20,"translation":[1.4286326,3.3887916,-0.08549013],"rotation":[-0.0,0.7071068,0.0,0.7071067],"name":"KON006 - Lower Panel Clamp Part [8739162]108"},{"mesh":20,"translation":[1.4286326,2.8299918,-0.08549013],"rotation":[-0.0,0.7071068,0.0,0.7071067],"name":"KON006 - Lower Panel Clamp Part [8739162]109"},{"mesh":20,"translation":[0.63078666,2.1086316,0.9735472],"rotation":[-0.0,-1.0,0.0,-1.6292068E-07],"name":"KON006 - Lower Panel Clamp Part [8739162]114"},{"mesh":20,"translation":[0.63078666,1.5498313,0.9735472],"rotation":[-0.0,-1.0,0.0,-1.6292068E-07],"name":"KON006 - Lower Panel Clamp Part [8739162]115"},{"mesh":20,"translation":[-0.29947752,2.6572716,0.17503314],"name":"KON006 - Lower Panel Clamp Part [8739162]118"},{"mesh":20,"translation":[-0.29947752,2.0984716,0.17503314],"name":"KON006 - Lower Panel Clamp Part [8739162]119"},{"mesh":20,"translation":[-0.29947752,2.1086316,0.9735472],"name":"KON006 - Lower Panel Clamp Part [8739162]122"},{"mesh":20,"translation":[-0.29947752,1.5498313,0.9735472],"name":"KON006 - Lower Panel Clamp Part [8739162]123"},{"mesh":20,"translation":[1.4286326,3.3887916,-1.0157543],"rotation":[-0.0,-0.7071068,0.0,0.7071067],"name":"KON006 - Lower Panel Clamp Part [8739162]130"},{"mesh":20,"translation":[1.4286326,2.8299918,-1.0157543],"rotation":[-0.0,-0.7071068,0.0,0.7071067],"name":"KON006 - Lower Panel Clamp Part [8739162]131"},{"mesh":20,"translation":[0.61646223,2.8401513,-1.0157543],"rotation":[-0.0,-0.7071068,0.0,0.7071067],"name":"KON006 - Lower Panel Clamp Part [8739162]132"},{"mesh":20,"translation":[0.61646223,2.281351,-1.0157543],"rotation":[-0.0,-0.7071068,0.0,0.7071067],"name":"KON006 - Lower Panel Clamp Part [8739162]133"},{"mesh":20,"translation":[0.34976223,2.7578046,-1.0157543],"rotation":[-0.0,-0.7071068,0.0,0.7071067],"name":"KON006 - Lower Panel Clamp Part [8739162]134"},{"mesh":20,"translation":[0.34976223,2.1990044,-1.0157543],"rotation":[-0.0,-0.7071068,0.0,0.7071067],"name":"KON006 - Lower Panel Clamp Part [8739162]135"},{"mesh":20,"translation":[-0.16507147,2.7578046,-1.0157543],"rotation":[-0.0,-0.7071068,0.0,0.7071067],"name":"KON006 - Lower Panel Clamp Part [8739162]136"},{"mesh":20,"translation":[-0.16507147,2.1990044,-1.0157543],"rotation":[-0.0,-0.7071068,0.0,0.7071067],"name":"KON006 - Lower Panel Clamp Part [8739162]137"},{"mesh":20,"translation":[-0.29947257,2.7578046,-0.88134855],"name":"KON006 - Lower Panel Clamp Part [8739162]138"},{"mesh":20,"translation":[-0.29947257,2.1990044,-0.88134855],"name":"KON006 - Lower Panel Clamp Part [8739162]139"},{"mesh":20,"translation":[-0.29947752,2.7578046,-0.07843975],"name":"KON006 - Lower Panel Clamp Part [8739162]148"},{"mesh":20,"translation":[-0.29947752,2.1990044,-0.07843975],"name":"KON006 - Lower Panel Clamp Part [8739162]149"},{"mesh":20,"translation":[0.63078666,2.6572716,0.17503314],"rotation":[-0.0,-1.0,0.0,4.371139E-08],"name":"KON006 - Lower Panel Clamp Part [8739162]200"},{"mesh":20,"translation":[0.63078666,2.0984716,0.17503314],"rotation":[-0.0,-1.0,0.0,4.371139E-08],"name":"KON006 - Lower Panel Clamp Part [8739162]201"},{"mesh":21,"translation":[0.8471336,2.19456,-0.020391779],"rotation":[-0.0,-0.7071068,0.0,0.7071067],"name":"CSQ001-US - Surface Mount Weldment Part [8723797]316"},{"mesh":21,"translation":[1.4286326,2.56032,-0.020391779],"rotation":[-0.0,-0.7071068,0.0,0.7071067],"name":"CSQ001-US - Surface Mount Weldment Part [8723797]317"},{"mesh":21,"translation":[0.695885,1.2801597,0.9735472],"name":"CSQ001-US - Surface Mount Weldment Part [8723797]318"},{"mesh":21,"translation":[-0.36457586,1.8287997,0.17503314],"rotation":[-0.0,-1.0,0.0,-1.6292068E-07],"name":"CSQ001-US - Surface Mount Weldment Part [8723797]319"},{"mesh":21,"translation":[-0.36457586,1.2801597,0.9735472],"rotation":[-0.0,-1.0,0.0,-1.6292068E-07],"name":"CSQ001-US - Surface Mount Weldment Part [8723797]320"},{"mesh":21,"translation":[1.4286326,2.56032,-1.0808526],"rotation":[-0.0,0.7071068,0.0,0.7071067],"name":"CSQ001-US - Surface Mount Weldment Part [8723797]321"},{"mesh":21,"translation":[0.61646223,2.0116792,-1.0808526],"rotation":[-0.0,0.7071068,0.0,0.7071067],"name":"CSQ001-US - Surface Mount Weldment Part [8723797]322"},{"mesh":21,"translation":[0.34976223,2.0116792,-1.0808526],"rotation":[-0.0,0.7071068,0.0,0.7071067],"name":"CSQ001-US - Surface Mount Weldment Part [8723797]323"},{"mesh":21,"translation":[-0.16507147,2.0116792,-1.0808526],"rotation":[-0.0,0.7071068,0.0,0.7071067],"name":"CSQ001-US - Surface Mount Weldment Part [8723797]324"},{"mesh":21,"translation":[-0.36457556,2.0116792,-0.88134855],"rotation":[-0.0,-1.0,0.0,2.8212997E-07],"name":"CSQ001-US - Surface Mount Weldment Part [8723797]325"},{"mesh":21,"translation":[-0.36457586,2.0116792,-0.07843975],"rotation":[-0.0,-1.0,0.0,-1.6292068E-07],"name":"CSQ001-US - Surface Mount Weldment Part [8723797]326"},{"mesh":21,"translation":[0.695885,1.8287997,0.17503314],"rotation":[-0.0,-1.1920929E-07,0.0,1.0],"name":"CSQ001-US - Surface Mount Weldment Part [8723797]327"},{"mesh":21,"translation":[0.6959607,0.91459084,1.5558388],"rotation":[-0.0,-5.9604645E-08,0.0,1.0],"name":"CSQ001-US - Surface Mount Weldment Part [8723797]328"},{"mesh":21,"translation":[0.6959607,1.4632306,0.7078696],"rotation":[-0.0,-5.9604645E-08,0.0,1.0],"name":"CSQ001-US - Surface Mount Weldment Part [8723797]329"},{"mesh":21,"translation":[0.89138544,0.54883057,2.7675486],"rotation":[-0.0,-0.7071069,0.0,0.70710665],"name":"CSQ001-US - Surface Mount Weldment Part [8723797]330"},{"mesh":21,"translation":[-0.3645,1.4632306,0.7078696],"rotation":[-0.0,-1.0,0.0,4.371139E-08],"name":"CSQ001-US - Surface Mount Weldment Part [8723797]331"},{"mesh":21,"translation":[-0.3645,0.73171014,1.7865107],"rotation":[-0.0,-1.0,0.0,4.371139E-08],"name":"CSQ001-US - Surface Mount Weldment Part [8723797]332"},{"mesh":21,"translation":[-0.3645,0.73171014,2.0532107],"rotation":[-0.0,-1.0,0.0,4.371139E-08],"name":"CSQ001-US - Surface Mount Weldment Part [8723797]333"},{"mesh":21,"translation":[-0.3645,0.73171014,2.5680444],"rotation":[-0.0,-1.0,0.0,4.371139E-08],"name":"CSQ001-US - Surface Mount Weldment Part [8723797]334"},{"mesh":21,"translation":[-0.1649959,0.73171014,2.7675486],"rotation":[-0.0,-0.7071066,0.0,0.70710695],"name":"CSQ001-US - Surface Mount Weldment Part [8723797]335"},{"mesh":21,"translation":[0.6379125,0.73171014,2.7675486],"rotation":[-0.0,-0.7071069,0.0,0.70710665],"name":"CSQ001-US - Surface Mount Weldment Part [8723797]336"},{"mesh":21,"translation":[0.89138544,0.54883057,1.7070876],"rotation":[-0.0,0.7071067,0.0,0.7071068],"name":"CSQ001-US - Surface Mount Weldment Part [8723797]337"},{"mesh":21,"translation":[1.423725,0.18307057,1.7070876],"rotation":[-0.0,0.7071068,0.0,0.7071067],"name":"CSQ001-US - Surface Mount Weldment Part [8723797]338"},{"mesh":21,"translation":[1.423725,0.18307057,2.7675486],"rotation":[-0.0,-0.7071069,0.0,0.70710665],"name":"CSQ001-US - Surface Mount Weldment Part [8723797]339"},{"mesh":22,"translation":[0.8471336,3.0230312,-0.020391779],"rotation":[-0.0,0.7071068,0.0,0.7071067],"name":"KON002 - Barrel Mount Part [9048960]052"},{"mesh":22,"translation":[1.4286326,3.3887916,-0.020391779],"rotation":[-0.0,0.7071068,0.0,0.7071067],"name":"KON002 - Barrel Mount Part [9048960]055"},{"mesh":22,"translation":[0.695885,2.1086316,0.9735472],"rotation":[-0.0,-1.0,0.0,-1.6292068E-07],"name":"KON002 - Barrel Mount Part [9048960]058"},{"mesh":22,"translation":[-0.36457586,2.6572716,0.17503314],"name":"KON002 - Barrel Mount Part [9048960]060"},{"mesh":22,"translation":[-0.36457586,2.1086316,0.9735472],"name":"KON002 - Barrel Mount Part [9048960]062"},{"mesh":22,"translation":[1.4286326,3.3887916,-1.0808526],"rotation":[-0.0,-0.7071068,0.0,0.7071067],"name":"KON002 - Barrel Mount Part [9048960]066"},{"mesh":22,"translation":[0.61646223,2.8401513,-1.0808526],"rotation":[-0.0,-0.7071068,0.0,0.7071067],"name":"KON002 - Barrel Mount Part [9048960]067"},{"mesh":22,"translation":[0.34976223,2.7578046,-1.0808526],"rotation":[-0.0,-0.7071068,0.0,0.7071067],"name":"KON002 - Barrel Mount Part [9048960]068"},{"mesh":22,"translation":[-0.16507147,2.7578046,-1.0808526],"rotation":[-0.0,-0.7071068,0.0,0.7071067],"name":"KON002 - Barrel Mount Part [9048960]069"},{"mesh":22,"translation":[-0.36457556,2.7578046,-0.88134855],"name":"KON002 - Barrel Mount Part [9048960]070"},{"mesh":22,"translation":[-0.36457586,2.7578046,-0.07843975],"name":"KON002 - Barrel Mount Part [9048960]075"},{"mesh":22,"translation":[0.8471336,2.4642315,-0.020391779],"rotation":[-0.0,0.7071068,0.0,0.7071067],"name":"KON002 - Barrel Mount Part [9048960]077"},{"mesh":22,"translation":[1.4286326,2.8299918,-0.020391779],"rotation":[-0.0,0.7071068,0.0,0.7071067],"name":"KON002 - Barrel Mount Part [9048960]080"},{"mesh":22,"translation":[0.695885,1.5498313,0.9735472],"rotation":[-0.0,-1.0,0.0,-1.6292068E-07],"name":"KON002 - Barrel Mount Part [9048960]083"},{"mesh":22,"translation":[-0.36457586,2.0984716,0.17503314],"name":"KON002 - Barrel Mount Part [9048960]085"},{"mesh":22,"translation":[-0.36457586,1.5498313,0.9735472],"name":"KON002 - Barrel Mount Part [9048960]087"},{"mesh":22,"translation":[1.4286326,2.8299918,-1.0808526],"rotation":[-0.0,-0.7071068,0.0,0.7071067],"name":"KON002 - Barrel Mount Part [9048960]091"},{"mesh":22,"translation":[0.61646223,2.281351,-1.0808526],"rotation":[-0.0,-0.7071068,0.0,0.7071067],"name":"KON002 - Barrel Mount Part [9048960]092"},{"mesh":22,"translation":[0.34976223,2.1990044,-1.0808526],"rotation":[-0.0,-0.7071068,0.0,0.7071067],"name":"KON002 - Barrel Mount Part [9048960]093"},{"mesh":22,"translation":[-0.16507147,2.1990044,-1.0808526],"rotation":[-0.0,-0.7071068,0.0,0.7071067],"name":"KON002 - Barrel Mount Part [9048960]094"},{"mesh":22,"translation":[-0.36457556,2.1990044,-0.88134855],"name":"KON002 - Barrel Mount Part [9048960]095"},{"mesh":22,"translation":[-0.36457586,2.1990044,-0.07843975],"name":"KON002 - Barrel Mount Part [9048960]100"},{"mesh":22,"translation":[0.695885,2.6572716,0.17503314],"rotation":[-0.0,-1.0,0.0,4.371139E-08],"name":"KON002 - Barrel Mount Part [9048960]101"},{"mesh":22,"translation":[0.695885,2.0984716,0.17503314],"rotation":[-0.0,-1.0,0.0,4.371139E-08],"name":"KON002 - Barrel Mount Part [9048960]102"},{"mesh":23,"translation":[1.163801,3.6663659,-0.513857],"name":"Object"},{"mesh":24,"translation":[1.6726357,3.7321718,-0.07691128],"name":"Generic Models 11 Generic Models 11 [8762451]005"},{"mesh":25,"translation":[-0.30812553,1.5866196,1.3804855],"name":"Casework 1 Casework 1 [8738332]001"},{"mesh":26,"translation":[1.1381955,1.3559175,1.7633808],"name":"Generic Models 1 Generic Models 1 [8568048]001"},{"mesh":27,"translation":[1.5450405,1.0837624,2.7111647],"name":"Object006"},{"mesh":28,"translation":[0.6395851,1.6168393,1.5199887],"rotation":[-0.0,0.7071068,0.0,0.7071067],"name":"Infill_Glass_Raked & Horizontal Generic [8199751]001"},{"translation":[0.8913971,0.38092476,1.763461],"rotation":[-0.0,-1.0,0.0,7.54979E-08],"name":"Infill_Glass_Raked & Horizontal Generic [8202939]001"},{"translation":[0.8913973,0.38094634,2.7111728],"rotation":[-0.0,-1.0,0.0,7.54979E-08],"name":"Infill_Glass_Raked & Horizontal Generic [8735940]001"},{"mesh":29,"translation":[-0.3081267,1.3215338,2.335075],"rotation":[-0.0,0.7071068,0.0,0.7071067],"name":"Infill_Glass_Raked & Horizontal Generic [8737682]001"},{"mesh":30,"translation":[0.067968816,1.3215338,2.7111707],"rotation":[-0.0,-5.9604645E-08,0.0,1.0],"name":"Infill_Glass_Raked & Horizontal Generic [8738822]001"},{"mesh":31,"translation":[1.1586715,0.9295863,2.7111728],"rotation":[-0.0,-1.0,0.0,7.54979E-08],"name":"Infill_Glass_Raked & Horizontal Generic [8739593]001"},{"mesh":32,"translation":[0.7712672,1.6461104,1.763461],"rotation":[0.7071068,-0.0,0.0,0.7071067],"name":"Infill_Glass_Transition Generic [8202170]001"},{"mesh":33,"translation":[0.6959607,1.7430624,1.5558388],"rotation":[-0.0,-1.0,0.0,4.371139E-08],"name":"KON002 - Barrel Mount Part [9048960]143"},{"mesh":33,"translation":[0.6959607,2.291702,0.7078696],"rotation":[-0.0,-1.0,0.0,4.371139E-08],"name":"KON002 - Barrel Mount Part [9048960]145"},{"mesh":33,"translation":[0.89138544,1.3773024,2.7675486],"rotation":[-0.0,0.7071068,0.0,0.7071067],"name":"KON002 - Barrel Mount Part [9048960]150"},{"mesh":33,"translation":[-0.3645,2.291702,0.7078696],"rotation":[-0.0,-5.9604645E-08,0.0,1.0],"name":"KON002 - Barrel Mount Part [9048960]155"},{"mesh":33,"translation":[-0.3645,1.5601822,1.7865107],"rotation":[-0.0,-5.9604645E-08,0.0,1.0],"name":"KON002 - Barrel Mount Part [9048960]157"},{"mesh":33,"translation":[-0.3645,1.4778355,2.0532107],"rotation":[-0.0,-5.9604645E-08,0.0,1.0],"name":"KON002 - Barrel Mount Part [9048960]158"},{"mesh":33,"translation":[-0.3645,1.4778355,2.5680444],"rotation":[-0.0,-5.9604645E-08,0.0,1.0],"name":"KON002 - Barrel Mount Part [9048960]159"},{"mesh":33,"translation":[-0.1649959,1.4778355,2.7675486],"rotation":[-0.0,0.7071068,0.0,0.7071067],"name":"KON002 - Barrel Mount Part [9048960]160"},{"mesh":33,"translation":[0.6379125,1.4778355,2.7675486],"rotation":[-0.0,0.7071068,0.0,0.7071067],"name":"KON002 - Barrel Mount Part [9048960]161"},{"mesh":33,"translation":[0.6959607,1.1842623,1.5558388],"rotation":[-0.0,-1.0,0.0,4.371139E-08],"name":"KON002 - Barrel Mount Part [9048960]162"},{"mesh":33,"translation":[0.6959607,1.7329025,0.7078696],"rotation":[-0.0,-1.0,0.0,4.371139E-08],"name":"KON002 - Barrel Mount Part [9048960]164"},{"mesh":33,"translation":[0.89138544,0.81850255,2.7675486],"rotation":[-0.0,0.7071068,0.0,0.7071067],"name":"KON002 - Barrel Mount Part [9048960]169"},{"mesh":33,"translation":[-0.3645,1.7329025,0.7078696],"rotation":[-0.0,-5.9604645E-08,0.0,1.0],"name":"KON002 - Barrel Mount Part [9048960]174"},{"mesh":33,"translation":[-0.3645,1.0013821,1.7865107],"rotation":[-0.0,-5.9604645E-08,0.0,1.0],"name":"KON002 - Barrel Mount Part [9048960]176"},{"mesh":33,"translation":[-0.3645,0.9190353,2.0532107],"rotation":[-0.0,-5.9604645E-08,0.0,1.0],"name":"KON002 - Barrel Mount Part [9048960]177"},{"mesh":33,"translation":[-0.3645,0.9190353,2.5680444],"rotation":[-0.0,-5.9604645E-08,0.0,1.0],"name":"KON002 - Barrel Mount Part [9048960]178"},{"mesh":33,"translation":[-0.1649959,0.9190353,2.7675486],"rotation":[-0.0,0.7071068,0.0,0.7071067],"name":"KON002 - Barrel Mount Part [9048960]179"},{"mesh":33,"translation":[0.6379125,0.9190353,2.7675486],"rotation":[-0.0,0.7071068,0.0,0.7071067],"name":"KON002 - Barrel Mount Part [9048960]180"},{"mesh":33,"translation":[0.89138544,1.3773024,1.7070876],"rotation":[-0.0,-0.7071068,0.0,0.7071068],"name":"KON002 - Barrel Mount Part [9048960]181"},{"mesh":33,"translation":[0.89138544,0.81850255,1.7070876],"rotation":[-0.0,-0.7071068,0.0,0.7071068],"name":"KON002 - Barrel Mount Part [9048960]182"},{"mesh":33,"translation":[1.423725,1.0115421,1.7070876],"rotation":[-0.0,-0.7071069,0.0,0.70710665],"name":"KON002 - Barrel Mount Part [9048960]189"},{"mesh":33,"translation":[1.423725,1.0115421,2.7675486],"rotation":[-0.0,0.7071068,0.0,0.7071067],"name":"KON002 - Barrel Mount Part [9048960]190"},{"mesh":33,"translation":[1.423725,0.4527422,1.7070876],"rotation":[-0.0,-0.7071069,0.0,0.70710665],"name":"KON002 - Barrel Mount Part [9048960]191"},{"mesh":33,"translation":[1.423725,0.4527422,2.7675486],"rotation":[-0.0,0.7071068,0.0,0.7071067],"name":"KON002 - Barrel Mount Part [9048960]192"},{"mesh":34,"translation":[0.63086236,1.7430624,1.5558388],"rotation":[-0.0,-1.0,0.0,4.371139E-08],"name":"KON006 - Lower Panel Clamp Part [8739162]282"},{"mesh":34,"translation":[0.63086236,1.1842623,1.5558388],"rotation":[-0.0,-1.0,0.0,4.371139E-08],"name":"KON006 - Lower Panel Clamp Part [8739162]283"},{"mesh":34,"translation":[0.63086236,2.291702,0.7078696],"rotation":[-0.0,-1.0,0.0,4.371139E-08],"name":"KON006 - Lower Panel Clamp Part [8739162]286"},{"mesh":34,"translation":[0.63086236,1.7329025,0.7078696],"rotation":[-0.0,-1.0,0.0,4.371139E-08],"name":"KON006 - Lower Panel Clamp Part [8739162]287"},{"mesh":34,"translation":[0.89138544,1.3773024,2.7024503],"rotation":[-0.0,0.7071068,0.0,0.7071067],"name":"KON006 - Lower Panel Clamp Part [8739162]296"},{"mesh":34,"translation":[0.89138544,0.81850255,2.7024503],"rotation":[-0.0,0.7071068,0.0,0.7071067],"name":"KON006 - Lower Panel Clamp Part [8739162]297"},{"mesh":34,"translation":[-0.29940164,2.291702,0.7078696],"rotation":[-0.0,-5.9604645E-08,0.0,1.0],"name":"KON006 - Lower Panel Clamp Part [8739162]306"},{"mesh":34,"translation":[-0.29940164,1.7329025,0.7078696],"rotation":[-0.0,-5.9604645E-08,0.0,1.0],"name":"KON006 - Lower Panel Clamp Part [8739162]307"},{"mesh":34,"translation":[-0.29940164,1.5601822,1.7865107],"rotation":[-0.0,-5.9604645E-08,0.0,1.0],"name":"KON006 - Lower Panel Clamp Part [8739162]310"},{"mesh":34,"translation":[-0.29940164,1.0013821,1.7865107],"rotation":[-0.0,-5.9604645E-08,0.0,1.0],"name":"KON006 - Lower Panel Clamp Part [8739162]311"},{"mesh":34,"translation":[-0.29940164,1.4778355,2.0532107],"rotation":[-0.0,-5.9604645E-08,0.0,1.0],"name":"KON006 - Lower Panel Clamp Part [8739162]312"},{"mesh":34,"translation":[-0.29940164,0.9190353,2.0532107],"rotation":[-0.0,-5.9604645E-08,0.0,1.0],"name":"KON006 - Lower Panel Clamp Part [8739162]313"},{"mesh":34,"translation":[-0.29940164,1.4778355,2.5680444],"rotation":[-0.0,-5.9604645E-08,0.0,1.0],"name":"KON006 - Lower Panel Clamp Part [8739162]314"},{"mesh":34,"translation":[-0.29940164,0.9190353,2.5680444],"rotation":[-0.0,-5.9604645E-08,0.0,1.0],"name":"KON006 - Lower Panel Clamp Part [8739162]315"},{"mesh":34,"translation":[-0.1649959,1.4778355,2.7024455],"rotation":[-0.0,0.7071068,0.0,0.7071067],"name":"KON006 - Lower Panel Clamp Part [8739162]316"},{"mesh":34,"translation":[-0.1649959,0.9190353,2.7024455],"rotation":[-0.0,0.7071068,0.0,0.7071067],"name":"KON006 - Lower Panel Clamp Part [8739162]317"},{"mesh":34,"translation":[0.6379125,1.4778355,2.7024503],"rotation":[-0.0,0.7071068,0.0,0.7071067],"name":"KON006 - Lower Panel Clamp Part [8739162]318"},{"mesh":34,"translation":[0.6379125,0.9190353,2.7024503],"rotation":[-0.0,0.7071068,0.0,0.7071067],"name":"KON006 - Lower Panel Clamp Part [8739162]319"},{"mesh":34,"translation":[0.89138544,1.3773024,1.772186],"rotation":[-0.0,-0.7071068,0.0,0.7071068],"name":"KON006 - Lower Panel Clamp Part [8739162]362"},{"mesh":34,"translation":[0.89138544,0.81850255,1.772186],"rotation":[-0.0,-0.7071068,0.0,0.7071068],"name":"KON006 - Lower Panel Clamp Part [8739162]363"},{"mesh":34,"translation":[1.423725,1.0115421,1.772186],"rotation":[-0.0,-0.7071069,0.0,0.70710665],"name":"KON006 - Lower Panel Clamp Part [8739162]376"},{"mesh":34,"translation":[1.423725,0.4527422,1.772186],"rotation":[-0.0,-0.7071069,0.0,0.70710665],"name":"KON006 - Lower Panel Clamp Part [8739162]377"},{"mesh":34,"translation":[1.423725,1.0115421,2.7024503],"rotation":[-0.0,0.7071068,0.0,0.7071067],"name":"KON006 - Lower Panel Clamp Part [8739162]378"},{"mesh":34,"translation":[1.423725,0.4527422,2.7024503],"rotation":[-0.0,0.7071068,0.0,0.7071067],"name":"KON006 - Lower Panel Clamp Part [8739162]379"},{"mesh":35,"translation":[0.63243437,1.7430624,1.5558388],"rotation":[-0.0,0.7071068,0.0,0.7071067],"name":"KON021 - Konic Washer Part [9193945]143"},{"mesh":35,"translation":[0.63243437,1.1842623,1.5558388],"rotation":[-0.0,0.7071068,0.0,0.7071067],"name":"KON021 - Konic Washer Part [9193945]144"},{"mesh":35,"translation":[0.63243437,2.291702,0.7078696],"rotation":[-0.0,0.7071068,0.0,0.7071067],"name":"KON021 - Konic Washer Part [9193945]147"},{"mesh":35,"translation":[0.63243437,1.7329025,0.7078696],"rotation":[-0.0,0.7071068,0.0,0.7071067],"name":"KON021 - Konic Washer Part [9193945]148"},{"mesh":35,"translation":[0.89138544,1.3773024,2.7040222],"name":"KON021 - Konic Washer Part [9193945]157"},{"mesh":35,"translation":[0.89138544,0.81850255,2.7040222],"name":"KON021 - Konic Washer Part [9193945]158"},{"mesh":35,"translation":[-0.3009783,2.291702,0.7078696],"rotation":[-0.0,-0.7071068,0.0,0.7071068],"name":"KON021 - Konic Washer Part [9193945]167"},{"mesh":35,"translation":[-0.3009783,1.7329025,0.7078696],"rotation":[-0.0,-0.7071068,0.0,0.7071068],"name":"KON021 - Konic Washer Part [9193945]168"},{"mesh":35,"translation":[-0.3009783,1.5601822,1.7865107],"rotation":[-0.0,-0.7071068,0.0,0.7071068],"name":"KON021 - Konic Washer Part [9193945]171"},{"mesh":35,"translation":[-0.3009783,1.0013821,1.7865107],"rotation":[-0.0,-0.7071068,0.0,0.7071068],"name":"KON021 - Konic Washer Part [9193945]172"},{"mesh":35,"translation":[-0.3009783,1.4778355,2.0532107],"rotation":[-0.0,-0.7071068,0.0,0.7071068],"name":"KON021 - Konic Washer Part [9193945]173"},{"mesh":35,"translation":[-0.3009783,0.9190353,2.0532107],"rotation":[-0.0,-0.7071068,0.0,0.7071068],"name":"KON021 - Konic Washer Part [9193945]174"},{"mesh":35,"translation":[-0.3009783,1.4778355,2.5680444],"rotation":[-0.0,-0.70710695,0.0,0.7071066],"name":"KON021 - Konic Washer Part [9193945]175"},{"mesh":35,"translation":[-0.3009783,0.9190353,2.5680444],"rotation":[-0.0,-0.70710695,0.0,0.7071066],"name":"KON021 - Konic Washer Part [9193945]176"},{"mesh":35,"translation":[-0.1649959,1.4778355,2.704027],"rotation":[-0.0,8.742278E-08,0.0,1.0],"name":"KON021 - Konic Washer Part [9193945]177"},{"mesh":35,"translation":[-0.1649959,0.9190353,2.704027],"rotation":[-0.0,8.742278E-08,0.0,1.0],"name":"KON021 - Konic Washer Part [9193945]178"},{"mesh":35,"translation":[0.6379125,1.4778355,2.7040222],"rotation":[-0.0,3.2584137E-07,0.0,1.0],"name":"KON021 - Konic Washer Part [9193945]179"},{"mesh":35,"translation":[0.6379125,0.9190353,2.7040222],"rotation":[-0.0,3.2584137E-07,0.0,1.0],"name":"KON021 - Konic Washer Part [9193945]180"},{"mesh":35,"translation":[0.89138544,1.3773024,1.770614],"rotation":[-0.0,-1.0,0.0,4.371139E-08],"name":"KON021 - Konic Washer Part [9193945]181"},{"mesh":35,"translation":[0.89138544,0.81850255,1.770614],"rotation":[-0.0,-1.0,0.0,4.371139E-08],"name":"KON021 - Konic Washer Part [9193945]182"},{"mesh":35,"translation":[0.64673585,1.7430624,1.5558388],"rotation":[-0.0,-0.7071066,0.0,0.70710695],"name":"KON021A - Adhesive Konic Washer Part [9193800]143"},{"mesh":35,"translation":[0.64673585,1.1842623,1.5558388],"rotation":[-0.0,-0.7071066,0.0,0.70710695],"name":"KON021A - Adhesive Konic Washer Part [9193800]144"},{"mesh":35,"translation":[0.64673585,2.291702,0.7078696],"rotation":[-0.0,-0.7071066,0.0,0.70710695],"name":"KON021A - Adhesive Konic Washer Part [9193800]147"},{"mesh":35,"translation":[0.64673585,1.7329025,0.7078696],"rotation":[-0.0,-0.7071066,0.0,0.70710695],"name":"KON021A - Adhesive Konic Washer Part [9193800]148"},{"mesh":35,"translation":[0.89138544,1.3773024,2.7183237],"rotation":[-0.0,-1.0,0.0,-1.6292068E-07],"name":"KON021A - Adhesive Konic Washer Part [9193800]157"},{"mesh":35,"translation":[0.89138544,0.81850255,2.7183237],"rotation":[-0.0,-1.0,0.0,-1.6292068E-07],"name":"KON021A - Adhesive Konic Washer Part [9193800]158"},{"mesh":35,"translation":[-0.3152751,2.291702,0.7078696],"rotation":[-0.0,0.7071066,0.0,0.70710695],"name":"KON021A - Adhesive Konic Washer Part [9193800]167"},{"mesh":35,"translation":[-0.3152751,1.7329025,0.7078696],"rotation":[-0.0,0.7071066,0.0,0.70710695],"name":"KON021A - Adhesive Konic Washer Part [9193800]168"},{"mesh":35,"translation":[-0.3152751,1.5601822,1.7865107],"rotation":[-0.0,0.7071066,0.0,0.70710695],"name":"KON021A - Adhesive Konic Washer Part [9193800]171"},{"mesh":35,"translation":[-0.3152751,1.0013821,1.7865107],"rotation":[-0.0,0.7071066,0.0,0.70710695],"name":"KON021A - Adhesive Konic Washer Part [9193800]172"},{"mesh":35,"translation":[-0.3152751,1.4778355,2.0532107],"rotation":[-0.0,0.7071066,0.0,0.70710695],"name":"KON021A - Adhesive Konic Washer Part [9193800]173"},{"mesh":35,"translation":[-0.3152751,0.9190353,2.0532107],"rotation":[-0.0,0.7071066,0.0,0.70710695],"name":"KON021A - Adhesive Konic Washer Part [9193800]174"},{"mesh":35,"translation":[-0.3152751,1.4778355,2.5680444],"rotation":[-0.0,0.7071068,0.0,0.7071067],"name":"KON021A - Adhesive Konic Washer Part [9193800]175"},{"mesh":35,"translation":[-0.3152751,0.9190353,2.5680444],"rotation":[-0.0,0.7071068,0.0,0.7071067],"name":"KON021A - Adhesive Konic Washer Part [9193800]176"},{"mesh":35,"translation":[-0.1649959,1.4778355,2.7183237],"rotation":[-0.0,-1.0,0.0,-7.54979E-08],"name":"KON021A - Adhesive Konic Washer Part [9193800]177"},{"mesh":35,"translation":[-0.1649959,0.9190353,2.7183237],"rotation":[-0.0,-1.0,0.0,-7.54979E-08],"name":"KON021A - Adhesive Konic Washer Part [9193800]178"},{"mesh":35,"translation":[0.6379125,1.4778355,2.7183237],"rotation":[-0.0,-1.0,0.0,4.371139E-08],"name":"KON021A - Adhesive Konic Washer Part [9193800]179"},{"mesh":35,"translation":[0.6379125,0.9190353,2.7183237],"rotation":[-0.0,-1.0,0.0,4.371139E-08],"name":"KON021A - Adhesive Konic Washer Part [9193800]180"},{"mesh":35,"translation":[0.89138544,1.3773024,1.7563126],"rotation":[-0.0,-1.7881393E-07,0.0,1.0],"name":"KON021A - Adhesive Konic Washer Part [9193800]181"},{"mesh":35,"translation":[0.89138544,0.81850255,1.7563126],"rotation":[-0.0,-1.7881393E-07,0.0,1.0],"name":"KON021A - Adhesive Konic Washer Part [9193800]182"},{"mesh":35,"translation":[1.423725,1.0115421,1.7706094],"rotation":[-0.0,-1.0,0.0,4.371139E-08],"name":"KON021 - Konic Washer Part [9193945]189"},{"mesh":35,"translation":[1.423725,0.4527422,1.7706094],"rotation":[-0.0,-1.0,0.0,4.371139E-08],"name":"KON021 - Konic Washer Part [9193945]190"},{"mesh":35,"translation":[1.423725,1.0115421,2.7040222],"name":"KON021 - Konic Washer Part [9193945]191"},{"mesh":35,"translation":[1.423725,0.4527422,2.7040222],"name":"KON021 - Konic Washer Part [9193945]192"},{"mesh":35,"translation":[1.423725,1.0115421,1.7563126],"rotation":[-0.0,-2.3841858E-07,0.0,1.0],"name":"KON021A - Adhesive Konic Washer Part [9193800]189"},{"mesh":35,"translation":[1.423725,0.4527422,1.7563126],"rotation":[-0.0,-2.3841858E-07,0.0,1.0],"name":"KON021A - Adhesive Konic Washer Part [9193800]190"},{"mesh":35,"translation":[1.423725,1.0115421,2.7183237],"rotation":[-0.0,-1.0,0.0,-1.6292068E-07],"name":"KON021A - Adhesive Konic Washer Part [9193800]191"},{"mesh":35,"translation":[1.423725,0.4527422,2.7183237],"rotation":[-0.0,-1.0,0.0,-1.6292068E-07],"name":"KON021A - Adhesive Konic Washer Part [9193800]192"},{"mesh":36,"translation":[0.6959607,0.91459084,1.5558388],"rotation":[-0.7071069,-0.70710665,1.3627573E-07,1.3627576E-07],"name":"LS201 & LS202 - Konic Post Material LS Material [9048531]003"},{"mesh":37,"translation":[0.6959607,1.4632306,0.7078696],"rotation":[-0.7071069,-0.70710665,1.3627573E-07,1.3627576E-07],"name":"LS201 & LS202 - Konic Post Material LS Material [9048569]003"},{"mesh":38,"translation":[0.89138544,0.54883057,2.7675486],"rotation":[0.5000001,0.49999997,0.49999985,0.50000006],"name":"LS201 & LS202 - Konic Post Material LS Material [9048819]005"},{"mesh":38,"translation":[0.89138544,0.54883057,1.7070876],"rotation":[-0.49999997,-0.4999998,0.50000006,0.50000024],"name":"LS201 & LS202 - Konic Post Material LS Material [9048819]006"},{"mesh":39,"translation":[-0.3645,1.4632306,0.7078696],"rotation":[-4.2146844E-08,-4.214685E-08,0.7071068,0.7071067],"name":"LS201 & LS202 - Konic Post Material LS Material [9048885]003"},{"mesh":40,"translation":[-0.3645,0.73171014,1.7865107],"rotation":[-4.2146844E-08,-4.214685E-08,0.7071068,0.7071067],"name":"LS201 & LS202 - Konic Post Material LS Material [9048914]003"},{"mesh":41,"translation":[-0.3645,0.73171014,2.0532107],"rotation":[-4.2146844E-08,-4.214685E-08,0.7071068,0.7071067],"name":"LS201 & LS202 - Konic Post Material LS Material [9048949]003"},{"mesh":42,"translation":[-0.3645,0.73171014,2.5680444],"rotation":[-4.2146844E-08,-4.214685E-08,0.7071068,0.7071067],"name":"LS201 & LS202 - Konic Post Material LS Material [9048969]003"},{"mesh":43,"translation":[-0.1649959,0.73171014,2.7675486],"rotation":[-0.49999997,-0.5000001,-0.50000006,-0.49999997],"name":"LS201 & LS202 - Konic Post Material LS Material [9048987]003"},{"mesh":44,"translation":[0.6379125,0.73171014,2.7675486],"rotation":[0.5000001,0.49999997,0.49999985,0.50000006],"name":"LS201 & LS202 - Konic Post Material LS Material [9049081]003"},{"mesh":45,"translation":[0.2024968,2.385576,1.239157],"name":"Object003"},{"mesh":46,"translation":[1.423725,0.18307057,1.7070876],"rotation":[-0.50000006,-0.5000002,0.49999997,0.4999999],"name":"LS201 & LS202 - Konic Post Material LS Material [9048652]005"},{"mesh":47,"translation":[1.423725,0.18307057,2.7675486],"rotation":[0.5000001,0.49999997,0.49999985,0.50000006],"name":"LS201 & LS202 - Konic Post Material LS Material [9048834]005"},{"mesh":48,"translation":[-0.30828178,2.0101762,1.6006715],"name":"Object013"}],"meshes":[{"primitives":[{"attributes":{"POSITION":1,"TANGENT":2,"NORMAL":3,"TEXCOORD_0":4},"indices":0,"material":0}],"name":"Infill_Glass_Raked & Horizontal Generic [8199751]"},{"primitives":[{"attributes":{"POSITION":6,"TANGENT":7,"NORMAL":8,"TEXCOORD_0":9},"indices":5,"material":0}],"name":"Infill_Glass_Transition Generic [8202170]"},{"primitives":[{"attributes":{"POSITION":11,"TANGENT":12,"NORMAL":13,"TEXCOORD_0":14},"indices":10,"material":1},{"attributes":{"POSITION":16,"TANGENT":17,"NORMAL":18,"TEXCOORD_0":19},"indices":15,"material":2}],"name":"Generic Models 1 Generic Models 1 [8568048]"},{"primitives":[{"attributes":{"POSITION":21,"TANGENT":22,"NORMAL":23,"TEXCOORD_0":24},"indices":20,"material":1},{"attributes":{"POSITION":26,"TANGENT":27,"NORMAL":28,"TEXCOORD_0":29},"indices":25,"material":2}],"name":"Generic Models 10 Generic Models 1 [8735975]"},{"primitives":[{"attributes":{"POSITION":31,"TANGENT":32,"NORMAL":33,"TEXCOORD_0":34},"indices":30,"material":0}],"name":"Infill_Glass_Raked & Horizontal Generic [8737682]"},{"primitives":[{"attributes":{"POSITION":36,"TANGENT":37,"NORMAL":38,"TEXCOORD_0":39},"indices":35,"material":0}],"name":"Casework 1 Casework 1 [8738332]"},{"primitives":[{"attributes":{"POSITION":41,"TANGENT":42,"NORMAL":43,"TEXCOORD_0":44},"indices":40,"material":0}],"name":"Infill_Glass_Raked & Horizontal Generic [8738822]"},{"primitives":[{"attributes":{"POSITION":46,"TANGENT":47,"NORMAL":48,"TEXCOORD_0":49},"indices":45,"material":0}],"name":"Infill_Glass_Raked & Horizontal Generic [8739593]"},{"primitives":[{"attributes":{"POSITION":51,"TANGENT":52,"NORMAL":53,"TEXCOORD_0":54},"indices":50,"material":1}],"name":"LS201 & LS202 - Konic Post Material LS Material [9048531]001"},{"primitives":[{"attributes":{"POSITION":56,"TANGENT":57,"NORMAL":58,"TEXCOORD_0":59},"indices":55,"material":1}],"name":"LS201 & LS202 - Konic Post Material LS Material [9048587]001"},{"primitives":[{"attributes":{"POSITION":61,"TANGENT":62,"NORMAL":63,"TEXCOORD_0":64},"indices":60,"material":1}],"name":"LS201 & LS202 - Konic Post Material LS Material [9048634]001"},{"primitives":[{"attributes":{"POSITION":66,"TANGENT":67,"NORMAL":68,"TEXCOORD_0":69},"indices":65,"material":1}],"name":"LS201 & LS202 - Konic Post Material LS Material [9048819]001"},{"primitives":[{"attributes":{"POSITION":71,"TANGENT":72,"NORMAL":73,"TEXCOORD_0":74},"indices":70,"material":1}],"name":"LS201 & LS202 - Konic Post Material LS Material [9048829]001"},{"primitives":[{"attributes":{"POSITION":76,"TANGENT":77,"NORMAL":78,"TEXCOORD_0":79},"indices":75,"material":1}],"name":"LS201 & LS202 - Konic Post Material LS Material [9048890]001"},{"primitives":[{"attributes":{"POSITION":81,"TANGENT":82,"NORMAL":83,"TEXCOORD_0":84},"indices":80,"material":1}],"name":"LS201 & LS202 - Konic Post Material LS Material [9048914]001"},{"primitives":[{"attributes":{"POSITION":86,"TANGENT":87,"NORMAL":88,"TEXCOORD_0":89},"indices":85,"material":1}],"name":"LS201 & LS202 - Konic Post Material LS Material [9048949]001"},{"primitives":[{"attributes":{"POSITION":91,"TANGENT":92,"NORMAL":93,"TEXCOORD_0":94},"indices":90,"material":1}],"name":"LS201 & LS202 - Konic Post Material LS Material [9048969]001"},{"primitives":[{"attributes":{"POSITION":96,"TANGENT":97,"NORMAL":98,"TEXCOORD_0":99},"indices":95,"material":1}],"name":"LS201 & LS202 - Konic Post Material LS Material [9048987]001"},{"primitives":[{"attributes":{"POSITION":101,"TANGENT":102,"NORMAL":103,"TEXCOORD_0":104},"indices":100,"material":1}],"name":"LS201 & LS202 - Konic Post Material LS Material [9049081]001"},{"primitives":[{"attributes":{"POSITION":106,"TANGENT":107,"NORMAL":108,"TEXCOORD_0":109},"indices":105,"material":3}],"name":"KON021 - Konic Washer Part [9193945]053"},{"primitives":[{"attributes":{"POSITION":111,"TANGENT":112,"NORMAL":113,"TEXCOORD_0":114},"indices":110,"material":1},{"attributes":{"POSITION":116,"TANGENT":117,"NORMAL":118,"TEXCOORD_0":119},"indices":115,"material":2}],"name":"KON006 - Lower Panel Clamp Part [8739162]102"},{"primitives":[{"attributes":{"POSITION":121,"TANGENT":122,"NORMAL":123,"TEXCOORD_0":124},"indices":120,"material":1}],"name":"CSQ001-US - Surface Mount Weldment Part [8723797]316"},{"primitives":[{"attributes":{"POSITION":126,"TANGENT":127,"NORMAL":128,"TEXCOORD_0":129},"indices":125,"material":1},{"attributes":{"POSITION":131,"TANGENT":132,"NORMAL":133,"TEXCOORD_0":134},"indices":130,"material":2}],"name":"KON002 - Barrel Mount Part [9048960]052"},{"primitives":[{"attributes":{"POSITION":136,"TANGENT":137,"NORMAL":138,"TEXCOORD_0":139},"indices":135,"material":1},{"attributes":{"POSITION":141,"TANGENT":142,"NORMAL":143,"TEXCOORD_0":144},"indices":140,"material":2}],"name":"Object"},{"primitives":[{"attributes":{"POSITION":146,"TANGENT":147,"NORMAL":148,"TEXCOORD_0":149},"indices":145,"material":1},{"attributes":{"POSITION":151,"TANGENT":152,"NORMAL":153,"TEXCOORD_0":154},"indices":150,"material":2}],"name":"Generic Models 11 Generic Models 11 [8762451]005"},{"primitives":[{"attributes":{"POSITION":156,"TANGENT":157,"NORMAL":158,"TEXCOORD_0":159},"indices":155,"material":0}],"name":"Casework 1 Casework 1 [8738332]001"},{"primitives":[{"attributes":{"POSITION":161,"TANGENT":162,"NORMAL":163,"TEXCOORD_0":164},"indices":160,"material":1},{"attributes":{"POSITION":166,"TANGENT":167,"NORMAL":168,"TEXCOORD_0":169},"indices":165,"material":2}],"name":"Generic Models 1 Generic Models 1 [8568048]001"},{"primitives":[{"attributes":{"POSITION":171,"TANGENT":172,"NORMAL":173,"TEXCOORD_0":174},"indices":170,"material":1},{"attributes":{"POSITION":176,"TANGENT":177,"NORMAL":178,"TEXCOORD_0":179},"indices":175,"material":2}],"name":"Object006"},{"primitives":[{"attributes":{"POSITION":181,"TANGENT":182,"NORMAL":183,"TEXCOORD_0":184},"indices":180,"material":0}],"name":"Infill_Glass_Raked & Horizontal Generic [8199751]001"},{"primitives":[{"attributes":{"POSITION":186,"TANGENT":187,"NORMAL":188,"TEXCOORD_0":189},"indices":185,"material":0}],"name":"Infill_Glass_Raked & Horizontal Generic [8737682]001"},{"primitives":[{"attributes":{"POSITION":191,"TANGENT":192,"NORMAL":193,"TEXCOORD_0":194},"indices":190,"material":0}],"name":"Infill_Glass_Raked & Horizontal Generic [8738822]001"},{"primitives":[{"attributes":{"POSITION":196,"TANGENT":197,"NORMAL":198,"TEXCOORD_0":199},"indices":195,"material":0}],"name":"Infill_Glass_Raked & Horizontal Generic [8739593]001"},{"primitives":[{"attributes":{"POSITION":201,"TANGENT":202,"NORMAL":203,"TEXCOORD_0":204},"indices":200,"material":0}],"name":"Infill_Glass_Transition Generic [8202170]001"},{"primitives":[{"attributes":{"POSITION":206,"TANGENT":207,"NORMAL":208,"TEXCOORD_0":209},"indices":205,"material":1},{"attributes":{"POSITION":211,"TANGENT":212,"NORMAL":213,"TEXCOORD_0":214},"indices":210,"material":2}],"name":"KON002 - Barrel Mount Part [9048960]143"},{"primitives":[{"attributes":{"POSITION":216,"TANGENT":217,"NORMAL":218,"TEXCOORD_0":219},"indices":215,"material":1},{"attributes":{"POSITION":221,"TANGENT":222,"NORMAL":223,"TEXCOORD_0":224},"indices":220,"material":2}],"name":"KON006 - Lower Panel Clamp Part [8739162]282"},{"primitives":[{"attributes":{"POSITION":226,"TANGENT":227,"NORMAL":228,"TEXCOORD_0":229},"indices":225,"material":3}],"name":"KON021 - Konic Washer Part [9193945]143"},{"primitives":[{"attributes":{"POSITION":231,"TANGENT":232,"NORMAL":233,"TEXCOORD_0":234},"indices":230,"material":1}],"name":"LS201 & LS202 - Konic Post Material LS Material [9048531]003"},{"primitives":[{"attributes":{"POSITION":236,"TANGENT":237,"NORMAL":238,"TEXCOORD_0":239},"indices":235,"material":1}],"name":"LS201 & LS202 - Konic Post Material LS Material [9048569]003"},{"primitives":[{"attributes":{"POSITION":241,"TANGENT":242,"NORMAL":243,"TEXCOORD_0":244},"indices":240,"material":1}],"name":"LS201 & LS202 - Konic Post Material LS Material [9048819]005"},{"primitives":[{"attributes":{"POSITION":246,"TANGENT":247,"NORMAL":248,"TEXCOORD_0":249},"indices":245,"material":1}],"name":"LS201 & LS202 - Konic Post Material LS Material [9048885]003"},{"primitives":[{"attributes":{"POSITION":251,"TANGENT":252,"NORMAL":253,"TEXCOORD_0":254},"indices":250,"material":1}],"name":"LS201 & LS202 - Konic Post Material LS Material [9048914]003"},{"primitives":[{"attributes":{"POSITION":256,"TANGENT":257,"NORMAL":258,"TEXCOORD_0":259},"indices":255,"material":1}],"name":"LS201 & LS202 - Konic Post Material LS Material [9048949]003"},{"primitives":[{"attributes":{"POSITION":261,"TANGENT":262,"NORMAL":263,"TEXCOORD_0":264},"indices":260,"material":1}],"name":"LS201 & LS202 - Konic Post Material LS Material [9048969]003"},{"primitives":[{"attributes":{"POSITION":266,"TANGENT":267,"NORMAL":268,"TEXCOORD_0":269},"indices":265,"material":1}],"name":"LS201 & LS202 - Konic Post Material LS Material [9048987]003"},{"primitives":[{"attributes":{"POSITION":271,"TANGENT":272,"NORMAL":273,"TEXCOORD_0":274},"indices":270,"material":1}],"name":"LS201 & LS202 - Konic Post Material LS Material [9049081]003"},{"primitives":[{"attributes":{"POSITION":276,"TANGENT":277,"NORMAL":278,"TEXCOORD_0":279},"indices":275,"material":1}],"name":"Object003"},{"primitives":[{"attributes":{"POSITION":281,"TANGENT":282,"NORMAL":283,"TEXCOORD_0":284},"indices":280,"material":1}],"name":"LS201 & LS202 - Konic Post Material LS Material [9048652]005"},{"primitives":[{"attributes":{"POSITION":286,"TANGENT":287,"NORMAL":288,"TEXCOORD_0":289},"indices":285,"material":1}],"name":"LS201 & LS202 - Konic Post Material LS Material [9048834]005"},{"primitives":[{"attributes":{"POSITION":291,"TANGENT":292,"NORMAL":293,"TEXCOORD_0":294},"indices":290,"material":1}],"name":"Object013"}],"accessors":[{"bufferView":0,"componentType":5123,"count":132,"type":"SCALAR","name":"accessorIndices"},{"bufferView":1,"componentType":5126,"count":82,"max":[0.67253757,0.76435065,0.0071501],"min":[-0.1888937,-0.7240815,-0.0071501],"type":"VEC3","name":"accessorPositions"},{"bufferView":2,"componentType":5126,"count":82,"type":"VEC4","name":"accessorTangents"},{"bufferView":1,"byteOffset":984,"componentType":5126,"count":82,"type":"VEC3","name":"accessorNormals"},{"bufferView":3,"componentType":5126,"count":82,"type":"VEC2","name":"accessorUVs"},{"bufferView":0,"byteOffset":264,"componentType":5123,"count":168,"type":"SCALAR","name":"accessorIndices"},{"bufferView":1,"byteOffset":1968,"componentType":5126,"count":109,"max":[0.007149927,0.7168539,0.42416126],"min":[-0.0071505085,-0.7168533,-0.42416126],"type":"VEC3","name":"accessorPositions"},{"bufferView":2,"byteOffset":1312,"componentType":5126,"count":109,"type":"VEC4","name":"accessorTangents"},{"bufferView":1,"byteOffset":3276,"componentType":5126,"count":109,"type":"VEC3","name":"accessorNormals"},{"bufferView":3,"byteOffset":656,"componentType":5126,"count":109,"type":"VEC2","name":"accessorUVs"},{"bufferView":0,"byteOffset":600,"componentType":5123,"count":2994,"type":"SCALAR","name":"accessorIndices"},{"bufferView":1,"byteOffset":4584,"componentType":5126,"count":1038,"max":[0.019135969,0.57277405,0.89412946],"min":[-0.019134043,-0.6103752,-0.83940214],"type":"VEC3","name":"accessorPositions"},{"bufferView":2,"byteOffset":3056,"componentType":5126,"count":1038,"type":"VEC4","name":"accessorTangents"},{"bufferView":1,"byteOffset":17040,"componentType":5126,"count":1038,"type":"VEC3","name":"accessorNormals"},{"bufferView":3,"byteOffset":1528,"componentType":5126,"count":1038,"type":"VEC2","name":"accessorUVs"},{"bufferView":0,"byteOffset":6588,"componentType":5123,"count":456,"type":"SCALAR","name":"accessorIndices"},{"bufferView":1,"byteOffset":29496,"componentType":5126,"count":156,"max":[0.019135969,0.57277405,0.89412946],"min":[-0.019127067,-0.6103752,-0.83940214],"type":"VEC3","name":"accessorPositions"},{"bufferView":2,"byteOffset":19664,"componentType":5126,"count":156,"type":"VEC4","name":"accessorTangents"},{"bufferView":1,"byteOffset":31368,"componentType":5126,"count":156,"type":"VEC3","name":"accessorNormals"},{"bufferView":3,"byteOffset":9832,"componentType":5126,"count":156,"type":"VEC2","name":"accessorUVs"},{"bufferView":0,"byteOffset":7500,"componentType":5123,"count":45642,"type":"SCALAR","name":"accessorIndices"},{"bufferView":1,"byteOffset":33240,"componentType":5126,"count":8486,"max":[0.019054433,0.57281196,0.7208086],"min":[-0.019045785,-0.48690864,-0.82204074],"type":"VEC3","name":"accessorPositions"},{"bufferView":2,"byteOffset":22160,"componentType":5126,"count":8486,"type":"VEC4","name":"accessorTangents"},{"bufferView":1,"byteOffset":135072,"componentType":5126,"count":8486,"type":"VEC3","name":"accessorNormals"},{"bufferView":3,"byteOffset":11080,"componentType":5126,"count":8486,"type":"VEC2","name":"accessorUVs"},{"bufferView":0,"byteOffset":98784,"componentType":5123,"count":132,"type":"SCALAR","name":"accessorIndices"},{"bufferView":1,"byteOffset":236904,"componentType":5126,"count":7845,"max":[0.019054433,0.57281196,0.7208086],"min":[-0.019045785,-0.48690864,-0.82204074],"type":"VEC3","name":"accessorPositions"},{"bufferView":2,"byteOffset":157936,"componentType":5126,"count":7845,"type":"VEC4","name":"accessorTangents"},{"bufferView":1,"byteOffset":331044,"componentType":5126,"count":7845,"type":"VEC3","name":"accessorNormals"},{"bufferView":3,"byteOffset":78968,"componentType":5126,"count":7845,"type":"VEC2","name":"accessorUVs"},{"bufferView":0,"byteOffset":99048,"componentType":5123,"count":132,"type":"SCALAR","name":"accessorIndices"},{"bufferView":1,"byteOffset":425184,"componentType":5126,"count":96,"max":[0.40886727,0.3245767,0.0071501],"min":[-0.35996616,-0.52949834,-0.0071501],"type":"VEC3","name":"accessorPositions"},{"bufferView":2,"byteOffset":283456,"componentType":5126,"count":96,"type":"VEC4","name":"accessorTangents"},{"bufferView":1,"byteOffset":426336,"componentType":5126,"count":96,"type":"VEC3","name":"accessorNormals"},{"bufferView":3,"byteOffset":141728,"componentType":5126,"count":96,"type":"VEC2","name":"accessorUVs"},{"bufferView":0,"byteOffset":99312,"componentType":5123,"count":168,"type":"SCALAR","name":"accessorIndices"},{"bufferView":1,"byteOffset":427488,"componentType":5126,"count":99,"max":[0.53302795,0.7945839,0.0071623535],"min":[-0.53302795,-0.7945839,-0.0071623535],"type":"VEC3","name":"accessorPositions"},{"bufferView":2,"byteOffset":284992,"componentType":5126,"count":99,"type":"VEC4","name":"accessorTangents"},{"bufferView":1,"byteOffset":428676,"componentType":5126,"count":99,"type":"VEC3","name":"accessorNormals"},{"bufferView":3,"byteOffset":142496,"componentType":5126,"count":99,"type":"VEC2","name":"accessorUVs"},{"bufferView":0,"byteOffset":99648,"componentType":5123,"count":132,"type":"SCALAR","name":"accessorIndices"},{"bufferView":1,"byteOffset":429864,"componentType":5126,"count":96,"max":[0.70101464,0.3245767,0.0071501],"min":[-0.35996616,-0.52949834,-0.0071501],"type":"VEC3","name":"accessorPositions"},{"bufferView":2,"byteOffset":286576,"componentType":5126,"count":96,"type":"VEC4","name":"accessorTangents"},{"bufferView":1,"byteOffset":431016,"componentType":5126,"count":96,"type":"VEC3","name":"accessorNormals"},{"bufferView":3,"byteOffset":143288,"componentType":5126,"count":96,"type":"VEC2","name":"accessorUVs"},{"bufferView":0,"byteOffset":99912,"componentType":5123,"count":132,"type":"SCALAR","name":"accessorIndices"},{"bufferView":1,"byteOffset":432168,"componentType":5126,"count":82,"max":[0.37704316,0.70856416,0.0071501],"min":[-0.39211252,-0.71716493,-0.0071501],"type":"VEC3","name":"accessorPositions"},{"bufferView":2,"byteOffset":288112,"componentType":5126,"count":82,"type":"VEC4","name":"accessorTangents"},{"bufferView":1,"byteOffset":433152,"componentType":5126,"count":82,"type":"VEC3","name":"accessorNormals"},{"bufferView":3,"byteOffset":144056,"componentType":5126,"count":82,"type":"VEC2","name":"accessorUVs"},{"bufferView":0,"byteOffset":100176,"componentType":5123,"count":1428,"type":"SCALAR","name":"accessorIndices"},{"bufferView":1,"byteOffset":434136,"componentType":5126,"count":488,"max":[0.8390128,0.028575,0.0079375],"min":[6.358873E-15,-0.028575,-0.007937596],"type":"VEC3","name":"accessorPositions"},{"bufferView":2,"byteOffset":289424,"componentType":5126,"count":488,"type":"VEC4","name":"accessorTangents"},{"bufferView":1,"byteOffset":439992,"componentType":5126,"count":488,"type":"VEC3","name":"accessorNormals"},{"bufferView":3,"byteOffset":144712,"componentType":5126,"count":488,"type":"VEC2","name":"accessorUVs"},{"bufferView":0,"byteOffset":103032,"componentType":5123,"count":1428,"type":"SCALAR","name":"accessorIndices"},{"bufferView":1,"byteOffset":445848,"componentType":5126,"count":488,"max":[0.8390127,0.028575,0.0079375],"min":[6.358873E-15,-0.028575,-0.007937597],"type":"VEC3","name":"accessorPositions"},{"bufferView":2,"byteOffset":297232,"componentType":5126,"count":488,"type":"VEC4","name":"accessorTangents"},{"bufferView":1,"byteOffset":451704,"componentType":5126,"count":488,"type":"VEC3","name":"accessorNormals"},{"bufferView":3,"byteOffset":148616,"componentType":5126,"count":488,"type":"VEC2","name":"accessorUVs"},{"bufferView":0,"byteOffset":105888,"componentType":5123,"count":1428,"type":"SCALAR","name":"accessorIndices"},{"bufferView":1,"byteOffset":457560,"componentType":5126,"count":488,"max":[0.8390128,0.028575,0.0079375245],"min":[6.358873E-15,-0.028575,-0.0079375],"type":"VEC3","name":"accessorPositions"},{"bufferView":2,"byteOffset":305040,"componentType":5126,"count":488,"type":"VEC4","name":"accessorTangents"},{"bufferView":1,"byteOffset":463416,"componentType":5126,"count":488,"type":"VEC3","name":"accessorNormals"},{"bufferView":3,"byteOffset":152520,"componentType":5126,"count":488,"type":"VEC2","name":"accessorUVs"},{"bufferView":0,"byteOffset":108744,"componentType":5123,"count":1428,"type":"SCALAR","name":"accessorIndices"},{"bufferView":1,"byteOffset":469272,"componentType":5126,"count":488,"max":[0.8390128,0.028575,0.0079375],"min":[6.358873E-15,-0.028575,-0.007937596],"type":"VEC3","name":"accessorPositions"},{"bufferView":2,"byteOffset":312848,"componentType":5126,"count":488,"type":"VEC4","name":"accessorTangents"},{"bufferView":1,"byteOffset":475128,"componentType":5126,"count":488,"type":"VEC3","name":"accessorNormals"},{"bufferView":3,"byteOffset":156424,"componentType":5126,"count":488,"type":"VEC2","name":"accessorUVs"},{"bufferView":0,"byteOffset":111600,"componentType":5123,"count":1428,"type":"SCALAR","name":"accessorIndices"},{"bufferView":1,"byteOffset":480984,"componentType":5126,"count":488,"max":[0.8390129,0.028575,0.0079375],"min":[6.358873E-15,-0.028575,-0.007937597],"type":"VEC3","name":"accessorPositions"},{"bufferView":2,"byteOffset":320656,"componentType":5126,"count":488,"type":"VEC4","name":"accessorTangents"},{"bufferView":1,"byteOffset":486840,"componentType":5126,"count":488,"type":"VEC3","name":"accessorNormals"},{"bufferView":3,"byteOffset":160328,"componentType":5126,"count":488,"type":"VEC2","name":"accessorUVs"},{"bufferView":0,"byteOffset":114456,"componentType":5123,"count":1428,"type":"SCALAR","name":"accessorIndices"},{"bufferView":1,"byteOffset":492696,"componentType":5126,"count":488,"max":[0.83901274,0.028575,0.0079375],"min":[6.358873E-15,-0.028575,-0.007937597],"type":"VEC3","name":"accessorPositions"},{"bufferView":2,"byteOffset":328464,"componentType":5126,"count":488,"type":"VEC4","name":"accessorTangents"},{"bufferView":1,"byteOffset":498552,"componentType":5126,"count":488,"type":"VEC3","name":"accessorNormals"},{"bufferView":3,"byteOffset":164232,"componentType":5126,"count":488,"type":"VEC2","name":"accessorUVs"},{"bufferView":0,"byteOffset":117312,"componentType":5123,"count":1428,"type":"SCALAR","name":"accessorIndices"},{"bufferView":1,"byteOffset":504408,"componentType":5126,"count":488,"max":[0.8390128,0.028575074,0.0079375],"min":[6.358873E-15,-0.028575,-0.007937542],"type":"VEC3","name":"accessorPositions"},{"bufferView":2,"byteOffset":336272,"componentType":5126,"count":488,"type":"VEC4","name":"accessorTangents"},{"bufferView":1,"byteOffset":510264,"componentType":5126,"count":488,"type":"VEC3","name":"accessorNormals"},{"bufferView":3,"byteOffset":168136,"componentType":5126,"count":488,"type":"VEC2","name":"accessorUVs"},{"bufferView":0,"byteOffset":120168,"componentType":5123,"count":1428,"type":"SCALAR","name":"accessorIndices"},{"bufferView":1,"byteOffset":516120,"componentType":5126,"count":488,"max":[0.756666,0.028575,0.0079375],"min":[6.358873E-15,-0.028575,-0.007937561],"type":"VEC3","name":"accessorPositions"},{"bufferView":2,"byteOffset":344080,"componentType":5126,"count":488,"type":"VEC4","name":"accessorTangents"},{"bufferView":1,"byteOffset":521976,"componentType":5126,"count":488,"type":"VEC3","name":"accessorNormals"},{"bufferView":3,"byteOffset":172040,"componentType":5126,"count":488,"type":"VEC2","name":"accessorUVs"},{"bufferView":0,"byteOffset":123024,"componentType":5123,"count":1428,"type":"SCALAR","name":"accessorIndices"},{"bufferView":1,"byteOffset":527832,"componentType":5126,"count":488,"max":[0.756666,0.028575,0.0079375],"min":[6.358873E-15,-0.028575,-0.007937597],"type":"VEC3","name":"accessorPositions"},{"bufferView":2,"byteOffset":351888,"componentType":5126,"count":488,"type":"VEC4","name":"accessorTangents"},{"bufferView":1,"byteOffset":533688,"componentType":5126,"count":488,"type":"VEC3","name":"accessorNormals"},{"bufferView":3,"byteOffset":175944,"componentType":5126,"count":488,"type":"VEC2","name":"accessorUVs"},{"bufferView":0,"byteOffset":125880,"componentType":5123,"count":1428,"type":"SCALAR","name":"accessorIndices"},{"bufferView":1,"byteOffset":539544,"componentType":5126,"count":488,"max":[0.756666,0.028575,0.0079375245],"min":[6.358873E-15,-0.028575,-0.0079375245],"type":"VEC3","name":"accessorPositions"},{"bufferView":2,"byteOffset":359696,"componentType":5126,"count":488,"type":"VEC4","name":"accessorTangents"},{"bufferView":1,"byteOffset":545400,"componentType":5126,"count":488,"type":"VEC3","name":"accessorNormals"},{"bufferView":3,"byteOffset":179848,"componentType":5126,"count":488,"type":"VEC2","name":"accessorUVs"},{"bufferView":0,"byteOffset":128736,"componentType":5123,"count":1428,"type":"SCALAR","name":"accessorIndices"},{"bufferView":1,"byteOffset":551256,"componentType":5126,"count":488,"max":[0.756666,0.028575,0.0079375],"min":[6.358873E-15,-0.028575,-0.007937597],"type":"VEC3","name":"accessorPositions"},{"bufferView":2,"byteOffset":367504,"componentType":5126,"count":488,"type":"VEC4","name":"accessorTangents"},{"bufferView":1,"byteOffset":557112,"componentType":5126,"count":488,"type":"VEC3","name":"accessorNormals"},{"bufferView":3,"byteOffset":183752,"componentType":5126,"count":488,"type":"VEC2","name":"accessorUVs"},{"bufferView":0,"byteOffset":131592,"componentType":5123,"count":1440,"type":"SCALAR","name":"accessorIndices"},{"bufferView":1,"byteOffset":562968,"componentType":5126,"count":484,"max":[0.012700001,0.012700001,-8.253881E-15],"min":[-0.012700001,-0.012700001,-0.0015748],"type":"VEC3","name":"accessorPositions"},{"bufferView":2,"byteOffset":375312,"componentType":5126,"count":484,"type":"VEC4","name":"accessorTangents"},{"bufferView":1,"byteOffset":568776,"componentType":5126,"count":484,"type":"VEC3","name":"accessorNormals"},{"bufferView":3,"byteOffset":187656,"componentType":5126,"count":484,"type":"VEC2","name":"accessorUVs"},{"bufferView":0,"byteOffset":134472,"componentType":5123,"count":864,"type":"SCALAR","name":"accessorIndices"},{"bufferView":1,"byteOffset":574584,"componentType":5126,"count":292,"max":[0.006604,0.015875,0.015875],"min":[-0.022722581,-0.015875,-0.015875],"type":"VEC3","name":"accessorPositions"},{"bufferView":2,"byteOffset":383056,"componentType":5126,"count":292,"type":"VEC4","name":"accessorTangents"},{"bufferView":1,"byteOffset":578088,"componentType":5126,"count":292,"type":"VEC3","name":"accessorNormals"},{"bufferView":3,"byteOffset":191528,"componentType":5126,"count":292,"type":"VEC2","name":"accessorUVs"},{"bufferView":0,"byteOffset":136200,"componentType":5123,"count":858,"type":"SCALAR","name":"accessorIndices"},{"bufferView":1,"byteOffset":581592,"componentType":5126,"count":289,"max":[0.006604,0.015875,0.015875],"min":[-0.022722581,-0.015875,-0.015875],"type":"VEC3","name":"accessorPositions"},{"bufferView":2,"byteOffset":387728,"componentType":5126,"count":289,"type":"VEC4","name":"accessorTangents"},{"bufferView":1,"byteOffset":585060,"componentType":5126,"count":289,"type":"VEC3","name":"accessorNormals"},{"bufferView":3,"byteOffset":193864,"componentType":5126,"count":289,"type":"VEC2","name":"accessorUVs"},{"bufferView":0,"byteOffset":137916,"componentType":5123,"count":570,"type":"SCALAR","name":"accessorIndices"},{"bufferView":1,"byteOffset":588528,"componentType":5126,"count":189,"max":[0.053975,0.025400002,0.053975],"min":[-0.053975,-3.0953716E-15,-0.053975],"type":"VEC3","name":"accessorPositions"},{"bufferView":2,"byteOffset":392352,"componentType":5126,"count":189,"type":"VEC4","name":"accessorTangents"},{"bufferView":1,"byteOffset":590796,"componentType":5126,"count":189,"type":"VEC3","name":"accessorNormals"},{"bufferView":3,"byteOffset":196176,"componentType":5126,"count":189,"type":"VEC2","name":"accessorUVs"},{"bufferView":0,"byteOffset":139056,"componentType":5123,"count":432,"type":"SCALAR","name":"accessorIndices"},{"bufferView":1,"byteOffset":593064,"componentType":5126,"count":146,"max":[0.0476504,0.015875,0.015875],"min":[-0.0348996,-0.015875,-0.015875],"type":"VEC3","name":"accessorPositions"},{"bufferView":2,"byteOffset":395376,"componentType":5126,"count":146,"type":"VEC4","name":"accessorTangents"},{"bufferView":1,"byteOffset":594816,"componentType":5126,"count":146,"type":"VEC3","name":"accessorNormals"},{"bufferView":3,"byteOffset":197688,"componentType":5126,"count":146,"type":"VEC2","name":"accessorUVs"},{"bufferView":0,"byteOffset":139920,"componentType":5123,"count":420,"type":"SCALAR","name":"accessorIndices"},{"bufferView":1,"byteOffset":596568,"componentType":5126,"count":144,"max":[0.0476504,0.015875,0.015875],"min":[-0.0348996,-0.015875,-0.015875],"type":"VEC3","name":"accessorPositions"},{"bufferView":2,"byteOffset":397712,"componentType":5126,"count":144,"type":"VEC4","name":"accessorTangents"},{"bufferView":1,"byteOffset":598296,"componentType":5126,"count":144,"type":"VEC3","name":"accessorNormals"},{"bufferView":3,"byteOffset":198856,"componentType":5126,"count":144,"type":"VEC2","name":"accessorUVs"},{"bufferView":0,"byteOffset":140760,"componentType":5123,"count":23592,"type":"SCALAR","name":"accessorIndices"},{"bufferView":1,"byteOffset":600024,"componentType":5126,"count":4517,"max":[0.39583397,0.010935474,0.5296723],"min":[-1.4910393,-0.7633694,-0.5296722],"type":"VEC3","name":"accessorPositions"},{"bufferView":2,"byteOffset":400016,"componentType":5126,"count":4517,"type":"VEC4","name":"accessorTangents"},{"bufferView":1,"byteOffset":654228,"componentType":5126,"count":4517,"type":"VEC3","name":"accessorNormals"},{"bufferView":3,"byteOffset":200008,"componentType":5126,"count":4517,"type":"VEC2","name":"accessorUVs"},{"bufferView":0,"byteOffset":187944,"componentType":5123,"count":246,"type":"SCALAR","name":"accessorIndices"},{"bufferView":1,"byteOffset":708432,"componentType":5126,"count":84,"max":[0.39583397,0.0109354425,-0.49157217],"min":[0.39583364,-0.035273023,-0.5296722],"type":"VEC3","name":"accessorPositions"},{"bufferView":2,"byteOffset":472288,"componentType":5126,"count":84,"type":"VEC4","name":"accessorTangents"},{"bufferView":1,"byteOffset":709440,"componentType":5126,"count":84,"type":"VEC3","name":"accessorNormals"},{"bufferView":3,"byteOffset":236144,"componentType":5126,"count":84,"type":"VEC2","name":"accessorUVs"},{"bufferView":0,"byteOffset":188436,"componentType":5123,"count":4080,"type":"SCALAR","name":"accessorIndices"},{"bufferView":1,"byteOffset":710448,"componentType":5126,"count":1526,"max":[-0.112981424,-0.056437153,0.019062843],"min":[-0.98222625,-0.6959965,-0.019062744],"type":"VEC3","name":"accessorPositions"},{"bufferView":2,"byteOffset":473632,"componentType":5126,"count":1526,"type":"VEC4","name":"accessorTangents"},{"bufferView":1,"byteOffset":728760,"componentType":5126,"count":1526,"type":"VEC3","name":"accessorNormals"},{"bufferView":3,"byteOffset":236816,"componentType":5126,"count":1526,"type":"VEC2","name":"accessorUVs"},{"bufferView":0,"byteOffset":196596,"componentType":5123,"count":738,"type":"SCALAR","name":"accessorIndices"},{"bufferView":1,"byteOffset":747072,"componentType":5126,"count":252,"max":[-0.112981424,-0.056437153,0.019062843],"min":[-0.98222625,-0.6959965,-0.019062744],"type":"VEC3","name":"accessorPositions"},{"bufferView":2,"byteOffset":498048,"componentType":5126,"count":252,"type":"VEC4","name":"accessorTangents"},{"bufferView":1,"byteOffset":750096,"componentType":5126,"count":252,"type":"VEC3","name":"accessorNormals"},{"bufferView":3,"byteOffset":249024,"componentType":5126,"count":252,"type":"VEC2","name":"accessorUVs"},{"bufferView":0,"byteOffset":198072,"componentType":5123,"count":168,"type":"SCALAR","name":"accessorIndices"},{"bufferView":1,"byteOffset":753120,"componentType":5126,"count":99,"max":[0.007160028,0.7945839,0.53302854],"min":[-0.007164679,-0.7945839,-0.53302765],"type":"VEC3","name":"accessorPositions"},{"bufferView":2,"byteOffset":502080,"componentType":5126,"count":99,"type":"VEC4","name":"accessorTangents"},{"bufferView":1,"byteOffset":754308,"componentType":5126,"count":99,"type":"VEC3","name":"accessorNormals"},{"bufferView":3,"byteOffset":251040,"componentType":5126,"count":99,"type":"VEC2","name":"accessorUVs"},{"bufferView":0,"byteOffset":198408,"componentType":5123,"count":2994,"type":"SCALAR","name":"accessorIndices"},{"bufferView":1,"byteOffset":755496,"componentType":5126,"count":1043,"max":[0.44326597,0.30061945,0.019136041],"min":[-0.44326365,-0.3006193,-0.019133717],"type":"VEC3","name":"accessorPositions"},{"bufferView":2,"byteOffset":503664,"componentType":5126,"count":1043,"type":"VEC4","name":"accessorTangents"},{"bufferView":1,"byteOffset":768012,"componentType":5126,"count":1043,"type":"VEC3","name":"accessorNormals"},{"bufferView":3,"byteOffset":251832,"componentType":5126,"count":1043,"type":"VEC2","name":"accessorUVs"},{"bufferView":0,"byteOffset":204396,"componentType":5123,"count":456,"type":"SCALAR","name":"accessorIndices"},{"bufferView":1,"byteOffset":780528,"componentType":5126,"count":156,"max":[0.44326597,0.30061945,0.019129066],"min":[-0.44326365,-0.30061612,-0.019133717],"type":"VEC3","name":"accessorPositions"},{"bufferView":2,"byteOffset":520352,"componentType":5126,"count":156,"type":"VEC4","name":"accessorTangents"},{"bufferView":1,"byteOffset":782400,"componentType":5126,"count":156,"type":"VEC3","name":"accessorNormals"},{"bufferView":3,"byteOffset":260176,"componentType":5126,"count":156,"type":"VEC2","name":"accessorUVs"},{"bufferView":0,"byteOffset":205308,"componentType":5123,"count":2679,"type":"SCALAR","name":"accessorIndices"},{"bufferView":1,"byteOffset":784272,"componentType":5126,"count":926,"max":[0.036437485,0.5728089,0.019061409],"min":[-0.8287076,-0.028500414,-0.019061845],"type":"VEC3","name":"accessorPositions"},{"bufferView":2,"byteOffset":522848,"componentType":5126,"count":926,"type":"VEC4","name":"accessorTangents"},{"bufferView":1,"byteOffset":795384,"componentType":5126,"count":926,"type":"VEC3","name":"accessorNormals"},{"bufferView":3,"byteOffset":261424,"componentType":5126,"count":926,"type":"VEC2","name":"accessorUVs"},{"bufferView":0,"byteOffset":210668,"componentType":5123,"count":246,"type":"SCALAR","name":"accessorIndices"},{"bufferView":1,"byteOffset":806496,"componentType":5126,"count":84,"max":[0.036437485,0.017726,0.019061409],"min":[0.03643737,-0.028500414,-0.019038592],"type":"VEC3","name":"accessorPositions"},{"bufferView":2,"byteOffset":537664,"componentType":5126,"count":84,"type":"VEC4","name":"accessorTangents"},{"bufferView":1,"byteOffset":807504,"componentType":5126,"count":84,"type":"VEC3","name":"accessorNormals"},{"bufferView":3,"byteOffset":268832,"componentType":5126,"count":84,"type":"VEC2","name":"accessorUVs"},{"bufferView":0,"byteOffset":211160,"componentType":5123,"count":132,"type":"SCALAR","name":"accessorIndices"},{"bufferView":1,"byteOffset":808512,"componentType":5126,"count":82,"max":[0.67253757,0.76435065,0.0071501],"min":[-0.1888937,-0.7240815,-0.0071501],"type":"VEC3","name":"accessorPositions"},{"bufferView":2,"byteOffset":539008,"componentType":5126,"count":82,"type":"VEC4","name":"accessorTangents"},{"bufferView":1,"byteOffset":809496,"componentType":5126,"count":82,"type":"VEC3","name":"accessorNormals"},{"bufferView":3,"byteOffset":269504,"componentType":5126,"count":82,"type":"VEC2","name":"accessorUVs"},{"bufferView":0,"byteOffset":211424,"componentType":5123,"count":132,"type":"SCALAR","name":"accessorIndices"},{"bufferView":1,"byteOffset":810480,"componentType":5126,"count":96,"max":[0.40886727,0.3245767,0.0071501],"min":[-0.35996616,-0.52949834,-0.0071501],"type":"VEC3","name":"accessorPositions"},{"bufferView":2,"byteOffset":540320,"componentType":5126,"count":96,"type":"VEC4","name":"accessorTangents"},{"bufferView":1,"byteOffset":811632,"componentType":5126,"count":96,"type":"VEC3","name":"accessorNormals"},{"bufferView":3,"byteOffset":270160,"componentType":5126,"count":96,"type":"VEC2","name":"accessorUVs"},{"bufferView":0,"byteOffset":211688,"componentType":5123,"count":132,"type":"SCALAR","name":"accessorIndices"},{"bufferView":1,"byteOffset":812784,"componentType":5126,"count":96,"max":[0.70101464,0.3245767,0.0071501],"min":[-0.35996616,-0.52949834,-0.0071501],"type":"VEC3","name":"accessorPositions"},{"bufferView":2,"byteOffset":541856,"componentType":5126,"count":96,"type":"VEC4","name":"accessorTangents"},{"bufferView":1,"byteOffset":813936,"componentType":5126,"count":96,"type":"VEC3","name":"accessorNormals"},{"bufferView":3,"byteOffset":270928,"componentType":5126,"count":96,"type":"VEC2","name":"accessorUVs"},{"bufferView":0,"byteOffset":211952,"componentType":5123,"count":132,"type":"SCALAR","name":"accessorIndices"},{"bufferView":1,"byteOffset":815088,"componentType":5126,"count":82,"max":[0.37704316,0.70856416,0.0071501],"min":[-0.39211252,-0.71716493,-0.0071501],"type":"VEC3","name":"accessorPositions"},{"bufferView":2,"byteOffset":543392,"componentType":5126,"count":82,"type":"VEC4","name":"accessorTangents"},{"bufferView":1,"byteOffset":816072,"componentType":5126,"count":82,"type":"VEC3","name":"accessorNormals"},{"bufferView":3,"byteOffset":271696,"componentType":5126,"count":82,"type":"VEC2","name":"accessorUVs"},{"bufferView":0,"byteOffset":212216,"componentType":5123,"count":168,"type":"SCALAR","name":"accessorIndices"},{"bufferView":1,"byteOffset":817056,"componentType":5126,"count":109,"max":[0.77951753,0.0071501,1.4337071],"min":[-0.068804964,-0.0071501024,-0.0],"type":"VEC3","name":"accessorPositions"},{"bufferView":2,"byteOffset":544704,"componentType":5126,"count":109,"type":"VEC4","name":"accessorTangents"},{"bufferView":1,"byteOffset":818364,"componentType":5126,"count":109,"type":"VEC3","name":"accessorNormals"},{"bufferView":3,"byteOffset":272352,"componentType":5126,"count":109,"type":"VEC2","name":"accessorUVs"},{"bufferView":0,"byteOffset":212552,"componentType":5123,"count":432,"type":"SCALAR","name":"accessorIndices"},{"bufferView":1,"byteOffset":819672,"componentType":5126,"count":146,"max":[0.0476504,0.015875,0.015875],"min":[-0.0348996,-0.015875,-0.015875],"type":"VEC3","name":"accessorPositions"},{"bufferView":2,"byteOffset":546448,"componentType":5126,"count":146,"type":"VEC4","name":"accessorTangents"},{"bufferView":1,"byteOffset":821424,"componentType":5126,"count":146,"type":"VEC3","name":"accessorNormals"},{"bufferView":3,"byteOffset":273224,"componentType":5126,"count":146,"type":"VEC2","name":"accessorUVs"},{"bufferView":0,"byteOffset":213416,"componentType":5123,"count":420,"type":"SCALAR","name":"accessorIndices"},{"bufferView":1,"byteOffset":823176,"componentType":5126,"count":144,"max":[0.0476504,0.015875,0.015875],"min":[-0.0348996,-0.015875,-0.015875],"type":"VEC3","name":"accessorPositions"},{"bufferView":2,"byteOffset":548784,"componentType":5126,"count":144,"type":"VEC4","name":"accessorTangents"},{"bufferView":1,"byteOffset":824904,"componentType":5126,"count":144,"type":"VEC3","name":"accessorNormals"},{"bufferView":3,"byteOffset":274392,"componentType":5126,"count":144,"type":"VEC2","name":"accessorUVs"},{"bufferView":0,"byteOffset":214256,"componentType":5123,"count":864,"type":"SCALAR","name":"accessorIndices"},{"bufferView":1,"byteOffset":826632,"componentType":5126,"count":292,"max":[0.006604,0.015875,0.015875],"min":[-0.022722581,-0.015875,-0.015875],"type":"VEC3","name":"accessorPositions"},{"bufferView":2,"byteOffset":551088,"componentType":5126,"count":292,"type":"VEC4","name":"accessorTangents"},{"bufferView":1,"byteOffset":830136,"componentType":5126,"count":292,"type":"VEC3","name":"accessorNormals"},{"bufferView":3,"byteOffset":275544,"componentType":5126,"count":292,"type":"VEC2","name":"accessorUVs"},{"bufferView":0,"byteOffset":215984,"componentType":5123,"count":858,"type":"SCALAR","name":"accessorIndices"},{"bufferView":1,"byteOffset":833640,"componentType":5126,"count":289,"max":[0.006604,0.015875,0.015875],"min":[-0.022722581,-0.015875,-0.015875],"type":"VEC3","name":"accessorPositions"},{"bufferView":2,"byteOffset":555760,"componentType":5126,"count":289,"type":"VEC4","name":"accessorTangents"},{"bufferView":1,"byteOffset":837108,"componentType":5126,"count":289,"type":"VEC3","name":"accessorNormals"},{"bufferView":3,"byteOffset":277880,"componentType":5126,"count":289,"type":"VEC2","name":"accessorUVs"},{"bufferView":0,"byteOffset":217700,"componentType":5123,"count":1440,"type":"SCALAR","name":"accessorIndices"},{"bufferView":1,"byteOffset":840576,"componentType":5126,"count":484,"max":[0.012700001,0.012700001,-8.253881E-15],"min":[-0.012700001,-0.012700001,-0.0015748],"type":"VEC3","name":"accessorPositions"},{"bufferView":2,"byteOffset":560384,"componentType":5126,"count":484,"type":"VEC4","name":"accessorTangents"},{"bufferView":1,"byteOffset":846384,"componentType":5126,"count":484,"type":"VEC3","name":"accessorNormals"},{"bufferView":3,"byteOffset":280192,"componentType":5126,"count":484,"type":"VEC2","name":"accessorUVs"},{"bufferView":0,"byteOffset":220580,"componentType":5123,"count":1428,"type":"SCALAR","name":"accessorIndices"},{"bufferView":1,"byteOffset":852192,"componentType":5126,"count":488,"max":[0.8390128,0.028575,0.0079375],"min":[6.358873E-15,-0.028575,-0.007937596],"type":"VEC3","name":"accessorPositions"},{"bufferView":2,"byteOffset":568128,"componentType":5126,"count":488,"type":"VEC4","name":"accessorTangents"},{"bufferView":1,"byteOffset":858048,"componentType":5126,"count":488,"type":"VEC3","name":"accessorNormals"},{"bufferView":3,"byteOffset":284064,"componentType":5126,"count":488,"type":"VEC2","name":"accessorUVs"},{"bufferView":0,"byteOffset":223436,"componentType":5123,"count":1428,"type":"SCALAR","name":"accessorIndices"},{"bufferView":1,"byteOffset":863904,"componentType":5126,"count":488,"max":[0.83901274,0.028575,0.0079375],"min":[6.358873E-15,-0.028575,-0.0079375245],"type":"VEC3","name":"accessorPositions"},{"bufferView":2,"byteOffset":575936,"componentType":5126,"count":488,"type":"VEC4","name":"accessorTangents"},{"bufferView":1,"byteOffset":869760,"componentType":5126,"count":488,"type":"VEC3","name":"accessorNormals"},{"bufferView":3,"byteOffset":287968,"componentType":5126,"count":488,"type":"VEC2","name":"accessorUVs"},{"bufferView":0,"byteOffset":226292,"componentType":5123,"count":1428,"type":"SCALAR","name":"accessorIndices"},{"bufferView":1,"byteOffset":875616,"componentType":5126,"count":488,"max":[0.8390128,0.028575,0.0079375],"min":[6.358873E-15,-0.028575,-0.007937596],"type":"VEC3","name":"accessorPositions"},{"bufferView":2,"byteOffset":583744,"componentType":5126,"count":488,"type":"VEC4","name":"accessorTangents"},{"bufferView":1,"byteOffset":881472,"componentType":5126,"count":488,"type":"VEC3","name":"accessorNormals"},{"bufferView":3,"byteOffset":291872,"componentType":5126,"count":488,"type":"VEC2","name":"accessorUVs"},{"bufferView":0,"byteOffset":229148,"componentType":5123,"count":1428,"type":"SCALAR","name":"accessorIndices"},{"bufferView":1,"byteOffset":887328,"componentType":5126,"count":488,"max":[0.8390128,0.028575,0.0079375],"min":[6.358873E-15,-0.028575,-0.0079375245],"type":"VEC3","name":"accessorPositions"},{"bufferView":2,"byteOffset":591552,"componentType":5126,"count":488,"type":"VEC4","name":"accessorTangents"},{"bufferView":1,"byteOffset":893184,"componentType":5126,"count":488,"type":"VEC3","name":"accessorNormals"},{"bufferView":3,"byteOffset":295776,"componentType":5126,"count":488,"type":"VEC2","name":"accessorUVs"},{"bufferView":0,"byteOffset":232004,"componentType":5123,"count":1428,"type":"SCALAR","name":"accessorIndices"},{"bufferView":1,"byteOffset":899040,"componentType":5126,"count":488,"max":[0.8390128,0.028575074,0.0079375],"min":[6.358873E-15,-0.028575,-0.007937542],"type":"VEC3","name":"accessorPositions"},{"bufferView":2,"byteOffset":599360,"componentType":5126,"count":488,"type":"VEC4","name":"accessorTangents"},{"bufferView":1,"byteOffset":904896,"componentType":5126,"count":488,"type":"VEC3","name":"accessorNormals"},{"bufferView":3,"byteOffset":299680,"componentType":5126,"count":488,"type":"VEC2","name":"accessorUVs"},{"bufferView":0,"byteOffset":234860,"componentType":5123,"count":1428,"type":"SCALAR","name":"accessorIndices"},{"bufferView":1,"byteOffset":910752,"componentType":5126,"count":488,"max":[0.756666,0.028575,0.0079375],"min":[6.358873E-15,-0.028575,-0.007937561],"type":"VEC3","name":"accessorPositions"},{"bufferView":2,"byteOffset":607168,"componentType":5126,"count":488,"type":"VEC4","name":"accessorTangents"},{"bufferView":1,"byteOffset":916608,"componentType":5126,"count":488,"type":"VEC3","name":"accessorNormals"},{"bufferView":3,"byteOffset":303584,"componentType":5126,"count":488,"type":"VEC2","name":"accessorUVs"},{"bufferView":0,"byteOffset":237716,"componentType":5123,"count":1428,"type":"SCALAR","name":"accessorIndices"},{"bufferView":1,"byteOffset":922464,"componentType":5126,"count":488,"max":[0.756666,0.028575,0.0079375],"min":[6.358873E-15,-0.028575,-0.007937597],"type":"VEC3","name":"accessorPositions"},{"bufferView":2,"byteOffset":614976,"componentType":5126,"count":488,"type":"VEC4","name":"accessorTangents"},{"bufferView":1,"byteOffset":928320,"componentType":5126,"count":488,"type":"VEC3","name":"accessorNormals"},{"bufferView":3,"byteOffset":307488,"componentType":5126,"count":488,"type":"VEC2","name":"accessorUVs"},{"bufferView":0,"byteOffset":240572,"componentType":5123,"count":1428,"type":"SCALAR","name":"accessorIndices"},{"bufferView":1,"byteOffset":934176,"componentType":5126,"count":488,"max":[0.756666,0.028575,0.0079375245],"min":[6.358873E-15,-0.028575,-0.0079375245],"type":"VEC3","name":"accessorPositions"},{"bufferView":2,"byteOffset":622784,"componentType":5126,"count":488,"type":"VEC4","name":"accessorTangents"},{"bufferView":1,"byteOffset":940032,"componentType":5126,"count":488,"type":"VEC3","name":"accessorNormals"},{"bufferView":3,"byteOffset":311392,"componentType":5126,"count":488,"type":"VEC2","name":"accessorUVs"},{"bufferView":0,"byteOffset":243428,"componentType":5123,"count":1428,"type":"SCALAR","name":"accessorIndices"},{"bufferView":1,"byteOffset":945888,"componentType":5126,"count":488,"max":[0.756666,0.028575,0.0079375],"min":[6.358873E-15,-0.028575,-0.007937597],"type":"VEC3","name":"accessorPositions"},{"bufferView":2,"byteOffset":630592,"componentType":5126,"count":488,"type":"VEC4","name":"accessorTangents"},{"bufferView":1,"byteOffset":951744,"componentType":5126,"count":488,"type":"VEC3","name":"accessorNormals"},{"bufferView":3,"byteOffset":315296,"componentType":5126,"count":488,"type":"VEC2","name":"accessorUVs"},{"bufferView":0,"byteOffset":246284,"componentType":5123,"count":33444,"type":"SCALAR","name":"accessorIndices"},{"bufferView":1,"byteOffset":957600,"componentType":5126,"count":6765,"max":[0.5296706,-0.72898805,1.4910585],"min":[-0.52966243,-0.7625488,1.163663],"type":"VEC3","name":"accessorPositions"},{"bufferView":2,"byteOffset":638400,"componentType":5126,"count":6765,"type":"VEC4","name":"accessorTangents"},{"bufferView":1,"byteOffset":1038780,"componentType":5126,"count":6765,"type":"VEC3","name":"accessorNormals"},{"bufferView":3,"byteOffset":319200,"componentType":5126,"count":6765,"type":"VEC2","name":"accessorUVs"},{"bufferView":0,"byteOffset":313172,"componentType":5123,"count":1428,"type":"SCALAR","name":"accessorIndices"},{"bufferView":1,"byteOffset":1119960,"componentType":5126,"count":488,"max":[0.83901274,0.028575,0.0079375],"min":[6.358873E-15,-0.028575,-0.007937597],"type":"VEC3","name":"accessorPositions"},{"bufferView":2,"byteOffset":746640,"componentType":5126,"count":488,"type":"VEC4","name":"accessorTangents"},{"bufferView":1,"byteOffset":1125816,"componentType":5126,"count":488,"type":"VEC3","name":"accessorNormals"},{"bufferView":3,"byteOffset":373320,"componentType":5126,"count":488,"type":"VEC2","name":"accessorUVs"},{"bufferView":0,"byteOffset":316028,"componentType":5123,"count":1428,"type":"SCALAR","name":"accessorIndices"},{"bufferView":1,"byteOffset":1131672,"componentType":5126,"count":488,"max":[0.8390128,0.028575,0.0079375],"min":[6.358873E-15,-0.028575,-0.007937597],"type":"VEC3","name":"accessorPositions"},{"bufferView":2,"byteOffset":754448,"componentType":5126,"count":488,"type":"VEC4","name":"accessorTangents"},{"bufferView":1,"byteOffset":1137528,"componentType":5126,"count":488,"type":"VEC3","name":"accessorNormals"},{"bufferView":3,"byteOffset":377224,"componentType":5126,"count":488,"type":"VEC2","name":"accessorUVs"},{"bufferView":0,"byteOffset":318884,"componentType":5123,"count":2064,"type":"SCALAR","name":"accessorIndices"},{"bufferView":1,"byteOffset":1143384,"componentType":5126,"count":724,"max":[0.019054687,-0.10462099,0.80214816],"min":[-0.019041477,-0.38715136,-0.05929453],"type":"VEC3","name":"accessorPositions"},{"bufferView":2,"byteOffset":762256,"componentType":5126,"count":724,"type":"VEC4","name":"accessorTangents"},{"bufferView":1,"byteOffset":1152072,"componentType":5126,"count":724,"type":"VEC3","name":"accessorNormals"},{"bufferView":3,"byteOffset":381128,"componentType":5126,"count":724,"type":"VEC2","name":"accessorUVs"}],"bufferViews":[{"buffer":0,"byteLength":323012,"name":"bufferViewScalar"},{"buffer":0,"byteOffset":323012,"byteLength":1160760,"byteStride":12,"name":"bufferViewFloatVec3"},{"buffer":0,"byteOffset":1483772,"byteLength":773840,"byteStride":16,"name":"bufferViewFloatVec4"},{"buffer":0,"byteOffset":2257612,"byteLength":386920,"byteStride":8,"name":"bufferViewFloatVec2"}],"buffers":[{"uri":"U-Shaped_Railing_Konic.bin","byteLength":2644532}],"materials":[{"pbrMetallicRoughness":{"baseColorFactor":[0.9999998,0.9999999,0.9999999,1.0],"metallicFactor":0.0,"roughnessFactor":0.1},"name":"Glass","extensions":{"KHR_materials_ior":{"ior":1.0},"KHR_materials_transmission":{"transmissionFactor":0.97},"KHR_materials_volume":{"thicknessFactor":0.56,"attenuationDistance":0.5,"attenuationColor":[0.49521634,0.56476736,0.5317566]}}},{"pbrMetallicRoughness":{"baseColorFactor":[0.9999998,0.9999999,0.9999999,1.0],"baseColorTexture":{"index":0,"extensions":{"KHR_texture_transform":{"offset":[0.19519997,0.8048],"rotation":1.5707964,"scale":[0.6096,0.6096],"texCoord":0}}},"roughnessFactor":0.2,"metallicRoughnessTexture":{"index":0,"extensions":{"KHR_texture_transform":{"offset":[0.19519997,0.8048],"rotation":1.5707964,"scale":[0.6096,0.6096],"texCoord":0}}}},"name":"Steel_Linear"},{"pbrMetallicRoughness":{"baseColorFactor":[0.9999998,0.9999999,0.9999999,1.0],"baseColorTexture":{"index":1},"roughnessFactor":0.2,"metallicRoughnessTexture":{"index":1}},"name":"Steel_Radial"},{"pbrMetallicRoughness":{"baseColorFactor":[0.10641303,0.10641304,0.10641304,1.0],"metallicFactor":0.0,"roughnessFactor":0.99,"metallicRoughnessTexture":{"index":2}},"name":"Rubber","extensions":{"KHR_materials_specular":{"specularFactor":0.1}}}],"textures":[{"sampler":0,"source":0,"name":"Metal_Brushed_Linear_4k.jpg"},{"sampler":0,"source":1,"name":"Metal_Brushed_Radial_4k.jpg"},{"sampler":0,"source":2,"name":"PowderCoat_Roughness_2k0.jpg"}],"images":[{"uri":"textures/Metal_Brushed_Linear_4k.jpg"},{"uri":"textures/Metal_Brushed_Radial_4k.jpg"},{"uri":"textures/PowderCoat_Roughness_2k0.jpg"}],"samplers":[{"magFilter":9729,"minFilter":9987}]}