{"asset":{"version":"2.0","generator":"babylon.js glTF exporter for 3dsmax 2026 v20251111.2"},"extensionsUsed":["KHR_texture_transform","KHR_materials_specular","KHR_materials_ior","KHR_materials_transmission","KHR_materials_volume"],"extensionsRequired":["KHR_texture_transform"],"scene":0,"scenes":[{"nodes":[0,1,2,3,4,5,6,7,8,9,10,11,12,13,14,15,16,17,18,19,20,21,22,23,24,25,26,27,28,29,30,31,32,33,34,35,36,37,38,39,40,41,42,43,44,45,46,47,48,49,50,51,52,53,54,55,56,57,58,59,60,61,62,63,64,65,66,67,68,69,70,71,72,73,74,75,76,77,78,79,80,81,82,83,84,85,86,87,88,89,90,91,92,93,94,95,96,97,98,99,100,101,102,103,104,105,106,107,108,109,110,111,112,113,114,115,116,117,118,119,120,121,122,123,124,125,126,127,128,129,130,131,132,133,134,135,136,137,138,139,140,141,142,143,144,145,146,147,148,149,150,151,152,153,154,155,156,157,158,159,160,161,162,163,164,165,166,167,168,169,170,171,172,173,174,175,176,177,178,179,180,181,182,183,184,185,186,187,188,189,190,191,192,193,194,195,196,197,198,199,200,201,202,203,204,205,206,207,208,209,210,211,212,213,214,215,216,217,218,219,220,221,222,223,224,225,226,227,228,229,230,231,232,233,234,235,236,237,238,239,240,241,242,243,244,245,246,247,248,249,250,251,252,253,254,255,256,257,258,259,260,261,262,263,264,265,266,267,268,269,270,271,272,273,274,275,276,277,278,279,280,281,282,283,284,285,286,287,288,289,290,291,292,293,294,295,296,297,298,299,300,301,302,303,304,305,306,307,308,309,310,311,312,313,314,315,316,317,318,319,320,321,322,323,324,325,326,327,328,329,330,331,332,333,334,335,336,337,338,339,340,341,342,343,344,345,346,347,348,349,350,351,352,353,354,355,356,357,358,359,360,361,362,363,364,365,366,367,368,369,370,371,372,373,374,375,376,377,378,379,380,381,382,383,384,385,386,387,388]}],"nodes":[{"mesh":0,"translation":[0.7752906,1.7779996,0.24874151],"rotation":[-0.0,0.7071068,0.0,0.7071068],"name":"Boss_047"},{"mesh":0,"translation":[0.9714856,2.1437595,0.059086945],"name":"Boss_046"},{"mesh":0,"translation":[1.2379624,2.3266397,0.059086945],"name":"Boss_045"},{"mesh":0,"translation":[1.0855623,2.3266397,0.059086945],"name":"Boss_044"},{"mesh":0,"translation":[1.5044369,2.5095196,0.059086945],"name":"Boss_043"},{"mesh":0,"translation":[1.3520368,2.5095196,0.059086945],"name":"Boss_042"},{"mesh":0,"translation":[0.9714856,2.1437595,-1.1601131],"rotation":[-0.0,-1.0,0.0,-4.371139E-08],"name":"Boss_033"},{"mesh":0,"translation":[0.8190856,2.1437595,-1.1601131],"rotation":[-0.0,-1.0,0.0,4.371139E-08],"name":"OPT001 - Glass Mount Base Part [8745451]"},{"mesh":0,"translation":[1.2379624,2.3266397,-1.1601131],"rotation":[-0.0,-1.0,0.0,-4.371139E-08],"name":"Boss_032"},{"mesh":0,"translation":[1.0855623,2.3266397,-1.1601131],"rotation":[-0.0,-1.0,0.0,-4.371139E-08],"name":"Boss_031"},{"mesh":0,"translation":[1.5044369,2.5095196,-1.1601131],"rotation":[-0.0,-1.0,0.0,-4.371139E-08],"name":"Boss_030"},{"mesh":0,"translation":[1.3520368,2.5095196,-1.1601131],"rotation":[-0.0,-1.0,0.0,-4.371139E-08],"name":"Boss_029"},{"mesh":0,"translation":[-0.4439094,1.7779996,0.24874151],"rotation":[-0.0,-0.7071068,0.0,0.7071067],"name":"Boss_020"},{"mesh":0,"translation":[-0.4439094,1.5951195,0.5149136],"rotation":[-0.0,-0.7071068,0.0,0.7071067],"name":"Boss_019"},{"mesh":0,"translation":[-0.4439094,1.5951195,0.36251363],"rotation":[-0.0,-0.7071068,0.0,0.7071067],"name":"Boss_018"},{"mesh":0,"translation":[-0.4439094,1.4122397,0.78108346],"rotation":[-0.0,-0.7071068,0.0,0.7071067],"name":"Boss_017"},{"mesh":0,"translation":[-0.4439094,1.4122397,0.62868345],"rotation":[-0.0,-0.7071068,0.0,0.7071067],"name":"Boss_016"},{"mesh":0,"translation":[-0.4439094,1.2293596,1.0472555],"rotation":[-0.0,-0.7071068,0.0,0.7071067],"name":"Boss_015"},{"mesh":0,"translation":[-0.4439094,1.2293596,0.89485556],"rotation":[-0.0,-0.7071068,0.0,0.7071067],"name":"Boss_014"},{"mesh":0,"translation":[-0.4439094,1.0464796,1.3134254],"rotation":[-0.0,-0.7071068,0.0,0.7071067],"name":"Boss_013"},{"mesh":0,"translation":[-0.4439094,1.0464796,1.1610254],"rotation":[-0.0,-0.7071068,0.0,0.7071067],"name":"Boss_012"},{"mesh":0,"translation":[-0.4439094,0.8635996,1.5795952],"rotation":[-0.0,-0.7071068,0.0,0.7071067],"name":"Boss_011"},{"mesh":0,"translation":[-0.4439094,0.8635996,1.4271952],"rotation":[-0.0,-0.7071068,0.0,0.7071067],"name":"Boss_010"},{"mesh":0,"translation":[0.7752905,1.5951195,0.5149137],"rotation":[-0.0,0.7071068,0.0,0.7071068],"name":"Boss_009"},{"mesh":0,"translation":[0.7752905,1.5951195,0.3625137],"rotation":[-0.0,0.7071068,0.0,0.7071068],"name":"Boss_008"},{"mesh":0,"translation":[0.7752906,1.4122397,0.78108346],"rotation":[-0.0,0.7071068,0.0,0.7071068],"name":"Boss_007"},{"mesh":0,"translation":[0.7752906,1.4122397,0.62868345],"rotation":[-0.0,0.7071068,0.0,0.7071068],"name":"Boss_006"},{"mesh":0,"translation":[0.7752905,1.2293596,1.0472558],"rotation":[-0.0,0.7071068,0.0,0.7071068],"name":"Boss_005"},{"mesh":0,"translation":[0.7752906,1.2293596,0.89485556],"rotation":[-0.0,0.7071068,0.0,0.7071068],"name":"Boss_004"},{"mesh":0,"translation":[0.7752905,1.0464796,1.3134254],"rotation":[-0.0,0.7071068,0.0,0.7071068],"name":"Boss_003"},{"mesh":0,"translation":[0.7752905,1.0464796,1.1610255],"rotation":[-0.0,0.7071068,0.0,0.7071068],"name":"Boss_002"},{"mesh":0,"translation":[0.7752905,0.8635996,1.4271952],"rotation":[-0.0,0.7071068,0.0,0.7071068],"name":"Boss_000"},{"mesh":1,"translation":[0.84353995,1.7779996,0.24874151],"rotation":[-0.0,0.7071068,0.0,0.7071068],"name":"Glass Mount Clamp Part [8742498]026"},{"mesh":1,"translation":[0.9714856,2.1437595,0.12733859],"name":"Glass Mount Clamp Part [8742498]027"},{"mesh":1,"translation":[0.5997804,1.9608796,-1.2283624],"rotation":[-0.0,-1.0,0.0,4.371139E-08],"name":"Glass Mount Clamp Part [8742498]"},{"mesh":1,"translation":[0.5997804,1.8783295,-1.2283624],"rotation":[-0.0,-1.0,0.0,-4.371139E-08],"name":"Glass Mount Clamp Part [8742498]001"},{"mesh":1,"translation":[1.2379624,2.3266397,0.12733859],"name":"Glass Mount Clamp Part [8742498]028"},{"mesh":1,"translation":[1.0855623,2.3266397,0.12733859],"name":"Glass Mount Clamp Part [8742498]029"},{"mesh":1,"translation":[1.5044369,2.5095196,0.12733859],"name":"Glass Mount Clamp Part [8742498]030"},{"mesh":1,"translation":[1.3520368,2.5095196,0.12733859],"name":"Glass Mount Clamp Part [8742498]031"},{"mesh":1,"translation":[0.9714856,2.1437595,-1.2283624],"rotation":[-0.0,-1.0,0.0,-4.371139E-08],"name":"Glass Mount Clamp Part [8742498]040"},{"mesh":1,"translation":[0.8190856,2.1437595,-1.2283624],"rotation":[-0.0,-1.0,0.0,-4.371139E-08],"name":"Glass Mount Clamp Part [8742498]041"},{"mesh":1,"translation":[1.2379624,2.3266397,-1.2283624],"rotation":[-0.0,-1.0,0.0,-4.371139E-08],"name":"Glass Mount Clamp Part [8742498]042"},{"mesh":1,"translation":[1.0855623,2.3266397,-1.2283624],"rotation":[-0.0,-1.0,0.0,-4.371139E-08],"name":"Glass Mount Clamp Part [8742498]043"},{"mesh":1,"translation":[1.5044369,2.5095196,-1.2283624],"rotation":[-0.0,-1.0,0.0,-4.371139E-08],"name":"Glass Mount Clamp Part [8742498]044"},{"mesh":1,"translation":[1.3520368,2.5095196,-1.2283624],"rotation":[-0.0,-1.0,0.0,-4.371139E-08],"name":"Glass Mount Clamp Part [8742498]045"},{"mesh":1,"translation":[0.38434932,1.9608796,-1.2283624],"rotation":[-0.0,-1.0,0.0,4.371139E-08],"name":"Glass Mount Clamp Part [8742498]002"},{"mesh":1,"translation":[0.38434932,1.8783295,-1.2283624],"rotation":[-0.0,-1.0,0.0,4.371139E-08],"name":"Glass Mount Clamp Part [8742498]003"},{"mesh":1,"translation":[-0.30960903,1.9608796,-1.2283624],"rotation":[-0.0,-1.0,0.0,4.371139E-08],"name":"Glass Mount Clamp Part [8742498]004"},{"mesh":1,"translation":[-0.30960903,1.8783295,-1.2283624],"rotation":[-0.0,-1.0,0.0,4.371139E-08],"name":"Glass Mount Clamp Part [8742498]005"},{"mesh":1,"translation":[-0.05326491,1.9608796,-1.2283624],"rotation":[-0.0,-1.0,0.0,4.371139E-08],"name":"Glass Mount Clamp Part [8742498]006"},{"mesh":1,"translation":[-0.05326491,1.8783295,-1.2283624],"rotation":[-0.0,-1.0,0.0,4.371139E-08],"name":"Glass Mount Clamp Part [8742498]007"},{"mesh":1,"translation":[-0.512161,1.9608796,-0.10632985],"rotation":[-0.0,-0.7071068,0.0,0.7071067],"name":"Glass Mount Clamp Part [8742498]010"},{"mesh":1,"translation":[-0.512161,1.8783295,-0.10632985],"rotation":[-0.0,-0.7071068,0.0,0.7071067],"name":"Glass Mount Clamp Part [8742498]011"},{"mesh":1,"translation":[-0.512161,1.9608796,-1.0263249],"rotation":[-0.0,-0.7071068,0.0,0.7071067],"name":"Glass Mount Clamp Part [8742498]012"},{"mesh":1,"translation":[-0.512161,1.8783295,-1.0263249],"rotation":[-0.0,-0.7071068,0.0,0.7071067],"name":"Glass Mount Clamp Part [8742498]013"},{"mesh":1,"translation":[-0.512161,1.9608796,-0.5693402],"rotation":[-0.0,-0.7071068,0.0,0.7071067],"name":"Glass Mount Clamp Part [8742498]014"},{"mesh":1,"translation":[-0.512161,1.8783295,-0.5693402],"rotation":[-0.0,-0.7071068,0.0,0.7071067],"name":"Glass Mount Clamp Part [8742498]015"},{"mesh":1,"translation":[-0.512161,1.7779996,0.24874151],"rotation":[-0.0,-0.7071068,0.0,0.7071067],"name":"Glass Mount Clamp Part [8742498]054"},{"mesh":1,"translation":[-0.512161,1.5951195,0.5149136],"rotation":[-0.0,-0.7071068,0.0,0.7071067],"name":"Glass Mount Clamp Part [8742498]055"},{"mesh":1,"translation":[-0.512161,1.5951195,0.36251363],"rotation":[-0.0,-0.7071068,0.0,0.7071067],"name":"Glass Mount Clamp Part [8742498]056"},{"mesh":1,"translation":[-0.512161,1.4122397,0.78108346],"rotation":[-0.0,-0.7071068,0.0,0.7071067],"name":"Glass Mount Clamp Part [8742498]057"},{"mesh":1,"translation":[-0.512161,1.4122397,0.62868345],"rotation":[-0.0,-0.7071068,0.0,0.7071067],"name":"Glass Mount Clamp Part [8742498]058"},{"mesh":1,"translation":[-0.512161,1.2293596,1.0472555],"rotation":[-0.0,-0.7071068,0.0,0.7071067],"name":"Glass Mount Clamp Part [8742498]059"},{"mesh":1,"translation":[-0.512161,1.2293596,0.89485556],"rotation":[-0.0,-0.7071068,0.0,0.7071067],"name":"Glass Mount Clamp Part [8742498]060"},{"mesh":1,"translation":[-0.512161,1.0464796,1.3134254],"rotation":[-0.0,-0.7071068,0.0,0.7071067],"name":"Glass Mount Clamp Part [8742498]061"},{"mesh":1,"translation":[-0.512161,1.0464796,1.1610254],"rotation":[-0.0,-0.7071068,0.0,0.7071067],"name":"Glass Mount Clamp Part [8742498]062"},{"mesh":1,"translation":[-0.512161,0.8635996,1.5795952],"rotation":[-0.0,-0.7071068,0.0,0.7071067],"name":"Glass Mount Clamp Part [8742498]063"},{"mesh":1,"translation":[-0.512161,0.8635996,1.4271952],"rotation":[-0.0,-0.7071068,0.0,0.7071067],"name":"Glass Mount Clamp Part [8742498]064"},{"mesh":1,"translation":[0.8435398,1.5951195,0.5149137],"rotation":[-0.0,0.7071068,0.0,0.7071068],"name":"Glass Mount Clamp Part [8742498]065"},{"mesh":1,"translation":[0.8435398,1.5951195,0.3625137],"rotation":[-0.0,0.7071068,0.0,0.7071068],"name":"Glass Mount Clamp Part [8742498]066"},{"mesh":1,"translation":[0.84353995,1.4122397,0.78108346],"rotation":[-0.0,0.7071068,0.0,0.7071068],"name":"Glass Mount Clamp Part [8742498]067"},{"mesh":1,"translation":[0.84353995,1.4122397,0.62868345],"rotation":[-0.0,0.7071068,0.0,0.7071068],"name":"Glass Mount Clamp Part [8742498]068"},{"mesh":1,"translation":[0.8435398,1.2293596,1.0472558],"rotation":[-0.0,0.7071068,0.0,0.7071068],"name":"Glass Mount Clamp Part [8742498]069"},{"mesh":1,"translation":[0.84353995,1.2293596,0.89485556],"rotation":[-0.0,0.7071068,0.0,0.7071068],"name":"Glass Mount Clamp Part [8742498]070"},{"mesh":1,"translation":[0.8435398,1.0464796,1.3134254],"rotation":[-0.0,0.7071068,0.0,0.7071068],"name":"Glass Mount Clamp Part [8742498]071"},{"mesh":1,"translation":[0.8435398,1.0464796,1.1610255],"rotation":[-0.0,0.7071068,0.0,0.7071068],"name":"Glass Mount Clamp Part [8742498]072"},{"mesh":1,"translation":[0.8435398,0.8635996,1.4271952],"rotation":[-0.0,0.7071068,0.0,0.7071068],"name":"Glass Mount Clamp Part [8742498]074"},{"mesh":2,"translation":[0.84353995,1.7779996,0.24874151],"rotation":[-0.0,0.7071068,0.0,0.7071068],"name":"Glass Mount Pad_2 Part [8742501]052"},{"mesh":2,"translation":[0.8276642,1.7779996,0.24874151],"rotation":[-0.0,0.7071068,0.0,0.7071068],"name":"Glass Mount Pad_2 Part [8742501]101"},{"mesh":2,"translation":[0.9714856,2.1437595,0.12733859],"rotation":[-4.371139E-08,4.371139E-08,1.0,1.9106855E-15],"name":"Glass Mount Pad_2 Part [8742501]053"},{"mesh":2,"translation":[0.9714856,2.1437595,0.11146282],"rotation":[-4.371139E-08,4.371139E-08,1.0,1.9106855E-15],"name":"Glass Mount Pad_2 Part [8742501]102"},{"mesh":2,"translation":[0.5997804,1.9608796,-1.2283624],"rotation":[-0.0,-1.0,0.0,-4.371139E-08],"name":"Glass Mount Pad_2 Part [8742501]001"},{"mesh":2,"translation":[0.5997804,1.9608796,-1.2124866],"rotation":[-0.0,-1.0,0.0,4.371139E-08],"name":"Glass Mount Pad_2 Part [8742501]"},{"mesh":2,"translation":[0.5997804,1.8783295,-1.2283624],"rotation":[-0.0,-1.0,0.0,-4.371139E-08],"name":"Glass Mount Pad_2 Part [8742501]002"},{"mesh":2,"translation":[0.5997804,1.8783295,-1.2124866],"rotation":[-0.0,-1.0,0.0,-4.371139E-08],"name":"Glass Mount Pad_2 Part [8742501]027"},{"mesh":2,"translation":[1.2379624,2.3266397,0.12733859],"rotation":[-4.371139E-08,4.371139E-08,1.0,1.9106855E-15],"name":"Glass Mount Pad_2 Part [8742501]054"},{"mesh":2,"translation":[1.2379624,2.3266397,0.11146282],"rotation":[-4.371139E-08,4.371139E-08,1.0,1.9106855E-15],"name":"Glass Mount Pad_2 Part [8742501]103"},{"mesh":2,"translation":[1.0855623,2.3266397,0.12733859],"rotation":[-4.371139E-08,4.371139E-08,1.0,1.9106855E-15],"name":"Glass Mount Pad_2 Part [8742501]055"},{"mesh":2,"translation":[1.0855623,2.3266397,0.11146282],"rotation":[-4.371139E-08,4.371139E-08,1.0,1.9106855E-15],"name":"Glass Mount Pad_2 Part [8742501]104"},{"mesh":2,"translation":[1.5044369,2.5095196,0.12733859],"rotation":[-4.371139E-08,4.371139E-08,1.0,1.9106855E-15],"name":"Glass Mount Pad_2 Part [8742501]056"},{"mesh":2,"translation":[1.5044369,2.5095196,0.11146282],"rotation":[-4.371139E-08,4.371139E-08,1.0,1.9106855E-15],"name":"Glass Mount Pad_2 Part [8742501]105"},{"mesh":2,"translation":[1.3520368,2.5095196,0.12733859],"rotation":[-4.371139E-08,4.371139E-08,1.0,1.9106855E-15],"name":"Glass Mount Pad_2 Part [8742501]057"},{"mesh":2,"translation":[1.3520368,2.5095196,0.11146282],"rotation":[-4.371139E-08,4.371139E-08,1.0,1.9106855E-15],"name":"Glass Mount Pad_2 Part [8742501]106"},{"mesh":2,"translation":[0.9714856,2.1437595,-1.2283624],"rotation":[-0.0,-1.0,0.0,-4.371139E-08],"name":"Glass Mount Pad_2 Part [8742501]066"},{"mesh":2,"translation":[0.9714856,2.1437595,-1.2124866],"rotation":[-0.0,-1.0,0.0,-4.371139E-08],"name":"Glass Mount Pad_2 Part [8742501]115"},{"mesh":2,"translation":[0.8190856,2.1437595,-1.2283624],"rotation":[-0.0,-1.0,0.0,-4.371139E-08],"name":"Glass Mount Pad_2 Part [8742501]067"},{"mesh":2,"translation":[0.8190856,2.1437595,-1.2124866],"rotation":[-0.0,-1.0,0.0,-4.371139E-08],"name":"Glass Mount Pad_2 Part [8742501]116"},{"mesh":2,"translation":[1.2379624,2.3266397,-1.2283624],"rotation":[-0.0,-1.0,0.0,-4.371139E-08],"name":"Glass Mount Pad_2 Part [8742501]068"},{"mesh":2,"translation":[1.2379624,2.3266397,-1.2124866],"rotation":[-0.0,-1.0,0.0,-4.371139E-08],"name":"Glass Mount Pad_2 Part [8742501]117"},{"mesh":2,"translation":[1.0855623,2.3266397,-1.2283624],"rotation":[-0.0,-1.0,0.0,-4.371139E-08],"name":"Glass Mount Pad_2 Part [8742501]069"},{"mesh":2,"translation":[1.0855623,2.3266397,-1.2124866],"rotation":[-0.0,-1.0,0.0,-4.371139E-08],"name":"Glass Mount Pad_2 Part [8742501]118"},{"mesh":2,"translation":[1.5044369,2.5095196,-1.2283624],"rotation":[-0.0,-1.0,0.0,-4.371139E-08],"name":"Glass Mount Pad_2 Part [8742501]070"},{"mesh":2,"translation":[1.5044369,2.5095196,-1.2124866],"rotation":[-0.0,-1.0,0.0,-4.371139E-08],"name":"Glass Mount Pad_2 Part [8742501]119"},{"mesh":2,"translation":[1.3520368,2.5095196,-1.2283624],"rotation":[-0.0,-1.0,0.0,-4.371139E-08],"name":"Glass Mount Pad_2 Part [8742501]071"},{"mesh":2,"translation":[1.3520368,2.5095196,-1.2124866],"rotation":[-0.0,-1.0,0.0,-4.371139E-08],"name":"Glass Mount Pad_2 Part [8742501]120"},{"mesh":2,"translation":[0.38434932,1.9608796,-1.2283624],"rotation":[-1.0,-1.4098531E-22,3.225368E-15,-4.371139E-08],"name":"Glass Mount Pad_2 Part [8742501]003"},{"mesh":2,"translation":[0.38434932,1.9608796,-1.2124866],"rotation":[-1.0,-1.4098531E-22,3.225368E-15,-4.371139E-08],"name":"Glass Mount Pad_2 Part [8742501]028"},{"mesh":2,"translation":[0.38434932,1.8783295,-1.2283624],"rotation":[-1.0,-1.4098531E-22,3.225368E-15,-4.371139E-08],"name":"Glass Mount Pad_2 Part [8742501]004"},{"mesh":2,"translation":[0.38434932,1.8783295,-1.2124866],"rotation":[-1.0,-1.4098531E-22,3.225368E-15,-4.371139E-08],"name":"Glass Mount Pad_2 Part [8742501]029"},{"mesh":2,"translation":[-0.30960903,1.9608796,-1.2283624],"rotation":[-1.0,-1.4098531E-22,3.225368E-15,-4.371139E-08],"name":"Glass Mount Pad_2 Part [8742501]005"},{"mesh":2,"translation":[-0.30960903,1.9608796,-1.2124866],"rotation":[-1.0,-1.4098531E-22,3.225368E-15,-4.371139E-08],"name":"Glass Mount Pad_2 Part [8742501]030"},{"mesh":2,"translation":[-0.30960903,1.8783295,-1.2283624],"rotation":[-1.0,-1.4098531E-22,3.225368E-15,-4.371139E-08],"name":"Glass Mount Pad_2 Part [8742501]006"},{"mesh":2,"translation":[-0.30960903,1.8783295,-1.2124866],"rotation":[-1.0,-1.4098531E-22,3.225368E-15,-4.371139E-08],"name":"Glass Mount Pad_2 Part [8742501]031"},{"mesh":2,"translation":[-0.05326491,1.9608796,-1.2283624],"rotation":[-1.0,-1.4098531E-22,3.225368E-15,-4.371139E-08],"name":"Glass Mount Pad_2 Part [8742501]007"},{"mesh":2,"translation":[-0.05326491,1.9608796,-1.2124866],"rotation":[-1.0,-1.4098531E-22,3.225368E-15,-4.371139E-08],"name":"Glass Mount Pad_2 Part [8742501]032"},{"mesh":2,"translation":[-0.05326491,1.8783295,-1.2283624],"rotation":[-1.0,-1.4098531E-22,3.225368E-15,-4.371139E-08],"name":"Glass Mount Pad_2 Part [8742501]008"},{"mesh":2,"translation":[-0.05326491,1.8783295,-1.2124866],"rotation":[-1.0,-1.4098531E-22,3.225368E-15,-4.371139E-08],"name":"Glass Mount Pad_2 Part [8742501]033"},{"mesh":2,"translation":[-0.512161,1.9608796,-0.10632985],"rotation":[-0.7071068,3.0908623E-08,0.7071068,3.0908623E-08],"name":"Glass Mount Pad_2 Part [8742501]011"},{"mesh":2,"translation":[-0.49628526,1.9608796,-0.10632985],"rotation":[-0.7071068,3.0908623E-08,0.7071068,3.0908623E-08],"name":"Glass Mount Pad_2 Part [8742501]036"},{"mesh":2,"translation":[-0.512161,1.8783295,-0.10632985],"rotation":[-0.7071068,3.0908623E-08,0.7071068,3.0908623E-08],"name":"Glass Mount Pad_2 Part [8742501]012"},{"mesh":2,"translation":[-0.49628526,1.8783295,-0.10632985],"rotation":[-0.7071068,3.0908623E-08,0.7071068,3.0908623E-08],"name":"Glass Mount Pad_2 Part [8742501]037"},{"mesh":2,"translation":[-0.512161,1.9608796,-1.0263249],"rotation":[-0.0,-0.7071068,0.0,0.7071067],"name":"Glass Mount Pad_2 Part [8742501]013"},{"mesh":2,"translation":[-0.49628526,1.9608796,-1.0263249],"rotation":[-0.0,-0.7071068,0.0,0.7071067],"name":"Glass Mount Pad_2 Part [8742501]038"},{"mesh":2,"translation":[-0.512161,1.8783295,-1.0263249],"rotation":[-6.181724E-08,-0.7071068,-6.181724E-08,0.7071067],"name":"Glass Mount Pad_2 Part [8742501]014"},{"mesh":2,"translation":[-0.49628526,1.8783295,-1.0263249],"rotation":[-0.0,-0.7071068,0.0,0.7071067],"name":"Glass Mount Pad_2 Part [8742501]039"},{"mesh":2,"translation":[-0.512161,1.9608796,-0.5693402],"rotation":[-0.0,-0.7071068,0.0,0.7071067],"name":"Glass Mount Pad_2 Part [8742501]015"},{"mesh":2,"translation":[-0.49628526,1.9608796,-0.5693402],"rotation":[-0.0,-0.7071068,0.0,0.7071067],"name":"Glass Mount Pad_2 Part [8742501]040"},{"mesh":2,"translation":[-0.512161,1.8783295,-0.5693402],"rotation":[-6.181724E-08,-0.7071068,-6.181724E-08,0.7071067],"name":"Glass Mount Pad_2 Part [8742501]016"},{"mesh":2,"translation":[-0.49628526,1.8783295,-0.5693402],"rotation":[-0.0,-0.7071068,0.0,0.7071067],"name":"Glass Mount Pad_2 Part [8742501]041"},{"mesh":2,"translation":[-0.512161,1.7779996,0.24874151],"rotation":[-0.0,-0.7071068,0.0,0.7071067],"name":"Glass Mount Pad_2 Part [8742501]080"},{"mesh":2,"translation":[-0.49628526,1.7779996,0.24874151],"rotation":[-0.0,-0.7071068,0.0,0.7071067],"name":"Glass Mount Pad_2 Part [8742501]129"},{"mesh":2,"translation":[-0.512161,1.5951195,0.5149136],"rotation":[-0.0,-0.7071068,0.0,0.7071067],"name":"Glass Mount Pad_2 Part [8742501]081"},{"mesh":2,"translation":[-0.49628526,1.5951195,0.5149136],"rotation":[-0.0,-0.7071068,0.0,0.7071067],"name":"Glass Mount Pad_2 Part [8742501]130"},{"mesh":2,"translation":[-0.512161,1.5951195,0.36251363],"rotation":[-0.0,-0.7071068,0.0,0.7071067],"name":"Glass Mount Pad_2 Part [8742501]082"},{"mesh":2,"translation":[-0.49628526,1.5951195,0.36251363],"rotation":[-0.0,-0.7071068,0.0,0.7071067],"name":"Glass Mount Pad_2 Part [8742501]131"},{"mesh":2,"translation":[-0.512161,1.4122397,0.78108346],"rotation":[-0.0,-0.7071068,0.0,0.7071067],"name":"Glass Mount Pad_2 Part [8742501]083"},{"mesh":2,"translation":[-0.49628526,1.4122397,0.78108346],"rotation":[-0.0,-0.7071068,0.0,0.7071067],"name":"Glass Mount Pad_2 Part [8742501]132"},{"mesh":2,"translation":[-0.512161,1.4122397,0.62868345],"rotation":[-0.0,-0.7071068,0.0,0.7071067],"name":"Glass Mount Pad_2 Part [8742501]084"},{"mesh":2,"translation":[-0.49628526,1.4122397,0.62868345],"rotation":[-0.0,-0.7071068,0.0,0.7071067],"name":"Glass Mount Pad_2 Part [8742501]133"},{"mesh":2,"translation":[-0.512161,1.2293596,1.0472555],"rotation":[-0.0,-0.7071068,0.0,0.7071067],"name":"Glass Mount Pad_2 Part [8742501]085"},{"mesh":2,"translation":[-0.49628526,1.2293596,1.0472555],"rotation":[-0.0,-0.7071068,0.0,0.7071067],"name":"Glass Mount Pad_2 Part [8742501]134"},{"mesh":2,"translation":[-0.512161,1.2293596,0.89485556],"rotation":[-0.0,-0.7071068,0.0,0.7071067],"name":"Glass Mount Pad_2 Part [8742501]086"},{"mesh":2,"translation":[-0.49628526,1.2293596,0.89485556],"rotation":[-0.0,-0.7071068,0.0,0.7071067],"name":"Glass Mount Pad_2 Part [8742501]135"},{"mesh":2,"translation":[-0.512161,1.0464796,1.3134254],"rotation":[-0.0,-0.7071068,0.0,0.7071067],"name":"Glass Mount Pad_2 Part [8742501]087"},{"mesh":2,"translation":[-0.49628526,1.0464796,1.3134254],"rotation":[-0.0,-0.7071068,0.0,0.7071067],"name":"Glass Mount Pad_2 Part [8742501]136"},{"mesh":2,"translation":[-0.512161,1.0464796,1.1610254],"rotation":[-0.0,-0.7071068,0.0,0.7071067],"name":"Glass Mount Pad_2 Part [8742501]088"},{"mesh":2,"translation":[-0.49628526,1.0464796,1.1610254],"rotation":[-0.0,-0.7071068,0.0,0.7071067],"name":"Glass Mount Pad_2 Part [8742501]137"},{"mesh":2,"translation":[-0.512161,0.8635996,1.5795952],"rotation":[-0.0,-0.7071068,0.0,0.7071067],"name":"Glass Mount Pad_2 Part [8742501]089"},{"mesh":2,"translation":[-0.49628526,0.8635996,1.5795952],"rotation":[-0.0,-0.7071068,0.0,0.7071067],"name":"Glass Mount Pad_2 Part [8742501]138"},{"mesh":2,"translation":[-0.512161,0.8635996,1.4271952],"rotation":[-0.0,-0.7071068,0.0,0.7071067],"name":"Glass Mount Pad_2 Part [8742501]090"},{"mesh":2,"translation":[-0.49628526,0.8635996,1.4271952],"rotation":[-0.0,-0.7071068,0.0,0.7071067],"name":"Glass Mount Pad_2 Part [8742501]139"},{"mesh":2,"translation":[0.8435398,1.5951195,0.5149137],"rotation":[-0.0,0.7071068,0.0,0.7071068],"name":"Glass Mount Pad_2 Part [8742501]091"},{"mesh":2,"translation":[0.827664,1.5951195,0.5149137],"rotation":[-0.0,0.7071068,0.0,0.7071068],"name":"Glass Mount Pad_2 Part [8742501]140"},{"mesh":2,"translation":[0.8435398,1.5951195,0.3625137],"rotation":[-0.0,0.7071068,0.0,0.7071068],"name":"Glass Mount Pad_2 Part [8742501]092"},{"mesh":2,"translation":[0.827664,1.5951195,0.3625137],"rotation":[-0.0,0.7071068,0.0,0.7071068],"name":"Glass Mount Pad_2 Part [8742501]141"},{"mesh":2,"translation":[0.84353995,1.4122397,0.78108346],"rotation":[-0.0,0.7071068,0.0,0.7071068],"name":"Glass Mount Pad_2 Part [8742501]093"},{"mesh":2,"translation":[0.8276642,1.4122397,0.78108346],"rotation":[-0.0,0.7071068,0.0,0.7071068],"name":"Glass Mount Pad_2 Part [8742501]142"},{"mesh":2,"translation":[0.84353995,1.4122397,0.62868345],"rotation":[-0.0,0.7071068,0.0,0.7071068],"name":"Glass Mount Pad_2 Part [8742501]094"},{"mesh":2,"translation":[0.8276642,1.4122397,0.62868345],"rotation":[-0.0,0.7071068,0.0,0.7071068],"name":"Glass Mount Pad_2 Part [8742501]143"},{"mesh":2,"translation":[0.8435398,1.2293596,1.0472558],"rotation":[-0.0,0.7071068,0.0,0.7071068],"name":"Glass Mount Pad_2 Part [8742501]095"},{"mesh":2,"translation":[0.827664,1.2293596,1.0472558],"rotation":[-0.0,0.7071068,0.0,0.7071068],"name":"Glass Mount Pad_2 Part [8742501]144"},{"mesh":2,"translation":[0.84353995,1.2293596,0.89485556],"rotation":[-0.0,0.7071068,0.0,0.7071068],"name":"Glass Mount Pad_2 Part [8742501]096"},{"mesh":2,"translation":[0.8276642,1.2293596,0.89485556],"rotation":[-0.0,0.7071068,0.0,0.7071068],"name":"Glass Mount Pad_2 Part [8742501]145"},{"mesh":2,"translation":[0.8435398,1.0464796,1.3134254],"rotation":[-0.0,0.7071068,0.0,0.7071068],"name":"Glass Mount Pad_2 Part [8742501]097"},{"mesh":2,"translation":[0.827664,1.0464796,1.3134254],"rotation":[-0.0,0.7071068,0.0,0.7071068],"name":"Glass Mount Pad_2 Part [8742501]146"},{"mesh":2,"translation":[0.8435398,1.0464796,1.1610255],"rotation":[-0.0,0.7071068,0.0,0.7071068],"name":"Glass Mount Pad_2 Part [8742501]098"},{"mesh":2,"translation":[0.827664,1.0464796,1.1610255],"rotation":[-0.0,0.7071068,0.0,0.7071068],"name":"Glass Mount Pad_2 Part [8742501]147"},{"mesh":2,"translation":[0.8435398,0.8635996,1.4271952],"rotation":[-0.0,0.7071068,0.0,0.7071068],"name":"Glass Mount Pad_2 Part [8742501]100"},{"mesh":2,"translation":[0.827664,0.8635996,1.4271952],"rotation":[-0.0,0.7071068,0.0,0.7071068],"name":"Glass Mount Pad_2 Part [8742501]149"},{"mesh":3,"translation":[1.2695464,2.8545232,0.118548],"name":"Casework 5 Casework 1 [8445778]"},{"mesh":4,"translation":[0.8348044,1.8297563,0.8572834],"rotation":[-0.0,-0.7071068,0.0,0.7071067],"name":"Casework 6 Casework 1 [8445804]"},{"mesh":5,"translation":[0.83481866,2.3341675,0.8958384],"name":"Generic Models 7 Generic Models 1 [8445814]"},{"mesh":6,"translation":[0.5997804,1.8783295,-1.1601131],"rotation":[-0.5,-0.5,0.5,-0.5],"name":"HW73957 & HW0178224 - 1l2-13 x 3l4 FHSCS Hardware [8742491]"},{"mesh":6,"translation":[0.38434932,1.8783295,-1.1601131],"rotation":[-0.5,0.5,0.5,0.5],"name":"HW73957 & HW0178224 - 1l2-13 x 3l4 FHSCS Hardware [8742491]001"},{"mesh":6,"translation":[-0.30960903,1.8783295,-1.1601131],"rotation":[-0.5,0.5,0.5,0.5],"name":"HW73957 & HW0178224 - 1l2-13 x 3l4 FHSCS Hardware [8742491]002"},{"mesh":6,"translation":[-0.053264763,1.8783295,-1.1601131],"rotation":[-0.5,0.5,0.5,0.5],"name":"HW73957 & HW0178224 - 1l2-13 x 3l4 FHSCS Hardware [8742491]003"},{"mesh":6,"translation":[-0.4439094,1.8783295,-0.10632985],"rotation":[-3.0908627E-08,0.7071068,0.7071068,3.0908623E-08],"name":"HW73957 & HW0178224 - 1l2-13 x 3l4 FHSCS Hardware [8742491]005"},{"mesh":6,"translation":[-0.4439094,1.8783295,-1.0263249],"rotation":[-3.0908623E-08,-0.7071068,0.7071068,-3.0908623E-08],"name":"HW73957 & HW0178224 - 1l2-13 x 3l4 FHSCS Hardware [8742491]006"},{"mesh":6,"translation":[-0.4439094,1.8783295,-0.5693401],"rotation":[-3.0908623E-08,-0.7071068,0.7071068,-3.0908623E-08],"name":"HW73957 & HW0178224 - 1l2-13 x 3l4 FHSCS Hardware [8742491]007"},{"mesh":6,"translation":[-0.44403496,1.8783295,-0.099844925],"rotation":[3.0908627E-08,-0.7071068,0.7071068,3.0908623E-08],"name":"HW73957 & HW0178224 - 1l2-13 x 3l4 FHSCS Hardware [8742491]009"},{"mesh":7,"translation":[0.6124796,1.9037296,-1.0775623],"rotation":[-0.7071068,-0.7071068,-2.6692543E-08,8.850979E-08],"name":"HW135744 - #14-10 x 3 18-8 Wood Screw Hardware [8742495]001"},{"mesh":7,"translation":[0.5870788,1.9037296,-1.0775623],"rotation":[-0.7071068,-0.7071068,-2.6692543E-08,8.850979E-08],"name":"HW135744 - #14-10 x 3 18-8 Wood Screw Hardware [8742495]002"},{"mesh":7,"translation":[0.6124796,1.9037296,-1.1156623],"rotation":[-0.7071068,-0.7071068,-3.0908627E-08,-3.0908623E-08],"name":"HW135744 - #14-10 x 3 18-8 Wood Screw Hardware [8742495]"},{"mesh":7,"translation":[0.5870788,1.9037296,-1.1156623],"rotation":[-0.7071068,-0.7071068,-2.6692543E-08,8.850979E-08],"name":"HW135744 - #14-10 x 3 18-8 Wood Screw Hardware [8742495]003"},{"mesh":7,"translation":[0.3716501,1.9037296,-1.0775623],"rotation":[-0.0,-0.0,0.7071068,0.7071067],"name":"HW135744 - #14-10 x 3 18-8 Wood Screw Hardware [8742495]004"},{"mesh":7,"translation":[0.39704856,1.9037296,-1.0775623],"rotation":[-0.0,-0.0,0.7071068,0.7071067],"name":"HW135744 - #14-10 x 3 18-8 Wood Screw Hardware [8742495]005"},{"mesh":7,"translation":[0.3716501,1.9037296,-1.1156623],"rotation":[-0.0,-0.0,0.7071068,0.7071067],"name":"HW135744 - #14-10 x 3 18-8 Wood Screw Hardware [8742495]006"},{"mesh":7,"translation":[0.39704856,1.9037296,-1.1156623],"rotation":[-0.0,-0.0,0.7071068,0.7071067],"name":"HW135744 - #14-10 x 3 18-8 Wood Screw Hardware [8742495]007"},{"mesh":7,"translation":[-0.32231057,1.9037296,-1.0775623],"rotation":[-0.0,-0.0,0.7071068,0.7071067],"name":"HW135744 - #14-10 x 3 18-8 Wood Screw Hardware [8742495]008"},{"mesh":7,"translation":[-0.29690978,1.9037296,-1.0775623],"rotation":[-0.0,-0.0,0.7071068,0.7071067],"name":"HW135744 - #14-10 x 3 18-8 Wood Screw Hardware [8742495]009"},{"mesh":7,"translation":[-0.32231057,1.9037296,-1.1156623],"rotation":[-0.0,-0.0,0.7071068,0.7071067],"name":"HW135744 - #14-10 x 3 18-8 Wood Screw Hardware [8742495]010"},{"mesh":7,"translation":[-0.29690978,1.9037296,-1.1156623],"rotation":[-0.0,-0.0,0.7071068,0.7071067],"name":"HW135744 - #14-10 x 3 18-8 Wood Screw Hardware [8742495]011"},{"mesh":7,"translation":[-0.06596413,1.9037296,-1.0775623],"rotation":[-0.0,-0.0,0.7071068,0.7071067],"name":"HW135744 - #14-10 x 3 18-8 Wood Screw Hardware [8742495]012"},{"mesh":7,"translation":[-0.040565684,1.9037296,-1.0775623],"rotation":[-0.0,-0.0,0.7071068,0.7071067],"name":"HW135744 - #14-10 x 3 18-8 Wood Screw Hardware [8742495]013"},{"mesh":7,"translation":[-0.06596413,1.9037296,-1.1156623],"rotation":[-0.0,-0.0,0.7071068,0.7071067],"name":"HW135744 - #14-10 x 3 18-8 Wood Screw Hardware [8742495]014"},{"mesh":7,"translation":[-0.040565684,1.9037296,-1.1156623],"rotation":[-0.0,-0.0,0.7071068,0.7071067],"name":"HW135744 - #14-10 x 3 18-8 Wood Screw Hardware [8742495]015"},{"mesh":7,"translation":[-0.36136094,1.9037296,-0.093628295],"rotation":[-0.5000001,-0.49999997,-0.50000006,-0.49999997],"name":"HW135744 - #14-10 x 3 18-8 Wood Screw Hardware [8742495]020"},{"mesh":7,"translation":[-0.36136094,1.9037296,-0.119029075],"rotation":[-0.5000001,-0.49999997,-0.50000006,-0.49999997],"name":"HW135744 - #14-10 x 3 18-8 Wood Screw Hardware [8742495]021"},{"mesh":7,"translation":[-0.39946094,1.9037296,-0.093628295],"rotation":[-0.5000001,-0.49999997,-0.50000006,-0.49999997],"name":"HW135744 - #14-10 x 3 18-8 Wood Screw Hardware [8742495]022"},{"mesh":7,"translation":[-0.39946094,1.9037296,-0.119029075],"rotation":[-0.5000001,-0.49999997,-0.50000006,-0.49999997],"name":"HW135744 - #14-10 x 3 18-8 Wood Screw Hardware [8742495]023"},{"mesh":7,"translation":[-0.36136094,1.9037296,-1.0390264],"rotation":[-0.49999997,-0.5000001,0.50000006,0.49999997],"name":"HW135744 - #14-10 x 3 18-8 Wood Screw Hardware [8742495]024"},{"mesh":7,"translation":[-0.36136094,1.9037296,-1.0136256],"rotation":[-0.49999997,-0.5000001,0.50000006,0.49999997],"name":"HW135744 - #14-10 x 3 18-8 Wood Screw Hardware [8742495]025"},{"mesh":7,"translation":[-0.39946094,1.9037296,-1.0390264],"rotation":[-0.49999997,-0.5000001,0.50000006,0.49999997],"name":"HW135744 - #14-10 x 3 18-8 Wood Screw Hardware [8742495]026"},{"mesh":7,"translation":[-0.39946094,1.9037296,-1.0136256],"rotation":[-0.49999997,-0.5000001,0.50000006,0.49999997],"name":"HW135744 - #14-10 x 3 18-8 Wood Screw Hardware [8742495]027"},{"mesh":7,"translation":[-0.36136094,1.9037296,-0.5820418],"rotation":[-0.49999997,-0.5000001,0.50000006,0.49999997],"name":"HW135744 - #14-10 x 3 18-8 Wood Screw Hardware [8742495]028"},{"mesh":7,"translation":[-0.36136094,1.9037296,-0.55664104],"rotation":[-0.49999997,-0.5000001,0.50000006,0.49999997],"name":"HW135744 - #14-10 x 3 18-8 Wood Screw Hardware [8742495]029"},{"mesh":7,"translation":[-0.39946094,1.9037296,-0.5820418],"rotation":[-0.49999997,-0.5000001,0.50000006,0.49999997],"name":"HW135744 - #14-10 x 3 18-8 Wood Screw Hardware [8742495]030"},{"mesh":7,"translation":[-0.39946094,1.9037296,-0.55664104],"rotation":[-0.49999997,-0.5000001,0.50000006,0.49999997],"name":"HW135744 - #14-10 x 3 18-8 Wood Screw Hardware [8742495]031"},{"mesh":7,"translation":[-0.3614842,1.9037296,-0.112546474],"rotation":[-0.5,-0.5,0.50000006,0.49999994],"name":"HW135744 - #14-10 x 3 18-8 Wood Screw Hardware [8742495]036"},{"mesh":7,"translation":[-0.3614842,1.9037296,-0.0871457],"rotation":[-0.5,-0.5,0.50000006,0.49999994],"name":"HW135744 - #14-10 x 3 18-8 Wood Screw Hardware [8742495]037"},{"mesh":7,"translation":[-0.3995842,1.9037296,-0.112546474],"rotation":[-0.5,-0.5,0.50000006,0.49999994],"name":"HW135744 - #14-10 x 3 18-8 Wood Screw Hardware [8742495]038"},{"mesh":7,"translation":[-0.3995842,1.9037296,-0.0871457],"rotation":[-0.5,-0.5,0.50000006,0.49999994],"name":"HW135744 - #14-10 x 3 18-8 Wood Screw Hardware [8742495]039"},{"mesh":8,"translation":[0.5997804,1.9100796,-1.1601131],"rotation":[-0.0,0.7071068,0.0,0.7071067],"name":"Landing Bracket Part [8742494]"},{"mesh":8,"translation":[0.38434932,1.9100796,-1.1601131],"rotation":[-0.0,0.7071068,0.0,0.7071067],"name":"Landing Bracket Part [8742494]001"},{"mesh":8,"translation":[-0.30960903,1.9100796,-1.1601131],"rotation":[-0.0,0.7071068,0.0,0.7071067],"name":"Landing Bracket Part [8742494]002"},{"mesh":8,"translation":[-0.05326491,1.9100796,-1.1601131],"rotation":[-0.0,0.7071068,0.0,0.7071067],"name":"Landing Bracket Part [8742494]003"},{"mesh":8,"translation":[-0.4439094,1.9100796,-0.10632985],"rotation":[-0.0,-1.0,0.0,-1.6292068E-07],"name":"Landing Bracket Part [8742494]005"},{"mesh":8,"translation":[-0.4439094,1.9100796,-1.0263249],"rotation":[-0.0,-1.0,0.0,-1.6292068E-07],"name":"Landing Bracket Part [8742494]006"},{"mesh":8,"translation":[-0.4439094,1.9100796,-0.5693402],"rotation":[-0.0,-1.0,0.0,-1.6292068E-07],"name":"Landing Bracket Part [8742494]007"},{"mesh":9,"translation":[0.5997804,1.9608796,-1.1664615],"rotation":[-0.0,-1.0,0.0,-4.371139E-08],"name":"Boss_073"},{"mesh":9,"translation":[0.5997804,1.8783295,-1.1664615],"rotation":[-0.0,-1.0,0.0,-4.371139E-08],"name":"Boss_070"},{"mesh":9,"translation":[0.38434932,1.9608796,-1.1664615],"rotation":[-0.0,-1.0,0.0,4.371139E-08],"name":"Boss_072"},{"mesh":9,"translation":[0.38434932,1.8783295,-1.1664615],"rotation":[-0.0,-1.0,0.0,4.371139E-08],"name":"Boss_068"},{"mesh":9,"translation":[-0.30960903,1.9608796,-1.1664615],"rotation":[-0.0,-1.0,0.0,4.371139E-08],"name":"Boss_056"},{"mesh":9,"translation":[-0.30960903,1.8783295,-1.1664615],"rotation":[-0.0,-1.0,0.0,4.371139E-08],"name":"Boss_066"},{"mesh":9,"translation":[-0.05326491,1.9608796,-1.1664615],"rotation":[-0.0,-1.0,0.0,4.371139E-08],"name":"Boss_058"},{"mesh":9,"translation":[-0.05326491,1.8783295,-1.1664615],"rotation":[-0.0,-1.0,0.0,4.371139E-08],"name":"Boss_064"},{"mesh":9,"translation":[-0.45026016,1.9608796,-0.10632985],"rotation":[-0.0,-0.7071068,0.0,0.7071067],"name":"Boss_053"},{"mesh":9,"translation":[-0.45026016,1.8783295,-0.10632985],"rotation":[-0.0,-0.7071068,0.0,0.7071067],"name":"Boss_048"},{"mesh":9,"translation":[-0.45026016,1.9608796,-1.0263249],"rotation":[-0.0,-0.7071068,0.0,0.7071067],"name":"Boss_049"},{"mesh":9,"translation":[-0.45026016,1.8783295,-1.0263249],"rotation":[-0.0,-0.7071068,0.0,0.7071067],"name":"Boss_050"},{"mesh":9,"translation":[-0.45026016,1.9608796,-0.5693402],"rotation":[-0.0,-0.7071068,0.0,0.7071067],"name":"Boss_051"},{"mesh":9,"translation":[-0.45026016,1.8783295,-0.5693402],"rotation":[-0.0,-0.7071068,0.0,0.7071067],"name":"Boss_052"},{"mesh":10,"translation":[1.0859531,3.1204898,-1.2196583],"name":"Casework 2 Casework 1 [8743341]"},{"mesh":11,"translation":[-0.50346565,1.8351496,0.2196456],"rotation":[-0.0,-0.7071068,0.0,0.7071067],"name":"Casework 4 Casework 1 [8744916]"},{"mesh":12,"translation":[1.0723425,3.6667562,-0.6193355],"name":"Generic Models 11 Generic Models 11 [8762451]"},{"mesh":13,"translation":[1.7566566,3.7835908,0.118619725],"name":"Generic Models 11 Generic Models 11 [8762451]002"},{"mesh":14,"translation":[1.3450357,0.13227047,1.6276821],"rotation":[-0.0,-1.0,0.0,7.54979E-08],"name":"Boss_080"},{"mesh":14,"translation":[1.4974357,0.13227047,1.6276821],"rotation":[-0.0,-1.0,0.0,7.54979E-08],"name":"Boss_081"},{"mesh":14,"translation":[1.0788665,0.31515044,1.6276821],"rotation":[-0.0,-1.0,0.0,7.54979E-08],"name":"Boss_082"},{"mesh":14,"translation":[1.2312664,0.31515044,1.6276821],"rotation":[-0.0,-1.0,0.0,7.54979E-08],"name":"Boss_083"},{"mesh":14,"translation":[1.3450357,0.13227047,2.846882],"name":"Boss_090"},{"mesh":14,"translation":[1.4974357,0.13227047,2.846882],"name":"Boss_091"},{"mesh":14,"translation":[1.0788659,0.31515044,2.846882],"name":"Boss_092"},{"mesh":14,"translation":[1.2312659,0.31515044,2.846882],"name":"Boss_093"},{"mesh":14,"translation":[0.96509373,0.49803048,2.846882],"name":"Boss_094"},{"mesh":14,"translation":[0.96509373,0.49803048,1.6276821],"rotation":[-0.0,-1.0,0.0,7.54979E-08],"name":"Boss_121"},{"mesh":15,"translation":[0.61002237,0.5983605,2.8532329],"name":"Boss_122"},{"mesh":15,"translation":[-0.3099725,0.68091047,2.8532329],"name":"Boss_123"},{"mesh":15,"translation":[-0.3099725,0.5983605,2.8532329],"name":"Boss_124"},{"mesh":15,"translation":[0.14701225,0.68091047,2.8532329],"name":"Boss_125"},{"mesh":15,"translation":[0.14701225,0.5983605,2.8532329],"name":"Boss_126"},{"mesh":15,"translation":[0.61002237,0.68091047,2.8532329],"name":"Boss_127"},{"mesh":15,"translation":[-0.45010874,0.68091047,2.712582],"rotation":[-0.0,-0.7071068,0.0,0.7071068],"name":"Boss_128"},{"mesh":15,"translation":[-0.450109,0.68091047,2.3693147],"rotation":[-0.0,-0.7071068,0.0,0.7071068],"name":"Boss_129"},{"mesh":15,"translation":[-0.450109,0.5983605,2.3693147],"rotation":[-0.0,-0.7071068,0.0,0.7071068],"name":"Boss_130"},{"mesh":15,"translation":[-0.45010874,0.5983605,2.712582],"rotation":[-0.0,-0.7071068,0.0,0.7071068],"name":"Boss_131"},{"mesh":15,"translation":[-0.45010874,0.5983605,2.0186234],"rotation":[-0.0,-0.7071068,0.0,0.7071068],"name":"Boss_132"},{"mesh":15,"translation":[-0.45010874,0.5983605,1.8031923],"rotation":[-0.0,-0.7071068,0.0,0.7071067],"name":"Boss_133"},{"mesh":15,"translation":[-0.45010874,0.68091047,2.0186234],"rotation":[-0.0,-0.7071068,0.0,0.7071068],"name":"Boss_134"},{"mesh":15,"translation":[-0.45010874,0.68091047,1.8031923],"rotation":[-0.0,-0.7071068,0.0,0.7071067],"name":"Boss_135"},{"mesh":16,"translation":[-0.5033055,1.8405206,1.3170196],"rotation":[-0.0,0.7071068,0.0,0.7071067],"name":"Casework 2 Casework 1 [8743341]002"},{"mesh":17,"translation":[0.93599784,0.5551805,2.9064376],"name":"Casework 4 Casework 1 [8744916]003"},{"mesh":18,"translation":[1.2155637,0.7297781,1.5681683],"name":"Casework 6 Casework 1 [8445804]003"},{"mesh":19,"translation":[0.09701588,2.386787,1.3306292],"rotation":[-0.0,0.7071068,0.0,0.7071067],"name":"Generic Models 11 Generic Models 11 [8762451]006"},{"mesh":20,"translation":[1.2160536,1.3283572,1.5681554],"name":"Generic Models 7 Generic Models 1 [8445814]003"},{"mesh":21,"translation":[-0.5120096,0.68091047,1.8031923],"rotation":[-0.0,-0.7071068,0.0,0.7071068],"name":"Glass Mount Clamp Part [8742498]075"},{"mesh":21,"translation":[-0.5120096,0.5983605,1.8031923],"rotation":[-0.0,-0.7071068,0.0,0.7071067],"name":"Glass Mount Clamp Part [8742498]076"},{"mesh":21,"translation":[-0.5120096,0.68091047,2.0186234],"rotation":[-0.0,-0.7071068,0.0,0.7071068],"name":"Glass Mount Clamp Part [8742498]077"},{"mesh":21,"translation":[-0.5120096,0.5983605,2.0186234],"rotation":[-0.0,-0.7071068,0.0,0.7071068],"name":"Glass Mount Clamp Part [8742498]078"},{"mesh":21,"translation":[-0.5120096,0.68091047,2.712582],"rotation":[-0.0,-0.7071068,0.0,0.7071068],"name":"Glass Mount Clamp Part [8742498]079"},{"mesh":21,"translation":[-0.5120096,0.5983605,2.712582],"rotation":[-0.0,-0.7071068,0.0,0.7071068],"name":"Glass Mount Clamp Part [8742498]080"},{"mesh":21,"translation":[-0.51200986,0.68091047,2.3693147],"rotation":[-0.0,-0.7071068,0.0,0.7071068],"name":"Glass Mount Clamp Part [8742498]081"},{"mesh":21,"translation":[-0.51200986,0.5983605,2.3693147],"rotation":[-0.0,-0.7071068,0.0,0.7071068],"name":"Glass Mount Clamp Part [8742498]082"},{"mesh":21,"translation":[0.61002237,0.68091047,2.9151337],"name":"Glass Mount Clamp Part [8742498]083"},{"mesh":21,"translation":[0.61002237,0.5983605,2.9151337],"name":"Glass Mount Clamp Part [8742498]084"},{"mesh":21,"translation":[-0.3099725,0.68091047,2.9151337],"name":"Glass Mount Clamp Part [8742498]085"},{"mesh":21,"translation":[-0.3099725,0.5983605,2.9151337],"name":"Glass Mount Clamp Part [8742498]086"},{"mesh":21,"translation":[0.14701225,0.68091047,2.9151337],"name":"Glass Mount Clamp Part [8742498]087"},{"mesh":21,"translation":[0.14701225,0.5983605,2.9151337],"name":"Glass Mount Clamp Part [8742498]088"},{"mesh":21,"translation":[0.96509373,0.49803048,1.5594327],"rotation":[-0.0,-1.0,0.0,7.54979E-08],"name":"Glass Mount Clamp Part [8742498]089"},{"mesh":21,"translation":[0.96509373,0.49803048,2.9151337],"name":"Glass Mount Clamp Part [8742498]117"},{"mesh":21,"translation":[1.2312659,0.31515044,2.9151337],"name":"Glass Mount Clamp Part [8742498]118"},{"mesh":21,"translation":[1.0788659,0.31515044,2.9151337],"name":"Glass Mount Clamp Part [8742498]119"},{"mesh":21,"translation":[1.4974357,0.13227047,2.9151337],"name":"Glass Mount Clamp Part [8742498]120"},{"mesh":21,"translation":[1.3450357,0.13227047,2.9151337],"name":"Glass Mount Clamp Part [8742498]121"},{"mesh":21,"translation":[1.2312664,0.31515044,1.5594327],"rotation":[-0.0,-1.0,0.0,7.54979E-08],"name":"Glass Mount Clamp Part [8742498]128"},{"mesh":21,"translation":[1.0788665,0.31515044,1.5594327],"rotation":[-0.0,-1.0,0.0,7.54979E-08],"name":"Glass Mount Clamp Part [8742498]129"},{"mesh":21,"translation":[1.4974357,0.13227047,1.5594327],"rotation":[-0.0,-1.0,0.0,7.54979E-08],"name":"Glass Mount Clamp Part [8742498]130"},{"mesh":21,"translation":[1.3450357,0.13227047,1.5594327],"rotation":[-0.0,-1.0,0.0,7.54979E-08],"name":"Glass Mount Clamp Part [8742498]131"},{"mesh":22,"translation":[-0.49613383,0.68091047,1.8031923],"rotation":[-0.0,-0.7071068,0.0,0.7071068],"name":"Glass Mount Pad_2 Part [8742501]150"},{"mesh":22,"translation":[-0.5120096,0.68091047,1.8031923],"rotation":[-0.0,-0.7071068,0.0,0.7071067],"name":"Glass Mount Pad_2 Part [8742501]151"},{"mesh":22,"translation":[-0.5120096,0.5983605,1.8031923],"rotation":[-0.0,-0.7071068,0.0,0.7071067],"name":"Glass Mount Pad_2 Part [8742501]152"},{"mesh":22,"translation":[-0.5120096,0.68091047,2.0186234],"rotation":[-0.7071068,-3.0908627E-08,0.7071068,-3.0908623E-08],"name":"Glass Mount Pad_2 Part [8742501]153"},{"mesh":22,"translation":[-0.5120096,0.5983605,2.0186234],"rotation":[-0.7071068,-3.0908627E-08,0.7071068,-3.0908623E-08],"name":"Glass Mount Pad_2 Part [8742501]154"},{"mesh":22,"translation":[-0.5120096,0.68091047,2.712582],"rotation":[-0.7071068,-3.0908627E-08,0.7071068,-3.0908623E-08],"name":"Glass Mount Pad_2 Part [8742501]155"},{"mesh":22,"translation":[-0.5120096,0.5983605,2.712582],"rotation":[-0.7071068,-3.0908627E-08,0.7071068,-3.0908623E-08],"name":"Glass Mount Pad_2 Part [8742501]156"},{"mesh":22,"translation":[-0.51200986,0.68091047,2.3693147],"rotation":[-0.7071068,-3.0908627E-08,0.7071068,-3.0908623E-08],"name":"Glass Mount Pad_2 Part [8742501]157"},{"mesh":22,"translation":[-0.51200986,0.5983605,2.3693147],"rotation":[-0.7071068,-3.0908627E-08,0.7071068,-3.0908623E-08],"name":"Glass Mount Pad_2 Part [8742501]158"},{"mesh":22,"translation":[0.61002237,0.68091047,2.9151337],"rotation":[7.54979E-08,4.371139E-08,1.0,-3.300118E-15],"name":"Glass Mount Pad_2 Part [8742501]159"},{"mesh":22,"translation":[0.61002237,0.5983605,2.9151337],"rotation":[7.54979E-08,4.371139E-08,1.0,-3.300118E-15],"name":"Glass Mount Pad_2 Part [8742501]160"},{"mesh":22,"translation":[-0.3099725,0.68091047,2.9151337],"name":"Glass Mount Pad_2 Part [8742501]161"},{"mesh":22,"translation":[-0.3099725,0.5983605,2.9151337],"rotation":[-8.742278E-08,-0.0,0.0,1.0],"name":"Glass Mount Pad_2 Part [8742501]162"},{"mesh":22,"translation":[0.14701225,0.68091047,2.9151337],"name":"Glass Mount Pad_2 Part [8742501]163"},{"mesh":22,"translation":[0.14701225,0.5983605,2.9151337],"rotation":[-8.742278E-08,-0.0,0.0,1.0],"name":"Glass Mount Pad_2 Part [8742501]164"},{"mesh":22,"translation":[-0.49613383,0.5983605,1.8031923],"rotation":[-0.0,-0.7071068,0.0,0.7071067],"name":"Glass Mount Pad_2 Part [8742501]165"},{"mesh":22,"translation":[-0.49613383,0.68091047,2.0186234],"rotation":[-0.7071068,-3.0908627E-08,0.7071068,-3.0908623E-08],"name":"Glass Mount Pad_2 Part [8742501]166"},{"mesh":22,"translation":[-0.49613383,0.5983605,2.0186234],"rotation":[-0.7071068,-3.0908627E-08,0.7071068,-3.0908623E-08],"name":"Glass Mount Pad_2 Part [8742501]167"},{"mesh":22,"translation":[-0.49613383,0.68091047,2.712582],"rotation":[-0.7071068,-3.0908627E-08,0.7071068,-3.0908623E-08],"name":"Glass Mount Pad_2 Part [8742501]168"},{"mesh":22,"translation":[-0.49613383,0.5983605,2.712582],"rotation":[-0.7071068,-3.0908627E-08,0.7071068,-3.0908623E-08],"name":"Glass Mount Pad_2 Part [8742501]169"},{"mesh":22,"translation":[-0.4961341,0.68091047,2.3693147],"rotation":[-0.7071068,-3.0908627E-08,0.7071068,-3.0908623E-08],"name":"Glass Mount Pad_2 Part [8742501]170"},{"mesh":22,"translation":[-0.4961341,0.5983605,2.3693147],"rotation":[-0.7071068,-3.0908627E-08,0.7071068,-3.0908623E-08],"name":"Glass Mount Pad_2 Part [8742501]171"},{"mesh":22,"translation":[0.61002237,0.68091047,2.899258],"rotation":[7.54979E-08,4.371139E-08,1.0,-3.300118E-15],"name":"Glass Mount Pad_2 Part [8742501]172"},{"mesh":22,"translation":[0.61002237,0.5983605,2.899258],"rotation":[7.54979E-08,4.371139E-08,1.0,-3.300118E-15],"name":"Glass Mount Pad_2 Part [8742501]173"},{"mesh":22,"translation":[-0.3099725,0.68091047,2.899258],"name":"Glass Mount Pad_2 Part [8742501]174"},{"mesh":22,"translation":[-0.3099725,0.5983605,2.899258],"name":"Glass Mount Pad_2 Part [8742501]175"},{"mesh":22,"translation":[0.14701225,0.68091047,2.899258],"name":"Glass Mount Pad_2 Part [8742501]176"},{"mesh":22,"translation":[0.14701225,0.5983605,2.899258],"name":"Glass Mount Pad_2 Part [8742501]177"},{"mesh":22,"translation":[0.96509373,0.49803048,1.5594327],"rotation":[-0.0,-1.0,0.0,7.54979E-08],"name":"Glass Mount Pad_2 Part [8742501]178"},{"mesh":22,"translation":[0.96509373,0.49803048,2.9151337],"name":"Glass Mount Pad_2 Part [8742501]206"},{"mesh":22,"translation":[1.2312659,0.31515044,2.9151337],"name":"Glass Mount Pad_2 Part [8742501]207"},{"mesh":22,"translation":[1.0788659,0.31515044,2.9151337],"name":"Glass Mount Pad_2 Part [8742501]208"},{"mesh":22,"translation":[1.4974357,0.13227047,2.9151337],"name":"Glass Mount Pad_2 Part [8742501]209"},{"mesh":22,"translation":[1.3450357,0.13227047,2.9151337],"name":"Glass Mount Pad_2 Part [8742501]210"},{"mesh":22,"translation":[1.2312664,0.31515044,1.5594327],"rotation":[-0.0,-1.0,0.0,7.54979E-08],"name":"Glass Mount Pad_2 Part [8742501]217"},{"mesh":22,"translation":[1.0788665,0.31515044,1.5594327],"rotation":[-0.0,-1.0,0.0,7.54979E-08],"name":"Glass Mount Pad_2 Part [8742501]218"},{"mesh":22,"translation":[1.4974357,0.13227047,1.5594327],"rotation":[-0.0,-1.0,0.0,7.54979E-08],"name":"Glass Mount Pad_2 Part [8742501]219"},{"mesh":22,"translation":[1.3450357,0.13227047,1.5594327],"rotation":[-0.0,-1.0,0.0,7.54979E-08],"name":"Glass Mount Pad_2 Part [8742501]220"},{"mesh":22,"translation":[0.96509373,0.49803048,1.5753086],"rotation":[-0.0,-1.0,0.0,7.54979E-08],"name":"Glass Mount Pad_2 Part [8742501]227"},{"mesh":22,"translation":[0.96509373,0.49803048,2.899258],"name":"Glass Mount Pad_2 Part [8742501]255"},{"mesh":22,"translation":[1.2312659,0.31515044,2.899258],"name":"Glass Mount Pad_2 Part [8742501]256"},{"mesh":22,"translation":[1.0788659,0.31515044,2.899258],"name":"Glass Mount Pad_2 Part [8742501]257"},{"mesh":22,"translation":[1.4974357,0.13227047,2.899258],"name":"Glass Mount Pad_2 Part [8742501]258"},{"mesh":22,"translation":[1.3450357,0.13227047,2.899258],"name":"Glass Mount Pad_2 Part [8742501]259"},{"mesh":22,"translation":[1.2312664,0.31515044,1.5753086],"rotation":[-0.0,-1.0,0.0,7.54979E-08],"name":"Glass Mount Pad_2 Part [8742501]266"},{"mesh":22,"translation":[1.0788665,0.31515044,1.5753086],"rotation":[-0.0,-1.0,0.0,7.54979E-08],"name":"Glass Mount Pad_2 Part [8742501]267"},{"mesh":22,"translation":[1.4974357,0.13227047,1.5753086],"rotation":[-0.0,-1.0,0.0,7.54979E-08],"name":"Glass Mount Pad_2 Part [8742501]268"},{"mesh":22,"translation":[1.3450357,0.13227047,1.5753086],"rotation":[-0.0,-1.0,0.0,7.54979E-08],"name":"Glass Mount Pad_2 Part [8742501]269"},{"mesh":23,"translation":[-0.3993095,0.62376046,1.790493],"rotation":[-0.5,-0.5,0.5,0.5],"name":"HW135744 - #14-10 x 3 18-8 Wood Screw Hardware [8742495]040"},{"mesh":23,"translation":[-0.3612095,0.62376046,1.790493],"rotation":[-0.49999994,-0.5,0.5,0.50000006],"name":"HW135744 - #14-10 x 3 18-8 Wood Screw Hardware [8742495]041"},{"mesh":23,"translation":[-0.3612095,0.62376046,1.8158939],"rotation":[-0.49999994,-0.5,0.5,0.50000006],"name":"HW135744 - #14-10 x 3 18-8 Wood Screw Hardware [8742495]042"},{"mesh":23,"translation":[-0.3993095,0.62376046,1.8158939],"rotation":[-0.49999994,-0.5,0.5,0.50000006],"name":"HW135744 - #14-10 x 3 18-8 Wood Screw Hardware [8742495]043"},{"mesh":23,"translation":[-0.3612095,0.62376046,2.0313225],"rotation":[-0.49999997,-0.5000001,-0.50000006,-0.49999997],"name":"HW135744 - #14-10 x 3 18-8 Wood Screw Hardware [8742495]044"},{"mesh":23,"translation":[-0.3612095,0.62376046,2.005924],"rotation":[-0.49999997,-0.5000001,-0.50000006,-0.49999997],"name":"HW135744 - #14-10 x 3 18-8 Wood Screw Hardware [8742495]045"},{"mesh":23,"translation":[-0.3993095,0.62376046,2.0313225],"rotation":[-0.49999997,-0.5000001,-0.50000006,-0.49999997],"name":"HW135744 - #14-10 x 3 18-8 Wood Screw Hardware [8742495]046"},{"mesh":23,"translation":[-0.3993095,0.62376046,2.005924],"rotation":[-0.49999997,-0.5000001,-0.50000006,-0.49999997],"name":"HW135744 - #14-10 x 3 18-8 Wood Screw Hardware [8742495]047"},{"mesh":23,"translation":[-0.3612095,0.62376046,2.7252836],"rotation":[-0.49999997,-0.5000001,-0.50000006,-0.49999997],"name":"HW135744 - #14-10 x 3 18-8 Wood Screw Hardware [8742495]048"},{"mesh":23,"translation":[-0.3612095,0.62376046,2.699883],"rotation":[-0.49999997,-0.5000001,-0.50000006,-0.49999997],"name":"HW135744 - #14-10 x 3 18-8 Wood Screw Hardware [8742495]049"},{"mesh":23,"translation":[-0.3993095,0.62376046,2.7252836],"rotation":[-0.49999997,-0.5000001,-0.50000006,-0.49999997],"name":"HW135744 - #14-10 x 3 18-8 Wood Screw Hardware [8742495]050"},{"mesh":23,"translation":[-0.3993095,0.62376046,2.699883],"rotation":[-0.49999997,-0.5000001,-0.50000006,-0.49999997],"name":"HW135744 - #14-10 x 3 18-8 Wood Screw Hardware [8742495]051"},{"mesh":23,"translation":[-0.36120978,0.62376046,2.382014],"rotation":[-0.49999997,-0.5000001,-0.50000006,-0.49999997],"name":"HW135744 - #14-10 x 3 18-8 Wood Screw Hardware [8742495]052"},{"mesh":23,"translation":[-0.36120978,0.62376046,2.3566155],"rotation":[-0.49999997,-0.5000001,-0.50000006,-0.49999997],"name":"HW135744 - #14-10 x 3 18-8 Wood Screw Hardware [8742495]053"},{"mesh":23,"translation":[-0.39930978,0.62376046,2.382014],"rotation":[-0.49999997,-0.5000001,-0.50000006,-0.49999997],"name":"HW135744 - #14-10 x 3 18-8 Wood Screw Hardware [8742495]054"},{"mesh":23,"translation":[-0.39930978,0.62376046,2.3566155],"rotation":[-0.49999997,-0.5000001,-0.50000006,-0.49999997],"name":"HW135744 - #14-10 x 3 18-8 Wood Screw Hardware [8742495]055"},{"mesh":23,"translation":[0.62272394,0.62376046,2.7643337],"rotation":[-0.7071068,-0.7071068,-2.6692543E-08,8.850979E-08],"name":"HW135744 - #14-10 x 3 18-8 Wood Screw Hardware [8742495]056"},{"mesh":23,"translation":[0.5973231,0.62376046,2.7643337],"rotation":[-0.7071068,-0.7071068,-2.6692543E-08,8.850979E-08],"name":"HW135744 - #14-10 x 3 18-8 Wood Screw Hardware [8742495]057"},{"mesh":23,"translation":[0.62272394,0.62376046,2.8024337],"rotation":[-0.7071068,-0.7071068,-2.6692543E-08,8.850979E-08],"name":"HW135744 - #14-10 x 3 18-8 Wood Screw Hardware [8742495]058"},{"mesh":23,"translation":[0.5973231,0.62376046,2.8024337],"rotation":[-0.7071068,-0.7071068,-2.6692543E-08,8.850979E-08],"name":"HW135744 - #14-10 x 3 18-8 Wood Screw Hardware [8742495]059"},{"mesh":23,"translation":[-0.32267407,0.62376046,2.7643337],"rotation":[3.3162192E-16,3.316219E-16,0.7071068,0.7071067],"name":"HW135744 - #14-10 x 3 18-8 Wood Screw Hardware [8742495]060"},{"mesh":23,"translation":[-0.29727328,0.62376046,2.7643337],"rotation":[3.3162192E-16,3.316219E-16,0.7071068,0.7071067],"name":"HW135744 - #14-10 x 3 18-8 Wood Screw Hardware [8742495]061"},{"mesh":23,"translation":[-0.32267407,0.62376046,2.8024337],"rotation":[3.3162192E-16,3.316219E-16,0.7071068,0.7071067],"name":"HW135744 - #14-10 x 3 18-8 Wood Screw Hardware [8742495]062"},{"mesh":23,"translation":[-0.29727328,0.62376046,2.8024337],"rotation":[3.3162192E-16,3.316219E-16,0.7071068,0.7071067],"name":"HW135744 - #14-10 x 3 18-8 Wood Screw Hardware [8742495]063"},{"mesh":23,"translation":[0.13431069,0.62376046,2.7643337],"rotation":[3.3162192E-16,3.316219E-16,0.7071068,0.7071067],"name":"HW135744 - #14-10 x 3 18-8 Wood Screw Hardware [8742495]064"},{"mesh":23,"translation":[0.15971148,0.62376046,2.7643337],"rotation":[3.3162192E-16,3.316219E-16,0.7071068,0.7071067],"name":"HW135744 - #14-10 x 3 18-8 Wood Screw Hardware [8742495]065"},{"mesh":23,"translation":[0.13431069,0.62376046,2.8024337],"rotation":[3.3162192E-16,3.316219E-16,0.7071068,0.7071067],"name":"HW135744 - #14-10 x 3 18-8 Wood Screw Hardware [8742495]066"},{"mesh":23,"translation":[0.15971148,0.62376046,2.8024337],"rotation":[3.3162192E-16,3.316219E-16,0.7071068,0.7071067],"name":"HW135744 - #14-10 x 3 18-8 Wood Screw Hardware [8742495]067"},{"mesh":23,"translation":[0.6038059,0.62376046,2.764457],"rotation":[1.4166681E-09,8.287703E-08,0.7071068,0.7071067],"name":"HW135744 - #14-10 x 3 18-8 Wood Screw Hardware [8742495]068"},{"mesh":23,"translation":[0.62920666,0.62376046,2.764457],"rotation":[1.4166681E-09,8.287703E-08,0.7071068,0.7071067],"name":"HW135744 - #14-10 x 3 18-8 Wood Screw Hardware [8742495]069"},{"mesh":23,"translation":[0.6038059,0.62376046,2.802557],"rotation":[1.4166681E-09,8.287703E-08,0.7071068,0.7071067],"name":"HW135744 - #14-10 x 3 18-8 Wood Screw Hardware [8742495]070"},{"mesh":23,"translation":[0.62920666,0.62376046,2.802557],"rotation":[1.4166681E-09,8.287703E-08,0.7071068,0.7071067],"name":"HW135744 - #14-10 x 3 18-8 Wood Screw Hardware [8742495]071"},{"mesh":24,"translation":[-0.44376028,0.5983605,1.8031923],"rotation":[3.0908627E-08,-0.7071068,0.7071068,3.0908623E-08],"name":"HW73957 & HW0178224 - 1l2-13 x 3l4 FHSCS Hardware [8742491]010"},{"mesh":24,"translation":[-0.44376028,0.5983605,2.0186234],"rotation":[3.0908623E-08,0.7071068,0.7071068,-3.0908623E-08],"name":"HW73957 & HW0178224 - 1l2-13 x 3l4 FHSCS Hardware [8742491]011"},{"mesh":24,"translation":[-0.44376028,0.5983605,2.712582],"rotation":[3.0908623E-08,0.7071068,0.7071068,-3.0908623E-08],"name":"HW73957 & HW0178224 - 1l2-13 x 3l4 FHSCS Hardware [8742491]012"},{"mesh":24,"translation":[-0.44376028,0.5983605,2.3693147],"rotation":[3.0908623E-08,0.7071068,0.7071068,-3.0908623E-08],"name":"HW73957 & HW0178224 - 1l2-13 x 3l4 FHSCS Hardware [8742491]013"},{"mesh":24,"translation":[0.61002237,0.5983605,2.846882],"rotation":[0.5,0.5,0.5,-0.5],"name":"HW73957 & HW0178224 - 1l2-13 x 3l4 FHSCS Hardware [8742491]014"},{"mesh":24,"translation":[-0.3099725,0.5983605,2.846882],"rotation":[0.5,-0.5,0.5,0.5],"name":"HW73957 & HW0178224 - 1l2-13 x 3l4 FHSCS Hardware [8742491]015"},{"mesh":24,"translation":[0.14701225,0.5983605,2.846882],"rotation":[0.5,-0.5,0.5,0.5],"name":"HW73957 & HW0178224 - 1l2-13 x 3l4 FHSCS Hardware [8742491]016"},{"mesh":24,"translation":[0.6165074,0.5983605,2.8470078],"rotation":[-0.5,0.5,-0.5,-0.5],"name":"HW73957 & HW0178224 - 1l2-13 x 3l4 FHSCS Hardware [8742491]017"},{"mesh":25,"translation":[-0.44376028,0.6301104,1.8031923],"rotation":[-0.0,-1.0,0.0,4.371139E-08],"name":"Landing Bracket Part [8742494]008"},{"mesh":25,"translation":[-0.44376028,0.6301104,2.0186234],"rotation":[-0.0,-1.0,0.0,4.371139E-08],"name":"Landing Bracket Part [8742494]009"},{"mesh":25,"translation":[-0.44376028,0.6301104,2.712582],"rotation":[-0.0,-1.0,0.0,4.371139E-08],"name":"Landing Bracket Part [8742494]010"},{"mesh":25,"translation":[-0.44376057,0.6301104,2.3693147],"rotation":[-0.0,-1.0,0.0,4.371139E-08],"name":"Landing Bracket Part [8742494]011"},{"mesh":25,"translation":[0.61002237,0.6301104,2.846882],"rotation":[-0.0,-0.7071069,0.0,0.70710665],"name":"Landing Bracket Part [8742494]012"},{"mesh":25,"translation":[-0.3099725,0.6301104,2.846882],"rotation":[-0.0,-0.7071069,0.0,0.70710665],"name":"Landing Bracket Part [8742494]013"},{"mesh":25,"translation":[0.14701225,0.6301104,2.846882],"rotation":[-0.0,-0.7071069,0.0,0.70710665],"name":"Landing Bracket Part [8742494]014"},{"mesh":26,"translation":[1.5450405,1.0837622,2.9063923],"name":"Object005"},{"mesh":27,"translation":[1.175642,0.7514244,2.9064376],"name":"Object009"},{"mesh":28,"translation":[-0.5032517,2.3636966,0.82490027],"rotation":[-0.0,-0.7071068,0.0,0.7071067],"name":"Object011"}],"meshes":[{"primitives":[{"attributes":{"POSITION":1,"TANGENT":2,"NORMAL":3,"TEXCOORD_0":4},"indices":0,"material":0},{"attributes":{"POSITION":6,"TANGENT":7,"NORMAL":8,"TEXCOORD_0":9},"indices":5,"material":1}],"name":"Boss_047"},{"primitives":[{"attributes":{"POSITION":11,"TANGENT":12,"NORMAL":13,"TEXCOORD_0":14},"indices":10,"material":0},{"attributes":{"POSITION":16,"TANGENT":17,"NORMAL":18,"TEXCOORD_0":19},"indices":15,"material":1}],"name":"Glass Mount Clamp Part [8742498]026"},{"primitives":[{"attributes":{"POSITION":21,"TANGENT":22,"NORMAL":23,"TEXCOORD_0":24},"indices":20,"material":2}],"name":"Glass Mount Pad_2 Part [8742501]052"},{"primitives":[{"attributes":{"POSITION":26,"TANGENT":27,"NORMAL":28,"TEXCOORD_0":29},"indices":25,"material":3}],"name":"Casework 5 Casework 1 [8445778]"},{"primitives":[{"attributes":{"POSITION":31,"TANGENT":32,"NORMAL":33,"TEXCOORD_0":34},"indices":30,"material":3}],"name":"Casework 6 Casework 1 [8445804]"},{"primitives":[{"attributes":{"POSITION":36,"TANGENT":37,"NORMAL":38,"TEXCOORD_0":39},"indices":35,"material":0},{"attributes":{"POSITION":41,"TANGENT":42,"NORMAL":43,"TEXCOORD_0":44},"indices":40,"material":1}],"name":"Generic Models 7 Generic Models 1 [8445814]"},{"primitives":[{"attributes":{"POSITION":46,"TANGENT":47,"NORMAL":48,"TEXCOORD_0":49},"indices":45,"material":0}],"name":"HW73957 & HW0178224 - 1l2-13 x 3l4 FHSCS Hardware [8742491]"},{"primitives":[{"attributes":{"POSITION":51,"TANGENT":52,"NORMAL":53,"TEXCOORD_0":54},"indices":50,"material":0}],"name":"HW135744 - #14-10 x 3 18-8 Wood Screw Hardware [8742495]001"},{"primitives":[{"attributes":{"POSITION":56,"TANGENT":57,"NORMAL":58,"TEXCOORD_0":59},"indices":55,"material":0}],"name":"Landing Bracket Part [8742494]"},{"primitives":[{"attributes":{"POSITION":61,"TANGENT":62,"NORMAL":63,"TEXCOORD_0":64},"indices":60,"material":0},{"attributes":{"POSITION":66,"TANGENT":67,"NORMAL":68,"TEXCOORD_0":69},"indices":65,"material":1}],"name":"Boss_073"},{"primitives":[{"attributes":{"POSITION":71,"TANGENT":72,"NORMAL":73,"TEXCOORD_0":74},"indices":70,"material":3}],"name":"Casework 2 Casework 1 [8743341]"},{"primitives":[{"attributes":{"POSITION":76,"TANGENT":77,"NORMAL":78,"TEXCOORD_0":79},"indices":75,"material":3}],"name":"Casework 4 Casework 1 [8744916]"},{"primitives":[{"attributes":{"POSITION":81,"TANGENT":82,"NORMAL":83,"TEXCOORD_0":84},"indices":80,"material":0},{"attributes":{"POSITION":86,"TANGENT":87,"NORMAL":88,"TEXCOORD_0":89},"indices":85,"material":1}],"name":"Generic Models 11 Generic Models 11 [8762451]"},{"primitives":[{"attributes":{"POSITION":91,"TANGENT":92,"NORMAL":93,"TEXCOORD_0":94},"indices":90,"material":0},{"attributes":{"POSITION":96,"TANGENT":97,"NORMAL":98,"TEXCOORD_0":99},"indices":95,"material":1}],"name":"Generic Models 11 Generic Models 11 [8762451]002"},{"primitives":[{"attributes":{"POSITION":101,"TANGENT":102,"NORMAL":103,"TEXCOORD_0":104},"indices":100,"material":0},{"attributes":{"POSITION":106,"TANGENT":107,"NORMAL":108,"TEXCOORD_0":109},"indices":105,"material":1}],"name":"Boss_080"},{"primitives":[{"attributes":{"POSITION":111,"TANGENT":112,"NORMAL":113,"TEXCOORD_0":114},"indices":110,"material":0},{"attributes":{"POSITION":116,"TANGENT":117,"NORMAL":118,"TEXCOORD_0":119},"indices":115,"material":1}],"name":"Boss_122"},{"primitives":[{"attributes":{"POSITION":121,"TANGENT":122,"NORMAL":123,"TEXCOORD_0":124},"indices":120,"material":3}],"name":"Casework 2 Casework 1 [8743341]002"},{"primitives":[{"attributes":{"POSITION":126,"TANGENT":127,"NORMAL":128,"TEXCOORD_0":129},"indices":125,"material":3}],"name":"Casework 4 Casework 1 [8744916]003"},{"primitives":[{"attributes":{"POSITION":131,"TANGENT":132,"NORMAL":133,"TEXCOORD_0":134},"indices":130,"material":3}],"name":"Casework 6 Casework 1 [8445804]003"},{"primitives":[{"attributes":{"POSITION":136,"TANGENT":137,"NORMAL":138,"TEXCOORD_0":139},"indices":135,"material":0}],"name":"Generic Models 11 Generic Models 11 [8762451]006"},{"primitives":[{"attributes":{"POSITION":141,"TANGENT":142,"NORMAL":143,"TEXCOORD_0":144},"indices":140,"material":0},{"attributes":{"POSITION":146,"TANGENT":147,"NORMAL":148,"TEXCOORD_0":149},"indices":145,"material":1}],"name":"Generic Models 7 Generic Models 1 [8445814]003"},{"primitives":[{"attributes":{"POSITION":151,"TANGENT":152,"NORMAL":153,"TEXCOORD_0":154},"indices":150,"material":0},{"attributes":{"POSITION":156,"TANGENT":157,"NORMAL":158,"TEXCOORD_0":159},"indices":155,"material":1}],"name":"Glass Mount Clamp Part [8742498]075"},{"primitives":[{"attributes":{"POSITION":161,"TANGENT":162,"NORMAL":163,"TEXCOORD_0":164},"indices":160,"material":2}],"name":"Glass Mount Pad_2 Part [8742501]150"},{"primitives":[{"attributes":{"POSITION":166,"TANGENT":167,"NORMAL":168,"TEXCOORD_0":169},"indices":165,"material":0}],"name":"HW135744 - #14-10 x 3 18-8 Wood Screw Hardware [8742495]040"},{"primitives":[{"attributes":{"POSITION":171,"TANGENT":172,"NORMAL":173,"TEXCOORD_0":174},"indices":170,"material":0}],"name":"HW73957 & HW0178224 - 1l2-13 x 3l4 FHSCS Hardware [8742491]010"},{"primitives":[{"attributes":{"POSITION":176,"TANGENT":177,"NORMAL":178,"TEXCOORD_0":179},"indices":175,"material":0}],"name":"Landing Bracket Part [8742494]008"},{"primitives":[{"attributes":{"POSITION":181,"TANGENT":182,"NORMAL":183,"TEXCOORD_0":184},"indices":180,"material":0},{"attributes":{"POSITION":186,"TANGENT":187,"NORMAL":188,"TEXCOORD_0":189},"indices":185,"material":1}],"name":"Object005"},{"primitives":[{"attributes":{"POSITION":191,"TANGENT":192,"NORMAL":193,"TEXCOORD_0":194},"indices":190,"material":3}],"name":"Object009"},{"primitives":[{"attributes":{"POSITION":196,"TANGENT":197,"NORMAL":198,"TEXCOORD_0":199},"indices":195,"material":0}],"name":"Object011"}],"accessors":[{"bufferView":0,"componentType":5123,"count":480,"type":"SCALAR","name":"accessorIndices"},{"bufferView":1,"componentType":5126,"count":162,"max":[0.025400002,0.025400002,0.050800003],"min":[-0.025400002,-0.025400002,2.5017023E-14],"type":"VEC3","name":"accessorPositions"},{"bufferView":2,"componentType":5126,"count":162,"type":"VEC4","name":"accessorTangents"},{"bufferView":1,"byteOffset":1944,"componentType":5126,"count":162,"type":"VEC3","name":"accessorNormals"},{"bufferView":3,"componentType":5126,"count":162,"type":"VEC2","name":"accessorUVs"},{"bufferView":0,"byteOffset":960,"componentType":5123,"count":468,"type":"SCALAR","name":"accessorIndices"},{"bufferView":1,"byteOffset":3888,"componentType":5126,"count":160,"max":[0.025400002,0.025400002,0.050800003],"min":[-0.025400002,-0.025400002,2.5017023E-14],"type":"VEC3","name":"accessorPositions"},{"bufferView":2,"byteOffset":2592,"componentType":5126,"count":160,"type":"VEC4","name":"accessorTangents"},{"bufferView":1,"byteOffset":5808,"componentType":5126,"count":160,"type":"VEC3","name":"accessorNormals"},{"bufferView":3,"byteOffset":1296,"componentType":5126,"count":160,"type":"VEC2","name":"accessorUVs"},{"bufferView":0,"byteOffset":1896,"componentType":5123,"count":906,"type":"SCALAR","name":"accessorIndices"},{"bufferView":1,"byteOffset":7728,"componentType":5126,"count":308,"max":[0.025400002,0.025400002,0.009652],"min":[-0.025400002,-0.025400002,-0.04100215],"type":"VEC3","name":"accessorPositions"},{"bufferView":2,"byteOffset":5152,"componentType":5126,"count":308,"type":"VEC4","name":"accessorTangents"},{"bufferView":1,"byteOffset":11424,"componentType":5126,"count":308,"type":"VEC3","name":"accessorNormals"},{"bufferView":3,"byteOffset":2576,"componentType":5126,"count":308,"type":"VEC2","name":"accessorUVs"},{"bufferView":0,"byteOffset":3708,"componentType":5123,"count":624,"type":"SCALAR","name":"accessorIndices"},{"bufferView":1,"byteOffset":15120,"componentType":5126,"count":209,"max":[0.025400002,0.025400002,0.009652],"min":[-0.025400002,-0.025400002,2.514644E-14],"type":"VEC3","name":"accessorPositions"},{"bufferView":2,"byteOffset":10080,"componentType":5126,"count":209,"type":"VEC4","name":"accessorTangents"},{"bufferView":1,"byteOffset":17628,"componentType":5126,"count":209,"type":"VEC3","name":"accessorNormals"},{"bufferView":3,"byteOffset":5040,"componentType":5126,"count":209,"type":"VEC2","name":"accessorUVs"},{"bufferView":0,"byteOffset":4956,"componentType":5123,"count":2016,"type":"SCALAR","name":"accessorIndices"},{"bufferView":1,"byteOffset":20136,"componentType":5126,"count":680,"max":[0.0198374,0.0198374,2.5304686E-14],"min":[-0.0198374,-0.0198374,-0.0015748],"type":"VEC3","name":"accessorPositions"},{"bufferView":2,"byteOffset":13424,"componentType":5126,"count":680,"type":"VEC4","name":"accessorTangents"},{"bufferView":1,"byteOffset":28296,"componentType":5126,"count":680,"type":"VEC3","name":"accessorNormals"},{"bufferView":3,"byteOffset":6712,"componentType":5126,"count":680,"type":"VEC2","name":"accessorUVs"},{"bufferView":0,"byteOffset":8988,"componentType":5123,"count":132,"type":"SCALAR","name":"accessorIndices"},{"bufferView":1,"byteOffset":36456,"componentType":5126,"count":86,"max":[0.337552,0.83539844,0.007162499],"min":[-0.41911876,-0.89143676,-0.0071623535],"type":"VEC3","name":"accessorPositions"},{"bufferView":2,"byteOffset":24304,"componentType":5126,"count":86,"type":"VEC4","name":"accessorTangents"},{"bufferView":1,"byteOffset":37488,"componentType":5126,"count":86,"type":"VEC3","name":"accessorNormals"},{"bufferView":3,"byteOffset":12152,"componentType":5126,"count":86,"type":"VEC2","name":"accessorUVs"},{"bufferView":0,"byteOffset":9252,"componentType":5123,"count":264,"type":"SCALAR","name":"accessorIndices"},{"bufferView":1,"byteOffset":38520,"componentType":5126,"count":172,"max":[0.69346726,1.0336493,0.007162358],"min":[-0.7185957,-1.1457992,-0.007162357],"type":"VEC3","name":"accessorPositions"},{"bufferView":2,"byteOffset":25680,"componentType":5126,"count":172,"type":"VEC4","name":"accessorTangents"},{"bufferView":1,"byteOffset":40584,"componentType":5126,"count":172,"type":"VEC3","name":"accessorNormals"},{"bufferView":3,"byteOffset":12840,"componentType":5126,"count":172,"type":"VEC2","name":"accessorUVs"},{"bufferView":0,"byteOffset":9780,"componentType":5123,"count":4641,"type":"SCALAR","name":"accessorIndices"},{"bufferView":1,"byteOffset":42648,"componentType":5126,"count":1716,"max":[0.01906388,0.54530597,0.65853226],"min":[-0.019059593,-0.475423,-0.76155806],"type":"VEC3","name":"accessorPositions"},{"bufferView":2,"byteOffset":28432,"componentType":5126,"count":1716,"type":"VEC4","name":"accessorTangents"},{"bufferView":1,"byteOffset":63240,"componentType":5126,"count":1716,"type":"VEC3","name":"accessorNormals"},{"bufferView":3,"byteOffset":14216,"componentType":5126,"count":1716,"type":"VEC2","name":"accessorUVs"},{"bufferView":0,"byteOffset":19064,"componentType":5123,"count":1155,"type":"SCALAR","name":"accessorIndices"},{"bufferView":1,"byteOffset":83832,"componentType":5126,"count":391,"max":[0.019040626,0.54530597,0.65853226],"min":[-0.019059593,-0.475423,-0.76155806],"type":"VEC3","name":"accessorPositions"},{"bufferView":2,"byteOffset":55888,"componentType":5126,"count":391,"type":"VEC4","name":"accessorTangents"},{"bufferView":1,"byteOffset":88524,"componentType":5126,"count":391,"type":"VEC3","name":"accessorNormals"},{"bufferView":3,"byteOffset":27944,"componentType":5126,"count":391,"type":"VEC2","name":"accessorUVs"},{"bufferView":0,"byteOffset":21376,"componentType":5123,"count":780,"type":"SCALAR","name":"accessorIndices"},{"bufferView":1,"byteOffset":93216,"componentType":5126,"count":276,"max":[0.0036115968,0.009961597,0.009961597],"min":[1.8683688E-14,-0.009961597,-0.009961597],"type":"VEC3","name":"accessorPositions"},{"bufferView":2,"byteOffset":62144,"componentType":5126,"count":276,"type":"VEC4","name":"accessorTangents"},{"bufferView":1,"byteOffset":96528,"componentType":5126,"count":276,"type":"VEC3","name":"accessorNormals"},{"bufferView":3,"byteOffset":31072,"componentType":5126,"count":276,"type":"VEC2","name":"accessorUVs"},{"bufferView":0,"byteOffset":22936,"componentType":5123,"count":912,"type":"SCALAR","name":"accessorIndices"},{"bufferView":1,"byteOffset":99840,"componentType":5126,"count":338,"max":[0.00401787,0.005775334,0.005775334],"min":[5.9999157E-09,-0.005775334,-0.005775334],"type":"VEC3","name":"accessorPositions"},{"bufferView":2,"byteOffset":66560,"componentType":5126,"count":338,"type":"VEC4","name":"accessorTangents"},{"bufferView":1,"byteOffset":103896,"componentType":5126,"count":338,"type":"VEC3","name":"accessorNormals"},{"bufferView":3,"byteOffset":33280,"componentType":5126,"count":338,"type":"VEC2","name":"accessorUVs"},{"bufferView":0,"byteOffset":24760,"componentType":5123,"count":4434,"type":"SCALAR","name":"accessorIndices"},{"bufferView":1,"byteOffset":107952,"componentType":5126,"count":1674,"max":[0.0063500004,0.0762,0.025400002],"min":[-0.09525,-0.05715,-0.025400002],"type":"VEC3","name":"accessorPositions"},{"bufferView":2,"byteOffset":71968,"componentType":5126,"count":1674,"type":"VEC4","name":"accessorTangents"},{"bufferView":1,"byteOffset":128040,"componentType":5126,"count":1674,"type":"VEC3","name":"accessorNormals"},{"bufferView":3,"byteOffset":35984,"componentType":5126,"count":1674,"type":"VEC2","name":"accessorUVs"},{"bufferView":0,"byteOffset":33628,"componentType":5123,"count":480,"type":"SCALAR","name":"accessorIndices"},{"bufferView":1,"byteOffset":148128,"componentType":5126,"count":162,"max":[0.025400002,0.025400002,0.044450004],"min":[-0.025400002,-0.025400002,2.5017023E-14],"type":"VEC3","name":"accessorPositions"},{"bufferView":2,"byteOffset":98752,"componentType":5126,"count":162,"type":"VEC4","name":"accessorTangents"},{"bufferView":1,"byteOffset":150072,"componentType":5126,"count":162,"type":"VEC3","name":"accessorNormals"},{"bufferView":3,"byteOffset":49376,"componentType":5126,"count":162,"type":"VEC2","name":"accessorUVs"},{"bufferView":0,"byteOffset":34588,"componentType":5123,"count":468,"type":"SCALAR","name":"accessorIndices"},{"bufferView":1,"byteOffset":152016,"componentType":5126,"count":160,"max":[0.025400002,0.025400002,0.044450004],"min":[-0.025400002,-0.025400002,2.5017023E-14],"type":"VEC3","name":"accessorPositions"},{"bufferView":2,"byteOffset":101344,"componentType":5126,"count":160,"type":"VEC4","name":"accessorTangents"},{"bufferView":1,"byteOffset":153936,"componentType":5126,"count":160,"type":"VEC3","name":"accessorNormals"},{"bufferView":3,"byteOffset":50672,"componentType":5126,"count":160,"type":"VEC2","name":"accessorUVs"},{"bufferView":0,"byteOffset":35524,"componentType":5123,"count":756,"type":"SCALAR","name":"accessorIndices"},{"bufferView":1,"byteOffset":155856,"componentType":5126,"count":461,"max":[0.5211452,0.5694237,0.0071623577],"min":[-1.5733621,-1.2929599,-0.0071623535],"type":"VEC3","name":"accessorPositions"},{"bufferView":2,"byteOffset":103904,"componentType":5126,"count":461,"type":"VEC4","name":"accessorTangents"},{"bufferView":1,"byteOffset":161388,"componentType":5126,"count":461,"type":"VEC3","name":"accessorNormals"},{"bufferView":3,"byteOffset":51952,"componentType":5126,"count":461,"type":"VEC2","name":"accessorUVs"},{"bufferView":0,"byteOffset":37036,"componentType":5123,"count":300,"type":"SCALAR","name":"accessorIndices"},{"bufferView":1,"byteOffset":166920,"componentType":5126,"count":206,"max":[0.7450592,1.09093,0.0071623535],"min":[-1.4231328,-0.75122625,-0.007162354],"type":"VEC3","name":"accessorPositions"},{"bufferView":2,"byteOffset":111280,"componentType":5126,"count":206,"type":"VEC4","name":"accessorTangents"},{"bufferView":1,"byteOffset":169392,"componentType":5126,"count":206,"type":"VEC3","name":"accessorNormals"},{"bufferView":3,"byteOffset":55640,"componentType":5126,"count":206,"type":"VEC2","name":"accessorUVs"},{"bufferView":0,"byteOffset":37636,"componentType":5123,"count":3726,"type":"SCALAR","name":"accessorIndices"},{"bufferView":1,"byteOffset":171864,"componentType":5126,"count":1709,"max":[0.5392726,0.03850221,0.6193448],"min":[-1.5949224,-0.7637591,-0.6193448],"type":"VEC3","name":"accessorPositions"},{"bufferView":2,"byteOffset":114576,"componentType":5126,"count":1709,"type":"VEC4","name":"accessorTangents"},{"bufferView":1,"byteOffset":192372,"componentType":5126,"count":1709,"type":"VEC3","name":"accessorNormals"},{"bufferView":3,"byteOffset":57288,"componentType":5126,"count":1709,"type":"VEC2","name":"accessorUVs"},{"bufferView":0,"byteOffset":45088,"componentType":5123,"count":246,"type":"SCALAR","name":"accessorIndices"},{"bufferView":1,"byteOffset":212880,"componentType":5126,"count":184,"max":[0.5392726,0.038502,-0.58124477],"min":[0.5392723,-0.0077073285,-0.6193448],"type":"VEC3","name":"accessorPositions"},{"bufferView":2,"byteOffset":141920,"componentType":5126,"count":184,"type":"VEC4","name":"accessorTangents"},{"bufferView":1,"byteOffset":215088,"componentType":5126,"count":184,"type":"VEC3","name":"accessorNormals"},{"bufferView":3,"byteOffset":70960,"componentType":5126,"count":184,"type":"VEC2","name":"accessorUVs"},{"bufferView":0,"byteOffset":45580,"componentType":5123,"count":4080,"type":"SCALAR","name":"accessorIndices"},{"bufferView":1,"byteOffset":217296,"componentType":5126,"count":1526,"max":[-0.14504161,-0.07833276,0.019062834],"min":[-0.9106084,-0.6469243,-0.019062746],"type":"VEC3","name":"accessorPositions"},{"bufferView":2,"byteOffset":144864,"componentType":5126,"count":1526,"type":"VEC4","name":"accessorTangents"},{"bufferView":1,"byteOffset":235608,"componentType":5126,"count":1526,"type":"VEC3","name":"accessorNormals"},{"bufferView":3,"byteOffset":72432,"componentType":5126,"count":1526,"type":"VEC2","name":"accessorUVs"},{"bufferView":0,"byteOffset":53740,"componentType":5123,"count":738,"type":"SCALAR","name":"accessorIndices"},{"bufferView":1,"byteOffset":253920,"componentType":5126,"count":252,"max":[-0.14504161,-0.07833276,0.019062834],"min":[-0.9106084,-0.6469243,-0.019062746],"type":"VEC3","name":"accessorPositions"},{"bufferView":2,"byteOffset":169280,"componentType":5126,"count":252,"type":"VEC4","name":"accessorTangents"},{"bufferView":1,"byteOffset":256944,"componentType":5126,"count":252,"type":"VEC3","name":"accessorNormals"},{"bufferView":3,"byteOffset":84640,"componentType":5126,"count":252,"type":"VEC2","name":"accessorUVs"},{"bufferView":0,"byteOffset":55216,"componentType":5123,"count":480,"type":"SCALAR","name":"accessorIndices"},{"bufferView":1,"byteOffset":259968,"componentType":5126,"count":162,"max":[0.025400002,0.025400002,0.050800003],"min":[-0.025400002,-0.025400002,2.5017023E-14],"type":"VEC3","name":"accessorPositions"},{"bufferView":2,"byteOffset":173312,"componentType":5126,"count":162,"type":"VEC4","name":"accessorTangents"},{"bufferView":1,"byteOffset":261912,"componentType":5126,"count":162,"type":"VEC3","name":"accessorNormals"},{"bufferView":3,"byteOffset":86656,"componentType":5126,"count":162,"type":"VEC2","name":"accessorUVs"},{"bufferView":0,"byteOffset":56176,"componentType":5123,"count":468,"type":"SCALAR","name":"accessorIndices"},{"bufferView":1,"byteOffset":263856,"componentType":5126,"count":160,"max":[0.025400002,0.025400002,0.050800003],"min":[-0.025400002,-0.025400002,2.5017023E-14],"type":"VEC3","name":"accessorPositions"},{"bufferView":2,"byteOffset":175904,"componentType":5126,"count":160,"type":"VEC4","name":"accessorTangents"},{"bufferView":1,"byteOffset":265776,"componentType":5126,"count":160,"type":"VEC3","name":"accessorNormals"},{"bufferView":3,"byteOffset":87952,"componentType":5126,"count":160,"type":"VEC2","name":"accessorUVs"},{"bufferView":0,"byteOffset":57112,"componentType":5123,"count":480,"type":"SCALAR","name":"accessorIndices"},{"bufferView":1,"byteOffset":267696,"componentType":5126,"count":162,"max":[0.025400002,0.025400002,0.044450004],"min":[-0.025400002,-0.025400002,2.5017023E-14],"type":"VEC3","name":"accessorPositions"},{"bufferView":2,"byteOffset":178464,"componentType":5126,"count":162,"type":"VEC4","name":"accessorTangents"},{"bufferView":1,"byteOffset":269640,"componentType":5126,"count":162,"type":"VEC3","name":"accessorNormals"},{"bufferView":3,"byteOffset":89232,"componentType":5126,"count":162,"type":"VEC2","name":"accessorUVs"},{"bufferView":0,"byteOffset":58072,"componentType":5123,"count":468,"type":"SCALAR","name":"accessorIndices"},{"bufferView":1,"byteOffset":271584,"componentType":5126,"count":160,"max":[0.025400002,0.025400002,0.044450004],"min":[-0.025400002,-0.025400002,2.5017023E-14],"type":"VEC3","name":"accessorPositions"},{"bufferView":2,"byteOffset":181056,"componentType":5126,"count":160,"type":"VEC4","name":"accessorTangents"},{"bufferView":1,"byteOffset":273504,"componentType":5126,"count":160,"type":"VEC3","name":"accessorNormals"},{"bufferView":3,"byteOffset":90528,"componentType":5126,"count":160,"type":"VEC2","name":"accessorUVs"},{"bufferView":0,"byteOffset":59008,"componentType":5123,"count":300,"type":"SCALAR","name":"accessorIndices"},{"bufferView":1,"byteOffset":275424,"componentType":5126,"count":207,"max":[0.33962098,0.44225165,0.0071623535],"min":[-1.5733621,-1.2929599,-0.007162365],"type":"VEC3","name":"accessorPositions"},{"bufferView":2,"byteOffset":183616,"componentType":5126,"count":207,"type":"VEC4","name":"accessorTangents"},{"bufferView":1,"byteOffset":277908,"componentType":5126,"count":207,"type":"VEC3","name":"accessorNormals"},{"bufferView":3,"byteOffset":91808,"componentType":5126,"count":207,"type":"VEC2","name":"accessorUVs"},{"bufferView":0,"byteOffset":59608,"componentType":5123,"count":168,"type":"SCALAR","name":"accessorIndices"},{"bufferView":1,"byteOffset":280392,"componentType":5126,"count":116,"max":[-0.17357546,1.09093,0.0071623535],"min":[-1.4231328,-0.1337359,-0.007162354],"type":"VEC3","name":"accessorPositions"},{"bufferView":2,"byteOffset":186928,"componentType":5126,"count":116,"type":"VEC4","name":"accessorTangents"},{"bufferView":1,"byteOffset":281784,"componentType":5126,"count":116,"type":"VEC3","name":"accessorNormals"},{"bufferView":3,"byteOffset":93464,"componentType":5126,"count":116,"type":"VEC2","name":"accessorUVs"},{"bufferView":0,"byteOffset":59944,"componentType":5123,"count":282,"type":"SCALAR","name":"accessorIndices"},{"bufferView":1,"byteOffset":283176,"componentType":5126,"count":166,"max":[0.36052352,0.8536583,0.0071623535],"min":[-0.36052355,-0.7167773,-0.007162357],"type":"VEC3","name":"accessorPositions"},{"bufferView":2,"byteOffset":188784,"componentType":5126,"count":166,"type":"VEC4","name":"accessorTangents"},{"bufferView":1,"byteOffset":285168,"componentType":5126,"count":166,"type":"VEC3","name":"accessorNormals"},{"bufferView":3,"byteOffset":94392,"componentType":5126,"count":166,"type":"VEC2","name":"accessorUVs"},{"bufferView":0,"byteOffset":60508,"componentType":5123,"count":2436,"type":"SCALAR","name":"accessorIndices"},{"bufferView":1,"byteOffset":287160,"componentType":5126,"count":860,"max":[0.47089416,-0.00535804,0.6193459],"min":[-1.5949236,-0.7637591,-0.619318],"type":"VEC3","name":"accessorPositions"},{"bufferView":2,"byteOffset":191440,"componentType":5126,"count":860,"type":"VEC4","name":"accessorTangents"},{"bufferView":1,"byteOffset":297480,"componentType":5126,"count":860,"type":"VEC3","name":"accessorNormals"},{"bufferView":3,"byteOffset":95720,"componentType":5126,"count":860,"type":"VEC2","name":"accessorUVs"},{"bufferView":0,"byteOffset":65380,"componentType":5123,"count":4269,"type":"SCALAR","name":"accessorIndices"},{"bufferView":1,"byteOffset":307800,"componentType":5126,"count":1606,"max":[0.36542422,0.27315193,0.019061627],"min":[-0.36542422,-0.27315193,-0.019061627],"type":"VEC3","name":"accessorPositions"},{"bufferView":2,"byteOffset":205200,"componentType":5126,"count":1606,"type":"VEC4","name":"accessorTangents"},{"bufferView":1,"byteOffset":327072,"componentType":5126,"count":1606,"type":"VEC3","name":"accessorNormals"},{"bufferView":3,"byteOffset":102600,"componentType":5126,"count":1606,"type":"VEC2","name":"accessorUVs"},{"bufferView":0,"byteOffset":73920,"componentType":5123,"count":1035,"type":"SCALAR","name":"accessorIndices"},{"bufferView":1,"byteOffset":346344,"componentType":5126,"count":1033,"max":[0.36542422,0.27315193,0.019061627],"min":[-0.36542422,-0.27315137,-0.019061627],"type":"VEC3","name":"accessorPositions"},{"bufferView":2,"byteOffset":230896,"componentType":5126,"count":1033,"type":"VEC4","name":"accessorTangents"},{"bufferView":1,"byteOffset":358740,"componentType":5126,"count":1033,"type":"VEC3","name":"accessorNormals"},{"bufferView":3,"byteOffset":115448,"componentType":5126,"count":1033,"type":"VEC2","name":"accessorUVs"},{"bufferView":0,"byteOffset":75992,"componentType":5123,"count":906,"type":"SCALAR","name":"accessorIndices"},{"bufferView":1,"byteOffset":371136,"componentType":5126,"count":308,"max":[0.025400002,0.025400002,0.009652],"min":[-0.025400002,-0.025400002,-0.04100215],"type":"VEC3","name":"accessorPositions"},{"bufferView":2,"byteOffset":247424,"componentType":5126,"count":308,"type":"VEC4","name":"accessorTangents"},{"bufferView":1,"byteOffset":374832,"componentType":5126,"count":308,"type":"VEC3","name":"accessorNormals"},{"bufferView":3,"byteOffset":123712,"componentType":5126,"count":308,"type":"VEC2","name":"accessorUVs"},{"bufferView":0,"byteOffset":77804,"componentType":5123,"count":624,"type":"SCALAR","name":"accessorIndices"},{"bufferView":1,"byteOffset":378528,"componentType":5126,"count":209,"max":[0.025400002,0.025400002,0.009652],"min":[-0.025400002,-0.025400002,2.514644E-14],"type":"VEC3","name":"accessorPositions"},{"bufferView":2,"byteOffset":252352,"componentType":5126,"count":209,"type":"VEC4","name":"accessorTangents"},{"bufferView":1,"byteOffset":381036,"componentType":5126,"count":209,"type":"VEC3","name":"accessorNormals"},{"bufferView":3,"byteOffset":126176,"componentType":5126,"count":209,"type":"VEC2","name":"accessorUVs"},{"bufferView":0,"byteOffset":79052,"componentType":5123,"count":2016,"type":"SCALAR","name":"accessorIndices"},{"bufferView":1,"byteOffset":383544,"componentType":5126,"count":680,"max":[0.0198374,0.0198374,2.5304686E-14],"min":[-0.0198374,-0.0198374,-0.0015748],"type":"VEC3","name":"accessorPositions"},{"bufferView":2,"byteOffset":255696,"componentType":5126,"count":680,"type":"VEC4","name":"accessorTangents"},{"bufferView":1,"byteOffset":391704,"componentType":5126,"count":680,"type":"VEC3","name":"accessorNormals"},{"bufferView":3,"byteOffset":127848,"componentType":5126,"count":680,"type":"VEC2","name":"accessorUVs"},{"bufferView":0,"byteOffset":83084,"componentType":5123,"count":912,"type":"SCALAR","name":"accessorIndices"},{"bufferView":1,"byteOffset":399864,"componentType":5126,"count":338,"max":[0.00401787,0.005775334,0.005775334],"min":[5.9999157E-09,-0.005775334,-0.005775334],"type":"VEC3","name":"accessorPositions"},{"bufferView":2,"byteOffset":266576,"componentType":5126,"count":338,"type":"VEC4","name":"accessorTangents"},{"bufferView":1,"byteOffset":403920,"componentType":5126,"count":338,"type":"VEC3","name":"accessorNormals"},{"bufferView":3,"byteOffset":133288,"componentType":5126,"count":338,"type":"VEC2","name":"accessorUVs"},{"bufferView":0,"byteOffset":84908,"componentType":5123,"count":780,"type":"SCALAR","name":"accessorIndices"},{"bufferView":1,"byteOffset":407976,"componentType":5126,"count":276,"max":[0.0036115968,0.009961597,0.009961597],"min":[1.8683688E-14,-0.009961597,-0.009961597],"type":"VEC3","name":"accessorPositions"},{"bufferView":2,"byteOffset":271984,"componentType":5126,"count":276,"type":"VEC4","name":"accessorTangents"},{"bufferView":1,"byteOffset":411288,"componentType":5126,"count":276,"type":"VEC3","name":"accessorNormals"},{"bufferView":3,"byteOffset":135992,"componentType":5126,"count":276,"type":"VEC2","name":"accessorUVs"},{"bufferView":0,"byteOffset":86468,"componentType":5123,"count":4434,"type":"SCALAR","name":"accessorIndices"},{"bufferView":1,"byteOffset":414600,"componentType":5126,"count":1674,"max":[0.0063500004,0.0762,0.025400002],"min":[-0.09525,-0.05715,-0.025400002],"type":"VEC3","name":"accessorPositions"},{"bufferView":2,"byteOffset":276400,"componentType":5126,"count":1674,"type":"VEC4","name":"accessorTangents"},{"bufferView":1,"byteOffset":434688,"componentType":5126,"count":1674,"type":"VEC3","name":"accessorNormals"},{"bufferView":3,"byteOffset":138200,"componentType":5126,"count":1674,"type":"VEC2","name":"accessorUVs"},{"bufferView":0,"byteOffset":95336,"componentType":5123,"count":2679,"type":"SCALAR","name":"accessorIndices"},{"bufferView":1,"byteOffset":454776,"componentType":5126,"count":926,"max":[0.036437593,0.5728089,0.019061418],"min":[-0.8287076,-0.028500414,-0.019061854],"type":"VEC3","name":"accessorPositions"},{"bufferView":2,"byteOffset":303184,"componentType":5126,"count":926,"type":"VEC4","name":"accessorTangents"},{"bufferView":1,"byteOffset":465888,"componentType":5126,"count":926,"type":"VEC3","name":"accessorNormals"},{"bufferView":3,"byteOffset":151592,"componentType":5126,"count":926,"type":"VEC2","name":"accessorUVs"},{"bufferView":0,"byteOffset":100696,"componentType":5123,"count":246,"type":"SCALAR","name":"accessorIndices"},{"bufferView":1,"byteOffset":477000,"componentType":5126,"count":84,"max":[0.036437593,0.017726,0.019061418],"min":[0.036437407,-0.028500374,-0.0190386],"type":"VEC3","name":"accessorPositions"},{"bufferView":2,"byteOffset":318000,"componentType":5126,"count":84,"type":"VEC4","name":"accessorTangents"},{"bufferView":1,"byteOffset":478008,"componentType":5126,"count":84,"type":"VEC3","name":"accessorNormals"},{"bufferView":3,"byteOffset":159000,"componentType":5126,"count":84,"type":"VEC2","name":"accessorUVs"},{"bufferView":0,"byteOffset":101188,"componentType":5123,"count":192,"type":"SCALAR","name":"accessorIndices"},{"bufferView":1,"byteOffset":479016,"componentType":5126,"count":122,"max":[0.40046033,0.8889749,0.007162354],"min":[-0.40046033,-0.73842376,-0.0071623535],"type":"VEC3","name":"accessorPositions"},{"bufferView":2,"byteOffset":319344,"componentType":5126,"count":122,"type":"VEC4","name":"accessorTangents"},{"bufferView":1,"byteOffset":480480,"componentType":5126,"count":122,"type":"VEC3","name":"accessorNormals"},{"bufferView":3,"byteOffset":159672,"componentType":5126,"count":122,"type":"VEC2","name":"accessorUVs"},{"bufferView":0,"byteOffset":101572,"componentType":5123,"count":1929,"type":"SCALAR","name":"accessorIndices"},{"bufferView":1,"byteOffset":481944,"componentType":5126,"count":673,"max":[0.0348354,0.5728089,0.019033514],"min":[-0.8248909,-0.022990197,-0.019061854],"type":"VEC3","name":"accessorPositions"},{"bufferView":2,"byteOffset":321296,"componentType":5126,"count":673,"type":"VEC4","name":"accessorTangents"},{"bufferView":1,"byteOffset":490020,"componentType":5126,"count":673,"type":"VEC3","name":"accessorNormals"},{"bufferView":3,"byteOffset":160648,"componentType":5126,"count":673,"type":"VEC2","name":"accessorUVs"}],"bufferViews":[{"buffer":0,"byteLength":105432,"name":"bufferViewScalar"},{"buffer":0,"byteOffset":105432,"byteLength":498096,"byteStride":12,"name":"bufferViewFloatVec3"},{"buffer":0,"byteOffset":603528,"byteLength":332064,"byteStride":16,"name":"bufferViewFloatVec4"},{"buffer":0,"byteOffset":935592,"byteLength":166032,"byteStride":8,"name":"bufferViewFloatVec2"}],"buffers":[{"uri":"U-Shaped_Railing_Optik-Boss.bin","byteLength":1101624}],"materials":[{"pbrMetallicRoughness":{"baseColorFactor":[0.9999998,0.9999999,0.9999999,1.0],"baseColorTexture":{"index":0,"extensions":{"KHR_texture_transform":{"offset":[0.19519997,0.8048],"rotation":1.5707964,"scale":[0.6096,0.6096],"texCoord":0}}},"roughnessFactor":0.2,"metallicRoughnessTexture":{"index":0,"extensions":{"KHR_texture_transform":{"offset":[0.19519997,0.8048],"rotation":1.5707964,"scale":[0.6096,0.6096],"texCoord":0}}}},"name":"Steel_Linear"},{"pbrMetallicRoughness":{"baseColorFactor":[0.9999998,0.9999999,0.9999999,1.0],"baseColorTexture":{"index":1},"roughnessFactor":0.2,"metallicRoughnessTexture":{"index":1}},"name":"Steel_Radial"},{"pbrMetallicRoughness":{"baseColorFactor":[0.10641303,0.10641304,0.10641304,1.0],"metallicFactor":0.0,"roughnessFactor":0.99,"metallicRoughnessTexture":{"index":2}},"name":"Rubber","extensions":{"KHR_materials_specular":{"specularFactor":0.1}}},{"pbrMetallicRoughness":{"baseColorFactor":[0.9999998,0.9999999,0.9999999,1.0],"metallicFactor":0.0,"roughnessFactor":0.1},"name":"Glass","extensions":{"KHR_materials_ior":{"ior":1.0},"KHR_materials_transmission":{"transmissionFactor":0.97},"KHR_materials_volume":{"thicknessFactor":0.56,"attenuationDistance":0.5,"attenuationColor":[0.49521634,0.56476736,0.5317566]}}}],"textures":[{"sampler":0,"source":0,"name":"Metal_Brushed_Linear_4k.jpg"},{"sampler":0,"source":1,"name":"Metal_Brushed_Radial_4k.jpg"},{"sampler":0,"source":2,"name":"PowderCoat_Roughness_2k0.jpg"}],"images":[{"uri":"textures/Metal_Brushed_Linear_4k.jpg"},{"uri":"textures/Metal_Brushed_Radial_4k.jpg"},{"uri":"textures/PowderCoat_Roughness_2k0.jpg"}],"samplers":[{"magFilter":9729,"minFilter":9987}]}