{"asset":{"version":"2.0","generator":"babylon.js glTF exporter for 3dsmax 2026 v20251111.2"},"extensionsUsed":["KHR_texture_transform","KHR_materials_specular","KHR_materials_ior","KHR_materials_transmission","KHR_materials_volume"],"extensionsRequired":["KHR_texture_transform"],"scene":0,"scenes":[{"nodes":[0,1,2,3,4,5,6,7,8,9,10,11,12,13,14,15,16,17,18,19,20,21,22,23,24,25,26,27,28,29,30,31,32,33,34,35,36,37,38,39,40,41,42,43,44,45,46,47,48,49,50,51,52,53,54,55,56,57,58,59,60,61,62,63,64,65,66,67,68,69,70,71,72,73,74,75,76,77,78,79,80,81,82,83,84,85,86,87,88,89,90,91,92,93,94,95,96,97,98,99,100,101,102,103,104,105,106,107,108,109,110,111,112,113,114,115,116,117,118,119,120,121,122,123,124,125,126,127,128,129,130,131,132,133,134,135,136,137,138,139,140,141,142,143,144,145,146,147,148,149,150,151,152,153,154,155,156,157,158,159,160,161,162,163,164,165,166,167,168,169,170,171,172,173,174,175,176,177,178,179,180,181,182,183,184,185,186,187,188,189,190,191,192,193,194,195,196,197,198,199,200,201,202,203,204,205,206,207,208,209,210,211,212,213,214,215,216,217,218,219,220,221,222,223,224,225,226,227,228,229,230,231,232,233,234,235,236,237,238,239,240,241,242,243,244,245,246,247,248,249,250,251,252,253,254,255,256,257,258,259,260,261]}],"nodes":[{"mesh":0,"translation":[0.8471337,2.4642315,-0.023573017],"rotation":[-0.0,0.7071068,0.0,0.7071067],"name":"KUB009 - Top Barrel Mount Part [8739165]026"},{"mesh":0,"translation":[0.8471337,2.7182312,-0.023573017],"rotation":[-0.0,0.7071068,0.0,0.7071067],"name":"KUB009 - Top Barrel Mount Part [8739165]002"},{"mesh":0,"translation":[1.4286327,2.8299918,-0.023573017],"rotation":[-0.0,0.7071068,0.0,0.7071067],"name":"KUB009 - Top Barrel Mount Part [8739165]029"},{"mesh":0,"translation":[1.4286327,3.0839918,-0.023573017],"rotation":[-0.0,0.7071068,0.0,0.7071067],"name":"KUB009 - Top Barrel Mount Part [8739165]005"},{"mesh":0,"translation":[0.6927061,1.5498822,0.97354954],"rotation":[-0.0,-1.0,0.0,-1.6292068E-07],"name":"KUB009 - Top Barrel Mount Part [8739165]032"},{"mesh":0,"translation":[-0.36139467,2.0985222,0.17503546],"name":"KUB009 - Top Barrel Mount Part [8739165]034"},{"mesh":0,"translation":[-0.36139467,2.3525224,0.17503546],"name":"KUB009 - Top Barrel Mount Part [8739165]010"},{"mesh":0,"translation":[-0.36139467,1.7327623,0.7080169],"name":"KUB009 - Top Barrel Mount Part [8739165]035"},{"mesh":0,"translation":[-0.36139467,1.9867622,0.7080169],"name":"KUB009 - Top Barrel Mount Part [8739165]011"},{"mesh":0,"translation":[-0.36139467,1.5498822,0.97354954],"name":"KUB009 - Top Barrel Mount Part [8739165]036"},{"mesh":0,"translation":[-0.36139467,1.8038822,0.97354954],"name":"KUB009 - Top Barrel Mount Part [8739165]012"},{"mesh":0,"translation":[1.4286327,2.8299918,-1.0776738],"rotation":[-0.0,-0.7071068,0.0,0.7071067],"name":"KUB009 - Top Barrel Mount Part [8739165]040"},{"mesh":0,"translation":[1.4286327,3.0839918,-1.0776738],"rotation":[-0.0,-0.7071068,0.0,0.7071067],"name":"KUB009 - Top Barrel Mount Part [8739165]016"},{"mesh":0,"translation":[0.61646473,2.2813516,-1.0776738],"rotation":[-0.0,-0.7071068,0.0,0.7071067],"name":"KUB009 - Top Barrel Mount Part [8739165]041"},{"mesh":0,"translation":[0.61646473,2.5353513,-1.0776738],"rotation":[-0.0,-0.7071068,0.0,0.7071067],"name":"KUB009 - Top Barrel Mount Part [8739165]017"},{"mesh":0,"translation":[0.3497647,2.1990047,-1.0776738],"rotation":[-0.0,-0.7071068,0.0,0.7071067],"name":"KUB009 - Top Barrel Mount Part [8739165]042"},{"mesh":0,"translation":[0.3497647,2.4530046,-1.0776738],"rotation":[-0.0,-0.7071068,0.0,0.7071067],"name":"KUB009 - Top Barrel Mount Part [8739165]018"},{"mesh":0,"translation":[-0.165069,2.1990047,-1.0776738],"rotation":[-0.0,-0.7071068,0.0,0.7071067],"name":"KUB009 - Top Barrel Mount Part [8739165]043"},{"mesh":0,"translation":[-0.165069,2.4530046,-1.0776738],"rotation":[-0.0,-0.7071068,0.0,0.7071067],"name":"KUB009 - Top Barrel Mount Part [8739165]019"},{"mesh":0,"translation":[-0.3613919,2.1990047,-0.8813486],"name":"KUB009 - Top Barrel Mount Part [8739165]044"},{"mesh":0,"translation":[-0.3613919,2.4530046,-0.8813486],"name":"KUB009 - Top Barrel Mount Part [8739165]020"},{"mesh":0,"translation":[-0.3613919,2.1990047,-0.074374564],"name":"KUB009 - Top Barrel Mount Part [8739165]046"},{"mesh":0,"translation":[-0.3613919,2.4530046,-0.074374564],"name":"KUB009 - Top Barrel Mount Part [8739165]022"},{"mesh":0,"translation":[0.69269395,2.3525224,0.13850757],"rotation":[-0.0,-1.0,0.0,-4.371139E-08],"name":"KUB009 - Top Barrel Mount Part [8739165]098"},{"mesh":0,"translation":[0.69269395,2.0985222,0.13850757],"rotation":[-0.0,-1.0,0.0,-4.371139E-08],"name":"KUB009 - Top Barrel Mount Part [8739165]099"},{"mesh":1,"translation":[0.8471337,2.7182312,-0.08549947],"rotation":[-0.0,0.7071068,0.0,0.7071067],"name":"KON006 - Lower Panel Clamp Part [8739162]003"},{"mesh":1,"translation":[0.8471337,2.4642315,-0.08549947],"rotation":[-0.0,0.7071068,0.0,0.7071067],"name":"KON006 - Lower Panel Clamp Part [8739162]004"},{"mesh":1,"translation":[1.4286327,3.0839918,-0.08549947],"rotation":[-0.0,0.7071068,0.0,0.7071067],"name":"KON006 - Lower Panel Clamp Part [8739162]009"},{"mesh":1,"translation":[1.4286327,2.8299918,-0.08549947],"rotation":[-0.0,0.7071068,0.0,0.7071067],"name":"KON006 - Lower Panel Clamp Part [8739162]010"},{"mesh":1,"translation":[0.6307797,1.9867622,0.7080169],"rotation":[-0.0,-1.0,0.0,-1.6292068E-07],"name":"KON006 - Lower Panel Clamp Part [8739162]013"},{"mesh":1,"translation":[0.6307797,1.7327623,0.7080169],"rotation":[-0.0,-1.0,0.0,-1.6292068E-07],"name":"KON006 - Lower Panel Clamp Part [8739162]014"},{"mesh":1,"translation":[0.6307797,1.5498822,0.97354954],"rotation":[-0.0,-1.0,0.0,-1.6292068E-07],"name":"KON006 - Lower Panel Clamp Part [8739162]016"},{"mesh":1,"translation":[-0.29946822,2.3525224,0.17503546],"name":"KON006 - Lower Panel Clamp Part [8739162]019"},{"mesh":1,"translation":[-0.29946822,2.0985222,0.17503546],"name":"KON006 - Lower Panel Clamp Part [8739162]020"},{"mesh":1,"translation":[-0.29946822,1.9867622,0.7080169],"name":"KON006 - Lower Panel Clamp Part [8739162]021"},{"mesh":1,"translation":[-0.29946822,1.7327623,0.7080169],"name":"KON006 - Lower Panel Clamp Part [8739162]022"},{"mesh":1,"translation":[-0.29946822,1.8038822,0.97354954],"name":"KON006 - Lower Panel Clamp Part [8739162]023"},{"mesh":1,"translation":[-0.29946822,1.5498822,0.97354954],"name":"KON006 - Lower Panel Clamp Part [8739162]024"},{"mesh":1,"translation":[1.4286327,3.0839918,-1.0157473],"rotation":[-0.0,-0.7071068,0.0,0.7071067],"name":"KON006 - Lower Panel Clamp Part [8739162]031"},{"mesh":1,"translation":[1.4286327,2.8299918,-1.0157473],"rotation":[-0.0,-0.7071068,0.0,0.7071067],"name":"KON006 - Lower Panel Clamp Part [8739162]032"},{"mesh":1,"translation":[0.61646473,2.5353513,-1.0157473],"rotation":[-0.0,-0.7071068,0.0,0.7071067],"name":"KON006 - Lower Panel Clamp Part [8739162]033"},{"mesh":1,"translation":[0.61646473,2.2813516,-1.0157473],"rotation":[-0.0,-0.7071068,0.0,0.7071067],"name":"KON006 - Lower Panel Clamp Part [8739162]034"},{"mesh":1,"translation":[0.3497647,2.4530046,-1.0157473],"rotation":[-0.0,-0.7071068,0.0,0.7071067],"name":"KON006 - Lower Panel Clamp Part [8739162]035"},{"mesh":1,"translation":[0.3497647,2.1990047,-1.0157473],"rotation":[-0.0,-0.7071068,0.0,0.7071067],"name":"KON006 - Lower Panel Clamp Part [8739162]036"},{"mesh":1,"translation":[-0.165069,2.4530046,-1.0157473],"rotation":[-0.0,-0.7071068,0.0,0.7071067],"name":"KON006 - Lower Panel Clamp Part [8739162]037"},{"mesh":1,"translation":[-0.165069,2.1990047,-1.0157473],"rotation":[-0.0,-0.7071068,0.0,0.7071067],"name":"KON006 - Lower Panel Clamp Part [8739162]038"},{"mesh":1,"translation":[-0.29946777,2.4530046,-0.8813486],"name":"KON006 - Lower Panel Clamp Part [8739162]039"},{"mesh":1,"translation":[-0.29946777,2.1990047,-0.8813486],"name":"KON006 - Lower Panel Clamp Part [8739162]040"},{"mesh":1,"translation":[-0.29946777,2.4530046,-0.074374564],"name":"KON006 - Lower Panel Clamp Part [8739162]044"},{"mesh":1,"translation":[-0.29946777,2.1990047,-0.074374564],"name":"KON006 - Lower Panel Clamp Part [8739162]045"},{"mesh":1,"translation":[0.63076746,2.3525224,0.13850757],"rotation":[-0.0,-1.0,0.0,-4.371139E-08],"name":"KON006 - Lower Panel Clamp Part [8739162]202"},{"mesh":1,"translation":[0.63076746,2.0985222,0.13850757],"rotation":[-0.0,-1.0,0.0,-4.371139E-08],"name":"KON006 - Lower Panel Clamp Part [8739162]203"},{"mesh":2,"translation":[0.8471337,2.7182312,-0.069623694],"name":"KON021 - Konic Washer Part [8739168]052"},{"mesh":2,"translation":[0.8471337,2.7182312,-0.08392282],"rotation":[-0.0,-1.0,0.0,4.371139E-08],"name":"KON021 - Konic Washer Part [8739168]003"},{"mesh":2,"translation":[0.8471337,2.4642315,-0.069623694],"name":"KON021 - Konic Washer Part [8739168]053"},{"mesh":2,"translation":[0.8471337,2.4642315,-0.08392282],"rotation":[-0.0,-1.0,0.0,4.371139E-08],"name":"KON021 - Konic Washer Part [8739168]004"},{"mesh":2,"translation":[1.4286327,3.0839918,-0.069623694],"name":"KON021 - Konic Washer Part [8739168]058"},{"mesh":2,"translation":[1.4286327,3.0839918,-0.08392282],"rotation":[-0.0,-1.0,0.0,4.371139E-08],"name":"KON021 - Konic Washer Part [8739168]009"},{"mesh":2,"translation":[1.4286327,2.8299918,-0.069623694],"name":"KON021 - Konic Washer Part [8739168]059"},{"mesh":2,"translation":[1.4286327,2.8299918,-0.08392282],"rotation":[-0.0,-1.0,0.0,4.371139E-08],"name":"KON021 - Konic Washer Part [8739168]010"},{"mesh":2,"translation":[0.64665544,1.9867622,0.7080169],"rotation":[-0.0,0.7071068,0.0,0.7071068],"name":"KON021 - Konic Washer Part [8739168]062"},{"mesh":2,"translation":[0.63235635,1.9867622,0.7080169],"rotation":[-0.0,-0.7071068,0.0,0.7071067],"name":"KON021 - Konic Washer Part [8739168]013"},{"mesh":2,"translation":[0.64665544,1.7327623,0.7080169],"rotation":[-0.0,0.7071068,0.0,0.7071068],"name":"KON021 - Konic Washer Part [8739168]063"},{"mesh":2,"translation":[0.64665544,1.8038822,0.97354954],"rotation":[-0.0,0.7071068,0.0,0.7071068],"name":"KON021 - Konic Washer Part [8739168]064"},{"mesh":2,"translation":[0.63235635,1.8038822,0.97354954],"rotation":[-0.0,-0.7071068,0.0,0.7071067],"name":"KON021 - Konic Washer Part [8739168]015"},{"mesh":2,"translation":[0.64665544,1.5498822,0.97354954],"rotation":[-0.0,0.7071068,0.0,0.7071068],"name":"KON021 - Konic Washer Part [8739168]065"},{"mesh":2,"translation":[0.63235635,1.5498822,0.97354954],"rotation":[-0.0,-0.7071068,0.0,0.7071067],"name":"KON021 - Konic Washer Part [8739168]016"},{"mesh":2,"translation":[-0.31534398,2.3525224,0.17503546],"rotation":[-0.0,-0.7071068,0.0,0.7071067],"name":"KON021 - Konic Washer Part [8739168]068"},{"mesh":2,"translation":[-0.30104485,2.3525224,0.17503546],"rotation":[-0.0,0.7071068,0.0,0.7071067],"name":"KON021 - Konic Washer Part [8739168]019"},{"mesh":2,"translation":[-0.31534398,2.0985222,0.17503546],"rotation":[-0.0,-0.7071068,0.0,0.7071067],"name":"KON021 - Konic Washer Part [8739168]069"},{"mesh":2,"translation":[-0.30104485,2.0985222,0.17503546],"rotation":[-0.0,0.7071068,0.0,0.7071067],"name":"KON021 - Konic Washer Part [8739168]020"},{"mesh":2,"translation":[-0.31534398,1.9867622,0.7080169],"rotation":[-0.0,-0.7071068,0.0,0.7071067],"name":"KON021 - Konic Washer Part [8739168]070"},{"mesh":2,"translation":[-0.30104485,1.9867622,0.7080169],"rotation":[-0.0,0.7071068,0.0,0.7071067],"name":"KON021 - Konic Washer Part [8739168]021"},{"mesh":2,"translation":[-0.31534398,1.7327623,0.7080169],"rotation":[-0.0,-0.7071068,0.0,0.7071067],"name":"KON021 - Konic Washer Part [8739168]071"},{"mesh":2,"translation":[-0.30104485,1.7327623,0.7080169],"rotation":[-0.0,0.7071068,0.0,0.7071067],"name":"KON021 - Konic Washer Part [8739168]022"},{"mesh":2,"translation":[-0.31534398,1.8038822,0.97354954],"rotation":[-0.0,-0.7071068,0.0,0.7071067],"name":"KON021 - Konic Washer Part [8739168]072"},{"mesh":2,"translation":[-0.30104485,1.8038822,0.97354954],"rotation":[-0.0,0.7071068,0.0,0.7071067],"name":"KON021 - Konic Washer Part [8739168]023"},{"mesh":2,"translation":[-0.31534398,1.5498822,0.97354954],"rotation":[-0.0,-0.7071068,0.0,0.7071067],"name":"KON021 - Konic Washer Part [8739168]073"},{"mesh":2,"translation":[-0.30104485,1.5498822,0.97354954],"rotation":[-0.0,0.7071068,0.0,0.7071067],"name":"KON021 - Konic Washer Part [8739168]024"},{"mesh":2,"translation":[1.4286327,3.0839918,-1.0316231],"rotation":[-0.0,-1.0,0.0,-4.371139E-08],"name":"KON021 - Konic Washer Part [8739168]080"},{"mesh":2,"translation":[1.4286327,3.0839918,-1.017324],"name":"KON021 - Konic Washer Part [8739168]031"},{"mesh":2,"translation":[1.4286327,2.8299918,-1.0316231],"rotation":[-0.0,-1.0,0.0,-4.371139E-08],"name":"KON021 - Konic Washer Part [8739168]081"},{"mesh":2,"translation":[1.4286327,2.8299918,-1.017324],"name":"KON021 - Konic Washer Part [8739168]032"},{"mesh":2,"translation":[0.61646473,2.5353513,-1.0316231],"rotation":[-0.0,-1.0,0.0,-4.371139E-08],"name":"KON021 - Konic Washer Part [8739168]082"},{"mesh":2,"translation":[0.61646473,2.5353513,-1.017324],"name":"KON021 - Konic Washer Part [8739168]033"},{"mesh":2,"translation":[0.61646473,2.2813516,-1.0316231],"rotation":[-0.0,-1.0,0.0,-4.371139E-08],"name":"KON021 - Konic Washer Part [8739168]083"},{"mesh":2,"translation":[0.61646473,2.2813516,-1.017324],"name":"KON021 - Konic Washer Part [8739168]034"},{"mesh":2,"translation":[0.3497647,2.4530046,-1.0316231],"rotation":[-0.0,-1.0,0.0,-4.371139E-08],"name":"KON021 - Konic Washer Part [8739168]084"},{"mesh":2,"translation":[0.3497647,2.4530046,-1.017324],"name":"KON021 - Konic Washer Part [8739168]035"},{"mesh":2,"translation":[0.3497647,2.1990047,-1.0316231],"rotation":[-0.0,-1.0,0.0,-4.371139E-08],"name":"KON021 - Konic Washer Part [8739168]085"},{"mesh":2,"translation":[0.3497647,2.1990047,-1.017324],"name":"KON021 - Konic Washer Part [8739168]036"},{"mesh":2,"translation":[-0.165069,2.4530046,-1.0316231],"rotation":[-0.0,-1.0,0.0,4.371139E-08],"name":"KON021 - Konic Washer Part [8739168]086"},{"mesh":2,"translation":[-0.165069,2.4530046,-1.017324],"name":"KON021 - Konic Washer Part [8739168]037"},{"mesh":2,"translation":[-0.165069,2.1990047,-1.0316231],"rotation":[-0.0,-1.0,0.0,4.371139E-08],"name":"KON021 - Konic Washer Part [8739168]087"},{"mesh":2,"translation":[-0.165069,2.1990047,-1.017324],"name":"KON021 - Konic Washer Part [8739168]038"},{"mesh":2,"translation":[-0.31534123,2.4530046,-0.8813486],"rotation":[-0.0,-0.7071068,0.0,0.7071067],"name":"KON021 - Konic Washer Part [8739168]088"},{"mesh":2,"translation":[-0.30104208,2.4530046,-0.8813486],"rotation":[-0.0,0.7071068,0.0,0.7071067],"name":"KON021 - Konic Washer Part [8739168]039"},{"mesh":2,"translation":[-0.31534123,2.1990047,-0.8813486],"rotation":[-0.0,-0.7071068,0.0,0.7071067],"name":"KON021 - Konic Washer Part [8739168]089"},{"mesh":2,"translation":[-0.30104208,2.1990047,-0.8813486],"rotation":[-0.0,0.7071068,0.0,0.7071067],"name":"KON021 - Konic Washer Part [8739168]040"},{"mesh":2,"translation":[-0.31534123,2.4530046,-0.074374564],"rotation":[-0.0,-0.7071068,0.0,0.7071067],"name":"KON021 - Konic Washer Part [8739168]094"},{"mesh":2,"translation":[-0.30104208,2.4530046,-0.074374564],"rotation":[-0.0,0.7071068,0.0,0.7071067],"name":"KON021 - Konic Washer Part [8739168]044"},{"mesh":2,"translation":[-0.31534123,2.1990047,-0.074374564],"rotation":[-0.0,-0.7071068,0.0,0.7071067],"name":"KON021 - Konic Washer Part [8739168]095"},{"mesh":2,"translation":[-0.30104208,2.1990047,-0.074374564],"rotation":[-0.0,0.7071068,0.0,0.7071067],"name":"KON021 - Konic Washer Part [8739168]045"},{"mesh":2,"translation":[0.6323441,2.3525224,0.13850757],"rotation":[-0.0,-0.7071068,0.0,0.7071067],"name":"KON021 - Konic Washer Part [8739168]199"},{"mesh":2,"translation":[0.6323441,2.0985222,0.13850757],"rotation":[-0.0,-0.7071068,0.0,0.7071067],"name":"KON021 - Konic Washer Part [8739168]200"},{"mesh":2,"translation":[0.6466432,2.3525224,0.13850757],"rotation":[-0.0,0.7071068,0.0,0.7071068],"name":"KON021 - Konic Washer Part [8739168]201"},{"mesh":2,"translation":[0.6466432,2.0985222,0.13850757],"rotation":[-0.0,0.7071068,0.0,0.7071068],"name":"KON021 - Konic Washer Part [8739168]202"},{"mesh":3,"translation":[0.8471337,2.1945596,-0.023573017],"rotation":[-0.0,-0.7071068,0.0,0.7071067],"name":"CSQ001-US - Surface Mount Weldment Part [8723797]242"},{"mesh":3,"translation":[1.4286327,2.56032,-0.023573017],"rotation":[-0.0,-0.7071068,0.0,0.7071067],"name":"CSQ001-US - Surface Mount Weldment Part [8723797]243"},{"mesh":3,"translation":[-0.36139467,1.8287996,0.17503546],"rotation":[-0.0,-1.0,0.0,-1.6292068E-07],"name":"CSQ001-US - Surface Mount Weldment Part [8723797]244"},{"mesh":3,"translation":[-0.36139467,1.4630396,0.7080169],"rotation":[-0.0,-1.0,0.0,-1.6292068E-07],"name":"CSQ001-US - Surface Mount Weldment Part [8723797]245"},{"mesh":3,"translation":[1.4286327,2.56032,-1.0776738],"rotation":[-0.0,0.7071068,0.0,0.7071067],"name":"CSQ001-US - Surface Mount Weldment Part [8723797]246"},{"mesh":3,"translation":[0.61646473,2.0116796,-1.0776738],"rotation":[-0.0,0.7071068,0.0,0.7071067],"name":"CSQ001-US - Surface Mount Weldment Part [8723797]247"},{"mesh":3,"translation":[0.3497647,2.0116796,-1.0776738],"rotation":[-0.0,0.7071068,0.0,0.7071067],"name":"CSQ001-US - Surface Mount Weldment Part [8723797]248"},{"mesh":3,"translation":[-0.165069,2.0116796,-1.0776738],"rotation":[-0.0,0.7071068,0.0,0.7071067],"name":"CSQ001-US - Surface Mount Weldment Part [8723797]249"},{"mesh":3,"translation":[-0.3613919,2.0116796,-0.8813486],"rotation":[-0.0,-1.0,0.0,-4.371139E-08],"name":"CSQ001-US - Surface Mount Weldment Part [8723797]250"},{"mesh":3,"translation":[-0.3613919,2.0116796,-0.074374564],"rotation":[-0.0,-1.0,0.0,-4.371139E-08],"name":"CSQ001-US - Surface Mount Weldment Part [8723797]251"},{"mesh":3,"translation":[0.69269395,1.8287996,0.13850757],"rotation":[-0.0,-3.2584137E-07,0.0,1.0],"name":"CSQ001-US - Surface Mount Weldment Part [8723797]252"},{"mesh":3,"translation":[0.69277954,0.91459054,1.5558388],"rotation":[-0.0,-5.9604645E-08,0.0,1.0],"name":"CSQ001-US - Surface Mount Weldment Part [8723797]253"},{"mesh":3,"translation":[0.69277954,1.2803504,0.97354954],"rotation":[-0.0,-5.9604645E-08,0.0,1.0],"name":"CSQ001-US - Surface Mount Weldment Part [8723797]265"},{"mesh":3,"translation":[0.69277954,1.4632306,0.7080169],"rotation":[-0.0,-5.9604645E-08,0.0,1.0],"name":"CSQ001-US - Surface Mount Weldment Part [8723797]254"},{"mesh":3,"translation":[0.89138776,0.54883045,2.7643673],"rotation":[-0.0,-0.7071069,0.0,0.70710665],"name":"CSQ001-US - Surface Mount Weldment Part [8723797]255"},{"mesh":3,"translation":[-0.36132112,1.2801603,0.97354954],"rotation":[-0.0,-1.0,0.0,4.371139E-08],"name":"CSQ001-US - Surface Mount Weldment Part [8723797]256"},{"mesh":3,"translation":[-0.36132112,0.73171043,1.7865084],"rotation":[-0.0,-1.0,0.0,4.371139E-08],"name":"CSQ001-US - Surface Mount Weldment Part [8723797]257"},{"mesh":3,"translation":[-0.36132112,0.73171043,2.0532084],"rotation":[-0.0,-1.0,0.0,4.371139E-08],"name":"CSQ001-US - Surface Mount Weldment Part [8723797]258"},{"mesh":3,"translation":[-0.36132112,0.73171043,2.568042],"rotation":[-0.0,-1.0,0.0,4.371139E-08],"name":"CSQ001-US - Surface Mount Weldment Part [8723797]259"},{"mesh":3,"translation":[-0.1649959,0.73171043,2.764365],"rotation":[-0.0,-0.7071068,0.0,0.7071067],"name":"CSQ001-US - Surface Mount Weldment Part [8723797]260"},{"mesh":3,"translation":[0.64197797,0.73171043,2.764365],"rotation":[-0.0,-0.7071068,0.0,0.7071067],"name":"CSQ001-US - Surface Mount Weldment Part [8723797]261"},{"mesh":3,"translation":[0.8548603,0.54883045,1.7102782],"rotation":[-0.0,0.7071066,0.0,0.70710695],"name":"CSQ001-US - Surface Mount Weldment Part [8723797]262"},{"mesh":3,"translation":[1.4237274,0.18307047,1.7102666],"rotation":[-0.0,0.7071068,0.0,0.7071067],"name":"CSQ001-US - Surface Mount Weldment Part [8723797]263"},{"mesh":3,"translation":[1.4237275,0.18307047,2.7643673],"rotation":[-0.0,-0.7071069,0.0,0.70710665],"name":"CSQ001-US - Surface Mount Weldment Part [8723797]264"},{"mesh":4,"translation":[0.8471337,2.1945596,-0.023573017],"rotation":[0.5,0.5,0.50000006,0.49999994],"scale":[1.0,0.99999994,0.99999994],"name":"LS147 & LS148 - Kubit Post Material LS Material [8739192]002"},{"mesh":4,"translation":[1.4286327,2.56032,-0.023573017],"rotation":[0.5,0.5,0.50000006,0.49999994],"scale":[1.0,0.99999994,0.99999994],"name":"LS147 & LS148 - Kubit Post Material LS Material [8739192]005"},{"mesh":4,"translation":[-0.36139467,1.8287996,0.17503546],"rotation":[4.0730175E-08,-4.0730175E-08,0.7071068,0.7071067],"scale":[1.0,0.99999994,0.99999994],"name":"LS147 & LS148 - Kubit Post Material LS Material [8739192]010"},{"mesh":4,"translation":[-0.36139467,1.4630396,0.7080169],"rotation":[4.0730175E-08,-4.0730175E-08,0.7071068,0.7071067],"scale":[1.0,0.99999994,0.99999994],"name":"LS147 & LS148 - Kubit Post Material LS Material [8739192]011"},{"mesh":4,"translation":[-0.36139467,1.2801597,0.97354954],"rotation":[4.0730175E-08,-4.0730175E-08,0.7071068,0.7071067],"scale":[1.0,0.99999994,0.99999994],"name":"LS147 & LS148 - Kubit Post Material LS Material [8739192]012"},{"mesh":4,"translation":[1.4286327,2.56032,-1.0776738],"rotation":[-0.5,-0.5,0.50000006,0.49999994],"name":"LS147 & LS148 - Kubit Post Material LS Material [8739192]016"},{"mesh":4,"translation":[0.61646473,2.0116796,-1.0776738],"rotation":[-0.5,-0.5,0.50000006,0.49999994],"name":"LS147 & LS148 - Kubit Post Material LS Material [8739192]017"},{"mesh":4,"translation":[0.69269395,1.8287996,0.13850757],"rotation":[-0.7071067,-0.7071068,-9.341373E-08,-1.1953389E-08],"name":"LS147 & LS148 - Kubit Post Material LS Material [8739192]049"},{"mesh":5,"translation":[0.8829833,2.8968084,-0.076767445],"name":"Infill_Glass_Raked & Horizontal Generic [8199751]"},{"mesh":6,"translation":[0.6395117,2.209226,0.4102712],"name":"Infill_Glass_Transition Generic [8202170]"},{"mesh":7,"translation":[0.63959336,2.3637831,0.8204894],"name":"Generic Models 1 Generic Models 1 [8568048]"},{"mesh":8,"translation":[-0.30818832,2.3637452,0.8378442],"name":"Generic Models 10 Generic Models 1 [8735975]"},{"mesh":9,"translation":[0.067898184,2.601503,-1.0244794],"rotation":[-0.0,3.133859E-15,0.0,1.0],"name":"Infill_Glass_Raked & Horizontal Generic [8737682]"},{"mesh":10,"translation":[1.022491,2.8665884,-1.0244794],"name":"Casework 1 Casework 1 [8738332]"},{"mesh":11,"translation":[0.3497647,2.0116796,-1.0776738],"rotation":[-0.5,-0.5,0.50000006,0.49999994],"name":"LS147 & LS148 - Kubit Post Material LS Material [8739192]018"},{"mesh":11,"translation":[-0.165069,2.0116796,-1.0776738],"rotation":[-0.5,-0.5,0.50000006,0.49999994],"name":"LS147 & LS148 - Kubit Post Material LS Material [8739192]019"},{"mesh":11,"translation":[-0.3613919,2.0116796,-0.8813486],"rotation":[-0.0,-0.0,0.7071068,0.7071067],"name":"LS147 & LS148 - Kubit Post Material LS Material [8739192]020"},{"mesh":11,"translation":[-0.3613919,2.0116796,-0.074374564],"rotation":[-0.0,-0.0,0.7071068,0.7071067],"name":"LS147 & LS148 - Kubit Post Material LS Material [8739192]022"},{"mesh":12,"translation":[-0.30819747,2.601503,-0.64838374],"rotation":[-0.0,-0.7071068,0.0,0.7071067],"name":"Infill_Glass_Raked & Horizontal Generic [8738822]"},{"mesh":13,"translation":[-0.30820024,2.2095554,0.44231918],"rotation":[-0.0,0.7071068,0.0,0.7071068],"name":"Infill_Glass_Raked & Horizontal Generic [8739593]"},{"mesh":14,"translation":[1.163801,3.6663659,-0.513857],"name":"Object"},{"mesh":15,"translation":[1.6726357,3.7321718,-0.07691128],"name":"Generic Models 11 Generic Models 11 [8762451]005"},{"mesh":16,"translation":[-0.30812553,1.5866196,1.3804855],"name":"Casework 1 Casework 1 [8738332]001"},{"mesh":17,"translation":[1.1381955,1.3559175,1.7633808],"name":"Generic Models 1 Generic Models 1 [8568048]001"},{"mesh":18,"translation":[1.5450405,1.0837624,2.7111647],"name":"Object006"},{"mesh":19,"translation":[0.6395851,1.6168393,1.5199887],"rotation":[-0.0,0.7071068,0.0,0.7071067],"name":"Infill_Glass_Raked & Horizontal Generic [8199751]001"},{"translation":[0.8913971,0.38092476,1.763461],"rotation":[-0.0,-1.0,0.0,7.54979E-08],"name":"Infill_Glass_Raked & Horizontal Generic [8202939]001"},{"translation":[0.8913973,0.38094634,2.7111728],"rotation":[-0.0,-1.0,0.0,7.54979E-08],"name":"Infill_Glass_Raked & Horizontal Generic [8735940]001"},{"mesh":20,"translation":[-0.3081267,1.3215338,2.335075],"rotation":[-0.0,0.7071068,0.0,0.7071067],"name":"Infill_Glass_Raked & Horizontal Generic [8737682]001"},{"mesh":21,"translation":[0.067968816,1.3215338,2.7111707],"rotation":[-0.0,-5.9604645E-08,0.0,1.0],"name":"Infill_Glass_Raked & Horizontal Generic [8738822]001"},{"mesh":22,"translation":[1.1586715,0.9295863,2.7111728],"rotation":[-0.0,-1.0,0.0,7.54979E-08],"name":"Infill_Glass_Raked & Horizontal Generic [8739593]001"},{"mesh":23,"translation":[0.7712672,1.6461104,1.763461],"rotation":[0.7071068,-0.0,0.0,0.7071067],"name":"Infill_Glass_Transition Generic [8202170]001"},{"mesh":24,"translation":[0.63085306,1.4382623,1.5558388],"rotation":[-0.0,-1.0,0.0,4.371139E-08],"name":"KON006 - Lower Panel Clamp Part [8739162]206"},{"mesh":24,"translation":[0.63085306,1.1842623,1.5558388],"rotation":[-0.0,-1.0,0.0,4.371139E-08],"name":"KON006 - Lower Panel Clamp Part [8739162]207"},{"mesh":24,"translation":[0.63085306,1.8040223,0.97354954],"rotation":[-0.0,-1.0,0.0,4.371139E-08],"name":"KON006 - Lower Panel Clamp Part [8739162]208"},{"mesh":24,"translation":[0.89138776,1.0725532,2.702441],"rotation":[-0.0,0.7071068,0.0,0.7071067],"name":"KON006 - Lower Panel Clamp Part [8739162]220"},{"mesh":24,"translation":[0.89138776,0.8185531,2.702441],"rotation":[-0.0,0.7071068,0.0,0.7071067],"name":"KON006 - Lower Panel Clamp Part [8739162]221"},{"mesh":24,"translation":[-0.29939467,1.2553823,1.7865084],"rotation":[-0.0,-5.9604645E-08,0.0,1.0],"name":"KON006 - Lower Panel Clamp Part [8739162]234"},{"mesh":24,"translation":[-0.29939467,1.0013824,1.7865084],"rotation":[-0.0,-5.9604645E-08,0.0,1.0],"name":"KON006 - Lower Panel Clamp Part [8739162]235"},{"mesh":24,"translation":[-0.29939467,1.1730355,2.0532084],"rotation":[-0.0,-5.9604645E-08,0.0,1.0],"name":"KON006 - Lower Panel Clamp Part [8739162]236"},{"mesh":24,"translation":[-0.29939467,0.9190356,2.0532084],"rotation":[-0.0,-5.9604645E-08,0.0,1.0],"name":"KON006 - Lower Panel Clamp Part [8739162]237"},{"mesh":24,"translation":[-0.29939467,1.1730355,2.568042],"rotation":[-0.0,-5.9604645E-08,0.0,1.0],"name":"KON006 - Lower Panel Clamp Part [8739162]238"},{"mesh":24,"translation":[-0.29939467,0.9190356,2.568042],"rotation":[-0.0,-5.9604645E-08,0.0,1.0],"name":"KON006 - Lower Panel Clamp Part [8739162]239"},{"mesh":24,"translation":[-0.1649959,1.1730355,2.702441],"rotation":[-0.0,0.7071068,0.0,0.7071067],"name":"KON006 - Lower Panel Clamp Part [8739162]240"},{"mesh":24,"translation":[-0.1649959,0.9190356,2.702441],"rotation":[-0.0,0.7071068,0.0,0.7071067],"name":"KON006 - Lower Panel Clamp Part [8739162]241"},{"mesh":24,"translation":[0.64197797,1.1730355,2.702441],"rotation":[-0.0,0.7071068,0.0,0.7071067],"name":"KON006 - Lower Panel Clamp Part [8739162]242"},{"mesh":24,"translation":[0.64197797,0.9190356,2.702441],"rotation":[-0.0,0.7071068,0.0,0.7071067],"name":"KON006 - Lower Panel Clamp Part [8739162]243"},{"mesh":24,"translation":[0.8548603,1.0725532,1.7722046],"rotation":[-0.0,-0.7071068,0.0,0.7071067],"name":"KON006 - Lower Panel Clamp Part [8739162]364"},{"mesh":24,"translation":[0.8548603,0.8185531,1.7722046],"rotation":[-0.0,-0.7071068,0.0,0.7071067],"name":"KON006 - Lower Panel Clamp Part [8739162]365"},{"mesh":24,"translation":[1.4237274,0.70679307,1.772193],"rotation":[-0.0,-0.7071069,0.0,0.70710665],"name":"KON006 - Lower Panel Clamp Part [8739162]368"},{"mesh":24,"translation":[1.4237274,0.45279303,1.772193],"rotation":[-0.0,-0.7071069,0.0,0.70710665],"name":"KON006 - Lower Panel Clamp Part [8739162]369"},{"mesh":24,"translation":[1.4237275,0.70679307,2.702441],"rotation":[-0.0,0.7071068,0.0,0.7071067],"name":"KON006 - Lower Panel Clamp Part [8739162]370"},{"mesh":24,"translation":[1.4237275,0.45279303,2.702441],"rotation":[-0.0,0.7071068,0.0,0.7071067],"name":"KON006 - Lower Panel Clamp Part [8739162]371"},{"mesh":25,"translation":[0.6324297,1.4382623,1.5558388],"rotation":[-0.0,-0.7071068,0.0,0.7071068],"name":"KON021 - Konic Washer Part [8739168]203"},{"mesh":25,"translation":[0.6324297,1.1842623,1.5558388],"rotation":[-0.0,-0.7071068,0.0,0.7071068],"name":"KON021 - Konic Washer Part [8739168]204"},{"mesh":25,"translation":[0.6324297,1.7329023,0.7080169],"rotation":[-0.0,-0.7071068,0.0,0.7071068],"name":"KON021 - Konic Washer Part [8739168]208"},{"mesh":25,"translation":[0.89138776,1.0725532,2.7040176],"rotation":[-0.0,-1.0,0.0,4.371139E-08],"name":"KON021 - Konic Washer Part [8739168]217"},{"mesh":25,"translation":[0.89138776,0.8185531,2.7040176],"rotation":[-0.0,-1.0,0.0,4.371139E-08],"name":"KON021 - Konic Washer Part [8739168]218"},{"mesh":25,"translation":[-0.3009713,1.2553823,1.7865084],"rotation":[-0.0,0.7071068,0.0,0.7071067],"name":"KON021 - Konic Washer Part [8739168]231"},{"mesh":25,"translation":[-0.3009713,1.0013824,1.7865084],"rotation":[-0.0,0.7071068,0.0,0.7071067],"name":"KON021 - Konic Washer Part [8739168]232"},{"mesh":25,"translation":[-0.3009713,1.1730355,2.0532084],"rotation":[-0.0,0.7071068,0.0,0.7071067],"name":"KON021 - Konic Washer Part [8739168]233"},{"mesh":25,"translation":[-0.3009713,0.9190356,2.0532084],"rotation":[-0.0,0.7071068,0.0,0.7071067],"name":"KON021 - Konic Washer Part [8739168]234"},{"mesh":25,"translation":[-0.3009713,1.1730355,2.568042],"rotation":[-0.0,0.7071068,0.0,0.7071067],"name":"KON021 - Konic Washer Part [8739168]235"},{"mesh":25,"translation":[-0.3009713,0.9190356,2.568042],"rotation":[-0.0,0.7071068,0.0,0.7071067],"name":"KON021 - Konic Washer Part [8739168]236"},{"mesh":25,"translation":[-0.1649959,1.1730355,2.7040153],"rotation":[-0.0,-1.0,0.0,4.371139E-08],"name":"KON021 - Konic Washer Part [8739168]237"},{"mesh":25,"translation":[-0.1649959,0.9190356,2.7040153],"rotation":[-0.0,-1.0,0.0,4.371139E-08],"name":"KON021 - Konic Washer Part [8739168]238"},{"mesh":25,"translation":[0.64197797,1.1730355,2.7040153],"rotation":[-0.0,-1.0,0.0,4.371139E-08],"name":"KON021 - Konic Washer Part [8739168]239"},{"mesh":25,"translation":[0.64197797,0.9190356,2.7040153],"rotation":[-0.0,-1.0,0.0,4.371139E-08],"name":"KON021 - Konic Washer Part [8739168]240"},{"mesh":25,"translation":[0.6467289,1.4382623,1.5558388],"rotation":[-0.0,0.7071068,0.0,0.7071067],"name":"KON021 - Konic Washer Part [8739168]241"},{"mesh":25,"translation":[0.6467289,1.1842623,1.5558388],"rotation":[-0.0,0.7071068,0.0,0.7071067],"name":"KON021 - Konic Washer Part [8739168]242"},{"mesh":25,"translation":[0.89138776,1.0725532,2.7183166],"name":"KON021 - Konic Washer Part [8739168]255"},{"mesh":25,"translation":[0.89138776,0.8185531,2.7183166],"name":"KON021 - Konic Washer Part [8739168]256"},{"mesh":25,"translation":[-0.31527045,1.2553823,1.7865084],"rotation":[-0.0,-0.7071068,0.0,0.7071067],"name":"KON021 - Konic Washer Part [8739168]269"},{"mesh":25,"translation":[-0.31527045,1.0013824,1.7865084],"rotation":[-0.0,-0.7071068,0.0,0.7071067],"name":"KON021 - Konic Washer Part [8739168]270"},{"mesh":25,"translation":[-0.31527045,1.1730355,2.0532084],"rotation":[-0.0,-0.7071068,0.0,0.7071067],"name":"KON021 - Konic Washer Part [8739168]271"},{"mesh":25,"translation":[-0.31527045,0.9190356,2.0532084],"rotation":[-0.0,-0.7071068,0.0,0.7071067],"name":"KON021 - Konic Washer Part [8739168]272"},{"mesh":25,"translation":[-0.31527045,1.1730355,2.568042],"rotation":[-0.0,-0.7071068,0.0,0.7071068],"name":"KON021 - Konic Washer Part [8739168]273"},{"mesh":25,"translation":[-0.31527045,0.9190356,2.568042],"rotation":[-0.0,-0.7071068,0.0,0.7071068],"name":"KON021 - Konic Washer Part [8739168]274"},{"mesh":25,"translation":[-0.1649959,1.1730355,2.7183144],"rotation":[-0.0,-5.9604645E-08,0.0,1.0],"name":"KON021 - Konic Washer Part [8739168]275"},{"mesh":25,"translation":[-0.1649959,0.9190356,2.7183144],"rotation":[-0.0,-5.9604645E-08,0.0,1.0],"name":"KON021 - Konic Washer Part [8739168]276"},{"mesh":25,"translation":[0.64197797,1.1730355,2.7183144],"rotation":[-0.0,-5.9604645E-08,0.0,1.0],"name":"KON021 - Konic Washer Part [8739168]277"},{"mesh":25,"translation":[0.64197797,0.9190356,2.7183144],"rotation":[-0.0,-5.9604645E-08,0.0,1.0],"name":"KON021 - Konic Washer Part [8739168]278"},{"mesh":25,"translation":[0.8548603,1.0725532,1.770628],"name":"KON021 - Konic Washer Part [8739168]363"},{"mesh":25,"translation":[0.8548603,0.8185531,1.770628],"name":"KON021 - Konic Washer Part [8739168]364"},{"mesh":25,"translation":[0.8548603,1.0725532,1.7563288],"rotation":[-0.0,-1.0,0.0,7.54979E-08],"name":"KON021 - Konic Washer Part [8739168]365"},{"mesh":25,"translation":[0.8548603,0.8185531,1.7563288],"rotation":[-0.0,-1.0,0.0,7.54979E-08],"name":"KON021 - Konic Washer Part [8739168]366"},{"mesh":25,"translation":[1.4237274,0.70679307,1.7706164],"name":"KON021 - Konic Washer Part [8739168]367"},{"mesh":25,"translation":[1.4237274,0.45279303,1.7706164],"name":"KON021 - Konic Washer Part [8739168]368"},{"mesh":25,"translation":[1.4237275,0.70679307,2.7040176],"rotation":[-0.0,-1.0,0.0,4.371139E-08],"name":"KON021 - Konic Washer Part [8739168]369"},{"mesh":25,"translation":[1.4237275,0.45279303,2.7040176],"rotation":[-0.0,-1.0,0.0,4.371139E-08],"name":"KON021 - Konic Washer Part [8739168]370"},{"mesh":25,"translation":[1.4237274,0.70679307,1.7563173],"rotation":[-0.0,-1.0,0.0,7.54979E-08],"name":"KON021 - Konic Washer Part [8739168]371"},{"mesh":25,"translation":[1.4237274,0.45279303,1.7563173],"rotation":[-0.0,-1.0,0.0,7.54979E-08],"name":"KON021 - Konic Washer Part [8739168]372"},{"mesh":25,"translation":[1.4237275,0.70679307,2.7183166],"name":"KON021 - Konic Washer Part [8739168]373"},{"mesh":25,"translation":[1.4237275,0.45279303,2.7183166],"name":"KON021 - Konic Washer Part [8739168]374"},{"mesh":26,"translation":[0.69277954,1.4382623,1.5558388],"rotation":[-0.0,-1.0,0.0,4.371139E-08],"name":"KUB009 - Top Barrel Mount Part [8739165]100"},{"mesh":26,"translation":[0.69277954,1.8040223,0.97354954],"rotation":[-0.0,-1.0,0.0,4.371139E-08],"name":"KUB009 - Top Barrel Mount Part [8739165]101"},{"mesh":26,"translation":[0.69277954,1.9869025,0.7080169],"rotation":[-0.0,-1.0,0.0,4.371139E-08],"name":"KUB009 - Top Barrel Mount Part [8739165]102"},{"mesh":26,"translation":[0.89138776,1.0725532,2.7643673],"rotation":[-0.0,0.7071068,0.0,0.7071067],"name":"KUB009 - Top Barrel Mount Part [8739165]107"},{"mesh":26,"translation":[-0.36132112,1.2553823,1.7865084],"rotation":[-0.0,-5.9604645E-08,0.0,1.0],"name":"KUB009 - Top Barrel Mount Part [8739165]114"},{"mesh":26,"translation":[-0.36132112,1.1730355,2.0532084],"rotation":[-0.0,-5.9604645E-08,0.0,1.0],"name":"KUB009 - Top Barrel Mount Part [8739165]115"},{"mesh":26,"translation":[-0.36132112,1.1730355,2.568042],"rotation":[-0.0,-5.9604645E-08,0.0,1.0],"name":"KUB009 - Top Barrel Mount Part [8739165]116"},{"mesh":26,"translation":[-0.1649959,1.1730355,2.764365],"rotation":[-0.0,0.7071068,0.0,0.7071067],"name":"KUB009 - Top Barrel Mount Part [8739165]117"},{"mesh":26,"translation":[0.64197797,1.1730355,2.764365],"rotation":[-0.0,0.7071068,0.0,0.7071067],"name":"KUB009 - Top Barrel Mount Part [8739165]118"},{"mesh":26,"translation":[0.69277954,1.1842623,1.5558388],"rotation":[-0.0,-1.0,0.0,4.371139E-08],"name":"KUB009 - Top Barrel Mount Part [8739165]119"},{"mesh":26,"translation":[0.69277954,1.7329023,0.7080169],"rotation":[-0.0,-1.0,0.0,4.371139E-08],"name":"KUB009 - Top Barrel Mount Part [8739165]121"},{"mesh":26,"translation":[0.89138776,0.8185531,2.7643673],"rotation":[-0.0,0.7071068,0.0,0.7071067],"name":"KUB009 - Top Barrel Mount Part [8739165]126"},{"mesh":26,"translation":[-0.36132112,1.0013824,1.7865084],"rotation":[-0.0,-5.9604645E-08,0.0,1.0],"name":"KUB009 - Top Barrel Mount Part [8739165]133"},{"mesh":26,"translation":[-0.36132112,0.9190356,2.0532084],"rotation":[-0.0,-5.9604645E-08,0.0,1.0],"name":"KUB009 - Top Barrel Mount Part [8739165]134"},{"mesh":26,"translation":[-0.36132112,0.9190356,2.568042],"rotation":[-0.0,-5.9604645E-08,0.0,1.0],"name":"KUB009 - Top Barrel Mount Part [8739165]135"},{"mesh":26,"translation":[-0.1649959,0.9190356,2.764365],"rotation":[-0.0,0.7071068,0.0,0.7071067],"name":"KUB009 - Top Barrel Mount Part [8739165]136"},{"mesh":26,"translation":[0.64197797,0.9190356,2.764365],"rotation":[-0.0,0.7071068,0.0,0.7071067],"name":"KUB009 - Top Barrel Mount Part [8739165]137"},{"mesh":26,"translation":[0.8548603,1.0725532,1.7102782],"rotation":[-0.0,-0.7071068,0.0,0.7071067],"name":"KUB009 - Top Barrel Mount Part [8739165]180"},{"mesh":26,"translation":[0.8548603,0.8185531,1.7102782],"rotation":[-0.0,-0.7071068,0.0,0.7071067],"name":"KUB009 - Top Barrel Mount Part [8739165]181"},{"mesh":26,"translation":[1.4237274,0.70679307,1.7102666],"rotation":[-0.0,-0.7071069,0.0,0.70710665],"name":"KUB009 - Top Barrel Mount Part [8739165]182"},{"mesh":26,"translation":[1.4237275,0.70679307,2.7643673],"rotation":[-0.0,0.7071068,0.0,0.7071067],"name":"KUB009 - Top Barrel Mount Part [8739165]183"},{"mesh":26,"translation":[1.4237274,0.45279303,1.7102666],"rotation":[-0.0,-0.7071069,0.0,0.70710665],"name":"KUB009 - Top Barrel Mount Part [8739165]184"},{"mesh":26,"translation":[1.4237275,0.45279303,2.7643673],"rotation":[-0.0,0.7071068,0.0,0.7071067],"name":"KUB009 - Top Barrel Mount Part [8739165]185"},{"mesh":27,"translation":[0.69277954,0.91459054,1.5558388],"rotation":[-0.7071067,-0.7071068,-4.073017E-08,4.0730168E-08],"scale":[1.0,0.99999994,0.99999994],"name":"LS147 & LS148 - Kubit Post Material LS Material [8739192]050"},{"mesh":27,"translation":[0.69277954,1.2803504,0.97354954],"rotation":[-0.7071067,-0.7071068,-4.073017E-08,4.0730168E-08],"scale":[1.0,0.99999994,0.99999994],"name":"LS147 & LS148 - Kubit Post Material LS Material [8739192]051"},{"mesh":27,"translation":[0.69277954,1.4632306,0.7080169],"rotation":[-0.7071067,-0.7071068,-4.073017E-08,4.0730168E-08],"scale":[1.0,0.99999994,0.99999994],"name":"LS147 & LS148 - Kubit Post Material LS Material [8739192]052"},{"mesh":27,"translation":[0.89138776,0.54883045,2.7643673],"rotation":[0.5,0.5,0.50000006,0.49999994],"scale":[1.0,0.99999994,0.99999994],"name":"LS147 & LS148 - Kubit Post Material LS Material [8739192]057"},{"mesh":27,"translation":[-0.36132112,0.73171043,1.7865084],"rotation":[1.4166681E-09,8.287703E-08,0.7071068,0.7071067],"name":"LS147 & LS148 - Kubit Post Material LS Material [8739192]064"},{"mesh":27,"translation":[0.8548603,0.54883045,1.7102782],"rotation":[-0.49999994,-0.50000006,0.5,0.5],"scale":[1.0,0.99999994,0.99999994],"name":"LS147 & LS148 - Kubit Post Material LS Material [8739192]090"},{"mesh":27,"translation":[1.4237274,0.18307047,1.7102666],"rotation":[-0.5,-0.5,0.50000006,0.49999994],"name":"LS147 & LS148 - Kubit Post Material LS Material [8739192]091"},{"mesh":27,"translation":[1.4237275,0.18307047,2.7643673],"rotation":[0.5,0.5,0.50000006,0.49999994],"scale":[1.0,0.99999994,0.99999994],"name":"LS147 & LS148 - Kubit Post Material LS Material [8739192]092"},{"mesh":28,"translation":[-0.36132112,0.73171043,2.0532084],"rotation":[1.4166681E-09,8.287703E-08,0.7071068,0.7071067],"name":"LS147 & LS148 - Kubit Post Material LS Material [8739192]065"},{"mesh":28,"translation":[-0.36132112,0.73171043,2.568042],"rotation":[1.4166681E-09,8.287703E-08,0.7071068,0.7071067],"name":"LS147 & LS148 - Kubit Post Material LS Material [8739192]066"},{"mesh":28,"translation":[-0.1649959,0.73171043,2.764365],"rotation":[-0.49999997,-0.5000001,-0.50000006,-0.49999997],"name":"LS147 & LS148 - Kubit Post Material LS Material [8739192]067"},{"mesh":28,"translation":[0.64197797,0.73171043,2.764365],"rotation":[-0.49999997,-0.5000001,-0.50000006,-0.49999997],"name":"LS147 & LS148 - Kubit Post Material LS Material [8739192]068"},{"mesh":29,"translation":[0.2024968,2.385576,1.239157],"name":"Object003"},{"mesh":30,"translation":[-0.30828178,2.0101762,1.6006715],"name":"Object013"}],"meshes":[{"primitives":[{"attributes":{"POSITION":1,"TANGENT":2,"NORMAL":3,"TEXCOORD_0":4},"indices":0,"material":0},{"attributes":{"POSITION":6,"TANGENT":7,"NORMAL":8,"TEXCOORD_0":9},"indices":5,"material":1}],"name":"KUB009 - Top Barrel Mount Part [8739165]026"},{"primitives":[{"attributes":{"POSITION":11,"TANGENT":12,"NORMAL":13,"TEXCOORD_0":14},"indices":10,"material":0},{"attributes":{"POSITION":16,"TANGENT":17,"NORMAL":18,"TEXCOORD_0":19},"indices":15,"material":1}],"name":"KON006 - Lower Panel Clamp Part [8739162]003"},{"primitives":[{"attributes":{"POSITION":21,"TANGENT":22,"NORMAL":23,"TEXCOORD_0":24},"indices":20,"material":2}],"name":"KON021 - Konic Washer Part [8739168]052"},{"primitives":[{"attributes":{"POSITION":26,"TANGENT":27,"NORMAL":28,"TEXCOORD_0":29},"indices":25,"material":0}],"name":"CSQ001-US - Surface Mount Weldment Part [8723797]242"},{"primitives":[{"attributes":{"POSITION":31,"TANGENT":32,"NORMAL":33,"TEXCOORD_0":34},"indices":30,"material":0}],"name":"LS147 & LS148 - Kubit Post Material LS Material [8739192]002"},{"primitives":[{"attributes":{"POSITION":36,"TANGENT":37,"NORMAL":38,"TEXCOORD_0":39},"indices":35,"material":3}],"name":"Infill_Glass_Raked & Horizontal Generic [8199751]"},{"primitives":[{"attributes":{"POSITION":41,"TANGENT":42,"NORMAL":43,"TEXCOORD_0":44},"indices":40,"material":3}],"name":"Infill_Glass_Transition Generic [8202170]"},{"primitives":[{"attributes":{"POSITION":46,"TANGENT":47,"NORMAL":48,"TEXCOORD_0":49},"indices":45,"material":0},{"attributes":{"POSITION":51,"TANGENT":52,"NORMAL":53,"TEXCOORD_0":54},"indices":50,"material":1}],"name":"Generic Models 1 Generic Models 1 [8568048]"},{"primitives":[{"attributes":{"POSITION":56,"TANGENT":57,"NORMAL":58,"TEXCOORD_0":59},"indices":55,"material":0},{"attributes":{"POSITION":61,"TANGENT":62,"NORMAL":63,"TEXCOORD_0":64},"indices":60,"material":1}],"name":"Generic Models 10 Generic Models 1 [8735975]"},{"primitives":[{"attributes":{"POSITION":66,"TANGENT":67,"NORMAL":68,"TEXCOORD_0":69},"indices":65,"material":3}],"name":"Infill_Glass_Raked & Horizontal Generic [8737682]"},{"primitives":[{"attributes":{"POSITION":71,"TANGENT":72,"NORMAL":73,"TEXCOORD_0":74},"indices":70,"material":3}],"name":"Casework 1 Casework 1 [8738332]"},{"primitives":[{"attributes":{"POSITION":76,"TANGENT":77,"NORMAL":78,"TEXCOORD_0":79},"indices":75,"material":0}],"name":"LS147 & LS148 - Kubit Post Material LS Material [8739192]018"},{"primitives":[{"attributes":{"POSITION":81,"TANGENT":82,"NORMAL":83,"TEXCOORD_0":84},"indices":80,"material":3}],"name":"Infill_Glass_Raked & Horizontal Generic [8738822]"},{"primitives":[{"attributes":{"POSITION":86,"TANGENT":87,"NORMAL":88,"TEXCOORD_0":89},"indices":85,"material":3}],"name":"Infill_Glass_Raked & Horizontal Generic [8739593]"},{"primitives":[{"attributes":{"POSITION":91,"TANGENT":92,"NORMAL":93,"TEXCOORD_0":94},"indices":90,"material":0},{"attributes":{"POSITION":96,"TANGENT":97,"NORMAL":98,"TEXCOORD_0":99},"indices":95,"material":1}],"name":"Object"},{"primitives":[{"attributes":{"POSITION":101,"TANGENT":102,"NORMAL":103,"TEXCOORD_0":104},"indices":100,"material":0},{"attributes":{"POSITION":106,"TANGENT":107,"NORMAL":108,"TEXCOORD_0":109},"indices":105,"material":1}],"name":"Generic Models 11 Generic Models 11 [8762451]005"},{"primitives":[{"attributes":{"POSITION":111,"TANGENT":112,"NORMAL":113,"TEXCOORD_0":114},"indices":110,"material":3}],"name":"Casework 1 Casework 1 [8738332]001"},{"primitives":[{"attributes":{"POSITION":116,"TANGENT":117,"NORMAL":118,"TEXCOORD_0":119},"indices":115,"material":0},{"attributes":{"POSITION":121,"TANGENT":122,"NORMAL":123,"TEXCOORD_0":124},"indices":120,"material":1}],"name":"Generic Models 1 Generic Models 1 [8568048]001"},{"primitives":[{"attributes":{"POSITION":126,"TANGENT":127,"NORMAL":128,"TEXCOORD_0":129},"indices":125,"material":0},{"attributes":{"POSITION":131,"TANGENT":132,"NORMAL":133,"TEXCOORD_0":134},"indices":130,"material":1}],"name":"Object006"},{"primitives":[{"attributes":{"POSITION":136,"TANGENT":137,"NORMAL":138,"TEXCOORD_0":139},"indices":135,"material":3}],"name":"Infill_Glass_Raked & Horizontal Generic [8199751]001"},{"primitives":[{"attributes":{"POSITION":141,"TANGENT":142,"NORMAL":143,"TEXCOORD_0":144},"indices":140,"material":3}],"name":"Infill_Glass_Raked & Horizontal Generic [8737682]001"},{"primitives":[{"attributes":{"POSITION":146,"TANGENT":147,"NORMAL":148,"TEXCOORD_0":149},"indices":145,"material":3}],"name":"Infill_Glass_Raked & Horizontal Generic [8738822]001"},{"primitives":[{"attributes":{"POSITION":151,"TANGENT":152,"NORMAL":153,"TEXCOORD_0":154},"indices":150,"material":3}],"name":"Infill_Glass_Raked & Horizontal Generic [8739593]001"},{"primitives":[{"attributes":{"POSITION":156,"TANGENT":157,"NORMAL":158,"TEXCOORD_0":159},"indices":155,"material":3}],"name":"Infill_Glass_Transition Generic [8202170]001"},{"primitives":[{"attributes":{"POSITION":161,"TANGENT":162,"NORMAL":163,"TEXCOORD_0":164},"indices":160,"material":0},{"attributes":{"POSITION":166,"TANGENT":167,"NORMAL":168,"TEXCOORD_0":169},"indices":165,"material":1}],"name":"KON006 - Lower Panel Clamp Part [8739162]206"},{"primitives":[{"attributes":{"POSITION":171,"TANGENT":172,"NORMAL":173,"TEXCOORD_0":174},"indices":170,"material":2}],"name":"KON021 - Konic Washer Part [8739168]203"},{"primitives":[{"attributes":{"POSITION":176,"TANGENT":177,"NORMAL":178,"TEXCOORD_0":179},"indices":175,"material":0},{"attributes":{"POSITION":181,"TANGENT":182,"NORMAL":183,"TEXCOORD_0":184},"indices":180,"material":1}],"name":"KUB009 - Top Barrel Mount Part [8739165]100"},{"primitives":[{"attributes":{"POSITION":186,"TANGENT":187,"NORMAL":188,"TEXCOORD_0":189},"indices":185,"material":0}],"name":"LS147 & LS148 - Kubit Post Material LS Material [8739192]050"},{"primitives":[{"attributes":{"POSITION":191,"TANGENT":192,"NORMAL":193,"TEXCOORD_0":194},"indices":190,"material":0}],"name":"LS147 & LS148 - Kubit Post Material LS Material [8739192]065"},{"primitives":[{"attributes":{"POSITION":196,"TANGENT":197,"NORMAL":198,"TEXCOORD_0":199},"indices":195,"material":0}],"name":"Object003"},{"primitives":[{"attributes":{"POSITION":201,"TANGENT":202,"NORMAL":203,"TEXCOORD_0":204},"indices":200,"material":0}],"name":"Object013"}],"accessors":[{"bufferView":0,"componentType":5123,"count":1836,"type":"SCALAR","name":"accessorIndices"},{"bufferView":1,"componentType":5126,"count":501,"max":[0.044475403,0.015875,0.015875],"min":[-0.031724602,-0.015875,-0.015875],"type":"VEC3","name":"accessorPositions"},{"bufferView":2,"componentType":5126,"count":501,"type":"VEC4","name":"accessorTangents"},{"bufferView":1,"byteOffset":6012,"componentType":5126,"count":501,"type":"VEC3","name":"accessorNormals"},{"bufferView":3,"componentType":5126,"count":501,"type":"VEC2","name":"accessorUVs"},{"bufferView":0,"byteOffset":3672,"componentType":5123,"count":570,"type":"SCALAR","name":"accessorIndices"},{"bufferView":1,"byteOffset":12024,"componentType":5126,"count":192,"max":[0.044475403,0.015875,0.015875],"min":[-0.031724602,-0.015875,-0.015875],"type":"VEC3","name":"accessorPositions"},{"bufferView":2,"byteOffset":8016,"componentType":5126,"count":192,"type":"VEC4","name":"accessorTangents"},{"bufferView":1,"byteOffset":14328,"componentType":5126,"count":192,"type":"VEC3","name":"accessorNormals"},{"bufferView":3,"byteOffset":4008,"componentType":5126,"count":192,"type":"VEC2","name":"accessorUVs"},{"bufferView":0,"byteOffset":4812,"componentType":5123,"count":864,"type":"SCALAR","name":"accessorIndices"},{"bufferView":1,"byteOffset":16632,"componentType":5126,"count":292,"max":[0.006604,0.015875,0.015875],"min":[-0.022722581,-0.015875,-0.015875],"type":"VEC3","name":"accessorPositions"},{"bufferView":2,"byteOffset":11088,"componentType":5126,"count":292,"type":"VEC4","name":"accessorTangents"},{"bufferView":1,"byteOffset":20136,"componentType":5126,"count":292,"type":"VEC3","name":"accessorNormals"},{"bufferView":3,"byteOffset":5544,"componentType":5126,"count":292,"type":"VEC2","name":"accessorUVs"},{"bufferView":0,"byteOffset":6540,"componentType":5123,"count":858,"type":"SCALAR","name":"accessorIndices"},{"bufferView":1,"byteOffset":23640,"componentType":5126,"count":289,"max":[0.006604,0.015875,0.015875],"min":[-0.022722581,-0.015875,-0.015875],"type":"VEC3","name":"accessorPositions"},{"bufferView":2,"byteOffset":15760,"componentType":5126,"count":289,"type":"VEC4","name":"accessorTangents"},{"bufferView":1,"byteOffset":27108,"componentType":5126,"count":289,"type":"VEC3","name":"accessorNormals"},{"bufferView":3,"byteOffset":7880,"componentType":5126,"count":289,"type":"VEC2","name":"accessorUVs"},{"bufferView":0,"byteOffset":8256,"componentType":5123,"count":1440,"type":"SCALAR","name":"accessorIndices"},{"bufferView":1,"byteOffset":30576,"componentType":5126,"count":484,"max":[0.012700001,0.012700001,0.0015748],"min":[-0.012700001,-0.012700001,8.253881E-15],"type":"VEC3","name":"accessorPositions"},{"bufferView":2,"byteOffset":20384,"componentType":5126,"count":484,"type":"VEC4","name":"accessorTangents"},{"bufferView":1,"byteOffset":36384,"componentType":5126,"count":484,"type":"VEC3","name":"accessorNormals"},{"bufferView":3,"byteOffset":10192,"componentType":5126,"count":484,"type":"VEC2","name":"accessorUVs"},{"bufferView":0,"byteOffset":11136,"componentType":5123,"count":570,"type":"SCALAR","name":"accessorIndices"},{"bufferView":1,"byteOffset":42192,"componentType":5126,"count":189,"max":[0.053975,0.025400002,0.053975],"min":[-0.053975,-3.0953716E-15,-0.053975],"type":"VEC3","name":"accessorPositions"},{"bufferView":2,"byteOffset":28128,"componentType":5126,"count":189,"type":"VEC4","name":"accessorTangents"},{"bufferView":1,"byteOffset":44460,"componentType":5126,"count":189,"type":"VEC3","name":"accessorNormals"},{"bufferView":3,"byteOffset":14064,"componentType":5126,"count":189,"type":"VEC2","name":"accessorUVs"},{"bufferView":0,"byteOffset":12276,"componentType":5123,"count":36,"type":"SCALAR","name":"accessorIndices"},{"bufferView":1,"byteOffset":46728,"componentType":5126,"count":24,"max":[0.5350256,0.025400002,0.0063500004],"min":[6.3589614E-15,-0.025400002,-0.0063500004],"type":"VEC3","name":"accessorPositions"},{"bufferView":2,"byteOffset":31152,"componentType":5126,"count":24,"type":"VEC4","name":"accessorTangents"},{"bufferView":1,"byteOffset":47016,"componentType":5126,"count":24,"type":"VEC3","name":"accessorNormals"},{"bufferView":3,"byteOffset":15576,"componentType":5126,"count":24,"type":"VEC2","name":"accessorUVs"},{"bufferView":0,"byteOffset":12348,"componentType":5123,"count":132,"type":"SCALAR","name":"accessorIndices"},{"bufferView":1,"byteOffset":47304,"componentType":5126,"count":82,"max":[0.67253757,0.76435065,0.0071501],"min":[-0.1888937,-0.7240815,-0.0071501],"type":"VEC3","name":"accessorPositions"},{"bufferView":2,"byteOffset":31536,"componentType":5126,"count":82,"type":"VEC4","name":"accessorTangents"},{"bufferView":1,"byteOffset":48288,"componentType":5126,"count":82,"type":"VEC3","name":"accessorNormals"},{"bufferView":3,"byteOffset":15768,"componentType":5126,"count":82,"type":"VEC2","name":"accessorUVs"},{"bufferView":0,"byteOffset":12612,"componentType":5123,"count":168,"type":"SCALAR","name":"accessorIndices"},{"bufferView":1,"byteOffset":49272,"componentType":5126,"count":109,"max":[0.007149927,0.7168539,0.42416126],"min":[-0.0071505085,-0.7168533,-0.42416126],"type":"VEC3","name":"accessorPositions"},{"bufferView":2,"byteOffset":32848,"componentType":5126,"count":109,"type":"VEC4","name":"accessorTangents"},{"bufferView":1,"byteOffset":50580,"componentType":5126,"count":109,"type":"VEC3","name":"accessorNormals"},{"bufferView":3,"byteOffset":16424,"componentType":5126,"count":109,"type":"VEC2","name":"accessorUVs"},{"bufferView":0,"byteOffset":12948,"componentType":5123,"count":2994,"type":"SCALAR","name":"accessorIndices"},{"bufferView":1,"byteOffset":51888,"componentType":5126,"count":1038,"max":[0.019135969,0.57277405,0.89412946],"min":[-0.019134043,-0.6103752,-0.83940214],"type":"VEC3","name":"accessorPositions"},{"bufferView":2,"byteOffset":34592,"componentType":5126,"count":1038,"type":"VEC4","name":"accessorTangents"},{"bufferView":1,"byteOffset":64344,"componentType":5126,"count":1038,"type":"VEC3","name":"accessorNormals"},{"bufferView":3,"byteOffset":17296,"componentType":5126,"count":1038,"type":"VEC2","name":"accessorUVs"},{"bufferView":0,"byteOffset":18936,"componentType":5123,"count":456,"type":"SCALAR","name":"accessorIndices"},{"bufferView":1,"byteOffset":76800,"componentType":5126,"count":156,"max":[0.019135969,0.57277405,0.89412946],"min":[-0.019127067,-0.6103752,-0.83940214],"type":"VEC3","name":"accessorPositions"},{"bufferView":2,"byteOffset":51200,"componentType":5126,"count":156,"type":"VEC4","name":"accessorTangents"},{"bufferView":1,"byteOffset":78672,"componentType":5126,"count":156,"type":"VEC3","name":"accessorNormals"},{"bufferView":3,"byteOffset":25600,"componentType":5126,"count":156,"type":"VEC2","name":"accessorUVs"},{"bufferView":0,"byteOffset":19848,"componentType":5123,"count":45642,"type":"SCALAR","name":"accessorIndices"},{"bufferView":1,"byteOffset":80544,"componentType":5126,"count":8486,"max":[0.019054433,0.57281196,0.7208086],"min":[-0.019045785,-0.48690864,-0.82204074],"type":"VEC3","name":"accessorPositions"},{"bufferView":2,"byteOffset":53696,"componentType":5126,"count":8486,"type":"VEC4","name":"accessorTangents"},{"bufferView":1,"byteOffset":182376,"componentType":5126,"count":8486,"type":"VEC3","name":"accessorNormals"},{"bufferView":3,"byteOffset":26848,"componentType":5126,"count":8486,"type":"VEC2","name":"accessorUVs"},{"bufferView":0,"byteOffset":111132,"componentType":5123,"count":132,"type":"SCALAR","name":"accessorIndices"},{"bufferView":1,"byteOffset":284208,"componentType":5126,"count":7845,"max":[0.019054433,0.57281196,0.7208086],"min":[-0.019045785,-0.48690864,-0.82204074],"type":"VEC3","name":"accessorPositions"},{"bufferView":2,"byteOffset":189472,"componentType":5126,"count":7845,"type":"VEC4","name":"accessorTangents"},{"bufferView":1,"byteOffset":378348,"componentType":5126,"count":7845,"type":"VEC3","name":"accessorNormals"},{"bufferView":3,"byteOffset":94736,"componentType":5126,"count":7845,"type":"VEC2","name":"accessorUVs"},{"bufferView":0,"byteOffset":111396,"componentType":5123,"count":132,"type":"SCALAR","name":"accessorIndices"},{"bufferView":1,"byteOffset":472488,"componentType":5126,"count":96,"max":[0.40886727,0.3245767,0.0071501],"min":[-0.35996616,-0.52949834,-0.0071501],"type":"VEC3","name":"accessorPositions"},{"bufferView":2,"byteOffset":314992,"componentType":5126,"count":96,"type":"VEC4","name":"accessorTangents"},{"bufferView":1,"byteOffset":473640,"componentType":5126,"count":96,"type":"VEC3","name":"accessorNormals"},{"bufferView":3,"byteOffset":157496,"componentType":5126,"count":96,"type":"VEC2","name":"accessorUVs"},{"bufferView":0,"byteOffset":111660,"componentType":5123,"count":168,"type":"SCALAR","name":"accessorIndices"},{"bufferView":1,"byteOffset":474792,"componentType":5126,"count":99,"max":[0.53302795,0.7945839,0.0071623535],"min":[-0.53302795,-0.7945839,-0.0071623535],"type":"VEC3","name":"accessorPositions"},{"bufferView":2,"byteOffset":316528,"componentType":5126,"count":99,"type":"VEC4","name":"accessorTangents"},{"bufferView":1,"byteOffset":475980,"componentType":5126,"count":99,"type":"VEC3","name":"accessorNormals"},{"bufferView":3,"byteOffset":158264,"componentType":5126,"count":99,"type":"VEC2","name":"accessorUVs"},{"bufferView":0,"byteOffset":111996,"componentType":5123,"count":36,"type":"SCALAR","name":"accessorIndices"},{"bufferView":1,"byteOffset":477168,"componentType":5126,"count":24,"max":[0.45272562,0.025400015,0.0063500004],"min":[6.3589614E-15,-0.025400002,-0.0063500004],"type":"VEC3","name":"accessorPositions"},{"bufferView":2,"byteOffset":318112,"componentType":5126,"count":24,"type":"VEC4","name":"accessorTangents"},{"bufferView":1,"byteOffset":477456,"componentType":5126,"count":24,"type":"VEC3","name":"accessorNormals"},{"bufferView":3,"byteOffset":159056,"componentType":5126,"count":24,"type":"VEC2","name":"accessorUVs"},{"bufferView":0,"byteOffset":112068,"componentType":5123,"count":132,"type":"SCALAR","name":"accessorIndices"},{"bufferView":1,"byteOffset":477744,"componentType":5126,"count":96,"max":[0.70101464,0.3245767,0.0071501],"min":[-0.35996616,-0.52949834,-0.0071501],"type":"VEC3","name":"accessorPositions"},{"bufferView":2,"byteOffset":318496,"componentType":5126,"count":96,"type":"VEC4","name":"accessorTangents"},{"bufferView":1,"byteOffset":478896,"componentType":5126,"count":96,"type":"VEC3","name":"accessorNormals"},{"bufferView":3,"byteOffset":159248,"componentType":5126,"count":96,"type":"VEC2","name":"accessorUVs"},{"bufferView":0,"byteOffset":112332,"componentType":5123,"count":132,"type":"SCALAR","name":"accessorIndices"},{"bufferView":1,"byteOffset":480048,"componentType":5126,"count":82,"max":[0.37704316,0.70856416,0.0071501],"min":[-0.39211252,-0.71716493,-0.0071501],"type":"VEC3","name":"accessorPositions"},{"bufferView":2,"byteOffset":320032,"componentType":5126,"count":82,"type":"VEC4","name":"accessorTangents"},{"bufferView":1,"byteOffset":481032,"componentType":5126,"count":82,"type":"VEC3","name":"accessorNormals"},{"bufferView":3,"byteOffset":160016,"componentType":5126,"count":82,"type":"VEC2","name":"accessorUVs"},{"bufferView":0,"byteOffset":112596,"componentType":5123,"count":23592,"type":"SCALAR","name":"accessorIndices"},{"bufferView":1,"byteOffset":482016,"componentType":5126,"count":4517,"max":[0.39583397,0.010935474,0.5296723],"min":[-1.4910393,-0.7633694,-0.5296722],"type":"VEC3","name":"accessorPositions"},{"bufferView":2,"byteOffset":321344,"componentType":5126,"count":4517,"type":"VEC4","name":"accessorTangents"},{"bufferView":1,"byteOffset":536220,"componentType":5126,"count":4517,"type":"VEC3","name":"accessorNormals"},{"bufferView":3,"byteOffset":160672,"componentType":5126,"count":4517,"type":"VEC2","name":"accessorUVs"},{"bufferView":0,"byteOffset":159780,"componentType":5123,"count":246,"type":"SCALAR","name":"accessorIndices"},{"bufferView":1,"byteOffset":590424,"componentType":5126,"count":84,"max":[0.39583397,0.0109354425,-0.49157217],"min":[0.39583364,-0.035273023,-0.5296722],"type":"VEC3","name":"accessorPositions"},{"bufferView":2,"byteOffset":393616,"componentType":5126,"count":84,"type":"VEC4","name":"accessorTangents"},{"bufferView":1,"byteOffset":591432,"componentType":5126,"count":84,"type":"VEC3","name":"accessorNormals"},{"bufferView":3,"byteOffset":196808,"componentType":5126,"count":84,"type":"VEC2","name":"accessorUVs"},{"bufferView":0,"byteOffset":160272,"componentType":5123,"count":4080,"type":"SCALAR","name":"accessorIndices"},{"bufferView":1,"byteOffset":592440,"componentType":5126,"count":1526,"max":[-0.112981424,-0.056437153,0.019062843],"min":[-0.98222625,-0.6959965,-0.019062744],"type":"VEC3","name":"accessorPositions"},{"bufferView":2,"byteOffset":394960,"componentType":5126,"count":1526,"type":"VEC4","name":"accessorTangents"},{"bufferView":1,"byteOffset":610752,"componentType":5126,"count":1526,"type":"VEC3","name":"accessorNormals"},{"bufferView":3,"byteOffset":197480,"componentType":5126,"count":1526,"type":"VEC2","name":"accessorUVs"},{"bufferView":0,"byteOffset":168432,"componentType":5123,"count":738,"type":"SCALAR","name":"accessorIndices"},{"bufferView":1,"byteOffset":629064,"componentType":5126,"count":252,"max":[-0.112981424,-0.056437153,0.019062843],"min":[-0.98222625,-0.6959965,-0.019062744],"type":"VEC3","name":"accessorPositions"},{"bufferView":2,"byteOffset":419376,"componentType":5126,"count":252,"type":"VEC4","name":"accessorTangents"},{"bufferView":1,"byteOffset":632088,"componentType":5126,"count":252,"type":"VEC3","name":"accessorNormals"},{"bufferView":3,"byteOffset":209688,"componentType":5126,"count":252,"type":"VEC2","name":"accessorUVs"},{"bufferView":0,"byteOffset":169908,"componentType":5123,"count":168,"type":"SCALAR","name":"accessorIndices"},{"bufferView":1,"byteOffset":635112,"componentType":5126,"count":99,"max":[0.007160028,0.7945839,0.53302854],"min":[-0.007164679,-0.7945839,-0.53302765],"type":"VEC3","name":"accessorPositions"},{"bufferView":2,"byteOffset":423408,"componentType":5126,"count":99,"type":"VEC4","name":"accessorTangents"},{"bufferView":1,"byteOffset":636300,"componentType":5126,"count":99,"type":"VEC3","name":"accessorNormals"},{"bufferView":3,"byteOffset":211704,"componentType":5126,"count":99,"type":"VEC2","name":"accessorUVs"},{"bufferView":0,"byteOffset":170244,"componentType":5123,"count":2994,"type":"SCALAR","name":"accessorIndices"},{"bufferView":1,"byteOffset":637488,"componentType":5126,"count":1043,"max":[0.44326597,0.30061945,0.019136041],"min":[-0.44326365,-0.3006193,-0.019133717],"type":"VEC3","name":"accessorPositions"},{"bufferView":2,"byteOffset":424992,"componentType":5126,"count":1043,"type":"VEC4","name":"accessorTangents"},{"bufferView":1,"byteOffset":650004,"componentType":5126,"count":1043,"type":"VEC3","name":"accessorNormals"},{"bufferView":3,"byteOffset":212496,"componentType":5126,"count":1043,"type":"VEC2","name":"accessorUVs"},{"bufferView":0,"byteOffset":176232,"componentType":5123,"count":456,"type":"SCALAR","name":"accessorIndices"},{"bufferView":1,"byteOffset":662520,"componentType":5126,"count":156,"max":[0.44326597,0.30061945,0.019129066],"min":[-0.44326365,-0.30061612,-0.019133717],"type":"VEC3","name":"accessorPositions"},{"bufferView":2,"byteOffset":441680,"componentType":5126,"count":156,"type":"VEC4","name":"accessorTangents"},{"bufferView":1,"byteOffset":664392,"componentType":5126,"count":156,"type":"VEC3","name":"accessorNormals"},{"bufferView":3,"byteOffset":220840,"componentType":5126,"count":156,"type":"VEC2","name":"accessorUVs"},{"bufferView":0,"byteOffset":177144,"componentType":5123,"count":2679,"type":"SCALAR","name":"accessorIndices"},{"bufferView":1,"byteOffset":666264,"componentType":5126,"count":926,"max":[0.036437485,0.5728089,0.019061409],"min":[-0.8287076,-0.028500414,-0.019061845],"type":"VEC3","name":"accessorPositions"},{"bufferView":2,"byteOffset":444176,"componentType":5126,"count":926,"type":"VEC4","name":"accessorTangents"},{"bufferView":1,"byteOffset":677376,"componentType":5126,"count":926,"type":"VEC3","name":"accessorNormals"},{"bufferView":3,"byteOffset":222088,"componentType":5126,"count":926,"type":"VEC2","name":"accessorUVs"},{"bufferView":0,"byteOffset":182504,"componentType":5123,"count":246,"type":"SCALAR","name":"accessorIndices"},{"bufferView":1,"byteOffset":688488,"componentType":5126,"count":84,"max":[0.036437485,0.017726,0.019061409],"min":[0.03643737,-0.028500414,-0.019038592],"type":"VEC3","name":"accessorPositions"},{"bufferView":2,"byteOffset":458992,"componentType":5126,"count":84,"type":"VEC4","name":"accessorTangents"},{"bufferView":1,"byteOffset":689496,"componentType":5126,"count":84,"type":"VEC3","name":"accessorNormals"},{"bufferView":3,"byteOffset":229496,"componentType":5126,"count":84,"type":"VEC2","name":"accessorUVs"},{"bufferView":0,"byteOffset":182996,"componentType":5123,"count":132,"type":"SCALAR","name":"accessorIndices"},{"bufferView":1,"byteOffset":690504,"componentType":5126,"count":82,"max":[0.67253757,0.76435065,0.0071501],"min":[-0.1888937,-0.7240815,-0.0071501],"type":"VEC3","name":"accessorPositions"},{"bufferView":2,"byteOffset":460336,"componentType":5126,"count":82,"type":"VEC4","name":"accessorTangents"},{"bufferView":1,"byteOffset":691488,"componentType":5126,"count":82,"type":"VEC3","name":"accessorNormals"},{"bufferView":3,"byteOffset":230168,"componentType":5126,"count":82,"type":"VEC2","name":"accessorUVs"},{"bufferView":0,"byteOffset":183260,"componentType":5123,"count":132,"type":"SCALAR","name":"accessorIndices"},{"bufferView":1,"byteOffset":692472,"componentType":5126,"count":96,"max":[0.40886727,0.3245767,0.0071501],"min":[-0.35996616,-0.52949834,-0.0071501],"type":"VEC3","name":"accessorPositions"},{"bufferView":2,"byteOffset":461648,"componentType":5126,"count":96,"type":"VEC4","name":"accessorTangents"},{"bufferView":1,"byteOffset":693624,"componentType":5126,"count":96,"type":"VEC3","name":"accessorNormals"},{"bufferView":3,"byteOffset":230824,"componentType":5126,"count":96,"type":"VEC2","name":"accessorUVs"},{"bufferView":0,"byteOffset":183524,"componentType":5123,"count":132,"type":"SCALAR","name":"accessorIndices"},{"bufferView":1,"byteOffset":694776,"componentType":5126,"count":96,"max":[0.70101464,0.3245767,0.0071501],"min":[-0.35996616,-0.52949834,-0.0071501],"type":"VEC3","name":"accessorPositions"},{"bufferView":2,"byteOffset":463184,"componentType":5126,"count":96,"type":"VEC4","name":"accessorTangents"},{"bufferView":1,"byteOffset":695928,"componentType":5126,"count":96,"type":"VEC3","name":"accessorNormals"},{"bufferView":3,"byteOffset":231592,"componentType":5126,"count":96,"type":"VEC2","name":"accessorUVs"},{"bufferView":0,"byteOffset":183788,"componentType":5123,"count":132,"type":"SCALAR","name":"accessorIndices"},{"bufferView":1,"byteOffset":697080,"componentType":5126,"count":82,"max":[0.37704316,0.70856416,0.0071501],"min":[-0.39211252,-0.71716493,-0.0071501],"type":"VEC3","name":"accessorPositions"},{"bufferView":2,"byteOffset":464720,"componentType":5126,"count":82,"type":"VEC4","name":"accessorTangents"},{"bufferView":1,"byteOffset":698064,"componentType":5126,"count":82,"type":"VEC3","name":"accessorNormals"},{"bufferView":3,"byteOffset":232360,"componentType":5126,"count":82,"type":"VEC2","name":"accessorUVs"},{"bufferView":0,"byteOffset":184052,"componentType":5123,"count":168,"type":"SCALAR","name":"accessorIndices"},{"bufferView":1,"byteOffset":699048,"componentType":5126,"count":109,"max":[0.77951753,0.0071501,1.4337071],"min":[-0.068804964,-0.0071501024,-0.0],"type":"VEC3","name":"accessorPositions"},{"bufferView":2,"byteOffset":466032,"componentType":5126,"count":109,"type":"VEC4","name":"accessorTangents"},{"bufferView":1,"byteOffset":700356,"componentType":5126,"count":109,"type":"VEC3","name":"accessorNormals"},{"bufferView":3,"byteOffset":233016,"componentType":5126,"count":109,"type":"VEC2","name":"accessorUVs"},{"bufferView":0,"byteOffset":184388,"componentType":5123,"count":864,"type":"SCALAR","name":"accessorIndices"},{"bufferView":1,"byteOffset":701664,"componentType":5126,"count":292,"max":[0.006604,0.015875,0.015875],"min":[-0.022722581,-0.015875,-0.015875],"type":"VEC3","name":"accessorPositions"},{"bufferView":2,"byteOffset":467776,"componentType":5126,"count":292,"type":"VEC4","name":"accessorTangents"},{"bufferView":1,"byteOffset":705168,"componentType":5126,"count":292,"type":"VEC3","name":"accessorNormals"},{"bufferView":3,"byteOffset":233888,"componentType":5126,"count":292,"type":"VEC2","name":"accessorUVs"},{"bufferView":0,"byteOffset":186116,"componentType":5123,"count":858,"type":"SCALAR","name":"accessorIndices"},{"bufferView":1,"byteOffset":708672,"componentType":5126,"count":289,"max":[0.006604,0.015875,0.015875],"min":[-0.022722581,-0.015875,-0.015875],"type":"VEC3","name":"accessorPositions"},{"bufferView":2,"byteOffset":472448,"componentType":5126,"count":289,"type":"VEC4","name":"accessorTangents"},{"bufferView":1,"byteOffset":712140,"componentType":5126,"count":289,"type":"VEC3","name":"accessorNormals"},{"bufferView":3,"byteOffset":236224,"componentType":5126,"count":289,"type":"VEC2","name":"accessorUVs"},{"bufferView":0,"byteOffset":187832,"componentType":5123,"count":1440,"type":"SCALAR","name":"accessorIndices"},{"bufferView":1,"byteOffset":715608,"componentType":5126,"count":484,"max":[0.012700001,0.012700001,0.0015748],"min":[-0.012700001,-0.012700001,8.253881E-15],"type":"VEC3","name":"accessorPositions"},{"bufferView":2,"byteOffset":477072,"componentType":5126,"count":484,"type":"VEC4","name":"accessorTangents"},{"bufferView":1,"byteOffset":721416,"componentType":5126,"count":484,"type":"VEC3","name":"accessorNormals"},{"bufferView":3,"byteOffset":238536,"componentType":5126,"count":484,"type":"VEC2","name":"accessorUVs"},{"bufferView":0,"byteOffset":190712,"componentType":5123,"count":1836,"type":"SCALAR","name":"accessorIndices"},{"bufferView":1,"byteOffset":727224,"componentType":5126,"count":501,"max":[0.044475403,0.015875,0.015875],"min":[-0.031724602,-0.015875,-0.015875],"type":"VEC3","name":"accessorPositions"},{"bufferView":2,"byteOffset":484816,"componentType":5126,"count":501,"type":"VEC4","name":"accessorTangents"},{"bufferView":1,"byteOffset":733236,"componentType":5126,"count":501,"type":"VEC3","name":"accessorNormals"},{"bufferView":3,"byteOffset":242408,"componentType":5126,"count":501,"type":"VEC2","name":"accessorUVs"},{"bufferView":0,"byteOffset":194384,"componentType":5123,"count":570,"type":"SCALAR","name":"accessorIndices"},{"bufferView":1,"byteOffset":739248,"componentType":5126,"count":192,"max":[0.044475403,0.015875,0.015875],"min":[-0.031724602,-0.015875,-0.015875],"type":"VEC3","name":"accessorPositions"},{"bufferView":2,"byteOffset":492832,"componentType":5126,"count":192,"type":"VEC4","name":"accessorTangents"},{"bufferView":1,"byteOffset":741552,"componentType":5126,"count":192,"type":"VEC3","name":"accessorNormals"},{"bufferView":3,"byteOffset":246416,"componentType":5126,"count":192,"type":"VEC2","name":"accessorUVs"},{"bufferView":0,"byteOffset":195524,"componentType":5123,"count":36,"type":"SCALAR","name":"accessorIndices"},{"bufferView":1,"byteOffset":743856,"componentType":5126,"count":24,"max":[0.5350256,0.025400002,0.0063500004],"min":[6.3589614E-15,-0.025400002,-0.0063500004],"type":"VEC3","name":"accessorPositions"},{"bufferView":2,"byteOffset":495904,"componentType":5126,"count":24,"type":"VEC4","name":"accessorTangents"},{"bufferView":1,"byteOffset":744144,"componentType":5126,"count":24,"type":"VEC3","name":"accessorNormals"},{"bufferView":3,"byteOffset":247952,"componentType":5126,"count":24,"type":"VEC2","name":"accessorUVs"},{"bufferView":0,"byteOffset":195596,"componentType":5123,"count":36,"type":"SCALAR","name":"accessorIndices"},{"bufferView":1,"byteOffset":744432,"componentType":5126,"count":24,"max":[0.45272562,0.025400015,0.0063500004],"min":[6.3589614E-15,-0.025400002,-0.0063500004],"type":"VEC3","name":"accessorPositions"},{"bufferView":2,"byteOffset":496288,"componentType":5126,"count":24,"type":"VEC4","name":"accessorTangents"},{"bufferView":1,"byteOffset":744720,"componentType":5126,"count":24,"type":"VEC3","name":"accessorNormals"},{"bufferView":3,"byteOffset":248144,"componentType":5126,"count":24,"type":"VEC2","name":"accessorUVs"},{"bufferView":0,"byteOffset":195668,"componentType":5123,"count":33444,"type":"SCALAR","name":"accessorIndices"},{"bufferView":1,"byteOffset":745008,"componentType":5126,"count":6765,"max":[0.5296706,-0.72898805,1.4910585],"min":[-0.52966243,-0.7625488,1.163663],"type":"VEC3","name":"accessorPositions"},{"bufferView":2,"byteOffset":496672,"componentType":5126,"count":6765,"type":"VEC4","name":"accessorTangents"},{"bufferView":1,"byteOffset":826188,"componentType":5126,"count":6765,"type":"VEC3","name":"accessorNormals"},{"bufferView":3,"byteOffset":248336,"componentType":5126,"count":6765,"type":"VEC2","name":"accessorUVs"},{"bufferView":0,"byteOffset":262556,"componentType":5123,"count":2064,"type":"SCALAR","name":"accessorIndices"},{"bufferView":1,"byteOffset":907368,"componentType":5126,"count":724,"max":[0.019054687,-0.10462099,0.80214816],"min":[-0.019041477,-0.38715136,-0.05929453],"type":"VEC3","name":"accessorPositions"},{"bufferView":2,"byteOffset":604912,"componentType":5126,"count":724,"type":"VEC4","name":"accessorTangents"},{"bufferView":1,"byteOffset":916056,"componentType":5126,"count":724,"type":"VEC3","name":"accessorNormals"},{"bufferView":3,"byteOffset":302456,"componentType":5126,"count":724,"type":"VEC2","name":"accessorUVs"}],"bufferViews":[{"buffer":0,"byteLength":266684,"name":"bufferViewScalar"},{"buffer":0,"byteOffset":266684,"byteLength":924744,"byteStride":12,"name":"bufferViewFloatVec3"},{"buffer":0,"byteOffset":1191428,"byteLength":616496,"byteStride":16,"name":"bufferViewFloatVec4"},{"buffer":0,"byteOffset":1807924,"byteLength":308248,"byteStride":8,"name":"bufferViewFloatVec2"}],"buffers":[{"uri":"U-Shaped_Railing_Lo-Post_Flatbar.bin","byteLength":2116172}],"materials":[{"pbrMetallicRoughness":{"baseColorFactor":[0.9999998,0.9999999,0.9999999,1.0],"baseColorTexture":{"index":0,"extensions":{"KHR_texture_transform":{"offset":[0.19519997,0.8048],"rotation":1.5707964,"scale":[0.6096,0.6096],"texCoord":0}}},"roughnessFactor":0.2,"metallicRoughnessTexture":{"index":0,"extensions":{"KHR_texture_transform":{"offset":[0.19519997,0.8048],"rotation":1.5707964,"scale":[0.6096,0.6096],"texCoord":0}}}},"name":"Steel_Linear"},{"pbrMetallicRoughness":{"baseColorFactor":[0.9999998,0.9999999,0.9999999,1.0],"baseColorTexture":{"index":1},"roughnessFactor":0.2,"metallicRoughnessTexture":{"index":1}},"name":"Steel_Radial"},{"pbrMetallicRoughness":{"baseColorFactor":[0.10641303,0.10641304,0.10641304,1.0],"metallicFactor":0.0,"roughnessFactor":0.99,"metallicRoughnessTexture":{"index":2}},"name":"Rubber","extensions":{"KHR_materials_specular":{"specularFactor":0.1}}},{"pbrMetallicRoughness":{"baseColorFactor":[0.9999998,0.9999999,0.9999999,1.0],"metallicFactor":0.0,"roughnessFactor":0.1},"name":"Glass","extensions":{"KHR_materials_ior":{"ior":1.0},"KHR_materials_transmission":{"transmissionFactor":0.97},"KHR_materials_volume":{"thicknessFactor":0.56,"attenuationDistance":0.5,"attenuationColor":[0.49521634,0.56476736,0.5317566]}}}],"textures":[{"sampler":0,"source":0,"name":"Metal_Brushed_Linear_4k.jpg"},{"sampler":0,"source":1,"name":"Metal_Brushed_Radial_4k.jpg"},{"sampler":0,"source":2,"name":"PowderCoat_Roughness_2k0.jpg"}],"images":[{"uri":"textures/Metal_Brushed_Linear_4k.jpg"},{"uri":"textures/Metal_Brushed_Radial_4k.jpg"},{"uri":"textures/PowderCoat_Roughness_2k0.jpg"}],"samplers":[{"magFilter":9729,"minFilter":9987}]}