{"asset":{"version":"2.0","generator":"babylon.js glTF exporter for 3dsmax 2026 v20251111.2"},"extensionsUsed":["KHR_materials_ior","KHR_materials_transmission","KHR_materials_volume","KHR_texture_transform","KHR_materials_specular"],"extensionsRequired":["KHR_texture_transform"],"scene":0,"scenes":[{"nodes":[0,1,2,3,4,5,6,7,8,9,10,11,12,13,14,15,16,17,18,19,20,21,22,23,24,25,26,27,28,29,30,31,32,33,34,35,36,37,38,39,40,41,42,43,44,45,46,47,48,49,50,51,52,53,54,55,56,57,58,59,60,61,62,63,64,65,66,67,68,69,70,71,72,73,74,75,76,77,78,79,80,81,82,83,84,85,86,87,88,89,90,91,92,93,94,95,96,97,98,99,100,101,102,103,104,105,106,107,108,109,110,111,112,113,114,115,116,117,118,119,120,121,122,123,124,125,126,127,128,129,130,131,132,133,134,135,136,137,138,139,140,141,142,143,144,145,146,147,148,149,150,151,152,153,154,155,156,157,158,159,160,161,162,163,164,165,166,167,168,169,170,171,172,173,174,175,176,177,178,179,180,181,182,183,184,185,186,187,188,189,190,191,192,193,194,195,196,197,198,199,200,201,202,203,204,205,206,207,208,209,210,211,212,213,214,215,216,217,218,219,220,221,222,223,224,225,226,227,228,229,230,231,232,233,234,235,236,237,238,239,240,241,242,243,244,245,246,247,248,249,250,251,252,253,254,255,256,257,258,259,260,261]}],"nodes":[{"mesh":0,"translation":[0.8829833,2.8968084,-0.076767445],"name":"Infill_Glass_Raked & Horizontal Generic [8199751]"},{"mesh":1,"translation":[0.6395117,2.209226,0.4102712],"name":"Infill_Glass_Transition Generic [8202170]"},{"mesh":2,"translation":[0.63959336,2.3637831,0.8204894],"name":"Generic Models 1 Generic Models 1 [8568048]"},{"mesh":3,"translation":[-0.30818832,2.3637452,0.8378442],"name":"Generic Models 10 Generic Models 1 [8735975]"},{"mesh":4,"translation":[0.067898184,2.601503,-1.0244794],"rotation":[-0.0,3.133859E-15,0.0,1.0],"name":"Infill_Glass_Raked & Horizontal Generic [8737682]"},{"mesh":5,"translation":[1.022491,2.8665884,-1.0244794],"name":"Casework 1 Casework 1 [8738332]"},{"mesh":6,"translation":[-0.30819747,2.601503,-0.64838374],"rotation":[-0.0,-0.7071068,0.0,0.7071067],"name":"Infill_Glass_Raked & Horizontal Generic [8738822]"},{"mesh":7,"translation":[-0.30820024,2.2095554,0.44231918],"rotation":[-0.0,0.7071068,0.0,0.7071068],"name":"Infill_Glass_Raked & Horizontal Generic [8739593]"},{"mesh":8,"translation":[-0.3010495,2.1990044,-0.074374564],"rotation":[-0.0,-0.7071066,0.0,0.70710695],"name":"KON021 - Konic Washer Part [9193945]050"},{"mesh":8,"translation":[-0.31535095,2.1990044,-0.074374564],"rotation":[-0.0,0.7071068,0.0,0.7071067],"name":"KON021A - Adhesive Konic Washer Part [9193800]050"},{"mesh":8,"translation":[-0.3010495,2.4530046,-0.074374564],"rotation":[-0.0,-0.7071066,0.0,0.70710695],"name":"KON021 - Konic Washer Part [9193945]049"},{"mesh":8,"translation":[-0.31535095,2.4530046,-0.074374564],"rotation":[-0.0,0.7071068,0.0,0.7071067],"name":"KON021A - Adhesive Konic Washer Part [9193800]049"},{"mesh":8,"translation":[-0.30105385,2.1990044,-0.88134855],"rotation":[-0.0,-0.7071068,0.0,0.7071068],"name":"KON021 - Konic Washer Part [9193945]040"},{"mesh":8,"translation":[-0.31535068,2.1990044,-0.88134855],"rotation":[-0.0,0.7071067,0.0,0.7071068],"name":"KON021A - Adhesive Konic Washer Part [9193800]040"},{"mesh":8,"translation":[-0.30105385,2.4530046,-0.88134855],"rotation":[-0.0,-0.7071068,0.0,0.7071068],"name":"KON021 - Konic Washer Part [9193945]039"},{"mesh":8,"translation":[-0.31535068,2.4530046,-0.88134855],"rotation":[-0.0,0.7071067,0.0,0.7071068],"name":"KON021A - Adhesive Konic Washer Part [9193800]039"},{"mesh":8,"translation":[-0.16507147,2.1990044,-1.0173309],"rotation":[-0.0,-1.0,0.0,-2.8212997E-07],"name":"KON021 - Konic Washer Part [9193945]038"},{"mesh":8,"translation":[-0.16507147,2.1990044,-1.0316278],"name":"KON021A - Adhesive Konic Washer Part [9193800]038"},{"mesh":8,"translation":[-0.16507147,2.4530046,-1.0173309],"rotation":[-0.0,-1.0,0.0,-2.8212997E-07],"name":"KON021 - Konic Washer Part [9193945]037"},{"mesh":8,"translation":[-0.16507147,2.4530046,-1.0316278],"name":"KON021A - Adhesive Konic Washer Part [9193800]037"},{"mesh":8,"translation":[0.34976223,2.1990044,-1.0173309],"rotation":[-0.0,-1.0,0.0,4.371139E-08],"name":"KON021 - Konic Washer Part [9193945]036"},{"mesh":8,"translation":[0.34976223,2.1990044,-1.0316278],"rotation":[-0.0,-2.3841858E-07,0.0,1.0],"name":"KON021A - Adhesive Konic Washer Part [9193800]036"},{"mesh":8,"translation":[0.34976223,2.4530046,-1.0173309],"rotation":[-0.0,-1.0,0.0,4.371139E-08],"name":"KON021 - Konic Washer Part [9193945]035"},{"mesh":8,"translation":[0.34976223,2.4530046,-1.0316278],"rotation":[-0.0,-2.3841858E-07,0.0,1.0],"name":"KON021A - Adhesive Konic Washer Part [9193800]035"},{"mesh":8,"translation":[0.61646223,2.281351,-1.0173309],"rotation":[-0.0,-1.0,0.0,4.371139E-08],"name":"KON021 - Konic Washer Part [9193945]034"},{"mesh":8,"translation":[0.61646223,2.281351,-1.0316278],"rotation":[-0.0,-2.3841858E-07,0.0,1.0],"name":"KON021A - Adhesive Konic Washer Part [9193800]034"},{"mesh":8,"translation":[0.61646223,2.5353513,-1.0173309],"rotation":[-0.0,-1.0,0.0,4.371139E-08],"name":"KON021 - Konic Washer Part [9193945]033"},{"mesh":8,"translation":[0.61646223,2.5353513,-1.0316278],"rotation":[-0.0,-2.3841858E-07,0.0,1.0],"name":"KON021A - Adhesive Konic Washer Part [9193800]033"},{"mesh":8,"translation":[1.4286326,2.8299918,-1.0173309],"rotation":[-0.0,-1.0,0.0,4.371139E-08],"name":"KON021 - Konic Washer Part [9193945]032"},{"mesh":8,"translation":[1.4286326,2.8299918,-1.0316278],"rotation":[-0.0,-2.3841858E-07,0.0,1.0],"name":"KON021A - Adhesive Konic Washer Part [9193800]032"},{"mesh":8,"translation":[1.4286326,3.0839915,-1.0173309],"rotation":[-0.0,-1.0,0.0,4.371139E-08],"name":"KON021 - Konic Washer Part [9193945]031"},{"mesh":8,"translation":[1.4286326,3.0839915,-1.0316278],"rotation":[-0.0,-2.3841858E-07,0.0,1.0],"name":"KON021A - Adhesive Konic Washer Part [9193800]031"},{"mesh":8,"translation":[-0.3010495,1.5498313,0.9735472],"rotation":[-0.0,-0.7071068,0.0,0.7071067],"name":"KON021 - Konic Washer Part [9193945]024"},{"mesh":8,"translation":[-0.31535095,1.5498313,0.9735472],"rotation":[-0.0,0.7071066,0.0,0.70710695],"name":"KON021A - Adhesive Konic Washer Part [9193800]024"},{"mesh":8,"translation":[-0.3010495,1.8038315,0.9735472],"rotation":[-0.0,-0.7071068,0.0,0.7071067],"name":"KON021 - Konic Washer Part [9193945]023"},{"mesh":8,"translation":[-0.31535095,1.8038315,0.9735472],"rotation":[-0.0,0.7071066,0.0,0.70710695],"name":"KON021A - Adhesive Konic Washer Part [9193800]023"},{"mesh":8,"translation":[-0.3010495,1.7327114,0.70801455],"rotation":[-0.0,-0.7071068,0.0,0.7071067],"name":"KON021 - Konic Washer Part [9193945]022"},{"mesh":8,"translation":[-0.31535095,1.7327114,0.70801455],"rotation":[-0.0,0.7071066,0.0,0.70710695],"name":"KON021A - Adhesive Konic Washer Part [9193800]022"},{"mesh":8,"translation":[-0.3010495,1.9867116,0.70801455],"rotation":[-0.0,-0.7071068,0.0,0.7071067],"name":"KON021 - Konic Washer Part [9193945]021"},{"mesh":8,"translation":[-0.31535095,1.9867116,0.70801455],"rotation":[-0.0,0.7071066,0.0,0.70710695],"name":"KON021A - Adhesive Konic Washer Part [9193800]021"},{"mesh":8,"translation":[-0.3010495,2.0984716,0.17503314],"rotation":[-0.0,-0.7071068,0.0,0.7071067],"name":"KON021 - Konic Washer Part [9193945]020"},{"mesh":8,"translation":[-0.31535095,2.0984716,0.17503314],"rotation":[-0.0,0.7071066,0.0,0.70710695],"name":"KON021A - Adhesive Konic Washer Part [9193800]020"},{"mesh":8,"translation":[-0.3010495,2.3524714,0.17503314],"rotation":[-0.0,-0.7071068,0.0,0.7071067],"name":"KON021 - Konic Washer Part [9193945]019"},{"mesh":8,"translation":[-0.31535095,2.3524714,0.17503314],"rotation":[-0.0,0.7071066,0.0,0.70710695],"name":"KON021A - Adhesive Konic Washer Part [9193800]019"},{"mesh":8,"translation":[0.6323633,1.5498313,0.9735472],"rotation":[-0.0,0.7071068,0.0,0.7071067],"name":"KON021 - Konic Washer Part [9193945]016"},{"mesh":8,"translation":[0.6466601,1.5498313,0.9735472],"rotation":[-0.0,-0.70710695,0.0,0.7071066],"name":"KON021A - Adhesive Konic Washer Part [9193800]016"},{"mesh":8,"translation":[0.6323633,1.8038315,0.9735472],"rotation":[-0.0,0.7071068,0.0,0.7071067],"name":"KON021 - Konic Washer Part [9193945]015"},{"mesh":8,"translation":[0.6466601,1.8038315,0.9735472],"rotation":[-0.0,-0.70710695,0.0,0.7071066],"name":"KON021A - Adhesive Konic Washer Part [9193800]015"},{"mesh":8,"translation":[0.6323633,1.7327114,0.70801455],"rotation":[-0.0,0.7071068,0.0,0.7071067],"name":"KON021 - Konic Washer Part [9193945]014"},{"mesh":8,"translation":[0.6466601,1.7327114,0.70801455],"rotation":[-0.0,-0.70710695,0.0,0.7071066],"name":"KON021A - Adhesive Konic Washer Part [9193800]014"},{"mesh":8,"translation":[0.6323633,1.9867116,0.70801455],"rotation":[-0.0,0.7071068,0.0,0.7071067],"name":"KON021 - Konic Washer Part [9193945]013"},{"mesh":8,"translation":[0.6466601,1.9867116,0.70801455],"rotation":[-0.0,-0.70710695,0.0,0.7071066],"name":"KON021A - Adhesive Konic Washer Part [9193800]013"},{"mesh":8,"translation":[1.4286326,2.8299918,-0.08391813],"rotation":[-0.0,4.524159E-15,0.0,1.0],"name":"KON021 - Konic Washer Part [9193945]010"},{"mesh":8,"translation":[1.4286326,2.8299918,-0.06961668],"rotation":[-0.0,-1.0,0.0,2.8212997E-07],"name":"KON021A - Adhesive Konic Washer Part [9193800]010"},{"mesh":8,"translation":[1.4286326,3.0839915,-0.08391813],"rotation":[-0.0,4.524159E-15,0.0,1.0],"name":"KON021 - Konic Washer Part [9193945]009"},{"mesh":8,"translation":[1.4286326,3.0839915,-0.06961668],"rotation":[-0.0,-1.0,0.0,2.8212997E-07],"name":"KON021A - Adhesive Konic Washer Part [9193800]009"},{"mesh":8,"translation":[0.8471336,2.4642315,-0.08391813],"rotation":[-0.0,4.524159E-15,0.0,1.0],"name":"KON021 - Konic Washer Part [9193945]004"},{"mesh":8,"translation":[0.8471336,2.4642315,-0.06961668],"rotation":[-0.0,-1.0,0.0,2.8212997E-07],"name":"KON021A - Adhesive Konic Washer Part [9193800]004"},{"mesh":8,"translation":[0.8471336,2.7182312,-0.08391813],"rotation":[-0.0,4.524159E-15,0.0,1.0],"name":"KON021 - Konic Washer Part [9193945]003"},{"mesh":8,"translation":[0.8471336,2.7182312,-0.06961668],"rotation":[-0.0,-1.0,0.0,2.8212997E-07],"name":"KON021A - Adhesive Konic Washer Part [9193800]003"},{"mesh":8,"translation":[0.6323488,2.3524714,0.1385099],"rotation":[-0.0,0.7071068,0.0,0.7071068],"name":"KON021 - Konic Washer Part [9193945]103"},{"mesh":8,"translation":[0.6323488,2.0984716,0.1385099],"rotation":[-0.0,0.7071068,0.0,0.7071068],"name":"KON021 - Konic Washer Part [9193945]104"},{"mesh":8,"translation":[0.6466502,2.3524714,0.1385099],"rotation":[-0.0,-0.7071069,0.0,0.70710665],"name":"KON021A - Adhesive Konic Washer Part [9193800]103"},{"mesh":8,"translation":[0.6466502,2.0984716,0.1385099],"rotation":[-0.0,-0.7071069,0.0,0.70710665],"name":"KON021A - Adhesive Konic Washer Part [9193800]104"},{"mesh":9,"translation":[-0.29947752,2.1990044,-0.074374564],"name":"KON006 - Lower Panel Clamp Part [8739162]099"},{"mesh":9,"translation":[-0.29947752,2.4530046,-0.074374564],"name":"KON006 - Lower Panel Clamp Part [8739162]098"},{"mesh":9,"translation":[-0.29947257,2.1990044,-0.88134855],"name":"KON006 - Lower Panel Clamp Part [8739162]089"},{"mesh":9,"translation":[-0.29947257,2.4530046,-0.88134855],"name":"KON006 - Lower Panel Clamp Part [8739162]088"},{"mesh":9,"translation":[-0.16507147,2.1990044,-1.0157543],"rotation":[-0.0,-0.7071068,0.0,0.7071067],"name":"KON006 - Lower Panel Clamp Part [8739162]087"},{"mesh":9,"translation":[-0.16507147,2.4530046,-1.0157543],"rotation":[-0.0,-0.7071068,0.0,0.7071067],"name":"KON006 - Lower Panel Clamp Part [8739162]086"},{"mesh":9,"translation":[0.34976223,2.1990044,-1.0157543],"rotation":[-0.0,-0.7071068,0.0,0.7071067],"name":"KON006 - Lower Panel Clamp Part [8739162]085"},{"mesh":9,"translation":[0.34976223,2.4530046,-1.0157543],"rotation":[-0.0,-0.7071068,0.0,0.7071067],"name":"KON006 - Lower Panel Clamp Part [8739162]084"},{"mesh":9,"translation":[0.61646223,2.281351,-1.0157543],"rotation":[-0.0,-0.7071068,0.0,0.7071067],"name":"KON006 - Lower Panel Clamp Part [8739162]083"},{"mesh":9,"translation":[0.61646223,2.5353513,-1.0157543],"rotation":[-0.0,-0.7071068,0.0,0.7071067],"name":"KON006 - Lower Panel Clamp Part [8739162]082"},{"mesh":9,"translation":[1.4286326,2.8299918,-1.0157543],"rotation":[-0.0,-0.7071068,0.0,0.7071067],"name":"KON006 - Lower Panel Clamp Part [8739162]081"},{"mesh":9,"translation":[1.4286326,3.0839915,-1.0157543],"rotation":[-0.0,-0.7071068,0.0,0.7071067],"name":"KON006 - Lower Panel Clamp Part [8739162]080"},{"mesh":9,"translation":[-0.29947752,1.5498313,0.9735472],"name":"KON006 - Lower Panel Clamp Part [8739162]073"},{"mesh":9,"translation":[-0.29947752,1.8038315,0.9735472],"name":"KON006 - Lower Panel Clamp Part [8739162]072"},{"mesh":9,"translation":[-0.29947752,1.7327114,0.70801455],"name":"KON006 - Lower Panel Clamp Part [8739162]071"},{"mesh":9,"translation":[-0.29947752,1.9867116,0.70801455],"name":"KON006 - Lower Panel Clamp Part [8739162]070"},{"mesh":9,"translation":[-0.29947752,2.0984716,0.17503314],"name":"KON006 - Lower Panel Clamp Part [8739162]069"},{"mesh":9,"translation":[-0.29947752,2.3524714,0.17503314],"name":"KON006 - Lower Panel Clamp Part [8739162]068"},{"mesh":9,"translation":[0.63078666,1.5498313,0.9735472],"rotation":[-0.0,-1.0,0.0,-1.6292068E-07],"name":"KON006 - Lower Panel Clamp Part [8739162]065"},{"mesh":9,"translation":[0.63078666,1.8038315,0.9735472],"rotation":[-0.0,-1.0,0.0,-1.6292068E-07],"name":"KON006 - Lower Panel Clamp Part [8739162]064"},{"mesh":9,"translation":[0.63078666,1.7327114,0.70801455],"rotation":[-0.0,-1.0,0.0,-1.6292068E-07],"name":"KON006 - Lower Panel Clamp Part [8739162]063"},{"mesh":9,"translation":[0.63078666,1.9867116,0.70801455],"rotation":[-0.0,-1.0,0.0,-1.6292068E-07],"name":"KON006 - Lower Panel Clamp Part [8739162]062"},{"mesh":9,"translation":[1.4286326,2.8299918,-0.08549013],"rotation":[-0.0,0.7071068,0.0,0.7071067],"name":"KON006 - Lower Panel Clamp Part [8739162]059"},{"mesh":9,"translation":[1.4286326,3.0839915,-0.08549013],"rotation":[-0.0,0.7071068,0.0,0.7071067],"name":"KON006 - Lower Panel Clamp Part [8739162]058"},{"mesh":9,"translation":[0.8471336,2.4642315,-0.08549013],"rotation":[-0.0,0.7071068,0.0,0.7071067],"name":"KON006 - Lower Panel Clamp Part [8739162]053"},{"mesh":9,"translation":[0.8471336,2.7182312,-0.08549013],"rotation":[-0.0,0.7071068,0.0,0.7071067],"name":"KON006 - Lower Panel Clamp Part [8739162]052"},{"mesh":9,"translation":[0.63077676,2.3524714,0.1385099],"rotation":[-0.0,-1.0,0.0,-4.371139E-08],"name":"KON006 - Lower Panel Clamp Part [8739162]204"},{"mesh":9,"translation":[0.63077676,2.0984716,0.1385099],"rotation":[-0.0,-1.0,0.0,-4.371139E-08],"name":"KON006 - Lower Panel Clamp Part [8739162]205"},{"mesh":10,"translation":[-0.36457586,2.4530046,-0.074374564],"name":"KON002 - Barrel Mount Part [9048960]025"},{"mesh":10,"translation":[-0.36457556,2.4530046,-0.88134855],"name":"KON002 - Barrel Mount Part [9048960]020"},{"mesh":10,"translation":[-0.16507147,2.4530046,-1.0808526],"rotation":[-0.0,-0.7071068,0.0,0.7071067],"name":"KON002 - Barrel Mount Part [9048960]019"},{"mesh":10,"translation":[0.34976223,2.4530046,-1.0808526],"rotation":[-0.0,-0.7071068,0.0,0.7071067],"name":"KON002 - Barrel Mount Part [9048960]018"},{"mesh":10,"translation":[0.61646223,2.5353513,-1.0808526],"rotation":[-0.0,-0.7071068,0.0,0.7071067],"name":"KON002 - Barrel Mount Part [9048960]017"},{"mesh":10,"translation":[1.4286326,3.0839915,-1.0808526],"rotation":[-0.0,-0.7071068,0.0,0.7071067],"name":"KON002 - Barrel Mount Part [9048960]016"},{"mesh":10,"translation":[-0.36457586,1.8038315,0.9735472],"name":"KON002 - Barrel Mount Part [9048960]012"},{"mesh":10,"translation":[-0.36457586,1.9867116,0.70801455],"name":"KON002 - Barrel Mount Part [9048960]011"},{"mesh":10,"translation":[-0.36457586,2.3524714,0.17503314],"name":"KON002 - Barrel Mount Part [9048960]010"},{"mesh":10,"translation":[0.695885,1.8038315,0.9735472],"rotation":[-0.0,-1.0,0.0,-1.6292068E-07],"name":"KON002 - Barrel Mount Part [9048960]008"},{"mesh":10,"translation":[0.695885,1.9867116,0.70801455],"rotation":[-0.0,-1.0,0.0,-1.6292068E-07],"name":"KON002 - Barrel Mount Part [9048960]007"},{"mesh":10,"translation":[1.4286326,3.0839915,-0.020391779],"rotation":[-0.0,0.7071068,0.0,0.7071067],"name":"KON002 - Barrel Mount Part [9048960]005"},{"mesh":10,"translation":[0.8471336,2.7182312,-0.020391779],"rotation":[-0.0,0.7071068,0.0,0.7071067],"name":"KON002 - Barrel Mount Part [9048960]002"},{"mesh":10,"translation":[-0.36457586,2.1990044,-0.074374564],"name":"KON002 - Barrel Mount Part [9048960]050"},{"mesh":10,"translation":[-0.36457556,2.1990044,-0.88134855],"name":"KON002 - Barrel Mount Part [9048960]045"},{"mesh":10,"translation":[-0.16507147,2.1990044,-1.0808526],"rotation":[-0.0,-0.7071068,0.0,0.7071067],"name":"KON002 - Barrel Mount Part [9048960]044"},{"mesh":10,"translation":[0.34976223,2.1990044,-1.0808526],"rotation":[-0.0,-0.7071068,0.0,0.7071067],"name":"KON002 - Barrel Mount Part [9048960]043"},{"mesh":10,"translation":[0.61646223,2.281351,-1.0808526],"rotation":[-0.0,-0.7071068,0.0,0.7071067],"name":"KON002 - Barrel Mount Part [9048960]042"},{"mesh":10,"translation":[1.4286326,2.8299918,-1.0808526],"rotation":[-0.0,-0.7071068,0.0,0.7071067],"name":"KON002 - Barrel Mount Part [9048960]041"},{"mesh":10,"translation":[-0.36457586,1.5498313,0.9735472],"name":"KON002 - Barrel Mount Part [9048960]037"},{"mesh":10,"translation":[-0.36457586,1.7327114,0.70801455],"name":"KON002 - Barrel Mount Part [9048960]036"},{"mesh":10,"translation":[-0.36457586,2.0984716,0.17503314],"name":"KON002 - Barrel Mount Part [9048960]035"},{"mesh":10,"translation":[0.695885,1.5498313,0.9735472],"rotation":[-0.0,-1.0,0.0,-1.6292068E-07],"name":"KON002 - Barrel Mount Part [9048960]033"},{"mesh":10,"translation":[0.695885,1.7327114,0.70801455],"rotation":[-0.0,-1.0,0.0,-1.6292068E-07],"name":"KON002 - Barrel Mount Part [9048960]032"},{"mesh":10,"translation":[1.4286326,2.8299918,-0.020391779],"rotation":[-0.0,0.7071068,0.0,0.7071067],"name":"KON002 - Barrel Mount Part [9048960]030"},{"mesh":10,"translation":[0.8471336,2.4642315,-0.020391779],"rotation":[-0.0,0.7071068,0.0,0.7071067],"name":"KON002 - Barrel Mount Part [9048960]027"},{"mesh":10,"translation":[0.6958751,2.3524714,0.1385099],"rotation":[-0.0,-1.0,0.0,-4.371139E-08],"name":"KON002 - Barrel Mount Part [9048960]103"},{"mesh":10,"translation":[0.6958751,2.0984716,0.1385099],"rotation":[-0.0,-1.0,0.0,-4.371139E-08],"name":"KON002 - Barrel Mount Part [9048960]104"},{"mesh":11,"translation":[-0.36457586,2.0116792,-0.074374564],"rotation":[6.322028E-08,6.322026E-08,0.70710665,0.7071069],"name":"LS201 & LS202 - Konic Post Material LS Material [9049081]"},{"mesh":12,"translation":[-0.36457586,2.0116792,-0.074374564],"rotation":[-0.0,-1.0,0.0,-1.6292068E-07],"name":"CSQ001-US - Surface Mount Weldment Part [8723797]278"},{"mesh":12,"translation":[-0.36457556,2.0116792,-0.88134855],"rotation":[-0.0,-1.0,0.0,2.8212997E-07],"name":"CSQ001-US - Surface Mount Weldment Part [8723797]277"},{"mesh":12,"translation":[-0.16507147,2.0116792,-1.0808526],"rotation":[-0.0,0.7071068,0.0,0.7071067],"name":"CSQ001-US - Surface Mount Weldment Part [8723797]276"},{"mesh":12,"translation":[0.34976223,2.0116792,-1.0808526],"rotation":[-0.0,0.7071068,0.0,0.7071067],"name":"CSQ001-US - Surface Mount Weldment Part [8723797]275"},{"mesh":12,"translation":[0.61646223,2.0116792,-1.0808526],"rotation":[-0.0,0.7071068,0.0,0.7071067],"name":"CSQ001-US - Surface Mount Weldment Part [8723797]274"},{"mesh":12,"translation":[1.4286326,2.56032,-1.0808526],"rotation":[-0.0,0.7071068,0.0,0.7071067],"name":"CSQ001-US - Surface Mount Weldment Part [8723797]273"},{"mesh":12,"translation":[-0.36457586,1.2801597,0.9735472],"rotation":[-0.0,-1.0,0.0,-1.6292068E-07],"name":"CSQ001-US - Surface Mount Weldment Part [8723797]272"},{"mesh":12,"translation":[-0.36457586,1.4630395,0.70801455],"rotation":[-0.0,-1.0,0.0,-1.6292068E-07],"name":"CSQ001-US - Surface Mount Weldment Part [8723797]271"},{"mesh":12,"translation":[-0.36457586,1.8287997,0.17503314],"rotation":[-0.0,-1.0,0.0,-1.6292068E-07],"name":"CSQ001-US - Surface Mount Weldment Part [8723797]270"},{"mesh":12,"translation":[0.695885,1.2801597,0.9735472],"name":"CSQ001-US - Surface Mount Weldment Part [8723797]269"},{"mesh":12,"translation":[0.695885,1.4630395,0.70801455],"name":"CSQ001-US - Surface Mount Weldment Part [8723797]268"},{"mesh":12,"translation":[1.4286326,2.56032,-0.020391779],"rotation":[-0.0,-0.7071068,0.0,0.7071067],"name":"CSQ001-US - Surface Mount Weldment Part [8723797]267"},{"mesh":12,"translation":[0.8471336,2.19456,-0.020391779],"rotation":[-0.0,-0.7071068,0.0,0.7071067],"name":"CSQ001-US - Surface Mount Weldment Part [8723797]266"},{"mesh":12,"translation":[0.6958751,1.8287997,0.1385099],"rotation":[-0.0,-3.2584137E-07,0.0,1.0],"name":"CSQ001-US - Surface Mount Weldment Part [8723797]279"},{"mesh":12,"translation":[0.6959607,0.91459084,1.5558388],"rotation":[-0.0,-5.9604645E-08,0.0,1.0],"name":"CSQ001-US - Surface Mount Weldment Part [8723797]280"},{"mesh":12,"translation":[0.89138544,0.54883057,2.7675486],"rotation":[-0.0,-0.7071069,0.0,0.70710665],"name":"CSQ001-US - Surface Mount Weldment Part [8723797]281"},{"mesh":12,"translation":[-0.3645,0.73171014,1.7865107],"rotation":[-0.0,-1.0,0.0,4.371139E-08],"name":"CSQ001-US - Surface Mount Weldment Part [8723797]282"},{"mesh":12,"translation":[-0.3645,0.73171014,2.0532107],"rotation":[-0.0,-1.0,0.0,4.371139E-08],"name":"CSQ001-US - Surface Mount Weldment Part [8723797]283"},{"mesh":12,"translation":[-0.3645,0.73171014,2.5680444],"rotation":[-0.0,-1.0,0.0,4.371139E-08],"name":"CSQ001-US - Surface Mount Weldment Part [8723797]284"},{"mesh":12,"translation":[-0.1649959,0.73171014,2.7675486],"rotation":[-0.0,-0.7071066,0.0,0.70710695],"name":"CSQ001-US - Surface Mount Weldment Part [8723797]285"},{"mesh":12,"translation":[0.64197797,0.73171014,2.7675486],"rotation":[-0.0,-0.7071069,0.0,0.70710665],"name":"CSQ001-US - Surface Mount Weldment Part [8723797]286"},{"mesh":12,"translation":[0.85486263,0.54883057,1.7070969],"rotation":[-0.0,0.7071066,0.0,0.70710695],"name":"CSQ001-US - Surface Mount Weldment Part [8723797]287"},{"mesh":12,"translation":[1.423725,0.18307057,1.7070876],"rotation":[-0.0,0.7071068,0.0,0.7071067],"name":"CSQ001-US - Surface Mount Weldment Part [8723797]288"},{"mesh":12,"translation":[1.423725,0.18307057,2.7675486],"rotation":[-0.0,-0.7071069,0.0,0.70710665],"name":"CSQ001-US - Surface Mount Weldment Part [8723797]289"},{"mesh":13,"translation":[-0.36457556,2.0116792,-0.88134855],"rotation":[5.533139E-22,-5.533139E-22,0.7071068,0.7071067],"name":"LS201 & LS202 - Konic Post Material LS Material [9048987]"},{"mesh":14,"translation":[-0.16507147,2.0116792,-1.0808526],"rotation":[-0.5,-0.50000006,0.5,0.49999994],"name":"LS201 & LS202 - Konic Post Material LS Material [9048969]"},{"mesh":15,"translation":[0.34976223,2.0116792,-1.0808526],"rotation":[-0.5,-0.50000006,0.5,0.49999994],"name":"LS201 & LS202 - Konic Post Material LS Material [9048949]"},{"mesh":16,"translation":[0.61646223,2.0116792,-1.0808526],"rotation":[-0.5,-0.50000006,0.5,0.49999994],"name":"LS201 & LS202 - Konic Post Material LS Material [9048914]"},{"mesh":17,"translation":[1.4286326,2.56032,-1.0808526],"rotation":[-0.5,-0.50000006,0.5,0.49999994],"name":"LS201 & LS202 - Konic Post Material LS Material [9048890]"},{"mesh":18,"translation":[-0.36457586,1.2801597,0.9735472],"rotation":[6.322028E-08,6.322026E-08,0.70710665,0.7071069],"name":"LS201 & LS202 - Konic Post Material LS Material [9048829]"},{"mesh":19,"translation":[-0.36457586,1.4630395,0.70801455],"rotation":[6.322028E-08,6.322026E-08,0.70710665,0.7071069],"name":"LS201 & LS202 - Konic Post Material LS Material [9048824]"},{"mesh":20,"translation":[-0.36457586,1.8287997,0.17503314],"rotation":[6.322028E-08,6.322026E-08,0.70710665,0.7071069],"name":"LS201 & LS202 - Konic Post Material LS Material [9048819]"},{"mesh":20,"translation":[0.6958751,1.8287997,0.1385099],"rotation":[-0.7071069,-0.70710665,7.44585E-08,7.4458505E-08],"name":"LS201 & LS202 - Konic Post Material LS Material [9048819]003"},{"mesh":21,"translation":[0.695885,1.2801597,0.9735472],"rotation":[-0.7071067,-0.7071068,-1.1520233E-07,-1.1520231E-07],"name":"LS201 & LS202 - Konic Post Material LS Material [9048634]"},{"mesh":22,"translation":[0.695885,1.4630395,0.70801455],"rotation":[-0.7071067,-0.7071068,-1.1520233E-07,-1.1520231E-07],"name":"LS201 & LS202 - Konic Post Material LS Material [9048616]"},{"mesh":23,"translation":[1.4286326,2.56032,-0.020391779],"rotation":[0.5000001,0.49999997,0.49999985,0.50000006],"name":"LS201 & LS202 - Konic Post Material LS Material [9048587]"},{"mesh":24,"translation":[0.8471336,2.19456,-0.020391779],"rotation":[0.5000001,0.49999997,0.49999985,0.50000006],"name":"LS201 & LS202 - Konic Post Material LS Material [9048531]"},{"mesh":25,"translation":[1.163801,3.6663659,-0.513857],"name":"Object"},{"mesh":26,"translation":[1.6726357,3.7321718,-0.07691128],"name":"Generic Models 11 Generic Models 11 [8762451]005"},{"mesh":27,"translation":[-0.30812553,1.5866196,1.3804855],"name":"Casework 1 Casework 1 [8738332]001"},{"mesh":28,"translation":[1.1381955,1.3559175,1.7633808],"name":"Generic Models 1 Generic Models 1 [8568048]001"},{"mesh":29,"translation":[1.5450405,1.0837624,2.7111647],"name":"Object006"},{"mesh":30,"translation":[0.6395851,1.6168393,1.5199887],"rotation":[-0.0,0.7071068,0.0,0.7071067],"name":"Infill_Glass_Raked & Horizontal Generic [8199751]001"},{"translation":[0.8913971,0.38092476,1.763461],"rotation":[-0.0,-1.0,0.0,7.54979E-08],"name":"Infill_Glass_Raked & Horizontal Generic [8202939]001"},{"translation":[0.8913973,0.38094634,2.7111728],"rotation":[-0.0,-1.0,0.0,7.54979E-08],"name":"Infill_Glass_Raked & Horizontal Generic [8735940]001"},{"mesh":31,"translation":[-0.3081267,1.3215338,2.335075],"rotation":[-0.0,0.7071068,0.0,0.7071067],"name":"Infill_Glass_Raked & Horizontal Generic [8737682]001"},{"mesh":32,"translation":[0.067968816,1.3215338,2.7111707],"rotation":[-0.0,-5.9604645E-08,0.0,1.0],"name":"Infill_Glass_Raked & Horizontal Generic [8738822]001"},{"mesh":33,"translation":[1.1586715,0.9295863,2.7111728],"rotation":[-0.0,-1.0,0.0,7.54979E-08],"name":"Infill_Glass_Raked & Horizontal Generic [8739593]001"},{"mesh":34,"translation":[0.7712672,1.6461104,1.763461],"rotation":[0.7071068,-0.0,0.0,0.7071067],"name":"Infill_Glass_Transition Generic [8202170]001"},{"mesh":35,"translation":[0.6959607,1.4382623,1.5558388],"rotation":[-0.0,-1.0,0.0,4.371139E-08],"name":"KON002 - Barrel Mount Part [9048960]105"},{"mesh":35,"translation":[0.89138544,1.0725023,2.7675486],"rotation":[-0.0,0.7071068,0.0,0.7071067],"name":"KON002 - Barrel Mount Part [9048960]112"},{"mesh":35,"translation":[-0.3645,1.2553823,1.7865107],"rotation":[-0.0,-5.9604645E-08,0.0,1.0],"name":"KON002 - Barrel Mount Part [9048960]119"},{"mesh":35,"translation":[-0.3645,1.1730355,2.0532107],"rotation":[-0.0,-5.9604645E-08,0.0,1.0],"name":"KON002 - Barrel Mount Part [9048960]120"},{"mesh":35,"translation":[-0.3645,1.1730355,2.5680444],"rotation":[-0.0,-5.9604645E-08,0.0,1.0],"name":"KON002 - Barrel Mount Part [9048960]121"},{"mesh":35,"translation":[-0.1649959,1.1730355,2.7675486],"rotation":[-0.0,0.7071068,0.0,0.7071067],"name":"KON002 - Barrel Mount Part [9048960]122"},{"mesh":35,"translation":[0.64197797,1.1730355,2.7675486],"rotation":[-0.0,0.7071068,0.0,0.7071067],"name":"KON002 - Barrel Mount Part [9048960]123"},{"mesh":35,"translation":[0.6959607,1.1842623,1.5558388],"rotation":[-0.0,-1.0,0.0,4.371139E-08],"name":"KON002 - Barrel Mount Part [9048960]124"},{"mesh":35,"translation":[0.89138544,0.81850255,2.7675486],"rotation":[-0.0,0.7071068,0.0,0.7071067],"name":"KON002 - Barrel Mount Part [9048960]131"},{"mesh":35,"translation":[-0.3645,1.0013821,1.7865107],"rotation":[-0.0,-5.9604645E-08,0.0,1.0],"name":"KON002 - Barrel Mount Part [9048960]138"},{"mesh":35,"translation":[-0.3645,0.9190353,2.0532107],"rotation":[-0.0,-5.9604645E-08,0.0,1.0],"name":"KON002 - Barrel Mount Part [9048960]139"},{"mesh":35,"translation":[-0.3645,0.9190353,2.5680444],"rotation":[-0.0,-5.9604645E-08,0.0,1.0],"name":"KON002 - Barrel Mount Part [9048960]140"},{"mesh":35,"translation":[-0.1649959,0.9190353,2.7675486],"rotation":[-0.0,0.7071068,0.0,0.7071067],"name":"KON002 - Barrel Mount Part [9048960]141"},{"mesh":35,"translation":[0.64197797,0.9190353,2.7675486],"rotation":[-0.0,0.7071068,0.0,0.7071067],"name":"KON002 - Barrel Mount Part [9048960]142"},{"mesh":35,"translation":[0.85486263,1.0725023,1.7070969],"rotation":[-0.0,-0.7071068,0.0,0.7071067],"name":"KON002 - Barrel Mount Part [9048960]183"},{"mesh":35,"translation":[0.85486263,0.81850255,1.7070969],"rotation":[-0.0,-0.7071068,0.0,0.7071067],"name":"KON002 - Barrel Mount Part [9048960]184"},{"mesh":35,"translation":[1.423725,0.70674205,1.7070876],"rotation":[-0.0,-0.7071069,0.0,0.70710665],"name":"KON002 - Barrel Mount Part [9048960]185"},{"mesh":35,"translation":[1.423725,0.70674205,2.7675486],"rotation":[-0.0,0.7071068,0.0,0.7071067],"name":"KON002 - Barrel Mount Part [9048960]186"},{"mesh":35,"translation":[1.423725,0.4527422,1.7070876],"rotation":[-0.0,-0.7071069,0.0,0.70710665],"name":"KON002 - Barrel Mount Part [9048960]187"},{"mesh":35,"translation":[1.423725,0.4527422,2.7675486],"rotation":[-0.0,0.7071068,0.0,0.7071067],"name":"KON002 - Barrel Mount Part [9048960]188"},{"mesh":36,"translation":[0.63086236,1.4382623,1.5558388],"rotation":[-0.0,-1.0,0.0,4.371139E-08],"name":"KON006 - Lower Panel Clamp Part [8739162]244"},{"mesh":36,"translation":[0.63086236,1.1842623,1.5558388],"rotation":[-0.0,-1.0,0.0,4.371139E-08],"name":"KON006 - Lower Panel Clamp Part [8739162]245"},{"mesh":36,"translation":[0.89138544,1.0725023,2.7024503],"rotation":[-0.0,0.7071068,0.0,0.7071067],"name":"KON006 - Lower Panel Clamp Part [8739162]258"},{"mesh":36,"translation":[0.89138544,0.81850255,2.7024503],"rotation":[-0.0,0.7071068,0.0,0.7071067],"name":"KON006 - Lower Panel Clamp Part [8739162]259"},{"mesh":36,"translation":[-0.29940164,1.2553823,1.7865107],"rotation":[-0.0,-5.9604645E-08,0.0,1.0],"name":"KON006 - Lower Panel Clamp Part [8739162]272"},{"mesh":36,"translation":[-0.29940164,1.0013821,1.7865107],"rotation":[-0.0,-5.9604645E-08,0.0,1.0],"name":"KON006 - Lower Panel Clamp Part [8739162]273"},{"mesh":36,"translation":[-0.29940164,1.1730355,2.0532107],"rotation":[-0.0,-5.9604645E-08,0.0,1.0],"name":"KON006 - Lower Panel Clamp Part [8739162]274"},{"mesh":36,"translation":[-0.29940164,0.9190353,2.0532107],"rotation":[-0.0,-5.9604645E-08,0.0,1.0],"name":"KON006 - Lower Panel Clamp Part [8739162]275"},{"mesh":36,"translation":[-0.29940164,1.1730355,2.5680444],"rotation":[-0.0,-5.9604645E-08,0.0,1.0],"name":"KON006 - Lower Panel Clamp Part [8739162]276"},{"mesh":36,"translation":[-0.29940164,0.9190353,2.5680444],"rotation":[-0.0,-5.9604645E-08,0.0,1.0],"name":"KON006 - Lower Panel Clamp Part [8739162]277"},{"mesh":36,"translation":[-0.1649959,1.1730355,2.7024455],"rotation":[-0.0,0.7071068,0.0,0.7071067],"name":"KON006 - Lower Panel Clamp Part [8739162]278"},{"mesh":36,"translation":[-0.1649959,0.9190353,2.7024455],"rotation":[-0.0,0.7071068,0.0,0.7071067],"name":"KON006 - Lower Panel Clamp Part [8739162]279"},{"mesh":36,"translation":[0.64197797,1.1730355,2.7024503],"rotation":[-0.0,0.7071068,0.0,0.7071067],"name":"KON006 - Lower Panel Clamp Part [8739162]280"},{"mesh":36,"translation":[0.64197797,0.9190353,2.7024503],"rotation":[-0.0,0.7071068,0.0,0.7071067],"name":"KON006 - Lower Panel Clamp Part [8739162]281"},{"mesh":36,"translation":[0.85486263,1.0725023,1.7721953],"rotation":[-0.0,-0.7071068,0.0,0.7071067],"name":"KON006 - Lower Panel Clamp Part [8739162]366"},{"mesh":36,"translation":[0.85486263,0.81850255,1.7721953],"rotation":[-0.0,-0.7071068,0.0,0.7071067],"name":"KON006 - Lower Panel Clamp Part [8739162]367"},{"mesh":36,"translation":[1.423725,0.70674205,1.772186],"rotation":[-0.0,-0.7071069,0.0,0.70710665],"name":"KON006 - Lower Panel Clamp Part [8739162]372"},{"mesh":36,"translation":[1.423725,0.4527422,1.772186],"rotation":[-0.0,-0.7071069,0.0,0.70710665],"name":"KON006 - Lower Panel Clamp Part [8739162]373"},{"mesh":36,"translation":[1.423725,0.70674205,2.7024503],"rotation":[-0.0,0.7071068,0.0,0.7071067],"name":"KON006 - Lower Panel Clamp Part [8739162]374"},{"mesh":36,"translation":[1.423725,0.4527422,2.7024503],"rotation":[-0.0,0.7071068,0.0,0.7071067],"name":"KON006 - Lower Panel Clamp Part [8739162]375"},{"mesh":37,"translation":[0.63243437,1.4382623,1.5558388],"rotation":[-0.0,0.7071068,0.0,0.7071067],"name":"KON021 - Konic Washer Part [9193945]105"},{"mesh":37,"translation":[0.63243437,1.1842623,1.5558388],"rotation":[-0.0,0.7071068,0.0,0.7071067],"name":"KON021 - Konic Washer Part [9193945]106"},{"mesh":37,"translation":[0.89138544,1.0725023,2.7040222],"name":"KON021 - Konic Washer Part [9193945]119"},{"mesh":37,"translation":[0.89138544,0.81850255,2.7040222],"name":"KON021 - Konic Washer Part [9193945]120"},{"mesh":37,"translation":[-0.3009783,1.2553823,1.7865107],"rotation":[-0.0,-0.7071068,0.0,0.7071068],"name":"KON021 - Konic Washer Part [9193945]133"},{"mesh":37,"translation":[-0.3009783,1.0013821,1.7865107],"rotation":[-0.0,-0.7071068,0.0,0.7071068],"name":"KON021 - Konic Washer Part [9193945]134"},{"mesh":37,"translation":[-0.3009783,1.1730355,2.0532107],"rotation":[-0.0,-0.7071068,0.0,0.7071068],"name":"KON021 - Konic Washer Part [9193945]135"},{"mesh":37,"translation":[-0.3009783,0.9190353,2.0532107],"rotation":[-0.0,-0.7071068,0.0,0.7071068],"name":"KON021 - Konic Washer Part [9193945]136"},{"mesh":37,"translation":[-0.3009783,1.1730355,2.5680444],"rotation":[-0.0,-0.70710695,0.0,0.7071066],"name":"KON021 - Konic Washer Part [9193945]137"},{"mesh":37,"translation":[-0.3009783,0.9190353,2.5680444],"rotation":[-0.0,-0.70710695,0.0,0.7071066],"name":"KON021 - Konic Washer Part [9193945]138"},{"mesh":37,"translation":[-0.1649959,1.1730355,2.704027],"rotation":[-0.0,8.742278E-08,0.0,1.0],"name":"KON021 - Konic Washer Part [9193945]139"},{"mesh":37,"translation":[-0.1649959,0.9190353,2.704027],"rotation":[-0.0,8.742278E-08,0.0,1.0],"name":"KON021 - Konic Washer Part [9193945]140"},{"mesh":37,"translation":[0.64197797,1.1730355,2.7040222],"rotation":[-0.0,3.2584137E-07,0.0,1.0],"name":"KON021 - Konic Washer Part [9193945]141"},{"mesh":37,"translation":[0.64197797,0.9190353,2.7040222],"rotation":[-0.0,3.2584137E-07,0.0,1.0],"name":"KON021 - Konic Washer Part [9193945]142"},{"mesh":37,"translation":[0.85486263,1.0725023,1.7706233],"rotation":[-0.0,-1.0,0.0,7.54979E-08],"name":"KON021 - Konic Washer Part [9193945]183"},{"mesh":37,"translation":[0.85486263,0.81850255,1.7706233],"rotation":[-0.0,-1.0,0.0,7.54979E-08],"name":"KON021 - Konic Washer Part [9193945]184"},{"mesh":37,"translation":[0.64673585,1.4382623,1.5558388],"rotation":[-0.0,-0.7071066,0.0,0.70710695],"name":"KON021A - Adhesive Konic Washer Part [9193800]105"},{"mesh":37,"translation":[0.64673585,1.1842623,1.5558388],"rotation":[-0.0,-0.7071066,0.0,0.70710695],"name":"KON021A - Adhesive Konic Washer Part [9193800]106"},{"mesh":37,"translation":[0.89138544,1.0725023,2.7183237],"rotation":[-0.0,-1.0,0.0,-1.6292068E-07],"name":"KON021A - Adhesive Konic Washer Part [9193800]119"},{"mesh":37,"translation":[0.89138544,0.81850255,2.7183237],"rotation":[-0.0,-1.0,0.0,-1.6292068E-07],"name":"KON021A - Adhesive Konic Washer Part [9193800]120"},{"mesh":37,"translation":[-0.3152751,1.2553823,1.7865107],"rotation":[-0.0,0.7071066,0.0,0.70710695],"name":"KON021A - Adhesive Konic Washer Part [9193800]133"},{"mesh":37,"translation":[-0.3152751,1.0013821,1.7865107],"rotation":[-0.0,0.7071066,0.0,0.70710695],"name":"KON021A - Adhesive Konic Washer Part [9193800]134"},{"mesh":37,"translation":[-0.3152751,1.1730355,2.0532107],"rotation":[-0.0,0.7071066,0.0,0.70710695],"name":"KON021A - Adhesive Konic Washer Part [9193800]135"},{"mesh":37,"translation":[-0.3152751,0.9190353,2.0532107],"rotation":[-0.0,0.7071066,0.0,0.70710695],"name":"KON021A - Adhesive Konic Washer Part [9193800]136"},{"mesh":37,"translation":[-0.3152751,1.1730355,2.5680444],"rotation":[-0.0,0.7071068,0.0,0.7071067],"name":"KON021A - Adhesive Konic Washer Part [9193800]137"},{"mesh":37,"translation":[-0.3152751,0.9190353,2.5680444],"rotation":[-0.0,0.7071068,0.0,0.7071067],"name":"KON021A - Adhesive Konic Washer Part [9193800]138"},{"mesh":37,"translation":[-0.1649959,1.1730355,2.7183237],"rotation":[-0.0,-1.0,0.0,-7.54979E-08],"name":"KON021A - Adhesive Konic Washer Part [9193800]139"},{"mesh":37,"translation":[-0.1649959,0.9190353,2.7183237],"rotation":[-0.0,-1.0,0.0,-7.54979E-08],"name":"KON021A - Adhesive Konic Washer Part [9193800]140"},{"mesh":37,"translation":[0.64197797,1.1730355,2.7183237],"rotation":[-0.0,-1.0,0.0,4.371139E-08],"name":"KON021A - Adhesive Konic Washer Part [9193800]141"},{"mesh":37,"translation":[0.64197797,0.9190353,2.7183237],"rotation":[-0.0,-1.0,0.0,4.371139E-08],"name":"KON021A - Adhesive Konic Washer Part [9193800]142"},{"mesh":37,"translation":[0.85486263,1.0725023,1.7563219],"rotation":[-0.0,-8.742278E-08,0.0,1.0],"name":"KON021A - Adhesive Konic Washer Part [9193800]183"},{"mesh":37,"translation":[0.85486263,0.81850255,1.7563219],"rotation":[-0.0,-8.742278E-08,0.0,1.0],"name":"KON021A - Adhesive Konic Washer Part [9193800]184"},{"mesh":37,"translation":[1.423725,0.70674205,1.7706094],"rotation":[-0.0,-1.0,0.0,4.371139E-08],"name":"KON021 - Konic Washer Part [9193945]185"},{"mesh":37,"translation":[1.423725,0.4527422,1.7706094],"rotation":[-0.0,-1.0,0.0,4.371139E-08],"name":"KON021 - Konic Washer Part [9193945]186"},{"mesh":37,"translation":[1.423725,0.70674205,2.7040222],"name":"KON021 - Konic Washer Part [9193945]187"},{"mesh":37,"translation":[1.423725,0.4527422,2.7040222],"name":"KON021 - Konic Washer Part [9193945]188"},{"mesh":37,"translation":[1.423725,0.70674205,1.7563126],"rotation":[-0.0,-2.3841858E-07,0.0,1.0],"name":"KON021A - Adhesive Konic Washer Part [9193800]185"},{"mesh":37,"translation":[1.423725,0.4527422,1.7563126],"rotation":[-0.0,-2.3841858E-07,0.0,1.0],"name":"KON021A - Adhesive Konic Washer Part [9193800]186"},{"mesh":37,"translation":[1.423725,0.70674205,2.7183237],"rotation":[-0.0,-1.0,0.0,-1.6292068E-07],"name":"KON021A - Adhesive Konic Washer Part [9193800]187"},{"mesh":37,"translation":[1.423725,0.4527422,2.7183237],"rotation":[-0.0,-1.0,0.0,-1.6292068E-07],"name":"KON021A - Adhesive Konic Washer Part [9193800]188"},{"mesh":38,"translation":[0.6959607,0.91459084,1.5558388],"rotation":[-0.7071069,-0.70710665,1.3627573E-07,1.3627576E-07],"name":"LS201 & LS202 - Konic Post Material LS Material [9048531]002"},{"mesh":39,"translation":[0.89138544,0.54883057,2.7675486],"rotation":[0.5000001,0.49999997,0.49999985,0.50000006],"name":"LS201 & LS202 - Konic Post Material LS Material [9048819]004"},{"mesh":39,"translation":[0.85486263,0.54883057,1.7070969],"rotation":[-0.5,-0.49999985,0.49999997,0.5000002],"name":"LS201 & LS202 - Konic Post Material LS Material [9048819]007"},{"mesh":40,"translation":[-0.3645,0.73171014,1.7865107],"rotation":[-4.2146844E-08,-4.214685E-08,0.7071068,0.7071067],"name":"LS201 & LS202 - Konic Post Material LS Material [9048914]002"},{"mesh":41,"translation":[-0.3645,0.73171014,2.0532107],"rotation":[-4.2146844E-08,-4.214685E-08,0.7071068,0.7071067],"name":"LS201 & LS202 - Konic Post Material LS Material [9048949]002"},{"mesh":42,"translation":[-0.3645,0.73171014,2.5680444],"rotation":[-4.2146844E-08,-4.214685E-08,0.7071068,0.7071067],"name":"LS201 & LS202 - Konic Post Material LS Material [9048969]002"},{"mesh":43,"translation":[-0.1649959,0.73171014,2.7675486],"rotation":[-0.49999997,-0.5000001,-0.50000006,-0.49999997],"name":"LS201 & LS202 - Konic Post Material LS Material [9048987]002"},{"mesh":44,"translation":[0.64197797,0.73171014,2.7675486],"rotation":[0.5000001,0.49999997,0.49999985,0.50000006],"name":"LS201 & LS202 - Konic Post Material LS Material [9049081]002"},{"mesh":45,"translation":[0.2024968,2.385576,1.239157],"name":"Object003"},{"mesh":46,"translation":[1.423725,0.18307057,1.7070876],"rotation":[-0.50000006,-0.5000002,0.49999997,0.4999999],"name":"LS201 & LS202 - Konic Post Material LS Material [9048652]004"},{"mesh":47,"translation":[1.423725,0.18307057,2.7675486],"rotation":[0.5000001,0.49999997,0.49999985,0.50000006],"name":"LS201 & LS202 - Konic Post Material LS Material [9048834]004"},{"mesh":48,"translation":[-0.30828178,2.0101762,1.6006715],"name":"Object013"}],"meshes":[{"primitives":[{"attributes":{"POSITION":1,"TANGENT":2,"NORMAL":3,"TEXCOORD_0":4},"indices":0,"material":0}],"name":"Infill_Glass_Raked & Horizontal Generic [8199751]"},{"primitives":[{"attributes":{"POSITION":6,"TANGENT":7,"NORMAL":8,"TEXCOORD_0":9},"indices":5,"material":0}],"name":"Infill_Glass_Transition Generic [8202170]"},{"primitives":[{"attributes":{"POSITION":11,"TANGENT":12,"NORMAL":13,"TEXCOORD_0":14},"indices":10,"material":1},{"attributes":{"POSITION":16,"TANGENT":17,"NORMAL":18,"TEXCOORD_0":19},"indices":15,"material":2}],"name":"Generic Models 1 Generic Models 1 [8568048]"},{"primitives":[{"attributes":{"POSITION":21,"TANGENT":22,"NORMAL":23,"TEXCOORD_0":24},"indices":20,"material":1},{"attributes":{"POSITION":26,"TANGENT":27,"NORMAL":28,"TEXCOORD_0":29},"indices":25,"material":2}],"name":"Generic Models 10 Generic Models 1 [8735975]"},{"primitives":[{"attributes":{"POSITION":31,"TANGENT":32,"NORMAL":33,"TEXCOORD_0":34},"indices":30,"material":0}],"name":"Infill_Glass_Raked & Horizontal Generic [8737682]"},{"primitives":[{"attributes":{"POSITION":36,"TANGENT":37,"NORMAL":38,"TEXCOORD_0":39},"indices":35,"material":0}],"name":"Casework 1 Casework 1 [8738332]"},{"primitives":[{"attributes":{"POSITION":41,"TANGENT":42,"NORMAL":43,"TEXCOORD_0":44},"indices":40,"material":0}],"name":"Infill_Glass_Raked & Horizontal Generic [8738822]"},{"primitives":[{"attributes":{"POSITION":46,"TANGENT":47,"NORMAL":48,"TEXCOORD_0":49},"indices":45,"material":0}],"name":"Infill_Glass_Raked & Horizontal Generic [8739593]"},{"primitives":[{"attributes":{"POSITION":51,"TANGENT":52,"NORMAL":53,"TEXCOORD_0":54},"indices":50,"material":3}],"name":"KON021 - Konic Washer Part [9193945]050"},{"primitives":[{"attributes":{"POSITION":56,"TANGENT":57,"NORMAL":58,"TEXCOORD_0":59},"indices":55,"material":1},{"attributes":{"POSITION":61,"TANGENT":62,"NORMAL":63,"TEXCOORD_0":64},"indices":60,"material":2}],"name":"KON006 - Lower Panel Clamp Part [8739162]099"},{"primitives":[{"attributes":{"POSITION":66,"TANGENT":67,"NORMAL":68,"TEXCOORD_0":69},"indices":65,"material":1},{"attributes":{"POSITION":71,"TANGENT":72,"NORMAL":73,"TEXCOORD_0":74},"indices":70,"material":2}],"name":"KON002 - Barrel Mount Part [9048960]025"},{"primitives":[{"attributes":{"POSITION":76,"TANGENT":77,"NORMAL":78,"TEXCOORD_0":79},"indices":75,"material":1}],"name":"LS201 & LS202 - Konic Post Material LS Material [9049081]"},{"primitives":[{"attributes":{"POSITION":81,"TANGENT":82,"NORMAL":83,"TEXCOORD_0":84},"indices":80,"material":1}],"name":"CSQ001-US - Surface Mount Weldment Part [8723797]278"},{"primitives":[{"attributes":{"POSITION":86,"TANGENT":87,"NORMAL":88,"TEXCOORD_0":89},"indices":85,"material":1}],"name":"LS201 & LS202 - Konic Post Material LS Material [9048987]"},{"primitives":[{"attributes":{"POSITION":91,"TANGENT":92,"NORMAL":93,"TEXCOORD_0":94},"indices":90,"material":1}],"name":"LS201 & LS202 - Konic Post Material LS Material [9048969]"},{"primitives":[{"attributes":{"POSITION":96,"TANGENT":97,"NORMAL":98,"TEXCOORD_0":99},"indices":95,"material":1}],"name":"LS201 & LS202 - Konic Post Material LS Material [9048949]"},{"primitives":[{"attributes":{"POSITION":101,"TANGENT":102,"NORMAL":103,"TEXCOORD_0":104},"indices":100,"material":1}],"name":"LS201 & LS202 - Konic Post Material LS Material [9048914]"},{"primitives":[{"attributes":{"POSITION":106,"TANGENT":107,"NORMAL":108,"TEXCOORD_0":109},"indices":105,"material":1}],"name":"LS201 & LS202 - Konic Post Material LS Material [9048890]"},{"primitives":[{"attributes":{"POSITION":111,"TANGENT":112,"NORMAL":113,"TEXCOORD_0":114},"indices":110,"material":1}],"name":"LS201 & LS202 - Konic Post Material LS Material [9048829]"},{"primitives":[{"attributes":{"POSITION":116,"TANGENT":117,"NORMAL":118,"TEXCOORD_0":119},"indices":115,"material":1}],"name":"LS201 & LS202 - Konic Post Material LS Material [9048824]"},{"primitives":[{"attributes":{"POSITION":121,"TANGENT":122,"NORMAL":123,"TEXCOORD_0":124},"indices":120,"material":1}],"name":"LS201 & LS202 - Konic Post Material LS Material [9048819]"},{"primitives":[{"attributes":{"POSITION":126,"TANGENT":127,"NORMAL":128,"TEXCOORD_0":129},"indices":125,"material":1}],"name":"LS201 & LS202 - Konic Post Material LS Material [9048634]"},{"primitives":[{"attributes":{"POSITION":131,"TANGENT":132,"NORMAL":133,"TEXCOORD_0":134},"indices":130,"material":1}],"name":"LS201 & LS202 - Konic Post Material LS Material [9048616]"},{"primitives":[{"attributes":{"POSITION":136,"TANGENT":137,"NORMAL":138,"TEXCOORD_0":139},"indices":135,"material":1}],"name":"LS201 & LS202 - Konic Post Material LS Material [9048587]"},{"primitives":[{"attributes":{"POSITION":141,"TANGENT":142,"NORMAL":143,"TEXCOORD_0":144},"indices":140,"material":1}],"name":"LS201 & LS202 - Konic Post Material LS Material [9048531]"},{"primitives":[{"attributes":{"POSITION":146,"TANGENT":147,"NORMAL":148,"TEXCOORD_0":149},"indices":145,"material":1},{"attributes":{"POSITION":151,"TANGENT":152,"NORMAL":153,"TEXCOORD_0":154},"indices":150,"material":2}],"name":"Object"},{"primitives":[{"attributes":{"POSITION":156,"TANGENT":157,"NORMAL":158,"TEXCOORD_0":159},"indices":155,"material":1},{"attributes":{"POSITION":161,"TANGENT":162,"NORMAL":163,"TEXCOORD_0":164},"indices":160,"material":2}],"name":"Generic Models 11 Generic Models 11 [8762451]005"},{"primitives":[{"attributes":{"POSITION":166,"TANGENT":167,"NORMAL":168,"TEXCOORD_0":169},"indices":165,"material":0}],"name":"Casework 1 Casework 1 [8738332]001"},{"primitives":[{"attributes":{"POSITION":171,"TANGENT":172,"NORMAL":173,"TEXCOORD_0":174},"indices":170,"material":1},{"attributes":{"POSITION":176,"TANGENT":177,"NORMAL":178,"TEXCOORD_0":179},"indices":175,"material":2}],"name":"Generic Models 1 Generic Models 1 [8568048]001"},{"primitives":[{"attributes":{"POSITION":181,"TANGENT":182,"NORMAL":183,"TEXCOORD_0":184},"indices":180,"material":1},{"attributes":{"POSITION":186,"TANGENT":187,"NORMAL":188,"TEXCOORD_0":189},"indices":185,"material":2}],"name":"Object006"},{"primitives":[{"attributes":{"POSITION":191,"TANGENT":192,"NORMAL":193,"TEXCOORD_0":194},"indices":190,"material":0}],"name":"Infill_Glass_Raked & Horizontal Generic [8199751]001"},{"primitives":[{"attributes":{"POSITION":196,"TANGENT":197,"NORMAL":198,"TEXCOORD_0":199},"indices":195,"material":0}],"name":"Infill_Glass_Raked & Horizontal Generic [8737682]001"},{"primitives":[{"attributes":{"POSITION":201,"TANGENT":202,"NORMAL":203,"TEXCOORD_0":204},"indices":200,"material":0}],"name":"Infill_Glass_Raked & Horizontal Generic [8738822]001"},{"primitives":[{"attributes":{"POSITION":206,"TANGENT":207,"NORMAL":208,"TEXCOORD_0":209},"indices":205,"material":0}],"name":"Infill_Glass_Raked & Horizontal Generic [8739593]001"},{"primitives":[{"attributes":{"POSITION":211,"TANGENT":212,"NORMAL":213,"TEXCOORD_0":214},"indices":210,"material":0}],"name":"Infill_Glass_Transition Generic [8202170]001"},{"primitives":[{"attributes":{"POSITION":216,"TANGENT":217,"NORMAL":218,"TEXCOORD_0":219},"indices":215,"material":1},{"attributes":{"POSITION":221,"TANGENT":222,"NORMAL":223,"TEXCOORD_0":224},"indices":220,"material":2}],"name":"KON002 - Barrel Mount Part [9048960]105"},{"primitives":[{"attributes":{"POSITION":226,"TANGENT":227,"NORMAL":228,"TEXCOORD_0":229},"indices":225,"material":1},{"attributes":{"POSITION":231,"TANGENT":232,"NORMAL":233,"TEXCOORD_0":234},"indices":230,"material":2}],"name":"KON006 - Lower Panel Clamp Part [8739162]244"},{"primitives":[{"attributes":{"POSITION":236,"TANGENT":237,"NORMAL":238,"TEXCOORD_0":239},"indices":235,"material":3}],"name":"KON021 - Konic Washer Part [9193945]105"},{"primitives":[{"attributes":{"POSITION":241,"TANGENT":242,"NORMAL":243,"TEXCOORD_0":244},"indices":240,"material":1}],"name":"LS201 & LS202 - Konic Post Material LS Material [9048531]002"},{"primitives":[{"attributes":{"POSITION":246,"TANGENT":247,"NORMAL":248,"TEXCOORD_0":249},"indices":245,"material":1}],"name":"LS201 & LS202 - Konic Post Material LS Material [9048819]004"},{"primitives":[{"attributes":{"POSITION":251,"TANGENT":252,"NORMAL":253,"TEXCOORD_0":254},"indices":250,"material":1}],"name":"LS201 & LS202 - Konic Post Material LS Material [9048914]002"},{"primitives":[{"attributes":{"POSITION":256,"TANGENT":257,"NORMAL":258,"TEXCOORD_0":259},"indices":255,"material":1}],"name":"LS201 & LS202 - Konic Post Material LS Material [9048949]002"},{"primitives":[{"attributes":{"POSITION":261,"TANGENT":262,"NORMAL":263,"TEXCOORD_0":264},"indices":260,"material":1}],"name":"LS201 & LS202 - Konic Post Material LS Material [9048969]002"},{"primitives":[{"attributes":{"POSITION":266,"TANGENT":267,"NORMAL":268,"TEXCOORD_0":269},"indices":265,"material":1}],"name":"LS201 & LS202 - Konic Post Material LS Material [9048987]002"},{"primitives":[{"attributes":{"POSITION":271,"TANGENT":272,"NORMAL":273,"TEXCOORD_0":274},"indices":270,"material":1}],"name":"LS201 & LS202 - Konic Post Material LS Material [9049081]002"},{"primitives":[{"attributes":{"POSITION":276,"TANGENT":277,"NORMAL":278,"TEXCOORD_0":279},"indices":275,"material":1}],"name":"Object003"},{"primitives":[{"attributes":{"POSITION":281,"TANGENT":282,"NORMAL":283,"TEXCOORD_0":284},"indices":280,"material":1}],"name":"LS201 & LS202 - Konic Post Material LS Material [9048652]004"},{"primitives":[{"attributes":{"POSITION":286,"TANGENT":287,"NORMAL":288,"TEXCOORD_0":289},"indices":285,"material":1}],"name":"LS201 & LS202 - Konic Post Material LS Material [9048834]004"},{"primitives":[{"attributes":{"POSITION":291,"TANGENT":292,"NORMAL":293,"TEXCOORD_0":294},"indices":290,"material":1}],"name":"Object013"}],"accessors":[{"bufferView":0,"componentType":5123,"count":132,"type":"SCALAR","name":"accessorIndices"},{"bufferView":1,"componentType":5126,"count":82,"max":[0.67253757,0.76435065,0.0071501],"min":[-0.1888937,-0.7240815,-0.0071501],"type":"VEC3","name":"accessorPositions"},{"bufferView":2,"componentType":5126,"count":82,"type":"VEC4","name":"accessorTangents"},{"bufferView":1,"byteOffset":984,"componentType":5126,"count":82,"type":"VEC3","name":"accessorNormals"},{"bufferView":3,"componentType":5126,"count":82,"type":"VEC2","name":"accessorUVs"},{"bufferView":0,"byteOffset":264,"componentType":5123,"count":168,"type":"SCALAR","name":"accessorIndices"},{"bufferView":1,"byteOffset":1968,"componentType":5126,"count":109,"max":[0.007149927,0.7168539,0.42416126],"min":[-0.0071505085,-0.7168533,-0.42416126],"type":"VEC3","name":"accessorPositions"},{"bufferView":2,"byteOffset":1312,"componentType":5126,"count":109,"type":"VEC4","name":"accessorTangents"},{"bufferView":1,"byteOffset":3276,"componentType":5126,"count":109,"type":"VEC3","name":"accessorNormals"},{"bufferView":3,"byteOffset":656,"componentType":5126,"count":109,"type":"VEC2","name":"accessorUVs"},{"bufferView":0,"byteOffset":600,"componentType":5123,"count":2994,"type":"SCALAR","name":"accessorIndices"},{"bufferView":1,"byteOffset":4584,"componentType":5126,"count":1038,"max":[0.019135969,0.57277405,0.89412946],"min":[-0.019134043,-0.6103752,-0.83940214],"type":"VEC3","name":"accessorPositions"},{"bufferView":2,"byteOffset":3056,"componentType":5126,"count":1038,"type":"VEC4","name":"accessorTangents"},{"bufferView":1,"byteOffset":17040,"componentType":5126,"count":1038,"type":"VEC3","name":"accessorNormals"},{"bufferView":3,"byteOffset":1528,"componentType":5126,"count":1038,"type":"VEC2","name":"accessorUVs"},{"bufferView":0,"byteOffset":6588,"componentType":5123,"count":456,"type":"SCALAR","name":"accessorIndices"},{"bufferView":1,"byteOffset":29496,"componentType":5126,"count":156,"max":[0.019135969,0.57277405,0.89412946],"min":[-0.019127067,-0.6103752,-0.83940214],"type":"VEC3","name":"accessorPositions"},{"bufferView":2,"byteOffset":19664,"componentType":5126,"count":156,"type":"VEC4","name":"accessorTangents"},{"bufferView":1,"byteOffset":31368,"componentType":5126,"count":156,"type":"VEC3","name":"accessorNormals"},{"bufferView":3,"byteOffset":9832,"componentType":5126,"count":156,"type":"VEC2","name":"accessorUVs"},{"bufferView":0,"byteOffset":7500,"componentType":5123,"count":45642,"type":"SCALAR","name":"accessorIndices"},{"bufferView":1,"byteOffset":33240,"componentType":5126,"count":8486,"max":[0.019054433,0.57281196,0.7208086],"min":[-0.019045785,-0.48690864,-0.82204074],"type":"VEC3","name":"accessorPositions"},{"bufferView":2,"byteOffset":22160,"componentType":5126,"count":8486,"type":"VEC4","name":"accessorTangents"},{"bufferView":1,"byteOffset":135072,"componentType":5126,"count":8486,"type":"VEC3","name":"accessorNormals"},{"bufferView":3,"byteOffset":11080,"componentType":5126,"count":8486,"type":"VEC2","name":"accessorUVs"},{"bufferView":0,"byteOffset":98784,"componentType":5123,"count":132,"type":"SCALAR","name":"accessorIndices"},{"bufferView":1,"byteOffset":236904,"componentType":5126,"count":7845,"max":[0.019054433,0.57281196,0.7208086],"min":[-0.019045785,-0.48690864,-0.82204074],"type":"VEC3","name":"accessorPositions"},{"bufferView":2,"byteOffset":157936,"componentType":5126,"count":7845,"type":"VEC4","name":"accessorTangents"},{"bufferView":1,"byteOffset":331044,"componentType":5126,"count":7845,"type":"VEC3","name":"accessorNormals"},{"bufferView":3,"byteOffset":78968,"componentType":5126,"count":7845,"type":"VEC2","name":"accessorUVs"},{"bufferView":0,"byteOffset":99048,"componentType":5123,"count":132,"type":"SCALAR","name":"accessorIndices"},{"bufferView":1,"byteOffset":425184,"componentType":5126,"count":96,"max":[0.40886727,0.3245767,0.0071501],"min":[-0.35996616,-0.52949834,-0.0071501],"type":"VEC3","name":"accessorPositions"},{"bufferView":2,"byteOffset":283456,"componentType":5126,"count":96,"type":"VEC4","name":"accessorTangents"},{"bufferView":1,"byteOffset":426336,"componentType":5126,"count":96,"type":"VEC3","name":"accessorNormals"},{"bufferView":3,"byteOffset":141728,"componentType":5126,"count":96,"type":"VEC2","name":"accessorUVs"},{"bufferView":0,"byteOffset":99312,"componentType":5123,"count":168,"type":"SCALAR","name":"accessorIndices"},{"bufferView":1,"byteOffset":427488,"componentType":5126,"count":99,"max":[0.53302795,0.7945839,0.0071623535],"min":[-0.53302795,-0.7945839,-0.0071623535],"type":"VEC3","name":"accessorPositions"},{"bufferView":2,"byteOffset":284992,"componentType":5126,"count":99,"type":"VEC4","name":"accessorTangents"},{"bufferView":1,"byteOffset":428676,"componentType":5126,"count":99,"type":"VEC3","name":"accessorNormals"},{"bufferView":3,"byteOffset":142496,"componentType":5126,"count":99,"type":"VEC2","name":"accessorUVs"},{"bufferView":0,"byteOffset":99648,"componentType":5123,"count":132,"type":"SCALAR","name":"accessorIndices"},{"bufferView":1,"byteOffset":429864,"componentType":5126,"count":96,"max":[0.70101464,0.3245767,0.0071501],"min":[-0.35996616,-0.52949834,-0.0071501],"type":"VEC3","name":"accessorPositions"},{"bufferView":2,"byteOffset":286576,"componentType":5126,"count":96,"type":"VEC4","name":"accessorTangents"},{"bufferView":1,"byteOffset":431016,"componentType":5126,"count":96,"type":"VEC3","name":"accessorNormals"},{"bufferView":3,"byteOffset":143288,"componentType":5126,"count":96,"type":"VEC2","name":"accessorUVs"},{"bufferView":0,"byteOffset":99912,"componentType":5123,"count":132,"type":"SCALAR","name":"accessorIndices"},{"bufferView":1,"byteOffset":432168,"componentType":5126,"count":82,"max":[0.37704316,0.70856416,0.0071501],"min":[-0.39211252,-0.71716493,-0.0071501],"type":"VEC3","name":"accessorPositions"},{"bufferView":2,"byteOffset":288112,"componentType":5126,"count":82,"type":"VEC4","name":"accessorTangents"},{"bufferView":1,"byteOffset":433152,"componentType":5126,"count":82,"type":"VEC3","name":"accessorNormals"},{"bufferView":3,"byteOffset":144056,"componentType":5126,"count":82,"type":"VEC2","name":"accessorUVs"},{"bufferView":0,"byteOffset":100176,"componentType":5123,"count":1440,"type":"SCALAR","name":"accessorIndices"},{"bufferView":1,"byteOffset":434136,"componentType":5126,"count":484,"max":[0.012700001,0.012700001,-8.253881E-15],"min":[-0.012700001,-0.012700001,-0.0015748],"type":"VEC3","name":"accessorPositions"},{"bufferView":2,"byteOffset":289424,"componentType":5126,"count":484,"type":"VEC4","name":"accessorTangents"},{"bufferView":1,"byteOffset":439944,"componentType":5126,"count":484,"type":"VEC3","name":"accessorNormals"},{"bufferView":3,"byteOffset":144712,"componentType":5126,"count":484,"type":"VEC2","name":"accessorUVs"},{"bufferView":0,"byteOffset":103056,"componentType":5123,"count":864,"type":"SCALAR","name":"accessorIndices"},{"bufferView":1,"byteOffset":445752,"componentType":5126,"count":292,"max":[0.006604,0.015875,0.015875],"min":[-0.022722581,-0.015875,-0.015875],"type":"VEC3","name":"accessorPositions"},{"bufferView":2,"byteOffset":297168,"componentType":5126,"count":292,"type":"VEC4","name":"accessorTangents"},{"bufferView":1,"byteOffset":449256,"componentType":5126,"count":292,"type":"VEC3","name":"accessorNormals"},{"bufferView":3,"byteOffset":148584,"componentType":5126,"count":292,"type":"VEC2","name":"accessorUVs"},{"bufferView":0,"byteOffset":104784,"componentType":5123,"count":858,"type":"SCALAR","name":"accessorIndices"},{"bufferView":1,"byteOffset":452760,"componentType":5126,"count":289,"max":[0.006604,0.015875,0.015875],"min":[-0.022722581,-0.015875,-0.015875],"type":"VEC3","name":"accessorPositions"},{"bufferView":2,"byteOffset":301840,"componentType":5126,"count":289,"type":"VEC4","name":"accessorTangents"},{"bufferView":1,"byteOffset":456228,"componentType":5126,"count":289,"type":"VEC3","name":"accessorNormals"},{"bufferView":3,"byteOffset":150920,"componentType":5126,"count":289,"type":"VEC2","name":"accessorUVs"},{"bufferView":0,"byteOffset":106500,"componentType":5123,"count":432,"type":"SCALAR","name":"accessorIndices"},{"bufferView":1,"byteOffset":459696,"componentType":5126,"count":146,"max":[0.0476504,0.015875,0.015875],"min":[-0.0348996,-0.015875,-0.015875],"type":"VEC3","name":"accessorPositions"},{"bufferView":2,"byteOffset":306464,"componentType":5126,"count":146,"type":"VEC4","name":"accessorTangents"},{"bufferView":1,"byteOffset":461448,"componentType":5126,"count":146,"type":"VEC3","name":"accessorNormals"},{"bufferView":3,"byteOffset":153232,"componentType":5126,"count":146,"type":"VEC2","name":"accessorUVs"},{"bufferView":0,"byteOffset":107364,"componentType":5123,"count":420,"type":"SCALAR","name":"accessorIndices"},{"bufferView":1,"byteOffset":463200,"componentType":5126,"count":144,"max":[0.0476504,0.015875,0.015875],"min":[-0.0348996,-0.015875,-0.015875],"type":"VEC3","name":"accessorPositions"},{"bufferView":2,"byteOffset":308800,"componentType":5126,"count":144,"type":"VEC4","name":"accessorTangents"},{"bufferView":1,"byteOffset":464928,"componentType":5126,"count":144,"type":"VEC3","name":"accessorNormals"},{"bufferView":3,"byteOffset":154400,"componentType":5126,"count":144,"type":"VEC2","name":"accessorUVs"},{"bufferView":0,"byteOffset":108204,"componentType":5123,"count":1428,"type":"SCALAR","name":"accessorIndices"},{"bufferView":1,"byteOffset":466656,"componentType":5126,"count":488,"max":[0.451866,0.028575,0.0079375],"min":[6.358873E-15,-0.028575,-0.0079375],"type":"VEC3","name":"accessorPositions"},{"bufferView":2,"byteOffset":311104,"componentType":5126,"count":488,"type":"VEC4","name":"accessorTangents"},{"bufferView":1,"byteOffset":472512,"componentType":5126,"count":488,"type":"VEC3","name":"accessorNormals"},{"bufferView":3,"byteOffset":155552,"componentType":5126,"count":488,"type":"VEC2","name":"accessorUVs"},{"bufferView":0,"byteOffset":111060,"componentType":5123,"count":570,"type":"SCALAR","name":"accessorIndices"},{"bufferView":1,"byteOffset":478368,"componentType":5126,"count":189,"max":[0.053975,0.025400002,0.053975],"min":[-0.053975,-3.0953716E-15,-0.053975],"type":"VEC3","name":"accessorPositions"},{"bufferView":2,"byteOffset":318912,"componentType":5126,"count":189,"type":"VEC4","name":"accessorTangents"},{"bufferView":1,"byteOffset":480636,"componentType":5126,"count":189,"type":"VEC3","name":"accessorNormals"},{"bufferView":3,"byteOffset":159456,"componentType":5126,"count":189,"type":"VEC2","name":"accessorUVs"},{"bufferView":0,"byteOffset":112200,"componentType":5123,"count":1428,"type":"SCALAR","name":"accessorIndices"},{"bufferView":1,"byteOffset":482904,"componentType":5126,"count":488,"max":[0.451866,0.028575,0.0079375],"min":[6.358873E-15,-0.028575,-0.0079375],"type":"VEC3","name":"accessorPositions"},{"bufferView":2,"byteOffset":321936,"componentType":5126,"count":488,"type":"VEC4","name":"accessorTangents"},{"bufferView":1,"byteOffset":488760,"componentType":5126,"count":488,"type":"VEC3","name":"accessorNormals"},{"bufferView":3,"byteOffset":160968,"componentType":5126,"count":488,"type":"VEC2","name":"accessorUVs"},{"bufferView":0,"byteOffset":115056,"componentType":5123,"count":1428,"type":"SCALAR","name":"accessorIndices"},{"bufferView":1,"byteOffset":494616,"componentType":5126,"count":488,"max":[0.451866,0.028575,0.0079375],"min":[6.358873E-15,-0.028575,-0.0079375],"type":"VEC3","name":"accessorPositions"},{"bufferView":2,"byteOffset":329744,"componentType":5126,"count":488,"type":"VEC4","name":"accessorTangents"},{"bufferView":1,"byteOffset":500472,"componentType":5126,"count":488,"type":"VEC3","name":"accessorNormals"},{"bufferView":3,"byteOffset":164872,"componentType":5126,"count":488,"type":"VEC2","name":"accessorUVs"},{"bufferView":0,"byteOffset":117912,"componentType":5123,"count":1428,"type":"SCALAR","name":"accessorIndices"},{"bufferView":1,"byteOffset":506328,"componentType":5126,"count":488,"max":[0.451866,0.028575,0.0079375],"min":[6.358873E-15,-0.028575,-0.0079375],"type":"VEC3","name":"accessorPositions"},{"bufferView":2,"byteOffset":337552,"componentType":5126,"count":488,"type":"VEC4","name":"accessorTangents"},{"bufferView":1,"byteOffset":512184,"componentType":5126,"count":488,"type":"VEC3","name":"accessorNormals"},{"bufferView":3,"byteOffset":168776,"componentType":5126,"count":488,"type":"VEC2","name":"accessorUVs"},{"bufferView":0,"byteOffset":120768,"componentType":5123,"count":1428,"type":"SCALAR","name":"accessorIndices"},{"bufferView":1,"byteOffset":518040,"componentType":5126,"count":488,"max":[0.5342128,0.028575,0.0079375],"min":[6.358873E-15,-0.028575,-0.0079375],"type":"VEC3","name":"accessorPositions"},{"bufferView":2,"byteOffset":345360,"componentType":5126,"count":488,"type":"VEC4","name":"accessorTangents"},{"bufferView":1,"byteOffset":523896,"componentType":5126,"count":488,"type":"VEC3","name":"accessorNormals"},{"bufferView":3,"byteOffset":172680,"componentType":5126,"count":488,"type":"VEC2","name":"accessorUVs"},{"bufferView":0,"byteOffset":123624,"componentType":5123,"count":1428,"type":"SCALAR","name":"accessorIndices"},{"bufferView":1,"byteOffset":529752,"componentType":5126,"count":488,"max":[0.5342128,0.028575,0.0079375],"min":[6.358873E-15,-0.028575,-0.0079375],"type":"VEC3","name":"accessorPositions"},{"bufferView":2,"byteOffset":353168,"componentType":5126,"count":488,"type":"VEC4","name":"accessorTangents"},{"bufferView":1,"byteOffset":535608,"componentType":5126,"count":488,"type":"VEC3","name":"accessorNormals"},{"bufferView":3,"byteOffset":176584,"componentType":5126,"count":488,"type":"VEC2","name":"accessorUVs"},{"bufferView":0,"byteOffset":126480,"componentType":5123,"count":1428,"type":"SCALAR","name":"accessorIndices"},{"bufferView":1,"byteOffset":541464,"componentType":5126,"count":488,"max":[0.5342128,0.028575,0.0079375],"min":[6.358873E-15,-0.028575,-0.0079375],"type":"VEC3","name":"accessorPositions"},{"bufferView":2,"byteOffset":360976,"componentType":5126,"count":488,"type":"VEC4","name":"accessorTangents"},{"bufferView":1,"byteOffset":547320,"componentType":5126,"count":488,"type":"VEC3","name":"accessorNormals"},{"bufferView":3,"byteOffset":180488,"componentType":5126,"count":488,"type":"VEC2","name":"accessorUVs"},{"bufferView":0,"byteOffset":129336,"componentType":5123,"count":1428,"type":"SCALAR","name":"accessorIndices"},{"bufferView":1,"byteOffset":553176,"componentType":5126,"count":488,"max":[0.5342128,0.028575,0.0079375],"min":[6.358873E-15,-0.028575,-0.0079375],"type":"VEC3","name":"accessorPositions"},{"bufferView":2,"byteOffset":368784,"componentType":5126,"count":488,"type":"VEC4","name":"accessorTangents"},{"bufferView":1,"byteOffset":559032,"componentType":5126,"count":488,"type":"VEC3","name":"accessorNormals"},{"bufferView":3,"byteOffset":184392,"componentType":5126,"count":488,"type":"VEC2","name":"accessorUVs"},{"bufferView":0,"byteOffset":132192,"componentType":5123,"count":1428,"type":"SCALAR","name":"accessorIndices"},{"bufferView":1,"byteOffset":564888,"componentType":5126,"count":488,"max":[0.5342128,0.028575,0.0079375],"min":[6.358873E-15,-0.028575,-0.0079375],"type":"VEC3","name":"accessorPositions"},{"bufferView":2,"byteOffset":376592,"componentType":5126,"count":488,"type":"VEC4","name":"accessorTangents"},{"bufferView":1,"byteOffset":570744,"componentType":5126,"count":488,"type":"VEC3","name":"accessorNormals"},{"bufferView":3,"byteOffset":188296,"componentType":5126,"count":488,"type":"VEC2","name":"accessorUVs"},{"bufferView":0,"byteOffset":135048,"componentType":5123,"count":1428,"type":"SCALAR","name":"accessorIndices"},{"bufferView":1,"byteOffset":576600,"componentType":5126,"count":488,"max":[0.5342128,0.028575,0.0079375],"min":[6.358873E-15,-0.028575,-0.0079375],"type":"VEC3","name":"accessorPositions"},{"bufferView":2,"byteOffset":384400,"componentType":5126,"count":488,"type":"VEC4","name":"accessorTangents"},{"bufferView":1,"byteOffset":582456,"componentType":5126,"count":488,"type":"VEC3","name":"accessorNormals"},{"bufferView":3,"byteOffset":192200,"componentType":5126,"count":488,"type":"VEC2","name":"accessorUVs"},{"bufferView":0,"byteOffset":137904,"componentType":5123,"count":1428,"type":"SCALAR","name":"accessorIndices"},{"bufferView":1,"byteOffset":588312,"componentType":5126,"count":488,"max":[0.5342128,0.028575,0.0079375],"min":[6.358873E-15,-0.028575,-0.0079375],"type":"VEC3","name":"accessorPositions"},{"bufferView":2,"byteOffset":392208,"componentType":5126,"count":488,"type":"VEC4","name":"accessorTangents"},{"bufferView":1,"byteOffset":594168,"componentType":5126,"count":488,"type":"VEC3","name":"accessorNormals"},{"bufferView":3,"byteOffset":196104,"componentType":5126,"count":488,"type":"VEC2","name":"accessorUVs"},{"bufferView":0,"byteOffset":140760,"componentType":5123,"count":1428,"type":"SCALAR","name":"accessorIndices"},{"bufferView":1,"byteOffset":600024,"componentType":5126,"count":488,"max":[0.5342128,0.028575,0.0079375],"min":[6.358873E-15,-0.028575,-0.0079375],"type":"VEC3","name":"accessorPositions"},{"bufferView":2,"byteOffset":400016,"componentType":5126,"count":488,"type":"VEC4","name":"accessorTangents"},{"bufferView":1,"byteOffset":605880,"componentType":5126,"count":488,"type":"VEC3","name":"accessorNormals"},{"bufferView":3,"byteOffset":200008,"componentType":5126,"count":488,"type":"VEC2","name":"accessorUVs"},{"bufferView":0,"byteOffset":143616,"componentType":5123,"count":1428,"type":"SCALAR","name":"accessorIndices"},{"bufferView":1,"byteOffset":611736,"componentType":5126,"count":488,"max":[0.5342128,0.028575,0.0079375],"min":[6.358873E-15,-0.028575,-0.0079375],"type":"VEC3","name":"accessorPositions"},{"bufferView":2,"byteOffset":407824,"componentType":5126,"count":488,"type":"VEC4","name":"accessorTangents"},{"bufferView":1,"byteOffset":617592,"componentType":5126,"count":488,"type":"VEC3","name":"accessorNormals"},{"bufferView":3,"byteOffset":203912,"componentType":5126,"count":488,"type":"VEC2","name":"accessorUVs"},{"bufferView":0,"byteOffset":146472,"componentType":5123,"count":23592,"type":"SCALAR","name":"accessorIndices"},{"bufferView":1,"byteOffset":623448,"componentType":5126,"count":4517,"max":[0.39583397,0.010935474,0.5296723],"min":[-1.4910393,-0.7633694,-0.5296722],"type":"VEC3","name":"accessorPositions"},{"bufferView":2,"byteOffset":415632,"componentType":5126,"count":4517,"type":"VEC4","name":"accessorTangents"},{"bufferView":1,"byteOffset":677652,"componentType":5126,"count":4517,"type":"VEC3","name":"accessorNormals"},{"bufferView":3,"byteOffset":207816,"componentType":5126,"count":4517,"type":"VEC2","name":"accessorUVs"},{"bufferView":0,"byteOffset":193656,"componentType":5123,"count":246,"type":"SCALAR","name":"accessorIndices"},{"bufferView":1,"byteOffset":731856,"componentType":5126,"count":84,"max":[0.39583397,0.0109354425,-0.49157217],"min":[0.39583364,-0.035273023,-0.5296722],"type":"VEC3","name":"accessorPositions"},{"bufferView":2,"byteOffset":487904,"componentType":5126,"count":84,"type":"VEC4","name":"accessorTangents"},{"bufferView":1,"byteOffset":732864,"componentType":5126,"count":84,"type":"VEC3","name":"accessorNormals"},{"bufferView":3,"byteOffset":243952,"componentType":5126,"count":84,"type":"VEC2","name":"accessorUVs"},{"bufferView":0,"byteOffset":194148,"componentType":5123,"count":4080,"type":"SCALAR","name":"accessorIndices"},{"bufferView":1,"byteOffset":733872,"componentType":5126,"count":1526,"max":[-0.112981424,-0.056437153,0.019062843],"min":[-0.98222625,-0.6959965,-0.019062744],"type":"VEC3","name":"accessorPositions"},{"bufferView":2,"byteOffset":489248,"componentType":5126,"count":1526,"type":"VEC4","name":"accessorTangents"},{"bufferView":1,"byteOffset":752184,"componentType":5126,"count":1526,"type":"VEC3","name":"accessorNormals"},{"bufferView":3,"byteOffset":244624,"componentType":5126,"count":1526,"type":"VEC2","name":"accessorUVs"},{"bufferView":0,"byteOffset":202308,"componentType":5123,"count":738,"type":"SCALAR","name":"accessorIndices"},{"bufferView":1,"byteOffset":770496,"componentType":5126,"count":252,"max":[-0.112981424,-0.056437153,0.019062843],"min":[-0.98222625,-0.6959965,-0.019062744],"type":"VEC3","name":"accessorPositions"},{"bufferView":2,"byteOffset":513664,"componentType":5126,"count":252,"type":"VEC4","name":"accessorTangents"},{"bufferView":1,"byteOffset":773520,"componentType":5126,"count":252,"type":"VEC3","name":"accessorNormals"},{"bufferView":3,"byteOffset":256832,"componentType":5126,"count":252,"type":"VEC2","name":"accessorUVs"},{"bufferView":0,"byteOffset":203784,"componentType":5123,"count":168,"type":"SCALAR","name":"accessorIndices"},{"bufferView":1,"byteOffset":776544,"componentType":5126,"count":99,"max":[0.007160028,0.7945839,0.53302854],"min":[-0.007164679,-0.7945839,-0.53302765],"type":"VEC3","name":"accessorPositions"},{"bufferView":2,"byteOffset":517696,"componentType":5126,"count":99,"type":"VEC4","name":"accessorTangents"},{"bufferView":1,"byteOffset":777732,"componentType":5126,"count":99,"type":"VEC3","name":"accessorNormals"},{"bufferView":3,"byteOffset":258848,"componentType":5126,"count":99,"type":"VEC2","name":"accessorUVs"},{"bufferView":0,"byteOffset":204120,"componentType":5123,"count":2994,"type":"SCALAR","name":"accessorIndices"},{"bufferView":1,"byteOffset":778920,"componentType":5126,"count":1043,"max":[0.44326597,0.30061945,0.019136041],"min":[-0.44326365,-0.3006193,-0.019133717],"type":"VEC3","name":"accessorPositions"},{"bufferView":2,"byteOffset":519280,"componentType":5126,"count":1043,"type":"VEC4","name":"accessorTangents"},{"bufferView":1,"byteOffset":791436,"componentType":5126,"count":1043,"type":"VEC3","name":"accessorNormals"},{"bufferView":3,"byteOffset":259640,"componentType":5126,"count":1043,"type":"VEC2","name":"accessorUVs"},{"bufferView":0,"byteOffset":210108,"componentType":5123,"count":456,"type":"SCALAR","name":"accessorIndices"},{"bufferView":1,"byteOffset":803952,"componentType":5126,"count":156,"max":[0.44326597,0.30061945,0.019129066],"min":[-0.44326365,-0.30061612,-0.019133717],"type":"VEC3","name":"accessorPositions"},{"bufferView":2,"byteOffset":535968,"componentType":5126,"count":156,"type":"VEC4","name":"accessorTangents"},{"bufferView":1,"byteOffset":805824,"componentType":5126,"count":156,"type":"VEC3","name":"accessorNormals"},{"bufferView":3,"byteOffset":267984,"componentType":5126,"count":156,"type":"VEC2","name":"accessorUVs"},{"bufferView":0,"byteOffset":211020,"componentType":5123,"count":2679,"type":"SCALAR","name":"accessorIndices"},{"bufferView":1,"byteOffset":807696,"componentType":5126,"count":926,"max":[0.036437485,0.5728089,0.019061409],"min":[-0.8287076,-0.028500414,-0.019061845],"type":"VEC3","name":"accessorPositions"},{"bufferView":2,"byteOffset":538464,"componentType":5126,"count":926,"type":"VEC4","name":"accessorTangents"},{"bufferView":1,"byteOffset":818808,"componentType":5126,"count":926,"type":"VEC3","name":"accessorNormals"},{"bufferView":3,"byteOffset":269232,"componentType":5126,"count":926,"type":"VEC2","name":"accessorUVs"},{"bufferView":0,"byteOffset":216380,"componentType":5123,"count":246,"type":"SCALAR","name":"accessorIndices"},{"bufferView":1,"byteOffset":829920,"componentType":5126,"count":84,"max":[0.036437485,0.017726,0.019061409],"min":[0.03643737,-0.028500414,-0.019038592],"type":"VEC3","name":"accessorPositions"},{"bufferView":2,"byteOffset":553280,"componentType":5126,"count":84,"type":"VEC4","name":"accessorTangents"},{"bufferView":1,"byteOffset":830928,"componentType":5126,"count":84,"type":"VEC3","name":"accessorNormals"},{"bufferView":3,"byteOffset":276640,"componentType":5126,"count":84,"type":"VEC2","name":"accessorUVs"},{"bufferView":0,"byteOffset":216872,"componentType":5123,"count":132,"type":"SCALAR","name":"accessorIndices"},{"bufferView":1,"byteOffset":831936,"componentType":5126,"count":82,"max":[0.67253757,0.76435065,0.0071501],"min":[-0.1888937,-0.7240815,-0.0071501],"type":"VEC3","name":"accessorPositions"},{"bufferView":2,"byteOffset":554624,"componentType":5126,"count":82,"type":"VEC4","name":"accessorTangents"},{"bufferView":1,"byteOffset":832920,"componentType":5126,"count":82,"type":"VEC3","name":"accessorNormals"},{"bufferView":3,"byteOffset":277312,"componentType":5126,"count":82,"type":"VEC2","name":"accessorUVs"},{"bufferView":0,"byteOffset":217136,"componentType":5123,"count":132,"type":"SCALAR","name":"accessorIndices"},{"bufferView":1,"byteOffset":833904,"componentType":5126,"count":96,"max":[0.40886727,0.3245767,0.0071501],"min":[-0.35996616,-0.52949834,-0.0071501],"type":"VEC3","name":"accessorPositions"},{"bufferView":2,"byteOffset":555936,"componentType":5126,"count":96,"type":"VEC4","name":"accessorTangents"},{"bufferView":1,"byteOffset":835056,"componentType":5126,"count":96,"type":"VEC3","name":"accessorNormals"},{"bufferView":3,"byteOffset":277968,"componentType":5126,"count":96,"type":"VEC2","name":"accessorUVs"},{"bufferView":0,"byteOffset":217400,"componentType":5123,"count":132,"type":"SCALAR","name":"accessorIndices"},{"bufferView":1,"byteOffset":836208,"componentType":5126,"count":96,"max":[0.70101464,0.3245767,0.0071501],"min":[-0.35996616,-0.52949834,-0.0071501],"type":"VEC3","name":"accessorPositions"},{"bufferView":2,"byteOffset":557472,"componentType":5126,"count":96,"type":"VEC4","name":"accessorTangents"},{"bufferView":1,"byteOffset":837360,"componentType":5126,"count":96,"type":"VEC3","name":"accessorNormals"},{"bufferView":3,"byteOffset":278736,"componentType":5126,"count":96,"type":"VEC2","name":"accessorUVs"},{"bufferView":0,"byteOffset":217664,"componentType":5123,"count":132,"type":"SCALAR","name":"accessorIndices"},{"bufferView":1,"byteOffset":838512,"componentType":5126,"count":82,"max":[0.37704316,0.70856416,0.0071501],"min":[-0.39211252,-0.71716493,-0.0071501],"type":"VEC3","name":"accessorPositions"},{"bufferView":2,"byteOffset":559008,"componentType":5126,"count":82,"type":"VEC4","name":"accessorTangents"},{"bufferView":1,"byteOffset":839496,"componentType":5126,"count":82,"type":"VEC3","name":"accessorNormals"},{"bufferView":3,"byteOffset":279504,"componentType":5126,"count":82,"type":"VEC2","name":"accessorUVs"},{"bufferView":0,"byteOffset":217928,"componentType":5123,"count":168,"type":"SCALAR","name":"accessorIndices"},{"bufferView":1,"byteOffset":840480,"componentType":5126,"count":109,"max":[0.77951753,0.0071501,1.4337071],"min":[-0.068804964,-0.0071501024,-0.0],"type":"VEC3","name":"accessorPositions"},{"bufferView":2,"byteOffset":560320,"componentType":5126,"count":109,"type":"VEC4","name":"accessorTangents"},{"bufferView":1,"byteOffset":841788,"componentType":5126,"count":109,"type":"VEC3","name":"accessorNormals"},{"bufferView":3,"byteOffset":280160,"componentType":5126,"count":109,"type":"VEC2","name":"accessorUVs"},{"bufferView":0,"byteOffset":218264,"componentType":5123,"count":432,"type":"SCALAR","name":"accessorIndices"},{"bufferView":1,"byteOffset":843096,"componentType":5126,"count":146,"max":[0.0476504,0.015875,0.015875],"min":[-0.0348996,-0.015875,-0.015875],"type":"VEC3","name":"accessorPositions"},{"bufferView":2,"byteOffset":562064,"componentType":5126,"count":146,"type":"VEC4","name":"accessorTangents"},{"bufferView":1,"byteOffset":844848,"componentType":5126,"count":146,"type":"VEC3","name":"accessorNormals"},{"bufferView":3,"byteOffset":281032,"componentType":5126,"count":146,"type":"VEC2","name":"accessorUVs"},{"bufferView":0,"byteOffset":219128,"componentType":5123,"count":420,"type":"SCALAR","name":"accessorIndices"},{"bufferView":1,"byteOffset":846600,"componentType":5126,"count":144,"max":[0.0476504,0.015875,0.015875],"min":[-0.0348996,-0.015875,-0.015875],"type":"VEC3","name":"accessorPositions"},{"bufferView":2,"byteOffset":564400,"componentType":5126,"count":144,"type":"VEC4","name":"accessorTangents"},{"bufferView":1,"byteOffset":848328,"componentType":5126,"count":144,"type":"VEC3","name":"accessorNormals"},{"bufferView":3,"byteOffset":282200,"componentType":5126,"count":144,"type":"VEC2","name":"accessorUVs"},{"bufferView":0,"byteOffset":219968,"componentType":5123,"count":864,"type":"SCALAR","name":"accessorIndices"},{"bufferView":1,"byteOffset":850056,"componentType":5126,"count":292,"max":[0.006604,0.015875,0.015875],"min":[-0.022722581,-0.015875,-0.015875],"type":"VEC3","name":"accessorPositions"},{"bufferView":2,"byteOffset":566704,"componentType":5126,"count":292,"type":"VEC4","name":"accessorTangents"},{"bufferView":1,"byteOffset":853560,"componentType":5126,"count":292,"type":"VEC3","name":"accessorNormals"},{"bufferView":3,"byteOffset":283352,"componentType":5126,"count":292,"type":"VEC2","name":"accessorUVs"},{"bufferView":0,"byteOffset":221696,"componentType":5123,"count":858,"type":"SCALAR","name":"accessorIndices"},{"bufferView":1,"byteOffset":857064,"componentType":5126,"count":289,"max":[0.006604,0.015875,0.015875],"min":[-0.022722581,-0.015875,-0.015875],"type":"VEC3","name":"accessorPositions"},{"bufferView":2,"byteOffset":571376,"componentType":5126,"count":289,"type":"VEC4","name":"accessorTangents"},{"bufferView":1,"byteOffset":860532,"componentType":5126,"count":289,"type":"VEC3","name":"accessorNormals"},{"bufferView":3,"byteOffset":285688,"componentType":5126,"count":289,"type":"VEC2","name":"accessorUVs"},{"bufferView":0,"byteOffset":223412,"componentType":5123,"count":1440,"type":"SCALAR","name":"accessorIndices"},{"bufferView":1,"byteOffset":864000,"componentType":5126,"count":484,"max":[0.012700001,0.012700001,-8.253881E-15],"min":[-0.012700001,-0.012700001,-0.0015748],"type":"VEC3","name":"accessorPositions"},{"bufferView":2,"byteOffset":576000,"componentType":5126,"count":484,"type":"VEC4","name":"accessorTangents"},{"bufferView":1,"byteOffset":869808,"componentType":5126,"count":484,"type":"VEC3","name":"accessorNormals"},{"bufferView":3,"byteOffset":288000,"componentType":5126,"count":484,"type":"VEC2","name":"accessorUVs"},{"bufferView":0,"byteOffset":226292,"componentType":5123,"count":1428,"type":"SCALAR","name":"accessorIndices"},{"bufferView":1,"byteOffset":875616,"componentType":5126,"count":488,"max":[0.5342128,0.028575,0.0079375],"min":[6.358873E-15,-0.028575,-0.0079375],"type":"VEC3","name":"accessorPositions"},{"bufferView":2,"byteOffset":583744,"componentType":5126,"count":488,"type":"VEC4","name":"accessorTangents"},{"bufferView":1,"byteOffset":881472,"componentType":5126,"count":488,"type":"VEC3","name":"accessorNormals"},{"bufferView":3,"byteOffset":291872,"componentType":5126,"count":488,"type":"VEC2","name":"accessorUVs"},{"bufferView":0,"byteOffset":229148,"componentType":5123,"count":1428,"type":"SCALAR","name":"accessorIndices"},{"bufferView":1,"byteOffset":887328,"componentType":5126,"count":488,"max":[0.5342128,0.028575,0.0079375],"min":[6.358873E-15,-0.028575,-0.0079375],"type":"VEC3","name":"accessorPositions"},{"bufferView":2,"byteOffset":591552,"componentType":5126,"count":488,"type":"VEC4","name":"accessorTangents"},{"bufferView":1,"byteOffset":893184,"componentType":5126,"count":488,"type":"VEC3","name":"accessorNormals"},{"bufferView":3,"byteOffset":295776,"componentType":5126,"count":488,"type":"VEC2","name":"accessorUVs"},{"bufferView":0,"byteOffset":232004,"componentType":5123,"count":1428,"type":"SCALAR","name":"accessorIndices"},{"bufferView":1,"byteOffset":899040,"componentType":5126,"count":488,"max":[0.5342128,0.028575,0.0079375],"min":[6.358873E-15,-0.028575,-0.0079375],"type":"VEC3","name":"accessorPositions"},{"bufferView":2,"byteOffset":599360,"componentType":5126,"count":488,"type":"VEC4","name":"accessorTangents"},{"bufferView":1,"byteOffset":904896,"componentType":5126,"count":488,"type":"VEC3","name":"accessorNormals"},{"bufferView":3,"byteOffset":299680,"componentType":5126,"count":488,"type":"VEC2","name":"accessorUVs"},{"bufferView":0,"byteOffset":234860,"componentType":5123,"count":1428,"type":"SCALAR","name":"accessorIndices"},{"bufferView":1,"byteOffset":910752,"componentType":5126,"count":488,"max":[0.451866,0.028575,0.0079375],"min":[6.358873E-15,-0.028575,-0.0079375],"type":"VEC3","name":"accessorPositions"},{"bufferView":2,"byteOffset":607168,"componentType":5126,"count":488,"type":"VEC4","name":"accessorTangents"},{"bufferView":1,"byteOffset":916608,"componentType":5126,"count":488,"type":"VEC3","name":"accessorNormals"},{"bufferView":3,"byteOffset":303584,"componentType":5126,"count":488,"type":"VEC2","name":"accessorUVs"},{"bufferView":0,"byteOffset":237716,"componentType":5123,"count":1428,"type":"SCALAR","name":"accessorIndices"},{"bufferView":1,"byteOffset":922464,"componentType":5126,"count":488,"max":[0.451866,0.028575,0.0079375],"min":[6.358873E-15,-0.028575,-0.0079375],"type":"VEC3","name":"accessorPositions"},{"bufferView":2,"byteOffset":614976,"componentType":5126,"count":488,"type":"VEC4","name":"accessorTangents"},{"bufferView":1,"byteOffset":928320,"componentType":5126,"count":488,"type":"VEC3","name":"accessorNormals"},{"bufferView":3,"byteOffset":307488,"componentType":5126,"count":488,"type":"VEC2","name":"accessorUVs"},{"bufferView":0,"byteOffset":240572,"componentType":5123,"count":1428,"type":"SCALAR","name":"accessorIndices"},{"bufferView":1,"byteOffset":934176,"componentType":5126,"count":488,"max":[0.451866,0.028575,0.0079375],"min":[6.358873E-15,-0.028575,-0.0079375],"type":"VEC3","name":"accessorPositions"},{"bufferView":2,"byteOffset":622784,"componentType":5126,"count":488,"type":"VEC4","name":"accessorTangents"},{"bufferView":1,"byteOffset":940032,"componentType":5126,"count":488,"type":"VEC3","name":"accessorNormals"},{"bufferView":3,"byteOffset":311392,"componentType":5126,"count":488,"type":"VEC2","name":"accessorUVs"},{"bufferView":0,"byteOffset":243428,"componentType":5123,"count":1428,"type":"SCALAR","name":"accessorIndices"},{"bufferView":1,"byteOffset":945888,"componentType":5126,"count":488,"max":[0.451866,0.028575,0.0079375],"min":[6.358873E-15,-0.028575,-0.0079375],"type":"VEC3","name":"accessorPositions"},{"bufferView":2,"byteOffset":630592,"componentType":5126,"count":488,"type":"VEC4","name":"accessorTangents"},{"bufferView":1,"byteOffset":951744,"componentType":5126,"count":488,"type":"VEC3","name":"accessorNormals"},{"bufferView":3,"byteOffset":315296,"componentType":5126,"count":488,"type":"VEC2","name":"accessorUVs"},{"bufferView":0,"byteOffset":246284,"componentType":5123,"count":33444,"type":"SCALAR","name":"accessorIndices"},{"bufferView":1,"byteOffset":957600,"componentType":5126,"count":6765,"max":[0.5296706,-0.72898805,1.4910585],"min":[-0.52966243,-0.7625488,1.163663],"type":"VEC3","name":"accessorPositions"},{"bufferView":2,"byteOffset":638400,"componentType":5126,"count":6765,"type":"VEC4","name":"accessorTangents"},{"bufferView":1,"byteOffset":1038780,"componentType":5126,"count":6765,"type":"VEC3","name":"accessorNormals"},{"bufferView":3,"byteOffset":319200,"componentType":5126,"count":6765,"type":"VEC2","name":"accessorUVs"},{"bufferView":0,"byteOffset":313172,"componentType":5123,"count":1428,"type":"SCALAR","name":"accessorIndices"},{"bufferView":1,"byteOffset":1119960,"componentType":5126,"count":488,"max":[0.5342128,0.028575,0.0079375],"min":[6.358873E-15,-0.028575,-0.0079375],"type":"VEC3","name":"accessorPositions"},{"bufferView":2,"byteOffset":746640,"componentType":5126,"count":488,"type":"VEC4","name":"accessorTangents"},{"bufferView":1,"byteOffset":1125816,"componentType":5126,"count":488,"type":"VEC3","name":"accessorNormals"},{"bufferView":3,"byteOffset":373320,"componentType":5126,"count":488,"type":"VEC2","name":"accessorUVs"},{"bufferView":0,"byteOffset":316028,"componentType":5123,"count":1428,"type":"SCALAR","name":"accessorIndices"},{"bufferView":1,"byteOffset":1131672,"componentType":5126,"count":488,"max":[0.5342128,0.028575,0.0079375],"min":[6.358873E-15,-0.028575,-0.0079375],"type":"VEC3","name":"accessorPositions"},{"bufferView":2,"byteOffset":754448,"componentType":5126,"count":488,"type":"VEC4","name":"accessorTangents"},{"bufferView":1,"byteOffset":1137528,"componentType":5126,"count":488,"type":"VEC3","name":"accessorNormals"},{"bufferView":3,"byteOffset":377224,"componentType":5126,"count":488,"type":"VEC2","name":"accessorUVs"},{"bufferView":0,"byteOffset":318884,"componentType":5123,"count":2064,"type":"SCALAR","name":"accessorIndices"},{"bufferView":1,"byteOffset":1143384,"componentType":5126,"count":724,"max":[0.019054687,-0.10462099,0.80214816],"min":[-0.019041477,-0.38715136,-0.05929453],"type":"VEC3","name":"accessorPositions"},{"bufferView":2,"byteOffset":762256,"componentType":5126,"count":724,"type":"VEC4","name":"accessorTangents"},{"bufferView":1,"byteOffset":1152072,"componentType":5126,"count":724,"type":"VEC3","name":"accessorNormals"},{"bufferView":3,"byteOffset":381128,"componentType":5126,"count":724,"type":"VEC2","name":"accessorUVs"}],"bufferViews":[{"buffer":0,"byteLength":323012,"name":"bufferViewScalar"},{"buffer":0,"byteOffset":323012,"byteLength":1160760,"byteStride":12,"name":"bufferViewFloatVec3"},{"buffer":0,"byteOffset":1483772,"byteLength":773840,"byteStride":16,"name":"bufferViewFloatVec4"},{"buffer":0,"byteOffset":2257612,"byteLength":386920,"byteStride":8,"name":"bufferViewFloatVec2"}],"buffers":[{"uri":"U-Shaped_Railing_Lo-Post_Elliptical.bin","byteLength":2644532}],"materials":[{"pbrMetallicRoughness":{"baseColorFactor":[0.9999998,0.9999999,0.9999999,1.0],"metallicFactor":0.0,"roughnessFactor":0.1},"name":"Glass","extensions":{"KHR_materials_ior":{"ior":1.0},"KHR_materials_transmission":{"transmissionFactor":0.97},"KHR_materials_volume":{"thicknessFactor":0.56,"attenuationDistance":0.5,"attenuationColor":[0.49521634,0.56476736,0.5317566]}}},{"pbrMetallicRoughness":{"baseColorFactor":[0.9999998,0.9999999,0.9999999,1.0],"baseColorTexture":{"index":0,"extensions":{"KHR_texture_transform":{"offset":[0.19519997,0.8048],"rotation":1.5707964,"scale":[0.6096,0.6096],"texCoord":0}}},"roughnessFactor":0.2,"metallicRoughnessTexture":{"index":0,"extensions":{"KHR_texture_transform":{"offset":[0.19519997,0.8048],"rotation":1.5707964,"scale":[0.6096,0.6096],"texCoord":0}}}},"name":"Steel_Linear"},{"pbrMetallicRoughness":{"baseColorFactor":[0.9999998,0.9999999,0.9999999,1.0],"baseColorTexture":{"index":1},"roughnessFactor":0.2,"metallicRoughnessTexture":{"index":1}},"name":"Steel_Radial"},{"pbrMetallicRoughness":{"baseColorFactor":[0.10641303,0.10641304,0.10641304,1.0],"metallicFactor":0.0,"roughnessFactor":0.99,"metallicRoughnessTexture":{"index":2}},"name":"Rubber","extensions":{"KHR_materials_specular":{"specularFactor":0.1}}}],"textures":[{"sampler":0,"source":0,"name":"Metal_Brushed_Linear_4k.jpg"},{"sampler":0,"source":1,"name":"Metal_Brushed_Radial_4k.jpg"},{"sampler":0,"source":2,"name":"PowderCoat_Roughness_2k0.jpg"}],"images":[{"uri":"textures/Metal_Brushed_Linear_4k.jpg"},{"uri":"textures/Metal_Brushed_Radial_4k.jpg"},{"uri":"textures/PowderCoat_Roughness_2k0.jpg"}],"samplers":[{"magFilter":9729,"minFilter":9987}]}