{"asset":{"version":"2.0","generator":"babylon.js glTF exporter for 3dsmax 2026 v20251111.2"},"extensionsUsed":["KHR_materials_ior","KHR_materials_transmission","KHR_materials_volume","KHR_texture_transform","KHR_materials_specular"],"extensionsRequired":["KHR_texture_transform"],"scene":0,"scenes":[{"nodes":[0,1,2,3,4,5,6,7,8,9,10,11,12,13,14,15,16,17,18,19,20,21,22,23,24,25,26,27,28,29,30,31,32,33,34,35,36,37,38,39,40,41,42,43,44,45,46,47,48,49,50,51,52,53,54,55,56,57,58,59,60,61,62,63,64,65,66,67,68,69,70,71,72,73,74,75,76,77,78,79,80,81,82,83,84,85,86,87,88,89,90,91,92,93,94,95,96,97,98,99,100,101,102,103,104,105,106,107,108,109,110,111,112,113,114,115,116,117,118,119,120,121,122,123,124,125,126,127,128,129,130,131,132,133,134,135,136,137,138,139,140,141,142,143,144,145,146,147,148,149,150,151,152,153,154,155,156,157,158,159,160,161,162,163,164,165,166,167,168,169,170,171,172,173,174,175,176,177,178,179,180,181,182,183,184,185,186,187,188,189,190,191,192,193,194,195,196,197,198,199,200,201,202,203,204,205,206,207,208,209,210,211,212,213,214,215,216,217,218,219,220,221,222,223,224,225,226,227,228,229,230,231,232,233,234,235,236,237,238,239,240,241,242,243,244,245,246,247,248,249,250,251,252,253,254,255,256,257,258,259,260,261,262,263,264,265]}],"nodes":[{"mesh":0,"translation":[-0.18280497,2.1652887,-0.076767445],"name":"Infill_Glass_Raked & Horizontal Generic [8199751]"},{"mesh":1,"translation":[1.416044,3.26257,-0.076767445],"name":"Infill_Glass_Raked & Horizontal Generic [8200579]"},{"mesh":2,"translation":[-0.42627385,2.04216,-0.07332812],"rotation":[-0.0,-0.7071068,0.0,0.7071067],"name":"Infill_Glass_Raked & Horizontal Generic [8201308]"},{"mesh":3,"translation":[-0.29053095,2.19456,0.19472066],"rotation":[0.7071068,-0.0,0.0,0.7071067],"name":"Infill_Glass_Transition Generic [8202170]"},{"mesh":4,"translation":[0.89538735,0.92937434,0.19472066],"rotation":[-0.0,-1.0,0.0,-4.371139E-08],"name":"Infill_Glass_Raked & Horizontal Generic [8202939]"},{"mesh":5,"translation":[28.89472,0.0,27.28077],"name":"Generic Models 1 Generic Models 1 [8568048]"},{"mesh":6,"translation":[28.89472,0.0,27.28077],"name":"Generic Models 2 Generic Models 2 [8568681]"},{"mesh":7,"translation":[0.89538735,0.9293959,1.1424326],"rotation":[-0.0,-1.0,0.0,-4.371139E-08],"name":"Infill_Glass_Raked & Horizontal Generic [8735940]"},{"mesh":8,"translation":[28.89472,0.0,27.28077],"name":"Generic Models 10 Generic Models 1 [8735975]"},{"mesh":9,"translation":[1.416044,3.2625408,-1.0244794],"rotation":[-0.0,3.133859E-15,0.0,1.0],"name":"Infill_Glass_Raked & Horizontal Generic [8736296]"},{"mesh":10,"translation":[-0.9978901,1.8699833,-1.0244794],"rotation":[-0.0,3.133859E-15,0.0,1.0],"name":"Infill_Glass_Raked & Horizontal Generic [8737682]"},{"mesh":11,"translation":[28.89472,0.0,27.28077],"name":"Casework 1 Casework 1 [8738332]"},{"mesh":12,"translation":[-1.3739858,1.8699833,-0.64838374],"rotation":[-0.0,-0.7071068,0.0,0.7071067],"name":"Infill_Glass_Raked & Horizontal Generic [8738822]"},{"mesh":13,"translation":[-1.3739858,1.8699833,0.76633686],"rotation":[-0.0,0.7071068,0.0,0.7071067],"name":"Infill_Glass_Raked & Horizontal Generic [8739062]"},{"mesh":14,"translation":[-0.9978901,1.8699833,1.1424326],"name":"Infill_Glass_Raked & Horizontal Generic [8739156]"},{"mesh":15,"translation":[0.096873306,1.4780358,1.1424326],"rotation":[-0.0,-1.0,0.0,-4.371139E-08],"name":"Infill_Glass_Raked & Horizontal Generic [8739593]"},{"mesh":16,"translation":[-0.17041285,1.0972801,0.13834737],"rotation":[-0.5,-0.50000006,0.5,0.49999994],"name":"LS201 & LS202 - Konic Post Material LS Material [9048501]001"},{"mesh":17,"translation":[-0.1701059,1.4630404,-0.020391779],"rotation":[0.5000001,0.49999997,0.49999985,0.50000006],"name":"LS201 & LS202 - Konic Post Material LS Material [9048531]001"},{"mesh":18,"translation":[0.36284298,1.8288,-0.020391779],"rotation":[0.5000001,0.49999997,0.49999985,0.50000006],"name":"LS201 & LS202 - Konic Post Material LS Material [9048551]001"},{"mesh":19,"translation":[0.6293151,2.01168,-0.020391779],"rotation":[0.5000001,0.49999997,0.49999985,0.50000006],"name":"LS201 & LS202 - Konic Post Material LS Material [9048569]001"},{"mesh":20,"translation":[1.4287454,2.56032,-0.020391779],"rotation":[0.5000001,0.49999997,0.49999985,0.50000006],"name":"LS201 & LS202 - Konic Post Material LS Material [9048587]001"},{"mesh":21,"translation":[-0.36989835,1.2801597,0.05897547],"rotation":[-0.7071067,-0.7071068,-1.784226E-07,-1.784226E-07],"name":"LS201 & LS202 - Konic Post Material LS Material [9048608]001"},{"mesh":22,"translation":[0.36256856,0.7315199,0.13834737],"rotation":[-0.5,-0.50000006,0.5,0.49999994],"name":"LS201 & LS202 - Konic Post Material LS Material [9048616]001"},{"mesh":23,"translation":[0.6281012,0.5486401,0.13834737],"rotation":[-0.5,-0.50000006,0.5,0.49999994],"name":"LS201 & LS202 - Konic Post Material LS Material [9048634]001"},{"mesh":24,"translation":[1.1604408,0.18288012,0.13834737],"rotation":[-0.5,-0.50000006,0.5,0.49999994],"name":"LS201 & LS202 - Konic Post Material LS Material [9048652]001"},{"mesh":25,"translation":[-0.17041285,1.0972801,1.1988082],"rotation":[0.5000001,0.49999997,0.49999985,0.50000006],"name":"LS201 & LS202 - Konic Post Material LS Material [9048819]001"},{"mesh":26,"translation":[0.36256856,0.7315199,1.1988082],"rotation":[0.5000001,0.49999997,0.49999985,0.50000006],"name":"LS201 & LS202 - Konic Post Material LS Material [9048824]001"},{"mesh":27,"translation":[0.6281012,0.5486401,1.1988082],"rotation":[0.5000001,0.49999997,0.49999985,0.50000006],"name":"LS201 & LS202 - Konic Post Material LS Material [9048829]001"},{"mesh":28,"translation":[1.1604408,0.18288012,1.1988082],"rotation":[0.5000001,0.49999997,0.49999985,0.50000006],"name":"LS201 & LS202 - Konic Post Material LS Material [9048834]001"},{"mesh":29,"translation":[0.36284298,1.8288,-1.0808526],"rotation":[-0.5,-0.50000006,0.5,0.49999994],"name":"LS201 & LS202 - Konic Post Material LS Material [9048880]001"},{"mesh":30,"translation":[0.6293151,2.01168,-1.0808526],"rotation":[-0.5,-0.50000006,0.5,0.49999994],"name":"LS201 & LS202 - Konic Post Material LS Material [9048885]001"},{"mesh":31,"translation":[1.4287454,2.56032,-1.0808526],"rotation":[-0.5,-0.50000006,0.5,0.49999994],"name":"LS201 & LS202 - Konic Post Material LS Material [9048890]001"},{"mesh":32,"translation":[-0.44932607,1.2801597,-1.0808526],"rotation":[-0.5,-0.50000006,0.5,0.49999994],"name":"LS201 & LS202 - Konic Post Material LS Material [9048914]001"},{"mesh":33,"translation":[-0.71602607,1.2801597,-1.0808526],"rotation":[-0.5,-0.50000006,0.5,0.49999994],"name":"LS201 & LS202 - Konic Post Material LS Material [9048949]001"},{"mesh":34,"translation":[-1.2308598,1.2801597,-1.0808526],"rotation":[-0.5,-0.50000006,0.5,0.49999994],"name":"LS201 & LS202 - Konic Post Material LS Material [9048969]001"},{"mesh":35,"translation":[-1.4303639,1.2801597,-0.88134855],"rotation":[5.533139E-22,-5.533139E-22,0.7071068,0.7071067],"name":"LS201 & LS202 - Konic Post Material LS Material [9048987]001"},{"mesh":36,"translation":[-1.4303639,1.2801597,0.99929947],"rotation":[6.7924317E-15,6.7924326E-15,0.7071068,0.7071067],"name":"LS201 & LS202 - Konic Post Material LS Material [9049006]001"},{"mesh":37,"translation":[-1.2308598,1.2801597,1.1988082],"rotation":[0.5000001,0.49999997,0.49999985,0.50000006],"name":"LS201 & LS202 - Konic Post Material LS Material [9049026]001"},{"mesh":38,"translation":[-1.4303639,1.2801597,-0.074374534],"rotation":[5.533139E-22,-5.533139E-22,0.7071068,0.7071067],"name":"LS201 & LS202 - Konic Post Material LS Material [9049044]001"},{"mesh":39,"translation":[-1.4303639,1.2801597,0.19232547],"rotation":[6.7924317E-15,6.7924326E-15,0.7071068,0.7071067],"name":"LS201 & LS202 - Konic Post Material LS Material [9049062]001"},{"mesh":40,"translation":[-0.42388576,1.2801597,1.1988082],"rotation":[0.5000001,0.49999997,0.49999985,0.50000006],"name":"LS201 & LS202 - Konic Post Material LS Material [9049081]001"},{"mesh":41,"translation":[-0.17041285,1.9257518,0.20186907],"rotation":[-0.0,-1.0,0.0,4.371139E-08],"name":"KON021 - Konic Washer Part [9193945]051"},{"mesh":41,"translation":[-0.17041285,1.3669521,0.20186907],"rotation":[-0.0,-1.0,0.0,4.371139E-08],"name":"KON021 - Konic Washer Part [9193945]052"},{"mesh":41,"translation":[-0.1701059,2.2915118,-0.08391813],"rotation":[-0.0,4.524159E-15,0.0,1.0],"name":"KON021 - Konic Washer Part [9193945]053"},{"mesh":41,"translation":[-0.1701059,1.7327118,-0.08391813],"rotation":[-0.0,4.524159E-15,0.0,1.0],"name":"KON021 - Konic Washer Part [9193945]054"},{"mesh":41,"translation":[0.36284298,2.657272,-0.08391813],"rotation":[-0.0,4.524159E-15,0.0,1.0],"name":"KON021 - Konic Washer Part [9193945]055"},{"mesh":41,"translation":[0.36284298,2.0984719,-0.08391813],"rotation":[-0.0,4.524159E-15,0.0,1.0],"name":"KON021 - Konic Washer Part [9193945]056"},{"mesh":41,"translation":[0.6293151,2.8401518,-0.08391813],"rotation":[-0.0,4.524159E-15,0.0,1.0],"name":"KON021 - Konic Washer Part [9193945]057"},{"mesh":41,"translation":[0.6293151,2.281352,-0.08391813],"rotation":[-0.0,4.524159E-15,0.0,1.0],"name":"KON021 - Konic Washer Part [9193945]058"},{"mesh":41,"translation":[1.4287454,3.3887916,-0.08391813],"rotation":[-0.0,4.524159E-15,0.0,1.0],"name":"KON021 - Konic Washer Part [9193945]059"},{"mesh":41,"translation":[1.4287454,2.8299918,-0.08391813],"rotation":[-0.0,4.524159E-15,0.0,1.0],"name":"KON021 - Konic Washer Part [9193945]060"},{"mesh":41,"translation":[-0.43342936,2.0262852,0.05897547],"rotation":[-0.0,0.7071067,0.0,0.7071068],"name":"KON021 - Konic Washer Part [9193945]061"},{"mesh":41,"translation":[-0.43342936,1.4674848,0.05897547],"rotation":[-0.0,0.7071067,0.0,0.7071068],"name":"KON021 - Konic Washer Part [9193945]062"},{"mesh":41,"translation":[0.36256856,1.559992,0.20186907],"rotation":[-0.0,-1.0,0.0,4.371139E-08],"name":"KON021 - Konic Washer Part [9193945]063"},{"mesh":41,"translation":[0.36256856,1.0011919,0.20186907],"rotation":[-0.0,-1.0,0.0,4.371139E-08],"name":"KON021 - Konic Washer Part [9193945]064"},{"mesh":41,"translation":[0.6281012,1.3771119,0.20186907],"rotation":[-0.0,-1.0,0.0,4.371139E-08],"name":"KON021 - Konic Washer Part [9193945]065"},{"mesh":41,"translation":[0.6281012,0.8183117,0.20186907],"rotation":[-0.0,-1.0,0.0,4.371139E-08],"name":"KON021 - Konic Washer Part [9193945]066"},{"mesh":41,"translation":[1.1604408,1.0113517,0.20186907],"rotation":[-0.0,-1.0,0.0,4.371139E-08],"name":"KON021 - Konic Washer Part [9193945]067"},{"mesh":41,"translation":[1.1604408,0.45255175,0.20186907],"rotation":[-0.0,-1.0,0.0,4.371139E-08],"name":"KON021 - Konic Washer Part [9193945]068"},{"mesh":41,"translation":[-0.17041285,1.9257518,1.1352819],"rotation":[-0.0,6.3811515E-15,0.0,1.0],"name":"KON021 - Konic Washer Part [9193945]069"},{"mesh":41,"translation":[-0.17041285,1.3669521,1.1352819],"rotation":[-0.0,6.3811515E-15,0.0,1.0],"name":"KON021 - Konic Washer Part [9193945]070"},{"mesh":41,"translation":[0.36256856,1.559992,1.1352819],"rotation":[-0.0,6.3811515E-15,0.0,1.0],"name":"KON021 - Konic Washer Part [9193945]071"},{"mesh":41,"translation":[0.36256856,1.0011919,1.1352819],"rotation":[-0.0,6.3811515E-15,0.0,1.0],"name":"KON021 - Konic Washer Part [9193945]072"},{"mesh":41,"translation":[0.6281012,1.3771119,1.1352819],"rotation":[-0.0,6.3811515E-15,0.0,1.0],"name":"KON021 - Konic Washer Part [9193945]073"},{"mesh":41,"translation":[0.6281012,0.8183117,1.1352819],"rotation":[-0.0,6.3811515E-15,0.0,1.0],"name":"KON021 - Konic Washer Part [9193945]074"},{"mesh":41,"translation":[1.1604408,1.0113517,1.1352819],"rotation":[-0.0,6.3811515E-15,0.0,1.0],"name":"KON021 - Konic Washer Part [9193945]075"},{"mesh":41,"translation":[1.1604408,0.45255175,1.1352819],"rotation":[-0.0,6.3811515E-15,0.0,1.0],"name":"KON021 - Konic Washer Part [9193945]076"},{"mesh":41,"translation":[0.36284298,2.657272,-1.0173309],"rotation":[-0.0,-1.0,0.0,4.371139E-08],"name":"KON021 - Konic Washer Part [9193945]077"},{"mesh":41,"translation":[0.36284298,2.0984719,-1.0173309],"rotation":[-0.0,-1.0,0.0,4.371139E-08],"name":"KON021 - Konic Washer Part [9193945]078"},{"mesh":41,"translation":[0.6293151,2.8401518,-1.0173309],"rotation":[-0.0,-1.0,0.0,4.371139E-08],"name":"KON021 - Konic Washer Part [9193945]079"},{"mesh":41,"translation":[0.6293151,2.281352,-1.0173309],"rotation":[-0.0,-1.0,0.0,4.371139E-08],"name":"KON021 - Konic Washer Part [9193945]080"},{"mesh":41,"translation":[1.4287454,3.3887916,-1.0173309],"rotation":[-0.0,-1.0,0.0,4.371139E-08],"name":"KON021 - Konic Washer Part [9193945]081"},{"mesh":41,"translation":[1.4287454,2.8299918,-1.0173309],"rotation":[-0.0,-1.0,0.0,4.371139E-08],"name":"KON021 - Konic Washer Part [9193945]082"},{"mesh":41,"translation":[-0.44932607,2.1086318,-1.0173309],"rotation":[-0.0,-1.0,0.0,4.371139E-08],"name":"KON021 - Konic Washer Part [9193945]083"},{"mesh":41,"translation":[-0.44932607,1.5498316,-1.0173309],"rotation":[-0.0,-1.0,0.0,4.371139E-08],"name":"KON021 - Konic Washer Part [9193945]084"},{"mesh":41,"translation":[-0.71602607,2.0262852,-1.0173309],"rotation":[-0.0,-1.0,0.0,4.371139E-08],"name":"KON021 - Konic Washer Part [9193945]085"},{"mesh":41,"translation":[-0.71602607,1.4674848,-1.0173309],"rotation":[-0.0,-1.0,0.0,4.371139E-08],"name":"KON021 - Konic Washer Part [9193945]086"},{"mesh":41,"translation":[-1.2308598,2.0262852,-1.0173309],"rotation":[-0.0,-1.0,0.0,-2.8212997E-07],"name":"KON021 - Konic Washer Part [9193945]087"},{"mesh":41,"translation":[-1.2308598,1.4674848,-1.0173309],"rotation":[-0.0,-1.0,0.0,-2.8212997E-07],"name":"KON021 - Konic Washer Part [9193945]088"},{"mesh":41,"translation":[-1.3668422,2.0262852,-0.88134855],"rotation":[-0.0,-0.7071068,0.0,0.7071068],"name":"KON021 - Konic Washer Part [9193945]089"},{"mesh":41,"translation":[-1.3668422,1.4674848,-0.88134855],"rotation":[-0.0,-0.7071068,0.0,0.7071068],"name":"KON021 - Konic Washer Part [9193945]090"},{"mesh":41,"translation":[-1.3668422,2.0262852,0.99929947],"rotation":[-0.0,-0.7071068,0.0,0.7071067],"name":"KON021 - Konic Washer Part [9193945]091"},{"mesh":41,"translation":[-1.3668422,1.4674848,0.99929947],"rotation":[-0.0,-0.7071068,0.0,0.7071067],"name":"KON021 - Konic Washer Part [9193945]092"},{"mesh":41,"translation":[-1.2308598,2.0262852,1.1352819],"rotation":[-0.0,3.2584137E-07,0.0,1.0],"name":"KON021 - Konic Washer Part [9193945]093"},{"mesh":41,"translation":[-1.2308598,1.4674848,1.1352819],"rotation":[-0.0,3.2584137E-07,0.0,1.0],"name":"KON021 - Konic Washer Part [9193945]094"},{"mesh":41,"translation":[-1.3668422,2.0262852,-0.074374534],"rotation":[-0.0,-0.7071068,0.0,0.7071068],"name":"KON021 - Konic Washer Part [9193945]095"},{"mesh":41,"translation":[-1.3668422,1.4674848,-0.074374534],"rotation":[-0.0,-0.7071068,0.0,0.7071068],"name":"KON021 - Konic Washer Part [9193945]096"},{"mesh":41,"translation":[-1.3668422,2.0262852,0.19232547],"rotation":[-0.0,-0.7071068,0.0,0.7071067],"name":"KON021 - Konic Washer Part [9193945]097"},{"mesh":41,"translation":[-1.3668422,1.4674848,0.19232547],"rotation":[-0.0,-0.7071068,0.0,0.7071067],"name":"KON021 - Konic Washer Part [9193945]098"},{"mesh":41,"translation":[-0.42388576,2.0262852,1.1352819],"rotation":[-0.0,3.2584137E-07,0.0,1.0],"name":"KON021 - Konic Washer Part [9193945]099"},{"mesh":41,"translation":[-0.42388576,1.4674848,1.1352819],"rotation":[-0.0,3.2584137E-07,0.0,1.0],"name":"KON021 - Konic Washer Part [9193945]100"},{"mesh":41,"translation":[-0.17041285,1.9257518,0.18757227],"rotation":[-0.0,-2.3841858E-07,0.0,1.0],"name":"KON021A - Adhesive Konic Washer Part [9193800]051"},{"mesh":41,"translation":[-0.17041285,1.3669521,0.18757227],"rotation":[-0.0,-2.3841858E-07,0.0,1.0],"name":"KON021A - Adhesive Konic Washer Part [9193800]052"},{"mesh":41,"translation":[-0.1701059,2.2915118,-0.06961668],"rotation":[-0.0,-1.0,0.0,2.8212997E-07],"name":"KON021A - Adhesive Konic Washer Part [9193800]053"},{"mesh":41,"translation":[-0.1701059,1.7327118,-0.06961668],"rotation":[-0.0,-1.0,0.0,2.8212997E-07],"name":"KON021A - Adhesive Konic Washer Part [9193800]054"},{"mesh":41,"translation":[0.36284298,2.657272,-0.06961668],"rotation":[-0.0,-1.0,0.0,2.8212997E-07],"name":"KON021A - Adhesive Konic Washer Part [9193800]055"},{"mesh":41,"translation":[0.36284298,2.0984719,-0.06961668],"rotation":[-0.0,-1.0,0.0,2.8212997E-07],"name":"KON021A - Adhesive Konic Washer Part [9193800]056"},{"mesh":41,"translation":[0.6293151,2.8401518,-0.06961668],"rotation":[-0.0,-1.0,0.0,2.8212997E-07],"name":"KON021A - Adhesive Konic Washer Part [9193800]057"},{"mesh":41,"translation":[0.6293151,2.281352,-0.06961668],"rotation":[-0.0,-1.0,0.0,2.8212997E-07],"name":"KON021A - Adhesive Konic Washer Part [9193800]058"},{"mesh":41,"translation":[1.4287454,3.3887916,-0.06961668],"rotation":[-0.0,-1.0,0.0,2.8212997E-07],"name":"KON021A - Adhesive Konic Washer Part [9193800]059"},{"mesh":41,"translation":[1.4287454,2.8299918,-0.06961668],"rotation":[-0.0,-1.0,0.0,2.8212997E-07],"name":"KON021A - Adhesive Konic Washer Part [9193800]060"},{"mesh":41,"translation":[-0.4191279,2.0262852,0.05897547],"rotation":[-0.0,-0.7071068,0.0,0.7071068],"name":"KON021A - Adhesive Konic Washer Part [9193800]061"},{"mesh":41,"translation":[-0.4191279,1.4674848,0.05897547],"rotation":[-0.0,-0.7071068,0.0,0.7071068],"name":"KON021A - Adhesive Konic Washer Part [9193800]062"},{"mesh":41,"translation":[0.36256856,1.559992,0.18757227],"rotation":[-0.0,-2.3841858E-07,0.0,1.0],"name":"KON021A - Adhesive Konic Washer Part [9193800]063"},{"mesh":41,"translation":[0.36256856,1.0011919,0.18757227],"rotation":[-0.0,-2.3841858E-07,0.0,1.0],"name":"KON021A - Adhesive Konic Washer Part [9193800]064"},{"mesh":41,"translation":[0.6281012,1.3771119,0.18757227],"rotation":[-0.0,-2.3841858E-07,0.0,1.0],"name":"KON021A - Adhesive Konic Washer Part [9193800]065"},{"mesh":41,"translation":[0.6281012,0.8183117,0.18757227],"rotation":[-0.0,-2.3841858E-07,0.0,1.0],"name":"KON021A - Adhesive Konic Washer Part [9193800]066"},{"mesh":41,"translation":[1.1604408,1.0113517,0.18757227],"rotation":[-0.0,-2.3841858E-07,0.0,1.0],"name":"KON021A - Adhesive Konic Washer Part [9193800]067"},{"mesh":41,"translation":[1.1604408,0.45255175,0.18757227],"rotation":[-0.0,-2.3841858E-07,0.0,1.0],"name":"KON021A - Adhesive Konic Washer Part [9193800]068"},{"mesh":41,"translation":[-0.17041285,1.9257518,1.1495833],"rotation":[-0.0,-1.0,0.0,-2.8212997E-07],"name":"KON021A - Adhesive Konic Washer Part [9193800]069"},{"mesh":41,"translation":[-0.17041285,1.3669521,1.1495833],"rotation":[-0.0,-1.0,0.0,-2.8212997E-07],"name":"KON021A - Adhesive Konic Washer Part [9193800]070"},{"mesh":41,"translation":[0.36256856,1.559992,1.1495833],"rotation":[-0.0,-1.0,0.0,-2.8212997E-07],"name":"KON021A - Adhesive Konic Washer Part [9193800]071"},{"mesh":41,"translation":[0.36256856,1.0011919,1.1495833],"rotation":[-0.0,-1.0,0.0,-2.8212997E-07],"name":"KON021A - Adhesive Konic Washer Part [9193800]072"},{"mesh":41,"translation":[0.6281012,1.3771119,1.1495833],"rotation":[-0.0,-1.0,0.0,-2.8212997E-07],"name":"KON021A - Adhesive Konic Washer Part [9193800]073"},{"mesh":41,"translation":[0.6281012,0.8183117,1.1495833],"rotation":[-0.0,-1.0,0.0,-2.8212997E-07],"name":"KON021A - Adhesive Konic Washer Part [9193800]074"},{"mesh":41,"translation":[1.1604408,1.0113517,1.1495833],"rotation":[-0.0,-1.0,0.0,-2.8212997E-07],"name":"KON021A - Adhesive Konic Washer Part [9193800]075"},{"mesh":41,"translation":[1.1604408,0.45255175,1.1495833],"rotation":[-0.0,-1.0,0.0,-2.8212997E-07],"name":"KON021A - Adhesive Konic Washer Part [9193800]076"},{"mesh":41,"translation":[0.36284298,2.657272,-1.0316278],"rotation":[-0.0,-2.3841858E-07,0.0,1.0],"name":"KON021A - Adhesive Konic Washer Part [9193800]077"},{"mesh":41,"translation":[0.36284298,2.0984719,-1.0316278],"rotation":[-0.0,-2.3841858E-07,0.0,1.0],"name":"KON021A - Adhesive Konic Washer Part [9193800]078"},{"mesh":41,"translation":[0.6293151,2.8401518,-1.0316278],"rotation":[-0.0,-2.3841858E-07,0.0,1.0],"name":"KON021A - Adhesive Konic Washer Part [9193800]079"},{"mesh":41,"translation":[0.6293151,2.281352,-1.0316278],"rotation":[-0.0,-2.3841858E-07,0.0,1.0],"name":"KON021A - Adhesive Konic Washer Part [9193800]080"},{"mesh":41,"translation":[1.4287454,3.3887916,-1.0316278],"rotation":[-0.0,-2.3841858E-07,0.0,1.0],"name":"KON021A - Adhesive Konic Washer Part [9193800]081"},{"mesh":41,"translation":[1.4287454,2.8299918,-1.0316278],"rotation":[-0.0,-2.3841858E-07,0.0,1.0],"name":"KON021A - Adhesive Konic Washer Part [9193800]082"},{"mesh":41,"translation":[-0.44932607,2.1086318,-1.0316278],"rotation":[-0.0,-2.3841858E-07,0.0,1.0],"name":"KON021A - Adhesive Konic Washer Part [9193800]083"},{"mesh":41,"translation":[-0.44932607,1.5498316,-1.0316278],"rotation":[-0.0,-2.3841858E-07,0.0,1.0],"name":"KON021A - Adhesive Konic Washer Part [9193800]084"},{"mesh":41,"translation":[-0.71602607,2.0262852,-1.0316278],"rotation":[-0.0,-2.3841858E-07,0.0,1.0],"name":"KON021A - Adhesive Konic Washer Part [9193800]085"},{"mesh":41,"translation":[-0.71602607,1.4674848,-1.0316278],"rotation":[-0.0,-2.3841858E-07,0.0,1.0],"name":"KON021A - Adhesive Konic Washer Part [9193800]086"},{"mesh":41,"translation":[-1.2308598,2.0262852,-1.0316278],"name":"KON021A - Adhesive Konic Washer Part [9193800]087"},{"mesh":41,"translation":[-1.2308598,1.4674848,-1.0316278],"name":"KON021A - Adhesive Konic Washer Part [9193800]088"},{"mesh":41,"translation":[-1.3811389,2.0262852,-0.88134855],"rotation":[-0.0,0.7071067,0.0,0.7071068],"name":"KON021A - Adhesive Konic Washer Part [9193800]089"},{"mesh":41,"translation":[-1.3811389,1.4674848,-0.88134855],"rotation":[-0.0,0.7071067,0.0,0.7071068],"name":"KON021A - Adhesive Konic Washer Part [9193800]090"},{"mesh":41,"translation":[-1.3811389,2.0262852,0.99929947],"rotation":[-0.0,0.7071068,0.0,0.7071067],"name":"KON021A - Adhesive Konic Washer Part [9193800]091"},{"mesh":41,"translation":[-1.3811389,1.4674848,0.99929947],"rotation":[-0.0,0.7071068,0.0,0.7071067],"name":"KON021A - Adhesive Konic Washer Part [9193800]092"},{"mesh":41,"translation":[-1.2308598,2.0262852,1.1495833],"rotation":[-0.0,-1.0,0.0,4.371139E-08],"name":"KON021A - Adhesive Konic Washer Part [9193800]093"},{"mesh":41,"translation":[-1.2308598,1.4674848,1.1495833],"rotation":[-0.0,-1.0,0.0,4.371139E-08],"name":"KON021A - Adhesive Konic Washer Part [9193800]094"},{"mesh":41,"translation":[-1.3811389,2.0262852,-0.074374534],"rotation":[-0.0,0.7071067,0.0,0.7071068],"name":"KON021A - Adhesive Konic Washer Part [9193800]095"},{"mesh":41,"translation":[-1.3811389,1.4674848,-0.074374534],"rotation":[-0.0,0.7071067,0.0,0.7071068],"name":"KON021A - Adhesive Konic Washer Part [9193800]096"},{"mesh":41,"translation":[-1.3811389,2.0262852,0.19232547],"rotation":[-0.0,0.7071068,0.0,0.7071067],"name":"KON021A - Adhesive Konic Washer Part [9193800]097"},{"mesh":41,"translation":[-1.3811389,1.4674848,0.19232547],"rotation":[-0.0,0.7071068,0.0,0.7071067],"name":"KON021A - Adhesive Konic Washer Part [9193800]098"},{"mesh":41,"translation":[-0.42388576,2.0262852,1.1495833],"rotation":[-0.0,-1.0,0.0,4.371139E-08],"name":"KON021A - Adhesive Konic Washer Part [9193800]099"},{"mesh":41,"translation":[-0.42388576,1.4674848,1.1495833],"rotation":[-0.0,-1.0,0.0,4.371139E-08],"name":"KON021A - Adhesive Konic Washer Part [9193800]100"},{"mesh":42,"translation":[-0.17041285,1.9257518,0.20344572],"rotation":[-0.0,-0.7071068,0.0,0.7071067],"name":"KON006 - Lower Panel Clamp Part [8739162]100"},{"mesh":42,"translation":[-0.17041285,1.3669521,0.20344572],"rotation":[-0.0,-0.7071068,0.0,0.7071067],"name":"KON006 - Lower Panel Clamp Part [8739162]101"},{"mesh":42,"translation":[-0.1701059,2.2915118,-0.08549013],"rotation":[-0.0,0.7071068,0.0,0.7071067],"name":"KON006 - Lower Panel Clamp Part [8739162]102"},{"mesh":42,"translation":[-0.1701059,1.7327118,-0.08549013],"rotation":[-0.0,0.7071068,0.0,0.7071067],"name":"KON006 - Lower Panel Clamp Part [8739162]103"},{"mesh":42,"translation":[0.36284298,2.657272,-0.08549013],"rotation":[-0.0,0.7071068,0.0,0.7071067],"name":"KON006 - Lower Panel Clamp Part [8739162]104"},{"mesh":42,"translation":[0.36284298,2.0984719,-0.08549013],"rotation":[-0.0,0.7071068,0.0,0.7071067],"name":"KON006 - Lower Panel Clamp Part [8739162]105"},{"mesh":42,"translation":[0.6293151,2.8401518,-0.08549013],"rotation":[-0.0,0.7071068,0.0,0.7071067],"name":"KON006 - Lower Panel Clamp Part [8739162]106"},{"mesh":42,"translation":[0.6293151,2.281352,-0.08549013],"rotation":[-0.0,0.7071068,0.0,0.7071067],"name":"KON006 - Lower Panel Clamp Part [8739162]107"},{"mesh":42,"translation":[1.4287454,3.3887916,-0.08549013],"rotation":[-0.0,0.7071068,0.0,0.7071067],"name":"KON006 - Lower Panel Clamp Part [8739162]108"},{"mesh":42,"translation":[1.4287454,2.8299918,-0.08549013],"rotation":[-0.0,0.7071068,0.0,0.7071067],"name":"KON006 - Lower Panel Clamp Part [8739162]109"},{"mesh":42,"translation":[-0.43500137,2.0262852,0.05897547],"rotation":[-0.0,-1.0,0.0,2.8212997E-07],"name":"KON006 - Lower Panel Clamp Part [8739162]110"},{"mesh":42,"translation":[-0.43500137,1.4674848,0.05897547],"rotation":[-0.0,-1.0,0.0,2.8212997E-07],"name":"KON006 - Lower Panel Clamp Part [8739162]111"},{"mesh":42,"translation":[0.36256856,1.559992,0.20344572],"rotation":[-0.0,-0.7071068,0.0,0.7071067],"name":"KON006 - Lower Panel Clamp Part [8739162]112"},{"mesh":42,"translation":[0.36256856,1.0011919,0.20344572],"rotation":[-0.0,-0.7071068,0.0,0.7071067],"name":"KON006 - Lower Panel Clamp Part [8739162]113"},{"mesh":42,"translation":[0.6281012,1.3771119,0.20344572],"rotation":[-0.0,-0.7071068,0.0,0.7071067],"name":"KON006 - Lower Panel Clamp Part [8739162]114"},{"mesh":42,"translation":[0.6281012,0.8183117,0.20344572],"rotation":[-0.0,-0.7071068,0.0,0.7071067],"name":"KON006 - Lower Panel Clamp Part [8739162]115"},{"mesh":42,"translation":[1.1604408,1.0113517,0.20344572],"rotation":[-0.0,-0.7071068,0.0,0.7071067],"name":"KON006 - Lower Panel Clamp Part [8739162]116"},{"mesh":42,"translation":[1.1604408,0.45255175,0.20344572],"rotation":[-0.0,-0.7071068,0.0,0.7071067],"name":"KON006 - Lower Panel Clamp Part [8739162]117"},{"mesh":42,"translation":[-0.17041285,1.9257518,1.1337099],"rotation":[-0.0,0.7071068,0.0,0.7071067],"name":"KON006 - Lower Panel Clamp Part [8739162]118"},{"mesh":42,"translation":[-0.17041285,1.3669521,1.1337099],"rotation":[-0.0,0.7071068,0.0,0.7071067],"name":"KON006 - Lower Panel Clamp Part [8739162]119"},{"mesh":42,"translation":[0.36256856,1.559992,1.1337099],"rotation":[-0.0,0.7071068,0.0,0.7071067],"name":"KON006 - Lower Panel Clamp Part [8739162]120"},{"mesh":42,"translation":[0.36256856,1.0011919,1.1337099],"rotation":[-0.0,0.7071068,0.0,0.7071067],"name":"KON006 - Lower Panel Clamp Part [8739162]121"},{"mesh":42,"translation":[0.6281012,1.3771119,1.1337099],"rotation":[-0.0,0.7071068,0.0,0.7071067],"name":"KON006 - Lower Panel Clamp Part [8739162]122"},{"mesh":42,"translation":[0.6281012,0.8183117,1.1337099],"rotation":[-0.0,0.7071068,0.0,0.7071067],"name":"KON006 - Lower Panel Clamp Part [8739162]123"},{"mesh":42,"translation":[1.1604408,1.0113517,1.1337099],"rotation":[-0.0,0.7071068,0.0,0.7071067],"name":"KON006 - Lower Panel Clamp Part [8739162]124"},{"mesh":42,"translation":[1.1604408,0.45255175,1.1337099],"rotation":[-0.0,0.7071068,0.0,0.7071067],"name":"KON006 - Lower Panel Clamp Part [8739162]125"},{"mesh":42,"translation":[0.36284298,2.657272,-1.0157543],"rotation":[-0.0,-0.7071068,0.0,0.7071067],"name":"KON006 - Lower Panel Clamp Part [8739162]126"},{"mesh":42,"translation":[0.36284298,2.0984719,-1.0157543],"rotation":[-0.0,-0.7071068,0.0,0.7071067],"name":"KON006 - Lower Panel Clamp Part [8739162]127"},{"mesh":42,"translation":[0.6293151,2.8401518,-1.0157543],"rotation":[-0.0,-0.7071068,0.0,0.7071067],"name":"KON006 - Lower Panel Clamp Part [8739162]128"},{"mesh":42,"translation":[0.6293151,2.281352,-1.0157543],"rotation":[-0.0,-0.7071068,0.0,0.7071067],"name":"KON006 - Lower Panel Clamp Part [8739162]129"},{"mesh":42,"translation":[1.4287454,3.3887916,-1.0157543],"rotation":[-0.0,-0.7071068,0.0,0.7071067],"name":"KON006 - Lower Panel Clamp Part [8739162]130"},{"mesh":42,"translation":[1.4287454,2.8299918,-1.0157543],"rotation":[-0.0,-0.7071068,0.0,0.7071067],"name":"KON006 - Lower Panel Clamp Part [8739162]131"},{"mesh":42,"translation":[-0.44932607,2.1086318,-1.0157543],"rotation":[-0.0,-0.7071068,0.0,0.7071067],"name":"KON006 - Lower Panel Clamp Part [8739162]132"},{"mesh":42,"translation":[-0.44932607,1.5498316,-1.0157543],"rotation":[-0.0,-0.7071068,0.0,0.7071067],"name":"KON006 - Lower Panel Clamp Part [8739162]133"},{"mesh":42,"translation":[-0.71602607,2.0262852,-1.0157543],"rotation":[-0.0,-0.7071068,0.0,0.7071067],"name":"KON006 - Lower Panel Clamp Part [8739162]134"},{"mesh":42,"translation":[-0.71602607,1.4674848,-1.0157543],"rotation":[-0.0,-0.7071068,0.0,0.7071067],"name":"KON006 - Lower Panel Clamp Part [8739162]135"},{"mesh":42,"translation":[-1.2308598,2.0262852,-1.0157543],"rotation":[-0.0,-0.7071068,0.0,0.7071067],"name":"KON006 - Lower Panel Clamp Part [8739162]136"},{"mesh":42,"translation":[-1.2308598,1.4674848,-1.0157543],"rotation":[-0.0,-0.7071068,0.0,0.7071067],"name":"KON006 - Lower Panel Clamp Part [8739162]137"},{"mesh":42,"translation":[-1.3652608,2.0262852,-0.88134855],"name":"KON006 - Lower Panel Clamp Part [8739162]138"},{"mesh":42,"translation":[-1.3652608,1.4674848,-0.88134855],"name":"KON006 - Lower Panel Clamp Part [8739162]139"},{"mesh":42,"translation":[-1.3652608,2.0262852,0.99929947],"rotation":[-0.0,1.4546442E-14,0.0,1.0],"name":"KON006 - Lower Panel Clamp Part [8739162]140"},{"mesh":42,"translation":[-1.3652608,1.4674848,0.99929947],"rotation":[-0.0,1.4546442E-14,0.0,1.0],"name":"KON006 - Lower Panel Clamp Part [8739162]141"},{"mesh":42,"translation":[-1.2308598,2.0262852,1.1337099],"rotation":[-0.0,0.7071068,0.0,0.7071067],"name":"KON006 - Lower Panel Clamp Part [8739162]142"},{"mesh":42,"translation":[-1.2308598,1.4674848,1.1337099],"rotation":[-0.0,0.7071068,0.0,0.7071067],"name":"KON006 - Lower Panel Clamp Part [8739162]143"},{"mesh":42,"translation":[-1.3652608,2.0262852,-0.074374534],"name":"KON006 - Lower Panel Clamp Part [8739162]144"},{"mesh":42,"translation":[-1.3652608,1.4674848,-0.074374534],"name":"KON006 - Lower Panel Clamp Part [8739162]145"},{"mesh":42,"translation":[-1.3652608,2.0262852,0.19232547],"rotation":[-0.0,1.4546442E-14,0.0,1.0],"name":"KON006 - Lower Panel Clamp Part [8739162]146"},{"mesh":42,"translation":[-1.3652608,1.4674848,0.19232547],"rotation":[-0.0,1.4546442E-14,0.0,1.0],"name":"KON006 - Lower Panel Clamp Part [8739162]147"},{"mesh":42,"translation":[-0.42388576,2.0262852,1.1337099],"rotation":[-0.0,0.7071068,0.0,0.7071067],"name":"KON006 - Lower Panel Clamp Part [8739162]148"},{"mesh":42,"translation":[-0.42388576,1.4674848,1.1337099],"rotation":[-0.0,0.7071068,0.0,0.7071067],"name":"KON006 - Lower Panel Clamp Part [8739162]149"},{"mesh":43,"translation":[-0.17041285,1.0972801,0.13834737],"rotation":[-0.0,0.7071068,0.0,0.7071067],"name":"KON018 - Surface Mount Weldment Part [9049080]026"},{"mesh":43,"translation":[-0.1701059,1.4630404,-0.020391779],"rotation":[-0.0,-0.7071068,0.0,0.7071067],"name":"KON018 - Surface Mount Weldment Part [9049080]027"},{"mesh":43,"translation":[0.36284298,1.8288,-0.020391779],"rotation":[-0.0,-0.7071068,0.0,0.7071067],"name":"KON018 - Surface Mount Weldment Part [9049080]028"},{"mesh":43,"translation":[0.6293151,2.01168,-0.020391779],"rotation":[-0.0,-0.7071068,0.0,0.7071067],"name":"KON018 - Surface Mount Weldment Part [9049080]029"},{"mesh":43,"translation":[1.4287454,2.56032,-0.020391779],"rotation":[-0.0,-0.7071068,0.0,0.7071067],"name":"KON018 - Surface Mount Weldment Part [9049080]030"},{"mesh":43,"translation":[-0.36989835,1.2801597,0.05897547],"name":"KON018 - Surface Mount Weldment Part [9049080]031"},{"mesh":43,"translation":[0.36256856,0.7315199,0.13834737],"rotation":[-0.0,0.7071068,0.0,0.7071067],"name":"KON018 - Surface Mount Weldment Part [9049080]032"},{"mesh":43,"translation":[0.6281012,0.5486401,0.13834737],"rotation":[-0.0,0.7071068,0.0,0.7071067],"name":"KON018 - Surface Mount Weldment Part [9049080]033"},{"mesh":43,"translation":[1.1604408,0.18288012,0.13834737],"rotation":[-0.0,0.7071068,0.0,0.7071067],"name":"KON018 - Surface Mount Weldment Part [9049080]034"},{"mesh":43,"translation":[-0.17041285,1.0972801,1.1988082],"rotation":[-0.0,-0.7071068,0.0,0.7071067],"name":"KON018 - Surface Mount Weldment Part [9049080]035"},{"mesh":43,"translation":[0.36256856,0.7315199,1.1988082],"rotation":[-0.0,-0.7071068,0.0,0.7071067],"name":"KON018 - Surface Mount Weldment Part [9049080]036"},{"mesh":43,"translation":[0.6281012,0.5486401,1.1988082],"rotation":[-0.0,-0.7071068,0.0,0.7071067],"name":"KON018 - Surface Mount Weldment Part [9049080]037"},{"mesh":43,"translation":[1.1604408,0.18288012,1.1988082],"rotation":[-0.0,-0.7071068,0.0,0.7071067],"name":"KON018 - Surface Mount Weldment Part [9049080]038"},{"mesh":43,"translation":[0.36284298,1.8288,-1.0808526],"rotation":[-0.0,0.7071068,0.0,0.7071067],"name":"KON018 - Surface Mount Weldment Part [9049080]039"},{"mesh":43,"translation":[0.6293151,2.01168,-1.0808526],"rotation":[-0.0,0.7071068,0.0,0.7071067],"name":"KON018 - Surface Mount Weldment Part [9049080]040"},{"mesh":43,"translation":[1.4287454,2.56032,-1.0808526],"rotation":[-0.0,0.7071068,0.0,0.7071067],"name":"KON018 - Surface Mount Weldment Part [9049080]041"},{"mesh":43,"translation":[-0.44932607,1.2801597,-1.0808526],"rotation":[-0.0,0.7071068,0.0,0.7071067],"name":"KON018 - Surface Mount Weldment Part [9049080]042"},{"mesh":43,"translation":[-0.71602607,1.2801597,-1.0808526],"rotation":[-0.0,0.7071068,0.0,0.7071067],"name":"KON018 - Surface Mount Weldment Part [9049080]043"},{"mesh":43,"translation":[-1.2308598,1.2801597,-1.0808526],"rotation":[-0.0,0.7071068,0.0,0.7071067],"name":"KON018 - Surface Mount Weldment Part [9049080]044"},{"mesh":43,"translation":[-1.4303639,1.2801597,-0.88134855],"rotation":[-0.0,-1.0,0.0,2.8212997E-07],"name":"KON018 - Surface Mount Weldment Part [9049080]045"},{"mesh":43,"translation":[-1.4303639,1.2801597,0.99929947],"rotation":[-0.0,-1.0,0.0,-2.8212997E-07],"name":"KON018 - Surface Mount Weldment Part [9049080]046"},{"mesh":43,"translation":[-1.2308598,1.2801597,1.1988082],"rotation":[-0.0,-0.7071068,0.0,0.7071067],"name":"KON018 - Surface Mount Weldment Part [9049080]047"},{"mesh":43,"translation":[-1.4303639,1.2801597,-0.074374534],"rotation":[-0.0,-1.0,0.0,2.8212997E-07],"name":"KON018 - Surface Mount Weldment Part [9049080]048"},{"mesh":43,"translation":[-1.4303639,1.2801597,0.19232547],"rotation":[-0.0,-1.0,0.0,-2.8212997E-07],"name":"KON018 - Surface Mount Weldment Part [9049080]049"},{"mesh":43,"translation":[-0.42388576,1.2801597,1.1988082],"rotation":[-0.0,-0.7071068,0.0,0.7071067],"name":"KON018 - Surface Mount Weldment Part [9049080]050"},{"mesh":44,"translation":[-0.17041285,1.9257518,0.13834737],"rotation":[-0.0,-0.7071068,0.0,0.7071067],"name":"KON002 - Barrel Mount Part [9048960]051"},{"mesh":44,"translation":[-0.1701059,2.2915118,-0.020391779],"rotation":[-0.0,0.7071068,0.0,0.7071067],"name":"KON002 - Barrel Mount Part [9048960]052"},{"mesh":44,"translation":[0.36284298,2.657272,-0.020391779],"rotation":[-0.0,0.7071068,0.0,0.7071067],"name":"KON002 - Barrel Mount Part [9048960]053"},{"mesh":44,"translation":[0.6293151,2.8401518,-0.020391779],"rotation":[-0.0,0.7071068,0.0,0.7071067],"name":"KON002 - Barrel Mount Part [9048960]054"},{"mesh":44,"translation":[1.4287454,3.3887916,-0.020391779],"rotation":[-0.0,0.7071068,0.0,0.7071067],"name":"KON002 - Barrel Mount Part [9048960]055"},{"mesh":44,"translation":[-0.36989835,2.0262852,0.05897547],"rotation":[-0.0,-1.0,0.0,2.8212997E-07],"name":"KON002 - Barrel Mount Part [9048960]056"},{"mesh":44,"translation":[0.36256856,1.559992,0.13834737],"rotation":[-0.0,-0.7071068,0.0,0.7071067],"name":"KON002 - Barrel Mount Part [9048960]057"},{"mesh":44,"translation":[0.6281012,1.3771119,0.13834737],"rotation":[-0.0,-0.7071068,0.0,0.7071067],"name":"KON002 - Barrel Mount Part [9048960]058"},{"mesh":44,"translation":[1.1604408,1.0113517,0.13834737],"rotation":[-0.0,-0.7071068,0.0,0.7071067],"name":"KON002 - Barrel Mount Part [9048960]059"},{"mesh":44,"translation":[-0.17041285,1.9257518,1.1988082],"rotation":[-0.0,0.7071068,0.0,0.7071067],"name":"KON002 - Barrel Mount Part [9048960]060"},{"mesh":44,"translation":[0.36256856,1.559992,1.1988082],"rotation":[-0.0,0.7071068,0.0,0.7071067],"name":"KON002 - Barrel Mount Part [9048960]061"},{"mesh":44,"translation":[0.6281012,1.3771119,1.1988082],"rotation":[-0.0,0.7071068,0.0,0.7071067],"name":"KON002 - Barrel Mount Part [9048960]062"},{"mesh":44,"translation":[1.1604408,1.0113517,1.1988082],"rotation":[-0.0,0.7071068,0.0,0.7071067],"name":"KON002 - Barrel Mount Part [9048960]063"},{"mesh":44,"translation":[0.36284298,2.657272,-1.0808526],"rotation":[-0.0,-0.7071068,0.0,0.7071067],"name":"KON002 - Barrel Mount Part [9048960]064"},{"mesh":44,"translation":[0.6293151,2.8401518,-1.0808526],"rotation":[-0.0,-0.7071068,0.0,0.7071067],"name":"KON002 - Barrel Mount Part [9048960]065"},{"mesh":44,"translation":[1.4287454,3.3887916,-1.0808526],"rotation":[-0.0,-0.7071068,0.0,0.7071067],"name":"KON002 - Barrel Mount Part [9048960]066"},{"mesh":44,"translation":[-0.44932607,2.1086318,-1.0808526],"rotation":[-0.0,-0.7071068,0.0,0.7071067],"name":"KON002 - Barrel Mount Part [9048960]067"},{"mesh":44,"translation":[-0.71602607,2.0262852,-1.0808526],"rotation":[-0.0,-0.7071068,0.0,0.7071067],"name":"KON002 - Barrel Mount Part [9048960]068"},{"mesh":44,"translation":[-1.2308598,2.0262852,-1.0808526],"rotation":[-0.0,-0.7071068,0.0,0.7071067],"name":"KON002 - Barrel Mount Part [9048960]069"},{"mesh":44,"translation":[-1.4303639,2.0262852,-0.88134855],"name":"KON002 - Barrel Mount Part [9048960]070"},{"mesh":44,"translation":[-1.4303639,2.0262852,0.99929947],"rotation":[-0.0,1.4546442E-14,0.0,1.0],"name":"KON002 - Barrel Mount Part [9048960]071"},{"mesh":44,"translation":[-1.2308598,2.0262852,1.1988082],"rotation":[-0.0,0.7071068,0.0,0.7071067],"name":"KON002 - Barrel Mount Part [9048960]072"},{"mesh":44,"translation":[-1.4303639,2.0262852,-0.074374534],"name":"KON002 - Barrel Mount Part [9048960]073"},{"mesh":44,"translation":[-1.4303639,2.0262852,0.19232547],"rotation":[-0.0,1.4546442E-14,0.0,1.0],"name":"KON002 - Barrel Mount Part [9048960]074"},{"mesh":44,"translation":[-0.42388576,2.0262852,1.1988082],"rotation":[-0.0,0.7071068,0.0,0.7071067],"name":"KON002 - Barrel Mount Part [9048960]075"},{"mesh":44,"translation":[-0.17041285,1.3669521,0.13834737],"rotation":[-0.0,-0.7071068,0.0,0.7071067],"name":"KON002 - Barrel Mount Part [9048960]076"},{"mesh":44,"translation":[-0.1701059,1.7327118,-0.020391779],"rotation":[-0.0,0.7071068,0.0,0.7071067],"name":"KON002 - Barrel Mount Part [9048960]077"},{"mesh":44,"translation":[0.36284298,2.0984719,-0.020391779],"rotation":[-0.0,0.7071068,0.0,0.7071067],"name":"KON002 - Barrel Mount Part [9048960]078"},{"mesh":44,"translation":[0.6293151,2.281352,-0.020391779],"rotation":[-0.0,0.7071068,0.0,0.7071067],"name":"KON002 - Barrel Mount Part [9048960]079"},{"mesh":44,"translation":[1.4287454,2.8299918,-0.020391779],"rotation":[-0.0,0.7071068,0.0,0.7071067],"name":"KON002 - Barrel Mount Part [9048960]080"},{"mesh":44,"translation":[-0.36989835,1.4674848,0.05897547],"rotation":[-0.0,-1.0,0.0,2.8212997E-07],"name":"KON002 - Barrel Mount Part [9048960]081"},{"mesh":44,"translation":[0.36256856,1.0011919,0.13834737],"rotation":[-0.0,-0.7071068,0.0,0.7071067],"name":"KON002 - Barrel Mount Part [9048960]082"},{"mesh":44,"translation":[0.6281012,0.8183117,0.13834737],"rotation":[-0.0,-0.7071068,0.0,0.7071067],"name":"KON002 - Barrel Mount Part [9048960]083"},{"mesh":44,"translation":[1.1604408,0.45255175,0.13834737],"rotation":[-0.0,-0.7071068,0.0,0.7071067],"name":"KON002 - Barrel Mount Part [9048960]084"},{"mesh":44,"translation":[-0.17041285,1.3669521,1.1988082],"rotation":[-0.0,0.7071068,0.0,0.7071067],"name":"KON002 - Barrel Mount Part [9048960]085"},{"mesh":44,"translation":[0.36256856,1.0011919,1.1988082],"rotation":[-0.0,0.7071068,0.0,0.7071067],"name":"KON002 - Barrel Mount Part [9048960]086"},{"mesh":44,"translation":[0.6281012,0.8183117,1.1988082],"rotation":[-0.0,0.7071068,0.0,0.7071067],"name":"KON002 - Barrel Mount Part [9048960]087"},{"mesh":44,"translation":[1.1604408,0.45255175,1.1988082],"rotation":[-0.0,0.7071068,0.0,0.7071067],"name":"KON002 - Barrel Mount Part [9048960]088"},{"mesh":44,"translation":[0.36284298,2.0984719,-1.0808526],"rotation":[-0.0,-0.7071068,0.0,0.7071067],"name":"KON002 - Barrel Mount Part [9048960]089"},{"mesh":44,"translation":[0.6293151,2.281352,-1.0808526],"rotation":[-0.0,-0.7071068,0.0,0.7071067],"name":"KON002 - Barrel Mount Part [9048960]090"},{"mesh":44,"translation":[1.4287454,2.8299918,-1.0808526],"rotation":[-0.0,-0.7071068,0.0,0.7071067],"name":"KON002 - Barrel Mount Part [9048960]091"},{"mesh":44,"translation":[-0.44932607,1.5498316,-1.0808526],"rotation":[-0.0,-0.7071068,0.0,0.7071067],"name":"KON002 - Barrel Mount Part [9048960]092"},{"mesh":44,"translation":[-0.71602607,1.4674848,-1.0808526],"rotation":[-0.0,-0.7071068,0.0,0.7071067],"name":"KON002 - Barrel Mount Part [9048960]093"},{"mesh":44,"translation":[-1.2308598,1.4674848,-1.0808526],"rotation":[-0.0,-0.7071068,0.0,0.7071067],"name":"KON002 - Barrel Mount Part [9048960]094"},{"mesh":44,"translation":[-1.4303639,1.4674848,-0.88134855],"name":"KON002 - Barrel Mount Part [9048960]095"},{"mesh":44,"translation":[-1.4303639,1.4674848,0.99929947],"rotation":[-0.0,1.4546442E-14,0.0,1.0],"name":"KON002 - Barrel Mount Part [9048960]096"},{"mesh":44,"translation":[-1.2308598,1.4674848,1.1988082],"rotation":[-0.0,0.7071068,0.0,0.7071067],"name":"KON002 - Barrel Mount Part [9048960]097"},{"mesh":44,"translation":[-1.4303639,1.4674848,-0.074374534],"name":"KON002 - Barrel Mount Part [9048960]098"},{"mesh":44,"translation":[-1.4303639,1.4674848,0.19232547],"rotation":[-0.0,1.4546442E-14,0.0,1.0],"name":"KON002 - Barrel Mount Part [9048960]099"},{"mesh":44,"translation":[-0.42388576,1.4674848,1.1988082],"rotation":[-0.0,0.7071068,0.0,0.7071067],"name":"KON002 - Barrel Mount Part [9048960]100"}],"meshes":[{"primitives":[{"attributes":{"POSITION":1,"TANGENT":2,"NORMAL":3,"TEXCOORD_0":4},"indices":0,"material":0}],"name":"Infill_Glass_Raked & Horizontal Generic [8199751]"},{"primitives":[{"attributes":{"POSITION":6,"TANGENT":7,"NORMAL":8,"TEXCOORD_0":9},"indices":5,"material":0}],"name":"Infill_Glass_Raked & Horizontal Generic [8200579]"},{"primitives":[{"attributes":{"POSITION":11,"TANGENT":12,"NORMAL":13,"TEXCOORD_0":14},"indices":10,"material":0}],"name":"Infill_Glass_Raked & Horizontal Generic [8201308]"},{"primitives":[{"attributes":{"POSITION":16,"TANGENT":17,"NORMAL":18,"TEXCOORD_0":19},"indices":15,"material":0}],"name":"Infill_Glass_Transition Generic [8202170]"},{"primitives":[{"attributes":{"POSITION":21,"TANGENT":22,"NORMAL":23,"TEXCOORD_0":24},"indices":20,"material":0}],"name":"Infill_Glass_Raked & Horizontal Generic [8202939]"},{"primitives":[{"attributes":{"POSITION":26,"TANGENT":27,"NORMAL":28,"TEXCOORD_0":29},"indices":25,"material":1},{"attributes":{"POSITION":31,"TANGENT":32,"NORMAL":33,"TEXCOORD_0":34},"indices":30,"material":2}],"name":"Generic Models 1 Generic Models 1 [8568048]"},{"primitives":[{"attributes":{"POSITION":36,"TANGENT":37,"NORMAL":38,"TEXCOORD_0":39},"indices":35,"material":1},{"attributes":{"POSITION":41,"TANGENT":42,"NORMAL":43,"TEXCOORD_0":44},"indices":40,"material":2}],"name":"Generic Models 2 Generic Models 2 [8568681]"},{"primitives":[{"attributes":{"POSITION":46,"TANGENT":47,"NORMAL":48,"TEXCOORD_0":49},"indices":45,"material":0}],"name":"Infill_Glass_Raked & Horizontal Generic [8735940]"},{"primitives":[{"attributes":{"POSITION":51,"TANGENT":52,"NORMAL":53,"TEXCOORD_0":54},"indices":50,"material":1},{"attributes":{"POSITION":56,"TANGENT":57,"NORMAL":58,"TEXCOORD_0":59},"indices":55,"material":2}],"name":"Generic Models 10 Generic Models 1 [8735975]"},{"primitives":[{"attributes":{"POSITION":61,"TANGENT":62,"NORMAL":63,"TEXCOORD_0":64},"indices":60,"material":0}],"name":"Infill_Glass_Raked & Horizontal Generic [8736296]"},{"primitives":[{"attributes":{"POSITION":66,"TANGENT":67,"NORMAL":68,"TEXCOORD_0":69},"indices":65,"material":0}],"name":"Infill_Glass_Raked & Horizontal Generic [8737682]"},{"primitives":[{"attributes":{"POSITION":71,"TANGENT":72,"NORMAL":73,"TEXCOORD_0":74},"indices":70,"material":0}],"name":"Casework 1 Casework 1 [8738332]"},{"primitives":[{"attributes":{"POSITION":76,"TANGENT":77,"NORMAL":78,"TEXCOORD_0":79},"indices":75,"material":0}],"name":"Infill_Glass_Raked & Horizontal Generic [8738822]"},{"primitives":[{"attributes":{"POSITION":81,"TANGENT":82,"NORMAL":83,"TEXCOORD_0":84},"indices":80,"material":0}],"name":"Infill_Glass_Raked & Horizontal Generic [8739062]"},{"primitives":[{"attributes":{"POSITION":86,"TANGENT":87,"NORMAL":88,"TEXCOORD_0":89},"indices":85,"material":0}],"name":"Infill_Glass_Raked & Horizontal Generic [8739156]"},{"primitives":[{"attributes":{"POSITION":91,"TANGENT":92,"NORMAL":93,"TEXCOORD_0":94},"indices":90,"material":0}],"name":"Infill_Glass_Raked & Horizontal Generic [8739593]"},{"primitives":[{"attributes":{"POSITION":96,"TANGENT":97,"NORMAL":98,"TEXCOORD_0":99},"indices":95,"material":1}],"name":"LS201 & LS202 - Konic Post Material LS Material [9048501]001"},{"primitives":[{"attributes":{"POSITION":101,"TANGENT":102,"NORMAL":103,"TEXCOORD_0":104},"indices":100,"material":1}],"name":"LS201 & LS202 - Konic Post Material LS Material [9048531]001"},{"primitives":[{"attributes":{"POSITION":106,"TANGENT":107,"NORMAL":108,"TEXCOORD_0":109},"indices":105,"material":1}],"name":"LS201 & LS202 - Konic Post Material LS Material [9048551]001"},{"primitives":[{"attributes":{"POSITION":111,"TANGENT":112,"NORMAL":113,"TEXCOORD_0":114},"indices":110,"material":1}],"name":"LS201 & LS202 - Konic Post Material LS Material [9048569]001"},{"primitives":[{"attributes":{"POSITION":116,"TANGENT":117,"NORMAL":118,"TEXCOORD_0":119},"indices":115,"material":1}],"name":"LS201 & LS202 - Konic Post Material LS Material [9048587]001"},{"primitives":[{"attributes":{"POSITION":121,"TANGENT":122,"NORMAL":123,"TEXCOORD_0":124},"indices":120,"material":1}],"name":"LS201 & LS202 - Konic Post Material LS Material [9048608]001"},{"primitives":[{"attributes":{"POSITION":126,"TANGENT":127,"NORMAL":128,"TEXCOORD_0":129},"indices":125,"material":1}],"name":"LS201 & LS202 - Konic Post Material LS Material [9048616]001"},{"primitives":[{"attributes":{"POSITION":131,"TANGENT":132,"NORMAL":133,"TEXCOORD_0":134},"indices":130,"material":1}],"name":"LS201 & LS202 - Konic Post Material LS Material [9048634]001"},{"primitives":[{"attributes":{"POSITION":136,"TANGENT":137,"NORMAL":138,"TEXCOORD_0":139},"indices":135,"material":1}],"name":"LS201 & LS202 - Konic Post Material LS Material [9048652]001"},{"primitives":[{"attributes":{"POSITION":141,"TANGENT":142,"NORMAL":143,"TEXCOORD_0":144},"indices":140,"material":1}],"name":"LS201 & LS202 - Konic Post Material LS Material [9048819]001"},{"primitives":[{"attributes":{"POSITION":146,"TANGENT":147,"NORMAL":148,"TEXCOORD_0":149},"indices":145,"material":1}],"name":"LS201 & LS202 - Konic Post Material LS Material [9048824]001"},{"primitives":[{"attributes":{"POSITION":151,"TANGENT":152,"NORMAL":153,"TEXCOORD_0":154},"indices":150,"material":1}],"name":"LS201 & LS202 - Konic Post Material LS Material [9048829]001"},{"primitives":[{"attributes":{"POSITION":156,"TANGENT":157,"NORMAL":158,"TEXCOORD_0":159},"indices":155,"material":1}],"name":"LS201 & LS202 - Konic Post Material LS Material [9048834]001"},{"primitives":[{"attributes":{"POSITION":161,"TANGENT":162,"NORMAL":163,"TEXCOORD_0":164},"indices":160,"material":1}],"name":"LS201 & LS202 - Konic Post Material LS Material [9048880]001"},{"primitives":[{"attributes":{"POSITION":166,"TANGENT":167,"NORMAL":168,"TEXCOORD_0":169},"indices":165,"material":1}],"name":"LS201 & LS202 - Konic Post Material LS Material [9048885]001"},{"primitives":[{"attributes":{"POSITION":171,"TANGENT":172,"NORMAL":173,"TEXCOORD_0":174},"indices":170,"material":1}],"name":"LS201 & LS202 - Konic Post Material LS Material [9048890]001"},{"primitives":[{"attributes":{"POSITION":176,"TANGENT":177,"NORMAL":178,"TEXCOORD_0":179},"indices":175,"material":1}],"name":"LS201 & LS202 - Konic Post Material LS Material [9048914]001"},{"primitives":[{"attributes":{"POSITION":181,"TANGENT":182,"NORMAL":183,"TEXCOORD_0":184},"indices":180,"material":1}],"name":"LS201 & LS202 - Konic Post Material LS Material [9048949]001"},{"primitives":[{"attributes":{"POSITION":186,"TANGENT":187,"NORMAL":188,"TEXCOORD_0":189},"indices":185,"material":1}],"name":"LS201 & LS202 - Konic Post Material LS Material [9048969]001"},{"primitives":[{"attributes":{"POSITION":191,"TANGENT":192,"NORMAL":193,"TEXCOORD_0":194},"indices":190,"material":1}],"name":"LS201 & LS202 - Konic Post Material LS Material [9048987]001"},{"primitives":[{"attributes":{"POSITION":196,"TANGENT":197,"NORMAL":198,"TEXCOORD_0":199},"indices":195,"material":1}],"name":"LS201 & LS202 - Konic Post Material LS Material [9049006]001"},{"primitives":[{"attributes":{"POSITION":201,"TANGENT":202,"NORMAL":203,"TEXCOORD_0":204},"indices":200,"material":1}],"name":"LS201 & LS202 - Konic Post Material LS Material [9049026]001"},{"primitives":[{"attributes":{"POSITION":206,"TANGENT":207,"NORMAL":208,"TEXCOORD_0":209},"indices":205,"material":1}],"name":"LS201 & LS202 - Konic Post Material LS Material [9049044]001"},{"primitives":[{"attributes":{"POSITION":211,"TANGENT":212,"NORMAL":213,"TEXCOORD_0":214},"indices":210,"material":1}],"name":"LS201 & LS202 - Konic Post Material LS Material [9049062]001"},{"primitives":[{"attributes":{"POSITION":216,"TANGENT":217,"NORMAL":218,"TEXCOORD_0":219},"indices":215,"material":1}],"name":"LS201 & LS202 - Konic Post Material LS Material [9049081]001"},{"primitives":[{"attributes":{"POSITION":221,"TANGENT":222,"NORMAL":223,"TEXCOORD_0":224},"indices":220,"material":3}],"name":"KON021 - Konic Washer Part [9193945]051"},{"primitives":[{"attributes":{"POSITION":226,"TANGENT":227,"NORMAL":228,"TEXCOORD_0":229},"indices":225,"material":1},{"attributes":{"POSITION":231,"TANGENT":232,"NORMAL":233,"TEXCOORD_0":234},"indices":230,"material":2}],"name":"KON006 - Lower Panel Clamp Part [8739162]100"},{"primitives":[{"attributes":{"POSITION":236,"TANGENT":237,"NORMAL":238,"TEXCOORD_0":239},"indices":235,"material":1},{"attributes":{"POSITION":241,"TANGENT":242,"NORMAL":243,"TEXCOORD_0":244},"indices":240,"material":2}],"name":"KON018 - Surface Mount Weldment Part [9049080]026"},{"primitives":[{"attributes":{"POSITION":246,"TANGENT":247,"NORMAL":248,"TEXCOORD_0":249},"indices":245,"material":1},{"attributes":{"POSITION":251,"TANGENT":252,"NORMAL":253,"TEXCOORD_0":254},"indices":250,"material":2}],"name":"KON002 - Barrel Mount Part [9048960]051"}],"accessors":[{"bufferView":0,"componentType":5123,"count":132,"type":"SCALAR","name":"accessorIndices"},{"bufferView":1,"componentType":5126,"count":82,"max":[0.67253757,0.76435065,0.0071501],"min":[-0.22733863,-0.7504923,-0.0071501],"type":"VEC3","name":"accessorPositions"},{"bufferView":2,"componentType":5126,"count":82,"type":"VEC4","name":"accessorTangents"},{"bufferView":1,"byteOffset":984,"componentType":5126,"count":82,"type":"VEC3","name":"accessorNormals"},{"bufferView":3,"componentType":5126,"count":82,"type":"VEC2","name":"accessorUVs"},{"bufferView":0,"byteOffset":264,"componentType":5123,"count":132,"type":"SCALAR","name":"accessorIndices"},{"bufferView":1,"byteOffset":1968,"componentType":5126,"count":82,"max":[0.16510001,0.41611978,0.0071501],"min":[-0.9136126,-1.2214502,-0.0071501],"type":"VEC3","name":"accessorPositions"},{"bufferView":2,"byteOffset":1312,"componentType":5126,"count":82,"type":"VEC4","name":"accessorTangents"},{"bufferView":1,"byteOffset":2952,"componentType":5126,"count":82,"type":"VEC3","name":"accessorNormals"},{"bufferView":3,"byteOffset":656,"componentType":5126,"count":82,"type":"VEC2","name":"accessorUVs"},{"bufferView":0,"byteOffset":528,"componentType":5123,"count":132,"type":"SCALAR","name":"accessorIndices"},{"bufferView":1,"byteOffset":3936,"componentType":5126,"count":96,"max":[0.2519172,0.1524,0.0071501],"min":[0.012700001,-0.701675,-0.0071501],"type":"VEC3","name":"accessorPositions"},{"bufferView":2,"byteOffset":2624,"componentType":5126,"count":96,"type":"VEC4","name":"accessorTangents"},{"bufferView":1,"byteOffset":5088,"componentType":5126,"count":96,"type":"VEC3","name":"accessorNormals"},{"bufferView":3,"byteOffset":1312,"componentType":5126,"count":96,"type":"VEC2","name":"accessorUVs"},{"bufferView":0,"byteOffset":792,"componentType":5123,"count":204,"type":"SCALAR","name":"accessorIndices"},{"bufferView":1,"byteOffset":6240,"componentType":5126,"count":126,"max":[0.77951753,0.0071501,1.4337071],"min":[-0.119604975,-0.0071501,5.266659E-14],"type":"VEC3","name":"accessorPositions"},{"bufferView":2,"byteOffset":4160,"componentType":5126,"count":126,"type":"VEC4","name":"accessorTangents"},{"bufferView":1,"byteOffset":7752,"componentType":5126,"count":126,"type":"VEC3","name":"accessorNormals"},{"bufferView":3,"byteOffset":2080,"componentType":5126,"count":126,"type":"VEC2","name":"accessorUVs"},{"bufferView":0,"byteOffset":1200,"componentType":5123,"count":132,"type":"SCALAR","name":"accessorIndices"},{"bufferView":1,"byteOffset":9264,"componentType":5126,"count":82,"max":[0.3937,0.71999997,0.0071501],"min":[-0.4111075,-0.730215,-0.0071501],"type":"VEC3","name":"accessorPositions"},{"bufferView":2,"byteOffset":6176,"componentType":5126,"count":82,"type":"VEC4","name":"accessorTangents"},{"bufferView":1,"byteOffset":10248,"componentType":5126,"count":82,"type":"VEC3","name":"accessorNormals"},{"bufferView":3,"byteOffset":3088,"componentType":5126,"count":82,"type":"VEC2","name":"accessorUVs"},{"bufferView":0,"byteOffset":1464,"componentType":5123,"count":108051,"type":"SCALAR","name":"accessorIndices"},{"bufferView":1,"byteOffset":11232,"componentType":5126,"count":21198,"max":[-27.580276,2.2050376,-27.066988],"min":[-29.340061,1.0594896,-27.3472],"type":"VEC3","name":"accessorPositions"},{"bufferView":2,"byteOffset":7488,"componentType":5126,"count":21198,"type":"VEC4","name":"accessorTangents"},{"bufferView":1,"byteOffset":265608,"componentType":5126,"count":21198,"type":"VEC3","name":"accessorNormals"},{"bufferView":3,"byteOffset":3744,"componentType":5126,"count":21198,"type":"VEC2","name":"accessorUVs"},{"bufferView":0,"byteOffset":217568,"componentType":5123,"count":456,"type":"SCALAR","name":"accessorIndices"},{"bufferView":1,"byteOffset":519984,"componentType":5126,"count":156,"max":[-27.580276,2.2050376,-27.067],"min":[-29.340061,1.0594896,-27.3472],"type":"VEC3","name":"accessorPositions"},{"bufferView":2,"byteOffset":346656,"componentType":5126,"count":156,"type":"VEC4","name":"accessorTangents"},{"bufferView":1,"byteOffset":521856,"componentType":5126,"count":156,"type":"VEC3","name":"accessorNormals"},{"bufferView":3,"byteOffset":173328,"componentType":5126,"count":156,"type":"VEC2","name":"accessorUVs"},{"bufferView":0,"byteOffset":218480,"componentType":5123,"count":110832,"type":"SCALAR","name":"accessorIndices"},{"bufferView":1,"byteOffset":523728,"componentType":5126,"count":21175,"max":[-27.30563,3.696539,-27.338488],"min":[-29.312819,2.275086,-27.376598],"type":"VEC3","name":"accessorPositions"},{"bufferView":2,"byteOffset":349152,"componentType":5126,"count":21175,"type":"VEC4","name":"accessorTangents"},{"bufferView":1,"byteOffset":777828,"componentType":5126,"count":21175,"type":"VEC3","name":"accessorNormals"},{"bufferView":3,"byteOffset":174576,"componentType":5126,"count":21175,"type":"VEC2","name":"accessorUVs"},{"bufferView":0,"byteOffset":440144,"componentType":5123,"count":492,"type":"SCALAR","name":"accessorIndices"},{"bufferView":1,"byteOffset":1031928,"componentType":5126,"count":168,"max":[-27.30563,3.696539,-27.338488],"min":[-29.312819,2.275086,-27.376587],"type":"VEC3","name":"accessorPositions"},{"bufferView":2,"byteOffset":687952,"componentType":5126,"count":168,"type":"VEC4","name":"accessorTangents"},{"bufferView":1,"byteOffset":1033944,"componentType":5126,"count":168,"type":"VEC3","name":"accessorNormals"},{"bufferView":3,"byteOffset":343976,"componentType":5126,"count":168,"type":"VEC2","name":"accessorUVs"},{"bufferView":0,"byteOffset":441128,"componentType":5123,"count":132,"type":"SCALAR","name":"accessorIndices"},{"bufferView":1,"byteOffset":1035960,"componentType":5126,"count":82,"max":[0.3937,0.71999997,0.0071501],"min":[-0.4111075,-0.730215,-0.0071501],"type":"VEC3","name":"accessorPositions"},{"bufferView":2,"byteOffset":690640,"componentType":5126,"count":82,"type":"VEC4","name":"accessorTangents"},{"bufferView":1,"byteOffset":1036944,"componentType":5126,"count":82,"type":"VEC3","name":"accessorNormals"},{"bufferView":3,"byteOffset":345320,"componentType":5126,"count":82,"type":"VEC2","name":"accessorUVs"},{"bufferView":0,"byteOffset":441392,"componentType":5125,"count":388239,"type":"SCALAR","name":"accessorIndices"},{"bufferView":1,"byteOffset":1037928,"componentType":5126,"count":73560,"max":[-27.30563,3.6965744,-26.119287],"min":[-30.287746,1.0594137,-28.324299],"type":"VEC3","name":"accessorPositions"},{"bufferView":2,"byteOffset":691952,"componentType":5126,"count":73560,"type":"VEC4","name":"accessorTangents"},{"bufferView":1,"byteOffset":1920648,"componentType":5126,"count":73560,"type":"VEC3","name":"accessorNormals"},{"bufferView":3,"byteOffset":345976,"componentType":5126,"count":73560,"type":"VEC2","name":"accessorUVs"},{"bufferView":0,"byteOffset":1994348,"componentType":5125,"count":492,"type":"SCALAR","name":"accessorIndices"},{"bufferView":1,"byteOffset":2803368,"componentType":5126,"count":168,"max":[-27.30563,3.6965744,-26.119287],"min":[-27.580276,1.0594137,-28.324299],"type":"VEC3","name":"accessorPositions"},{"bufferView":2,"byteOffset":1868912,"componentType":5126,"count":168,"type":"VEC4","name":"accessorTangents"},{"bufferView":1,"byteOffset":2805384,"componentType":5126,"count":168,"type":"VEC3","name":"accessorNormals"},{"bufferView":3,"byteOffset":934456,"componentType":5126,"count":168,"type":"VEC2","name":"accessorUVs"},{"bufferView":0,"byteOffset":1996316,"componentType":5123,"count":132,"type":"SCALAR","name":"accessorIndices"},{"bufferView":1,"byteOffset":2807400,"componentType":5126,"count":82,"max":[0.16510001,0.41611978,0.0071501],"min":[-0.9136126,-1.2214502,-0.0071501],"type":"VEC3","name":"accessorPositions"},{"bufferView":2,"byteOffset":1871600,"componentType":5126,"count":82,"type":"VEC4","name":"accessorTangents"},{"bufferView":1,"byteOffset":2808384,"componentType":5126,"count":82,"type":"VEC3","name":"accessorNormals"},{"bufferView":3,"byteOffset":935800,"componentType":5126,"count":82,"type":"VEC2","name":"accessorUVs"},{"bufferView":0,"byteOffset":1996580,"componentType":5123,"count":132,"type":"SCALAR","name":"accessorIndices"},{"bufferView":1,"byteOffset":2809368,"componentType":5126,"count":96,"max":[0.40886727,0.3245767,0.0071501],"min":[-0.35996616,-0.52949834,-0.0071501],"type":"VEC3","name":"accessorPositions"},{"bufferView":2,"byteOffset":1872912,"componentType":5126,"count":96,"type":"VEC4","name":"accessorTangents"},{"bufferView":1,"byteOffset":2810520,"componentType":5126,"count":96,"type":"VEC3","name":"accessorNormals"},{"bufferView":3,"byteOffset":936456,"componentType":5126,"count":96,"type":"VEC2","name":"accessorUVs"},{"bufferView":0,"byteOffset":1996844,"componentType":5123,"count":168,"type":"SCALAR","name":"accessorIndices"},{"bufferView":1,"byteOffset":2811672,"componentType":5126,"count":99,"max":[-28.40499,2.929653,-28.298086],"min":[-29.471046,1.3404851,-28.312412],"type":"VEC3","name":"accessorPositions"},{"bufferView":2,"byteOffset":1874448,"componentType":5126,"count":99,"type":"VEC4","name":"accessorTangents"},{"bufferView":1,"byteOffset":2812860,"componentType":5126,"count":99,"type":"VEC3","name":"accessorNormals"},{"bufferView":3,"byteOffset":937224,"componentType":5126,"count":99,"type":"VEC2","name":"accessorUVs"},{"bufferView":0,"byteOffset":1997180,"componentType":5123,"count":132,"type":"SCALAR","name":"accessorIndices"},{"bufferView":1,"byteOffset":2814048,"componentType":5126,"count":96,"max":[0.70101464,0.3245767,0.0071501],"min":[-0.35996616,-0.52949834,-0.0071501],"type":"VEC3","name":"accessorPositions"},{"bufferView":2,"byteOffset":1876032,"componentType":5126,"count":96,"type":"VEC4","name":"accessorTangents"},{"bufferView":1,"byteOffset":2815200,"componentType":5126,"count":96,"type":"VEC3","name":"accessorNormals"},{"bufferView":3,"byteOffset":938016,"componentType":5126,"count":96,"type":"VEC2","name":"accessorUVs"},{"bufferView":0,"byteOffset":1997444,"componentType":5123,"count":132,"type":"SCALAR","name":"accessorIndices"},{"bufferView":1,"byteOffset":2816352,"componentType":5126,"count":96,"max":[0.70101464,0.3245767,0.0071501],"min":[-0.35996616,-0.52949834,-0.0071501],"type":"VEC3","name":"accessorPositions"},{"bufferView":2,"byteOffset":1877568,"componentType":5126,"count":96,"type":"VEC4","name":"accessorTangents"},{"bufferView":1,"byteOffset":2817504,"componentType":5126,"count":96,"type":"VEC3","name":"accessorNormals"},{"bufferView":3,"byteOffset":938784,"componentType":5126,"count":96,"type":"VEC2","name":"accessorUVs"},{"bufferView":0,"byteOffset":1997708,"componentType":5123,"count":132,"type":"SCALAR","name":"accessorIndices"},{"bufferView":1,"byteOffset":2818656,"componentType":5126,"count":96,"max":[0.7010096,0.3245767,0.0071501],"min":[-0.35996616,-0.52949834,-0.0071501],"type":"VEC3","name":"accessorPositions"},{"bufferView":2,"byteOffset":1879104,"componentType":5126,"count":96,"type":"VEC4","name":"accessorTangents"},{"bufferView":1,"byteOffset":2819808,"componentType":5126,"count":96,"type":"VEC3","name":"accessorNormals"},{"bufferView":3,"byteOffset":939552,"componentType":5126,"count":96,"type":"VEC2","name":"accessorUVs"},{"bufferView":0,"byteOffset":1997972,"componentType":5123,"count":132,"type":"SCALAR","name":"accessorIndices"},{"bufferView":1,"byteOffset":2820960,"componentType":5126,"count":82,"max":[0.38105503,0.71131253,0.0071501],"min":[-0.39211252,-0.71716493,-0.0071501],"type":"VEC3","name":"accessorPositions"},{"bufferView":2,"byteOffset":1880640,"componentType":5126,"count":82,"type":"VEC4","name":"accessorTangents"},{"bufferView":1,"byteOffset":2821944,"componentType":5126,"count":82,"type":"VEC3","name":"accessorNormals"},{"bufferView":3,"byteOffset":940320,"componentType":5126,"count":82,"type":"VEC2","name":"accessorUVs"},{"bufferView":0,"byteOffset":1998236,"componentType":5123,"count":1428,"type":"SCALAR","name":"accessorIndices"},{"bufferView":1,"byteOffset":2822928,"componentType":5126,"count":488,"max":[0.8390128,0.028575,0.0079375],"min":[6.358873E-15,-0.028575,-0.00793755],"type":"VEC3","name":"accessorPositions"},{"bufferView":2,"byteOffset":1881952,"componentType":5126,"count":488,"type":"VEC4","name":"accessorTangents"},{"bufferView":1,"byteOffset":2828784,"componentType":5126,"count":488,"type":"VEC3","name":"accessorNormals"},{"bufferView":3,"byteOffset":940976,"componentType":5126,"count":488,"type":"VEC2","name":"accessorUVs"},{"bufferView":0,"byteOffset":2001092,"componentType":5123,"count":1428,"type":"SCALAR","name":"accessorIndices"},{"bufferView":1,"byteOffset":2834640,"componentType":5126,"count":488,"max":[0.8390128,0.028575,0.0079375],"min":[6.358873E-15,-0.028575,-0.007937596],"type":"VEC3","name":"accessorPositions"},{"bufferView":2,"byteOffset":1889760,"componentType":5126,"count":488,"type":"VEC4","name":"accessorTangents"},{"bufferView":1,"byteOffset":2840496,"componentType":5126,"count":488,"type":"VEC3","name":"accessorNormals"},{"bufferView":3,"byteOffset":944880,"componentType":5126,"count":488,"type":"VEC2","name":"accessorUVs"},{"bufferView":0,"byteOffset":2003948,"componentType":5123,"count":1428,"type":"SCALAR","name":"accessorIndices"},{"bufferView":1,"byteOffset":2846352,"componentType":5126,"count":488,"max":[0.8390128,0.028575,0.0079375],"min":[6.358873E-15,-0.028575,-0.007937597],"type":"VEC3","name":"accessorPositions"},{"bufferView":2,"byteOffset":1897568,"componentType":5126,"count":488,"type":"VEC4","name":"accessorTangents"},{"bufferView":1,"byteOffset":2852208,"componentType":5126,"count":488,"type":"VEC3","name":"accessorNormals"},{"bufferView":3,"byteOffset":948784,"componentType":5126,"count":488,"type":"VEC2","name":"accessorUVs"},{"bufferView":0,"byteOffset":2006804,"componentType":5123,"count":1428,"type":"SCALAR","name":"accessorIndices"},{"bufferView":1,"byteOffset":2858064,"componentType":5126,"count":488,"max":[0.83901274,0.028575,0.0079375],"min":[6.358873E-15,-0.028575,-0.0079375245],"type":"VEC3","name":"accessorPositions"},{"bufferView":2,"byteOffset":1905376,"componentType":5126,"count":488,"type":"VEC4","name":"accessorTangents"},{"bufferView":1,"byteOffset":2863920,"componentType":5126,"count":488,"type":"VEC3","name":"accessorNormals"},{"bufferView":3,"byteOffset":952688,"componentType":5126,"count":488,"type":"VEC2","name":"accessorUVs"},{"bufferView":0,"byteOffset":2009660,"componentType":5123,"count":1428,"type":"SCALAR","name":"accessorIndices"},{"bufferView":1,"byteOffset":2869776,"componentType":5126,"count":488,"max":[0.8390127,0.028575,0.0079375],"min":[6.358873E-15,-0.028575,-0.007937597],"type":"VEC3","name":"accessorPositions"},{"bufferView":2,"byteOffset":1913184,"componentType":5126,"count":488,"type":"VEC4","name":"accessorTangents"},{"bufferView":1,"byteOffset":2875632,"componentType":5126,"count":488,"type":"VEC3","name":"accessorNormals"},{"bufferView":3,"byteOffset":956592,"componentType":5126,"count":488,"type":"VEC2","name":"accessorUVs"},{"bufferView":0,"byteOffset":2012516,"componentType":5123,"count":1428,"type":"SCALAR","name":"accessorIndices"},{"bufferView":1,"byteOffset":2881488,"componentType":5126,"count":488,"max":[0.756666,0.028575055,0.0079375],"min":[6.358873E-15,-0.028575,-0.007937501],"type":"VEC3","name":"accessorPositions"},{"bufferView":2,"byteOffset":1920992,"componentType":5126,"count":488,"type":"VEC4","name":"accessorTangents"},{"bufferView":1,"byteOffset":2887344,"componentType":5126,"count":488,"type":"VEC3","name":"accessorNormals"},{"bufferView":3,"byteOffset":960496,"componentType":5126,"count":488,"type":"VEC2","name":"accessorUVs"},{"bufferView":0,"byteOffset":2015372,"componentType":5123,"count":1428,"type":"SCALAR","name":"accessorIndices"},{"bufferView":1,"byteOffset":2893200,"componentType":5126,"count":488,"max":[0.8390128,0.028575,0.0079375],"min":[6.358873E-15,-0.028575,-0.007937561],"type":"VEC3","name":"accessorPositions"},{"bufferView":2,"byteOffset":1928800,"componentType":5126,"count":488,"type":"VEC4","name":"accessorTangents"},{"bufferView":1,"byteOffset":2899056,"componentType":5126,"count":488,"type":"VEC3","name":"accessorNormals"},{"bufferView":3,"byteOffset":964400,"componentType":5126,"count":488,"type":"VEC2","name":"accessorUVs"},{"bufferView":0,"byteOffset":2018228,"componentType":5123,"count":1428,"type":"SCALAR","name":"accessorIndices"},{"bufferView":1,"byteOffset":2904912,"componentType":5126,"count":488,"max":[0.8390128,0.028575,0.0079375245],"min":[6.358873E-15,-0.028575,-0.0079375],"type":"VEC3","name":"accessorPositions"},{"bufferView":2,"byteOffset":1936608,"componentType":5126,"count":488,"type":"VEC4","name":"accessorTangents"},{"bufferView":1,"byteOffset":2910768,"componentType":5126,"count":488,"type":"VEC3","name":"accessorNormals"},{"bufferView":3,"byteOffset":968304,"componentType":5126,"count":488,"type":"VEC2","name":"accessorUVs"},{"bufferView":0,"byteOffset":2021084,"componentType":5123,"count":1428,"type":"SCALAR","name":"accessorIndices"},{"bufferView":1,"byteOffset":2916624,"componentType":5126,"count":488,"max":[0.83901274,0.028575,0.0079375],"min":[6.358873E-15,-0.028575,-0.007937597],"type":"VEC3","name":"accessorPositions"},{"bufferView":2,"byteOffset":1944416,"componentType":5126,"count":488,"type":"VEC4","name":"accessorTangents"},{"bufferView":1,"byteOffset":2922480,"componentType":5126,"count":488,"type":"VEC3","name":"accessorNormals"},{"bufferView":3,"byteOffset":972208,"componentType":5126,"count":488,"type":"VEC2","name":"accessorUVs"},{"bufferView":0,"byteOffset":2023940,"componentType":5123,"count":1428,"type":"SCALAR","name":"accessorIndices"},{"bufferView":1,"byteOffset":2928336,"componentType":5126,"count":488,"max":[0.8390128,0.028575,0.0079375],"min":[6.358873E-15,-0.028575,-0.007937596],"type":"VEC3","name":"accessorPositions"},{"bufferView":2,"byteOffset":1952224,"componentType":5126,"count":488,"type":"VEC4","name":"accessorTangents"},{"bufferView":1,"byteOffset":2934192,"componentType":5126,"count":488,"type":"VEC3","name":"accessorNormals"},{"bufferView":3,"byteOffset":976112,"componentType":5126,"count":488,"type":"VEC2","name":"accessorUVs"},{"bufferView":0,"byteOffset":2026796,"componentType":5123,"count":1428,"type":"SCALAR","name":"accessorIndices"},{"bufferView":1,"byteOffset":2940048,"componentType":5126,"count":488,"max":[0.8390128,0.028575,0.0079375],"min":[6.358873E-15,-0.028575,-0.007937597],"type":"VEC3","name":"accessorPositions"},{"bufferView":2,"byteOffset":1960032,"componentType":5126,"count":488,"type":"VEC4","name":"accessorTangents"},{"bufferView":1,"byteOffset":2945904,"componentType":5126,"count":488,"type":"VEC3","name":"accessorNormals"},{"bufferView":3,"byteOffset":980016,"componentType":5126,"count":488,"type":"VEC2","name":"accessorUVs"},{"bufferView":0,"byteOffset":2029652,"componentType":5123,"count":1428,"type":"SCALAR","name":"accessorIndices"},{"bufferView":1,"byteOffset":2951760,"componentType":5126,"count":488,"max":[0.8390129,0.028575,0.0079375],"min":[6.358873E-15,-0.028575,-0.007937597],"type":"VEC3","name":"accessorPositions"},{"bufferView":2,"byteOffset":1967840,"componentType":5126,"count":488,"type":"VEC4","name":"accessorTangents"},{"bufferView":1,"byteOffset":2957616,"componentType":5126,"count":488,"type":"VEC3","name":"accessorNormals"},{"bufferView":3,"byteOffset":983920,"componentType":5126,"count":488,"type":"VEC2","name":"accessorUVs"},{"bufferView":0,"byteOffset":2032508,"componentType":5123,"count":1428,"type":"SCALAR","name":"accessorIndices"},{"bufferView":1,"byteOffset":2963472,"componentType":5126,"count":488,"max":[0.8390128,0.028575,0.0079375],"min":[6.358873E-15,-0.028575,-0.007937597],"type":"VEC3","name":"accessorPositions"},{"bufferView":2,"byteOffset":1975648,"componentType":5126,"count":488,"type":"VEC4","name":"accessorTangents"},{"bufferView":1,"byteOffset":2969328,"componentType":5126,"count":488,"type":"VEC3","name":"accessorNormals"},{"bufferView":3,"byteOffset":987824,"componentType":5126,"count":488,"type":"VEC2","name":"accessorUVs"},{"bufferView":0,"byteOffset":2035364,"componentType":5123,"count":1428,"type":"SCALAR","name":"accessorIndices"},{"bufferView":1,"byteOffset":2975184,"componentType":5126,"count":488,"max":[0.8390128,0.028575,0.0079375],"min":[6.358873E-15,-0.028575074,-0.007937561],"type":"VEC3","name":"accessorPositions"},{"bufferView":2,"byteOffset":1983456,"componentType":5126,"count":488,"type":"VEC4","name":"accessorTangents"},{"bufferView":1,"byteOffset":2981040,"componentType":5126,"count":488,"type":"VEC3","name":"accessorNormals"},{"bufferView":3,"byteOffset":991728,"componentType":5126,"count":488,"type":"VEC2","name":"accessorUVs"},{"bufferView":0,"byteOffset":2038220,"componentType":5123,"count":1428,"type":"SCALAR","name":"accessorIndices"},{"bufferView":1,"byteOffset":2986896,"componentType":5126,"count":488,"max":[0.8390128,0.028575,0.0079375],"min":[6.358873E-15,-0.028575,-0.0079375245],"type":"VEC3","name":"accessorPositions"},{"bufferView":2,"byteOffset":1991264,"componentType":5126,"count":488,"type":"VEC4","name":"accessorTangents"},{"bufferView":1,"byteOffset":2992752,"componentType":5126,"count":488,"type":"VEC3","name":"accessorNormals"},{"bufferView":3,"byteOffset":995632,"componentType":5126,"count":488,"type":"VEC2","name":"accessorUVs"},{"bufferView":0,"byteOffset":2041076,"componentType":5123,"count":1428,"type":"SCALAR","name":"accessorIndices"},{"bufferView":1,"byteOffset":2998608,"componentType":5126,"count":488,"max":[0.83901274,0.028575,0.0079375],"min":[6.358873E-15,-0.028575,-0.007937597],"type":"VEC3","name":"accessorPositions"},{"bufferView":2,"byteOffset":1999072,"componentType":5126,"count":488,"type":"VEC4","name":"accessorTangents"},{"bufferView":1,"byteOffset":3004464,"componentType":5126,"count":488,"type":"VEC3","name":"accessorNormals"},{"bufferView":3,"byteOffset":999536,"componentType":5126,"count":488,"type":"VEC2","name":"accessorUVs"},{"bufferView":0,"byteOffset":2043932,"componentType":5123,"count":1428,"type":"SCALAR","name":"accessorIndices"},{"bufferView":1,"byteOffset":3010320,"componentType":5126,"count":488,"max":[0.8390128,0.028575074,0.0079375],"min":[6.358873E-15,-0.028575,-0.007937542],"type":"VEC3","name":"accessorPositions"},{"bufferView":2,"byteOffset":2006880,"componentType":5126,"count":488,"type":"VEC4","name":"accessorTangents"},{"bufferView":1,"byteOffset":3016176,"componentType":5126,"count":488,"type":"VEC3","name":"accessorNormals"},{"bufferView":3,"byteOffset":1003440,"componentType":5126,"count":488,"type":"VEC2","name":"accessorUVs"},{"bufferView":0,"byteOffset":2046788,"componentType":5123,"count":1428,"type":"SCALAR","name":"accessorIndices"},{"bufferView":1,"byteOffset":3022032,"componentType":5126,"count":488,"max":[0.756666,0.028575,0.0079375],"min":[6.358873E-15,-0.028575,-0.007937561],"type":"VEC3","name":"accessorPositions"},{"bufferView":2,"byteOffset":2014688,"componentType":5126,"count":488,"type":"VEC4","name":"accessorTangents"},{"bufferView":1,"byteOffset":3027888,"componentType":5126,"count":488,"type":"VEC3","name":"accessorNormals"},{"bufferView":3,"byteOffset":1007344,"componentType":5126,"count":488,"type":"VEC2","name":"accessorUVs"},{"bufferView":0,"byteOffset":2049644,"componentType":5123,"count":1428,"type":"SCALAR","name":"accessorIndices"},{"bufferView":1,"byteOffset":3033744,"componentType":5126,"count":488,"max":[0.756666,0.028575,0.0079375],"min":[6.358873E-15,-0.028575,-0.007937597],"type":"VEC3","name":"accessorPositions"},{"bufferView":2,"byteOffset":2022496,"componentType":5126,"count":488,"type":"VEC4","name":"accessorTangents"},{"bufferView":1,"byteOffset":3039600,"componentType":5126,"count":488,"type":"VEC3","name":"accessorNormals"},{"bufferView":3,"byteOffset":1011248,"componentType":5126,"count":488,"type":"VEC2","name":"accessorUVs"},{"bufferView":0,"byteOffset":2052500,"componentType":5123,"count":1428,"type":"SCALAR","name":"accessorIndices"},{"bufferView":1,"byteOffset":3045456,"componentType":5126,"count":488,"max":[0.756666,0.028575,0.0079375245],"min":[6.358873E-15,-0.028575,-0.0079375245],"type":"VEC3","name":"accessorPositions"},{"bufferView":2,"byteOffset":2030304,"componentType":5126,"count":488,"type":"VEC4","name":"accessorTangents"},{"bufferView":1,"byteOffset":3051312,"componentType":5126,"count":488,"type":"VEC3","name":"accessorNormals"},{"bufferView":3,"byteOffset":1015152,"componentType":5126,"count":488,"type":"VEC2","name":"accessorUVs"},{"bufferView":0,"byteOffset":2055356,"componentType":5123,"count":1428,"type":"SCALAR","name":"accessorIndices"},{"bufferView":1,"byteOffset":3057168,"componentType":5126,"count":488,"max":[0.756666,0.028575,0.0079375245],"min":[6.358873E-15,-0.028575,-0.0079375245],"type":"VEC3","name":"accessorPositions"},{"bufferView":2,"byteOffset":2038112,"componentType":5126,"count":488,"type":"VEC4","name":"accessorTangents"},{"bufferView":1,"byteOffset":3063024,"componentType":5126,"count":488,"type":"VEC3","name":"accessorNormals"},{"bufferView":3,"byteOffset":1019056,"componentType":5126,"count":488,"type":"VEC2","name":"accessorUVs"},{"bufferView":0,"byteOffset":2058212,"componentType":5123,"count":1428,"type":"SCALAR","name":"accessorIndices"},{"bufferView":1,"byteOffset":3068880,"componentType":5126,"count":488,"max":[0.756666,0.028575,0.0079375],"min":[6.358873E-15,-0.028575,-0.00793767],"type":"VEC3","name":"accessorPositions"},{"bufferView":2,"byteOffset":2045920,"componentType":5126,"count":488,"type":"VEC4","name":"accessorTangents"},{"bufferView":1,"byteOffset":3074736,"componentType":5126,"count":488,"type":"VEC3","name":"accessorNormals"},{"bufferView":3,"byteOffset":1022960,"componentType":5126,"count":488,"type":"VEC2","name":"accessorUVs"},{"bufferView":0,"byteOffset":2061068,"componentType":5123,"count":1428,"type":"SCALAR","name":"accessorIndices"},{"bufferView":1,"byteOffset":3080592,"componentType":5126,"count":488,"max":[0.756666,0.028575,0.007937506],"min":[6.358873E-15,-0.028575,-0.007937506],"type":"VEC3","name":"accessorPositions"},{"bufferView":2,"byteOffset":2053728,"componentType":5126,"count":488,"type":"VEC4","name":"accessorTangents"},{"bufferView":1,"byteOffset":3086448,"componentType":5126,"count":488,"type":"VEC3","name":"accessorNormals"},{"bufferView":3,"byteOffset":1026864,"componentType":5126,"count":488,"type":"VEC2","name":"accessorUVs"},{"bufferView":0,"byteOffset":2063924,"componentType":5123,"count":1428,"type":"SCALAR","name":"accessorIndices"},{"bufferView":1,"byteOffset":3092304,"componentType":5126,"count":488,"max":[0.756666,0.028575,0.007937501],"min":[6.358873E-15,-0.028575,-0.007937501],"type":"VEC3","name":"accessorPositions"},{"bufferView":2,"byteOffset":2061536,"componentType":5126,"count":488,"type":"VEC4","name":"accessorTangents"},{"bufferView":1,"byteOffset":3098160,"componentType":5126,"count":488,"type":"VEC3","name":"accessorNormals"},{"bufferView":3,"byteOffset":1030768,"componentType":5126,"count":488,"type":"VEC2","name":"accessorUVs"},{"bufferView":0,"byteOffset":2066780,"componentType":5123,"count":1428,"type":"SCALAR","name":"accessorIndices"},{"bufferView":1,"byteOffset":3104016,"componentType":5126,"count":488,"max":[0.756666,0.028575,0.0079375],"min":[6.358873E-15,-0.028575,-0.007937597],"type":"VEC3","name":"accessorPositions"},{"bufferView":2,"byteOffset":2069344,"componentType":5126,"count":488,"type":"VEC4","name":"accessorTangents"},{"bufferView":1,"byteOffset":3109872,"componentType":5126,"count":488,"type":"VEC3","name":"accessorNormals"},{"bufferView":3,"byteOffset":1034672,"componentType":5126,"count":488,"type":"VEC2","name":"accessorUVs"},{"bufferView":0,"byteOffset":2069636,"componentType":5123,"count":1440,"type":"SCALAR","name":"accessorIndices"},{"bufferView":1,"byteOffset":3115728,"componentType":5126,"count":484,"max":[0.012700001,0.012700001,-8.253881E-15],"min":[-0.012700001,-0.012700001,-0.0015748],"type":"VEC3","name":"accessorPositions"},{"bufferView":2,"byteOffset":2077152,"componentType":5126,"count":484,"type":"VEC4","name":"accessorTangents"},{"bufferView":1,"byteOffset":3121536,"componentType":5126,"count":484,"type":"VEC3","name":"accessorNormals"},{"bufferView":3,"byteOffset":1038576,"componentType":5126,"count":484,"type":"VEC2","name":"accessorUVs"},{"bufferView":0,"byteOffset":2072516,"componentType":5123,"count":864,"type":"SCALAR","name":"accessorIndices"},{"bufferView":1,"byteOffset":3127344,"componentType":5126,"count":292,"max":[0.006604,0.015875,0.015875],"min":[-0.022722581,-0.015875,-0.015875],"type":"VEC3","name":"accessorPositions"},{"bufferView":2,"byteOffset":2084896,"componentType":5126,"count":292,"type":"VEC4","name":"accessorTangents"},{"bufferView":1,"byteOffset":3130848,"componentType":5126,"count":292,"type":"VEC3","name":"accessorNormals"},{"bufferView":3,"byteOffset":1042448,"componentType":5126,"count":292,"type":"VEC2","name":"accessorUVs"},{"bufferView":0,"byteOffset":2074244,"componentType":5123,"count":858,"type":"SCALAR","name":"accessorIndices"},{"bufferView":1,"byteOffset":3134352,"componentType":5126,"count":289,"max":[0.006604,0.015875,0.015875],"min":[-0.022722581,-0.015875,-0.015875],"type":"VEC3","name":"accessorPositions"},{"bufferView":2,"byteOffset":2089568,"componentType":5126,"count":289,"type":"VEC4","name":"accessorTangents"},{"bufferView":1,"byteOffset":3137820,"componentType":5126,"count":289,"type":"VEC3","name":"accessorNormals"},{"bufferView":3,"byteOffset":1044784,"componentType":5126,"count":289,"type":"VEC2","name":"accessorUVs"},{"bufferView":0,"byteOffset":2075960,"componentType":5123,"count":4740,"type":"SCALAR","name":"accessorIndices"},{"bufferView":1,"byteOffset":3141288,"componentType":5126,"count":1096,"max":[0.05715,0.025400002,0.05715],"min":[-0.05715,-2.9471527E-15,-0.05715],"type":"VEC3","name":"accessorPositions"},{"bufferView":2,"byteOffset":2094192,"componentType":5126,"count":1096,"type":"VEC4","name":"accessorTangents"},{"bufferView":1,"byteOffset":3154440,"componentType":5126,"count":1096,"type":"VEC3","name":"accessorNormals"},{"bufferView":3,"byteOffset":1047096,"componentType":5126,"count":1096,"type":"VEC2","name":"accessorUVs"},{"bufferView":0,"byteOffset":2085440,"componentType":5123,"count":576,"type":"SCALAR","name":"accessorIndices"},{"bufferView":1,"byteOffset":3167592,"componentType":5126,"count":192,"max":[0.0541528,0.025400002,0.0541528],"min":[-0.0541528,0.025400002,-0.0541528],"type":"VEC3","name":"accessorPositions"},{"bufferView":2,"byteOffset":2111728,"componentType":5126,"count":192,"type":"VEC4","name":"accessorTangents"},{"bufferView":1,"byteOffset":3169896,"componentType":5126,"count":192,"type":"VEC3","name":"accessorNormals"},{"bufferView":3,"byteOffset":1055864,"componentType":5126,"count":192,"type":"VEC2","name":"accessorUVs"},{"bufferView":0,"byteOffset":2086592,"componentType":5123,"count":432,"type":"SCALAR","name":"accessorIndices"},{"bufferView":1,"byteOffset":3172200,"componentType":5126,"count":146,"max":[0.0476504,0.015875,0.015875],"min":[-0.0348996,-0.015875,-0.015875],"type":"VEC3","name":"accessorPositions"},{"bufferView":2,"byteOffset":2114800,"componentType":5126,"count":146,"type":"VEC4","name":"accessorTangents"},{"bufferView":1,"byteOffset":3173952,"componentType":5126,"count":146,"type":"VEC3","name":"accessorNormals"},{"bufferView":3,"byteOffset":1057400,"componentType":5126,"count":146,"type":"VEC2","name":"accessorUVs"},{"bufferView":0,"byteOffset":2087456,"componentType":5123,"count":420,"type":"SCALAR","name":"accessorIndices"},{"bufferView":1,"byteOffset":3175704,"componentType":5126,"count":144,"max":[0.0476504,0.015875,0.015875],"min":[-0.0348996,-0.015875,-0.015875],"type":"VEC3","name":"accessorPositions"},{"bufferView":2,"byteOffset":2117136,"componentType":5126,"count":144,"type":"VEC4","name":"accessorTangents"},{"bufferView":1,"byteOffset":3177432,"componentType":5126,"count":144,"type":"VEC3","name":"accessorNormals"},{"bufferView":3,"byteOffset":1058568,"componentType":5126,"count":144,"type":"VEC2","name":"accessorUVs"}],"bufferViews":[{"buffer":0,"byteLength":2088296,"name":"bufferViewScalar"},{"buffer":0,"byteOffset":2088296,"byteLength":3179160,"byteStride":12,"name":"bufferViewFloatVec3"},{"buffer":0,"byteOffset":5267456,"byteLength":2119440,"byteStride":16,"name":"bufferViewFloatVec4"},{"buffer":0,"byteOffset":7386896,"byteLength":1059720,"byteStride":8,"name":"bufferViewFloatVec2"}],"buffers":[{"uri":"Switchback_Railing_Konic.bin","byteLength":8446616}],"materials":[{"pbrMetallicRoughness":{"baseColorFactor":[0.9999998,0.9999999,0.9999999,1.0],"metallicFactor":0.0,"roughnessFactor":0.1},"name":"Glass","extensions":{"KHR_materials_ior":{"ior":1.0},"KHR_materials_transmission":{"transmissionFactor":0.97},"KHR_materials_volume":{"thicknessFactor":0.56,"attenuationDistance":0.5,"attenuationColor":[0.49521634,0.56476736,0.5317566]}}},{"pbrMetallicRoughness":{"baseColorFactor":[0.9999998,0.9999999,0.9999999,1.0],"baseColorTexture":{"index":0,"extensions":{"KHR_texture_transform":{"offset":[0.19519997,0.8048],"rotation":1.5707964,"scale":[0.6096,0.6096],"texCoord":0}}},"roughnessFactor":0.2,"metallicRoughnessTexture":{"index":0,"extensions":{"KHR_texture_transform":{"offset":[0.19519997,0.8048],"rotation":1.5707964,"scale":[0.6096,0.6096],"texCoord":0}}}},"name":"Steel_Linear"},{"pbrMetallicRoughness":{"baseColorFactor":[0.9999998,0.9999999,0.9999999,1.0],"baseColorTexture":{"index":1},"roughnessFactor":0.2,"metallicRoughnessTexture":{"index":1}},"name":"Steel_Radial"},{"pbrMetallicRoughness":{"baseColorFactor":[0.10641303,0.10641304,0.10641304,1.0],"metallicFactor":0.0,"roughnessFactor":0.99,"metallicRoughnessTexture":{"index":2}},"name":"Rubber","extensions":{"KHR_materials_specular":{"specularFactor":0.1}}}],"textures":[{"sampler":0,"source":0,"name":"Metal_Brushed_Linear_4k.jpg"},{"sampler":0,"source":1,"name":"Metal_Brushed_Radial_4k.jpg"},{"sampler":0,"source":2,"name":"PowderCoat_Roughness_2k0.jpg"}],"images":[{"uri":"textures/Metal_Brushed_Linear_4k.jpg"},{"uri":"textures/Metal_Brushed_Radial_4k.jpg"},{"uri":"textures/PowderCoat_Roughness_2k0.jpg"}],"samplers":[{"magFilter":9729,"minFilter":9987}]}