{"asset":{"version":"2.0","generator":"babylon.js glTF exporter for 3dsmax 2026 v20251111.2"},"extensionsUsed":["KHR_texture_transform"],"extensionsRequired":["KHR_texture_transform"],"scene":0,"scenes":[{"nodes":[0,1,2,3,4,5,6,7,8,9,10,11,12,13,14,15,16,17,18,19,20,21,22,23,24,25,26,27,28,29,30,31,32,33,34,35,36,37,38,39,40,41,42,43,44,45,46,47,48,49,50,51,52,53,54,55,56,57,58,59,60,61,62,63,64,65,66,67,68,69,70,71,72,73,74,75,76,77,78,79,80,81,82,83,84,85,86,87,88,89,90,91,92,93,94,95,96,97,98,99,100,101,102,103,104,105,106,107,108,109,110,111,112,113,114,115,116,117,118,119,120,121,122,123,124,125,126,127,128,129,130,131,132,133,134,135,136,137,138,139,140,141,142,143,144,145,146,147,148,149,150,151,152,153,154,155,156,157,158,159,160,161,162,163,164,165,166,167,168,169,170,171,172,173,174,175,176,177,178,179,180,181,182,183,184,185,186,187,188,189,190,191,192,193,194,195,196,197,198,199,200,201,202,203,204,205,206,207,208,209,210,211,212,213,214,215,216,217,218,219,220,221,222,223,224,225,226,227,228,229,230,231,232,233,234,235,236,237,238,239,240,241,242,243,244,245,246,247,248,249,250,251,252,253,254,255,256,257,258,259,260,261,262,263,264,265,266,267,268,269]}],"nodes":[{"mesh":0,"translation":[-0.43512926,2.2726853,-0.02357298],"rotation":[-0.67537147,-0.20946,0.20945996,0.6753714],"name":"Nested_Rail LS Material [8461322]"},{"mesh":1,"translation":[1.295707,1.0815789,0.14152625],"rotation":[0.2096398,0.6753155,0.6753157,0.20963989],"name":"Nested_Rail LS Material [8461324]"},{"mesh":2,"translation":[-0.43512926,2.2726853,-0.02357298],"rotation":[-0.6753743,-0.20945084,0.2094508,0.6753742],"scale":[0.99999994,1.0,0.99999994],"name":"CIR024 - Handrail End Cap Part [8482091]006"},{"mesh":2,"translation":[1.5596397,3.6416814,-0.02357298],"rotation":[0.20945992,-0.6753714,0.6753714,-0.20945998],"name":"CIR024 - Handrail End Cap Part [8482091]005"},{"mesh":2,"translation":[-0.3801419,2.233017,0.14152625],"rotation":[0.6753156,-0.2096399,-0.2096399,0.6753155],"name":"CIR024 - Handrail End Cap Part [8482091]004"},{"mesh":2,"translation":[1.295707,1.0815789,0.14152625],"rotation":[0.2096398,0.6753155,0.6753157,0.20963989],"name":"CIR024 - Handrail End Cap Part [8482091]003"},{"mesh":2,"translation":[1.5596397,3.6416814,-1.0776738],"rotation":[-0.20945993,0.67537135,0.67537147,-0.20945992],"name":"CIR024 - Handrail End Cap Part [8482091]002"},{"mesh":2,"translation":[1.295707,1.0815789,1.1956271],"rotation":[-0.20963988,-0.6753156,0.6753157,0.20963983],"name":"CIR024 - Handrail End Cap Part [8482091]001"},{"mesh":3,"translation":[-0.2466454,2.402039,-1.0776738],"rotation":[0.67537147,0.20946,0.20946,0.6753714],"name":"Nested_Rail LS Material [8719226]"},{"mesh":4,"translation":[1.295707,1.0815789,1.1956271],"rotation":[-0.20963988,-0.6753156,0.6753157,0.20963983],"name":"Nested_Rail LS Material [8719249]"},{"mesh":5,"translation":[-1.4271803,2.17551,0.50347626],"rotation":[0.49999997,-0.50000006,0.5000001,0.49999997],"name":"CIR061 - 1 1l2 Rail-To-Rail Connector Part [8719260]001"},{"mesh":5,"translation":[-0.2518823,2.398446,-1.0776738],"rotation":[0.67537147,0.20946,0.20946,0.6753714],"name":"CIR061 - 1 1l2 Rail-To-Rail Connector Part [8719260]002"},{"mesh":5,"translation":[-1.0652304,2.17551,-1.0776738],"rotation":[0.7071068,2.470639E-13,-2.4706393E-13,0.7071067],"name":"CIR061 - 1 1l2 Rail-To-Rail Connector Part [8719260]003"},{"mesh":5,"translation":[-0.030612085,1.9928633,1.1956271],"rotation":[-0.6753156,0.2096399,-0.20963986,0.6753155],"name":"CIR061 - 1 1l2 Rail-To-Rail Connector Part [8719260]004"},{"mesh":5,"translation":[-1.0652304,2.17551,1.1956271],"rotation":[-0.7071068,-0.0,0.0,0.7071067],"name":"CIR061 - 1 1l2 Rail-To-Rail Connector Part [8719260]005"},{"mesh":6,"translation":[-0.5944614,2.23266,-1.0776738],"rotation":[-3.0908623E-08,0.7071067,0.7071068,3.0908616E-08],"name":"Nested_Bend Bend [8719259]"},{"mesh":7,"translation":[-0.31419477,2.11836,1.1956271],"rotation":[-3.0908627E-08,-0.7071068,0.7071068,-3.0908623E-08],"name":"Nested_Bend Bend [8719267]"},{"mesh":8,"translation":[0.37901872,1.2041348,0.14152625],"name":"Nested_Cable_Single Cable Assembly Generic [8580909]015"},{"mesh":8,"translation":[0.37901872,1.0812678,0.14152625],"name":"Nested_Cable_Single Cable Assembly Generic [8580909]016"},{"mesh":8,"translation":[0.37901872,0.9584009,0.14152625],"name":"Nested_Cable_Single Cable Assembly Generic [8580909]017"},{"mesh":8,"translation":[0.37901872,0.8355339,0.14152625],"name":"Nested_Cable_Single Cable Assembly Generic [8580909]018"},{"mesh":8,"translation":[0.37901872,1.5727357,0.14152625],"name":"Nested_Cable_Single Cable Assembly Generic [8580909]019"},{"mesh":8,"translation":[0.37901872,1.4498687,0.14152625],"name":"Nested_Cable_Single Cable Assembly Generic [8580909]020"},{"mesh":8,"translation":[0.37901872,1.3270017,0.14152625],"name":"Nested_Cable_Single Cable Assembly Generic [8580909]021"},{"mesh":8,"translation":[0.37901872,1.2041348,1.1956271],"name":"Nested_Cable_Single Cable Assembly Generic [8580909]022"},{"mesh":8,"translation":[0.37901872,1.0812678,1.1956271],"name":"Nested_Cable_Single Cable Assembly Generic [8580909]023"},{"mesh":8,"translation":[0.37901872,0.9584009,1.1956271],"name":"Nested_Cable_Single Cable Assembly Generic [8580909]024"},{"mesh":8,"translation":[0.37901872,0.8355339,1.1956271],"name":"Nested_Cable_Single Cable Assembly Generic [8580909]025"},{"mesh":8,"translation":[0.37901872,1.5727357,1.1956271],"name":"Nested_Cable_Single Cable Assembly Generic [8580909]026"},{"mesh":8,"translation":[0.37901872,1.4498687,1.1956271],"name":"Nested_Cable_Single Cable Assembly Generic [8580909]027"},{"mesh":8,"translation":[0.37901872,1.3270017,1.1956271],"name":"Nested_Cable_Single Cable Assembly Generic [8580909]028"},{"mesh":9,"translation":[-0.33126676,1.6921167,0.14152588],"rotation":[-0.20962766,-0.67531943,0.67531943,0.20962761],"name":"KOT010 - Right-Hand Threaded End Stop Part [8137739]001"},{"mesh":9,"translation":[-0.33126676,1.5692497,0.14152588],"rotation":[-0.20962766,-0.67531943,0.67531943,0.20962761],"name":"KOT010 - Right-Hand Threaded End Stop Part [8137739]002"},{"mesh":9,"translation":[-0.33126676,1.4463828,0.14152588],"rotation":[-0.20962766,-0.67531943,0.67531943,0.20962761],"name":"KOT010 - Right-Hand Threaded End Stop Part [8137739]003"},{"mesh":9,"translation":[-0.33126676,1.3235159,0.14152588],"rotation":[-0.20962766,-0.67531943,0.67531943,0.20962761],"name":"KOT010 - Right-Hand Threaded End Stop Part [8137739]004"},{"mesh":9,"translation":[-0.33126676,2.0607176,0.14152588],"rotation":[-0.20962766,-0.67531943,0.67531943,0.20962761],"name":"KOT010 - Right-Hand Threaded End Stop Part [8137739]005"},{"mesh":9,"translation":[-0.33126676,1.9378506,0.14152588],"rotation":[-0.20962766,-0.67531943,0.67531943,0.20962761],"name":"KOT010 - Right-Hand Threaded End Stop Part [8137739]006"},{"mesh":9,"translation":[-0.33126676,1.8149837,0.14152588],"rotation":[-0.20962766,-0.67531943,0.67531943,0.20962761],"name":"KOT010 - Right-Hand Threaded End Stop Part [8137739]007"},{"mesh":9,"translation":[1.4247983,3.2875881,-0.023573343],"rotation":[0.67537427,0.20945083,0.20945083,0.67537427],"scale":[0.99999994,1.0,0.99999994],"name":"KOT010 - Right-Hand Threaded End Stop Part [8137739]008"},{"mesh":9,"translation":[1.4247983,3.1647103,-0.023573343],"rotation":[0.67537427,0.20945083,0.20945083,0.67537427],"scale":[0.99999994,1.0,0.99999994],"name":"KOT010 - Right-Hand Threaded End Stop Part [8137739]009"},{"mesh":9,"translation":[1.4247983,3.0418327,-0.023573343],"rotation":[0.67537427,0.20945083,0.20945083,0.67537427],"scale":[0.99999994,1.0,0.99999994],"name":"KOT010 - Right-Hand Threaded End Stop Part [8137739]010"},{"mesh":9,"translation":[1.4247983,2.918955,-0.023573343],"rotation":[0.67537427,0.20945083,0.20945083,0.67537427],"scale":[0.99999994,1.0,0.99999994],"name":"KOT010 - Right-Hand Threaded End Stop Part [8137739]011"},{"mesh":9,"translation":[1.4247983,2.7960773,-0.023573343],"rotation":[0.67537427,0.20945083,0.20945083,0.67537427],"scale":[0.99999994,1.0,0.99999994],"name":"KOT010 - Right-Hand Threaded End Stop Part [8137739]012"},{"mesh":9,"translation":[1.4247983,2.6731997,-0.023573343],"rotation":[0.67537427,0.20945083,0.20945083,0.67537427],"scale":[0.99999994,1.0,0.99999994],"name":"KOT010 - Right-Hand Threaded End Stop Part [8137739]013"},{"mesh":9,"translation":[1.4247983,3.4104657,-0.023573343],"rotation":[0.67537427,0.20945083,0.20945083,0.67537427],"scale":[0.99999994,1.0,0.99999994],"name":"KOT010 - Right-Hand Threaded End Stop Part [8137739]014"},{"mesh":9,"translation":[1.4247983,3.2875881,-1.077674],"rotation":[-0.6753743,-0.20945084,0.2094508,0.6753742],"scale":[0.99999994,1.0,0.99999994],"name":"KOT010 - Right-Hand Threaded End Stop Part [8137739]015"},{"mesh":9,"translation":[1.4247983,3.1647103,-1.077674],"rotation":[-0.6753743,-0.20945084,0.2094508,0.6753742],"scale":[0.99999994,1.0,0.99999994],"name":"KOT010 - Right-Hand Threaded End Stop Part [8137739]016"},{"mesh":9,"translation":[1.4247983,3.0418327,-1.077674],"rotation":[-0.6753743,-0.20945084,0.2094508,0.6753742],"scale":[0.99999994,1.0,0.99999994],"name":"KOT010 - Right-Hand Threaded End Stop Part [8137739]017"},{"mesh":9,"translation":[1.4247983,2.918955,-1.077674],"rotation":[-0.6753743,-0.20945084,0.2094508,0.6753742],"scale":[0.99999994,1.0,0.99999994],"name":"KOT010 - Right-Hand Threaded End Stop Part [8137739]018"},{"mesh":9,"translation":[1.4247983,2.7960773,-1.077674],"rotation":[-0.6753743,-0.20945084,0.2094508,0.6753742],"scale":[0.99999994,1.0,0.99999994],"name":"KOT010 - Right-Hand Threaded End Stop Part [8137739]019"},{"mesh":9,"translation":[1.4247983,2.6731997,-1.077674],"rotation":[-0.6753743,-0.20945084,0.2094508,0.6753742],"scale":[0.99999994,1.0,0.99999994],"name":"KOT010 - Right-Hand Threaded End Stop Part [8137739]020"},{"mesh":9,"translation":[1.4247983,3.4104657,-1.077674],"rotation":[-0.6753743,-0.20945084,0.2094508,0.6753742],"scale":[0.99999994,1.0,0.99999994],"name":"KOT010 - Right-Hand Threaded End Stop Part [8137739]021"},{"mesh":9,"translation":[-0.33126676,1.6921167,1.1956267],"rotation":[0.20962758,0.6753193,0.67531943,0.20962766],"name":"KOT010 - Right-Hand Threaded End Stop Part [8137739]022"},{"mesh":9,"translation":[-0.33126676,1.5692497,1.1956267],"rotation":[0.20962758,0.6753193,0.67531943,0.20962766],"name":"KOT010 - Right-Hand Threaded End Stop Part [8137739]023"},{"mesh":9,"translation":[-0.33126676,1.4463828,1.1956267],"rotation":[0.20962758,0.6753193,0.67531943,0.20962766],"name":"KOT010 - Right-Hand Threaded End Stop Part [8137739]024"},{"mesh":9,"translation":[-0.33126676,1.3235159,1.1956267],"rotation":[0.20962758,0.6753193,0.67531943,0.20962766],"name":"KOT010 - Right-Hand Threaded End Stop Part [8137739]025"},{"mesh":9,"translation":[-0.33126676,2.0607176,1.1956267],"rotation":[0.20962758,0.6753193,0.67531943,0.20962766],"name":"KOT010 - Right-Hand Threaded End Stop Part [8137739]026"},{"mesh":9,"translation":[-0.33126676,1.9378506,1.1956267],"rotation":[0.20962758,0.6753193,0.67531943,0.20962766],"name":"KOT010 - Right-Hand Threaded End Stop Part [8137739]027"},{"mesh":9,"translation":[-0.33126676,1.8149837,1.1956267],"rotation":[0.20962758,0.6753193,0.67531943,0.20962766],"name":"KOT010 - Right-Hand Threaded End Stop Part [8137739]028"},{"mesh":9,"translation":[-1.4271812,1.6684172,-0.93812674],"rotation":[-0.5,-0.5,0.5,-0.5],"name":"KOT010 - Right-Hand Threaded End Stop Part [8137739]029"},{"mesh":9,"translation":[-1.4271812,1.5686314,-0.93812674],"rotation":[-0.5,-0.5,0.5,-0.5],"name":"KOT010 - Right-Hand Threaded End Stop Part [8137739]030"},{"mesh":9,"translation":[-1.4271812,1.4688457,-0.93812674],"rotation":[-0.5,-0.5,0.5,-0.5],"name":"KOT010 - Right-Hand Threaded End Stop Part [8137739]031"},{"mesh":9,"translation":[-1.4271812,1.36906,-0.93812674],"rotation":[-0.5,-0.5,0.5,-0.5],"name":"KOT010 - Right-Hand Threaded End Stop Part [8137739]032"},{"mesh":9,"translation":[-1.4271812,2.06756,-0.93812674],"rotation":[-0.5,-0.5,0.5,-0.5],"name":"KOT010 - Right-Hand Threaded End Stop Part [8137739]033"},{"mesh":9,"translation":[-1.4271812,1.8679886,-0.93812674],"rotation":[-0.5,-0.5,0.5,-0.5],"name":"KOT010 - Right-Hand Threaded End Stop Part [8137739]034"},{"mesh":9,"translation":[-1.4271812,1.7682029,-0.93812674],"rotation":[-0.5,-0.5,0.5,-0.5],"name":"KOT010 - Right-Hand Threaded End Stop Part [8137739]035"},{"mesh":9,"translation":[-1.4271812,1.9677743,-0.93812674],"rotation":[-0.5,-0.5,0.5,-0.5],"name":"KOT010 - Right-Hand Threaded End Stop Part [8137739]036"},{"mesh":9,"translation":[-0.5189786,1.8679886,-1.077674],"rotation":[0.7071068,-0.0,0.0,0.7071067],"name":"KOT010 - Right-Hand Threaded End Stop Part [8137739]037"},{"mesh":9,"translation":[-0.5189786,1.7682029,-1.077674],"rotation":[0.7071068,-0.0,0.0,0.7071067],"name":"KOT010 - Right-Hand Threaded End Stop Part [8137739]038"},{"mesh":9,"translation":[-0.5189786,1.6684172,-1.077674],"rotation":[0.7071068,-0.0,0.0,0.7071067],"name":"KOT010 - Right-Hand Threaded End Stop Part [8137739]039"},{"mesh":9,"translation":[-0.5189786,1.5686314,-1.077674],"rotation":[0.7071068,-0.0,0.0,0.7071067],"name":"KOT010 - Right-Hand Threaded End Stop Part [8137739]040"},{"mesh":9,"translation":[-0.5189786,1.4688457,-1.077674],"rotation":[0.7071068,-0.0,0.0,0.7071067],"name":"KOT010 - Right-Hand Threaded End Stop Part [8137739]041"},{"mesh":9,"translation":[-0.5189786,1.36906,-1.077674],"rotation":[0.7071068,-0.0,0.0,0.7071067],"name":"KOT010 - Right-Hand Threaded End Stop Part [8137739]042"},{"mesh":9,"translation":[-0.5189786,2.06756,-1.077674],"rotation":[0.7071068,-0.0,0.0,0.7071067],"name":"KOT010 - Right-Hand Threaded End Stop Part [8137739]043"},{"mesh":9,"translation":[-0.5189786,1.9677743,-1.077674],"rotation":[0.7071068,-0.0,0.0,0.7071067],"name":"KOT010 - Right-Hand Threaded End Stop Part [8137739]044"},{"mesh":9,"translation":[-1.2876339,1.6684172,1.1956267],"rotation":[-3.0908627E-08,-0.7071068,0.7071068,-3.0908623E-08],"name":"KOT010 - Right-Hand Threaded End Stop Part [8137739]045"},{"mesh":9,"translation":[-1.2876339,1.5686314,1.1956267],"rotation":[-3.0908627E-08,-0.7071068,0.7071068,-3.0908623E-08],"name":"KOT010 - Right-Hand Threaded End Stop Part [8137739]046"},{"mesh":9,"translation":[-1.2876339,1.4688457,1.1956267],"rotation":[-3.0908627E-08,-0.7071068,0.7071068,-3.0908623E-08],"name":"KOT010 - Right-Hand Threaded End Stop Part [8137739]047"},{"mesh":9,"translation":[-1.2876339,1.36906,1.1956267],"rotation":[-3.0908627E-08,-0.7071068,0.7071068,-3.0908623E-08],"name":"KOT010 - Right-Hand Threaded End Stop Part [8137739]048"},{"mesh":9,"translation":[-1.2876339,2.06756,1.1956267],"rotation":[-3.0908627E-08,-0.7071068,0.7071068,-3.0908623E-08],"name":"KOT010 - Right-Hand Threaded End Stop Part [8137739]049"},{"mesh":9,"translation":[-1.2876339,1.8679886,1.1956267],"rotation":[-3.0908627E-08,-0.7071068,0.7071068,-3.0908623E-08],"name":"KOT010 - Right-Hand Threaded End Stop Part [8137739]050"},{"mesh":9,"translation":[-1.2876339,1.7682029,1.1956267],"rotation":[-3.0908627E-08,-0.7071068,0.7071068,-3.0908623E-08],"name":"KOT010 - Right-Hand Threaded End Stop Part [8137739]051"},{"mesh":9,"translation":[-1.2876339,1.9677743,1.1956267],"rotation":[-3.0908627E-08,-0.7071068,0.7071068,-3.0908623E-08],"name":"KOT010 - Right-Hand Threaded End Stop Part [8137739]052"},{"mesh":10,"translation":[1.1429782,0.6792747,0.14152588],"rotation":[-0.6753195,0.20962764,-0.2096276,0.6753194],"name":"KOT012 - Turnbuckle Part [8655227]002"},{"mesh":10,"translation":[1.1429782,0.55640775,0.14152588],"rotation":[-0.6753195,0.20962764,-0.2096276,0.6753194],"name":"KOT012 - Turnbuckle Part [8655227]003"},{"mesh":10,"translation":[1.1429782,0.43354076,0.14152588],"rotation":[-0.6753195,0.20962764,-0.2096276,0.6753194],"name":"KOT012 - Turnbuckle Part [8655227]004"},{"mesh":10,"translation":[1.1429782,0.3106738,0.14152588],"rotation":[-0.6753195,0.20962764,-0.2096276,0.6753194],"name":"KOT012 - Turnbuckle Part [8655227]005"},{"mesh":10,"translation":[1.1429782,1.0478755,0.14152588],"rotation":[-0.6753195,0.20962764,-0.2096276,0.6753194],"name":"KOT012 - Turnbuckle Part [8655227]006"},{"mesh":10,"translation":[1.1429782,0.9250086,0.14152588],"rotation":[-0.6753195,0.20962764,-0.2096276,0.6753194],"name":"KOT012 - Turnbuckle Part [8655227]007"},{"mesh":10,"translation":[1.1429782,0.8021416,0.14152588],"rotation":[-0.6753195,0.20962764,-0.2096276,0.6753194],"name":"KOT012 - Turnbuckle Part [8655227]008"},{"mesh":10,"translation":[-0.2920994,2.1093605,-0.023573343],"rotation":[-0.20945075,0.6753742,0.6753743,-0.20945089],"scale":[0.99999994,1.0,0.99999994],"name":"KOT012 - Turnbuckle Part [8655227]009"},{"mesh":10,"translation":[-0.2920994,1.9864827,-0.023573343],"rotation":[-0.20945075,0.6753742,0.6753743,-0.20945089],"scale":[0.99999994,1.0,0.99999994],"name":"KOT012 - Turnbuckle Part [8655227]010"},{"mesh":10,"translation":[-0.2920994,1.863605,-0.023573343],"rotation":[-0.20945075,0.6753742,0.6753743,-0.20945089],"scale":[0.99999994,1.0,0.99999994],"name":"KOT012 - Turnbuckle Part [8655227]011"},{"mesh":10,"translation":[-0.2920994,1.7407273,-0.023573343],"rotation":[-0.20945075,0.6753742,0.6753743,-0.20945089],"scale":[0.99999994,1.0,0.99999994],"name":"KOT012 - Turnbuckle Part [8655227]012"},{"mesh":10,"translation":[-0.2920994,1.6178497,-0.023573343],"rotation":[-0.20945075,0.6753742,0.6753743,-0.20945089],"scale":[0.99999994,1.0,0.99999994],"name":"KOT012 - Turnbuckle Part [8655227]013"},{"mesh":10,"translation":[-0.2920994,1.494972,-0.023573343],"rotation":[-0.20945075,0.6753742,0.6753743,-0.20945089],"scale":[0.99999994,1.0,0.99999994],"name":"KOT012 - Turnbuckle Part [8655227]014"},{"mesh":10,"translation":[-0.2920994,2.232238,-0.023573343],"rotation":[-0.20945075,0.6753742,0.6753743,-0.20945089],"scale":[0.99999994,1.0,0.99999994],"name":"KOT012 - Turnbuckle Part [8655227]015"},{"mesh":10,"translation":[-0.39370018,2.039637,-1.077674],"rotation":[0.20945086,-0.67537427,0.67537427,-0.2094508],"scale":[0.99999994,1.0,0.99999994],"name":"KOT012 - Turnbuckle Part [8655227]016"},{"mesh":10,"translation":[-0.39370018,1.9167594,-1.077674],"rotation":[0.20945086,-0.67537427,0.67537427,-0.2094508],"scale":[0.99999994,1.0,0.99999994],"name":"KOT012 - Turnbuckle Part [8655227]017"},{"mesh":10,"translation":[-0.39370018,1.7938817,-1.077674],"rotation":[0.20945086,-0.67537427,0.67537427,-0.2094508],"scale":[0.99999994,1.0,0.99999994],"name":"KOT012 - Turnbuckle Part [8655227]018"},{"mesh":10,"translation":[-0.39370018,1.6710039,-1.077674],"rotation":[0.20945086,-0.67537427,0.67537427,-0.2094508],"scale":[0.99999994,1.0,0.99999994],"name":"KOT012 - Turnbuckle Part [8655227]019"},{"mesh":10,"translation":[-0.39370018,1.5481263,-1.077674],"rotation":[0.20945086,-0.67537427,0.67537427,-0.2094508],"scale":[0.99999994,1.0,0.99999994],"name":"KOT012 - Turnbuckle Part [8655227]020"},{"mesh":10,"translation":[-0.39370018,1.4252486,-1.077674],"rotation":[0.20945086,-0.67537427,0.67537427,-0.2094508],"scale":[0.99999994,1.0,0.99999994],"name":"KOT012 - Turnbuckle Part [8655227]021"},{"mesh":10,"translation":[-0.39370018,2.1625147,-1.077674],"rotation":[0.20945086,-0.67537427,0.67537427,-0.2094508],"scale":[0.99999994,1.0,0.99999994],"name":"KOT012 - Turnbuckle Part [8655227]022"},{"mesh":10,"translation":[1.1429782,0.6792747,1.1956267],"rotation":[0.6753194,-0.20962761,-0.20962761,0.6753194],"name":"KOT012 - Turnbuckle Part [8655227]023"},{"mesh":10,"translation":[1.1429782,0.55640775,1.1956267],"rotation":[0.6753194,-0.20962761,-0.20962761,0.6753194],"name":"KOT012 - Turnbuckle Part [8655227]024"},{"mesh":10,"translation":[1.1429782,0.43354076,1.1956267],"rotation":[0.6753194,-0.20962761,-0.20962761,0.6753194],"name":"KOT012 - Turnbuckle Part [8655227]025"},{"mesh":10,"translation":[1.1429782,0.3106738,1.1956267],"rotation":[0.6753194,-0.20962761,-0.20962761,0.6753194],"name":"KOT012 - Turnbuckle Part [8655227]026"},{"mesh":10,"translation":[1.1429782,1.0478755,1.1956267],"rotation":[0.6753194,-0.20962761,-0.20962761,0.6753194],"name":"KOT012 - Turnbuckle Part [8655227]027"},{"mesh":10,"translation":[1.1429782,0.9250086,1.1956267],"rotation":[0.6753194,-0.20962761,-0.20962761,0.6753194],"name":"KOT012 - Turnbuckle Part [8655227]028"},{"mesh":10,"translation":[1.1429782,0.8021416,1.1956267],"rotation":[0.6753194,-0.20962761,-0.20962761,0.6753194],"name":"KOT012 - Turnbuckle Part [8655227]029"},{"mesh":10,"translation":[-1.4271812,1.6684172,1.00858],"rotation":[0.5,0.5,0.50000006,-0.49999994],"name":"KOT012 - Turnbuckle Part [8655227]030"},{"mesh":10,"translation":[-1.4271812,1.5686314,1.00858],"rotation":[0.5,0.5,0.50000006,-0.49999994],"name":"KOT012 - Turnbuckle Part [8655227]031"},{"mesh":10,"translation":[-1.4271812,1.4688457,1.00858],"rotation":[0.5,0.5,0.50000006,-0.49999994],"name":"KOT012 - Turnbuckle Part [8655227]032"},{"mesh":10,"translation":[-1.4271812,1.36906,1.00858],"rotation":[0.5,0.5,0.50000006,-0.49999994],"name":"KOT012 - Turnbuckle Part [8655227]033"},{"mesh":10,"translation":[-1.4271812,2.06756,1.00858],"rotation":[0.5,0.5,0.50000006,-0.49999994],"name":"KOT012 - Turnbuckle Part [8655227]034"},{"mesh":10,"translation":[-1.4271812,1.8679886,1.00858],"rotation":[0.5,0.5,0.50000006,-0.49999994],"name":"KOT012 - Turnbuckle Part [8655227]035"},{"mesh":10,"translation":[-1.4271812,1.7682029,1.00858],"rotation":[0.5,0.5,0.50000006,-0.49999994],"name":"KOT012 - Turnbuckle Part [8655227]036"},{"mesh":10,"translation":[-1.4271812,1.9677743,1.00858],"rotation":[0.5,0.5,0.50000006,-0.49999994],"name":"KOT012 - Turnbuckle Part [8655227]037"},{"mesh":10,"translation":[-1.2401369,1.8679886,-1.077674],"rotation":[-3.0908687E-08,0.7071067,0.7071068,3.0908552E-08],"name":"KOT012 - Turnbuckle Part [8655227]038"},{"mesh":10,"translation":[-1.2401369,1.7682029,-1.077674],"rotation":[-3.0908687E-08,0.7071067,0.7071068,3.0908552E-08],"name":"KOT012 - Turnbuckle Part [8655227]039"},{"mesh":10,"translation":[-1.2401369,1.6684172,-1.077674],"rotation":[-3.0908687E-08,0.7071067,0.7071068,3.0908552E-08],"name":"KOT012 - Turnbuckle Part [8655227]040"},{"mesh":10,"translation":[-1.2401369,1.5686314,-1.077674],"rotation":[-3.0908687E-08,0.7071067,0.7071068,3.0908552E-08],"name":"KOT012 - Turnbuckle Part [8655227]041"},{"mesh":10,"translation":[-1.2401369,1.4688457,-1.077674],"rotation":[-3.0908687E-08,0.7071067,0.7071068,3.0908552E-08],"name":"KOT012 - Turnbuckle Part [8655227]042"},{"mesh":10,"translation":[-1.2401369,1.36906,-1.077674],"rotation":[-3.0908687E-08,0.7071067,0.7071068,3.0908552E-08],"name":"KOT012 - Turnbuckle Part [8655227]043"},{"mesh":10,"translation":[-1.2401369,2.06756,-1.077674],"rotation":[-3.0908687E-08,0.7071067,0.7071068,3.0908552E-08],"name":"KOT012 - Turnbuckle Part [8655227]044"},{"mesh":10,"translation":[-1.2401369,1.9677743,-1.077674],"rotation":[-3.0908687E-08,0.7071067,0.7071068,3.0908552E-08],"name":"KOT012 - Turnbuckle Part [8655227]045"},{"mesh":10,"translation":[-0.46487722,1.8679886,1.1956267],"rotation":[-0.7071068,6.453449E-14,-6.453448E-14,0.7071067],"name":"KOT012 - Turnbuckle Part [8655227]046"},{"mesh":10,"translation":[-0.46487722,1.6684172,1.1956267],"rotation":[-0.7071068,6.453449E-14,-6.453448E-14,0.7071067],"name":"KOT012 - Turnbuckle Part [8655227]047"},{"mesh":10,"translation":[-0.46487722,1.5686314,1.1956267],"rotation":[-0.7071068,6.453449E-14,-6.453448E-14,0.7071067],"name":"KOT012 - Turnbuckle Part [8655227]048"},{"mesh":10,"translation":[-0.46487722,1.4688457,1.1956267],"rotation":[-0.7071068,6.453449E-14,-6.453448E-14,0.7071067],"name":"KOT012 - Turnbuckle Part [8655227]049"},{"mesh":10,"translation":[-0.46487722,1.36906,1.1956267],"rotation":[-0.7071068,6.453449E-14,-6.453448E-14,0.7071067],"name":"KOT012 - Turnbuckle Part [8655227]050"},{"mesh":10,"translation":[-0.46487722,2.06756,1.1956267],"rotation":[-0.7071068,6.453449E-14,-6.453448E-14,0.7071067],"name":"KOT012 - Turnbuckle Part [8655227]051"},{"mesh":10,"translation":[-0.46487722,1.7682029,1.1956267],"rotation":[-0.7071068,6.453449E-14,-6.453448E-14,0.7071067],"name":"KOT012 - Turnbuckle Part [8655227]052"},{"mesh":10,"translation":[-0.46487722,1.9677743,1.1956267],"rotation":[-0.7071068,6.453449E-14,-6.453448E-14,0.7071067],"name":"KOT012 - Turnbuckle Part [8655227]053"},{"mesh":11,"translation":[0.59319985,2.7168994,-0.02357298],"name":"Nested_Cable_Single Cable Assembly Generic [8145014]012"},{"mesh":11,"translation":[0.59319985,2.5940216,-0.02357298],"name":"Nested_Cable_Single Cable Assembly Generic [8145014]007"},{"mesh":11,"translation":[0.59319985,2.471144,-0.02357298],"name":"Nested_Cable_Single Cable Assembly Generic [8145014]008"},{"mesh":11,"translation":[0.59319985,2.3482664,-0.02357298],"name":"Nested_Cable_Single Cable Assembly Generic [8145014]009"},{"mesh":11,"translation":[0.59319985,2.2253885,-0.02357298],"name":"Nested_Cable_Single Cable Assembly Generic [8145014]010"},{"mesh":11,"translation":[0.59319985,2.102511,-0.02357298],"name":"Nested_Cable_Single Cable Assembly Generic [8145014]011"},{"mesh":11,"translation":[0.59319985,2.839777,-0.02357298],"name":"Nested_Cable_Single Cable Assembly Generic [8145014]"},{"mesh":12,"translation":[0.36193046,1.6204607,0.14152588],"rotation":[-0.0,0.7071068,0.0,0.7071067],"name":"CCR022 & CCR122 - Cable Center Toprail Post Cap Part [8467834]057"},{"mesh":12,"translation":[1.223943,1.0282598,0.14152588],"rotation":[-0.0,0.7071068,0.0,0.7071067],"name":"CCR022 & CCR122 - Cable Center Toprail Post Cap Part [8467834]056"},{"mesh":12,"translation":[1.4666189,3.4752684,-0.023573343],"rotation":[-0.0,-0.7071068,0.0,0.7071067],"name":"CCR022 & CCR122 - Cable Center Toprail Post Cap Part [8467834]055"},{"mesh":12,"translation":[0.8957932,3.0835495,-0.023573343],"rotation":[-0.0,-0.7071068,0.0,0.7071067],"name":"CCR022 & CCR122 - Cable Center Toprail Post Cap Part [8467834]054"},{"mesh":12,"translation":[-0.37308282,2.1255143,0.14152588],"rotation":[-0.0,0.7071068,0.0,0.7071067],"name":"CCR022 & CCR122 - Cable Center Toprail Post Cap Part [8467834]053"},{"mesh":12,"translation":[-0.37308282,2.212685,-0.023573343],"rotation":[-0.0,-0.7071068,0.0,0.7071067],"name":"CCR022 & CCR122 - Cable Center Toprail Post Cap Part [8467834]052"},{"mesh":12,"translation":[0.09636759,2.5349095,-0.023573343],"rotation":[-0.0,-0.7071068,0.0,0.7071067],"name":"CCR022 & CCR122 - Cable Center Toprail Post Cap Part [8467834]051"},{"mesh":12,"translation":[1.4666189,3.4752684,-1.077674],"rotation":[-0.0,0.7071068,0.0,0.7071067],"name":"CCR022 & CCR122 - Cable Center Toprail Post Cap Part [8467834]050"},{"mesh":12,"translation":[0.8957932,3.0835495,-1.077674],"rotation":[-0.0,0.7071068,0.0,0.7071067],"name":"CCR022 & CCR122 - Cable Center Toprail Post Cap Part [8467834]049"},{"mesh":12,"translation":[-0.4746813,2.143013,-1.077674],"rotation":[-0.0,0.7071068,0.0,0.7071067],"name":"CCR022 & CCR122 - Cable Center Toprail Post Cap Part [8467834]048"},{"mesh":12,"translation":[0.09636759,2.5349095,-1.077674],"rotation":[-0.0,0.7071068,0.0,0.7071067],"name":"CCR022 & CCR122 - Cable Center Toprail Post Cap Part [8467834]047"},{"mesh":12,"translation":[-1.3319312,2.1031456,-1.077674],"rotation":[-0.0,0.7071068,0.0,0.7071067],"name":"CCR022 & CCR122 - Cable Center Toprail Post Cap Part [8467834]046"},{"mesh":12,"translation":[-1.4271812,2.1031456,-0.9824241],"rotation":[-0.0,-1.0,0.0,-4.371139E-08],"name":"CCR022 & CCR122 - Cable Center Toprail Post Cap Part [8467834]045"},{"mesh":12,"translation":[-1.3319312,2.1031456,1.1956267],"rotation":[-0.0,-0.7071068,0.0,0.7071067],"name":"CCR022 & CCR122 - Cable Center Toprail Post Cap Part [8467834]044"},{"mesh":12,"translation":[-1.4271812,2.1031456,1.1003767],"rotation":[-0.0,-1.0,0.0,-4.371139E-08],"name":"CCR022 & CCR122 - Cable Center Toprail Post Cap Part [8467834]043"},{"mesh":12,"translation":[-1.4271812,2.1031456,0.058975108],"rotation":[-0.0,-1.0,0.0,-4.371139E-08],"name":"CCR022 & CCR122 - Cable Center Toprail Post Cap Part [8467834]042"},{"mesh":12,"translation":[0.36193046,1.6204607,1.1956267],"rotation":[-0.0,-0.7071068,0.0,0.7071067],"name":"CCR022 & CCR122 - Cable Center Toprail Post Cap Part [8467834]041"},{"mesh":12,"translation":[1.223943,1.0282598,1.1956267],"rotation":[-0.0,-0.7071068,0.0,0.7071067],"name":"CCR022 & CCR122 - Cable Center Toprail Post Cap Part [8467834]040"},{"mesh":12,"translation":[-0.37308282,2.1031456,1.1956267],"rotation":[-0.0,-0.7071068,0.0,0.7071067],"name":"CCR022 & CCR122 - Cable Center Toprail Post Cap Part [8467834]039"},{"mesh":13,"translation":[0.3619314,1.1759903,0.14152625],"name":"Custom - Koto Round Post Material LS Material [8467835]001"},{"mesh":13,"translation":[0.3619314,1.1759903,1.1956271],"name":"Custom - Koto Round Post Material LS Material [8467835]002"},{"mesh":14,"translation":[1.223944,0.6055699,0.14152625],"name":"Custom - Koto Round Post Material LS Material [8467844]"},{"mesh":15,"translation":[1.4666198,3.0177944,-0.02357298],"name":"Custom - Koto Round Post Material LS Material [8467853]"},{"mesh":15,"translation":[1.4666198,3.0177944,-1.0776738],"name":"Custom - Koto Round Post Material LS Material [8467853]001"},{"mesh":16,"translation":[0.89579415,2.6390545,-0.02357298],"name":"Custom - Koto Round Post Material LS Material [8579826]002"},{"mesh":16,"translation":[0.09636854,2.0904148,-0.02357298],"name":"Custom - Koto Round Post Material LS Material [8579826]003"},{"mesh":16,"translation":[0.89579415,2.6390545,-1.0776738],"name":"Custom - Koto Round Post Material LS Material [8579826]001"},{"mesh":16,"translation":[0.09636854,2.0904148,-1.0776738],"name":"Custom - Koto Round Post Material LS Material [8579826]"},{"mesh":17,"translation":[-0.3730819,1.7028096,0.14152625],"name":"Custom - Koto Round Post Material LS Material [8467927]001"},{"mesh":18,"translation":[-0.3730819,1.7813362,-0.02357298],"name":"Custom - Koto Round Post Material LS Material [8467990]"},{"mesh":19,"translation":[0.36193046,0.73152006,0.14152588],"rotation":[-0.0,0.7071068,0.0,0.7071067],"name":"RCR002 - Lag Bolt Surface Mount - Res. Cable Part [8580994]020"},{"mesh":19,"translation":[1.223943,0.18288001,0.14152588],"rotation":[-0.0,0.7071068,0.0,0.7071067],"name":"RCR002 - Lag Bolt Surface Mount - Res. Cable Part [8580994]021"},{"mesh":19,"translation":[1.4666189,2.56032,-0.023573343],"rotation":[-0.0,-0.7071068,0.0,0.7071067],"name":"RCR002 - Lag Bolt Surface Mount - Res. Cable Part [8580994]022"},{"mesh":19,"translation":[0.8957932,2.19456,-0.023573343],"rotation":[-0.0,-0.7071068,0.0,0.7071067],"name":"RCR002 - Lag Bolt Surface Mount - Res. Cable Part [8580994]023"},{"mesh":19,"translation":[-0.37308282,1.28016,0.14152588],"rotation":[-0.0,0.7071068,0.0,0.7071067],"name":"RCR002 - Lag Bolt Surface Mount - Res. Cable Part [8580994]024"},{"mesh":19,"translation":[-0.37308282,1.28016,-0.023573343],"rotation":[-0.0,-0.7071068,0.0,0.7071067],"name":"RCR002 - Lag Bolt Surface Mount - Res. Cable Part [8580994]025"},{"mesh":19,"translation":[0.09636759,1.64592,-0.023573343],"rotation":[-0.0,-0.7071068,0.0,0.7071067],"name":"RCR002 - Lag Bolt Surface Mount - Res. Cable Part [8580994]026"},{"mesh":19,"translation":[1.4666189,2.56032,-1.077674],"rotation":[-0.0,0.7071068,0.0,0.7071067],"name":"RCR002 - Lag Bolt Surface Mount - Res. Cable Part [8580994]027"},{"mesh":19,"translation":[0.8957932,2.19456,-1.077674],"rotation":[-0.0,0.7071068,0.0,0.7071067],"name":"RCR002 - Lag Bolt Surface Mount - Res. Cable Part [8580994]028"},{"mesh":19,"translation":[-0.4746813,1.28016,-1.077674],"rotation":[-0.0,0.7071068,0.0,0.7071067],"name":"RCR002 - Lag Bolt Surface Mount - Res. Cable Part [8580994]029"},{"mesh":19,"translation":[0.09636759,1.64592,-1.077674],"rotation":[-0.0,0.7071068,0.0,0.7071067],"name":"RCR002 - Lag Bolt Surface Mount - Res. Cable Part [8580994]030"},{"mesh":19,"translation":[-1.3319312,1.28016,-1.077674],"rotation":[-0.0,0.7071068,0.0,0.7071067],"name":"RCR002 - Lag Bolt Surface Mount - Res. Cable Part [8580994]031"},{"mesh":19,"translation":[-1.4271812,1.28016,-0.9824241],"rotation":[-0.0,-1.0,0.0,-4.371139E-08],"name":"RCR002 - Lag Bolt Surface Mount - Res. Cable Part [8580994]032"},{"mesh":19,"translation":[-1.3319312,1.28016,1.1956267],"rotation":[-0.0,-0.7071068,0.0,0.7071067],"name":"RCR002 - Lag Bolt Surface Mount - Res. Cable Part [8580994]033"},{"mesh":19,"translation":[-1.4271812,1.28016,1.1003767],"rotation":[-0.0,-1.0,0.0,-4.371139E-08],"name":"RCR002 - Lag Bolt Surface Mount - Res. Cable Part [8580994]034"},{"mesh":19,"translation":[-1.4271812,1.28016,0.058975108],"rotation":[-0.0,-1.0,0.0,-4.371139E-08],"name":"RCR002 - Lag Bolt Surface Mount - Res. Cable Part [8580994]035"},{"mesh":19,"translation":[0.36193046,0.73152006,1.1956267],"rotation":[-0.0,-0.7071068,0.0,0.7071067],"name":"RCR002 - Lag Bolt Surface Mount - Res. Cable Part [8580994]036"},{"mesh":19,"translation":[1.223943,0.18288001,1.1956267],"rotation":[-0.0,-0.7071068,0.0,0.7071067],"name":"RCR002 - Lag Bolt Surface Mount - Res. Cable Part [8580994]037"},{"mesh":19,"translation":[-0.37308282,1.28016,1.1956267],"rotation":[-0.0,-0.7071068,0.0,0.7071067],"name":"RCR002 - Lag Bolt Surface Mount - Res. Cable Part [8580994]038"},{"mesh":20,"translation":[0.36193046,1.6287459,0.14152588],"rotation":[-0.0,0.7071068,0.0,0.7071067],"name":"Custom - Circum 5l8 Stem-Cable LS Material [8469848]001"},{"mesh":20,"translation":[1.223943,1.0365449,0.14152588],"rotation":[-0.0,0.7071068,0.0,0.7071067],"name":"Custom - Circum 5l8 Stem-Cable LS Material [8469848]002"},{"mesh":20,"translation":[1.4666189,3.4835536,-0.023573343],"rotation":[-0.0,-0.7071068,0.0,0.7071067],"name":"Custom - Circum 5l8 Stem-Cable LS Material [8469848]010"},{"mesh":20,"translation":[0.8957932,3.0918348,-0.023573343],"rotation":[-0.0,-0.7071068,0.0,0.7071067],"name":"Custom - Circum 5l8 Stem-Cable LS Material [8469848]011"},{"mesh":20,"translation":[-0.37308282,2.1337996,0.14152588],"rotation":[-0.0,0.7071068,0.0,0.7071067],"name":"Custom - Circum 5l8 Stem-Cable LS Material [8469848]003"},{"mesh":20,"translation":[-0.37308282,2.2209704,-0.023573343],"rotation":[-0.0,-0.7071068,0.0,0.7071067],"name":"Custom - Circum 5l8 Stem-Cable LS Material [8469848]012"},{"mesh":20,"translation":[0.09636759,2.5431948,-0.023573343],"rotation":[-0.0,-0.7071068,0.0,0.7071067],"name":"Custom - Circum 5l8 Stem-Cable LS Material [8469848]007"},{"mesh":20,"translation":[1.4666189,3.4835536,-1.077674],"rotation":[-0.0,-0.7071068,0.0,0.7071068],"name":"Custom - Circum 5l8 Stem-Cable LS Material [8469848]009"},{"mesh":20,"translation":[0.8957932,3.0918348,-1.077674],"rotation":[-0.0,-0.7071068,0.0,0.7071068],"name":"Custom - Circum 5l8 Stem-Cable LS Material [8469848]008"},{"mesh":20,"translation":[-0.4746813,2.1512983,-1.077674],"rotation":[-0.0,-0.7071068,0.0,0.7071068],"name":"Custom - Circum 5l8 Stem-Cable LS Material [8469848]013"},{"mesh":20,"translation":[0.09636759,2.5431948,-1.077674],"rotation":[-0.0,-0.7071068,0.0,0.7071068],"name":"Custom - Circum 5l8 Stem-Cable LS Material [8469848]006"},{"mesh":20,"translation":[0.36193046,1.6287459,1.1956267],"rotation":[-0.0,0.7071067,0.0,0.7071068],"name":"Custom - Circum 5l8 Stem-Cable LS Material [8469848]004"},{"mesh":20,"translation":[1.223943,1.0365449,1.1956267],"rotation":[-0.0,0.7071067,0.0,0.7071068],"name":"Custom - Circum 5l8 Stem-Cable LS Material [8469848]005"},{"mesh":21,"translation":[0.403114,1.7178591,0.14152588],"rotation":[-0.3292938,0.62575203,0.62575215,-0.32929382],"scale":[0.99999994,1.0,0.99999994],"name":"CIR057 - 1 1l2 Rail Saddle Part [8723174]020"},{"mesh":21,"translation":[1.2651266,1.125658,0.14152588],"rotation":[-0.3292938,0.62575203,0.62575215,-0.32929382],"scale":[0.99999994,1.0,0.99999994],"name":"CIR057 - 1 1l2 Rail Saddle Part [8723174]021"},{"mesh":21,"translation":[1.4254702,3.572674,-0.023573343],"rotation":[-0.62566584,0.32945764,-0.32945758,0.6256658],"name":"CIR057 - 1 1l2 Rail Saddle Part [8723174]022"},{"mesh":21,"translation":[0.8546446,3.1809554,-0.023573343],"rotation":[-0.62566584,0.32945764,-0.32945758,0.6256658],"name":"CIR057 - 1 1l2 Rail Saddle Part [8723174]023"},{"mesh":21,"translation":[-0.33189696,2.2229128,0.14152588],"rotation":[-0.3292938,0.62575203,0.62575215,-0.32929382],"scale":[0.99999994,1.0,0.99999994],"name":"CIR057 - 1 1l2 Rail Saddle Part [8723174]024"},{"mesh":21,"translation":[-0.41422915,2.310091,-0.023573343],"rotation":[-0.62566584,0.32945764,-0.32945758,0.6256658],"name":"CIR057 - 1 1l2 Rail Saddle Part [8723174]025"},{"mesh":21,"translation":[0.055221267,2.6323152,-0.023573343],"rotation":[-0.62566584,0.32945764,-0.32945758,0.6256658],"name":"CIR057 - 1 1l2 Rail Saddle Part [8723174]026"},{"mesh":21,"translation":[1.4254702,3.572674,-1.077674],"rotation":[0.6256658,-0.3294576,-0.32945758,0.6256658],"name":"CIR057 - 1 1l2 Rail Saddle Part [8723174]027"},{"mesh":21,"translation":[0.8546446,3.1809554,-1.077674],"rotation":[0.6256658,-0.3294576,-0.32945758,0.6256658],"name":"CIR057 - 1 1l2 Rail Saddle Part [8723174]028"},{"mesh":21,"translation":[-0.5158299,2.240419,-1.077674],"rotation":[0.6256658,-0.3294576,-0.32945758,0.6256658],"name":"CIR057 - 1 1l2 Rail Saddle Part [8723174]029"},{"mesh":21,"translation":[0.055221267,2.6323152,-1.077674],"rotation":[0.6256658,-0.3294576,-0.32945758,0.6256658],"name":"CIR057 - 1 1l2 Rail Saddle Part [8723174]030"},{"mesh":21,"translation":[-1.3319312,2.1945586,-1.077674],"rotation":[-0.5,0.5,0.5,-0.5],"scale":[1.0,0.99999994,0.99999994],"name":"CIR057 - 1 1l2 Rail Saddle Part [8723174]031"},{"mesh":21,"translation":[-1.4271812,2.1945586,-0.9824241],"rotation":[9.985135E-14,-9.985135E-14,-0.7071068,0.7071068],"name":"CIR057 - 1 1l2 Rail Saddle Part [8723174]032"},{"mesh":21,"translation":[-1.3319312,2.1945586,1.1956267],"rotation":[0.49999997,-0.49999997,0.5000001,-0.49999997],"name":"CIR057 - 1 1l2 Rail Saddle Part [8723174]033"},{"mesh":21,"translation":[-1.4271812,2.1945586,1.1003767],"rotation":[-0.0,-0.0,-0.7071068,0.7071068],"name":"CIR057 - 1 1l2 Rail Saddle Part [8723174]034"},{"mesh":21,"translation":[-1.4271812,2.1945586,0.058975108],"rotation":[9.985135E-14,-9.985135E-14,-0.7071068,0.7071068],"name":"CIR057 - 1 1l2 Rail Saddle Part [8723174]035"},{"mesh":21,"translation":[0.403114,1.7178591,1.1956267],"rotation":[0.32929382,-0.62575215,0.62575203,-0.3292938],"scale":[0.99999994,1.0,0.99999994],"name":"CIR057 - 1 1l2 Rail Saddle Part [8723174]036"},{"mesh":21,"translation":[1.2651266,1.125658,1.1956267],"rotation":[0.32929382,-0.62575215,0.62575203,-0.3292938],"scale":[0.99999994,1.0,0.99999994],"name":"CIR057 - 1 1l2 Rail Saddle Part [8723174]037"},{"mesh":21,"translation":[-0.37308282,2.1945586,1.1956267],"rotation":[0.49999997,-0.49999997,0.5000001,-0.49999997],"name":"CIR057 - 1 1l2 Rail Saddle Part [8723174]038"},{"mesh":22,"translation":[0.54239947,2.6820376,-1.0776738],"name":"Nested_Cable_Single Cable Assembly Generic [8579311]006"},{"mesh":22,"translation":[0.54239947,2.5591598,-1.0776738],"name":"Nested_Cable_Single Cable Assembly Generic [8579311]001"},{"mesh":22,"translation":[0.54239947,2.4362822,-1.0776738],"name":"Nested_Cable_Single Cable Assembly Generic [8579311]002"},{"mesh":22,"translation":[0.54239947,2.3134046,-1.0776738],"name":"Nested_Cable_Single Cable Assembly Generic [8579311]003"},{"mesh":22,"translation":[0.54239947,2.1905267,-1.0776738],"name":"Nested_Cable_Single Cable Assembly Generic [8579311]004"},{"mesh":22,"translation":[0.54239947,2.0676491,-1.0776738],"name":"Nested_Cable_Single Cable Assembly Generic [8579311]005"},{"mesh":22,"translation":[0.54239947,2.8049152,-1.0776738],"name":"Nested_Cable_Single Cable Assembly Generic [8579311]"},{"mesh":23,"translation":[-0.47468033,1.7115866,-1.0776738],"name":"Custom - Koto Round Post Material LS Material [8579823]"},{"mesh":24,"translation":[-1.3319304,1.6916528,-1.0776738],"name":"Custom - Koto Round Post Material LS Material [8580439]007"},{"mesh":24,"translation":[-1.4271803,1.6916528,-0.9824238],"rotation":[-0.0,-0.7071068,0.0,0.7071068],"name":"Custom - Koto Round Post Material LS Material [8580439]008"},{"mesh":24,"translation":[-1.3319304,1.6916528,1.1956271],"name":"Custom - Koto Round Post Material LS Material [8580439]004"},{"mesh":24,"translation":[-1.4271803,1.6916528,1.1003771],"rotation":[-0.0,0.7071068,0.0,0.7071067],"name":"Custom - Koto Round Post Material LS Material [8580439]006"},{"mesh":25,"translation":[-1.3319312,2.1114306,-1.077674],"rotation":[-0.0,0.7071068,0.0,0.7071067],"name":"CCS139 - 5l8 Stem-Cable Part [8580409]006"},{"mesh":25,"translation":[-1.4271812,2.1114306,-0.9824241],"rotation":[-0.0,-1.0,0.0,-4.371139E-08],"name":"CCS139 - 5l8 Stem-Cable Part [8580409]005"},{"mesh":25,"translation":[-1.3319312,2.1114306,1.1956267],"rotation":[-0.0,-0.7071068,0.0,0.7071067],"name":"CCS139 - 5l8 Stem-Cable Part [8580409]004"},{"mesh":25,"translation":[-1.4271812,2.1114306,1.1003767],"rotation":[-0.0,-1.0,0.0,-4.371139E-08],"name":"CCS139 - 5l8 Stem-Cable Part [8580409]003"},{"mesh":25,"translation":[-1.4271812,2.1114306,0.058975108],"rotation":[-0.0,-1.0,0.0,-4.371139E-08],"name":"CCS139 - 5l8 Stem-Cable Part [8580409]002"},{"mesh":25,"translation":[-0.37308282,2.1114306,1.1956267],"rotation":[-0.0,-0.7071068,0.0,0.7071067],"name":"CCS139 - 5l8 Stem-Cable Part [8580409]001"},{"mesh":26,"translation":[-1.4271803,1.6916528,0.05897547],"rotation":[-0.0,-1.0,0.0,4.371139E-08],"name":"Custom - Koto Round Post Material LS Material [8580476]001"},{"mesh":27,"translation":[1.223944,0.6055699,1.1956271],"name":"Custom - Koto Round Post Material LS Material [8581377]"},{"mesh":28,"translation":[-0.3730819,1.6916528,1.1956271],"name":"Custom - Koto Round Post Material LS Material [8581380]006"},{"mesh":29,"translation":[-1.4271803,1.6684171,0.0026649537],"name":"Nested_Cable_Single Cable Assembly Generic [8583315]008"},{"mesh":29,"translation":[-1.4271803,1.5686314,0.0026649537],"name":"Nested_Cable_Single Cable Assembly Generic [8583315]001"},{"mesh":29,"translation":[-1.4271803,1.4688458,0.0026649537],"name":"Nested_Cable_Single Cable Assembly Generic [8583315]002"},{"mesh":29,"translation":[-1.4271803,1.36906,0.0026649537],"name":"Nested_Cable_Single Cable Assembly Generic [8583315]003"},{"mesh":29,"translation":[-1.4271803,2.06756,0.0026649537],"name":"Nested_Cable_Single Cable Assembly Generic [8583315]004"},{"mesh":29,"translation":[-1.4271803,1.8679886,0.0026649537],"name":"Nested_Cable_Single Cable Assembly Generic [8583315]005"},{"mesh":29,"translation":[-1.4271803,1.7682029,0.0026649537],"name":"Nested_Cable_Single Cable Assembly Generic [8583315]006"},{"mesh":29,"translation":[-1.4271803,1.9677744,0.0026649537],"name":"Nested_Cable_Single Cable Assembly Generic [8583315]007"},{"mesh":30,"translation":[-0.8469925,1.8679886,-1.0776738],"name":"Nested_Cable_Single Cable Assembly Generic [8655163]"},{"mesh":30,"translation":[-0.8469925,1.7682029,-1.0776738],"name":"Nested_Cable_Single Cable Assembly Generic [8655163]005"},{"mesh":30,"translation":[-0.8469925,1.6684171,-1.0776738],"name":"Nested_Cable_Single Cable Assembly Generic [8655163]001"},{"mesh":30,"translation":[-0.8469925,1.5686314,-1.0776738],"name":"Nested_Cable_Single Cable Assembly Generic [8655163]002"},{"mesh":30,"translation":[-0.8469925,1.4688458,-1.0776738],"name":"Nested_Cable_Single Cable Assembly Generic [8655163]003"},{"mesh":30,"translation":[-0.8469925,1.36906,-1.0776738],"name":"Nested_Cable_Single Cable Assembly Generic [8655163]004"},{"mesh":30,"translation":[-0.8469925,2.06756,-1.0776738],"name":"Nested_Cable_Single Cable Assembly Generic [8655163]006"},{"mesh":30,"translation":[-0.8469925,1.9677744,-1.0776738],"name":"Nested_Cable_Single Cable Assembly Generic [8655163]007"},{"mesh":31,"translation":[-0.90881664,1.6684171,1.1956271],"name":"Nested_Cable_Single Cable Assembly Generic [8659982]008"},{"mesh":31,"translation":[-0.90881664,1.5686314,1.1956271],"name":"Nested_Cable_Single Cable Assembly Generic [8659982]001"},{"mesh":31,"translation":[-0.90881664,1.4688458,1.1956271],"name":"Nested_Cable_Single Cable Assembly Generic [8659982]002"},{"mesh":31,"translation":[-0.90881664,1.36906,1.1956271],"name":"Nested_Cable_Single Cable Assembly Generic [8659982]003"},{"mesh":31,"translation":[-0.90881664,2.06756,1.1956271],"name":"Nested_Cable_Single Cable Assembly Generic [8659982]004"},{"mesh":31,"translation":[-0.90881664,1.8679886,1.1956271],"name":"Nested_Cable_Single Cable Assembly Generic [8659982]005"},{"mesh":31,"translation":[-0.90881664,1.7682029,1.1956271],"name":"Nested_Cable_Single Cable Assembly Generic [8659982]006"},{"mesh":31,"translation":[-0.90881664,1.9677744,1.1956271],"name":"Nested_Cable_Single Cable Assembly Generic [8659982]007"},{"mesh":32,"translation":[-1.0652304,2.17551,1.1956271],"name":"Nested_Bend Bend_2"},{"mesh":33,"translation":[-1.0652304,2.17551,-1.0776738],"rotation":[-0.7071068,0.7071068,3.5124707E-08,-2.6692542E-08],"name":"Nested_Bend Bend_1"}],"meshes":[{"primitives":[{"attributes":{"POSITION":1,"TANGENT":2,"NORMAL":3,"TEXCOORD_0":4},"indices":0,"material":0}],"name":"Nested_Rail LS Material [8461322]"},{"primitives":[{"attributes":{"POSITION":6,"TANGENT":7,"NORMAL":8,"TEXCOORD_0":9},"indices":5,"material":0}],"name":"Nested_Rail LS Material [8461324]"},{"primitives":[{"attributes":{"POSITION":11,"TANGENT":12,"NORMAL":13,"TEXCOORD_0":14},"indices":10,"material":0},{"attributes":{"POSITION":16,"TANGENT":17,"NORMAL":18,"TEXCOORD_0":19},"indices":15,"material":1}],"name":"CIR024 - Handrail End Cap Part [8482091]006"},{"primitives":[{"attributes":{"POSITION":21,"TANGENT":22,"NORMAL":23,"TEXCOORD_0":24},"indices":20,"material":0}],"name":"Nested_Rail LS Material [8719226]"},{"primitives":[{"attributes":{"POSITION":26,"TANGENT":27,"NORMAL":28,"TEXCOORD_0":29},"indices":25,"material":0}],"name":"Nested_Rail LS Material [8719249]"},{"primitives":[{"attributes":{"POSITION":31,"TANGENT":32,"NORMAL":33,"TEXCOORD_0":34},"indices":30,"material":0}],"name":"CIR061 - 1 1l2 Rail-To-Rail Connector Part [8719260]001"},{"primitives":[{"attributes":{"POSITION":36,"TANGENT":37,"NORMAL":38,"TEXCOORD_0":39},"indices":35,"material":0}],"name":"Nested_Bend Bend [8719259]"},{"primitives":[{"attributes":{"POSITION":41,"TANGENT":42,"NORMAL":43,"TEXCOORD_0":44},"indices":40,"material":0}],"name":"Nested_Bend Bend [8719267]"},{"primitives":[{"attributes":{"POSITION":46,"TANGENT":47,"NORMAL":48,"TEXCOORD_0":49},"indices":45,"material":2}],"name":"Nested_Cable_Single Cable Assembly Generic [8580909]015"},{"primitives":[{"attributes":{"POSITION":51,"TANGENT":52,"NORMAL":53,"TEXCOORD_0":54},"indices":50,"material":3}],"name":"KOT010 - Right-Hand Threaded End Stop Part [8137739]001"},{"primitives":[{"attributes":{"POSITION":56,"TANGENT":57,"NORMAL":58,"TEXCOORD_0":59},"indices":55,"material":3}],"name":"KOT012 - Turnbuckle Part [8655227]002"},{"primitives":[{"attributes":{"POSITION":61,"TANGENT":62,"NORMAL":63,"TEXCOORD_0":64},"indices":60,"material":2}],"name":"Nested_Cable_Single Cable Assembly Generic [8145014]012"},{"primitives":[{"attributes":{"POSITION":66,"TANGENT":67,"NORMAL":68,"TEXCOORD_0":69},"indices":65,"material":0},{"attributes":{"POSITION":71,"TANGENT":72,"NORMAL":73,"TEXCOORD_0":74},"indices":70,"material":1}],"name":"CCR022 & CCR122 - Cable Center Toprail Post Cap Part [8467834]057"},{"primitives":[{"attributes":{"POSITION":76,"TANGENT":77,"NORMAL":78,"TEXCOORD_0":79},"indices":75,"material":0}],"name":"Custom - Koto Round Post Material LS Material [8467835]001"},{"primitives":[{"attributes":{"POSITION":81,"TANGENT":82,"NORMAL":83,"TEXCOORD_0":84},"indices":80,"material":0}],"name":"Custom - Koto Round Post Material LS Material [8467844]"},{"primitives":[{"attributes":{"POSITION":86,"TANGENT":87,"NORMAL":88,"TEXCOORD_0":89},"indices":85,"material":0}],"name":"Custom - Koto Round Post Material LS Material [8467853]"},{"primitives":[{"attributes":{"POSITION":91,"TANGENT":92,"NORMAL":93,"TEXCOORD_0":94},"indices":90,"material":0}],"name":"Custom - Koto Round Post Material LS Material [8579826]002"},{"primitives":[{"attributes":{"POSITION":96,"TANGENT":97,"NORMAL":98,"TEXCOORD_0":99},"indices":95,"material":0}],"name":"Custom - Koto Round Post Material LS Material [8467927]001"},{"primitives":[{"attributes":{"POSITION":101,"TANGENT":102,"NORMAL":103,"TEXCOORD_0":104},"indices":100,"material":0}],"name":"Custom - Koto Round Post Material LS Material [8467990]"},{"primitives":[{"attributes":{"POSITION":106,"TANGENT":107,"NORMAL":108,"TEXCOORD_0":109},"indices":105,"material":0},{"attributes":{"POSITION":111,"TANGENT":112,"NORMAL":113,"TEXCOORD_0":114},"indices":110,"material":1}],"name":"RCR002 - Lag Bolt Surface Mount - Res. Cable Part [8580994]020"},{"primitives":[{"attributes":{"POSITION":116,"TANGENT":117,"NORMAL":118,"TEXCOORD_0":119},"indices":115,"material":0}],"name":"Custom - Circum 5l8 Stem-Cable LS Material [8469848]001"},{"primitives":[{"attributes":{"POSITION":121,"TANGENT":122,"NORMAL":123,"TEXCOORD_0":124},"indices":120,"material":0}],"name":"CIR057 - 1 1l2 Rail Saddle Part [8723174]020"},{"primitives":[{"attributes":{"POSITION":126,"TANGENT":127,"NORMAL":128,"TEXCOORD_0":129},"indices":125,"material":2}],"name":"Nested_Cable_Single Cable Assembly Generic [8579311]006"},{"primitives":[{"attributes":{"POSITION":131,"TANGENT":132,"NORMAL":133,"TEXCOORD_0":134},"indices":130,"material":0}],"name":"Custom - Koto Round Post Material LS Material [8579823]"},{"primitives":[{"attributes":{"POSITION":136,"TANGENT":137,"NORMAL":138,"TEXCOORD_0":139},"indices":135,"material":0}],"name":"Custom - Koto Round Post Material LS Material [8580439]007"},{"primitives":[{"attributes":{"POSITION":141,"TANGENT":142,"NORMAL":143,"TEXCOORD_0":144},"indices":140,"material":0}],"name":"CCS139 - 5l8 Stem-Cable Part [8580409]006"},{"primitives":[{"attributes":{"POSITION":146,"TANGENT":147,"NORMAL":148,"TEXCOORD_0":149},"indices":145,"material":0}],"name":"Custom - Koto Round Post Material LS Material [8580476]001"},{"primitives":[{"attributes":{"POSITION":151,"TANGENT":152,"NORMAL":153,"TEXCOORD_0":154},"indices":150,"material":0}],"name":"Custom - Koto Round Post Material LS Material [8581377]"},{"primitives":[{"attributes":{"POSITION":156,"TANGENT":157,"NORMAL":158,"TEXCOORD_0":159},"indices":155,"material":0}],"name":"Custom - Koto Round Post Material LS Material [8581380]006"},{"primitives":[{"attributes":{"POSITION":161,"TANGENT":162,"NORMAL":163,"TEXCOORD_0":164},"indices":160,"material":2}],"name":"Nested_Cable_Single Cable Assembly Generic [8583315]008"},{"primitives":[{"attributes":{"POSITION":166,"TANGENT":167,"NORMAL":168,"TEXCOORD_0":169},"indices":165,"material":2}],"name":"Nested_Cable_Single Cable Assembly Generic [8655163]"},{"primitives":[{"attributes":{"POSITION":171,"TANGENT":172,"NORMAL":173,"TEXCOORD_0":174},"indices":170,"material":2}],"name":"Nested_Cable_Single Cable Assembly Generic [8659982]008"},{"primitives":[{"attributes":{"POSITION":176,"TANGENT":177,"NORMAL":178,"TEXCOORD_0":179},"indices":175,"material":0}],"name":"Nested_Bend Bend_2"},{"primitives":[{"attributes":{"POSITION":181,"TANGENT":182,"NORMAL":183,"TEXCOORD_0":184},"indices":180,"material":0}],"name":"Nested_Bend Bend_1"}],"accessors":[{"bufferView":0,"componentType":5123,"count":4704,"type":"SCALAR","name":"accessorIndices"},{"bufferView":1,"componentType":5126,"count":882,"max":[2.4193501,0.01905,0.01905],"min":[6.2264863E-15,-0.01905,-0.01905],"type":"VEC3","name":"accessorPositions"},{"bufferView":2,"componentType":5126,"count":882,"type":"VEC4","name":"accessorTangents"},{"bufferView":1,"byteOffset":10584,"componentType":5126,"count":882,"type":"VEC3","name":"accessorNormals"},{"bufferView":3,"componentType":5126,"count":882,"type":"VEC2","name":"accessorUVs"},{"bufferView":0,"byteOffset":9408,"componentType":5123,"count":4008,"type":"SCALAR","name":"accessorIndices"},{"bufferView":1,"byteOffset":21168,"componentType":5126,"count":766,"max":[2.0332928,0.01905,0.01905],"min":[6.2264863E-15,-0.01905,-0.01905],"type":"VEC3","name":"accessorPositions"},{"bufferView":2,"byteOffset":14112,"componentType":5126,"count":766,"type":"VEC4","name":"accessorTangents"},{"bufferView":1,"byteOffset":30360,"componentType":5126,"count":766,"type":"VEC3","name":"accessorNormals"},{"bufferView":3,"byteOffset":7056,"componentType":5126,"count":766,"type":"VEC2","name":"accessorUVs"},{"bufferView":0,"byteOffset":17424,"componentType":5123,"count":192,"type":"SCALAR","name":"accessorIndices"},{"bufferView":1,"byteOffset":39552,"componentType":5126,"count":66,"max":[-0.00029542364,0.01905,0.01905],"min":[-0.002286,-0.01905,-0.01905],"type":"VEC3","name":"accessorPositions"},{"bufferView":2,"byteOffset":26368,"componentType":5126,"count":66,"type":"VEC4","name":"accessorTangents"},{"bufferView":1,"byteOffset":40344,"componentType":5126,"count":66,"type":"VEC3","name":"accessorNormals"},{"bufferView":3,"byteOffset":13184,"componentType":5126,"count":66,"type":"VEC2","name":"accessorUVs"},{"bufferView":0,"byteOffset":17808,"componentType":5123,"count":762,"type":"SCALAR","name":"accessorIndices"},{"bufferView":1,"byteOffset":41136,"componentType":5126,"count":161,"max":[-0.00029542364,0.01905,0.01905],"min":[-0.0068578967,-0.01905,-0.01905],"type":"VEC3","name":"accessorPositions"},{"bufferView":2,"byteOffset":27424,"componentType":5126,"count":161,"type":"VEC4","name":"accessorTangents"},{"bufferView":1,"byteOffset":43068,"componentType":5126,"count":161,"type":"VEC3","name":"accessorNormals"},{"bufferView":3,"byteOffset":13712,"componentType":5126,"count":161,"type":"VEC2","name":"accessorUVs"},{"bufferView":0,"byteOffset":19332,"componentType":5123,"count":4260,"type":"SCALAR","name":"accessorIndices"},{"bufferView":1,"byteOffset":45000,"componentType":5126,"count":798,"max":[2.1907501,0.01905,0.01905],"min":[0.0005,-0.01905,-0.01905],"type":"VEC3","name":"accessorPositions"},{"bufferView":2,"byteOffset":30000,"componentType":5126,"count":798,"type":"VEC4","name":"accessorTangents"},{"bufferView":1,"byteOffset":54576,"componentType":5126,"count":798,"type":"VEC3","name":"accessorNormals"},{"bufferView":3,"byteOffset":15000,"componentType":5126,"count":798,"type":"VEC2","name":"accessorUVs"},{"bufferView":0,"byteOffset":27852,"componentType":5123,"count":3180,"type":"SCALAR","name":"accessorIndices"},{"bufferView":1,"byteOffset":64152,"componentType":5126,"count":606,"max":[1.6023619,0.01905,0.01905],"min":[6.2264863E-15,-0.01905,-0.01905],"type":"VEC3","name":"accessorPositions"},{"bufferView":2,"byteOffset":42768,"componentType":5126,"count":606,"type":"VEC4","name":"accessorTangents"},{"bufferView":1,"byteOffset":71424,"componentType":5126,"count":606,"type":"VEC3","name":"accessorNormals"},{"bufferView":3,"byteOffset":21384,"componentType":5126,"count":606,"type":"VEC2","name":"accessorUVs"},{"bufferView":0,"byteOffset":34212,"componentType":5123,"count":360,"type":"SCALAR","name":"accessorIndices"},{"bufferView":1,"byteOffset":78696,"componentType":5126,"count":128,"max":[0.0063500004,0.01905,0.01905],"min":[6.2687854E-15,-0.01905,-0.01905],"type":"VEC3","name":"accessorPositions"},{"bufferView":2,"byteOffset":52464,"componentType":5126,"count":128,"type":"VEC4","name":"accessorTangents"},{"bufferView":1,"byteOffset":80232,"componentType":5126,"count":128,"type":"VEC3","name":"accessorNormals"},{"bufferView":3,"byteOffset":26232,"componentType":5126,"count":128,"type":"VEC2","name":"accessorUVs"},{"bufferView":0,"byteOffset":34932,"componentType":5123,"count":1968,"type":"SCALAR","name":"accessorIndices"},{"bufferView":1,"byteOffset":81768,"componentType":5126,"count":448,"max":[0.46392035,0.01905,0.18120809],"min":[-0.3529469,-0.01905,-0.0762],"type":"VEC3","name":"accessorPositions"},{"bufferView":2,"byteOffset":54512,"componentType":5126,"count":448,"type":"VEC4","name":"accessorTangents"},{"bufferView":1,"byteOffset":87144,"componentType":5126,"count":448,"type":"VEC3","name":"accessorNormals"},{"bufferView":3,"byteOffset":27256,"componentType":5126,"count":448,"type":"VEC2","name":"accessorUVs"},{"bufferView":0,"byteOffset":38868,"componentType":5123,"count":2430,"type":"SCALAR","name":"accessorIndices"},{"bufferView":1,"byteOffset":92520,"componentType":5126,"count":524,"max":[0.7441849,0.01905,0.14091066],"min":[-0.29396087,-0.01905,-0.0762],"type":"VEC3","name":"accessorPositions"},{"bufferView":2,"byteOffset":61680,"componentType":5126,"count":524,"type":"VEC4","name":"accessorTangents"},{"bufferView":1,"byteOffset":98808,"componentType":5126,"count":524,"type":"VEC3","name":"accessorNormals"},{"bufferView":3,"byteOffset":30840,"componentType":5126,"count":524,"type":"VEC2","name":"accessorUVs"},{"bufferView":0,"byteOffset":43728,"componentType":5123,"count":276,"type":"SCALAR","name":"accessorIndices"},{"bufferView":1,"byteOffset":105096,"componentType":5126,"count":98,"max":[0.7075429,0.48696956,0.0019998779],"min":[-0.7075429,-0.48696947,-0.0019998779],"type":"VEC3","name":"accessorPositions"},{"bufferView":2,"byteOffset":70064,"componentType":5126,"count":98,"type":"VEC4","name":"accessorTangents"},{"bufferView":1,"byteOffset":106272,"componentType":5126,"count":98,"type":"VEC3","name":"accessorNormals"},{"bufferView":3,"byteOffset":35032,"componentType":5126,"count":98,"type":"VEC2","name":"accessorUVs"},{"bufferView":0,"byteOffset":44280,"componentType":5123,"count":1140,"type":"SCALAR","name":"accessorIndices"},{"bufferView":1,"byteOffset":107448,"componentType":5126,"count":388,"max":[0.0299974,0.0035052001,0.0035052001],"min":[-0.032004,-0.0035052001,-0.0035052001],"type":"VEC3","name":"accessorPositions"},{"bufferView":2,"byteOffset":71632,"componentType":5126,"count":388,"type":"VEC4","name":"accessorTangents"},{"bufferView":1,"byteOffset":112104,"componentType":5126,"count":388,"type":"VEC3","name":"accessorNormals"},{"bufferView":3,"byteOffset":35816,"componentType":5126,"count":388,"type":"VEC2","name":"accessorUVs"},{"bufferView":0,"byteOffset":46560,"componentType":5123,"count":2952,"type":"SCALAR","name":"accessorIndices"},{"bufferView":1,"byteOffset":116760,"componentType":5126,"count":1012,"max":[0.077494115,0.005003873,0.0057778903],"min":[-0.097104676,-0.005003805,-0.0057778903],"type":"VEC3","name":"accessorPositions"},{"bufferView":2,"byteOffset":77840,"componentType":5126,"count":1012,"type":"VEC4","name":"accessorTangents"},{"bufferView":1,"byteOffset":128904,"componentType":5126,"count":1012,"type":"VEC3","name":"accessorNormals"},{"bufferView":3,"byteOffset":38920,"componentType":5126,"count":1012,"type":"VEC2","name":"accessorUVs"},{"bufferView":0,"byteOffset":52464,"componentType":5123,"count":276,"type":"SCALAR","name":"accessorIndices"},{"bufferView":1,"byteOffset":141048,"componentType":5126,"count":98,"max":[0.82885754,0.5696789,0.0019998779],"min":[-0.82885754,-0.569679,-0.0019998779],"type":"VEC3","name":"accessorPositions"},{"bufferView":2,"byteOffset":94032,"componentType":5126,"count":98,"type":"VEC4","name":"accessorTangents"},{"bufferView":1,"byteOffset":142224,"componentType":5126,"count":98,"type":"VEC3","name":"accessorNormals"},{"bufferView":3,"byteOffset":47016,"componentType":5126,"count":98,"type":"VEC2","name":"accessorUVs"},{"bufferView":0,"byteOffset":53016,"componentType":5123,"count":1182,"type":"SCALAR","name":"accessorIndices"},{"bufferView":1,"byteOffset":143400,"componentType":5126,"count":320,"max":[0.0301752,0.0027432,0.0301752],"min":[-0.0301752,-2.1796964E-15,-0.0301752],"type":"VEC3","name":"accessorPositions"},{"bufferView":2,"byteOffset":95600,"componentType":5126,"count":320,"type":"VEC4","name":"accessorTangents"},{"bufferView":1,"byteOffset":147240,"componentType":5126,"count":320,"type":"VEC3","name":"accessorNormals"},{"bufferView":3,"byteOffset":47800,"componentType":5126,"count":320,"type":"VEC2","name":"accessorUVs"},{"bufferView":0,"byteOffset":55380,"componentType":5123,"count":1776,"type":"SCALAR","name":"accessorIndices"},{"bufferView":1,"byteOffset":151080,"componentType":5126,"count":337,"max":[0.0301752,0.008285249,0.0301752],"min":[-0.0301752,0.0027432,-0.0301752],"type":"VEC3","name":"accessorPositions"},{"bufferView":2,"byteOffset":100720,"componentType":5126,"count":337,"type":"VEC4","name":"accessorTangents"},{"bufferView":1,"byteOffset":155124,"componentType":5126,"count":337,"type":"VEC3","name":"accessorNormals"},{"bufferView":3,"byteOffset":50360,"componentType":5126,"count":337,"type":"VEC2","name":"accessorUVs"},{"bufferView":0,"byteOffset":58932,"componentType":5123,"count":38727,"type":"SCALAR","name":"accessorIndices"},{"bufferView":1,"byteOffset":159168,"componentType":5126,"count":8854,"max":[0.030163275,0.44447035,0.030163275],"min":[-0.030163275,-0.44447035,-0.030163275],"type":"VEC3","name":"accessorPositions"},{"bufferView":2,"byteOffset":106112,"componentType":5126,"count":8854,"type":"VEC4","name":"accessorTangents"},{"bufferView":1,"byteOffset":265416,"componentType":5126,"count":8854,"type":"VEC3","name":"accessorNormals"},{"bufferView":3,"byteOffset":53056,"componentType":5126,"count":8854,"type":"VEC2","name":"accessorUVs"},{"bufferView":0,"byteOffset":136388,"componentType":5123,"count":30654,"type":"SCALAR","name":"accessorIndices"},{"bufferView":1,"byteOffset":371664,"componentType":5126,"count":6253,"max":[0.030163275,0.42268983,0.030163275],"min":[-0.030163275,-0.42268986,-0.030163275],"type":"VEC3","name":"accessorPositions"},{"bufferView":2,"byteOffset":247776,"componentType":5126,"count":6253,"type":"VEC4","name":"accessorTangents"},{"bufferView":1,"byteOffset":446700,"componentType":5126,"count":6253,"type":"VEC3","name":"accessorNormals"},{"bufferView":3,"byteOffset":123888,"componentType":5126,"count":6253,"type":"VEC2","name":"accessorUVs"},{"bufferView":0,"byteOffset":197696,"componentType":5123,"count":32514,"type":"SCALAR","name":"accessorIndices"},{"bufferView":1,"byteOffset":521736,"componentType":5126,"count":6576,"max":[0.030163275,0.4574741,0.03016095],"min":[-0.030163275,-0.4574744,-0.030163275],"type":"VEC3","name":"accessorPositions"},{"bufferView":2,"byteOffset":347824,"componentType":5126,"count":6576,"type":"VEC4","name":"accessorTangents"},{"bufferView":1,"byteOffset":600648,"componentType":5126,"count":6576,"type":"VEC3","name":"accessorNormals"},{"bufferView":3,"byteOffset":173912,"componentType":5126,"count":6576,"type":"VEC2","name":"accessorUVs"},{"bufferView":0,"byteOffset":262724,"componentType":5123,"count":38685,"type":"SCALAR","name":"accessorIndices"},{"bufferView":1,"byteOffset":679560,"componentType":5126,"count":8846,"max":[0.030163275,0.44449466,0.030163275],"min":[-0.03016095,-0.4444948,-0.030163275],"type":"VEC3","name":"accessorPositions"},{"bufferView":2,"byteOffset":453040,"componentType":5126,"count":8846,"type":"VEC4","name":"accessorTangents"},{"bufferView":1,"byteOffset":785712,"componentType":5126,"count":8846,"type":"VEC3","name":"accessorNormals"},{"bufferView":3,"byteOffset":226520,"componentType":5126,"count":8846,"type":"VEC2","name":"accessorUVs"},{"bufferView":0,"byteOffset":340096,"componentType":5123,"count":30516,"type":"SCALAR","name":"accessorIndices"},{"bufferView":1,"byteOffset":891864,"componentType":5126,"count":6242,"max":[0.030163275,0.42267725,0.030163275],"min":[-0.03016095,-0.4226771,-0.030163275],"type":"VEC3","name":"accessorPositions"},{"bufferView":2,"byteOffset":594576,"componentType":5126,"count":6242,"type":"VEC4","name":"accessorTangents"},{"bufferView":1,"byteOffset":966768,"componentType":5126,"count":6242,"type":"VEC3","name":"accessorNormals"},{"bufferView":3,"byteOffset":297288,"componentType":5126,"count":6242,"type":"VEC2","name":"accessorUVs"},{"bufferView":0,"byteOffset":401128,"componentType":5123,"count":1728,"type":"SCALAR","name":"accessorIndices"},{"bufferView":1,"byteOffset":1041672,"componentType":5126,"count":584,"max":[0.03016095,0.43142644,0.030163275],"min":[-0.030163275,-0.5011761,-0.030163275],"type":"VEC3","name":"accessorPositions"},{"bufferView":2,"byteOffset":694448,"componentType":5126,"count":584,"type":"VEC4","name":"accessorTangents"},{"bufferView":1,"byteOffset":1048680,"componentType":5126,"count":584,"type":"VEC3","name":"accessorNormals"},{"bufferView":3,"byteOffset":347224,"componentType":5126,"count":584,"type":"VEC2","name":"accessorUVs"},{"bufferView":0,"byteOffset":404584,"componentType":5123,"count":3492,"type":"SCALAR","name":"accessorIndices"},{"bufferView":1,"byteOffset":1055688,"componentType":5126,"count":765,"max":[0.05715,0.025400002,0.05715],"min":[-0.05715,-1.479894E-15,-0.05715],"type":"VEC3","name":"accessorPositions"},{"bufferView":2,"byteOffset":703792,"componentType":5126,"count":765,"type":"VEC4","name":"accessorTangents"},{"bufferView":1,"byteOffset":1064868,"componentType":5126,"count":765,"type":"VEC3","name":"accessorNormals"},{"bufferView":3,"byteOffset":351896,"componentType":5126,"count":765,"type":"VEC2","name":"accessorUVs"},{"bufferView":0,"byteOffset":411568,"componentType":5123,"count":1368,"type":"SCALAR","name":"accessorIndices"},{"bufferView":1,"byteOffset":1074048,"componentType":5126,"count":456,"max":[0.05715,0.025400002,0.05715],"min":[-0.05715,-1.479894E-15,-0.05715],"type":"VEC3","name":"accessorPositions"},{"bufferView":2,"byteOffset":716032,"componentType":5126,"count":456,"type":"VEC4","name":"accessorTangents"},{"bufferView":1,"byteOffset":1079520,"componentType":5126,"count":456,"type":"VEC3","name":"accessorNormals"},{"bufferView":3,"byteOffset":358016,"componentType":5126,"count":456,"type":"VEC2","name":"accessorUVs"},{"bufferView":0,"byteOffset":414304,"componentType":5123,"count":2682,"type":"SCALAR","name":"accessorIndices"},{"bufferView":1,"byteOffset":1084992,"componentType":5126,"count":750,"max":[0.0079375,0.06034161,0.024871314],"min":[-0.0079375,-0.013208,-0.0079375],"type":"VEC3","name":"accessorPositions"},{"bufferView":2,"byteOffset":723328,"componentType":5126,"count":750,"type":"VEC4","name":"accessorTangents"},{"bufferView":1,"byteOffset":1093992,"componentType":5126,"count":750,"type":"VEC3","name":"accessorNormals"},{"bufferView":3,"byteOffset":361664,"componentType":5126,"count":750,"type":"VEC2","name":"accessorUVs"},{"bufferView":0,"byteOffset":419668,"componentType":5123,"count":348,"type":"SCALAR","name":"accessorIndices"},{"bufferView":1,"byteOffset":1102992,"componentType":5126,"count":128,"max":[0.042062398,0.0120777,0.03175],"min":[0.033772144,-0.012090401,-0.03175],"type":"VEC3","name":"accessorPositions"},{"bufferView":2,"byteOffset":735328,"componentType":5126,"count":128,"type":"VEC4","name":"accessorTangents"},{"bufferView":1,"byteOffset":1104528,"componentType":5126,"count":128,"type":"VEC3","name":"accessorNormals"},{"bufferView":3,"byteOffset":367664,"componentType":5126,"count":128,"type":"VEC2","name":"accessorUVs"},{"bufferView":0,"byteOffset":420364,"componentType":5123,"count":276,"type":"SCALAR","name":"accessorIndices"},{"bufferView":1,"byteOffset":1106064,"componentType":5126,"count":98,"max":[0.8796579,0.6045407,0.0019998779],"min":[-0.8796579,-0.6045406,-0.0019998779],"type":"VEC3","name":"accessorPositions"},{"bufferView":2,"byteOffset":737376,"componentType":5126,"count":98,"type":"VEC4","name":"accessorTangents"},{"bufferView":1,"byteOffset":1107240,"componentType":5126,"count":98,"type":"VEC3","name":"accessorNormals"},{"bufferView":3,"byteOffset":368688,"componentType":5126,"count":98,"type":"VEC2","name":"accessorUVs"},{"bufferView":0,"byteOffset":420916,"componentType":5123,"count":34689,"type":"SCALAR","name":"accessorIndices"},{"bufferView":1,"byteOffset":1108416,"componentType":5126,"count":7490,"max":[0.03016095,0.43142644,0.030163275],"min":[-0.030163275,-0.43142658,-0.030163275],"type":"VEC3","name":"accessorPositions"},{"bufferView":2,"byteOffset":738944,"componentType":5126,"count":7490,"type":"VEC4","name":"accessorTangents"},{"bufferView":1,"byteOffset":1198296,"componentType":5126,"count":7490,"type":"VEC3","name":"accessorNormals"},{"bufferView":3,"byteOffset":369472,"componentType":5126,"count":7490,"type":"VEC2","name":"accessorUVs"},{"bufferView":0,"byteOffset":490296,"componentType":5123,"count":28869,"type":"SCALAR","name":"accessorIndices"},{"bufferView":1,"byteOffset":1288176,"componentType":5126,"count":5774,"max":[0.03016095,0.41149276,0.03016095],"min":[-0.030163275,-0.41149276,-0.030163275],"type":"VEC3","name":"accessorPositions"},{"bufferView":2,"byteOffset":858784,"componentType":5126,"count":5774,"type":"VEC4","name":"accessorTangents"},{"bufferView":1,"byteOffset":1357464,"componentType":5126,"count":5774,"type":"VEC3","name":"accessorNormals"},{"bufferView":3,"byteOffset":429392,"componentType":5126,"count":5774,"type":"VEC2","name":"accessorUVs"},{"bufferView":0,"byteOffset":548036,"componentType":5123,"count":852,"type":"SCALAR","name":"accessorIndices"},{"bufferView":1,"byteOffset":1426752,"componentType":5126,"count":432,"max":[0.0079375,0.0427736,0.0079375],"min":[-0.0079375,-0.01320801,-0.0079375],"type":"VEC3","name":"accessorPositions"},{"bufferView":2,"byteOffset":951168,"componentType":5126,"count":432,"type":"VEC4","name":"accessorTangents"},{"bufferView":1,"byteOffset":1431936,"componentType":5126,"count":432,"type":"VEC3","name":"accessorNormals"},{"bufferView":3,"byteOffset":475584,"componentType":5126,"count":432,"type":"VEC2","name":"accessorUVs"},{"bufferView":0,"byteOffset":549740,"componentType":5123,"count":34092,"type":"SCALAR","name":"accessorIndices"},{"bufferView":1,"byteOffset":1437120,"componentType":5126,"count":7786,"max":[0.03016095,0.41149276,0.030163275],"min":[-0.030163275,-0.41149276,-0.03016095],"type":"VEC3","name":"accessorPositions"},{"bufferView":2,"byteOffset":958080,"componentType":5126,"count":7786,"type":"VEC4","name":"accessorTangents"},{"bufferView":1,"byteOffset":1530552,"componentType":5126,"count":7786,"type":"VEC3","name":"accessorNormals"},{"bufferView":3,"byteOffset":479040,"componentType":5126,"count":7786,"type":"VEC2","name":"accessorUVs"},{"bufferView":0,"byteOffset":617924,"componentType":5123,"count":30528,"type":"SCALAR","name":"accessorIndices"},{"bufferView":1,"byteOffset":1623984,"componentType":5126,"count":6231,"max":[0.030163275,0.42268983,0.03016095],"min":[-0.030163275,-0.42268986,-0.030163275],"type":"VEC3","name":"accessorPositions"},{"bufferView":2,"byteOffset":1082656,"componentType":5126,"count":6231,"type":"VEC4","name":"accessorTangents"},{"bufferView":1,"byteOffset":1698756,"componentType":5126,"count":6231,"type":"VEC3","name":"accessorNormals"},{"bufferView":3,"byteOffset":541328,"componentType":5126,"count":6231,"type":"VEC2","name":"accessorUVs"},{"bufferView":0,"byteOffset":678980,"componentType":5123,"count":32973,"type":"SCALAR","name":"accessorIndices"},{"bufferView":1,"byteOffset":1773528,"componentType":5126,"count":7212,"max":[0.030163275,0.41149276,0.03016095],"min":[-0.03016095,-0.41149276,-0.030163275],"type":"VEC3","name":"accessorPositions"},{"bufferView":2,"byteOffset":1182352,"componentType":5126,"count":7212,"type":"VEC4","name":"accessorTangents"},{"bufferView":1,"byteOffset":1860072,"componentType":5126,"count":7212,"type":"VEC3","name":"accessorNormals"},{"bufferView":3,"byteOffset":591176,"componentType":5126,"count":7212,"type":"VEC2","name":"accessorUVs"},{"bufferView":0,"byteOffset":744928,"componentType":5123,"count":276,"type":"SCALAR","name":"accessorIndices"},{"bufferView":1,"byteOffset":1946616,"componentType":5126,"count":98,"max":[0.0019998779,0.0020000234,0.9360917],"min":[-0.0019998779,-0.0020000234,-0.9360917],"type":"VEC3","name":"accessorPositions"},{"bufferView":2,"byteOffset":1297744,"componentType":5126,"count":98,"type":"VEC4","name":"accessorTangents"},{"bufferView":1,"byteOffset":1947792,"componentType":5126,"count":98,"type":"VEC3","name":"accessorNormals"},{"bufferView":3,"byteOffset":648872,"componentType":5126,"count":98,"type":"VEC2","name":"accessorUVs"},{"bufferView":0,"byteOffset":745480,"componentType":5123,"count":276,"type":"SCALAR","name":"accessorIndices"},{"bufferView":1,"byteOffset":1948968,"componentType":5126,"count":98,"max":[0.32331514,0.0020000234,0.0019998779],"min":[-0.32331747,-0.0020000234,-0.0019998779],"type":"VEC3","name":"accessorPositions"},{"bufferView":2,"byteOffset":1299312,"componentType":5126,"count":98,"type":"VEC4","name":"accessorTangents"},{"bufferView":1,"byteOffset":1950144,"componentType":5126,"count":98,"type":"VEC3","name":"accessorNormals"},{"bufferView":3,"byteOffset":649656,"componentType":5126,"count":98,"type":"VEC2","name":"accessorUVs"},{"bufferView":0,"byteOffset":746032,"componentType":5123,"count":276,"type":"SCALAR","name":"accessorIndices"},{"bufferView":1,"byteOffset":1951320,"componentType":5126,"count":98,"max":[0.3741167,0.0020000234,0.0019998779],"min":[-0.3741167,-0.0020000234,-0.0019998779],"type":"VEC3","name":"accessorPositions"},{"bufferView":2,"byteOffset":1300880,"componentType":5126,"count":98,"type":"VEC4","name":"accessorTangents"},{"bufferView":1,"byteOffset":1952496,"componentType":5126,"count":98,"type":"VEC3","name":"accessorNormals"},{"bufferView":3,"byteOffset":650440,"componentType":5126,"count":98,"type":"VEC2","name":"accessorUVs"},{"bufferView":0,"byteOffset":746584,"componentType":5123,"count":1788,"type":"SCALAR","name":"accessorIndices"},{"bufferView":1,"byteOffset":1953672,"componentType":5126,"count":842,"max":[-0.0004998516,0.019049998,0.01905],"min":[-0.38131106,-0.019050084,-0.6853009],"type":"VEC3","name":"accessorPositions"},{"bufferView":2,"byteOffset":1302448,"componentType":5126,"count":842,"type":"VEC4","name":"accessorTangents"},{"bufferView":1,"byteOffset":1963776,"componentType":5126,"count":842,"type":"VEC3","name":"accessorNormals"},{"bufferView":3,"byteOffset":651224,"componentType":5126,"count":842,"type":"VEC2","name":"accessorUVs"},{"bufferView":0,"byteOffset":750160,"componentType":5123,"count":1788,"type":"SCALAR","name":"accessorIndices"},{"bufferView":1,"byteOffset":1973880,"componentType":5126,"count":823,"max":[0.01905,0.38131112,0.01905],"min":[-0.019050037,0.0004998547,-1.5806497],"type":"VEC3","name":"accessorPositions"},{"bufferView":2,"byteOffset":1315920,"componentType":5126,"count":823,"type":"VEC4","name":"accessorTangents"},{"bufferView":1,"byteOffset":1983756,"componentType":5126,"count":823,"type":"VEC3","name":"accessorNormals"},{"bufferView":3,"byteOffset":657960,"componentType":5126,"count":823,"type":"VEC2","name":"accessorUVs"}],"bufferViews":[{"buffer":0,"byteLength":753736,"name":"bufferViewScalar"},{"buffer":0,"byteOffset":753736,"byteLength":1993632,"byteStride":12,"name":"bufferViewFloatVec3"},{"buffer":0,"byteOffset":2747368,"byteLength":1329088,"byteStride":16,"name":"bufferViewFloatVec4"},{"buffer":0,"byteOffset":4076456,"byteLength":664544,"byteStride":8,"name":"bufferViewFloatVec2"}],"buffers":[{"uri":"Switchback_Railing_Koto_Round.bin","byteLength":4741000}],"materials":[{"pbrMetallicRoughness":{"baseColorFactor":[0.9999998,0.9999999,0.9999999,1.0],"baseColorTexture":{"index":0,"extensions":{"KHR_texture_transform":{"offset":[0.19519997,0.8048],"rotation":1.5707964,"scale":[0.6096,0.6096],"texCoord":0}}},"roughnessFactor":0.2,"metallicRoughnessTexture":{"index":0,"extensions":{"KHR_texture_transform":{"offset":[0.19519997,0.8048],"rotation":1.5707964,"scale":[0.6096,0.6096],"texCoord":0}}}},"name":"Steel_Linear"},{"pbrMetallicRoughness":{"baseColorFactor":[0.9999998,0.9999999,0.9999999,1.0],"baseColorTexture":{"index":1},"roughnessFactor":0.2,"metallicRoughnessTexture":{"index":1}},"name":"Steel_Radial"},{"pbrMetallicRoughness":{"baseColorFactor":[0.9999998,0.9999999,0.9999999,1.0],"baseColorTexture":{"index":2,"extensions":{"KHR_texture_transform":{"offset":[0.21909332,-0.053646088],"rotation":-1.2217305,"scale":[25.83051,25.83051],"texCoord":0}}},"roughnessFactor":0.2,"metallicRoughnessTexture":{"index":2,"extensions":{"KHR_texture_transform":{"offset":[0.21909332,-0.053646088],"rotation":-1.2217305,"scale":[25.83051,25.83051],"texCoord":0}}}},"name":"Cable"},{"pbrMetallicRoughness":{"baseColorFactor":[0.9999998,0.9999999,0.9999999,1.0],"roughnessFactor":0.2},"name":"Steel_Polished"}],"textures":[{"sampler":0,"source":0,"name":"Metal_Brushed_Linear_4k.jpg"},{"sampler":0,"source":1,"name":"Metal_Brushed_Radial_4k.jpg"},{"sampler":0,"source":2,"name":"Metal_Cable.jpg"}],"images":[{"uri":"textures/Metal_Brushed_Linear_4k.jpg"},{"uri":"textures/Metal_Brushed_Radial_4k.jpg"},{"uri":"textures/Metal_Cable.jpg"}],"samplers":[{"magFilter":9729,"minFilter":9987}]}