{"asset":{"version":"2.0","generator":"babylon.js glTF exporter for 3dsmax 2026 v20251111.2"},"extensionsUsed":["KHR_lights_punctual","KHR_texture_transform","KHR_materials_clearcoat"],"extensionsRequired":["KHR_texture_transform"],"scene":0,"scenes":[{"nodes":[0,1,2,3,4,5,6,7,8,9,10,11,12,13,14,15,16,17,18,19,20,21,22,23,24,25,26,27,28,29,30,31,32,33,34,35,36,37,38,39,40,41,42,43,44,45,46,47,48,49,50,51,52,53,54,55,56,57,58,59,60,61,62,63,64,65,66,67,68,69,70,71,72,73,74,75,76,77,78,79,80,81,82,83,84,85,86,87,88,89,90,91,92,93,94,95,96,97,98,99,100,101,102,103,104,105,106,107,108,109,110,111,112,113,114,115,116,117,118,119,120,121,122,123,124,125,126,127,128,129,130,131,132,133,134,135,136,137,138,139,140,141,142,143,144,145,146,147,148,149,150,151,152,153,154,155,156,157,158,159,160,161,162,163,164,165,166,167,168,169,170,171,172,173,174,175,176,177,178,179,180,181,182,183,184,185,186,187,188,189,190,191,192,193,194,195,196,197,198,199,200,201,202,203,204,205,206,207,208,209,210,211,212,213,214,215,216,217,218,219,220,221,222,223,224,225,226,227,228,229,230,231,232,233,234,235,236,237,238,239,240,241,242,243,244,245,246,247,248,249,250,251,252,253,254,255,256,257,258,259,260,261,262,263,264,265,266,267,268,269,270,271,272,273,274,275,276,277,278,279,280,281,282,283,284,285,286,287,288,289,290,291,292,293,294,295,296,297,298,299,300]}],"nodes":[{"mesh":0,"translation":[0.27907687,1.28016,-0.6649965],"rotation":[-0.0,0.7071068,0.0,0.7071067],"name":"Floor Nosing001"},{"mesh":1,"translation":[-0.29062325,1.28016,-1.2745965],"rotation":[-0.0,-0.7071068,0.0,0.7071067],"name":"Landing_Boss"},{"mesh":2,"translation":[-0.90022326,1.0944098,0.058903527],"rotation":[-0.5,-0.5,0.5,-0.5],"name":"Landing Stringer001"},{"mesh":3,"translation":[-0.90022326,1.1706098,0.52195436],"rotation":[-0.0,-1.0,0.0,-4.371139E-08],"name":"Landing Attachment_011"},{"mesh":3,"translation":[-0.90022326,1.1706098,-0.86690974],"rotation":[-0.0,-1.0,0.0,-4.371139E-08],"name":"Landing Attachment_010"},{"mesh":3,"translation":[-0.90022326,1.1706098,0.9892886],"rotation":[-0.0,-1.0,0.0,-4.371139E-08],"name":"Landing Attachment_009"},{"mesh":3,"translation":[-0.6462225,1.1706098,-0.6649965],"rotation":[-0.0,0.7071068,0.0,0.7071067],"name":"Landing Attachment_008"},{"mesh":3,"translation":[-0.6462225,1.1706098,0.78280354],"rotation":[-0.0,-0.7071068,0.0,0.7071067],"name":"Landing Attachment_007"},{"mesh":3,"translation":[-0.90022326,1.1706098,-0.40944928],"rotation":[-0.0,-1.0,0.0,-4.371139E-08],"name":"Landing Attachment_006"},{"mesh":3,"translation":[-0.90022326,1.1706098,0.058903527],"rotation":[-0.0,-1.0,0.0,-4.371139E-08],"name":"Landing Attachment_005"},{"mesh":4,"translation":[-1.0335733,1.1706098,0.4711551],"rotation":[0.5,0.5,0.50000006,0.49999994],"scale":[1.0,0.99999994,0.99999994],"name":"1/2\" Lag Bolt_040"},{"mesh":4,"translation":[-1.0335733,1.1706098,0.5727559],"rotation":[0.5,0.5,0.50000006,0.49999994],"scale":[1.0,0.99999994,0.99999994],"name":"1/2\" Lag Bolt_041"},{"mesh":4,"translation":[-0.99547327,1.1706098,0.5727559],"rotation":[0.5,0.5,0.50000006,0.49999994],"scale":[1.0,0.99999994,0.99999994],"name":"1/2\" Lag Bolt_042"},{"mesh":4,"translation":[-0.99547327,1.1706098,0.4711551],"rotation":[0.5,0.5,0.50000006,0.49999994],"scale":[1.0,0.99999994,0.99999994],"name":"1/2\" Lag Bolt_043"},{"mesh":4,"translation":[-0.80497324,1.1706098,0.4711551],"rotation":[0.5,0.5,0.50000006,0.49999994],"scale":[1.0,0.99999994,0.99999994],"name":"1/2\" Lag Bolt_044"},{"mesh":4,"translation":[-0.76687324,1.1706098,0.4711551],"rotation":[0.5,0.5,0.50000006,0.49999994],"scale":[1.0,0.99999994,0.99999994],"name":"1/2\" Lag Bolt_045"},{"mesh":4,"translation":[-0.80497324,1.1706098,0.5727559],"rotation":[0.5,0.5,0.50000006,0.49999994],"scale":[1.0,0.99999994,0.99999994],"name":"1/2\" Lag Bolt_046"},{"mesh":4,"translation":[-0.76687324,1.1706098,0.5727559],"rotation":[0.5,0.5,0.50000006,0.49999994],"scale":[1.0,0.99999994,0.99999994],"name":"1/2\" Lag Bolt_047"},{"mesh":4,"translation":[-1.0335733,1.1706098,-0.917709],"rotation":[0.5,0.5,0.50000006,0.49999994],"scale":[1.0,0.99999994,0.99999994],"name":"1/2\" Lag Bolt_048"},{"mesh":4,"translation":[-1.0335733,1.1706098,-0.81610817],"rotation":[0.5,0.5,0.50000006,0.49999994],"scale":[1.0,0.99999994,0.99999994],"name":"1/2\" Lag Bolt_049"},{"mesh":4,"translation":[-0.99547327,1.1706098,-0.81610817],"rotation":[0.5,0.5,0.50000006,0.49999994],"scale":[1.0,0.99999994,0.99999994],"name":"1/2\" Lag Bolt_050"},{"mesh":4,"translation":[-0.99547327,1.1706098,-0.917709],"rotation":[0.5,0.5,0.50000006,0.49999994],"scale":[1.0,0.99999994,0.99999994],"name":"1/2\" Lag Bolt_051"},{"mesh":4,"translation":[-0.80497324,1.1706098,-0.917709],"rotation":[0.5,0.5,0.50000006,0.49999994],"scale":[1.0,0.99999994,0.99999994],"name":"1/2\" Lag Bolt_052"},{"mesh":4,"translation":[-0.76687324,1.1706098,-0.917709],"rotation":[0.5,0.5,0.50000006,0.49999994],"scale":[1.0,0.99999994,0.99999994],"name":"1/2\" Lag Bolt_053"},{"mesh":4,"translation":[-0.80497324,1.1706098,-0.81610817],"rotation":[0.5,0.5,0.50000006,0.49999994],"scale":[1.0,0.99999994,0.99999994],"name":"1/2\" Lag Bolt_054"},{"mesh":4,"translation":[-0.76687324,1.1706098,-0.81610817],"rotation":[0.5,0.5,0.50000006,0.49999994],"scale":[1.0,0.99999994,0.99999994],"name":"1/2\" Lag Bolt_055"},{"mesh":4,"translation":[-1.0335733,1.1706098,0.9384894],"rotation":[0.5,0.5,0.50000006,0.49999994],"scale":[1.0,0.99999994,0.99999994],"name":"1/2\" Lag Bolt_056"},{"mesh":4,"translation":[-1.0335733,1.1706098,1.0400902],"rotation":[0.5,0.5,0.50000006,0.49999994],"scale":[1.0,0.99999994,0.99999994],"name":"1/2\" Lag Bolt_057"},{"mesh":4,"translation":[-0.99547327,1.1706098,1.0400902],"rotation":[0.5,0.5,0.50000006,0.49999994],"scale":[1.0,0.99999994,0.99999994],"name":"1/2\" Lag Bolt_058"},{"mesh":4,"translation":[-0.99547327,1.1706098,0.9384894],"rotation":[0.5,0.5,0.50000006,0.49999994],"scale":[1.0,0.99999994,0.99999994],"name":"1/2\" Lag Bolt_059"},{"mesh":4,"translation":[-0.80497324,1.1706098,0.9384894],"rotation":[0.5,0.5,0.50000006,0.49999994],"scale":[1.0,0.99999994,0.99999994],"name":"1/2\" Lag Bolt_060"},{"mesh":4,"translation":[-0.76687324,1.1706098,0.9384894],"rotation":[0.5,0.5,0.50000006,0.49999994],"scale":[1.0,0.99999994,0.99999994],"name":"1/2\" Lag Bolt_061"},{"mesh":4,"translation":[-0.80497324,1.1706098,1.0400902],"rotation":[0.5,0.5,0.50000006,0.49999994],"scale":[1.0,0.99999994,0.99999994],"name":"1/2\" Lag Bolt_062"},{"mesh":4,"translation":[-0.76687324,1.1706098,1.0400902],"rotation":[0.5,0.5,0.50000006,0.49999994],"scale":[1.0,0.99999994,0.99999994],"name":"1/2\" Lag Bolt_063"},{"mesh":4,"translation":[-0.5954233,1.1706098,-0.79834646],"rotation":[1.9037373E-15,1.9037373E-15,0.7071068,0.7071067],"name":"1/2\" Lag Bolt_064"},{"mesh":4,"translation":[-0.69702405,1.1706098,-0.79834646],"rotation":[1.9037373E-15,1.9037373E-15,0.7071068,0.7071067],"name":"1/2\" Lag Bolt_065"},{"mesh":4,"translation":[-0.69702405,1.1706098,-0.76024646],"rotation":[1.9037373E-15,1.9037373E-15,0.7071068,0.7071067],"name":"1/2\" Lag Bolt_066"},{"mesh":4,"translation":[-0.5954233,1.1706098,-0.76024646],"rotation":[1.9037373E-15,1.9037373E-15,0.7071068,0.7071067],"name":"1/2\" Lag Bolt_067"},{"mesh":4,"translation":[-0.5954233,1.1706098,-0.5697465],"rotation":[1.9037373E-15,1.9037373E-15,0.7071068,0.7071067],"name":"1/2\" Lag Bolt_068"},{"mesh":4,"translation":[-0.5954233,1.1706098,-0.5316465],"rotation":[1.9037373E-15,1.9037373E-15,0.7071068,0.7071067],"name":"1/2\" Lag Bolt_069"},{"mesh":4,"translation":[-0.69702405,1.1706098,-0.5697465],"rotation":[1.9037373E-15,1.9037373E-15,0.7071068,0.7071067],"name":"1/2\" Lag Bolt_070"},{"mesh":4,"translation":[-0.69702405,1.1706098,-0.5316465],"rotation":[1.9037373E-15,1.9037373E-15,0.7071068,0.7071067],"name":"1/2\" Lag Bolt_071"},{"mesh":4,"translation":[-0.5954233,1.1706098,0.91615355],"rotation":[-0.0,-0.0,0.7071068,0.7071067],"name":"1/2\" Lag Bolt_072"},{"mesh":4,"translation":[-0.69702405,1.1706098,0.91615355],"rotation":[-0.0,-0.0,0.7071068,0.7071067],"name":"1/2\" Lag Bolt_073"},{"mesh":4,"translation":[-0.69702405,1.1706098,0.87805355],"rotation":[-0.0,-0.0,0.7071068,0.7071067],"name":"1/2\" Lag Bolt_074"},{"mesh":4,"translation":[-0.5954233,1.1706098,0.87805355],"rotation":[-0.0,-0.0,0.7071068,0.7071067],"name":"1/2\" Lag Bolt_075"},{"mesh":4,"translation":[-0.5954233,1.1706098,0.6875535],"rotation":[-0.0,-0.0,0.7071068,0.7071067],"name":"1/2\" Lag Bolt_076"},{"mesh":4,"translation":[-0.5954233,1.1706098,0.6494535],"rotation":[-0.0,-0.0,0.7071068,0.7071067],"name":"1/2\" Lag Bolt_077"},{"mesh":4,"translation":[-0.69702405,1.1706098,0.6875535],"rotation":[-0.0,-0.0,0.7071068,0.7071067],"name":"1/2\" Lag Bolt_078"},{"mesh":4,"translation":[-0.69702405,1.1706098,0.6494535],"rotation":[-0.0,-0.0,0.7071068,0.7071067],"name":"1/2\" Lag Bolt_079"},{"mesh":4,"translation":[-1.0335733,1.1706098,-0.4602485],"rotation":[0.5,0.5,0.50000006,0.49999994],"scale":[1.0,0.99999994,0.99999994],"name":"1/2\" Lag Bolt_080"},{"mesh":4,"translation":[-1.0335733,1.1706098,-0.35864773],"rotation":[0.5,0.5,0.50000006,0.49999994],"scale":[1.0,0.99999994,0.99999994],"name":"1/2\" Lag Bolt_081"},{"mesh":4,"translation":[-0.99547327,1.1706098,-0.35864773],"rotation":[0.5,0.5,0.50000006,0.49999994],"scale":[1.0,0.99999994,0.99999994],"name":"1/2\" Lag Bolt_082"},{"mesh":4,"translation":[-0.99547327,1.1706098,-0.4602485],"rotation":[0.5,0.5,0.50000006,0.49999994],"scale":[1.0,0.99999994,0.99999994],"name":"1/2\" Lag Bolt_083"},{"mesh":4,"translation":[-0.80497324,1.1706098,-0.4602485],"rotation":[0.5,0.5,0.50000006,0.49999994],"scale":[1.0,0.99999994,0.99999994],"name":"1/2\" Lag Bolt_084"},{"mesh":4,"translation":[-0.76687324,1.1706098,-0.4602485],"rotation":[0.5,0.5,0.50000006,0.49999994],"scale":[1.0,0.99999994,0.99999994],"name":"1/2\" Lag Bolt_085"},{"mesh":4,"translation":[-0.80497324,1.1706098,-0.35864773],"rotation":[0.5,0.5,0.50000006,0.49999994],"scale":[1.0,0.99999994,0.99999994],"name":"1/2\" Lag Bolt_086"},{"mesh":4,"translation":[-0.76687324,1.1706098,-0.35864773],"rotation":[0.5,0.5,0.50000006,0.49999994],"scale":[1.0,0.99999994,0.99999994],"name":"1/2\" Lag Bolt_087"},{"mesh":4,"translation":[-1.0335733,1.1706098,0.008104302],"rotation":[0.5,0.5,0.50000006,0.49999994],"scale":[1.0,0.99999994,0.99999994],"name":"1/2\" Lag Bolt_088"},{"mesh":4,"translation":[-1.0335733,1.1706098,0.109705076],"rotation":[0.5,0.5,0.50000006,0.49999994],"scale":[1.0,0.99999994,0.99999994],"name":"1/2\" Lag Bolt_089"},{"mesh":4,"translation":[-0.99547327,1.1706098,0.109705076],"rotation":[0.5,0.5,0.50000006,0.49999994],"scale":[1.0,0.99999994,0.99999994],"name":"1/2\" Lag Bolt_090"},{"mesh":4,"translation":[-0.99547327,1.1706098,0.008104302],"rotation":[0.5,0.5,0.50000006,0.49999994],"scale":[1.0,0.99999994,0.99999994],"name":"1/2\" Lag Bolt_091"},{"mesh":4,"translation":[-0.80497324,1.1706098,0.008104302],"rotation":[0.5,0.5,0.50000006,0.49999994],"scale":[1.0,0.99999994,0.99999994],"name":"1/2\" Lag Bolt_092"},{"mesh":4,"translation":[-0.76687324,1.1706098,0.008104302],"rotation":[0.5,0.5,0.50000006,0.49999994],"scale":[1.0,0.99999994,0.99999994],"name":"1/2\" Lag Bolt_093"},{"mesh":4,"translation":[-0.80497324,1.1706098,0.109705076],"rotation":[0.5,0.5,0.50000006,0.49999994],"scale":[1.0,0.99999994,0.99999994],"name":"1/2\" Lag Bolt_094"},{"mesh":4,"translation":[-0.76687324,1.1706098,0.109705076],"rotation":[0.5,0.5,0.50000006,0.49999994],"scale":[1.0,0.99999994,0.99999994],"name":"1/2\" Lag Bolt_095"},{"mesh":5,"translation":[-0.8176725,1.0944098,-0.6649965],"rotation":[-0.0,-0.7071068,0.0,0.7071067],"name":"Stringer Attachment_002"},{"mesh":5,"translation":[-0.8176725,1.0944098,0.78280354],"rotation":[-0.0,-0.7071068,0.0,0.7071067],"name":"Stringer Attachment_003"},{"mesh":6,"translation":[-0.8176725,1.1452098,-0.5633957],"rotation":[3.3937974E-15,-1.0,6.2099294E-17,-4.371139E-08],"name":"3/8\" FHSCS_044"},{"mesh":6,"translation":[-0.8176725,1.0436097,-0.5633957],"rotation":[3.3937974E-15,-1.0,6.2099294E-17,-4.371139E-08],"name":"3/8\" FHSCS_045"},{"mesh":6,"translation":[-0.8176725,1.0436097,-0.76659495],"rotation":[3.3937974E-15,-1.0,6.2099294E-17,-4.371139E-08],"name":"3/8\" FHSCS_046"},{"mesh":6,"translation":[-0.8176725,1.1452098,-0.76659495],"rotation":[3.3937974E-15,-1.0,6.2099294E-17,-4.371139E-08],"name":"3/8\" FHSCS_047"},{"mesh":6,"translation":[-0.8176725,1.1452098,0.8844043],"rotation":[3.3937974E-15,-1.0,6.2099294E-17,-4.371139E-08],"name":"3/8\" FHSCS_048"},{"mesh":6,"translation":[-0.8176725,1.0436097,0.8844043],"rotation":[3.3937974E-15,-1.0,6.2099294E-17,-4.371139E-08],"name":"3/8\" FHSCS_049"},{"mesh":6,"translation":[-0.8176725,1.0436097,0.6812051],"rotation":[3.3937974E-15,-1.0,6.2099294E-17,-4.371139E-08],"name":"3/8\" FHSCS_050"},{"mesh":6,"translation":[-0.8176725,1.1452098,0.6812051],"rotation":[3.3937974E-15,-1.0,6.2099294E-17,-4.371139E-08],"name":"3/8\" FHSCS_051"},{"mesh":6,"translation":[1.6062285,2.4592133,-0.6284824],"rotation":[-3.0908623E-08,0.7071067,0.7071068,3.0908616E-08],"name":"3/8\" FHSCS_052"},{"mesh":6,"translation":[1.6062285,2.4592133,-0.7015082],"rotation":[-3.0908623E-08,0.7071067,0.7071068,3.0908616E-08],"name":"3/8\" FHSCS_053"},{"mesh":6,"translation":[1.6062285,2.3639634,-0.7015082],"rotation":[-3.0908623E-08,0.7071067,0.7071068,3.0908616E-08],"name":"3/8\" FHSCS_054"},{"mesh":6,"translation":[1.6062285,2.3639634,-0.6649965],"rotation":[-3.0908623E-08,0.7071067,0.7071068,3.0908616E-08],"name":"3/8\" FHSCS_055"},{"mesh":6,"translation":[1.6062285,2.3639634,-0.6284801],"rotation":[-3.0908623E-08,0.7071067,0.7071068,3.0908616E-08],"name":"3/8\" FHSCS_056"},{"mesh":6,"translation":[1.6062285,2.4592133,-0.6649965],"rotation":[-3.0908623E-08,0.7071067,0.7071068,3.0908616E-08],"name":"3/8\" FHSCS_057"},{"mesh":6,"translation":[-0.84942406,1.0102596,0.16030198],"rotation":[-0.5,-0.5,0.50000006,0.49999994],"name":"3/8\" FHSCS_058"},{"mesh":6,"translation":[-0.84942406,1.0102596,0.2367043],"rotation":[-0.5,-0.5,0.50000006,0.49999994],"name":"3/8\" FHSCS_059"},{"mesh":6,"translation":[-0.9510225,1.0102596,0.2367043],"rotation":[-0.5,-0.5,0.50000006,0.49999994],"name":"3/8\" FHSCS_060"},{"mesh":6,"translation":[-0.9510225,1.0102596,0.16030198],"rotation":[-0.5,-0.5,0.50000006,0.49999994],"name":"3/8\" FHSCS_061"},{"mesh":6,"translation":[-0.9510225,1.0102596,-0.04249261],"rotation":[-0.5,-0.5,0.50000006,0.49999994],"name":"3/8\" FHSCS_062"},{"mesh":6,"translation":[-0.9510225,1.0102596,-0.11889493],"rotation":[-0.5,-0.5,0.50000006,0.49999994],"name":"3/8\" FHSCS_063"},{"mesh":6,"translation":[-0.84942406,1.0102596,-0.11889493],"rotation":[-0.5,-0.5,0.50000006,0.49999994],"name":"3/8\" FHSCS_064"},{"mesh":6,"translation":[-0.84942406,1.0102596,-0.04249261],"rotation":[-0.5,-0.5,0.50000006,0.49999994],"name":"3/8\" FHSCS_065"},{"mesh":7,"translation":[0.97937596,-3.1392606E-15,0.78280354],"rotation":[-0.0,0.7071068,0.0,0.7071067],"name":"Stair Stringer_Lower001"},{"mesh":8,"translation":[-0.17050111,1.04648,0.78280354],"rotation":[-0.0,0.7071068,0.0,0.7071067],"name":"Tread Block_032"},{"mesh":9,"translation":[-0.17389317,0.9325879,0.78280354],"rotation":[-0.20963982,-0.6753157,-0.20963986,0.6753155],"name":"Tread Support_020"},{"mesh":9,"translation":[1.1569605,0.018187935,0.78280354],"rotation":[-0.20963982,-0.6753157,-0.20963986,0.6753155],"name":"Tread Support_021"},{"mesh":9,"translation":[0.8907884,0.20106794,0.78280354],"rotation":[-0.20963982,-0.6753157,-0.20963986,0.6753155],"name":"Tread Support_022"},{"mesh":9,"translation":[0.6246186,0.38394794,0.78280354],"rotation":[-0.20963982,-0.6753157,-0.20963986,0.6753155],"name":"Tread Support_023"},{"mesh":9,"translation":[0.09227663,0.74970794,0.78280354],"rotation":[-0.20963982,-0.6753157,-0.20963986,0.6753155],"name":"Tread Support_024"},{"mesh":9,"translation":[0.35844645,0.56682795,0.78280354],"rotation":[-0.20963982,-0.6753157,-0.20963986,0.6753155],"name":"Tread Support_025"},{"mesh":10,"translation":[1.1603525,0.13208,0.78280354],"rotation":[-0.0,0.7071068,0.0,0.7071067],"name":"Tread Block_027"},{"mesh":11,"translation":[1.0217618,-3.7031806E-15,0.78280354],"rotation":[-0.0,-0.7071068,0.0,0.7071067],"name":"Footer Plate001"},{"mesh":12,"translation":[0.90840125,0.012700001,0.65580434],"rotation":[-0.5,0.5,0.5,-0.5],"scale":[1.0,0.99999994,0.99999994],"name":"3/8\" Lag Bolt_120"},{"mesh":12,"translation":[1.0544505,0.012700001,0.65580434],"rotation":[-0.5,0.5,0.5,-0.5],"scale":[1.0,0.99999994,0.99999994],"name":"3/8\" Lag Bolt_121"},{"mesh":12,"translation":[1.200502,0.012700001,0.65580434],"rotation":[-0.5,0.5,0.5,-0.5],"scale":[1.0,0.99999994,0.99999994],"name":"3/8\" Lag Bolt_122"},{"mesh":12,"translation":[1.200502,0.012700001,0.78280354],"rotation":[-0.5,0.5,0.5,-0.5],"scale":[1.0,0.99999994,0.99999994],"name":"3/8\" Lag Bolt_123"},{"mesh":12,"translation":[1.200502,0.012700001,0.90980506],"rotation":[-0.5,0.5,0.5,-0.5],"scale":[1.0,0.99999994,0.99999994],"name":"3/8\" Lag Bolt_124"},{"mesh":12,"translation":[1.0544505,0.012700001,0.90980506],"rotation":[-0.5,0.5,0.5,-0.5],"scale":[1.0,0.99999994,0.99999994],"name":"3/8\" Lag Bolt_125"},{"mesh":12,"translation":[0.90840125,0.012700001,0.90980506],"rotation":[-0.5,0.5,0.5,-0.5],"scale":[1.0,0.99999994,0.99999994],"name":"3/8\" Lag Bolt_126"},{"mesh":12,"translation":[-0.14721572,1.0083863,0.6385333],"rotation":[-0.0,-0.0,0.7071068,0.7071067],"name":"3/8\" Lag Bolt_127"},{"mesh":12,"translation":[-0.14721572,1.0083863,0.9270761],"rotation":[-0.0,-0.0,0.7071068,0.7071067],"name":"3/8\" Lag Bolt_128"},{"mesh":12,"translation":[-0.14721572,1.0083863,0.8966036],"rotation":[-0.0,-0.0,0.7071068,0.7071067],"name":"3/8\" Lag Bolt_129"},{"mesh":12,"translation":[-0.14721572,1.0083863,0.6690058],"rotation":[-0.0,-0.0,0.7071068,0.7071067],"name":"3/8\" Lag Bolt_130"},{"mesh":12,"translation":[-0.25050244,1.0083863,0.6385333],"rotation":[-0.7071068,-0.7071068,-2.6692543E-08,8.850979E-08],"name":"3/8\" Lag Bolt_131"},{"mesh":12,"translation":[-0.25050244,1.0083863,0.9270761],"rotation":[-0.7071068,-0.7071068,-2.6692543E-08,8.850979E-08],"name":"3/8\" Lag Bolt_132"},{"mesh":12,"translation":[-0.25050244,1.0083863,0.8809301],"rotation":[-0.5,-0.5,0.50000006,0.49999994],"name":"3/8\" Lag Bolt_133"},{"mesh":12,"translation":[-0.25050244,1.0083863,0.68467927],"rotation":[0.5,0.5,0.50000006,0.49999994],"scale":[1.0,0.99999994,0.99999994],"name":"3/8\" Lag Bolt_134"},{"mesh":12,"translation":[1.1836402,0.093986176,0.6385333],"rotation":[-0.0,-0.0,0.7071068,0.7071067],"name":"3/8\" Lag Bolt_135"},{"mesh":12,"translation":[1.1836402,0.093986176,0.9270761],"rotation":[-0.0,-0.0,0.7071068,0.7071067],"name":"3/8\" Lag Bolt_136"},{"mesh":12,"translation":[1.1836402,0.093986176,0.8966036],"rotation":[-0.0,-0.0,0.7071068,0.7071067],"name":"3/8\" Lag Bolt_137"},{"mesh":12,"translation":[1.1836402,0.093986176,0.6690058],"rotation":[-0.0,-0.0,0.7071068,0.7071067],"name":"3/8\" Lag Bolt_138"},{"mesh":12,"translation":[1.0803512,0.093986176,0.6385333],"rotation":[-0.7071068,-0.7071068,-2.6692543E-08,8.850979E-08],"name":"3/8\" Lag Bolt_139"},{"mesh":12,"translation":[1.0803512,0.093986176,0.9270761],"rotation":[-0.7071068,-0.7071068,-2.6692543E-08,8.850979E-08],"name":"3/8\" Lag Bolt_140"},{"mesh":12,"translation":[1.0803512,0.093986176,0.8809301],"rotation":[-0.5,-0.5,0.50000006,0.49999994],"name":"3/8\" Lag Bolt_141"},{"mesh":12,"translation":[1.0803512,0.093986176,0.68467927],"rotation":[0.5,0.5,0.50000006,0.49999994],"scale":[1.0,0.99999994,0.99999994],"name":"3/8\" Lag Bolt_142"},{"mesh":12,"translation":[0.91746813,0.2768662,0.6385333],"rotation":[-0.0,-0.0,0.7071068,0.7071067],"name":"3/8\" Lag Bolt_143"},{"mesh":12,"translation":[0.91746813,0.2768662,0.9270761],"rotation":[-0.0,-0.0,0.7071068,0.7071067],"name":"3/8\" Lag Bolt_144"},{"mesh":12,"translation":[0.91746813,0.2768662,0.8966036],"rotation":[-0.0,-0.0,0.7071068,0.7071067],"name":"3/8\" Lag Bolt_145"},{"mesh":12,"translation":[0.91746813,0.2768662,0.6690058],"rotation":[-0.0,-0.0,0.7071068,0.7071067],"name":"3/8\" Lag Bolt_146"},{"mesh":12,"translation":[0.81418145,0.2768662,0.6385333],"rotation":[-0.7071068,-0.7071068,-2.6692543E-08,8.850979E-08],"name":"3/8\" Lag Bolt_147"},{"mesh":12,"translation":[0.81418145,0.2768662,0.9270761],"rotation":[-0.7071068,-0.7071068,-2.6692543E-08,8.850979E-08],"name":"3/8\" Lag Bolt_148"},{"mesh":12,"translation":[0.81418145,0.2768662,0.8809301],"rotation":[-0.5,-0.5,0.50000006,0.49999994],"name":"3/8\" Lag Bolt_149"},{"mesh":12,"translation":[0.81418145,0.2768662,0.68467927],"rotation":[0.5,0.5,0.50000006,0.49999994],"scale":[1.0,0.99999994,0.99999994],"name":"3/8\" Lag Bolt_150"},{"mesh":12,"translation":[1.4053779,2.4714262,-0.80926675],"rotation":[-0.7071068,-0.7071068,-2.6692543E-08,8.850979E-08],"name":"3/8\" Lag Bolt_151"},{"mesh":12,"translation":[1.4053779,2.4714262,-0.5207239],"rotation":[-0.7071068,-0.7071068,-2.6692543E-08,8.850979E-08],"name":"3/8\" Lag Bolt_152"},{"mesh":12,"translation":[1.4053779,2.4714262,-0.5512174],"rotation":[-0.7071068,-0.7071068,-2.6692543E-08,8.850979E-08],"name":"3/8\" Lag Bolt_153"},{"mesh":12,"translation":[1.4053779,2.4714262,-0.77877325],"rotation":[-0.7071068,-0.7071068,-2.6692543E-08,8.850979E-08],"name":"3/8\" Lag Bolt_154"},{"mesh":12,"translation":[1.5086088,2.4714262,-0.80926675],"rotation":[1.7227078E-15,1.7227078E-15,0.7071068,0.7071067],"name":"3/8\" Lag Bolt_155"},{"mesh":12,"translation":[1.5086088,2.4714262,-0.5207239],"rotation":[1.7227078E-15,1.7227078E-15,0.7071068,0.7071067],"name":"3/8\" Lag Bolt_156"},{"mesh":12,"translation":[1.5086088,2.4714262,-0.5668699],"rotation":[-0.5,-0.5,0.50000006,0.49999994],"name":"3/8\" Lag Bolt_157"},{"mesh":12,"translation":[1.5086088,2.4714262,-0.7631207],"rotation":[0.5,0.5,0.50000006,0.49999994],"scale":[1.0,0.99999994,0.99999994],"name":"3/8\" Lag Bolt_158"},{"mesh":12,"translation":[-0.19347104,1.3741462,-0.80926675],"rotation":[-0.7071068,-0.7071068,-2.6692543E-08,8.850979E-08],"name":"3/8\" Lag Bolt_159"},{"mesh":12,"translation":[-0.19347104,1.3741462,-0.5207239],"rotation":[-0.7071068,-0.7071068,-2.6692543E-08,8.850979E-08],"name":"3/8\" Lag Bolt_160"},{"mesh":12,"translation":[-0.19347104,1.3741462,-0.5512174],"rotation":[-0.7071068,-0.7071068,-2.6692543E-08,8.850979E-08],"name":"3/8\" Lag Bolt_161"},{"mesh":12,"translation":[-0.19347104,1.3741462,-0.77877325],"rotation":[-0.7071068,-0.7071068,-2.6692543E-08,8.850979E-08],"name":"3/8\" Lag Bolt_162"},{"mesh":12,"translation":[-0.090240136,1.3741462,-0.80926675],"rotation":[1.7227078E-15,1.7227078E-15,0.7071068,0.7071067],"name":"3/8\" Lag Bolt_163"},{"mesh":12,"translation":[-0.090240136,1.3741462,-0.5207239],"rotation":[1.7227078E-15,1.7227078E-15,0.7071068,0.7071067],"name":"3/8\" Lag Bolt_164"},{"mesh":12,"translation":[-0.090240136,1.3741462,-0.5668699],"rotation":[-0.5,-0.5,0.50000006,0.49999994],"name":"3/8\" Lag Bolt_165"},{"mesh":12,"translation":[-0.090240136,1.3741462,-0.7631207],"rotation":[0.5,0.5,0.50000006,0.49999994],"scale":[1.0,0.99999994,0.99999994],"name":"3/8\" Lag Bolt_166"},{"mesh":12,"translation":[0.0730034,1.5570261,-0.80926675],"rotation":[-0.7071068,-0.7071068,-2.6692543E-08,8.850979E-08],"name":"3/8\" Lag Bolt_167"},{"mesh":12,"translation":[0.0730034,1.5570261,-0.5207239],"rotation":[-0.7071068,-0.7071068,-2.6692543E-08,8.850979E-08],"name":"3/8\" Lag Bolt_168"},{"mesh":12,"translation":[0.0730034,1.5570261,-0.5512174],"rotation":[-0.7071068,-0.7071068,-2.6692543E-08,8.850979E-08],"name":"3/8\" Lag Bolt_169"},{"mesh":12,"translation":[0.0730034,1.5570261,-0.77877325],"rotation":[-0.7071068,-0.7071068,-2.6692543E-08,8.850979E-08],"name":"3/8\" Lag Bolt_170"},{"mesh":12,"translation":[0.1762343,1.5570261,-0.80926675],"rotation":[1.7227078E-15,1.7227078E-15,0.7071068,0.7071067],"name":"3/8\" Lag Bolt_171"},{"mesh":12,"translation":[0.1762343,1.5570261,-0.5207239],"rotation":[1.7227078E-15,1.7227078E-15,0.7071068,0.7071067],"name":"3/8\" Lag Bolt_172"},{"mesh":12,"translation":[0.1762343,1.5570261,-0.5668699],"rotation":[-0.5,-0.5,0.50000006,0.49999994],"name":"3/8\" Lag Bolt_173"},{"mesh":12,"translation":[0.1762343,1.5570261,-0.7631207],"rotation":[0.5,0.5,0.50000006,0.49999994],"scale":[1.0,0.99999994,0.99999994],"name":"3/8\" Lag Bolt_174"},{"mesh":12,"translation":[0.33947784,1.7399062,-0.80926675],"rotation":[-0.7071068,-0.7071068,-2.6692543E-08,8.850979E-08],"name":"3/8\" Lag Bolt_175"},{"mesh":12,"translation":[0.33947784,1.7399062,-0.5207239],"rotation":[-0.7071068,-0.7071068,-2.6692543E-08,8.850979E-08],"name":"3/8\" Lag Bolt_176"},{"mesh":12,"translation":[0.33947784,1.7399062,-0.5512174],"rotation":[-0.7071068,-0.7071068,-2.6692543E-08,8.850979E-08],"name":"3/8\" Lag Bolt_177"},{"mesh":12,"translation":[0.33947784,1.7399062,-0.77877325],"rotation":[-0.7071068,-0.7071068,-2.6692543E-08,8.850979E-08],"name":"3/8\" Lag Bolt_178"},{"mesh":12,"translation":[0.44270873,1.7399062,-0.80926675],"rotation":[1.7227078E-15,1.7227078E-15,0.7071068,0.7071067],"name":"3/8\" Lag Bolt_179"},{"mesh":12,"translation":[0.44270873,1.7399062,-0.5207239],"rotation":[1.7227078E-15,1.7227078E-15,0.7071068,0.7071067],"name":"3/8\" Lag Bolt_180"},{"mesh":12,"translation":[0.44270873,1.7399062,-0.5668699],"rotation":[-0.5,-0.5,0.50000006,0.49999994],"name":"3/8\" Lag Bolt_181"},{"mesh":12,"translation":[0.44270873,1.7399062,-0.7631207],"rotation":[0.5,0.5,0.50000006,0.49999994],"scale":[1.0,0.99999994,0.99999994],"name":"3/8\" Lag Bolt_182"},{"mesh":12,"translation":[0.65129834,0.45974618,0.6385333],"rotation":[-0.0,-0.0,0.7071068,0.7071067],"name":"3/8\" Lag Bolt_183"},{"mesh":12,"translation":[0.65129834,0.45974618,0.9270761],"rotation":[-0.0,-0.0,0.7071068,0.7071067],"name":"3/8\" Lag Bolt_184"},{"mesh":12,"translation":[0.65129834,0.45974618,0.8966036],"rotation":[-0.0,-0.0,0.7071068,0.7071067],"name":"3/8\" Lag Bolt_185"},{"mesh":12,"translation":[0.65129834,0.45974618,0.6690058],"rotation":[-0.0,-0.0,0.7071068,0.7071067],"name":"3/8\" Lag Bolt_186"},{"mesh":12,"translation":[0.5480093,0.45974618,0.6385333],"rotation":[-0.7071068,-0.7071068,-2.6692543E-08,8.850979E-08],"name":"3/8\" Lag Bolt_187"},{"mesh":12,"translation":[0.5480093,0.45974618,0.9270761],"rotation":[-0.7071068,-0.7071068,-2.6692543E-08,8.850979E-08],"name":"3/8\" Lag Bolt_188"},{"mesh":12,"translation":[0.5480093,0.45974618,0.8809301],"rotation":[-0.5,-0.5,0.50000006,0.49999994],"name":"3/8\" Lag Bolt_189"},{"mesh":12,"translation":[0.5480093,0.45974618,0.68467927],"rotation":[0.5,0.5,0.50000006,0.49999994],"scale":[1.0,0.99999994,0.99999994],"name":"3/8\" Lag Bolt_190"},{"mesh":12,"translation":[0.60595226,1.9227861,-0.80926675],"rotation":[-0.7071068,-0.7071068,-2.6692543E-08,8.850979E-08],"name":"3/8\" Lag Bolt_191"},{"mesh":12,"translation":[0.60595226,1.9227861,-0.5207239],"rotation":[-0.7071068,-0.7071068,-2.6692543E-08,8.850979E-08],"name":"3/8\" Lag Bolt_192"},{"mesh":12,"translation":[0.60595226,1.9227861,-0.5512174],"rotation":[-0.7071068,-0.7071068,-2.6692543E-08,8.850979E-08],"name":"3/8\" Lag Bolt_193"},{"mesh":12,"translation":[0.60595226,1.9227861,-0.77877325],"rotation":[-0.7071068,-0.7071068,-2.6692543E-08,8.850979E-08],"name":"3/8\" Lag Bolt_194"},{"mesh":12,"translation":[0.7091855,1.9227861,-0.80926675],"rotation":[1.7227078E-15,1.7227078E-15,0.7071068,0.7071067],"name":"3/8\" Lag Bolt_195"},{"mesh":12,"translation":[0.7091855,1.9227861,-0.5207239],"rotation":[1.7227078E-15,1.7227078E-15,0.7071068,0.7071067],"name":"3/8\" Lag Bolt_196"},{"mesh":12,"translation":[0.7091855,1.9227861,-0.5668699],"rotation":[-0.5,-0.5,0.50000006,0.49999994],"name":"3/8\" Lag Bolt_197"},{"mesh":12,"translation":[0.7091855,1.9227861,-0.7631207],"rotation":[0.5,0.5,0.50000006,0.49999994],"scale":[1.0,0.99999994,0.99999994],"name":"3/8\" Lag Bolt_198"},{"mesh":12,"translation":[0.872429,2.1056662,-0.80926675],"rotation":[-0.7071068,-0.7071068,-2.6692543E-08,8.850979E-08],"name":"3/8\" Lag Bolt_199"},{"mesh":12,"translation":[0.872429,2.1056662,-0.5207239],"rotation":[-0.7071068,-0.7071068,-2.6692543E-08,8.850979E-08],"name":"3/8\" Lag Bolt_200"},{"mesh":12,"translation":[0.872429,2.1056662,-0.5512174],"rotation":[-0.7071068,-0.7071068,-2.6692543E-08,8.850979E-08],"name":"3/8\" Lag Bolt_201"},{"mesh":12,"translation":[0.872429,2.1056662,-0.77877325],"rotation":[-0.7071068,-0.7071068,-2.6692543E-08,8.850979E-08],"name":"3/8\" Lag Bolt_202"},{"mesh":12,"translation":[0.9756599,2.1056662,-0.80926675],"rotation":[1.7227078E-15,1.7227078E-15,0.7071068,0.7071067],"name":"3/8\" Lag Bolt_203"},{"mesh":12,"translation":[0.9756599,2.1056662,-0.5207239],"rotation":[1.7227078E-15,1.7227078E-15,0.7071068,0.7071067],"name":"3/8\" Lag Bolt_204"},{"mesh":12,"translation":[0.9756599,2.1056662,-0.5668699],"rotation":[-0.5,-0.5,0.50000006,0.49999994],"name":"3/8\" Lag Bolt_205"},{"mesh":12,"translation":[0.9756599,2.1056662,-0.7631207],"rotation":[0.5,0.5,0.50000006,0.49999994],"scale":[1.0,0.99999994,0.99999994],"name":"3/8\" Lag Bolt_206"},{"mesh":12,"translation":[0.1189564,0.82550615,0.6385333],"rotation":[-0.0,-0.0,0.7071068,0.7071067],"name":"3/8\" Lag Bolt_207"},{"mesh":12,"translation":[0.1189564,0.82550615,0.9270761],"rotation":[-0.0,-0.0,0.7071068,0.7071067],"name":"3/8\" Lag Bolt_208"},{"mesh":12,"translation":[0.1189564,0.82550615,0.8966036],"rotation":[-0.0,-0.0,0.7071068,0.7071067],"name":"3/8\" Lag Bolt_209"},{"mesh":12,"translation":[0.1189564,0.82550615,0.6690058],"rotation":[-0.0,-0.0,0.7071068,0.7071067],"name":"3/8\" Lag Bolt_210"},{"mesh":12,"translation":[0.015667358,0.82550615,0.6385333],"rotation":[-0.7071068,-0.7071068,-2.6692543E-08,8.850979E-08],"name":"3/8\" Lag Bolt_211"},{"mesh":12,"translation":[0.015667358,0.82550615,0.9270761],"rotation":[-0.7071068,-0.7071068,-2.6692543E-08,8.850979E-08],"name":"3/8\" Lag Bolt_212"},{"mesh":12,"translation":[0.015667358,0.82550615,0.8809301],"rotation":[-0.5,-0.5,0.50000006,0.49999994],"name":"3/8\" Lag Bolt_213"},{"mesh":12,"translation":[0.015667358,0.82550615,0.68467927],"rotation":[0.5,0.5,0.50000006,0.49999994],"scale":[1.0,0.99999994,0.99999994],"name":"3/8\" Lag Bolt_214"},{"mesh":12,"translation":[0.3851262,0.64262617,0.6385333],"rotation":[-0.0,-0.0,0.7071068,0.7071067],"name":"3/8\" Lag Bolt_215"},{"mesh":12,"translation":[0.3851262,0.64262617,0.9270761],"rotation":[-0.0,-0.0,0.7071068,0.7071067],"name":"3/8\" Lag Bolt_216"},{"mesh":12,"translation":[0.3851262,0.64262617,0.8966036],"rotation":[-0.0,-0.0,0.7071068,0.7071067],"name":"3/8\" Lag Bolt_217"},{"mesh":12,"translation":[0.3851262,0.64262617,0.6690058],"rotation":[-0.0,-0.0,0.7071068,0.7071067],"name":"3/8\" Lag Bolt_218"},{"mesh":12,"translation":[0.2818395,0.64262617,0.6385333],"rotation":[-0.7071068,-0.7071068,-2.6692543E-08,8.850979E-08],"name":"3/8\" Lag Bolt_219"},{"mesh":12,"translation":[0.2818395,0.64262617,0.9270761],"rotation":[-0.7071068,-0.7071068,-2.6692543E-08,8.850979E-08],"name":"3/8\" Lag Bolt_220"},{"mesh":12,"translation":[0.2818395,0.64262617,0.8809301],"rotation":[-0.5,-0.5,0.50000006,0.49999994],"name":"3/8\" Lag Bolt_221"},{"mesh":12,"translation":[0.2818395,0.64262617,0.68467927],"rotation":[0.5,0.5,0.50000006,0.49999994],"scale":[1.0,0.99999994,0.99999994],"name":"3/8\" Lag Bolt_222"},{"mesh":12,"translation":[1.1389035,2.2885463,-0.80926675],"rotation":[-0.7071068,-0.7071068,-2.6692543E-08,8.850979E-08],"name":"3/8\" Lag Bolt_223"},{"mesh":12,"translation":[1.1389035,2.2885463,-0.5207239],"rotation":[-0.7071068,-0.7071068,-2.6692543E-08,8.850979E-08],"name":"3/8\" Lag Bolt_224"},{"mesh":12,"translation":[1.1389035,2.2885463,-0.5512174],"rotation":[-0.7071068,-0.7071068,-2.6692543E-08,8.850979E-08],"name":"3/8\" Lag Bolt_225"},{"mesh":12,"translation":[1.1389035,2.2885463,-0.77877325],"rotation":[-0.7071068,-0.7071068,-2.6692543E-08,8.850979E-08],"name":"3/8\" Lag Bolt_226"},{"mesh":12,"translation":[1.2421343,2.2885463,-0.80926675],"rotation":[1.7227078E-15,1.7227078E-15,0.7071068,0.7071067],"name":"3/8\" Lag Bolt_227"},{"mesh":12,"translation":[1.2421343,2.2885463,-0.5207239],"rotation":[1.7227078E-15,1.7227078E-15,0.7071068,0.7071067],"name":"3/8\" Lag Bolt_228"},{"mesh":12,"translation":[1.2421343,2.2885463,-0.5668699],"rotation":[-0.5,-0.5,0.50000006,0.49999994],"name":"3/8\" Lag Bolt_229"},{"mesh":12,"translation":[1.2421343,2.2885463,-0.7631207],"rotation":[0.5,0.5,0.50000006,0.49999994],"scale":[1.0,0.99999994,0.99999994],"name":"3/8\" Lag Bolt_230"},{"mesh":12,"translation":[-1.0272225,0.009525,0.18590508],"rotation":[-0.5,0.5,0.5,-0.5],"scale":[1.0,0.99999994,0.99999994],"name":"3/8\" Lag Bolt_231"},{"mesh":12,"translation":[-0.77322406,0.009525,0.18590508],"rotation":[-0.5,0.5,0.5,-0.5],"scale":[1.0,0.99999994,0.99999994],"name":"3/8\" Lag Bolt_232"},{"mesh":12,"translation":[-0.90022326,0.009525,0.18590508],"rotation":[-0.5,0.5,0.5,-0.5],"scale":[1.0,0.99999994,0.99999994],"name":"3/8\" Lag Bolt_233"},{"mesh":12,"translation":[-0.77322406,0.009525,0.058903527],"rotation":[-0.5,0.5,0.5,-0.5],"scale":[1.0,0.99999994,0.99999994],"name":"3/8\" Lag Bolt_234"},{"mesh":12,"translation":[-1.0272225,0.009525,0.058903527],"rotation":[-0.5,0.5,0.5,-0.5],"scale":[1.0,0.99999994,0.99999994],"name":"3/8\" Lag Bolt_235"},{"mesh":12,"translation":[-1.0272225,0.009525,-0.0680957],"rotation":[-0.5,0.5,0.5,-0.5],"scale":[1.0,0.99999994,0.99999994],"name":"3/8\" Lag Bolt_236"},{"mesh":12,"translation":[-0.90022326,0.009525,-0.0680957],"rotation":[-0.5,0.5,0.5,-0.5],"scale":[1.0,0.99999994,0.99999994],"name":"3/8\" Lag Bolt_237"},{"mesh":12,"translation":[-0.77322406,0.009525,-0.0680957],"rotation":[-0.5,0.5,0.5,-0.5],"scale":[1.0,0.99999994,0.99999994],"name":"3/8\" Lag Bolt_238"},{"mesh":13,"translation":[0.27907687,1.28016,-0.6649965],"rotation":[-0.0,0.7071068,0.0,0.7071067],"name":"Stair Stringer_Upper001"},{"mesh":14,"translation":[1.4286516,2.5095198,-0.6649965],"rotation":[-0.0,-0.7071068,0.0,0.7071067],"name":"Tread Block_039"},{"mesh":15,"translation":[1.43196,2.3956823,-0.6649965],"rotation":[0.2094599,-0.67537147,0.20945995,0.67537135],"name":"Tread Support_019"},{"mesh":15,"translation":[-0.16688894,1.2984023,-0.6649965],"rotation":[0.2094599,-0.67537147,0.20945995,0.67537135],"name":"Tread Support_013"},{"mesh":15,"translation":[0.099585496,1.4812822,-0.6649965],"rotation":[0.2094599,-0.67537147,0.20945995,0.67537135],"name":"Tread Support_014"},{"mesh":15,"translation":[0.36605993,1.6641624,-0.6649965],"rotation":[0.2094599,-0.67537147,0.20945995,0.67537135],"name":"Tread Support_015"},{"mesh":15,"translation":[0.6325344,1.8470423,-0.6649965],"rotation":[0.2094599,-0.67537147,0.20945995,0.67537135],"name":"Tread Support_016"},{"mesh":15,"translation":[0.89901114,2.0299222,-0.6649965],"rotation":[0.2094599,-0.67537147,0.20945995,0.67537135],"name":"Tread Support_017"},{"mesh":15,"translation":[1.1654855,2.2128024,-0.6649965],"rotation":[0.2094599,-0.67537147,0.20945995,0.67537135],"name":"Tread Support_018"},{"mesh":16,"translation":[-0.17019728,1.4122401,-0.6649965],"rotation":[-0.0,-0.7071068,0.0,0.7071067],"name":"Tread Block_033"},{"mesh":17,"translation":[1.6062285,2.4115884,-0.6649965],"rotation":[-0.0,-0.7071068,0.0,0.7071067],"name":"Header Plate001"},{"mesh":18,"translation":[0.8941804,0.31496003,0.78280354],"rotation":[-0.0,0.7071068,0.0,0.7071067],"name":"Tread Block_028"},{"mesh":19,"translation":[0.09627716,1.5951201,-0.6649965],"rotation":[-0.0,-0.7071068,0.0,0.7071067],"name":"Tread Block_034"},{"mesh":20,"translation":[0.3627516,1.7780001,-0.6649965],"rotation":[-0.0,-0.7071068,0.0,0.7071067],"name":"Tread Block_035"},{"mesh":21,"translation":[1.6062285,2.4115884,-0.6649965],"rotation":[-0.0,-0.7071068,0.0,0.7071067],"name":"Header Plate Cover001"},{"mesh":22,"translation":[0.6280106,0.49784002,0.78280354],"rotation":[-0.0,0.7071068,0.0,0.7071067],"name":"Tread Block_029"},{"mesh":23,"translation":[0.6292284,1.96088,-0.6649965],"rotation":[-0.0,-0.7071068,0.0,0.7071067],"name":"Tread Block_036"},{"mesh":24,"translation":[0.89570284,2.14376,-0.6649965],"rotation":[-0.0,-0.7071068,0.0,0.7071067],"name":"Tread Block_037"},{"mesh":25,"translation":[0.09566868,0.8636,0.78280354],"rotation":[-0.0,0.7071068,0.0,0.7071067],"name":"Tread Block_031"},{"mesh":26,"translation":[0.3618385,0.68072003,0.78280354],"rotation":[-0.0,0.7071068,0.0,0.7071067],"name":"Tread Block_030"},{"mesh":27,"translation":[1.1621772,2.3266401,-0.6649965],"rotation":[-0.0,-0.7071068,0.0,0.7071067],"name":"Tread Block_038"},{"mesh":28,"translation":[-0.90022326,0.009525,0.058903527],"rotation":[0.5,0.5,0.50000006,0.49999994],"scale":[1.0,0.99999994,0.99999994],"name":"Column Tube002"},{"mesh":29,"translation":[-0.90022326,1.0944098,-0.9756845],"rotation":[-0.0,-1.0,0.0,-4.371139E-08],"name":"Stringer End Cap_002"},{"mesh":29,"translation":[-0.90022326,1.0944098,1.087154],"rotation":[-0.0,-1.0,0.0,-4.371139E-08],"name":"Stringer End Cap_003"},{"mesh":30,"translation":[-0.90022326,3.0050787E-15,0.058903527],"rotation":[-0.0,-1.0,0.0,-4.371139E-08],"name":"Column Footer Plate001"},{"mesh":31,"translation":[-0.90022326,1.0102596,0.058903527],"rotation":[-0.0,0.7071068,0.0,0.7071067],"name":"Column to Stringer Plate001"},{"mesh":32,"translation":[1.3057438,2.4665384,-0.66499597],"name":"Tread LED_014"},{"mesh":32,"translation":[1.0392704,2.283659,-0.66499597],"name":"Tread LED_015"},{"mesh":32,"translation":[0.77279705,2.100779,-0.66499597],"name":"Tread LED_016"},{"mesh":32,"translation":[0.50632364,1.9178993,-0.66499597],"name":"Tread LED_017"},{"mesh":32,"translation":[0.2398502,1.7350194,-0.66499597],"name":"Tread LED_018"},{"mesh":32,"translation":[-0.02662323,1.5521396,-0.66499597],"name":"Tread LED_019"},{"mesh":32,"translation":[-0.29309666,1.3692597,-0.66499597],"name":"Tread LED_020"},{"mesh":32,"translation":[-0.32003158,1.1863785,0.7828386],"name":"Tread LED_021"},{"mesh":32,"translation":[-0.04740995,1.0034983,0.7828386],"name":"Tread LED_022"},{"mesh":32,"translation":[0.21875983,0.8206184,0.7828386],"name":"Tread LED_023"},{"mesh":32,"translation":[0.48492962,0.6377384,0.7828386],"name":"Tread LED_024"},{"mesh":32,"translation":[0.75109947,0.45485836,0.7828386],"name":"Tread LED_025"},{"mesh":32,"translation":[1.0172693,0.27197835,0.7828386],"name":"Tread LED_026"},{"mesh":32,"translation":[1.2834389,0.08909838,0.7828386],"name":"Tread LED_027"},{"translation":[1.3057438,2.4714208,-0.66499597],"rotation":[-0.70710677,-0.0,0.0,0.70710677],"name":"Tread LED_Light_042","extensions":{"KHR_lights_punctual":{"light":0}}},{"translation":[1.0392704,2.2885408,-0.66499597],"rotation":[-0.70710677,-0.0,0.0,0.70710677],"name":"Tread LED_Light_043","extensions":{"KHR_lights_punctual":{"light":1}}},{"translation":[0.77279705,2.105661,-0.66499597],"rotation":[-0.70710677,-0.0,0.0,0.70710677],"name":"Tread LED_Light_044","extensions":{"KHR_lights_punctual":{"light":2}}},{"translation":[0.50632364,1.9227812,-0.66499597],"rotation":[-0.70710677,-0.0,0.0,0.70710677],"name":"Tread LED_Light_045","extensions":{"KHR_lights_punctual":{"light":3}}},{"translation":[0.2398502,1.7399014,-0.66499597],"rotation":[-0.70710677,-0.0,0.0,0.70710677],"name":"Tread LED_Light_046","extensions":{"KHR_lights_punctual":{"light":4}}},{"translation":[-0.02662323,1.5570215,-0.66499597],"rotation":[-0.70710677,-0.0,0.0,0.70710677],"name":"Tread LED_Light_047","extensions":{"KHR_lights_punctual":{"light":5}}},{"translation":[-0.29309666,1.3741417,-0.66499597],"rotation":[-0.70710677,-0.0,0.0,0.70710677],"name":"Tread LED_Light_048","extensions":{"KHR_lights_punctual":{"light":6}}},{"translation":[-0.04740995,1.0083803,0.7827913],"rotation":[-0.70710677,-0.0,0.0,0.70710677],"name":"Tread LED_Light_049","extensions":{"KHR_lights_punctual":{"light":7}}},{"translation":[0.21875983,0.82550037,0.7827913],"rotation":[-0.70710677,-0.0,0.0,0.70710677],"name":"Tread LED_Light_050","extensions":{"KHR_lights_punctual":{"light":8}}},{"translation":[0.48492962,0.6426204,0.7827913],"rotation":[-0.70710677,-0.0,0.0,0.70710677],"name":"Tread LED_Light_051","extensions":{"KHR_lights_punctual":{"light":9}}},{"translation":[0.75109947,0.4597404,0.7827913],"rotation":[-0.70710677,-0.0,0.0,0.70710677],"name":"Tread LED_Light_052","extensions":{"KHR_lights_punctual":{"light":10}}},{"translation":[1.0172693,0.27686042,0.7827913],"rotation":[-0.70710677,-0.0,0.0,0.70710677],"name":"Tread LED_Light_053","extensions":{"KHR_lights_punctual":{"light":11}}},{"translation":[1.2834389,0.093980454,0.7827913],"rotation":[-0.70710677,-0.0,0.0,0.70710677],"name":"Tread LED_Light_054","extensions":{"KHR_lights_punctual":{"light":12}}},{"translation":[-0.32004297,1.1912603,0.7827913],"rotation":[-0.70710677,-0.0,0.0,0.70710677],"name":"Tread LED_Light_055","extensions":{"KHR_lights_punctual":{"light":13}}},{"translation":[-0.32004297,1.1912603,0.4779913],"rotation":[-0.70710677,-0.0,0.0,0.70710677],"name":"Tread LED_Light_056","extensions":{"KHR_lights_punctual":{"light":14}}},{"translation":[1.2834389,0.093980454,0.4779913],"rotation":[-0.70710677,-0.0,0.0,0.70710677],"name":"Tread LED_Light_057","extensions":{"KHR_lights_punctual":{"light":15}}},{"translation":[1.0172693,0.27686042,0.4779913],"rotation":[-0.70710677,-0.0,0.0,0.70710677],"name":"Tread LED_Light_058","extensions":{"KHR_lights_punctual":{"light":16}}},{"translation":[0.75109947,0.4597404,0.4779913],"rotation":[-0.70710677,-0.0,0.0,0.70710677],"name":"Tread LED_Light_059","extensions":{"KHR_lights_punctual":{"light":17}}},{"translation":[0.48492962,0.6426204,0.4779913],"rotation":[-0.70710677,-0.0,0.0,0.70710677],"name":"Tread LED_Light_060","extensions":{"KHR_lights_punctual":{"light":18}}},{"translation":[0.21875983,0.82550037,0.4779913],"rotation":[-0.70710677,-0.0,0.0,0.70710677],"name":"Tread LED_Light_061","extensions":{"KHR_lights_punctual":{"light":19}}},{"translation":[-0.04740995,1.0083803,0.4779913],"rotation":[-0.70710677,-0.0,0.0,0.70710677],"name":"Tread LED_Light_062","extensions":{"KHR_lights_punctual":{"light":20}}},{"translation":[-0.29309666,1.3741417,-0.969796],"rotation":[-0.70710677,-0.0,0.0,0.70710677],"name":"Tread LED_Light_063","extensions":{"KHR_lights_punctual":{"light":21}}},{"translation":[-0.02662323,1.5570215,-0.969796],"rotation":[-0.70710677,-0.0,0.0,0.70710677],"name":"Tread LED_Light_064","extensions":{"KHR_lights_punctual":{"light":22}}},{"translation":[0.2398502,1.7399014,-0.969796],"rotation":[-0.70710677,-0.0,0.0,0.70710677],"name":"Tread LED_Light_065","extensions":{"KHR_lights_punctual":{"light":23}}},{"translation":[0.50632364,1.9227812,-0.969796],"rotation":[-0.70710677,-0.0,0.0,0.70710677],"name":"Tread LED_Light_066","extensions":{"KHR_lights_punctual":{"light":24}}},{"translation":[0.77279705,2.105661,-0.969796],"rotation":[-0.70710677,-0.0,0.0,0.70710677],"name":"Tread LED_Light_067","extensions":{"KHR_lights_punctual":{"light":25}}},{"translation":[1.0392704,2.2885408,-0.969796],"rotation":[-0.70710677,-0.0,0.0,0.70710677],"name":"Tread LED_Light_068","extensions":{"KHR_lights_punctual":{"light":26}}},{"translation":[1.3057438,2.4714208,-0.969796],"rotation":[-0.70710677,-0.0,0.0,0.70710677],"name":"Tread LED_Light_069","extensions":{"KHR_lights_punctual":{"light":27}}},{"translation":[-0.32004297,1.1912603,1.0875913],"rotation":[-0.70710677,-0.0,0.0,0.70710677],"name":"Tread LED_Light_070","extensions":{"KHR_lights_punctual":{"light":28}}},{"translation":[1.2834389,0.093980454,1.0875913],"rotation":[-0.70710677,-0.0,0.0,0.70710677],"name":"Tread LED_Light_071","extensions":{"KHR_lights_punctual":{"light":29}}},{"translation":[1.0172693,0.27686042,1.0875913],"rotation":[-0.70710677,-0.0,0.0,0.70710677],"name":"Tread LED_Light_072","extensions":{"KHR_lights_punctual":{"light":30}}},{"translation":[0.75109947,0.4597404,1.0875913],"rotation":[-0.70710677,-0.0,0.0,0.70710677],"name":"Tread LED_Light_073","extensions":{"KHR_lights_punctual":{"light":31}}},{"translation":[0.48492962,0.6426204,1.0875913],"rotation":[-0.70710677,-0.0,0.0,0.70710677],"name":"Tread LED_Light_074","extensions":{"KHR_lights_punctual":{"light":32}}},{"translation":[0.21875983,0.82550037,1.0875913],"rotation":[-0.70710677,-0.0,0.0,0.70710677],"name":"Tread LED_Light_075","extensions":{"KHR_lights_punctual":{"light":33}}},{"translation":[-0.04740995,1.0083803,1.0875913],"rotation":[-0.70710677,-0.0,0.0,0.70710677],"name":"Tread LED_Light_076","extensions":{"KHR_lights_punctual":{"light":34}}},{"translation":[-0.29309666,1.3741417,-0.36019596],"rotation":[-0.70710677,-0.0,0.0,0.70710677],"name":"Tread LED_Light_077","extensions":{"KHR_lights_punctual":{"light":35}}},{"translation":[-0.02662323,1.5570215,-0.36019596],"rotation":[-0.70710677,-0.0,0.0,0.70710677],"name":"Tread LED_Light_078","extensions":{"KHR_lights_punctual":{"light":36}}},{"translation":[0.2398502,1.7399014,-0.36019596],"rotation":[-0.70710677,-0.0,0.0,0.70710677],"name":"Tread LED_Light_079","extensions":{"KHR_lights_punctual":{"light":37}}},{"translation":[0.50632364,1.9227812,-0.36019596],"rotation":[-0.70710677,-0.0,0.0,0.70710677],"name":"Tread LED_Light_080","extensions":{"KHR_lights_punctual":{"light":38}}},{"translation":[0.77279705,2.105661,-0.36019596],"rotation":[-0.70710677,-0.0,0.0,0.70710677],"name":"Tread LED_Light_081","extensions":{"KHR_lights_punctual":{"light":39}}},{"translation":[1.0392704,2.2885408,-0.36019596],"rotation":[-0.70710677,-0.0,0.0,0.70710677],"name":"Tread LED_Light_082","extensions":{"KHR_lights_punctual":{"light":40}}},{"translation":[1.3057438,2.4714208,-0.36019596],"rotation":[-0.70710677,-0.0,0.0,0.70710677],"name":"Tread LED_Light_083","extensions":{"KHR_lights_punctual":{"light":41}}}],"meshes":[{"primitives":[{"attributes":{"POSITION":1,"TANGENT":2,"NORMAL":3,"TEXCOORD_0":4},"indices":0,"material":0}],"name":"Floor Nosing001"},{"primitives":[{"attributes":{"POSITION":6,"TANGENT":7,"NORMAL":8,"TEXCOORD_0":9},"indices":5,"material":0}],"name":"Landing_Boss"},{"primitives":[{"attributes":{"POSITION":11,"TANGENT":12,"NORMAL":13,"TEXCOORD_0":14},"indices":10,"material":1}],"name":"Landing Stringer001"},{"primitives":[{"attributes":{"POSITION":16,"TANGENT":17,"NORMAL":18,"TEXCOORD_0":19},"indices":15,"material":1}],"name":"Landing Attachment_011"},{"primitives":[{"attributes":{"POSITION":21,"TANGENT":22,"NORMAL":23,"TEXCOORD_0":24},"indices":20,"material":1}],"name":"1/2\" Lag Bolt_040"},{"primitives":[{"attributes":{"POSITION":26,"TANGENT":27,"NORMAL":28,"TEXCOORD_0":29},"indices":25,"material":1}],"name":"Stringer Attachment_002"},{"primitives":[{"attributes":{"POSITION":31,"TANGENT":32,"NORMAL":33,"TEXCOORD_0":34},"indices":30,"material":2}],"name":"3/8\" FHSCS_044"},{"primitives":[{"attributes":{"POSITION":36,"TANGENT":37,"NORMAL":38,"TEXCOORD_0":39},"indices":35,"material":1}],"name":"Stair Stringer_Lower001"},{"primitives":[{"attributes":{"POSITION":41,"TANGENT":42,"NORMAL":43,"TEXCOORD_0":44},"indices":40,"material":0}],"name":"Tread Block_032"},{"primitives":[{"attributes":{"POSITION":46,"TANGENT":47,"NORMAL":48,"TEXCOORD_0":49},"indices":45,"material":1}],"name":"Tread Support_020"},{"primitives":[{"attributes":{"POSITION":51,"TANGENT":52,"NORMAL":53,"TEXCOORD_0":54},"indices":50,"material":0}],"name":"Tread Block_027"},{"primitives":[{"attributes":{"POSITION":56,"TANGENT":57,"NORMAL":58,"TEXCOORD_0":59},"indices":55,"material":1}],"name":"Footer Plate001"},{"primitives":[{"attributes":{"POSITION":61,"TANGENT":62,"NORMAL":63,"TEXCOORD_0":64},"indices":60,"material":1}],"name":"3/8\" Lag Bolt_120"},{"primitives":[{"attributes":{"POSITION":66,"TANGENT":67,"NORMAL":68,"TEXCOORD_0":69},"indices":65,"material":1}],"name":"Stair Stringer_Upper001"},{"primitives":[{"attributes":{"POSITION":71,"TANGENT":72,"NORMAL":73,"TEXCOORD_0":74},"indices":70,"material":0}],"name":"Tread Block_039"},{"primitives":[{"attributes":{"POSITION":76,"TANGENT":77,"NORMAL":78,"TEXCOORD_0":79},"indices":75,"material":1}],"name":"Tread Support_019"},{"primitives":[{"attributes":{"POSITION":81,"TANGENT":82,"NORMAL":83,"TEXCOORD_0":84},"indices":80,"material":0}],"name":"Tread Block_033"},{"primitives":[{"attributes":{"POSITION":86,"TANGENT":87,"NORMAL":88,"TEXCOORD_0":89},"indices":85,"material":1}],"name":"Header Plate001"},{"primitives":[{"attributes":{"POSITION":91,"TANGENT":92,"NORMAL":93,"TEXCOORD_0":94},"indices":90,"material":0}],"name":"Tread Block_028"},{"primitives":[{"attributes":{"POSITION":96,"TANGENT":97,"NORMAL":98,"TEXCOORD_0":99},"indices":95,"material":0}],"name":"Tread Block_034"},{"primitives":[{"attributes":{"POSITION":101,"TANGENT":102,"NORMAL":103,"TEXCOORD_0":104},"indices":100,"material":0}],"name":"Tread Block_035"},{"primitives":[{"attributes":{"POSITION":106,"TANGENT":107,"NORMAL":108,"TEXCOORD_0":109},"indices":105,"material":1}],"name":"Header Plate Cover001"},{"primitives":[{"attributes":{"POSITION":111,"TANGENT":112,"NORMAL":113,"TEXCOORD_0":114},"indices":110,"material":0}],"name":"Tread Block_029"},{"primitives":[{"attributes":{"POSITION":116,"TANGENT":117,"NORMAL":118,"TEXCOORD_0":119},"indices":115,"material":0}],"name":"Tread Block_036"},{"primitives":[{"attributes":{"POSITION":121,"TANGENT":122,"NORMAL":123,"TEXCOORD_0":124},"indices":120,"material":0}],"name":"Tread Block_037"},{"primitives":[{"attributes":{"POSITION":126,"TANGENT":127,"NORMAL":128,"TEXCOORD_0":129},"indices":125,"material":0}],"name":"Tread Block_031"},{"primitives":[{"attributes":{"POSITION":131,"TANGENT":132,"NORMAL":133,"TEXCOORD_0":134},"indices":130,"material":0}],"name":"Tread Block_030"},{"primitives":[{"attributes":{"POSITION":136,"TANGENT":137,"NORMAL":138,"TEXCOORD_0":139},"indices":135,"material":0}],"name":"Tread Block_038"},{"primitives":[{"attributes":{"POSITION":141,"TANGENT":142,"NORMAL":143,"TEXCOORD_0":144},"indices":140,"material":1}],"name":"Column Tube002"},{"primitives":[{"attributes":{"POSITION":146,"TANGENT":147,"NORMAL":148,"TEXCOORD_0":149},"indices":145,"material":1}],"name":"Stringer End Cap_002"},{"primitives":[{"attributes":{"POSITION":151,"TANGENT":152,"NORMAL":153,"TEXCOORD_0":154},"indices":150,"material":1}],"name":"Column Footer Plate001"},{"primitives":[{"attributes":{"POSITION":156,"TANGENT":157,"NORMAL":158,"TEXCOORD_0":159},"indices":155,"material":1}],"name":"Column to Stringer Plate001"},{"primitives":[{"attributes":{"POSITION":161,"NORMAL":162},"indices":160,"material":3}],"name":"Tread LED_014"}],"accessors":[{"bufferView":0,"componentType":5123,"count":1764,"type":"SCALAR","name":"accessorIndices"},{"bufferView":1,"componentType":5126,"count":384,"max":[0.6096,1.4630401,1.32715],"min":[-0.6096,1.41224,1.27],"type":"VEC3","name":"accessorPositions"},{"bufferView":2,"componentType":5126,"count":384,"type":"VEC4","name":"accessorTangents"},{"bufferView":1,"byteOffset":4608,"componentType":5126,"count":384,"type":"VEC3","name":"accessorNormals"},{"bufferView":3,"componentType":5126,"count":384,"type":"VEC2","name":"accessorUVs"},{"bufferView":0,"byteOffset":3528,"componentType":5123,"count":1764,"type":"SCALAR","name":"accessorIndices"},{"bufferView":1,"byteOffset":9216,"componentType":5126,"count":408,"max":[2.667,-1.8611779E-15,1.2192],"min":[6.4972026E-15,-0.101600006,-8.39222E-15],"type":"VEC3","name":"accessorPositions"},{"bufferView":2,"byteOffset":6144,"componentType":5126,"count":408,"type":"VEC4","name":"accessorTangents"},{"bufferView":1,"byteOffset":14112,"componentType":5126,"count":408,"type":"VEC3","name":"accessorNormals"},{"bufferView":3,"byteOffset":3072,"componentType":5126,"count":408,"type":"VEC2","name":"accessorUVs"},{"bufferView":0,"byteOffset":7056,"componentType":5123,"count":228,"type":"SCALAR","name":"accessorIndices"},{"bufferView":1,"byteOffset":19008,"componentType":5126,"count":104,"max":[1.027133,0.07619999,0.0762],"min":[-1.027133,-0.07620005,-0.0762],"type":"VEC3","name":"accessorPositions"},{"bufferView":2,"byteOffset":12672,"componentType":5126,"count":104,"type":"VEC4","name":"accessorTangents"},{"bufferView":1,"byteOffset":20256,"componentType":5126,"count":104,"type":"VEC3","name":"accessorNormals"},{"bufferView":3,"byteOffset":6336,"componentType":5126,"count":104,"type":"VEC2","name":"accessorUVs"},{"bufferView":0,"byteOffset":7512,"componentType":5123,"count":36,"type":"SCALAR","name":"accessorIndices"},{"bufferView":1,"byteOffset":21504,"componentType":5126,"count":24,"max":[0.1524,0.0079502,0.0762],"min":[-0.1524,-2.4068498E-15,-0.0762],"type":"VEC3","name":"accessorPositions"},{"bufferView":2,"byteOffset":14336,"componentType":5126,"count":24,"type":"VEC4","name":"accessorTangents"},{"bufferView":1,"byteOffset":21792,"componentType":5126,"count":24,"type":"VEC3","name":"accessorNormals"},{"bufferView":3,"byteOffset":7168,"componentType":5126,"count":24,"type":"VEC2","name":"accessorUVs"},{"bufferView":0,"byteOffset":7584,"componentType":5123,"count":60,"type":"SCALAR","name":"accessorIndices"},{"bufferView":1,"byteOffset":22080,"componentType":5126,"count":36,"max":[6.2941655E-15,0.012978258,0.011177512],"min":[-0.010795,-0.012978258,-0.0112395],"type":"VEC3","name":"accessorPositions"},{"bufferView":2,"byteOffset":14720,"componentType":5126,"count":36,"type":"VEC4","name":"accessorTangents"},{"bufferView":1,"byteOffset":22512,"componentType":5126,"count":36,"type":"VEC3","name":"accessorNormals"},{"bufferView":3,"byteOffset":7360,"componentType":5126,"count":36,"type":"VEC2","name":"accessorUVs"},{"bufferView":0,"byteOffset":7704,"componentType":5123,"count":660,"type":"SCALAR","name":"accessorIndices"},{"bufferView":1,"byteOffset":22944,"componentType":5126,"count":312,"max":[0.127,0.0762,0.006508755],"min":[-0.127,-0.0762,-0.00015875156],"type":"VEC3","name":"accessorPositions"},{"bufferView":2,"byteOffset":15296,"componentType":5126,"count":312,"type":"VEC4","name":"accessorTangents"},{"bufferView":1,"byteOffset":26688,"componentType":5126,"count":312,"type":"VEC3","name":"accessorNormals"},{"bufferView":3,"byteOffset":7648,"componentType":5126,"count":312,"type":"VEC2","name":"accessorUVs"},{"bufferView":0,"byteOffset":9024,"componentType":5123,"count":180,"type":"SCALAR","name":"accessorIndices"},{"bufferView":1,"byteOffset":30432,"componentType":5126,"count":76,"max":[0.004723497,0.009498697,0.009498697],"min":[1.8683688E-14,-0.009498697,-0.009498697],"type":"VEC3","name":"accessorPositions"},{"bufferView":2,"byteOffset":20288,"componentType":5126,"count":76,"type":"VEC4","name":"accessorTangents"},{"bufferView":1,"byteOffset":31344,"componentType":5126,"count":76,"type":"VEC3","name":"accessorNormals"},{"bufferView":3,"byteOffset":10144,"componentType":5126,"count":76,"type":"VEC2","name":"accessorUVs"},{"bufferView":0,"byteOffset":9384,"componentType":5123,"count":684,"type":"SCALAR","name":"accessorIndices"},{"bufferView":1,"byteOffset":32256,"componentType":5126,"count":212,"max":[0.0762,1.1706098,0.1855703],"min":[-0.0762,0.012700001,-1.7970501],"type":"VEC3","name":"accessorPositions"},{"bufferView":2,"byteOffset":21504,"componentType":5126,"count":212,"type":"VEC4","name":"accessorTangents"},{"bufferView":1,"byteOffset":34800,"componentType":5126,"count":212,"type":"VEC3","name":"accessorNormals"},{"bufferView":3,"byteOffset":10752,"componentType":5126,"count":212,"type":"VEC2","name":"accessorUVs"},{"bufferView":0,"byteOffset":10752,"componentType":5123,"count":2670,"type":"SCALAR","name":"accessorIndices"},{"bufferView":1,"byteOffset":37344,"componentType":5126,"count":724,"max":[0.6096003,0.050800525,0.15239981],"min":[-0.60959977,-0.050801016,-0.1524004],"type":"VEC3","name":"accessorPositions"},{"bufferView":2,"byteOffset":24896,"componentType":5126,"count":724,"type":"VEC4","name":"accessorTangents"},{"bufferView":1,"byteOffset":46032,"componentType":5126,"count":724,"type":"VEC3","name":"accessorNormals"},{"bufferView":3,"byteOffset":12448,"componentType":5126,"count":724,"type":"VEC2","name":"accessorUVs"},{"bufferView":0,"byteOffset":16092,"componentType":5123,"count":138,"type":"SCALAR","name":"accessorIndices"},{"bufferView":1,"byteOffset":54720,"componentType":5126,"count":85,"max":[0.169672,0.097199045,0.13059595],"min":[-0.169672,-5.295887E-09,-0.0063500004],"type":"VEC3","name":"accessorPositions"},{"bufferView":2,"byteOffset":36480,"componentType":5126,"count":85,"type":"VEC4","name":"accessorTangents"},{"bufferView":1,"byteOffset":55740,"componentType":5126,"count":85,"type":"VEC3","name":"accessorNormals"},{"bufferView":3,"byteOffset":18240,"componentType":5126,"count":85,"type":"VEC2","name":"accessorUVs"},{"bufferView":0,"byteOffset":16368,"componentType":5123,"count":2670,"type":"SCALAR","name":"accessorIndices"},{"bufferView":1,"byteOffset":56760,"componentType":5126,"count":724,"max":[0.6096003,0.050800525,0.15239981],"min":[-0.60959977,-0.050801016,-0.1524004],"type":"VEC3","name":"accessorPositions"},{"bufferView":2,"byteOffset":37840,"componentType":5126,"count":724,"type":"VEC4","name":"accessorTangents"},{"bufferView":1,"byteOffset":65448,"componentType":5126,"count":724,"type":"VEC3","name":"accessorNormals"},{"bufferView":3,"byteOffset":18920,"componentType":5126,"count":724,"type":"VEC2","name":"accessorUVs"},{"bufferView":0,"byteOffset":21708,"componentType":5123,"count":36,"type":"SCALAR","name":"accessorIndices"},{"bufferView":1,"byteOffset":74136,"componentType":5126,"count":24,"max":[0.1524,0.012700001,0.1387602],"min":[-0.1524,-1.8678233E-15,-0.2041398],"type":"VEC3","name":"accessorPositions"},{"bufferView":2,"byteOffset":49424,"componentType":5126,"count":24,"type":"VEC4","name":"accessorTangents"},{"bufferView":1,"byteOffset":74424,"componentType":5126,"count":24,"type":"VEC3","name":"accessorNormals"},{"bufferView":3,"byteOffset":24712,"componentType":5126,"count":24,"type":"VEC2","name":"accessorUVs"},{"bufferView":0,"byteOffset":21780,"componentType":5123,"count":138,"type":"SCALAR","name":"accessorIndices"},{"bufferView":1,"byteOffset":74712,"componentType":5126,"count":60,"max":[6.47623E-15,0.0082677,0.007160038],"min":[-0.008559801,-0.0082677,-0.007160038],"type":"VEC3","name":"accessorPositions"},{"bufferView":2,"byteOffset":49808,"componentType":5126,"count":60,"type":"VEC4","name":"accessorTangents"},{"bufferView":1,"byteOffset":75432,"componentType":5126,"count":60,"type":"VEC3","name":"accessorNormals"},{"bufferView":3,"byteOffset":24904,"componentType":5126,"count":60,"type":"VEC2","name":"accessorUVs"},{"bufferView":0,"byteOffset":22056,"componentType":5123,"count":684,"type":"SCALAR","name":"accessorIndices"},{"bufferView":1,"byteOffset":76152,"componentType":5126,"count":212,"max":[0.0762,1.2307625,1.3208001],"min":[-0.0762,-0.2619502,-1.0967493],"type":"VEC3","name":"accessorPositions"},{"bufferView":2,"byteOffset":50768,"componentType":5126,"count":212,"type":"VEC4","name":"accessorTangents"},{"bufferView":1,"byteOffset":78696,"componentType":5126,"count":212,"type":"VEC3","name":"accessorNormals"},{"bufferView":3,"byteOffset":25384,"componentType":5126,"count":212,"type":"VEC2","name":"accessorUVs"},{"bufferView":0,"byteOffset":23424,"componentType":5123,"count":2670,"type":"SCALAR","name":"accessorIndices"},{"bufferView":1,"byteOffset":81240,"componentType":5126,"count":724,"max":[0.6096003,0.050800525,0.15239981],"min":[-0.60959977,-0.050801016,-0.1524004],"type":"VEC3","name":"accessorPositions"},{"bufferView":2,"byteOffset":54160,"componentType":5126,"count":724,"type":"VEC4","name":"accessorTangents"},{"bufferView":1,"byteOffset":89928,"componentType":5126,"count":724,"type":"VEC3","name":"accessorNormals"},{"bufferView":3,"byteOffset":27080,"componentType":5126,"count":724,"type":"VEC2","name":"accessorUVs"},{"bufferView":0,"byteOffset":28764,"componentType":5123,"count":156,"type":"SCALAR","name":"accessorIndices"},{"bufferView":1,"byteOffset":98616,"componentType":5126,"count":92,"max":[0.1696718,0.09710105,0.006349899],"min":[-0.1696718,0.0,-0.13059309],"type":"VEC3","name":"accessorPositions"},{"bufferView":2,"byteOffset":65744,"componentType":5126,"count":92,"type":"VEC4","name":"accessorTangents"},{"bufferView":1,"byteOffset":99720,"componentType":5126,"count":92,"type":"VEC3","name":"accessorNormals"},{"bufferView":3,"byteOffset":32872,"componentType":5126,"count":92,"type":"VEC2","name":"accessorUVs"},{"bufferView":0,"byteOffset":29076,"componentType":5123,"count":2670,"type":"SCALAR","name":"accessorIndices"},{"bufferView":1,"byteOffset":100824,"componentType":5126,"count":724,"max":[0.6096003,0.050800525,0.15239981],"min":[-0.60959977,-0.050801016,-0.1524004],"type":"VEC3","name":"accessorPositions"},{"bufferView":2,"byteOffset":67216,"componentType":5126,"count":724,"type":"VEC4","name":"accessorTangents"},{"bufferView":1,"byteOffset":109512,"componentType":5126,"count":724,"type":"VEC3","name":"accessorNormals"},{"bufferView":3,"byteOffset":33608,"componentType":5126,"count":724,"type":"VEC2","name":"accessorUVs"},{"bufferView":0,"byteOffset":34416,"componentType":5123,"count":1860,"type":"SCALAR","name":"accessorIndices"},{"bufferView":1,"byteOffset":118200,"componentType":5126,"count":660,"max":[0.16510001,0.2205445,0.0063500004],"min":[-0.16510001,-0.09695551,-0.0],"type":"VEC3","name":"accessorPositions"},{"bufferView":2,"byteOffset":78800,"componentType":5126,"count":660,"type":"VEC4","name":"accessorTangents"},{"bufferView":1,"byteOffset":126120,"componentType":5126,"count":660,"type":"VEC3","name":"accessorNormals"},{"bufferView":3,"byteOffset":39400,"componentType":5126,"count":660,"type":"VEC2","name":"accessorUVs"},{"bufferView":0,"byteOffset":38136,"componentType":5123,"count":2670,"type":"SCALAR","name":"accessorIndices"},{"bufferView":1,"byteOffset":134040,"componentType":5126,"count":724,"max":[0.6096003,0.050800525,0.15239981],"min":[-0.60959977,-0.050801016,-0.1524004],"type":"VEC3","name":"accessorPositions"},{"bufferView":2,"byteOffset":89360,"componentType":5126,"count":724,"type":"VEC4","name":"accessorTangents"},{"bufferView":1,"byteOffset":142728,"componentType":5126,"count":724,"type":"VEC3","name":"accessorNormals"},{"bufferView":3,"byteOffset":44680,"componentType":5126,"count":724,"type":"VEC2","name":"accessorUVs"},{"bufferView":0,"byteOffset":43476,"componentType":5123,"count":2670,"type":"SCALAR","name":"accessorIndices"},{"bufferView":1,"byteOffset":151416,"componentType":5126,"count":724,"max":[0.6096003,0.050800525,0.15239981],"min":[-0.60959977,-0.050801016,-0.1524004],"type":"VEC3","name":"accessorPositions"},{"bufferView":2,"byteOffset":100944,"componentType":5126,"count":724,"type":"VEC4","name":"accessorTangents"},{"bufferView":1,"byteOffset":160104,"componentType":5126,"count":724,"type":"VEC3","name":"accessorNormals"},{"bufferView":3,"byteOffset":50472,"componentType":5126,"count":724,"type":"VEC2","name":"accessorUVs"},{"bufferView":0,"byteOffset":48816,"componentType":5123,"count":2670,"type":"SCALAR","name":"accessorIndices"},{"bufferView":1,"byteOffset":168792,"componentType":5126,"count":724,"max":[0.6096003,0.050800525,0.15239981],"min":[-0.60959977,-0.050801016,-0.1524004],"type":"VEC3","name":"accessorPositions"},{"bufferView":2,"byteOffset":112528,"componentType":5126,"count":724,"type":"VEC4","name":"accessorTangents"},{"bufferView":1,"byteOffset":177480,"componentType":5126,"count":724,"type":"VEC3","name":"accessorNormals"},{"bufferView":3,"byteOffset":56264,"componentType":5126,"count":724,"type":"VEC2","name":"accessorUVs"},{"bufferView":0,"byteOffset":54156,"componentType":5123,"count":84,"type":"SCALAR","name":"accessorIndices"},{"bufferView":1,"byteOffset":186168,"componentType":5126,"count":48,"max":[0.1692656,0.2247101,0.026339801],"min":[-0.1692656,0.010105494,8.569285E-15],"type":"VEC3","name":"accessorPositions"},{"bufferView":2,"byteOffset":124112,"componentType":5126,"count":48,"type":"VEC4","name":"accessorTangents"},{"bufferView":1,"byteOffset":186744,"componentType":5126,"count":48,"type":"VEC3","name":"accessorNormals"},{"bufferView":3,"byteOffset":62056,"componentType":5126,"count":48,"type":"VEC2","name":"accessorUVs"},{"bufferView":0,"byteOffset":54324,"componentType":5123,"count":2670,"type":"SCALAR","name":"accessorIndices"},{"bufferView":1,"byteOffset":187320,"componentType":5126,"count":724,"max":[0.6096003,0.050800525,0.15239981],"min":[-0.60959977,-0.050801016,-0.1524004],"type":"VEC3","name":"accessorPositions"},{"bufferView":2,"byteOffset":124880,"componentType":5126,"count":724,"type":"VEC4","name":"accessorTangents"},{"bufferView":1,"byteOffset":196008,"componentType":5126,"count":724,"type":"VEC3","name":"accessorNormals"},{"bufferView":3,"byteOffset":62440,"componentType":5126,"count":724,"type":"VEC2","name":"accessorUVs"},{"bufferView":0,"byteOffset":59664,"componentType":5123,"count":2670,"type":"SCALAR","name":"accessorIndices"},{"bufferView":1,"byteOffset":204696,"componentType":5126,"count":724,"max":[0.6096003,0.050800525,0.15239981],"min":[-0.60959977,-0.050801016,-0.1524004],"type":"VEC3","name":"accessorPositions"},{"bufferView":2,"byteOffset":136464,"componentType":5126,"count":724,"type":"VEC4","name":"accessorTangents"},{"bufferView":1,"byteOffset":213384,"componentType":5126,"count":724,"type":"VEC3","name":"accessorNormals"},{"bufferView":3,"byteOffset":68232,"componentType":5126,"count":724,"type":"VEC2","name":"accessorUVs"},{"bufferView":0,"byteOffset":65004,"componentType":5123,"count":2670,"type":"SCALAR","name":"accessorIndices"},{"bufferView":1,"byteOffset":222072,"componentType":5126,"count":724,"max":[0.6096003,0.050800525,0.15239981],"min":[-0.60959977,-0.050801016,-0.1524004],"type":"VEC3","name":"accessorPositions"},{"bufferView":2,"byteOffset":148048,"componentType":5126,"count":724,"type":"VEC4","name":"accessorTangents"},{"bufferView":1,"byteOffset":230760,"componentType":5126,"count":724,"type":"VEC3","name":"accessorNormals"},{"bufferView":3,"byteOffset":74024,"componentType":5126,"count":724,"type":"VEC2","name":"accessorUVs"},{"bufferView":0,"byteOffset":70344,"componentType":5123,"count":2670,"type":"SCALAR","name":"accessorIndices"},{"bufferView":1,"byteOffset":239448,"componentType":5126,"count":724,"max":[0.6096003,0.050800525,0.15239981],"min":[-0.60959977,-0.050801016,-0.1524004],"type":"VEC3","name":"accessorPositions"},{"bufferView":2,"byteOffset":159632,"componentType":5126,"count":724,"type":"VEC4","name":"accessorTangents"},{"bufferView":1,"byteOffset":248136,"componentType":5126,"count":724,"type":"VEC3","name":"accessorNormals"},{"bufferView":3,"byteOffset":79816,"componentType":5126,"count":724,"type":"VEC2","name":"accessorUVs"},{"bufferView":0,"byteOffset":75684,"componentType":5123,"count":2670,"type":"SCALAR","name":"accessorIndices"},{"bufferView":1,"byteOffset":256824,"componentType":5126,"count":724,"max":[0.6096003,0.050800525,0.15239981],"min":[-0.60959977,-0.050801016,-0.1524004],"type":"VEC3","name":"accessorPositions"},{"bufferView":2,"byteOffset":171216,"componentType":5126,"count":724,"type":"VEC4","name":"accessorTangents"},{"bufferView":1,"byteOffset":265512,"componentType":5126,"count":724,"type":"VEC3","name":"accessorNormals"},{"bufferView":3,"byteOffset":85608,"componentType":5126,"count":724,"type":"VEC2","name":"accessorUVs"},{"bufferView":0,"byteOffset":81024,"componentType":5123,"count":2670,"type":"SCALAR","name":"accessorIndices"},{"bufferView":1,"byteOffset":274200,"componentType":5126,"count":724,"max":[0.6096003,0.050800525,0.15239981],"min":[-0.60959977,-0.050801016,-0.1524004],"type":"VEC3","name":"accessorPositions"},{"bufferView":2,"byteOffset":182800,"componentType":5126,"count":724,"type":"VEC4","name":"accessorTangents"},{"bufferView":1,"byteOffset":282888,"componentType":5126,"count":724,"type":"VEC3","name":"accessorNormals"},{"bufferView":3,"byteOffset":91400,"componentType":5126,"count":724,"type":"VEC2","name":"accessorUVs"},{"bufferView":0,"byteOffset":86364,"componentType":5123,"count":228,"type":"SCALAR","name":"accessorIndices"},{"bufferView":1,"byteOffset":291576,"componentType":5126,"count":104,"max":[1.0007347,0.0762,0.0762],"min":[6.2941655E-15,-0.0762,-0.0762],"type":"VEC3","name":"accessorPositions"},{"bufferView":2,"byteOffset":194384,"componentType":5126,"count":104,"type":"VEC4","name":"accessorTangents"},{"bufferView":1,"byteOffset":292824,"componentType":5126,"count":104,"type":"VEC3","name":"accessorNormals"},{"bufferView":3,"byteOffset":97192,"componentType":5126,"count":104,"type":"VEC2","name":"accessorUVs"},{"bufferView":0,"byteOffset":86820,"componentType":5123,"count":228,"type":"SCALAR","name":"accessorIndices"},{"bufferView":1,"byteOffset":294072,"componentType":5126,"count":104,"max":[0.0762,0.0762,-7.375853E-15],"min":[-0.0762,-0.0762,-0.0063500004],"type":"VEC3","name":"accessorPositions"},{"bufferView":2,"byteOffset":196048,"componentType":5126,"count":104,"type":"VEC4","name":"accessorTangents"},{"bufferView":1,"byteOffset":295320,"componentType":5126,"count":104,"type":"VEC3","name":"accessorNormals"},{"bufferView":3,"byteOffset":98024,"componentType":5126,"count":104,"type":"VEC2","name":"accessorUVs"},{"bufferView":0,"byteOffset":87276,"componentType":5123,"count":36,"type":"SCALAR","name":"accessorIndices"},{"bufferView":1,"byteOffset":296568,"componentType":5126,"count":24,"max":[0.1524,0.009525,0.1524],"min":[-0.1524,-2.9240647E-15,-0.1524],"type":"VEC3","name":"accessorPositions"},{"bufferView":2,"byteOffset":197712,"componentType":5126,"count":24,"type":"VEC4","name":"accessorTangents"},{"bufferView":1,"byteOffset":296856,"componentType":5126,"count":24,"type":"VEC3","name":"accessorNormals"},{"bufferView":3,"byteOffset":98856,"componentType":5126,"count":24,"type":"VEC2","name":"accessorUVs"},{"bufferView":0,"byteOffset":87348,"componentType":5123,"count":2508,"type":"SCALAR","name":"accessorIndices"},{"bufferView":1,"byteOffset":297144,"componentType":5126,"count":880,"max":[0.20320001,0.007950201,0.0762],"min":[-0.20320001,-2.4131592E-15,-0.0762],"type":"VEC3","name":"accessorPositions"},{"bufferView":2,"byteOffset":198096,"componentType":5126,"count":880,"type":"VEC4","name":"accessorTangents"},{"bufferView":1,"byteOffset":307704,"componentType":5126,"count":880,"type":"VEC3","name":"accessorNormals"},{"bufferView":3,"byteOffset":99048,"componentType":5126,"count":880,"type":"VEC2","name":"accessorUVs"},{"bufferView":0,"byteOffset":92364,"componentType":5123,"count":6,"type":"SCALAR","name":"accessorIndices"},{"bufferView":1,"byteOffset":318264,"componentType":5126,"count":4,"max":[0.0063500004,0.0,0.5715],"min":[-0.0063500004,0.0,-0.5715],"type":"VEC3","name":"accessorPositions"},{"bufferView":1,"byteOffset":318312,"componentType":5126,"count":4,"type":"VEC3","name":"accessorNormals"}],"bufferViews":[{"buffer":0,"byteLength":92376,"name":"bufferViewScalar"},{"buffer":0,"byteOffset":92376,"byteLength":318360,"byteStride":12,"name":"bufferViewFloatVec3"},{"buffer":0,"byteOffset":410736,"byteLength":212176,"byteStride":16,"name":"bufferViewFloatVec4"},{"buffer":0,"byteOffset":622912,"byteLength":106088,"byteStride":8,"name":"bufferViewFloatVec2"}],"buffers":[{"uri":"Switchback_Stair_Boss.bin","byteLength":729000}],"materials":[{"pbrMetallicRoughness":{"baseColorTexture":{"index":1,"extensions":{"KHR_texture_transform":{"offset":[0.44444445,0.44444442],"scale":[0.11111111,0.11111111],"texCoord":0}}},"metallicFactor":0.0,"roughnessFactor":0.95},"normalTexture":{"index":0,"extensions":{"KHR_texture_transform":{"offset":[0.44444445,0.44444442],"scale":[0.11111111,0.11111111],"texCoord":0}}},"name":"Wood","extensions":{"KHR_materials_clearcoat":{"clearcoatFactor":1.0,"clearcoatTexture":{"index":2,"extensions":{"KHR_texture_transform":{"offset":[0.44444445,0.44444442],"scale":[0.11111111,0.11111111],"texCoord":0}}},"clearcoatRoughnessFactor":0.5}}},{"pbrMetallicRoughness":{"baseColorFactor":[0.005005772,0.005005772,0.005005772,1.0],"metallicFactor":0.0,"metallicRoughnessTexture":{"index":3}},"name":"PowderCoat_Stair"},{"pbrMetallicRoughness":{"baseColorFactor":[0.004515516,0.004515516,0.004515516,1.0],"metallicFactor":0.0,"metallicRoughnessTexture":{"index":3}},"name":"PowderCoat_Linear"},{"pbrMetallicRoughness":{"baseColorFactor":[0.9999998,0.9999999,0.9999999,1.0],"metallicFactor":0.0},"emissiveFactor":[0.9999998,0.9999999,0.9999999],"name":"LED"}],"textures":[{"sampler":0,"source":0,"name":"Wood_American Cherry_Normal.jpg"},{"sampler":0,"source":1,"name":"Wood_American Cherry_diffuse.jpg"},{"sampler":0,"source":2,"name":"Wood_American Cherry_roughness.jpg"},{"sampler":0,"source":3,"name":"PowderCoat_Roughness_2k0.jpg"}],"images":[{"uri":"textures/Wood_American Cherry_Normal.jpg"},{"uri":"textures/Wood_American Cherry_diffuse.jpg"},{"uri":"textures/Wood_American Cherry_roughness.jpg"},{"uri":"textures/PowderCoat_Roughness_2k0.jpg"}],"samplers":[{"magFilter":9729,"minFilter":9987}],"extensions":{"KHR_lights_punctual":{"lights":[{"color":[0.99999994,0.99999994,1.0000001],"intensity":0.1,"type":"point"},{"color":[0.99999994,0.99999994,1.0000001],"intensity":0.1,"type":"point"},{"color":[0.99999994,0.99999994,1.0000001],"intensity":0.1,"type":"point"},{"color":[0.99999994,0.99999994,1.0000001],"intensity":0.1,"type":"point"},{"color":[0.99999994,0.99999994,1.0000001],"intensity":0.1,"type":"point"},{"color":[0.99999994,0.99999994,1.0000001],"intensity":0.1,"type":"point"},{"color":[0.99999994,0.99999994,1.0000001],"intensity":0.1,"type":"point"},{"color":[0.99999994,0.99999994,1.0000001],"intensity":0.1,"type":"point"},{"color":[0.99999994,0.99999994,1.0000001],"intensity":0.1,"type":"point"},{"color":[0.99999994,0.99999994,1.0000001],"intensity":0.1,"type":"point"},{"color":[0.99999994,0.99999994,1.0000001],"intensity":0.1,"type":"point"},{"color":[0.99999994,0.99999994,1.0000001],"intensity":0.1,"type":"point"},{"color":[0.99999994,0.99999994,1.0000001],"intensity":0.1,"type":"point"},{"color":[0.99999994,0.99999994,1.0000001],"intensity":0.1,"type":"point"},{"color":[0.99999994,0.99999994,1.0000001],"intensity":0.1,"type":"point"},{"color":[0.99999994,0.99999994,1.0000001],"intensity":0.1,"type":"point"},{"color":[0.99999994,0.99999994,1.0000001],"intensity":0.1,"type":"point"},{"color":[0.99999994,0.99999994,1.0000001],"intensity":0.1,"type":"point"},{"color":[0.99999994,0.99999994,1.0000001],"intensity":0.1,"type":"point"},{"color":[0.99999994,0.99999994,1.0000001],"intensity":0.1,"type":"point"},{"color":[0.99999994,0.99999994,1.0000001],"intensity":0.1,"type":"point"},{"color":[0.99999994,0.99999994,1.0000001],"intensity":0.1,"type":"point"},{"color":[0.99999994,0.99999994,1.0000001],"intensity":0.1,"type":"point"},{"color":[0.99999994,0.99999994,1.0000001],"intensity":0.1,"type":"point"},{"color":[0.99999994,0.99999994,1.0000001],"intensity":0.1,"type":"point"},{"color":[0.99999994,0.99999994,1.0000001],"intensity":0.1,"type":"point"},{"color":[0.99999994,0.99999994,1.0000001],"intensity":0.1,"type":"point"},{"color":[0.99999994,0.99999994,1.0000001],"intensity":0.1,"type":"point"},{"color":[0.99999994,0.99999994,1.0000001],"intensity":0.1,"type":"point"},{"color":[0.99999994,0.99999994,1.0000001],"intensity":0.1,"type":"point"},{"color":[0.99999994,0.99999994,1.0000001],"intensity":0.1,"type":"point"},{"color":[0.99999994,0.99999994,1.0000001],"intensity":0.1,"type":"point"},{"color":[0.99999994,0.99999994,1.0000001],"intensity":0.1,"type":"point"},{"color":[0.99999994,0.99999994,1.0000001],"intensity":0.1,"type":"point"},{"color":[0.99999994,0.99999994,1.0000001],"intensity":0.1,"type":"point"},{"color":[0.99999994,0.99999994,1.0000001],"intensity":0.1,"type":"point"},{"color":[0.99999994,0.99999994,1.0000001],"intensity":0.1,"type":"point"},{"color":[0.99999994,0.99999994,1.0000001],"intensity":0.1,"type":"point"},{"color":[0.99999994,0.99999994,1.0000001],"intensity":0.1,"type":"point"},{"color":[0.99999994,0.99999994,1.0000001],"intensity":0.1,"type":"point"},{"color":[0.99999994,0.99999994,1.0000001],"intensity":0.1,"type":"point"},{"color":[0.99999994,0.99999994,1.0000001],"intensity":0.1,"type":"point"}]}}}