{"asset":{"version":"2.0","generator":"babylon.js glTF exporter for 3dsmax 2026 v20251111.2"},"extensionsUsed":["KHR_materials_ior","KHR_materials_transmission","KHR_materials_volume","KHR_texture_transform","KHR_materials_specular"],"extensionsRequired":["KHR_texture_transform"],"scene":0,"scenes":[{"nodes":[0,1,2,3,4,5,6,7,8,9,10,11,12,13,14,15,16,17,18,19,20,21,22,23,24,25,26,27,28,29,30,31,32,33,34,35,36,37,38,39,40,41,42,43,44,45,46,47,48,49,50,51,52,53,54,55,56,57,58,59,60,61,62,63,64,65,66,67,68,69,70,71,72,73,74,75,76,77,78,79,80,81,82,83,84,85,86,87,88,89,90,91,92,93,94,95,96,97,98,99,100,101,102,103,104,105,106,107,108,109,110,111,112,113,114,115,116,117,118,119,120,121,122,123,124,125,126,127,128,129,130,131,132,133,134,135,136,137,138,139,140,141,142,143,144,145,146,147,148,149,150,151,152,153,154,155,156,157,158,159,160,161,162,163,164,165,166,167,168,169,170,171,172,173,174,175,176,177,178,179,180,181,182,183,184,185,186,187,188,189,190,191,192,193,194,195,196,197,198,199,200,201,202,203,204,205,206,207,208,209,210,211,212,213,214,215,216,217,218,219,220,221,222,223,224,225,226,227,228,229,230,231,232,233,234,235,236,237,238,239,240,241,242,243,244,245,246,247,248,249,250,251,252,253,254,255,256,257,258,259,260,261,262,263,264,265,266,267,268,269,270,271,272,273,274,275,276,277,278,279,280,281,282,283,284,285,286,287,288,289,290]}],"nodes":[{"mesh":0,"translation":[-0.18280497,2.1652887,-0.076767445],"name":"Infill_Glass_Raked & Horizontal Generic [8199751]"},{"mesh":1,"translation":[1.416044,3.26257,-0.076767445],"name":"Infill_Glass_Raked & Horizontal Generic [8200579]"},{"mesh":2,"translation":[-0.42627385,2.04216,-0.07332812],"rotation":[-0.0,-0.7071068,0.0,0.7071067],"name":"Infill_Glass_Raked & Horizontal Generic [8201308]"},{"mesh":3,"translation":[-0.29053095,2.19456,0.19472066],"rotation":[0.7071068,-0.0,0.0,0.7071067],"name":"Infill_Glass_Transition Generic [8202170]"},{"mesh":4,"translation":[0.89538735,0.92937434,0.19472066],"rotation":[-0.0,-1.0,0.0,-4.371139E-08],"name":"Infill_Glass_Raked & Horizontal Generic [8202939]"},{"mesh":5,"translation":[28.89472,0.0,27.28077],"name":"Generic Models 1 Generic Models 1 [8568048]"},{"mesh":6,"translation":[28.89472,0.0,27.28077],"name":"Generic Models 2 Generic Models 2 [8568681]"},{"mesh":7,"translation":[0.89538735,0.9293959,1.1424326],"rotation":[-0.0,-1.0,0.0,-4.371139E-08],"name":"Infill_Glass_Raked & Horizontal Generic [8735940]"},{"mesh":8,"translation":[28.89472,0.0,27.28077],"name":"Generic Models 10 Generic Models 1 [8735975]"},{"mesh":9,"translation":[1.416044,3.2625408,-1.0244794],"rotation":[-0.0,3.133859E-15,0.0,1.0],"name":"Infill_Glass_Raked & Horizontal Generic [8736296]"},{"mesh":10,"translation":[-0.9978901,1.8699833,-1.0244794],"rotation":[-0.0,3.133859E-15,0.0,1.0],"name":"Infill_Glass_Raked & Horizontal Generic [8737682]"},{"mesh":11,"translation":[28.89472,0.0,27.28077],"name":"Casework 1 Casework 1 [8738332]"},{"mesh":12,"translation":[-1.3739858,1.8699833,-0.64838374],"rotation":[-0.0,-0.7071068,0.0,0.7071067],"name":"Infill_Glass_Raked & Horizontal Generic [8738822]"},{"mesh":13,"translation":[-1.3739858,1.8699833,0.76633686],"rotation":[-0.0,0.7071068,0.0,0.7071067],"name":"Infill_Glass_Raked & Horizontal Generic [8739062]"},{"mesh":14,"translation":[-0.9978901,1.8699833,1.1424326],"name":"Infill_Glass_Raked & Horizontal Generic [8739156]"},{"mesh":15,"translation":[0.096873306,1.4780358,1.1424326],"rotation":[-0.0,-1.0,0.0,-4.371139E-08],"name":"Infill_Glass_Raked & Horizontal Generic [8739593]"},{"mesh":16,"translation":[-0.17041264,1.6541497,0.15551813],"rotation":[-0.0,0.7071068,0.0,0.7071067],"name":"CIR006 - Post Cap Part [9209946]000"},{"mesh":16,"translation":[-0.17010568,2.0199099,-0.037563115],"rotation":[-0.0,-0.7071068,0.0,0.7071067],"name":"CIR006 - Post Cap Part [9209946]001"},{"mesh":16,"translation":[0.3628432,2.3856697,-0.037563115],"rotation":[-0.0,-0.7071068,0.0,0.7071067],"name":"CIR006 - Post Cap Part [9209946]002"},{"mesh":16,"translation":[0.6293153,2.5685496,-0.037563115],"rotation":[-0.0,-0.7071068,0.0,0.7071067],"name":"CIR006 - Post Cap Part [9209946]003"},{"mesh":16,"translation":[1.4287456,3.1171894,-0.037563115],"rotation":[-0.0,-0.7071068,0.0,0.7071067],"name":"CIR006 - Post Cap Part [9209946]004"},{"mesh":16,"translation":[-0.3870692,1.7500601,0.05897518],"name":"CIR006 - Post Cap Part [9209946]005"},{"mesh":16,"translation":[0.3625688,1.2883894,0.15551813],"rotation":[-0.0,0.7071068,0.0,0.7071067],"name":"CIR006 - Post Cap Part [9209946]006"},{"mesh":16,"translation":[0.6281014,1.1055093,0.15551813],"rotation":[-0.0,0.7071068,0.0,0.7071067],"name":"CIR006 - Post Cap Part [9209946]007"},{"mesh":16,"translation":[1.160441,0.7397496,0.15551813],"rotation":[-0.0,0.7071068,0.0,0.7071067],"name":"CIR006 - Post Cap Part [9209946]008"},{"mesh":16,"translation":[-0.17041264,1.6541497,1.1816369],"rotation":[-0.0,-0.7071068,0.0,0.7071067],"name":"CIR006 - Post Cap Part [9209946]009"},{"mesh":16,"translation":[0.3625688,1.2883894,1.1816369],"rotation":[-0.0,-0.7071068,0.0,0.7071067],"name":"CIR006 - Post Cap Part [9209946]010"},{"mesh":16,"translation":[0.6281014,1.1055093,1.1816369],"rotation":[-0.0,-0.7071068,0.0,0.7071067],"name":"CIR006 - Post Cap Part [9209946]011"},{"mesh":16,"translation":[1.160441,0.7397496,1.1816369],"rotation":[-0.0,-0.7071068,0.0,0.7071067],"name":"CIR006 - Post Cap Part [9209946]012"},{"mesh":16,"translation":[0.3628432,2.3856697,-1.0636818],"rotation":[-0.0,0.7071068,0.0,0.7071067],"name":"CIR006 - Post Cap Part [9209946]013"},{"mesh":16,"translation":[0.6293153,2.5685496,-1.0636818],"rotation":[-0.0,0.7071068,0.0,0.7071067],"name":"CIR006 - Post Cap Part [9209946]014"},{"mesh":16,"translation":[1.4287456,3.1171894,-1.0636818],"rotation":[-0.0,0.7071068,0.0,0.7071067],"name":"CIR006 - Post Cap Part [9209946]015"},{"mesh":16,"translation":[-0.44932586,1.8370296,-1.0636818],"rotation":[-0.0,0.7071068,0.0,0.7071067],"name":"CIR006 - Post Cap Part [9209946]016"},{"mesh":16,"translation":[-0.7160258,1.7500601,-1.0636818],"rotation":[-0.0,0.7071068,0.0,0.7071067],"name":"CIR006 - Post Cap Part [9209946]017"},{"mesh":16,"translation":[-1.2308595,1.7500601,-1.0636818],"rotation":[-0.0,0.7071068,0.0,0.7071067],"name":"CIR006 - Post Cap Part [9209946]018"},{"mesh":16,"translation":[-1.4131925,1.7500601,-0.88134885],"rotation":[-0.0,-1.0,0.0,2.8212997E-07],"name":"CIR006 - Post Cap Part [9209946]019"},{"mesh":16,"translation":[-1.4131925,1.7500601,0.99929917],"rotation":[-0.0,-1.0,0.0,-2.8212997E-07],"name":"CIR006 - Post Cap Part [9209946]020"},{"mesh":16,"translation":[-1.2308595,1.7500601,1.1816369],"rotation":[-0.0,-0.7071068,0.0,0.7071067],"name":"CIR006 - Post Cap Part [9209946]021"},{"mesh":16,"translation":[-1.4131925,1.7500601,-0.074374825],"rotation":[-0.0,-1.0,0.0,2.8212997E-07],"name":"CIR006 - Post Cap Part [9209946]022"},{"mesh":16,"translation":[-1.4131925,1.7500601,0.19232517],"rotation":[-0.0,-1.0,0.0,-2.8212997E-07],"name":"CIR006 - Post Cap Part [9209946]023"},{"mesh":16,"translation":[-0.42388555,1.7500601,1.1816369],"rotation":[-0.0,-0.7071068,0.0,0.7071067],"name":"CIR006 - Post Cap Part [9209946]024"},{"mesh":17,"translation":[-0.17041264,1.0972801,0.15551813],"rotation":[0.5000001,0.49999997,0.49999985,0.50000006],"name":"LS103 & LS116 - Circum Round Post Material LS Material [9209144]"},{"mesh":18,"translation":[-0.17041264,1.6255746,0.15551813],"rotation":[-0.0,-0.7071068,0.0,0.7071067],"name":"CIR088 - Circum Round Lo-Post Cope Part [9209257]048"},{"mesh":18,"translation":[-0.17041264,1.3715744,0.15551813],"rotation":[-0.0,-0.7071068,0.0,0.7071067],"name":"CIR088 - Circum Round Lo-Post Cope Part [9209257]049"},{"mesh":18,"translation":[-0.17010568,1.9913349,-0.037563115],"rotation":[-0.0,0.7071068,0.0,0.7071067],"name":"CIR088 - Circum Round Lo-Post Cope Part [9209257]050"},{"mesh":18,"translation":[-0.17010568,1.7373347,-0.037563115],"rotation":[-0.0,0.7071068,0.0,0.7071067],"name":"CIR088 - Circum Round Lo-Post Cope Part [9209257]001"},{"mesh":18,"translation":[0.3628432,2.3570948,-0.037563115],"rotation":[-0.0,0.7071068,0.0,0.7071067],"name":"CIR088 - Circum Round Lo-Post Cope Part [9209257]002"},{"mesh":18,"translation":[0.3628432,2.1030943,-0.037563115],"rotation":[-0.0,0.7071068,0.0,0.7071067],"name":"CIR088 - Circum Round Lo-Post Cope Part [9209257]003"},{"mesh":18,"translation":[0.6293153,2.5399747,-0.037563115],"rotation":[-0.0,0.7071068,0.0,0.7071067],"name":"CIR088 - Circum Round Lo-Post Cope Part [9209257]004"},{"mesh":18,"translation":[0.6293153,2.2859745,-0.037563115],"rotation":[-0.0,0.7071068,0.0,0.7071067],"name":"CIR088 - Circum Round Lo-Post Cope Part [9209257]005"},{"mesh":18,"translation":[1.4287456,3.0886145,-0.037563115],"rotation":[-0.0,0.7071068,0.0,0.7071067],"name":"CIR088 - Circum Round Lo-Post Cope Part [9209257]006"},{"mesh":18,"translation":[1.4287456,2.8346148,-0.037563115],"rotation":[-0.0,0.7071068,0.0,0.7071067],"name":"CIR088 - Circum Round Lo-Post Cope Part [9209257]007"},{"mesh":18,"translation":[-0.3870692,1.721485,0.05897518],"rotation":[-0.0,-1.0,0.0,2.8212997E-07],"name":"CIR088 - Circum Round Lo-Post Cope Part [9209257]008"},{"mesh":18,"translation":[-0.3870692,1.4674848,0.05897518],"rotation":[-0.0,-1.0,0.0,2.8212997E-07],"name":"CIR088 - Circum Round Lo-Post Cope Part [9209257]009"},{"mesh":18,"translation":[0.3625688,1.2598144,0.15551813],"rotation":[-0.0,-0.7071068,0.0,0.7071067],"name":"CIR088 - Circum Round Lo-Post Cope Part [9209257]010"},{"mesh":18,"translation":[0.3625688,1.0058148,0.15551813],"rotation":[-0.0,-0.7071068,0.0,0.7071067],"name":"CIR088 - Circum Round Lo-Post Cope Part [9209257]011"},{"mesh":18,"translation":[0.6281014,1.0769343,0.15551813],"rotation":[-0.0,-0.7071068,0.0,0.7071067],"name":"CIR088 - Circum Round Lo-Post Cope Part [9209257]012"},{"mesh":18,"translation":[0.6281014,0.8229347,0.15551813],"rotation":[-0.0,-0.7071068,0.0,0.7071067],"name":"CIR088 - Circum Round Lo-Post Cope Part [9209257]013"},{"mesh":18,"translation":[1.160441,0.7111746,0.15551813],"rotation":[-0.0,-0.7071068,0.0,0.7071067],"name":"CIR088 - Circum Round Lo-Post Cope Part [9209257]014"},{"mesh":18,"translation":[1.160441,0.45717472,0.15551813],"rotation":[-0.0,-0.7071068,0.0,0.7071067],"name":"CIR088 - Circum Round Lo-Post Cope Part [9209257]015"},{"mesh":18,"translation":[-0.17041264,1.6255746,1.1816369],"rotation":[-0.0,0.7071068,0.0,0.7071067],"name":"CIR088 - Circum Round Lo-Post Cope Part [9209257]016"},{"mesh":18,"translation":[-0.17041264,1.3715744,1.1816369],"rotation":[-0.0,0.7071068,0.0,0.7071067],"name":"CIR088 - Circum Round Lo-Post Cope Part [9209257]017"},{"mesh":18,"translation":[0.3625688,1.2598144,1.1816369],"rotation":[-0.0,0.7071068,0.0,0.7071067],"name":"CIR088 - Circum Round Lo-Post Cope Part [9209257]018"},{"mesh":18,"translation":[0.3625688,1.0058148,1.1816369],"rotation":[-0.0,0.7071068,0.0,0.7071067],"name":"CIR088 - Circum Round Lo-Post Cope Part [9209257]019"},{"mesh":18,"translation":[0.6281014,1.0769343,1.1816369],"rotation":[-0.0,0.7071068,0.0,0.7071067],"name":"CIR088 - Circum Round Lo-Post Cope Part [9209257]020"},{"mesh":18,"translation":[0.6281014,0.8229347,1.1816369],"rotation":[-0.0,0.7071068,0.0,0.7071067],"name":"CIR088 - Circum Round Lo-Post Cope Part [9209257]021"},{"mesh":18,"translation":[1.160441,0.7111746,1.1816369],"rotation":[-0.0,0.7071068,0.0,0.7071067],"name":"CIR088 - Circum Round Lo-Post Cope Part [9209257]022"},{"mesh":18,"translation":[1.160441,0.45717472,1.1816369],"rotation":[-0.0,0.7071068,0.0,0.7071067],"name":"CIR088 - Circum Round Lo-Post Cope Part [9209257]023"},{"mesh":18,"translation":[0.3628432,2.3570948,-1.0636818],"rotation":[-0.0,-0.7071068,0.0,0.7071067],"name":"CIR088 - Circum Round Lo-Post Cope Part [9209257]024"},{"mesh":18,"translation":[0.3628432,2.1030943,-1.0636818],"rotation":[-0.0,-0.7071068,0.0,0.7071067],"name":"CIR088 - Circum Round Lo-Post Cope Part [9209257]025"},{"mesh":18,"translation":[0.6293153,2.5399747,-1.0636818],"rotation":[-0.0,-0.7071068,0.0,0.7071067],"name":"CIR088 - Circum Round Lo-Post Cope Part [9209257]026"},{"mesh":18,"translation":[0.6293153,2.2859745,-1.0636818],"rotation":[-0.0,-0.7071068,0.0,0.7071067],"name":"CIR088 - Circum Round Lo-Post Cope Part [9209257]027"},{"mesh":18,"translation":[1.4287456,3.0886145,-1.0636818],"rotation":[-0.0,-0.7071068,0.0,0.7071067],"name":"CIR088 - Circum Round Lo-Post Cope Part [9209257]028"},{"mesh":18,"translation":[1.4287456,2.8346148,-1.0636818],"rotation":[-0.0,-0.7071068,0.0,0.7071067],"name":"CIR088 - Circum Round Lo-Post Cope Part [9209257]029"},{"mesh":18,"translation":[-0.44932586,1.8084546,-1.0636818],"rotation":[-0.0,-0.7071068,0.0,0.7071067],"name":"CIR088 - Circum Round Lo-Post Cope Part [9209257]030"},{"mesh":18,"translation":[-0.44932586,1.5544546,-1.0636818],"rotation":[-0.0,-0.7071068,0.0,0.7071067],"name":"CIR088 - Circum Round Lo-Post Cope Part [9209257]031"},{"mesh":18,"translation":[-0.7160258,1.721485,-1.0636818],"rotation":[-0.0,-0.7071068,0.0,0.7071067],"name":"CIR088 - Circum Round Lo-Post Cope Part [9209257]032"},{"mesh":18,"translation":[-0.7160258,1.4674848,-1.0636818],"rotation":[-0.0,-0.7071068,0.0,0.7071067],"name":"CIR088 - Circum Round Lo-Post Cope Part [9209257]033"},{"mesh":18,"translation":[-1.2308595,1.721485,-1.0636818],"rotation":[-0.0,-0.7071068,0.0,0.7071067],"name":"CIR088 - Circum Round Lo-Post Cope Part [9209257]034"},{"mesh":18,"translation":[-1.2308595,1.4674848,-1.0636818],"rotation":[-0.0,-0.7071068,0.0,0.7071067],"name":"CIR088 - Circum Round Lo-Post Cope Part [9209257]035"},{"mesh":18,"translation":[-1.4131925,1.721485,-0.88134885],"name":"CIR088 - Circum Round Lo-Post Cope Part [9209257]036"},{"mesh":18,"translation":[-1.4131925,1.4674848,-0.88134885],"name":"CIR088 - Circum Round Lo-Post Cope Part [9209257]037"},{"mesh":18,"translation":[-1.4131925,1.721485,0.99929917],"rotation":[-0.0,1.1188018E-14,0.0,1.0],"name":"CIR088 - Circum Round Lo-Post Cope Part [9209257]038"},{"mesh":18,"translation":[-1.4131925,1.4674848,0.99929917],"rotation":[-0.0,1.1188018E-14,0.0,1.0],"name":"CIR088 - Circum Round Lo-Post Cope Part [9209257]039"},{"mesh":18,"translation":[-1.2308595,1.721485,1.1816369],"rotation":[-0.0,0.7071068,0.0,0.7071067],"name":"CIR088 - Circum Round Lo-Post Cope Part [9209257]040"},{"mesh":18,"translation":[-1.2308595,1.4674848,1.1816369],"rotation":[-0.0,0.7071068,0.0,0.7071067],"name":"CIR088 - Circum Round Lo-Post Cope Part [9209257]041"},{"mesh":18,"translation":[-1.4131925,1.721485,-0.074374825],"name":"CIR088 - Circum Round Lo-Post Cope Part [9209257]042"},{"mesh":18,"translation":[-1.4131925,1.4674848,-0.074374825],"name":"CIR088 - Circum Round Lo-Post Cope Part [9209257]043"},{"mesh":18,"translation":[-1.4131925,1.721485,0.19232517],"rotation":[-0.0,1.1188018E-14,0.0,1.0],"name":"CIR088 - Circum Round Lo-Post Cope Part [9209257]044"},{"mesh":18,"translation":[-1.4131925,1.4674848,0.19232517],"rotation":[-0.0,1.1188018E-14,0.0,1.0],"name":"CIR088 - Circum Round Lo-Post Cope Part [9209257]045"},{"mesh":18,"translation":[-0.42388555,1.721485,1.1816369],"rotation":[-0.0,0.7071068,0.0,0.7071067],"name":"CIR088 - Circum Round Lo-Post Cope Part [9209257]046"},{"mesh":18,"translation":[-0.42388555,1.4674848,1.1816369],"rotation":[-0.0,0.7071068,0.0,0.7071067],"name":"CIR088 - Circum Round Lo-Post Cope Part [9209257]047"},{"mesh":19,"translation":[-0.17041264,1.6255746,0.20186879],"rotation":[-0.0,-0.7071068,0.0,0.7071067],"name":"OPT006A - Optik Glass Pad Part [9209158]"},{"mesh":19,"translation":[-0.17041264,1.3715744,0.20186879],"rotation":[-0.0,-0.7071068,0.0,0.7071067],"name":"OPT006A - Optik Glass Pad Part [9209164]"},{"mesh":19,"translation":[-0.43342915,1.721485,0.05897518],"rotation":[-0.0,-1.0,0.0,2.8212997E-07],"name":"OPT006A - Optik Glass Pad Part [9209393]"},{"mesh":19,"translation":[-0.43342915,1.4674848,0.05897518],"rotation":[-0.0,-1.0,0.0,2.8212997E-07],"name":"OPT006A - Optik Glass Pad Part [9209399]"},{"mesh":19,"translation":[0.3625688,1.2598144,0.20186879],"rotation":[-0.0,-0.7071068,0.0,0.7071067],"name":"OPT006A - Optik Glass Pad Part [9209428]"},{"mesh":19,"translation":[0.3625688,1.0058148,0.20186879],"rotation":[-0.0,-0.7071068,0.0,0.7071067],"name":"OPT006A - Optik Glass Pad Part [9209434]"},{"mesh":19,"translation":[0.6281014,1.0769343,0.20186879],"rotation":[-0.0,-0.7071068,0.0,0.7071067],"name":"OPT006A - Optik Glass Pad Part [9209463]"},{"mesh":19,"translation":[0.6281014,0.8229347,0.20186879],"rotation":[-0.0,-0.7071068,0.0,0.7071067],"name":"OPT006A - Optik Glass Pad Part [9209469]"},{"mesh":19,"translation":[1.160441,0.7111746,0.20186879],"rotation":[-0.0,-0.7071068,0.0,0.7071067],"name":"OPT006A - Optik Glass Pad Part [9209498]"},{"mesh":19,"translation":[1.160441,0.45717472,0.20186879],"rotation":[-0.0,-0.7071068,0.0,0.7071067],"name":"OPT006A - Optik Glass Pad Part [9209504]"},{"mesh":19,"translation":[0.3628432,2.3570948,-1.0173312],"rotation":[-0.0,-0.7071068,0.0,0.7071067],"name":"OPT006A - Optik Glass Pad Part [9209673]"},{"mesh":19,"translation":[0.3628432,2.1030943,-1.0173312],"rotation":[-0.0,-0.7071068,0.0,0.7071067],"name":"OPT006A - Optik Glass Pad Part [9209679]"},{"mesh":19,"translation":[0.6293153,2.5399747,-1.0173312],"rotation":[-0.0,-0.7071068,0.0,0.7071067],"name":"OPT006A - Optik Glass Pad Part [9209708]"},{"mesh":19,"translation":[0.6293153,2.2859745,-1.0173312],"rotation":[-0.0,-0.7071068,0.0,0.7071067],"name":"OPT006A - Optik Glass Pad Part [9209714]"},{"mesh":19,"translation":[1.4287456,3.0886145,-1.0173312],"rotation":[-0.0,-0.7071068,0.0,0.7071067],"name":"OPT006A - Optik Glass Pad Part [9209743]"},{"mesh":19,"translation":[1.4287456,2.8346148,-1.0173312],"rotation":[-0.0,-0.7071068,0.0,0.7071067],"name":"OPT006A - Optik Glass Pad Part [9209749]"},{"mesh":19,"translation":[-0.44932586,1.8084546,-1.0173312],"rotation":[-0.0,-0.7071068,0.0,0.7071067],"name":"OPT006A - Optik Glass Pad Part [9209778]"},{"mesh":19,"translation":[-0.44932586,1.5544546,-1.0173312],"rotation":[-0.0,-0.7071068,0.0,0.7071067],"name":"OPT006A - Optik Glass Pad Part [9209784]"},{"mesh":19,"translation":[-0.7160258,1.721485,-1.0173312],"rotation":[-0.0,-0.7071068,0.0,0.7071067],"name":"OPT006A - Optik Glass Pad Part [9209813]"},{"mesh":19,"translation":[-0.7160258,1.4674848,-1.0173312],"rotation":[-0.0,-0.7071068,0.0,0.7071067],"name":"OPT006A - Optik Glass Pad Part [9209819]"},{"mesh":19,"translation":[-1.3668419,1.721485,-0.88134885],"name":"OPT006A - Optik Glass Pad Part [9209883]"},{"mesh":19,"translation":[-1.3668419,1.4674848,-0.88134885],"name":"OPT006A - Optik Glass Pad Part [9209889]"},{"mesh":19,"translation":[-1.2308595,1.721485,1.1352816],"rotation":[-0.0,0.7071068,0.0,0.7071067],"name":"OPT006A - Optik Glass Pad Part [9209953]"},{"mesh":19,"translation":[-1.2308595,1.4674848,1.1352816],"rotation":[-0.0,0.7071068,0.0,0.7071067],"name":"OPT006A - Optik Glass Pad Part [9209959]"},{"mesh":19,"translation":[-1.3668419,1.721485,-0.074374825],"name":"OPT006A - Optik Glass Pad Part [9209988]"},{"mesh":19,"translation":[-1.3668419,1.4674848,-0.074374825],"name":"OPT006A - Optik Glass Pad Part [9209994]"},{"mesh":19,"translation":[-0.42388555,1.721485,1.1352816],"rotation":[-0.0,0.7071068,0.0,0.7071067],"name":"OPT006A - Optik Glass Pad Part [9210058]"},{"mesh":19,"translation":[-0.42388555,1.4674848,1.1352816],"rotation":[-0.0,0.7071068,0.0,0.7071067],"name":"OPT006A - Optik Glass Pad Part [9210064]"},{"mesh":20,"translation":[-0.17041264,1.6255746,0.18599534],"rotation":[-0.0,-0.7071068,0.0,0.7071067],"name":"OPT006 - Optik Glass Pad Part [9209159]"},{"mesh":20,"translation":[-0.17041264,1.3715744,0.18599534],"rotation":[-0.0,-0.7071068,0.0,0.7071067],"name":"OPT006 - Optik Glass Pad Part [9209165]"},{"mesh":20,"translation":[-0.41755104,1.721485,0.05897518],"rotation":[-0.0,-1.0,0.0,2.8212997E-07],"name":"OPT006 - Optik Glass Pad Part [9209394]"},{"mesh":20,"translation":[-0.41755104,1.4674848,0.05897518],"rotation":[-0.0,-1.0,0.0,2.8212997E-07],"name":"OPT006 - Optik Glass Pad Part [9209400]"},{"mesh":20,"translation":[0.3625688,1.2598144,0.18599534],"rotation":[-0.0,-0.7071068,0.0,0.7071067],"name":"OPT006 - Optik Glass Pad Part [9209429]"},{"mesh":20,"translation":[0.3625688,1.0058148,0.18599534],"rotation":[-0.0,-0.7071068,0.0,0.7071067],"name":"OPT006 - Optik Glass Pad Part [9209435]"},{"mesh":20,"translation":[0.6281014,1.0769343,0.18599534],"rotation":[-0.0,-0.7071068,0.0,0.7071067],"name":"OPT006 - Optik Glass Pad Part [9209464]"},{"mesh":20,"translation":[0.6281014,0.8229347,0.18599534],"rotation":[-0.0,-0.7071068,0.0,0.7071067],"name":"OPT006 - Optik Glass Pad Part [9209470]"},{"mesh":20,"translation":[1.160441,0.7111746,0.18599534],"rotation":[-0.0,-0.7071068,0.0,0.7071067],"name":"OPT006 - Optik Glass Pad Part [9209499]"},{"mesh":20,"translation":[1.160441,0.45717472,0.18599534],"rotation":[-0.0,-0.7071068,0.0,0.7071067],"name":"OPT006 - Optik Glass Pad Part [9209505]"},{"mesh":20,"translation":[0.3628432,2.3570948,-1.0332047],"rotation":[-0.0,-0.7071068,0.0,0.7071067],"name":"OPT006 - Optik Glass Pad Part [9209674]"},{"mesh":20,"translation":[0.3628432,2.1030943,-1.0332047],"rotation":[-0.0,-0.7071068,0.0,0.7071067],"name":"OPT006 - Optik Glass Pad Part [9209680]"},{"mesh":20,"translation":[0.6293153,2.5399747,-1.0332047],"rotation":[-0.0,-0.7071068,0.0,0.7071067],"name":"OPT006 - Optik Glass Pad Part [9209709]"},{"mesh":20,"translation":[0.6293153,2.2859745,-1.0332047],"rotation":[-0.0,-0.7071068,0.0,0.7071067],"name":"OPT006 - Optik Glass Pad Part [9209715]"},{"mesh":20,"translation":[1.4287456,3.0886145,-1.0332047],"rotation":[-0.0,-0.7071068,0.0,0.7071067],"name":"OPT006 - Optik Glass Pad Part [9209744]"},{"mesh":20,"translation":[1.4287456,2.8346148,-1.0332047],"rotation":[-0.0,-0.7071068,0.0,0.7071067],"name":"OPT006 - Optik Glass Pad Part [9209750]"},{"mesh":20,"translation":[-0.44932586,1.8084546,-1.0332047],"rotation":[-0.0,-0.7071068,0.0,0.7071067],"name":"OPT006 - Optik Glass Pad Part [9209779]"},{"mesh":20,"translation":[-0.44932586,1.5544546,-1.0332047],"rotation":[-0.0,-0.7071068,0.0,0.7071067],"name":"OPT006 - Optik Glass Pad Part [9209785]"},{"mesh":20,"translation":[-0.7160258,1.721485,-1.0332047],"rotation":[-0.0,-0.7071068,0.0,0.7071067],"name":"OPT006 - Optik Glass Pad Part [9209814]"},{"mesh":20,"translation":[-0.7160258,1.4674848,-1.0332047],"rotation":[-0.0,-0.7071068,0.0,0.7071067],"name":"OPT006 - Optik Glass Pad Part [9209820]"},{"mesh":20,"translation":[-1.3827107,1.721485,-0.88134885],"name":"OPT006 - Optik Glass Pad Part [9209884]"},{"mesh":20,"translation":[-1.3827107,1.4674848,-0.88134885],"name":"OPT006 - Optik Glass Pad Part [9209890]"},{"mesh":20,"translation":[-1.2308595,1.721485,1.1511596],"rotation":[-0.0,0.7071068,0.0,0.7071067],"name":"OPT006 - Optik Glass Pad Part [9209954]"},{"mesh":20,"translation":[-1.2308595,1.4674848,1.1511596],"rotation":[-0.0,0.7071068,0.0,0.7071067],"name":"OPT006 - Optik Glass Pad Part [9209960]"},{"mesh":20,"translation":[-1.3827107,1.721485,-0.074374825],"name":"OPT006 - Optik Glass Pad Part [9209989]"},{"mesh":20,"translation":[-1.3827107,1.4674848,-0.074374825],"name":"OPT006 - Optik Glass Pad Part [9209995]"},{"mesh":20,"translation":[-0.42388555,1.721485,1.1511596],"rotation":[-0.0,0.7071068,0.0,0.7071067],"name":"OPT006 - Optik Glass Pad Part [9210059]"},{"mesh":20,"translation":[-0.42388555,1.4674848,1.1511596],"rotation":[-0.0,0.7071068,0.0,0.7071067],"name":"OPT006 - Optik Glass Pad Part [9210065]"},{"mesh":21,"translation":[-0.17041264,1.6255746,0.20344543],"rotation":[-0.0,0.7071068,0.0,0.7071067],"name":"CIR087 - Circum Round Lo-Post Clamp Part [9209252]001"},{"mesh":21,"translation":[-0.17041264,1.3715744,0.20344543],"rotation":[-0.0,0.7071068,0.0,0.7071067],"name":"CIR087 - Circum Round Lo-Post Clamp Part [9209252]002"},{"mesh":21,"translation":[-0.17010568,1.9913349,-0.08549042],"rotation":[-0.0,-0.7071068,0.0,0.7071067],"name":"CIR087 - Circum Round Lo-Post Clamp Part [9209252]003"},{"mesh":21,"translation":[-0.17010568,1.7373347,-0.08549042],"rotation":[-0.0,-0.7071068,0.0,0.7071067],"name":"CIR087 - Circum Round Lo-Post Clamp Part [9209252]004"},{"mesh":21,"translation":[0.3628432,2.3570948,-0.08549042],"rotation":[-0.0,-0.7071068,0.0,0.7071067],"name":"CIR087 - Circum Round Lo-Post Clamp Part [9209252]005"},{"mesh":21,"translation":[0.3628432,2.1030943,-0.08549042],"rotation":[-0.0,-0.7071068,0.0,0.7071067],"name":"CIR087 - Circum Round Lo-Post Clamp Part [9209252]006"},{"mesh":21,"translation":[0.6293153,2.5399747,-0.08549042],"rotation":[-0.0,-0.7071068,0.0,0.7071067],"name":"CIR087 - Circum Round Lo-Post Clamp Part [9209252]007"},{"mesh":21,"translation":[0.6293153,2.2859745,-0.08549042],"rotation":[-0.0,-0.7071068,0.0,0.7071067],"name":"CIR087 - Circum Round Lo-Post Clamp Part [9209252]008"},{"mesh":21,"translation":[1.4287456,3.0886145,-0.08549042],"rotation":[-0.0,-0.7071068,0.0,0.7071067],"name":"CIR087 - Circum Round Lo-Post Clamp Part [9209252]009"},{"mesh":21,"translation":[1.4287456,2.8346148,-0.08549042],"rotation":[-0.0,-0.7071068,0.0,0.7071067],"name":"CIR087 - Circum Round Lo-Post Clamp Part [9209252]010"},{"mesh":21,"translation":[-0.43500113,1.721485,0.05897518],"name":"CIR087 - Circum Round Lo-Post Clamp Part [9209252]011"},{"mesh":21,"translation":[-0.43500113,1.4674848,0.05897518],"name":"CIR087 - Circum Round Lo-Post Clamp Part [9209252]012"},{"mesh":21,"translation":[0.3625688,1.2598144,0.20344543],"rotation":[-0.0,0.7071068,0.0,0.7071067],"name":"CIR087 - Circum Round Lo-Post Clamp Part [9209252]013"},{"mesh":21,"translation":[0.3625688,1.0058148,0.20344543],"rotation":[-0.0,0.7071068,0.0,0.7071067],"name":"CIR087 - Circum Round Lo-Post Clamp Part [9209252]014"},{"mesh":21,"translation":[0.6281014,1.0769343,0.20344543],"rotation":[-0.0,0.7071068,0.0,0.7071067],"name":"CIR087 - Circum Round Lo-Post Clamp Part [9209252]015"},{"mesh":21,"translation":[0.6281014,0.8229347,0.20344543],"rotation":[-0.0,0.7071068,0.0,0.7071067],"name":"CIR087 - Circum Round Lo-Post Clamp Part [9209252]016"},{"mesh":21,"translation":[1.160441,0.7111746,0.20344543],"rotation":[-0.0,0.7071068,0.0,0.7071067],"name":"CIR087 - Circum Round Lo-Post Clamp Part [9209252]017"},{"mesh":21,"translation":[1.160441,0.45717472,0.20344543],"rotation":[-0.0,0.7071068,0.0,0.7071067],"name":"CIR087 - Circum Round Lo-Post Clamp Part [9209252]018"},{"mesh":21,"translation":[-0.17041264,1.6255746,1.1337095],"rotation":[-0.0,-0.7071068,0.0,0.7071067],"name":"CIR087 - Circum Round Lo-Post Clamp Part [9209252]019"},{"mesh":21,"translation":[-0.17041264,1.3715744,1.1337095],"rotation":[-0.0,-0.7071068,0.0,0.7071067],"name":"CIR087 - Circum Round Lo-Post Clamp Part [9209252]020"},{"mesh":21,"translation":[0.3625688,1.2598144,1.1337095],"rotation":[-0.0,-0.7071068,0.0,0.7071067],"name":"CIR087 - Circum Round Lo-Post Clamp Part [9209252]021"},{"mesh":21,"translation":[0.3625688,1.0058148,1.1337095],"rotation":[-0.0,-0.7071068,0.0,0.7071067],"name":"CIR087 - Circum Round Lo-Post Clamp Part [9209252]022"},{"mesh":21,"translation":[0.6281014,1.0769343,1.1337095],"rotation":[-0.0,-0.7071068,0.0,0.7071067],"name":"CIR087 - Circum Round Lo-Post Clamp Part [9209252]023"},{"mesh":21,"translation":[0.6281014,0.8229347,1.1337095],"rotation":[-0.0,-0.7071068,0.0,0.7071067],"name":"CIR087 - Circum Round Lo-Post Clamp Part [9209252]024"},{"mesh":21,"translation":[1.160441,0.7111746,1.1337095],"rotation":[-0.0,-0.7071068,0.0,0.7071067],"name":"CIR087 - Circum Round Lo-Post Clamp Part [9209252]025"},{"mesh":21,"translation":[1.160441,0.45717472,1.1337095],"rotation":[-0.0,-0.7071068,0.0,0.7071067],"name":"CIR087 - Circum Round Lo-Post Clamp Part [9209252]026"},{"mesh":21,"translation":[0.3628432,2.3570948,-1.0157546],"rotation":[-0.0,0.7071068,0.0,0.7071067],"name":"CIR087 - Circum Round Lo-Post Clamp Part [9209252]027"},{"mesh":21,"translation":[0.3628432,2.1030943,-1.0157546],"rotation":[-0.0,0.7071068,0.0,0.7071067],"name":"CIR087 - Circum Round Lo-Post Clamp Part [9209252]028"},{"mesh":21,"translation":[0.6293153,2.5399747,-1.0157546],"rotation":[-0.0,0.7071068,0.0,0.7071067],"name":"CIR087 - Circum Round Lo-Post Clamp Part [9209252]029"},{"mesh":21,"translation":[0.6293153,2.2859745,-1.0157546],"rotation":[-0.0,0.7071068,0.0,0.7071067],"name":"CIR087 - Circum Round Lo-Post Clamp Part [9209252]030"},{"mesh":21,"translation":[1.4287456,3.0886145,-1.0157546],"rotation":[-0.0,0.7071068,0.0,0.7071067],"name":"CIR087 - Circum Round Lo-Post Clamp Part [9209252]031"},{"mesh":21,"translation":[1.4287456,2.8346148,-1.0157546],"rotation":[-0.0,0.7071068,0.0,0.7071067],"name":"CIR087 - Circum Round Lo-Post Clamp Part [9209252]032"},{"mesh":21,"translation":[-0.44932586,1.8084546,-1.0157546],"rotation":[-0.0,0.7071068,0.0,0.7071067],"name":"CIR087 - Circum Round Lo-Post Clamp Part [9209252]033"},{"mesh":21,"translation":[-0.44932586,1.5544546,-1.0157546],"rotation":[-0.0,0.7071068,0.0,0.7071067],"name":"CIR087 - Circum Round Lo-Post Clamp Part [9209252]034"},{"mesh":21,"translation":[-0.7160258,1.721485,-1.0157546],"rotation":[-0.0,0.7071068,0.0,0.7071067],"name":"CIR087 - Circum Round Lo-Post Clamp Part [9209252]035"},{"mesh":21,"translation":[-0.7160258,1.4674848,-1.0157546],"rotation":[-0.0,0.7071068,0.0,0.7071067],"name":"CIR087 - Circum Round Lo-Post Clamp Part [9209252]036"},{"mesh":21,"translation":[-1.2308595,1.721485,-1.0157546],"rotation":[-0.0,0.7071068,0.0,0.7071067],"name":"CIR087 - Circum Round Lo-Post Clamp Part [9209252]037"},{"mesh":21,"translation":[-1.2308595,1.4674848,-1.0157546],"rotation":[-0.0,0.7071068,0.0,0.7071067],"name":"CIR087 - Circum Round Lo-Post Clamp Part [9209252]038"},{"mesh":21,"translation":[-1.3652606,1.721485,-0.88134885],"rotation":[-0.0,-1.0,0.0,2.8212997E-07],"name":"CIR087 - Circum Round Lo-Post Clamp Part [9209252]039"},{"mesh":21,"translation":[-1.3652606,1.4674848,-0.88134885],"rotation":[-0.0,-1.0,0.0,2.8212997E-07],"name":"CIR087 - Circum Round Lo-Post Clamp Part [9209252]040"},{"mesh":21,"translation":[-1.3652606,1.721485,0.99929917],"rotation":[-0.0,-1.0,0.0,-2.8212997E-07],"name":"CIR087 - Circum Round Lo-Post Clamp Part [9209252]041"},{"mesh":21,"translation":[-1.3652606,1.4674848,0.99929917],"rotation":[-0.0,-1.0,0.0,-2.8212997E-07],"name":"CIR087 - Circum Round Lo-Post Clamp Part [9209252]042"},{"mesh":21,"translation":[-1.2308595,1.721485,1.1337095],"rotation":[-0.0,-0.7071068,0.0,0.7071067],"name":"CIR087 - Circum Round Lo-Post Clamp Part [9209252]043"},{"mesh":21,"translation":[-1.2308595,1.4674848,1.1337095],"rotation":[-0.0,-0.7071068,0.0,0.7071067],"name":"CIR087 - Circum Round Lo-Post Clamp Part [9209252]044"},{"mesh":21,"translation":[-1.3652606,1.721485,-0.074374825],"rotation":[-0.0,-1.0,0.0,2.8212997E-07],"name":"CIR087 - Circum Round Lo-Post Clamp Part [9209252]045"},{"mesh":21,"translation":[-1.3652606,1.4674848,-0.074374825],"rotation":[-0.0,-1.0,0.0,2.8212997E-07],"name":"CIR087 - Circum Round Lo-Post Clamp Part [9209252]046"},{"mesh":21,"translation":[-1.3652606,1.721485,0.19232517],"rotation":[-0.0,-1.0,0.0,-2.8212997E-07],"name":"CIR087 - Circum Round Lo-Post Clamp Part [9209252]047"},{"mesh":21,"translation":[-1.3652606,1.4674848,0.19232517],"rotation":[-0.0,-1.0,0.0,-2.8212997E-07],"name":"CIR087 - Circum Round Lo-Post Clamp Part [9209252]048"},{"mesh":21,"translation":[-0.42388555,1.721485,1.1337095],"rotation":[-0.0,-0.7071068,0.0,0.7071067],"name":"CIR087 - Circum Round Lo-Post Clamp Part [9209252]049"},{"mesh":21,"translation":[-0.42388555,1.4674848,1.1337095],"rotation":[-0.0,-0.7071068,0.0,0.7071067],"name":"CIR087 - Circum Round Lo-Post Clamp Part [9209252]050"},{"mesh":22,"translation":[-0.17010568,1.4630404,-0.037563115],"rotation":[-0.5,-0.50000006,0.5,0.49999994],"name":"LS103 & LS116 - Circum Round Post Material LS Material [9209234]"},{"mesh":23,"translation":[-0.17010568,1.9913349,-0.08391842],"rotation":[-0.0,0.7071068,0.0,0.7071067],"name":"OPT006A - Optik Glass Pad Part [9209250]"},{"mesh":23,"translation":[-0.17010568,1.7373347,-0.08391842],"rotation":[-0.0,0.7071068,0.0,0.7071067],"name":"OPT006A - Optik Glass Pad Part [9209259]"},{"mesh":23,"translation":[0.3628432,2.3570948,-0.08391842],"rotation":[-0.0,0.7071068,0.0,0.7071067],"name":"OPT006A - Optik Glass Pad Part [9209288]"},{"mesh":23,"translation":[0.3628432,2.1030943,-0.08391842],"rotation":[-0.0,0.7071068,0.0,0.7071067],"name":"OPT006A - Optik Glass Pad Part [9209294]"},{"mesh":23,"translation":[0.6293153,2.5399747,-0.08391842],"rotation":[-0.0,0.7071068,0.0,0.7071067],"name":"OPT006A - Optik Glass Pad Part [9209323]"},{"mesh":23,"translation":[0.6293153,2.2859745,-0.08391842],"rotation":[-0.0,0.7071068,0.0,0.7071067],"name":"OPT006A - Optik Glass Pad Part [9209329]"},{"mesh":23,"translation":[1.4287456,3.0886145,-0.08391842],"rotation":[-0.0,0.7071068,0.0,0.7071067],"name":"OPT006A - Optik Glass Pad Part [9209358]"},{"mesh":23,"translation":[1.4287456,2.8346148,-0.08391842],"rotation":[-0.0,0.7071068,0.0,0.7071067],"name":"OPT006A - Optik Glass Pad Part [9209364]"},{"mesh":23,"translation":[-0.17041264,1.6255746,1.1352816],"rotation":[-0.0,0.7071068,0.0,0.7071067],"name":"OPT006A - Optik Glass Pad Part [9209533]"},{"mesh":23,"translation":[-0.17041264,1.3715744,1.1352816],"rotation":[-0.0,0.7071068,0.0,0.7071067],"name":"OPT006A - Optik Glass Pad Part [9209539]"},{"mesh":23,"translation":[0.3625688,1.2598144,1.1352816],"rotation":[-0.0,0.7071068,0.0,0.7071067],"name":"OPT006A - Optik Glass Pad Part [9209568]"},{"mesh":23,"translation":[0.3625688,1.0058148,1.1352816],"rotation":[-0.0,0.7071068,0.0,0.7071067],"name":"OPT006A - Optik Glass Pad Part [9209574]"},{"mesh":23,"translation":[0.6281014,1.0769343,1.1352816],"rotation":[-0.0,0.7071068,0.0,0.7071067],"name":"OPT006A - Optik Glass Pad Part [9209603]"},{"mesh":23,"translation":[0.6281014,0.8229347,1.1352816],"rotation":[-0.0,0.7071068,0.0,0.7071067],"name":"OPT006A - Optik Glass Pad Part [9209609]"},{"mesh":23,"translation":[1.160441,0.7111746,1.1352816],"rotation":[-0.0,0.7071068,0.0,0.7071067],"name":"OPT006A - Optik Glass Pad Part [9209638]"},{"mesh":23,"translation":[1.160441,0.45717472,1.1352816],"rotation":[-0.0,0.7071068,0.0,0.7071067],"name":"OPT006A - Optik Glass Pad Part [9209644]"},{"mesh":23,"translation":[-1.2308595,1.721485,-1.0173312],"rotation":[-0.0,-0.7071068,0.0,0.7071067],"name":"OPT006A - Optik Glass Pad Part [9209848]"},{"mesh":23,"translation":[-1.2308595,1.4674848,-1.0173312],"rotation":[-0.0,-0.7071068,0.0,0.7071067],"name":"OPT006A - Optik Glass Pad Part [9209854]"},{"mesh":23,"translation":[-1.3668419,1.721485,0.99929917],"rotation":[-0.0,1.1188018E-14,0.0,1.0],"name":"OPT006A - Optik Glass Pad Part [9209918]"},{"mesh":23,"translation":[-1.3668419,1.4674848,0.99929917],"rotation":[-0.0,1.1188018E-14,0.0,1.0],"name":"OPT006A - Optik Glass Pad Part [9209924]"},{"mesh":23,"translation":[-1.3668419,1.721485,0.19232517],"rotation":[-0.0,1.1188018E-14,0.0,1.0],"name":"OPT006A - Optik Glass Pad Part [9210023]"},{"mesh":23,"translation":[-1.3668419,1.4674848,0.19232517],"rotation":[-0.0,1.1188018E-14,0.0,1.0],"name":"OPT006A - Optik Glass Pad Part [9210029]"},{"mesh":24,"translation":[-0.17010568,1.9913349,-0.068040326],"rotation":[-0.0,0.7071068,0.0,0.7071067],"name":"OPT006 - Optik Glass Pad Part [9209251]"},{"mesh":24,"translation":[-0.17010568,1.7373347,-0.068040326],"rotation":[-0.0,0.7071068,0.0,0.7071067],"name":"OPT006 - Optik Glass Pad Part [9209260]"},{"mesh":24,"translation":[0.3628432,2.3570948,-0.068040326],"rotation":[-0.0,0.7071068,0.0,0.7071067],"name":"OPT006 - Optik Glass Pad Part [9209289]"},{"mesh":24,"translation":[0.3628432,2.1030943,-0.068040326],"rotation":[-0.0,0.7071068,0.0,0.7071067],"name":"OPT006 - Optik Glass Pad Part [9209295]"},{"mesh":24,"translation":[0.6293153,2.5399747,-0.068040326],"rotation":[-0.0,0.7071068,0.0,0.7071067],"name":"OPT006 - Optik Glass Pad Part [9209324]"},{"mesh":24,"translation":[0.6293153,2.2859745,-0.068040326],"rotation":[-0.0,0.7071068,0.0,0.7071067],"name":"OPT006 - Optik Glass Pad Part [9209330]"},{"mesh":24,"translation":[1.4287456,3.0886145,-0.068040326],"rotation":[-0.0,0.7071068,0.0,0.7071067],"name":"OPT006 - Optik Glass Pad Part [9209359]"},{"mesh":24,"translation":[1.4287456,2.8346148,-0.068040326],"rotation":[-0.0,0.7071068,0.0,0.7071067],"name":"OPT006 - Optik Glass Pad Part [9209365]"},{"mesh":24,"translation":[-0.17041264,1.6255746,1.1511596],"rotation":[-0.0,0.7071068,0.0,0.7071067],"name":"OPT006 - Optik Glass Pad Part [9209534]"},{"mesh":24,"translation":[-0.17041264,1.3715744,1.1511596],"rotation":[-0.0,0.7071068,0.0,0.7071067],"name":"OPT006 - Optik Glass Pad Part [9209540]"},{"mesh":24,"translation":[0.3625688,1.2598144,1.1511596],"rotation":[-0.0,0.7071068,0.0,0.7071067],"name":"OPT006 - Optik Glass Pad Part [9209569]"},{"mesh":24,"translation":[0.3625688,1.0058148,1.1511596],"rotation":[-0.0,0.7071068,0.0,0.7071067],"name":"OPT006 - Optik Glass Pad Part [9209575]"},{"mesh":24,"translation":[0.6281014,1.0769343,1.1511596],"rotation":[-0.0,0.7071068,0.0,0.7071067],"name":"OPT006 - Optik Glass Pad Part [9209604]"},{"mesh":24,"translation":[0.6281014,0.8229347,1.1511596],"rotation":[-0.0,0.7071068,0.0,0.7071067],"name":"OPT006 - Optik Glass Pad Part [9209610]"},{"mesh":24,"translation":[1.160441,0.7111746,1.1511596],"rotation":[-0.0,0.7071068,0.0,0.7071067],"name":"OPT006 - Optik Glass Pad Part [9209639]"},{"mesh":24,"translation":[1.160441,0.45717472,1.1511596],"rotation":[-0.0,0.7071068,0.0,0.7071067],"name":"OPT006 - Optik Glass Pad Part [9209645]"},{"mesh":24,"translation":[-1.2308595,1.721485,-1.0332047],"rotation":[-0.0,-0.7071068,0.0,0.7071067],"name":"OPT006 - Optik Glass Pad Part [9209849]"},{"mesh":24,"translation":[-1.2308595,1.4674848,-1.0332047],"rotation":[-0.0,-0.7071068,0.0,0.7071067],"name":"OPT006 - Optik Glass Pad Part [9209855]"},{"mesh":24,"translation":[-1.3827107,1.721485,0.99929917],"rotation":[-0.0,1.1188018E-14,0.0,1.0],"name":"OPT006 - Optik Glass Pad Part [9209919]"},{"mesh":24,"translation":[-1.3827107,1.4674848,0.99929917],"rotation":[-0.0,1.1188018E-14,0.0,1.0],"name":"OPT006 - Optik Glass Pad Part [9209925]"},{"mesh":24,"translation":[-1.3827107,1.721485,0.19232517],"rotation":[-0.0,1.1188018E-14,0.0,1.0],"name":"OPT006 - Optik Glass Pad Part [9210024]"},{"mesh":24,"translation":[-1.3827107,1.4674848,0.19232517],"rotation":[-0.0,1.1188018E-14,0.0,1.0],"name":"OPT006 - Optik Glass Pad Part [9210030]"},{"mesh":25,"translation":[0.3628432,1.8288,-0.037563115],"rotation":[-0.5,-0.50000006,0.5,0.49999994],"name":"LS103 & LS116 - Circum Round Post Material LS Material [9209282]"},{"mesh":26,"translation":[0.6293153,2.01168,-0.037563115],"rotation":[-0.5,-0.50000006,0.5,0.49999994],"name":"LS103 & LS116 - Circum Round Post Material LS Material [9209317]"},{"mesh":27,"translation":[1.4287456,2.56032,-0.037563115],"rotation":[-0.5,-0.50000006,0.5,0.49999994],"name":"LS103 & LS116 - Circum Round Post Material LS Material [9209352]"},{"mesh":28,"translation":[-0.3870692,1.2801597,0.05897518],"rotation":[-0.0,-0.0,0.7071068,0.7071067],"name":"LS103 & LS116 - Circum Round Post Material LS Material [9209387]"},{"mesh":29,"translation":[0.3625688,0.7315199,0.15551813],"rotation":[0.5000001,0.49999997,0.49999985,0.50000006],"name":"LS103 & LS116 - Circum Round Post Material LS Material [9209422]"},{"mesh":30,"translation":[0.6281014,0.5486401,0.15551813],"rotation":[0.5000001,0.49999997,0.49999985,0.50000006],"name":"LS103 & LS116 - Circum Round Post Material LS Material [9209457]"},{"mesh":31,"translation":[1.160441,0.18288012,0.15551813],"rotation":[0.5000001,0.49999997,0.49999985,0.50000006],"name":"LS103 & LS116 - Circum Round Post Material LS Material [9209492]"},{"mesh":32,"translation":[-0.17041264,1.0972801,1.1816369],"rotation":[-0.5,-0.50000006,0.5,0.49999994],"name":"LS103 & LS116 - Circum Round Post Material LS Material [9209527]"},{"mesh":33,"translation":[0.3625688,0.7315199,1.1816369],"rotation":[-0.5,-0.50000006,0.5,0.49999994],"name":"LS103 & LS116 - Circum Round Post Material LS Material [9209562]"},{"mesh":34,"translation":[0.6281014,0.5486401,1.1816369],"rotation":[-0.5,-0.50000006,0.5,0.49999994],"name":"LS103 & LS116 - Circum Round Post Material LS Material [9209597]"},{"mesh":35,"translation":[1.160441,0.18288012,1.1816369],"rotation":[-0.5,-0.50000006,0.5,0.49999994],"name":"LS103 & LS116 - Circum Round Post Material LS Material [9209632]"},{"mesh":36,"translation":[0.3628432,1.8288,-1.0636818],"rotation":[0.5000001,0.49999997,0.49999985,0.50000006],"name":"LS103 & LS116 - Circum Round Post Material LS Material [9209667]"},{"mesh":37,"translation":[0.6293153,2.01168,-1.0636818],"rotation":[0.5000001,0.49999997,0.49999985,0.50000006],"name":"LS103 & LS116 - Circum Round Post Material LS Material [9209702]"},{"mesh":38,"translation":[1.4287456,2.56032,-1.0636818],"rotation":[0.5000001,0.49999997,0.49999985,0.50000006],"name":"LS103 & LS116 - Circum Round Post Material LS Material [9209737]"},{"mesh":39,"translation":[-0.44932586,1.2801597,-1.0636818],"rotation":[0.5000001,0.49999997,0.49999985,0.50000006],"name":"LS103 & LS116 - Circum Round Post Material LS Material [9209772]"},{"mesh":40,"translation":[-0.7160258,1.2801597,-1.0636818],"rotation":[0.5000001,0.49999997,0.49999985,0.50000006],"name":"LS103 & LS116 - Circum Round Post Material LS Material [9209807]"},{"mesh":41,"translation":[-1.2308595,1.2801597,-1.0636818],"rotation":[0.5000001,0.49999997,0.49999985,0.50000006],"name":"LS103 & LS116 - Circum Round Post Material LS Material [9209842]"},{"mesh":42,"translation":[-1.4131925,1.2801597,-0.88134885],"rotation":[-0.7071067,-0.7071068,1.784226E-07,1.784226E-07],"name":"LS103 & LS116 - Circum Round Post Material LS Material [9209877]"},{"mesh":43,"translation":[-1.4131925,1.2801597,0.99929917],"rotation":[-0.7071067,-0.7071068,-1.784226E-07,-1.784226E-07],"name":"LS103 & LS116 - Circum Round Post Material LS Material [9209912]"},{"mesh":44,"translation":[-1.2308595,1.2801597,1.1816369],"rotation":[-0.5,-0.50000006,0.5,0.49999994],"name":"LS103 & LS116 - Circum Round Post Material LS Material [9209947]"},{"mesh":45,"translation":[-1.4131925,1.2801597,-0.074374825],"rotation":[-0.7071067,-0.7071068,1.784226E-07,1.784226E-07],"name":"LS103 & LS116 - Circum Round Post Material LS Material [9209982]"},{"mesh":46,"translation":[-1.4131925,1.2801597,0.19232517],"rotation":[-0.7071067,-0.7071068,-1.784226E-07,-1.784226E-07],"name":"LS103 & LS116 - Circum Round Post Material LS Material [9210017]"},{"mesh":47,"translation":[-0.42388555,1.2801597,1.1816369],"rotation":[-0.5,-0.50000006,0.5,0.49999994],"name":"LS103 & LS116 - Circum Round Post Material LS Material [9210052]"},{"mesh":48,"translation":[-0.3870692,1.2801597,0.05897518],"name":"CIR080 - Cane Rail Surface Mount Part [8829721]020"},{"mesh":48,"translation":[-0.7160258,1.2801597,-1.0636818],"rotation":[-0.0,0.7071068,0.0,0.7071067],"name":"CIR080 - Cane Rail Surface Mount Part [8829721]021"},{"mesh":48,"translation":[-1.2308595,1.2801597,-1.0636818],"rotation":[-0.0,0.7071068,0.0,0.7071067],"name":"CIR080 - Cane Rail Surface Mount Part [8829721]022"},{"mesh":48,"translation":[-1.4131925,1.2801597,-0.88134885],"rotation":[-0.0,-1.0,0.0,2.8212997E-07],"name":"CIR080 - Cane Rail Surface Mount Part [8829721]023"},{"mesh":48,"translation":[-1.4131925,1.2801597,0.99929917],"rotation":[-0.0,-1.0,0.0,-2.8212997E-07],"name":"CIR080 - Cane Rail Surface Mount Part [8829721]024"},{"mesh":48,"translation":[-1.2308595,1.2801597,1.1816369],"rotation":[-0.0,-0.7071068,0.0,0.7071067],"name":"CIR080 - Cane Rail Surface Mount Part [8829721]025"},{"mesh":48,"translation":[-1.4131925,1.2801597,-0.074374825],"rotation":[-0.0,-1.0,0.0,2.8212997E-07],"name":"CIR080 - Cane Rail Surface Mount Part [8829721]026"},{"mesh":48,"translation":[-1.4131925,1.2801597,0.19232517],"rotation":[-0.0,-1.0,0.0,-2.8212997E-07],"name":"CIR080 - Cane Rail Surface Mount Part [8829721]027"},{"mesh":48,"translation":[-0.42388555,1.2801597,1.1816369],"rotation":[-0.0,-0.7071068,0.0,0.7071067],"name":"CIR080 - Cane Rail Surface Mount Part [8829721]028"},{"mesh":48,"translation":[-0.17041264,1.0972801,0.15551813],"rotation":[-0.0,0.7071068,0.0,0.7071067],"name":"CIR080 - Cane Rail Surface Mount Part [8829721]029"},{"mesh":48,"translation":[-0.17010568,1.4630404,-0.037563115],"rotation":[-0.0,-0.7071068,0.0,0.7071067],"name":"CIR080 - Cane Rail Surface Mount Part [8829721]030"},{"mesh":48,"translation":[0.3628432,1.8288,-0.037563115],"rotation":[-0.0,-0.7071068,0.0,0.7071067],"name":"CIR080 - Cane Rail Surface Mount Part [8829721]031"},{"mesh":48,"translation":[0.6293153,2.01168,-0.037563115],"rotation":[-0.0,-0.7071068,0.0,0.7071067],"name":"CIR080 - Cane Rail Surface Mount Part [8829721]032"},{"mesh":48,"translation":[1.4287456,2.56032,-0.037563115],"rotation":[-0.0,-0.7071068,0.0,0.7071067],"name":"CIR080 - Cane Rail Surface Mount Part [8829721]033"},{"mesh":48,"translation":[0.3625688,0.7315199,0.15551813],"rotation":[-0.0,0.7071068,0.0,0.7071067],"name":"CIR080 - Cane Rail Surface Mount Part [8829721]034"},{"mesh":48,"translation":[0.6281014,0.5486401,0.15551813],"rotation":[-0.0,0.7071068,0.0,0.7071067],"name":"CIR080 - Cane Rail Surface Mount Part [8829721]035"},{"mesh":48,"translation":[1.160441,0.18288012,0.15551813],"rotation":[-0.0,0.7071068,0.0,0.7071067],"name":"CIR080 - Cane Rail Surface Mount Part [8829721]036"},{"mesh":48,"translation":[-0.17041264,1.0972801,1.1816369],"rotation":[-0.0,-0.7071068,0.0,0.7071067],"name":"CIR080 - Cane Rail Surface Mount Part [8829721]037"},{"mesh":48,"translation":[0.3625688,0.7315199,1.1816369],"rotation":[-0.0,-0.7071068,0.0,0.7071067],"name":"CIR080 - Cane Rail Surface Mount Part [8829721]038"},{"mesh":48,"translation":[0.6281014,0.5486401,1.1816369],"rotation":[-0.0,-0.7071068,0.0,0.7071067],"name":"CIR080 - Cane Rail Surface Mount Part [8829721]039"},{"mesh":48,"translation":[1.160441,0.18288012,1.1816369],"rotation":[-0.0,-0.7071068,0.0,0.7071067],"name":"CIR080 - Cane Rail Surface Mount Part [8829721]040"},{"mesh":48,"translation":[0.3628432,1.8288,-1.0636818],"rotation":[-0.0,0.7071068,0.0,0.7071067],"name":"CIR080 - Cane Rail Surface Mount Part [8829721]041"},{"mesh":48,"translation":[0.6293153,2.01168,-1.0636818],"rotation":[-0.0,0.7071068,0.0,0.7071067],"name":"CIR080 - Cane Rail Surface Mount Part [8829721]042"},{"mesh":48,"translation":[1.4287456,2.56032,-1.0636818],"rotation":[-0.0,0.7071068,0.0,0.7071067],"name":"CIR080 - Cane Rail Surface Mount Part [8829721]043"},{"mesh":48,"translation":[-0.44932586,1.2801597,-1.0636818],"rotation":[-0.0,0.7071068,0.0,0.7071067],"name":"CIR080 - Cane Rail Surface Mount Part [8829721]044"}],"meshes":[{"primitives":[{"attributes":{"POSITION":1,"TANGENT":2,"NORMAL":3,"TEXCOORD_0":4},"indices":0,"material":0}],"name":"Infill_Glass_Raked & Horizontal Generic [8199751]"},{"primitives":[{"attributes":{"POSITION":6,"TANGENT":7,"NORMAL":8,"TEXCOORD_0":9},"indices":5,"material":0}],"name":"Infill_Glass_Raked & Horizontal Generic [8200579]"},{"primitives":[{"attributes":{"POSITION":11,"TANGENT":12,"NORMAL":13,"TEXCOORD_0":14},"indices":10,"material":0}],"name":"Infill_Glass_Raked & Horizontal Generic [8201308]"},{"primitives":[{"attributes":{"POSITION":16,"TANGENT":17,"NORMAL":18,"TEXCOORD_0":19},"indices":15,"material":0}],"name":"Infill_Glass_Transition Generic [8202170]"},{"primitives":[{"attributes":{"POSITION":21,"TANGENT":22,"NORMAL":23,"TEXCOORD_0":24},"indices":20,"material":0}],"name":"Infill_Glass_Raked & Horizontal Generic [8202939]"},{"primitives":[{"attributes":{"POSITION":26,"TANGENT":27,"NORMAL":28,"TEXCOORD_0":29},"indices":25,"material":1},{"attributes":{"POSITION":31,"TANGENT":32,"NORMAL":33,"TEXCOORD_0":34},"indices":30,"material":2}],"name":"Generic Models 1 Generic Models 1 [8568048]"},{"primitives":[{"attributes":{"POSITION":36,"TANGENT":37,"NORMAL":38,"TEXCOORD_0":39},"indices":35,"material":1},{"attributes":{"POSITION":41,"TANGENT":42,"NORMAL":43,"TEXCOORD_0":44},"indices":40,"material":2}],"name":"Generic Models 2 Generic Models 2 [8568681]"},{"primitives":[{"attributes":{"POSITION":46,"TANGENT":47,"NORMAL":48,"TEXCOORD_0":49},"indices":45,"material":0}],"name":"Infill_Glass_Raked & Horizontal Generic [8735940]"},{"primitives":[{"attributes":{"POSITION":51,"TANGENT":52,"NORMAL":53,"TEXCOORD_0":54},"indices":50,"material":1},{"attributes":{"POSITION":56,"TANGENT":57,"NORMAL":58,"TEXCOORD_0":59},"indices":55,"material":2}],"name":"Generic Models 10 Generic Models 1 [8735975]"},{"primitives":[{"attributes":{"POSITION":61,"TANGENT":62,"NORMAL":63,"TEXCOORD_0":64},"indices":60,"material":0}],"name":"Infill_Glass_Raked & Horizontal Generic [8736296]"},{"primitives":[{"attributes":{"POSITION":66,"TANGENT":67,"NORMAL":68,"TEXCOORD_0":69},"indices":65,"material":0}],"name":"Infill_Glass_Raked & Horizontal Generic [8737682]"},{"primitives":[{"attributes":{"POSITION":71,"TANGENT":72,"NORMAL":73,"TEXCOORD_0":74},"indices":70,"material":0}],"name":"Casework 1 Casework 1 [8738332]"},{"primitives":[{"attributes":{"POSITION":76,"TANGENT":77,"NORMAL":78,"TEXCOORD_0":79},"indices":75,"material":0}],"name":"Infill_Glass_Raked & Horizontal Generic [8738822]"},{"primitives":[{"attributes":{"POSITION":81,"TANGENT":82,"NORMAL":83,"TEXCOORD_0":84},"indices":80,"material":0}],"name":"Infill_Glass_Raked & Horizontal Generic [8739062]"},{"primitives":[{"attributes":{"POSITION":86,"TANGENT":87,"NORMAL":88,"TEXCOORD_0":89},"indices":85,"material":0}],"name":"Infill_Glass_Raked & Horizontal Generic [8739156]"},{"primitives":[{"attributes":{"POSITION":91,"TANGENT":92,"NORMAL":93,"TEXCOORD_0":94},"indices":90,"material":0}],"name":"Infill_Glass_Raked & Horizontal Generic [8739593]"},{"primitives":[{"attributes":{"POSITION":96,"TANGENT":97,"NORMAL":98,"TEXCOORD_0":99},"indices":95,"material":1},{"attributes":{"POSITION":101,"TANGENT":102,"NORMAL":103,"TEXCOORD_0":104},"indices":100,"material":2}],"name":"CIR006 - Post Cap Part [9209946]000"},{"primitives":[{"attributes":{"POSITION":106,"TANGENT":107,"NORMAL":108,"TEXCOORD_0":109},"indices":105,"material":1}],"name":"LS103 & LS116 - Circum Round Post Material LS Material [9209144]"},{"primitives":[{"attributes":{"POSITION":111,"TANGENT":112,"NORMAL":113,"TEXCOORD_0":114},"indices":110,"material":1},{"attributes":{"POSITION":116,"TANGENT":117,"NORMAL":118,"TEXCOORD_0":119},"indices":115,"material":2}],"name":"CIR088 - Circum Round Lo-Post Cope Part [9209257]048"},{"primitives":[{"attributes":{"POSITION":121,"TANGENT":122,"NORMAL":123,"TEXCOORD_0":124},"indices":120,"material":3}],"name":"OPT006A - Optik Glass Pad Part [9209158]"},{"primitives":[{"attributes":{"POSITION":126,"TANGENT":127,"NORMAL":128,"TEXCOORD_0":129},"indices":125,"material":3}],"name":"OPT006 - Optik Glass Pad Part [9209159]"},{"primitives":[{"attributes":{"POSITION":131,"TANGENT":132,"NORMAL":133,"TEXCOORD_0":134},"indices":130,"material":1},{"attributes":{"POSITION":136,"TANGENT":137,"NORMAL":138,"TEXCOORD_0":139},"indices":135,"material":2}],"name":"CIR087 - Circum Round Lo-Post Clamp Part [9209252]001"},{"primitives":[{"attributes":{"POSITION":141,"TANGENT":142,"NORMAL":143,"TEXCOORD_0":144},"indices":140,"material":1}],"name":"LS103 & LS116 - Circum Round Post Material LS Material [9209234]"},{"primitives":[{"attributes":{"POSITION":146,"TANGENT":147,"NORMAL":148,"TEXCOORD_0":149},"indices":145,"material":3}],"name":"OPT006A - Optik Glass Pad Part [9209250]"},{"primitives":[{"attributes":{"POSITION":151,"TANGENT":152,"NORMAL":153,"TEXCOORD_0":154},"indices":150,"material":3}],"name":"OPT006 - Optik Glass Pad Part [9209251]"},{"primitives":[{"attributes":{"POSITION":156,"TANGENT":157,"NORMAL":158,"TEXCOORD_0":159},"indices":155,"material":1}],"name":"LS103 & LS116 - Circum Round Post Material LS Material [9209282]"},{"primitives":[{"attributes":{"POSITION":161,"TANGENT":162,"NORMAL":163,"TEXCOORD_0":164},"indices":160,"material":1}],"name":"LS103 & LS116 - Circum Round Post Material LS Material [9209317]"},{"primitives":[{"attributes":{"POSITION":166,"TANGENT":167,"NORMAL":168,"TEXCOORD_0":169},"indices":165,"material":1}],"name":"LS103 & LS116 - Circum Round Post Material LS Material [9209352]"},{"primitives":[{"attributes":{"POSITION":171,"TANGENT":172,"NORMAL":173,"TEXCOORD_0":174},"indices":170,"material":1}],"name":"LS103 & LS116 - Circum Round Post Material LS Material [9209387]"},{"primitives":[{"attributes":{"POSITION":176,"TANGENT":177,"NORMAL":178,"TEXCOORD_0":179},"indices":175,"material":1}],"name":"LS103 & LS116 - Circum Round Post Material LS Material [9209422]"},{"primitives":[{"attributes":{"POSITION":181,"TANGENT":182,"NORMAL":183,"TEXCOORD_0":184},"indices":180,"material":1}],"name":"LS103 & LS116 - Circum Round Post Material LS Material [9209457]"},{"primitives":[{"attributes":{"POSITION":186,"TANGENT":187,"NORMAL":188,"TEXCOORD_0":189},"indices":185,"material":1}],"name":"LS103 & LS116 - Circum Round Post Material LS Material [9209492]"},{"primitives":[{"attributes":{"POSITION":191,"TANGENT":192,"NORMAL":193,"TEXCOORD_0":194},"indices":190,"material":1}],"name":"LS103 & LS116 - Circum Round Post Material LS Material [9209527]"},{"primitives":[{"attributes":{"POSITION":196,"TANGENT":197,"NORMAL":198,"TEXCOORD_0":199},"indices":195,"material":1}],"name":"LS103 & LS116 - Circum Round Post Material LS Material [9209562]"},{"primitives":[{"attributes":{"POSITION":201,"TANGENT":202,"NORMAL":203,"TEXCOORD_0":204},"indices":200,"material":1}],"name":"LS103 & LS116 - Circum Round Post Material LS Material [9209597]"},{"primitives":[{"attributes":{"POSITION":206,"TANGENT":207,"NORMAL":208,"TEXCOORD_0":209},"indices":205,"material":1}],"name":"LS103 & LS116 - Circum Round Post Material LS Material [9209632]"},{"primitives":[{"attributes":{"POSITION":211,"TANGENT":212,"NORMAL":213,"TEXCOORD_0":214},"indices":210,"material":1}],"name":"LS103 & LS116 - Circum Round Post Material LS Material [9209667]"},{"primitives":[{"attributes":{"POSITION":216,"TANGENT":217,"NORMAL":218,"TEXCOORD_0":219},"indices":215,"material":1}],"name":"LS103 & LS116 - Circum Round Post Material LS Material [9209702]"},{"primitives":[{"attributes":{"POSITION":221,"TANGENT":222,"NORMAL":223,"TEXCOORD_0":224},"indices":220,"material":1}],"name":"LS103 & LS116 - Circum Round Post Material LS Material [9209737]"},{"primitives":[{"attributes":{"POSITION":226,"TANGENT":227,"NORMAL":228,"TEXCOORD_0":229},"indices":225,"material":1}],"name":"LS103 & LS116 - Circum Round Post Material LS Material [9209772]"},{"primitives":[{"attributes":{"POSITION":231,"TANGENT":232,"NORMAL":233,"TEXCOORD_0":234},"indices":230,"material":1}],"name":"LS103 & LS116 - Circum Round Post Material LS Material [9209807]"},{"primitives":[{"attributes":{"POSITION":236,"TANGENT":237,"NORMAL":238,"TEXCOORD_0":239},"indices":235,"material":1}],"name":"LS103 & LS116 - Circum Round Post Material LS Material [9209842]"},{"primitives":[{"attributes":{"POSITION":241,"TANGENT":242,"NORMAL":243,"TEXCOORD_0":244},"indices":240,"material":1}],"name":"LS103 & LS116 - Circum Round Post Material LS Material [9209877]"},{"primitives":[{"attributes":{"POSITION":246,"TANGENT":247,"NORMAL":248,"TEXCOORD_0":249},"indices":245,"material":1}],"name":"LS103 & LS116 - Circum Round Post Material LS Material [9209912]"},{"primitives":[{"attributes":{"POSITION":251,"TANGENT":252,"NORMAL":253,"TEXCOORD_0":254},"indices":250,"material":1}],"name":"LS103 & LS116 - Circum Round Post Material LS Material [9209947]"},{"primitives":[{"attributes":{"POSITION":256,"TANGENT":257,"NORMAL":258,"TEXCOORD_0":259},"indices":255,"material":1}],"name":"LS103 & LS116 - Circum Round Post Material LS Material [9209982]"},{"primitives":[{"attributes":{"POSITION":261,"TANGENT":262,"NORMAL":263,"TEXCOORD_0":264},"indices":260,"material":1}],"name":"LS103 & LS116 - Circum Round Post Material LS Material [9210017]"},{"primitives":[{"attributes":{"POSITION":266,"TANGENT":267,"NORMAL":268,"TEXCOORD_0":269},"indices":265,"material":1}],"name":"LS103 & LS116 - Circum Round Post Material LS Material [9210052]"},{"primitives":[{"attributes":{"POSITION":271,"TANGENT":272,"NORMAL":273,"TEXCOORD_0":274},"indices":270,"material":1},{"attributes":{"POSITION":276,"TANGENT":277,"NORMAL":278,"TEXCOORD_0":279},"indices":275,"material":2}],"name":"CIR080 - Cane Rail Surface Mount Part [8829721]020"}],"accessors":[{"bufferView":0,"componentType":5123,"count":132,"type":"SCALAR","name":"accessorIndices"},{"bufferView":1,"componentType":5126,"count":82,"max":[0.67253757,0.76435065,0.0071501],"min":[-0.22733863,-0.7504923,-0.0071501],"type":"VEC3","name":"accessorPositions"},{"bufferView":2,"componentType":5126,"count":82,"type":"VEC4","name":"accessorTangents"},{"bufferView":1,"byteOffset":984,"componentType":5126,"count":82,"type":"VEC3","name":"accessorNormals"},{"bufferView":3,"componentType":5126,"count":82,"type":"VEC2","name":"accessorUVs"},{"bufferView":0,"byteOffset":264,"componentType":5123,"count":132,"type":"SCALAR","name":"accessorIndices"},{"bufferView":1,"byteOffset":1968,"componentType":5126,"count":82,"max":[0.16510001,0.41611978,0.0071501],"min":[-0.9136126,-1.2214502,-0.0071501],"type":"VEC3","name":"accessorPositions"},{"bufferView":2,"byteOffset":1312,"componentType":5126,"count":82,"type":"VEC4","name":"accessorTangents"},{"bufferView":1,"byteOffset":2952,"componentType":5126,"count":82,"type":"VEC3","name":"accessorNormals"},{"bufferView":3,"byteOffset":656,"componentType":5126,"count":82,"type":"VEC2","name":"accessorUVs"},{"bufferView":0,"byteOffset":528,"componentType":5123,"count":132,"type":"SCALAR","name":"accessorIndices"},{"bufferView":1,"byteOffset":3936,"componentType":5126,"count":96,"max":[0.2519172,0.1524,0.0071501],"min":[0.012700001,-0.701675,-0.0071501],"type":"VEC3","name":"accessorPositions"},{"bufferView":2,"byteOffset":2624,"componentType":5126,"count":96,"type":"VEC4","name":"accessorTangents"},{"bufferView":1,"byteOffset":5088,"componentType":5126,"count":96,"type":"VEC3","name":"accessorNormals"},{"bufferView":3,"byteOffset":1312,"componentType":5126,"count":96,"type":"VEC2","name":"accessorUVs"},{"bufferView":0,"byteOffset":792,"componentType":5123,"count":204,"type":"SCALAR","name":"accessorIndices"},{"bufferView":1,"byteOffset":6240,"componentType":5126,"count":126,"max":[0.77951753,0.0071501,1.4337071],"min":[-0.119604975,-0.0071501,5.266659E-14],"type":"VEC3","name":"accessorPositions"},{"bufferView":2,"byteOffset":4160,"componentType":5126,"count":126,"type":"VEC4","name":"accessorTangents"},{"bufferView":1,"byteOffset":7752,"componentType":5126,"count":126,"type":"VEC3","name":"accessorNormals"},{"bufferView":3,"byteOffset":2080,"componentType":5126,"count":126,"type":"VEC2","name":"accessorUVs"},{"bufferView":0,"byteOffset":1200,"componentType":5123,"count":132,"type":"SCALAR","name":"accessorIndices"},{"bufferView":1,"byteOffset":9264,"componentType":5126,"count":82,"max":[0.3937,0.71999997,0.0071501],"min":[-0.4111075,-0.730215,-0.0071501],"type":"VEC3","name":"accessorPositions"},{"bufferView":2,"byteOffset":6176,"componentType":5126,"count":82,"type":"VEC4","name":"accessorTangents"},{"bufferView":1,"byteOffset":10248,"componentType":5126,"count":82,"type":"VEC3","name":"accessorNormals"},{"bufferView":3,"byteOffset":3088,"componentType":5126,"count":82,"type":"VEC2","name":"accessorUVs"},{"bufferView":0,"byteOffset":1464,"componentType":5123,"count":108051,"type":"SCALAR","name":"accessorIndices"},{"bufferView":1,"byteOffset":11232,"componentType":5126,"count":21198,"max":[-27.580276,2.2050376,-27.066988],"min":[-29.340061,1.0594896,-27.3472],"type":"VEC3","name":"accessorPositions"},{"bufferView":2,"byteOffset":7488,"componentType":5126,"count":21198,"type":"VEC4","name":"accessorTangents"},{"bufferView":1,"byteOffset":265608,"componentType":5126,"count":21198,"type":"VEC3","name":"accessorNormals"},{"bufferView":3,"byteOffset":3744,"componentType":5126,"count":21198,"type":"VEC2","name":"accessorUVs"},{"bufferView":0,"byteOffset":217568,"componentType":5123,"count":456,"type":"SCALAR","name":"accessorIndices"},{"bufferView":1,"byteOffset":519984,"componentType":5126,"count":156,"max":[-27.580276,2.2050376,-27.067],"min":[-29.340061,1.0594896,-27.3472],"type":"VEC3","name":"accessorPositions"},{"bufferView":2,"byteOffset":346656,"componentType":5126,"count":156,"type":"VEC4","name":"accessorTangents"},{"bufferView":1,"byteOffset":521856,"componentType":5126,"count":156,"type":"VEC3","name":"accessorNormals"},{"bufferView":3,"byteOffset":173328,"componentType":5126,"count":156,"type":"VEC2","name":"accessorUVs"},{"bufferView":0,"byteOffset":218480,"componentType":5123,"count":110832,"type":"SCALAR","name":"accessorIndices"},{"bufferView":1,"byteOffset":523728,"componentType":5126,"count":21175,"max":[-27.30563,3.696539,-27.338488],"min":[-29.312819,2.275086,-27.376598],"type":"VEC3","name":"accessorPositions"},{"bufferView":2,"byteOffset":349152,"componentType":5126,"count":21175,"type":"VEC4","name":"accessorTangents"},{"bufferView":1,"byteOffset":777828,"componentType":5126,"count":21175,"type":"VEC3","name":"accessorNormals"},{"bufferView":3,"byteOffset":174576,"componentType":5126,"count":21175,"type":"VEC2","name":"accessorUVs"},{"bufferView":0,"byteOffset":440144,"componentType":5123,"count":492,"type":"SCALAR","name":"accessorIndices"},{"bufferView":1,"byteOffset":1031928,"componentType":5126,"count":168,"max":[-27.30563,3.696539,-27.338488],"min":[-29.312819,2.275086,-27.376587],"type":"VEC3","name":"accessorPositions"},{"bufferView":2,"byteOffset":687952,"componentType":5126,"count":168,"type":"VEC4","name":"accessorTangents"},{"bufferView":1,"byteOffset":1033944,"componentType":5126,"count":168,"type":"VEC3","name":"accessorNormals"},{"bufferView":3,"byteOffset":343976,"componentType":5126,"count":168,"type":"VEC2","name":"accessorUVs"},{"bufferView":0,"byteOffset":441128,"componentType":5123,"count":132,"type":"SCALAR","name":"accessorIndices"},{"bufferView":1,"byteOffset":1035960,"componentType":5126,"count":82,"max":[0.3937,0.71999997,0.0071501],"min":[-0.4111075,-0.730215,-0.0071501],"type":"VEC3","name":"accessorPositions"},{"bufferView":2,"byteOffset":690640,"componentType":5126,"count":82,"type":"VEC4","name":"accessorTangents"},{"bufferView":1,"byteOffset":1036944,"componentType":5126,"count":82,"type":"VEC3","name":"accessorNormals"},{"bufferView":3,"byteOffset":345320,"componentType":5126,"count":82,"type":"VEC2","name":"accessorUVs"},{"bufferView":0,"byteOffset":441392,"componentType":5125,"count":388239,"type":"SCALAR","name":"accessorIndices"},{"bufferView":1,"byteOffset":1037928,"componentType":5126,"count":73560,"max":[-27.30563,3.6965744,-26.119287],"min":[-30.287746,1.0594137,-28.324299],"type":"VEC3","name":"accessorPositions"},{"bufferView":2,"byteOffset":691952,"componentType":5126,"count":73560,"type":"VEC4","name":"accessorTangents"},{"bufferView":1,"byteOffset":1920648,"componentType":5126,"count":73560,"type":"VEC3","name":"accessorNormals"},{"bufferView":3,"byteOffset":345976,"componentType":5126,"count":73560,"type":"VEC2","name":"accessorUVs"},{"bufferView":0,"byteOffset":1994348,"componentType":5125,"count":492,"type":"SCALAR","name":"accessorIndices"},{"bufferView":1,"byteOffset":2803368,"componentType":5126,"count":168,"max":[-27.30563,3.6965744,-26.119287],"min":[-27.580276,1.0594137,-28.324299],"type":"VEC3","name":"accessorPositions"},{"bufferView":2,"byteOffset":1868912,"componentType":5126,"count":168,"type":"VEC4","name":"accessorTangents"},{"bufferView":1,"byteOffset":2805384,"componentType":5126,"count":168,"type":"VEC3","name":"accessorNormals"},{"bufferView":3,"byteOffset":934456,"componentType":5126,"count":168,"type":"VEC2","name":"accessorUVs"},{"bufferView":0,"byteOffset":1996316,"componentType":5123,"count":132,"type":"SCALAR","name":"accessorIndices"},{"bufferView":1,"byteOffset":2807400,"componentType":5126,"count":82,"max":[0.16510001,0.41611978,0.0071501],"min":[-0.9136126,-1.2214502,-0.0071501],"type":"VEC3","name":"accessorPositions"},{"bufferView":2,"byteOffset":1871600,"componentType":5126,"count":82,"type":"VEC4","name":"accessorTangents"},{"bufferView":1,"byteOffset":2808384,"componentType":5126,"count":82,"type":"VEC3","name":"accessorNormals"},{"bufferView":3,"byteOffset":935800,"componentType":5126,"count":82,"type":"VEC2","name":"accessorUVs"},{"bufferView":0,"byteOffset":1996580,"componentType":5123,"count":132,"type":"SCALAR","name":"accessorIndices"},{"bufferView":1,"byteOffset":2809368,"componentType":5126,"count":96,"max":[0.40886727,0.3245767,0.0071501],"min":[-0.35996616,-0.52949834,-0.0071501],"type":"VEC3","name":"accessorPositions"},{"bufferView":2,"byteOffset":1872912,"componentType":5126,"count":96,"type":"VEC4","name":"accessorTangents"},{"bufferView":1,"byteOffset":2810520,"componentType":5126,"count":96,"type":"VEC3","name":"accessorNormals"},{"bufferView":3,"byteOffset":936456,"componentType":5126,"count":96,"type":"VEC2","name":"accessorUVs"},{"bufferView":0,"byteOffset":1996844,"componentType":5123,"count":168,"type":"SCALAR","name":"accessorIndices"},{"bufferView":1,"byteOffset":2811672,"componentType":5126,"count":99,"max":[-28.40499,2.929653,-28.298086],"min":[-29.471046,1.3404851,-28.312412],"type":"VEC3","name":"accessorPositions"},{"bufferView":2,"byteOffset":1874448,"componentType":5126,"count":99,"type":"VEC4","name":"accessorTangents"},{"bufferView":1,"byteOffset":2812860,"componentType":5126,"count":99,"type":"VEC3","name":"accessorNormals"},{"bufferView":3,"byteOffset":937224,"componentType":5126,"count":99,"type":"VEC2","name":"accessorUVs"},{"bufferView":0,"byteOffset":1997180,"componentType":5123,"count":132,"type":"SCALAR","name":"accessorIndices"},{"bufferView":1,"byteOffset":2814048,"componentType":5126,"count":96,"max":[0.70101464,0.3245767,0.0071501],"min":[-0.35996616,-0.52949834,-0.0071501],"type":"VEC3","name":"accessorPositions"},{"bufferView":2,"byteOffset":1876032,"componentType":5126,"count":96,"type":"VEC4","name":"accessorTangents"},{"bufferView":1,"byteOffset":2815200,"componentType":5126,"count":96,"type":"VEC3","name":"accessorNormals"},{"bufferView":3,"byteOffset":938016,"componentType":5126,"count":96,"type":"VEC2","name":"accessorUVs"},{"bufferView":0,"byteOffset":1997444,"componentType":5123,"count":132,"type":"SCALAR","name":"accessorIndices"},{"bufferView":1,"byteOffset":2816352,"componentType":5126,"count":96,"max":[0.70101464,0.3245767,0.0071501],"min":[-0.35996616,-0.52949834,-0.0071501],"type":"VEC3","name":"accessorPositions"},{"bufferView":2,"byteOffset":1877568,"componentType":5126,"count":96,"type":"VEC4","name":"accessorTangents"},{"bufferView":1,"byteOffset":2817504,"componentType":5126,"count":96,"type":"VEC3","name":"accessorNormals"},{"bufferView":3,"byteOffset":938784,"componentType":5126,"count":96,"type":"VEC2","name":"accessorUVs"},{"bufferView":0,"byteOffset":1997708,"componentType":5123,"count":132,"type":"SCALAR","name":"accessorIndices"},{"bufferView":1,"byteOffset":2818656,"componentType":5126,"count":96,"max":[0.7010096,0.3245767,0.0071501],"min":[-0.35996616,-0.52949834,-0.0071501],"type":"VEC3","name":"accessorPositions"},{"bufferView":2,"byteOffset":1879104,"componentType":5126,"count":96,"type":"VEC4","name":"accessorTangents"},{"bufferView":1,"byteOffset":2819808,"componentType":5126,"count":96,"type":"VEC3","name":"accessorNormals"},{"bufferView":3,"byteOffset":939552,"componentType":5126,"count":96,"type":"VEC2","name":"accessorUVs"},{"bufferView":0,"byteOffset":1997972,"componentType":5123,"count":132,"type":"SCALAR","name":"accessorIndices"},{"bufferView":1,"byteOffset":2820960,"componentType":5126,"count":82,"max":[0.38105503,0.71131253,0.0071501],"min":[-0.39211252,-0.71716493,-0.0071501],"type":"VEC3","name":"accessorPositions"},{"bufferView":2,"byteOffset":1880640,"componentType":5126,"count":82,"type":"VEC4","name":"accessorTangents"},{"bufferView":1,"byteOffset":2821944,"componentType":5126,"count":82,"type":"VEC3","name":"accessorNormals"},{"bufferView":3,"byteOffset":940320,"componentType":5126,"count":82,"type":"VEC2","name":"accessorUVs"},{"bufferView":0,"byteOffset":1998236,"componentType":5123,"count":480,"type":"SCALAR","name":"accessorIndices"},{"bufferView":1,"byteOffset":2822928,"componentType":5126,"count":162,"max":[0.02413,0.0027432,0.02413],"min":[-0.02413,-3.3027448E-14,-0.02413],"type":"VEC3","name":"accessorPositions"},{"bufferView":2,"byteOffset":1881952,"componentType":5126,"count":162,"type":"VEC4","name":"accessorTangents"},{"bufferView":1,"byteOffset":2824872,"componentType":5126,"count":162,"type":"VEC3","name":"accessorNormals"},{"bufferView":3,"byteOffset":940976,"componentType":5126,"count":162,"type":"VEC2","name":"accessorUVs"},{"bufferView":0,"byteOffset":1999196,"componentType":5123,"count":1926,"type":"SCALAR","name":"accessorIndices"},{"bufferView":1,"byteOffset":2826816,"componentType":5126,"count":404,"max":[0.02413,0.008763,0.02413],"min":[-0.02413,-3.3027448E-14,-0.02413],"type":"VEC3","name":"accessorPositions"},{"bufferView":2,"byteOffset":1884544,"componentType":5126,"count":404,"type":"VEC4","name":"accessorTangents"},{"bufferView":1,"byteOffset":2831664,"componentType":5126,"count":404,"type":"VEC3","name":"accessorNormals"},{"bufferView":3,"byteOffset":942272,"componentType":5126,"count":404,"type":"VEC2","name":"accessorUVs"},{"bufferView":0,"byteOffset":2003048,"componentType":5123,"count":852,"type":"SCALAR","name":"accessorIndices"},{"bufferView":1,"byteOffset":2836512,"componentType":5126,"count":288,"max":[0.5568696,0.02413,0.02413],"min":[6.328005E-15,-0.02413,-0.02413],"type":"VEC3","name":"accessorPositions"},{"bufferView":2,"byteOffset":1891008,"componentType":5126,"count":288,"type":"VEC4","name":"accessorTangents"},{"bufferView":1,"byteOffset":2839968,"componentType":5126,"count":288,"type":"VEC3","name":"accessorNormals"},{"bufferView":3,"byteOffset":945504,"componentType":5126,"count":288,"type":"VEC2","name":"accessorUVs"},{"bufferView":0,"byteOffset":2004752,"componentType":5123,"count":882,"type":"SCALAR","name":"accessorIndices"},{"bufferView":1,"byteOffset":2843424,"componentType":5126,"count":300,"max":[0.030480001,0.01905,0.01905],"min":[0.014810618,-0.01905,-0.01905],"type":"VEC3","name":"accessorPositions"},{"bufferView":2,"byteOffset":1895616,"componentType":5126,"count":300,"type":"VEC4","name":"accessorTangents"},{"bufferView":1,"byteOffset":2847024,"componentType":5126,"count":300,"type":"VEC3","name":"accessorNormals"},{"bufferView":3,"byteOffset":947808,"componentType":5126,"count":300,"type":"VEC2","name":"accessorUVs"},{"bufferView":0,"byteOffset":2006516,"componentType":5123,"count":210,"type":"SCALAR","name":"accessorIndices"},{"bufferView":1,"byteOffset":2850624,"componentType":5126,"count":72,"max":[0.030480001,0.01905,0.01905],"min":[0.030480001,-0.01905,-0.01905],"type":"VEC3","name":"accessorPositions"},{"bufferView":2,"byteOffset":1900416,"componentType":5126,"count":72,"type":"VEC4","name":"accessorTangents"},{"bufferView":1,"byteOffset":2851488,"componentType":5126,"count":72,"type":"VEC3","name":"accessorNormals"},{"bufferView":3,"byteOffset":950208,"componentType":5126,"count":72,"type":"VEC2","name":"accessorUVs"},{"bufferView":0,"byteOffset":2006936,"componentType":5123,"count":1728,"type":"SCALAR","name":"accessorIndices"},{"bufferView":1,"byteOffset":2852352,"componentType":5126,"count":580,"max":[0.0015748,0.0142875,0.0142875],"min":[1.8652728E-14,-0.0142875,-0.0142875],"type":"VEC3","name":"accessorPositions"},{"bufferView":2,"byteOffset":1901568,"componentType":5126,"count":580,"type":"VEC4","name":"accessorTangents"},{"bufferView":1,"byteOffset":2859312,"componentType":5126,"count":580,"type":"VEC3","name":"accessorNormals"},{"bufferView":3,"byteOffset":950784,"componentType":5126,"count":580,"type":"VEC2","name":"accessorUVs"},{"bufferView":0,"byteOffset":2010392,"componentType":5123,"count":1728,"type":"SCALAR","name":"accessorIndices"},{"bufferView":1,"byteOffset":2866272,"componentType":5126,"count":580,"max":[0.0015748,0.0142875,0.0142875],"min":[1.8652728E-14,-0.0142875,-0.0142875],"type":"VEC3","name":"accessorPositions"},{"bufferView":2,"byteOffset":1910848,"componentType":5126,"count":580,"type":"VEC4","name":"accessorTangents"},{"bufferView":1,"byteOffset":2873232,"componentType":5126,"count":580,"type":"VEC3","name":"accessorNormals"},{"bufferView":3,"byteOffset":955424,"componentType":5126,"count":580,"type":"VEC2","name":"accessorUVs"},{"bufferView":0,"byteOffset":2013848,"componentType":5123,"count":864,"type":"SCALAR","name":"accessorIndices"},{"bufferView":1,"byteOffset":2880192,"componentType":5126,"count":386,"max":[0.020017384,0.01905,0.01905],"min":[-0.0063500004,-0.01905,-0.01905],"type":"VEC3","name":"accessorPositions"},{"bufferView":2,"byteOffset":1920128,"componentType":5126,"count":386,"type":"VEC4","name":"accessorTangents"},{"bufferView":1,"byteOffset":2884824,"componentType":5126,"count":386,"type":"VEC3","name":"accessorNormals"},{"bufferView":3,"byteOffset":960064,"componentType":5126,"count":386,"type":"VEC2","name":"accessorUVs"},{"bufferView":0,"byteOffset":2015576,"componentType":5123,"count":858,"type":"SCALAR","name":"accessorIndices"},{"bufferView":1,"byteOffset":2889456,"componentType":5126,"count":289,"max":[0.020017384,0.01905,0.01905],"min":[-0.0063500004,-0.01905,-0.01905],"type":"VEC3","name":"accessorPositions"},{"bufferView":2,"byteOffset":1926304,"componentType":5126,"count":289,"type":"VEC4","name":"accessorTangents"},{"bufferView":1,"byteOffset":2892924,"componentType":5126,"count":289,"type":"VEC3","name":"accessorNormals"},{"bufferView":3,"byteOffset":963152,"componentType":5126,"count":289,"type":"VEC2","name":"accessorUVs"},{"bufferView":0,"byteOffset":2017292,"componentType":5123,"count":852,"type":"SCALAR","name":"accessorIndices"},{"bufferView":1,"byteOffset":2896392,"componentType":5126,"count":288,"max":[0.5568696,0.02413,0.02413],"min":[6.328005E-15,-0.02413,-0.02413],"type":"VEC3","name":"accessorPositions"},{"bufferView":2,"byteOffset":1930928,"componentType":5126,"count":288,"type":"VEC4","name":"accessorTangents"},{"bufferView":1,"byteOffset":2899848,"componentType":5126,"count":288,"type":"VEC3","name":"accessorNormals"},{"bufferView":3,"byteOffset":965464,"componentType":5126,"count":288,"type":"VEC2","name":"accessorUVs"},{"bufferView":0,"byteOffset":2018996,"componentType":5123,"count":1728,"type":"SCALAR","name":"accessorIndices"},{"bufferView":1,"byteOffset":2903304,"componentType":5126,"count":580,"max":[0.0015748,0.0142875,0.0142875],"min":[1.8652728E-14,-0.0142875,-0.0142875],"type":"VEC3","name":"accessorPositions"},{"bufferView":2,"byteOffset":1935536,"componentType":5126,"count":580,"type":"VEC4","name":"accessorTangents"},{"bufferView":1,"byteOffset":2910264,"componentType":5126,"count":580,"type":"VEC3","name":"accessorNormals"},{"bufferView":3,"byteOffset":967768,"componentType":5126,"count":580,"type":"VEC2","name":"accessorUVs"},{"bufferView":0,"byteOffset":2022452,"componentType":5123,"count":1728,"type":"SCALAR","name":"accessorIndices"},{"bufferView":1,"byteOffset":2917224,"componentType":5126,"count":580,"max":[0.0015748,0.0142875,0.0142875],"min":[1.8652728E-14,-0.0142875,-0.0142875],"type":"VEC3","name":"accessorPositions"},{"bufferView":2,"byteOffset":1944816,"componentType":5126,"count":580,"type":"VEC4","name":"accessorTangents"},{"bufferView":1,"byteOffset":2924184,"componentType":5126,"count":580,"type":"VEC3","name":"accessorNormals"},{"bufferView":3,"byteOffset":972408,"componentType":5126,"count":580,"type":"VEC2","name":"accessorUVs"},{"bufferView":0,"byteOffset":2025908,"componentType":5123,"count":852,"type":"SCALAR","name":"accessorIndices"},{"bufferView":1,"byteOffset":2931144,"componentType":5126,"count":288,"max":[0.5568696,0.02413,0.02413],"min":[6.328005E-15,-0.02413,-0.02413],"type":"VEC3","name":"accessorPositions"},{"bufferView":2,"byteOffset":1954096,"componentType":5126,"count":288,"type":"VEC4","name":"accessorTangents"},{"bufferView":1,"byteOffset":2934600,"componentType":5126,"count":288,"type":"VEC3","name":"accessorNormals"},{"bufferView":3,"byteOffset":977048,"componentType":5126,"count":288,"type":"VEC2","name":"accessorUVs"},{"bufferView":0,"byteOffset":2027612,"componentType":5123,"count":852,"type":"SCALAR","name":"accessorIndices"},{"bufferView":1,"byteOffset":2938056,"componentType":5126,"count":288,"max":[0.5568696,0.02413,0.02413],"min":[6.328005E-15,-0.02413,-0.02413],"type":"VEC3","name":"accessorPositions"},{"bufferView":2,"byteOffset":1958704,"componentType":5126,"count":288,"type":"VEC4","name":"accessorTangents"},{"bufferView":1,"byteOffset":2941512,"componentType":5126,"count":288,"type":"VEC3","name":"accessorNormals"},{"bufferView":3,"byteOffset":979352,"componentType":5126,"count":288,"type":"VEC2","name":"accessorUVs"},{"bufferView":0,"byteOffset":2029316,"componentType":5123,"count":852,"type":"SCALAR","name":"accessorIndices"},{"bufferView":1,"byteOffset":2944968,"componentType":5126,"count":288,"max":[0.5568696,0.02413,0.02413],"min":[6.328005E-15,-0.02413,-0.02413],"type":"VEC3","name":"accessorPositions"},{"bufferView":2,"byteOffset":1963312,"componentType":5126,"count":288,"type":"VEC4","name":"accessorTangents"},{"bufferView":1,"byteOffset":2948424,"componentType":5126,"count":288,"type":"VEC3","name":"accessorNormals"},{"bufferView":3,"byteOffset":981656,"componentType":5126,"count":288,"type":"VEC2","name":"accessorUVs"},{"bufferView":0,"byteOffset":2031020,"componentType":5123,"count":852,"type":"SCALAR","name":"accessorIndices"},{"bufferView":1,"byteOffset":2951880,"componentType":5126,"count":288,"max":[0.46989998,0.02413,0.02413],"min":[6.328005E-15,-0.02413,-0.02413],"type":"VEC3","name":"accessorPositions"},{"bufferView":2,"byteOffset":1967920,"componentType":5126,"count":288,"type":"VEC4","name":"accessorTangents"},{"bufferView":1,"byteOffset":2955336,"componentType":5126,"count":288,"type":"VEC3","name":"accessorNormals"},{"bufferView":3,"byteOffset":983960,"componentType":5126,"count":288,"type":"VEC2","name":"accessorUVs"},{"bufferView":0,"byteOffset":2032724,"componentType":5123,"count":852,"type":"SCALAR","name":"accessorIndices"},{"bufferView":1,"byteOffset":2958792,"componentType":5126,"count":288,"max":[0.5568696,0.02413,0.02413],"min":[6.328005E-15,-0.02413,-0.02413],"type":"VEC3","name":"accessorPositions"},{"bufferView":2,"byteOffset":1972528,"componentType":5126,"count":288,"type":"VEC4","name":"accessorTangents"},{"bufferView":1,"byteOffset":2962248,"componentType":5126,"count":288,"type":"VEC3","name":"accessorNormals"},{"bufferView":3,"byteOffset":986264,"componentType":5126,"count":288,"type":"VEC2","name":"accessorUVs"},{"bufferView":0,"byteOffset":2034428,"componentType":5123,"count":852,"type":"SCALAR","name":"accessorIndices"},{"bufferView":1,"byteOffset":2965704,"componentType":5126,"count":288,"max":[0.5568696,0.02413,0.02413],"min":[6.328005E-15,-0.02413,-0.02413],"type":"VEC3","name":"accessorPositions"},{"bufferView":2,"byteOffset":1977136,"componentType":5126,"count":288,"type":"VEC4","name":"accessorTangents"},{"bufferView":1,"byteOffset":2969160,"componentType":5126,"count":288,"type":"VEC3","name":"accessorNormals"},{"bufferView":3,"byteOffset":988568,"componentType":5126,"count":288,"type":"VEC2","name":"accessorUVs"},{"bufferView":0,"byteOffset":2036132,"componentType":5123,"count":852,"type":"SCALAR","name":"accessorIndices"},{"bufferView":1,"byteOffset":2972616,"componentType":5126,"count":288,"max":[0.5568696,0.02413,0.02413],"min":[6.328005E-15,-0.02413,-0.02413],"type":"VEC3","name":"accessorPositions"},{"bufferView":2,"byteOffset":1981744,"componentType":5126,"count":288,"type":"VEC4","name":"accessorTangents"},{"bufferView":1,"byteOffset":2976072,"componentType":5126,"count":288,"type":"VEC3","name":"accessorNormals"},{"bufferView":3,"byteOffset":990872,"componentType":5126,"count":288,"type":"VEC2","name":"accessorUVs"},{"bufferView":0,"byteOffset":2037836,"componentType":5123,"count":852,"type":"SCALAR","name":"accessorIndices"},{"bufferView":1,"byteOffset":2979528,"componentType":5126,"count":288,"max":[0.5568696,0.02413,0.02413],"min":[6.328005E-15,-0.02413,-0.02413],"type":"VEC3","name":"accessorPositions"},{"bufferView":2,"byteOffset":1986352,"componentType":5126,"count":288,"type":"VEC4","name":"accessorTangents"},{"bufferView":1,"byteOffset":2982984,"componentType":5126,"count":288,"type":"VEC3","name":"accessorNormals"},{"bufferView":3,"byteOffset":993176,"componentType":5126,"count":288,"type":"VEC2","name":"accessorUVs"},{"bufferView":0,"byteOffset":2039540,"componentType":5123,"count":852,"type":"SCALAR","name":"accessorIndices"},{"bufferView":1,"byteOffset":2986440,"componentType":5126,"count":288,"max":[0.5568696,0.02413,0.02413],"min":[6.328005E-15,-0.02413,-0.02413],"type":"VEC3","name":"accessorPositions"},{"bufferView":2,"byteOffset":1990960,"componentType":5126,"count":288,"type":"VEC4","name":"accessorTangents"},{"bufferView":1,"byteOffset":2989896,"componentType":5126,"count":288,"type":"VEC3","name":"accessorNormals"},{"bufferView":3,"byteOffset":995480,"componentType":5126,"count":288,"type":"VEC2","name":"accessorUVs"},{"bufferView":0,"byteOffset":2041244,"componentType":5123,"count":852,"type":"SCALAR","name":"accessorIndices"},{"bufferView":1,"byteOffset":2993352,"componentType":5126,"count":288,"max":[0.5568696,0.02413,0.02413],"min":[6.328005E-15,-0.02413,-0.02413],"type":"VEC3","name":"accessorPositions"},{"bufferView":2,"byteOffset":1995568,"componentType":5126,"count":288,"type":"VEC4","name":"accessorTangents"},{"bufferView":1,"byteOffset":2996808,"componentType":5126,"count":288,"type":"VEC3","name":"accessorNormals"},{"bufferView":3,"byteOffset":997784,"componentType":5126,"count":288,"type":"VEC2","name":"accessorUVs"},{"bufferView":0,"byteOffset":2042948,"componentType":5123,"count":852,"type":"SCALAR","name":"accessorIndices"},{"bufferView":1,"byteOffset":3000264,"componentType":5126,"count":288,"max":[0.5568696,0.02413,0.02413],"min":[6.328005E-15,-0.02413,-0.02413],"type":"VEC3","name":"accessorPositions"},{"bufferView":2,"byteOffset":2000176,"componentType":5126,"count":288,"type":"VEC4","name":"accessorTangents"},{"bufferView":1,"byteOffset":3003720,"componentType":5126,"count":288,"type":"VEC3","name":"accessorNormals"},{"bufferView":3,"byteOffset":1000088,"componentType":5126,"count":288,"type":"VEC2","name":"accessorUVs"},{"bufferView":0,"byteOffset":2044652,"componentType":5123,"count":852,"type":"SCALAR","name":"accessorIndices"},{"bufferView":1,"byteOffset":3007176,"componentType":5126,"count":288,"max":[0.5568696,0.02413,0.02413],"min":[6.328005E-15,-0.02413,-0.02413],"type":"VEC3","name":"accessorPositions"},{"bufferView":2,"byteOffset":2004784,"componentType":5126,"count":288,"type":"VEC4","name":"accessorTangents"},{"bufferView":1,"byteOffset":3010632,"componentType":5126,"count":288,"type":"VEC3","name":"accessorNormals"},{"bufferView":3,"byteOffset":1002392,"componentType":5126,"count":288,"type":"VEC2","name":"accessorUVs"},{"bufferView":0,"byteOffset":2046356,"componentType":5123,"count":852,"type":"SCALAR","name":"accessorIndices"},{"bufferView":1,"byteOffset":3014088,"componentType":5126,"count":288,"max":[0.5568696,0.02413,0.02413],"min":[6.328005E-15,-0.02413,-0.02413],"type":"VEC3","name":"accessorPositions"},{"bufferView":2,"byteOffset":2009392,"componentType":5126,"count":288,"type":"VEC4","name":"accessorTangents"},{"bufferView":1,"byteOffset":3017544,"componentType":5126,"count":288,"type":"VEC3","name":"accessorNormals"},{"bufferView":3,"byteOffset":1004696,"componentType":5126,"count":288,"type":"VEC2","name":"accessorUVs"},{"bufferView":0,"byteOffset":2048060,"componentType":5123,"count":852,"type":"SCALAR","name":"accessorIndices"},{"bufferView":1,"byteOffset":3021000,"componentType":5126,"count":288,"max":[0.5568696,0.02413,0.02413],"min":[6.328005E-15,-0.02413,-0.02413],"type":"VEC3","name":"accessorPositions"},{"bufferView":2,"byteOffset":2014000,"componentType":5126,"count":288,"type":"VEC4","name":"accessorTangents"},{"bufferView":1,"byteOffset":3024456,"componentType":5126,"count":288,"type":"VEC3","name":"accessorNormals"},{"bufferView":3,"byteOffset":1007000,"componentType":5126,"count":288,"type":"VEC2","name":"accessorUVs"},{"bufferView":0,"byteOffset":2049764,"componentType":5123,"count":852,"type":"SCALAR","name":"accessorIndices"},{"bufferView":1,"byteOffset":3027912,"componentType":5126,"count":288,"max":[0.5568696,0.02413,0.02413],"min":[6.328005E-15,-0.02413,-0.02413],"type":"VEC3","name":"accessorPositions"},{"bufferView":2,"byteOffset":2018608,"componentType":5126,"count":288,"type":"VEC4","name":"accessorTangents"},{"bufferView":1,"byteOffset":3031368,"componentType":5126,"count":288,"type":"VEC3","name":"accessorNormals"},{"bufferView":3,"byteOffset":1009304,"componentType":5126,"count":288,"type":"VEC2","name":"accessorUVs"},{"bufferView":0,"byteOffset":2051468,"componentType":5123,"count":852,"type":"SCALAR","name":"accessorIndices"},{"bufferView":1,"byteOffset":3034824,"componentType":5126,"count":288,"max":[0.46989998,0.02413,0.02413],"min":[6.328005E-15,-0.02413,-0.02413],"type":"VEC3","name":"accessorPositions"},{"bufferView":2,"byteOffset":2023216,"componentType":5126,"count":288,"type":"VEC4","name":"accessorTangents"},{"bufferView":1,"byteOffset":3038280,"componentType":5126,"count":288,"type":"VEC3","name":"accessorNormals"},{"bufferView":3,"byteOffset":1011608,"componentType":5126,"count":288,"type":"VEC2","name":"accessorUVs"},{"bufferView":0,"byteOffset":2053172,"componentType":5123,"count":852,"type":"SCALAR","name":"accessorIndices"},{"bufferView":1,"byteOffset":3041736,"componentType":5126,"count":288,"max":[0.46989998,0.02413,0.02413],"min":[6.328005E-15,-0.02413,-0.02413],"type":"VEC3","name":"accessorPositions"},{"bufferView":2,"byteOffset":2027824,"componentType":5126,"count":288,"type":"VEC4","name":"accessorTangents"},{"bufferView":1,"byteOffset":3045192,"componentType":5126,"count":288,"type":"VEC3","name":"accessorNormals"},{"bufferView":3,"byteOffset":1013912,"componentType":5126,"count":288,"type":"VEC2","name":"accessorUVs"},{"bufferView":0,"byteOffset":2054876,"componentType":5123,"count":852,"type":"SCALAR","name":"accessorIndices"},{"bufferView":1,"byteOffset":3048648,"componentType":5126,"count":288,"max":[0.46989998,0.02413,0.02413],"min":[6.328005E-15,-0.02413,-0.02413],"type":"VEC3","name":"accessorPositions"},{"bufferView":2,"byteOffset":2032432,"componentType":5126,"count":288,"type":"VEC4","name":"accessorTangents"},{"bufferView":1,"byteOffset":3052104,"componentType":5126,"count":288,"type":"VEC3","name":"accessorNormals"},{"bufferView":3,"byteOffset":1016216,"componentType":5126,"count":288,"type":"VEC2","name":"accessorUVs"},{"bufferView":0,"byteOffset":2056580,"componentType":5123,"count":852,"type":"SCALAR","name":"accessorIndices"},{"bufferView":1,"byteOffset":3055560,"componentType":5126,"count":288,"max":[0.46989998,0.02413,0.02413],"min":[6.328005E-15,-0.02413,-0.02413],"type":"VEC3","name":"accessorPositions"},{"bufferView":2,"byteOffset":2037040,"componentType":5126,"count":288,"type":"VEC4","name":"accessorTangents"},{"bufferView":1,"byteOffset":3059016,"componentType":5126,"count":288,"type":"VEC3","name":"accessorNormals"},{"bufferView":3,"byteOffset":1018520,"componentType":5126,"count":288,"type":"VEC2","name":"accessorUVs"},{"bufferView":0,"byteOffset":2058284,"componentType":5123,"count":852,"type":"SCALAR","name":"accessorIndices"},{"bufferView":1,"byteOffset":3062472,"componentType":5126,"count":288,"max":[0.46989998,0.02413,0.02413],"min":[6.328005E-15,-0.02413,-0.02413],"type":"VEC3","name":"accessorPositions"},{"bufferView":2,"byteOffset":2041648,"componentType":5126,"count":288,"type":"VEC4","name":"accessorTangents"},{"bufferView":1,"byteOffset":3065928,"componentType":5126,"count":288,"type":"VEC3","name":"accessorNormals"},{"bufferView":3,"byteOffset":1020824,"componentType":5126,"count":288,"type":"VEC2","name":"accessorUVs"},{"bufferView":0,"byteOffset":2059988,"componentType":5123,"count":852,"type":"SCALAR","name":"accessorIndices"},{"bufferView":1,"byteOffset":3069384,"componentType":5126,"count":288,"max":[0.46989998,0.02413,0.02413],"min":[6.328005E-15,-0.02413,-0.02413],"type":"VEC3","name":"accessorPositions"},{"bufferView":2,"byteOffset":2046256,"componentType":5126,"count":288,"type":"VEC4","name":"accessorTangents"},{"bufferView":1,"byteOffset":3072840,"componentType":5126,"count":288,"type":"VEC3","name":"accessorNormals"},{"bufferView":3,"byteOffset":1023128,"componentType":5126,"count":288,"type":"VEC2","name":"accessorUVs"},{"bufferView":0,"byteOffset":2061692,"componentType":5123,"count":852,"type":"SCALAR","name":"accessorIndices"},{"bufferView":1,"byteOffset":3076296,"componentType":5126,"count":288,"max":[0.46989998,0.02413,0.02413],"min":[6.328005E-15,-0.02413,-0.02413],"type":"VEC3","name":"accessorPositions"},{"bufferView":2,"byteOffset":2050864,"componentType":5126,"count":288,"type":"VEC4","name":"accessorTangents"},{"bufferView":1,"byteOffset":3079752,"componentType":5126,"count":288,"type":"VEC3","name":"accessorNormals"},{"bufferView":3,"byteOffset":1025432,"componentType":5126,"count":288,"type":"VEC2","name":"accessorUVs"},{"bufferView":0,"byteOffset":2063396,"componentType":5123,"count":852,"type":"SCALAR","name":"accessorIndices"},{"bufferView":1,"byteOffset":3083208,"componentType":5126,"count":288,"max":[0.46989998,0.02413,0.02413],"min":[6.328005E-15,-0.02413,-0.02413],"type":"VEC3","name":"accessorPositions"},{"bufferView":2,"byteOffset":2055472,"componentType":5126,"count":288,"type":"VEC4","name":"accessorTangents"},{"bufferView":1,"byteOffset":3086664,"componentType":5126,"count":288,"type":"VEC3","name":"accessorNormals"},{"bufferView":3,"byteOffset":1027736,"componentType":5126,"count":288,"type":"VEC2","name":"accessorUVs"},{"bufferView":0,"byteOffset":2065100,"componentType":5123,"count":4416,"type":"SCALAR","name":"accessorIndices"},{"bufferView":1,"byteOffset":3090120,"componentType":5126,"count":991,"max":[0.05715,0.025400002,0.05715],"min":[-0.05715,-2.9469845E-15,-0.05715],"type":"VEC3","name":"accessorPositions"},{"bufferView":2,"byteOffset":2060080,"componentType":5126,"count":991,"type":"VEC4","name":"accessorTangents"},{"bufferView":1,"byteOffset":3102012,"componentType":5126,"count":991,"type":"VEC3","name":"accessorNormals"},{"bufferView":3,"byteOffset":1030040,"componentType":5126,"count":991,"type":"VEC2","name":"accessorUVs"},{"bufferView":0,"byteOffset":2073932,"componentType":5123,"count":468,"type":"SCALAR","name":"accessorIndices"},{"bufferView":1,"byteOffset":3113904,"componentType":5126,"count":156,"max":[0.0541528,0.025400002,0.0541528],"min":[-0.0541528,0.025400002,-0.0541528],"type":"VEC3","name":"accessorPositions"},{"bufferView":2,"byteOffset":2075936,"componentType":5126,"count":156,"type":"VEC4","name":"accessorTangents"},{"bufferView":1,"byteOffset":3115776,"componentType":5126,"count":156,"type":"VEC3","name":"accessorNormals"},{"bufferView":3,"byteOffset":1037968,"componentType":5126,"count":156,"type":"VEC2","name":"accessorUVs"}],"bufferViews":[{"buffer":0,"byteLength":2074868,"name":"bufferViewScalar"},{"buffer":0,"byteOffset":2074868,"byteLength":3117648,"byteStride":12,"name":"bufferViewFloatVec3"},{"buffer":0,"byteOffset":5192516,"byteLength":2078432,"byteStride":16,"name":"bufferViewFloatVec4"},{"buffer":0,"byteOffset":7270948,"byteLength":1039216,"byteStride":8,"name":"bufferViewFloatVec2"}],"buffers":[{"uri":"Switchback_Railing_Lo-Post_Round.bin","byteLength":8310164}],"materials":[{"pbrMetallicRoughness":{"baseColorFactor":[0.9999998,0.9999999,0.9999999,1.0],"metallicFactor":0.0,"roughnessFactor":0.1},"name":"Glass","extensions":{"KHR_materials_ior":{"ior":1.0},"KHR_materials_transmission":{"transmissionFactor":0.97},"KHR_materials_volume":{"thicknessFactor":0.56,"attenuationDistance":0.5,"attenuationColor":[0.49521634,0.56476736,0.5317566]}}},{"pbrMetallicRoughness":{"baseColorFactor":[0.9999998,0.9999999,0.9999999,1.0],"baseColorTexture":{"index":0,"extensions":{"KHR_texture_transform":{"offset":[0.19519997,0.8048],"rotation":1.5707964,"scale":[0.6096,0.6096],"texCoord":0}}},"roughnessFactor":0.2,"metallicRoughnessTexture":{"index":0,"extensions":{"KHR_texture_transform":{"offset":[0.19519997,0.8048],"rotation":1.5707964,"scale":[0.6096,0.6096],"texCoord":0}}}},"name":"Steel_Linear"},{"pbrMetallicRoughness":{"baseColorFactor":[0.9999998,0.9999999,0.9999999,1.0],"baseColorTexture":{"index":1},"roughnessFactor":0.2,"metallicRoughnessTexture":{"index":1}},"name":"Steel_Radial"},{"pbrMetallicRoughness":{"baseColorFactor":[0.10641303,0.10641304,0.10641304,1.0],"metallicFactor":0.0,"roughnessFactor":0.99,"metallicRoughnessTexture":{"index":2}},"name":"Rubber","extensions":{"KHR_materials_specular":{"specularFactor":0.1}}}],"textures":[{"sampler":0,"source":0,"name":"Metal_Brushed_Linear_4k.jpg"},{"sampler":0,"source":1,"name":"Metal_Brushed_Radial_4k.jpg"},{"sampler":0,"source":2,"name":"PowderCoat_Roughness_2k0.jpg"}],"images":[{"uri":"textures/Metal_Brushed_Linear_4k.jpg"},{"uri":"textures/Metal_Brushed_Radial_4k.jpg"},{"uri":"textures/PowderCoat_Roughness_2k0.jpg"}],"samplers":[{"magFilter":9729,"minFilter":9987}]}