{"asset":{"version":"2.0","generator":"babylon.js glTF exporter for 3dsmax 2026 v20251111.2"},"extensionsUsed":["KHR_texture_transform"],"extensionsRequired":["KHR_texture_transform"],"scene":0,"scenes":[{"nodes":[0,1,2,3,4,5,6,7,8,9,10,11,12,13,14,15,16,17,18,19,20,21,22,23,24,25,26,27,28,29,30,31,32,33,34,35,36,37,38,39,40,41,42,43,44,45,46,47,48,49,50,51,52,53,54,55,56,57,58,59,60,61,62,63,64,65,66,67,68,69,70,71,72,73,74,75,76,77,78,79,80,81,82,83,84,85,86,87,88,89,90,91,92,93,94,95,96,97,98,99,100,101,102,103,104,105,106,107,108,109,110,111,112,113,114,115,116,117,118,119,120,121,122,123,124,125,126,127,128,129,130,131,132,133,134,135,136,137,138,139,140,141,142,143,144,145,146,147,148,149,150,151,152,153,154,155,156,157,158,159,160,161,162,163,164,165,166,167,168,169,170,171,172,173,174,175,176,177,178,179,180,181,182,183,184,185,186,187,188,189,190,191,192,193,194,195,196,197,198,199,200,201,202,203,204,205,206,207,208,209,210,211,212,213,214,215,216,217,218,219,220,221,222,223,224,225,226,227,228,229,230,231,232,233,234,235,236,237,238,239,240,241,242,243,244,245,246,247,248,249,250,251,252,253,254,255,256,257,258,259,260,261,262,263,264,265,266,267,268,269]}],"nodes":[{"mesh":0,"translation":[-0.43512926,2.2726853,-0.02357298],"rotation":[-0.67537147,-0.20946,0.20945996,0.6753714],"name":"Nested_Rail LS Material [8461322]"},{"mesh":1,"translation":[1.295707,1.0815789,0.14152625],"rotation":[0.2096398,0.6753155,0.6753157,0.20963989],"name":"Nested_Rail LS Material [8461324]"},{"mesh":2,"translation":[-0.43512926,2.2726853,-0.02357298],"rotation":[-0.6753743,-0.20945084,0.2094508,0.6753742],"scale":[0.99999994,1.0,0.99999994],"name":"CIR024 - Handrail End Cap Part [8482091]006"},{"mesh":2,"translation":[1.5596397,3.6416814,-0.02357298],"rotation":[0.20945992,-0.6753714,0.6753714,-0.20945998],"name":"CIR024 - Handrail End Cap Part [8482091]005"},{"mesh":2,"translation":[-0.3801419,2.233017,0.14152625],"rotation":[0.6753156,-0.2096399,-0.2096399,0.6753155],"name":"CIR024 - Handrail End Cap Part [8482091]004"},{"mesh":2,"translation":[1.295707,1.0815789,0.14152625],"rotation":[0.2096398,0.6753155,0.6753157,0.20963989],"name":"CIR024 - Handrail End Cap Part [8482091]003"},{"mesh":2,"translation":[1.5596397,3.6416814,-1.0776738],"rotation":[-0.20945993,0.67537135,0.67537147,-0.20945992],"name":"CIR024 - Handrail End Cap Part [8482091]002"},{"mesh":2,"translation":[1.295707,1.0815789,1.1956271],"rotation":[-0.20963988,-0.6753156,0.6753157,0.20963983],"name":"CIR024 - Handrail End Cap Part [8482091]001"},{"mesh":3,"translation":[-0.2466454,2.402039,-1.0776738],"rotation":[0.67537147,0.20946,0.20946,0.6753714],"name":"Nested_Rail LS Material [8719226]"},{"mesh":4,"translation":[1.295707,1.0815789,1.1956271],"rotation":[-0.20963988,-0.6753156,0.6753157,0.20963983],"name":"Nested_Rail LS Material [8719249]"},{"mesh":5,"translation":[-1.4271803,2.17551,0.50347626],"rotation":[0.49999997,-0.50000006,0.5000001,0.49999997],"name":"CIR061 - 1 1l2 Rail-To-Rail Connector Part [8719260]001"},{"mesh":5,"translation":[-0.2518823,2.398446,-1.0776738],"rotation":[0.67537147,0.20946,0.20946,0.6753714],"name":"CIR061 - 1 1l2 Rail-To-Rail Connector Part [8719260]002"},{"mesh":5,"translation":[-1.0652304,2.17551,-1.0776738],"rotation":[0.7071068,2.470639E-13,-2.4706393E-13,0.7071067],"name":"CIR061 - 1 1l2 Rail-To-Rail Connector Part [8719260]003"},{"mesh":5,"translation":[-0.030612085,1.9928633,1.1956271],"rotation":[-0.6753156,0.2096399,-0.20963986,0.6753155],"name":"CIR061 - 1 1l2 Rail-To-Rail Connector Part [8719260]004"},{"mesh":5,"translation":[-1.0652304,2.17551,1.1956271],"rotation":[-0.7071068,-0.0,0.0,0.7071067],"name":"CIR061 - 1 1l2 Rail-To-Rail Connector Part [8719260]005"},{"mesh":6,"translation":[-0.5944614,2.23266,-1.0776738],"rotation":[-3.0908623E-08,0.7071067,0.7071068,3.0908616E-08],"name":"Nested_Bend Bend [8719259]"},{"mesh":7,"translation":[-0.31419477,2.11836,1.1956271],"rotation":[-3.0908627E-08,-0.7071068,0.7071068,-3.0908623E-08],"name":"Nested_Bend Bend [8719267]"},{"mesh":8,"translation":[-1.0652304,2.17551,1.1956271],"name":"Nested_Bend Bend_2"},{"mesh":9,"translation":[-1.0652304,2.17551,-1.0776738],"rotation":[-0.7071068,0.7071068,3.5124707E-08,-2.6692542E-08],"name":"Nested_Bend Bend_1"},{"mesh":10,"translation":[-0.33591902,1.6953099,0.14152843],"rotation":[-0.20962739,-0.6753192,0.67531955,0.20962782],"name":"KOT010 - Right-Hand Threaded End Stop Part [8137739]053"},{"mesh":10,"translation":[-0.33591902,1.5724431,0.14152843],"rotation":[-0.20962739,-0.6753192,0.67531955,0.20962782],"name":"KOT010 - Right-Hand Threaded End Stop Part [8137739]054"},{"mesh":10,"translation":[-0.33591902,1.449576,0.14152843],"rotation":[-0.20962739,-0.6753192,0.67531955,0.20962782],"name":"KOT010 - Right-Hand Threaded End Stop Part [8137739]055"},{"mesh":10,"translation":[-0.33591902,1.3267092,0.14152843],"rotation":[-0.20962739,-0.6753192,0.67531955,0.20962782],"name":"KOT010 - Right-Hand Threaded End Stop Part [8137739]056"},{"mesh":10,"translation":[-0.33591902,2.0639107,0.14152843],"rotation":[-0.20962739,-0.6753192,0.67531955,0.20962782],"name":"KOT010 - Right-Hand Threaded End Stop Part [8137739]057"},{"mesh":10,"translation":[-0.33591902,1.9410437,0.14152843],"rotation":[-0.20962739,-0.6753192,0.67531955,0.20962782],"name":"KOT010 - Right-Hand Threaded End Stop Part [8137739]058"},{"mesh":10,"translation":[-0.33591902,1.8181769,0.14152843],"rotation":[-0.20962739,-0.6753192,0.67531955,0.20962782],"name":"KOT010 - Right-Hand Threaded End Stop Part [8137739]059"},{"mesh":10,"translation":[1.429443,3.2907777,-0.023573125],"rotation":[0.6753743,0.20945084,0.2094508,0.6753742],"scale":[0.99999994,1.0,0.99999994],"name":"KOT010 - Right-Hand Threaded End Stop Part [8137739]060"},{"mesh":10,"translation":[1.429443,3.1679003,-0.023573125],"rotation":[0.6753743,0.20945084,0.2094508,0.6753742],"scale":[0.99999994,1.0,0.99999994],"name":"KOT010 - Right-Hand Threaded End Stop Part [8137739]061"},{"mesh":10,"translation":[1.429443,3.0450222,-0.023573125],"rotation":[0.6753743,0.20945084,0.2094508,0.6753742],"scale":[0.99999994,1.0,0.99999994],"name":"KOT010 - Right-Hand Threaded End Stop Part [8137739]062"},{"mesh":10,"translation":[1.429443,2.9221444,-0.023573125],"rotation":[0.6753743,0.20945084,0.2094508,0.6753742],"scale":[0.99999994,1.0,0.99999994],"name":"KOT010 - Right-Hand Threaded End Stop Part [8137739]063"},{"mesh":10,"translation":[1.429443,2.799267,-0.023573125],"rotation":[0.6753743,0.20945084,0.2094508,0.6753742],"scale":[0.99999994,1.0,0.99999994],"name":"KOT010 - Right-Hand Threaded End Stop Part [8137739]064"},{"mesh":10,"translation":[1.429443,2.6763897,-0.023573125],"rotation":[0.6753743,0.20945084,0.2094508,0.6753742],"scale":[0.99999994,1.0,0.99999994],"name":"KOT010 - Right-Hand Threaded End Stop Part [8137739]065"},{"mesh":10,"translation":[1.429443,3.413655,-0.023573125],"rotation":[0.6753743,0.20945084,0.2094508,0.6753742],"scale":[0.99999994,1.0,0.99999994],"name":"KOT010 - Right-Hand Threaded End Stop Part [8137739]066"},{"mesh":10,"translation":[1.429443,3.2907777,-1.0776716],"rotation":[-0.6753743,-0.20945083,0.20945084,0.6753742],"scale":[0.99999994,1.0,0.99999994],"name":"KOT010 - Right-Hand Threaded End Stop Part [8137739]067"},{"mesh":10,"translation":[1.429443,3.1679003,-1.0776716],"rotation":[-0.6753743,-0.20945083,0.20945084,0.6753742],"scale":[0.99999994,1.0,0.99999994],"name":"KOT010 - Right-Hand Threaded End Stop Part [8137739]068"},{"mesh":10,"translation":[1.429443,3.0450222,-1.0776716],"rotation":[-0.6753743,-0.20945083,0.20945084,0.6753742],"scale":[0.99999994,1.0,0.99999994],"name":"KOT010 - Right-Hand Threaded End Stop Part [8137739]069"},{"mesh":10,"translation":[1.429443,2.9221444,-1.0776716],"rotation":[-0.6753743,-0.20945083,0.20945084,0.6753742],"scale":[0.99999994,1.0,0.99999994],"name":"KOT010 - Right-Hand Threaded End Stop Part [8137739]070"},{"mesh":10,"translation":[1.429443,2.799267,-1.0776716],"rotation":[-0.6753743,-0.20945083,0.20945084,0.6753742],"scale":[0.99999994,1.0,0.99999994],"name":"KOT010 - Right-Hand Threaded End Stop Part [8137739]071"},{"mesh":10,"translation":[1.429443,2.6763897,-1.0776716],"rotation":[-0.6753743,-0.20945083,0.20945084,0.6753742],"scale":[0.99999994,1.0,0.99999994],"name":"KOT010 - Right-Hand Threaded End Stop Part [8137739]072"},{"mesh":10,"translation":[1.429443,3.413655,-1.0776716],"rotation":[-0.6753743,-0.20945083,0.20945084,0.6753742],"scale":[0.99999994,1.0,0.99999994],"name":"KOT010 - Right-Hand Threaded End Stop Part [8137739]073"},{"mesh":10,"translation":[-0.33591902,1.6953099,1.1956269],"rotation":[0.20962742,0.6753193,0.67531955,0.20962784],"name":"KOT010 - Right-Hand Threaded End Stop Part [8137739]074"},{"mesh":10,"translation":[-0.33591902,1.5724431,1.1956269],"rotation":[0.20962742,0.6753193,0.67531955,0.20962784],"name":"KOT010 - Right-Hand Threaded End Stop Part [8137739]075"},{"mesh":10,"translation":[-0.33591902,1.449576,1.1956269],"rotation":[0.20962742,0.6753193,0.67531955,0.20962784],"name":"KOT010 - Right-Hand Threaded End Stop Part [8137739]076"},{"mesh":10,"translation":[-0.33591902,1.3267092,1.1956269],"rotation":[0.20962742,0.6753193,0.67531955,0.20962784],"name":"KOT010 - Right-Hand Threaded End Stop Part [8137739]077"},{"mesh":10,"translation":[-0.33591902,2.0639107,1.1956269],"rotation":[0.20962742,0.6753193,0.67531955,0.20962784],"name":"KOT010 - Right-Hand Threaded End Stop Part [8137739]078"},{"mesh":10,"translation":[-0.33591902,1.9410437,1.1956269],"rotation":[0.20962742,0.6753193,0.67531955,0.20962784],"name":"KOT010 - Right-Hand Threaded End Stop Part [8137739]079"},{"mesh":10,"translation":[-0.33591902,1.8181769,1.1956269],"rotation":[0.20962742,0.6753193,0.67531955,0.20962784],"name":"KOT010 - Right-Hand Threaded End Stop Part [8137739]080"},{"mesh":10,"translation":[-1.4271827,1.6684172,-0.9237275],"rotation":[-0.5,-0.5,0.5,-0.5],"name":"KOT010 - Right-Hand Threaded End Stop Part [8137739]081"},{"mesh":10,"translation":[-1.4271827,1.5686314,-0.9237275],"rotation":[-0.5,-0.5,0.5,-0.5],"name":"KOT010 - Right-Hand Threaded End Stop Part [8137739]082"},{"mesh":10,"translation":[-1.4271827,1.4688458,-0.9237275],"rotation":[-0.5,-0.5,0.5,-0.5],"name":"KOT010 - Right-Hand Threaded End Stop Part [8137739]083"},{"mesh":10,"translation":[-1.4271827,1.36906,-0.9237275],"rotation":[-0.5,-0.5,0.5,-0.5],"name":"KOT010 - Right-Hand Threaded End Stop Part [8137739]084"},{"mesh":10,"translation":[-1.4271827,2.06756,-0.9237275],"rotation":[-0.5,-0.5,0.5,-0.5],"name":"KOT010 - Right-Hand Threaded End Stop Part [8137739]085"},{"mesh":10,"translation":[-1.4271827,1.867989,-0.9237275],"rotation":[-0.5,-0.5,0.5,-0.5],"name":"KOT010 - Right-Hand Threaded End Stop Part [8137739]086"},{"mesh":10,"translation":[-1.4271827,1.7682031,-0.9237275],"rotation":[-0.5,-0.5,0.5,-0.5],"name":"KOT010 - Right-Hand Threaded End Stop Part [8137739]087"},{"mesh":10,"translation":[-1.4271827,1.9677743,-0.9237275],"rotation":[-0.5,-0.5,0.5,-0.5],"name":"KOT010 - Right-Hand Threaded End Stop Part [8137739]088"},{"mesh":10,"translation":[-0.5143314,1.867989,-1.0776716],"rotation":[0.7071068,2.3957707E-21,-2.3957711E-21,0.7071067],"name":"KOT010 - Right-Hand Threaded End Stop Part [8137739]089"},{"mesh":10,"translation":[-0.5143314,1.7682031,-1.0776716],"rotation":[0.7071068,2.3957707E-21,-2.3957711E-21,0.7071067],"name":"KOT010 - Right-Hand Threaded End Stop Part [8137739]090"},{"mesh":10,"translation":[-0.5143314,1.6684172,-1.0776716],"rotation":[0.7071068,2.3957707E-21,-2.3957711E-21,0.7071067],"name":"KOT010 - Right-Hand Threaded End Stop Part [8137739]091"},{"mesh":10,"translation":[-0.5143314,1.5686314,-1.0776716],"rotation":[0.7071068,2.3957707E-21,-2.3957711E-21,0.7071067],"name":"KOT010 - Right-Hand Threaded End Stop Part [8137739]092"},{"mesh":10,"translation":[-0.5143314,1.4688458,-1.0776716],"rotation":[0.7071068,2.3957707E-21,-2.3957711E-21,0.7071067],"name":"KOT010 - Right-Hand Threaded End Stop Part [8137739]093"},{"mesh":10,"translation":[-0.5143314,1.36906,-1.0776716],"rotation":[0.7071068,2.3957707E-21,-2.3957711E-21,0.7071067],"name":"KOT010 - Right-Hand Threaded End Stop Part [8137739]094"},{"mesh":10,"translation":[-0.5143314,2.06756,-1.0776716],"rotation":[0.7071068,2.3957707E-21,-2.3957711E-21,0.7071067],"name":"KOT010 - Right-Hand Threaded End Stop Part [8137739]095"},{"mesh":10,"translation":[-0.5143314,1.9677743,-1.0776716],"rotation":[0.7071068,2.3957707E-21,-2.3957711E-21,0.7071067],"name":"KOT010 - Right-Hand Threaded End Stop Part [8137739]096"},{"mesh":10,"translation":[-1.2732339,1.6684172,1.1956269],"rotation":[1.9949606E-07,-0.7071068,0.7071068,1.9949604E-07],"name":"KOT010 - Right-Hand Threaded End Stop Part [8137739]097"},{"mesh":10,"translation":[-1.2732339,1.5686314,1.1956269],"rotation":[1.9949606E-07,-0.7071068,0.7071068,1.9949604E-07],"name":"KOT010 - Right-Hand Threaded End Stop Part [8137739]098"},{"mesh":10,"translation":[-1.2732339,1.4688458,1.1956269],"rotation":[1.9949606E-07,-0.7071068,0.7071068,1.9949604E-07],"name":"KOT010 - Right-Hand Threaded End Stop Part [8137739]099"},{"mesh":10,"translation":[-1.2732339,1.36906,1.1956269],"rotation":[1.9949606E-07,-0.7071068,0.7071068,1.9949604E-07],"name":"KOT010 - Right-Hand Threaded End Stop Part [8137739]100"},{"mesh":10,"translation":[-1.2732339,2.06756,1.1956269],"rotation":[1.9949606E-07,-0.7071068,0.7071068,1.9949604E-07],"name":"KOT010 - Right-Hand Threaded End Stop Part [8137739]101"},{"mesh":10,"translation":[-1.2732339,1.867989,1.1956269],"rotation":[1.9949606E-07,-0.7071068,0.7071068,1.9949604E-07],"name":"KOT010 - Right-Hand Threaded End Stop Part [8137739]102"},{"mesh":10,"translation":[-1.2732339,1.7682031,1.1956269],"rotation":[1.9949606E-07,-0.7071068,0.7071068,1.9949604E-07],"name":"KOT010 - Right-Hand Threaded End Stop Part [8137739]103"},{"mesh":10,"translation":[-1.2732339,1.9677743,1.1956269],"rotation":[1.9949606E-07,-0.7071068,0.7071068,1.9949604E-07],"name":"KOT010 - Right-Hand Threaded End Stop Part [8137739]104"},{"mesh":11,"translation":[1.1476276,0.6760814,0.14152843],"rotation":[-0.6753195,0.20962764,-0.2096276,0.6753194],"name":"KOT012 - Turnbuckle Part [8655227]054"},{"mesh":11,"translation":[1.1476276,0.5532142,0.14152843],"rotation":[-0.6753195,0.20962764,-0.2096276,0.6753194],"name":"KOT012 - Turnbuckle Part [8655227]055"},{"mesh":11,"translation":[1.1476276,0.4303473,0.14152843],"rotation":[-0.6753195,0.20962764,-0.2096276,0.6753194],"name":"KOT012 - Turnbuckle Part [8655227]056"},{"mesh":11,"translation":[1.1476276,0.30748037,0.14152843],"rotation":[-0.6753195,0.20962764,-0.2096276,0.6753194],"name":"KOT012 - Turnbuckle Part [8655227]057"},{"mesh":11,"translation":[1.1476276,1.0446821,0.14152843],"rotation":[-0.6753195,0.20962764,-0.2096276,0.6753194],"name":"KOT012 - Turnbuckle Part [8655227]058"},{"mesh":11,"translation":[1.1476276,0.9218153,0.14152843],"rotation":[-0.6753195,0.20962764,-0.2096276,0.6753194],"name":"KOT012 - Turnbuckle Part [8655227]059"},{"mesh":11,"translation":[1.1476276,0.79894835,0.14152843],"rotation":[-0.6753195,0.20962764,-0.2096276,0.6753194],"name":"KOT012 - Turnbuckle Part [8655227]060"},{"mesh":11,"translation":[-0.29674932,2.106171,-0.023573125],"rotation":[-0.20945057,0.6753742,0.6753743,-0.20945099],"name":"KOT012 - Turnbuckle Part [8655227]061"},{"mesh":11,"translation":[-0.29674932,1.9832929,-0.023573125],"rotation":[-0.20945057,0.6753742,0.6753743,-0.20945099],"name":"KOT012 - Turnbuckle Part [8655227]062"},{"mesh":11,"translation":[-0.29674932,1.860415,-0.023573125],"rotation":[-0.20945057,0.6753742,0.6753743,-0.20945099],"name":"KOT012 - Turnbuckle Part [8655227]063"},{"mesh":11,"translation":[-0.29674932,1.7375374,-0.023573125],"rotation":[-0.20945057,0.6753742,0.6753743,-0.20945099],"name":"KOT012 - Turnbuckle Part [8655227]064"},{"mesh":11,"translation":[-0.29674932,1.6146598,-0.023573125],"rotation":[-0.20945057,0.6753742,0.6753743,-0.20945099],"name":"KOT012 - Turnbuckle Part [8655227]065"},{"mesh":11,"translation":[-0.29674932,1.4917822,-0.023573125],"rotation":[-0.20945057,0.6753742,0.6753743,-0.20945099],"name":"KOT012 - Turnbuckle Part [8655227]066"},{"mesh":11,"translation":[-0.29674932,2.2290483,-0.023573125],"rotation":[-0.20945057,0.6753742,0.6753743,-0.20945099],"name":"KOT012 - Turnbuckle Part [8655227]067"},{"mesh":11,"translation":[-0.3983478,2.0364473,-1.0776716],"rotation":[0.2094506,-0.67537427,0.67537427,-0.20945095],"name":"KOT012 - Turnbuckle Part [8655227]068"},{"mesh":11,"translation":[-0.3983478,1.9135698,-1.0776716],"rotation":[0.2094506,-0.67537427,0.67537427,-0.20945095],"name":"KOT012 - Turnbuckle Part [8655227]069"},{"mesh":11,"translation":[-0.3983478,1.7906919,-1.0776716],"rotation":[0.2094506,-0.67537427,0.67537427,-0.20945095],"name":"KOT012 - Turnbuckle Part [8655227]070"},{"mesh":11,"translation":[-0.3983478,1.667814,-1.0776716],"rotation":[0.2094506,-0.67537427,0.67537427,-0.20945095],"name":"KOT012 - Turnbuckle Part [8655227]071"},{"mesh":11,"translation":[-0.3983478,1.5449364,-1.0776716],"rotation":[0.2094506,-0.67537427,0.67537427,-0.20945095],"name":"KOT012 - Turnbuckle Part [8655227]072"},{"mesh":11,"translation":[-0.3983478,1.4220586,-1.0776716],"rotation":[0.2094506,-0.67537427,0.67537427,-0.20945095],"name":"KOT012 - Turnbuckle Part [8655227]073"},{"mesh":11,"translation":[-0.3983478,2.1593246,-1.0776716],"rotation":[0.2094506,-0.67537427,0.67537427,-0.20945095],"name":"KOT012 - Turnbuckle Part [8655227]074"},{"mesh":11,"translation":[1.1476276,0.6760814,1.1956269],"rotation":[0.67531943,-0.20962763,-0.20962761,0.6753193],"name":"KOT012 - Turnbuckle Part [8655227]075"},{"mesh":11,"translation":[1.1476276,0.5532142,1.1956269],"rotation":[0.67531943,-0.20962763,-0.20962761,0.6753193],"name":"KOT012 - Turnbuckle Part [8655227]076"},{"mesh":11,"translation":[1.1476276,0.4303473,1.1956269],"rotation":[0.67531943,-0.20962763,-0.20962761,0.6753193],"name":"KOT012 - Turnbuckle Part [8655227]077"},{"mesh":11,"translation":[1.1476276,0.30748037,1.1956269],"rotation":[0.67531943,-0.20962763,-0.20962761,0.6753193],"name":"KOT012 - Turnbuckle Part [8655227]078"},{"mesh":11,"translation":[1.1476276,1.0446821,1.1956269],"rotation":[0.67531943,-0.20962763,-0.20962761,0.6753193],"name":"KOT012 - Turnbuckle Part [8655227]079"},{"mesh":11,"translation":[1.1476276,0.9218153,1.1956269],"rotation":[0.67531943,-0.20962763,-0.20962761,0.6753193],"name":"KOT012 - Turnbuckle Part [8655227]080"},{"mesh":11,"translation":[1.1476276,0.79894835,1.1956269],"rotation":[0.67531943,-0.20962763,-0.20962761,0.6753193],"name":"KOT012 - Turnbuckle Part [8655227]081"},{"mesh":11,"translation":[-1.4271827,1.6684172,0.9941787],"rotation":[0.5,0.5,0.50000006,-0.49999994],"name":"KOT012 - Turnbuckle Part [8655227]082"},{"mesh":11,"translation":[-1.4271827,1.5686314,0.9941787],"rotation":[0.5,0.5,0.50000006,-0.49999994],"name":"KOT012 - Turnbuckle Part [8655227]083"},{"mesh":11,"translation":[-1.4271827,1.4688458,0.9941787],"rotation":[0.5,0.5,0.50000006,-0.49999994],"name":"KOT012 - Turnbuckle Part [8655227]084"},{"mesh":11,"translation":[-1.4271827,1.36906,0.9941787],"rotation":[0.5,0.5,0.50000006,-0.49999994],"name":"KOT012 - Turnbuckle Part [8655227]085"},{"mesh":11,"translation":[-1.4271827,2.06756,0.9941787],"rotation":[0.5,0.5,0.50000006,-0.49999994],"name":"KOT012 - Turnbuckle Part [8655227]086"},{"mesh":11,"translation":[-1.4271827,1.867989,0.9941787],"rotation":[0.5,0.5,0.50000006,-0.49999994],"name":"KOT012 - Turnbuckle Part [8655227]087"},{"mesh":11,"translation":[-1.4271827,1.7682031,0.9941787],"rotation":[0.5,0.5,0.50000006,-0.49999994],"name":"KOT012 - Turnbuckle Part [8655227]088"},{"mesh":11,"translation":[-1.4271827,1.9677743,0.9941787],"rotation":[0.5,0.5,0.50000006,-0.49999994],"name":"KOT012 - Turnbuckle Part [8655227]089"},{"mesh":11,"translation":[-1.2257345,1.867989,-1.0776716],"rotation":[1.9949596E-07,0.7071067,0.7071068,-1.9949607E-07],"name":"KOT012 - Turnbuckle Part [8655227]090"},{"mesh":11,"translation":[-1.2257345,1.7682031,-1.0776716],"rotation":[1.9949596E-07,0.7071067,0.7071068,-1.9949607E-07],"name":"KOT012 - Turnbuckle Part [8655227]091"},{"mesh":11,"translation":[-1.2257345,1.6684172,-1.0776716],"rotation":[1.9949596E-07,0.7071067,0.7071068,-1.9949607E-07],"name":"KOT012 - Turnbuckle Part [8655227]092"},{"mesh":11,"translation":[-1.2257345,1.5686314,-1.0776716],"rotation":[1.9949596E-07,0.7071067,0.7071068,-1.9949607E-07],"name":"KOT012 - Turnbuckle Part [8655227]093"},{"mesh":11,"translation":[-1.2257345,1.4688458,-1.0776716],"rotation":[1.9949596E-07,0.7071067,0.7071068,-1.9949607E-07],"name":"KOT012 - Turnbuckle Part [8655227]094"},{"mesh":11,"translation":[-1.2257345,1.36906,-1.0776716],"rotation":[1.9949596E-07,0.7071067,0.7071068,-1.9949607E-07],"name":"KOT012 - Turnbuckle Part [8655227]095"},{"mesh":11,"translation":[-1.2257345,2.06756,-1.0776716],"rotation":[1.9949596E-07,0.7071067,0.7071068,-1.9949607E-07],"name":"KOT012 - Turnbuckle Part [8655227]096"},{"mesh":11,"translation":[-1.2257345,1.9677743,-1.0776716],"rotation":[1.9949596E-07,0.7071067,0.7071068,-1.9949607E-07],"name":"KOT012 - Turnbuckle Part [8655227]097"},{"mesh":11,"translation":[-0.46022773,1.867989,1.1956269],"rotation":[-0.7071068,6.4534485E-14,-6.453448E-14,0.7071067],"name":"KOT012 - Turnbuckle Part [8655227]098"},{"mesh":11,"translation":[-0.46022773,1.6684172,1.1956269],"rotation":[-0.7071068,6.4534485E-14,-6.453448E-14,0.7071067],"name":"KOT012 - Turnbuckle Part [8655227]099"},{"mesh":11,"translation":[-0.46022773,1.5686314,1.1956269],"rotation":[-0.7071068,6.4534485E-14,-6.453448E-14,0.7071067],"name":"KOT012 - Turnbuckle Part [8655227]100"},{"mesh":11,"translation":[-0.46022773,1.4688458,1.1956269],"rotation":[-0.7071068,6.4534485E-14,-6.453448E-14,0.7071067],"name":"KOT012 - Turnbuckle Part [8655227]101"},{"mesh":11,"translation":[-0.46022773,1.36906,1.1956269],"rotation":[-0.7071068,6.4534485E-14,-6.453448E-14,0.7071067],"name":"KOT012 - Turnbuckle Part [8655227]102"},{"mesh":11,"translation":[-0.46022773,2.06756,1.1956269],"rotation":[-0.7071068,6.4534485E-14,-6.453448E-14,0.7071067],"name":"KOT012 - Turnbuckle Part [8655227]103"},{"mesh":11,"translation":[-0.46022773,1.7682031,1.1956269],"rotation":[-0.7071068,6.4534485E-14,-6.453448E-14,0.7071067],"name":"KOT012 - Turnbuckle Part [8655227]104"},{"mesh":11,"translation":[-0.46022773,1.9677743,1.1956269],"rotation":[-0.7071068,6.4534485E-14,-6.453448E-14,0.7071067],"name":"KOT012 - Turnbuckle Part [8655227]105"},{"mesh":12,"translation":[0.36192676,1.6264385,0.14152843],"rotation":[-0.0,0.7071068,0.0,0.7071067],"name":"CSQ022 - Square Post Omaha Cap Part [8465283]020"},{"mesh":12,"translation":[1.2239393,1.0342369,0.14152843],"rotation":[-0.0,0.7071068,0.0,0.7071067],"name":"CSQ022 - Square Post Omaha Cap Part [8465283]021"},{"mesh":12,"translation":[1.4666175,3.4812438,-0.023573125],"rotation":[-0.0,-0.7071068,0.0,0.7071067],"name":"CSQ022 - Square Post Omaha Cap Part [8465283]022"},{"mesh":12,"translation":[0.8957918,3.0895247,-0.023573125],"rotation":[-0.0,-0.7071068,0.0,0.7071067],"name":"CSQ022 - Square Post Omaha Cap Part [8465283]023"},{"mesh":12,"translation":[-0.37308422,2.131492,0.14152843],"rotation":[-0.0,0.7071068,0.0,0.7071067],"name":"CSQ022 - Square Post Omaha Cap Part [8465283]024"},{"mesh":12,"translation":[-0.37308422,2.2186606,-0.023573125],"rotation":[-0.0,-0.7071068,0.0,0.7071067],"name":"CSQ022 - Square Post Omaha Cap Part [8465283]025"},{"mesh":12,"translation":[0.09636621,2.540885,-0.023573125],"rotation":[-0.0,-0.7071068,0.0,0.7071067],"name":"CSQ022 - Square Post Omaha Cap Part [8465283]026"},{"mesh":12,"translation":[1.4666175,3.4812438,-1.0776716],"rotation":[-0.0,0.7071068,0.0,0.7071067],"name":"CSQ022 - Square Post Omaha Cap Part [8465283]027"},{"mesh":12,"translation":[0.8957918,3.0895247,-1.0776716],"rotation":[-0.0,0.7071068,0.0,0.7071067],"name":"CSQ022 - Square Post Omaha Cap Part [8465283]028"},{"mesh":12,"translation":[-0.47468266,2.1489885,-1.0776716],"rotation":[-0.0,0.7071068,0.0,0.7071067],"name":"CSQ022 - Square Post Omaha Cap Part [8465283]029"},{"mesh":12,"translation":[0.09636621,2.540885,-1.0776716],"rotation":[-0.0,0.7071068,0.0,0.7071067],"name":"CSQ022 - Square Post Omaha Cap Part [8465283]030"},{"mesh":12,"translation":[-1.3128827,2.1077428,-1.0776716],"rotation":[-0.0,0.7071068,0.0,0.7071067],"name":"CSQ022 - Square Post Omaha Cap Part [8465283]031"},{"mesh":12,"translation":[-1.4271827,2.1077428,-0.9633716],"rotation":[-0.0,-1.0,0.0,2.8212997E-07],"name":"CSQ022 - Square Post Omaha Cap Part [8465283]032"},{"mesh":12,"translation":[-1.4271827,2.1077428,1.0813268],"rotation":[-0.0,-1.0,0.0,-2.8212997E-07],"name":"CSQ022 - Square Post Omaha Cap Part [8465283]033"},{"mesh":12,"translation":[-1.4271827,2.1077428,0.058975324],"rotation":[-0.0,-1.0,0.0,2.8212997E-07],"name":"CSQ022 - Square Post Omaha Cap Part [8465283]034"},{"mesh":12,"translation":[0.36192676,1.6264385,1.1956269],"rotation":[-0.0,-0.7071068,0.0,0.7071067],"name":"CSQ022 - Square Post Omaha Cap Part [8465283]035"},{"mesh":12,"translation":[1.2239393,1.0342369,1.1956269],"rotation":[-0.0,-0.7071068,0.0,0.7071067],"name":"CSQ022 - Square Post Omaha Cap Part [8465283]036"},{"mesh":12,"translation":[-0.37308422,2.1077428,1.1956269],"rotation":[-0.0,-0.7071068,0.0,0.7071067],"name":"CSQ022 - Square Post Omaha Cap Part [8465283]037"},{"mesh":12,"translation":[-1.3128827,2.1077428,1.1956269],"rotation":[-0.0,-0.7071068,0.0,0.7071067],"name":"CSQ022 - Square Post Omaha Cap Part [8465283]038"},{"mesh":13,"translation":[28.89472,0.0,27.28077],"name":"LS208 & LS209 - Circum Square Post Material LS Material [8937112]"},{"mesh":14,"translation":[28.89472,0.0,27.28077],"name":"LS208 & LS209 - Circum Square Post Material LS Material [8937116]"},{"mesh":15,"translation":[28.89472,0.0,27.28077],"name":"LS208 & LS209 - Circum Square Post Material LS Material [8937120]"},{"mesh":16,"translation":[28.89472,0.0,27.28077],"name":"LS208 & LS209 - Circum Square Post Material LS Material [8937124]"},{"mesh":17,"translation":[28.89472,0.0,27.28077],"name":"LS208 & LS209 - Circum Square Post Material LS Material [8937131]"},{"mesh":18,"translation":[28.89472,0.0,27.28077],"name":"LS208 & LS209 - Circum Square Post Material LS Material [8937137]"},{"mesh":19,"translation":[28.89472,0.0,27.28077],"name":"LS208 & LS209 - Circum Square Post Material LS Material [8937142]"},{"mesh":20,"translation":[28.89472,0.0,27.28077],"name":"LS208 & LS209 - Circum Square Post Material LS Material [8937288]"},{"mesh":21,"translation":[28.89472,0.0,27.28077],"name":"LS208 & LS209 - Circum Square Post Material LS Material [8937291]"},{"mesh":22,"translation":[28.89472,0.0,27.28077],"name":"LS208 & LS209 - Circum Square Post Material LS Material [8937294]"},{"mesh":23,"translation":[28.89472,0.0,27.28077],"name":"LS208 & LS209 - Circum Square Post Material LS Material [8937297]"},{"mesh":24,"translation":[28.89472,0.0,27.28077],"name":"LS208 & LS209 - Circum Square Post Material LS Material [8937307]"},{"mesh":25,"translation":[28.89472,0.0,27.28077],"name":"LS208 & LS209 - Circum Square Post Material LS Material [8937318]"},{"mesh":26,"translation":[28.89472,0.0,27.28077],"name":"LS208 & LS209 - Circum Square Post Material LS Material [8937338]"},{"mesh":27,"translation":[28.89472,0.0,27.28077],"name":"LS208 & LS209 - Circum Square Post Material LS Material [8937348]"},{"mesh":28,"translation":[28.89472,0.0,27.28077],"name":"LS208 & LS209 - Circum Square Post Material LS Material [8937448]"},{"mesh":29,"translation":[28.89472,0.0,27.28077],"name":"LS208 & LS209 - Circum Square Post Material LS Material [8937451]"},{"mesh":30,"translation":[28.89472,0.0,27.28077],"name":"LS208 & LS209 - Circum Square Post Material LS Material [8937454]"},{"mesh":31,"translation":[0.36192676,1.6296132,0.14152843],"rotation":[-0.0,0.7071068,0.0,0.7071067],"name":"Custom - Circum 5l8 Stem-Cable LS Material [8469848]014"},{"mesh":31,"translation":[1.2239393,1.0374123,0.14152843],"rotation":[-0.0,0.7071068,0.0,0.7071067],"name":"Custom - Circum 5l8 Stem-Cable LS Material [8469848]015"},{"mesh":31,"translation":[1.4666175,3.4844193,-0.023573125],"rotation":[-0.0,-0.7071068,0.0,0.7071067],"name":"Custom - Circum 5l8 Stem-Cable LS Material [8469848]016"},{"mesh":31,"translation":[0.8957918,3.0927002,-0.023573125],"rotation":[-0.0,-0.7071068,0.0,0.7071067],"name":"Custom - Circum 5l8 Stem-Cable LS Material [8469848]017"},{"mesh":31,"translation":[-0.37308422,2.134667,0.14152843],"rotation":[-0.0,0.7071068,0.0,0.7071067],"name":"Custom - Circum 5l8 Stem-Cable LS Material [8469848]018"},{"mesh":31,"translation":[-0.37308422,2.2218359,-0.023573125],"rotation":[-0.0,-0.7071068,0.0,0.7071067],"name":"Custom - Circum 5l8 Stem-Cable LS Material [8469848]019"},{"mesh":31,"translation":[0.09636621,2.5440605,-0.023573125],"rotation":[-0.0,-0.7071068,0.0,0.7071067],"name":"Custom - Circum 5l8 Stem-Cable LS Material [8469848]020"},{"mesh":31,"translation":[1.4666175,3.4844193,-1.0776716],"rotation":[-0.0,-0.7071068,0.0,0.7071068],"name":"Custom - Circum 5l8 Stem-Cable LS Material [8469848]021"},{"mesh":31,"translation":[0.8957918,3.0927002,-1.0776716],"rotation":[-0.0,-0.7071068,0.0,0.7071068],"name":"Custom - Circum 5l8 Stem-Cable LS Material [8469848]022"},{"mesh":31,"translation":[-0.47468266,2.1521635,-1.0776716],"rotation":[-0.0,-0.7071068,0.0,0.7071068],"name":"Custom - Circum 5l8 Stem-Cable LS Material [8469848]023"},{"mesh":31,"translation":[0.09636621,2.5440605,-1.0776716],"rotation":[-0.0,-0.7071068,0.0,0.7071068],"name":"Custom - Circum 5l8 Stem-Cable LS Material [8469848]024"},{"mesh":31,"translation":[0.36192676,1.6296132,1.1956269],"rotation":[-0.0,0.7071067,0.0,0.7071068],"name":"Custom - Circum 5l8 Stem-Cable LS Material [8469848]025"},{"mesh":31,"translation":[1.2239393,1.0374123,1.1956269],"rotation":[-0.0,0.7071067,0.0,0.7071068],"name":"Custom - Circum 5l8 Stem-Cable LS Material [8469848]026"},{"mesh":32,"translation":[0.4026824,1.7181504,0.14152843],"rotation":[0.3292939,-0.6257521,-0.625752,0.32929364],"scale":[0.99999994,1.0,0.99999994],"name":"CIR057 - 1 1l2 Rail Saddle Part [8723174]077"},{"mesh":32,"translation":[1.2646949,1.1259493,0.14152843],"rotation":[0.3292939,-0.6257521,-0.625752,0.32929364],"scale":[0.99999994,1.0,0.99999994],"name":"CIR057 - 1 1l2 Rail Saddle Part [8723174]078"},{"mesh":32,"translation":[1.425899,3.5729644,-0.023573125],"rotation":[-0.62566584,0.32945764,-0.32945755,0.6256658],"name":"CIR057 - 1 1l2 Rail Saddle Part [8723174]079"},{"mesh":32,"translation":[0.8550734,3.181246,-0.023573125],"rotation":[-0.62566584,0.32945764,-0.32945755,0.6256658],"name":"CIR057 - 1 1l2 Rail Saddle Part [8723174]080"},{"mesh":32,"translation":[-0.33232856,2.223204,0.14152843],"rotation":[0.3292939,-0.6257521,-0.625752,0.32929364],"scale":[0.99999994,1.0,0.99999994],"name":"CIR057 - 1 1l2 Rail Saddle Part [8723174]081"},{"mesh":32,"translation":[-0.41380265,2.3103817,-0.023573125],"rotation":[-0.62566584,0.32945764,-0.32945755,0.6256658],"name":"CIR057 - 1 1l2 Rail Saddle Part [8723174]082"},{"mesh":32,"translation":[0.055647768,2.6326063,-0.023573125],"rotation":[-0.62566584,0.32945764,-0.32945755,0.6256658],"name":"CIR057 - 1 1l2 Rail Saddle Part [8723174]083"},{"mesh":32,"translation":[1.425899,3.5729644,-1.0776716],"rotation":[0.6256658,-0.3294576,-0.32945758,0.6256658],"name":"CIR057 - 1 1l2 Rail Saddle Part [8723174]084"},{"mesh":32,"translation":[0.8550734,3.181246,-1.0776716],"rotation":[0.6256658,-0.3294576,-0.32945758,0.6256658],"name":"CIR057 - 1 1l2 Rail Saddle Part [8723174]085"},{"mesh":32,"translation":[-0.5154011,2.2407093,-1.0776716],"rotation":[0.6256658,-0.3294576,-0.32945758,0.6256658],"name":"CIR057 - 1 1l2 Rail Saddle Part [8723174]086"},{"mesh":32,"translation":[0.055647768,2.6326063,-1.0776716],"rotation":[0.6256658,-0.3294576,-0.32945758,0.6256658],"name":"CIR057 - 1 1l2 Rail Saddle Part [8723174]087"},{"mesh":32,"translation":[-1.3128827,2.1945536,-1.0776716],"rotation":[0.5,-0.5,-0.5,0.5],"name":"CIR057 - 1 1l2 Rail Saddle Part [8723174]088"},{"mesh":32,"translation":[-1.4271827,2.1945536,-0.9633716],"rotation":[1.0114668E-13,-1.01146664E-13,-0.7071067,0.7071068],"name":"CIR057 - 1 1l2 Rail Saddle Part [8723174]089"},{"mesh":32,"translation":[-1.4271827,2.1945536,1.0813268],"rotation":[-9.846989E-21,-9.846989E-21,-0.7071067,0.7071068],"name":"CIR057 - 1 1l2 Rail Saddle Part [8723174]090"},{"mesh":32,"translation":[-1.4271827,2.1945536,0.058975324],"rotation":[1.0114668E-13,-1.01146664E-13,-0.7071067,0.7071068],"name":"CIR057 - 1 1l2 Rail Saddle Part [8723174]091"},{"mesh":32,"translation":[0.4026824,1.7181504,1.1956269],"rotation":[0.32929388,-0.625752,0.6257521,-0.32929367],"scale":[0.99999994,1.0,0.99999994],"name":"CIR057 - 1 1l2 Rail Saddle Part [8723174]092"},{"mesh":32,"translation":[1.2646949,1.1259493,1.1956269],"rotation":[0.32929388,-0.625752,0.6257521,-0.32929367],"scale":[0.99999994,1.0,0.99999994],"name":"CIR057 - 1 1l2 Rail Saddle Part [8723174]093"},{"mesh":32,"translation":[-0.37308422,2.1945536,1.1956269],"rotation":[-0.50000006,0.5,-0.49999994,0.5],"name":"CIR057 - 1 1l2 Rail Saddle Part [8723174]094"},{"mesh":32,"translation":[-1.3128827,2.1945536,1.1956269],"rotation":[-0.50000006,0.5,-0.49999994,0.5],"name":"CIR057 - 1 1l2 Rail Saddle Part [8723174]095"},{"mesh":33,"translation":[-1.3128827,2.1109178,-1.0776716],"rotation":[-0.0,-1.0,0.0,-2.8212997E-07],"name":"CCS139 - 5l8 Stem-Cable Part [8580409]007"},{"mesh":33,"translation":[-1.4271827,2.1109178,-0.9633716],"rotation":[-0.0,0.7071068,0.0,0.7071067],"name":"CCS139 - 5l8 Stem-Cable Part [8580409]008"},{"mesh":33,"translation":[-1.4271827,2.1109178,1.0813268],"rotation":[-0.0,-0.7071068,0.0,0.7071067],"name":"CCS139 - 5l8 Stem-Cable Part [8580409]009"},{"mesh":33,"translation":[-1.4271827,2.1109178,0.058975324],"rotation":[-0.0,0.7071068,0.0,0.7071067],"name":"CCS139 - 5l8 Stem-Cable Part [8580409]010"},{"mesh":33,"translation":[-0.37308422,2.1109178,1.1956269],"name":"CCS139 - 5l8 Stem-Cable Part [8580409]011"},{"mesh":34,"translation":[0.36192676,0.7315199,0.14152843],"rotation":[-0.0,0.7071068,0.0,0.7071067],"name":"CSQ001-US - Surface Mount Weldment Part [8723797]020"},{"mesh":34,"translation":[1.2239393,0.18288012,0.14152843],"rotation":[-0.0,0.7071068,0.0,0.7071067],"name":"CSQ001-US - Surface Mount Weldment Part [8723797]021"},{"mesh":34,"translation":[1.4666175,2.56032,-0.023573125],"rotation":[-0.0,-0.7071068,0.0,0.7071067],"name":"CSQ001-US - Surface Mount Weldment Part [8723797]022"},{"mesh":34,"translation":[0.8957918,2.1945596,-0.023573125],"rotation":[-0.0,-0.7071068,0.0,0.7071067],"name":"CSQ001-US - Surface Mount Weldment Part [8723797]023"},{"mesh":34,"translation":[-0.37308422,1.2801597,0.14152843],"rotation":[-0.0,0.7071068,0.0,0.7071067],"name":"CSQ001-US - Surface Mount Weldment Part [8723797]024"},{"mesh":34,"translation":[-0.37308422,1.2801597,-0.023573125],"rotation":[-0.0,-0.7071068,0.0,0.7071067],"name":"CSQ001-US - Surface Mount Weldment Part [8723797]025"},{"mesh":34,"translation":[0.09636621,1.64592,-0.023573125],"rotation":[-0.0,-0.7071068,0.0,0.7071067],"name":"CSQ001-US - Surface Mount Weldment Part [8723797]026"},{"mesh":34,"translation":[1.4666175,2.56032,-1.0776716],"rotation":[-0.0,0.7071068,0.0,0.7071067],"name":"CSQ001-US - Surface Mount Weldment Part [8723797]027"},{"mesh":34,"translation":[0.8957918,2.1945596,-1.0776716],"rotation":[-0.0,0.7071068,0.0,0.7071067],"name":"CSQ001-US - Surface Mount Weldment Part [8723797]028"},{"mesh":34,"translation":[-0.47468266,1.2801597,-1.0776716],"rotation":[-0.0,0.7071068,0.0,0.7071067],"name":"CSQ001-US - Surface Mount Weldment Part [8723797]029"},{"mesh":34,"translation":[0.09636621,1.64592,-1.0776716],"rotation":[-0.0,0.7071068,0.0,0.7071067],"name":"CSQ001-US - Surface Mount Weldment Part [8723797]030"},{"mesh":34,"translation":[-1.3128827,1.2801597,-1.0776716],"rotation":[-0.0,0.7071068,0.0,0.7071067],"name":"CSQ001-US - Surface Mount Weldment Part [8723797]031"},{"mesh":34,"translation":[-1.4271827,1.2801597,-0.9633716],"rotation":[-0.0,-1.0,0.0,2.8212997E-07],"name":"CSQ001-US - Surface Mount Weldment Part [8723797]032"},{"mesh":34,"translation":[-1.4271827,1.2801597,1.0813268],"rotation":[-0.0,-1.0,0.0,-2.8212997E-07],"name":"CSQ001-US - Surface Mount Weldment Part [8723797]033"},{"mesh":34,"translation":[-1.4271827,1.2801597,0.058975324],"rotation":[-0.0,-1.0,0.0,2.8212997E-07],"name":"CSQ001-US - Surface Mount Weldment Part [8723797]034"},{"mesh":34,"translation":[0.36192676,0.7315199,1.1956269],"rotation":[-0.0,-0.7071068,0.0,0.7071067],"name":"CSQ001-US - Surface Mount Weldment Part [8723797]035"},{"mesh":34,"translation":[1.2239393,0.18288012,1.1956269],"rotation":[-0.0,-0.7071068,0.0,0.7071067],"name":"CSQ001-US - Surface Mount Weldment Part [8723797]036"},{"mesh":34,"translation":[-0.37308422,1.2801597,1.1956269],"rotation":[-0.0,-0.7071068,0.0,0.7071067],"name":"CSQ001-US - Surface Mount Weldment Part [8723797]037"},{"mesh":34,"translation":[-1.3128827,1.2801597,1.1956269],"rotation":[-0.0,-0.7071068,0.0,0.7071067],"name":"CSQ001-US - Surface Mount Weldment Part [8723797]038"},{"mesh":35,"translation":[28.89472,0.0,27.28077],"name":"LS208 & LS209 - Circum Square Post Material LS Material [9041605]"},{"mesh":36,"translation":[-1.3128827,2.1109178,1.1956269],"rotation":[-0.0,-1.0,0.0,2.8212997E-07],"name":"CCS139 - 5l8 Stem-Cable Part [9041608]"},{"mesh":37,"translation":[0.59319985,2.839777,-0.02357298],"name":"Nested_Cable_Single Cable Assembly Generic [8145014]013"},{"mesh":37,"translation":[0.59319985,2.5940216,-0.02357298],"name":"Nested_Cable_Single Cable Assembly Generic [8145014]014"},{"mesh":37,"translation":[0.59319985,2.471144,-0.02357298],"name":"Nested_Cable_Single Cable Assembly Generic [8145014]015"},{"mesh":37,"translation":[0.59319985,2.3482664,-0.02357298],"name":"Nested_Cable_Single Cable Assembly Generic [8145014]016"},{"mesh":37,"translation":[0.59319985,2.2253885,-0.02357298],"name":"Nested_Cable_Single Cable Assembly Generic [8145014]017"},{"mesh":37,"translation":[0.59319985,2.102511,-0.02357298],"name":"Nested_Cable_Single Cable Assembly Generic [8145014]018"},{"mesh":37,"translation":[0.59319985,2.7168994,-0.02357298],"name":"Nested_Cable_Single Cable Assembly Generic [8145014]019"},{"mesh":38,"translation":[0.54239947,2.8049152,-1.0776738],"name":"Nested_Cable_Single Cable Assembly Generic [8579311]007"},{"mesh":38,"translation":[0.54239947,2.5591598,-1.0776738],"name":"Nested_Cable_Single Cable Assembly Generic [8579311]008"},{"mesh":38,"translation":[0.54239947,2.4362822,-1.0776738],"name":"Nested_Cable_Single Cable Assembly Generic [8579311]009"},{"mesh":38,"translation":[0.54239947,2.3134046,-1.0776738],"name":"Nested_Cable_Single Cable Assembly Generic [8579311]010"},{"mesh":38,"translation":[0.54239947,2.1905267,-1.0776738],"name":"Nested_Cable_Single Cable Assembly Generic [8579311]011"},{"mesh":38,"translation":[0.54239947,2.0676491,-1.0776738],"name":"Nested_Cable_Single Cable Assembly Generic [8579311]012"},{"mesh":38,"translation":[0.54239947,2.6820376,-1.0776738],"name":"Nested_Cable_Single Cable Assembly Generic [8579311]013"},{"mesh":39,"translation":[0.37901872,1.2041348,0.14152625],"name":"Nested_Cable_Single Cable Assembly Generic [8580909]029"},{"mesh":39,"translation":[0.37901872,1.0812678,0.14152625],"name":"Nested_Cable_Single Cable Assembly Generic [8580909]030"},{"mesh":39,"translation":[0.37901872,0.9584009,0.14152625],"name":"Nested_Cable_Single Cable Assembly Generic [8580909]031"},{"mesh":39,"translation":[0.37901872,0.8355339,0.14152625],"name":"Nested_Cable_Single Cable Assembly Generic [8580909]032"},{"mesh":39,"translation":[0.37901872,1.5727357,0.14152625],"name":"Nested_Cable_Single Cable Assembly Generic [8580909]033"},{"mesh":39,"translation":[0.37901872,1.4498687,0.14152625],"name":"Nested_Cable_Single Cable Assembly Generic [8580909]034"},{"mesh":39,"translation":[0.37901872,1.3270017,0.14152625],"name":"Nested_Cable_Single Cable Assembly Generic [8580909]035"},{"mesh":39,"translation":[0.37901872,1.2041348,1.1956271],"name":"Nested_Cable_Single Cable Assembly Generic [8580909]036"},{"mesh":39,"translation":[0.37901872,1.0812678,1.1956271],"name":"Nested_Cable_Single Cable Assembly Generic [8580909]037"},{"mesh":39,"translation":[0.37901872,0.9584009,1.1956271],"name":"Nested_Cable_Single Cable Assembly Generic [8580909]038"},{"mesh":39,"translation":[0.37901872,0.8355339,1.1956271],"name":"Nested_Cable_Single Cable Assembly Generic [8580909]039"},{"mesh":39,"translation":[0.37901872,1.5727357,1.1956271],"name":"Nested_Cable_Single Cable Assembly Generic [8580909]040"},{"mesh":39,"translation":[0.37901872,1.4498687,1.1956271],"name":"Nested_Cable_Single Cable Assembly Generic [8580909]041"},{"mesh":39,"translation":[0.37901872,1.3270017,1.1956271],"name":"Nested_Cable_Single Cable Assembly Generic [8580909]042"},{"mesh":40,"translation":[-1.4271803,1.5686314,0.0026649537],"name":"Nested_Cable_Single Cable Assembly Generic [8583315]009"},{"mesh":40,"translation":[-1.4271803,1.4688458,0.0026649537],"name":"Nested_Cable_Single Cable Assembly Generic [8583315]010"},{"mesh":40,"translation":[-1.4271803,1.36906,0.0026649537],"name":"Nested_Cable_Single Cable Assembly Generic [8583315]011"},{"mesh":40,"translation":[-1.4271803,2.06756,0.0026649537],"name":"Nested_Cable_Single Cable Assembly Generic [8583315]012"},{"mesh":40,"translation":[-1.4271803,1.8679886,0.0026649537],"name":"Nested_Cable_Single Cable Assembly Generic [8583315]013"},{"mesh":40,"translation":[-1.4271803,1.7682029,0.0026649537],"name":"Nested_Cable_Single Cable Assembly Generic [8583315]014"},{"mesh":40,"translation":[-1.4271803,1.9677744,0.0026649537],"name":"Nested_Cable_Single Cable Assembly Generic [8583315]015"},{"mesh":40,"translation":[-1.4271803,1.6684171,0.0026649537],"name":"Nested_Cable_Single Cable Assembly Generic [8583315]016"},{"mesh":41,"translation":[-0.8469925,1.8679886,-1.0776738],"name":"Nested_Cable_Single Cable Assembly Generic [8655163]008"},{"mesh":41,"translation":[-0.8469925,1.6684171,-1.0776738],"name":"Nested_Cable_Single Cable Assembly Generic [8655163]009"},{"mesh":41,"translation":[-0.8469925,1.5686314,-1.0776738],"name":"Nested_Cable_Single Cable Assembly Generic [8655163]010"},{"mesh":41,"translation":[-0.8469925,1.4688458,-1.0776738],"name":"Nested_Cable_Single Cable Assembly Generic [8655163]011"},{"mesh":41,"translation":[-0.8469925,1.36906,-1.0776738],"name":"Nested_Cable_Single Cable Assembly Generic [8655163]012"},{"mesh":41,"translation":[-0.8469925,1.7682029,-1.0776738],"name":"Nested_Cable_Single Cable Assembly Generic [8655163]013"},{"mesh":41,"translation":[-0.8469925,2.06756,-1.0776738],"name":"Nested_Cable_Single Cable Assembly Generic [8655163]014"},{"mesh":41,"translation":[-0.8469925,1.9677744,-1.0776738],"name":"Nested_Cable_Single Cable Assembly Generic [8655163]015"},{"mesh":42,"translation":[-0.90881664,1.5686314,1.1956271],"name":"Nested_Cable_Single Cable Assembly Generic [8659982]009"},{"mesh":42,"translation":[-0.90881664,1.4688458,1.1956271],"name":"Nested_Cable_Single Cable Assembly Generic [8659982]010"},{"mesh":42,"translation":[-0.90881664,1.36906,1.1956271],"name":"Nested_Cable_Single Cable Assembly Generic [8659982]011"},{"mesh":42,"translation":[-0.90881664,2.06756,1.1956271],"name":"Nested_Cable_Single Cable Assembly Generic [8659982]012"},{"mesh":42,"translation":[-0.90881664,1.8679886,1.1956271],"name":"Nested_Cable_Single Cable Assembly Generic [8659982]013"},{"mesh":42,"translation":[-0.90881664,1.7682029,1.1956271],"name":"Nested_Cable_Single Cable Assembly Generic [8659982]014"},{"mesh":42,"translation":[-0.90881664,1.9677744,1.1956271],"name":"Nested_Cable_Single Cable Assembly Generic [8659982]015"},{"mesh":42,"translation":[-0.90881664,1.6684171,1.1956271],"name":"Nested_Cable_Single Cable Assembly Generic [8659982]016"}],"meshes":[{"primitives":[{"attributes":{"POSITION":1,"TANGENT":2,"NORMAL":3,"TEXCOORD_0":4},"indices":0,"material":0}],"name":"Nested_Rail LS Material [8461322]"},{"primitives":[{"attributes":{"POSITION":6,"TANGENT":7,"NORMAL":8,"TEXCOORD_0":9},"indices":5,"material":0}],"name":"Nested_Rail LS Material [8461324]"},{"primitives":[{"attributes":{"POSITION":11,"TANGENT":12,"NORMAL":13,"TEXCOORD_0":14},"indices":10,"material":0},{"attributes":{"POSITION":16,"TANGENT":17,"NORMAL":18,"TEXCOORD_0":19},"indices":15,"material":1}],"name":"CIR024 - Handrail End Cap Part [8482091]006"},{"primitives":[{"attributes":{"POSITION":21,"TANGENT":22,"NORMAL":23,"TEXCOORD_0":24},"indices":20,"material":0}],"name":"Nested_Rail LS Material [8719226]"},{"primitives":[{"attributes":{"POSITION":26,"TANGENT":27,"NORMAL":28,"TEXCOORD_0":29},"indices":25,"material":0}],"name":"Nested_Rail LS Material [8719249]"},{"primitives":[{"attributes":{"POSITION":31,"TANGENT":32,"NORMAL":33,"TEXCOORD_0":34},"indices":30,"material":0}],"name":"CIR061 - 1 1l2 Rail-To-Rail Connector Part [8719260]001"},{"primitives":[{"attributes":{"POSITION":36,"TANGENT":37,"NORMAL":38,"TEXCOORD_0":39},"indices":35,"material":0}],"name":"Nested_Bend Bend [8719259]"},{"primitives":[{"attributes":{"POSITION":41,"TANGENT":42,"NORMAL":43,"TEXCOORD_0":44},"indices":40,"material":0}],"name":"Nested_Bend Bend [8719267]"},{"primitives":[{"attributes":{"POSITION":46,"TANGENT":47,"NORMAL":48,"TEXCOORD_0":49},"indices":45,"material":0}],"name":"Nested_Bend Bend_2"},{"primitives":[{"attributes":{"POSITION":51,"TANGENT":52,"NORMAL":53,"TEXCOORD_0":54},"indices":50,"material":0}],"name":"Nested_Bend Bend_1"},{"primitives":[{"attributes":{"POSITION":56,"TANGENT":57,"NORMAL":58,"TEXCOORD_0":59},"indices":55,"material":2}],"name":"KOT010 - Right-Hand Threaded End Stop Part [8137739]053"},{"primitives":[{"attributes":{"POSITION":61,"TANGENT":62,"NORMAL":63,"TEXCOORD_0":64},"indices":60,"material":2}],"name":"KOT012 - Turnbuckle Part [8655227]054"},{"primitives":[{"attributes":{"POSITION":66,"TANGENT":67,"NORMAL":68,"TEXCOORD_0":69},"indices":65,"material":0}],"name":"CSQ022 - Square Post Omaha Cap Part [8465283]020"},{"primitives":[{"attributes":{"POSITION":71,"TANGENT":72,"NORMAL":73,"TEXCOORD_0":74},"indices":70,"material":0}],"name":"LS208 & LS209 - Circum Square Post Material LS Material [8937112]"},{"primitives":[{"attributes":{"POSITION":76,"TANGENT":77,"NORMAL":78,"TEXCOORD_0":79},"indices":75,"material":0}],"name":"LS208 & LS209 - Circum Square Post Material LS Material [8937116]"},{"primitives":[{"attributes":{"POSITION":81,"TANGENT":82,"NORMAL":83,"TEXCOORD_0":84},"indices":80,"material":0}],"name":"LS208 & LS209 - Circum Square Post Material LS Material [8937120]"},{"primitives":[{"attributes":{"POSITION":86,"TANGENT":87,"NORMAL":88,"TEXCOORD_0":89},"indices":85,"material":0}],"name":"LS208 & LS209 - Circum Square Post Material LS Material [8937124]"},{"primitives":[{"attributes":{"POSITION":91,"TANGENT":92,"NORMAL":93,"TEXCOORD_0":94},"indices":90,"material":0}],"name":"LS208 & LS209 - Circum Square Post Material LS Material [8937131]"},{"primitives":[{"attributes":{"POSITION":96,"TANGENT":97,"NORMAL":98,"TEXCOORD_0":99},"indices":95,"material":0}],"name":"LS208 & LS209 - Circum Square Post Material LS Material [8937137]"},{"primitives":[{"attributes":{"POSITION":101,"TANGENT":102,"NORMAL":103,"TEXCOORD_0":104},"indices":100,"material":0}],"name":"LS208 & LS209 - Circum Square Post Material LS Material [8937142]"},{"primitives":[{"attributes":{"POSITION":106,"TANGENT":107,"NORMAL":108,"TEXCOORD_0":109},"indices":105,"material":0}],"name":"LS208 & LS209 - Circum Square Post Material LS Material [8937288]"},{"primitives":[{"attributes":{"POSITION":111,"TANGENT":112,"NORMAL":113,"TEXCOORD_0":114},"indices":110,"material":0}],"name":"LS208 & LS209 - Circum Square Post Material LS Material [8937291]"},{"primitives":[{"attributes":{"POSITION":116,"TANGENT":117,"NORMAL":118,"TEXCOORD_0":119},"indices":115,"material":0}],"name":"LS208 & LS209 - Circum Square Post Material LS Material [8937294]"},{"primitives":[{"attributes":{"POSITION":121,"TANGENT":122,"NORMAL":123,"TEXCOORD_0":124},"indices":120,"material":0}],"name":"LS208 & LS209 - Circum Square Post Material LS Material [8937297]"},{"primitives":[{"attributes":{"POSITION":126,"TANGENT":127,"NORMAL":128,"TEXCOORD_0":129},"indices":125,"material":0}],"name":"LS208 & LS209 - Circum Square Post Material LS Material [8937307]"},{"primitives":[{"attributes":{"POSITION":131,"TANGENT":132,"NORMAL":133,"TEXCOORD_0":134},"indices":130,"material":0}],"name":"LS208 & LS209 - Circum Square Post Material LS Material [8937318]"},{"primitives":[{"attributes":{"POSITION":136,"TANGENT":137,"NORMAL":138,"TEXCOORD_0":139},"indices":135,"material":0}],"name":"LS208 & LS209 - Circum Square Post Material LS Material [8937338]"},{"primitives":[{"attributes":{"POSITION":141,"TANGENT":142,"NORMAL":143,"TEXCOORD_0":144},"indices":140,"material":0}],"name":"LS208 & LS209 - Circum Square Post Material LS Material [8937348]"},{"primitives":[{"attributes":{"POSITION":146,"TANGENT":147,"NORMAL":148,"TEXCOORD_0":149},"indices":145,"material":0}],"name":"LS208 & LS209 - Circum Square Post Material LS Material [8937448]"},{"primitives":[{"attributes":{"POSITION":151,"TANGENT":152,"NORMAL":153,"TEXCOORD_0":154},"indices":150,"material":0}],"name":"LS208 & LS209 - Circum Square Post Material LS Material [8937451]"},{"primitives":[{"attributes":{"POSITION":156,"TANGENT":157,"NORMAL":158,"TEXCOORD_0":159},"indices":155,"material":0}],"name":"LS208 & LS209 - Circum Square Post Material LS Material [8937454]"},{"primitives":[{"attributes":{"POSITION":161,"TANGENT":162,"NORMAL":163,"TEXCOORD_0":164},"indices":160,"material":0}],"name":"Custom - Circum 5l8 Stem-Cable LS Material [8469848]014"},{"primitives":[{"attributes":{"POSITION":166,"TANGENT":167,"NORMAL":168,"TEXCOORD_0":169},"indices":165,"material":0}],"name":"CIR057 - 1 1l2 Rail Saddle Part [8723174]077"},{"primitives":[{"attributes":{"POSITION":171,"TANGENT":172,"NORMAL":173,"TEXCOORD_0":174},"indices":170,"material":0}],"name":"CCS139 - 5l8 Stem-Cable Part [8580409]007"},{"primitives":[{"attributes":{"POSITION":176,"TANGENT":177,"NORMAL":178,"TEXCOORD_0":179},"indices":175,"material":0}],"name":"CSQ001-US - Surface Mount Weldment Part [8723797]020"},{"primitives":[{"attributes":{"POSITION":181,"TANGENT":182,"NORMAL":183,"TEXCOORD_0":184},"indices":180,"material":0}],"name":"LS208 & LS209 - Circum Square Post Material LS Material [9041605]"},{"primitives":[{"attributes":{"POSITION":186,"TANGENT":187,"NORMAL":188,"TEXCOORD_0":189},"indices":185,"material":0}],"name":"CCS139 - 5l8 Stem-Cable Part [9041608]"},{"primitives":[{"attributes":{"POSITION":191,"TANGENT":192,"NORMAL":193,"TEXCOORD_0":194},"indices":190,"material":3}],"name":"Nested_Cable_Single Cable Assembly Generic [8145014]013"},{"primitives":[{"attributes":{"POSITION":196,"TANGENT":197,"NORMAL":198,"TEXCOORD_0":199},"indices":195,"material":3}],"name":"Nested_Cable_Single Cable Assembly Generic [8579311]007"},{"primitives":[{"attributes":{"POSITION":201,"TANGENT":202,"NORMAL":203,"TEXCOORD_0":204},"indices":200,"material":3}],"name":"Nested_Cable_Single Cable Assembly Generic [8580909]029"},{"primitives":[{"attributes":{"POSITION":206,"TANGENT":207,"NORMAL":208,"TEXCOORD_0":209},"indices":205,"material":3}],"name":"Nested_Cable_Single Cable Assembly Generic [8583315]009"},{"primitives":[{"attributes":{"POSITION":211,"TANGENT":212,"NORMAL":213,"TEXCOORD_0":214},"indices":210,"material":3}],"name":"Nested_Cable_Single Cable Assembly Generic [8655163]008"},{"primitives":[{"attributes":{"POSITION":216,"TANGENT":217,"NORMAL":218,"TEXCOORD_0":219},"indices":215,"material":3}],"name":"Nested_Cable_Single Cable Assembly Generic [8659982]009"}],"accessors":[{"bufferView":0,"componentType":5123,"count":4704,"type":"SCALAR","name":"accessorIndices"},{"bufferView":1,"componentType":5126,"count":882,"max":[2.4193501,0.01905,0.01905],"min":[6.2264863E-15,-0.01905,-0.01905],"type":"VEC3","name":"accessorPositions"},{"bufferView":2,"componentType":5126,"count":882,"type":"VEC4","name":"accessorTangents"},{"bufferView":1,"byteOffset":10584,"componentType":5126,"count":882,"type":"VEC3","name":"accessorNormals"},{"bufferView":3,"componentType":5126,"count":882,"type":"VEC2","name":"accessorUVs"},{"bufferView":0,"byteOffset":9408,"componentType":5123,"count":4008,"type":"SCALAR","name":"accessorIndices"},{"bufferView":1,"byteOffset":21168,"componentType":5126,"count":766,"max":[2.0332928,0.01905,0.01905],"min":[6.2264863E-15,-0.01905,-0.01905],"type":"VEC3","name":"accessorPositions"},{"bufferView":2,"byteOffset":14112,"componentType":5126,"count":766,"type":"VEC4","name":"accessorTangents"},{"bufferView":1,"byteOffset":30360,"componentType":5126,"count":766,"type":"VEC3","name":"accessorNormals"},{"bufferView":3,"byteOffset":7056,"componentType":5126,"count":766,"type":"VEC2","name":"accessorUVs"},{"bufferView":0,"byteOffset":17424,"componentType":5123,"count":192,"type":"SCALAR","name":"accessorIndices"},{"bufferView":1,"byteOffset":39552,"componentType":5126,"count":66,"max":[-0.00029542364,0.01905,0.01905],"min":[-0.002286,-0.01905,-0.01905],"type":"VEC3","name":"accessorPositions"},{"bufferView":2,"byteOffset":26368,"componentType":5126,"count":66,"type":"VEC4","name":"accessorTangents"},{"bufferView":1,"byteOffset":40344,"componentType":5126,"count":66,"type":"VEC3","name":"accessorNormals"},{"bufferView":3,"byteOffset":13184,"componentType":5126,"count":66,"type":"VEC2","name":"accessorUVs"},{"bufferView":0,"byteOffset":17808,"componentType":5123,"count":762,"type":"SCALAR","name":"accessorIndices"},{"bufferView":1,"byteOffset":41136,"componentType":5126,"count":161,"max":[-0.00029542364,0.01905,0.01905],"min":[-0.0068578967,-0.01905,-0.01905],"type":"VEC3","name":"accessorPositions"},{"bufferView":2,"byteOffset":27424,"componentType":5126,"count":161,"type":"VEC4","name":"accessorTangents"},{"bufferView":1,"byteOffset":43068,"componentType":5126,"count":161,"type":"VEC3","name":"accessorNormals"},{"bufferView":3,"byteOffset":13712,"componentType":5126,"count":161,"type":"VEC2","name":"accessorUVs"},{"bufferView":0,"byteOffset":19332,"componentType":5123,"count":4260,"type":"SCALAR","name":"accessorIndices"},{"bufferView":1,"byteOffset":45000,"componentType":5126,"count":798,"max":[2.1907501,0.01905,0.01905],"min":[0.0005,-0.01905,-0.01905],"type":"VEC3","name":"accessorPositions"},{"bufferView":2,"byteOffset":30000,"componentType":5126,"count":798,"type":"VEC4","name":"accessorTangents"},{"bufferView":1,"byteOffset":54576,"componentType":5126,"count":798,"type":"VEC3","name":"accessorNormals"},{"bufferView":3,"byteOffset":15000,"componentType":5126,"count":798,"type":"VEC2","name":"accessorUVs"},{"bufferView":0,"byteOffset":27852,"componentType":5123,"count":3180,"type":"SCALAR","name":"accessorIndices"},{"bufferView":1,"byteOffset":64152,"componentType":5126,"count":606,"max":[1.6023619,0.01905,0.01905],"min":[6.2264863E-15,-0.01905,-0.01905],"type":"VEC3","name":"accessorPositions"},{"bufferView":2,"byteOffset":42768,"componentType":5126,"count":606,"type":"VEC4","name":"accessorTangents"},{"bufferView":1,"byteOffset":71424,"componentType":5126,"count":606,"type":"VEC3","name":"accessorNormals"},{"bufferView":3,"byteOffset":21384,"componentType":5126,"count":606,"type":"VEC2","name":"accessorUVs"},{"bufferView":0,"byteOffset":34212,"componentType":5123,"count":360,"type":"SCALAR","name":"accessorIndices"},{"bufferView":1,"byteOffset":78696,"componentType":5126,"count":128,"max":[0.0063500004,0.01905,0.01905],"min":[6.2687854E-15,-0.01905,-0.01905],"type":"VEC3","name":"accessorPositions"},{"bufferView":2,"byteOffset":52464,"componentType":5126,"count":128,"type":"VEC4","name":"accessorTangents"},{"bufferView":1,"byteOffset":80232,"componentType":5126,"count":128,"type":"VEC3","name":"accessorNormals"},{"bufferView":3,"byteOffset":26232,"componentType":5126,"count":128,"type":"VEC2","name":"accessorUVs"},{"bufferView":0,"byteOffset":34932,"componentType":5123,"count":1968,"type":"SCALAR","name":"accessorIndices"},{"bufferView":1,"byteOffset":81768,"componentType":5126,"count":448,"max":[0.46392035,0.01905,0.18120809],"min":[-0.3529469,-0.01905,-0.0762],"type":"VEC3","name":"accessorPositions"},{"bufferView":2,"byteOffset":54512,"componentType":5126,"count":448,"type":"VEC4","name":"accessorTangents"},{"bufferView":1,"byteOffset":87144,"componentType":5126,"count":448,"type":"VEC3","name":"accessorNormals"},{"bufferView":3,"byteOffset":27256,"componentType":5126,"count":448,"type":"VEC2","name":"accessorUVs"},{"bufferView":0,"byteOffset":38868,"componentType":5123,"count":2430,"type":"SCALAR","name":"accessorIndices"},{"bufferView":1,"byteOffset":92520,"componentType":5126,"count":524,"max":[0.7441849,0.01905,0.14091066],"min":[-0.29396087,-0.01905,-0.0762],"type":"VEC3","name":"accessorPositions"},{"bufferView":2,"byteOffset":61680,"componentType":5126,"count":524,"type":"VEC4","name":"accessorTangents"},{"bufferView":1,"byteOffset":98808,"componentType":5126,"count":524,"type":"VEC3","name":"accessorNormals"},{"bufferView":3,"byteOffset":30840,"componentType":5126,"count":524,"type":"VEC2","name":"accessorUVs"},{"bufferView":0,"byteOffset":43728,"componentType":5123,"count":1788,"type":"SCALAR","name":"accessorIndices"},{"bufferView":1,"byteOffset":105096,"componentType":5126,"count":842,"max":[-0.0004998516,0.019049998,0.01905],"min":[-0.38131106,-0.019050084,-0.6853009],"type":"VEC3","name":"accessorPositions"},{"bufferView":2,"byteOffset":70064,"componentType":5126,"count":842,"type":"VEC4","name":"accessorTangents"},{"bufferView":1,"byteOffset":115200,"componentType":5126,"count":842,"type":"VEC3","name":"accessorNormals"},{"bufferView":3,"byteOffset":35032,"componentType":5126,"count":842,"type":"VEC2","name":"accessorUVs"},{"bufferView":0,"byteOffset":47304,"componentType":5123,"count":1788,"type":"SCALAR","name":"accessorIndices"},{"bufferView":1,"byteOffset":125304,"componentType":5126,"count":823,"max":[0.01905,0.38131112,0.01905],"min":[-0.019050037,0.0004998547,-1.5806497],"type":"VEC3","name":"accessorPositions"},{"bufferView":2,"byteOffset":83536,"componentType":5126,"count":823,"type":"VEC4","name":"accessorTangents"},{"bufferView":1,"byteOffset":135180,"componentType":5126,"count":823,"type":"VEC3","name":"accessorNormals"},{"bufferView":3,"byteOffset":41768,"componentType":5126,"count":823,"type":"VEC2","name":"accessorUVs"},{"bufferView":0,"byteOffset":50880,"componentType":5123,"count":1140,"type":"SCALAR","name":"accessorIndices"},{"bufferView":1,"byteOffset":145056,"componentType":5126,"count":388,"max":[0.0299974,0.0035052001,0.0035052001],"min":[-0.032004,-0.0035052001,-0.0035052001],"type":"VEC3","name":"accessorPositions"},{"bufferView":2,"byteOffset":96704,"componentType":5126,"count":388,"type":"VEC4","name":"accessorTangents"},{"bufferView":1,"byteOffset":149712,"componentType":5126,"count":388,"type":"VEC3","name":"accessorNormals"},{"bufferView":3,"byteOffset":48352,"componentType":5126,"count":388,"type":"VEC2","name":"accessorUVs"},{"bufferView":0,"byteOffset":53160,"componentType":5123,"count":2952,"type":"SCALAR","name":"accessorIndices"},{"bufferView":1,"byteOffset":154368,"componentType":5126,"count":1012,"max":[0.077494115,0.005003873,0.0057778903],"min":[-0.097104676,-0.005003805,-0.0057778903],"type":"VEC3","name":"accessorPositions"},{"bufferView":2,"byteOffset":102912,"componentType":5126,"count":1012,"type":"VEC4","name":"accessorTangents"},{"bufferView":1,"byteOffset":166512,"componentType":5126,"count":1012,"type":"VEC3","name":"accessorNormals"},{"bufferView":3,"byteOffset":51456,"componentType":5126,"count":1012,"type":"VEC2","name":"accessorUVs"},{"bufferView":0,"byteOffset":59064,"componentType":5123,"count":324,"type":"SCALAR","name":"accessorIndices"},{"bufferView":1,"byteOffset":178656,"componentType":5126,"count":120,"max":[0.025592525,0.0031551565,0.025590502],"min":[-0.025588477,-2.0427421E-15,-0.025590502],"type":"VEC3","name":"accessorPositions"},{"bufferView":2,"byteOffset":119104,"componentType":5126,"count":120,"type":"VEC4","name":"accessorTangents"},{"bufferView":1,"byteOffset":180096,"componentType":5126,"count":120,"type":"VEC3","name":"accessorNormals"},{"bufferView":3,"byteOffset":59552,"componentType":5126,"count":120,"type":"VEC2","name":"accessorUVs"},{"bufferView":0,"byteOffset":59712,"componentType":5123,"count":36327,"type":"SCALAR","name":"accessorIndices"},{"bufferView":1,"byteOffset":181536,"componentType":5126,"count":8662,"max":[-28.507252,1.6264383,-27.113844],"min":[-28.558329,0.73152006,-27.164644],"type":"VEC3","name":"accessorPositions"},{"bufferView":2,"byteOffset":121024,"componentType":5126,"count":8662,"type":"VEC4","name":"accessorTangents"},{"bufferView":1,"byteOffset":285480,"componentType":5126,"count":8662,"type":"VEC3","name":"accessorNormals"},{"bufferView":3,"byteOffset":60512,"componentType":5126,"count":8662,"type":"VEC2","name":"accessorUVs"},{"bufferView":0,"byteOffset":132368,"componentType":5123,"count":28326,"type":"SCALAR","name":"accessorIndices"},{"bufferView":1,"byteOffset":389424,"componentType":5126,"count":6147,"max":[-27.645239,1.0342373,-27.113844],"min":[-27.696318,0.18288001,-27.164644],"type":"VEC3","name":"accessorPositions"},{"bufferView":2,"byteOffset":259616,"componentType":5126,"count":6147,"type":"VEC4","name":"accessorTangents"},{"bufferView":1,"byteOffset":463188,"componentType":5126,"count":6147,"type":"VEC3","name":"accessorNormals"},{"bufferView":3,"byteOffset":129808,"componentType":5126,"count":6147,"type":"VEC2","name":"accessorUVs"},{"bufferView":0,"byteOffset":189020,"componentType":5123,"count":30045,"type":"SCALAR","name":"accessorIndices"},{"bufferView":1,"byteOffset":536952,"componentType":5126,"count":6454,"max":[-27.402565,3.4812438,-27.278944],"min":[-27.453644,2.56032,-27.329744],"type":"VEC3","name":"accessorPositions"},{"bufferView":2,"byteOffset":357968,"componentType":5126,"count":6454,"type":"VEC4","name":"accessorTangents"},{"bufferView":1,"byteOffset":614400,"componentType":5126,"count":6454,"type":"VEC3","name":"accessorNormals"},{"bufferView":3,"byteOffset":178984,"componentType":5126,"count":6454,"type":"VEC2","name":"accessorUVs"},{"bufferView":0,"byteOffset":249112,"componentType":5123,"count":36327,"type":"SCALAR","name":"accessorIndices"},{"bufferView":1,"byteOffset":691848,"componentType":5126,"count":8662,"max":[-27.973389,3.0895252,-27.278944],"min":[-28.024466,2.19456,-27.329744],"type":"VEC3","name":"accessorPositions"},{"bufferView":2,"byteOffset":461232,"componentType":5126,"count":8662,"type":"VEC4","name":"accessorTangents"},{"bufferView":1,"byteOffset":795792,"componentType":5126,"count":8662,"type":"VEC3","name":"accessorNormals"},{"bufferView":3,"byteOffset":230616,"componentType":5126,"count":8662,"type":"VEC2","name":"accessorUVs"},{"bufferView":0,"byteOffset":321768,"componentType":5123,"count":28278,"type":"SCALAR","name":"accessorIndices"},{"bufferView":1,"byteOffset":899736,"componentType":5126,"count":6139,"max":[-29.242264,2.131492,-27.113844],"min":[-29.293343,1.28016,-27.164644],"type":"VEC3","name":"accessorPositions"},{"bufferView":2,"byteOffset":599824,"componentType":5126,"count":6139,"type":"VEC4","name":"accessorTangents"},{"bufferView":1,"byteOffset":973404,"componentType":5126,"count":6139,"type":"VEC3","name":"accessorNormals"},{"bufferView":3,"byteOffset":299912,"componentType":5126,"count":6139,"type":"VEC2","name":"accessorUVs"},{"bufferView":0,"byteOffset":378324,"componentType":5123,"count":29952,"type":"SCALAR","name":"accessorIndices"},{"bufferView":1,"byteOffset":1047072,"componentType":5126,"count":6443,"max":[-29.242264,2.2186606,-27.278944],"min":[-29.293343,1.28016,-27.329744],"type":"VEC3","name":"accessorPositions"},{"bufferView":2,"byteOffset":698048,"componentType":5126,"count":6443,"type":"VEC4","name":"accessorTangents"},{"bufferView":1,"byteOffset":1124388,"componentType":5126,"count":6443,"type":"VEC3","name":"accessorNormals"},{"bufferView":3,"byteOffset":349024,"componentType":5126,"count":6443,"type":"VEC2","name":"accessorUVs"},{"bufferView":0,"byteOffset":438228,"componentType":5123,"count":36327,"type":"SCALAR","name":"accessorIndices"},{"bufferView":1,"byteOffset":1201704,"componentType":5126,"count":8662,"max":[-28.772814,2.540885,-27.278944],"min":[-28.823893,1.64592,-27.329744],"type":"VEC3","name":"accessorPositions"},{"bufferView":2,"byteOffset":801136,"componentType":5126,"count":8662,"type":"VEC4","name":"accessorTangents"},{"bufferView":1,"byteOffset":1305648,"componentType":5126,"count":8662,"type":"VEC3","name":"accessorNormals"},{"bufferView":3,"byteOffset":400568,"componentType":5126,"count":8662,"type":"VEC2","name":"accessorUVs"},{"bufferView":0,"byteOffset":510884,"componentType":5123,"count":30045,"type":"SCALAR","name":"accessorIndices"},{"bufferView":1,"byteOffset":1409592,"componentType":5126,"count":6454,"max":[-27.402565,3.4812438,-28.333042],"min":[-27.453644,2.56032,-28.383844],"type":"VEC3","name":"accessorPositions"},{"bufferView":2,"byteOffset":939728,"componentType":5126,"count":6454,"type":"VEC4","name":"accessorTangents"},{"bufferView":1,"byteOffset":1487040,"componentType":5126,"count":6454,"type":"VEC3","name":"accessorNormals"},{"bufferView":3,"byteOffset":469864,"componentType":5126,"count":6454,"type":"VEC2","name":"accessorUVs"},{"bufferView":0,"byteOffset":570976,"componentType":5123,"count":36327,"type":"SCALAR","name":"accessorIndices"},{"bufferView":1,"byteOffset":1564488,"componentType":5126,"count":8662,"max":[-27.973389,3.0895252,-28.333042],"min":[-28.024466,2.19456,-28.383844],"type":"VEC3","name":"accessorPositions"},{"bufferView":2,"byteOffset":1042992,"componentType":5126,"count":8662,"type":"VEC4","name":"accessorTangents"},{"bufferView":1,"byteOffset":1668432,"componentType":5126,"count":8662,"type":"VEC3","name":"accessorNormals"},{"bufferView":3,"byteOffset":521496,"componentType":5126,"count":8662,"type":"VEC2","name":"accessorUVs"},{"bufferView":0,"byteOffset":643632,"componentType":5123,"count":33114,"type":"SCALAR","name":"accessorIndices"},{"bufferView":1,"byteOffset":1772376,"componentType":5126,"count":7713,"max":[-29.343864,2.1489885,-28.333042],"min":[-29.394943,1.28016,-28.383844],"type":"VEC3","name":"accessorPositions"},{"bufferView":2,"byteOffset":1181584,"componentType":5126,"count":7713,"type":"VEC4","name":"accessorTangents"},{"bufferView":1,"byteOffset":1864932,"componentType":5126,"count":7713,"type":"VEC3","name":"accessorNormals"},{"bufferView":3,"byteOffset":590792,"componentType":5126,"count":7713,"type":"VEC2","name":"accessorUVs"},{"bufferView":0,"byteOffset":709860,"componentType":5123,"count":36327,"type":"SCALAR","name":"accessorIndices"},{"bufferView":1,"byteOffset":1957488,"componentType":5126,"count":8662,"max":[-28.772814,2.540885,-28.333042],"min":[-28.823893,1.64592,-28.383844],"type":"VEC3","name":"accessorPositions"},{"bufferView":2,"byteOffset":1304992,"componentType":5126,"count":8662,"type":"VEC4","name":"accessorTangents"},{"bufferView":1,"byteOffset":2061432,"componentType":5126,"count":8662,"type":"VEC3","name":"accessorNormals"},{"bufferView":3,"byteOffset":652496,"componentType":5126,"count":8662,"type":"VEC2","name":"accessorUVs"},{"bufferView":0,"byteOffset":782516,"componentType":5123,"count":29742,"type":"SCALAR","name":"accessorIndices"},{"bufferView":1,"byteOffset":2165376,"componentType":5126,"count":6759,"max":[-30.182066,2.1077428,-28.333042],"min":[-30.233143,1.28016,-28.383844],"type":"VEC3","name":"accessorPositions"},{"bufferView":2,"byteOffset":1443584,"componentType":5126,"count":6759,"type":"VEC4","name":"accessorTangents"},{"bufferView":1,"byteOffset":2246484,"componentType":5126,"count":6759,"type":"VEC3","name":"accessorNormals"},{"bufferView":3,"byteOffset":721792,"componentType":5126,"count":6759,"type":"VEC2","name":"accessorUVs"},{"bufferView":0,"byteOffset":842000,"componentType":5123,"count":29742,"type":"SCALAR","name":"accessorIndices"},{"bufferView":1,"byteOffset":2327592,"componentType":5126,"count":6759,"max":[-30.296505,2.1077428,-28.218603],"min":[-30.347303,1.28016,-28.269682],"type":"VEC3","name":"accessorPositions"},{"bufferView":2,"byteOffset":1551728,"componentType":5126,"count":6759,"type":"VEC4","name":"accessorTangents"},{"bufferView":1,"byteOffset":2408700,"componentType":5126,"count":6759,"type":"VEC3","name":"accessorNormals"},{"bufferView":3,"byteOffset":775864,"componentType":5126,"count":6759,"type":"VEC2","name":"accessorUVs"},{"bufferView":0,"byteOffset":901484,"componentType":5123,"count":29742,"type":"SCALAR","name":"accessorIndices"},{"bufferView":1,"byteOffset":2489808,"componentType":5126,"count":6759,"max":[-30.296505,2.1077428,-26.173904],"min":[-30.347303,1.28016,-26.224983],"type":"VEC3","name":"accessorPositions"},{"bufferView":2,"byteOffset":1659872,"componentType":5126,"count":6759,"type":"VEC4","name":"accessorTangents"},{"bufferView":1,"byteOffset":2570916,"componentType":5126,"count":6759,"type":"VEC3","name":"accessorNormals"},{"bufferView":3,"byteOffset":829936,"componentType":5126,"count":6759,"type":"VEC2","name":"accessorUVs"},{"bufferView":0,"byteOffset":960968,"componentType":5123,"count":39054,"type":"SCALAR","name":"accessorIndices"},{"bufferView":1,"byteOffset":2652024,"componentType":5126,"count":9847,"max":[-30.296505,2.1077428,-27.196255],"min":[-30.347303,1.28016,-27.247332],"type":"VEC3","name":"accessorPositions"},{"bufferView":2,"byteOffset":1768016,"componentType":5126,"count":9847,"type":"VEC4","name":"accessorTangents"},{"bufferView":1,"byteOffset":2770188,"componentType":5126,"count":9847,"type":"VEC3","name":"accessorNormals"},{"bufferView":3,"byteOffset":884008,"componentType":5126,"count":9847,"type":"VEC2","name":"accessorUVs"},{"bufferView":0,"byteOffset":1039076,"componentType":5123,"count":36327,"type":"SCALAR","name":"accessorIndices"},{"bufferView":1,"byteOffset":2888352,"componentType":5126,"count":8662,"max":[-28.507252,1.6264383,-26.059744],"min":[-28.558329,0.73152006,-26.110544],"type":"VEC3","name":"accessorPositions"},{"bufferView":2,"byteOffset":1925568,"componentType":5126,"count":8662,"type":"VEC4","name":"accessorTangents"},{"bufferView":1,"byteOffset":2992296,"componentType":5126,"count":8662,"type":"VEC3","name":"accessorNormals"},{"bufferView":3,"byteOffset":962784,"componentType":5126,"count":8662,"type":"VEC2","name":"accessorUVs"},{"bufferView":0,"byteOffset":1111732,"componentType":5123,"count":28326,"type":"SCALAR","name":"accessorIndices"},{"bufferView":1,"byteOffset":3096240,"componentType":5126,"count":6147,"max":[-27.645239,1.0342373,-26.059744],"min":[-27.696318,0.18288001,-26.110544],"type":"VEC3","name":"accessorPositions"},{"bufferView":2,"byteOffset":2064160,"componentType":5126,"count":6147,"type":"VEC4","name":"accessorTangents"},{"bufferView":1,"byteOffset":3170004,"componentType":5126,"count":6147,"type":"VEC3","name":"accessorNormals"},{"bufferView":3,"byteOffset":1032080,"componentType":5126,"count":6147,"type":"VEC2","name":"accessorUVs"},{"bufferView":0,"byteOffset":1168384,"componentType":5123,"count":32178,"type":"SCALAR","name":"accessorIndices"},{"bufferView":1,"byteOffset":3243768,"componentType":5126,"count":7557,"max":[-29.242264,2.1077428,-26.059744],"min":[-29.293343,1.28016,-26.110544],"type":"VEC3","name":"accessorPositions"},{"bufferView":2,"byteOffset":2162512,"componentType":5126,"count":7557,"type":"VEC4","name":"accessorTangents"},{"bufferView":1,"byteOffset":3334452,"componentType":5126,"count":7557,"type":"VEC3","name":"accessorNormals"},{"bufferView":3,"byteOffset":1081256,"componentType":5126,"count":7557,"type":"VEC2","name":"accessorUVs"},{"bufferView":0,"byteOffset":1232740,"componentType":5123,"count":2682,"type":"SCALAR","name":"accessorIndices"},{"bufferView":1,"byteOffset":3425136,"componentType":5126,"count":750,"max":[0.0079375,0.06034161,0.024871314],"min":[-0.0079375,-0.013208,-0.0079375],"type":"VEC3","name":"accessorPositions"},{"bufferView":2,"byteOffset":2283424,"componentType":5126,"count":750,"type":"VEC4","name":"accessorTangents"},{"bufferView":1,"byteOffset":3434136,"componentType":5126,"count":750,"type":"VEC3","name":"accessorNormals"},{"bufferView":3,"byteOffset":1141712,"componentType":5126,"count":750,"type":"VEC2","name":"accessorUVs"},{"bufferView":0,"byteOffset":1238104,"componentType":5123,"count":348,"type":"SCALAR","name":"accessorIndices"},{"bufferView":1,"byteOffset":3443136,"componentType":5126,"count":128,"max":[0.042062398,0.0120777,0.03175],"min":[0.033772144,-0.012090401,-0.03175],"type":"VEC3","name":"accessorPositions"},{"bufferView":2,"byteOffset":2295424,"componentType":5126,"count":128,"type":"VEC4","name":"accessorTangents"},{"bufferView":1,"byteOffset":3444672,"componentType":5126,"count":128,"type":"VEC3","name":"accessorNormals"},{"bufferView":3,"byteOffset":1147712,"componentType":5126,"count":128,"type":"VEC2","name":"accessorUVs"},{"bufferView":0,"byteOffset":1238800,"componentType":5123,"count":852,"type":"SCALAR","name":"accessorIndices"},{"bufferView":1,"byteOffset":3446208,"componentType":5126,"count":432,"max":[0.0079375,0.0427736,0.0079375],"min":[-0.0079375,-0.01320801,-0.0079375],"type":"VEC3","name":"accessorPositions"},{"bufferView":2,"byteOffset":2297472,"componentType":5126,"count":432,"type":"VEC4","name":"accessorTangents"},{"bufferView":1,"byteOffset":3451392,"componentType":5126,"count":432,"type":"VEC3","name":"accessorNormals"},{"bufferView":3,"byteOffset":1148736,"componentType":5126,"count":432,"type":"VEC2","name":"accessorUVs"},{"bufferView":0,"byteOffset":1240504,"componentType":5123,"count":918,"type":"SCALAR","name":"accessorIndices"},{"bufferView":1,"byteOffset":3456576,"componentType":5126,"count":309,"max":[0.053975,0.025400002,0.053975],"min":[-0.053975,-3.0953716E-15,-0.053975],"type":"VEC3","name":"accessorPositions"},{"bufferView":2,"byteOffset":2304384,"componentType":5126,"count":309,"type":"VEC4","name":"accessorTangents"},{"bufferView":1,"byteOffset":3460284,"componentType":5126,"count":309,"type":"VEC3","name":"accessorNormals"},{"bufferView":3,"byteOffset":1152192,"componentType":5126,"count":309,"type":"VEC2","name":"accessorUVs"},{"bufferView":0,"byteOffset":1242340,"componentType":5123,"count":25050,"type":"SCALAR","name":"accessorIndices"},{"bufferView":1,"byteOffset":3463992,"componentType":5126,"count":5209,"max":[-30.182066,2.1077428,-26.059744],"min":[-30.233143,1.28016,-26.110544],"type":"VEC3","name":"accessorPositions"},{"bufferView":2,"byteOffset":2309328,"componentType":5126,"count":5209,"type":"VEC4","name":"accessorTangents"},{"bufferView":1,"byteOffset":3526500,"componentType":5126,"count":5209,"type":"VEC3","name":"accessorNormals"},{"bufferView":3,"byteOffset":1154664,"componentType":5126,"count":5209,"type":"VEC2","name":"accessorUVs"},{"bufferView":0,"byteOffset":1292440,"componentType":5123,"count":1476,"type":"SCALAR","name":"accessorIndices"},{"bufferView":1,"byteOffset":3589008,"componentType":5126,"count":398,"max":[0.0079375,0.043281604,0.0079375],"min":[-0.0079375,-0.012700001,-0.0079375],"type":"VEC3","name":"accessorPositions"},{"bufferView":2,"byteOffset":2392672,"componentType":5126,"count":398,"type":"VEC4","name":"accessorTangents"},{"bufferView":1,"byteOffset":3593784,"componentType":5126,"count":398,"type":"VEC3","name":"accessorNormals"},{"bufferView":3,"byteOffset":1196336,"componentType":5126,"count":398,"type":"VEC2","name":"accessorUVs"},{"bufferView":0,"byteOffset":1295392,"componentType":5123,"count":276,"type":"SCALAR","name":"accessorIndices"},{"bufferView":1,"byteOffset":3598560,"componentType":5126,"count":98,"max":[0.82885754,0.5696789,0.0019998779],"min":[-0.82885754,-0.569679,-0.0019998779],"type":"VEC3","name":"accessorPositions"},{"bufferView":2,"byteOffset":2399040,"componentType":5126,"count":98,"type":"VEC4","name":"accessorTangents"},{"bufferView":1,"byteOffset":3599736,"componentType":5126,"count":98,"type":"VEC3","name":"accessorNormals"},{"bufferView":3,"byteOffset":1199520,"componentType":5126,"count":98,"type":"VEC2","name":"accessorUVs"},{"bufferView":0,"byteOffset":1295944,"componentType":5123,"count":276,"type":"SCALAR","name":"accessorIndices"},{"bufferView":1,"byteOffset":3600912,"componentType":5126,"count":98,"max":[0.8796579,0.6045407,0.0019998779],"min":[-0.8796579,-0.6045406,-0.0019998779],"type":"VEC3","name":"accessorPositions"},{"bufferView":2,"byteOffset":2400608,"componentType":5126,"count":98,"type":"VEC4","name":"accessorTangents"},{"bufferView":1,"byteOffset":3602088,"componentType":5126,"count":98,"type":"VEC3","name":"accessorNormals"},{"bufferView":3,"byteOffset":1200304,"componentType":5126,"count":98,"type":"VEC2","name":"accessorUVs"},{"bufferView":0,"byteOffset":1296496,"componentType":5123,"count":276,"type":"SCALAR","name":"accessorIndices"},{"bufferView":1,"byteOffset":3603264,"componentType":5126,"count":98,"max":[0.7075429,0.48696956,0.0019998779],"min":[-0.7075429,-0.48696947,-0.0019998779],"type":"VEC3","name":"accessorPositions"},{"bufferView":2,"byteOffset":2402176,"componentType":5126,"count":98,"type":"VEC4","name":"accessorTangents"},{"bufferView":1,"byteOffset":3604440,"componentType":5126,"count":98,"type":"VEC3","name":"accessorNormals"},{"bufferView":3,"byteOffset":1201088,"componentType":5126,"count":98,"type":"VEC2","name":"accessorUVs"},{"bufferView":0,"byteOffset":1297048,"componentType":5123,"count":276,"type":"SCALAR","name":"accessorIndices"},{"bufferView":1,"byteOffset":3605616,"componentType":5126,"count":98,"max":[0.0019998779,0.0020000234,0.9360917],"min":[-0.0019998779,-0.0020000234,-0.9360917],"type":"VEC3","name":"accessorPositions"},{"bufferView":2,"byteOffset":2403744,"componentType":5126,"count":98,"type":"VEC4","name":"accessorTangents"},{"bufferView":1,"byteOffset":3606792,"componentType":5126,"count":98,"type":"VEC3","name":"accessorNormals"},{"bufferView":3,"byteOffset":1201872,"componentType":5126,"count":98,"type":"VEC2","name":"accessorUVs"},{"bufferView":0,"byteOffset":1297600,"componentType":5123,"count":276,"type":"SCALAR","name":"accessorIndices"},{"bufferView":1,"byteOffset":3607968,"componentType":5126,"count":98,"max":[0.32331514,0.0020000234,0.0019998779],"min":[-0.32331747,-0.0020000234,-0.0019998779],"type":"VEC3","name":"accessorPositions"},{"bufferView":2,"byteOffset":2405312,"componentType":5126,"count":98,"type":"VEC4","name":"accessorTangents"},{"bufferView":1,"byteOffset":3609144,"componentType":5126,"count":98,"type":"VEC3","name":"accessorNormals"},{"bufferView":3,"byteOffset":1202656,"componentType":5126,"count":98,"type":"VEC2","name":"accessorUVs"},{"bufferView":0,"byteOffset":1298152,"componentType":5123,"count":276,"type":"SCALAR","name":"accessorIndices"},{"bufferView":1,"byteOffset":3610320,"componentType":5126,"count":98,"max":[0.3741167,0.0020000234,0.0019998779],"min":[-0.3741167,-0.0020000234,-0.0019998779],"type":"VEC3","name":"accessorPositions"},{"bufferView":2,"byteOffset":2406880,"componentType":5126,"count":98,"type":"VEC4","name":"accessorTangents"},{"bufferView":1,"byteOffset":3611496,"componentType":5126,"count":98,"type":"VEC3","name":"accessorNormals"},{"bufferView":3,"byteOffset":1203440,"componentType":5126,"count":98,"type":"VEC2","name":"accessorUVs"}],"bufferViews":[{"buffer":0,"byteLength":1298704,"name":"bufferViewScalar"},{"buffer":0,"byteOffset":1298704,"byteLength":3612672,"byteStride":12,"name":"bufferViewFloatVec3"},{"buffer":0,"byteOffset":4911376,"byteLength":2408448,"byteStride":16,"name":"bufferViewFloatVec4"},{"buffer":0,"byteOffset":7319824,"byteLength":1204224,"byteStride":8,"name":"bufferViewFloatVec2"}],"buffers":[{"uri":"Switchback_Railing_Koto_Square.bin","byteLength":8524048}],"materials":[{"pbrMetallicRoughness":{"baseColorFactor":[0.9999998,0.9999999,0.9999999,1.0],"baseColorTexture":{"index":0,"extensions":{"KHR_texture_transform":{"offset":[0.19519997,0.8048],"rotation":1.5707964,"scale":[0.6096,0.6096],"texCoord":0}}},"roughnessFactor":0.2,"metallicRoughnessTexture":{"index":0,"extensions":{"KHR_texture_transform":{"offset":[0.19519997,0.8048],"rotation":1.5707964,"scale":[0.6096,0.6096],"texCoord":0}}}},"name":"Steel_Linear"},{"pbrMetallicRoughness":{"baseColorFactor":[0.9999998,0.9999999,0.9999999,1.0],"baseColorTexture":{"index":1},"roughnessFactor":0.2,"metallicRoughnessTexture":{"index":1}},"name":"Steel_Radial"},{"pbrMetallicRoughness":{"baseColorFactor":[0.9999998,0.9999999,0.9999999,1.0],"roughnessFactor":0.2},"name":"Steel_Polished"},{"pbrMetallicRoughness":{"baseColorFactor":[0.9999998,0.9999999,0.9999999,1.0],"baseColorTexture":{"index":2,"extensions":{"KHR_texture_transform":{"offset":[0.21909332,-0.053646088],"rotation":-1.2217305,"scale":[25.83051,25.83051],"texCoord":0}}},"roughnessFactor":0.2,"metallicRoughnessTexture":{"index":2,"extensions":{"KHR_texture_transform":{"offset":[0.21909332,-0.053646088],"rotation":-1.2217305,"scale":[25.83051,25.83051],"texCoord":0}}}},"name":"Cable"}],"textures":[{"sampler":0,"source":0,"name":"Metal_Brushed_Linear_4k.jpg"},{"sampler":0,"source":1,"name":"Metal_Brushed_Radial_4k.jpg"},{"sampler":0,"source":2,"name":"Metal_Cable.jpg"}],"images":[{"uri":"textures/Metal_Brushed_Linear_4k.jpg"},{"uri":"textures/Metal_Brushed_Radial_4k.jpg"},{"uri":"textures/Metal_Cable.jpg"}],"samplers":[{"magFilter":9729,"minFilter":9987}]}