{"asset":{"version":"2.0","generator":"babylon.js glTF exporter for 3dsmax 2026 v20251111.2"},"extensionsUsed":["KHR_materials_ior","KHR_materials_transmission","KHR_materials_volume","KHR_texture_transform","KHR_materials_specular"],"extensionsRequired":["KHR_texture_transform"],"scene":0,"scenes":[{"nodes":[0,1,2,3,4,5,6,7,8,9,10,11,12,13,14,15,16,17,18,19,20,21,22,23,24,25,26,27,28,29,30,31,32,33,34,35,36,37,38,39,40,41,42,43,44,45,46,47,48,49,50,51,52,53,54,55,56,57,58,59,60,61,62,63,64,65,66,67,68,69,70,71,72,73,74,75,76,77,78,79,80,81,82,83,84,85,86,87,88,89,90,91,92,93,94,95,96,97,98,99,100,101,102,103,104,105,106,107,108,109,110,111,112,113,114,115,116,117,118,119,120,121,122,123,124,125,126,127,128,129,130,131,132,133,134,135,136,137,138,139,140,141,142,143,144,145,146,147,148,149,150,151,152,153,154,155,156,157,158,159,160,161,162,163,164,165,166,167,168,169,170,171,172,173,174,175,176,177,178,179,180,181,182,183,184,185,186,187,188,189,190,191,192,193,194,195,196,197,198,199,200,201,202,203,204,205,206,207,208,209,210,211,212,213,214,215,216,217,218,219,220,221,222,223,224,225,226,227,228,229,230,231,232,233,234,235,236,237,238,239,240,241,242,243,244,245,246,247,248,249,250,251,252,253,254,255,256,257,258,259,260,261,262,263,264,265]}],"nodes":[{"mesh":0,"translation":[-0.18280497,2.1652887,-0.076767445],"name":"Infill_Glass_Raked & Horizontal Generic [8199751]"},{"mesh":1,"translation":[1.416044,3.26257,-0.076767445],"name":"Infill_Glass_Raked & Horizontal Generic [8200579]"},{"mesh":2,"translation":[-0.42627385,2.04216,-0.07332812],"rotation":[-0.0,-0.7071068,0.0,0.7071067],"name":"Infill_Glass_Raked & Horizontal Generic [8201308]"},{"mesh":3,"translation":[-0.29053095,2.19456,0.19472066],"rotation":[0.7071068,-0.0,0.0,0.7071067],"name":"Infill_Glass_Transition Generic [8202170]"},{"mesh":4,"translation":[0.89538735,0.92937434,0.19472066],"rotation":[-0.0,-1.0,0.0,-4.371139E-08],"name":"Infill_Glass_Raked & Horizontal Generic [8202939]"},{"mesh":5,"translation":[28.89472,0.0,27.28077],"name":"Generic Models 1 Generic Models 1 [8568048]"},{"mesh":6,"translation":[28.89472,0.0,27.28077],"name":"Generic Models 2 Generic Models 2 [8568681]"},{"mesh":7,"translation":[0.89538735,0.9293959,1.1424326],"rotation":[-0.0,-1.0,0.0,-4.371139E-08],"name":"Infill_Glass_Raked & Horizontal Generic [8735940]"},{"mesh":8,"translation":[28.89472,0.0,27.28077],"name":"Generic Models 10 Generic Models 1 [8735975]"},{"mesh":9,"translation":[1.416044,3.2625408,-1.0244794],"rotation":[-0.0,3.133859E-15,0.0,1.0],"name":"Infill_Glass_Raked & Horizontal Generic [8736296]"},{"mesh":10,"translation":[-0.9978901,1.8699833,-1.0244794],"rotation":[-0.0,3.133859E-15,0.0,1.0],"name":"Infill_Glass_Raked & Horizontal Generic [8737682]"},{"mesh":11,"translation":[28.89472,0.0,27.28077],"name":"Casework 1 Casework 1 [8738332]"},{"mesh":12,"translation":[-1.3739858,1.8699833,-0.64838374],"rotation":[-0.0,-0.7071068,0.0,0.7071067],"name":"Infill_Glass_Raked & Horizontal Generic [8738822]"},{"mesh":13,"translation":[-1.3739858,1.8699833,0.76633686],"rotation":[-0.0,0.7071068,0.0,0.7071067],"name":"Infill_Glass_Raked & Horizontal Generic [8739062]"},{"mesh":14,"translation":[-0.9978901,1.8699833,1.1424326],"name":"Infill_Glass_Raked & Horizontal Generic [8739156]"},{"mesh":15,"translation":[0.096873306,1.4780358,1.1424326],"rotation":[-0.0,-1.0,0.0,-4.371139E-08],"name":"Infill_Glass_Raked & Horizontal Generic [8739593]"},{"mesh":16,"translation":[-0.17041038,1.3670026,0.14152622],"rotation":[-0.0,-0.7071068,0.0,0.7071067],"name":"KUB009 - Top Barrel Mount Part [8739165]050"},{"mesh":16,"translation":[-0.17010576,1.7327118,-0.023573017],"rotation":[-0.0,0.7071068,0.0,0.7071067],"name":"KUB009 - Top Barrel Mount Part [8739165]051"},{"mesh":16,"translation":[0.36284545,2.0984719,-0.023573017],"rotation":[-0.0,0.7071068,0.0,0.7071067],"name":"KUB009 - Top Barrel Mount Part [8739165]052"},{"mesh":16,"translation":[0.6293199,2.2813518,-0.023573017],"rotation":[-0.0,0.7071068,0.0,0.7071067],"name":"KUB009 - Top Barrel Mount Part [8739165]053"},{"mesh":16,"translation":[1.4287455,2.8299918,-0.023573017],"rotation":[-0.0,0.7071068,0.0,0.7071067],"name":"KUB009 - Top Barrel Mount Part [8739165]054"},{"mesh":16,"translation":[-0.37308174,1.4674852,0.05897545],"rotation":[-0.0,-1.0,0.0,-4.371139E-08],"name":"KUB009 - Top Barrel Mount Part [8739165]055"},{"mesh":16,"translation":[0.36257103,1.0012426,0.14152622],"rotation":[-0.0,-0.7071068,0.0,0.7071067],"name":"KUB009 - Top Barrel Mount Part [8739165]056"},{"mesh":16,"translation":[0.6281037,0.81836265,0.14152622],"rotation":[-0.0,-0.7071068,0.0,0.7071067],"name":"KUB009 - Top Barrel Mount Part [8739165]057"},{"mesh":16,"translation":[1.1604433,0.45260262,0.14152622],"rotation":[-0.0,-0.7071068,0.0,0.7071067],"name":"KUB009 - Top Barrel Mount Part [8739165]058"},{"mesh":16,"translation":[-0.17041038,1.3670026,1.195627],"rotation":[-0.0,0.7071068,0.0,0.7071067],"name":"KUB009 - Top Barrel Mount Part [8739165]059"},{"mesh":16,"translation":[0.36257103,1.0012426,1.195627],"rotation":[-0.0,0.7071068,0.0,0.7071067],"name":"KUB009 - Top Barrel Mount Part [8739165]060"},{"mesh":16,"translation":[0.6281037,0.81836265,1.195627],"rotation":[-0.0,0.7071068,0.0,0.7071067],"name":"KUB009 - Top Barrel Mount Part [8739165]061"},{"mesh":16,"translation":[1.1604433,0.45260262,1.195627],"rotation":[-0.0,0.7071068,0.0,0.7071067],"name":"KUB009 - Top Barrel Mount Part [8739165]062"},{"mesh":16,"translation":[0.36284545,2.0984719,-1.0776738],"rotation":[-0.0,-0.7071068,0.0,0.7071067],"name":"KUB009 - Top Barrel Mount Part [8739165]063"},{"mesh":16,"translation":[0.6293199,2.2813518,-1.0776738],"rotation":[-0.0,-0.7071068,0.0,0.7071067],"name":"KUB009 - Top Barrel Mount Part [8739165]064"},{"mesh":16,"translation":[1.4287455,2.8299918,-1.0776738],"rotation":[-0.0,-0.7071068,0.0,0.7071067],"name":"KUB009 - Top Barrel Mount Part [8739165]065"},{"mesh":16,"translation":[-0.4493236,1.5498319,-1.0776738],"rotation":[-0.0,-0.7071068,0.0,0.7071067],"name":"KUB009 - Top Barrel Mount Part [8739165]066"},{"mesh":16,"translation":[-0.7160236,1.4674852,-1.0776738],"rotation":[-0.0,-0.7071068,0.0,0.7071067],"name":"KUB009 - Top Barrel Mount Part [8739165]067"},{"mesh":16,"translation":[-1.2308573,1.4674852,-1.0776738],"rotation":[-0.0,-0.7071068,0.0,0.7071067],"name":"KUB009 - Top Barrel Mount Part [8739165]068"},{"mesh":16,"translation":[-1.4271802,1.4674852,-0.8813486],"name":"KUB009 - Top Barrel Mount Part [8739165]069"},{"mesh":16,"translation":[-1.4271802,1.4674852,0.99930173],"rotation":[-0.0,1.4546442E-14,0.0,1.0],"name":"KUB009 - Top Barrel Mount Part [8739165]070"},{"mesh":16,"translation":[-1.4271802,1.4674852,-0.074374564],"name":"KUB009 - Top Barrel Mount Part [8739165]071"},{"mesh":16,"translation":[-1.4271802,1.4674852,0.19232546],"rotation":[-0.0,1.4546442E-14,0.0,1.0],"name":"KUB009 - Top Barrel Mount Part [8739165]072"},{"mesh":16,"translation":[-0.42388096,1.4674852,1.195627],"rotation":[-0.0,0.7071068,0.0,0.7071067],"name":"KUB009 - Top Barrel Mount Part [8739165]073"},{"mesh":16,"translation":[-0.17041038,1.9258027,0.14152622],"rotation":[-0.0,-0.7071068,0.0,0.7071067],"name":"KUB009 - Top Barrel Mount Part [8739165]074"},{"mesh":16,"translation":[-0.17010576,2.2915118,-0.023573017],"rotation":[-0.0,0.7071068,0.0,0.7071067],"name":"KUB009 - Top Barrel Mount Part [8739165]075"},{"mesh":16,"translation":[0.36284545,2.6572719,-0.023573017],"rotation":[-0.0,0.7071068,0.0,0.7071067],"name":"KUB009 - Top Barrel Mount Part [8739165]076"},{"mesh":16,"translation":[0.6293199,2.840152,-0.023573017],"rotation":[-0.0,0.7071068,0.0,0.7071067],"name":"KUB009 - Top Barrel Mount Part [8739165]077"},{"mesh":16,"translation":[1.4287455,3.3887918,-0.023573017],"rotation":[-0.0,0.7071068,0.0,0.7071067],"name":"KUB009 - Top Barrel Mount Part [8739165]078"},{"mesh":16,"translation":[-0.37308174,2.0249066,0.05897545],"rotation":[-0.0,-1.0,0.0,-4.371139E-08],"name":"KUB009 - Top Barrel Mount Part [8739165]079"},{"mesh":16,"translation":[0.36257103,1.5600426,0.14152622],"rotation":[-0.0,-0.7071068,0.0,0.7071067],"name":"KUB009 - Top Barrel Mount Part [8739165]080"},{"mesh":16,"translation":[0.6281037,1.3771626,0.14152622],"rotation":[-0.0,-0.7071068,0.0,0.7071067],"name":"KUB009 - Top Barrel Mount Part [8739165]081"},{"mesh":16,"translation":[1.1604433,1.0114026,0.14152622],"rotation":[-0.0,-0.7071068,0.0,0.7071067],"name":"KUB009 - Top Barrel Mount Part [8739165]082"},{"mesh":16,"translation":[-0.17041038,1.9258027,1.195627],"rotation":[-0.0,0.7071068,0.0,0.7071067],"name":"KUB009 - Top Barrel Mount Part [8739165]083"},{"mesh":16,"translation":[0.36257103,1.5600426,1.195627],"rotation":[-0.0,0.7071068,0.0,0.7071067],"name":"KUB009 - Top Barrel Mount Part [8739165]084"},{"mesh":16,"translation":[0.6281037,1.3771626,1.195627],"rotation":[-0.0,0.7071068,0.0,0.7071067],"name":"KUB009 - Top Barrel Mount Part [8739165]085"},{"mesh":16,"translation":[1.1604433,1.0114026,1.195627],"rotation":[-0.0,0.7071068,0.0,0.7071067],"name":"KUB009 - Top Barrel Mount Part [8739165]086"},{"mesh":16,"translation":[0.36284545,2.6572719,-1.0776738],"rotation":[-0.0,-0.7071068,0.0,0.7071067],"name":"KUB009 - Top Barrel Mount Part [8739165]087"},{"mesh":16,"translation":[0.6293199,2.840152,-1.0776738],"rotation":[-0.0,-0.7071068,0.0,0.7071067],"name":"KUB009 - Top Barrel Mount Part [8739165]088"},{"mesh":16,"translation":[1.4287455,3.3887918,-1.0776738],"rotation":[-0.0,-0.7071068,0.0,0.7071067],"name":"KUB009 - Top Barrel Mount Part [8739165]089"},{"mesh":16,"translation":[-0.4493236,2.1086318,-1.0776738],"rotation":[-0.0,-0.7071068,0.0,0.7071067],"name":"KUB009 - Top Barrel Mount Part [8739165]090"},{"mesh":16,"translation":[-0.7160236,2.0262852,-1.0776738],"rotation":[-0.0,-0.7071068,0.0,0.7071067],"name":"KUB009 - Top Barrel Mount Part [8739165]091"},{"mesh":16,"translation":[-1.2308573,2.0262852,-1.0776738],"rotation":[-0.0,-0.7071068,0.0,0.7071067],"name":"KUB009 - Top Barrel Mount Part [8739165]092"},{"mesh":16,"translation":[-1.4271802,2.0262852,-0.8813486],"name":"KUB009 - Top Barrel Mount Part [8739165]093"},{"mesh":16,"translation":[-1.4271802,2.0262852,0.99930173],"rotation":[-0.0,1.4546442E-14,0.0,1.0],"name":"KUB009 - Top Barrel Mount Part [8739165]094"},{"mesh":16,"translation":[-1.4271802,2.0262852,-0.074374564],"name":"KUB009 - Top Barrel Mount Part [8739165]095"},{"mesh":16,"translation":[-1.4271802,2.0262852,0.19232546],"rotation":[-0.0,1.4546442E-14,0.0,1.0],"name":"KUB009 - Top Barrel Mount Part [8739165]096"},{"mesh":16,"translation":[-0.42388096,2.0262852,1.195627],"rotation":[-0.0,0.7071068,0.0,0.7071067],"name":"KUB009 - Top Barrel Mount Part [8739165]097"},{"mesh":16,"translation":[-1.2308573,2.0262852,1.195627],"rotation":[-0.0,0.7071068,0.0,0.7071067],"name":"KUB009 - Top Barrel Mount Part [8739165]098"},{"mesh":16,"translation":[-1.2308573,1.4674852,1.195627],"rotation":[-0.0,0.7071068,0.0,0.7071067],"name":"KUB009 - Top Barrel Mount Part [8739165]099"},{"mesh":17,"translation":[-0.17041038,1.09728,0.14152622],"rotation":[-0.0,0.7071068,0.0,0.7071067],"name":"KUB007 - Surface Mount Weldment Part [8739169]025"},{"mesh":17,"translation":[-0.17010576,1.4630401,-0.023573017],"rotation":[-0.0,-0.7071068,0.0,0.7071067],"name":"KUB007 - Surface Mount Weldment Part [8739169]026"},{"mesh":17,"translation":[0.36284545,1.8288,-0.023573017],"rotation":[-0.0,-0.7071068,0.0,0.7071067],"name":"KUB007 - Surface Mount Weldment Part [8739169]027"},{"mesh":17,"translation":[0.6293199,2.01168,-0.023573017],"rotation":[-0.0,-0.7071068,0.0,0.7071067],"name":"KUB007 - Surface Mount Weldment Part [8739169]028"},{"mesh":17,"translation":[1.4287455,2.56032,-0.023573017],"rotation":[-0.0,-0.7071068,0.0,0.7071067],"name":"KUB007 - Surface Mount Weldment Part [8739169]029"},{"mesh":17,"translation":[-0.37308174,1.28016,0.05897545],"name":"KUB007 - Surface Mount Weldment Part [8739169]030"},{"mesh":17,"translation":[0.36257103,0.73152006,0.14152622],"rotation":[-0.0,0.7071068,0.0,0.7071067],"name":"KUB007 - Surface Mount Weldment Part [8739169]031"},{"mesh":17,"translation":[0.6281037,0.54864,0.14152622],"rotation":[-0.0,0.7071068,0.0,0.7071067],"name":"KUB007 - Surface Mount Weldment Part [8739169]032"},{"mesh":17,"translation":[1.1604433,0.18288001,0.14152622],"rotation":[-0.0,0.7071068,0.0,0.7071067],"name":"KUB007 - Surface Mount Weldment Part [8739169]033"},{"mesh":17,"translation":[-0.17041038,1.09728,1.195627],"rotation":[-0.0,-0.7071068,0.0,0.7071067],"name":"KUB007 - Surface Mount Weldment Part [8739169]034"},{"mesh":17,"translation":[0.36257103,0.73152006,1.195627],"rotation":[-0.0,-0.7071068,0.0,0.7071067],"name":"KUB007 - Surface Mount Weldment Part [8739169]035"},{"mesh":17,"translation":[0.6281037,0.54864,1.195627],"rotation":[-0.0,-0.7071068,0.0,0.7071067],"name":"KUB007 - Surface Mount Weldment Part [8739169]036"},{"mesh":17,"translation":[1.1604433,0.18288001,1.195627],"rotation":[-0.0,-0.7071068,0.0,0.7071067],"name":"KUB007 - Surface Mount Weldment Part [8739169]037"},{"mesh":17,"translation":[0.36284545,1.8288,-1.0776738],"rotation":[-0.0,0.7071068,0.0,0.7071067],"name":"KUB007 - Surface Mount Weldment Part [8739169]038"},{"mesh":17,"translation":[0.6293199,2.01168,-1.0776738],"rotation":[-0.0,0.7071068,0.0,0.7071067],"name":"KUB007 - Surface Mount Weldment Part [8739169]039"},{"mesh":17,"translation":[1.4287455,2.56032,-1.0776738],"rotation":[-0.0,0.7071068,0.0,0.7071067],"name":"KUB007 - Surface Mount Weldment Part [8739169]040"},{"mesh":17,"translation":[-0.4493236,1.28016,-1.0776738],"rotation":[-0.0,0.7071068,0.0,0.7071067],"name":"KUB007 - Surface Mount Weldment Part [8739169]041"},{"mesh":17,"translation":[-0.7160236,1.28016,-1.0776738],"rotation":[-0.0,0.7071068,0.0,0.7071067],"name":"KUB007 - Surface Mount Weldment Part [8739169]042"},{"mesh":17,"translation":[-1.2308573,1.28016,-1.0776738],"rotation":[-0.0,0.7071068,0.0,0.7071067],"name":"KUB007 - Surface Mount Weldment Part [8739169]043"},{"mesh":17,"translation":[-1.4271802,1.28016,-0.8813486],"rotation":[-0.0,-1.0,0.0,-4.371139E-08],"name":"KUB007 - Surface Mount Weldment Part [8739169]044"},{"mesh":17,"translation":[-1.4271802,1.28016,0.99930173],"rotation":[-0.0,-1.0,0.0,-4.371139E-08],"name":"KUB007 - Surface Mount Weldment Part [8739169]045"},{"mesh":17,"translation":[-1.4271802,1.28016,-0.074374564],"rotation":[-0.0,-1.0,0.0,-4.371139E-08],"name":"KUB007 - Surface Mount Weldment Part [8739169]046"},{"mesh":17,"translation":[-1.4271802,1.28016,0.19232546],"rotation":[-0.0,-1.0,0.0,-4.371139E-08],"name":"KUB007 - Surface Mount Weldment Part [8739169]047"},{"mesh":17,"translation":[-0.42388096,1.28016,1.195627],"rotation":[-0.0,-0.7071068,0.0,0.7071067],"name":"KUB007 - Surface Mount Weldment Part [8739169]048"},{"mesh":17,"translation":[-1.2308573,1.28016,1.195627],"rotation":[-0.0,-0.7071068,0.0,0.7071067],"name":"KUB007 - Surface Mount Weldment Part [8739169]049"},{"mesh":18,"translation":[-0.17041038,1.9258027,0.20345268],"rotation":[-0.0,-0.7071068,0.0,0.7071067],"name":"KON006 - Lower Panel Clamp Part [8739162]150"},{"mesh":18,"translation":[-0.17041038,1.3670026,0.20345268],"rotation":[-0.0,-0.7071068,0.0,0.7071067],"name":"KON006 - Lower Panel Clamp Part [8739162]151"},{"mesh":18,"translation":[-0.17010576,2.2915118,-0.08549947],"rotation":[-0.0,0.7071068,0.0,0.7071067],"name":"KON006 - Lower Panel Clamp Part [8739162]152"},{"mesh":18,"translation":[-0.17010576,1.7327118,-0.08549947],"rotation":[-0.0,0.7071068,0.0,0.7071067],"name":"KON006 - Lower Panel Clamp Part [8739162]153"},{"mesh":18,"translation":[0.36284545,2.6572719,-0.08549947],"rotation":[-0.0,0.7071068,0.0,0.7071067],"name":"KON006 - Lower Panel Clamp Part [8739162]154"},{"mesh":18,"translation":[0.36284545,2.0984719,-0.08549947],"rotation":[-0.0,0.7071068,0.0,0.7071067],"name":"KON006 - Lower Panel Clamp Part [8739162]155"},{"mesh":18,"translation":[0.6293199,2.840152,-0.08549947],"rotation":[-0.0,0.7071068,0.0,0.7071067],"name":"KON006 - Lower Panel Clamp Part [8739162]156"},{"mesh":18,"translation":[0.6293199,2.2813518,-0.08549947],"rotation":[-0.0,0.7071068,0.0,0.7071067],"name":"KON006 - Lower Panel Clamp Part [8739162]157"},{"mesh":18,"translation":[1.4287455,3.3887918,-0.08549947],"rotation":[-0.0,0.7071068,0.0,0.7071067],"name":"KON006 - Lower Panel Clamp Part [8739162]158"},{"mesh":18,"translation":[1.4287455,2.8299918,-0.08549947],"rotation":[-0.0,0.7071068,0.0,0.7071067],"name":"KON006 - Lower Panel Clamp Part [8739162]159"},{"mesh":18,"translation":[-0.43500587,2.0249066,0.05897545],"rotation":[-0.0,-1.0,0.0,-4.371139E-08],"name":"KON006 - Lower Panel Clamp Part [8739162]160"},{"mesh":18,"translation":[-0.43500587,1.4674852,0.05897545],"rotation":[-0.0,-1.0,0.0,-4.371139E-08],"name":"KON006 - Lower Panel Clamp Part [8739162]161"},{"mesh":18,"translation":[0.36257103,1.5600426,0.20345268],"rotation":[-0.0,-0.7071068,0.0,0.7071067],"name":"KON006 - Lower Panel Clamp Part [8739162]162"},{"mesh":18,"translation":[0.36257103,1.0012426,0.20345268],"rotation":[-0.0,-0.7071068,0.0,0.7071067],"name":"KON006 - Lower Panel Clamp Part [8739162]163"},{"mesh":18,"translation":[0.6281037,1.3771626,0.20345268],"rotation":[-0.0,-0.7071068,0.0,0.7071067],"name":"KON006 - Lower Panel Clamp Part [8739162]164"},{"mesh":18,"translation":[0.6281037,0.81836265,0.20345268],"rotation":[-0.0,-0.7071068,0.0,0.7071067],"name":"KON006 - Lower Panel Clamp Part [8739162]165"},{"mesh":18,"translation":[1.1604433,1.0114026,0.20345268],"rotation":[-0.0,-0.7071068,0.0,0.7071067],"name":"KON006 - Lower Panel Clamp Part [8739162]166"},{"mesh":18,"translation":[1.1604433,0.45260262,0.20345268],"rotation":[-0.0,-0.7071068,0.0,0.7071067],"name":"KON006 - Lower Panel Clamp Part [8739162]167"},{"mesh":18,"translation":[-0.17041038,1.9258027,1.1337005],"rotation":[-0.0,0.7071068,0.0,0.7071067],"name":"KON006 - Lower Panel Clamp Part [8739162]168"},{"mesh":18,"translation":[-0.17041038,1.3670026,1.1337005],"rotation":[-0.0,0.7071068,0.0,0.7071067],"name":"KON006 - Lower Panel Clamp Part [8739162]169"},{"mesh":18,"translation":[0.36257103,1.5600426,1.1337005],"rotation":[-0.0,0.7071068,0.0,0.7071067],"name":"KON006 - Lower Panel Clamp Part [8739162]170"},{"mesh":18,"translation":[0.36257103,1.0012426,1.1337005],"rotation":[-0.0,0.7071068,0.0,0.7071067],"name":"KON006 - Lower Panel Clamp Part [8739162]171"},{"mesh":18,"translation":[0.6281037,1.3771626,1.1337005],"rotation":[-0.0,0.7071068,0.0,0.7071067],"name":"KON006 - Lower Panel Clamp Part [8739162]172"},{"mesh":18,"translation":[0.6281037,0.81836265,1.1337005],"rotation":[-0.0,0.7071068,0.0,0.7071067],"name":"KON006 - Lower Panel Clamp Part [8739162]173"},{"mesh":18,"translation":[1.1604433,1.0114026,1.1337005],"rotation":[-0.0,0.7071068,0.0,0.7071067],"name":"KON006 - Lower Panel Clamp Part [8739162]174"},{"mesh":18,"translation":[1.1604433,0.45260262,1.1337005],"rotation":[-0.0,0.7071068,0.0,0.7071067],"name":"KON006 - Lower Panel Clamp Part [8739162]175"},{"mesh":18,"translation":[0.36284545,2.6572719,-1.0157473],"rotation":[-0.0,-0.7071068,0.0,0.7071067],"name":"KON006 - Lower Panel Clamp Part [8739162]176"},{"mesh":18,"translation":[0.36284545,2.0984719,-1.0157473],"rotation":[-0.0,-0.7071068,0.0,0.7071067],"name":"KON006 - Lower Panel Clamp Part [8739162]177"},{"mesh":18,"translation":[0.6293199,2.840152,-1.0157473],"rotation":[-0.0,-0.7071068,0.0,0.7071067],"name":"KON006 - Lower Panel Clamp Part [8739162]178"},{"mesh":18,"translation":[0.6293199,2.2813518,-1.0157473],"rotation":[-0.0,-0.7071068,0.0,0.7071067],"name":"KON006 - Lower Panel Clamp Part [8739162]179"},{"mesh":18,"translation":[1.4287455,3.3887918,-1.0157473],"rotation":[-0.0,-0.7071068,0.0,0.7071067],"name":"KON006 - Lower Panel Clamp Part [8739162]180"},{"mesh":18,"translation":[1.4287455,2.8299918,-1.0157473],"rotation":[-0.0,-0.7071068,0.0,0.7071067],"name":"KON006 - Lower Panel Clamp Part [8739162]181"},{"mesh":18,"translation":[-0.4493236,2.1086318,-1.0157473],"rotation":[-0.0,-0.7071068,0.0,0.7071067],"name":"KON006 - Lower Panel Clamp Part [8739162]182"},{"mesh":18,"translation":[-0.4493236,1.5498319,-1.0157473],"rotation":[-0.0,-0.7071068,0.0,0.7071067],"name":"KON006 - Lower Panel Clamp Part [8739162]183"},{"mesh":18,"translation":[-0.7160236,2.0262852,-1.0157473],"rotation":[-0.0,-0.7071068,0.0,0.7071067],"name":"KON006 - Lower Panel Clamp Part [8739162]184"},{"mesh":18,"translation":[-0.7160236,1.4674852,-1.0157473],"rotation":[-0.0,-0.7071068,0.0,0.7071067],"name":"KON006 - Lower Panel Clamp Part [8739162]185"},{"mesh":18,"translation":[-1.2308573,2.0262852,-1.0157473],"rotation":[-0.0,-0.7071068,0.0,0.7071067],"name":"KON006 - Lower Panel Clamp Part [8739162]186"},{"mesh":18,"translation":[-1.2308573,1.4674852,-1.0157473],"rotation":[-0.0,-0.7071068,0.0,0.7071067],"name":"KON006 - Lower Panel Clamp Part [8739162]187"},{"mesh":18,"translation":[-1.3652561,2.0262852,-0.8813486],"name":"KON006 - Lower Panel Clamp Part [8739162]188"},{"mesh":18,"translation":[-1.3652561,1.4674852,-0.8813486],"name":"KON006 - Lower Panel Clamp Part [8739162]189"},{"mesh":18,"translation":[-1.3652561,2.0262852,0.99930173],"rotation":[-0.0,1.4546442E-14,0.0,1.0],"name":"KON006 - Lower Panel Clamp Part [8739162]190"},{"mesh":18,"translation":[-1.3652561,1.4674852,0.99930173],"rotation":[-0.0,1.4546442E-14,0.0,1.0],"name":"KON006 - Lower Panel Clamp Part [8739162]191"},{"mesh":18,"translation":[-1.2308573,1.4674852,1.1337005],"rotation":[-0.0,0.7071068,0.0,0.7071067],"name":"KON006 - Lower Panel Clamp Part [8739162]192"},{"mesh":18,"translation":[-1.3652561,2.0262852,-0.074374564],"name":"KON006 - Lower Panel Clamp Part [8739162]193"},{"mesh":18,"translation":[-1.3652561,1.4674852,-0.074374564],"name":"KON006 - Lower Panel Clamp Part [8739162]194"},{"mesh":18,"translation":[-1.3652561,2.0262852,0.19232546],"rotation":[-0.0,1.4546442E-14,0.0,1.0],"name":"KON006 - Lower Panel Clamp Part [8739162]195"},{"mesh":18,"translation":[-1.3652561,1.4674852,0.19232546],"rotation":[-0.0,1.4546442E-14,0.0,1.0],"name":"KON006 - Lower Panel Clamp Part [8739162]196"},{"mesh":18,"translation":[-0.42388096,2.0262852,1.1337005],"rotation":[-0.0,0.7071068,0.0,0.7071067],"name":"KON006 - Lower Panel Clamp Part [8739162]197"},{"mesh":18,"translation":[-0.42388096,1.4674852,1.1337005],"rotation":[-0.0,0.7071068,0.0,0.7071067],"name":"KON006 - Lower Panel Clamp Part [8739162]198"},{"mesh":18,"translation":[-1.2308573,2.0262852,1.1337005],"rotation":[-0.0,0.7071068,0.0,0.7071067],"name":"KON006 - Lower Panel Clamp Part [8739162]199"},{"mesh":19,"translation":[-0.17041038,1.9258027,0.20187603],"name":"KON021 - Konic Washer Part [8739168]100"},{"mesh":19,"translation":[-0.17041038,1.3670026,0.20187603],"name":"KON021 - Konic Washer Part [8739168]101"},{"mesh":19,"translation":[-0.17010576,2.2915118,-0.08392282],"rotation":[-0.0,-1.0,0.0,4.371139E-08],"name":"KON021 - Konic Washer Part [8739168]102"},{"mesh":19,"translation":[-0.17010576,1.7327118,-0.08392282],"rotation":[-0.0,-1.0,0.0,4.371139E-08],"name":"KON021 - Konic Washer Part [8739168]103"},{"mesh":19,"translation":[0.36284545,2.6572719,-0.08392282],"rotation":[-0.0,-1.0,0.0,4.371139E-08],"name":"KON021 - Konic Washer Part [8739168]104"},{"mesh":19,"translation":[0.36284545,2.0984719,-0.08392282],"rotation":[-0.0,-1.0,0.0,4.371139E-08],"name":"KON021 - Konic Washer Part [8739168]105"},{"mesh":19,"translation":[0.6293199,2.840152,-0.08392282],"rotation":[-0.0,-1.0,0.0,4.371139E-08],"name":"KON021 - Konic Washer Part [8739168]106"},{"mesh":19,"translation":[0.6293199,2.2813518,-0.08392282],"rotation":[-0.0,-1.0,0.0,4.371139E-08],"name":"KON021 - Konic Washer Part [8739168]107"},{"mesh":19,"translation":[1.4287455,3.3887918,-0.08392282],"rotation":[-0.0,-1.0,0.0,4.371139E-08],"name":"KON021 - Konic Washer Part [8739168]108"},{"mesh":19,"translation":[1.4287455,2.8299918,-0.08392282],"rotation":[-0.0,-1.0,0.0,4.371139E-08],"name":"KON021 - Konic Washer Part [8739168]109"},{"mesh":19,"translation":[-0.43343154,2.0249066,0.05897545],"rotation":[-0.0,-0.7071068,0.0,0.7071067],"name":"KON021 - Konic Washer Part [8739168]110"},{"mesh":19,"translation":[-0.43343154,1.4674852,0.05897545],"rotation":[-0.0,-0.7071068,0.0,0.7071067],"name":"KON021 - Konic Washer Part [8739168]111"},{"mesh":19,"translation":[0.36257103,1.5600426,0.20187603],"name":"KON021 - Konic Washer Part [8739168]112"},{"mesh":19,"translation":[0.36257103,1.0012426,0.20187603],"name":"KON021 - Konic Washer Part [8739168]113"},{"mesh":19,"translation":[0.6281037,1.3771626,0.20187603],"name":"KON021 - Konic Washer Part [8739168]114"},{"mesh":19,"translation":[0.6281037,0.81836265,0.20187603],"name":"KON021 - Konic Washer Part [8739168]115"},{"mesh":19,"translation":[1.1604433,1.0114026,0.20187603],"name":"KON021 - Konic Washer Part [8739168]116"},{"mesh":19,"translation":[1.1604433,0.45260262,0.20187603],"name":"KON021 - Konic Washer Part [8739168]117"},{"mesh":19,"translation":[-0.17041038,1.9258027,1.1352772],"rotation":[-0.0,-1.0,0.0,4.371139E-08],"name":"KON021 - Konic Washer Part [8739168]118"},{"mesh":19,"translation":[-0.17041038,1.3670026,1.1352772],"rotation":[-0.0,-1.0,0.0,4.371139E-08],"name":"KON021 - Konic Washer Part [8739168]119"},{"mesh":19,"translation":[0.36257103,1.5600426,1.1352772],"rotation":[-0.0,-1.0,0.0,4.371139E-08],"name":"KON021 - Konic Washer Part [8739168]120"},{"mesh":19,"translation":[0.36257103,1.0012426,1.1352772],"rotation":[-0.0,-1.0,0.0,4.371139E-08],"name":"KON021 - Konic Washer Part [8739168]121"},{"mesh":19,"translation":[0.6281037,1.3771626,1.1352772],"rotation":[-0.0,-1.0,0.0,4.371139E-08],"name":"KON021 - Konic Washer Part [8739168]122"},{"mesh":19,"translation":[0.6281037,0.81836265,1.1352772],"rotation":[-0.0,-1.0,0.0,4.371139E-08],"name":"KON021 - Konic Washer Part [8739168]123"},{"mesh":19,"translation":[1.1604433,1.0114026,1.1352772],"rotation":[-0.0,-1.0,0.0,4.371139E-08],"name":"KON021 - Konic Washer Part [8739168]124"},{"mesh":19,"translation":[1.1604433,0.45260262,1.1352772],"rotation":[-0.0,-1.0,0.0,4.371139E-08],"name":"KON021 - Konic Washer Part [8739168]125"},{"mesh":19,"translation":[0.36284545,2.6572719,-1.017324],"name":"KON021 - Konic Washer Part [8739168]126"},{"mesh":19,"translation":[0.36284545,2.0984719,-1.017324],"name":"KON021 - Konic Washer Part [8739168]127"},{"mesh":19,"translation":[0.6293199,2.840152,-1.017324],"name":"KON021 - Konic Washer Part [8739168]128"},{"mesh":19,"translation":[0.6293199,2.2813518,-1.017324],"name":"KON021 - Konic Washer Part [8739168]129"},{"mesh":19,"translation":[1.4287455,3.3887918,-1.017324],"name":"KON021 - Konic Washer Part [8739168]130"},{"mesh":19,"translation":[1.4287455,2.8299918,-1.017324],"name":"KON021 - Konic Washer Part [8739168]131"},{"mesh":19,"translation":[-0.4493236,2.1086318,-1.017324],"name":"KON021 - Konic Washer Part [8739168]132"},{"mesh":19,"translation":[-0.4493236,1.5498319,-1.017324],"name":"KON021 - Konic Washer Part [8739168]133"},{"mesh":19,"translation":[-0.7160236,2.0262852,-1.017324],"name":"KON021 - Konic Washer Part [8739168]134"},{"mesh":19,"translation":[-0.7160236,1.4674852,-1.017324],"name":"KON021 - Konic Washer Part [8739168]135"},{"mesh":19,"translation":[-1.2308573,2.0262852,-1.017324],"name":"KON021 - Konic Washer Part [8739168]136"},{"mesh":19,"translation":[-1.2308573,1.4674852,-1.017324],"name":"KON021 - Konic Washer Part [8739168]137"},{"mesh":19,"translation":[-1.3668303,2.0262852,-0.8813486],"rotation":[-0.0,0.7071068,0.0,0.7071067],"name":"KON021 - Konic Washer Part [8739168]138"},{"mesh":19,"translation":[-1.3668303,1.4674852,-0.8813486],"rotation":[-0.0,0.7071068,0.0,0.7071067],"name":"KON021 - Konic Washer Part [8739168]139"},{"mesh":19,"translation":[-1.3668303,2.0262852,0.99930173],"rotation":[-0.0,0.7071067,0.0,0.7071068],"name":"KON021 - Konic Washer Part [8739168]140"},{"mesh":19,"translation":[-1.3668303,1.4674852,0.99930173],"rotation":[-0.0,0.7071067,0.0,0.7071068],"name":"KON021 - Konic Washer Part [8739168]141"},{"mesh":19,"translation":[-1.2308573,2.0262852,1.1352772],"rotation":[-0.0,-1.0,0.0,-4.371139E-08],"name":"KON021 - Konic Washer Part [8739168]142"},{"mesh":19,"translation":[-1.3668303,2.0262852,-0.074374564],"rotation":[-0.0,0.7071068,0.0,0.7071067],"name":"KON021 - Konic Washer Part [8739168]143"},{"mesh":19,"translation":[-1.3668303,1.4674852,-0.074374564],"rotation":[-0.0,0.7071068,0.0,0.7071067],"name":"KON021 - Konic Washer Part [8739168]144"},{"mesh":19,"translation":[-1.3668303,2.0262852,0.19232546],"rotation":[-0.0,0.7071067,0.0,0.7071068],"name":"KON021 - Konic Washer Part [8739168]145"},{"mesh":19,"translation":[-1.3668303,1.4674852,0.19232546],"rotation":[-0.0,0.7071067,0.0,0.7071068],"name":"KON021 - Konic Washer Part [8739168]146"},{"mesh":19,"translation":[-0.42388096,2.0262852,1.1352772],"rotation":[-0.0,-1.0,0.0,-4.371139E-08],"name":"KON021 - Konic Washer Part [8739168]147"},{"mesh":19,"translation":[-0.42388096,1.4674852,1.1352772],"rotation":[-0.0,-1.0,0.0,-4.371139E-08],"name":"KON021 - Konic Washer Part [8739168]148"},{"mesh":19,"translation":[-0.17041038,1.9258027,0.1875769],"rotation":[-0.0,-1.0,0.0,-4.371139E-08],"name":"KON021 - Konic Washer Part [8739168]149"},{"mesh":19,"translation":[-0.17041038,1.3670026,0.1875769],"rotation":[-0.0,-1.0,0.0,-4.371139E-08],"name":"KON021 - Konic Washer Part [8739168]150"},{"mesh":19,"translation":[-0.17010576,2.2915118,-0.069623694],"name":"KON021 - Konic Washer Part [8739168]151"},{"mesh":19,"translation":[-0.17010576,1.7327118,-0.069623694],"name":"KON021 - Konic Washer Part [8739168]152"},{"mesh":19,"translation":[0.36284545,2.6572719,-0.069623694],"name":"KON021 - Konic Washer Part [8739168]153"},{"mesh":19,"translation":[0.36284545,2.0984719,-0.069623694],"name":"KON021 - Konic Washer Part [8739168]154"},{"mesh":19,"translation":[0.6293199,2.840152,-0.069623694],"name":"KON021 - Konic Washer Part [8739168]155"},{"mesh":19,"translation":[0.6293199,2.2813518,-0.069623694],"name":"KON021 - Konic Washer Part [8739168]156"},{"mesh":19,"translation":[1.4287455,3.3887918,-0.069623694],"name":"KON021 - Konic Washer Part [8739168]157"},{"mesh":19,"translation":[1.4287455,2.8299918,-0.069623694],"name":"KON021 - Konic Washer Part [8739168]158"},{"mesh":19,"translation":[-0.4191301,2.0249066,0.05897545],"rotation":[-0.0,0.7071068,0.0,0.7071067],"name":"KON021 - Konic Washer Part [8739168]159"},{"mesh":19,"translation":[-0.4191301,1.4674852,0.05897545],"rotation":[-0.0,0.7071068,0.0,0.7071067],"name":"KON021 - Konic Washer Part [8739168]160"},{"mesh":19,"translation":[0.36257103,1.5600426,0.1875769],"rotation":[-0.0,-1.0,0.0,-4.371139E-08],"name":"KON021 - Konic Washer Part [8739168]161"},{"mesh":19,"translation":[0.36257103,1.0012426,0.1875769],"rotation":[-0.0,-1.0,0.0,-4.371139E-08],"name":"KON021 - Konic Washer Part [8739168]162"},{"mesh":19,"translation":[0.6281037,1.3771626,0.1875769],"rotation":[-0.0,-1.0,0.0,-4.371139E-08],"name":"KON021 - Konic Washer Part [8739168]163"},{"mesh":19,"translation":[0.6281037,0.81836265,0.1875769],"rotation":[-0.0,-1.0,0.0,-4.371139E-08],"name":"KON021 - Konic Washer Part [8739168]164"},{"mesh":19,"translation":[1.1604433,1.0114026,0.1875769],"rotation":[-0.0,-1.0,0.0,-4.371139E-08],"name":"KON021 - Konic Washer Part [8739168]165"},{"mesh":19,"translation":[1.1604433,0.45260262,0.1875769],"rotation":[-0.0,-1.0,0.0,-4.371139E-08],"name":"KON021 - Konic Washer Part [8739168]166"},{"mesh":19,"translation":[-0.17041038,1.9258027,1.1495763],"name":"KON021 - Konic Washer Part [8739168]167"},{"mesh":19,"translation":[-0.17041038,1.3670026,1.1495763],"name":"KON021 - Konic Washer Part [8739168]168"},{"mesh":19,"translation":[0.36257103,1.5600426,1.1495763],"name":"KON021 - Konic Washer Part [8739168]169"},{"mesh":19,"translation":[0.36257103,1.0012426,1.1495763],"name":"KON021 - Konic Washer Part [8739168]170"},{"mesh":19,"translation":[0.6281037,1.3771626,1.1495763],"name":"KON021 - Konic Washer Part [8739168]171"},{"mesh":19,"translation":[0.6281037,0.81836265,1.1495763],"name":"KON021 - Konic Washer Part [8739168]172"},{"mesh":19,"translation":[1.1604433,1.0114026,1.1495763],"name":"KON021 - Konic Washer Part [8739168]173"},{"mesh":19,"translation":[1.1604433,0.45260262,1.1495763],"name":"KON021 - Konic Washer Part [8739168]174"},{"mesh":19,"translation":[0.36284545,2.6572719,-1.0316231],"rotation":[-0.0,-1.0,0.0,-4.371139E-08],"name":"KON021 - Konic Washer Part [8739168]175"},{"mesh":19,"translation":[0.36284545,2.0984719,-1.0316231],"rotation":[-0.0,-1.0,0.0,-4.371139E-08],"name":"KON021 - Konic Washer Part [8739168]176"},{"mesh":19,"translation":[0.6293199,2.840152,-1.0316231],"rotation":[-0.0,-1.0,0.0,-4.371139E-08],"name":"KON021 - Konic Washer Part [8739168]177"},{"mesh":19,"translation":[0.6293199,2.2813518,-1.0316231],"rotation":[-0.0,-1.0,0.0,-4.371139E-08],"name":"KON021 - Konic Washer Part [8739168]178"},{"mesh":19,"translation":[1.4287455,3.3887918,-1.0316231],"rotation":[-0.0,-1.0,0.0,-4.371139E-08],"name":"KON021 - Konic Washer Part [8739168]179"},{"mesh":19,"translation":[1.4287455,2.8299918,-1.0316231],"rotation":[-0.0,-1.0,0.0,-4.371139E-08],"name":"KON021 - Konic Washer Part [8739168]180"},{"mesh":19,"translation":[-0.4493236,2.1086318,-1.0316231],"rotation":[-0.0,-1.0,0.0,-4.371139E-08],"name":"KON021 - Konic Washer Part [8739168]181"},{"mesh":19,"translation":[-0.4493236,1.5498319,-1.0316231],"rotation":[-0.0,-1.0,0.0,-4.371139E-08],"name":"KON021 - Konic Washer Part [8739168]182"},{"mesh":19,"translation":[-0.7160236,2.0262852,-1.0316231],"rotation":[-0.0,-1.0,0.0,-4.371139E-08],"name":"KON021 - Konic Washer Part [8739168]183"},{"mesh":19,"translation":[-0.7160236,1.4674852,-1.0316231],"rotation":[-0.0,-1.0,0.0,-4.371139E-08],"name":"KON021 - Konic Washer Part [8739168]184"},{"mesh":19,"translation":[-1.2308573,2.0262852,-1.0316231],"rotation":[-0.0,-1.0,0.0,4.371139E-08],"name":"KON021 - Konic Washer Part [8739168]185"},{"mesh":19,"translation":[-1.2308573,1.4674852,-1.0316231],"rotation":[-0.0,-1.0,0.0,4.371139E-08],"name":"KON021 - Konic Washer Part [8739168]186"},{"mesh":19,"translation":[-1.3811295,2.0262852,-0.8813486],"rotation":[-0.0,-0.7071068,0.0,0.7071067],"name":"KON021 - Konic Washer Part [8739168]187"},{"mesh":19,"translation":[-1.3811295,1.4674852,-0.8813486],"rotation":[-0.0,-0.7071068,0.0,0.7071067],"name":"KON021 - Konic Washer Part [8739168]188"},{"mesh":19,"translation":[-1.3811295,2.0262852,0.99930173],"rotation":[-0.0,-0.7071068,0.0,0.7071068],"name":"KON021 - Konic Washer Part [8739168]189"},{"mesh":19,"translation":[-1.3811295,1.4674852,0.99930173],"rotation":[-0.0,-0.7071068,0.0,0.7071068],"name":"KON021 - Konic Washer Part [8739168]190"},{"mesh":19,"translation":[-1.2308573,2.0262852,1.1495763],"rotation":[-0.0,1.8571026E-15,0.0,1.0],"name":"KON021 - Konic Washer Part [8739168]191"},{"mesh":19,"translation":[-1.2308573,1.4674852,1.1495763],"rotation":[-0.0,1.8571026E-15,0.0,1.0],"name":"KON021 - Konic Washer Part [8739168]192"},{"mesh":19,"translation":[-1.3811295,2.0262852,-0.074374564],"rotation":[-0.0,-0.7071068,0.0,0.7071067],"name":"KON021 - Konic Washer Part [8739168]193"},{"mesh":19,"translation":[-1.3811295,1.4674852,-0.074374564],"rotation":[-0.0,-0.7071068,0.0,0.7071067],"name":"KON021 - Konic Washer Part [8739168]194"},{"mesh":19,"translation":[-1.3811295,2.0262852,0.19232546],"rotation":[-0.0,-0.7071068,0.0,0.7071068],"name":"KON021 - Konic Washer Part [8739168]195"},{"mesh":19,"translation":[-1.3811295,1.4674852,0.19232546],"rotation":[-0.0,-0.7071068,0.0,0.7071068],"name":"KON021 - Konic Washer Part [8739168]196"},{"mesh":19,"translation":[-0.42388096,2.0262852,1.1495763],"rotation":[-0.0,1.8571026E-15,0.0,1.0],"name":"KON021 - Konic Washer Part [8739168]197"},{"mesh":19,"translation":[-0.42388096,1.4674852,1.1495763],"rotation":[-0.0,1.8571026E-15,0.0,1.0],"name":"KON021 - Konic Washer Part [8739168]198"},{"mesh":19,"translation":[-1.2308573,1.4674852,1.1352772],"rotation":[-0.0,-1.0,0.0,-4.371139E-08],"name":"KON021 - Konic Washer Part [8739168]199"},{"mesh":20,"translation":[-0.17041038,1.09728,0.14152622],"rotation":[-0.5,-0.5,0.50000006,0.49999994],"name":"LS147 & LS148 - Kubit Post Material LS Material [8739192]025"},{"mesh":21,"translation":[-0.17010576,1.4630401,-0.023573017],"rotation":[0.5,0.5,0.50000006,0.49999994],"scale":[1.0,0.99999994,0.99999994],"name":"LS147 & LS148 - Kubit Post Material LS Material [8739192]026"},{"mesh":22,"translation":[0.36284545,1.8288,-0.023573017],"rotation":[0.5,0.5,0.50000006,0.49999994],"scale":[1.0,0.99999994,0.99999994],"name":"LS147 & LS148 - Kubit Post Material LS Material [8739192]027"},{"mesh":23,"translation":[0.6293199,2.01168,-0.023573017],"rotation":[0.5,0.5,0.50000006,0.49999994],"scale":[1.0,0.99999994,0.99999994],"name":"LS147 & LS148 - Kubit Post Material LS Material [8739192]028"},{"mesh":24,"translation":[1.4287455,2.56032,-0.023573017],"rotation":[0.5,0.5,0.50000006,0.49999994],"scale":[1.0,0.99999994,0.99999994],"name":"LS147 & LS148 - Kubit Post Material LS Material [8739192]029"},{"mesh":25,"translation":[-0.37308174,1.28016,0.05897545],"rotation":[-0.7071068,-0.7071068,-2.6692543E-08,8.850979E-08],"name":"LS147 & LS148 - Kubit Post Material LS Material [8739192]030"},{"mesh":26,"translation":[0.36257103,0.73152006,0.14152622],"rotation":[-0.5,-0.5,0.50000006,0.49999994],"name":"LS147 & LS148 - Kubit Post Material LS Material [8739192]031"},{"mesh":27,"translation":[0.6281037,0.54864,0.14152622],"rotation":[-0.5,-0.5,0.50000006,0.49999994],"name":"LS147 & LS148 - Kubit Post Material LS Material [8739192]032"},{"mesh":28,"translation":[1.1604433,0.18288001,0.14152622],"rotation":[-0.5,-0.5,0.50000006,0.49999994],"name":"LS147 & LS148 - Kubit Post Material LS Material [8739192]033"},{"mesh":29,"translation":[-0.17041038,1.09728,1.195627],"rotation":[0.5,0.5,0.50000006,0.49999994],"scale":[1.0,0.99999994,0.99999994],"name":"LS147 & LS148 - Kubit Post Material LS Material [8739192]034"},{"mesh":30,"translation":[0.36257103,0.73152006,1.195627],"rotation":[0.5,0.5,0.50000006,0.49999994],"scale":[1.0,0.99999994,0.99999994],"name":"LS147 & LS148 - Kubit Post Material LS Material [8739192]035"},{"mesh":31,"translation":[0.6281037,0.54864,1.195627],"rotation":[0.5,0.5,0.50000006,0.49999994],"scale":[1.0,0.99999994,0.99999994],"name":"LS147 & LS148 - Kubit Post Material LS Material [8739192]036"},{"mesh":32,"translation":[1.1604433,0.18288001,1.195627],"rotation":[0.5,0.5,0.50000006,0.49999994],"scale":[1.0,0.99999994,0.99999994],"name":"LS147 & LS148 - Kubit Post Material LS Material [8739192]037"},{"mesh":33,"translation":[0.36284545,1.8288,-1.0776738],"rotation":[-0.5,-0.5,0.50000006,0.49999994],"name":"LS147 & LS148 - Kubit Post Material LS Material [8739192]038"},{"mesh":34,"translation":[0.6293199,2.01168,-1.0776738],"rotation":[-0.5,-0.5,0.50000006,0.49999994],"name":"LS147 & LS148 - Kubit Post Material LS Material [8739192]039"},{"mesh":35,"translation":[1.4287455,2.56032,-1.0776738],"rotation":[-0.5,-0.5,0.50000006,0.49999994],"name":"LS147 & LS148 - Kubit Post Material LS Material [8739192]040"},{"mesh":36,"translation":[-0.4493236,1.28016,-1.0776738],"rotation":[-0.5,-0.5,0.50000006,0.49999994],"name":"LS147 & LS148 - Kubit Post Material LS Material [8739192]041"},{"mesh":37,"translation":[-0.7160236,1.28016,-1.0776738],"rotation":[-0.5,-0.5,0.50000006,0.49999994],"name":"LS147 & LS148 - Kubit Post Material LS Material [8739192]042"},{"mesh":38,"translation":[-1.2308573,1.28016,-1.0776738],"rotation":[-0.5,-0.5,0.50000006,0.49999994],"name":"LS147 & LS148 - Kubit Post Material LS Material [8739192]043"},{"mesh":39,"translation":[-1.4271802,1.28016,-0.8813486],"rotation":[-0.0,-0.0,0.7071068,0.7071067],"name":"LS147 & LS148 - Kubit Post Material LS Material [8739192]044"},{"mesh":40,"translation":[-1.4271802,1.28016,0.99930173],"rotation":[6.7924326E-15,6.7924326E-15,0.7071068,0.7071067],"name":"LS147 & LS148 - Kubit Post Material LS Material [8739192]045"},{"mesh":41,"translation":[-1.4271802,1.28016,-0.074374564],"rotation":[-0.0,-0.0,0.7071068,0.7071067],"name":"LS147 & LS148 - Kubit Post Material LS Material [8739192]046"},{"mesh":42,"translation":[-1.4271802,1.28016,0.19232546],"rotation":[6.7924326E-15,6.7924326E-15,0.7071068,0.7071067],"name":"LS147 & LS148 - Kubit Post Material LS Material [8739192]047"},{"mesh":43,"translation":[-0.42388096,1.28016,1.195627],"rotation":[0.5,0.5,0.50000006,0.49999994],"scale":[1.0,0.99999994,0.99999994],"name":"LS147 & LS148 - Kubit Post Material LS Material [8739192]048"},{"mesh":44,"translation":[-1.2308573,1.28016,1.195627],"rotation":[0.5,0.5,0.50000006,0.49999994],"scale":[1.0,0.99999994,0.99999994],"name":"LS147 & LS148 - Kubit Post Material LS Material [8739192]049"}],"meshes":[{"primitives":[{"attributes":{"POSITION":1,"TANGENT":2,"NORMAL":3,"TEXCOORD_0":4},"indices":0,"material":0}],"name":"Infill_Glass_Raked & Horizontal Generic [8199751]"},{"primitives":[{"attributes":{"POSITION":6,"TANGENT":7,"NORMAL":8,"TEXCOORD_0":9},"indices":5,"material":0}],"name":"Infill_Glass_Raked & Horizontal Generic [8200579]"},{"primitives":[{"attributes":{"POSITION":11,"TANGENT":12,"NORMAL":13,"TEXCOORD_0":14},"indices":10,"material":0}],"name":"Infill_Glass_Raked & Horizontal Generic [8201308]"},{"primitives":[{"attributes":{"POSITION":16,"TANGENT":17,"NORMAL":18,"TEXCOORD_0":19},"indices":15,"material":0}],"name":"Infill_Glass_Transition Generic [8202170]"},{"primitives":[{"attributes":{"POSITION":21,"TANGENT":22,"NORMAL":23,"TEXCOORD_0":24},"indices":20,"material":0}],"name":"Infill_Glass_Raked & Horizontal Generic [8202939]"},{"primitives":[{"attributes":{"POSITION":26,"TANGENT":27,"NORMAL":28,"TEXCOORD_0":29},"indices":25,"material":1},{"attributes":{"POSITION":31,"TANGENT":32,"NORMAL":33,"TEXCOORD_0":34},"indices":30,"material":2}],"name":"Generic Models 1 Generic Models 1 [8568048]"},{"primitives":[{"attributes":{"POSITION":36,"TANGENT":37,"NORMAL":38,"TEXCOORD_0":39},"indices":35,"material":1},{"attributes":{"POSITION":41,"TANGENT":42,"NORMAL":43,"TEXCOORD_0":44},"indices":40,"material":2}],"name":"Generic Models 2 Generic Models 2 [8568681]"},{"primitives":[{"attributes":{"POSITION":46,"TANGENT":47,"NORMAL":48,"TEXCOORD_0":49},"indices":45,"material":0}],"name":"Infill_Glass_Raked & Horizontal Generic [8735940]"},{"primitives":[{"attributes":{"POSITION":51,"TANGENT":52,"NORMAL":53,"TEXCOORD_0":54},"indices":50,"material":1},{"attributes":{"POSITION":56,"TANGENT":57,"NORMAL":58,"TEXCOORD_0":59},"indices":55,"material":2}],"name":"Generic Models 10 Generic Models 1 [8735975]"},{"primitives":[{"attributes":{"POSITION":61,"TANGENT":62,"NORMAL":63,"TEXCOORD_0":64},"indices":60,"material":0}],"name":"Infill_Glass_Raked & Horizontal Generic [8736296]"},{"primitives":[{"attributes":{"POSITION":66,"TANGENT":67,"NORMAL":68,"TEXCOORD_0":69},"indices":65,"material":0}],"name":"Infill_Glass_Raked & Horizontal Generic [8737682]"},{"primitives":[{"attributes":{"POSITION":71,"TANGENT":72,"NORMAL":73,"TEXCOORD_0":74},"indices":70,"material":0}],"name":"Casework 1 Casework 1 [8738332]"},{"primitives":[{"attributes":{"POSITION":76,"TANGENT":77,"NORMAL":78,"TEXCOORD_0":79},"indices":75,"material":0}],"name":"Infill_Glass_Raked & Horizontal Generic [8738822]"},{"primitives":[{"attributes":{"POSITION":81,"TANGENT":82,"NORMAL":83,"TEXCOORD_0":84},"indices":80,"material":0}],"name":"Infill_Glass_Raked & Horizontal Generic [8739062]"},{"primitives":[{"attributes":{"POSITION":86,"TANGENT":87,"NORMAL":88,"TEXCOORD_0":89},"indices":85,"material":0}],"name":"Infill_Glass_Raked & Horizontal Generic [8739156]"},{"primitives":[{"attributes":{"POSITION":91,"TANGENT":92,"NORMAL":93,"TEXCOORD_0":94},"indices":90,"material":0}],"name":"Infill_Glass_Raked & Horizontal Generic [8739593]"},{"primitives":[{"attributes":{"POSITION":96,"TANGENT":97,"NORMAL":98,"TEXCOORD_0":99},"indices":95,"material":1},{"attributes":{"POSITION":101,"TANGENT":102,"NORMAL":103,"TEXCOORD_0":104},"indices":100,"material":2}],"name":"KUB009 - Top Barrel Mount Part [8739165]050"},{"primitives":[{"attributes":{"POSITION":106,"TANGENT":107,"NORMAL":108,"TEXCOORD_0":109},"indices":105,"material":1},{"attributes":{"POSITION":111,"TANGENT":112,"NORMAL":113,"TEXCOORD_0":114},"indices":110,"material":2}],"name":"KUB007 - Surface Mount Weldment Part [8739169]025"},{"primitives":[{"attributes":{"POSITION":116,"TANGENT":117,"NORMAL":118,"TEXCOORD_0":119},"indices":115,"material":1},{"attributes":{"POSITION":121,"TANGENT":122,"NORMAL":123,"TEXCOORD_0":124},"indices":120,"material":2}],"name":"KON006 - Lower Panel Clamp Part [8739162]150"},{"primitives":[{"attributes":{"POSITION":126,"TANGENT":127,"NORMAL":128,"TEXCOORD_0":129},"indices":125,"material":3}],"name":"KON021 - Konic Washer Part [8739168]100"},{"primitives":[{"attributes":{"POSITION":131,"TANGENT":132,"NORMAL":133,"TEXCOORD_0":134},"indices":130,"material":1}],"name":"LS147 & LS148 - Kubit Post Material LS Material [8739192]025"},{"primitives":[{"attributes":{"POSITION":136,"TANGENT":137,"NORMAL":138,"TEXCOORD_0":139},"indices":135,"material":1}],"name":"LS147 & LS148 - Kubit Post Material LS Material [8739192]026"},{"primitives":[{"attributes":{"POSITION":141,"TANGENT":142,"NORMAL":143,"TEXCOORD_0":144},"indices":140,"material":1}],"name":"LS147 & LS148 - Kubit Post Material LS Material [8739192]027"},{"primitives":[{"attributes":{"POSITION":146,"TANGENT":147,"NORMAL":148,"TEXCOORD_0":149},"indices":145,"material":1}],"name":"LS147 & LS148 - Kubit Post Material LS Material [8739192]028"},{"primitives":[{"attributes":{"POSITION":151,"TANGENT":152,"NORMAL":153,"TEXCOORD_0":154},"indices":150,"material":1}],"name":"LS147 & LS148 - Kubit Post Material LS Material [8739192]029"},{"primitives":[{"attributes":{"POSITION":156,"TANGENT":157,"NORMAL":158,"TEXCOORD_0":159},"indices":155,"material":1}],"name":"LS147 & LS148 - Kubit Post Material LS Material [8739192]030"},{"primitives":[{"attributes":{"POSITION":161,"TANGENT":162,"NORMAL":163,"TEXCOORD_0":164},"indices":160,"material":1}],"name":"LS147 & LS148 - Kubit Post Material LS Material [8739192]031"},{"primitives":[{"attributes":{"POSITION":166,"TANGENT":167,"NORMAL":168,"TEXCOORD_0":169},"indices":165,"material":1}],"name":"LS147 & LS148 - Kubit Post Material LS Material [8739192]032"},{"primitives":[{"attributes":{"POSITION":171,"TANGENT":172,"NORMAL":173,"TEXCOORD_0":174},"indices":170,"material":1}],"name":"LS147 & LS148 - Kubit Post Material LS Material [8739192]033"},{"primitives":[{"attributes":{"POSITION":176,"TANGENT":177,"NORMAL":178,"TEXCOORD_0":179},"indices":175,"material":1}],"name":"LS147 & LS148 - Kubit Post Material LS Material [8739192]034"},{"primitives":[{"attributes":{"POSITION":181,"TANGENT":182,"NORMAL":183,"TEXCOORD_0":184},"indices":180,"material":1}],"name":"LS147 & LS148 - Kubit Post Material LS Material [8739192]035"},{"primitives":[{"attributes":{"POSITION":186,"TANGENT":187,"NORMAL":188,"TEXCOORD_0":189},"indices":185,"material":1}],"name":"LS147 & LS148 - Kubit Post Material LS Material [8739192]036"},{"primitives":[{"attributes":{"POSITION":191,"TANGENT":192,"NORMAL":193,"TEXCOORD_0":194},"indices":190,"material":1}],"name":"LS147 & LS148 - Kubit Post Material LS Material [8739192]037"},{"primitives":[{"attributes":{"POSITION":196,"TANGENT":197,"NORMAL":198,"TEXCOORD_0":199},"indices":195,"material":1}],"name":"LS147 & LS148 - Kubit Post Material LS Material [8739192]038"},{"primitives":[{"attributes":{"POSITION":201,"TANGENT":202,"NORMAL":203,"TEXCOORD_0":204},"indices":200,"material":1}],"name":"LS147 & LS148 - Kubit Post Material LS Material [8739192]039"},{"primitives":[{"attributes":{"POSITION":206,"TANGENT":207,"NORMAL":208,"TEXCOORD_0":209},"indices":205,"material":1}],"name":"LS147 & LS148 - Kubit Post Material LS Material [8739192]040"},{"primitives":[{"attributes":{"POSITION":211,"TANGENT":212,"NORMAL":213,"TEXCOORD_0":214},"indices":210,"material":1}],"name":"LS147 & LS148 - Kubit Post Material LS Material [8739192]041"},{"primitives":[{"attributes":{"POSITION":216,"TANGENT":217,"NORMAL":218,"TEXCOORD_0":219},"indices":215,"material":1}],"name":"LS147 & LS148 - Kubit Post Material LS Material [8739192]042"},{"primitives":[{"attributes":{"POSITION":221,"TANGENT":222,"NORMAL":223,"TEXCOORD_0":224},"indices":220,"material":1}],"name":"LS147 & LS148 - Kubit Post Material LS Material [8739192]043"},{"primitives":[{"attributes":{"POSITION":226,"TANGENT":227,"NORMAL":228,"TEXCOORD_0":229},"indices":225,"material":1}],"name":"LS147 & LS148 - Kubit Post Material LS Material [8739192]044"},{"primitives":[{"attributes":{"POSITION":231,"TANGENT":232,"NORMAL":233,"TEXCOORD_0":234},"indices":230,"material":1}],"name":"LS147 & LS148 - Kubit Post Material LS Material [8739192]045"},{"primitives":[{"attributes":{"POSITION":236,"TANGENT":237,"NORMAL":238,"TEXCOORD_0":239},"indices":235,"material":1}],"name":"LS147 & LS148 - Kubit Post Material LS Material [8739192]046"},{"primitives":[{"attributes":{"POSITION":241,"TANGENT":242,"NORMAL":243,"TEXCOORD_0":244},"indices":240,"material":1}],"name":"LS147 & LS148 - Kubit Post Material LS Material [8739192]047"},{"primitives":[{"attributes":{"POSITION":246,"TANGENT":247,"NORMAL":248,"TEXCOORD_0":249},"indices":245,"material":1}],"name":"LS147 & LS148 - Kubit Post Material LS Material [8739192]048"},{"primitives":[{"attributes":{"POSITION":251,"TANGENT":252,"NORMAL":253,"TEXCOORD_0":254},"indices":250,"material":1}],"name":"LS147 & LS148 - Kubit Post Material LS Material [8739192]049"}],"accessors":[{"bufferView":0,"componentType":5123,"count":132,"type":"SCALAR","name":"accessorIndices"},{"bufferView":1,"componentType":5126,"count":82,"max":[0.67253757,0.76435065,0.0071501],"min":[-0.22733863,-0.7504923,-0.0071501],"type":"VEC3","name":"accessorPositions"},{"bufferView":2,"componentType":5126,"count":82,"type":"VEC4","name":"accessorTangents"},{"bufferView":1,"byteOffset":984,"componentType":5126,"count":82,"type":"VEC3","name":"accessorNormals"},{"bufferView":3,"componentType":5126,"count":82,"type":"VEC2","name":"accessorUVs"},{"bufferView":0,"byteOffset":264,"componentType":5123,"count":132,"type":"SCALAR","name":"accessorIndices"},{"bufferView":1,"byteOffset":1968,"componentType":5126,"count":82,"max":[0.16510001,0.41611978,0.0071501],"min":[-0.9136126,-1.2214502,-0.0071501],"type":"VEC3","name":"accessorPositions"},{"bufferView":2,"byteOffset":1312,"componentType":5126,"count":82,"type":"VEC4","name":"accessorTangents"},{"bufferView":1,"byteOffset":2952,"componentType":5126,"count":82,"type":"VEC3","name":"accessorNormals"},{"bufferView":3,"byteOffset":656,"componentType":5126,"count":82,"type":"VEC2","name":"accessorUVs"},{"bufferView":0,"byteOffset":528,"componentType":5123,"count":132,"type":"SCALAR","name":"accessorIndices"},{"bufferView":1,"byteOffset":3936,"componentType":5126,"count":96,"max":[0.2519172,0.1524,0.0071501],"min":[0.012700001,-0.701675,-0.0071501],"type":"VEC3","name":"accessorPositions"},{"bufferView":2,"byteOffset":2624,"componentType":5126,"count":96,"type":"VEC4","name":"accessorTangents"},{"bufferView":1,"byteOffset":5088,"componentType":5126,"count":96,"type":"VEC3","name":"accessorNormals"},{"bufferView":3,"byteOffset":1312,"componentType":5126,"count":96,"type":"VEC2","name":"accessorUVs"},{"bufferView":0,"byteOffset":792,"componentType":5123,"count":204,"type":"SCALAR","name":"accessorIndices"},{"bufferView":1,"byteOffset":6240,"componentType":5126,"count":126,"max":[0.77951753,0.0071501,1.4337071],"min":[-0.119604975,-0.0071501,5.266659E-14],"type":"VEC3","name":"accessorPositions"},{"bufferView":2,"byteOffset":4160,"componentType":5126,"count":126,"type":"VEC4","name":"accessorTangents"},{"bufferView":1,"byteOffset":7752,"componentType":5126,"count":126,"type":"VEC3","name":"accessorNormals"},{"bufferView":3,"byteOffset":2080,"componentType":5126,"count":126,"type":"VEC2","name":"accessorUVs"},{"bufferView":0,"byteOffset":1200,"componentType":5123,"count":132,"type":"SCALAR","name":"accessorIndices"},{"bufferView":1,"byteOffset":9264,"componentType":5126,"count":82,"max":[0.3937,0.71999997,0.0071501],"min":[-0.4111075,-0.730215,-0.0071501],"type":"VEC3","name":"accessorPositions"},{"bufferView":2,"byteOffset":6176,"componentType":5126,"count":82,"type":"VEC4","name":"accessorTangents"},{"bufferView":1,"byteOffset":10248,"componentType":5126,"count":82,"type":"VEC3","name":"accessorNormals"},{"bufferView":3,"byteOffset":3088,"componentType":5126,"count":82,"type":"VEC2","name":"accessorUVs"},{"bufferView":0,"byteOffset":1464,"componentType":5123,"count":108051,"type":"SCALAR","name":"accessorIndices"},{"bufferView":1,"byteOffset":11232,"componentType":5126,"count":21198,"max":[-27.580276,2.2050376,-27.066988],"min":[-29.340061,1.0594896,-27.3472],"type":"VEC3","name":"accessorPositions"},{"bufferView":2,"byteOffset":7488,"componentType":5126,"count":21198,"type":"VEC4","name":"accessorTangents"},{"bufferView":1,"byteOffset":265608,"componentType":5126,"count":21198,"type":"VEC3","name":"accessorNormals"},{"bufferView":3,"byteOffset":3744,"componentType":5126,"count":21198,"type":"VEC2","name":"accessorUVs"},{"bufferView":0,"byteOffset":217568,"componentType":5123,"count":456,"type":"SCALAR","name":"accessorIndices"},{"bufferView":1,"byteOffset":519984,"componentType":5126,"count":156,"max":[-27.580276,2.2050376,-27.067],"min":[-29.340061,1.0594896,-27.3472],"type":"VEC3","name":"accessorPositions"},{"bufferView":2,"byteOffset":346656,"componentType":5126,"count":156,"type":"VEC4","name":"accessorTangents"},{"bufferView":1,"byteOffset":521856,"componentType":5126,"count":156,"type":"VEC3","name":"accessorNormals"},{"bufferView":3,"byteOffset":173328,"componentType":5126,"count":156,"type":"VEC2","name":"accessorUVs"},{"bufferView":0,"byteOffset":218480,"componentType":5123,"count":110832,"type":"SCALAR","name":"accessorIndices"},{"bufferView":1,"byteOffset":523728,"componentType":5126,"count":21175,"max":[-27.30563,3.696539,-27.338488],"min":[-29.312819,2.275086,-27.376598],"type":"VEC3","name":"accessorPositions"},{"bufferView":2,"byteOffset":349152,"componentType":5126,"count":21175,"type":"VEC4","name":"accessorTangents"},{"bufferView":1,"byteOffset":777828,"componentType":5126,"count":21175,"type":"VEC3","name":"accessorNormals"},{"bufferView":3,"byteOffset":174576,"componentType":5126,"count":21175,"type":"VEC2","name":"accessorUVs"},{"bufferView":0,"byteOffset":440144,"componentType":5123,"count":492,"type":"SCALAR","name":"accessorIndices"},{"bufferView":1,"byteOffset":1031928,"componentType":5126,"count":168,"max":[-27.30563,3.696539,-27.338488],"min":[-29.312819,2.275086,-27.376587],"type":"VEC3","name":"accessorPositions"},{"bufferView":2,"byteOffset":687952,"componentType":5126,"count":168,"type":"VEC4","name":"accessorTangents"},{"bufferView":1,"byteOffset":1033944,"componentType":5126,"count":168,"type":"VEC3","name":"accessorNormals"},{"bufferView":3,"byteOffset":343976,"componentType":5126,"count":168,"type":"VEC2","name":"accessorUVs"},{"bufferView":0,"byteOffset":441128,"componentType":5123,"count":132,"type":"SCALAR","name":"accessorIndices"},{"bufferView":1,"byteOffset":1035960,"componentType":5126,"count":82,"max":[0.3937,0.71999997,0.0071501],"min":[-0.4111075,-0.730215,-0.0071501],"type":"VEC3","name":"accessorPositions"},{"bufferView":2,"byteOffset":690640,"componentType":5126,"count":82,"type":"VEC4","name":"accessorTangents"},{"bufferView":1,"byteOffset":1036944,"componentType":5126,"count":82,"type":"VEC3","name":"accessorNormals"},{"bufferView":3,"byteOffset":345320,"componentType":5126,"count":82,"type":"VEC2","name":"accessorUVs"},{"bufferView":0,"byteOffset":441392,"componentType":5125,"count":388239,"type":"SCALAR","name":"accessorIndices"},{"bufferView":1,"byteOffset":1037928,"componentType":5126,"count":73560,"max":[-27.30563,3.6965744,-26.119287],"min":[-30.287746,1.0594137,-28.324299],"type":"VEC3","name":"accessorPositions"},{"bufferView":2,"byteOffset":691952,"componentType":5126,"count":73560,"type":"VEC4","name":"accessorTangents"},{"bufferView":1,"byteOffset":1920648,"componentType":5126,"count":73560,"type":"VEC3","name":"accessorNormals"},{"bufferView":3,"byteOffset":345976,"componentType":5126,"count":73560,"type":"VEC2","name":"accessorUVs"},{"bufferView":0,"byteOffset":1994348,"componentType":5125,"count":492,"type":"SCALAR","name":"accessorIndices"},{"bufferView":1,"byteOffset":2803368,"componentType":5126,"count":168,"max":[-27.30563,3.6965744,-26.119287],"min":[-27.580276,1.0594137,-28.324299],"type":"VEC3","name":"accessorPositions"},{"bufferView":2,"byteOffset":1868912,"componentType":5126,"count":168,"type":"VEC4","name":"accessorTangents"},{"bufferView":1,"byteOffset":2805384,"componentType":5126,"count":168,"type":"VEC3","name":"accessorNormals"},{"bufferView":3,"byteOffset":934456,"componentType":5126,"count":168,"type":"VEC2","name":"accessorUVs"},{"bufferView":0,"byteOffset":1996316,"componentType":5123,"count":132,"type":"SCALAR","name":"accessorIndices"},{"bufferView":1,"byteOffset":2807400,"componentType":5126,"count":82,"max":[0.16510001,0.41611978,0.0071501],"min":[-0.9136126,-1.2214502,-0.0071501],"type":"VEC3","name":"accessorPositions"},{"bufferView":2,"byteOffset":1871600,"componentType":5126,"count":82,"type":"VEC4","name":"accessorTangents"},{"bufferView":1,"byteOffset":2808384,"componentType":5126,"count":82,"type":"VEC3","name":"accessorNormals"},{"bufferView":3,"byteOffset":935800,"componentType":5126,"count":82,"type":"VEC2","name":"accessorUVs"},{"bufferView":0,"byteOffset":1996580,"componentType":5123,"count":132,"type":"SCALAR","name":"accessorIndices"},{"bufferView":1,"byteOffset":2809368,"componentType":5126,"count":96,"max":[0.40886727,0.3245767,0.0071501],"min":[-0.35996616,-0.52949834,-0.0071501],"type":"VEC3","name":"accessorPositions"},{"bufferView":2,"byteOffset":1872912,"componentType":5126,"count":96,"type":"VEC4","name":"accessorTangents"},{"bufferView":1,"byteOffset":2810520,"componentType":5126,"count":96,"type":"VEC3","name":"accessorNormals"},{"bufferView":3,"byteOffset":936456,"componentType":5126,"count":96,"type":"VEC2","name":"accessorUVs"},{"bufferView":0,"byteOffset":1996844,"componentType":5123,"count":168,"type":"SCALAR","name":"accessorIndices"},{"bufferView":1,"byteOffset":2811672,"componentType":5126,"count":99,"max":[-28.40499,2.929653,-28.298086],"min":[-29.471046,1.3404851,-28.312412],"type":"VEC3","name":"accessorPositions"},{"bufferView":2,"byteOffset":1874448,"componentType":5126,"count":99,"type":"VEC4","name":"accessorTangents"},{"bufferView":1,"byteOffset":2812860,"componentType":5126,"count":99,"type":"VEC3","name":"accessorNormals"},{"bufferView":3,"byteOffset":937224,"componentType":5126,"count":99,"type":"VEC2","name":"accessorUVs"},{"bufferView":0,"byteOffset":1997180,"componentType":5123,"count":132,"type":"SCALAR","name":"accessorIndices"},{"bufferView":1,"byteOffset":2814048,"componentType":5126,"count":96,"max":[0.70101464,0.3245767,0.0071501],"min":[-0.35996616,-0.52949834,-0.0071501],"type":"VEC3","name":"accessorPositions"},{"bufferView":2,"byteOffset":1876032,"componentType":5126,"count":96,"type":"VEC4","name":"accessorTangents"},{"bufferView":1,"byteOffset":2815200,"componentType":5126,"count":96,"type":"VEC3","name":"accessorNormals"},{"bufferView":3,"byteOffset":938016,"componentType":5126,"count":96,"type":"VEC2","name":"accessorUVs"},{"bufferView":0,"byteOffset":1997444,"componentType":5123,"count":132,"type":"SCALAR","name":"accessorIndices"},{"bufferView":1,"byteOffset":2816352,"componentType":5126,"count":96,"max":[0.70101464,0.3245767,0.0071501],"min":[-0.35996616,-0.52949834,-0.0071501],"type":"VEC3","name":"accessorPositions"},{"bufferView":2,"byteOffset":1877568,"componentType":5126,"count":96,"type":"VEC4","name":"accessorTangents"},{"bufferView":1,"byteOffset":2817504,"componentType":5126,"count":96,"type":"VEC3","name":"accessorNormals"},{"bufferView":3,"byteOffset":938784,"componentType":5126,"count":96,"type":"VEC2","name":"accessorUVs"},{"bufferView":0,"byteOffset":1997708,"componentType":5123,"count":132,"type":"SCALAR","name":"accessorIndices"},{"bufferView":1,"byteOffset":2818656,"componentType":5126,"count":96,"max":[0.7010096,0.3245767,0.0071501],"min":[-0.35996616,-0.52949834,-0.0071501],"type":"VEC3","name":"accessorPositions"},{"bufferView":2,"byteOffset":1879104,"componentType":5126,"count":96,"type":"VEC4","name":"accessorTangents"},{"bufferView":1,"byteOffset":2819808,"componentType":5126,"count":96,"type":"VEC3","name":"accessorNormals"},{"bufferView":3,"byteOffset":939552,"componentType":5126,"count":96,"type":"VEC2","name":"accessorUVs"},{"bufferView":0,"byteOffset":1997972,"componentType":5123,"count":132,"type":"SCALAR","name":"accessorIndices"},{"bufferView":1,"byteOffset":2820960,"componentType":5126,"count":82,"max":[0.38105503,0.71131253,0.0071501],"min":[-0.39211252,-0.71716493,-0.0071501],"type":"VEC3","name":"accessorPositions"},{"bufferView":2,"byteOffset":1880640,"componentType":5126,"count":82,"type":"VEC4","name":"accessorTangents"},{"bufferView":1,"byteOffset":2821944,"componentType":5126,"count":82,"type":"VEC3","name":"accessorNormals"},{"bufferView":3,"byteOffset":940320,"componentType":5126,"count":82,"type":"VEC2","name":"accessorUVs"},{"bufferView":0,"byteOffset":1998236,"componentType":5123,"count":1836,"type":"SCALAR","name":"accessorIndices"},{"bufferView":1,"byteOffset":2822928,"componentType":5126,"count":501,"max":[0.044475403,0.015875,0.015875],"min":[-0.031724602,-0.015875,-0.015875],"type":"VEC3","name":"accessorPositions"},{"bufferView":2,"byteOffset":1881952,"componentType":5126,"count":501,"type":"VEC4","name":"accessorTangents"},{"bufferView":1,"byteOffset":2828940,"componentType":5126,"count":501,"type":"VEC3","name":"accessorNormals"},{"bufferView":3,"byteOffset":940976,"componentType":5126,"count":501,"type":"VEC2","name":"accessorUVs"},{"bufferView":0,"byteOffset":2001908,"componentType":5123,"count":570,"type":"SCALAR","name":"accessorIndices"},{"bufferView":1,"byteOffset":2834952,"componentType":5126,"count":192,"max":[0.044475403,0.015875,0.015875],"min":[-0.031724602,-0.015875,-0.015875],"type":"VEC3","name":"accessorPositions"},{"bufferView":2,"byteOffset":1889968,"componentType":5126,"count":192,"type":"VEC4","name":"accessorTangents"},{"bufferView":1,"byteOffset":2837256,"componentType":5126,"count":192,"type":"VEC3","name":"accessorNormals"},{"bufferView":3,"byteOffset":944984,"componentType":5126,"count":192,"type":"VEC2","name":"accessorUVs"},{"bufferView":0,"byteOffset":2003048,"componentType":5123,"count":3822,"type":"SCALAR","name":"accessorIndices"},{"bufferView":1,"byteOffset":2839560,"componentType":5126,"count":879,"max":[0.05715,0.025400002,0.05715],"min":[-0.05715,-2.9463596E-15,-0.05715],"type":"VEC3","name":"accessorPositions"},{"bufferView":2,"byteOffset":1893040,"componentType":5126,"count":879,"type":"VEC4","name":"accessorTangents"},{"bufferView":1,"byteOffset":2850108,"componentType":5126,"count":879,"type":"VEC3","name":"accessorNormals"},{"bufferView":3,"byteOffset":946520,"componentType":5126,"count":879,"type":"VEC2","name":"accessorUVs"},{"bufferView":0,"byteOffset":2010692,"componentType":5123,"count":270,"type":"SCALAR","name":"accessorIndices"},{"bufferView":1,"byteOffset":2860656,"componentType":5126,"count":90,"max":[0.0541528,0.025400002,0.0541528],"min":[-0.0541528,0.025400002,-0.0541528],"type":"VEC3","name":"accessorPositions"},{"bufferView":2,"byteOffset":1907104,"componentType":5126,"count":90,"type":"VEC4","name":"accessorTangents"},{"bufferView":1,"byteOffset":2861736,"componentType":5126,"count":90,"type":"VEC3","name":"accessorNormals"},{"bufferView":3,"byteOffset":953552,"componentType":5126,"count":90,"type":"VEC2","name":"accessorUVs"},{"bufferView":0,"byteOffset":2011232,"componentType":5123,"count":864,"type":"SCALAR","name":"accessorIndices"},{"bufferView":1,"byteOffset":2862816,"componentType":5126,"count":292,"max":[0.006604,0.015875,0.015875],"min":[-0.022722581,-0.015875,-0.015875],"type":"VEC3","name":"accessorPositions"},{"bufferView":2,"byteOffset":1908544,"componentType":5126,"count":292,"type":"VEC4","name":"accessorTangents"},{"bufferView":1,"byteOffset":2866320,"componentType":5126,"count":292,"type":"VEC3","name":"accessorNormals"},{"bufferView":3,"byteOffset":954272,"componentType":5126,"count":292,"type":"VEC2","name":"accessorUVs"},{"bufferView":0,"byteOffset":2012960,"componentType":5123,"count":858,"type":"SCALAR","name":"accessorIndices"},{"bufferView":1,"byteOffset":2869824,"componentType":5126,"count":289,"max":[0.006604,0.015875,0.015875],"min":[-0.022722581,-0.015875,-0.015875],"type":"VEC3","name":"accessorPositions"},{"bufferView":2,"byteOffset":1913216,"componentType":5126,"count":289,"type":"VEC4","name":"accessorTangents"},{"bufferView":1,"byteOffset":2873292,"componentType":5126,"count":289,"type":"VEC3","name":"accessorNormals"},{"bufferView":3,"byteOffset":956608,"componentType":5126,"count":289,"type":"VEC2","name":"accessorUVs"},{"bufferView":0,"byteOffset":2014676,"componentType":5123,"count":1440,"type":"SCALAR","name":"accessorIndices"},{"bufferView":1,"byteOffset":2876760,"componentType":5126,"count":484,"max":[0.012700001,0.012700001,0.0015748],"min":[-0.012700001,-0.012700001,8.253881E-15],"type":"VEC3","name":"accessorPositions"},{"bufferView":2,"byteOffset":1917840,"componentType":5126,"count":484,"type":"VEC4","name":"accessorTangents"},{"bufferView":1,"byteOffset":2882568,"componentType":5126,"count":484,"type":"VEC3","name":"accessorNormals"},{"bufferView":3,"byteOffset":958920,"componentType":5126,"count":484,"type":"VEC2","name":"accessorUVs"},{"bufferView":0,"byteOffset":2017556,"componentType":5123,"count":36,"type":"SCALAR","name":"accessorIndices"},{"bufferView":1,"byteOffset":2888376,"componentType":5126,"count":24,"max":[0.83982563,0.025400002,0.0063500004],"min":[6.3589614E-15,-0.025400035,-0.0063500353],"type":"VEC3","name":"accessorPositions"},{"bufferView":2,"byteOffset":1925584,"componentType":5126,"count":24,"type":"VEC4","name":"accessorTangents"},{"bufferView":1,"byteOffset":2888664,"componentType":5126,"count":24,"type":"VEC3","name":"accessorNormals"},{"bufferView":3,"byteOffset":962792,"componentType":5126,"count":24,"type":"VEC2","name":"accessorUVs"},{"bufferView":0,"byteOffset":2017628,"componentType":5123,"count":36,"type":"SCALAR","name":"accessorIndices"},{"bufferView":1,"byteOffset":2888952,"componentType":5126,"count":24,"max":[0.83982563,0.025400002,0.006350034],"min":[6.3589614E-15,-0.025400031,-0.0063500004],"type":"VEC3","name":"accessorPositions"},{"bufferView":2,"byteOffset":1925968,"componentType":5126,"count":24,"type":"VEC4","name":"accessorTangents"},{"bufferView":1,"byteOffset":2889240,"componentType":5126,"count":24,"type":"VEC3","name":"accessorNormals"},{"bufferView":3,"byteOffset":962984,"componentType":5126,"count":24,"type":"VEC2","name":"accessorUVs"},{"bufferView":0,"byteOffset":2017700,"componentType":5123,"count":36,"type":"SCALAR","name":"accessorIndices"},{"bufferView":1,"byteOffset":2889528,"componentType":5126,"count":24,"max":[0.83982563,0.025400002,0.006350012],"min":[6.3589614E-15,-0.025400048,-0.0063500004],"type":"VEC3","name":"accessorPositions"},{"bufferView":2,"byteOffset":1926352,"componentType":5126,"count":24,"type":"VEC4","name":"accessorTangents"},{"bufferView":1,"byteOffset":2889816,"componentType":5126,"count":24,"type":"VEC3","name":"accessorNormals"},{"bufferView":3,"byteOffset":963176,"componentType":5126,"count":24,"type":"VEC2","name":"accessorUVs"},{"bufferView":0,"byteOffset":2017772,"componentType":5123,"count":36,"type":"SCALAR","name":"accessorIndices"},{"bufferView":1,"byteOffset":2890104,"componentType":5126,"count":24,"max":[0.83982563,0.025400002,0.0063500004],"min":[6.3589614E-15,-0.025400048,-0.0063500004],"type":"VEC3","name":"accessorPositions"},{"bufferView":2,"byteOffset":1926736,"componentType":5126,"count":24,"type":"VEC4","name":"accessorTangents"},{"bufferView":1,"byteOffset":2890392,"componentType":5126,"count":24,"type":"VEC3","name":"accessorNormals"},{"bufferView":3,"byteOffset":963368,"componentType":5126,"count":24,"type":"VEC2","name":"accessorUVs"},{"bufferView":0,"byteOffset":2017844,"componentType":5123,"count":36,"type":"SCALAR","name":"accessorIndices"},{"bufferView":1,"byteOffset":2890680,"componentType":5126,"count":24,"max":[0.8398257,0.025400002,0.0063500004],"min":[6.3589614E-15,-0.025400031,-0.0063500484],"type":"VEC3","name":"accessorPositions"},{"bufferView":2,"byteOffset":1927120,"componentType":5126,"count":24,"type":"VEC4","name":"accessorTangents"},{"bufferView":1,"byteOffset":2890968,"componentType":5126,"count":24,"type":"VEC3","name":"accessorNormals"},{"bufferView":3,"byteOffset":963560,"componentType":5126,"count":24,"type":"VEC2","name":"accessorUVs"},{"bufferView":0,"byteOffset":2017916,"componentType":5123,"count":36,"type":"SCALAR","name":"accessorIndices"},{"bufferView":1,"byteOffset":2891256,"componentType":5126,"count":24,"max":[0.75752556,0.025400013,0.0063500484],"min":[6.3589614E-15,-0.025400002,-0.0063500004],"type":"VEC3","name":"accessorPositions"},{"bufferView":2,"byteOffset":1927504,"componentType":5126,"count":24,"type":"VEC4","name":"accessorTangents"},{"bufferView":1,"byteOffset":2891544,"componentType":5126,"count":24,"type":"VEC3","name":"accessorNormals"},{"bufferView":3,"byteOffset":963752,"componentType":5126,"count":24,"type":"VEC2","name":"accessorUVs"},{"bufferView":0,"byteOffset":2017988,"componentType":5123,"count":36,"type":"SCALAR","name":"accessorIndices"},{"bufferView":1,"byteOffset":2891832,"componentType":5126,"count":24,"max":[0.83982563,0.025400002,0.0063500004],"min":[6.3589614E-15,-0.025400037,-0.0063500484],"type":"VEC3","name":"accessorPositions"},{"bufferView":2,"byteOffset":1927888,"componentType":5126,"count":24,"type":"VEC4","name":"accessorTangents"},{"bufferView":1,"byteOffset":2892120,"componentType":5126,"count":24,"type":"VEC3","name":"accessorNormals"},{"bufferView":3,"byteOffset":963944,"componentType":5126,"count":24,"type":"VEC2","name":"accessorUVs"},{"bufferView":0,"byteOffset":2018060,"componentType":5123,"count":36,"type":"SCALAR","name":"accessorIndices"},{"bufferView":1,"byteOffset":2892408,"componentType":5126,"count":24,"max":[0.8398256,0.025400002,0.0063500004],"min":[6.3589614E-15,-0.025400037,-0.006350121],"type":"VEC3","name":"accessorPositions"},{"bufferView":2,"byteOffset":1928272,"componentType":5126,"count":24,"type":"VEC4","name":"accessorTangents"},{"bufferView":1,"byteOffset":2892696,"componentType":5126,"count":24,"type":"VEC3","name":"accessorNormals"},{"bufferView":3,"byteOffset":964136,"componentType":5126,"count":24,"type":"VEC2","name":"accessorUVs"},{"bufferView":0,"byteOffset":2018132,"componentType":5123,"count":36,"type":"SCALAR","name":"accessorIndices"},{"bufferView":1,"byteOffset":2892984,"componentType":5126,"count":24,"max":[0.83982563,0.025400002,0.0063500004],"min":[6.3589614E-15,-0.025400037,-0.0063500484],"type":"VEC3","name":"accessorPositions"},{"bufferView":2,"byteOffset":1928656,"componentType":5126,"count":24,"type":"VEC4","name":"accessorTangents"},{"bufferView":1,"byteOffset":2893272,"componentType":5126,"count":24,"type":"VEC3","name":"accessorNormals"},{"bufferView":3,"byteOffset":964328,"componentType":5126,"count":24,"type":"VEC2","name":"accessorUVs"},{"bufferView":0,"byteOffset":2018204,"componentType":5123,"count":36,"type":"SCALAR","name":"accessorIndices"},{"bufferView":1,"byteOffset":2893560,"componentType":5126,"count":24,"max":[0.83982563,0.025400002,0.0063500344],"min":[6.3589614E-15,-0.025400002,-0.0063500004],"type":"VEC3","name":"accessorPositions"},{"bufferView":2,"byteOffset":1929040,"componentType":5126,"count":24,"type":"VEC4","name":"accessorTangents"},{"bufferView":1,"byteOffset":2893848,"componentType":5126,"count":24,"type":"VEC3","name":"accessorNormals"},{"bufferView":3,"byteOffset":964520,"componentType":5126,"count":24,"type":"VEC2","name":"accessorUVs"},{"bufferView":0,"byteOffset":2018276,"componentType":5123,"count":36,"type":"SCALAR","name":"accessorIndices"},{"bufferView":1,"byteOffset":2894136,"componentType":5126,"count":24,"max":[0.8398256,0.025400002,0.0063500484],"min":[6.3589614E-15,-0.025400002,-0.0063500004],"type":"VEC3","name":"accessorPositions"},{"bufferView":2,"byteOffset":1929424,"componentType":5126,"count":24,"type":"VEC4","name":"accessorTangents"},{"bufferView":1,"byteOffset":2894424,"componentType":5126,"count":24,"type":"VEC3","name":"accessorNormals"},{"bufferView":3,"byteOffset":964712,"componentType":5126,"count":24,"type":"VEC2","name":"accessorUVs"},{"bufferView":0,"byteOffset":2018348,"componentType":5123,"count":36,"type":"SCALAR","name":"accessorIndices"},{"bufferView":1,"byteOffset":2894712,"componentType":5126,"count":24,"max":[0.83982563,0.025400002,0.0063500484],"min":[6.3589614E-15,-0.025400048,-0.0063500004],"type":"VEC3","name":"accessorPositions"},{"bufferView":2,"byteOffset":1929808,"componentType":5126,"count":24,"type":"VEC4","name":"accessorTangents"},{"bufferView":1,"byteOffset":2895000,"componentType":5126,"count":24,"type":"VEC3","name":"accessorNormals"},{"bufferView":3,"byteOffset":964904,"componentType":5126,"count":24,"type":"VEC2","name":"accessorUVs"},{"bufferView":0,"byteOffset":2018420,"componentType":5123,"count":36,"type":"SCALAR","name":"accessorIndices"},{"bufferView":1,"byteOffset":2895288,"componentType":5126,"count":24,"max":[0.83982563,0.025400002,0.0063500484],"min":[6.3589614E-15,-0.025400002,-0.0063500004],"type":"VEC3","name":"accessorPositions"},{"bufferView":2,"byteOffset":1930192,"componentType":5126,"count":24,"type":"VEC4","name":"accessorTangents"},{"bufferView":1,"byteOffset":2895576,"componentType":5126,"count":24,"type":"VEC3","name":"accessorNormals"},{"bufferView":3,"byteOffset":965096,"componentType":5126,"count":24,"type":"VEC2","name":"accessorUVs"},{"bufferView":0,"byteOffset":2018492,"componentType":5123,"count":36,"type":"SCALAR","name":"accessorIndices"},{"bufferView":1,"byteOffset":2895864,"componentType":5126,"count":24,"max":[0.83982563,0.025400002,0.0063500004],"min":[6.3589614E-15,-0.02540012,-0.006350012],"type":"VEC3","name":"accessorPositions"},{"bufferView":2,"byteOffset":1930576,"componentType":5126,"count":24,"type":"VEC4","name":"accessorTangents"},{"bufferView":1,"byteOffset":2896152,"componentType":5126,"count":24,"type":"VEC3","name":"accessorNormals"},{"bufferView":3,"byteOffset":965288,"componentType":5126,"count":24,"type":"VEC2","name":"accessorUVs"},{"bufferView":0,"byteOffset":2018564,"componentType":5123,"count":36,"type":"SCALAR","name":"accessorIndices"},{"bufferView":1,"byteOffset":2896440,"componentType":5126,"count":24,"max":[0.83982563,0.02540012,0.0063500004],"min":[6.3589614E-15,-0.025400048,-0.0063500484],"type":"VEC3","name":"accessorPositions"},{"bufferView":2,"byteOffset":1930960,"componentType":5126,"count":24,"type":"VEC4","name":"accessorTangents"},{"bufferView":1,"byteOffset":2896728,"componentType":5126,"count":24,"type":"VEC3","name":"accessorNormals"},{"bufferView":3,"byteOffset":965480,"componentType":5126,"count":24,"type":"VEC2","name":"accessorUVs"},{"bufferView":0,"byteOffset":2018636,"componentType":5123,"count":36,"type":"SCALAR","name":"accessorIndices"},{"bufferView":1,"byteOffset":2897016,"componentType":5126,"count":24,"max":[0.8398257,0.025400002,0.0063500484],"min":[6.3589614E-15,-0.02540012,-0.0063500484],"type":"VEC3","name":"accessorPositions"},{"bufferView":2,"byteOffset":1931344,"componentType":5126,"count":24,"type":"VEC4","name":"accessorTangents"},{"bufferView":1,"byteOffset":2897304,"componentType":5126,"count":24,"type":"VEC3","name":"accessorNormals"},{"bufferView":3,"byteOffset":965672,"componentType":5126,"count":24,"type":"VEC2","name":"accessorUVs"},{"bufferView":0,"byteOffset":2018708,"componentType":5123,"count":36,"type":"SCALAR","name":"accessorIndices"},{"bufferView":1,"byteOffset":2897592,"componentType":5126,"count":24,"max":[0.83982563,0.025400048,0.0063500004],"min":[6.3589614E-15,-0.02540012,-0.00635003],"type":"VEC3","name":"accessorPositions"},{"bufferView":2,"byteOffset":1931728,"componentType":5126,"count":24,"type":"VEC4","name":"accessorTangents"},{"bufferView":1,"byteOffset":2897880,"componentType":5126,"count":24,"type":"VEC3","name":"accessorNormals"},{"bufferView":3,"byteOffset":965864,"componentType":5126,"count":24,"type":"VEC2","name":"accessorUVs"},{"bufferView":0,"byteOffset":2018780,"componentType":5123,"count":36,"type":"SCALAR","name":"accessorIndices"},{"bufferView":1,"byteOffset":2898168,"componentType":5126,"count":24,"max":[0.75752556,0.025400048,0.0063500004],"min":[6.3589614E-15,-0.025400048,-0.006350012],"type":"VEC3","name":"accessorPositions"},{"bufferView":2,"byteOffset":1932112,"componentType":5126,"count":24,"type":"VEC4","name":"accessorTangents"},{"bufferView":1,"byteOffset":2898456,"componentType":5126,"count":24,"type":"VEC3","name":"accessorNormals"},{"bufferView":3,"byteOffset":966056,"componentType":5126,"count":24,"type":"VEC2","name":"accessorUVs"},{"bufferView":0,"byteOffset":2018852,"componentType":5123,"count":36,"type":"SCALAR","name":"accessorIndices"},{"bufferView":1,"byteOffset":2898744,"componentType":5126,"count":24,"max":[0.75752556,0.025400048,0.0063500004],"min":[6.3589614E-15,-0.025400002,-0.006350121],"type":"VEC3","name":"accessorPositions"},{"bufferView":2,"byteOffset":1932496,"componentType":5126,"count":24,"type":"VEC4","name":"accessorTangents"},{"bufferView":1,"byteOffset":2899032,"componentType":5126,"count":24,"type":"VEC3","name":"accessorNormals"},{"bufferView":3,"byteOffset":966248,"componentType":5126,"count":24,"type":"VEC2","name":"accessorUVs"},{"bufferView":0,"byteOffset":2018924,"componentType":5123,"count":36,"type":"SCALAR","name":"accessorIndices"},{"bufferView":1,"byteOffset":2899320,"componentType":5126,"count":24,"max":[0.75752556,0.025400048,0.0063500004],"min":[6.3589614E-15,-0.025400002,-0.0063500004],"type":"VEC3","name":"accessorPositions"},{"bufferView":2,"byteOffset":1932880,"componentType":5126,"count":24,"type":"VEC4","name":"accessorTangents"},{"bufferView":1,"byteOffset":2899608,"componentType":5126,"count":24,"type":"VEC3","name":"accessorNormals"},{"bufferView":3,"byteOffset":966440,"componentType":5126,"count":24,"type":"VEC2","name":"accessorUVs"},{"bufferView":0,"byteOffset":2018996,"componentType":5123,"count":36,"type":"SCALAR","name":"accessorIndices"},{"bufferView":1,"byteOffset":2899896,"componentType":5126,"count":24,"max":[0.75752556,0.025400048,0.0063500004],"min":[6.3589614E-15,-0.025400002,-0.0063500004],"type":"VEC3","name":"accessorPositions"},{"bufferView":2,"byteOffset":1933264,"componentType":5126,"count":24,"type":"VEC4","name":"accessorTangents"},{"bufferView":1,"byteOffset":2900184,"componentType":5126,"count":24,"type":"VEC3","name":"accessorNormals"},{"bufferView":3,"byteOffset":966632,"componentType":5126,"count":24,"type":"VEC2","name":"accessorUVs"},{"bufferView":0,"byteOffset":2019068,"componentType":5123,"count":36,"type":"SCALAR","name":"accessorIndices"},{"bufferView":1,"byteOffset":2900472,"componentType":5126,"count":24,"max":[0.75752556,0.025400048,0.0063500004],"min":[6.3589614E-15,-0.025400002,-0.0063500004],"type":"VEC3","name":"accessorPositions"},{"bufferView":2,"byteOffset":1933648,"componentType":5126,"count":24,"type":"VEC4","name":"accessorTangents"},{"bufferView":1,"byteOffset":2900760,"componentType":5126,"count":24,"type":"VEC3","name":"accessorNormals"},{"bufferView":3,"byteOffset":966824,"componentType":5126,"count":24,"type":"VEC2","name":"accessorUVs"},{"bufferView":0,"byteOffset":2019140,"componentType":5123,"count":36,"type":"SCALAR","name":"accessorIndices"},{"bufferView":1,"byteOffset":2901048,"componentType":5126,"count":24,"max":[0.75752556,0.025400048,0.0063500004],"min":[6.3589614E-15,-0.025400002,-0.0063500004],"type":"VEC3","name":"accessorPositions"},{"bufferView":2,"byteOffset":1934032,"componentType":5126,"count":24,"type":"VEC4","name":"accessorTangents"},{"bufferView":1,"byteOffset":2901336,"componentType":5126,"count":24,"type":"VEC3","name":"accessorNormals"},{"bufferView":3,"byteOffset":967016,"componentType":5126,"count":24,"type":"VEC2","name":"accessorUVs"},{"bufferView":0,"byteOffset":2019212,"componentType":5123,"count":36,"type":"SCALAR","name":"accessorIndices"},{"bufferView":1,"byteOffset":2901624,"componentType":5126,"count":24,"max":[0.75752556,0.025400002,0.00635003],"min":[6.3589614E-15,-0.025400048,-0.0063500004],"type":"VEC3","name":"accessorPositions"},{"bufferView":2,"byteOffset":1934416,"componentType":5126,"count":24,"type":"VEC4","name":"accessorTangents"},{"bufferView":1,"byteOffset":2901912,"componentType":5126,"count":24,"type":"VEC3","name":"accessorNormals"},{"bufferView":3,"byteOffset":967208,"componentType":5126,"count":24,"type":"VEC2","name":"accessorUVs"},{"bufferView":0,"byteOffset":2019284,"componentType":5123,"count":36,"type":"SCALAR","name":"accessorIndices"},{"bufferView":1,"byteOffset":2902200,"componentType":5126,"count":24,"max":[0.75752556,0.025400002,0.006350121],"min":[6.3589614E-15,-0.025400048,-0.0063500004],"type":"VEC3","name":"accessorPositions"},{"bufferView":2,"byteOffset":1934800,"componentType":5126,"count":24,"type":"VEC4","name":"accessorTangents"},{"bufferView":1,"byteOffset":2902488,"componentType":5126,"count":24,"type":"VEC3","name":"accessorNormals"},{"bufferView":3,"byteOffset":967400,"componentType":5126,"count":24,"type":"VEC2","name":"accessorUVs"}],"bufferViews":[{"buffer":0,"byteLength":2019356,"name":"bufferViewScalar"},{"buffer":0,"byteOffset":2019356,"byteLength":2902776,"byteStride":12,"name":"bufferViewFloatVec3"},{"buffer":0,"byteOffset":4922132,"byteLength":1935184,"byteStride":16,"name":"bufferViewFloatVec4"},{"buffer":0,"byteOffset":6857316,"byteLength":967592,"byteStride":8,"name":"bufferViewFloatVec2"}],"buffers":[{"uri":"Switchback_Railing_Kubit.bin","byteLength":7824908}],"materials":[{"pbrMetallicRoughness":{"baseColorFactor":[0.9999998,0.9999999,0.9999999,1.0],"metallicFactor":0.0,"roughnessFactor":0.1},"name":"Glass","extensions":{"KHR_materials_ior":{"ior":1.0},"KHR_materials_transmission":{"transmissionFactor":0.97},"KHR_materials_volume":{"thicknessFactor":0.56,"attenuationDistance":0.5,"attenuationColor":[0.49521634,0.56476736,0.5317566]}}},{"pbrMetallicRoughness":{"baseColorFactor":[0.9999998,0.9999999,0.9999999,1.0],"baseColorTexture":{"index":0,"extensions":{"KHR_texture_transform":{"offset":[0.19519997,0.8048],"rotation":1.5707964,"scale":[0.6096,0.6096],"texCoord":0}}},"roughnessFactor":0.2,"metallicRoughnessTexture":{"index":0,"extensions":{"KHR_texture_transform":{"offset":[0.19519997,0.8048],"rotation":1.5707964,"scale":[0.6096,0.6096],"texCoord":0}}}},"name":"Steel_Linear"},{"pbrMetallicRoughness":{"baseColorFactor":[0.9999998,0.9999999,0.9999999,1.0],"baseColorTexture":{"index":1},"roughnessFactor":0.2,"metallicRoughnessTexture":{"index":1}},"name":"Steel_Radial"},{"pbrMetallicRoughness":{"baseColorFactor":[0.10641303,0.10641304,0.10641304,1.0],"metallicFactor":0.0,"roughnessFactor":0.99,"metallicRoughnessTexture":{"index":2}},"name":"Rubber","extensions":{"KHR_materials_specular":{"specularFactor":0.1}}}],"textures":[{"sampler":0,"source":0,"name":"Metal_Brushed_Linear_4k.jpg"},{"sampler":0,"source":1,"name":"Metal_Brushed_Radial_4k.jpg"},{"sampler":0,"source":2,"name":"PowderCoat_Roughness_2k0.jpg"}],"images":[{"uri":"textures/Metal_Brushed_Linear_4k.jpg"},{"uri":"textures/Metal_Brushed_Radial_4k.jpg"},{"uri":"textures/PowderCoat_Roughness_2k0.jpg"}],"samplers":[{"magFilter":9729,"minFilter":9987}]}