{"asset":{"version":"2.0","generator":"babylon.js glTF exporter for 3dsmax 2026 v20251111.2"},"extensionsUsed":["KHR_materials_ior","KHR_materials_transmission","KHR_materials_volume","KHR_texture_transform","KHR_materials_specular"],"extensionsRequired":["KHR_texture_transform"],"scene":0,"scenes":[{"nodes":[0,1,2,3,4,5,6,7,8,9,10,11,12,13,14,15,16,17,18,19,20,21,22,23,24,25,26,27,28,29,30,31,32,33,34,35,36,37,38,39,40,41,42,43,44,45,46,47,48,49,50,51,52,53,54,55,56,57,58,59,60,61,62,63,64,65,66,67,68,69,70,71,72,73,74,75,76,77,78,79,80,81,82,83,84,85,86,87,88,89,90,91,92,93,94,95,96,97,98,99,100,101,102,103,104,105,106,107,108,109,110,111,112,113,114,115,116,117,118,119,120,121,122,123,124,125,126,127,128,129,130,131,132,133,134,135,136,137,138,139,140,141,142,143,144,145,146,147,148,149,150,151,152,153,154,155,156,157,158,159,160,161,162,163,164,165,166,167,168,169,170,171,172,173,174,175,176,177,178,179,180,181,182,183,184,185,186,187,188,189,190,191,192,193,194,195,196,197,198,199,200,201,202,203,204,205,206,207,208,209,210,211,212,213,214,215,216,217,218,219,220,221,222,223,224,225,226,227,228,229,230,231,232,233,234,235,236,237,238,239,240,241,242,243,244,245,246,247,248,249,250,251,252,253,254,255,256,257,258,259,260,261,262,263,264,265]}],"nodes":[{"mesh":0,"translation":[-0.18280497,2.1652887,-0.076767445],"name":"Infill_Glass_Raked & Horizontal Generic [8199751]"},{"mesh":1,"translation":[1.416044,3.26257,-0.076767445],"name":"Infill_Glass_Raked & Horizontal Generic [8200579]"},{"mesh":2,"translation":[-0.42627385,2.04216,-0.07332812],"rotation":[-0.0,-0.7071068,0.0,0.7071067],"name":"Infill_Glass_Raked & Horizontal Generic [8201308]"},{"mesh":3,"translation":[-0.29053095,2.19456,0.19472066],"rotation":[0.7071068,-0.0,0.0,0.7071067],"name":"Infill_Glass_Transition Generic [8202170]"},{"mesh":4,"translation":[0.89538735,0.92937434,0.19472066],"rotation":[-0.0,-1.0,0.0,-4.371139E-08],"name":"Infill_Glass_Raked & Horizontal Generic [8202939]"},{"mesh":5,"translation":[28.89472,0.0,27.28077],"name":"Generic Models 1 Generic Models 1 [8568048]"},{"mesh":6,"translation":[28.89472,0.0,27.28077],"name":"Generic Models 2 Generic Models 2 [8568681]"},{"mesh":7,"translation":[0.89538735,0.9293959,1.1424326],"rotation":[-0.0,-1.0,0.0,-4.371139E-08],"name":"Infill_Glass_Raked & Horizontal Generic [8735940]"},{"mesh":8,"translation":[28.89472,0.0,27.28077],"name":"Generic Models 10 Generic Models 1 [8735975]"},{"mesh":9,"translation":[1.416044,3.2625408,-1.0244794],"rotation":[-0.0,3.133859E-15,0.0,1.0],"name":"Infill_Glass_Raked & Horizontal Generic [8736296]"},{"mesh":10,"translation":[-0.9978901,1.8699833,-1.0244794],"rotation":[-0.0,3.133859E-15,0.0,1.0],"name":"Infill_Glass_Raked & Horizontal Generic [8737682]"},{"mesh":11,"translation":[28.89472,0.0,27.28077],"name":"Casework 1 Casework 1 [8738332]"},{"mesh":12,"translation":[-1.3739858,1.8699833,-0.64838374],"rotation":[-0.0,-0.7071068,0.0,0.7071067],"name":"Infill_Glass_Raked & Horizontal Generic [8738822]"},{"mesh":13,"translation":[-1.3739858,1.8699833,0.76633686],"rotation":[-0.0,0.7071068,0.0,0.7071067],"name":"Infill_Glass_Raked & Horizontal Generic [8739062]"},{"mesh":14,"translation":[-0.9978901,1.8699833,1.1424326],"name":"Infill_Glass_Raked & Horizontal Generic [8739156]"},{"mesh":15,"translation":[0.096873306,1.4780358,1.1424326],"rotation":[-0.0,-1.0,0.0,-4.371139E-08],"name":"Infill_Glass_Raked & Horizontal Generic [8739593]"},{"mesh":16,"translation":[-0.42388576,1.4674848,1.15116],"rotation":[-0.0,0.7071068,0.0,0.7071067],"name":"OPT006 - Optik Glass Pad Part [9224006]"},{"mesh":16,"translation":[-0.42388576,1.721485,1.15116],"rotation":[-0.0,0.7071068,0.0,0.7071067],"name":"OPT006 - Optik Glass Pad Part [9224000]"},{"mesh":16,"translation":[-1.3827109,1.4674848,-0.074374534],"name":"OPT006 - Optik Glass Pad Part [9223930]"},{"mesh":16,"translation":[-1.3827109,1.721485,-0.074374534],"name":"OPT006 - Optik Glass Pad Part [9223924]"},{"mesh":16,"translation":[-1.2308598,1.4674848,1.15116],"rotation":[-0.0,0.7071068,0.0,0.7071067],"name":"OPT006 - Optik Glass Pad Part [9223892]"},{"mesh":16,"translation":[-1.2308598,1.721485,1.15116],"rotation":[-0.0,0.7071068,0.0,0.7071067],"name":"OPT006 - Optik Glass Pad Part [9223886]"},{"mesh":16,"translation":[-1.3827109,1.4674848,-0.88134855],"name":"OPT006 - Optik Glass Pad Part [9223816]"},{"mesh":16,"translation":[-1.3827109,1.721485,-0.88134855],"name":"OPT006 - Optik Glass Pad Part [9223810]"},{"mesh":16,"translation":[-0.71602607,1.4674848,-1.0332044],"rotation":[-0.0,-0.7071068,0.0,0.7071067],"name":"OPT006 - Optik Glass Pad Part [9223740]"},{"mesh":16,"translation":[-0.71602607,1.721485,-1.0332044],"rotation":[-0.0,-0.7071068,0.0,0.7071067],"name":"OPT006 - Optik Glass Pad Part [9223734]"},{"mesh":16,"translation":[-0.44932607,1.5544546,-1.0332044],"rotation":[-0.0,-0.7071068,0.0,0.7071067],"name":"OPT006 - Optik Glass Pad Part [9223702]"},{"mesh":16,"translation":[-0.44932607,1.8084546,-1.0332044],"rotation":[-0.0,-0.7071068,0.0,0.7071067],"name":"OPT006 - Optik Glass Pad Part [9223696]"},{"mesh":16,"translation":[1.4287454,2.8346148,-1.0332044],"rotation":[-0.0,-0.7071068,0.0,0.7071067],"name":"OPT006 - Optik Glass Pad Part [9223664]"},{"mesh":16,"translation":[1.4287454,3.0886145,-1.0332044],"rotation":[-0.0,-0.7071068,0.0,0.7071067],"name":"OPT006 - Optik Glass Pad Part [9223658]"},{"mesh":16,"translation":[0.6293151,2.2859745,-1.0332044],"rotation":[-0.0,-0.7071068,0.0,0.7071067],"name":"OPT006 - Optik Glass Pad Part [9223626]"},{"mesh":16,"translation":[0.6293151,2.5399747,-1.0332044],"rotation":[-0.0,-0.7071068,0.0,0.7071067],"name":"OPT006 - Optik Glass Pad Part [9223620]"},{"mesh":16,"translation":[0.36284298,2.1030943,-1.0332044],"rotation":[-0.0,-0.7071068,0.0,0.7071067],"name":"OPT006 - Optik Glass Pad Part [9223588]"},{"mesh":16,"translation":[0.36284298,2.3570948,-1.0332044],"rotation":[-0.0,-0.7071068,0.0,0.7071067],"name":"OPT006 - Optik Glass Pad Part [9223582]"},{"mesh":16,"translation":[1.1604408,0.45717472,0.18599562],"rotation":[-0.0,-0.7071068,0.0,0.7071067],"name":"OPT006 - Optik Glass Pad Part [9223398]"},{"mesh":16,"translation":[1.1604408,0.7111746,0.18599562],"rotation":[-0.0,-0.7071068,0.0,0.7071067],"name":"OPT006 - Optik Glass Pad Part [9223392]"},{"mesh":16,"translation":[0.6281012,0.8229347,0.18599562],"rotation":[-0.0,-0.7071068,0.0,0.7071067],"name":"OPT006 - Optik Glass Pad Part [9223360]"},{"mesh":16,"translation":[0.6281012,1.0769343,0.18599562],"rotation":[-0.0,-0.7071068,0.0,0.7071067],"name":"OPT006 - Optik Glass Pad Part [9223354]"},{"mesh":16,"translation":[0.36256856,1.0058148,0.18599562],"rotation":[-0.0,-0.7071068,0.0,0.7071067],"name":"OPT006 - Optik Glass Pad Part [9223322]"},{"mesh":16,"translation":[0.36256856,1.2598144,0.18599562],"rotation":[-0.0,-0.7071068,0.0,0.7071067],"name":"OPT006 - Optik Glass Pad Part [9223316]"},{"mesh":16,"translation":[-0.41755125,1.4674848,0.05897547],"rotation":[-0.0,-1.0,0.0,2.8212997E-07],"name":"OPT006 - Optik Glass Pad Part [9223284]"},{"mesh":16,"translation":[-0.41755125,1.721485,0.05897547],"rotation":[-0.0,-1.0,0.0,2.8212997E-07],"name":"OPT006 - Optik Glass Pad Part [9223278]"},{"mesh":16,"translation":[-0.17041285,1.3715744,0.18599562],"rotation":[-0.0,-0.7071068,0.0,0.7071067],"name":"OPT006 - Optik Glass Pad Part [9223055]"},{"mesh":16,"translation":[-0.17041285,1.6255746,0.18599562],"rotation":[-0.0,-0.7071068,0.0,0.7071067],"name":"OPT006 - Optik Glass Pad Part [9223049]"},{"mesh":17,"translation":[-0.42388576,1.4674848,1.1352819],"rotation":[-0.0,0.7071068,0.0,0.7071067],"name":"OPT006A - Optik Glass Pad Part [9224005]"},{"mesh":17,"translation":[-0.42388576,1.721485,1.1352819],"rotation":[-0.0,0.7071068,0.0,0.7071067],"name":"OPT006A - Optik Glass Pad Part [9223999]"},{"mesh":17,"translation":[-1.3668422,1.4674848,-0.074374534],"name":"OPT006A - Optik Glass Pad Part [9223929]"},{"mesh":17,"translation":[-1.3668422,1.721485,-0.074374534],"name":"OPT006A - Optik Glass Pad Part [9223923]"},{"mesh":17,"translation":[-1.2308598,1.4674848,1.1352819],"rotation":[-0.0,0.7071068,0.0,0.7071067],"name":"OPT006A - Optik Glass Pad Part [9223891]"},{"mesh":17,"translation":[-1.2308598,1.721485,1.1352819],"rotation":[-0.0,0.7071068,0.0,0.7071067],"name":"OPT006A - Optik Glass Pad Part [9223885]"},{"mesh":17,"translation":[-1.3668422,1.4674848,-0.88134855],"name":"OPT006A - Optik Glass Pad Part [9223815]"},{"mesh":17,"translation":[-1.3668422,1.721485,-0.88134855],"name":"OPT006A - Optik Glass Pad Part [9223809]"},{"mesh":17,"translation":[-0.71602607,1.4674848,-1.0173309],"rotation":[-0.0,-0.7071068,0.0,0.7071067],"name":"OPT006A - Optik Glass Pad Part [9223739]"},{"mesh":17,"translation":[-0.71602607,1.721485,-1.0173309],"rotation":[-0.0,-0.7071068,0.0,0.7071067],"name":"OPT006A - Optik Glass Pad Part [9223733]"},{"mesh":17,"translation":[-0.44932607,1.5544546,-1.0173309],"rotation":[-0.0,-0.7071068,0.0,0.7071067],"name":"OPT006A - Optik Glass Pad Part [9223701]"},{"mesh":17,"translation":[-0.44932607,1.8084546,-1.0173309],"rotation":[-0.0,-0.7071068,0.0,0.7071067],"name":"OPT006A - Optik Glass Pad Part [9223695]"},{"mesh":17,"translation":[1.4287454,2.8346148,-1.0173309],"rotation":[-0.0,-0.7071068,0.0,0.7071067],"name":"OPT006A - Optik Glass Pad Part [9223663]"},{"mesh":17,"translation":[1.4287454,3.0886145,-1.0173309],"rotation":[-0.0,-0.7071068,0.0,0.7071067],"name":"OPT006A - Optik Glass Pad Part [9223657]"},{"mesh":17,"translation":[0.6293151,2.2859745,-1.0173309],"rotation":[-0.0,-0.7071068,0.0,0.7071067],"name":"OPT006A - Optik Glass Pad Part [9223625]"},{"mesh":17,"translation":[0.6293151,2.5399747,-1.0173309],"rotation":[-0.0,-0.7071068,0.0,0.7071067],"name":"OPT006A - Optik Glass Pad Part [9223619]"},{"mesh":17,"translation":[0.36284298,2.1030943,-1.0173309],"rotation":[-0.0,-0.7071068,0.0,0.7071067],"name":"OPT006A - Optik Glass Pad Part [9223587]"},{"mesh":17,"translation":[0.36284298,2.3570948,-1.0173309],"rotation":[-0.0,-0.7071068,0.0,0.7071067],"name":"OPT006A - Optik Glass Pad Part [9223581]"},{"mesh":17,"translation":[1.1604408,0.45717472,0.20186907],"rotation":[-0.0,-0.7071068,0.0,0.7071067],"name":"OPT006A - Optik Glass Pad Part [9223397]"},{"mesh":17,"translation":[1.1604408,0.7111746,0.20186907],"rotation":[-0.0,-0.7071068,0.0,0.7071067],"name":"OPT006A - Optik Glass Pad Part [9223391]"},{"mesh":17,"translation":[0.6281012,0.8229347,0.20186907],"rotation":[-0.0,-0.7071068,0.0,0.7071067],"name":"OPT006A - Optik Glass Pad Part [9223359]"},{"mesh":17,"translation":[0.6281012,1.0769343,0.20186907],"rotation":[-0.0,-0.7071068,0.0,0.7071067],"name":"OPT006A - Optik Glass Pad Part [9223353]"},{"mesh":17,"translation":[0.36256856,1.0058148,0.20186907],"rotation":[-0.0,-0.7071068,0.0,0.7071067],"name":"OPT006A - Optik Glass Pad Part [9223321]"},{"mesh":17,"translation":[0.36256856,1.2598144,0.20186907],"rotation":[-0.0,-0.7071068,0.0,0.7071067],"name":"OPT006A - Optik Glass Pad Part [9223315]"},{"mesh":17,"translation":[-0.43342936,1.4674848,0.05897547],"rotation":[-0.0,-1.0,0.0,2.8212997E-07],"name":"OPT006A - Optik Glass Pad Part [9223283]"},{"mesh":17,"translation":[-0.43342936,1.721485,0.05897547],"rotation":[-0.0,-1.0,0.0,2.8212997E-07],"name":"OPT006A - Optik Glass Pad Part [9223277]"},{"mesh":17,"translation":[-0.17041285,1.3715744,0.20186907],"rotation":[-0.0,-0.7071068,0.0,0.7071067],"name":"OPT006A - Optik Glass Pad Part [9223054]"},{"mesh":17,"translation":[-0.17041285,1.6255746,0.20186907],"rotation":[-0.0,-0.7071068,0.0,0.7071067],"name":"OPT006A - Optik Glass Pad Part [9223048]"},{"mesh":18,"translation":[-0.42388576,1.4674848,1.1575084],"rotation":[-0.0,0.7071068,0.0,0.7071067],"name":"CSQ088 - Circum Square Lo-Post Spacer Part [9223427]050"},{"mesh":18,"translation":[-0.42388576,1.721485,1.1575084],"rotation":[-0.0,0.7071068,0.0,0.7071067],"name":"CSQ088 - Circum Square Lo-Post Spacer Part [9223427]049"},{"mesh":18,"translation":[-1.3890641,1.4674848,0.19232547],"rotation":[-0.0,1.1188018E-14,0.0,1.0],"name":"CSQ088 - Circum Square Lo-Post Spacer Part [9223427]048"},{"mesh":18,"translation":[-1.3890641,1.721485,0.19232547],"rotation":[-0.0,1.1188018E-14,0.0,1.0],"name":"CSQ088 - Circum Square Lo-Post Spacer Part [9223427]047"},{"mesh":18,"translation":[-1.3890641,1.4674848,-0.074374534],"name":"CSQ088 - Circum Square Lo-Post Spacer Part [9223427]046"},{"mesh":18,"translation":[-1.3890641,1.721485,-0.074374534],"name":"CSQ088 - Circum Square Lo-Post Spacer Part [9223427]045"},{"mesh":18,"translation":[-1.2308598,1.4674848,1.1575084],"rotation":[-0.0,0.7071068,0.0,0.7071067],"name":"CSQ088 - Circum Square Lo-Post Spacer Part [9223427]044"},{"mesh":18,"translation":[-1.2308598,1.721485,1.1575084],"rotation":[-0.0,0.7071068,0.0,0.7071067],"name":"CSQ088 - Circum Square Lo-Post Spacer Part [9223427]043"},{"mesh":18,"translation":[-1.3890641,1.4674848,0.99929947],"rotation":[-0.0,1.1188018E-14,0.0,1.0],"name":"CSQ088 - Circum Square Lo-Post Spacer Part [9223427]042"},{"mesh":18,"translation":[-1.3890641,1.721485,0.99929947],"rotation":[-0.0,1.1188018E-14,0.0,1.0],"name":"CSQ088 - Circum Square Lo-Post Spacer Part [9223427]041"},{"mesh":18,"translation":[-1.3890641,1.4674848,-0.88134855],"name":"CSQ088 - Circum Square Lo-Post Spacer Part [9223427]040"},{"mesh":18,"translation":[-1.3890641,1.721485,-0.88134855],"name":"CSQ088 - Circum Square Lo-Post Spacer Part [9223427]039"},{"mesh":18,"translation":[-1.2308598,1.4674848,-1.0395528],"rotation":[-0.0,-0.7071068,0.0,0.7071067],"name":"CSQ088 - Circum Square Lo-Post Spacer Part [9223427]038"},{"mesh":18,"translation":[-1.2308598,1.721485,-1.0395528],"rotation":[-0.0,-0.7071068,0.0,0.7071067],"name":"CSQ088 - Circum Square Lo-Post Spacer Part [9223427]037"},{"mesh":18,"translation":[-0.71602607,1.4674848,-1.0395528],"rotation":[-0.0,-0.7071068,0.0,0.7071067],"name":"CSQ088 - Circum Square Lo-Post Spacer Part [9223427]036"},{"mesh":18,"translation":[-0.71602607,1.721485,-1.0395528],"rotation":[-0.0,-0.7071068,0.0,0.7071067],"name":"CSQ088 - Circum Square Lo-Post Spacer Part [9223427]035"},{"mesh":18,"translation":[-0.44932607,1.5544546,-1.0395528],"rotation":[-0.0,-0.7071068,0.0,0.7071067],"name":"CSQ088 - Circum Square Lo-Post Spacer Part [9223427]034"},{"mesh":18,"translation":[-0.44932607,1.8084546,-1.0395528],"rotation":[-0.0,-0.7071068,0.0,0.7071067],"name":"CSQ088 - Circum Square Lo-Post Spacer Part [9223427]033"},{"mesh":18,"translation":[1.4287454,2.8346148,-1.0395528],"rotation":[-0.0,-0.7071068,0.0,0.7071067],"name":"CSQ088 - Circum Square Lo-Post Spacer Part [9223427]032"},{"mesh":18,"translation":[1.4287454,3.0886145,-1.0395528],"rotation":[-0.0,-0.7071068,0.0,0.7071067],"name":"CSQ088 - Circum Square Lo-Post Spacer Part [9223427]031"},{"mesh":18,"translation":[0.6293151,2.2859745,-1.0395528],"rotation":[-0.0,-0.7071068,0.0,0.7071067],"name":"CSQ088 - Circum Square Lo-Post Spacer Part [9223427]030"},{"mesh":18,"translation":[0.6293151,2.5399747,-1.0395528],"rotation":[-0.0,-0.7071068,0.0,0.7071067],"name":"CSQ088 - Circum Square Lo-Post Spacer Part [9223427]029"},{"mesh":18,"translation":[0.36284298,2.1030943,-1.0395528],"rotation":[-0.0,-0.7071068,0.0,0.7071067],"name":"CSQ088 - Circum Square Lo-Post Spacer Part [9223427]028"},{"mesh":18,"translation":[0.36284298,2.3570948,-1.0395528],"rotation":[-0.0,-0.7071068,0.0,0.7071067],"name":"CSQ088 - Circum Square Lo-Post Spacer Part [9223427]027"},{"mesh":18,"translation":[1.1604408,0.45717472,1.1575084],"rotation":[-0.0,0.7071068,0.0,0.7071067],"name":"CSQ088 - Circum Square Lo-Post Spacer Part [9223427]026"},{"mesh":18,"translation":[1.1604408,0.7111746,1.1575084],"rotation":[-0.0,0.7071068,0.0,0.7071067],"name":"CSQ088 - Circum Square Lo-Post Spacer Part [9223427]025"},{"mesh":18,"translation":[0.6281012,0.8229347,1.1575084],"rotation":[-0.0,0.7071068,0.0,0.7071067],"name":"CSQ088 - Circum Square Lo-Post Spacer Part [9223427]024"},{"mesh":18,"translation":[0.6281012,1.0769343,1.1575084],"rotation":[-0.0,0.7071068,0.0,0.7071067],"name":"CSQ088 - Circum Square Lo-Post Spacer Part [9223427]023"},{"mesh":18,"translation":[0.36256856,1.0058148,1.1575084],"rotation":[-0.0,0.7071068,0.0,0.7071067],"name":"CSQ088 - Circum Square Lo-Post Spacer Part [9223427]022"},{"mesh":18,"translation":[0.36256856,1.2598144,1.1575084],"rotation":[-0.0,0.7071068,0.0,0.7071067],"name":"CSQ088 - Circum Square Lo-Post Spacer Part [9223427]021"},{"mesh":18,"translation":[-0.17041285,1.3715744,1.1575084],"rotation":[-0.0,0.7071068,0.0,0.7071067],"name":"CSQ088 - Circum Square Lo-Post Spacer Part [9223427]020"},{"mesh":18,"translation":[-0.17041285,1.6255746,1.1575084],"rotation":[-0.0,0.7071068,0.0,0.7071067],"name":"CSQ088 - Circum Square Lo-Post Spacer Part [9223427]019"},{"mesh":18,"translation":[1.1604408,0.45717472,0.17964718],"rotation":[-0.0,-0.7071068,0.0,0.7071067],"name":"CSQ088 - Circum Square Lo-Post Spacer Part [9223427]018"},{"mesh":18,"translation":[1.1604408,0.7111746,0.17964718],"rotation":[-0.0,-0.7071068,0.0,0.7071067],"name":"CSQ088 - Circum Square Lo-Post Spacer Part [9223427]017"},{"mesh":18,"translation":[0.6281012,0.8229347,0.17964718],"rotation":[-0.0,-0.7071068,0.0,0.7071067],"name":"CSQ088 - Circum Square Lo-Post Spacer Part [9223427]016"},{"mesh":18,"translation":[0.6281012,1.0769343,0.17964718],"rotation":[-0.0,-0.7071068,0.0,0.7071067],"name":"CSQ088 - Circum Square Lo-Post Spacer Part [9223427]015"},{"mesh":18,"translation":[0.36256856,1.0058148,0.17964718],"rotation":[-0.0,-0.7071068,0.0,0.7071067],"name":"CSQ088 - Circum Square Lo-Post Spacer Part [9223427]014"},{"mesh":18,"translation":[0.36256856,1.2598144,0.17964718],"rotation":[-0.0,-0.7071068,0.0,0.7071067],"name":"CSQ088 - Circum Square Lo-Post Spacer Part [9223427]013"},{"mesh":18,"translation":[-0.41120282,1.4674848,0.05897547],"rotation":[-0.0,-1.0,0.0,2.8212997E-07],"name":"CSQ088 - Circum Square Lo-Post Spacer Part [9223427]012"},{"mesh":18,"translation":[-0.41120282,1.721485,0.05897547],"rotation":[-0.0,-1.0,0.0,2.8212997E-07],"name":"CSQ088 - Circum Square Lo-Post Spacer Part [9223427]011"},{"mesh":18,"translation":[1.4287454,2.8346148,-0.061691582],"rotation":[-0.0,0.7071068,0.0,0.7071067],"name":"CSQ088 - Circum Square Lo-Post Spacer Part [9223427]010"},{"mesh":18,"translation":[1.4287454,3.0886145,-0.061691582],"rotation":[-0.0,0.7071068,0.0,0.7071067],"name":"CSQ088 - Circum Square Lo-Post Spacer Part [9223427]009"},{"mesh":18,"translation":[0.6293151,2.2859745,-0.061691582],"rotation":[-0.0,0.7071068,0.0,0.7071067],"name":"CSQ088 - Circum Square Lo-Post Spacer Part [9223427]008"},{"mesh":18,"translation":[0.6293151,2.5399747,-0.061691582],"rotation":[-0.0,0.7071068,0.0,0.7071067],"name":"CSQ088 - Circum Square Lo-Post Spacer Part [9223427]007"},{"mesh":18,"translation":[0.36284298,2.1030943,-0.061691582],"rotation":[-0.0,0.7071068,0.0,0.7071067],"name":"CSQ088 - Circum Square Lo-Post Spacer Part [9223427]006"},{"mesh":18,"translation":[0.36284298,2.3570948,-0.061691582],"rotation":[-0.0,0.7071068,0.0,0.7071067],"name":"CSQ088 - Circum Square Lo-Post Spacer Part [9223427]005"},{"mesh":18,"translation":[-0.1701059,1.7373347,-0.061691582],"rotation":[-0.0,0.7071068,0.0,0.7071067],"name":"CSQ088 - Circum Square Lo-Post Spacer Part [9223427]004"},{"mesh":18,"translation":[-0.1701059,1.9913349,-0.061691582],"rotation":[-0.0,0.7071068,0.0,0.7071067],"name":"CSQ088 - Circum Square Lo-Post Spacer Part [9223427]003"},{"mesh":18,"translation":[-0.17041285,1.3715744,0.17964718],"rotation":[-0.0,-0.7071068,0.0,0.7071067],"name":"CSQ088 - Circum Square Lo-Post Spacer Part [9223427]002"},{"mesh":18,"translation":[-0.17041285,1.6255746,0.17964718],"rotation":[-0.0,-0.7071068,0.0,0.7071067],"name":"CSQ088 - Circum Square Lo-Post Spacer Part [9223427]001"},{"mesh":19,"translation":[-0.42388576,1.2801597,1.1829069],"rotation":[-0.0,-0.7071068,0.0,0.7071067],"name":"CSQ001-US - Surface Mount Weldment Part [8723797]063"},{"mesh":19,"translation":[-1.4144672,1.2801597,0.19232547],"rotation":[-0.0,-1.0,0.0,-2.8212997E-07],"name":"CSQ001-US - Surface Mount Weldment Part [8723797]062"},{"mesh":19,"translation":[-1.4144672,1.2801597,-0.074374534],"rotation":[-0.0,-1.0,0.0,2.8212997E-07],"name":"CSQ001-US - Surface Mount Weldment Part [8723797]061"},{"mesh":19,"translation":[-1.2308598,1.2801597,1.1829069],"rotation":[-0.0,-0.7071068,0.0,0.7071067],"name":"CSQ001-US - Surface Mount Weldment Part [8723797]060"},{"mesh":19,"translation":[-1.4144672,1.2801597,0.99929947],"rotation":[-0.0,-1.0,0.0,-2.8212997E-07],"name":"CSQ001-US - Surface Mount Weldment Part [8723797]059"},{"mesh":19,"translation":[-1.4144672,1.2801597,-0.88134855],"rotation":[-0.0,-1.0,0.0,2.8212997E-07],"name":"CSQ001-US - Surface Mount Weldment Part [8723797]058"},{"mesh":19,"translation":[-1.2308598,1.2801597,-1.064956],"rotation":[-0.0,0.7071068,0.0,0.7071067],"name":"CSQ001-US - Surface Mount Weldment Part [8723797]057"},{"mesh":19,"translation":[-0.71602607,1.2801597,-1.064956],"rotation":[-0.0,0.7071068,0.0,0.7071067],"name":"CSQ001-US - Surface Mount Weldment Part [8723797]056"},{"mesh":19,"translation":[-0.44932607,1.2801597,-1.064956],"rotation":[-0.0,0.7071068,0.0,0.7071067],"name":"CSQ001-US - Surface Mount Weldment Part [8723797]055"},{"mesh":19,"translation":[1.4287454,2.56032,-1.064956],"rotation":[-0.0,0.7071068,0.0,0.7071067],"name":"CSQ001-US - Surface Mount Weldment Part [8723797]054"},{"mesh":19,"translation":[0.6293151,2.01168,-1.064956],"rotation":[-0.0,0.7071068,0.0,0.7071067],"name":"CSQ001-US - Surface Mount Weldment Part [8723797]053"},{"mesh":19,"translation":[0.36284298,1.8288,-1.064956],"rotation":[-0.0,0.7071068,0.0,0.7071067],"name":"CSQ001-US - Surface Mount Weldment Part [8723797]052"},{"mesh":19,"translation":[1.1604408,0.18288012,1.1829069],"rotation":[-0.0,-0.7071068,0.0,0.7071067],"name":"CSQ001-US - Surface Mount Weldment Part [8723797]051"},{"mesh":19,"translation":[0.6281012,0.5486401,1.1829069],"rotation":[-0.0,-0.7071068,0.0,0.7071067],"name":"CSQ001-US - Surface Mount Weldment Part [8723797]050"},{"mesh":19,"translation":[0.36256856,0.7315199,1.1829069],"rotation":[-0.0,-0.7071068,0.0,0.7071067],"name":"CSQ001-US - Surface Mount Weldment Part [8723797]049"},{"mesh":19,"translation":[-0.17041285,1.0972801,1.1829069],"rotation":[-0.0,-0.7071068,0.0,0.7071067],"name":"CSQ001-US - Surface Mount Weldment Part [8723797]048"},{"mesh":19,"translation":[1.1604408,0.18288012,0.15424408],"rotation":[-0.0,0.7071068,0.0,0.7071067],"name":"CSQ001-US - Surface Mount Weldment Part [8723797]047"},{"mesh":19,"translation":[0.6281012,0.5486401,0.15424408],"rotation":[-0.0,0.7071068,0.0,0.7071067],"name":"CSQ001-US - Surface Mount Weldment Part [8723797]046"},{"mesh":19,"translation":[0.36256856,0.7315199,0.15424408],"rotation":[-0.0,0.7071068,0.0,0.7071067],"name":"CSQ001-US - Surface Mount Weldment Part [8723797]045"},{"mesh":19,"translation":[-0.38580436,1.2801597,0.05897547],"name":"CSQ001-US - Surface Mount Weldment Part [8723797]044"},{"mesh":19,"translation":[1.4287454,2.56032,-0.036293134],"rotation":[-0.0,-0.7071068,0.0,0.7071067],"name":"CSQ001-US - Surface Mount Weldment Part [8723797]043"},{"mesh":19,"translation":[0.6293151,2.01168,-0.036293134],"rotation":[-0.0,-0.7071068,0.0,0.7071067],"name":"CSQ001-US - Surface Mount Weldment Part [8723797]042"},{"mesh":19,"translation":[0.36284298,1.8288,-0.036293134],"rotation":[-0.0,-0.7071068,0.0,0.7071067],"name":"CSQ001-US - Surface Mount Weldment Part [8723797]041"},{"mesh":19,"translation":[-0.1701059,1.4630404,-0.036293134],"rotation":[-0.0,-0.7071068,0.0,0.7071067],"name":"CSQ001-US - Surface Mount Weldment Part [8723797]040"},{"mesh":19,"translation":[-0.17041285,1.0972801,0.15424408],"rotation":[-0.0,0.7071068,0.0,0.7071067],"name":"CSQ001-US - Surface Mount Weldment Part [8723797]039"},{"mesh":20,"translation":[-0.42388576,1.2801597,1.1829069],"rotation":[-0.5,-0.50000006,0.5,0.49999994],"name":"LS208 & LS209 - Circum Square Post Material LS Material [9223995]"},{"mesh":21,"translation":[-0.42388576,1.7500601,1.1829069],"rotation":[-0.0,-0.7071068,0.0,0.7071067],"name":"CSQ022 - Square Post Omaha Cap Part [8465283]063"},{"mesh":21,"translation":[-1.4144672,1.7500601,0.19232547],"rotation":[-0.0,-1.0,0.0,-2.8212997E-07],"name":"CSQ022 - Square Post Omaha Cap Part [8465283]062"},{"mesh":21,"translation":[-1.4144672,1.7500601,-0.074374534],"rotation":[-0.0,-1.0,0.0,2.8212997E-07],"name":"CSQ022 - Square Post Omaha Cap Part [8465283]061"},{"mesh":21,"translation":[-1.2308598,1.7500601,1.1829069],"rotation":[-0.0,-0.7071068,0.0,0.7071067],"name":"CSQ022 - Square Post Omaha Cap Part [8465283]060"},{"mesh":21,"translation":[-1.4144672,1.7500601,0.99929947],"rotation":[-0.0,-1.0,0.0,-2.8212997E-07],"name":"CSQ022 - Square Post Omaha Cap Part [8465283]059"},{"mesh":21,"translation":[-1.4144672,1.7500601,-0.88134855],"rotation":[-0.0,-1.0,0.0,2.8212997E-07],"name":"CSQ022 - Square Post Omaha Cap Part [8465283]058"},{"mesh":21,"translation":[-1.2308598,1.7500601,-1.064956],"rotation":[-0.0,0.7071068,0.0,0.7071067],"name":"CSQ022 - Square Post Omaha Cap Part [8465283]057"},{"mesh":21,"translation":[-0.71602607,1.7500601,-1.064956],"rotation":[-0.0,0.7071068,0.0,0.7071067],"name":"CSQ022 - Square Post Omaha Cap Part [8465283]056"},{"mesh":21,"translation":[-0.44932607,1.8370296,-1.064956],"rotation":[-0.0,0.7071068,0.0,0.7071067],"name":"CSQ022 - Square Post Omaha Cap Part [8465283]055"},{"mesh":21,"translation":[1.4287454,3.1171894,-1.064956],"rotation":[-0.0,0.7071068,0.0,0.7071067],"name":"CSQ022 - Square Post Omaha Cap Part [8465283]054"},{"mesh":21,"translation":[0.6293151,2.5685496,-1.064956],"rotation":[-0.0,0.7071068,0.0,0.7071067],"name":"CSQ022 - Square Post Omaha Cap Part [8465283]053"},{"mesh":21,"translation":[0.36284298,2.3856697,-1.064956],"rotation":[-0.0,0.7071068,0.0,0.7071067],"name":"CSQ022 - Square Post Omaha Cap Part [8465283]052"},{"mesh":21,"translation":[1.1604408,0.7397496,1.1829069],"rotation":[-0.0,-0.7071068,0.0,0.7071067],"name":"CSQ022 - Square Post Omaha Cap Part [8465283]051"},{"mesh":21,"translation":[0.6281012,1.1055093,1.1829069],"rotation":[-0.0,-0.7071068,0.0,0.7071067],"name":"CSQ022 - Square Post Omaha Cap Part [8465283]050"},{"mesh":21,"translation":[0.36256856,1.2883894,1.1829069],"rotation":[-0.0,-0.7071068,0.0,0.7071067],"name":"CSQ022 - Square Post Omaha Cap Part [8465283]049"},{"mesh":21,"translation":[-0.17041285,1.6541497,1.1829069],"rotation":[-0.0,-0.7071068,0.0,0.7071067],"name":"CSQ022 - Square Post Omaha Cap Part [8465283]048"},{"mesh":21,"translation":[1.1604408,0.7397496,0.15424408],"rotation":[-0.0,0.7071068,0.0,0.7071067],"name":"CSQ022 - Square Post Omaha Cap Part [8465283]047"},{"mesh":21,"translation":[0.6281012,1.1055093,0.15424408],"rotation":[-0.0,0.7071068,0.0,0.7071067],"name":"CSQ022 - Square Post Omaha Cap Part [8465283]046"},{"mesh":21,"translation":[0.36256856,1.2883894,0.15424408],"rotation":[-0.0,0.7071068,0.0,0.7071067],"name":"CSQ022 - Square Post Omaha Cap Part [8465283]045"},{"mesh":21,"translation":[-0.38580436,1.7500601,0.05897547],"name":"CSQ022 - Square Post Omaha Cap Part [8465283]044"},{"mesh":21,"translation":[1.4287454,3.1171894,-0.036293134],"rotation":[-0.0,-0.7071068,0.0,0.7071067],"name":"CSQ022 - Square Post Omaha Cap Part [8465283]043"},{"mesh":21,"translation":[0.6293151,2.5685496,-0.036293134],"rotation":[-0.0,-0.7071068,0.0,0.7071067],"name":"CSQ022 - Square Post Omaha Cap Part [8465283]042"},{"mesh":21,"translation":[0.36284298,2.3856697,-0.036293134],"rotation":[-0.0,-0.7071068,0.0,0.7071067],"name":"CSQ022 - Square Post Omaha Cap Part [8465283]041"},{"mesh":21,"translation":[-0.1701059,2.0199099,-0.036293134],"rotation":[-0.0,-0.7071068,0.0,0.7071067],"name":"CSQ022 - Square Post Omaha Cap Part [8465283]040"},{"mesh":21,"translation":[-0.17041285,1.6541497,0.15424408],"rotation":[-0.0,0.7071068,0.0,0.7071067],"name":"CSQ022 - Square Post Omaha Cap Part [8465283]039"},{"mesh":22,"translation":[-0.42388576,1.721485,1.1344959],"rotation":[-0.0,-1.0,0.0,2.8212997E-07],"name":"CSQ086 - Circum Lo-Post Cover Part [9223866]025"},{"mesh":22,"translation":[-1.3660516,1.721485,0.19232547],"rotation":[-0.0,0.7071067,0.0,0.7071068],"name":"CSQ086 - Circum Lo-Post Cover Part [9223866]024"},{"mesh":22,"translation":[-1.3660516,1.721485,-0.074374534],"rotation":[-0.0,0.7071068,0.0,0.7071067],"name":"CSQ086 - Circum Lo-Post Cover Part [9223866]023"},{"mesh":22,"translation":[-1.2308598,1.721485,1.1344959],"rotation":[-0.0,-1.0,0.0,2.8212997E-07],"name":"CSQ086 - Circum Lo-Post Cover Part [9223866]022"},{"mesh":22,"translation":[-1.3660516,1.721485,0.99929947],"rotation":[-0.0,0.7071067,0.0,0.7071068],"name":"CSQ086 - Circum Lo-Post Cover Part [9223866]021"},{"mesh":22,"translation":[-1.3660516,1.721485,-0.88134855],"rotation":[-0.0,0.7071068,0.0,0.7071067],"name":"CSQ086 - Circum Lo-Post Cover Part [9223866]020"},{"mesh":22,"translation":[-1.2308598,1.721485,-1.0165403],"rotation":[-0.0,-2.3841858E-07,0.0,1.0],"name":"CSQ086 - Circum Lo-Post Cover Part [9223866]019"},{"mesh":22,"translation":[-0.71602607,1.721485,-1.0165403],"name":"CSQ086 - Circum Lo-Post Cover Part [9223866]018"},{"mesh":22,"translation":[-0.44932607,1.8084546,-1.0165403],"name":"CSQ086 - Circum Lo-Post Cover Part [9223866]017"},{"mesh":22,"translation":[1.4287454,3.0886145,-1.0165403],"name":"CSQ086 - Circum Lo-Post Cover Part [9223866]016"},{"mesh":22,"translation":[0.6293151,2.5399747,-1.0165403],"name":"CSQ086 - Circum Lo-Post Cover Part [9223866]015"},{"mesh":22,"translation":[0.36284298,2.3570948,-1.0165403],"name":"CSQ086 - Circum Lo-Post Cover Part [9223866]014"},{"mesh":22,"translation":[1.1604408,0.7111746,1.1344959],"rotation":[-0.0,-1.0,0.0,4.371139E-08],"name":"CSQ086 - Circum Lo-Post Cover Part [9223866]013"},{"mesh":22,"translation":[0.6281012,1.0769343,1.1344959],"rotation":[-0.0,-1.0,0.0,4.371139E-08],"name":"CSQ086 - Circum Lo-Post Cover Part [9223866]012"},{"mesh":22,"translation":[0.36256856,1.2598144,1.1344959],"rotation":[-0.0,-1.0,0.0,4.371139E-08],"name":"CSQ086 - Circum Lo-Post Cover Part [9223866]011"},{"mesh":22,"translation":[-0.17041285,1.6255746,1.1344959],"rotation":[-0.0,-1.0,0.0,4.371139E-08],"name":"CSQ086 - Circum Lo-Post Cover Part [9223866]010"},{"mesh":22,"translation":[1.1604408,0.7111746,0.20265973],"name":"CSQ086 - Circum Lo-Post Cover Part [9223866]009"},{"mesh":22,"translation":[0.6281012,1.0769343,0.20265973],"name":"CSQ086 - Circum Lo-Post Cover Part [9223866]008"},{"mesh":22,"translation":[0.36256856,1.2598144,0.20265973],"name":"CSQ086 - Circum Lo-Post Cover Part [9223866]007"},{"mesh":22,"translation":[-0.43421537,1.721485,0.05897547],"rotation":[-0.0,-0.7071068,0.0,0.7071067],"name":"CSQ086 - Circum Lo-Post Cover Part [9223866]006"},{"mesh":22,"translation":[1.4287454,3.0886145,-0.08470413],"rotation":[-0.0,-1.0,0.0,4.371139E-08],"name":"CSQ086 - Circum Lo-Post Cover Part [9223866]005"},{"mesh":22,"translation":[0.6293151,2.5399747,-0.08470413],"rotation":[-0.0,-1.0,0.0,4.371139E-08],"name":"CSQ086 - Circum Lo-Post Cover Part [9223866]004"},{"mesh":22,"translation":[0.36284298,2.3570948,-0.08470413],"rotation":[-0.0,-1.0,0.0,4.371139E-08],"name":"CSQ086 - Circum Lo-Post Cover Part [9223866]003"},{"mesh":22,"translation":[-0.1701059,1.9913349,-0.08470413],"rotation":[-0.0,-1.0,0.0,4.371139E-08],"name":"CSQ086 - Circum Lo-Post Cover Part [9223866]002"},{"mesh":22,"translation":[-0.17041285,1.6255746,0.20265973],"name":"CSQ086 - Circum Lo-Post Cover Part [9223866]001"},{"mesh":23,"translation":[-1.3827109,1.4674848,0.19232547],"rotation":[-0.0,1.1188018E-14,0.0,1.0],"name":"OPT006 - Optik Glass Pad Part [9223968]"},{"mesh":23,"translation":[-1.3827109,1.721485,0.19232547],"rotation":[-0.0,1.1188018E-14,0.0,1.0],"name":"OPT006 - Optik Glass Pad Part [9223962]"},{"mesh":23,"translation":[-1.3827109,1.4674848,0.99929947],"rotation":[-0.0,1.1188018E-14,0.0,1.0],"name":"OPT006 - Optik Glass Pad Part [9223854]"},{"mesh":23,"translation":[-1.3827109,1.721485,0.99929947],"rotation":[-0.0,1.1188018E-14,0.0,1.0],"name":"OPT006 - Optik Glass Pad Part [9223848]"},{"mesh":23,"translation":[-1.2308598,1.4674848,-1.0332044],"rotation":[-0.0,-0.7071068,0.0,0.7071067],"name":"OPT006 - Optik Glass Pad Part [9223778]"},{"mesh":23,"translation":[-1.2308598,1.721485,-1.0332044],"rotation":[-0.0,-0.7071068,0.0,0.7071067],"name":"OPT006 - Optik Glass Pad Part [9223772]"},{"mesh":23,"translation":[1.1604408,0.45717472,1.15116],"rotation":[-0.0,0.7071068,0.0,0.7071067],"name":"OPT006 - Optik Glass Pad Part [9223550]"},{"mesh":23,"translation":[1.1604408,0.7111746,1.15116],"rotation":[-0.0,0.7071068,0.0,0.7071067],"name":"OPT006 - Optik Glass Pad Part [9223544]"},{"mesh":23,"translation":[0.6281012,0.8229347,1.15116],"rotation":[-0.0,0.7071068,0.0,0.7071067],"name":"OPT006 - Optik Glass Pad Part [9223512]"},{"mesh":23,"translation":[0.6281012,1.0769343,1.15116],"rotation":[-0.0,0.7071068,0.0,0.7071067],"name":"OPT006 - Optik Glass Pad Part [9223506]"},{"mesh":23,"translation":[0.36256856,1.0058148,1.15116],"rotation":[-0.0,0.7071068,0.0,0.7071067],"name":"OPT006 - Optik Glass Pad Part [9223474]"},{"mesh":23,"translation":[0.36256856,1.2598144,1.15116],"rotation":[-0.0,0.7071068,0.0,0.7071067],"name":"OPT006 - Optik Glass Pad Part [9223468]"},{"mesh":23,"translation":[-0.17041285,1.3715744,1.15116],"rotation":[-0.0,0.7071068,0.0,0.7071067],"name":"OPT006 - Optik Glass Pad Part [9223436]"},{"mesh":23,"translation":[-0.17041285,1.6255746,1.15116],"rotation":[-0.0,0.7071068,0.0,0.7071067],"name":"OPT006 - Optik Glass Pad Part [9223430]"},{"mesh":23,"translation":[1.4287454,2.8346148,-0.068040036],"rotation":[-0.0,0.7071068,0.0,0.7071067],"name":"OPT006 - Optik Glass Pad Part [9223246]"},{"mesh":23,"translation":[1.4287454,3.0886145,-0.068040036],"rotation":[-0.0,0.7071068,0.0,0.7071067],"name":"OPT006 - Optik Glass Pad Part [9223240]"},{"mesh":23,"translation":[0.6293151,2.2859745,-0.068040036],"rotation":[-0.0,0.7071068,0.0,0.7071067],"name":"OPT006 - Optik Glass Pad Part [9223208]"},{"mesh":23,"translation":[0.6293151,2.5399747,-0.068040036],"rotation":[-0.0,0.7071068,0.0,0.7071067],"name":"OPT006 - Optik Glass Pad Part [9223202]"},{"mesh":23,"translation":[0.36284298,2.1030943,-0.068040036],"rotation":[-0.0,0.7071068,0.0,0.7071067],"name":"OPT006 - Optik Glass Pad Part [9223170]"},{"mesh":23,"translation":[0.36284298,2.3570948,-0.068040036],"rotation":[-0.0,0.7071068,0.0,0.7071067],"name":"OPT006 - Optik Glass Pad Part [9223164]"},{"mesh":23,"translation":[-0.1701059,1.7373347,-0.068040036],"rotation":[-0.0,0.7071068,0.0,0.7071067],"name":"OPT006 - Optik Glass Pad Part [9223131]"},{"mesh":23,"translation":[-0.1701059,1.9913349,-0.068040036],"rotation":[-0.0,0.7071068,0.0,0.7071067],"name":"OPT006 - Optik Glass Pad Part [9223123]"},{"mesh":24,"translation":[-1.3668422,1.4674848,0.19232547],"rotation":[-0.0,1.1188018E-14,0.0,1.0],"name":"OPT006A - Optik Glass Pad Part [9223967]"},{"mesh":24,"translation":[-1.3668422,1.721485,0.19232547],"rotation":[-0.0,1.1188018E-14,0.0,1.0],"name":"OPT006A - Optik Glass Pad Part [9223961]"},{"mesh":24,"translation":[-1.3668422,1.4674848,0.99929947],"rotation":[-0.0,1.1188018E-14,0.0,1.0],"name":"OPT006A - Optik Glass Pad Part [9223853]"},{"mesh":24,"translation":[-1.3668422,1.721485,0.99929947],"rotation":[-0.0,1.1188018E-14,0.0,1.0],"name":"OPT006A - Optik Glass Pad Part [9223847]"},{"mesh":24,"translation":[-1.2308598,1.4674848,-1.0173309],"rotation":[-0.0,-0.7071068,0.0,0.7071067],"name":"OPT006A - Optik Glass Pad Part [9223777]"},{"mesh":24,"translation":[-1.2308598,1.721485,-1.0173309],"rotation":[-0.0,-0.7071068,0.0,0.7071067],"name":"OPT006A - Optik Glass Pad Part [9223771]"},{"mesh":24,"translation":[1.1604408,0.45717472,1.1352819],"rotation":[-0.0,0.7071068,0.0,0.7071067],"name":"OPT006A - Optik Glass Pad Part [9223549]"},{"mesh":24,"translation":[1.1604408,0.7111746,1.1352819],"rotation":[-0.0,0.7071068,0.0,0.7071067],"name":"OPT006A - Optik Glass Pad Part [9223543]"},{"mesh":24,"translation":[0.6281012,0.8229347,1.1352819],"rotation":[-0.0,0.7071068,0.0,0.7071067],"name":"OPT006A - Optik Glass Pad Part [9223511]"},{"mesh":24,"translation":[0.6281012,1.0769343,1.1352819],"rotation":[-0.0,0.7071068,0.0,0.7071067],"name":"OPT006A - Optik Glass Pad Part [9223505]"},{"mesh":24,"translation":[0.36256856,1.0058148,1.1352819],"rotation":[-0.0,0.7071068,0.0,0.7071067],"name":"OPT006A - Optik Glass Pad Part [9223473]"},{"mesh":24,"translation":[0.36256856,1.2598144,1.1352819],"rotation":[-0.0,0.7071068,0.0,0.7071067],"name":"OPT006A - Optik Glass Pad Part [9223467]"},{"mesh":24,"translation":[-0.17041285,1.3715744,1.1352819],"rotation":[-0.0,0.7071068,0.0,0.7071067],"name":"OPT006A - Optik Glass Pad Part [9223435]"},{"mesh":24,"translation":[-0.17041285,1.6255746,1.1352819],"rotation":[-0.0,0.7071068,0.0,0.7071067],"name":"OPT006A - Optik Glass Pad Part [9223429]"},{"mesh":24,"translation":[1.4287454,2.8346148,-0.08391813],"rotation":[-0.0,0.7071068,0.0,0.7071067],"name":"OPT006A - Optik Glass Pad Part [9223245]"},{"mesh":24,"translation":[1.4287454,3.0886145,-0.08391813],"rotation":[-0.0,0.7071068,0.0,0.7071067],"name":"OPT006A - Optik Glass Pad Part [9223239]"},{"mesh":24,"translation":[0.6293151,2.2859745,-0.08391813],"rotation":[-0.0,0.7071068,0.0,0.7071067],"name":"OPT006A - Optik Glass Pad Part [9223207]"},{"mesh":24,"translation":[0.6293151,2.5399747,-0.08391813],"rotation":[-0.0,0.7071068,0.0,0.7071067],"name":"OPT006A - Optik Glass Pad Part [9223201]"},{"mesh":24,"translation":[0.36284298,2.1030943,-0.08391813],"rotation":[-0.0,0.7071068,0.0,0.7071067],"name":"OPT006A - Optik Glass Pad Part [9223169]"},{"mesh":24,"translation":[0.36284298,2.3570948,-0.08391813],"rotation":[-0.0,0.7071068,0.0,0.7071067],"name":"OPT006A - Optik Glass Pad Part [9223163]"},{"mesh":24,"translation":[-0.1701059,1.7373347,-0.08391813],"rotation":[-0.0,0.7071068,0.0,0.7071067],"name":"OPT006A - Optik Glass Pad Part [9223130]"},{"mesh":24,"translation":[-0.1701059,1.9913349,-0.08391813],"rotation":[-0.0,0.7071068,0.0,0.7071067],"name":"OPT006A - Optik Glass Pad Part [9223122]"},{"mesh":25,"translation":[-1.4144672,1.2801597,0.19232547],"rotation":[-0.7071067,-0.7071068,-1.784226E-07,-1.784226E-07],"name":"LS208 & LS209 - Circum Square Post Material LS Material [9223957]"},{"mesh":26,"translation":[-1.4144672,1.2801597,-0.074374534],"rotation":[-0.7071067,-0.7071068,1.784226E-07,1.784226E-07],"name":"LS208 & LS209 - Circum Square Post Material LS Material [9223919]"},{"mesh":27,"translation":[-1.2308598,1.2801597,1.1829069],"rotation":[-0.5,-0.50000006,0.5,0.49999994],"name":"LS208 & LS209 - Circum Square Post Material LS Material [9223881]"},{"mesh":28,"translation":[-1.4144672,1.2801597,0.99929947],"rotation":[-0.7071067,-0.7071068,-1.784226E-07,-1.784226E-07],"name":"LS208 & LS209 - Circum Square Post Material LS Material [9223843]"},{"mesh":29,"translation":[-1.4144672,1.2801597,-0.88134855],"rotation":[-0.7071067,-0.7071068,1.784226E-07,1.784226E-07],"name":"LS208 & LS209 - Circum Square Post Material LS Material [9223805]"},{"mesh":30,"translation":[-1.2308598,1.2801597,-1.064956],"rotation":[0.5000001,0.49999997,0.49999985,0.50000006],"name":"LS208 & LS209 - Circum Square Post Material LS Material [9223767]"},{"mesh":31,"translation":[-0.71602607,1.2801597,-1.064956],"rotation":[0.5000001,0.49999997,0.49999985,0.50000006],"name":"LS208 & LS209 - Circum Square Post Material LS Material [9223729]"},{"mesh":32,"translation":[-0.44932607,1.2801597,-1.064956],"rotation":[0.5000001,0.49999997,0.49999985,0.50000006],"name":"LS208 & LS209 - Circum Square Post Material LS Material [9223691]"},{"mesh":33,"translation":[1.4287454,2.56032,-1.064956],"rotation":[0.5000001,0.49999997,0.49999985,0.50000006],"name":"LS208 & LS209 - Circum Square Post Material LS Material [9223653]"},{"mesh":34,"translation":[0.6293151,2.01168,-1.064956],"rotation":[0.5000001,0.49999997,0.49999985,0.50000006],"name":"LS208 & LS209 - Circum Square Post Material LS Material [9223615]"},{"mesh":35,"translation":[0.36284298,1.8288,-1.064956],"rotation":[0.5000001,0.49999997,0.49999985,0.50000006],"name":"LS208 & LS209 - Circum Square Post Material LS Material [9223577]"},{"mesh":36,"translation":[1.1604408,0.18288012,1.1829069],"rotation":[-0.5,-0.50000006,0.5,0.49999994],"name":"LS208 & LS209 - Circum Square Post Material LS Material [9223539]"},{"mesh":37,"translation":[0.6281012,0.5486401,1.1829069],"rotation":[-0.5,-0.50000006,0.5,0.49999994],"name":"LS208 & LS209 - Circum Square Post Material LS Material [9223501]"},{"mesh":38,"translation":[0.36256856,0.7315199,1.1829069],"rotation":[-0.5,-0.50000006,0.5,0.49999994],"name":"LS208 & LS209 - Circum Square Post Material LS Material [9223463]"},{"mesh":39,"translation":[-0.17041285,1.0972801,1.1829069],"rotation":[-0.5,-0.50000006,0.5,0.49999994],"name":"LS208 & LS209 - Circum Square Post Material LS Material [9223425]"},{"mesh":40,"translation":[1.1604408,0.18288012,0.15424408],"rotation":[0.5000001,0.49999997,0.49999985,0.50000006],"name":"LS208 & LS209 - Circum Square Post Material LS Material [9223387]"},{"mesh":41,"translation":[0.6281012,0.5486401,0.15424408],"rotation":[0.5000001,0.49999997,0.49999985,0.50000006],"name":"LS208 & LS209 - Circum Square Post Material LS Material [9223349]"},{"mesh":42,"translation":[0.36256856,0.7315199,0.15424408],"rotation":[0.5000001,0.49999997,0.49999985,0.50000006],"name":"LS208 & LS209 - Circum Square Post Material LS Material [9223311]"},{"mesh":43,"translation":[-0.38580436,1.2801597,0.05897547],"rotation":[-0.0,-0.0,0.7071068,0.7071067],"name":"LS208 & LS209 - Circum Square Post Material LS Material [9223273]"},{"mesh":44,"translation":[1.4287454,2.56032,-0.036293134],"rotation":[-0.5,-0.50000006,0.5,0.49999994],"name":"LS208 & LS209 - Circum Square Post Material LS Material [9223235]"},{"mesh":45,"translation":[0.6293151,2.01168,-0.036293134],"rotation":[-0.5,-0.50000006,0.5,0.49999994],"name":"LS208 & LS209 - Circum Square Post Material LS Material [9223197]"},{"mesh":46,"translation":[0.36284298,1.8288,-0.036293134],"rotation":[-0.5,-0.50000006,0.5,0.49999994],"name":"LS208 & LS209 - Circum Square Post Material LS Material [9223159]"},{"mesh":47,"translation":[-0.1701059,1.4630404,-0.036293134],"rotation":[-0.5,-0.50000006,0.5,0.49999994],"name":"LS208 & LS209 - Circum Square Post Material LS Material [9223115]"},{"mesh":48,"translation":[-0.17041285,1.0972801,0.15424408],"rotation":[0.5000001,0.49999997,0.49999985,0.50000006],"name":"LS208 & LS209 - Circum Square Post Material LS Material [9223043]"}],"meshes":[{"primitives":[{"attributes":{"POSITION":1,"TANGENT":2,"NORMAL":3,"TEXCOORD_0":4},"indices":0,"material":0}],"name":"Infill_Glass_Raked & Horizontal Generic [8199751]"},{"primitives":[{"attributes":{"POSITION":6,"TANGENT":7,"NORMAL":8,"TEXCOORD_0":9},"indices":5,"material":0}],"name":"Infill_Glass_Raked & Horizontal Generic [8200579]"},{"primitives":[{"attributes":{"POSITION":11,"TANGENT":12,"NORMAL":13,"TEXCOORD_0":14},"indices":10,"material":0}],"name":"Infill_Glass_Raked & Horizontal Generic [8201308]"},{"primitives":[{"attributes":{"POSITION":16,"TANGENT":17,"NORMAL":18,"TEXCOORD_0":19},"indices":15,"material":0}],"name":"Infill_Glass_Transition Generic [8202170]"},{"primitives":[{"attributes":{"POSITION":21,"TANGENT":22,"NORMAL":23,"TEXCOORD_0":24},"indices":20,"material":0}],"name":"Infill_Glass_Raked & Horizontal Generic [8202939]"},{"primitives":[{"attributes":{"POSITION":26,"TANGENT":27,"NORMAL":28,"TEXCOORD_0":29},"indices":25,"material":1},{"attributes":{"POSITION":31,"TANGENT":32,"NORMAL":33,"TEXCOORD_0":34},"indices":30,"material":2}],"name":"Generic Models 1 Generic Models 1 [8568048]"},{"primitives":[{"attributes":{"POSITION":36,"TANGENT":37,"NORMAL":38,"TEXCOORD_0":39},"indices":35,"material":1},{"attributes":{"POSITION":41,"TANGENT":42,"NORMAL":43,"TEXCOORD_0":44},"indices":40,"material":2}],"name":"Generic Models 2 Generic Models 2 [8568681]"},{"primitives":[{"attributes":{"POSITION":46,"TANGENT":47,"NORMAL":48,"TEXCOORD_0":49},"indices":45,"material":0}],"name":"Infill_Glass_Raked & Horizontal Generic [8735940]"},{"primitives":[{"attributes":{"POSITION":51,"TANGENT":52,"NORMAL":53,"TEXCOORD_0":54},"indices":50,"material":1},{"attributes":{"POSITION":56,"TANGENT":57,"NORMAL":58,"TEXCOORD_0":59},"indices":55,"material":2}],"name":"Generic Models 10 Generic Models 1 [8735975]"},{"primitives":[{"attributes":{"POSITION":61,"TANGENT":62,"NORMAL":63,"TEXCOORD_0":64},"indices":60,"material":0}],"name":"Infill_Glass_Raked & Horizontal Generic [8736296]"},{"primitives":[{"attributes":{"POSITION":66,"TANGENT":67,"NORMAL":68,"TEXCOORD_0":69},"indices":65,"material":0}],"name":"Infill_Glass_Raked & Horizontal Generic [8737682]"},{"primitives":[{"attributes":{"POSITION":71,"TANGENT":72,"NORMAL":73,"TEXCOORD_0":74},"indices":70,"material":0}],"name":"Casework 1 Casework 1 [8738332]"},{"primitives":[{"attributes":{"POSITION":76,"TANGENT":77,"NORMAL":78,"TEXCOORD_0":79},"indices":75,"material":0}],"name":"Infill_Glass_Raked & Horizontal Generic [8738822]"},{"primitives":[{"attributes":{"POSITION":81,"TANGENT":82,"NORMAL":83,"TEXCOORD_0":84},"indices":80,"material":0}],"name":"Infill_Glass_Raked & Horizontal Generic [8739062]"},{"primitives":[{"attributes":{"POSITION":86,"TANGENT":87,"NORMAL":88,"TEXCOORD_0":89},"indices":85,"material":0}],"name":"Infill_Glass_Raked & Horizontal Generic [8739156]"},{"primitives":[{"attributes":{"POSITION":91,"TANGENT":92,"NORMAL":93,"TEXCOORD_0":94},"indices":90,"material":0}],"name":"Infill_Glass_Raked & Horizontal Generic [8739593]"},{"primitives":[{"attributes":{"POSITION":96,"TANGENT":97,"NORMAL":98,"TEXCOORD_0":99},"indices":95,"material":3}],"name":"OPT006 - Optik Glass Pad Part [9224006]"},{"primitives":[{"attributes":{"POSITION":101,"TANGENT":102,"NORMAL":103,"TEXCOORD_0":104},"indices":100,"material":3}],"name":"OPT006A - Optik Glass Pad Part [9224005]"},{"primitives":[{"attributes":{"POSITION":106,"TANGENT":107,"NORMAL":108,"TEXCOORD_0":109},"indices":105,"material":1},{"attributes":{"POSITION":111,"TANGENT":112,"NORMAL":113,"TEXCOORD_0":114},"indices":110,"material":2}],"name":"CSQ088 - Circum Square Lo-Post Spacer Part [9223427]050"},{"primitives":[{"attributes":{"POSITION":116,"TANGENT":117,"NORMAL":118,"TEXCOORD_0":119},"indices":115,"material":1}],"name":"CSQ001-US - Surface Mount Weldment Part [8723797]063"},{"primitives":[{"attributes":{"POSITION":121,"TANGENT":122,"NORMAL":123,"TEXCOORD_0":124},"indices":120,"material":1}],"name":"LS208 & LS209 - Circum Square Post Material LS Material [9223995]"},{"primitives":[{"attributes":{"POSITION":126,"TANGENT":127,"NORMAL":128,"TEXCOORD_0":129},"indices":125,"material":1}],"name":"CSQ022 - Square Post Omaha Cap Part [8465283]063"},{"primitives":[{"attributes":{"POSITION":131,"TANGENT":132,"NORMAL":133,"TEXCOORD_0":134},"indices":130,"material":1},{"attributes":{"POSITION":136,"TANGENT":137,"NORMAL":138,"TEXCOORD_0":139},"indices":135,"material":2}],"name":"CSQ086 - Circum Lo-Post Cover Part [9223866]025"},{"primitives":[{"attributes":{"POSITION":141,"TANGENT":142,"NORMAL":143,"TEXCOORD_0":144},"indices":140,"material":3}],"name":"OPT006 - Optik Glass Pad Part [9223968]"},{"primitives":[{"attributes":{"POSITION":146,"TANGENT":147,"NORMAL":148,"TEXCOORD_0":149},"indices":145,"material":3}],"name":"OPT006A - Optik Glass Pad Part [9223967]"},{"primitives":[{"attributes":{"POSITION":151,"TANGENT":152,"NORMAL":153,"TEXCOORD_0":154},"indices":150,"material":1}],"name":"LS208 & LS209 - Circum Square Post Material LS Material [9223957]"},{"primitives":[{"attributes":{"POSITION":156,"TANGENT":157,"NORMAL":158,"TEXCOORD_0":159},"indices":155,"material":1}],"name":"LS208 & LS209 - Circum Square Post Material LS Material [9223919]"},{"primitives":[{"attributes":{"POSITION":161,"TANGENT":162,"NORMAL":163,"TEXCOORD_0":164},"indices":160,"material":1}],"name":"LS208 & LS209 - Circum Square Post Material LS Material [9223881]"},{"primitives":[{"attributes":{"POSITION":166,"TANGENT":167,"NORMAL":168,"TEXCOORD_0":169},"indices":165,"material":1}],"name":"LS208 & LS209 - Circum Square Post Material LS Material [9223843]"},{"primitives":[{"attributes":{"POSITION":171,"TANGENT":172,"NORMAL":173,"TEXCOORD_0":174},"indices":170,"material":1}],"name":"LS208 & LS209 - Circum Square Post Material LS Material [9223805]"},{"primitives":[{"attributes":{"POSITION":176,"TANGENT":177,"NORMAL":178,"TEXCOORD_0":179},"indices":175,"material":1}],"name":"LS208 & LS209 - Circum Square Post Material LS Material [9223767]"},{"primitives":[{"attributes":{"POSITION":181,"TANGENT":182,"NORMAL":183,"TEXCOORD_0":184},"indices":180,"material":1}],"name":"LS208 & LS209 - Circum Square Post Material LS Material [9223729]"},{"primitives":[{"attributes":{"POSITION":186,"TANGENT":187,"NORMAL":188,"TEXCOORD_0":189},"indices":185,"material":1}],"name":"LS208 & LS209 - Circum Square Post Material LS Material [9223691]"},{"primitives":[{"attributes":{"POSITION":191,"TANGENT":192,"NORMAL":193,"TEXCOORD_0":194},"indices":190,"material":1}],"name":"LS208 & LS209 - Circum Square Post Material LS Material [9223653]"},{"primitives":[{"attributes":{"POSITION":196,"TANGENT":197,"NORMAL":198,"TEXCOORD_0":199},"indices":195,"material":1}],"name":"LS208 & LS209 - Circum Square Post Material LS Material [9223615]"},{"primitives":[{"attributes":{"POSITION":201,"TANGENT":202,"NORMAL":203,"TEXCOORD_0":204},"indices":200,"material":1}],"name":"LS208 & LS209 - Circum Square Post Material LS Material [9223577]"},{"primitives":[{"attributes":{"POSITION":206,"TANGENT":207,"NORMAL":208,"TEXCOORD_0":209},"indices":205,"material":1}],"name":"LS208 & LS209 - Circum Square Post Material LS Material [9223539]"},{"primitives":[{"attributes":{"POSITION":211,"TANGENT":212,"NORMAL":213,"TEXCOORD_0":214},"indices":210,"material":1}],"name":"LS208 & LS209 - Circum Square Post Material LS Material [9223501]"},{"primitives":[{"attributes":{"POSITION":216,"TANGENT":217,"NORMAL":218,"TEXCOORD_0":219},"indices":215,"material":1}],"name":"LS208 & LS209 - Circum Square Post Material LS Material [9223463]"},{"primitives":[{"attributes":{"POSITION":221,"TANGENT":222,"NORMAL":223,"TEXCOORD_0":224},"indices":220,"material":1}],"name":"LS208 & LS209 - Circum Square Post Material LS Material [9223425]"},{"primitives":[{"attributes":{"POSITION":226,"TANGENT":227,"NORMAL":228,"TEXCOORD_0":229},"indices":225,"material":1}],"name":"LS208 & LS209 - Circum Square Post Material LS Material [9223387]"},{"primitives":[{"attributes":{"POSITION":231,"TANGENT":232,"NORMAL":233,"TEXCOORD_0":234},"indices":230,"material":1}],"name":"LS208 & LS209 - Circum Square Post Material LS Material [9223349]"},{"primitives":[{"attributes":{"POSITION":236,"TANGENT":237,"NORMAL":238,"TEXCOORD_0":239},"indices":235,"material":1}],"name":"LS208 & LS209 - Circum Square Post Material LS Material [9223311]"},{"primitives":[{"attributes":{"POSITION":241,"TANGENT":242,"NORMAL":243,"TEXCOORD_0":244},"indices":240,"material":1}],"name":"LS208 & LS209 - Circum Square Post Material LS Material [9223273]"},{"primitives":[{"attributes":{"POSITION":246,"TANGENT":247,"NORMAL":248,"TEXCOORD_0":249},"indices":245,"material":1}],"name":"LS208 & LS209 - Circum Square Post Material LS Material [9223235]"},{"primitives":[{"attributes":{"POSITION":251,"TANGENT":252,"NORMAL":253,"TEXCOORD_0":254},"indices":250,"material":1}],"name":"LS208 & LS209 - Circum Square Post Material LS Material [9223197]"},{"primitives":[{"attributes":{"POSITION":256,"TANGENT":257,"NORMAL":258,"TEXCOORD_0":259},"indices":255,"material":1}],"name":"LS208 & LS209 - Circum Square Post Material LS Material [9223159]"},{"primitives":[{"attributes":{"POSITION":261,"TANGENT":262,"NORMAL":263,"TEXCOORD_0":264},"indices":260,"material":1}],"name":"LS208 & LS209 - Circum Square Post Material LS Material [9223115]"},{"primitives":[{"attributes":{"POSITION":266,"TANGENT":267,"NORMAL":268,"TEXCOORD_0":269},"indices":265,"material":1}],"name":"LS208 & LS209 - Circum Square Post Material LS Material [9223043]"}],"accessors":[{"bufferView":0,"componentType":5123,"count":132,"type":"SCALAR","name":"accessorIndices"},{"bufferView":1,"componentType":5126,"count":82,"max":[0.67253757,0.76435065,0.0071501],"min":[-0.22733863,-0.7504923,-0.0071501],"type":"VEC3","name":"accessorPositions"},{"bufferView":2,"componentType":5126,"count":82,"type":"VEC4","name":"accessorTangents"},{"bufferView":1,"byteOffset":984,"componentType":5126,"count":82,"type":"VEC3","name":"accessorNormals"},{"bufferView":3,"componentType":5126,"count":82,"type":"VEC2","name":"accessorUVs"},{"bufferView":0,"byteOffset":264,"componentType":5123,"count":132,"type":"SCALAR","name":"accessorIndices"},{"bufferView":1,"byteOffset":1968,"componentType":5126,"count":82,"max":[0.16510001,0.41611978,0.0071501],"min":[-0.9136126,-1.2214502,-0.0071501],"type":"VEC3","name":"accessorPositions"},{"bufferView":2,"byteOffset":1312,"componentType":5126,"count":82,"type":"VEC4","name":"accessorTangents"},{"bufferView":1,"byteOffset":2952,"componentType":5126,"count":82,"type":"VEC3","name":"accessorNormals"},{"bufferView":3,"byteOffset":656,"componentType":5126,"count":82,"type":"VEC2","name":"accessorUVs"},{"bufferView":0,"byteOffset":528,"componentType":5123,"count":132,"type":"SCALAR","name":"accessorIndices"},{"bufferView":1,"byteOffset":3936,"componentType":5126,"count":96,"max":[0.2519172,0.1524,0.0071501],"min":[0.012700001,-0.701675,-0.0071501],"type":"VEC3","name":"accessorPositions"},{"bufferView":2,"byteOffset":2624,"componentType":5126,"count":96,"type":"VEC4","name":"accessorTangents"},{"bufferView":1,"byteOffset":5088,"componentType":5126,"count":96,"type":"VEC3","name":"accessorNormals"},{"bufferView":3,"byteOffset":1312,"componentType":5126,"count":96,"type":"VEC2","name":"accessorUVs"},{"bufferView":0,"byteOffset":792,"componentType":5123,"count":204,"type":"SCALAR","name":"accessorIndices"},{"bufferView":1,"byteOffset":6240,"componentType":5126,"count":126,"max":[0.77951753,0.0071501,1.4337071],"min":[-0.119604975,-0.0071501,5.266659E-14],"type":"VEC3","name":"accessorPositions"},{"bufferView":2,"byteOffset":4160,"componentType":5126,"count":126,"type":"VEC4","name":"accessorTangents"},{"bufferView":1,"byteOffset":7752,"componentType":5126,"count":126,"type":"VEC3","name":"accessorNormals"},{"bufferView":3,"byteOffset":2080,"componentType":5126,"count":126,"type":"VEC2","name":"accessorUVs"},{"bufferView":0,"byteOffset":1200,"componentType":5123,"count":132,"type":"SCALAR","name":"accessorIndices"},{"bufferView":1,"byteOffset":9264,"componentType":5126,"count":82,"max":[0.3937,0.71999997,0.0071501],"min":[-0.4111075,-0.730215,-0.0071501],"type":"VEC3","name":"accessorPositions"},{"bufferView":2,"byteOffset":6176,"componentType":5126,"count":82,"type":"VEC4","name":"accessorTangents"},{"bufferView":1,"byteOffset":10248,"componentType":5126,"count":82,"type":"VEC3","name":"accessorNormals"},{"bufferView":3,"byteOffset":3088,"componentType":5126,"count":82,"type":"VEC2","name":"accessorUVs"},{"bufferView":0,"byteOffset":1464,"componentType":5123,"count":108051,"type":"SCALAR","name":"accessorIndices"},{"bufferView":1,"byteOffset":11232,"componentType":5126,"count":21198,"max":[-27.580276,2.2050376,-27.066988],"min":[-29.340061,1.0594896,-27.3472],"type":"VEC3","name":"accessorPositions"},{"bufferView":2,"byteOffset":7488,"componentType":5126,"count":21198,"type":"VEC4","name":"accessorTangents"},{"bufferView":1,"byteOffset":265608,"componentType":5126,"count":21198,"type":"VEC3","name":"accessorNormals"},{"bufferView":3,"byteOffset":3744,"componentType":5126,"count":21198,"type":"VEC2","name":"accessorUVs"},{"bufferView":0,"byteOffset":217568,"componentType":5123,"count":456,"type":"SCALAR","name":"accessorIndices"},{"bufferView":1,"byteOffset":519984,"componentType":5126,"count":156,"max":[-27.580276,2.2050376,-27.067],"min":[-29.340061,1.0594896,-27.3472],"type":"VEC3","name":"accessorPositions"},{"bufferView":2,"byteOffset":346656,"componentType":5126,"count":156,"type":"VEC4","name":"accessorTangents"},{"bufferView":1,"byteOffset":521856,"componentType":5126,"count":156,"type":"VEC3","name":"accessorNormals"},{"bufferView":3,"byteOffset":173328,"componentType":5126,"count":156,"type":"VEC2","name":"accessorUVs"},{"bufferView":0,"byteOffset":218480,"componentType":5123,"count":110832,"type":"SCALAR","name":"accessorIndices"},{"bufferView":1,"byteOffset":523728,"componentType":5126,"count":21175,"max":[-27.30563,3.696539,-27.338488],"min":[-29.312819,2.275086,-27.376598],"type":"VEC3","name":"accessorPositions"},{"bufferView":2,"byteOffset":349152,"componentType":5126,"count":21175,"type":"VEC4","name":"accessorTangents"},{"bufferView":1,"byteOffset":777828,"componentType":5126,"count":21175,"type":"VEC3","name":"accessorNormals"},{"bufferView":3,"byteOffset":174576,"componentType":5126,"count":21175,"type":"VEC2","name":"accessorUVs"},{"bufferView":0,"byteOffset":440144,"componentType":5123,"count":492,"type":"SCALAR","name":"accessorIndices"},{"bufferView":1,"byteOffset":1031928,"componentType":5126,"count":168,"max":[-27.30563,3.696539,-27.338488],"min":[-29.312819,2.275086,-27.376587],"type":"VEC3","name":"accessorPositions"},{"bufferView":2,"byteOffset":687952,"componentType":5126,"count":168,"type":"VEC4","name":"accessorTangents"},{"bufferView":1,"byteOffset":1033944,"componentType":5126,"count":168,"type":"VEC3","name":"accessorNormals"},{"bufferView":3,"byteOffset":343976,"componentType":5126,"count":168,"type":"VEC2","name":"accessorUVs"},{"bufferView":0,"byteOffset":441128,"componentType":5123,"count":132,"type":"SCALAR","name":"accessorIndices"},{"bufferView":1,"byteOffset":1035960,"componentType":5126,"count":82,"max":[0.3937,0.71999997,0.0071501],"min":[-0.4111075,-0.730215,-0.0071501],"type":"VEC3","name":"accessorPositions"},{"bufferView":2,"byteOffset":690640,"componentType":5126,"count":82,"type":"VEC4","name":"accessorTangents"},{"bufferView":1,"byteOffset":1036944,"componentType":5126,"count":82,"type":"VEC3","name":"accessorNormals"},{"bufferView":3,"byteOffset":345320,"componentType":5126,"count":82,"type":"VEC2","name":"accessorUVs"},{"bufferView":0,"byteOffset":441392,"componentType":5125,"count":388239,"type":"SCALAR","name":"accessorIndices"},{"bufferView":1,"byteOffset":1037928,"componentType":5126,"count":73560,"max":[-27.30563,3.6965744,-26.119287],"min":[-30.287746,1.0594137,-28.324299],"type":"VEC3","name":"accessorPositions"},{"bufferView":2,"byteOffset":691952,"componentType":5126,"count":73560,"type":"VEC4","name":"accessorTangents"},{"bufferView":1,"byteOffset":1920648,"componentType":5126,"count":73560,"type":"VEC3","name":"accessorNormals"},{"bufferView":3,"byteOffset":345976,"componentType":5126,"count":73560,"type":"VEC2","name":"accessorUVs"},{"bufferView":0,"byteOffset":1994348,"componentType":5125,"count":492,"type":"SCALAR","name":"accessorIndices"},{"bufferView":1,"byteOffset":2803368,"componentType":5126,"count":168,"max":[-27.30563,3.6965744,-26.119287],"min":[-27.580276,1.0594137,-28.324299],"type":"VEC3","name":"accessorPositions"},{"bufferView":2,"byteOffset":1868912,"componentType":5126,"count":168,"type":"VEC4","name":"accessorTangents"},{"bufferView":1,"byteOffset":2805384,"componentType":5126,"count":168,"type":"VEC3","name":"accessorNormals"},{"bufferView":3,"byteOffset":934456,"componentType":5126,"count":168,"type":"VEC2","name":"accessorUVs"},{"bufferView":0,"byteOffset":1996316,"componentType":5123,"count":132,"type":"SCALAR","name":"accessorIndices"},{"bufferView":1,"byteOffset":2807400,"componentType":5126,"count":82,"max":[0.16510001,0.41611978,0.0071501],"min":[-0.9136126,-1.2214502,-0.0071501],"type":"VEC3","name":"accessorPositions"},{"bufferView":2,"byteOffset":1871600,"componentType":5126,"count":82,"type":"VEC4","name":"accessorTangents"},{"bufferView":1,"byteOffset":2808384,"componentType":5126,"count":82,"type":"VEC3","name":"accessorNormals"},{"bufferView":3,"byteOffset":935800,"componentType":5126,"count":82,"type":"VEC2","name":"accessorUVs"},{"bufferView":0,"byteOffset":1996580,"componentType":5123,"count":132,"type":"SCALAR","name":"accessorIndices"},{"bufferView":1,"byteOffset":2809368,"componentType":5126,"count":96,"max":[0.40886727,0.3245767,0.0071501],"min":[-0.35996616,-0.52949834,-0.0071501],"type":"VEC3","name":"accessorPositions"},{"bufferView":2,"byteOffset":1872912,"componentType":5126,"count":96,"type":"VEC4","name":"accessorTangents"},{"bufferView":1,"byteOffset":2810520,"componentType":5126,"count":96,"type":"VEC3","name":"accessorNormals"},{"bufferView":3,"byteOffset":936456,"componentType":5126,"count":96,"type":"VEC2","name":"accessorUVs"},{"bufferView":0,"byteOffset":1996844,"componentType":5123,"count":168,"type":"SCALAR","name":"accessorIndices"},{"bufferView":1,"byteOffset":2811672,"componentType":5126,"count":99,"max":[-28.40499,2.929653,-28.298086],"min":[-29.471046,1.3404851,-28.312412],"type":"VEC3","name":"accessorPositions"},{"bufferView":2,"byteOffset":1874448,"componentType":5126,"count":99,"type":"VEC4","name":"accessorTangents"},{"bufferView":1,"byteOffset":2812860,"componentType":5126,"count":99,"type":"VEC3","name":"accessorNormals"},{"bufferView":3,"byteOffset":937224,"componentType":5126,"count":99,"type":"VEC2","name":"accessorUVs"},{"bufferView":0,"byteOffset":1997180,"componentType":5123,"count":132,"type":"SCALAR","name":"accessorIndices"},{"bufferView":1,"byteOffset":2814048,"componentType":5126,"count":96,"max":[0.70101464,0.3245767,0.0071501],"min":[-0.35996616,-0.52949834,-0.0071501],"type":"VEC3","name":"accessorPositions"},{"bufferView":2,"byteOffset":1876032,"componentType":5126,"count":96,"type":"VEC4","name":"accessorTangents"},{"bufferView":1,"byteOffset":2815200,"componentType":5126,"count":96,"type":"VEC3","name":"accessorNormals"},{"bufferView":3,"byteOffset":938016,"componentType":5126,"count":96,"type":"VEC2","name":"accessorUVs"},{"bufferView":0,"byteOffset":1997444,"componentType":5123,"count":132,"type":"SCALAR","name":"accessorIndices"},{"bufferView":1,"byteOffset":2816352,"componentType":5126,"count":96,"max":[0.70101464,0.3245767,0.0071501],"min":[-0.35996616,-0.52949834,-0.0071501],"type":"VEC3","name":"accessorPositions"},{"bufferView":2,"byteOffset":1877568,"componentType":5126,"count":96,"type":"VEC4","name":"accessorTangents"},{"bufferView":1,"byteOffset":2817504,"componentType":5126,"count":96,"type":"VEC3","name":"accessorNormals"},{"bufferView":3,"byteOffset":938784,"componentType":5126,"count":96,"type":"VEC2","name":"accessorUVs"},{"bufferView":0,"byteOffset":1997708,"componentType":5123,"count":132,"type":"SCALAR","name":"accessorIndices"},{"bufferView":1,"byteOffset":2818656,"componentType":5126,"count":96,"max":[0.7010096,0.3245767,0.0071501],"min":[-0.35996616,-0.52949834,-0.0071501],"type":"VEC3","name":"accessorPositions"},{"bufferView":2,"byteOffset":1879104,"componentType":5126,"count":96,"type":"VEC4","name":"accessorTangents"},{"bufferView":1,"byteOffset":2819808,"componentType":5126,"count":96,"type":"VEC3","name":"accessorNormals"},{"bufferView":3,"byteOffset":939552,"componentType":5126,"count":96,"type":"VEC2","name":"accessorUVs"},{"bufferView":0,"byteOffset":1997972,"componentType":5123,"count":132,"type":"SCALAR","name":"accessorIndices"},{"bufferView":1,"byteOffset":2820960,"componentType":5126,"count":82,"max":[0.38105503,0.71131253,0.0071501],"min":[-0.39211252,-0.71716493,-0.0071501],"type":"VEC3","name":"accessorPositions"},{"bufferView":2,"byteOffset":1880640,"componentType":5126,"count":82,"type":"VEC4","name":"accessorTangents"},{"bufferView":1,"byteOffset":2821944,"componentType":5126,"count":82,"type":"VEC3","name":"accessorNormals"},{"bufferView":3,"byteOffset":940320,"componentType":5126,"count":82,"type":"VEC2","name":"accessorUVs"},{"bufferView":0,"byteOffset":1998236,"componentType":5123,"count":1728,"type":"SCALAR","name":"accessorIndices"},{"bufferView":1,"byteOffset":2822928,"componentType":5126,"count":580,"max":[0.0015748,0.0142875,0.0142875],"min":[1.8652728E-14,-0.0142875,-0.0142875],"type":"VEC3","name":"accessorPositions"},{"bufferView":2,"byteOffset":1881952,"componentType":5126,"count":580,"type":"VEC4","name":"accessorTangents"},{"bufferView":1,"byteOffset":2829888,"componentType":5126,"count":580,"type":"VEC3","name":"accessorNormals"},{"bufferView":3,"byteOffset":940976,"componentType":5126,"count":580,"type":"VEC2","name":"accessorUVs"},{"bufferView":0,"byteOffset":2001692,"componentType":5123,"count":1728,"type":"SCALAR","name":"accessorIndices"},{"bufferView":1,"byteOffset":2836848,"componentType":5126,"count":580,"max":[0.0015748,0.0142875,0.0142875],"min":[1.8652728E-14,-0.0142875,-0.0142875],"type":"VEC3","name":"accessorPositions"},{"bufferView":2,"byteOffset":1891232,"componentType":5126,"count":580,"type":"VEC4","name":"accessorTangents"},{"bufferView":1,"byteOffset":2843808,"componentType":5126,"count":580,"type":"VEC3","name":"accessorNormals"},{"bufferView":3,"byteOffset":945616,"componentType":5126,"count":580,"type":"VEC2","name":"accessorUVs"},{"bufferView":0,"byteOffset":2005148,"componentType":5123,"count":432,"type":"SCALAR","name":"accessorIndices"},{"bufferView":1,"byteOffset":2850768,"componentType":5126,"count":146,"max":[0.0063500004,0.01905,0.01905],"min":[1.8592634E-14,-0.01905,-0.01905],"type":"VEC3","name":"accessorPositions"},{"bufferView":2,"byteOffset":1900512,"componentType":5126,"count":146,"type":"VEC4","name":"accessorTangents"},{"bufferView":1,"byteOffset":2852520,"componentType":5126,"count":146,"type":"VEC3","name":"accessorNormals"},{"bufferView":3,"byteOffset":950256,"componentType":5126,"count":146,"type":"VEC2","name":"accessorUVs"},{"bufferView":0,"byteOffset":2006012,"componentType":5123,"count":420,"type":"SCALAR","name":"accessorIndices"},{"bufferView":1,"byteOffset":2854272,"componentType":5126,"count":144,"max":[0.0063500004,0.01905,0.01905],"min":[1.8592634E-14,-0.01905,-0.01905],"type":"VEC3","name":"accessorPositions"},{"bufferView":2,"byteOffset":1902848,"componentType":5126,"count":144,"type":"VEC4","name":"accessorTangents"},{"bufferView":1,"byteOffset":2856000,"componentType":5126,"count":144,"type":"VEC3","name":"accessorNormals"},{"bufferView":3,"byteOffset":951424,"componentType":5126,"count":144,"type":"VEC2","name":"accessorUVs"},{"bufferView":0,"byteOffset":2006852,"componentType":5123,"count":918,"type":"SCALAR","name":"accessorIndices"},{"bufferView":1,"byteOffset":2857728,"componentType":5126,"count":309,"max":[0.053975,0.025400002,0.053975],"min":[-0.053975,-3.0953716E-15,-0.053975],"type":"VEC3","name":"accessorPositions"},{"bufferView":2,"byteOffset":1905152,"componentType":5126,"count":309,"type":"VEC4","name":"accessorTangents"},{"bufferView":1,"byteOffset":2861436,"componentType":5126,"count":309,"type":"VEC3","name":"accessorNormals"},{"bufferView":3,"byteOffset":952576,"componentType":5126,"count":309,"type":"VEC2","name":"accessorUVs"},{"bufferView":0,"byteOffset":2008688,"componentType":5123,"count":612,"type":"SCALAR","name":"accessorIndices"},{"bufferView":1,"byteOffset":2865144,"componentType":5126,"count":216,"max":[0.46989998,0.025400002,0.025539069],"min":[6.357896E-15,-0.025400002,-0.025539069],"type":"VEC3","name":"accessorPositions"},{"bufferView":2,"byteOffset":1910096,"componentType":5126,"count":216,"type":"VEC4","name":"accessorTangents"},{"bufferView":1,"byteOffset":2867736,"componentType":5126,"count":216,"type":"VEC3","name":"accessorNormals"},{"bufferView":3,"byteOffset":955048,"componentType":5126,"count":216,"type":"VEC2","name":"accessorUVs"},{"bufferView":0,"byteOffset":2009912,"componentType":5123,"count":324,"type":"SCALAR","name":"accessorIndices"},{"bufferView":1,"byteOffset":2870328,"componentType":5126,"count":120,"max":[0.025592525,0.0031551565,0.025590502],"min":[-0.025588477,-2.0427421E-15,-0.025590502],"type":"VEC3","name":"accessorPositions"},{"bufferView":2,"byteOffset":1913552,"componentType":5126,"count":120,"type":"VEC4","name":"accessorTangents"},{"bufferView":1,"byteOffset":2871768,"componentType":5126,"count":120,"type":"VEC3","name":"accessorNormals"},{"bufferView":3,"byteOffset":956776,"componentType":5126,"count":120,"type":"VEC2","name":"accessorUVs"},{"bufferView":0,"byteOffset":2010560,"componentType":5123,"count":912,"type":"SCALAR","name":"accessorIndices"},{"bufferView":1,"byteOffset":2873208,"componentType":5126,"count":504,"max":[0.025400002,0.025400002,0.009525],"min":[-0.025400002,-0.27940002,-0.019231388],"type":"VEC3","name":"accessorPositions"},{"bufferView":2,"byteOffset":1915472,"componentType":5126,"count":504,"type":"VEC4","name":"accessorTangents"},{"bufferView":1,"byteOffset":2879256,"componentType":5126,"count":504,"type":"VEC3","name":"accessorNormals"},{"bufferView":3,"byteOffset":957736,"componentType":5126,"count":504,"type":"VEC2","name":"accessorUVs"},{"bufferView":0,"byteOffset":2012384,"componentType":5123,"count":276,"type":"SCALAR","name":"accessorIndices"},{"bufferView":1,"byteOffset":2885304,"componentType":5126,"count":96,"max":[0.006545005,0.006544994,-0.01923138],"min":[-0.0065449835,-0.2605452,-0.019231388],"type":"VEC3","name":"accessorPositions"},{"bufferView":2,"byteOffset":1923536,"componentType":5126,"count":96,"type":"VEC4","name":"accessorTangents"},{"bufferView":1,"byteOffset":2886456,"componentType":5126,"count":96,"type":"VEC3","name":"accessorNormals"},{"bufferView":3,"byteOffset":961768,"componentType":5126,"count":96,"type":"VEC2","name":"accessorUVs"},{"bufferView":0,"byteOffset":2012936,"componentType":5123,"count":1728,"type":"SCALAR","name":"accessorIndices"},{"bufferView":1,"byteOffset":2887608,"componentType":5126,"count":580,"max":[0.0015748,0.0142875,0.0142875],"min":[1.8652728E-14,-0.0142875,-0.0142875],"type":"VEC3","name":"accessorPositions"},{"bufferView":2,"byteOffset":1925072,"componentType":5126,"count":580,"type":"VEC4","name":"accessorTangents"},{"bufferView":1,"byteOffset":2894568,"componentType":5126,"count":580,"type":"VEC3","name":"accessorNormals"},{"bufferView":3,"byteOffset":962536,"componentType":5126,"count":580,"type":"VEC2","name":"accessorUVs"},{"bufferView":0,"byteOffset":2016392,"componentType":5123,"count":1728,"type":"SCALAR","name":"accessorIndices"},{"bufferView":1,"byteOffset":2901528,"componentType":5126,"count":580,"max":[0.0015748,0.0142875,0.0142875],"min":[1.8652728E-14,-0.0142875,-0.0142875],"type":"VEC3","name":"accessorPositions"},{"bufferView":2,"byteOffset":1934352,"componentType":5126,"count":580,"type":"VEC4","name":"accessorTangents"},{"bufferView":1,"byteOffset":2908488,"componentType":5126,"count":580,"type":"VEC3","name":"accessorNormals"},{"bufferView":3,"byteOffset":967176,"componentType":5126,"count":580,"type":"VEC2","name":"accessorUVs"},{"bufferView":0,"byteOffset":2019848,"componentType":5123,"count":612,"type":"SCALAR","name":"accessorIndices"},{"bufferView":1,"byteOffset":2915448,"componentType":5126,"count":216,"max":[0.46989998,0.025400002,0.025539069],"min":[6.357896E-15,-0.025400002,-0.025539069],"type":"VEC3","name":"accessorPositions"},{"bufferView":2,"byteOffset":1943632,"componentType":5126,"count":216,"type":"VEC4","name":"accessorTangents"},{"bufferView":1,"byteOffset":2918040,"componentType":5126,"count":216,"type":"VEC3","name":"accessorNormals"},{"bufferView":3,"byteOffset":971816,"componentType":5126,"count":216,"type":"VEC2","name":"accessorUVs"},{"bufferView":0,"byteOffset":2021072,"componentType":5123,"count":612,"type":"SCALAR","name":"accessorIndices"},{"bufferView":1,"byteOffset":2920632,"componentType":5126,"count":216,"max":[0.46989998,0.025400002,0.025539069],"min":[6.357896E-15,-0.025400002,-0.025539069],"type":"VEC3","name":"accessorPositions"},{"bufferView":2,"byteOffset":1947088,"componentType":5126,"count":216,"type":"VEC4","name":"accessorTangents"},{"bufferView":1,"byteOffset":2923224,"componentType":5126,"count":216,"type":"VEC3","name":"accessorNormals"},{"bufferView":3,"byteOffset":973544,"componentType":5126,"count":216,"type":"VEC2","name":"accessorUVs"},{"bufferView":0,"byteOffset":2022296,"componentType":5123,"count":612,"type":"SCALAR","name":"accessorIndices"},{"bufferView":1,"byteOffset":2925816,"componentType":5126,"count":216,"max":[0.46989998,0.025400002,0.025539069],"min":[6.357896E-15,-0.025400002,-0.025539069],"type":"VEC3","name":"accessorPositions"},{"bufferView":2,"byteOffset":1950544,"componentType":5126,"count":216,"type":"VEC4","name":"accessorTangents"},{"bufferView":1,"byteOffset":2928408,"componentType":5126,"count":216,"type":"VEC3","name":"accessorNormals"},{"bufferView":3,"byteOffset":975272,"componentType":5126,"count":216,"type":"VEC2","name":"accessorUVs"},{"bufferView":0,"byteOffset":2023520,"componentType":5123,"count":612,"type":"SCALAR","name":"accessorIndices"},{"bufferView":1,"byteOffset":2931000,"componentType":5126,"count":216,"max":[0.46989998,0.025400002,0.025539069],"min":[6.357896E-15,-0.025400002,-0.025539069],"type":"VEC3","name":"accessorPositions"},{"bufferView":2,"byteOffset":1954000,"componentType":5126,"count":216,"type":"VEC4","name":"accessorTangents"},{"bufferView":1,"byteOffset":2933592,"componentType":5126,"count":216,"type":"VEC3","name":"accessorNormals"},{"bufferView":3,"byteOffset":977000,"componentType":5126,"count":216,"type":"VEC2","name":"accessorUVs"},{"bufferView":0,"byteOffset":2024744,"componentType":5123,"count":612,"type":"SCALAR","name":"accessorIndices"},{"bufferView":1,"byteOffset":2936184,"componentType":5126,"count":216,"max":[0.46989998,0.025400002,0.025539069],"min":[6.357896E-15,-0.025400002,-0.025539069],"type":"VEC3","name":"accessorPositions"},{"bufferView":2,"byteOffset":1957456,"componentType":5126,"count":216,"type":"VEC4","name":"accessorTangents"},{"bufferView":1,"byteOffset":2938776,"componentType":5126,"count":216,"type":"VEC3","name":"accessorNormals"},{"bufferView":3,"byteOffset":978728,"componentType":5126,"count":216,"type":"VEC2","name":"accessorUVs"},{"bufferView":0,"byteOffset":2025968,"componentType":5123,"count":612,"type":"SCALAR","name":"accessorIndices"},{"bufferView":1,"byteOffset":2941368,"componentType":5126,"count":216,"max":[0.46989998,0.025400002,0.025539069],"min":[6.357896E-15,-0.025400002,-0.025539069],"type":"VEC3","name":"accessorPositions"},{"bufferView":2,"byteOffset":1960912,"componentType":5126,"count":216,"type":"VEC4","name":"accessorTangents"},{"bufferView":1,"byteOffset":2943960,"componentType":5126,"count":216,"type":"VEC3","name":"accessorNormals"},{"bufferView":3,"byteOffset":980456,"componentType":5126,"count":216,"type":"VEC2","name":"accessorUVs"},{"bufferView":0,"byteOffset":2027192,"componentType":5123,"count":612,"type":"SCALAR","name":"accessorIndices"},{"bufferView":1,"byteOffset":2946552,"componentType":5126,"count":216,"max":[0.46989998,0.025400002,0.025539069],"min":[6.357896E-15,-0.025400002,-0.025539069],"type":"VEC3","name":"accessorPositions"},{"bufferView":2,"byteOffset":1964368,"componentType":5126,"count":216,"type":"VEC4","name":"accessorTangents"},{"bufferView":1,"byteOffset":2949144,"componentType":5126,"count":216,"type":"VEC3","name":"accessorNormals"},{"bufferView":3,"byteOffset":982184,"componentType":5126,"count":216,"type":"VEC2","name":"accessorUVs"},{"bufferView":0,"byteOffset":2028416,"componentType":5123,"count":612,"type":"SCALAR","name":"accessorIndices"},{"bufferView":1,"byteOffset":2951736,"componentType":5126,"count":216,"max":[0.5568696,0.025400002,0.025539069],"min":[6.357896E-15,-0.025400002,-0.025539069],"type":"VEC3","name":"accessorPositions"},{"bufferView":2,"byteOffset":1967824,"componentType":5126,"count":216,"type":"VEC4","name":"accessorTangents"},{"bufferView":1,"byteOffset":2954328,"componentType":5126,"count":216,"type":"VEC3","name":"accessorNormals"},{"bufferView":3,"byteOffset":983912,"componentType":5126,"count":216,"type":"VEC2","name":"accessorUVs"},{"bufferView":0,"byteOffset":2029640,"componentType":5123,"count":612,"type":"SCALAR","name":"accessorIndices"},{"bufferView":1,"byteOffset":2956920,"componentType":5126,"count":216,"max":[0.5568696,0.025400002,0.025539069],"min":[6.357896E-15,-0.025400002,-0.025539069],"type":"VEC3","name":"accessorPositions"},{"bufferView":2,"byteOffset":1971280,"componentType":5126,"count":216,"type":"VEC4","name":"accessorTangents"},{"bufferView":1,"byteOffset":2959512,"componentType":5126,"count":216,"type":"VEC3","name":"accessorNormals"},{"bufferView":3,"byteOffset":985640,"componentType":5126,"count":216,"type":"VEC2","name":"accessorUVs"},{"bufferView":0,"byteOffset":2030864,"componentType":5123,"count":612,"type":"SCALAR","name":"accessorIndices"},{"bufferView":1,"byteOffset":2962104,"componentType":5126,"count":216,"max":[0.5568696,0.025400002,0.025539069],"min":[6.357896E-15,-0.025400002,-0.025539069],"type":"VEC3","name":"accessorPositions"},{"bufferView":2,"byteOffset":1974736,"componentType":5126,"count":216,"type":"VEC4","name":"accessorTangents"},{"bufferView":1,"byteOffset":2964696,"componentType":5126,"count":216,"type":"VEC3","name":"accessorNormals"},{"bufferView":3,"byteOffset":987368,"componentType":5126,"count":216,"type":"VEC2","name":"accessorUVs"},{"bufferView":0,"byteOffset":2032088,"componentType":5123,"count":612,"type":"SCALAR","name":"accessorIndices"},{"bufferView":1,"byteOffset":2967288,"componentType":5126,"count":216,"max":[0.5568696,0.025400002,0.025539069],"min":[6.357896E-15,-0.025400002,-0.025539069],"type":"VEC3","name":"accessorPositions"},{"bufferView":2,"byteOffset":1978192,"componentType":5126,"count":216,"type":"VEC4","name":"accessorTangents"},{"bufferView":1,"byteOffset":2969880,"componentType":5126,"count":216,"type":"VEC3","name":"accessorNormals"},{"bufferView":3,"byteOffset":989096,"componentType":5126,"count":216,"type":"VEC2","name":"accessorUVs"},{"bufferView":0,"byteOffset":2033312,"componentType":5123,"count":612,"type":"SCALAR","name":"accessorIndices"},{"bufferView":1,"byteOffset":2972472,"componentType":5126,"count":216,"max":[0.5568696,0.025400002,0.025539069],"min":[6.357896E-15,-0.025400002,-0.025539069],"type":"VEC3","name":"accessorPositions"},{"bufferView":2,"byteOffset":1981648,"componentType":5126,"count":216,"type":"VEC4","name":"accessorTangents"},{"bufferView":1,"byteOffset":2975064,"componentType":5126,"count":216,"type":"VEC3","name":"accessorNormals"},{"bufferView":3,"byteOffset":990824,"componentType":5126,"count":216,"type":"VEC2","name":"accessorUVs"},{"bufferView":0,"byteOffset":2034536,"componentType":5123,"count":612,"type":"SCALAR","name":"accessorIndices"},{"bufferView":1,"byteOffset":2977656,"componentType":5126,"count":216,"max":[0.5568696,0.025400002,0.025539069],"min":[6.357896E-15,-0.025400002,-0.025539069],"type":"VEC3","name":"accessorPositions"},{"bufferView":2,"byteOffset":1985104,"componentType":5126,"count":216,"type":"VEC4","name":"accessorTangents"},{"bufferView":1,"byteOffset":2980248,"componentType":5126,"count":216,"type":"VEC3","name":"accessorNormals"},{"bufferView":3,"byteOffset":992552,"componentType":5126,"count":216,"type":"VEC2","name":"accessorUVs"},{"bufferView":0,"byteOffset":2035760,"componentType":5123,"count":612,"type":"SCALAR","name":"accessorIndices"},{"bufferView":1,"byteOffset":2982840,"componentType":5126,"count":216,"max":[0.5568696,0.025400002,0.025539069],"min":[6.357896E-15,-0.025400002,-0.025539069],"type":"VEC3","name":"accessorPositions"},{"bufferView":2,"byteOffset":1988560,"componentType":5126,"count":216,"type":"VEC4","name":"accessorTangents"},{"bufferView":1,"byteOffset":2985432,"componentType":5126,"count":216,"type":"VEC3","name":"accessorNormals"},{"bufferView":3,"byteOffset":994280,"componentType":5126,"count":216,"type":"VEC2","name":"accessorUVs"},{"bufferView":0,"byteOffset":2036984,"componentType":5123,"count":780,"type":"SCALAR","name":"accessorIndices"},{"bufferView":1,"byteOffset":2988024,"componentType":5126,"count":244,"max":[0.5568696,0.025400002,0.025539069],"min":[6.357896E-15,-0.025400002,-0.025539069],"type":"VEC3","name":"accessorPositions"},{"bufferView":2,"byteOffset":1992016,"componentType":5126,"count":244,"type":"VEC4","name":"accessorTangents"},{"bufferView":1,"byteOffset":2990952,"componentType":5126,"count":244,"type":"VEC3","name":"accessorNormals"},{"bufferView":3,"byteOffset":996008,"componentType":5126,"count":244,"type":"VEC2","name":"accessorUVs"},{"bufferView":0,"byteOffset":2038544,"componentType":5123,"count":612,"type":"SCALAR","name":"accessorIndices"},{"bufferView":1,"byteOffset":2993880,"componentType":5126,"count":216,"max":[0.5568696,0.025400002,0.025539069],"min":[6.357896E-15,-0.025400002,-0.025539069],"type":"VEC3","name":"accessorPositions"},{"bufferView":2,"byteOffset":1995920,"componentType":5126,"count":216,"type":"VEC4","name":"accessorTangents"},{"bufferView":1,"byteOffset":2996472,"componentType":5126,"count":216,"type":"VEC3","name":"accessorNormals"},{"bufferView":3,"byteOffset":997960,"componentType":5126,"count":216,"type":"VEC2","name":"accessorUVs"},{"bufferView":0,"byteOffset":2039768,"componentType":5123,"count":612,"type":"SCALAR","name":"accessorIndices"},{"bufferView":1,"byteOffset":2999064,"componentType":5126,"count":216,"max":[0.5568696,0.025400002,0.025539069],"min":[6.357896E-15,-0.025400002,-0.025539069],"type":"VEC3","name":"accessorPositions"},{"bufferView":2,"byteOffset":1999376,"componentType":5126,"count":216,"type":"VEC4","name":"accessorTangents"},{"bufferView":1,"byteOffset":3001656,"componentType":5126,"count":216,"type":"VEC3","name":"accessorNormals"},{"bufferView":3,"byteOffset":999688,"componentType":5126,"count":216,"type":"VEC2","name":"accessorUVs"},{"bufferView":0,"byteOffset":2040992,"componentType":5123,"count":612,"type":"SCALAR","name":"accessorIndices"},{"bufferView":1,"byteOffset":3004248,"componentType":5126,"count":216,"max":[0.5568696,0.025400002,0.025539069],"min":[6.357896E-15,-0.025400002,-0.025539069],"type":"VEC3","name":"accessorPositions"},{"bufferView":2,"byteOffset":2002832,"componentType":5126,"count":216,"type":"VEC4","name":"accessorTangents"},{"bufferView":1,"byteOffset":3006840,"componentType":5126,"count":216,"type":"VEC3","name":"accessorNormals"},{"bufferView":3,"byteOffset":1001416,"componentType":5126,"count":216,"type":"VEC2","name":"accessorUVs"},{"bufferView":0,"byteOffset":2042216,"componentType":5123,"count":612,"type":"SCALAR","name":"accessorIndices"},{"bufferView":1,"byteOffset":3009432,"componentType":5126,"count":216,"max":[0.46989998,0.025400002,0.025539069],"min":[6.357896E-15,-0.025400002,-0.025539069],"type":"VEC3","name":"accessorPositions"},{"bufferView":2,"byteOffset":2006288,"componentType":5126,"count":216,"type":"VEC4","name":"accessorTangents"},{"bufferView":1,"byteOffset":3012024,"componentType":5126,"count":216,"type":"VEC3","name":"accessorNormals"},{"bufferView":3,"byteOffset":1003144,"componentType":5126,"count":216,"type":"VEC2","name":"accessorUVs"},{"bufferView":0,"byteOffset":2043440,"componentType":5123,"count":612,"type":"SCALAR","name":"accessorIndices"},{"bufferView":1,"byteOffset":3014616,"componentType":5126,"count":216,"max":[0.5568696,0.025400002,0.025539069],"min":[6.357896E-15,-0.025400002,-0.025539069],"type":"VEC3","name":"accessorPositions"},{"bufferView":2,"byteOffset":2009744,"componentType":5126,"count":216,"type":"VEC4","name":"accessorTangents"},{"bufferView":1,"byteOffset":3017208,"componentType":5126,"count":216,"type":"VEC3","name":"accessorNormals"},{"bufferView":3,"byteOffset":1004872,"componentType":5126,"count":216,"type":"VEC2","name":"accessorUVs"},{"bufferView":0,"byteOffset":2044664,"componentType":5123,"count":612,"type":"SCALAR","name":"accessorIndices"},{"bufferView":1,"byteOffset":3019800,"componentType":5126,"count":216,"max":[0.5568696,0.025400002,0.025539069],"min":[6.357896E-15,-0.025400002,-0.025539069],"type":"VEC3","name":"accessorPositions"},{"bufferView":2,"byteOffset":2013200,"componentType":5126,"count":216,"type":"VEC4","name":"accessorTangents"},{"bufferView":1,"byteOffset":3022392,"componentType":5126,"count":216,"type":"VEC3","name":"accessorNormals"},{"bufferView":3,"byteOffset":1006600,"componentType":5126,"count":216,"type":"VEC2","name":"accessorUVs"},{"bufferView":0,"byteOffset":2045888,"componentType":5123,"count":612,"type":"SCALAR","name":"accessorIndices"},{"bufferView":1,"byteOffset":3024984,"componentType":5126,"count":216,"max":[0.5568696,0.025400002,0.025539069],"min":[6.357896E-15,-0.025400002,-0.025539069],"type":"VEC3","name":"accessorPositions"},{"bufferView":2,"byteOffset":2016656,"componentType":5126,"count":216,"type":"VEC4","name":"accessorTangents"},{"bufferView":1,"byteOffset":3027576,"componentType":5126,"count":216,"type":"VEC3","name":"accessorNormals"},{"bufferView":3,"byteOffset":1008328,"componentType":5126,"count":216,"type":"VEC2","name":"accessorUVs"},{"bufferView":0,"byteOffset":2047112,"componentType":5123,"count":780,"type":"SCALAR","name":"accessorIndices"},{"bufferView":1,"byteOffset":3030168,"componentType":5126,"count":244,"max":[0.5568696,0.025400002,0.025539069],"min":[6.357896E-15,-0.025400002,-0.025539069],"type":"VEC3","name":"accessorPositions"},{"bufferView":2,"byteOffset":2020112,"componentType":5126,"count":244,"type":"VEC4","name":"accessorTangents"},{"bufferView":1,"byteOffset":3033096,"componentType":5126,"count":244,"type":"VEC3","name":"accessorNormals"},{"bufferView":3,"byteOffset":1010056,"componentType":5126,"count":244,"type":"VEC2","name":"accessorUVs"},{"bufferView":0,"byteOffset":2048672,"componentType":5123,"count":612,"type":"SCALAR","name":"accessorIndices"},{"bufferView":1,"byteOffset":3036024,"componentType":5126,"count":312,"max":[0.5568696,0.025400003,0.025539069],"min":[6.357896E-15,-0.025400002,-0.025539257],"type":"VEC3","name":"accessorPositions"},{"bufferView":2,"byteOffset":2024016,"componentType":5126,"count":312,"type":"VEC4","name":"accessorTangents"},{"bufferView":1,"byteOffset":3039768,"componentType":5126,"count":312,"type":"VEC3","name":"accessorNormals"},{"bufferView":3,"byteOffset":1012008,"componentType":5126,"count":312,"type":"VEC2","name":"accessorUVs"}],"bufferViews":[{"buffer":0,"byteLength":2049896,"name":"bufferViewScalar"},{"buffer":0,"byteOffset":2049896,"byteLength":3043512,"byteStride":12,"name":"bufferViewFloatVec3"},{"buffer":0,"byteOffset":5093408,"byteLength":2029008,"byteStride":16,"name":"bufferViewFloatVec4"},{"buffer":0,"byteOffset":7122416,"byteLength":1014504,"byteStride":8,"name":"bufferViewFloatVec2"}],"buffers":[{"uri":"Switchback_Railing_Lo-Post_Square.bin","byteLength":8136920}],"materials":[{"pbrMetallicRoughness":{"baseColorFactor":[0.9999998,0.9999999,0.9999999,1.0],"metallicFactor":0.0,"roughnessFactor":0.1},"name":"Glass","extensions":{"KHR_materials_ior":{"ior":1.0},"KHR_materials_transmission":{"transmissionFactor":0.97},"KHR_materials_volume":{"thicknessFactor":0.56,"attenuationDistance":0.5,"attenuationColor":[0.49521634,0.56476736,0.5317566]}}},{"pbrMetallicRoughness":{"baseColorFactor":[0.9999998,0.9999999,0.9999999,1.0],"baseColorTexture":{"index":0,"extensions":{"KHR_texture_transform":{"offset":[0.19519997,0.8048],"rotation":1.5707964,"scale":[0.6096,0.6096],"texCoord":0}}},"roughnessFactor":0.2,"metallicRoughnessTexture":{"index":0,"extensions":{"KHR_texture_transform":{"offset":[0.19519997,0.8048],"rotation":1.5707964,"scale":[0.6096,0.6096],"texCoord":0}}}},"name":"Steel_Linear"},{"pbrMetallicRoughness":{"baseColorFactor":[0.9999998,0.9999999,0.9999999,1.0],"baseColorTexture":{"index":1},"roughnessFactor":0.2,"metallicRoughnessTexture":{"index":1}},"name":"Steel_Radial"},{"pbrMetallicRoughness":{"baseColorFactor":[0.10641303,0.10641304,0.10641304,1.0],"metallicFactor":0.0,"roughnessFactor":0.99,"metallicRoughnessTexture":{"index":2}},"name":"Rubber","extensions":{"KHR_materials_specular":{"specularFactor":0.1}}}],"textures":[{"sampler":0,"source":0,"name":"Metal_Brushed_Linear_4k.jpg"},{"sampler":0,"source":1,"name":"Metal_Brushed_Radial_4k.jpg"},{"sampler":0,"source":2,"name":"PowderCoat_Roughness_2k0.jpg"}],"images":[{"uri":"textures/Metal_Brushed_Linear_4k.jpg"},{"uri":"textures/Metal_Brushed_Radial_4k.jpg"},{"uri":"textures/PowderCoat_Roughness_2k0.jpg"}],"samplers":[{"magFilter":9729,"minFilter":9987}]}